####
#
# OBJ File Generated by Meshlab
#
####
# Object matlab_mesh_step1_link6.obj
#
# Vertices: 173
# Faces: 342
#
####
vn 1.948140 -1.341924 4.748327
v 0.523824 0.294127 1.110255
vn 3.146976 -2.059288 4.099340
v 0.536422 0.285289 1.098434
vn 4.372288 0.051016 4.511496
v 0.565273 0.380794 1.069499
vn 3.068285 0.731597 5.202580
v 0.552674 0.389631 1.081320
vn 1.811485 1.283418 5.877445
v 0.521943 0.404984 1.087578
vn -0.542575 -3.770640 3.976221
v 0.523821 0.294126 1.110255
vn 1.675515 -3.178772 2.736298
v 0.536424 0.285285 1.098429
vn -0.478075 -1.865423 4.164479
v 0.493093 0.309480 1.116512
vn 4.877395 -0.368601 3.848101
v 0.551275 0.321065 1.083592
vn 1.962760 1.449987 5.787201
v 0.528895 0.422792 1.081320
vn 3.623121 1.816096 4.035767
v 0.567528 0.425407 1.066478
vn 2.852824 3.187861 3.386426
v 0.543749 0.458568 1.066478
vn -0.430460 2.040801 5.346477
v 0.498154 0.438158 1.087578
vn 4.757385 1.351764 2.995570
v 0.580126 0.416569 1.054657
vn 2.569848 5.606910 -1.198180
v 0.538544 0.464989 1.018369
vn 2.766590 5.567316 -0.735758
v 0.551442 0.462386 1.034177
vn 2.776660 5.530090 -1.063890
v 0.553820 0.460366 1.029883
vn 2.573792 5.602532 -1.210354
v 0.540922 0.462969 1.014075
vn 2.400962 5.649302 -1.328106
v 0.510176 0.478328 1.020328
vn 1.390683 5.913863 -0.413110
v 0.507797 0.480349 1.024622
vn 1.701407 5.827464 0.036605
v 0.520695 0.477746 1.040429
vn 3.030120 5.435936 -0.857706
v 0.564040 0.453549 1.022356
vn 3.546526 4.779443 0.751353
v 0.554389 0.461038 1.036444
vn 2.536384 5.595643 0.727875
v 0.523642 0.476397 1.042697
vn 3.031189 5.432487 -0.876970
v 0.566418 0.451528 1.018062
vn 4.002549 4.390172 0.566397
v 0.566987 0.452200 1.024623
vn 2.559515 5.570992 -1.361094
v 0.595097 0.416954 0.916282
vn 3.154572 4.946834 -1.942615
v 0.607695 0.408117 0.904461
vn 2.119892 5.637329 -1.714480
v 0.564349 0.432311 0.922522
vn 2.781511 5.520471 -1.096709
v 0.607994 0.414351 0.932090
vn 3.319344 4.941630 -1.662110
v 0.620593 0.405514 0.920269
vn 2.421610 5.635305 -1.348876
v 0.564350 0.432313 0.922535
vn 3.877348 4.287046 -2.462113
v 0.610641 0.406768 0.906729
vn 4.076472 3.593901 -3.020905
v 0.601154 0.399133 0.878830
vn 3.174607 3.660300 -3.428161
v 0.598207 0.400481 0.876562
vn 2.977216 4.975085 -2.186382
v 0.607681 0.408116 0.904439
vn 2.246479 5.529686 -1.909259
v 0.576952 0.423469 0.910697
vn 4.188428 3.994939 -0.774125
v 0.623539 0.404165 0.922536
vn 5.308546 -0.722966 3.280886
v 0.605449 0.275050 0.985799
vn 5.448509 0.690258 2.693472
v 0.634300 0.370555 0.956864
vn 5.536557 -0.928251 2.734142
v 0.607828 0.273030 0.981505
vn 5.546736 0.342387 2.361242
v 0.636679 0.368534 0.952570
vn 1.999490 -3.313722 2.666860
v 0.590598 0.239270 1.000636
vn 5.322052 2.472327 1.784931
v 0.621161 0.406186 0.926830
vn 5.293434 2.806938 1.611583
v 0.644940 0.373025 0.926830
vn 5.192915 2.890739 1.734608
v 0.590766 0.419040 1.024623
vn 5.014782 1.502130 0.141105
v 0.647319 0.371005 0.922536
vn 4.664026 3.590146 2.157544
v 0.556347 0.449730 1.054657
vn 1.703692 5.349844 2.198501
v 0.513002 0.473927 1.072731
vn 0.606625 3.273039 3.914080
v 0.513002 0.473922 1.072739
vn 2.219156 -3.302669 2.022019
v 0.592978 0.237249 0.996340
vn 5.693273 -1.316023 2.253893
v 0.607826 0.273013 0.981502
vn 4.272678 3.664994 -2.691039
v 0.614052 0.396530 0.894637
vn 5.176191 0.331664 -0.672064
v 0.647321 0.370989 0.922521
vn 4.872476 1.055893 -2.852839
v 0.637831 0.363370 0.894637
vn 5.831421 -1.115888 2.053260
v 0.636677 0.368517 0.952567
vn -4.880199 -1.169236 2.890744
v 0.310467 0.363389 1.011292
vn -4.272719 -3.664933 2.691074
v 0.334246 0.330229 1.011292
vn -4.363691 -1.278866 3.784714
v 0.323365 0.360787 1.027099
vn -3.756460 1.244181 4.496474
v 0.323369 0.360794 1.027104
vn -5.027640 -1.573674 -0.151669
v 0.300979 0.355754 0.983393
vn -5.078117 1.371758 2.701166
v 0.310466 0.363398 1.011290
vn -5.095263 -0.439907 0.678236
v 0.300976 0.355770 0.983408
vn -4.076435 -3.593860 3.020993
v 0.347144 0.327626 1.027099
vn -4.197384 -3.995295 0.759168
v 0.324758 0.322594 0.983393
vn -4.156133 -3.998020 2.426125
v 0.324765 0.322596 0.983408
vn -3.877314 -4.287085 2.462095
v 0.337668 0.319992 0.999222
vn -3.799930 -1.788069 4.406387
v 0.326311 0.359438 1.029367
vn -3.176072 0.574461 5.057133
v 0.326317 0.359445 1.029372
vn -3.256899 -3.598385 3.466829
v 0.350091 0.326278 1.029367
vn -3.029061 -4.941967 2.132785
v 0.340616 0.318643 1.001490
vn -2.848920 -2.764927 4.728348
v 0.493077 0.309486 1.116507
vn -3.077495 -1.779719 5.131324
v 0.469298 0.342646 1.116507
vn -1.101967 0.476682 5.192763
v 0.469304 0.342653 1.116512
vn -2.648885 -4.569165 3.125011
v 0.350106 0.326271 1.029372
vn -0.552386 5.753609 -0.572159
v 0.364811 0.497140 0.937482
vn -1.491925 5.602766 0.835849
v 0.354171 0.494670 0.967515
vn 1.862700 5.798639 -1.482211
v 0.507796 0.480347 1.024611
vn -0.474970 5.689501 -1.174903
v 0.364809 0.497138 0.937471
vn -2.219163 3.302672 -2.022012
v 0.355319 0.489510 0.909589
vn -4.418910 3.359602 -0.574678
v 0.344675 0.487038 0.939635
vn -0.865854 5.738000 1.837033
v 0.367069 0.492067 0.983323
vn 0.338006 5.714002 1.832479
v 0.510055 0.475275 1.070463
vn 0.317185 6.229106 0.743112
v 0.497157 0.477878 1.054656
vn -3.485277 4.010352 1.465832
v 0.354165 0.494667 0.967516
vn -2.355290 4.128533 3.494927
v 0.367068 0.492063 0.983330
vn -1.254278 4.341017 3.781246
v 0.510054 0.475271 1.070471
vn 1.997282 5.732958 -1.591100
v 0.510175 0.478325 1.020316
vn -1.794398 -5.457169 -2.024636
v 0.435296 0.252832 0.833199
vn -2.536396 -5.595640 -0.727900
v 0.424656 0.250362 0.863232
vn -2.852838 -3.187868 -3.386421
v 0.404549 0.268191 0.839451
vn -0.405970 -5.777881 -1.733104
v 0.438242 0.251484 0.835466
vn -0.652660 -3.307747 -3.772930
v 0.435295 0.252836 0.833190
vn -1.691716 -5.837156 -0.062753
v 0.427602 0.249013 0.865500
vn -2.766603 -5.567311 0.735729
v 0.396856 0.264373 0.871752
vn -3.546531 -4.779450 -0.751368
v 0.393909 0.265721 0.869485
vn -0.317185 -6.229106 -0.743111
v 0.451140 0.248881 0.851274
vn 0.799269 -5.799241 -1.766152
v 0.581229 0.234692 0.922607
vn 1.124580 -4.395580 -3.648248
v 0.438243 0.251487 0.835459
vn -1.377433 -5.945180 0.313267
v 0.440500 0.246410 0.881307
vn -1.915118 -5.801040 1.264339
v 0.440502 0.246412 0.881318
vn -2.565341 -5.628923 1.097928
v 0.427599 0.249016 0.865504
vn 1.403138 -5.674046 -0.819457
v 0.594127 0.232089 0.938414
vn 0.591304 -5.846432 0.425218
v 0.583487 0.229619 0.968448
vn 2.285081 -4.175021 -3.422841
v 0.581230 0.234696 0.922599
vn 3.420896 -4.032187 -1.451610
v 0.594132 0.232092 0.938413
vn 0.509482 -5.668743 1.097587
v 0.583488 0.229620 0.968459
vn 2.710837 2.925654 -4.604996
v 0.455220 0.417273 0.789422
vn 3.028513 1.641819 -5.179101
v 0.478999 0.384113 0.789422
vn 0.456925 1.875858 -4.171378
v 0.455205 0.417279 0.789417
vn 3.777541 1.674158 -4.430187
v 0.621986 0.367321 0.876562
vn 1.070904 -0.539138 -5.229940
v 0.478993 0.384105 0.789417
vn 2.545018 4.808336 -2.967359
v 0.598191 0.400487 0.876557
vn 4.339956 1.178847 -3.789136
v 0.624933 0.365972 0.878830
vn 3.170623 -0.719501 -5.093162
v 0.621980 0.367313 0.876557
vn 3.742260 -1.325407 -4.515955
v 0.624928 0.365964 0.878826
vn 5.078789 -1.475750 -2.706981
v 0.637831 0.363360 0.894639
vn -5.545477 -0.377725 -2.383133
v 0.311619 0.358225 0.953359
vn -5.497796 0.876995 -2.858262
v 0.340470 0.453729 0.924425
vn -5.308549 0.722935 -3.280889
v 0.342848 0.451709 0.920131
vn -5.448505 -0.690270 -2.693476
v 0.313998 0.356204 0.949066
vn -5.293424 -2.806970 -1.611590
v 0.303358 0.353734 0.979099
vn -5.806108 1.048483 -2.146663
v 0.311621 0.358241 0.953363
vn -4.002536 -4.390178 -0.566382
v 0.381311 0.274559 0.881306
vn -3.031169 -5.432495 0.876994
v 0.381879 0.275231 0.887867
vn -4.650335 -4.104631 -0.644768
v 0.327137 0.320573 0.979099
vn -3.295321 -4.991298 1.609183
v 0.327705 0.321245 0.985660
vn -3.778945 -4.434749 2.346951
v 0.327713 0.321247 0.985676
vn -5.658183 1.266433 -2.343239
v 0.340471 0.453746 0.924428
vn -1.999510 3.313694 -2.666842
v 0.357699 0.487489 0.905294
vn -4.757377 -1.351764 -2.995573
v 0.368172 0.310190 0.851272
vn -4.664018 -3.590153 -2.157547
v 0.391951 0.277029 0.851272
vn -5.192917 -2.890746 -1.734601
v 0.357532 0.307719 0.881306
vn -3.623122 -1.816102 -4.035775
v 0.380770 0.301352 0.839451
vn -4.877409 0.368594 -3.848090
v 0.397022 0.405694 0.822337
vn -4.372280 -0.051019 -4.511503
v 0.383025 0.345965 0.836430
vn -3.030083 -5.435947 0.857760
v 0.384258 0.273210 0.883573
vn -3.068295 -0.731600 -5.202576
v 0.395623 0.337128 0.824609
vn -1.962785 -1.449999 -5.787190
v 0.419402 0.303967 0.824609
vn 0.430416 -2.040796 -5.346495
v 0.450143 0.288601 0.818352
vn -1.673601 3.125099 -2.752716
v 0.411873 0.441474 0.807500
vn -2.755401 2.291860 -4.003962
v 0.411876 0.441470 0.807495
vn -2.776655 -5.530092 1.063894
v 0.394477 0.266393 0.876046
vn -2.781493 -5.520481 1.096715
v 0.340303 0.312408 0.973840
vn -2.573814 -5.602522 1.210355
v 0.407375 0.263790 0.891854
vn -2.559582 -5.570982 1.361020
v 0.353201 0.309805 0.989647
vn -2.569868 -5.606896 1.198200
v 0.409754 0.261770 0.887560
vn -2.149160 -5.692646 1.488007
v 0.438122 0.248433 0.885614
vn -3.082524 -5.088184 1.805570
v 0.340603 0.318642 1.001468
vn -2.161330 -5.636013 1.640531
v 0.383948 0.294448 0.983407
vn -2.246552 -5.529680 1.909159
v 0.371345 0.303289 0.995232
vn -1.741373 1.538972 -4.572261
v 0.424474 0.432632 0.795675
vn -1.811507 -1.283428 -5.877436
v 0.426354 0.321774 0.818352
vn 0.734904 3.978330 -3.929637
v 0.424476 0.432633 0.795675
vn -1.634680 -5.714570 1.997464
v 0.526935 0.277656 1.070547
vn -1.512296 -5.792590 1.887837
v 0.581109 0.231641 0.972754
vn -2.115940 -5.435307 2.324880
v 0.380835 0.310917 1.023114
vn -1.940005 -5.571454 2.160733
v 0.514331 0.286497 1.082373
vn 4.418905 -3.359602 0.574675
v 0.603622 0.239720 0.966295
vn 5.683658 -1.883263 0.306156
v 0.618470 0.275484 0.951456
vn 4.805729 -2.638526 -2.513275
v 0.608981 0.267856 0.923574
vn 2.115940 5.435309 -2.324878
v 0.567463 0.415841 0.882815
vn -3.393096 2.743491 4.360582
v 0.352220 0.456299 0.998169
vn -4.805724 2.638522 2.513280
v 0.339317 0.458903 0.982355
vn -5.683657 1.883262 -0.306160
v 0.329827 0.451274 0.954473
vn -2.816615 2.390430 5.082415
v 0.466356 0.344002 1.114244
vn -2.638014 2.753938 4.975539
v 0.495206 0.439507 1.085309
vn 1.512274 5.792599 -1.887823
v 0.367188 0.495117 0.933175
vn 1.634678 5.714569 -1.997467
v 0.421363 0.449102 0.835382
vn 1.940005 5.571453 -2.160734
v 0.433966 0.440261 0.823556
vn 2.637983 -2.753929 -4.975558
v 0.453091 0.287252 0.820620
vn 3.393100 -2.743493 -4.360576
v 0.596078 0.270460 0.907760
vn 2.816598 -2.390552 -5.082367
v 0.481941 0.382756 0.791685
# 173 vertices, 0 vertices normals

f 1//1 2//2 3//3
f 1//1 4//4 5//5
f 1//1 3//3 4//4
f 1//1 6//6 7//7
f 1//1 7//7 2//2
f 1//1 8//8 6//6
f 1//1 5//5 8//8
f 2//2 9//9 3//3
f 2//2 7//7 9//9
f 10//10 4//4 11//11
f 10//10 12//12 13//13
f 10//10 11//11 12//12
f 10//10 13//13 4//4
f 4//4 3//3 11//11
f 4//4 13//13 5//5
f 3//3 9//9 14//14
f 3//3 14//14 11//11
f 15//15 16//16 17//17
f 15//15 18//18 19//19
f 15//15 17//17 18//18
f 15//15 20//20 21//21
f 15//15 21//21 16//16
f 15//15 19//19 20//20
f 16//16 22//22 17//17
f 16//16 23//23 22//22
f 16//16 21//21 24//24
f 16//16 24//24 23//23
f 22//22 25//25 17//17
f 22//22 23//23 26//26
f 22//22 26//26 25//25
f 27//27 28//28 29//29
f 27//27 30//30 31//31
f 27//27 31//31 28//28
f 27//27 18//18 30//30
f 27//27 32//32 18//18
f 27//27 29//29 32//32
f 28//28 31//31 33//33
f 28//28 33//33 34//34
f 28//28 35//35 36//36
f 28//28 34//34 35//35
f 28//28 36//36 37//37
f 28//28 37//37 29//29
f 30//30 18//18 17//17
f 30//30 17//17 25//25
f 30//30 25//25 31//31
f 31//31 25//25 38//38
f 31//31 38//38 33//33
f 18//18 32//32 19//19
f 25//25 26//26 38//38
f 39//39 9//9 7//7
f 39//39 40//40 14//14
f 39//39 14//14 9//9
f 39//39 41//41 42//42
f 39//39 42//42 40//40
f 39//39 43//43 41//41
f 39//39 7//7 43//43
f 44//44 45//45 38//38
f 44//44 26//26 46//46
f 44//44 46//46 45//45
f 44//44 38//38 26//26
f 45//45 40//40 42//42
f 45//45 46//46 40//40
f 45//45 47//47 38//38
f 45//45 42//42 47//47
f 40//40 46//46 14//14
f 23//23 12//12 48//48
f 23//23 48//48 26//26
f 23//23 24//24 12//12
f 12//12 11//11 48//48
f 12//12 24//24 49//49
f 12//12 49//49 50//50
f 12//12 50//50 13//13
f 11//11 14//14 48//48
f 26//26 48//48 14//14
f 26//26 14//14 46//46
f 41//41 43//43 51//51
f 41//41 51//51 52//52
f 41//41 52//52 42//42
f 33//33 38//38 53//53
f 33//33 53//53 34//34
f 38//38 47//47 53//53
f 47//47 42//42 54//54
f 47//47 55//55 53//53
f 47//47 54//54 55//55
f 42//42 52//52 56//56
f 42//42 56//56 54//54
f 57//57 58//58 59//59
f 57//57 59//59 60//60
f 57//57 61//61 58//58
f 57//57 62//62 63//63
f 57//57 60//60 62//62
f 57//57 63//63 61//61
f 58//58 64//64 59//59
f 58//58 61//61 65//65
f 58//58 65//65 66//66
f 58//58 66//66 67//67
f 58//58 67//67 64//64
f 59//59 64//64 68//68
f 59//59 68//68 69//69
f 59//59 69//69 60//60
f 64//64 70//70 68//68
f 64//64 67//67 71//71
f 64//64 71//71 70//70
f 68//68 70//70 72//72
f 68//68 73//73 74//74
f 68//68 72//72 73//73
f 68//68 74//74 69//69
f 70//70 75//75 8//8
f 70//70 8//8 72//72
f 70//70 71//71 75//75
f 73//73 72//72 8//8
f 73//73 8//8 74//74
f 76//76 77//77 20//20
f 76//76 20//20 78//78
f 76//76 79//79 80//80
f 76//76 78//78 79//79
f 76//76 80//80 81//81
f 76//76 81//81 77//77
f 77//77 82//82 83//83
f 77//77 84//84 20//20
f 77//77 83//83 84//84
f 77//77 85//85 86//86
f 77//77 86//86 82//82
f 77//77 81//81 85//85
f 82//82 86//86 87//87
f 82//82 87//87 83//83
f 20//20 84//84 83//83
f 20//20 83//83 21//21
f 20//20 19//19 78//78
f 21//21 83//83 24//24
f 83//83 49//49 24//24
f 83//83 87//87 50//50
f 83//83 50//50 49//49
f 32//32 29//29 88//88
f 32//32 88//88 19//19
f 19//19 88//88 78//78
f 89//89 90//90 91//91
f 89//89 92//92 90//90
f 89//89 91//91 93//93
f 89//89 93//93 92//92
f 90//90 92//92 94//94
f 90//90 94//94 95//95
f 90//90 96//96 91//91
f 90//90 95//95 96//96
f 92//92 97//97 94//94
f 92//92 98//98 97//97
f 92//92 93//93 99//99
f 92//92 99//99 98//98
f 94//94 97//97 100//100
f 94//94 100//100 101//101
f 94//94 102//102 95//95
f 94//94 101//101 102//102
f 97//97 98//98 103//103
f 97//97 103//103 100//100
f 100//100 103//103 104//104
f 100//100 104//104 101//101
f 98//98 99//99 105//105
f 98//98 105//105 103//103
f 103//103 105//105 106//106
f 103//103 106//106 104//104
f 104//104 106//106 107//107
f 104//104 107//107 101//101
f 108//108 109//109 110//110
f 108//108 35//35 109//109
f 108//108 110//110 35//35
f 109//109 35//35 111//111
f 109//109 111//111 112//112
f 109//109 112//112 110//110
f 35//35 34//34 111//111
f 35//35 110//110 113//113
f 35//35 113//113 36//36
f 111//111 34//34 114//114
f 111//111 114//114 115//115
f 111//111 115//115 112//112
f 34//34 53//53 114//114
f 114//114 53//53 55//55
f 114//114 55//55 116//116
f 114//114 116//116 115//115
f 55//55 54//54 117//117
f 55//55 117//117 116//116
f 118//118 61//61 63//63
f 118//118 119//119 120//120
f 118//118 121//121 122//122
f 118//118 122//122 61//61
f 118//118 120//120 121//121
f 118//118 123//123 119//119
f 118//118 63//63 123//123
f 61//61 122//122 65//65
f 65//65 124//124 125//125
f 65//65 122//122 126//126
f 65//65 126//126 124//124
f 65//65 125//125 127//127
f 65//65 127//127 128//128
f 65//65 128//128 66//66
f 119//119 123//123 129//129
f 119//119 129//129 80//80
f 119//119 80//80 130//130
f 119//119 130//130 120//120
f 131//131 132//132 124//124
f 131//131 133//133 121//121
f 131//131 124//124 133//133
f 131//131 134//134 132//132
f 131//131 121//121 135//135
f 131//131 135//135 136//136
f 131//131 136//136 134//134
f 132//132 134//134 91//91
f 132//132 91//91 96//96
f 132//132 96//96 124//124
f 133//133 124//124 126//126
f 133//133 122//122 121//121
f 133//133 126//126 122//122
f 124//124 96//96 137//137
f 124//124 137//137 125//125
f 134//134 136//136 138//138
f 134//134 138//138 139//139
f 134//134 139//139 91//91
f 91//91 139//139 140//140
f 91//91 140//140 93//93
f 96//96 95//95 137//137
f 121//121 120//120 135//135
f 135//135 120//120 141//141
f 135//135 142//142 136//136
f 135//135 141//141 142//142
f 120//120 130//130 141//141
f 125//125 143//143 144//144
f 125//125 144//144 127//127
f 125//125 137//137 143//143
f 143//143 145//145 146//146
f 143//143 146//146 144//144
f 143//143 137//137 95//95
f 143//143 95//95 147//147
f 143//143 147//147 145//145
f 145//145 147//147 101//101
f 145//145 148//148 146//146
f 145//145 101//101 148//148
f 127//127 144//144 146//146
f 127//127 149//149 71//71
f 127//127 146//146 149//149
f 127//127 71//71 128//128
f 149//149 146//146 150//150
f 149//149 151//151 71//71
f 149//149 150//150 151//151
f 146//146 148//148 150//150
f 95//95 102//102 101//101
f 95//95 101//101 147//147
f 136//136 142//142 152//152
f 136//136 152//152 138//138
f 138//138 152//152 153//153
f 138//138 153//153 140//140
f 138//138 140//140 139//139
f 142//142 141//141 152//152
f 152//152 110//110 153//153
f 152//152 141//141 154//154
f 152//152 154//154 110//110
f 43//43 7//7 155//155
f 43//43 156//156 51//51
f 43//43 155//155 156//156
f 157//157 6//6 8//8
f 157//157 75//75 151//151
f 157//157 8//8 75//75
f 157//157 151//151 158//158
f 157//157 158//158 6//6
f 6//6 158//158 7//7
f 7//7 158//158 155//155
f 159//159 51//51 107//107
f 159//159 160//160 52//52
f 159//159 52//52 51//51
f 159//159 106//106 161//161
f 159//159 107//107 106//106
f 159//159 161//161 160//160
f 51//51 156//156 107//107
f 36//36 113//113 162//162
f 36//36 162//162 37//37
f 160//160 54//54 56//56
f 160//160 56//56 52//52
f 160//160 161//161 117//117
f 160//160 117//117 54//54
f 62//62 60//60 163//163
f 62//62 164//164 165//165
f 62//62 163//163 164//164
f 62//62 165//165 63//63
f 60//60 166//166 163//163
f 60//60 69//69 166//166
f 166//166 167//167 163//163
f 166//166 69//69 74//74
f 166//166 74//74 13//13
f 166//166 13//13 167//167
f 164//164 163//163 86//86
f 164//164 85//85 81//81
f 164//164 86//86 85//85
f 164//164 81//81 165//165
f 163//163 167//167 86//86
f 167//167 13//13 50//50
f 167//167 87//87 86//86
f 167//167 50//50 87//87
f 75//75 71//71 151//151
f 74//74 8//8 13//13
f 8//8 5//5 13//13
f 79//79 78//78 88//88
f 79//79 168//168 80//80
f 79//79 88//88 168//168
f 169//169 170//170 141//141
f 169//169 29//29 170//170
f 169//169 168//168 88//88
f 169//169 88//88 29//29
f 169//169 141//141 130//130
f 169//169 130//130 168//168
f 170//170 29//29 37//37
f 170//170 37//37 162//162
f 170//170 154//154 141//141
f 170//170 162//162 154//154
f 168//168 130//130 80//80
f 93//93 140//140 171//171
f 93//93 171//171 99//99
f 148//148 156//156 155//155
f 148//148 155//155 150//150
f 148//148 101//101 107//107
f 148//148 107//107 156//156
f 151//151 150//150 155//155
f 151//151 155//155 158//158
f 99//99 171//171 105//105
f 105//105 171//171 172//172
f 105//105 172//172 161//161
f 105//105 161//161 106//106
f 153//153 110//110 112//112
f 153//153 112//112 140//140
f 140//140 112//112 173//173
f 140//140 173//173 171//171
f 110//110 154//154 162//162
f 110//110 162//162 113//113
f 112//112 115//115 173//173
f 115//115 116//116 173//173
f 171//171 173//173 172//172
f 172//172 173//173 116//116
f 172//172 116//116 117//117
f 172//172 117//117 161//161
f 123//123 63//63 165//165
f 123//123 165//165 129//129
f 66//66 128//128 67//67
f 67//67 128//128 71//71
f 129//129 165//165 81//81
f 129//129 81//81 80//80
# 342 faces, 0 coords texture

# End of File
