####
#
# OBJ File Generated by Meshlab
#
####
# Object matlab_mesh_step1_link3.obj
#
# Vertices: 154
# Faces: 304
#
####
vn 4.958482 -0.551060 3.430761
v 0.431596 0.000635 1.025227
vn 4.740018 -0.641253 3.779206
v 0.419936 -0.002072 1.039740
vn 3.120094 -4.077688 1.801724
v 0.419935 -0.002077 1.039740
vn 5.276365 0.495016 3.302009
v 0.432402 0.004117 1.023418
vn 4.829300 0.880491 3.918360
v 0.429406 0.013629 1.025208
vn 3.606001 -2.836806 1.180326
v 0.431600 0.000632 1.025221
vn 4.457762 -0.679479 4.062469
v 0.415067 -0.003203 1.045492
vn 2.200876 -3.455720 2.560067
v 0.415064 -0.003208 1.045494
vn 4.706943 0.899008 4.060629
v 0.417746 0.010922 1.039720
vn 4.609458 0.866302 4.177762
v 0.412877 0.009791 1.045472
vn 5.339245 0.663236 3.130946
v 0.453299 0.094468 0.976481
vn 5.217437 1.056077 3.198849
v 0.451109 0.107462 0.976461
vn 4.838726 0.907498 3.901169
v 0.430212 0.017111 1.023399
vn 5.889042 -0.487047 1.684424
v 0.432405 0.004115 1.023412
vn 5.864917 0.111877 1.429545
v 0.453303 0.094467 0.976474
vn 5.886003 1.103197 1.560495
v 0.451113 0.107457 0.976455
vn 4.218704 -0.058762 4.560402
v 0.335825 0.053603 1.119528
vn 3.800491 0.157137 4.832639
v 0.333624 0.055180 1.121585
vn 1.213972 -1.694089 4.738539
v 0.333620 0.055177 1.121587
vn 4.571745 0.880744 4.217403
v 0.333635 0.066597 1.119508
vn 2.148802 -2.824141 4.466742
v 0.335822 0.053598 1.119530
vn 3.748683 0.759699 4.852978
v 0.331434 0.068175 1.121565
vn 1.613295 0.295673 5.880790
v 0.331430 0.068167 1.121567
vn 4.313655 2.936810 2.363659
v 0.333844 0.089398 1.113756
vn 4.657362 1.029439 4.089293
v 0.413086 0.032592 1.039720
vn 4.619651 1.072664 4.121485
v 0.331643 0.090976 1.115813
vn 4.609764 1.030897 4.142880
v 0.328975 0.088267 1.119508
vn 4.616997 1.024397 4.136362
v 0.408217 0.031462 1.045472
vn 4.725763 0.994895 4.019267
v 0.418552 0.014404 1.037911
vn -0.644911 1.381102 2.371431
v 0.413891 0.036074 1.037911
vn 4.677567 1.146015 4.031739
v 0.434789 0.126426 0.990974
vn 4.728011 1.001729 4.014887
v 0.439449 0.104755 0.990974
vn 5.001903 1.688425 3.136761
v 0.446449 0.129133 0.976461
vn 4.724863 2.044818 3.488179
v 0.444248 0.130711 0.978518
vn 4.826582 2.811982 1.271223
v 0.446451 0.129137 0.976455
vn 4.350284 3.836391 1.712619
v 0.444249 0.130715 0.978512
vn 4.619644 1.072591 4.121512
v 0.352541 0.181327 1.068876
vn 4.644773 1.189980 4.058360
v 0.432588 0.128004 0.993031
vn 3.839701 1.514277 4.624477
v 0.347671 0.180197 1.074628
vn 3.582990 1.164916 4.840382
v 0.326774 0.089845 1.121565
vn 4.015254 2.505739 3.813283
v 0.353346 0.184809 1.067067
vn 3.668202 2.364455 4.151334
v 0.348477 0.183679 1.072819
vn 4.160978 2.646624 3.566769
v 0.365006 0.187517 1.052554
vn 1.903529 4.420495 1.357034
v 0.365007 0.187521 1.052548
vn 1.175268 5.021593 1.939156
v 0.353343 0.184812 1.067066
vn 0.545388 3.724233 2.880218
v 0.348471 0.183681 1.072821
vn 0.735709 1.436509 5.385301
v 0.326768 0.089846 1.121567
vn 1.009443 2.500195 5.262166
v 0.347666 0.180198 1.074630
vn -3.800948 -2.241239 -4.179202
v 0.248646 -0.041254 0.865129
vn -3.900125 -1.486573 -4.597980
v 0.249452 -0.037772 0.863320
vn -1.069870 -2.472468 -5.235686
v 0.249457 -0.037773 0.863317
vn -4.109834 -2.370284 -3.865239
v 0.243777 -0.042384 0.870881
vn -0.610181 -3.661601 -2.861339
v 0.248651 -0.041256 0.865127
vn -3.706900 -1.154000 -4.786706
v 0.270349 0.052580 0.816383
vn -0.813852 -1.424482 -5.337852
v 0.270354 0.052578 0.816380
vn -4.784994 -0.946106 -3.951572
v 0.244582 -0.038902 0.869072
vn -3.852489 -0.781138 -4.794426
v 0.265689 0.074250 0.816383
vn -4.609732 -1.030893 -4.142916
v 0.268148 0.054158 0.818440
vn -4.571720 -0.880745 -4.217429
v 0.263488 0.075828 0.818440
vn -3.895290 -0.230771 -4.789892
v 0.263499 0.087244 0.816363
vn -1.722855 -0.314935 -5.815447
v 0.265692 0.074258 0.816380
vn -4.619647 -1.072595 -4.121507
v 0.265480 0.051449 0.822135
vn -4.609445 -0.866299 -4.177778
v 0.184246 0.132634 0.892475
vn -4.616978 -1.024359 -4.136393
v 0.188906 0.110963 0.892475
vn -4.706935 -0.898999 -4.060637
v 0.179377 0.131503 0.898227
vn -4.769675 0.461561 -3.838082
v 0.177187 0.144497 0.898208
vn -4.508546 0.512367 -4.098984
v 0.182056 0.145628 0.892456
vn -4.272960 -0.051583 -4.533825
v 0.261298 0.088822 0.818420
vn -1.047068 2.234193 -2.834918
v 0.263279 0.053027 0.824192
vn -4.657380 -1.029428 -4.089274
v 0.184037 0.109833 0.898227
vn -4.626270 -2.561898 -2.985902
v 0.164535 0.014421 0.944917
vn -4.728731 -1.956405 -3.560159
v 0.152875 0.011714 0.959430
vn -4.677568 -1.146012 -4.031739
v 0.162334 0.015999 0.946974
vn -4.241419 -2.511487 -3.642088
v 0.232117 -0.045092 0.885394
vn -1.920868 -4.331620 -1.406275
v 0.232115 -0.045096 0.885400
vn -4.983768 -1.625896 -3.256578
v 0.150674 0.013292 0.961486
vn -4.354150 -3.747978 -1.784602
v 0.152874 0.011710 0.959436
vn -4.661630 -1.042059 -4.081352
v 0.183232 0.106351 0.900036
vn -1.268871 -4.883446 -1.989965
v 0.243780 -0.042387 0.870881
vn -4.728013 -1.001726 -4.014885
v 0.157674 0.037670 0.946974
vn -5.170038 -1.046544 -3.310525
v 0.146014 0.034963 0.961486
vn -4.838714 -0.907505 -3.901184
v 0.166911 0.125314 0.914549
vn -4.725804 -0.994932 -4.019210
v 0.178571 0.128021 0.900036
vn -5.835285 -1.094137 -1.667997
v 0.146010 0.034968 0.961493
vn -5.287028 -0.691486 -3.245178
v 0.143824 0.047957 0.961467
vn -4.803533 -2.773498 -1.331489
v 0.150672 0.013288 0.961493
vn -4.829285 -0.880489 -3.918381
v 0.167717 0.128796 0.912740
vn -5.237011 -0.542131 -3.375203
v 0.164721 0.138308 0.914529
vn -4.970021 0.377087 -3.534840
v 0.165527 0.141790 0.912721
vn -1.258916 1.655041 -4.704223
v 0.263503 0.087248 0.816360
vn -2.229805 3.351243 -2.551284
v 0.182059 0.145632 0.892454
vn -2.203039 2.713784 -4.440164
v 0.261301 0.088827 0.818418
vn -5.822848 -0.131184 -1.504391
v 0.143820 0.047958 0.961473
vn -5.849740 0.439944 -1.757552
v 0.164717 0.138310 0.914536
vn -3.573610 2.760993 -1.235310
v 0.165523 0.141793 0.912727
vn -3.147651 3.895822 -1.859248
v 0.177188 0.144501 0.898208
vn 1.451940 -6.112927 0.026454
v 0.420336 -0.002015 1.035528
vn 3.548673 -3.233121 -0.756770
v 0.432001 0.000693 1.021009
vn 5.111512 -2.021049 -1.614641
v 0.432806 0.004177 1.019200
vn 1.431818 -6.117520 0.035890
v 0.415465 -0.003146 1.041282
vn 4.652987 -0.485819 -1.920716
v 0.453704 0.094528 0.972263
vn 5.068949 0.970872 -2.044410
v 0.451514 0.107519 0.972243
vn -0.430363 -5.110027 3.460227
v 0.326029 0.051946 1.118573
vn 0.217451 -5.432006 2.268911
v 0.405271 -0.004860 1.044537
vn 1.189840 -6.156382 0.268399
v 0.243867 -0.042957 0.892675
vn 1.578715 -6.070850 -0.189489
v 0.244268 -0.042896 0.888463
vn 1.142838 -6.165581 0.215368
v 0.241507 -0.043505 0.890568
vn -0.134766 -5.822943 1.665561
v 0.234074 -0.044609 0.891718
vn -0.199146 -0.033518 6.266372
v 0.328958 0.076856 1.121587
vn -2.364482 1.155496 4.752903
v 0.316976 0.088194 1.120611
vn -2.339061 -0.443151 5.477199
v 0.319165 0.075204 1.120631
vn -1.416066 -2.408866 4.191802
v 0.323827 0.053525 1.120631
vn -1.383636 -5.306373 0.598660
v 0.231714 -0.045157 0.889612
vn 1.200748 -6.160804 -0.091855
v 0.241908 -0.043444 0.886357
vn 3.383450 2.575528 -1.674001
v 0.446852 0.129198 0.972243
vn 2.592546 5.175716 -1.196354
v 0.444650 0.130776 0.974300
vn 1.383623 5.306384 -0.598683
v 0.365409 0.187582 1.048336
vn -1.200751 6.160804 0.091854
v 0.355215 0.185869 1.051591
vn -1.245494 6.152135 0.152430
v 0.343550 0.183160 1.066110
vn -2.554491 2.979476 4.598079
v 0.337873 0.178546 1.073674
vn -1.845399 4.103953 2.605581
v 0.338679 0.182029 1.071864
vn -1.264475 -5.461675 2.837186
v 0.154832 0.012196 0.965754
vn -2.647708 -3.164262 3.789155
v 0.152630 0.013775 0.967811
vn -3.383442 -2.575531 1.674005
v 0.150271 0.013227 0.965705
vn -2.592524 -5.175716 1.196371
v 0.152473 0.011649 0.963647
vn -4.051071 -0.772899 4.739265
v 0.147968 0.035454 0.967811
vn -4.069656 1.117815 4.268296
v 0.145779 0.048445 0.967792
vn -5.068952 -0.970869 2.044424
v 0.145608 0.034906 0.965705
vn -4.652987 0.485821 1.920719
v 0.143419 0.047897 0.965685
vn -1.402897 6.124462 -0.021423
v 0.352855 0.185321 1.049484
vn -1.142841 6.165580 -0.215375
v 0.355616 0.185930 1.047379
vn -4.068110 2.914594 3.799216
v 0.166676 0.138796 0.920855
vn -2.744588 4.517486 1.899614
v 0.167482 0.142280 0.919045
vn -5.111488 2.021051 1.614664
v 0.164316 0.138248 0.918748
vn -1.451943 6.112926 -0.026461
v 0.176787 0.144440 0.902420
vn -3.548679 3.233135 0.756745
v 0.165122 0.141732 0.916938
vn -1.431815 6.117521 -0.035889
v 0.181658 0.145571 0.896665
vn -1.189846 6.156381 -0.268397
v 0.353256 0.185382 1.045273
vn 1.327427 1.603772 -1.904212
v 0.429641 0.000145 1.018903
vn 1.845408 -4.103990 -2.605565
v 0.258444 -0.039604 0.866084
vn 1.245427 -6.152150 -0.152488
v 0.253573 -0.040735 0.871838
vn 4.068134 -2.914611 -3.799177
v 0.430447 0.003629 1.017093
vn 4.069657 -1.117815 -4.268296
v 0.451344 0.093980 0.970156
vn 4.051071 0.772900 -4.739265
v 0.449154 0.106971 0.970136
vn 2.554483 -2.979501 -4.598062
v 0.259250 -0.036121 0.864274
vn 2.364465 -1.155496 -4.752902
v 0.280147 0.054230 0.817337
vn 2.339043 0.443149 -5.477200
v 0.277958 0.067221 0.817317
vn 2.647725 3.164251 -3.789172
v 0.444492 0.128650 0.970136
vn 1.264500 5.461669 -2.837187
v 0.442290 0.130228 0.972194
vn 0.134760 5.822944 -1.665563
v 0.363049 0.187034 1.046229
vn 1.416036 2.408871 -4.191783
v 0.273296 0.088900 0.817317
vn 0.430353 5.110051 -3.460202
v 0.271094 0.090479 0.819375
vn 0.199122 0.033513 -6.266374
v 0.268165 0.065569 0.816360
vn -0.217438 5.432020 -2.268898
v 0.191852 0.147284 0.893410
# 154 vertices, 0 vertices normals

f 1//1 2//2 3//3
f 1//1 4//4 5//5
f 1//1 5//5 2//2
f 1//1 6//6 4//4
f 1//1 3//3 6//6
f 2//2 7//7 8//8
f 2//2 5//5 9//9
f 2//2 9//9 10//10
f 2//2 10//10 7//7
f 2//2 8//8 3//3
f 4//4 11//11 12//12
f 4//4 13//13 5//5
f 4//4 12//12 13//13
f 4//4 6//6 14//14
f 4//4 14//14 11//11
f 11//11 14//14 15//15
f 11//11 15//15 16//16
f 11//11 16//16 12//12
f 17//17 7//7 10//10
f 17//17 18//18 19//19
f 17//17 20//20 18//18
f 17//17 10//10 20//20
f 17//17 21//21 7//7
f 17//17 19//19 21//21
f 7//7 21//21 8//8
f 18//18 20//20 22//22
f 18//18 22//22 23//23
f 18//18 23//23 19//19
f 24//24 25//25 26//26
f 24//24 26//26 27//27
f 24//24 27//27 28//28
f 24//24 28//28 25//25
f 5//5 13//13 29//29
f 5//5 29//29 9//9
f 25//25 9//9 30//30
f 25//25 30//30 31//31
f 25//25 31//31 26//26
f 25//25 28//28 10//10
f 25//25 10//10 9//9
f 9//9 29//29 30//30
f 13//13 12//12 29//29
f 30//30 29//29 32//32
f 30//30 32//32 31//31
f 29//29 12//12 32//32
f 33//33 12//12 16//16
f 33//33 31//31 32//32
f 33//33 32//32 12//12
f 33//33 34//34 31//31
f 33//33 35//35 36//36
f 33//33 16//16 35//35
f 33//33 36//36 34//34
f 31//31 37//37 26//26
f 31//31 34//34 38//38
f 31//31 38//38 37//37
f 26//26 37//37 39//39
f 26//26 40//40 27//27
f 26//26 39//39 40//40
f 37//37 41//41 42//42
f 37//37 38//38 41//41
f 37//37 42//42 39//39
f 43//43 41//41 38//38
f 43//43 34//34 44//44
f 43//43 38//38 34//34
f 43//43 44//44 45//45
f 43//43 45//45 41//41
f 41//41 45//45 46//46
f 41//41 46//46 42//42
f 34//34 36//36 44//44
f 27//27 20//20 10//10
f 27//27 10//10 28//28
f 27//27 40//40 20//20
f 20//20 40//40 22//22
f 40//40 39//39 47//47
f 40//40 47//47 23//23
f 40//40 23//23 22//22
f 39//39 42//42 48//48
f 39//39 48//48 47//47
f 42//42 46//46 48//48
f 49//49 50//50 51//51
f 49//49 52//52 50//50
f 49//49 53//53 52//52
f 49//49 51//51 53//53
f 50//50 54//54 55//55
f 50//50 52//52 56//56
f 50//50 56//56 54//54
f 50//50 55//55 51//51
f 57//57 54//54 58//58
f 57//57 59//59 60//60
f 57//57 58//58 59//59
f 57//57 60//60 61//61
f 57//57 61//61 54//54
f 54//54 56//56 62//62
f 54//54 62//62 58//58
f 54//54 61//61 55//55
f 63//63 64//64 65//65
f 63//63 59//59 58//58
f 63//63 58//58 64//64
f 63//63 65//65 66//66
f 63//63 67//67 68//68
f 63//63 68//68 59//59
f 63//63 66//66 67//67
f 64//64 58//58 69//69
f 64//64 70//70 65//65
f 64//64 69//69 70//70
f 59//59 68//68 60//60
f 58//58 62//62 69//69
f 71//71 72//72 73//73
f 71//71 52//52 72//72
f 71//71 73//73 52//52
f 72//72 52//52 74//74
f 72//72 74//74 75//75
f 72//72 76//76 73//73
f 72//72 77//77 76//76
f 72//72 75//75 77//77
f 52//52 62//62 56//56
f 52//52 73//73 78//78
f 52//52 78//78 62//62
f 52//52 53//53 79//79
f 52//52 79//79 74//74
f 74//74 79//79 75//75
f 62//62 78//78 70//70
f 62//62 70//70 69//69
f 80//80 73//73 81//81
f 80//80 81//81 82//82
f 80//80 83//83 73//73
f 80//80 82//82 83//83
f 73//73 76//76 81//81
f 73//73 83//83 78//78
f 81//81 76//76 84//84
f 81//81 85//85 82//82
f 81//81 84//84 85//85
f 76//76 77//77 86//86
f 76//76 86//86 84//84
f 83//83 82//82 87//87
f 83//83 65//65 70//70
f 83//83 70//70 78//78
f 83//83 87//87 65//65
f 82//82 85//85 88//88
f 82//82 88//88 87//87
f 65//65 87//87 89//89
f 65//65 89//89 66//66
f 87//87 88//88 89//89
f 60//60 68//68 90//90
f 60//60 90//90 61//61
f 67//67 66//66 91//91
f 67//67 91//91 92//92
f 67//67 92//92 68//68
f 68//68 92//92 90//90
f 85//85 84//84 93//93
f 85//85 93//93 94//94
f 85//85 94//94 88//88
f 88//88 94//94 95//95
f 88//88 95//95 89//89
f 66//66 89//89 96//96
f 66//66 96//96 91//91
f 89//89 95//95 96//96
f 6//6 3//3 97//97
f 6//6 98//98 99//99
f 6//6 97//97 98//98
f 6//6 99//99 14//14
f 3//3 8//8 100//100
f 3//3 100//100 97//97
f 14//14 99//99 101//101
f 14//14 101//101 15//15
f 15//15 101//101 102//102
f 15//15 102//102 16//16
f 21//21 19//19 103//103
f 21//21 103//103 104//104
f 21//21 104//104 8//8
f 8//8 105//105 106//106
f 8//8 104//104 105//105
f 8//8 106//106 100//100
f 105//105 107//107 106//106
f 105//105 104//104 108//108
f 105//105 108//108 107//107
f 109//109 19//19 23//23
f 109//109 47//47 110//110
f 109//109 23//23 47//47
f 109//109 111//111 19//19
f 109//109 110//110 111//111
f 19//19 111//111 112//112
f 19//19 112//112 103//103
f 107//107 108//108 113//113
f 107//107 113//113 114//114
f 107//107 114//114 106//106
f 35//35 16//16 115//115
f 35//35 115//115 116//116
f 35//35 116//116 36//36
f 16//16 102//102 115//115
f 44//44 36//36 117//117
f 44//44 118//118 45//45
f 44//44 117//117 118//118
f 45//45 118//118 119//119
f 45//45 119//119 46//46
f 36//36 116//116 117//117
f 47//47 48//48 120//120
f 47//47 120//120 110//110
f 48//48 46//46 121//121
f 48//48 121//121 120//120
f 46//46 119//119 121//121
f 103//103 122//122 108//108
f 103//103 108//108 104//104
f 103//103 112//112 122//122
f 122//122 112//112 123//123
f 122//122 123//123 124//124
f 122//122 125//125 113//113
f 122//122 113//113 108//108
f 122//122 124//124 125//125
f 111//111 126//126 112//112
f 111//111 110//110 127//127
f 111//111 127//127 126//126
f 112//112 126//126 123//123
f 126//126 128//128 123//123
f 126//126 127//127 129//129
f 126//126 129//129 128//128
f 123//123 128//128 124//124
f 125//125 124//124 86//86
f 125//125 77//77 75//75
f 125//125 75//75 113//113
f 125//125 86//86 77//77
f 113//113 75//75 114//114
f 128//128 129//129 93//93
f 128//128 84//84 124//124
f 128//128 93//93 84//84
f 124//124 84//84 86//86
f 118//118 121//121 119//119
f 118//118 130//130 121//121
f 118//118 117//117 131//131
f 118//118 131//131 130//130
f 110//110 120//120 127//127
f 127//127 120//120 132//132
f 127//127 132//132 129//129
f 120//120 121//121 133//133
f 120//120 133//133 132//132
f 132//132 133//133 134//134
f 132//132 134//134 129//129
f 121//121 130//130 133//133
f 133//133 130//130 135//135
f 133//133 135//135 136//136
f 133//133 136//136 134//134
f 130//130 137//137 135//135
f 130//130 131//131 138//138
f 130//130 138//138 137//137
f 137//137 138//138 91//91
f 137//137 91//91 96//96
f 137//137 96//96 135//135
f 129//129 134//134 94//94
f 129//129 94//94 93//93
f 134//134 136//136 94//94
f 135//135 96//96 95//95
f 135//135 95//95 136//136
f 136//136 95//95 94//94
f 98//98 97//97 100//100
f 98//98 100//100 114//114
f 98//98 139//139 99//99
f 98//98 140//140 139//139
f 98//98 141//141 140//140
f 98//98 114//114 141//141
f 99//99 139//139 142//142
f 99//99 142//142 101//101
f 101//101 142//142 143//143
f 101//101 143//143 144//144
f 101//101 144//144 102//102
f 100//100 106//106 114//114
f 139//139 140//140 142//142
f 140//140 145//145 142//142
f 140//140 141//141 53//53
f 140//140 53//53 51//51
f 140//140 51//51 145//145
f 142//142 145//145 146//146
f 142//142 146//146 143//143
f 145//145 51//51 55//55
f 145//145 55//55 146//146
f 143//143 146//146 147//147
f 143//143 147//147 144//144
f 146//146 55//55 147//147
f 141//141 114//114 79//79
f 141//141 79//79 53//53
f 114//114 75//75 79//79
f 115//115 102//102 148//148
f 115//115 148//148 149//149
f 115//115 149//149 116//116
f 102//102 144//144 148//148
f 117//117 116//116 150//150
f 117//117 150//150 131//131
f 116//116 149//149 150//150
f 148//148 144//144 147//147
f 148//148 151//151 152//152
f 148//148 147//147 151//151
f 148//148 152//152 149//149
f 151//151 147//147 153//153
f 151//151 90//90 152//152
f 151//151 153//153 90//90
f 147//147 55//55 153//153
f 150//150 154//154 91//91
f 150//150 149//149 152//152
f 150//150 152//152 154//154
f 150//150 138//138 131//131
f 150//150 91//91 138//138
f 154//154 152//152 91//91
f 152//152 90//90 92//92
f 152//152 92//92 91//91
f 61//61 90//90 153//153
f 61//61 153//153 55//55
# 304 faces, 0 coords texture

# End of File
