####
#
# OBJ File Generated by Meshlab
#
####
# Object matlab_mesh_slc_step1_link9.obj
#
# Vertices: 80
# Faces: 156
#
####
vn 0.124750 -0.006143 0.080011
v 0.526731 0.626203 0.784400
vn 2.125577 2.620041 -3.770611
v 0.021118 0.046120 -0.026616
vn 2.256301 2.263023 0.843725
v 0.526716 0.626217 0.784400
vn 1.201409 -1.804380 -0.346395
v 0.035979 -0.028023 -0.020012
vn 2.185060 2.180941 5.190066
v 0.495377 0.655657 0.785500
vn 1.422555 1.911711 0.873209
v 0.490775 0.659815 0.785691
vn -0.136888 0.311061 0.178055
v 0.490623 0.659905 0.785698
vn -2.931836 -2.869926 3.448337
v -0.003654 -0.001024 0.002954
vn -0.156023 -0.072477 -0.168288
v -0.086077 -0.027594 -0.116113
vn 1.601643 1.601127 0.980418
v 0.526688 0.626245 0.784401
vn 2.356986 2.373559 0.793523
v 0.526646 0.626287 0.784402
vn 3.360081 3.421098 -0.279884
v 0.526589 0.626343 0.784403
vn 2.885159 2.922116 0.394896
v 0.526518 0.626412 0.784405
vn 2.877440 2.913983 0.402137
v 0.526433 0.626496 0.784407
vn 2.473926 2.496633 0.726988
v 0.526334 0.626594 0.784409
vn 3.201982 3.255573 -0.007344
v 0.526220 0.626705 0.784411
vn 2.946672 2.987861 0.327751
v 0.526093 0.626831 0.784414
vn 3.195851 3.249384 0.001917
v 0.525951 0.626970 0.784418
vn 3.015807 3.062969 0.244178
v 0.525795 0.627123 0.784421
vn 2.708116 2.745351 0.555514
v 0.525242 0.627666 0.784434
vn 2.418266 2.450738 0.754446
v 0.525029 0.627875 0.784439
vn 3.392720 3.569940 -3.856389
v 0.524560 0.628334 0.784451
vn 3.304008 3.388581 -0.199836
v 0.524034 0.628847 0.784464
vn 2.768041 2.824013 0.495474
v 0.523750 0.629125 0.784471
vn 2.512151 2.558897 0.694594
v 0.523451 0.629416 0.784478
vn 2.572641 2.624115 0.652106
v 0.523138 0.629721 0.784486
vn 2.549191 2.601655 0.668049
v 0.522811 0.630040 0.784495
vn 2.702286 2.764959 0.548482
v 0.522470 0.630372 0.784504
vn 2.798303 2.870150 0.459498
v 0.522113 0.630718 0.784513
vn 2.488725 2.547451 0.705615
v 0.521743 0.631077 0.784523
vn 2.434379 2.492424 0.738542
v 0.521358 0.631450 0.784533
vn 2.435214 2.495952 0.737089
v 0.520959 0.631837 0.784544
vn 2.422384 2.485437 0.743809
v 0.520545 0.632237 0.784555
vn 2.454752 2.522228 0.723150
v 0.520117 0.632651 0.784567
vn 2.405816 2.474159 0.751560
v 0.519674 0.633078 0.784580
vn 2.447709 2.521279 0.725288
v 0.519217 0.633518 0.784593
vn 2.408804 2.483615 0.747883
v 0.518745 0.633972 0.784607
vn 2.436980 2.516628 0.729547
v 0.518259 0.634439 0.784621
vn 2.415823 2.498010 0.741394
v 0.517758 0.634919 0.784636
vn 2.415115 2.500546 0.740691
v 0.517242 0.635413 0.784651
vn 2.410411 2.499441 0.742079
v 0.516712 0.635920 0.784668
vn 2.398615 2.490833 0.748026
v 0.516167 0.636440 0.784685
vn 2.413631 2.510404 0.737716
v 0.515608 0.636973 0.784702
vn 2.399676 2.499726 0.744778
v 0.515034 0.637519 0.784721
vn 2.394410 2.498359 0.746464
v 0.514445 0.638079 0.784740
vn 2.397691 2.505921 0.743312
v 0.513841 0.638651 0.784759
vn 2.390461 2.502652 0.745974
v 0.513223 0.639236 0.784780
vn 2.386146 2.502387 0.747373
v 0.512589 0.639834 0.784802
vn 2.381863 2.502353 0.748163
v 0.511941 0.640445 0.784824
vn 2.389610 2.515279 0.742221
v 0.511278 0.641069 0.784847
vn 2.382018 2.511835 0.745126
v 0.510600 0.641705 0.784871
vn 2.377246 2.511734 0.746320
v 0.509907 0.642354 0.784896
vn 2.267213 2.396175 0.806119
v 0.509199 0.643016 0.784922
vn 2.359206 2.499761 0.755429
v 0.508480 0.643687 0.784948
vn 3.130793 3.368338 -0.049538
v 0.507773 0.644346 0.784974
vn 2.746392 2.942181 0.445271
v 0.507078 0.644991 0.785000
vn 2.564411 2.744570 0.606374
v 0.506397 0.645622 0.785027
vn 2.519547 2.699425 0.639202
v 0.505730 0.646239 0.785053
vn 2.458731 2.636728 0.681474
v 0.505077 0.646842 0.785078
vn 2.409023 2.586198 0.713419
v 0.504438 0.647430 0.785104
vn 2.391696 2.571316 0.723137
v 0.503813 0.648005 0.785129
vn 2.385897 2.569134 0.725384
v 0.503203 0.648565 0.785154
vn 2.381312 2.568420 0.726756
v 0.502606 0.649112 0.785179
vn 2.367469 2.557312 0.734108
v 0.502024 0.649644 0.785204
vn 2.353392 2.545422 0.741688
v 0.501456 0.650163 0.785228
vn 2.349813 2.545346 0.742422
v 0.500902 0.650668 0.785251
vn 2.366794 2.566405 0.732056
v 0.500363 0.651158 0.785275
vn 3.432301 3.851746 -0.930971
v 0.495028 0.655991 0.785489
vn 2.631326 2.926971 0.494634
v 0.490848 0.659749 0.785687
vn 2.073099 1.993366 4.912828
v 0.525441 0.627471 0.784430
vn 2.691999 2.895230 1.424398
v 0.499838 0.651636 0.785298
vn 2.884118 3.075978 2.144286
v 0.499327 0.652099 0.785320
vn 2.965449 3.138894 2.764136
v 0.498830 0.652549 0.785342
vn 2.966025 3.115417 3.329140
v 0.498348 0.652985 0.785364
vn 2.914456 3.044863 3.661571
v 0.497880 0.653407 0.785385
vn 2.871591 2.986551 3.933939
v 0.497427 0.653816 0.785405
vn 2.845150 2.950357 4.114390
v 0.496988 0.654211 0.785425
vn 2.730204 2.808203 4.440474
v 0.496563 0.654593 0.785445
vn 2.580097 2.625727 4.787119
v 0.496153 0.654961 0.785464
vn 2.505994 2.534948 4.965374
v 0.495758 0.655316 0.785482
# 80 vertices, 0 vertices normals

f 1//1 2//2 3//3
f 1//1 4//4 2//2
f 1//1 3//3 5//5
f 1//1 5//5 6//6
f 1//1 6//6 7//7
f 1//1 7//7 8//8
f 1//1 8//8 4//4
f 2//2 4//4 9//9
f 2//2 9//9 7//7
f 2//2 10//10 3//3
f 2//2 11//11 10//10
f 2//2 12//12 11//11
f 2//2 13//13 12//12
f 2//2 14//14 13//13
f 2//2 15//15 14//14
f 2//2 16//16 15//15
f 2//2 17//17 16//16
f 2//2 18//18 17//17
f 2//2 19//19 18//18
f 2//2 20//20 19//19
f 2//2 21//21 20//20
f 2//2 22//22 21//21
f 2//2 23//23 22//22
f 2//2 24//24 23//23
f 2//2 25//25 24//24
f 2//2 26//26 25//25
f 2//2 27//27 26//26
f 2//2 28//28 27//27
f 2//2 29//29 28//28
f 2//2 30//30 29//29
f 2//2 31//31 30//30
f 2//2 32//32 31//31
f 2//2 33//33 32//32
f 2//2 34//34 33//33
f 2//2 35//35 34//34
f 2//2 36//36 35//35
f 2//2 37//37 36//36
f 2//2 38//38 37//37
f 2//2 39//39 38//38
f 2//2 40//40 39//39
f 2//2 41//41 40//40
f 2//2 42//42 41//41
f 2//2 43//43 42//42
f 2//2 44//44 43//43
f 2//2 45//45 44//44
f 2//2 46//46 45//45
f 2//2 47//47 46//46
f 2//2 48//48 47//47
f 2//2 49//49 48//48
f 2//2 50//50 49//49
f 2//2 51//51 50//50
f 2//2 52//52 51//51
f 2//2 53//53 52//52
f 2//2 54//54 53//53
f 2//2 55//55 54//54
f 2//2 56//56 55//55
f 2//2 57//57 56//56
f 2//2 58//58 57//57
f 2//2 59//59 58//58
f 2//2 60//60 59//59
f 2//2 61//61 60//60
f 2//2 62//62 61//61
f 2//2 63//63 62//62
f 2//2 64//64 63//63
f 2//2 65//65 64//64
f 2//2 66//66 65//65
f 2//2 67//67 66//66
f 2//2 68//68 67//67
f 2//2 69//69 68//68
f 2//2 6//6 69//69
f 2//2 7//7 6//6
f 4//4 8//8 9//9
f 9//9 8//8 7//7
f 3//3 10//10 20//20
f 3//3 20//20 21//21
f 3//3 21//21 54//54
f 3//3 54//54 5//5
f 10//10 11//11 20//20
f 11//11 12//12 20//20
f 12//12 13//13 20//20
f 13//13 14//14 20//20
f 14//14 15//15 20//20
f 15//15 16//16 20//20
f 16//16 17//17 70//70
f 16//16 70//70 20//20
f 17//17 18//18 70//70
f 18//18 19//19 70//70
f 19//19 20//20 70//70
f 21//21 22//22 23//23
f 21//21 23//23 24//24
f 21//21 24//24 25//25
f 21//21 25//25 26//26
f 21//21 26//26 27//27
f 21//21 27//27 30//30
f 21//21 30//30 31//31
f 21//21 31//31 32//32
f 21//21 32//32 33//33
f 21//21 33//33 34//34
f 21//21 34//34 35//35
f 21//21 35//35 36//36
f 21//21 36//36 37//37
f 21//21 37//37 38//38
f 21//21 38//38 39//39
f 21//21 39//39 40//40
f 21//21 40//40 41//41
f 21//21 41//41 42//42
f 21//21 42//42 43//43
f 21//21 43//43 44//44
f 21//21 44//44 45//45
f 21//21 45//45 46//46
f 21//21 46//46 47//47
f 21//21 47//47 48//48
f 21//21 48//48 49//49
f 21//21 49//49 50//50
f 21//21 50//50 51//51
f 21//21 51//51 52//52
f 21//21 52//52 54//54
f 27//27 28//28 30//30
f 28//28 29//29 30//30
f 52//52 53//53 54//54
f 54//54 55//55 56//56
f 54//54 56//56 57//57
f 54//54 57//57 58//58
f 54//54 58//58 59//59
f 54//54 59//59 60//60
f 54//54 60//60 61//61
f 54//54 61//61 62//62
f 54//54 62//62 63//63
f 54//54 63//63 64//64
f 54//54 64//64 65//65
f 54//54 65//65 66//66
f 54//54 66//66 67//67
f 54//54 67//67 71//71
f 54//54 71//71 72//72
f 54//54 72//72 73//73
f 54//54 73//73 74//74
f 54//54 74//74 75//75
f 54//54 75//75 76//76
f 54//54 76//76 77//77
f 54//54 77//77 78//78
f 54//54 78//78 79//79
f 54//54 79//79 80//80
f 54//54 80//80 5//5
f 67//67 68//68 71//71
f 71//71 68//68 72//72
f 72//72 68//68 73//73
f 73//73 68//68 74//74
f 74//74 68//68 75//75
f 75//75 68//68 76//76
f 76//76 68//68 77//77
f 77//77 68//68 69//69
f 77//77 69//69 78//78
f 78//78 69//69 79//79
f 79//79 69//69 80//80
f 80//80 69//69 5//5
f 5//5 69//69 6//6
# 156 faces, 0 coords texture

# End of File
