####
#
# OBJ File Generated by Meshlab
#
####
# Object matlab_mesh_step17_link3.obj
#
# Vertices: 208
# Faces: 412
#
####
vn 3.947020 -3.417525 3.436383
v 0.239762 0.384469 0.997891
vn 0.760489 -4.678545 1.065697
v 0.127546 0.195917 0.919504
vn 1.730771 -4.373305 0.784588
v 0.185515 0.190956 0.852935
vn 4.319128 -3.448208 2.988836
v 0.299173 0.384597 0.912531
vn 5.111760 -1.585338 1.573925
v 0.299813 0.385215 0.912319
vn 4.453484 -2.909905 3.273435
v 0.240402 0.385087 0.997678
vn 2.325004 -2.042934 4.779031
v 0.239555 0.384890 0.998488
vn 2.103403 -4.853082 2.455187
v 0.114752 0.197490 0.934134
vn 0.478597 -4.446047 1.662310
v 0.114737 0.197491 0.934150
vn -2.346981 -5.614141 -1.450886
v 0.114358 0.198419 0.929487
vn -2.213348 -5.693105 -1.470745
v 0.116975 0.198178 0.926483
vn -0.082705 -5.704942 -1.403275
v 0.185126 0.191892 0.848254
vn -1.074103 -5.989333 -1.229349
v 0.185124 0.191885 0.848286
vn -2.364366 -5.660180 -1.225191
v 0.114342 0.198420 0.929515
vn 1.896071 -4.444877 -0.285884
v 0.185519 0.190957 0.852921
vn -1.241380 -5.739371 -1.914193
v 0.186957 0.196045 0.834145
vn -2.459594 -5.419853 -2.000318
v 0.186694 0.196239 0.833917
vn -2.205096 -5.490471 -2.083559
v 0.188847 0.199339 0.823304
vn -2.416218 -5.461935 -1.930012
v 0.186151 0.193976 0.840944
vn -0.612335 -5.619997 -1.991734
v 0.188855 0.199343 0.823286
vn -1.676359 -5.706119 -1.909341
v 0.186155 0.193965 0.840971
vn 0.085295 -5.856109 -1.705051
v 0.186157 0.193957 0.840996
vn 5.175619 -0.597425 -0.775118
v 0.300087 0.385675 0.910871
vn 5.726670 -1.101903 0.718061
v 0.300010 0.385546 0.911290
vn 5.876117 1.646326 1.281930
v 0.299879 0.386095 0.911468
vn 5.708183 2.228590 0.905588
v 0.294439 0.407691 0.900258
vn 5.410569 0.276592 -2.048907
v 0.294045 0.408621 0.895611
vn 5.438916 2.566123 0.765503
v 0.294433 0.407718 0.900232
vn 4.073962 -4.154751 -0.942683
v 0.189258 0.198424 0.827899
vn 2.241202 -3.489810 -2.573995
v 0.188863 0.199353 0.823264
vn 3.999604 -4.377962 -0.679793
v 0.186551 0.193019 0.845674
vn 5.046461 -2.242029 -2.517431
v 0.194688 0.210227 0.824946
vn 4.463793 -1.232842 -3.990288
v 0.194690 0.210238 0.824943
vn 5.866348 1.490669 1.568595
v 0.299803 0.385967 0.911888
vn 3.615521 -0.140341 3.928858
v 0.240194 0.385507 0.998275
vn 5.211773 -0.156352 2.522398
v 0.299605 0.385635 0.912916
vn 2.727463 1.146814 4.654749
v 0.219937 0.406763 1.006473
vn 2.244601 1.289745 4.495602
v 0.219912 0.406785 1.006482
vn 0.465907 -1.767726 5.973277
v 0.214087 0.395911 1.004800
vn -1.044025 -3.841433 2.894594
v 0.114711 0.197501 0.934165
vn -0.309248 -4.016078 2.157526
v 0.114723 0.197495 0.934160
vn 5.724794 2.193323 1.369106
v 0.294444 0.407659 0.900290
vn 5.689653 2.206710 1.494042
v 0.293414 0.405604 0.907512
vn 5.303401 1.387004 2.579172
v 0.290705 0.400236 0.925240
vn 4.104721 2.425461 4.024256
v 0.219966 0.406737 1.006460
vn 4.965537 2.074883 2.691117
v 0.290694 0.400251 0.925254
vn 4.332075 3.268589 2.702461
v 0.290682 0.400263 0.925262
vn -2.641963 -5.346687 -1.975922
v 0.107780 0.259358 0.767494
vn 0.024379 -2.231704 -3.690258
v 0.110491 0.264774 0.749684
vn -2.620874 -5.383603 -1.903041
v 0.185123 0.191951 0.848074
vn -2.336658 -5.510143 -1.878635
v 0.185126 0.191931 0.848127
vn -2.585777 -5.433172 -1.801284
v 0.114377 0.198421 0.929455
vn -2.752613 -5.335695 -1.849696
v 0.029454 0.267084 0.855980
vn -2.736441 -5.314444 -1.934101
v 0.030488 0.269151 0.848717
vn -2.724186 -5.316374 -1.946389
v 0.098660 0.262851 0.770508
vn -2.709039 -5.312862 -1.975857
v 0.101287 0.262608 0.767494
vn 2.672900 5.358210 1.903551
v 0.111398 0.497113 0.909135
vn 2.645299 5.374773 1.895107
v 0.111304 0.497189 0.909055
vn 2.619664 5.362837 1.961755
v 0.110276 0.495138 0.916259
vn 2.639097 5.347840 1.976516
v 0.188385 0.429913 0.989643
vn 2.668841 5.385868 1.827311
v 0.181927 0.490776 0.827692
vn 2.709039 5.312885 1.975794
v 0.194878 0.426663 0.989643
vn 2.752568 5.335704 1.849738
v 0.266711 0.422187 0.901158
vn 2.724163 5.316414 1.946311
v 0.197505 0.426420 0.986629
vn 2.736408 5.314461 1.934102
v 0.265677 0.420120 0.908420
vn -1.812586 -5.681398 -1.807358
v 0.185127 0.191914 0.848175
vn 2.591051 5.406719 1.878118
v 0.111224 0.497252 0.908985
vn 2.559924 5.390194 1.964476
v 0.110194 0.495197 0.916206
vn 2.541310 5.367629 2.050929
v 0.107496 0.489811 0.933916
vn 0.147135 2.296005 3.813023
v 0.185674 0.424498 1.007453
vn -0.610360 -5.745454 -1.594656
v 0.185127 0.191901 0.848217
vn -2.474209 -5.515913 -1.712134
v 0.116988 0.198180 0.926457
vn 5.518502 2.532285 1.559968
v 0.293408 0.405632 0.907495
vn 2.510498 5.452385 1.853095
v 0.111158 0.497304 0.908925
vn 2.459138 5.436939 1.963322
v 0.110127 0.495245 0.916161
vn 2.628335 5.451934 1.674556
v 0.181890 0.490809 0.827646
vn 2.416054 5.386675 2.142550
v 0.107425 0.489848 0.933906
vn 1.212270 -4.746366 -2.010479
v 0.188860 0.199347 0.823273
vn 1.741992 -5.811320 -1.447798
v 0.186158 0.193951 0.841018
vn -2.717835 -5.372242 -1.793089
v 0.107890 0.201659 0.929487
vn 2.767632 -5.490404 -1.248835
v 0.189254 0.198418 0.827920
vn 2.590306 -5.563474 -1.253221
v 0.186551 0.193021 0.845665
vn 2.305513 -5.687430 -1.254433
v 0.185520 0.190962 0.852901
vn 5.065365 3.255395 1.705502
v 0.293400 0.405656 0.907479
vn 2.374045 5.523455 1.814131
v 0.111108 0.497344 0.908874
vn 2.287473 5.510940 1.960046
v 0.110075 0.495281 0.916122
vn 2.521950 5.479759 1.756789
v 0.179268 0.491051 0.830655
vn 2.738949 5.353698 1.817441
v 0.188395 0.487537 0.827692
vn 2.761520 5.390761 1.661328
v 0.188369 0.487565 0.827646
vn 2.140307 5.407805 2.334673
v 0.107369 0.489876 0.933896
vn 2.807546 5.341358 1.750923
v 0.210875 0.475763 0.827646
vn 2.873656 5.368282 1.531764
v 0.210885 0.475770 0.827609
vn 2.912055 5.277746 1.756832
v 0.289264 0.410363 0.901158
vn -2.773021 -5.417237 -1.541892
v 0.107863 0.201664 0.929515
vn 4.965284 0.830534 -2.233098
v 0.294038 0.408646 0.895596
vn 1.000713 0.609388 5.753926
v 0.214721 0.409421 1.007454
vn -0.171176 -1.438774 6.042274
v 0.208894 0.398541 1.005771
vn -1.536350 -3.635017 3.111260
v 0.109560 0.200110 0.935130
vn 4.838792 3.436651 0.905250
v 0.294424 0.407739 0.900210
vn 4.307512 4.121095 1.847482
v 0.293391 0.405674 0.907466
vn 2.015625 1.858250 4.262854
v 0.219889 0.406802 1.006487
vn 3.492871 4.548340 2.389950
v 0.290669 0.400272 0.925265
vn 2.533023 5.559036 1.409449
v 0.181864 0.490833 0.827609
vn 2.066649 5.657086 1.736335
v 0.111071 0.497372 0.908834
vn 1.912948 5.649332 1.946369
v 0.110038 0.495307 0.916091
vn 2.339813 5.607747 1.587811
v 0.179239 0.491075 0.830621
vn 2.794539 5.458730 1.343561
v 0.188351 0.487585 0.827609
vn 1.345646 5.287707 2.843899
v 0.107329 0.489896 0.933886
vn -2.830574 -5.487131 -1.125032
v 0.107840 0.201669 0.929538
vn -2.859952 -5.388901 -1.469336
v 0.085307 0.213485 0.929538
vn -2.912037 -5.277760 -1.756823
v 0.006901 0.278908 0.855980
vn 3.439038 -2.306439 -4.293601
v 0.188863 0.199358 0.823260
vn -2.619808 -5.613445 -1.009252
v 0.114328 0.198422 0.929538
vn 4.569962 1.673253 -2.099616
v 0.294029 0.408665 0.895587
vn 2.213884 0.226627 -5.383971
v 0.116318 0.275655 0.751367
vn 2.664873 2.484423 -2.347085
v 0.215650 0.474087 0.822007
vn -2.821916 -5.569004 -0.664224
v 0.108236 0.200743 0.934160
vn -2.848800 -5.565371 -0.340250
v 0.108218 0.200751 0.934165
vn 3.975877 4.477178 1.044729
v 0.294415 0.407754 0.900193
vn 3.420563 4.874781 1.921372
v 0.293380 0.405687 0.907455
vn 3.063425 5.299568 1.406352
v 0.216053 0.473151 0.826642
vn 3.294316 5.206887 1.120001
v 0.292297 0.409522 0.898204
vn 3.211865 5.281865 0.990888
v 0.216045 0.473163 0.826616
vn 2.890546 4.437106 3.165050
v 0.219870 0.406814 1.006488
vn 1.927184 3.406871 3.988817
v 0.214719 0.409424 1.007453
vn 3.113544 4.936158 2.316383
v 0.222497 0.406572 1.003474
vn -0.717227 -1.170647 6.101456
v 0.179873 0.413604 1.005771
vn -0.629585 -1.228422 6.104946
v 0.202407 0.401788 1.005771
vn 0.472513 1.039554 5.821144
v 0.185700 0.424483 1.007454
vn -2.109602 -0.353436 5.562206
v 0.179847 0.413616 1.005770
vn -2.491819 -2.495618 2.391801
v 0.080515 0.215184 0.935130
vn -0.194670 -0.379999 6.254035
v 0.208234 0.412668 1.007454
vn -1.882939 -3.617430 2.732780
v 0.103067 0.203360 0.935130
vn 1.980722 5.818548 1.257862
v 0.179222 0.491088 0.830595
vn 0.589146 5.840784 1.476062
v 0.111050 0.497388 0.908804
vn 0.247428 5.840818 1.756960
v 0.110015 0.495322 0.916066
vn 2.284631 5.715222 1.093186
v 0.181849 0.490846 0.827581
vn 2.822642 5.519411 1.006536
v 0.188342 0.487596 0.827581
vn 0.840900 1.604936 5.708042
v 0.192187 0.421236 1.007454
vn 1.950245 3.832140 3.845338
v 0.192167 0.421247 1.007453
vn -1.391663 3.456246 2.981450
v 0.107305 0.489906 0.933876
vn -0.590870 4.211948 4.373725
v 0.109423 0.488139 0.935865
vn 2.919748 5.441814 1.119839
v 0.210894 0.475772 0.827581
vn -2.939880 -5.419115 -1.163219
v 0.085271 0.213499 0.929557
vn -2.981025 -5.312274 -1.540000
v 0.080139 0.216103 0.930505
vn -4.335973 -3.658857 -1.407028
v 0.001750 0.281517 0.856945
vn -3.198898 -5.271999 -1.052932
v 0.080120 0.216109 0.930522
vn -2.910400 -5.521794 -0.697825
v 0.085666 0.212575 0.934165
vn 4.356727 3.976250 -0.684391
v 0.294020 0.408678 0.895585
vn 4.236448 4.113904 -0.855185
v 0.291901 0.410446 0.893596
vn -3.257132 -5.226006 -1.176544
v 0.003868 0.279750 0.858933
vn 2.910401 5.521797 0.697797
v 0.210499 0.476696 0.822972
vn 2.893577 5.162006 2.106460
v 0.217346 0.409181 1.004439
vn 2.912716 5.159421 2.085396
v 0.285518 0.402881 0.926230
vn 2.883258 5.224727 1.959776
v 0.288229 0.408297 0.908420
vn -3.901998 -2.339112 2.076713
v 0.004263 0.278825 0.863542
vn -4.194968 0.160949 4.666734
v 0.080511 0.215189 0.935127
vn -4.056373 -1.517605 1.596913
v 0.002145 0.280593 0.861553
vn -4.486033 -1.225435 0.511863
v 0.002143 0.280596 0.861545
vn -3.654879 0.642360 5.016351
v 0.179840 0.413623 1.005765
vn -2.802402 1.925142 5.103297
v 0.185665 0.424500 1.007447
vn -4.495703 -1.093343 -0.198607
v 0.001749 0.281517 0.856952
vn -4.298803 1.151343 4.287369
v 0.101477 0.479025 0.932193
vn -3.305869 3.655310 2.089543
v 0.107296 0.489908 0.933866
vn -5.143980 2.049799 2.419657
v 0.101471 0.479030 0.932183
vn 0.950085 6.076821 0.918025
v 0.110655 0.498312 0.904195
vn -2.191062 4.059645 -0.653142
v 0.110648 0.498314 0.904190
vn -1.116596 5.955664 1.310526
v 0.111042 0.497392 0.908783
vn -1.750347 5.811443 1.453079
v 0.110008 0.495325 0.916048
vn 1.436576 6.053532 0.764637
v 0.178827 0.492013 0.825987
vn 2.823366 5.574795 0.363180
v 0.187947 0.488520 0.822972
vn 1.621915 5.635174 -0.512289
v 0.181454 0.491770 0.822972
vn 2.780878 5.263504 2.009854
v 0.217430 0.414839 0.989643
vn 2.786153 5.262702 2.004702
v 0.220057 0.414596 0.986629
vn -2.912694 -5.159438 -2.085390
v 0.010646 0.286390 0.830907
vn -2.883272 -5.224725 -1.959758
v 0.007936 0.280974 0.848717
vn -4.177933 -3.728796 -2.061293
v 0.005495 0.288999 0.831872
vn -2.893589 -5.162011 -2.106438
v 0.078819 0.280090 0.752698
vn -2.786162 -5.262694 -2.004708
v 0.076108 0.274675 0.770508
vn -3.644529 -4.001197 -2.854553
v 0.073668 0.282699 0.753663
vn -4.361666 -3.594772 -1.713713
v 0.002785 0.283584 0.849682
vn -1.283878 -2.159849 -4.096828
v 0.081446 0.279847 0.749684
vn -2.780891 -5.263496 -2.009858
v 0.078735 0.274432 0.767494
vn -3.055341 -1.083451 -3.286432
v 0.076295 0.282457 0.750649
vn -1.358921 -2.652072 -4.136070
v 0.103998 0.268024 0.749684
vn 0.194688 0.380072 -6.254025
v 0.087938 0.276597 0.749684
vn 0.459974 1.325500 -6.087668
v 0.087273 0.290729 0.751367
vn -1.238318 -0.824150 -5.586411
v 0.081430 0.279858 0.749686
vn 0.629558 1.228488 -6.104945
v 0.093766 0.287479 0.751367
vn 2.400908 4.817509 -2.289248
v 0.186605 0.489161 0.822007
vn 2.400188 4.587634 -2.120613
v 0.193098 0.485911 0.822007
vn 1.482654 2.939236 -5.086439
v 0.193079 0.485919 0.822006
vn 1.377435 3.581961 -3.872142
v 0.186583 0.489170 0.822006
vn 0.000957 1.510564 -6.049684
v 0.087255 0.290736 0.751368
vn 1.684404 2.862492 -4.974316
v 0.215640 0.474091 0.822006
vn -4.262355 0.039854 -2.028721
v 0.005495 0.289002 0.831869
vn -5.664209 0.313629 -0.724671
v 0.002783 0.283584 0.849687
vn -3.409701 2.979537 -4.244529
v 0.082122 0.293338 0.752332
vn -1.758035 2.150677 -5.236274
v 0.082123 0.293335 0.752330
vn -4.666998 3.022869 -2.411012
v 0.011320 0.299879 0.833552
vn -2.149233 0.457800 -5.157008
v 0.076298 0.282458 0.750648
vn -0.553136 3.710534 -2.896383
v 0.181451 0.491770 0.822968
vn -1.988326 4.762172 -2.116956
v 0.178823 0.492013 0.825983
vn -4.063437 4.123080 0.891811
v 0.106902 0.490829 0.929273
vn -5.590957 2.750216 0.544501
v 0.101077 0.479952 0.927590
vn -3.830099 4.359731 0.699108
v 0.109613 0.496247 0.911455
vn -5.499277 2.962203 -0.429259
v 0.104823 0.487436 0.902507
vn -5.580155 2.886493 0.027557
v 0.103789 0.485369 0.909773
# 208 vertices, 0 vertices normals

f 1//1 2//2 3//3
f 1//1 4//4 5//5
f 1//1 6//6 7//7
f 1//1 5//5 6//6
f 1//1 7//7 8//8
f 1//1 8//8 2//2
f 1//1 3//3 4//4
f 2//2 8//8 9//9
f 2//2 10//10 11//11
f 2//2 11//11 12//12
f 2//2 12//12 13//13
f 2//2 9//9 14//14
f 2//2 15//15 3//3
f 2//2 14//14 10//10
f 2//2 13//13 15//15
f 4//4 3//3 5//5
f 16//16 17//17 18//18
f 16//16 19//19 17//17
f 16//16 18//18 20//20
f 16//16 21//21 19//19
f 16//16 20//20 22//22
f 16//16 22//22 21//21
f 23//23 24//24 15//15
f 23//23 25//25 24//24
f 23//23 26//26 25//25
f 23//23 27//27 28//28
f 23//23 29//29 30//30
f 23//23 31//31 29//29
f 23//23 15//15 31//31
f 23//23 28//28 26//26
f 23//23 30//30 32//32
f 23//23 32//32 33//33
f 23//23 33//33 27//27
f 24//24 5//5 15//15
f 24//24 25//25 34//34
f 24//24 34//34 5//5
f 6//6 5//5 35//35
f 6//6 35//35 7//7
f 5//5 34//34 36//36
f 5//5 36//36 35//35
f 5//5 3//3 15//15
f 7//7 35//35 37//37
f 7//7 37//37 38//38
f 7//7 39//39 40//40
f 7//7 9//9 8//8
f 7//7 38//38 39//39
f 7//7 41//41 9//9
f 7//7 40//40 41//41
f 25//25 42//42 43//43
f 25//25 43//43 44//44
f 25//25 26//26 42//42
f 25//25 44//44 34//34
f 34//34 44//44 36//36
f 35//35 36//36 44//44
f 35//35 45//45 37//37
f 35//35 44//44 46//46
f 35//35 46//46 47//47
f 35//35 47//47 45//45
f 17//17 19//19 48//48
f 17//17 49//49 18//18
f 17//17 48//48 49//49
f 50//50 19//19 51//51
f 50//50 51//51 52//52
f 50//50 52//52 53//53
f 50//50 54//54 55//55
f 50//50 55//55 56//56
f 50//50 56//56 48//48
f 50//50 53//53 54//54
f 50//50 48//48 19//19
f 57//57 58//58 59//59
f 57//57 59//59 60//60
f 57//57 61//61 58//58
f 57//57 60//60 62//62
f 57//57 63//63 61//61
f 57//57 62//62 64//64
f 57//57 64//64 65//65
f 57//57 65//65 63//63
f 19//19 21//21 51//51
f 51//51 21//21 66//66
f 51//51 66//66 52//52
f 58//58 67//67 68//68
f 58//58 68//68 59//59
f 58//58 61//61 67//67
f 59//59 68//68 69//69
f 59//59 69//69 70//70
f 59//59 70//70 60//60
f 18//18 49//49 20//20
f 21//21 22//22 66//66
f 66//66 22//22 71//71
f 66//66 72//72 52//52
f 66//66 71//71 72//72
f 42//42 26//26 73//73
f 42//42 73//73 43//43
f 45//45 47//47 37//37
f 43//43 73//73 44//44
f 67//67 74//74 75//75
f 67//67 61//61 76//76
f 67//67 75//75 68//68
f 67//67 76//76 74//74
f 68//68 75//75 77//77
f 68//68 77//77 69//69
f 69//69 77//77 70//70
f 20//20 78//78 22//22
f 20//20 49//49 78//78
f 22//22 78//78 79//79
f 22//22 79//79 71//71
f 52//52 72//72 10//10
f 52//52 80//80 53//53
f 52//52 10//10 80//80
f 72//72 71//71 10//10
f 71//71 79//79 12//12
f 71//71 11//11 10//10
f 71//71 12//12 11//11
f 81//81 82//82 79//79
f 81//81 78//78 29//29
f 81//81 79//79 78//78
f 81//81 29//29 31//31
f 81//81 31//31 82//82
f 82//82 83//83 12//12
f 82//82 12//12 79//79
f 82//82 31//31 83//83
f 83//83 31//31 15//15
f 83//83 15//15 12//12
f 26//26 28//28 84//84
f 26//26 84//84 73//73
f 37//37 47//47 38//38
f 73//73 84//84 46//46
f 73//73 46//46 44//44
f 74//74 85//85 86//86
f 74//74 87//87 85//85
f 74//74 76//76 87//87
f 74//74 86//86 75//75
f 61//61 88//88 89//89
f 61//61 89//89 76//76
f 61//61 63//63 88//88
f 75//75 86//86 90//90
f 75//75 90//90 77//77
f 77//77 90//90 70//70
f 88//88 91//91 92//92
f 88//88 92//92 89//89
f 88//88 63//63 93//93
f 88//88 93//93 91//91
f 80//80 10//10 94//94
f 80//80 94//94 53//53
f 78//78 30//30 29//29
f 78//78 49//49 30//30
f 10//10 14//14 94//94
f 12//12 15//15 13//13
f 27//27 95//95 28//28
f 27//27 33//33 95//95
f 39//39 38//38 96//96
f 39//39 97//97 98//98
f 39//39 96//96 97//97
f 39//39 98//98 40//40
f 9//9 41//41 14//14
f 28//28 95//95 99//99
f 28//28 99//99 100//100
f 28//28 100//100 84//84
f 38//38 101//101 96//96
f 38//38 47//47 102//102
f 38//38 102//102 101//101
f 84//84 100//100 47//47
f 84//84 47//47 46//46
f 85//85 87//87 103//103
f 85//85 104//104 105//105
f 85//85 106//106 104//104
f 85//85 103//103 106//106
f 85//85 105//105 86//86
f 87//87 76//76 103//103
f 76//76 89//89 107//107
f 76//76 107//107 103//103
f 86//86 105//105 108//108
f 86//86 108//108 90//90
f 90//90 108//108 70//70
f 89//89 92//92 107//107
f 91//91 93//93 92//92
f 94//94 14//14 109//109
f 94//94 110//110 111//111
f 94//94 109//109 110//110
f 94//94 111//111 53//53
f 30//30 112//112 32//32
f 30//30 49//49 112//112
f 14//14 41//41 113//113
f 14//14 113//113 109//109
f 95//95 114//114 99//99
f 95//95 33//33 115//115
f 95//95 116//116 114//114
f 95//95 115//115 116//116
f 32//32 112//112 33//33
f 117//117 41//41 118//118
f 117//117 109//109 113//113
f 117//117 113//113 41//41
f 117//117 118//118 109//109
f 41//41 40//40 118//118
f 99//99 114//114 119//119
f 99//99 119//119 120//120
f 99//99 120//120 100//100
f 121//121 92//92 119//119
f 121//121 119//119 122//122
f 121//121 123//123 92//92
f 121//121 122//122 123//123
f 101//101 124//124 125//125
f 101//101 126//126 124//124
f 101//101 102//102 126//126
f 101//101 125//125 96//96
f 100//100 120//120 102//102
f 100//100 102//102 47//47
f 127//127 128//128 129//129
f 127//127 129//129 70//70
f 127//127 130//130 131//131
f 127//127 131//131 128//128
f 127//127 70//70 130//130
f 128//128 97//97 132//132
f 128//128 132//132 129//129
f 128//128 131//131 133//133
f 128//128 133//133 97//97
f 97//97 96//96 132//132
f 97//97 133//133 98//98
f 104//104 106//106 134//134
f 104//104 135//135 136//136
f 104//104 134//134 135//135
f 104//104 136//136 105//105
f 106//106 103//103 137//137
f 106//106 137//137 134//134
f 103//103 107//107 138//138
f 103//103 138//138 137//137
f 129//129 132//132 139//139
f 129//129 139//139 140//140
f 129//129 140//140 70//70
f 132//132 96//96 139//139
f 105//105 136//136 141//141
f 105//105 141//141 108//108
f 108//108 142//142 70//70
f 108//108 141//141 142//142
f 107//107 92//92 143//143
f 107//107 143//143 138//138
f 92//92 123//123 143//143
f 92//92 93//93 119//119
f 139//139 96//96 125//125
f 139//139 125//125 140//140
f 110//110 109//109 144//144
f 110//110 145//145 146//146
f 110//110 144//144 147//147
f 110//110 147//147 145//145
f 110//110 146//146 111//111
f 109//109 148//148 144//144
f 109//109 118//118 148//148
f 112//112 49//49 33//33
f 114//114 149//149 119//119
f 114//114 116//116 150//150
f 114//114 150//150 149//149
f 33//33 49//49 115//115
f 145//145 151//151 146//146
f 145//145 147//147 151//151
f 148//148 118//118 133//133
f 148//148 131//131 147//147
f 148//148 133//133 131//131
f 148//148 147//147 144//144
f 118//118 40//40 98//98
f 118//118 98//98 133//133
f 119//119 93//93 120//120
f 119//119 149//149 122//122
f 123//123 122//122 150//150
f 123//123 116//116 152//152
f 123//123 150//150 116//116
f 123//123 152//152 143//143
f 122//122 149//149 150//150
f 124//124 126//126 153//153
f 124//124 153//153 125//125
f 126//126 102//102 154//154
f 126//126 154//154 153//153
f 120//120 93//93 155//155
f 120//120 155//155 102//102
f 102//102 155//155 154//154
f 156//156 131//131 157//157
f 156//156 158//158 159//159
f 156//156 160//160 158//158
f 156//156 157//157 160//160
f 156//156 159//159 131//131
f 130//130 70//70 161//161
f 130//130 160//160 131//131
f 130//130 161//161 160//160
f 131//131 160//160 157//157
f 131//131 159//159 162//162
f 131//131 162//162 147//147
f 163//163 158//158 160//160
f 163//163 141//141 164//164
f 163//163 160//160 161//161
f 163//163 165//165 158//158
f 163//163 161//161 141//141
f 163//163 164//164 165//165
f 158//158 165//165 159//159
f 135//135 134//134 166//166
f 135//135 166//166 167//167
f 135//135 168//168 169//169
f 135//135 169//169 136//136
f 135//135 167//167 168//168
f 134//134 137//137 170//170
f 134//134 170//170 166//166
f 137//137 138//138 171//171
f 137//137 172//172 170//170
f 137//137 171//171 172//172
f 142//142 141//141 161//161
f 142//142 161//161 70//70
f 60//60 70//70 62//62
f 70//70 140//140 62//62
f 136//136 169//169 164//164
f 136//136 164//164 141//141
f 63//63 65//65 93//93
f 93//93 65//65 155//155
f 138//138 143//143 152//152
f 138//138 152//152 171//171
f 62//62 173//173 64//64
f 62//62 140//140 173//173
f 173//173 140//140 125//125
f 173//173 125//125 153//153
f 173//173 174//174 64//64
f 173//173 153//153 174//174
f 64//64 174//174 155//155
f 64//64 155//155 65//65
f 174//174 153//153 154//154
f 174//174 154//154 155//155
f 175//175 176//176 177//177
f 175//175 178//178 179//179
f 175//175 179//179 176//176
f 175//175 177//177 180//180
f 175//175 180//180 178//178
f 176//176 54//54 111//111
f 176//176 179//179 54//54
f 176//176 111//111 181//181
f 176//176 181//181 177//177
f 54//54 179//179 55//55
f 54//54 53//53 111//111
f 178//178 182//182 183//183
f 178//178 183//183 179//179
f 178//178 180//180 184//184
f 178//178 184//184 182//182
f 179//179 183//183 55//55
f 55//55 183//183 56//56
f 182//182 185//185 183//183
f 182//182 186//186 185//185
f 182//182 187//187 186//186
f 182//182 184//184 188//188
f 182//182 188//188 187//187
f 185//185 56//56 183//183
f 185//185 186//186 49//49
f 185//185 49//49 56//56
f 56//56 49//49 48//48
f 111//111 146//146 181//181
f 186//186 187//187 189//189
f 186//186 189//189 49//49
f 49//49 189//189 115//115
f 190//190 191//191 192//192
f 190//190 172//172 171//171
f 190//190 171//171 191//191
f 190//190 193//193 172//172
f 190//190 192//192 193//193
f 187//187 188//188 194//194
f 187//187 193//193 192//192
f 187//187 194//194 193//193
f 187//187 192//192 189//189
f 191//191 116//116 195//195
f 191//191 171//171 152//152
f 191//191 152//152 116//116
f 191//191 195//195 192//192
f 116//116 115//115 195//195
f 189//189 192//192 195//195
f 189//189 195//195 115//115
f 177//177 181//181 196//196
f 177//177 196//196 180//180
f 181//181 146//146 197//197
f 181//181 197//197 196//196
f 180//180 196//196 184//184
f 184//184 198//198 199//199
f 184//184 196//196 200//200
f 184//184 201//201 188//188
f 184//184 200//200 198//198
f 184//184 199//199 201//201
f 151//151 147//147 162//162
f 151//151 162//162 146//146
f 146//146 162//162 197//197
f 166//166 170//170 167//167
f 170//170 172//172 167//167
f 172//172 193//193 202//202
f 172//172 203//203 167//167
f 172//172 202//202 203//203
f 198//198 167//167 203//203
f 198//198 200//200 167//167
f 198//198 203//203 202//202
f 198//198 202//202 199//199
f 165//165 164//164 204//204
f 165//165 205//205 159//159
f 165//165 204//204 205//205
f 159//159 205//205 162//162
f 168//168 167//167 206//206
f 168//168 206//206 169//169
f 169//169 206//206 204//204
f 169//169 204//204 164//164
f 188//188 201//201 199//199
f 188//188 199//199 194//194
f 193//193 194//194 199//199
f 193//193 199//199 202//202
f 207//207 196//196 197//197
f 207//207 197//197 205//205
f 207//207 208//208 206//206
f 207//207 205//205 208//208
f 207//207 167//167 200//200
f 207//207 200//200 196//196
f 207//207 206//206 167//167
f 197//197 162//162 205//205
f 208//208 205//205 204//204
f 208//208 204//204 206//206
# 412 faces, 0 coords texture

# End of File
