####
#
# OBJ File Generated by Meshlab
#
####
# Object matlab_mesh_step13_link2.obj
#
# Vertices: 161
# Faces: 318
#
####
vn -1.521408 -1.891193 5.795322
v 0.171556 0.149147 0.913289
vn 1.677171 -2.563336 3.262384
v 0.172056 0.148745 0.913289
vn -1.850351 0.110471 5.521980
v 0.056781 0.246342 0.914858
vn -3.333331 0.372195 4.130972
v -0.074500 0.078129 0.824084
vn -3.430046 0.288341 3.432951
v -0.076711 0.075297 0.822556
vn 3.185396 -1.776629 2.845619
v 0.172212 0.148919 0.913289
vn 0.663962 -0.880958 6.172659
v 0.170465 0.158401 0.914857
vn 0.068407 -0.748951 6.158736
v 0.170463 0.158410 0.914858
vn -0.650797 -0.838720 6.169789
v 0.158841 0.166683 0.914859
vn -0.615609 -0.556331 6.148221
v 0.056793 0.246337 0.914859
vn -0.579059 -0.775184 6.180616
v 0.161418 0.164704 0.914858
vn -1.696855 -2.185069 5.632122
v 0.025339 -0.004343 0.822556
vn -1.697131 -2.369965 5.541571
v 0.027903 -0.006313 0.822556
vn 1.220431 -3.276104 3.403952
v 0.036966 -0.012619 0.822556
vn 0.496421 -3.488173 1.556342
v 0.036485 -0.013245 0.822054
vn 5.399317 -2.302764 0.924636
v 0.172302 0.149019 0.913022
vn 5.952486 -0.203198 1.932761
v 0.173291 0.162041 0.913907
vn 1.934076 -0.798569 5.830270
v 0.172922 0.161548 0.914857
vn 3.052617 -0.301930 4.098246
v 0.172923 0.161562 0.914858
vn 5.409955 -2.316663 0.885353
v 0.172427 0.149158 0.912621
vn 4.800510 -0.872273 -0.183875
v 0.206210 0.186724 0.804500
vn 5.841234 1.213772 0.807020
v 0.204725 0.202290 0.793795
vn 4.765773 2.652812 2.607055
v 0.173286 0.162057 0.913915
vn 5.118207 0.647171 -0.439490
v 0.204723 0.202307 0.793783
vn 4.983642 -1.621610 -3.425754
v 0.204238 0.201675 0.793277
vn 5.723582 0.864269 2.233709
v 0.173290 0.162050 0.913911
vn 0.733738 -4.325748 -1.403176
v 0.067913 0.027024 0.701912
vn 0.764553 -4.204607 -1.635887
v 0.067915 0.027026 0.701907
vn 4.905217 -3.813127 -0.900701
v 0.070743 0.030657 0.700965
vn 2.549422 -1.139562 -3.433130
v 0.070745 0.030660 0.700964
vn 0.898611 -2.433487 -2.549129
v 0.068280 0.027501 0.700964
vn 3.530424 4.715793 2.103925
v 0.114043 0.269564 0.804476
vn 3.631128 4.513687 2.432859
v 0.114543 0.269162 0.804476
vn 3.740182 2.085824 -1.117025
v 0.204716 0.202328 0.793767
vn 3.288449 4.839887 2.280189
v 0.091759 0.289619 0.794118
vn 3.113101 4.633205 2.836723
v 0.059623 0.249970 0.913912
vn 3.495093 4.841365 1.944659
v 0.100185 0.283857 0.793856
vn 3.552878 4.853652 1.792676
v 0.100163 0.283882 0.793832
vn 3.720241 4.802680 1.603059
v 0.102752 0.281892 0.793832
vn 3.356649 4.546458 2.724211
v 0.068679 0.243669 0.913912
vn 3.454870 4.449275 2.769396
v 0.071250 0.241694 0.913911
vn 3.738978 4.010583 2.940300
v 0.173282 0.162060 0.913917
vn 3.676971 4.462566 2.457625
v 0.175992 0.165532 0.903558
vn -3.130667 -4.943032 -2.050813
v 0.031319 -0.007753 0.814938
vn -2.885414 -5.206958 -1.780025
v 0.036463 -0.013228 0.822023
vn -3.599457 -4.963872 -1.358976
v 0.027442 -0.006952 0.822035
vn -3.644457 -4.995251 -0.960053
v 0.027434 -0.006948 0.822044
vn -3.773697 -4.865226 -1.207744
v 0.024857 -0.004968 0.822044
vn -3.130549 -1.131141 1.159782
v -0.077190 0.074673 0.822056
vn -4.184029 -0.432818 -0.745165
v -0.077190 0.074674 0.822055
vn -4.825141 -1.654589 -1.816779
v -0.048470 0.111474 0.712263
vn -3.386544 -4.372667 -2.939693
v 0.056287 0.035302 0.701907
vn -3.263073 -4.459095 -2.935685
v 0.058852 0.033332 0.701907
vn -4.102245 -0.406451 -1.495632
v -0.045760 0.114946 0.701904
vn 3.286308 4.848265 2.263635
v 0.091661 0.289708 0.794070
vn 3.283596 4.856854 2.247292
v 0.091570 0.289790 0.794026
vn 3.280552 4.867717 2.225239
v 0.091486 0.289865 0.793985
vn 3.276716 4.880257 2.199702
v 0.091410 0.289934 0.793947
vn 3.272386 4.894068 2.170713
v 0.091340 0.289996 0.793913
vn 3.266956 4.911727 2.131433
v 0.091278 0.290051 0.793883
vn 3.577787 4.886884 1.642650
v 0.100144 0.283903 0.793813
vn 3.259243 4.933670 2.081380
v 0.091223 0.290099 0.793856
vn 3.248823 4.961177 2.014370
v 0.091175 0.290141 0.793832
vn 2.029390 5.070899 2.704514
v 0.059611 0.249976 0.913915
vn 3.609829 4.932480 1.408177
v 0.100129 0.283919 0.793796
vn 3.233539 4.996057 1.922250
v 0.091134 0.290176 0.793813
vn 3.735497 4.822285 1.501013
v 0.102730 0.281916 0.793812
vn 3.206143 5.046252 1.767187
v 0.091100 0.290204 0.793796
vn 3.651197 4.991619 1.006024
v 0.100118 0.283931 0.793783
vn 3.766559 4.862661 1.269475
v 0.102711 0.281935 0.793795
vn -2.696903 -5.302358 -1.562976
v 0.036471 -0.013236 0.822035
vn 3.148485 5.113541 1.502723
v 0.091073 0.290225 0.793783
vn 3.806254 4.914154 0.863288
v 0.102694 0.281951 0.793783
vn 3.171106 3.165695 -2.175196
v 0.204711 0.202332 0.793765
vn -2.241694 -5.420762 -1.130940
v 0.036478 -0.013242 0.822044
vn -0.172255 -0.220999 6.270665
v 0.158833 0.166693 0.914859
vn -0.188402 -0.241381 6.268227
v 0.062292 0.242045 0.914859
vn -0.160995 -0.212314 6.272859
v 0.161404 0.164718 0.914858
vn -0.019964 -0.157880 6.277291
v 0.170460 0.158417 0.914858
vn 2.906980 0.306267 4.174575
v 0.172923 0.161573 0.914858
vn 3.675915 5.033245 0.164750
v 0.100109 0.283938 0.793774
vn 2.961518 5.176733 0.898814
v 0.091054 0.290239 0.793774
vn 3.828636 4.943251 0.030276
v 0.102680 0.281963 0.793773
vn 4.712527 -1.077270 -3.914291
v 0.204237 0.201690 0.793269
vn 4.635587 1.236208 -0.649197
v 0.204720 0.202319 0.793773
vn -3.812973 -4.919104 -0.055427
v 0.024856 -0.004969 0.822051
vn -3.641439 -4.989732 0.302573
v 0.027427 -0.006944 0.822050
vn 0.645703 -5.559308 -1.694533
v 0.065206 0.023556 0.712258
vn -0.875725 -5.148479 -0.119635
v 0.036483 -0.013245 0.822050
vn 1.281663 2.050206 5.060419
v 0.059257 0.249493 0.914859
vn 0.302763 2.641485 4.329804
v 0.059247 0.249501 0.914858
vn 1.333930 1.754717 5.380011
v 0.068312 0.243192 0.914859
vn -0.006665 -0.010082 6.283161
v 0.167889 0.160392 0.914859
vn 0.046311 0.059334 6.282284
v 0.164853 0.167841 0.914859
vn 0.046404 0.058982 6.282284
v 0.170352 0.163548 0.914859
vn 2.734413 3.799970 4.065182
v 0.068310 0.243195 0.914858
vn 1.440205 1.846374 5.316284
v 0.070883 0.241217 0.914858
vn 2.948061 3.818852 3.951457
v 0.070875 0.241225 0.914857
vn 0.379060 0.485654 6.235380
v 0.167424 0.165865 0.914858
vn 2.950386 1.575766 4.235006
v 0.172922 0.161582 0.914857
vn 2.497838 3.200482 4.794864
v 0.167418 0.165877 0.914857
vn 3.210814 3.473622 3.936830
v 0.172919 0.161587 0.914855
vn 3.263156 4.516109 -2.126324
v 0.100105 0.283941 0.793768
vn 1.663215 5.533720 2.289917
v 0.062320 0.253447 0.903560
vn 1.804025 4.662034 -0.670994
v 0.091041 0.290247 0.793768
vn 3.408086 4.403959 -2.221235
v 0.102669 0.281971 0.793767
vn 3.193059 4.422668 3.091594
v 0.068675 0.243670 0.913915
vn 3.321624 4.303212 3.138517
v 0.071239 0.241700 0.913915
vn 4.430023 3.710015 2.402421
v 0.175995 0.165527 0.903560
vn -3.076599 -3.970507 2.883418
v 0.024857 -0.004969 0.822055
vn -2.842600 -3.853502 3.103566
v 0.027422 -0.006939 0.822054
vn 1.379941 2.000842 -5.793839
v -0.042924 0.118577 0.700965
vn -1.517798 2.269473 -4.042851
v -0.042930 0.118579 0.700964
vn -1.486012 3.062345 -2.890314
v 0.090557 0.289624 0.793266
vn 0.742577 1.017197 -6.024927
v -0.033867 0.112273 0.700964
vn 1.722529 2.356226 -5.536014
v 0.099624 0.283316 0.793266
vn 3.736969 0.234819 -4.757794
v 0.204235 0.201701 0.793265
vn 3.450079 0.048186 -5.078902
v 0.202025 0.198870 0.791737
vn -1.896385 3.515938 2.389120
v 0.059244 0.249503 0.914856
vn -3.766215 1.952561 2.843583
v 0.056777 0.246343 0.914856
vn -5.045501 3.200501 1.294052
v -0.076709 0.075300 0.822556
vn -4.967525 3.847232 0.003644
v -0.076344 0.075775 0.821614
vn -5.010122 3.791006 -0.034500
v -0.076825 0.075149 0.821112
vn -4.954709 3.863770 0.016392
v 0.057140 0.246816 0.913917
vn -1.842175 -2.360471 5.507468
v -0.071205 0.071000 0.822556
vn -1.952427 -2.529171 5.406108
v 0.025340 -0.004346 0.822556
vn -1.892888 -2.534455 5.421238
v 0.027898 -0.006310 0.822555
vn -2.095155 -2.809704 5.209996
v 0.027418 -0.006934 0.822055
vn -4.953284 3.865669 0.000002
v 0.059850 0.250288 0.903558
vn -4.953270 3.865687 -0.000027
v 0.088570 0.287088 0.793765
vn -4.953274 3.865681 -0.000047
v 0.086359 0.284256 0.792237
vn -4.959417 3.857400 -0.034975
v -0.044918 0.116042 0.701465
vn -2.074190 4.853770 1.084327
v 0.062316 0.253448 0.903558
vn -1.722059 4.593008 1.477969
v 0.059607 0.249976 0.913917
vn 2.442387 3.346395 -4.593185
v 0.100103 0.283940 0.793765
vn -0.581446 3.415980 -1.322623
v 0.091036 0.290248 0.793765
vn 2.535978 3.288505 -4.592598
v 0.102660 0.281975 0.793765
vn 2.593307 3.322939 -4.512982
v 0.199205 0.206629 0.793765
vn -3.215186 0.062596 -2.295024
v -0.045398 0.115418 0.700966
vn -1.672339 -2.159071 -4.819431
v 0.056652 0.035777 0.700964
vn -2.201346 -2.851116 5.139699
v 0.024861 -0.004970 0.822056
vn -2.338267 -2.996138 4.973671
v -0.071684 0.070376 0.822056
vn -1.577721 -2.157849 -4.791353
v 0.059216 0.033807 0.700964
vn -2.393051 0.917337 -4.205604
v -0.045396 0.115420 0.700964
vn -0.877532 -1.124387 -5.977065
v -0.039892 0.111125 0.700964
vn -0.046588 -0.059221 -6.282277
v -0.042831 0.113450 0.700964
vn -4.568238 3.795396 -1.443991
v -0.042931 0.118578 0.700966
vn -0.046489 -0.059567 -6.282276
v -0.037327 0.109155 0.700964
vn 0.006681 0.010106 -6.283161
v -0.040366 0.116609 0.700964
vn -0.264163 -0.153372 0.666269
v 0.088346 0.286792 0.791737
vn 0.754487 0.974876 -6.031222
v -0.031302 0.110303 0.700964
vn 0.378029 2.676318 -5.506158
v 0.097413 0.280484 0.791737
vn 1.505429 1.945159 -5.781726
v 0.099971 0.278519 0.791737
vn 0.756644 0.969490 -6.032472
v 0.065241 0.034955 0.700964
vn 1.513277 1.939040 -5.781741
v 0.196516 0.203173 0.791737
vn 2.079612 1.452460 -5.699091
v 0.202022 0.198876 0.791737
vn 2.477319 1.740026 -5.354528
v 0.204232 0.201709 0.793265
vn -4.921833 3.902070 -0.112981
v 0.088826 0.287416 0.792237
vn -4.923389 3.900073 -0.113719
v -0.042452 0.119202 0.701465
vn 1.783847 2.304664 -5.542023
v 0.102181 0.281352 0.793265
vn 1.792647 2.297012 -5.543052
v 0.198726 0.206006 0.793265
# 161 vertices, 0 vertices normals

f 1//1 2//2 3//3
f 1//1 3//3 4//4
f 1//1 4//4 5//5
f 1//1 5//5 2//2
f 2//2 6//6 7//7
f 2//2 7//7 8//8
f 2//2 9//9 10//10
f 2//2 11//11 9//9
f 2//2 8//8 11//11
f 2//2 10//10 3//3
f 2//2 12//12 13//13
f 2//2 13//13 14//14
f 2//2 14//14 15//15
f 2//2 15//15 6//6
f 2//2 5//5 12//12
f 6//6 16//16 17//17
f 6//6 18//18 7//7
f 6//6 19//19 18//18
f 6//6 17//17 19//19
f 6//6 15//15 16//16
f 20//20 21//21 17//17
f 20//20 16//16 15//15
f 20//20 17//17 16//16
f 20//20 15//15 21//21
f 21//21 22//22 23//23
f 21//21 24//24 22//22
f 21//21 25//25 24//24
f 21//21 26//26 17//17
f 21//21 27//27 28//28
f 21//21 29//29 30//30
f 21//21 23//23 26//26
f 21//21 28//28 31//31
f 21//21 15//15 27//27
f 21//21 31//31 29//29
f 21//21 30//30 25//25
f 32//32 33//33 34//34
f 32//32 35//35 36//36
f 32//32 37//37 35//35
f 32//32 38//38 37//37
f 32//32 39//39 38//38
f 32//32 36//36 40//40
f 32//32 40//40 41//41
f 32//32 41//41 42//42
f 32//32 34//34 39//39
f 32//32 42//42 33//33
f 33//33 43//43 34//34
f 33//33 42//42 43//43
f 44//44 45//45 46//46
f 44//44 46//46 47//47
f 44//44 48//48 49//49
f 44//44 47//47 48//48
f 44//44 27//27 45//45
f 44//44 50//50 51//51
f 44//44 52//52 53//53
f 44//44 53//53 27//27
f 44//44 54//54 52//52
f 44//44 49//49 50//50
f 44//44 51//51 54//54
f 35//35 55//55 36//36
f 35//35 37//37 55//55
f 55//55 56//56 36//36
f 55//55 37//37 56//56
f 56//56 57//57 36//36
f 56//56 37//37 57//57
f 57//57 58//58 36//36
f 57//57 37//37 38//38
f 57//57 38//38 58//58
f 58//58 59//59 36//36
f 58//58 38//38 59//59
f 59//59 60//60 36//36
f 59//59 38//38 61//61
f 59//59 61//61 60//60
f 60//60 62//62 36//36
f 60//60 61//61 62//62
f 62//62 63//63 64//64
f 62//62 61//61 65//65
f 62//62 65//65 63//63
f 62//62 64//64 36//36
f 63//63 66//66 64//64
f 63//63 65//65 66//66
f 38//38 39//39 67//67
f 38//38 67//67 61//61
f 39//39 34//34 67//67
f 66//66 68//68 64//64
f 66//66 65//65 69//69
f 66//66 69//69 68//68
f 61//61 67//67 70//70
f 61//61 70//70 65//65
f 67//67 34//34 70//70
f 45//45 71//71 47//47
f 45//45 47//47 46//46
f 45//45 27//27 71//71
f 7//7 18//18 8//8
f 18//18 19//19 8//8
f 68//68 72//72 64//64
f 68//68 69//69 72//72
f 65//65 70//70 73//73
f 65//65 73//73 69//69
f 70//70 34//34 74//74
f 70//70 74//74 73//73
f 22//22 24//24 23//23
f 71//71 75//75 47//47
f 71//71 27//27 75//75
f 9//9 11//11 76//76
f 9//9 77//77 10//10
f 9//9 76//76 77//77
f 11//11 8//8 78//78
f 11//11 78//78 76//76
f 8//8 19//19 79//79
f 8//8 79//79 78//78
f 19//19 17//17 80//80
f 19//19 80//80 79//79
f 72//72 69//69 81//81
f 72//72 82//82 64//64
f 72//72 81//81 82//82
f 69//69 73//73 83//83
f 69//69 83//83 81//81
f 73//73 74//74 83//83
f 24//24 25//25 84//84
f 24//24 85//85 23//23
f 24//24 84//84 85//85
f 17//17 26//26 80//80
f 48//48 47//47 86//86
f 48//48 86//86 49//49
f 47//47 75//75 87//87
f 47//47 87//87 86//86
f 75//75 27//27 88//88
f 75//75 89//89 87//87
f 75//75 88//88 89//89
f 25//25 30//30 84//84
f 10//10 77//77 90//90
f 10//10 90//90 91//91
f 10//10 91//91 3//3
f 77//77 76//76 92//92
f 77//77 92//92 90//90
f 76//76 93//93 94//94
f 76//76 94//94 92//92
f 76//76 78//78 93//93
f 93//93 95//95 94//94
f 93//93 78//78 79//79
f 93//93 79//79 95//95
f 90//90 92//92 96//96
f 90//90 96//96 91//91
f 92//92 94//94 97//97
f 92//92 97//97 98//98
f 92//92 98//98 96//96
f 94//94 95//95 99//99
f 94//94 99//99 97//97
f 95//95 79//79 80//80
f 95//95 80//80 99//99
f 97//97 99//99 100//100
f 97//97 101//101 102//102
f 97//97 100//100 101//101
f 97//97 102//102 98//98
f 99//99 80//80 100//100
f 80//80 26//26 100//100
f 82//82 81//81 103//103
f 82//82 104//104 64//64
f 82//82 105//105 104//104
f 82//82 103//103 105//105
f 81//81 83//83 106//106
f 81//81 106//106 103//103
f 36//36 64//64 107//107
f 36//36 107//107 40//40
f 40//40 107//107 108//108
f 40//40 108//108 41//41
f 83//83 74//74 106//106
f 41//41 108//108 42//42
f 85//85 84//84 34//34
f 85//85 109//109 23//23
f 85//85 34//34 109//109
f 26//26 23//23 100//100
f 86//86 87//87 110//110
f 86//86 110//110 49//49
f 27//27 53//53 28//28
f 27//27 15//15 88//88
f 87//87 89//89 111//111
f 87//87 111//111 110//110
f 89//89 88//88 15//15
f 89//89 15//15 111//111
f 112//112 113//113 114//114
f 112//112 115//115 113//113
f 112//112 114//114 116//116
f 112//112 116//116 115//115
f 84//84 117//117 34//34
f 84//84 118//118 117//117
f 84//84 30//30 118//118
f 29//29 31//31 30//30
f 3//3 91//91 119//119
f 3//3 120//120 4//4
f 3//3 119//119 120//120
f 121//121 122//122 123//123
f 121//121 50//50 49//49
f 121//121 123//123 50//50
f 121//121 120//120 124//124
f 121//121 4//4 120//120
f 121//121 5//5 4//4
f 121//121 124//124 122//122
f 121//121 49//49 5//5
f 12//12 5//5 125//125
f 12//12 125//125 126//126
f 12//12 126//126 13//13
f 91//91 96//96 64//64
f 91//91 64//64 119//119
f 96//96 98//98 107//107
f 96//96 107//107 64//64
f 13//13 126//126 127//127
f 13//13 127//127 128//128
f 13//13 128//128 14//14
f 14//14 128//128 15//15
f 98//98 108//108 107//107
f 98//98 102//102 108//108
f 101//101 100//100 102//102
f 100//100 23//23 102//102
f 122//122 129//129 130//130
f 122//122 130//130 131//131
f 122//122 124//124 129//129
f 122//122 131//131 132//132
f 122//122 132//132 123//123
f 104//104 105//105 133//133
f 104//104 133//133 134//134
f 104//104 134//134 64//64
f 105//105 103//103 135//135
f 105//105 136//136 133//133
f 105//105 135//135 136//136
f 103//103 106//106 137//137
f 103//103 137//137 135//135
f 64//64 134//134 119//119
f 106//106 138//138 137//137
f 106//106 74//74 138//138
f 108//108 102//102 42//42
f 109//109 34//34 42//42
f 109//109 42//42 23//23
f 34//34 117//117 74//74
f 34//34 43//43 42//42
f 23//23 42//42 102//102
f 50//50 123//123 139//139
f 50//50 54//54 51//51
f 50//50 139//139 54//54
f 52//52 140//140 53//53
f 52//52 54//54 139//139
f 52//52 139//139 140//140
f 110//110 111//111 141//141
f 110//110 142//142 49//49
f 110//110 141//141 142//142
f 53//53 140//140 143//143
f 53//53 143//143 31//31
f 53//53 31//31 28//28
f 111//111 15//15 128//128
f 111//111 128//128 141//141
f 144//144 145//145 139//139
f 144//144 113//113 146//146
f 144//144 146//146 145//145
f 144//144 139//139 147//147
f 144//144 147//147 113//113
f 123//123 132//132 139//139
f 145//145 140//140 139//139
f 145//145 146//146 148//148
f 145//145 148//148 140//140
f 140//140 148//148 143//143
f 113//113 115//115 149//149
f 113//113 149//149 146//146
f 113//113 150//150 114//114
f 113//113 147//147 150//150
f 115//115 151//151 149//149
f 115//115 116//116 152//152
f 115//115 152//152 153//153
f 115//115 153//153 151//151
f 146//146 149//149 148//148
f 148//148 149//149 151//151
f 148//148 151//151 143//143
f 143//143 151//151 154//154
f 143//143 154//154 31//31
f 31//31 154//154 30//30
f 151//151 153//153 155//155
f 151//151 155//155 156//156
f 151//151 156//156 154//154
f 154//154 156//156 30//30
f 117//117 118//118 157//157
f 117//117 157//157 74//74
f 118//118 30//30 156//156
f 118//118 156//156 157//157
f 120//120 119//119 124//124
f 5//5 49//49 125//125
f 125//125 49//49 142//142
f 125//125 142//142 126//126
f 126//126 142//142 141//141
f 126//126 141//141 128//128
f 126//126 128//128 127//127
f 119//119 134//134 124//124
f 129//129 124//124 133//133
f 129//129 133//133 130//130
f 130//130 133//133 136//136
f 130//130 136//136 158//158
f 130//130 158//158 131//131
f 124//124 134//134 133//133
f 131//131 158//158 159//159
f 131//131 159//159 132//132
f 132//132 159//159 147//147
f 132//132 147//147 139//139
f 136//136 135//135 116//116
f 136//136 114//114 158//158
f 136//136 116//116 114//114
f 135//135 137//137 160//160
f 135//135 160//160 116//116
f 158//158 114//114 150//150
f 158//158 150//150 159//159
f 159//159 150//150 147//147
f 137//137 138//138 160//160
f 138//138 74//74 161//161
f 138//138 161//161 160//160
f 74//74 157//157 161//161
f 116//116 160//160 153//153
f 116//116 153//153 152//152
f 160//160 161//161 155//155
f 160//160 155//155 153//153
f 161//161 157//157 155//155
f 155//155 157//157 156//156
# 318 faces, 0 coords texture

# End of File
