####
#
# OBJ File Generated by Meshlab
#
####
# Object matlab_mesh_step3_link4.obj
#
# Vertices: 201
# Faces: 398
#
####
vn -3.879373 -4.737261 0.201954
v 0.240099 0.112836 1.014234
vn -3.370135 -5.188163 1.071626
v 0.240338 0.112749 1.014564
vn -3.322720 -4.963037 1.827213
v 0.285357 0.103994 1.108731
vn -3.766766 -4.890343 -0.068360
v 0.240333 0.112659 1.014017
vn -1.471925 -5.369056 1.969077
v 0.375492 0.034708 1.037490
vn -4.154067 -4.538393 0.156998
v 0.215249 0.135498 1.021090
vn -4.332088 -4.428490 -1.048735
v 0.295609 0.072990 0.953093
vn -4.320304 -4.442900 -1.035799
v 0.299445 0.070006 0.949847
vn -3.508329 -4.658335 2.068470
v 0.274486 0.112675 1.112169
vn -3.244621 -5.193627 1.327980
v 0.300107 0.090919 1.096826
vn -2.411877 -5.275683 2.024766
v 0.300460 0.090707 1.096826
vn -1.547821 -4.735793 3.038797
v 0.291285 0.100209 1.108731
vn -3.616332 -4.912730 -0.412110
v 0.318855 0.053196 0.941185
vn -3.012139 -5.448710 0.157874
v 0.319208 0.052984 0.941185
vn -3.332711 -5.001096 -1.487343
v 0.318983 0.053133 0.941054
vn -4.457415 -3.471917 -2.252567
v 0.297884 0.076730 0.928073
vn -4.065215 -4.469612 -1.714245
v 0.308764 0.068041 0.924634
vn -3.622212 -4.330032 -2.516979
v 0.310857 0.066963 0.922585
vn -4.180096 -4.376679 -1.637098
v 0.297893 0.076722 0.928071
vn 0.398504 -4.408269 3.573369
v 0.375487 0.034721 1.037513
vn -2.721750 -5.634272 0.482444
v 0.319448 0.052897 0.941515
vn -2.520132 -5.666115 0.851412
v 0.375497 0.034702 1.037463
vn -2.519114 -5.425401 -1.068212
v 0.319337 0.052921 0.941054
vn -2.114048 -5.892855 -0.027790
v 0.319576 0.052834 0.941384
vn -2.367281 -5.733624 0.737920
v 0.379217 0.031066 1.023777
vn -1.615122 -5.942367 0.525463
v 0.379345 0.031004 1.023646
vn 1.020930 -4.894190 1.806117
v 0.377585 0.033630 1.035442
vn -2.762345 -4.968875 -2.608139
v 0.316785 0.063178 0.922585
vn -1.600376 -5.638592 -1.551081
v 0.320289 0.052681 0.940518
vn 0.335809 -5.778708 0.171627
v 0.380298 0.030764 1.023110
vn -1.002521 -6.074392 -0.883554
v 0.320529 0.052594 0.940848
vn 3.626257 -4.758528 0.758000
v 0.381790 0.031410 1.022980
vn 2.675293 -5.082085 1.574810
v 0.380998 0.031170 1.024174
vn 1.754924 -5.463184 -0.952859
v 0.381089 0.031003 1.021915
vn 3.860446 -4.615565 -0.600493
v 0.390138 0.038751 1.014309
vn 4.548246 -4.003925 1.657142
v 0.405211 0.055970 1.018606
vn 4.476575 -4.029505 1.786619
v 0.392724 0.050899 1.039671
vn 4.643828 -3.926244 1.464778
v 0.405254 0.056008 1.018581
vn 3.985423 -3.423343 2.961282
v 0.392733 0.050917 1.039691
vn 4.855483 -3.532830 0.981679
v 0.405286 0.056038 1.018558
vn -0.746012 -5.578181 -2.201392
v 0.321081 0.052920 0.939324
vn 0.290437 -5.972336 -1.795884
v 0.321321 0.052833 0.939653
vn -0.888999 -5.084863 -2.714768
v 0.329339 0.068299 0.901452
vn -0.019966 -4.521476 -3.174729
v 0.329353 0.068315 0.901419
vn 2.230044 -5.392057 -2.174801
v 0.388600 0.045452 0.992523
vn -4.539654 -3.874904 0.517272
v 0.215224 0.135522 1.021098
vn -4.500297 -4.158465 -1.306322
v 0.213669 0.142239 0.999313
vn -4.117187 -4.470762 1.557562
v 0.219015 0.134060 1.026924
vn -4.444249 -4.194800 -1.396337
v 0.294034 0.079725 0.931329
vn -2.989365 -4.790594 2.737945
v 0.280414 0.108891 1.112169
vn -0.484213 -3.807255 4.024649
v 0.291273 0.100230 1.108753
vn 1.321772 -3.821272 4.565361
v 0.375479 0.034736 1.037529
vn 2.099108 -4.389299 3.275024
v 0.377583 0.033641 1.035461
vn 3.411115 -4.327904 -2.326127
v 0.388615 0.045467 0.992504
vn 4.405897 -4.226057 -0.989724
v 0.390156 0.038771 1.014293
vn -4.098127 -4.298791 -2.041439
v 0.299986 0.075644 0.926023
vn -3.283890 -4.245155 -3.186877
v 0.323410 0.072083 0.901452
vn -3.239167 -3.934260 -3.563957
v 0.323415 0.072106 0.901419
vn -4.292915 -3.459874 -2.781604
v 0.299980 0.075650 0.926021
vn -3.972461 -3.785431 -3.052327
v 0.310843 0.066976 0.922587
vn 2.392204 -5.039576 -2.820598
v 0.333149 0.066851 0.907255
vn 2.256573 -2.375894 5.276589
v 0.306434 0.117497 1.112980
vn 2.094042 -1.738532 5.462455
v 0.306423 0.117522 1.112996
vn -0.446198 -3.237203 4.720428
v 0.291258 0.100251 1.108768
vn 2.916109 -2.471648 4.812723
v 0.390638 0.052013 1.041756
vn 3.163966 -1.767848 5.088304
v 0.390630 0.052031 1.041767
vn 5.024685 -3.495599 -0.255713
v 0.405306 0.056063 1.018536
vn 5.259123 -2.394253 1.426168
v 0.521398 0.237902 0.988635
vn 4.995994 -2.261093 2.907064
v 0.508826 0.232772 1.009803
vn 3.741199 -2.643969 3.956775
v 0.392734 0.050933 1.039704
vn -3.589130 -3.998008 2.806708
v 0.274472 0.112695 1.112187
vn -5.102304 -3.022411 1.002442
v 0.215210 0.135543 1.021102
vn -4.882659 -3.047002 -1.788792
v 0.213662 0.142247 0.999314
vn -4.743926 -3.471622 2.215708
v 0.219006 0.134079 1.026937
vn -2.625207 -4.435410 3.510653
v 0.280410 0.108904 1.112187
vn -4.282460 -3.032268 -3.373786
v 0.312552 0.080780 0.904853
vn -3.629978 -2.368474 -4.228594
v 0.312568 0.080788 0.904827
vn -2.302830 -2.427945 -4.691980
v 0.323413 0.072127 0.901399
vn 0.616130 -2.898669 -3.938266
v 0.329358 0.068332 0.901399
vn 4.840063 -3.591065 -1.720733
v 0.403765 0.062760 0.996747
vn 3.926644 -3.489196 -3.429739
v 0.333159 0.066866 0.907242
vn 4.209990 -3.475630 -3.022484
v 0.388621 0.045483 0.992493
vn 4.740000 -3.432138 -2.240856
v 0.403772 0.062777 0.996731
vn 3.320471 0.662421 4.626843
v 0.422505 0.299382 1.083107
vn 1.551643 -1.181347 5.789729
v 0.306409 0.117546 1.113006
vn 4.006797 0.304177 4.457264
v 0.502871 0.236865 1.015128
vn 4.068101 0.116805 4.356913
v 0.506726 0.233867 1.011868
vn 4.767905 -0.424289 0.922422
v 0.521411 0.237922 0.988620
vn 4.483544 -0.091571 3.547893
v 0.508824 0.232786 1.009814
vn 4.938393 -0.633081 -1.523539
v 0.519868 0.244614 0.966832
vn -2.671646 -2.130006 4.098781
v 0.274468 0.112707 1.112196
vn -5.335215 -1.606894 1.444270
v 0.201935 0.161285 1.021102
vn -5.291567 -1.776492 -1.857151
v 0.200392 0.167976 0.999314
vn -3.236582 -1.236193 4.284368
v 0.261198 0.138436 1.112196
vn -5.189508 -1.792933 2.926410
v 0.205736 0.159820 1.026944
vn -1.182922 -2.649306 5.027042
v 0.280413 0.108911 1.112196
vn -4.654805 -2.477127 -3.414911
v 0.310456 0.081860 0.906905
vn -4.677378 -2.171344 -3.574590
v 0.297199 0.107598 0.906881
vn -4.646563 -2.398606 -3.483468
v 0.310470 0.081869 0.906881
vn -4.724708 -2.414393 -3.365316
v 0.280759 0.105460 0.931335
vn -4.720151 -2.417733 -3.369281
v 0.284613 0.102462 0.928075
vn -3.931730 -1.620355 -4.376346
v 0.299298 0.106517 0.904827
vn 0.579115 -0.642501 6.030602
v 0.295564 0.126206 1.116434
vn -3.036254 -0.136158 -5.165939
v 0.299306 0.106541 0.904815
vn -1.943968 -0.747016 -5.781340
v 0.310128 0.097897 0.901395
vn -1.510193 -1.017339 -5.892770
v 0.323411 0.072148 0.901395
vn -0.101129 -1.172746 -6.123085
v 0.329360 0.068349 0.901395
vn 4.287843 0.688510 -2.616838
v 0.500916 0.228784 0.956751
vn 2.142037 -1.969974 -4.814589
v 0.445454 0.250168 0.871500
vn 4.362602 -2.735490 -3.593133
v 0.460605 0.267462 0.875738
vn 4.383566 -3.184640 -3.132575
v 0.504717 0.227319 0.962594
vn 3.863904 -3.567395 -3.408530
v 0.449255 0.248702 0.877342
vn 4.466541 -2.598230 -3.557479
v 0.516067 0.246079 0.960990
vn 1.496989 -0.852545 -5.590303
v 0.445459 0.250183 0.871497
vn 3.275064 0.174262 -3.868036
v 0.460602 0.267470 0.875729
vn 4.484364 2.968662 3.214169
v 0.421821 0.330248 1.061913
vn 3.707507 2.244933 4.257979
v 0.409234 0.325111 1.083107
vn 4.654295 2.476441 3.416051
v 0.411333 0.324030 1.081053
vn 4.665846 2.855851 3.038089
v 0.423920 0.329166 1.059859
vn 4.354530 3.892716 1.966888
v 0.423902 0.329206 1.059842
vn 4.171487 3.782941 2.609838
v 0.421802 0.330288 1.061898
vn 3.775442 3.006412 3.891191
v 0.409206 0.325147 1.083109
vn 1.931094 1.537342 5.440477
v 0.398389 0.333772 1.086535
vn 1.944074 0.746991 5.781300
v 0.411660 0.308042 1.086535
vn 2.526333 3.154966 4.222017
v 0.398384 0.333790 1.086529
vn 4.677368 2.171408 3.574562
v 0.424603 0.298300 1.081053
vn 4.720131 2.417902 3.369185
v 0.437190 0.303437 1.059859
vn 4.731665 2.697454 3.113178
v 0.427774 0.326168 1.056599
vn 4.851737 3.358276 1.483768
v 0.508127 0.263688 0.988604
vn 4.526866 3.811102 1.847024
v 0.427759 0.326206 1.056580
vn 0.240925 -1.086002 1.283589
v 0.428457 0.295302 1.077793
vn 4.724720 2.414541 3.365192
v 0.441044 0.300439 1.056599
vn 4.698814 2.270004 3.467506
v 0.504970 0.235784 1.013074
vn 4.999344 2.682590 2.535895
v 0.508141 0.263652 0.988620
vn 5.696205 1.636818 0.705044
v 0.521409 0.237938 0.988604
vn 5.568043 2.888478 0.227347
v 0.506597 0.270343 0.966832
vn 5.330044 1.820519 -1.475226
v 0.519865 0.244621 0.966829
vn 4.528163 3.542567 -0.753861
v 0.506583 0.270370 0.966829
vn 5.187377 1.569024 -2.980964
v 0.516062 0.246087 0.960982
vn -3.412795 0.520079 4.207564
v 0.261192 0.138467 1.112196
vn -5.045202 1.004110 1.729752
v 0.201929 0.161317 1.021095
vn -4.998143 0.947341 -0.691965
v 0.200385 0.168000 0.999321
vn -4.800542 1.309310 3.451261
v 0.205733 0.159851 1.026942
vn -0.504570 -0.438408 6.208041
v 0.289619 0.130002 1.116434
vn -0.840701 0.450774 6.019129
v 0.276349 0.155731 1.116434
vn -4.864258 -1.483048 -3.551117
v 0.212978 0.173113 0.978120
vn -4.576040 0.960116 -3.405624
v 0.212981 0.173141 0.978109
vn -4.599302 -1.496096 -3.983215
v 0.215077 0.172032 0.976066
vn -4.579926 -3.003286 -2.652560
v 0.216833 0.170115 0.974860
vn -3.783526 -3.883146 -0.901868
v 0.293345 0.110597 0.910141
vn -4.575626 -1.534045 -3.998673
v 0.218931 0.169034 0.972806
vn -4.018518 0.242156 -4.554301
v 0.215081 0.172059 0.976054
vn -3.837737 0.322354 -4.833830
v 0.218938 0.169059 0.972791
vn 0.500979 1.472119 5.986130
v 0.392445 0.337567 1.086535
vn 0.410269 0.333506 6.236456
v 0.282293 0.151936 1.116434
vn -0.373507 3.181031 3.294384
v 0.392434 0.337589 1.086529
vn -2.524711 1.929815 4.783572
v 0.276336 0.155754 1.116427
vn -0.579355 0.641978 -6.030796
v 0.426227 0.279732 0.871497
vn -0.410229 -0.333493 -6.236463
v 0.439509 0.253982 0.871497
vn 0.504030 0.437955 -6.208202
v 0.432176 0.275933 0.871497
vn 1.487366 2.955723 -4.319298
v 0.441371 0.297019 0.875729
vn -1.855003 1.546455 -5.467933
v 0.415405 0.288375 0.874917
vn -0.414771 1.940537 -5.959521
v 0.430551 0.305651 0.879145
vn 2.495173 2.520121 -3.494233
v 0.447320 0.293220 0.875729
vn 3.967184 4.616029 1.479327
v 0.413080 0.337849 1.063262
vn 3.560539 4.430956 2.287886
v 0.410980 0.338932 1.065318
vn 4.097007 4.679600 0.689680
v 0.422358 0.335889 1.038068
vn 4.144532 4.652306 0.621336
v 0.426215 0.332888 1.034805
vn 0.860316 3.600963 -3.269469
v 0.430549 0.305662 0.879149
vn 3.292214 5.018297 -1.646832
v 0.436498 0.301863 0.879149
vn 3.652942 5.061388 -0.336149
v 0.415393 0.341532 1.038225
vn 3.616188 4.995902 0.232172
v 0.411536 0.344532 1.041488
vn 4.353552 3.806141 -1.877440
v 0.502779 0.271837 0.960982
vn 3.494963 5.121892 -0.988883
v 0.491957 0.280480 0.964402
vn 3.703796 5.000578 -0.469548
v 0.495761 0.279014 0.970249
vn -4.768240 3.500844 1.991424
v 0.318027 0.343151 0.991197
vn -2.724186 4.455097 2.186711
v 0.333171 0.360438 0.995429
vn -4.786810 3.443453 -0.456578
v 0.316483 0.349834 0.969423
vn -2.547207 4.695945 0.540052
v 0.331627 0.367121 0.973654
vn -4.383275 3.184851 3.132918
v 0.217073 0.178604 1.025327
vn -3.139202 4.132663 3.078670
v 0.220876 0.177137 1.031174
vn -3.804907 3.004750 -3.235523
v 0.329079 0.354976 0.948211
vn -2.897714 2.363534 -4.856105
v 0.331180 0.353894 0.946156
vn -0.842200 4.305161 -1.306942
v 0.344223 0.372263 0.952443
vn -2.677803 2.152695 -5.145809
v 0.335037 0.350893 0.942893
vn 0.328712 4.190147 -2.615097
v 0.346323 0.371180 0.950387
vn 0.673254 4.128686 -3.001213
v 0.350181 0.368180 0.947125
vn -2.351615 4.588653 2.680718
v 0.388630 0.339055 1.080682
vn -3.048567 4.282235 3.057225
v 0.272532 0.157221 1.110580
vn -0.000114 5.996571 1.777102
v 0.390890 0.344272 1.064754
vn -0.268173 6.035087 1.688181
v 0.387086 0.345738 1.058907
vn 2.074690 5.309887 1.989741
v 0.405030 0.342730 1.065318
vn 3.465782 5.114106 1.048355
v 0.409436 0.345614 1.043543
vn 1.781320 5.604600 0.961177
v 0.403486 0.349413 1.043543
vn 1.343433 5.896039 0.604909
v 0.399682 0.350880 1.037696
vn 2.997375 5.468566 -0.578236
v 0.401783 0.349797 1.035641
vn 3.157431 5.359269 -0.120552
v 0.405586 0.348331 1.041488
vn 3.349506 5.245376 -0.863281
v 0.407732 0.345999 1.035641
vn 3.349297 5.245418 -0.863836
v 0.352273 0.367382 0.950387
vn 3.349437 5.245285 -0.864101
v 0.356130 0.364381 0.947125
vn 3.349807 5.245141 -0.863545
v 0.411589 0.342998 1.032378
# 201 vertices, 0 vertices normals

f 1//1 2//2 3//3
f 1//1 4//4 5//5
f 1//1 6//6 7//7
f 1//1 7//7 8//8
f 1//1 8//8 4//4
f 1//1 3//3 9//9
f 1//1 5//5 2//2
f 1//1 9//9 6//6
f 10//10 2//2 5//5
f 10//10 11//11 12//12
f 10//10 3//3 2//2
f 10//10 12//12 3//3
f 10//10 5//5 11//11
f 4//4 13//13 5//5
f 4//4 8//8 13//13
f 13//13 14//14 5//5
f 13//13 15//15 14//14
f 13//13 8//8 16//16
f 13//13 17//17 18//18
f 13//13 18//18 15//15
f 13//13 19//19 17//17
f 13//13 16//16 19//19
f 11//11 5//5 20//20
f 11//11 20//20 12//12
f 14//14 21//21 22//22
f 14//14 15//15 23//23
f 14//14 23//23 24//24
f 14//14 24//24 21//21
f 14//14 22//22 5//5
f 25//25 21//21 26//26
f 25//25 26//26 27//27
f 25//25 22//22 21//21
f 25//25 27//27 22//22
f 21//21 24//24 26//26
f 15//15 18//18 28//28
f 15//15 28//28 23//23
f 23//23 29//29 24//24
f 23//23 28//28 29//29
f 26//26 24//24 30//30
f 26//26 30//30 27//27
f 24//24 29//29 31//31
f 24//24 31//31 30//30
f 32//32 33//33 34//34
f 32//32 34//34 35//35
f 32//32 36//36 37//37
f 32//32 38//38 36//36
f 32//32 37//37 39//39
f 32//32 35//35 40//40
f 32//32 40//40 38//38
f 32//32 39//39 33//33
f 33//33 30//30 34//34
f 33//33 27//27 30//30
f 33//33 39//39 27//27
f 41//41 42//42 29//29
f 41//41 29//29 28//28
f 41//41 43//43 42//42
f 41//41 28//28 43//43
f 34//34 42//42 43//43
f 34//34 30//30 31//31
f 34//34 31//31 42//42
f 34//34 43//43 44//44
f 34//34 45//45 35//35
f 34//34 44//44 45//45
f 42//42 31//31 29//29
f 36//36 38//38 39//39
f 36//36 39//39 37//37
f 22//22 27//27 5//5
f 38//38 40//40 39//39
f 6//6 46//46 47//47
f 6//6 9//9 48//48
f 6//6 48//48 46//46
f 6//6 47//47 7//7
f 7//7 47//47 8//8
f 8//8 47//47 49//49
f 8//8 49//49 16//16
f 3//3 12//12 50//50
f 3//3 50//50 9//9
f 12//12 51//51 50//50
f 12//12 20//20 52//52
f 12//12 52//52 51//51
f 5//5 27//27 53//53
f 5//5 53//53 20//20
f 35//35 45//45 54//54
f 35//35 55//55 40//40
f 35//35 54//54 55//55
f 27//27 39//39 53//53
f 17//17 19//19 56//56
f 17//17 56//56 18//18
f 57//57 18//18 58//58
f 57//57 43//43 28//28
f 57//57 28//28 18//18
f 57//57 58//58 44//44
f 57//57 44//44 43//43
f 18//18 56//56 59//59
f 18//18 60//60 58//58
f 18//18 59//59 60//60
f 45//45 44//44 61//61
f 45//45 61//61 54//54
f 62//62 51//51 52//52
f 62//62 63//63 64//64
f 62//62 65//65 66//66
f 62//62 64//64 51//51
f 62//62 52//52 65//65
f 62//62 66//66 63//63
f 40//40 55//55 67//67
f 40//40 68//68 69//69
f 40//40 69//69 39//39
f 40//40 67//67 68//68
f 39//39 69//69 70//70
f 39//39 70//70 53//53
f 46//46 48//48 71//71
f 46//46 72//72 73//73
f 46//46 71//71 74//74
f 46//46 74//74 72//72
f 46//46 73//73 47//47
f 9//9 50//50 75//75
f 9//9 71//71 48//48
f 9//9 75//75 71//71
f 50//50 51//51 75//75
f 19//19 16//16 56//56
f 56//56 16//16 59//59
f 51//51 64//64 75//75
f 20//20 53//53 65//65
f 20//20 65//65 52//52
f 55//55 54//54 67//67
f 53//53 70//70 65//65
f 58//58 60//60 76//76
f 58//58 76//76 77//77
f 58//58 78//78 79//79
f 58//58 79//79 44//44
f 58//58 77//77 78//78
f 60//60 59//59 76//76
f 44//44 79//79 61//61
f 54//54 61//61 79//79
f 54//54 80//80 67//67
f 54//54 79//79 81//81
f 54//54 82//82 83//83
f 54//54 81//81 82//82
f 54//54 83//83 80//80
f 63//63 84//84 85//85
f 63//63 85//85 64//64
f 63//63 86//86 84//84
f 63//63 87//87 86//86
f 63//63 66//66 87//87
f 68//68 67//67 88//88
f 68//68 88//88 89//89
f 68//68 89//89 69//69
f 69//69 89//89 70//70
f 65//65 70//70 89//89
f 65//65 87//87 66//66
f 65//65 89//89 87//87
f 67//67 80//80 90//90
f 67//67 90//90 88//88
f 80//80 83//83 90//90
f 72//72 74//74 91//91
f 72//72 92//92 93//93
f 72//72 94//94 95//95
f 72//72 91//91 94//94
f 72//72 95//95 92//92
f 72//72 93//93 73//73
f 71//71 75//75 96//96
f 71//71 91//91 74//74
f 71//71 96//96 91//91
f 75//75 64//64 96//96
f 47//47 73//73 49//49
f 49//49 73//73 16//16
f 97//97 16//16 98//98
f 97//97 76//76 59//59
f 97//97 59//59 16//16
f 97//97 98//98 99//99
f 97//97 99//99 76//76
f 16//16 93//93 100//100
f 16//16 73//73 93//93
f 16//16 100//100 101//101
f 16//16 101//101 98//98
f 76//76 98//98 102//102
f 76//76 99//99 98//98
f 76//76 102//102 77//77
f 64//64 85//85 103//103
f 64//64 103//103 96//96
f 78//78 77//77 104//104
f 78//78 105//105 106//106
f 78//78 106//106 107//107
f 78//78 107//107 79//79
f 78//78 104//104 105//105
f 108//108 109//109 110//110
f 108//108 111//111 112//112
f 108//108 112//112 109//109
f 108//108 113//113 111//111
f 108//108 110//110 113//113
f 109//109 79//79 107//107
f 109//109 112//112 79//79
f 109//109 114//114 115//115
f 109//109 107//107 114//114
f 109//109 115//115 110//110
f 79//79 112//112 81//81
f 111//111 82//82 112//112
f 111//111 113//113 90//90
f 111//111 90//90 83//83
f 111//111 83//83 82//82
f 82//82 81//81 112//112
f 116//116 117//117 118//118
f 116//116 119//119 120//120
f 116//116 118//118 119//119
f 116//116 121//121 122//122
f 116//116 122//122 117//117
f 116//116 120//120 121//121
f 117//117 84//84 118//118
f 117//117 123//123 124//124
f 117//117 124//124 84//84
f 117//117 122//122 125//125
f 117//117 125//125 123//123
f 84//84 126//126 118//118
f 84//84 86//86 126//126
f 84//84 124//124 103//103
f 84//84 103//103 85//85
f 119//119 127//127 128//128
f 119//119 118//118 126//126
f 119//119 126//126 127//127
f 119//119 128//128 129//129
f 119//119 130//130 120//120
f 119//119 129//129 130//130
f 127//127 126//126 131//131
f 127//127 132//132 128//128
f 127//127 131//131 132//132
f 126//126 86//86 133//133
f 126//126 133//133 131//131
f 86//86 87//87 133//133
f 133//133 87//87 89//89
f 133//133 89//89 131//131
f 128//128 132//132 88//88
f 128//128 134//134 129//129
f 128//128 88//88 134//134
f 132//132 131//131 88//88
f 131//131 89//89 88//88
f 134//134 88//88 135//135
f 134//134 135//135 129//129
f 88//88 90//90 135//135
f 113//113 110//110 115//115
f 113//113 115//115 90//90
f 136//136 129//129 135//135
f 136//136 135//135 137//137
f 136//136 138//138 129//129
f 136//136 137//137 138//138
f 90//90 139//139 137//137
f 90//90 115//115 139//139
f 90//90 137//137 135//135
f 92//92 95//95 140//140
f 92//92 141//141 142//142
f 92//92 140//140 143//143
f 92//92 143//143 141//141
f 92//92 142//142 93//93
f 94//94 91//91 144//144
f 94//94 145//145 140//140
f 94//94 144//144 145//145
f 94//94 140//140 95//95
f 91//91 96//96 144//144
f 96//96 103//103 144//144
f 146//146 93//93 147//147
f 146//146 148//148 149//149
f 146//146 150//150 100//100
f 146//146 100//100 93//93
f 146//146 149//149 150//150
f 146//146 147//147 148//148
f 93//93 142//142 147//147
f 148//148 151//151 149//149
f 148//148 147//147 152//152
f 148//148 152//152 151//151
f 150//150 149//149 98//98
f 150//150 98//98 101//101
f 150//150 101//101 100//100
f 149//149 151//151 98//98
f 151//151 102//102 98//98
f 151//151 152//152 102//102
f 102//102 152//152 153//153
f 102//102 153//153 104//104
f 102//102 104//104 77//77
f 154//154 145//145 155//155
f 154//154 123//123 156//156
f 154//154 155//155 123//123
f 154//154 156//156 145//145
f 145//145 144//144 155//155
f 145//145 156//156 157//157
f 145//145 157//157 140//140
f 144//144 103//103 155//155
f 123//123 155//155 124//124
f 123//123 125//125 156//156
f 124//124 155//155 103//103
f 158//158 159//159 105//105
f 158//158 105//105 104//104
f 158//158 160//160 159//159
f 158//158 161//161 160//160
f 158//158 162//162 163//163
f 158//158 104//104 162//162
f 158//158 163//163 161//161
f 159//159 106//106 105//105
f 159//159 160//160 114//114
f 159//159 114//114 106//106
f 106//106 114//114 107//107
f 160//160 161//161 164//164
f 160//160 164//164 115//115
f 160//160 115//115 114//114
f 121//121 120//120 165//165
f 121//121 166//166 122//122
f 121//121 165//165 166//166
f 122//122 166//166 125//125
f 120//120 130//130 167//167
f 120//120 167//167 165//165
f 130//130 129//129 168//168
f 130//130 168//168 167//167
f 129//129 138//138 168//168
f 161//161 169//169 170//170
f 161//161 170//170 164//164
f 161//161 163//163 169//169
f 167//167 168//168 171//171
f 167//167 172//172 165//165
f 167//167 171//171 172//172
f 173//173 139//139 115//115
f 173//173 164//164 174//174
f 173//173 115//115 164//164
f 173//173 138//138 139//139
f 173//173 174//174 175//175
f 173//173 175//175 138//138
f 139//139 138//138 137//137
f 164//164 170//170 174//174
f 168//168 138//138 175//175
f 168//168 175//175 171//171
f 176//176 141//141 177//177
f 176//176 178//178 142//142
f 176//176 142//142 141//141
f 176//176 177//177 179//179
f 176//176 179//179 178//178
f 141//141 143//143 180//180
f 141//141 180//180 177//177
f 140//140 157//157 143//143
f 143//143 157//157 181//181
f 143//143 181//181 180//180
f 182//182 178//178 179//179
f 182//182 183//183 152//152
f 182//182 147//147 142//142
f 182//182 142//142 178//178
f 182//182 152//152 147//147
f 182//182 184//184 183//183
f 182//182 179//179 184//184
f 183//183 185//185 152//152
f 183//183 184//184 186//186
f 183//183 186//186 187//187
f 183//183 187//187 185//185
f 152//152 185//185 153//153
f 185//185 162//162 104//104
f 185//185 104//104 153//153
f 185//185 187//187 169//169
f 185//185 169//169 162//162
f 162//162 169//169 163//163
f 188//188 189//189 157//157
f 188//188 177//177 189//189
f 188//188 156//156 190//190
f 188//188 157//157 156//156
f 188//188 191//191 177//177
f 188//188 190//190 191//191
f 189//189 177//177 180//180
f 189//189 180//180 181//181
f 189//189 181//181 157//157
f 177//177 191//191 179//179
f 192//192 156//156 125//125
f 192//192 166//166 193//193
f 192//192 125//125 166//166
f 192//192 194//194 190//190
f 192//192 190//190 156//156
f 192//192 193//193 194//194
f 166//166 165//165 193//193
f 165//165 172//172 193//193
f 195//195 191//191 194//194
f 195//195 196//196 184//184
f 195//195 184//184 179//179
f 195//195 179//179 191//191
f 195//195 194//194 197//197
f 195//195 197//197 196//196
f 191//191 190//190 194//194
f 196//196 186//186 184//184
f 196//196 197//197 198//198
f 196//196 198//198 199//199
f 196//196 199//199 186//186
f 186//186 199//199 187//187
f 194//194 193//193 197//197
f 197//197 193//193 172//172
f 197//197 172//172 198//198
f 187//187 199//199 200//200
f 187//187 200//200 169//169
f 169//169 200//200 170//170
f 198//198 172//172 171//171
f 198//198 201//201 199//199
f 198//198 171//171 201//201
f 199//199 201//201 200//200
f 201//201 174//174 200//200
f 201//201 171//171 175//175
f 201//201 175//175 174//174
f 174//174 170//170 200//200
# 398 faces, 0 coords texture

# End of File
