####
#
# OBJ File Generated by Meshlab
#
####
# Object matlab_mesh_step18_link2.obj
#
# Vertices: 169
# Faces: 334
#
####
vn -0.736513 -1.590506 6.033746
v 0.135956 0.206521 0.897105
vn 2.380593 -1.867869 3.409108
v 0.136547 0.206247 0.897105
vn -0.479789 -0.662239 6.149593
v -0.000596 0.273729 0.898147
vn -3.008810 -0.142186 4.589419
v -0.090321 0.070066 0.833022
vn -3.227036 -0.183576 3.725134
v -0.091832 0.066637 0.831926
vn 3.251938 -0.624381 2.735803
v 0.136656 0.206454 0.897105
vn 0.107736 -0.409794 6.239327
v 0.131109 0.216400 0.898146
vn -0.201106 -0.458084 6.243095
v 0.118147 0.221416 0.898147
vn -0.193915 -0.465659 6.246656
v 0.120665 0.220342 0.898146
vn 1.441087 -3.073709 1.915649
v 0.039540 0.008534 0.831536
vn -0.733276 -1.683112 6.008691
v 0.026908 0.014338 0.831926
vn -0.724497 -1.855342 5.954445
v 0.029411 0.013271 0.831925
vn 2.026387 -2.535252 3.942833
v 0.039877 0.009322 0.831925
vn -0.883560 -2.005954 5.872502
v -0.085165 0.063701 0.831926
vn 5.764586 -0.587079 0.755451
v 0.136702 0.206541 0.896829
vn 5.905999 1.592265 1.434534
v 0.132894 0.220439 0.897199
vn 5.737189 1.941464 1.592212
v 0.132889 0.220453 0.897204
vn 0.583596 -0.325454 6.247015
v 0.131116 0.216391 0.898145
vn 1.695705 0.046975 5.935926
v 0.132726 0.220044 0.898145
vn 2.903584 0.855414 3.930679
v 0.132722 0.220059 0.898146
vn 5.776615 -0.599086 0.721099
v 0.136768 0.206664 0.896408
vn 4.734144 0.331436 -0.579589
v 0.154347 0.239786 0.783110
vn 5.326687 2.624826 0.000718
v 0.147674 0.253976 0.771931
vn 4.021027 4.138566 1.978220
v 0.132878 0.220469 0.897212
vn 4.843959 -0.539016 -3.931422
v 0.147327 0.253196 0.771525
vn 4.662669 1.902247 -1.030644
v 0.147666 0.253991 0.771917
vn 1.692349 -4.144706 -1.086773
v 0.054313 0.042072 0.706231
vn 1.749743 -4.076318 -1.289835
v 0.054314 0.042073 0.706226
vn 5.252096 2.831152 1.756291
v 0.132884 0.220463 0.897209
vn 1.295780 -2.195067 -2.361417
v 0.054480 0.042463 0.705293
vn 2.765636 -0.720415 -3.548189
v 0.056095 0.046130 0.705293
vn 2.344455 5.632296 1.347313
v 0.044851 0.297857 0.783085
vn 1.989537 5.701228 1.736517
v 0.017106 0.310802 0.772379
vn 1.963138 5.544508 2.148372
v 0.001185 0.277785 0.897210
vn 2.073698 5.723878 1.533631
v 0.016966 0.310868 0.772321
vn 2.260259 5.744149 1.159467
v 0.026517 0.307326 0.771994
vn 2.311568 5.750720 0.992998
v 0.026488 0.307343 0.771970
vn 2.480560 5.720284 0.772036
v 0.029024 0.306261 0.771969
vn 2.219368 5.451156 2.153872
v 0.011642 0.273839 0.897210
vn 2.340886 5.377083 2.216983
v 0.014152 0.272768 0.897209
vn 2.783855 5.115451 2.212499
v 0.132873 0.220472 0.897214
vn 2.961858 2.838573 -1.634036
v 0.147652 0.254009 0.771902
vn 2.667466 5.406962 1.761666
v 0.134146 0.223364 0.886410
vn -1.775212 -5.760449 -1.270695
v 0.033151 0.011429 0.824106
vn -1.443091 -5.938523 -0.976713
v 0.039515 0.008540 0.831504
vn -2.233557 -5.859827 -0.388594
v 0.029098 0.012472 0.831516
vn -2.320448 -5.816038 -0.062219
v 0.029089 0.012475 0.831526
vn -2.500322 -5.748212 -0.299820
v 0.026571 0.013549 0.831527
vn -2.575538 -1.734245 1.341612
v -0.092167 0.065852 0.831538
vn -2.126610 -5.613539 -1.855686
v 0.043856 0.046018 0.706231
vn -2.332820 -5.380052 -2.214890
v 0.041346 0.047089 0.706227
vn -2.188416 -5.434364 -2.217368
v 0.043848 0.046022 0.706226
vn -3.979801 -1.577139 -1.131814
v -0.077393 0.099392 0.706224
vn -4.365682 -2.591405 -1.208272
v -0.078667 0.096500 0.717028
vn 2.069548 5.728442 1.519521
v 0.016835 0.310930 0.772268
vn 2.064463 5.733746 1.503076
v 0.016713 0.310988 0.772217
vn 2.058595 5.739781 1.483824
v 0.016599 0.311041 0.772171
vn 2.051833 5.746491 1.461932
v 0.016495 0.311089 0.772128
vn 2.043898 5.754228 1.435526
v 0.016400 0.311133 0.772089
vn 2.034872 5.762873 1.404599
v 0.016313 0.311172 0.772054
vn 2.023661 5.772945 1.366521
v 0.016236 0.311207 0.772022
vn 2.320550 5.771350 0.834632
v 0.026463 0.307356 0.771949
vn 2.008839 5.785558 1.314572
v 0.016167 0.311238 0.771994
vn 1.988527 5.800758 1.246354
v 0.016108 0.311264 0.771970
vn 0.838861 5.716654 2.032249
v 0.001171 0.277788 0.897213
vn 2.328355 5.794294 0.603045
v 0.026443 0.307366 0.771932
vn 1.959634 5.819408 1.145434
v 0.016057 0.311286 0.771949
vn 2.485081 5.730554 0.662851
v 0.028994 0.306276 0.771948
vn -1.194463 -5.942498 -0.775286
v 0.039525 0.008536 0.831516
vn 1.913967 5.840343 0.998123
v 0.016016 0.311303 0.771932
vn 2.333840 5.812618 0.198275
v 0.026427 0.307374 0.771918
vn 2.492403 5.747967 0.422064
v 0.028968 0.306289 0.771931
vn 2.115276 3.572354 -2.593464
v 0.147646 0.254012 0.771899
vn -0.638141 -5.854821 -0.368669
v 0.039533 0.008533 0.831526
vn 1.827139 5.856677 0.734101
v 0.015983 0.311316 0.771918
vn 2.496048 5.756893 0.018568
v 0.028946 0.306300 0.771917
vn 4.402613 -0.148253 -4.398208
v 0.147321 0.253210 0.771517
vn 4.204579 -0.374694 -4.620270
v 0.145812 0.249785 0.770421
vn -2.458548 -5.660818 0.808761
v 0.026570 0.013549 0.831533
vn -2.266736 -5.652095 1.117638
v 0.029081 0.012478 0.831532
vn 2.416964 -5.205057 -1.108254
v 0.053041 0.039183 0.717022
vn 0.731347 -4.968407 0.512895
v 0.039538 0.008532 0.831532
vn 2.309564 5.763077 -0.623925
v 0.026417 0.307378 0.771909
vn 1.616169 5.804006 0.178778
v 0.015960 0.311324 0.771909
vn 2.465382 5.686928 -0.797001
v 0.028928 0.306307 0.771908
vn 4.059550 2.305749 -1.238173
v 0.147659 0.254002 0.771908
vn 2.677617 1.356699 3.969041
v 0.132717 0.220071 0.898146
vn 0.000000 0.000000 6.283185
v -0.000574 0.273724 0.898147
vn 0.000000 0.000000 6.283185
v 0.006076 0.270794 0.898147
vn 0.000000 0.000000 6.283185
v 0.001039 0.277384 0.898147
vn 0.847839 2.660111 4.424305
v 0.001018 0.277393 0.898147
vn 0.000000 0.000000 6.283185
v 0.011483 0.273442 0.898147
vn -0.009072 -0.025669 6.283064
v 0.128591 0.217474 0.898147
vn 0.000000 0.000000 6.283185
v 0.123553 0.224063 0.898147
vn 0.001102 -0.000442 6.283185
v 0.130203 0.221133 0.898147
vn 1.083676 2.566974 4.592514
v 0.011475 0.273447 0.898147
vn 0.039857 0.089080 6.281659
v 0.130206 0.221142 0.898147
vn 0.039513 0.089693 6.281656
v 0.123548 0.224075 0.898147
vn 2.905273 0.454307 -5.422823
v 0.145806 0.249793 0.770416
vn 3.159088 0.702040 -5.166390
v 0.147316 0.253220 0.771512
vn -1.857507 -4.282209 3.489394
v 0.026572 0.013550 0.831537
vn -1.700345 -4.180295 3.625105
v 0.029075 0.012482 0.831536
vn 1.965024 4.970107 -2.725164
v 0.026411 0.307379 0.771903
vn 0.394714 5.986866 1.648966
v 0.002445 0.280679 0.886413
vn 0.572188 4.904957 -1.180987
v 0.015945 0.311328 0.771903
vn 2.106498 4.868920 -2.847992
v 0.028914 0.306312 0.771902
vn 1.995260 5.086266 3.044384
v 0.011471 0.273449 0.898146
vn -0.210723 2.818803 3.991747
v 0.001005 0.277398 0.898146
vn 2.120330 5.373428 2.459497
v 0.011637 0.273839 0.897213
vn 2.272567 5.288954 2.515784
v 0.014140 0.272772 0.897212
vn 1.190154 2.709060 4.437863
v 0.013986 0.272376 0.898146
vn 2.387419 4.522019 3.369817
v 0.132708 0.220084 0.898143
vn 2.207003 5.133514 2.856302
v 0.013974 0.272382 0.898145
vn 3.530053 4.870838 1.719907
v 0.134152 0.223360 0.886412
vn 2.460839 2.565831 3.914843
v 0.132712 0.220079 0.898145
vn -1.661695 -0.121158 5.731098
v -0.000610 0.273731 0.898146
vn 0.292283 0.663473 6.218446
v 0.126059 0.223004 0.898146
vn 1.737461 3.944341 4.569820
v 0.126049 0.223014 0.898145
vn -2.666057 0.345614 -3.738718
v -0.077227 0.099782 0.705294
vn -0.617900 -1.402762 -5.935035
v -0.070563 0.096847 0.705294
vn -3.098850 -0.929747 -2.083520
v -0.077228 0.099780 0.705295
vn -2.312996 1.639614 -3.862989
v -0.075612 0.103449 0.705294
vn -0.040040 -0.089436 -6.281645
v -0.074724 0.098715 0.705293
vn -5.564341 2.556427 -1.058445
v -0.075613 0.103449 0.705295
vn -5.805740 2.400638 -0.035880
v -0.092001 0.066243 0.830604
vn -4.062375 -1.439723 -0.462383
v -0.092167 0.065853 0.831537
vn -5.529872 1.899860 1.557890
v -0.091830 0.066641 0.831926
vn -5.764354 2.499714 0.004988
v -0.091665 0.067031 0.830993
vn -5.756194 2.516084 -0.075255
v -0.076894 0.100565 0.705683
vn -1.179163 -2.718556 -4.429267
v 0.041512 0.047479 0.705294
vn -0.039672 -0.090064 -6.281643
v -0.068061 0.095780 0.705293
vn -1.071806 -2.668827 -4.404915
v 0.044014 0.046412 0.705293
vn -2.250465 -5.109213 -2.866713
v -0.070562 0.096844 0.705295
vn 0.342036 0.855692 -6.153197
v -0.065146 0.099501 0.705294
vn 0.009119 0.025810 -6.283063
v -0.073109 0.102382 0.705293
vn -2.528225 2.150208 -3.241942
v 0.014094 0.307113 0.770416
vn 0.656841 1.638764 -6.029936
v 0.024564 0.303163 0.770416
vn 0.351728 0.813053 -6.155696
v -0.062643 0.098433 0.705293
vn 0.700642 1.619615 -6.030276
v 0.027058 0.302100 0.770415
vn 0.355671 0.807441 -6.156745
v 0.049432 0.049066 0.705293
vn 0.711326 1.614928 -6.030294
v 0.139134 0.252734 0.770415
vn 1.335219 1.316497 -5.956397
v 0.145801 0.249798 0.770415
vn 1.637339 1.674422 -5.712506
v 0.147311 0.253227 0.771512
vn -2.314651 -5.254936 -2.550256
v -0.070727 0.096456 0.706224
vn -1.166319 -2.709042 5.532745
v 0.026576 0.013550 0.831538
vn -1.395411 -3.168000 5.139048
v -0.085500 0.062916 0.831538
vn -1.107963 -2.691895 5.554410
v 0.029070 0.012487 0.831537
vn -0.813684 -2.542863 5.683566
v 0.039540 0.008537 0.831537
vn -5.750907 2.530763 0.018842
v -0.000449 0.274119 0.897215
vn -5.750098 2.532744 0.000007
v 0.000824 0.277010 0.886411
vn -5.750094 2.532752 -0.000064
v 0.014324 0.307659 0.771900
vn -5.750099 2.532742 -0.000085
v 0.012813 0.304230 0.770804
vn -3.110170 4.299452 0.784098
v 0.002440 0.280679 0.886411
vn -2.766707 4.196312 1.110963
v 0.001166 0.277787 0.897215
vn 1.327861 3.318662 -5.016653
v 0.026410 0.307377 0.771900
vn -1.445286 2.963268 -1.606533
v 0.015940 0.311327 0.771900
vn 1.413068 3.291072 -5.015933
v 0.028903 0.306314 0.771899
vn -2.513714 2.946813 2.268107
v 0.001001 0.277399 0.898144
vn 1.516671 3.443314 -4.809855
v 0.140979 0.256948 0.771899
vn -4.049072 1.166989 2.911754
v -0.000614 0.273731 0.898144
vn -0.881008 -2.045804 5.861041
v 0.026911 0.014335 0.831926
vn -0.858282 -2.097588 5.847149
v 0.029405 0.013272 0.831925
vn -0.899861 -2.419848 5.728162
v 0.039874 0.009322 0.831925
vn -2.326907 2.283832 -3.168947
v 0.015605 0.310542 0.771513
vn 0.813761 2.029174 -5.871461
v 0.026075 0.306592 0.771513
vn -5.715137 2.589969 -0.227217
v 0.014429 0.307898 0.770804
vn 0.866860 2.002814 -5.874544
v 0.028569 0.305529 0.771512
vn -5.716302 2.587261 -0.228137
v -0.075278 0.104234 0.705683
vn 0.879237 1.996146 -5.875657
v 0.140645 0.256163 0.771512
# 169 vertices, 0 vertices normals

f 1//1 2//2 3//3
f 1//1 3//3 4//4
f 1//1 4//4 5//5
f 1//1 5//5 2//2
f 2//2 6//6 7//7
f 2//2 8//8 3//3
f 2//2 9//9 8//8
f 2//2 7//7 9//9
f 2//2 10//10 6//6
f 2//2 11//11 12//12
f 2//2 12//12 13//13
f 2//2 13//13 10//10
f 2//2 5//5 14//14
f 2//2 14//14 11//11
f 6//6 15//15 16//16
f 6//6 16//16 17//17
f 6//6 18//18 7//7
f 6//6 19//19 18//18
f 6//6 17//17 20//20
f 6//6 20//20 19//19
f 6//6 10//10 15//15
f 21//21 22//22 16//16
f 21//21 15//15 10//10
f 21//21 16//16 15//15
f 21//21 10//10 22//22
f 22//22 23//23 24//24
f 22//22 25//25 26//26
f 22//22 26//26 23//23
f 22//22 17//17 16//16
f 22//22 27//27 28//28
f 22//22 29//29 17//17
f 22//22 30//30 31//31
f 22//22 31//31 25//25
f 22//22 28//28 30//30
f 22//22 10//10 27//27
f 22//22 24//24 29//29
f 32//32 33//33 34//34
f 32//32 35//35 33//33
f 32//32 36//36 35//35
f 32//32 37//37 36//36
f 32//32 38//38 37//37
f 32//32 34//34 39//39
f 32//32 39//39 40//40
f 32//32 40//40 41//41
f 32//32 42//42 38//38
f 32//32 43//43 42//42
f 32//32 41//41 43//43
f 44//44 45//45 46//46
f 44//44 46//46 47//47
f 44//44 48//48 49//49
f 44//44 47//47 48//48
f 44//44 50//50 27//27
f 44//44 27//27 45//45
f 44//44 51//51 52//52
f 44//44 52//52 50//50
f 44//44 53//53 51//51
f 44//44 49//49 54//54
f 44//44 54//54 53//53
f 33//33 35//35 34//34
f 35//35 55//55 34//34
f 35//35 36//36 55//55
f 55//55 56//56 34//34
f 55//55 36//36 56//56
f 56//56 57//57 34//34
f 56//56 36//36 57//57
f 57//57 58//58 34//34
f 57//57 36//36 37//37
f 57//57 37//37 58//58
f 58//58 59//59 34//34
f 58//58 37//37 59//59
f 59//59 60//60 34//34
f 59//59 37//37 60//60
f 60//60 61//61 34//34
f 60//60 37//37 62//62
f 60//60 62//62 61//61
f 61//61 63//63 34//34
f 61//61 62//62 63//63
f 63//63 64//64 65//65
f 63//63 62//62 66//66
f 63//63 66//66 64//64
f 63//63 65//65 34//34
f 64//64 67//67 65//65
f 64//64 66//66 67//67
f 37//37 38//38 68//68
f 37//37 68//68 62//62
f 38//38 42//42 68//68
f 45//45 69//69 47//47
f 45//45 47//47 46//46
f 45//45 27//27 69//69
f 67//67 70//70 65//65
f 67//67 66//66 71//71
f 67//67 71//71 70//70
f 62//62 68//68 72//72
f 62//62 72//72 66//66
f 68//68 42//42 73//73
f 68//68 73//73 72//72
f 69//69 74//74 47//47
f 69//69 27//27 74//74
f 70//70 75//75 65//65
f 70//70 71//71 75//75
f 66//66 72//72 76//76
f 66//66 76//76 71//71
f 72//72 73//73 76//76
f 23//23 26//26 24//24
f 18//18 19//19 7//7
f 19//19 20//20 7//7
f 25//25 77//77 26//26
f 25//25 78//78 77//77
f 25//25 31//31 78//78
f 48//48 47//47 79//79
f 48//48 79//79 49//49
f 47//47 74//74 80//80
f 47//47 80//80 79//79
f 74//74 27//27 81//81
f 74//74 82//82 80//80
f 74//74 81//81 82//82
f 75//75 71//71 83//83
f 75//75 84//84 65//65
f 75//75 83//83 84//84
f 71//71 76//76 85//85
f 71//71 85//85 83//83
f 76//76 73//73 85//85
f 26//26 77//77 86//86
f 26//26 86//86 24//24
f 17//17 29//29 87//87
f 17//17 87//87 20//20
f 88//88 89//89 90//90
f 88//88 90//90 91//91
f 88//88 3//3 89//89
f 88//88 91//91 3//3
f 89//89 8//8 92//92
f 89//89 92//92 90//90
f 89//89 3//3 8//8
f 8//8 93//93 94//94
f 8//8 94//94 92//92
f 8//8 9//9 93//93
f 93//93 95//95 94//94
f 93//93 9//9 7//7
f 93//93 7//7 95//95
f 90//90 92//92 96//96
f 90//90 96//96 91//91
f 92//92 94//94 97//97
f 92//92 98//98 96//96
f 92//92 97//97 98//98
f 94//94 95//95 97//97
f 95//95 7//7 20//20
f 95//95 20//20 97//97
f 20//20 87//87 97//97
f 77//77 78//78 99//99
f 77//77 100//100 42//42
f 77//77 99//99 100//100
f 77//77 42//42 86//86
f 78//78 31//31 99//99
f 79//79 80//80 101//101
f 79//79 101//101 49//49
f 50//50 52//52 27//27
f 27//27 52//52 28//28
f 27//27 10//10 81//81
f 80//80 82//82 102//102
f 80//80 102//102 101//101
f 82//82 81//81 10//10
f 82//82 10//10 102//102
f 84//84 83//83 103//103
f 84//84 104//104 65//65
f 84//84 105//105 104//104
f 84//84 103//103 105//105
f 83//83 85//85 106//106
f 83//83 106//106 103//103
f 34//34 91//91 107//107
f 34//34 65//65 108//108
f 34//34 109//109 39//39
f 34//34 108//108 91//91
f 34//34 107//107 109//109
f 39//39 109//109 110//110
f 39//39 110//110 40//40
f 85//85 73//73 106//106
f 40//40 111//111 112//112
f 40//40 110//110 113//113
f 40//40 113//113 111//111
f 40//40 112//112 41//41
f 86//86 114//114 24//24
f 86//86 42//42 114//114
f 29//29 24//24 115//115
f 29//29 115//115 87//87
f 3//3 91//91 108//108
f 3//3 116//116 4//4
f 3//3 108//108 116//116
f 91//91 96//96 107//107
f 96//96 98//98 117//117
f 96//96 111//111 113//113
f 96//96 117//117 111//111
f 96//96 113//113 107//107
f 98//98 97//97 87//87
f 98//98 87//87 117//117
f 111//111 117//117 115//115
f 111//111 118//118 112//112
f 111//111 115//115 118//118
f 117//117 87//87 115//115
f 119//119 120//120 121//121
f 119//119 122//122 123//123
f 119//119 123//123 120//120
f 119//119 121//121 124//124
f 119//119 124//124 122//122
f 125//125 126//126 127//127
f 125//125 128//128 129//129
f 125//125 127//127 128//128
f 125//125 121//121 126//126
f 125//125 129//129 121//121
f 120//120 130//130 121//121
f 120//120 123//123 131//131
f 120//120 131//131 132//132
f 120//120 132//132 130//130
f 130//130 132//132 51//51
f 130//130 51//51 133//133
f 130//130 133//133 121//121
f 122//122 134//134 135//135
f 122//122 135//135 123//123
f 122//122 136//136 137//137
f 122//122 137//137 134//134
f 122//122 124//124 136//136
f 134//134 138//138 135//135
f 134//134 137//137 139//139
f 134//134 139//139 138//138
f 123//123 135//135 131//131
f 131//131 135//135 138//138
f 131//131 138//138 132//132
f 132//132 30//30 28//28
f 132//132 138//138 140//140
f 132//132 140//140 30//30
f 132//132 52//52 51//51
f 132//132 28//28 52//52
f 30//30 140//140 31//31
f 138//138 139//139 141//141
f 138//138 141//141 142//142
f 138//138 142//142 140//140
f 140//140 142//142 31//31
f 100//100 99//99 143//143
f 100//100 143//143 73//73
f 100//100 73//73 42//42
f 99//99 31//31 142//142
f 99//99 142//142 143//143
f 126//126 121//121 53//53
f 126//126 53//53 54//54
f 126//126 49//49 127//127
f 126//126 54//54 49//49
f 51//51 53//53 144//144
f 51//51 144//144 133//133
f 101//101 102//102 145//145
f 101//101 146//146 49//49
f 101//101 145//145 146//146
f 102//102 10//10 147//147
f 102//102 147//147 145//145
f 10//10 13//13 148//148
f 10//10 148//148 147//147
f 128//128 127//127 149//149
f 128//128 150//150 151//151
f 128//128 151//151 152//152
f 128//128 149//149 150//150
f 128//128 152//152 129//129
f 104//104 105//105 153//153
f 104//104 153//153 154//154
f 104//104 154//154 65//65
f 105//105 103//103 155//155
f 105//105 156//156 153//153
f 105//105 155//155 156//156
f 103//103 106//106 157//157
f 103//103 157//157 155//155
f 65//65 154//154 158//158
f 65//65 158//158 108//108
f 109//109 107//107 113//113
f 109//109 113//113 110//110
f 106//106 159//159 157//157
f 106//106 73//73 159//159
f 114//114 42//42 41//41
f 114//114 41//41 24//24
f 42//42 43//43 41//41
f 24//24 41//41 112//112
f 24//24 112//112 115//115
f 116//116 108//108 158//158
f 116//116 160//160 4//4
f 116//116 158//158 160//160
f 127//127 49//49 5//5
f 127//127 160//160 149//149
f 127//127 4//4 160//160
f 127//127 5//5 4//4
f 11//11 14//14 161//161
f 11//11 161//161 12//12
f 12//12 161//161 162//162
f 12//12 162//162 13//13
f 13//13 162//162 163//163
f 13//13 163//163 148//148
f 118//118 115//115 112//112
f 121//121 133//133 53//53
f 121//121 129//129 124//124
f 133//133 144//144 53//53
f 164//164 165//165 137//137
f 164//164 136//136 166//166
f 164//164 137//137 136//136
f 164//164 156//156 165//165
f 164//164 166//166 156//156
f 165//165 167//167 139//139
f 165//165 139//139 137//137
f 165//165 156//156 155//155
f 165//165 155//155 167//167
f 136//136 124//124 168//168
f 136//136 168//168 166//166
f 124//124 129//129 168//168
f 167//167 169//169 141//141
f 167//167 141//141 139//139
f 167//167 155//155 157//157
f 167//167 157//157 159//159
f 167//167 159//159 169//169
f 169//169 143//143 142//142
f 169//169 142//142 141//141
f 169//169 159//159 73//73
f 169//169 73//73 143//143
f 49//49 146//146 14//14
f 49//49 14//14 5//5
f 146//146 145//145 161//161
f 146//146 161//161 14//14
f 145//145 147//147 161//161
f 147//147 148//148 162//162
f 147//147 162//162 161//161
f 148//148 163//163 162//162
f 150//150 149//149 153//153
f 150//150 153//153 151//151
f 151//151 153//153 156//156
f 151//151 156//156 166//166
f 151//151 166//166 152//152
f 149//149 154//154 153//153
f 149//149 160//160 158//158
f 149//149 158//158 154//154
f 152//152 166//166 168//168
f 152//152 168//168 129//129
# 334 faces, 0 coords texture

# End of File
