####
#
# OBJ File Generated by Meshlab
#
####
# Object matlab_mesh_step2_link3.obj
#
# Vertices: 196
# Faces: 388
#
####
vn -0.696592 -5.263157 3.344156
v 0.337025 0.081438 1.102497
vn -0.252032 -5.569093 2.690968
v 0.415681 0.023864 1.028304
vn 1.092685 -5.056251 2.377703
v 0.416385 0.023972 1.028552
vn -1.868613 -2.902139 4.282134
v 0.336897 0.081531 1.102618
vn -1.280283 -5.084550 0.625687
v 0.237395 -0.028798 0.885079
vn 0.434554 -4.635345 4.058381
v 0.337729 0.081547 1.102745
vn -0.352217 -2.970928 4.723769
v 0.337601 0.081640 1.102865
vn -1.602494 -0.934398 5.823376
v 0.338054 0.086996 1.104095
vn -2.781342 -0.725945 5.483510
v 0.331818 0.108984 1.104095
vn -4.838864 -1.273023 2.126541
v 0.152065 0.054703 0.961238
vn -2.619701 -4.986837 1.304747
v 0.160453 0.031009 0.959180
vn -3.259866 -2.640000 1.790846
v 0.158315 0.032670 0.961238
vn 2.009120 -5.935844 0.363276
v 0.417328 0.024208 1.027352
vn 1.972209 -5.946176 0.391553
v 0.416663 0.024042 1.028211
vn 1.738189 -6.034844 0.180738
v 0.416791 0.024066 1.027835
vn 1.963162 -5.955900 0.161513
v 0.417456 0.024232 1.026976
vn 2.194777 -4.454806 2.625417
v 0.426974 0.027935 1.029070
vn 1.713464 -6.041858 0.183931
v 0.416514 0.023996 1.028176
vn 1.559202 -6.076260 0.201242
v 0.247233 -0.026397 0.886212
vn 0.959249 -4.246668 4.423246
v 0.350030 0.087739 1.103172
vn 1.525601 -2.618469 5.251075
v 0.347897 0.089397 1.105227
vn 2.010170 -0.351075 4.849623
v 0.347899 0.089403 1.105229
vn 3.411408 -4.538311 1.344451
v 0.441907 0.032448 1.007799
vn 3.062119 -5.214457 1.072634
v 0.431381 0.029267 1.023017
vn 2.128756 -5.903024 -0.056021
v 0.442385 0.032558 1.003411
vn 1.620884 -6.066113 -0.069802
v 0.247710 -0.026288 0.881842
vn 2.109722 -4.280900 -2.509413
v 0.262671 -0.021765 0.860527
vn 1.656937 -6.056599 -0.124493
v 0.258255 -0.023100 0.866593
vn 4.903604 1.406954 3.667751
v 0.449314 0.157915 0.952207
vn 4.913565 1.457139 3.633156
v 0.449338 0.158006 0.952140
vn 4.838375 1.471442 3.726819
v 0.438869 0.154913 0.967242
vn 4.915095 1.361440 3.669529
v 0.455532 0.136150 0.952140
vn 4.978606 1.329400 3.592595
v 0.455570 0.136174 0.952081
vn 4.856961 1.406941 3.728822
v 0.438873 0.154845 0.967264
vn 4.892633 1.370858 3.695936
v 0.445080 0.133005 0.967242
vn 4.928537 1.525943 3.580311
v 0.449359 0.158082 0.952081
vn 4.878464 1.282666 3.743325
v 0.428242 0.042177 1.022989
vn 4.972904 1.270177 3.622129
v 0.438780 0.045362 1.007753
vn 4.825638 1.400911 3.771419
v 0.421997 0.064192 1.022989
vn -4.898485 -1.404617 -3.675572
v 0.158827 0.032824 0.956782
vn -4.879831 -1.418314 -3.694752
v 0.169304 0.035975 0.941643
vn -4.932476 -1.583715 -3.542310
v 0.158815 0.032806 0.956804
vn -4.908680 -1.384254 -3.669700
v 0.152604 0.054715 0.956804
vn -4.892689 -1.371060 -3.695781
v 0.163090 0.057921 0.941631
vn 5.072499 1.340447 3.451764
v 0.455600 0.136192 0.952031
vn 4.983717 1.602212 3.459543
v 0.449375 0.158145 0.952031
vn 4.823938 1.664686 3.665626
v 0.447246 0.159800 0.954082
vn 4.826854 1.586542 3.695739
v 0.438866 0.154969 0.967224
vn 4.816691 1.667104 3.673971
v 0.370300 0.219602 1.028184
vn 4.712947 1.787606 3.742110
v 0.359785 0.216474 1.043363
vn 4.808113 1.564675 3.729905
v 0.436736 0.156624 0.969275
vn 4.780654 1.529002 3.778531
v 0.359790 0.216426 1.043377
vn 1.998681 0.724996 5.005732
v 0.338507 0.124324 1.105209
vn 4.778364 1.399822 3.831847
v 0.340643 0.122664 1.103152
vn 4.787025 1.392240 3.823684
v 0.417585 0.062858 1.029050
vn -4.878476 -1.282715 -3.743292
v 0.179949 0.148829 0.885824
vn -4.830240 -1.507907 -3.721665
v 0.169315 0.035968 0.941631
vn -4.825698 -1.401018 -3.771297
v 0.186193 0.126814 0.885824
vn -5.068932 -1.387725 -3.428753
v 0.152580 0.054746 0.956824
vn -4.848770 -1.849754 -3.542060
v 0.160935 0.031137 0.954773
vn -5.054376 -1.855529 -3.174629
v 0.158805 0.032793 0.956824
vn -4.760802 -1.874727 -3.637795
v 0.237881 -0.028664 0.880671
vn -4.376409 -2.440265 -3.628860
v 0.248401 -0.025497 0.865468
vn 5.217068 1.379302 3.209094
v 0.455624 0.136204 0.951989
vn 5.067106 1.727528 3.254351
v 0.449388 0.158193 0.951989
vn 4.850502 1.865551 3.530949
v 0.447255 0.159851 0.954044
vn 4.768011 1.883561 3.624697
v 0.370311 0.219655 1.028145
vn 5.106439 1.201254 3.456440
v 0.458746 0.123286 0.952051
vn 5.275727 1.105544 3.212319
v 0.458771 0.123296 0.952009
vn 3.714403 -2.239397 1.774652
v 0.441926 0.032456 1.007773
vn 4.735180 1.504075 3.845143
v 0.355390 0.215096 1.049421
vn 4.475100 1.767176 4.014325
v 0.355378 0.215142 1.049417
vn -4.344562 -2.840444 -3.341865
v 0.237876 -0.028678 0.880685
vn -4.683594 -1.457440 -3.921641
v 0.269684 0.066682 0.803604
vn -4.787026 -1.392311 -3.823656
v 0.190605 0.128148 0.879762
vn -4.778383 -1.399917 -3.831788
v 0.267548 0.068342 0.805661
vn -5.343657 -1.415108 -2.933622
v 0.152562 0.054772 0.956841
vn -5.241713 -1.221461 -3.218023
v 0.149415 0.067681 0.956821
vn -5.050570 -1.074734 -3.570582
v 0.166264 0.158550 0.901040
vn -4.972910 -1.270298 -3.622071
v 0.169411 0.145644 0.901060
vn -4.884811 -2.537241 -3.024490
v 0.160931 0.031126 0.954787
vn -5.155247 -2.296857 -2.525546
v 0.158798 0.032784 0.956841
vn -2.183328 -0.533215 5.621645
v 0.331811 0.109016 1.104096
vn -0.901016 -0.430682 6.184955
v 0.338056 0.087001 1.104096
vn 5.435204 1.438503 2.777633
v 0.455641 0.136212 0.951956
vn 5.177723 1.958754 2.862494
v 0.449397 0.158227 0.951956
vn 4.877365 2.194190 3.293509
v 0.447261 0.159887 0.954013
vn 4.601957 2.432506 3.459406
v 0.370318 0.219692 1.028115
vn 5.566824 0.884342 2.677634
v 0.458788 0.123305 0.951976
vn 4.456715 2.406034 3.680034
v 0.359781 0.216507 1.043351
vn 3.670740 2.392398 4.311325
v 0.355369 0.215173 1.049412
vn 1.090509 1.712839 4.793056
v 0.338501 0.124341 1.105208
vn 2.898260 -5.428057 -0.293125
v 0.442404 0.032565 1.003393
vn 4.327477 -1.758541 2.676590
v 0.431389 0.029270 1.023009
vn 3.552856 -1.989673 2.995818
v 0.426977 0.027937 1.029070
vn 4.666699 -1.843332 1.469939
v 0.441937 0.032463 1.007753
vn 3.823868 -0.639824 4.486885
v 0.350034 0.087743 1.103172
vn -5.606279 -1.073378 -2.458696
v 0.149402 0.067701 0.956836
vn -4.774602 1.445289 -2.147247
v 0.166256 0.158563 0.901048
vn -4.390141 -2.221102 -3.798920
v 0.252808 -0.024165 0.859414
vn -2.086014 -3.831619 -2.929472
v 0.252822 -0.024167 0.859400
vn -1.519973 -1.974796 -4.640368
v 0.269692 0.066685 0.803593
vn -2.613502 -4.362975 -1.993766
v 0.237872 -0.028686 0.880698
vn -2.044845 -4.691387 -2.474793
v 0.248410 -0.025501 0.865462
vn -5.711840 -1.511467 -1.973242
v 0.152549 0.054794 0.956856
vn -4.686350 -3.673633 -1.901130
v 0.160930 0.031119 0.954800
vn -4.975566 -2.979202 -1.272055
v 0.158794 0.032779 0.956856
vn -2.299985 -0.175666 5.518166
v 0.328664 0.121922 1.104076
vn -0.221330 -0.053589 6.260511
v 0.341654 0.111418 1.105229
vn -2.402208 1.553226 4.813852
v 0.328663 0.121940 1.104074
vn -3.866556 1.241950 4.392503
v 0.151240 0.068304 0.963062
vn -4.428527 0.284719 1.955871
v 0.148920 0.067602 0.961218
vn 4.787638 1.245071 3.870494
v 0.423830 0.040843 1.029050
vn 5.771611 1.532312 1.771648
v 0.455652 0.136213 0.951932
vn 5.163003 2.575346 1.784640
v 0.449401 0.158246 0.951932
vn 4.781765 3.173380 2.403845
v 0.447264 0.159907 0.953990
vn 3.450999 3.933510 2.587772
v 0.370322 0.219714 1.028092
vn 5.878338 0.468499 1.473004
v 0.458797 0.123314 0.951952
vn 3.028050 4.152693 3.038146
v 0.359777 0.216526 1.043341
vn 1.222304 3.529207 3.753933
v 0.355361 0.215192 1.049407
vn 4.748314 1.255811 3.916863
v 0.346887 0.100649 1.103152
vn 2.517978 0.688186 5.063112
v 0.344752 0.102309 1.105209
vn 0.641103 2.995359 5.070507
v 0.354736 0.211820 1.051478
vn 4.168529 -2.854856 -0.958220
v 0.442414 0.032572 1.003383
vn 6.048482 -0.255118 1.412146
v 0.442563 0.035834 1.005682
vn -5.935232 -0.426368 -1.297442
v 0.149396 0.067712 0.956849
vn -5.969992 0.132445 -1.588196
v 0.165631 0.155191 0.903118
vn -4.922243 -1.154880 -3.728663
v 0.176802 0.161736 0.885804
vn -4.563175 1.492966 -2.924173
v 0.176802 0.161751 0.885799
vn -4.121824 1.477072 -3.366405
v 0.181217 0.163086 0.879733
vn -0.179629 -3.930245 -2.859321
v 0.252832 -0.024166 0.859394
vn 0.693943 -6.105875 -0.826229
v 0.248417 -0.025501 0.865460
vn -0.739300 -2.955857 -5.035900
v 0.253458 -0.020795 0.857323
vn -3.287028 -0.901528 -4.926334
v 0.263442 0.088718 0.803593
vn -4.796106 -1.259297 -3.856135
v 0.184360 0.150163 0.879762
vn -4.757673 -1.176156 -3.931427
v 0.184363 0.150186 0.879753
vn -4.717156 -1.115751 -3.997424
v 0.261305 0.090379 0.805651
vn -1.503660 -5.071627 -0.700492
v 0.237871 -0.028689 0.880709
vn -5.974177 -1.539582 -1.089595
v 0.152542 0.054812 0.956868
vn -4.183721 -4.650291 -0.590860
v 0.160929 0.031118 0.954810
vn -5.091733 -3.148186 -0.695089
v 0.158792 0.032780 0.956868
vn 3.306702 -4.311462 -2.520600
v 0.440094 0.031871 1.001539
vn -2.682354 3.230559 4.449246
v 0.344897 0.209419 1.050344
vn -3.949911 3.068628 3.802650
v 0.167474 0.155783 0.909332
vn -5.077919 1.962948 1.661636
v 0.165154 0.155082 0.907488
vn -2.594625 3.685588 3.952200
v 0.345523 0.212791 1.048274
vn -3.851136 3.456280 3.530927
v 0.168100 0.159155 0.907262
vn -0.485023 5.108496 2.265205
v 0.355356 0.215196 1.049400
vn -2.099193 4.986773 2.036068
v 0.345526 0.212797 1.048268
vn -4.736028 2.430772 1.540819
v 0.165780 0.158453 0.905418
vn -3.854783 3.268762 0.324557
v 0.165781 0.158457 0.905413
vn -1.787237 -0.701464 2.515606
v 0.168102 0.159158 0.907258
vn 6.011750 1.575735 0.882595
v 0.455656 0.136210 0.951916
vn 5.040700 3.160394 0.844659
v 0.449402 0.158251 0.951916
vn 4.390777 4.315148 1.076290
v 0.447264 0.159913 0.953975
vn 1.576568 4.889117 0.902861
v 0.370323 0.219721 1.028077
vn 6.106223 1.055723 0.845766
v 0.458798 0.123322 0.951936
vn 0.163325 5.786840 1.344048
v 0.359773 0.216532 1.043332
vn 5.076849 -1.907912 -1.572352
v 0.443039 0.035944 1.001312
vn 4.999676 -1.308818 -1.597704
v 0.459274 0.123423 0.947582
vn 4.566874 0.035420 -2.106548
v 0.459274 0.123431 0.947578
vn -3.288417 0.126162 -4.811693
v 0.260296 0.101617 0.803573
vn -3.963934 0.456048 -4.483955
v 0.258159 0.103279 0.805631
vn -1.906436 3.305513 -4.647421
v 0.258164 0.103283 0.805630
vn -0.981718 1.772971 -5.022157
v 0.260302 0.101621 0.803571
vn -2.169417 3.964908 -2.568051
v 0.181222 0.163090 0.879731
vn -3.065746 5.050976 -1.098530
v 0.176806 0.161755 0.885800
vn -3.985874 3.446622 -0.545779
v 0.166256 0.158566 0.901055
vn 2.682375 -3.230536 -4.449260
v 0.263296 -0.018394 0.858456
vn -1.075684 -0.276609 -6.122478
v 0.263445 0.088733 0.803591
vn 2.793858 -2.360017 -4.653685
v 0.279531 0.069086 0.804726
vn 0.117763 -1.305472 -5.703447
v 0.269698 0.066691 0.803591
vn 3.949909 -3.068624 -3.802655
v 0.440719 0.035242 0.999468
vn 3.996911 -2.713090 -3.996984
v 0.456954 0.122722 0.945738
vn 2.215174 -0.676356 -5.234277
v 0.279529 0.069091 0.804724
vn 3.669338 -1.630841 -3.996439
v 0.456953 0.122729 0.945733
vn -1.629117 6.063630 0.065887
v 0.360492 0.217322 1.026944
vn -1.664963 6.054193 0.118331
v 0.349942 0.214132 1.042199
vn -1.802235 6.019063 -0.021954
v 0.358171 0.216620 1.025099
vn 1.270749 5.070534 -0.650848
v 0.370798 0.219830 1.023718
vn -1.562793 6.072047 -0.233511
v 0.360968 0.217431 1.022585
vn -1.836521 6.008379 -0.037880
v 0.180747 0.162981 0.884090
vn -1.855413 6.002727 -0.028364
v 0.176330 0.161646 0.890158
vn -1.606883 6.060133 -0.283386
v 0.358646 0.216729 1.020741
vn 3.226879 2.640157 -1.798390
v 0.449878 0.158361 0.947558
vn 2.578434 4.974623 -1.337804
v 0.447740 0.160023 0.949617
vn 4.836371 1.274182 -2.127974
v 0.456131 0.136319 0.947558
vn -0.222506 5.692310 -1.885378
v 0.368477 0.219128 1.021873
vn 0.222205 0.053843 -6.260495
v 0.266555 0.079579 0.803571
vn 0.185055 4.914067 -3.774033
v 0.267995 0.105682 0.806763
vn 1.230363 2.450912 -4.445586
v 0.270133 0.104020 0.804704
vn 2.191997 0.572834 -5.607817
v 0.276386 0.081978 0.804704
vn -0.540990 5.297033 -2.403440
v 0.191053 0.165490 0.880864
vn 2.321379 3.163262 -4.124074
v 0.447557 0.157659 0.945713
vn 0.982569 5.288134 -3.247863
v 0.445419 0.159321 0.947772
vn 3.680820 0.966660 -4.998997
v 0.453810 0.135617 0.945713
# 196 vertices, 0 vertices normals

f 1//1 2//2 3//3
f 1//1 4//4 5//5
f 1//1 6//6 7//7
f 1//1 3//3 6//6
f 1//1 7//7 4//4
f 1//1 5//5 2//2
f 2//2 5//5 3//3
f 4//4 7//7 8//8
f 4//4 9//9 10//10
f 4//4 8//8 9//9
f 4//4 11//11 5//5
f 4//4 10//10 12//12
f 4//4 12//12 11//11
f 13//13 14//14 15//15
f 13//13 16//16 17//17
f 13//13 15//15 16//16
f 13//13 17//17 14//14
f 14//14 3//3 18//18
f 14//14 18//18 15//15
f 14//14 17//17 3//3
f 6//6 3//3 17//17
f 6//6 17//17 7//7
f 3//3 5//5 19//19
f 3//3 19//19 18//18
f 7//7 20//20 21//21
f 7//7 17//17 20//20
f 7//7 21//21 22//22
f 7//7 22//22 8//8
f 16//16 15//15 19//19
f 16//16 23//23 24//24
f 16//16 24//24 17//17
f 16//16 25//25 23//23
f 16//16 19//19 26//26
f 16//16 27//27 25//25
f 16//16 28//28 27//27
f 16//16 26//26 28//28
f 15//15 18//18 19//19
f 29//29 30//30 31//31
f 29//29 32//32 33//33
f 29//29 34//34 35//35
f 29//29 33//33 30//30
f 29//29 31//31 34//34
f 29//29 35//35 32//32
f 30//30 36//36 31//31
f 30//30 33//33 36//36
f 32//32 35//35 37//37
f 32//32 38//38 33//33
f 32//32 37//37 38//38
f 34//34 31//31 39//39
f 34//34 39//39 37//37
f 34//34 37//37 35//35
f 40//40 41//41 42//42
f 40//40 43//43 44//44
f 40//40 42//42 43//43
f 40//40 44//44 41//41
f 36//36 33//33 45//45
f 36//36 46//46 47//47
f 36//36 45//45 46//46
f 36//36 48//48 31//31
f 36//36 49//49 50//50
f 36//36 47//47 49//49
f 36//36 50//50 48//48
f 33//33 38//38 45//45
f 31//31 48//48 51//51
f 31//31 52//52 53//53
f 31//31 51//51 52//52
f 31//31 54//54 55//55
f 31//31 55//55 39//39
f 31//31 53//53 54//54
f 41//41 44//44 56//56
f 41//41 57//57 42//42
f 41//41 56//56 58//58
f 41//41 58//58 57//57
f 43//43 42//42 59//59
f 43//43 59//59 44//44
f 42//42 60//60 61//61
f 42//42 62//62 60//60
f 42//42 57//57 63//63
f 42//42 61//61 59//59
f 42//42 63//63 62//62
f 46//46 45//45 64//64
f 46//46 65//65 66//66
f 46//46 64//64 65//65
f 46//46 67//67 47//47
f 46//46 66//66 67//67
f 45//45 68//68 69//69
f 45//45 69//69 64//64
f 45//45 38//38 70//70
f 45//45 70//70 68//68
f 48//48 50//50 51//51
f 49//49 47//47 67//67
f 49//49 67//67 50//50
f 52//52 51//51 50//50
f 52//52 71//71 53//53
f 52//52 50//50 72//72
f 52//52 72//72 71//71
f 71//71 72//72 53//53
f 68//68 70//70 69//69
f 60//60 62//62 73//73
f 60//60 73//73 61//61
f 62//62 63//63 73//73
f 44//44 59//59 56//56
f 57//57 74//74 63//63
f 57//57 75//75 76//76
f 57//57 76//76 74//74
f 57//57 58//58 75//75
f 59//59 61//61 77//77
f 59//59 78//78 79//79
f 59//59 77//77 78//78
f 59//59 79//79 80//80
f 59//59 80//80 56//56
f 61//61 81//81 82//82
f 61//61 73//73 81//81
f 61//61 82//82 77//77
f 9//9 8//8 83//83
f 9//9 83//83 10//10
f 8//8 84//84 83//83
f 8//8 22//22 84//84
f 65//65 64//64 85//85
f 65//65 86//86 87//87
f 65//65 85//85 86//86
f 65//65 88//88 66//66
f 65//65 87//87 88//88
f 64//64 69//69 89//89
f 64//64 89//89 85//85
f 67//67 66//66 88//88
f 67//67 88//88 90//90
f 67//67 90//90 50//50
f 50//50 90//90 91//91
f 50//50 91//91 72//72
f 72//72 91//91 92//92
f 72//72 92//92 53//53
f 23//23 25//25 93//93
f 23//23 70//70 94//94
f 23//23 94//94 24//24
f 23//23 93//93 70//70
f 24//24 94//94 95//95
f 24//24 95//95 17//17
f 69//69 70//70 96//96
f 69//69 96//96 89//89
f 20//20 17//17 95//95
f 20//20 95//95 21//21
f 21//21 97//97 22//22
f 21//21 95//95 97//97
f 78//78 77//77 98//98
f 78//78 98//98 99//99
f 78//78 99//99 79//79
f 100//100 63//63 74//74
f 100//100 101//101 63//63
f 100//100 74//74 102//102
f 100//100 102//102 101//101
f 81//81 73//73 103//103
f 81//81 103//103 82//82
f 63//63 101//101 104//104
f 63//63 104//104 73//73
f 73//73 104//104 103//103
f 77//77 82//82 105//105
f 77//77 105//105 98//98
f 82//82 106//106 107//107
f 82//82 103//103 106//106
f 82//82 107//107 105//105
f 25//25 27//27 93//93
f 108//108 83//83 109//109
f 108//108 53//53 92//92
f 108//108 109//109 53//53
f 108//108 110//110 111//111
f 108//108 111//111 112//112
f 108//108 112//112 83//83
f 108//108 92//92 110//110
f 83//83 84//84 109//109
f 83//83 112//112 10//10
f 84//84 22//22 109//109
f 38//38 37//37 70//70
f 39//39 55//55 37//37
f 37//37 55//55 113//113
f 37//37 113//113 94//94
f 37//37 94//94 70//70
f 86//86 85//85 114//114
f 86//86 115//115 116//116
f 86//86 114//114 115//115
f 86//86 117//117 87//87
f 86//86 116//116 117//117
f 85//85 89//89 118//118
f 85//85 118//118 114//114
f 88//88 87//87 117//117
f 88//88 117//117 119//119
f 88//88 119//119 90//90
f 90//90 119//119 120//120
f 90//90 120//120 91//91
f 54//54 121//121 113//113
f 54//54 113//113 55//55
f 54//54 53//53 122//122
f 54//54 122//122 121//121
f 121//121 122//122 22//22
f 121//121 97//97 95//95
f 121//121 95//95 113//113
f 121//121 22//22 97//97
f 113//113 95//95 94//94
f 53//53 109//109 122//122
f 122//122 109//109 22//22
f 91//91 123//123 92//92
f 91//91 120//120 123//123
f 70//70 93//93 124//124
f 70//70 124//124 96//96
f 89//89 96//96 125//125
f 89//89 125//125 118//118
f 98//98 105//105 126//126
f 98//98 126//126 127//127
f 98//98 127//127 99//99
f 128//128 79//79 129//129
f 128//128 56//56 79//79
f 128//128 130//130 56//56
f 128//128 129//129 130//130
f 79//79 56//56 80//80
f 79//79 99//99 129//129
f 101//101 131//131 132//132
f 101//101 133//133 131//131
f 101//101 102//102 133//133
f 101//101 132//132 104//104
f 74//74 76//76 134//134
f 74//74 134//134 102//102
f 135//135 75//75 56//56
f 135//135 56//56 130//130
f 135//135 130//130 136//136
f 135//135 134//134 75//75
f 135//135 136//136 137//137
f 135//135 137//137 134//134
f 75//75 58//58 56//56
f 75//75 134//134 76//76
f 106//106 103//103 138//138
f 106//106 138//138 107//107
f 104//104 132//132 138//138
f 104//104 138//138 103//103
f 105//105 107//107 139//139
f 105//105 139//139 126//126
f 107//107 140//140 141//141
f 107//107 138//138 140//140
f 107//107 141//141 139//139
f 93//93 142//142 124//124
f 93//93 27//27 142//142
f 110//110 143//143 111//111
f 110//110 92//92 143//143
f 111//111 143//143 144//144
f 111//111 144//144 145//145
f 111//111 145//145 112//112
f 143//143 146//146 147//147
f 143//143 147//147 144//144
f 143//143 92//92 123//123
f 143//143 123//123 146//146
f 144//144 147//147 145//145
f 146//146 123//123 120//120
f 146//146 120//120 148//148
f 146//146 149//149 147//147
f 146//146 148//148 149//149
f 147//147 150//150 145//145
f 147//147 149//149 150//150
f 112//112 145//145 151//151
f 112//112 126//126 10//10
f 112//112 151//151 126//126
f 145//145 150//150 151//151
f 150//150 149//149 152//152
f 150//150 152//152 151//151
f 11//11 12//12 141//141
f 11//11 140//140 5//5
f 11//11 141//141 140//140
f 5//5 140//140 138//138
f 5//5 138//138 26//26
f 5//5 26//26 19//19
f 10//10 126//126 139//139
f 10//10 139//139 12//12
f 12//12 139//139 141//141
f 115//115 114//114 153//153
f 115//115 154//154 155//155
f 115//115 153//153 154//154
f 115//115 156//156 116//116
f 115//115 155//155 156//156
f 114//114 118//118 157//157
f 114//114 157//157 153//153
f 117//117 116//116 156//156
f 117//117 156//156 158//158
f 117//117 158//158 119//119
f 119//119 158//158 148//148
f 119//119 148//148 120//120
f 96//96 124//124 125//125
f 125//125 124//124 159//159
f 125//125 159//159 160//160
f 125//125 160//160 118//118
f 118//118 160//160 161//161
f 118//118 161//161 157//157
f 162//162 163//163 164//164
f 162//162 134//134 137//137
f 162//162 137//137 163//163
f 162//162 165//165 134//134
f 162//162 164//164 165//165
f 130//130 163//163 137//137
f 130//130 129//129 166//166
f 130//130 137//137 136//136
f 130//130 166//166 163//163
f 163//163 166//166 164//164
f 126//126 151//151 127//127
f 127//127 151//151 99//99
f 129//129 99//99 167//167
f 129//129 167//167 166//166
f 99//99 151//151 168//168
f 99//99 168//168 167//167
f 131//131 133//133 27//27
f 131//131 27//27 132//132
f 133//133 102//102 169//169
f 133//133 169//169 27//27
f 134//134 165//165 170//170
f 134//134 170//170 102//102
f 102//102 171//171 169//169
f 102//102 170//170 172//172
f 102//102 172//172 171//171
f 132//132 27//27 28//28
f 132//132 28//28 138//138
f 138//138 28//28 26//26
f 124//124 142//142 159//159
f 159//159 142//142 173//173
f 159//159 173//173 174//174
f 159//159 174//174 160//160
f 160//160 174//174 161//161
f 142//142 27//27 169//169
f 142//142 169//169 173//173
f 173//173 169//169 171//171
f 173//173 171//171 174//174
f 174//174 171//171 161//161
f 171//171 172//172 175//175
f 171//171 176//176 161//161
f 171//171 175//175 176//176
f 177//177 178//178 158//158
f 177//177 149//149 178//178
f 177//177 179//179 149//149
f 177//177 156//156 180//180
f 177//177 158//158 156//156
f 177//177 181//181 179//179
f 177//177 180//180 181//181
f 178//178 149//149 148//148
f 178//178 148//148 158//158
f 149//149 179//179 151//151
f 149//149 151//151 152//152
f 179//179 182//182 183//183
f 179//179 183//183 151//151
f 179//179 181//181 184//184
f 179//179 184//184 182//182
f 182//182 184//184 166//166
f 182//182 166//166 167//167
f 182//182 167//167 183//183
f 183//183 167//167 168//168
f 183//183 168//168 151//151
f 154//154 153//153 185//185
f 154//154 185//185 186//186
f 154//154 186//186 155//155
f 153//153 157//157 161//161
f 153//153 187//187 185//185
f 153//153 161//161 187//187
f 156//156 155//155 180//180
f 155//155 186//186 180//180
f 181//181 180//180 188//188
f 181//181 188//188 184//184
f 165//165 189//189 170//170
f 165//165 164//164 190//190
f 165//165 191//191 189//189
f 165//165 190//190 191//191
f 189//189 172//172 170//170
f 189//189 191//191 192//192
f 189//189 192//192 172//172
f 184//184 188//188 193//193
f 184//184 193//193 166//166
f 166//166 193//193 190//190
f 166//166 190//190 164//164
f 172//172 192//192 175//175
f 185//185 187//187 194//194
f 185//185 194//194 195//195
f 185//185 195//195 186//186
f 187//187 196//196 194//194
f 187//187 161//161 196//196
f 180//180 186//186 188//188
f 186//186 195//195 188//188
f 194//194 196//196 191//191
f 194//194 191//191 190//190
f 194//194 190//190 195//195
f 196//196 192//192 191//191
f 196//196 161//161 176//176
f 196//196 176//176 192//192
f 192//192 176//176 175//175
f 188//188 195//195 193//193
f 193//193 195//195 190//190
# 388 faces, 0 coords texture

# End of File
