####
#
# OBJ File Generated by Meshlab
#
####
# Object matlab_mesh_slc_step1_link3.obj
#
# Vertices: 180
# Faces: 356
#
####
vn 0.002919 -0.033754 0.086532
v 0.264905 0.089517 0.998641
vn 0.493301 -0.865099 -1.053614
v 0.043359 -0.028429 -0.032610
vn 0.260659 -1.289434 -2.222613
v 0.264906 0.089521 0.998639
vn 0.920382 0.443473 1.364416
v 0.264914 0.089544 0.998627
vn 1.981454 0.470630 2.035063
v 0.265105 0.090135 0.998304
vn 3.538307 0.110521 2.299445
v 0.265130 0.090212 0.998262
vn 3.166388 0.235163 2.304122
v 0.265157 0.090294 0.998217
vn 4.187493 -0.163263 2.179966
v 0.265185 0.090380 0.998170
vn 2.803797 0.333880 2.267139
v 0.265214 0.090471 0.998120
vn 3.563458 0.105288 2.297074
v 0.265245 0.090567 0.998068
vn 3.443114 0.149589 2.304128
v 0.265277 0.090667 0.998013
vn 3.376412 0.173199 2.306204
v 0.265311 0.090772 0.997956
vn 3.305021 0.197077 2.306480
v 0.265346 0.090881 0.997896
vn 3.249824 0.215748 2.305432
v 0.265383 0.090995 0.997834
vn 3.268367 0.211413 2.305683
v 0.265421 0.091114 0.997769
vn 3.606129 0.096427 2.292274
v 0.265460 0.091237 0.997702
vn 3.245943 0.220900 2.304926
v 0.265501 0.091365 0.997633
vn 3.277773 0.211810 2.305082
v 0.265543 0.091497 0.997561
vn 3.284083 0.211223 2.304940
v 0.265587 0.091634 0.997486
vn 3.584366 0.109818 2.293433
v 0.265632 0.091775 0.997409
vn 3.317547 0.203365 2.304536
v 0.265678 0.091922 0.997329
vn 3.372159 0.187056 2.303883
v 0.265726 0.092073 0.997247
vn 3.385803 0.183892 2.303282
v 0.265775 0.092228 0.997162
vn 3.235019 0.233679 2.302755
v 0.265826 0.092388 0.997075
vn 3.465277 0.160126 2.299990
v 0.265878 0.092553 0.996985
vn 3.313998 0.212193 2.303140
v 0.265931 0.092722 0.996893
vn 3.375301 0.193996 2.302389
v 0.265986 0.092896 0.996798
vn 3.279081 0.226463 2.302352
v 0.266042 0.093075 0.996701
vn 3.326226 0.213264 2.302244
v 0.266099 0.093259 0.996601
vn 3.369556 0.201107 2.301393
v 0.266158 0.093447 0.996499
vn 3.421492 0.185940 2.299912
v 0.266218 0.093639 0.996394
vn 3.363070 0.206931 2.301048
v 0.266279 0.093837 0.996287
vn 3.309531 0.225818 2.300833
v 0.266342 0.094039 0.996177
vn 3.359509 0.212108 2.300159
v 0.266406 0.094246 0.996064
vn 3.325553 0.225191 2.300197
v 0.266471 0.094458 0.995949
vn 3.341812 0.221772 2.299785
v 0.266538 0.094674 0.995832
vn 3.373588 0.217992 2.298068
v 0.266745 0.095350 0.995464
vn 3.358929 0.225103 2.298057
v 0.266814 0.095576 0.995342
vn 3.332568 0.235395 2.297947
v 0.266881 0.095798 0.995221
vn 3.302593 0.246778 2.297445
v 0.266947 0.096015 0.995104
vn 3.340239 0.237212 2.297076
v 0.267011 0.096227 0.994988
vn 3.377538 0.227311 2.296364
v 0.267074 0.096435 0.994876
vn 3.335840 0.242485 2.296433
v 0.267135 0.096639 0.994765
vn 3.305741 0.253767 2.296302
v 0.267195 0.096838 0.994657
vn 3.326809 0.248806 2.295759
v 0.267253 0.097032 0.994552
vn 3.353583 0.242495 2.295439
v 0.267310 0.097222 0.994449
vn 3.306166 0.258991 2.295183
v 0.267365 0.097408 0.994349
vn 3.325266 0.254882 2.294954
v 0.267419 0.097588 0.994251
vn 3.340079 0.251899 2.294594
v 0.267471 0.097765 0.994155
vn 3.294081 0.267702 2.294406
v 0.267522 0.097936 0.994062
vn 3.305458 0.265533 2.294050
v 0.267571 0.098104 0.993972
vn 3.379239 0.244263 2.293178
v 0.267619 0.098266 0.993883
vn 3.324973 0.263053 2.293758
v 0.267666 0.098424 0.993798
vn 3.259076 0.284153 2.292644
v 0.267711 0.098577 0.993715
vn 3.333904 0.262977 2.293132
v 0.267755 0.098726 0.993634
vn 3.337778 0.263031 2.292748
v 0.267797 0.098870 0.993556
vn 3.338623 0.264247 2.292645
v 0.267838 0.099010 0.993481
vn 3.269193 0.286485 2.292080
v 0.267877 0.099145 0.993408
vn 3.330265 0.269108 2.292014
v 0.267915 0.099275 0.993337
vn 3.332322 0.270040 2.292102
v 0.267952 0.099401 0.993269
vn 3.327846 0.272219 2.291762
v 0.267987 0.099522 0.993204
vn 3.314207 0.277529 2.291778
v 0.268021 0.099639 0.993141
vn 3.309206 0.279850 2.291333
v 0.268053 0.099751 0.993080
vn 3.282436 0.289437 2.290879
v 0.268084 0.099858 0.993022
vn 3.277986 0.291786 2.291008
v 0.268114 0.099961 0.992967
vn 3.348868 0.270680 2.290580
v 0.268142 0.100059 0.992914
vn 3.335040 0.276387 2.290968
v 0.268169 0.100152 0.992863
vn 3.304521 0.285928 2.290655
v 0.268195 0.100241 0.992815
vn 3.285426 0.292590 2.290240
v 0.268219 0.100325 0.992770
vn 3.250329 0.303803 2.289838
v 0.268242 0.100404 0.992727
vn 3.334163 0.278877 2.290128
v 0.268263 0.100479 0.992687
vn 3.296952 0.291655 2.289833
v 0.268284 0.100549 0.992649
vn 3.395409 0.262242 2.289175
v 0.268302 0.100614 0.992613
vn 3.306712 0.289683 2.290597
v 0.268320 0.100675 0.992581
vn 0.069775 0.125687 0.095204
v 0.268424 0.101040 0.992384
vn -4.450313 0.959139 -1.835823
v 0.012259 0.044999 -0.022923
vn -2.627619 -3.159059 -1.964496
v 0.043326 -0.028416 -0.032592
vn -5.778116 2.234845 0.952609
v -0.000711 0.002537 0.000000
vn -5.893108 1.445992 1.310150
v -0.001204 0.000790 0.000906
vn -4.626247 -1.169312 0.180412
v -0.001473 0.000401 0.000000
vn -3.691585 -2.433375 -1.268750
v -0.001027 -0.000288 -0.001115
vn 4.830158 1.712570 -1.293566
v 0.077556 0.021738 0.084171
vn -0.370098 1.374316 -1.188392
v 0.012272 0.045026 -0.022936
vn 0.866610 0.433292 1.313881
v 0.264909 0.089530 0.998634
vn 5.880230 -2.051733 -0.257382
v 0.264920 0.089562 0.998617
vn 2.625129 0.366429 2.236809
v 0.264927 0.089585 0.998604
vn 4.139142 -0.147973 2.194659
v 0.264936 0.089612 0.998589
vn 1.110907 0.470518 1.525677
v 0.264946 0.089644 0.998572
vn 2.975335 0.283044 2.290922
v 0.264958 0.089680 0.998552
vn 4.902470 -0.590342 1.835716
v 0.264971 0.089721 0.998530
vn 1.828504 0.479605 1.968671
v 0.264986 0.089766 0.998505
vn 5.631531 -1.277181 1.008747
v 0.265002 0.089816 0.998478
vn 0.667173 0.389441 1.111005
v 0.265020 0.089871 0.998448
vn 4.979813 -0.642778 1.779064
v 0.265060 0.089994 0.998381
vn 5.602092 -2.513420 -1.280477
v 0.265082 0.090062 0.998344
vn 2.923264 0.339889 2.277085
v 0.266606 0.094895 0.995712
vn 2.689394 0.394436 2.241285
v 0.266675 0.095121 0.995589
vn 4.748268 -0.322624 1.919556
v 0.268336 0.100731 0.992550
vn 5.942376 -1.858848 -0.296460
v 0.268350 0.100782 0.992523
vn 0.659604 0.408033 1.107050
v 0.268364 0.100829 0.992497
vn 5.705790 -1.137096 0.915429
v 0.268376 0.100871 0.992475
vn 4.413501 -0.136803 2.080959
v 0.268387 0.100909 0.992454
vn 0.088393 -1.048172 -1.895227
v 0.268396 0.100941 0.992437
vn 5.947584 -1.785245 -0.159495
v 0.268404 0.100969 0.992422
vn 5.942192 -1.862160 -0.307775
v 0.268411 0.100993 0.992409
vn 0.089512 -1.049129 -1.897095
v 0.268416 0.101012 0.992399
vn 3.251467 0.305613 2.287948
v 0.268420 0.101026 0.992391
vn 5.420117 -2.489593 -1.756270
v 0.268423 0.101035 0.992386
vn -4.372555 1.199990 -1.986404
v 0.012272 0.045026 -0.022936
vn -4.346566 1.147392 -2.105819
v 0.012272 0.045026 -0.022936
vn -4.430607 1.254656 -1.895144
v 0.012272 0.045026 -0.022936
vn -4.367328 1.159977 -2.036650
v 0.012272 0.045026 -0.022936
vn -4.363763 1.192022 -2.065628
v 0.012272 0.045026 -0.022936
vn -4.353150 1.233915 -1.987873
v 0.012272 0.045026 -0.022936
vn -4.383217 1.157140 -2.005987
v 0.012272 0.045026 -0.022936
vn -4.407499 1.169765 -2.035489
v 0.012272 0.045026 -0.022936
vn -4.371870 1.208678 -1.978170
v 0.012272 0.045025 -0.022936
vn -4.410667 1.163433 -2.006481
v 0.012272 0.045025 -0.022936
vn -4.379989 1.206981 -2.028837
v 0.012271 0.045025 -0.022936
vn -4.347972 1.206252 -2.001608
v 0.012271 0.045025 -0.022936
vn -4.393998 1.170121 -2.030562
v 0.012271 0.045025 -0.022936
vn -4.371684 1.201110 -2.009467
v 0.012271 0.045025 -0.022936
vn -4.390679 1.189738 -1.998874
v 0.012271 0.045025 -0.022936
vn -4.384716 1.180856 -2.007804
v 0.012271 0.045025 -0.022935
vn -4.378323 1.167858 -2.025098
v 0.012271 0.045025 -0.022935
vn -4.402513 1.189790 -1.999677
v 0.012271 0.045024 -0.022935
vn -4.376083 1.193404 -2.010966
v 0.012271 0.045024 -0.022935
vn -4.387121 1.191573 -2.007710
v 0.012271 0.045024 -0.022935
vn -4.376116 1.183676 -2.010887
v 0.012271 0.045024 -0.022935
vn -4.393497 1.176999 -2.009409
v 0.012271 0.045024 -0.022935
vn -4.387015 1.180618 -2.006667
v 0.012271 0.045023 -0.022935
vn -4.394546 1.180311 -2.004374
v 0.012270 0.045023 -0.022935
vn -4.383940 1.182066 -2.014714
v 0.012270 0.045023 -0.022935
vn -4.389400 1.184555 -2.001820
v 0.012270 0.045022 -0.022934
vn -4.392618 1.177502 -2.006079
v 0.012270 0.045022 -0.022934
vn -4.392884 1.179000 -2.005391
v 0.012270 0.045022 -0.022934
vn -4.394538 1.177935 -1.998526
v 0.012270 0.045021 -0.022934
vn -4.393542 1.169519 -2.010973
v 0.012269 0.045021 -0.022934
vn -4.398170 1.181891 -2.000574
v 0.012269 0.045021 -0.022933
vn -4.387299 1.175002 -2.004170
v 0.012269 0.045020 -0.022933
vn -4.402248 1.169217 -2.004717
v 0.012269 0.045020 -0.022933
vn -4.397717 1.176665 -1.997002
v 0.012268 0.045019 -0.022933
vn -4.397120 1.169696 -2.005156
v 0.012268 0.045019 -0.022933
vn -4.399525 1.170799 -1.999643
v 0.012268 0.045018 -0.022932
vn -4.402087 1.172286 -2.001741
v 0.012268 0.045017 -0.022932
vn -4.396442 1.172178 -1.998871
v 0.012267 0.045017 -0.022932
vn -4.405806 1.168732 -1.999271
v 0.012267 0.045016 -0.022931
vn -4.400137 1.170168 -1.996488
v 0.012267 0.045016 -0.022931
vn -4.404045 1.164953 -2.002774
v 0.012267 0.045015 -0.022931
vn -4.405295 1.170329 -1.992113
v 0.012266 0.045015 -0.022931
vn -4.404709 1.163372 -1.999798
v 0.012266 0.045014 -0.022930
vn -4.406564 1.165593 -1.996292
v 0.012266 0.045013 -0.022930
vn -4.406150 1.167327 -1.997653
v 0.012265 0.045013 -0.022930
vn -4.403695 1.166037 -1.995551
v 0.012265 0.045012 -0.022930
vn -4.409606 1.164577 -1.996861
v 0.012265 0.045012 -0.022929
vn -4.404224 1.163750 -1.994082
v 0.012265 0.045011 -0.022929
vn -4.413220 1.161519 -1.996061
v 0.012264 0.045011 -0.022929
vn -4.404117 1.162952 -1.995489
v 0.012264 0.045010 -0.022928
vn -4.415988 1.161131 -1.990847
v 0.012264 0.045009 -0.022928
vn -4.406948 1.163220 -1.997661
v 0.012264 0.045009 -0.022928
vn -4.410309 1.161220 -1.989219
v 0.012263 0.045008 -0.022928
vn -4.414587 1.156664 -1.996075
v 0.012263 0.045008 -0.022927
vn -4.410348 1.161682 -1.990537
v 0.012263 0.045007 -0.022927
vn -4.411730 1.155448 -1.996973
v 0.012263 0.045007 -0.022927
vn -4.416191 1.161915 -1.988608
v 0.012262 0.045006 -0.022927
vn -4.410999 1.158837 -1.991906
v 0.012262 0.045006 -0.022926
vn -4.415160 1.154722 -1.992663
v 0.012262 0.045005 -0.022926
vn -4.417483 1.158591 -1.989878
v 0.012262 0.045005 -0.022926
vn -4.414697 1.157984 -1.986861
v 0.012261 0.045004 -0.022926
vn -4.415754 1.155059 -1.996389
v 0.012261 0.045004 -0.022926
vn -4.410941 1.158178 -1.989232
v 0.012261 0.045004 -0.022925
vn -4.419614 1.154665 -1.993414
v 0.012261 0.045003 -0.022925
vn -4.413587 1.163669 -1.987802
v 0.012261 0.045003 -0.022925
vn -4.411738 1.155158 -1.993125
v 0.012260 0.045003 -0.022925
vn -4.420918 1.155731 -1.985855
v 0.012260 0.045002 -0.022925
vn -4.412018 1.153555 -1.998173
v 0.012260 0.045002 -0.022924
vn -4.421199 1.155858 -1.979247
v 0.012260 0.045002 -0.022924
vn -4.423381 1.150943 -1.992946
v 0.012260 0.045001 -0.022924
vn -4.417107 1.158533 -1.978442
v 0.012260 0.045001 -0.022924
vn -4.415490 1.143525 -2.002185
v 0.012260 0.045001 -0.022924
# 180 vertices, 0 vertices normals

f 1//1 2//2 3//3
f 1//1 3//3 4//4
f 1//1 4//4 5//5
f 1//1 5//5 6//6
f 1//1 6//6 7//7
f 1//1 7//7 8//8
f 1//1 8//8 9//9
f 1//1 9//9 10//10
f 1//1 10//10 11//11
f 1//1 11//11 12//12
f 1//1 12//12 13//13
f 1//1 13//13 14//14
f 1//1 14//14 15//15
f 1//1 15//15 16//16
f 1//1 16//16 17//17
f 1//1 17//17 18//18
f 1//1 18//18 19//19
f 1//1 19//19 20//20
f 1//1 20//20 21//21
f 1//1 21//21 22//22
f 1//1 22//22 23//23
f 1//1 23//23 24//24
f 1//1 24//24 25//25
f 1//1 25//25 26//26
f 1//1 26//26 27//27
f 1//1 27//27 28//28
f 1//1 28//28 29//29
f 1//1 29//29 30//30
f 1//1 30//30 31//31
f 1//1 31//31 32//32
f 1//1 32//32 33//33
f 1//1 33//33 34//34
f 1//1 34//34 35//35
f 1//1 35//35 36//36
f 1//1 36//36 37//37
f 1//1 37//37 38//38
f 1//1 38//38 39//39
f 1//1 39//39 40//40
f 1//1 40//40 41//41
f 1//1 41//41 42//42
f 1//1 42//42 43//43
f 1//1 43//43 44//44
f 1//1 44//44 45//45
f 1//1 45//45 46//46
f 1//1 46//46 47//47
f 1//1 47//47 48//48
f 1//1 48//48 49//49
f 1//1 49//49 50//50
f 1//1 50//50 51//51
f 1//1 51//51 52//52
f 1//1 52//52 53//53
f 1//1 53//53 54//54
f 1//1 54//54 55//55
f 1//1 55//55 56//56
f 1//1 56//56 57//57
f 1//1 57//57 58//58
f 1//1 58//58 59//59
f 1//1 59//59 60//60
f 1//1 60//60 61//61
f 1//1 61//61 62//62
f 1//1 62//62 63//63
f 1//1 63//63 64//64
f 1//1 64//64 65//65
f 1//1 65//65 66//66
f 1//1 66//66 67//67
f 1//1 67//67 68//68
f 1//1 68//68 69//69
f 1//1 69//69 70//70
f 1//1 70//70 71//71
f 1//1 71//71 72//72
f 1//1 72//72 73//73
f 1//1 73//73 74//74
f 1//1 74//74 75//75
f 1//1 75//75 76//76
f 1//1 77//77 2//2
f 1//1 76//76 78//78
f 1//1 79//79 80//80
f 1//1 81//81 77//77
f 1//1 78//78 79//79
f 1//1 80//80 81//81
f 82//82 2//2 83//83
f 82//82 83//83 75//75
f 82//82 75//75 2//2
f 2//2 84//84 3//3
f 2//2 4//4 84//84
f 2//2 85//85 4//4
f 2//2 86//86 85//85
f 2//2 87//87 86//86
f 2//2 88//88 87//87
f 2//2 89//89 88//88
f 2//2 90//90 89//89
f 2//2 91//91 90//90
f 2//2 92//92 91//91
f 2//2 93//93 92//92
f 2//2 94//94 93//93
f 2//2 95//95 94//94
f 2//2 5//5 95//95
f 2//2 6//6 5//5
f 2//2 7//7 6//6
f 2//2 8//8 7//7
f 2//2 9//9 8//8
f 2//2 10//10 9//9
f 2//2 11//11 10//10
f 2//2 12//12 11//11
f 2//2 13//13 12//12
f 2//2 14//14 13//13
f 2//2 15//15 14//14
f 2//2 16//16 15//15
f 2//2 17//17 16//16
f 2//2 18//18 17//17
f 2//2 19//19 18//18
f 2//2 20//20 19//19
f 2//2 21//21 20//20
f 2//2 22//22 21//21
f 2//2 23//23 22//22
f 2//2 24//24 23//23
f 2//2 25//25 24//24
f 2//2 26//26 25//25
f 2//2 27//27 26//26
f 2//2 28//28 27//27
f 2//2 29//29 28//28
f 2//2 30//30 29//29
f 2//2 31//31 30//30
f 2//2 32//32 31//31
f 2//2 33//33 32//32
f 2//2 34//34 33//33
f 2//2 35//35 34//34
f 2//2 36//36 35//35
f 2//2 96//96 36//36
f 2//2 97//97 96//96
f 2//2 37//37 97//97
f 2//2 38//38 37//37
f 2//2 39//39 38//38
f 2//2 40//40 39//39
f 2//2 41//41 40//40
f 2//2 42//42 41//41
f 2//2 43//43 42//42
f 2//2 44//44 43//43
f 2//2 45//45 44//44
f 2//2 46//46 45//45
f 2//2 47//47 46//46
f 2//2 48//48 47//47
f 2//2 49//49 48//48
f 2//2 50//50 49//49
f 2//2 51//51 50//50
f 2//2 52//52 51//51
f 2//2 53//53 52//52
f 2//2 54//54 53//53
f 2//2 55//55 54//54
f 2//2 56//56 55//55
f 2//2 57//57 56//56
f 2//2 58//58 57//57
f 2//2 59//59 58//58
f 2//2 60//60 59//59
f 2//2 61//61 60//60
f 2//2 62//62 61//61
f 2//2 63//63 62//62
f 2//2 64//64 63//63
f 2//2 65//65 64//64
f 2//2 66//66 65//65
f 2//2 67//67 66//66
f 2//2 68//68 67//67
f 2//2 69//69 68//68
f 2//2 70//70 69//69
f 2//2 71//71 70//70
f 2//2 72//72 71//71
f 2//2 73//73 72//72
f 2//2 74//74 73//73
f 2//2 98//98 74//74
f 2//2 99//99 98//98
f 2//2 100//100 99//99
f 2//2 101//101 100//100
f 2//2 102//102 101//101
f 2//2 103//103 102//102
f 2//2 104//104 103//103
f 2//2 105//105 104//104
f 2//2 106//106 105//105
f 2//2 107//107 106//106
f 2//2 108//108 107//107
f 2//2 75//75 108//108
f 83//83 2//2 77//77
f 83//83 109//109 75//75
f 83//83 77//77 109//109
f 3//3 84//84 4//4
f 4//4 85//85 5//5
f 85//85 86//86 5//5
f 86//86 87//87 5//5
f 87//87 88//88 5//5
f 88//88 89//89 5//5
f 89//89 90//90 5//5
f 90//90 91//91 5//5
f 91//91 92//92 5//5
f 92//92 93//93 5//5
f 93//93 94//94 5//5
f 94//94 95//95 5//5
f 109//109 110//110 75//75
f 109//109 77//77 110//110
f 110//110 111//111 75//75
f 110//110 77//77 111//111
f 111//111 112//112 75//75
f 111//111 77//77 112//112
f 112//112 113//113 75//75
f 112//112 77//77 113//113
f 113//113 114//114 75//75
f 113//113 77//77 114//114
f 114//114 115//115 75//75
f 114//114 77//77 115//115
f 115//115 116//116 75//75
f 115//115 77//77 116//116
f 116//116 117//117 75//75
f 116//116 77//77 117//117
f 117//117 118//118 75//75
f 117//117 77//77 118//118
f 118//118 119//119 75//75
f 118//118 77//77 119//119
f 119//119 120//120 75//75
f 119//119 77//77 120//120
f 120//120 121//121 75//75
f 120//120 77//77 121//121
f 121//121 122//122 75//75
f 121//121 77//77 122//122
f 122//122 123//123 75//75
f 122//122 77//77 123//123
f 123//123 124//124 75//75
f 123//123 77//77 124//124
f 124//124 125//125 75//75
f 124//124 77//77 125//125
f 125//125 126//126 75//75
f 125//125 77//77 126//126
f 126//126 127//127 75//75
f 126//126 77//77 127//127
f 127//127 128//128 75//75
f 127//127 77//77 128//128
f 128//128 129//129 75//75
f 128//128 77//77 129//129
f 129//129 130//130 75//75
f 129//129 77//77 130//130
f 130//130 131//131 75//75
f 130//130 77//77 131//131
f 131//131 132//132 75//75
f 131//131 77//77 132//132
f 132//132 133//133 75//75
f 132//132 77//77 133//133
f 133//133 134//134 75//75
f 133//133 77//77 134//134
f 134//134 135//135 75//75
f 134//134 77//77 135//135
f 135//135 136//136 75//75
f 135//135 77//77 136//136
f 136//136 137//137 75//75
f 136//136 77//77 137//137
f 137//137 138//138 75//75
f 137//137 77//77 138//138
f 138//138 139//139 75//75
f 138//138 77//77 139//139
f 36//36 96//96 37//37
f 139//139 140//140 75//75
f 139//139 77//77 140//140
f 96//96 97//97 37//37
f 140//140 141//141 75//75
f 140//140 77//77 141//141
f 141//141 142//142 75//75
f 141//141 77//77 142//142
f 142//142 143//143 75//75
f 142//142 77//77 143//143
f 143//143 144//144 75//75
f 143//143 77//77 144//144
f 144//144 145//145 75//75
f 144//144 77//77 145//145
f 145//145 146//146 75//75
f 145//145 77//77 146//146
f 146//146 147//147 75//75
f 146//146 77//77 147//147
f 147//147 148//148 75//75
f 147//147 77//77 148//148
f 148//148 149//149 75//75
f 148//148 77//77 149//149
f 149//149 150//150 75//75
f 149//149 77//77 150//150
f 150//150 151//151 75//75
f 150//150 77//77 151//151
f 151//151 152//152 75//75
f 151//151 77//77 152//152
f 152//152 153//153 75//75
f 152//152 77//77 153//153
f 153//153 154//154 75//75
f 153//153 77//77 154//154
f 154//154 155//155 75//75
f 154//154 77//77 155//155
f 155//155 156//156 75//75
f 155//155 77//77 156//156
f 156//156 157//157 75//75
f 156//156 77//77 157//157
f 157//157 158//158 75//75
f 157//157 77//77 158//158
f 158//158 159//159 75//75
f 158//158 77//77 159//159
f 159//159 160//160 75//75
f 159//159 77//77 160//160
f 160//160 161//161 75//75
f 160//160 77//77 161//161
f 161//161 162//162 75//75
f 161//161 77//77 162//162
f 162//162 163//163 75//75
f 162//162 77//77 163//163
f 163//163 164//164 75//75
f 163//163 77//77 164//164
f 164//164 165//165 75//75
f 164//164 77//77 165//165
f 165//165 166//166 75//75
f 165//165 77//77 166//166
f 166//166 167//167 75//75
f 166//166 77//77 167//167
f 167//167 168//168 75//75
f 167//167 77//77 168//168
f 168//168 169//169 75//75
f 168//168 77//77 169//169
f 169//169 170//170 75//75
f 169//169 77//77 170//170
f 170//170 171//171 75//75
f 170//170 77//77 171//171
f 171//171 172//172 75//75
f 171//171 77//77 172//172
f 172//172 173//173 75//75
f 172//172 77//77 173//173
f 173//173 174//174 75//75
f 173//173 77//77 174//174
f 174//174 175//175 75//75
f 174//174 77//77 175//175
f 175//175 176//176 75//75
f 175//175 77//77 176//176
f 176//176 177//177 75//75
f 176//176 77//77 177//177
f 177//177 178//178 75//75
f 177//177 77//77 178//178
f 178//178 179//179 75//75
f 178//178 77//77 179//179
f 74//74 98//98 75//75
f 179//179 180//180 75//75
f 179//179 77//77 180//180
f 98//98 99//99 75//75
f 180//180 77//77 76//76
f 180//180 76//76 75//75
f 99//99 100//100 75//75
f 100//100 101//101 75//75
f 101//101 102//102 75//75
f 102//102 103//103 75//75
f 103//103 104//104 75//75
f 104//104 105//105 75//75
f 105//105 106//106 75//75
f 106//106 107//107 75//75
f 107//107 108//108 75//75
f 77//77 81//81 76//76
f 76//76 81//81 80//80
f 76//76 80//80 78//78
f 79//79 78//78 80//80
# 356 faces, 0 coords texture

# End of File
