####
#
# OBJ File Generated by Meshlab
#
####
# Object matlab_mesh_step6_link5.obj
#
# Vertices: 197
# Faces: 390
#
####
vn -4.728609 -4.025886 0.910626
v 0.374596 0.363736 1.028393
vn -4.906550 -3.841925 0.787854
v 0.358455 0.380303 1.011184
vn -4.905184 -3.882143 0.363425
v 0.378482 0.331297 0.882798
vn -4.839722 -3.862888 1.041905
v 0.368187 0.375338 1.043347
vn -4.648161 -3.976905 -0.405878
v 0.393120 0.312403 0.875440
vn -4.476227 -4.325298 0.777360
v 0.402851 0.307437 0.907604
vn -4.552864 -4.218877 0.967203
v 0.382830 0.356432 1.035998
vn -4.387557 -4.287259 1.260425
v 0.388884 0.353696 1.052220
vn -4.410727 -3.603865 2.278748
v 0.374286 0.372578 1.059681
vn -4.978060 -3.748354 0.786134
v 0.331798 0.415011 1.011184
vn -4.927594 -3.749488 1.054323
v 0.341476 0.410121 1.043371
vn -5.012623 -3.704115 0.777312
v 0.331745 0.415084 1.011188
vn -5.346566 -1.777728 -0.693670
v 0.351693 0.366173 0.882798
vn -5.413047 -1.835873 1.550704
v 0.341419 0.410199 1.043379
vn -4.881575 -3.776560 1.176981
v 0.368188 0.375343 1.043371
vn -4.840956 -3.823590 1.187213
v 0.374252 0.372604 1.059626
vn -4.850307 -3.533939 -1.843373
v 0.375347 0.352242 0.839654
vn -4.780749 -3.683318 -1.747637
v 0.402004 0.317534 0.839654
vn -4.942286 -3.647819 -0.964411
v 0.366463 0.347111 0.875440
vn -4.839037 -3.133341 -2.373212
v 0.375267 0.352416 0.839543
vn -4.751056 -3.604880 -1.967796
v 0.378506 0.348972 0.837924
vn -4.720201 -3.699996 -1.861402
v 0.405163 0.314264 0.837924
vn -4.490920 -4.161013 -0.555232
v 0.396279 0.309133 0.873710
vn -5.071222 -3.386865 -1.484895
v 0.366353 0.347265 0.875461
vn -4.242621 -4.581079 0.679252
v 0.406010 0.304167 0.905873
vn -4.694734 -3.592222 -2.127481
v 0.386436 0.341381 0.833092
vn -4.354629 -4.024794 -1.951554
v 0.413093 0.306673 0.833092
vn -4.701501 -3.209610 -2.584929
v 0.378437 0.349134 0.837808
vn -4.312581 -4.323957 -0.770338
v 0.404209 0.301542 0.868878
vn -4.188110 -4.657844 0.486192
v 0.401230 0.304660 0.873710
vn -4.357130 -3.214450 -3.020436
v 0.386394 0.341516 0.832963
vn -3.711550 -4.732090 -1.728574
v 0.418044 0.302201 0.833092
vn -3.857551 -4.743232 -0.661242
v 0.409160 0.297070 0.868878
vn -3.868211 -3.649610 -3.030154
v 0.413150 0.306682 0.832963
vn -3.022835 -4.372704 -2.883717
v 0.418119 0.302193 0.832963
vn -4.080536 -4.739284 0.586231
v 0.418891 0.292104 0.901042
vn -4.151009 -4.667567 0.662879
v 0.410961 0.299694 0.905873
vn -3.495287 -4.924940 -1.707765
v 0.418093 0.302193 0.833014
vn -1.281498 -5.441522 -1.694390
v 0.494728 0.241409 0.868070
vn -2.256063 -5.371738 -0.553826
v 0.485813 0.236258 0.903988
vn -4.300944 -4.468534 0.972130
v 0.408905 0.304702 0.923825
vn -4.184255 -4.589970 0.933134
v 0.412064 0.301432 0.922095
vn -4.010437 -4.719796 1.009286
v 0.493657 0.236174 0.957303
vn -4.146952 -4.589264 1.104476
v 0.488689 0.240664 0.957303
vn -4.303889 -4.197788 1.784766
v 0.388907 0.353714 1.052331
vn -4.056962 -4.373568 1.819672
v 0.465516 0.292930 1.087438
vn -4.146858 -4.589159 1.105261
v 0.468686 0.289648 1.085703
vn -3.619233 -4.699039 1.848450
v 0.473654 0.285158 1.085703
vn -4.128040 -4.645205 0.903073
v 0.417015 0.296959 0.922095
vn -2.681207 -5.417308 0.056104
v 0.495542 0.231300 0.936176
vn -0.407874 -4.966941 0.448269
v 0.501614 0.228557 0.952458
vn -5.361298 -0.834863 0.288972
v 0.331696 0.415153 1.011200
vn -4.158646 -1.542852 3.020047
v 0.347496 0.407454 1.059681
vn -5.116966 -1.357462 -2.333824
v 0.360617 0.371330 0.846835
vn -4.610453 -2.355247 -3.406407
v 0.375236 0.352492 0.839518
vn -4.624645 -2.765055 -3.226662
v 0.378410 0.349206 0.837782
vn -3.439638 -2.198106 -4.383112
v 0.386376 0.341579 0.832932
vn -2.748152 -2.534641 -4.778739
v 0.413165 0.306703 0.832932
vn -1.662885 -3.241249 -4.646058
v 0.418139 0.302208 0.832932
vn 0.233486 -4.601795 -2.729112
v 0.494746 0.241419 0.868035
vn 0.441633 -6.120223 -1.140020
v 0.500799 0.238666 0.884352
vn -0.687294 -6.171586 -0.749710
v 0.491885 0.233515 0.920270
vn 1.726961 -5.672588 -0.550598
v 0.510528 0.233708 0.916540
vn 2.248097 -5.454345 -1.649676
v 0.500824 0.238673 0.884337
vn -2.135666 -2.044511 4.198521
v 0.450893 0.311789 1.094784
vn -3.811748 -4.532195 1.904393
v 0.470484 0.288441 1.087438
vn -2.342258 -3.880298 3.794005
v 0.470486 0.288456 1.087467
vn -3.871348 -4.111575 2.715232
v 0.465512 0.292951 1.087467
vn -1.870280 -4.125826 3.813321
v 0.473659 0.285169 1.085730
vn -3.025476 -5.109445 1.734462
v 0.481611 0.277541 1.080858
vn 3.122601 -5.107201 -0.859091
v 0.510547 0.233719 0.916516
vn 1.570123 -4.987305 1.467252
v 0.501622 0.228562 0.952479
vn 0.346991 -4.211348 2.620105
v 0.481625 0.277543 1.080881
vn 4.818341 -3.984450 0.565403
v 0.669867 0.404260 0.876184
vn 4.178276 -4.397544 -0.669819
v 0.532380 0.252109 0.912769
vn 4.969830 -1.869116 -1.049642
v 0.669879 0.404269 0.876151
vn 4.869031 -0.017013 -0.109186
v 0.669882 0.404276 0.876167
vn 4.907908 -3.485159 1.397435
v 0.660947 0.399108 0.912143
vn 4.284033 -4.228278 1.300252
v 0.523465 0.246958 0.948688
vn 3.518355 -4.816354 -1.956055
v 0.500843 0.238687 0.884337
vn 3.889255 -4.474913 -2.026724
v 0.522666 0.257077 0.880574
vn 4.871588 -1.044809 -1.789026
v 0.660165 0.409217 0.843991
vn 3.994925 -0.861121 3.176943
v 0.640954 0.448086 1.040546
vn 3.305023 -2.549860 3.850653
v 0.503456 0.295946 1.077129
vn -4.024385 0.909171 -3.141540
v 0.360625 0.371364 0.846813
vn -4.264509 -1.652831 -4.297924
v 0.375219 0.352551 0.839511
vn -6.091528 0.758838 -1.300233
v 0.351694 0.366202 0.882805
vn -6.008966 1.240447 -1.340774
v 0.340620 0.420310 0.975237
vn -5.175662 2.797386 -1.296791
v 0.340632 0.420342 0.975216
vn -5.021531 2.074608 1.998068
v 0.341415 0.410233 1.043368
vn -5.015068 2.381119 0.635986
v 0.331701 0.415181 1.011208
vn -3.216087 1.467958 3.435300
v 0.347496 0.407486 1.059684
vn -2.138977 -1.351574 4.871149
v 0.424103 0.346665 1.094784
vn 0.051040 0.042993 6.282474
v 0.429077 0.342170 1.094784
vn -1.056820 0.729415 5.829972
v 0.424102 0.346693 1.094784
vn -1.621710 -2.089379 4.676632
v 0.455867 0.307294 1.094784
vn 0.532524 -0.996868 5.926092
v 0.455891 0.307290 1.094784
vn 0.357502 0.334609 6.252349
v 0.429079 0.342194 1.094784
vn 0.066161 -2.235227 5.381439
v 0.470485 0.288478 1.087482
vn 3.129120 5.256546 1.303033
v 0.515756 0.583168 0.983370
vn 2.963494 5.198865 1.816088
v 0.506832 0.578010 1.019332
vn 2.345419 3.236060 3.638235
v 0.583438 0.517221 1.054435
vn 3.861658 4.750988 0.786392
v 0.592363 0.522379 1.018473
vn 2.228357 5.410605 0.475355
v 0.515750 0.583177 0.983346
vn -0.284236 3.863263 2.721929
v 0.506818 0.578015 1.019338
vn 2.844897 2.648765 3.725766
v 0.588412 0.512726 1.054435
vn 4.321008 4.319712 0.810856
v 0.597337 0.517883 1.018473
vn 4.070442 4.767544 -0.314492
v 0.592355 0.522385 1.018446
vn 0.595452 2.504765 5.304332
v 0.583423 0.517223 1.054438
vn 4.503684 4.160960 0.654391
v 0.605303 0.510257 1.013623
vn 4.214340 4.646172 -0.357427
v 0.597333 0.517886 1.018446
vn 3.128225 2.264474 4.023142
v 0.615202 0.477850 1.054435
vn 4.679870 3.166717 2.579431
v 0.623168 0.470224 1.049586
vn 4.720143 3.700297 1.860962
v 0.596378 0.505100 1.049586
vn 1.066066 1.031278 6.087957
v 0.588401 0.512724 1.054438
vn 2.631883 0.922493 5.146870
v 0.615213 0.477820 1.054438
vn 4.464191 2.335700 3.721973
v 0.618376 0.474564 1.052698
vn 4.041367 1.487803 4.498742
v 0.618389 0.474531 1.052700
vn 4.674612 3.982534 0.605576
v 0.608476 0.506971 1.011886
vn 4.305759 4.547411 -0.461474
v 0.605304 0.510253 1.013594
vn 4.780672 3.683686 1.747079
v 0.599552 0.501814 1.047849
vn 4.667391 2.844885 2.757604
v 0.626341 0.466938 1.047849
vn 0.858383 0.681680 6.186689
v 0.450919 0.360582 1.091019
vn 0.886768 0.678858 6.183135
v 0.477708 0.325706 1.091019
vn 0.706130 0.657803 6.205311
v 0.450903 0.360584 1.091021
vn 1.402134 -0.103351 6.030881
v 0.477715 0.325680 1.091021
vn 4.400730 1.871577 4.018867
v 0.626361 0.466899 1.047848
vn 4.956866 3.617178 0.986702
v 0.635266 0.472095 1.011886
vn 4.900253 3.886112 -0.363740
v 0.623095 0.488133 1.004569
vn 4.646161 4.167369 -0.472892
v 0.608480 0.506964 1.011856
vn 5.178779 1.039019 2.129057
v 0.640961 0.448100 1.040532
vn 5.314493 1.563259 0.702493
v 0.649885 0.453257 1.004569
vn -4.400120 -2.199656 -3.848064
v 0.383202 0.344865 0.834669
vn -3.980625 -1.351384 -4.625928
v 0.383191 0.344918 0.834658
vn -2.553306 -0.856400 -5.252029
v 0.386366 0.341630 0.832921
vn -1.415754 -1.277901 -5.915845
v 0.413178 0.306726 0.832921
vn -0.420131 -2.000117 -5.708107
v 0.418156 0.302227 0.832921
vn 1.496009 -3.696585 -3.785903
v 0.494761 0.241434 0.868021
vn 0.642577 -2.416403 5.419905
v 0.473661 0.285189 1.085744
vn 1.883353 -3.132728 4.074557
v 0.481633 0.277556 1.080892
vn 4.518655 3.677953 -2.058767
v 0.627292 0.446852 0.827686
vn 4.917861 3.155861 -1.957014
v 0.654082 0.411976 0.827686
vn 3.053164 -0.482919 -2.918342
v 0.654083 0.411964 0.827675
vn 4.815923 3.897294 -1.009707
v 0.633369 0.444106 0.843988
vn 4.345100 4.232184 -1.474954
v 0.612678 0.465681 0.834977
vn 4.231040 3.644417 -2.725064
v 0.627271 0.446868 0.827675
vn 5.294736 2.919860 -1.325951
v 0.660159 0.409230 0.843988
vn 4.872619 3.880915 -0.797653
v 0.643092 0.439152 0.876167
vn 4.629546 4.138023 -0.929770
v 0.618759 0.462934 0.851293
vn 4.755950 4.026553 -0.803201
v 0.628473 0.457986 0.883453
vn 5.477307 -2.412587 1.172275
v 0.660957 0.399119 0.912130
vn -3.305035 2.549932 -3.850534
v 0.498124 0.523504 0.810230
vn -2.266402 1.069543 -5.747985
v 0.506095 0.515871 0.805378
vn -3.270648 -0.278316 -5.112994
v 0.368597 0.363731 0.841961
vn -4.284256 4.228096 -1.300540
v 0.478131 0.572482 0.938633
vn -0.191034 4.380372 -0.888873
v 0.499954 0.590872 0.934870
vn -0.158399 3.234302 -2.591563
v 0.519947 0.541894 0.806467
vn -2.083353 0.862866 -5.851721
v 0.509271 0.512583 0.803640
vn 0.986885 2.917574 -3.421041
v 0.527919 0.534261 0.801615
vn -2.955409 -0.100695 -5.416339
v 0.371773 0.360442 0.840223
vn -4.178553 4.397526 0.669901
v 0.469199 0.567321 0.974625
vn -2.153714 5.269011 0.739993
v 0.491023 0.585710 0.970862
vn -3.889304 4.474990 2.026395
v 0.478913 0.562373 1.006785
vn 1.118113 2.746725 -3.505734
v 0.531095 0.530972 0.799877
vn -1.402087 0.102335 -6.030779
v 0.523865 0.493770 0.796338
vn -2.400025 3.356116 3.894432
v 0.484995 0.559626 1.023101
vn -1.730248 5.433136 1.470553
v 0.500737 0.580763 1.003022
vn -0.822769 2.159722 5.841590
v 0.561600 0.498833 1.058201
vn -0.019832 1.367987 6.044074
v 0.445925 0.365083 1.091021
vn 2.083375 -0.862884 5.851710
v 0.492308 0.306867 1.083719
vn 4.010971 4.719415 -1.008884
v 0.507926 0.583239 0.930018
vn 4.147404 4.588949 -1.104085
v 0.512904 0.578740 0.930018
vn 4.147333 4.588789 -1.105019
v 0.532897 0.529762 0.801615
vn 0.690871 6.170854 0.747499
v 0.509668 0.585924 0.967030
vn 2.686310 5.416177 -0.058198
v 0.506036 0.588124 0.951186
vn 4.080220 4.722698 -0.725498
v 0.514008 0.580492 0.946334
vn 4.128858 4.644325 -0.903617
v 0.584531 0.522447 0.965118
vn 4.081402 4.738473 -0.586872
v 0.582641 0.527332 0.986286
vn 4.151850 4.666805 -0.663065
v 0.590613 0.519699 0.981434
vn 4.185083 4.589177 -0.933238
v 0.589509 0.517948 0.965118
vn 4.243478 4.580274 -0.679485
v 0.595591 0.515201 0.981434
vn 4.189012 4.656999 -0.486393
v 0.600327 0.514752 1.013594
vn 3.932907 4.288665 -2.110150
v 0.536073 0.526473 0.799877
vn 1.020713 1.909049 -4.569069
v 0.545688 0.512160 0.792575
vn 4.147561 4.588706 -1.104506
v 0.516080 0.575452 0.928280
vn 4.487265 4.312095 -0.779861
v 0.598766 0.511912 0.979696
vn 4.301947 4.467579 -0.971932
v 0.592685 0.514659 0.963381
vn 2.135752 2.044115 -4.199122
v 0.550666 0.507661 0.792575
vn 2.955574 0.100854 5.416181
v 0.629807 0.459007 1.047136
vn 3.270644 0.278270 5.113022
v 0.632983 0.455719 1.045398
vn -0.717832 -0.656973 -6.203750
v 0.550677 0.458866 0.796338
vn 0.019797 -1.367961 -6.044089
v 0.555655 0.454367 0.796338
vn -0.318475 -0.295672 -6.252834
v 0.572500 0.477255 0.792575
vn 1.904286 0.632533 -4.713348
v 0.577478 0.472757 0.792575
vn 0.822731 -2.159694 -5.841605
v 0.439980 0.320616 0.829158
vn 2.400028 -3.356115 -3.894432
v 0.516585 0.259824 0.864258
vn 2.266408 -1.069541 5.747987
v 0.495484 0.303579 1.081981
# 197 vertices, 0 vertices normals

f 1//1 2//2 3//3
f 1//1 4//4 2//2
f 1//1 5//5 6//6
f 1//1 6//6 7//7
f 1//1 7//7 8//8
f 1//1 8//8 9//9
f 1//1 3//3 5//5
f 1//1 9//9 4//4
f 10//10 2//2 11//11
f 10//10 12//12 13//13
f 10//10 11//11 14//14
f 10//10 13//13 2//2
f 10//10 14//14 12//12
f 2//2 4//4 11//11
f 2//2 13//13 3//3
f 4//4 15//15 11//11
f 4//4 16//16 15//15
f 4//4 9//9 16//16
f 17//17 18//18 5//5
f 17//17 19//19 20//20
f 17//17 5//5 19//19
f 17//17 21//21 18//18
f 17//17 20//20 21//21
f 18//18 21//21 22//22
f 18//18 22//22 23//23
f 18//18 23//23 5//5
f 19//19 5//5 13//13
f 19//19 24//24 20//20
f 19//19 13//13 24//24
f 5//5 23//23 25//25
f 5//5 25//25 6//6
f 5//5 3//3 13//13
f 21//21 26//26 27//27
f 21//21 27//27 22//22
f 21//21 20//20 28//28
f 21//21 28//28 26//26
f 22//22 27//27 29//29
f 22//22 29//29 23//23
f 23//23 29//29 30//30
f 23//23 30//30 25//25
f 26//26 28//28 31//31
f 26//26 31//31 27//27
f 27//27 32//32 33//33
f 27//27 33//33 29//29
f 27//27 31//31 34//34
f 27//27 34//34 35//35
f 27//27 35//35 32//32
f 29//29 33//33 30//30
f 30//30 33//33 36//36
f 30//30 37//37 25//25
f 30//30 36//36 37//37
f 32//32 38//38 39//39
f 32//32 35//35 38//38
f 32//32 39//39 33//33
f 33//33 39//39 40//40
f 33//33 40//40 36//36
f 6//6 41//41 7//7
f 6//6 25//25 42//42
f 6//6 42//42 41//41
f 41//41 8//8 7//7
f 41//41 42//42 43//43
f 41//41 44//44 8//8
f 41//41 43//43 44//44
f 8//8 45//45 9//9
f 8//8 46//46 45//45
f 8//8 44//44 43//43
f 8//8 47//47 46//46
f 8//8 43//43 48//48
f 8//8 48//48 47//47
f 25//25 37//37 42//42
f 42//42 37//37 49//49
f 42//42 49//49 43//43
f 37//37 36//36 50//50
f 37//37 50//50 51//51
f 37//37 51//51 49//49
f 36//36 40//40 50//50
f 49//49 51//51 43//43
f 12//12 52//52 13//13
f 12//12 14//14 52//52
f 11//11 15//15 53//53
f 11//11 53//53 14//14
f 15//15 16//16 53//53
f 16//16 9//9 53//53
f 38//38 35//35 39//39
f 20//20 24//24 54//54
f 20//20 54//54 55//55
f 20//20 55//55 28//28
f 24//24 13//13 54//54
f 28//28 55//55 56//56
f 28//28 56//56 31//31
f 31//31 56//56 57//57
f 31//31 57//57 34//34
f 34//34 57//57 58//58
f 34//34 58//58 59//59
f 34//34 59//59 35//35
f 35//35 59//59 60//60
f 35//35 60//60 39//39
f 39//39 61//61 40//40
f 39//39 60//60 61//61
f 40//40 61//61 62//62
f 40//40 62//62 50//50
f 61//61 63//63 62//62
f 61//61 60//60 64//64
f 61//61 64//64 63//63
f 62//62 63//63 51//51
f 62//62 51//51 50//50
f 45//45 46//46 65//65
f 45//45 65//65 9//9
f 46//46 47//47 66//66
f 46//46 66//66 67//67
f 46//46 68//68 65//65
f 46//46 67//67 68//68
f 47//47 48//48 66//66
f 66//66 48//48 69//69
f 66//66 69//69 67//67
f 43//43 51//51 70//70
f 43//43 70//70 48//48
f 63//63 64//64 71//71
f 63//63 71//71 72//72
f 63//63 72//72 51//51
f 51//51 72//72 73//73
f 51//51 73//73 70//70
f 48//48 70//70 73//73
f 48//48 73//73 69//69
f 74//74 75//75 76//76
f 74//74 77//77 78//78
f 74//74 76//76 77//77
f 74//74 78//78 75//75
f 75//75 79//79 72//72
f 75//75 71//71 80//80
f 75//75 72//72 71//71
f 75//75 80//80 81//81
f 75//75 82//82 76//76
f 75//75 81//81 82//82
f 75//75 78//78 79//79
f 79//79 78//78 83//83
f 79//79 83//83 84//84
f 79//79 84//84 72//72
f 54//54 13//13 85//85
f 54//54 85//85 86//86
f 54//54 86//86 55//55
f 13//13 52//52 87//87
f 13//13 87//87 85//85
f 88//88 52//52 89//89
f 88//88 85//85 52//52
f 88//88 89//89 85//85
f 52//52 14//14 90//90
f 52//52 85//85 87//87
f 52//52 91//91 89//89
f 52//52 90//90 91//91
f 14//14 53//53 92//92
f 14//14 92//92 90//90
f 53//53 9//9 93//93
f 53//53 93//93 92//92
f 9//9 65//65 93//93
f 93//93 65//65 94//94
f 93//93 94//94 95//95
f 93//93 95//95 92//92
f 65//65 96//96 94//94
f 65//65 68//68 96//96
f 94//94 96//96 97//97
f 94//94 98//98 95//95
f 94//94 97//97 98//98
f 96//96 68//68 67//67
f 96//96 67//67 99//99
f 96//96 99//99 97//97
f 100//100 101//101 102//102
f 100//100 103//103 104//104
f 100//100 102//102 103//103
f 100//100 104//104 105//105
f 100//100 105//105 101//101
f 101//101 105//105 102//102
f 103//103 102//102 106//106
f 103//103 107//107 108//108
f 103//103 106//106 107//107
f 103//103 108//108 104//104
f 102//102 105//105 109//109
f 102//102 109//109 106//106
f 107//107 106//106 110//110
f 107//107 110//110 111//111
f 107//107 111//111 108//108
f 106//106 112//112 113//113
f 106//106 114//114 110//110
f 106//106 113//113 114//114
f 106//106 109//109 115//115
f 106//106 115//115 116//116
f 106//106 116//116 112//112
f 112//112 117//117 113//113
f 112//112 116//116 118//118
f 112//112 118//118 117//117
f 110//110 114//114 119//119
f 110//110 119//119 120//120
f 110//110 120//120 111//111
f 114//114 113//113 121//121
f 114//114 121//121 119//119
f 113//113 117//117 122//122
f 113//113 122//122 121//121
f 123//123 124//124 116//116
f 123//123 115//115 125//125
f 123//123 116//116 115//115
f 123//123 125//125 126//126
f 123//123 126//126 124//124
f 124//124 126//126 116//116
f 117//117 118//118 127//127
f 117//117 127//127 122//122
f 119//119 128//128 129//129
f 119//119 121//121 128//128
f 119//119 129//129 130//130
f 119//119 130//130 120//120
f 128//128 121//121 122//122
f 128//128 122//122 131//131
f 128//128 132//132 129//129
f 128//128 131//131 132//132
f 122//122 127//127 131//131
f 55//55 133//133 56//56
f 55//55 86//86 133//133
f 133//133 57//57 56//56
f 133//133 86//86 134//134
f 133//133 134//134 57//57
f 57//57 134//134 135//135
f 57//57 135//135 58//58
f 58//58 135//135 136//136
f 58//58 136//136 137//137
f 58//58 137//137 59//59
f 59//59 137//137 138//138
f 59//59 138//138 60//60
f 60//60 138//138 64//64
f 64//64 138//138 80//80
f 64//64 80//80 71//71
f 67//67 69//69 139//139
f 67//67 139//139 99//99
f 72//72 84//84 73//73
f 69//69 73//73 140//140
f 69//69 140//140 139//139
f 73//73 84//84 140//140
f 141//141 142//142 143//143
f 141//141 144//144 142//142
f 141//141 145//145 144//144
f 141//141 146//146 145//145
f 141//141 143//143 146//146
f 142//142 144//144 147//147
f 142//142 147//147 143//143
f 144//144 148//148 147//147
f 144//144 145//145 149//149
f 144//144 149//149 148//148
f 147//147 148//148 77//77
f 147//147 77//77 82//82
f 147//147 82//82 143//143
f 148//148 129//129 132//132
f 148//148 132//132 77//77
f 148//148 149//149 150//150
f 148//148 150//150 130//130
f 148//148 130//130 129//129
f 77//77 151//151 78//78
f 77//77 132//132 151//151
f 77//77 76//76 82//82
f 151//151 132//132 131//131
f 151//151 131//131 83//83
f 151//151 83//83 78//78
f 131//131 127//127 83//83
f 152//152 153//153 154//154
f 152//152 85//85 89//89
f 152//152 154//154 85//85
f 152//152 155//155 156//156
f 152//152 89//89 155//155
f 152//152 157//157 153//153
f 152//152 156//156 157//157
f 153//153 158//158 154//154
f 153//153 157//157 159//159
f 153//153 159//159 158//158
f 85//85 154//154 86//86
f 154//154 158//158 160//160
f 154//154 160//160 134//134
f 154//154 134//134 86//86
f 155//155 161//161 162//162
f 155//155 89//89 161//161
f 155//155 162//162 156//156
f 161//161 89//89 91//91
f 161//161 91//91 163//163
f 161//161 163//163 162//162
f 91//91 90//90 163//163
f 158//158 159//159 164//164
f 158//158 164//164 165//165
f 158//158 165//165 135//135
f 158//158 135//135 160//160
f 160//160 135//135 134//134
f 163//163 166//166 167//167
f 163//163 90//90 92//92
f 163//163 92//92 166//166
f 163//163 167//167 162//162
f 166//166 92//92 95//95
f 166//166 168//168 109//109
f 166//166 95//95 168//168
f 166//166 105//105 167//167
f 166//166 109//109 105//105
f 168//168 95//95 109//109
f 95//95 98//98 169//169
f 95//95 169//169 109//109
f 98//98 97//97 126//126
f 98//98 125//125 169//169
f 98//98 126//126 125//125
f 97//97 99//99 170//170
f 97//97 170//170 126//126
f 157//157 156//156 171//171
f 157//157 171//171 159//159
f 159//159 171//171 172//172
f 159//159 173//173 164//164
f 159//159 172//172 173//173
f 156//156 162//162 174//174
f 156//156 175//175 176//176
f 156//156 176//176 171//171
f 156//156 174//174 175//175
f 162//162 167//167 174//174
f 171//171 176//176 177//177
f 171//171 177//177 172//172
f 175//175 178//178 179//179
f 175//175 179//179 176//176
f 175//175 174//174 104//104
f 175//175 104//104 108//108
f 175//175 108//108 178//178
f 176//176 179//179 177//177
f 177//177 179//179 180//180
f 177//177 180//180 172//172
f 178//178 108//108 179//179
f 179//179 181//181 180//180
f 179//179 108//108 182//182
f 179//179 182//182 181//181
f 164//164 173//173 183//183
f 164//164 183//183 184//184
f 164//164 184//184 165//165
f 173//173 172//172 185//185
f 173//173 185//185 183//183
f 172//172 180//180 185//185
f 180//180 181//181 186//186
f 180//180 187//187 185//185
f 180//180 186//186 187//187
f 181//181 182//182 120//120
f 181//181 120//120 130//130
f 181//181 130//130 186//186
f 183//183 185//185 187//187
f 183//183 145//145 146//146
f 183//183 187//187 145//145
f 183//183 188//188 184//184
f 183//183 146//146 188//188
f 145//145 187//187 149//149
f 149//149 187//187 186//186
f 149//149 186//186 150//150
f 186//186 130//130 150//150
f 174//174 167//167 105//105
f 174//174 105//105 104//104
f 108//108 111//111 182//182
f 109//109 169//169 125//125
f 109//109 125//125 115//115
f 182//182 111//111 120//120
f 116//116 126//126 189//189
f 116//116 189//189 118//118
f 126//126 170//170 189//189
f 118//118 189//189 190//190
f 118//118 190//190 127//127
f 127//127 190//190 83//83
f 165//165 191//191 135//135
f 165//165 184//184 191//191
f 191//191 136//136 135//135
f 191//191 192//192 137//137
f 191//191 137//137 136//136
f 191//191 184//184 193//193
f 191//191 193//193 192//192
f 192//192 193//193 194//194
f 192//192 194//194 137//137
f 137//137 194//194 195//195
f 137//137 195//195 138//138
f 138//138 195//195 196//196
f 138//138 196//196 80//80
f 80//80 196//196 81//81
f 99//99 139//139 170//170
f 139//139 140//140 197//197
f 139//139 197//197 170//170
f 140//140 84//84 197//197
f 184//184 188//188 193//193
f 193//193 188//188 194//194
f 188//188 146//146 194//194
f 194//194 146//146 143//143
f 194//194 143//143 196//196
f 194//194 196//196 195//195
f 143//143 82//82 196//196
f 82//82 81//81 196//196
f 189//189 170//170 197//197
f 189//189 197//197 190//190
f 190//190 197//197 84//84
f 190//190 84//84 83//83
# 390 faces, 0 coords texture

# End of File
