####
#
# OBJ File Generated by Meshlab
#
####
# Object matlab_mesh_slc_step17_link2.obj
#
# Vertices: 207
# Faces: 410
#
####
vn -0.270836 -0.455068 6.238230
v 0.038872 0.258616 0.900471
vn -0.270837 -0.455076 6.238229
v 0.039230 0.258403 0.900471
vn 0.000000 0.000000 6.283185
v 0.038991 0.258817 0.900471
vn 0.328349 0.742376 6.170380
v 0.038812 0.258924 0.900471
vn -0.294492 -0.412291 6.237739
v 0.038692 0.258723 0.900471
vn -0.431440 -0.467565 6.215232
v 0.017040 0.267680 0.899894
vn -0.468501 -0.864188 6.125389
v 0.144498 0.195753 0.900471
vn 0.093751 0.157543 6.277832
v 0.039567 0.258516 0.900471
vn 2.205763 -1.866759 3.133086
v 0.145073 0.195452 0.900471
vn 0.093705 0.157450 6.277838
v 0.144834 0.195866 0.900471
vn -0.668257 -0.695981 6.125231
v 0.017011 0.267689 0.899892
vn -3.263393 0.170874 3.450423
v -0.083607 0.066794 0.828364
vn 0.206014 0.392773 6.251719
v 0.039387 0.258623 0.900471
vn 2.831025 -0.387768 2.578366
v 0.145193 0.195653 0.900471
vn 1.397902 -4.328900 0.272902
v 0.034513 0.006766 0.827915
vn 4.606307 -3.589908 2.171142
v 0.034906 0.007500 0.828325
vn 1.211415 -4.302615 1.254574
v 0.034513 0.006767 0.827921
vn 2.729364 -3.377461 4.048624
v 0.034903 0.007499 0.828328
vn 0.199847 -2.699048 5.458264
v 0.034900 0.007499 0.828329
vn -1.012522 -2.022673 5.853999
v -0.076084 0.063028 0.828364
vn -1.003525 -2.147574 5.800838
v 0.033428 0.008208 0.828364
vn -0.918686 -2.177913 5.805787
v 0.034026 0.007949 0.828364
vn 0.217438 0.332373 6.270519
v 0.136406 0.212362 0.899895
vn 5.385587 -0.243417 0.951449
v 0.145247 0.195744 0.900197
vn 5.297813 2.716220 1.992694
v 0.137503 0.212321 0.898901
vn 3.819968 2.028168 3.904465
v 0.137321 0.211892 0.899858
vn 2.830430 1.654086 4.215736
v 0.137306 0.211920 0.899857
vn 0.383031 0.491336 6.247092
v 0.136399 0.212386 0.899894
vn 5.408327 -0.258944 0.908587
v 0.145323 0.195872 0.899780
vn 4.029913 0.495837 -0.774824
v 0.165857 0.230373 0.787394
vn 5.377741 2.664064 1.859245
v 0.137519 0.212291 0.898897
vn 4.658188 -1.678137 -2.493655
v 0.165812 0.230298 0.787360
vn 4.033890 0.055555 -4.802331
v 0.154343 0.245981 0.777634
vn 4.498651 4.038672 1.709007
v 0.154786 0.246654 0.778084
vn 4.458196 3.816811 2.139360
v 0.137451 0.212399 0.898912
vn 4.846396 3.094704 -0.420683
v 0.154762 0.246690 0.778062
vn 4.265177 2.227043 -1.406614
v 0.154740 0.246722 0.778043
vn 5.209036 2.857204 2.022119
v 0.137488 0.212347 0.898904
vn 5.073414 3.064189 2.052724
v 0.137474 0.212369 0.898907
vn 4.854158 3.363874 2.090059
v 0.137462 0.212386 0.898910
vn 0.173910 0.611799 6.218212
v 0.018856 0.271223 0.899895
vn -0.198574 -0.054410 6.278064
v 0.017076 0.267669 0.899895
vn 0.523585 0.766719 6.206656
v 0.136394 0.212406 0.899892
vn 0.644858 1.352947 6.086019
v 0.019454 0.270963 0.899895
vn 0.743422 1.218938 6.102538
v 0.136391 0.212421 0.899890
vn 2.613906 5.494732 1.307658
v 0.059333 0.293729 0.787369
vn 2.791946 5.325655 1.819174
v 0.059909 0.293428 0.787369
vn 2.785125 5.407462 0.383623
v 0.153790 0.247260 0.778027
vn 2.300932 5.590869 1.694837
v 0.036489 0.305939 0.778175
vn 2.089211 5.426236 2.295850
v 0.018945 0.271701 0.898948
vn 2.314280 5.605615 1.609393
v 0.036426 0.305973 0.778147
vn 2.602862 5.615667 0.997520
v 0.037023 0.305713 0.778147
vn 2.629305 5.618758 0.859975
v 0.036966 0.305744 0.778121
vn 2.563994 5.212057 2.356618
v 0.019557 0.271435 0.898946
vn 2.679204 5.154704 2.343146
v 0.136570 0.212857 0.898951
vn 2.417911 5.267581 2.370228
v 0.019542 0.271441 0.898948
vn 2.797236 5.294020 1.904528
v 0.137600 0.214915 0.891717
vn 3.903040 -4.822859 -0.811178
v 0.053793 0.042079 0.709507
vn 4.499979 -3.769612 -1.190545
v 0.053848 0.042170 0.709233
vn 1.466447 -4.534768 -0.170718
v 0.034513 0.006766 0.827906
vn 3.462513 -5.098483 -1.160745
v 0.051750 0.041168 0.707038
vn 1.999837 -5.612315 -0.889168
v 0.034513 0.006767 0.827896
vn 3.316223 -5.235761 -1.017310
v 0.050727 0.039126 0.714211
vn -0.447363 -5.432337 -1.069343
v 0.033184 0.007449 0.822311
vn 2.930037 -5.283485 -1.393618
v 0.051746 0.041167 0.707029
vn -2.637509 -5.682121 0.219188
v 0.033916 0.007025 0.827915
vn -2.753727 -5.379570 -0.218188
v -0.083123 0.065617 0.827928
vn 1.752267 -5.626881 -1.739858
v 0.051742 0.041167 0.707021
vn 0.153586 -5.731743 -2.080294
v 0.051738 0.041169 0.707014
vn -2.424013 -5.287405 -2.325469
v 0.051137 0.041431 0.707009
vn -1.390035 -5.501851 -2.396437
v 0.051735 0.041171 0.707009
vn -2.776101 -5.305023 -1.904637
v -0.066939 0.097966 0.714238
vn -2.675976 -5.158083 -2.338371
v -0.065908 0.100024 0.707003
vn 5.243216 -2.827422 -1.405715
v 0.053967 0.042371 0.709233
vn 4.574328 -3.315465 -2.436264
v 0.051931 0.041597 0.706081
vn 3.783393 -3.511004 -2.784680
v 0.051927 0.041595 0.706076
vn 5.395796 -2.703786 -1.220991
v 0.165702 0.230114 0.787283
vn 5.209829 -2.374831 -2.569589
v 0.053712 0.045144 0.706087
vn 5.009981 -2.211956 -2.990005
v 0.053712 0.045151 0.706081
vn 4.543606 -1.824123 -3.783946
v 0.053712 0.045157 0.706076
vn 3.706402 -1.201078 -4.680136
v 0.053710 0.045163 0.706072
vn 2.448086 -0.349058 -5.445321
v 0.053709 0.045169 0.706070
vn 2.299385 5.623103 1.555066
v 0.036369 0.306004 0.778121
vn 2.634941 5.632415 0.734599
v 0.036916 0.305771 0.778099
vn 2.279396 5.643735 1.487406
v 0.036319 0.306031 0.778099
vn 2.640820 5.646667 0.573464
v 0.036873 0.305793 0.778080
vn 2.252424 5.668766 1.393930
v 0.036275 0.306053 0.778080
vn 4.156744 2.309956 -1.435770
v 0.154720 0.246749 0.778027
vn 0.312238 1.039397 6.083994
v 0.018825 0.271243 0.899894
vn 0.962620 1.999985 5.783215
v 0.019422 0.270983 0.899894
vn 1.144412 2.045283 5.780883
v 0.136389 0.212432 0.899888
vn 2.645100 5.658260 0.342502
v 0.036836 0.305812 0.778063
vn 2.209962 5.699770 1.255225
v 0.036238 0.306072 0.778063
vn 3.001125 -5.404073 -1.110145
v 0.050721 0.039121 0.714219
vn 3.941609 0.143704 -4.873317
v 0.154324 0.246010 0.777620
vn 2.796768 1.820873 4.223865
v 0.137293 0.211943 0.899856
vn 3.996596 2.439067 -1.478476
v 0.154703 0.246771 0.778013
vn 3.605035 4.516894 2.221462
v 0.137442 0.212407 0.898915
vn 0.466787 1.617496 5.781070
v 0.018799 0.271258 0.899892
vn 1.447338 3.025295 5.116244
v 0.019397 0.270999 0.899892
vn 1.882219 3.578444 4.553959
v 0.136390 0.212438 0.899885
vn 2.645141 5.661687 -0.013291
v 0.036806 0.305826 0.778050
vn 2.141105 5.733527 1.046285
v 0.036208 0.306086 0.778050
vn 2.619496 -3.379423 -3.468666
v 0.051923 0.041593 0.706072
vn 3.789255 0.271240 -4.983492
v 0.154308 0.246035 0.777608
vn 3.579616 0.045544 -5.161642
v 0.152649 0.242722 0.776428
vn 2.778233 2.120326 4.214108
v 0.137282 0.211962 0.899854
vn 3.750503 2.618695 -1.537591
v 0.154688 0.246789 0.778003
vn 0.605546 2.331602 5.113987
v 0.018779 0.271270 0.899890
vn -0.895406 -0.600138 6.088009
v 0.016989 0.267695 0.899890
vn 1.929275 4.066555 4.030588
v 0.019377 0.271011 0.899890
vn 2.624057 5.622624 -0.590337
v 0.036782 0.305837 0.778039
vn 2.002257 5.752307 0.672684
v 0.036185 0.306097 0.778039
vn -0.319530 5.411765 1.875756
v 0.018936 0.271703 0.898950
vn -2.586928 -5.566460 1.123338
v 0.033915 0.007026 0.827921
vn 1.037502 -3.022773 -3.971257
v 0.051918 0.041593 0.706070
vn 3.315631 0.236690 -5.327185
v 0.152632 0.242737 0.776417
vn 3.542017 0.467441 -5.139497
v 0.154294 0.246056 0.777599
vn 2.753053 2.610399 4.151101
v 0.137272 0.211977 0.899852
vn 3.318696 2.879947 -1.626049
v 0.154675 0.246802 0.777996
vn 0.358999 2.810706 4.376478
v 0.018765 0.271279 0.899888
vn -1.468614 -0.281286 5.952444
v 0.016973 0.267698 0.899888
vn -3.344020 0.204058 4.128944
v -0.081942 0.070119 0.829548
vn 2.171299 4.783432 3.348941
v 0.019363 0.271019 0.899888
vn 2.502889 4.782709 3.168707
v 0.136392 0.212439 0.899882
vn 2.506782 5.418487 -1.628356
v 0.036765 0.305844 0.778032
vn 1.627383 5.630117 -0.064843
v 0.036168 0.306103 0.778032
vn 2.732644 5.437417 -1.510494
v 0.153790 0.247260 0.778025
vn -2.306274 -4.982879 2.761969
v 0.033914 0.007028 0.827926
vn -2.727384 -5.422714 1.591542
v -0.083129 0.065621 0.827929
vn -0.430606 -2.815794 -4.171750
v 0.051914 0.041593 0.706069
vn 0.644677 -4.155862 2.803063
v 0.034511 0.006769 0.827926
vn 0.560147 1.360733 -6.089416
v -0.063903 0.104018 0.706070
vn 0.595662 1.254322 -6.101795
v -0.063305 0.103758 0.706070
vn 0.204301 0.464574 -6.241915
v -0.063320 0.103761 0.706069
vn 0.520737 1.737549 -6.010470
v -0.064794 0.104477 0.706106
vn -2.226440 2.447759 -2.876184
v 0.035766 0.305381 0.777626
vn 0.178060 0.690017 -6.194085
v -0.063918 0.104021 0.706069
vn -1.254129 1.770500 -5.360314
v -0.064801 0.104475 0.706105
vn 0.806698 1.892818 -5.934170
v 0.036641 0.304929 0.777591
vn 1.001859 2.090287 -5.820364
v 0.037239 0.304669 0.777591
vn 0.892095 2.153089 -5.816566
v 0.036631 0.304936 0.777592
vn 3.098889 0.793950 -5.360567
v 0.154283 0.246072 0.777593
vn 2.850852 0.551790 -5.558683
v 0.152619 0.242749 0.776411
vn 1.259896 0.585030 -5.899101
v 0.053706 0.045174 0.706069
vn 0.221732 0.442896 -6.243895
v 0.046189 0.048937 0.706069
vn 1.300773 1.991896 -5.778177
v 0.154267 0.246091 0.777592
vn -0.506429 -3.555362 4.719706
v 0.034510 0.006772 0.827928
vn 2.671476 3.455966 3.903148
v 0.137264 0.211988 0.899850
vn 2.598679 3.223373 -1.815695
v 0.154664 0.246810 0.777992
vn 3.290071 4.996717 1.890166
v 0.138472 0.214465 0.891683
vn 2.587674 5.172734 -2.390965
v 0.037648 0.305389 0.777996
vn 1.850534 3.757829 -4.213740
v 0.037629 0.305396 0.777992
vn 1.900794 4.283077 -3.690086
v 0.036755 0.305846 0.778027
vn 2.119808 3.782466 -3.533386
v 0.154655 0.246814 0.777990
vn -1.205513 3.030271 3.298589
v 0.018757 0.271283 0.899885
vn -3.251557 0.812938 4.504772
v 0.016964 0.267700 0.899885
vn -0.842328 5.723936 1.508540
v 0.019966 0.273760 0.891718
vn -0.047911 4.234213 -1.350913
v 0.036158 0.306106 0.778027
vn -2.451230 -5.148165 -2.626191
v 0.051133 0.041435 0.707006
vn -1.667402 -3.656361 4.640775
v 0.033912 0.007032 0.827928
vn -2.399525 -4.807411 2.994810
v 0.033031 0.007483 0.827961
vn -2.250368 -4.688750 -3.409548
v 0.051312 0.041854 0.706070
vn -2.194652 -5.111257 -2.914260
v 0.051910 0.041595 0.706070
vn -0.200175 -0.399844 -6.251200
v -0.058193 0.096677 0.706069
vn -1.084515 -2.470351 -4.750911
v 0.051316 0.041853 0.706069
vn -1.183072 -2.118534 -5.378455
v -0.065723 0.100440 0.706070
vn -0.250124 -0.334138 -6.250051
v -0.065710 0.100440 0.706069
vn -1.674514 -3.345094 -4.973879
v -0.058200 0.096674 0.706070
vn -2.286809 -4.265172 -3.769868
v -0.065731 0.100441 0.706073
vn -0.908997 0.350543 -6.146134
v -0.066593 0.100895 0.706105
vn -2.865509 0.039518 -2.608861
v -0.066597 0.100890 0.706105
vn 2.126479 1.412136 -5.622775
v 0.154274 0.246084 0.777591
vn 1.838493 1.157467 -5.836543
v 0.152609 0.242758 0.776407
vn -1.630038 -3.422699 4.816400
v 0.033038 0.007482 0.827964
vn -2.079673 -3.754659 3.739897
v -0.083994 0.066066 0.827964
vn -3.448542 1.886596 -3.026419
v -0.064803 0.104473 0.706105
vn -5.736953 2.536725 -0.041185
v -0.083816 0.066492 0.827021
vn -2.733183 -1.216180 0.937149
v -0.083997 0.066067 0.827964
vn -5.651648 2.634031 0.608106
v 0.016573 0.266976 0.899483
vn -5.881335 2.157863 -0.223696
v -0.067626 0.098833 0.713337
vn -5.889766 2.139521 -0.168904
v -0.083818 0.066487 0.827028
vn -5.622460 2.801205 0.098073
v 0.016751 0.267393 0.898552
vn -5.589164 2.865102 0.103012
v 0.018545 0.270978 0.898552
vn -5.582798 2.881582 0.024767
v 0.019575 0.273036 0.891318
vn -1.142037 -2.641911 5.583269
v 0.033636 0.007222 0.827964
vn 2.706316 4.672550 3.143821
v 0.137257 0.211994 0.899847
vn 2.884361 5.035687 2.337562
v 0.137435 0.212411 0.898916
vn 2.809986 5.287291 1.904425
v 0.138465 0.214469 0.891682
vn 1.225995 2.706005 -5.528549
v 0.037617 0.305399 0.777990
vn 1.395279 2.787399 -5.438646
v 0.147129 0.250582 0.777990
vn 1.299034 2.974396 -5.371948
v 0.036752 0.305845 0.778025
vn -1.342659 -2.307513 5.681741
v -0.083606 0.066789 0.828363
vn -3.780005 3.713694 1.752368
v 0.018756 0.271284 0.899882
vn -5.235839 2.156100 2.014506
v 0.016961 0.267699 0.899882
vn -4.141650 4.240726 0.616678
v 0.019964 0.273759 0.891717
vn -3.891654 4.220764 0.989031
v 0.018933 0.271701 0.898951
vn -1.670152 3.110650 -1.976769
v 0.036154 0.306104 0.778025
vn -3.435665 -4.855919 -1.870796
v -0.067804 0.098411 0.714272
vn -3.377153 -3.396149 -3.211472
v -0.066596 0.100887 0.706107
vn 1.014301 2.268773 -5.761889
v 0.037229 0.304676 0.777592
vn 1.092237 2.182005 -5.780500
v 0.146741 0.249858 0.777592
vn -5.475225 -0.822109 -1.097284
v -0.066775 0.100470 0.707041
vn -5.446137 -0.900329 -1.031772
v -0.067805 0.098413 0.714272
vn -3.916688 -3.933250 -2.170213
v -0.066774 0.100469 0.707038
vn 1.139377 2.635373 -5.587096
v 0.037019 0.305659 0.777990
vn -5.604536 2.825293 0.274708
v 0.018367 0.270560 0.899483
# 207 vertices, 0 vertices normals

f 1//1 2//2 3//3
f 1//1 3//3 4//4
f 1//1 5//5 6//6
f 1//1 4//4 5//5
f 1//1 6//6 2//2
f 2//2 7//7 8//8
f 2//2 8//8 3//3
f 2//2 6//6 7//7
f 7//7 9//9 10//10
f 7//7 10//10 8//8
f 7//7 6//6 11//11
f 7//7 11//11 12//12
f 7//7 12//12 9//9
f 3//3 8//8 13//13
f 3//3 13//13 4//4
f 9//9 14//14 10//10
f 9//9 15//15 14//14
f 9//9 16//16 17//17
f 9//9 17//17 15//15
f 9//9 18//18 16//16
f 9//9 19//19 18//18
f 9//9 20//20 21//21
f 9//9 21//21 22//22
f 9//9 12//12 20//20
f 9//9 22//22 19//19
f 8//8 10//10 23//23
f 8//8 23//23 13//13
f 10//10 14//14 23//23
f 14//14 24//24 25//25
f 14//14 26//26 27//27
f 14//14 25//25 26//26
f 14//14 27//27 28//28
f 14//14 28//28 23//23
f 14//14 15//15 24//24
f 29//29 30//30 31//31
f 29//29 24//24 15//15
f 29//29 31//31 24//24
f 29//29 15//15 30//30
f 30//30 32//32 33//33
f 30//30 34//34 35//35
f 30//30 36//36 34//34
f 30//30 37//37 36//36
f 30//30 25//25 31//31
f 30//30 33//33 37//37
f 30//30 38//38 25//25
f 30//30 39//39 38//38
f 30//30 15//15 32//32
f 30//30 40//40 39//39
f 30//30 35//35 40//40
f 24//24 31//31 25//25
f 5//5 4//4 41//41
f 5//5 42//42 6//6
f 5//5 41//41 42//42
f 4//4 13//13 43//43
f 4//4 44//44 41//41
f 4//4 43//43 45//45
f 4//4 45//45 44//44
f 13//13 23//23 28//28
f 13//13 28//28 43//43
f 46//46 47//47 48//48
f 46//46 49//49 50//50
f 46//46 51//51 49//49
f 46//46 52//52 51//51
f 46//46 53//53 52//52
f 46//46 54//54 55//55
f 46//46 50//50 56//56
f 46//46 56//56 54//54
f 46//46 48//48 53//53
f 46//46 55//55 47//47
f 47//47 57//57 48//48
f 47//47 55//55 57//57
f 58//58 59//59 60//60
f 58//58 61//61 59//59
f 58//58 62//62 63//63
f 58//58 63//63 61//61
f 58//58 60//60 62//62
f 64//64 62//62 60//60
f 64//64 65//65 62//62
f 64//64 60//60 15//15
f 64//64 66//66 67//67
f 64//64 68//68 65//65
f 64//64 15//15 66//66
f 64//64 69//69 68//68
f 64//64 70//70 71//71
f 64//64 71//71 69//69
f 64//64 67//67 72//72
f 64//64 73//73 70//70
f 64//64 72//72 73//73
f 59//59 74//74 15//15
f 59//59 61//61 65//65
f 59//59 75//75 74//74
f 59//59 65//65 76//76
f 59//59 76//76 75//75
f 59//59 15//15 60//60
f 32//32 77//77 78//78
f 32//32 78//78 79//79
f 32//32 79//79 80//80
f 32//32 80//80 81//81
f 32//32 15//15 77//77
f 32//32 81//81 82//82
f 32//32 82//82 33//33
f 77//77 74//74 78//78
f 77//77 15//15 74//74
f 74//74 75//75 78//78
f 49//49 51//51 50//50
f 51//51 52//52 53//53
f 51//51 83//83 50//50
f 51//51 53//53 83//83
f 34//34 36//36 35//35
f 83//83 53//53 84//84
f 83//83 85//85 50//50
f 83//83 84//84 85//85
f 53//53 48//48 84//84
f 36//36 37//37 35//35
f 85//85 84//84 86//86
f 85//85 87//87 50//50
f 85//85 86//86 87//87
f 84//84 48//48 86//86
f 78//78 75//75 79//79
f 26//26 25//25 38//38
f 26//26 38//38 27//27
f 37//37 33//33 88//88
f 37//37 88//88 35//35
f 42//42 41//41 89//89
f 42//42 89//89 6//6
f 41//41 44//44 90//90
f 41//41 90//90 89//89
f 44//44 45//45 91//91
f 44//44 91//91 90//90
f 87//87 86//86 92//92
f 87//87 93//93 50//50
f 87//87 92//92 93//93
f 86//86 48//48 92//92
f 61//61 63//63 65//65
f 62//62 65//65 94//94
f 62//62 94//94 63//63
f 63//63 94//94 65//65
f 75//75 76//76 79//79
f 33//33 95//95 88//88
f 33//33 82//82 95//95
f 79//79 76//76 80//80
f 27//27 38//38 39//39
f 27//27 96//96 28//28
f 27//27 39//39 96//96
f 88//88 95//95 97//97
f 88//88 97//97 98//98
f 88//88 98//98 35//35
f 6//6 89//89 99//99
f 6//6 99//99 11//11
f 89//89 90//90 100//100
f 89//89 100//100 99//99
f 28//28 96//96 43//43
f 90//90 91//91 101//101
f 90//90 101//101 100//100
f 93//93 92//92 102//102
f 93//93 103//103 50//50
f 93//93 102//102 103//103
f 92//92 48//48 102//102
f 65//65 68//68 104//104
f 65//65 104//104 76//76
f 76//76 104//104 80//80
f 95//95 105//105 97//97
f 95//95 106//106 105//105
f 95//95 82//82 106//106
f 80//80 104//104 81//81
f 96//96 39//39 40//40
f 96//96 107//107 43//43
f 96//96 40//40 107//107
f 97//97 105//105 108//108
f 97//97 108//108 98//98
f 11//11 99//99 109//109
f 11//11 110//110 12//12
f 11//11 109//109 110//110
f 99//99 100//100 111//111
f 99//99 111//111 109//109
f 43//43 107//107 45//45
f 100//100 101//101 111//111
f 103//103 102//102 112//112
f 103//103 113//113 114//114
f 103//103 112//112 113//113
f 103//103 114//114 50//50
f 102//102 48//48 112//112
f 66//66 15//15 115//115
f 66//66 115//115 67//67
f 68//68 69//69 116//116
f 68//68 116//116 104//104
f 15//15 17//17 115//115
f 104//104 116//116 81//81
f 105//105 106//106 117//117
f 105//105 118//118 108//108
f 105//105 117//117 118//118
f 106//106 82//82 117//117
f 81//81 116//116 82//82
f 16//16 18//18 17//17
f 107//107 40//40 35//35
f 107//107 119//119 45//45
f 107//107 35//35 119//119
f 108//108 118//118 120//120
f 108//108 120//120 98//98
f 110//110 109//109 121//121
f 110//110 122//122 123//123
f 110//110 121//121 122//122
f 110//110 123//123 12//12
f 109//109 111//111 124//124
f 109//109 124//124 121//121
f 45//45 119//119 91//91
f 111//111 54//54 56//56
f 111//111 56//56 124//124
f 111//111 101//101 125//125
f 111//111 125//125 54//54
f 113//113 112//112 126//126
f 113//113 127//127 114//114
f 113//113 126//126 127//127
f 112//112 48//48 128//128
f 112//112 128//128 126//126
f 54//54 125//125 55//55
f 115//115 17//17 129//129
f 115//115 129//129 130//130
f 115//115 130//130 67//67
f 69//69 71//71 131//131
f 69//69 131//131 116//116
f 17//17 18//18 132//132
f 17//17 132//132 129//129
f 133//133 134//134 135//135
f 133//133 136//136 137//137
f 133//133 138//138 139//139
f 133//133 135//135 138//138
f 133//133 139//139 136//136
f 133//133 140//140 141//141
f 133//133 141//141 134//134
f 133//133 142//142 140//140
f 133//133 137//137 142//142
f 116//116 131//131 82//82
f 118//118 117//117 143//143
f 118//118 143//143 120//120
f 117//117 82//82 144//144
f 117//117 144//144 143//143
f 82//82 131//131 145//145
f 82//82 145//145 144//144
f 134//134 145//145 146//146
f 134//134 146//146 135//135
f 134//134 141//141 147//147
f 134//134 147//147 145//145
f 136//136 139//139 137//137
f 18//18 19//19 148//148
f 18//18 148//148 132//132
f 119//119 35//35 98//98
f 119//119 149//149 91//91
f 119//119 98//98 149//149
f 120//120 143//143 150//150
f 120//120 151//151 98//98
f 120//120 150//150 151//151
f 152//152 126//126 128//128
f 152//152 153//153 154//154
f 152//152 154//154 126//126
f 152//152 155//155 153//153
f 152//152 128//128 155//155
f 122//122 121//121 156//156
f 122//122 157//157 123//123
f 122//122 156//156 157//157
f 121//121 124//124 56//56
f 121//121 50//50 156//156
f 121//121 56//56 50//50
f 91//91 149//149 101//101
f 127//127 126//126 154//154
f 127//127 158//158 114//114
f 127//127 159//159 158//158
f 127//127 154//154 159//159
f 50//50 114//114 156//156
f 70//70 160//160 71//71
f 70//70 73//73 160//160
f 129//129 132//132 161//161
f 129//129 162//162 130//130
f 129//129 161//161 162//162
f 71//71 160//160 163//163
f 71//71 163//163 164//164
f 71//71 164//164 131//131
f 132//132 148//148 161//161
f 165//165 166//166 167//167
f 165//165 168//168 135//135
f 165//165 135//135 146//146
f 165//165 146//146 166//166
f 165//165 167//167 168//168
f 166//166 131//131 163//163
f 166//166 145//145 131//131
f 166//166 146//146 145//145
f 166//166 169//169 167//167
f 166//166 163//163 170//170
f 166//166 170//170 169//169
f 168//168 138//138 135//135
f 168//168 171//171 138//138
f 168//168 167//167 172//172
f 168//168 172//172 171//171
f 138//138 171//171 139//139
f 131//131 164//164 163//163
f 143//143 144//144 173//173
f 143//143 173//173 150//150
f 144//144 145//145 174//174
f 144//144 174//174 173//173
f 145//145 147//147 174//174
f 162//162 161//161 175//175
f 162//162 175//175 176//176
f 162//162 176//176 130//130
f 171//171 172//172 177//177
f 171//171 177//177 139//139
f 178//178 179//179 180//180
f 178//178 172//172 181//181
f 178//178 182//182 179//179
f 178//178 181//181 182//182
f 178//178 180//180 183//183
f 178//178 183//183 184//184
f 178//178 185//185 137//137
f 178//178 137//137 172//172
f 178//178 184//184 185//185
f 139//139 177//177 137//137
f 19//19 22//22 186//186
f 19//19 186//186 148//148
f 149//149 98//98 187//187
f 149//149 187//187 101//101
f 151//151 150//150 188//188
f 151//151 188//188 98//98
f 150//150 48//48 189//189
f 150//150 173//173 155//155
f 150//150 189//189 188//188
f 150//150 155//155 128//128
f 150//150 128//128 48//48
f 98//98 188//188 187//187
f 153//153 141//141 190//190
f 153//153 155//155 191//191
f 153//153 190//190 192//192
f 153//153 191//191 141//141
f 153//153 192//192 154//154
f 20//20 12//12 193//193
f 20//20 193//193 21//21
f 21//21 175//175 186//186
f 21//21 186//186 22//22
f 21//21 193//193 176//176
f 21//21 176//176 175//175
f 157//157 156//156 194//194
f 157//157 195//195 123//123
f 157//157 194//194 195//195
f 123//123 195//195 12//12
f 12//12 179//179 176//176
f 12//12 195//195 179//179
f 12//12 176//176 193//193
f 156//156 114//114 194//194
f 101//101 187//187 125//125
f 158//158 159//159 196//196
f 158//158 196//196 197//197
f 158//158 197//197 114//114
f 159//159 154//154 192//192
f 159//159 198//198 196//196
f 159//159 192//192 198//198
f 114//114 197//197 194//194
f 48//48 57//57 189//189
f 160//160 73//73 170//170
f 160//160 170//170 163//163
f 161//161 148//148 175//175
f 67//67 179//179 199//199
f 67//67 130//130 179//179
f 67//67 199//199 72//72
f 148//148 186//186 175//175
f 169//169 170//170 167//167
f 167//167 170//170 200//200
f 167//167 200//200 172//172
f 140//140 142//142 201//201
f 140//140 201//201 141//141
f 173//173 174//174 147//147
f 173//173 147//147 155//155
f 141//141 191//191 202//202
f 141//141 201//201 190//190
f 141//141 202//202 147//147
f 203//203 204//204 181//181
f 203//203 172//172 200//200
f 203//203 181//181 172//172
f 203//203 205//205 204//204
f 203//203 200//200 205//205
f 179//179 204//204 205//205
f 179//179 182//182 204//204
f 179//179 195//195 180//180
f 179//179 130//130 176//176
f 179//179 205//205 199//199
f 204//204 182//182 181//181
f 172//172 137//137 177//177
f 187//187 188//188 55//55
f 187//187 55//55 125//125
f 206//206 190//190 201//201
f 206//206 198//198 192//192
f 206//206 192//192 190//190
f 206//206 142//142 137//137
f 206//206 201//201 142//142
f 206//206 137//137 198//198
f 189//189 57//57 188//188
f 155//155 147//147 191//191
f 188//188 57//57 55//55
f 191//191 147//147 202//202
f 195//195 194//194 207//207
f 195//195 207//207 180//180
f 194//194 197//197 207//207
f 196//196 198//198 185//185
f 196//196 185//185 184//184
f 196//196 184//184 197//197
f 198//198 137//137 185//185
f 197//197 184//184 207//207
f 73//73 72//72 205//205
f 73//73 205//205 200//200
f 73//73 200//200 170//170
f 72//72 199//199 205//205
f 180//180 207//207 183//183
f 207//207 184//184 183//183
# 410 faces, 0 coords texture

# End of File
