####
#
# OBJ File Generated by Meshlab
#
####
# Object matlab_mesh_step10_link2.obj
#
# Vertices: 206
# Faces: 408
#
####
vn 1.168905 -2.697061 3.159265
v 0.185605 0.108961 0.922226
vn 2.684721 -1.771388 2.833874
v 0.185787 0.109108 0.922226
vn -0.086911 -0.510357 6.235623
v 0.181518 0.126447 0.923773
vn -0.748031 -0.757043 6.192380
v 0.170863 0.136169 0.923773
vn -0.738215 -0.438065 6.137816
v 0.079231 0.227348 0.923774
vn -0.615331 -0.654750 6.216592
v 0.173382 0.133694 0.923773
vn -1.917150 0.214670 5.455647
v 0.079217 0.227356 0.923772
vn -0.000030 -4.184382 1.105341
v 0.032770 -0.023023 0.816290
vn -3.554926 -0.587876 4.422212
v -0.068994 0.078366 0.816845
vn -2.347310 -2.374451 5.298486
v 0.022624 -0.012769 0.816847
vn -2.287215 -2.442373 5.289507
v 0.025122 -0.015222 0.816846
vn 0.262512 -3.693962 3.718390
v 0.033290 -0.022494 0.816846
vn 0.135903 -3.944555 2.670805
v 0.032772 -0.023021 0.816294
vn 4.841852 -2.243913 1.442507
v 0.185926 0.109221 0.921954
vn 5.635104 0.221259 2.757478
v 0.184832 0.129754 0.922824
vn 5.076637 0.089245 3.617847
v 0.184336 0.129249 0.923770
vn 2.879165 0.002563 4.608277
v 0.184334 0.129277 0.923773
vn 4.905780 -2.293039 1.317238
v 0.186094 0.109357 0.921567
vn 4.142896 -0.876787 -0.283987
v 0.231182 0.145912 0.817291
vn 4.216491 -2.897865 -2.317786
v 0.231099 0.145845 0.817221
vn 4.548923 -0.839469 -4.218749
v 0.226044 0.171184 0.805939
vn 5.422666 2.005425 2.445741
v 0.226591 0.171593 0.806560
vn 5.234625 1.552540 3.001895
v 0.184818 0.129817 0.922839
vn 5.687805 1.728102 1.552382
v 0.226584 0.171641 0.806536
vn 5.387561 1.077126 -0.041862
v 0.226577 0.171683 0.806516
vn 4.932160 0.917408 -0.593049
v 0.226569 0.171718 0.806499
vn 5.584887 0.436679 2.815700
v 0.184828 0.129780 0.922830
vn 5.477567 0.868529 2.900894
v 0.184823 0.129801 0.922835
vn 4.030902 4.201367 2.092499
v 0.153022 0.242260 0.817267
vn 3.572704 4.347722 2.794321
v 0.129360 0.267332 0.808519
vn 3.403783 4.086229 3.290774
v 0.082567 0.230670 0.922836
vn 3.659169 4.374453 2.624739
v 0.129071 0.267646 0.808401
vn 3.737128 4.393558 2.451845
v 0.128791 0.267949 0.808287
vn 3.777312 4.403589 2.346570
v 0.128518 0.268243 0.808176
vn 4.043476 4.448758 1.826464
v 0.133038 0.264694 0.806875
vn 4.082144 4.447049 1.738590
v 0.132960 0.264786 0.806824
vn 4.128971 4.443788 1.621562
v 0.132888 0.264871 0.806775
vn 4.178957 4.436846 1.485924
v 0.132821 0.264949 0.806731
vn 4.185691 4.444812 1.439487
v 0.132759 0.265021 0.806690
vn 4.351001 4.395236 1.106973
v 0.135188 0.262648 0.806617
vn 3.657457 4.123600 3.013716
v 0.082637 0.230617 0.922824
vn 3.586592 3.878155 3.358739
v 0.090717 0.223412 0.922836
vn 3.524133 4.040868 3.243721
v 0.082598 0.230647 0.922830
vn 3.740957 3.897274 3.191179
v 0.090734 0.223400 0.922830
vn 3.809785 3.844631 3.182640
v 0.093252 0.220925 0.922830
vn 3.951514 3.492533 3.331773
v 0.184805 0.129835 0.922844
vn 3.907855 2.193308 -1.001309
v 0.226547 0.171783 0.806470
vn 3.606245 3.076550 -1.845435
v 0.226540 0.171791 0.806468
vn -3.009194 -4.666224 -1.630402
v 0.027908 -0.018893 0.809207
vn -2.489664 -5.183243 -0.990252
v 0.032752 -0.023014 0.816263
vn -4.244754 -4.628109 0.118213
v 0.024624 -0.015772 0.816274
vn 0.217476 -4.394867 -1.686170
v 0.074501 0.018919 0.699944
vn -4.242205 -4.547262 0.579628
v 0.024616 -0.015765 0.816283
vn -4.411969 -4.455094 0.224384
v 0.022103 -0.013296 0.816284
vn -3.520840 -1.724825 1.142757
v -0.069509 0.077841 0.816296
vn -3.673786 -4.074177 -3.060914
v 0.066355 0.026181 0.699934
vn -3.775488 -3.819673 -3.245968
v 0.063841 0.028655 0.699928
vn -3.607439 -3.850213 -3.372119
v 0.066346 0.026194 0.699927
vn -4.032432 0.183793 -1.701499
v -0.027774 0.119798 0.699920
vn -4.596440 -3.128886 -2.776436
v -0.031372 0.116180 0.709953
vn 3.565334 -4.994296 -0.947867
v 0.074995 0.019421 0.699001
vn 0.972298 -3.998677 -2.520247
v 0.074996 0.019423 0.698996
vn 4.379550 -4.351448 -1.166515
v 0.077812 0.022251 0.699001
vn 3.969471 -3.712264 -2.648855
v 0.077817 0.022258 0.698996
vn 2.753435 -1.727499 -4.378748
v 0.077820 0.022264 0.698993
vn 3.774635 4.409617 2.337384
v 0.128253 0.268527 0.808069
vn 3.772007 4.415514 2.328263
v 0.127996 0.268801 0.807965
vn 3.769392 4.421626 2.318305
v 0.127748 0.269066 0.807864
vn 3.766946 4.427691 2.308094
v 0.127508 0.269322 0.807767
vn 3.764700 4.433615 2.297582
v 0.127276 0.269567 0.807674
vn 3.762408 4.439742 2.286374
v 0.127053 0.269803 0.807584
vn 3.760458 4.445405 2.275711
v 0.126838 0.270030 0.807497
vn 3.758415 4.451582 2.263241
v 0.126631 0.270247 0.807414
vn 4.191218 4.455441 1.386797
v 0.132703 0.265086 0.806652
vn 3.756628 4.457212 2.252006
v 0.126433 0.270455 0.807335
vn 3.754772 4.463372 2.238611
v 0.126243 0.270653 0.807259
vn 4.198121 4.467515 1.322993
v 0.132652 0.265145 0.806618
vn 3.753053 4.469353 2.225703
v 0.126062 0.270842 0.807186
vn 3.751376 4.475461 2.211617
v 0.125889 0.271021 0.807117
vn 3.749556 4.481951 2.196555
v 0.125725 0.271191 0.807051
vn 3.161563 4.281859 3.260311
v 0.082544 0.230685 0.922840
vn 4.206633 4.480845 1.244802
v 0.132606 0.265197 0.806587
vn 3.747885 4.488351 2.181154
v 0.125570 0.271352 0.806989
vn 3.746212 4.495215 2.163637
v 0.125423 0.271503 0.806930
vn 3.744276 4.502453 2.145191
v 0.125284 0.271644 0.806875
vn 4.218017 4.496885 1.136529
v 0.132565 0.265242 0.806560
vn 3.742540 4.510076 2.124409
v 0.125155 0.271777 0.806824
vn 3.740216 4.518325 2.101946
v 0.125034 0.271899 0.806775
vn 3.738031 4.527140 2.076659
v 0.124922 0.272013 0.806731
vn 4.232310 4.515853 0.992272
v 0.132530 0.265281 0.806536
vn 3.735237 4.537536 2.044889
v 0.124818 0.272117 0.806690
vn 3.731811 4.548917 2.010210
v 0.124723 0.272212 0.806652
vn 4.359056 4.403939 1.036551
v 0.135140 0.262702 0.806587
vn 3.727900 4.561355 1.969414
v 0.124637 0.272298 0.806618
vn 4.248613 4.536365 0.791850
v 0.132500 0.265313 0.806516
vn 3.722299 4.576756 1.915276
v 0.124560 0.272374 0.806587
vn 4.370245 4.416459 0.929349
v 0.135097 0.262752 0.806560
vn 3.714595 4.594842 1.848724
v 0.124491 0.272441 0.806560
vn 4.383572 4.430975 0.781697
v 0.135058 0.262795 0.806536
vn 3.703124 4.616899 1.755740
v 0.124432 0.272498 0.806536
vn 4.265254 4.557092 0.487092
v 0.132475 0.265338 0.806500
vn 3.684358 4.643418 1.629261
v 0.124381 0.272547 0.806516
vn 4.398127 4.446621 0.579753
v 0.135023 0.262832 0.806516
vn 4.603112 2.625900 3.143461
v 0.184811 0.129828 0.922842
vn 3.648103 4.675000 1.427215
v 0.124339 0.272586 0.806500
vn 4.268584 4.564469 -0.015051
v 0.132456 0.265357 0.806486
vn 4.410551 4.459871 0.280517
v 0.134994 0.262863 0.806499
vn -0.281797 -5.817204 -2.198302
v 0.070916 0.015316 0.709936
vn -2.061822 -5.200591 -0.628614
v 0.032760 -0.023019 0.816274
vn -0.381952 -0.384252 6.236115
v 0.170848 0.136192 0.923774
vn -0.333335 -0.342277 6.247949
v 0.173361 0.133724 0.923774
vn -0.104679 -0.278426 6.263649
v 0.181511 0.126466 0.923774
vn 2.718175 0.303124 4.660057
v 0.184332 0.129300 0.923774
vn 3.564452 4.704862 1.093318
v 0.124305 0.272615 0.806486
vn 4.406568 4.456505 -0.232188
v 0.134968 0.262889 0.806486
vn 3.389837 3.778710 3.701356
v 0.090705 0.223419 0.922840
vn 3.652392 3.703735 3.510399
v 0.093229 0.220943 0.922835
vn 4.433161 -0.580178 -4.369052
v 0.226039 0.171214 0.805929
vn 4.768040 1.164166 -0.657747
v 0.226562 0.171746 0.806486
vn -0.296077 -4.579385 -2.325375
v 0.074505 0.018923 0.699934
vn -1.215905 -5.028432 0.008153
v 0.032766 -0.023023 0.816283
vn -0.103866 -0.075045 6.280050
v 0.079254 0.227335 0.923774
vn -0.097177 -0.097659 6.280163
v 0.084038 0.222575 0.923774
vn 1.637797 1.916374 5.002623
v 0.082075 0.230169 0.923774
vn 1.409167 2.060749 4.959777
v 0.082055 0.230187 0.923774
vn 1.744029 1.835955 5.000659
v 0.090225 0.222911 0.923774
vn -0.005528 -0.006525 6.283173
v 0.178998 0.128934 0.923774
vn 0.047532 0.047767 6.282463
v 0.177036 0.136529 0.923774
vn 0.047588 0.047521 6.282462
v 0.181819 0.131769 0.923774
vn 2.875827 3.199632 4.460082
v 0.090215 0.222921 0.923774
vn 1.818796 1.839136 5.017865
v 0.092738 0.220443 0.923774
vn 0.095611 0.096084 6.281723
v 0.179548 0.134060 0.923774
vn 2.670175 0.723243 4.707837
v 0.184328 0.129319 0.923773
vn 2.864810 1.645358 4.669686
v 0.184325 0.129333 0.923772
vn 3.343220 2.998135 4.268395
v 0.184321 0.129342 0.923769
vn 4.180039 4.478703 -0.997671
v 0.132442 0.265370 0.806477
vn 3.309523 4.672255 0.434622
v 0.124281 0.272636 0.806477
vn 1.922661 4.925564 2.975929
v 0.082530 0.230692 0.922843
vn 4.309128 4.358849 -1.189630
v 0.134947 0.262908 0.806476
vn 4.465647 1.577621 -0.762535
v 0.226555 0.171768 0.806476
vn -4.237598 -4.282622 1.489677
v 0.022104 -0.013295 0.816291
vn -3.141903 -3.966071 -3.709587
v 0.074507 0.018928 0.699927
vn 0.098402 -2.688838 -4.090744
v 0.074996 0.019426 0.698993
vn -4.002384 -4.276690 1.923719
v 0.024609 -0.015757 0.816290
vn 1.852321 2.108430 -5.621056
v -0.024439 0.123127 0.698996
vn 0.989915 1.732061 -5.795125
v -0.024454 0.123132 0.698994
vn -0.977282 3.352001 -2.747940
v 0.123744 0.272125 0.805919
vn 1.288409 1.383702 -5.899275
v -0.016293 0.115866 0.698994
vn 1.858973 2.081978 -5.628727
v 0.123748 0.272120 0.805919
vn 2.260097 2.417212 -5.308332
v 0.131915 0.264850 0.805919
vn 4.171774 -0.100079 -4.626184
v 0.226034 0.171238 0.805922
vn 3.844209 -0.274100 -4.946594
v 0.223583 0.168774 0.804153
vn 2.030708 0.194704 -5.381787
v 0.077820 0.022270 0.698993
vn 0.338575 2.690688 4.479908
v 0.082043 0.230197 0.923772
vn 3.485060 3.776730 -3.086669
v 0.132433 0.265375 0.806471
vn 1.710085 5.379934 2.552898
v 0.086127 0.234308 0.912813
vn 2.014897 4.092324 -0.869221
v 0.124265 0.272647 0.806471
vn 3.584386 3.629275 -3.229690
v 0.134931 0.262922 0.806470
vn 4.481791 3.365926 2.820857
v 0.188408 0.133444 0.912813
vn -3.603162 -3.643124 -3.632510
v 0.063842 0.028659 0.699923
vn -3.356819 -3.399818 3.726344
v 0.022107 -0.013296 0.816295
vn -3.012525 -3.341812 -4.311603
v 0.066835 0.026692 0.698993
vn -3.537053 -3.638896 -3.703445
v 0.066340 0.026205 0.699922
vn -1.747064 -1.829458 -5.004287
v 0.066827 0.026701 0.698993
vn -3.260117 -3.413305 3.826275
v 0.024604 -0.015749 0.816294
vn 0.324630 0.342499 -6.248830
v -0.016294 0.115863 0.698993
vn -1.656150 2.446106 -3.167621
v -0.024462 0.123134 0.698993
vn 1.380259 1.394601 -5.894378
v -0.013788 0.113405 0.698993
vn 0.382568 0.389386 -6.235397
v -0.013796 0.113409 0.698993
vn 2.323444 2.350968 -5.315807
v 0.134404 0.262405 0.805919
vn -0.508335 -0.984326 -6.022735
v 0.074994 0.019429 0.698993
vn 0.390198 0.392242 -6.234083
v 0.073026 0.027039 0.698993
vn 2.330769 2.343117 -5.316760
v 0.221229 0.176038 0.805919
vn 2.757209 1.918634 -5.208587
v 0.226025 0.171267 0.805919
vn 1.933052 2.094839 -5.598386
v 0.223571 0.168800 0.804148
vn 3.165860 0.669741 -5.321383
v 0.223576 0.168790 0.804148
vn 3.532844 0.840512 -4.977193
v 0.226030 0.171256 0.805918
vn -1.837300 3.769129 2.491017
v 0.082039 0.230199 0.923769
vn -3.481864 2.123716 2.843691
v 0.079212 0.227357 0.923769
vn -3.403386 -0.335781 5.185275
v -0.066540 0.080833 0.818616
vn -3.954531 0.444507 4.861949
v -0.066539 0.080836 0.818617
vn -4.226001 2.357048 2.422458
v -0.068992 0.078370 0.816847
vn -4.468044 4.417507 0.003086
v -0.068506 0.078866 0.815917
vn -4.508785 4.375466 -0.034354
v -0.069023 0.078339 0.815365
vn -3.991978 0.088947 -0.286107
v -0.069510 0.077843 0.816295
vn -4.456324 4.429343 0.015639
v 0.079696 0.227850 0.922845
vn -4.455284 4.430379 -0.017000
v -0.026770 0.120820 0.699545
vn -4.456394 4.429330 -0.001381
v -0.030367 0.117204 0.709574
vn -4.426032 4.457965 -0.082314
v -0.023948 0.123657 0.699544
vn -4.461098 4.424424 -0.026267
v -0.026775 0.120815 0.699544
vn -1.596933 4.855411 1.570596
v 0.082523 0.230692 0.922845
vn -1.846074 5.103017 1.177712
v 0.086122 0.234310 0.912811
vn -0.194505 3.584933 -1.195635
v 0.124259 0.272649 0.806468
vn -4.424360 4.459641 -0.081652
v 0.121804 0.270182 0.804697
vn 2.722609 2.932950 -4.828871
v 0.132430 0.265375 0.806468
vn 2.806438 2.847551 -4.836697
v 0.134919 0.262930 0.806468
vn 2.811047 2.825939 -4.848232
v 0.221744 0.176562 0.806468
vn -3.241299 0.497666 -2.371710
v -0.027290 0.120291 0.698995
vn -1.819330 -1.839935 -5.017461
v 0.064329 0.029154 0.698993
vn -2.390656 1.432652 -3.006931
v -0.027288 0.120293 0.698993
vn -0.985106 -0.990269 -5.987596
v -0.022494 0.115524 0.698993
vn -0.048032 -0.047979 -6.282449
v -0.024790 0.117840 0.698993
vn -4.430939 4.444644 -0.232762
v -0.024463 0.123133 0.698995
vn -0.047966 -0.048218 -6.282449
v -0.019996 0.113071 0.698993
vn 0.005558 0.006563 -6.283173
v -0.021964 0.120681 0.698993
vn -4.582731 4.206320 0.490830
v 0.121289 0.269657 0.804148
# 206 vertices, 0 vertices normals

f 1//1 2//2 3//3
f 1//1 4//4 5//5
f 1//1 6//6 4//4
f 1//1 3//3 6//6
f 1//1 5//5 7//7
f 1//1 8//8 2//2
f 1//1 7//7 9//9
f 1//1 10//10 11//11
f 1//1 11//11 12//12
f 1//1 12//12 13//13
f 1//1 13//13 8//8
f 1//1 9//9 10//10
f 2//2 14//14 15//15
f 2//2 16//16 17//17
f 2//2 15//15 16//16
f 2//2 17//17 3//3
f 2//2 8//8 14//14
f 18//18 19//19 15//15
f 18//18 14//14 8//8
f 18//18 15//15 14//14
f 18//18 8//8 19//19
f 19//19 20//20 21//21
f 19//19 22//22 23//23
f 19//19 24//24 22//22
f 19//19 25//25 24//24
f 19//19 26//26 25//25
f 19//19 27//27 15//15
f 19//19 21//21 26//26
f 19//19 28//28 27//27
f 19//19 23//23 28//28
f 19//19 8//8 20//20
f 29//29 30//30 31//31
f 29//29 32//32 30//30
f 29//29 33//33 32//32
f 29//29 34//34 33//33
f 29//29 35//35 34//34
f 29//29 36//36 35//35
f 29//29 37//37 36//36
f 29//29 38//38 37//37
f 29//29 39//39 38//38
f 29//29 40//40 39//39
f 29//29 41//41 42//42
f 29//29 43//43 41//41
f 29//29 44//44 45//45
f 29//29 45//45 46//46
f 29//29 31//31 43//43
f 29//29 42//42 44//44
f 29//29 47//47 48//48
f 29//29 48//48 40//40
f 29//29 46//46 47//47
f 49//49 50//50 51//51
f 49//49 52//52 50//50
f 49//49 51//51 53//53
f 49//49 54//54 55//55
f 49//49 56//56 52//52
f 49//49 53//53 54//54
f 49//49 57//57 58//58
f 49//49 58//58 56//56
f 49//49 59//59 57//57
f 49//49 55//55 60//60
f 49//49 60//60 59//59
f 20//20 52//52 61//61
f 20//20 61//61 62//62
f 20//20 63//63 64//64
f 20//20 62//62 63//63
f 20//20 64//64 65//65
f 20//20 8//8 52//52
f 20//20 65//65 21//21
f 30//30 32//32 31//31
f 32//32 33//33 31//31
f 33//33 34//34 31//31
f 34//34 66//66 31//31
f 34//34 35//35 36//36
f 34//34 36//36 66//66
f 66//66 67//67 31//31
f 66//66 36//36 67//67
f 67//67 68//68 31//31
f 67//67 36//36 37//37
f 67//67 37//37 68//68
f 68//68 69//69 31//31
f 68//68 37//37 38//38
f 68//68 38//38 69//69
f 69//69 70//70 31//31
f 69//69 38//38 70//70
f 70//70 71//71 31//31
f 70//70 38//38 39//39
f 70//70 39//39 71//71
f 71//71 72//72 31//31
f 71//71 39//39 72//72
f 72//72 73//73 31//31
f 72//72 39//39 74//74
f 72//72 74//74 73//73
f 73//73 75//75 31//31
f 73//73 74//74 75//75
f 75//75 76//76 31//31
f 75//75 74//74 77//77
f 75//75 77//77 76//76
f 76//76 78//78 31//31
f 76//76 77//77 78//78
f 78//78 79//79 31//31
f 78//78 77//77 79//79
f 79//79 80//80 81//81
f 79//79 77//77 82//82
f 79//79 82//82 80//80
f 79//79 81//81 31//31
f 80//80 83//83 81//81
f 80//80 82//82 83//83
f 83//83 84//84 81//81
f 83//83 82//82 84//84
f 84//84 85//85 81//81
f 84//84 82//82 86//86
f 84//84 86//86 85//85
f 85//85 87//87 81//81
f 85//85 86//86 87//87
f 87//87 88//88 81//81
f 87//87 86//86 88//88
f 88//88 89//89 81//81
f 88//88 86//86 90//90
f 88//88 90//90 89//89
f 89//89 91//91 81//81
f 89//89 90//90 91//91
f 91//91 92//92 81//81
f 91//91 90//90 92//92
f 39//39 40//40 93//93
f 39//39 93//93 74//74
f 92//92 94//94 81//81
f 92//92 90//90 95//95
f 92//92 95//95 94//94
f 74//74 93//93 77//77
f 94//94 96//96 81//81
f 94//94 95//95 96//96
f 77//77 93//93 97//97
f 77//77 97//97 82//82
f 40//40 48//48 93//93
f 96//96 98//98 81//81
f 96//96 95//95 98//98
f 82//82 97//97 99//99
f 82//82 99//99 86//86
f 93//93 48//48 97//97
f 98//98 100//100 81//81
f 98//98 95//95 101//101
f 98//98 101//101 100//100
f 86//86 99//99 90//90
f 97//97 48//48 99//99
f 22//22 24//24 23//23
f 100//100 102//102 81//81
f 100//100 101//101 102//102
f 90//90 99//99 103//103
f 90//90 103//103 95//95
f 99//99 48//48 103//103
f 24//24 25//25 104//104
f 24//24 104//104 23//23
f 16//16 15//15 17//17
f 102//102 105//105 81//81
f 102//102 101//101 106//106
f 102//102 106//106 105//105
f 95//95 103//103 107//107
f 95//95 107//107 101//101
f 41//41 43//43 42//42
f 103//103 48//48 107//107
f 25//25 26//26 104//104
f 15//15 27//27 17//17
f 50//50 52//52 108//108
f 50//50 109//109 53//53
f 50//50 108//108 109//109
f 50//50 53//53 51//51
f 4//4 6//6 110//110
f 4//4 110//110 5//5
f 6//6 3//3 111//111
f 6//6 111//111 110//110
f 3//3 17//17 112//112
f 3//3 112//112 111//111
f 17//17 27//27 113//113
f 17//17 113//113 112//112
f 105//105 114//114 81//81
f 105//105 106//106 114//114
f 101//101 107//107 115//115
f 101//101 115//115 106//106
f 43//43 31//31 116//116
f 43//43 116//116 42//42
f 44//44 42//42 117//117
f 44//44 117//117 45//45
f 107//107 48//48 115//115
f 45//45 117//117 46//46
f 26//26 21//21 118//118
f 26//26 119//119 104//104
f 26//26 118//118 119//119
f 27//27 28//28 113//113
f 52//52 56//56 58//58
f 52//52 120//120 61//61
f 52//52 121//121 108//108
f 52//52 58//58 120//120
f 52//52 8//8 121//121
f 109//109 108//108 121//121
f 109//109 121//121 53//53
f 61//61 120//120 62//62
f 21//21 65//65 118//118
f 63//63 62//62 64//64
f 122//122 123//123 124//124
f 122//122 124//124 125//125
f 122//122 5//5 123//123
f 122//122 125//125 5//5
f 123//123 110//110 126//126
f 123//123 126//126 124//124
f 123//123 5//5 110//110
f 110//110 127//127 128//128
f 110//110 128//128 126//126
f 110//110 111//111 127//127
f 127//127 129//129 128//128
f 127//127 111//111 112//112
f 127//127 112//112 129//129
f 124//124 126//126 130//130
f 124//124 31//31 125//125
f 124//124 130//130 31//31
f 126//126 128//128 131//131
f 126//126 131//131 117//117
f 126//126 42//42 130//130
f 126//126 117//117 42//42
f 128//128 129//129 132//132
f 128//128 132//132 131//131
f 129//129 112//112 113//113
f 129//129 113//113 132//132
f 131//131 132//132 133//133
f 131//131 133//133 134//134
f 131//131 134//134 135//135
f 131//131 135//135 117//117
f 132//132 113//113 133//133
f 113//113 28//28 133//133
f 114//114 106//106 136//136
f 114//114 137//137 138//138
f 114//114 136//136 137//137
f 114//114 138//138 81//81
f 106//106 115//115 139//139
f 106//106 139//139 136//136
f 31//31 130//130 116//116
f 31//31 81//81 125//125
f 42//42 116//116 130//130
f 115//115 48//48 139//139
f 117//117 135//135 46//46
f 119//119 118//118 140//140
f 119//119 140//140 104//104
f 28//28 23//23 133//133
f 54//54 53//53 141//141
f 54//54 141//141 55//55
f 120//120 58//58 142//142
f 120//120 142//142 143//143
f 120//120 143//143 62//62
f 53//53 121//121 144//144
f 53//53 144//144 141//141
f 121//121 8//8 144//144
f 145//145 146//146 147//147
f 145//145 148//148 146//146
f 145//145 149//149 150//150
f 145//145 147//147 149//149
f 145//145 150//150 148//148
f 62//62 143//143 64//64
f 118//118 151//151 140//140
f 118//118 152//152 151//151
f 118//118 65//65 153//153
f 118//118 153//153 152//152
f 64//64 143//143 65//65
f 5//5 125//125 154//154
f 5//5 154//154 7//7
f 125//125 81//81 154//154
f 133//133 23//23 134//134
f 137//137 136//136 155//155
f 137//137 156//156 138//138
f 137//137 157//157 156//156
f 137//137 155//155 157//157
f 136//136 139//139 158//158
f 136//136 158//158 155//155
f 81//81 138//138 154//154
f 139//139 48//48 158//158
f 140//140 151//151 47//47
f 140//140 159//159 104//104
f 140//140 47//47 159//159
f 23//23 104//104 134//134
f 57//57 160//160 58//58
f 57//57 59//59 160//160
f 141//141 144//144 161//161
f 141//141 161//161 55//55
f 58//58 162//162 142//142
f 58//58 160//160 163//163
f 58//58 163//163 164//164
f 58//58 164//164 162//162
f 142//142 162//162 143//143
f 144//144 8//8 165//165
f 144//144 165//165 161//161
f 8//8 13//13 165//165
f 146//146 148//148 166//166
f 146//146 167//167 147//147
f 146//146 166//166 167//167
f 148//148 168//168 169//169
f 148//148 169//169 166//166
f 148//148 150//150 170//170
f 148//148 170//170 168//168
f 162//162 164//164 143//143
f 143//143 164//164 171//171
f 143//143 171//171 65//65
f 168//168 172//172 169//169
f 168//168 153//153 172//172
f 168//168 170//170 173//173
f 168//168 173//173 174//174
f 168//168 174//174 175//175
f 168//168 175//175 153//153
f 151//151 152//152 176//176
f 151//151 177//177 47//47
f 151//151 176//176 177//177
f 152//152 153//153 176//176
f 65//65 171//171 153//153
f 7//7 154//154 178//178
f 7//7 179//179 180//180
f 7//7 180//180 9//9
f 7//7 178//178 179//179
f 181//181 182//182 180//180
f 181//181 179//179 182//182
f 181//181 180//180 179//179
f 182//182 183//183 184//184
f 182//182 185//185 55//55
f 182//182 184//184 185//185
f 182//182 179//179 186//186
f 182//182 9//9 180//180
f 182//182 186//186 183//183
f 182//182 55//55 9//9
f 10//10 161//161 165//165
f 10//10 165//165 11//11
f 10//10 9//9 55//55
f 10//10 55//55 161//161
f 154//154 138//138 178//178
f 11//11 165//165 12//12
f 12//12 165//165 13//13
f 134//134 104//104 135//135
f 187//187 188//188 189//189
f 187//187 190//190 188//188
f 187//187 189//189 190//190
f 183//183 188//188 190//190
f 183//183 186//186 191//191
f 183//183 190//190 184//184
f 183//183 192//192 193//193
f 183//183 193//193 194//194
f 183//183 191//191 192//192
f 183//183 194//194 189//189
f 183//183 189//189 188//188
f 156//156 157//157 192//192
f 156//156 192//192 191//191
f 156//156 191//191 138//138
f 157//157 155//155 195//195
f 157//157 193//193 192//192
f 157//157 195//195 193//193
f 155//155 158//158 196//196
f 155//155 196//196 195//195
f 138//138 191//191 178//178
f 158//158 197//197 196//196
f 158//158 48//48 197//197
f 159//159 47//47 46//46
f 159//159 46//46 104//104
f 47//47 177//177 48//48
f 104//104 46//46 135//135
f 185//185 184//184 198//198
f 185//185 59//59 60//60
f 185//185 60//60 55//55
f 185//185 198//198 59//59
f 160//160 199//199 164//164
f 160//160 164//164 163//163
f 160//160 59//59 198//198
f 160//160 198//198 199//199
f 200//200 201//201 198//198
f 200//200 167//167 202//202
f 200//200 202//202 201//201
f 200//200 190//190 189//189
f 200//200 189//189 203//203
f 200//200 198//198 190//190
f 200//200 203//203 167//167
f 184//184 190//190 198//198
f 201//201 199//199 198//198
f 201//201 202//202 204//204
f 201//201 204//204 199//199
f 199//199 204//204 164//164
f 149//149 147//147 150//150
f 167//167 166//166 205//205
f 167//167 205//205 202//202
f 167//167 206//206 147//147
f 167//167 203//203 206//206
f 166//166 169//169 205//205
f 202//202 205//205 204//204
f 204//204 205//205 169//169
f 204//204 169//169 164//164
f 164//164 169//169 172//172
f 164//164 172//172 171//171
f 171//171 172//172 153//153
f 177//177 176//176 174//174
f 177//177 174//174 48//48
f 176//176 153//153 174//174
f 153//153 175//175 174//174
f 179//179 178//178 186//186
f 178//178 191//191 186//186
f 193//193 195//195 147//147
f 193//193 147//147 194//194
f 195//195 196//196 170//170
f 195//195 150//150 147//147
f 195//195 170//170 150//150
f 194//194 147//147 206//206
f 194//194 206//206 189//189
f 189//189 206//206 203//203
f 196//196 197//197 170//170
f 197//197 48//48 173//173
f 197//197 173//173 170//170
f 48//48 174//174 173//173
# 408 faces, 0 coords texture

# End of File
