####
#
# OBJ File Generated by Meshlab
#
####
# Object matlab_mesh_slc_step20_link2.obj
#
# Vertices: 204
# Faces: 404
#
####
vn -0.266923 -0.722890 6.187172
v 0.116878 0.226693 0.890189
vn 2.554406 -1.452341 3.162558
v 0.117496 0.226477 0.890189
vn 0.000000 0.000000 6.283185
v 0.117318 0.226550 0.890189
vn -0.282453 -0.687149 6.194075
v 0.116701 0.226766 0.890189
vn -3.157223 -0.106582 3.686055
v -0.091732 0.061603 0.833722
vn 2.815256 0.130662 2.480755
v 0.117585 0.226693 0.890189
vn 2.223449 -4.200596 0.185521
v 0.033728 0.019554 0.833346
vn 2.004929 -4.086692 0.676276
v 0.033727 0.019555 0.833354
vn 5.005335 -2.753344 2.485498
v 0.034019 0.020362 0.833686
vn 1.799120 -4.032115 1.633227
v 0.033726 0.019556 0.833361
vn 3.260939 -2.665131 4.274467
v 0.034016 0.020361 0.833689
vn 0.759812 -2.223802 5.623073
v 0.034012 0.020360 0.833690
vn -0.573190 -1.746690 6.000643
v -0.083853 0.059018 0.833722
vn -0.542766 -1.817320 5.977381
v 0.032509 0.020833 0.833722
vn -0.458191 -1.834680 5.979987
v 0.033142 0.020663 0.833722
vn 5.360821 0.633270 0.767455
v 0.117616 0.226771 0.889912
vn 4.920899 3.604246 1.506387
v 0.106891 0.242126 0.888274
vn 0.113851 0.276978 6.268880
v 0.117407 0.226766 0.890189
vn 4.768725 3.542706 2.026815
v 0.106806 0.241778 0.889215
vn 3.606757 2.852918 3.584898
v 0.106784 0.241808 0.889214
vn 4.847191 3.653634 1.608872
v 0.106869 0.242155 0.888277
vn 2.600701 2.259683 3.990052
v 0.106765 0.241834 0.889213
vn 0.239974 0.563992 6.253198
v 0.105871 0.242125 0.889248
vn 0.380659 0.735133 6.223927
v 0.105859 0.242148 0.889247
vn 5.379931 0.621857 0.732745
v 0.117662 0.226881 0.889485
vn 3.861906 1.016421 -0.972091
v 0.129879 0.256602 0.774550
vn 4.748264 -1.127957 -2.573926
v 0.129844 0.256518 0.774522
vn 3.760398 0.330802 -5.012226
v 0.115900 0.269719 0.764680
vn 4.326037 3.791431 -0.729303
v 0.116221 0.270507 0.765027
vn 3.895053 4.585337 1.703298
v 0.106804 0.242226 0.888288
vn 3.807623 2.697471 -1.737222
v 0.116194 0.270534 0.765008
vn 4.743678 3.775889 1.628628
v 0.106850 0.242179 0.888280
vn 4.584816 3.953965 1.648489
v 0.106832 0.242199 0.888283
vn 4.333050 4.210253 1.670980
v 0.106817 0.242215 0.888286
vn -0.337001 -0.626834 6.191740
v 0.003005 0.273502 0.890189
vn -0.282479 -0.687144 6.194074
v 0.003400 0.273339 0.890189
vn 0.334693 1.217940 6.002055
v 0.003094 0.273718 0.890189
vn 0.128519 0.980764 6.124302
v -0.018925 0.283094 0.889248
vn -0.281742 -0.070298 6.274256
v -0.020165 0.279318 0.889248
vn -0.441471 -0.542007 6.204301
v -0.020203 0.279323 0.889247
vn -0.572417 -0.581286 6.175974
v -0.020233 0.279327 0.889245
vn 0.233453 0.667155 6.202638
v 0.003711 0.273502 0.890189
vn 0.113855 0.276981 6.268879
v 0.117012 0.226929 0.890189
vn 0.626358 1.487671 6.055940
v 0.105844 0.242181 0.889242
vn 0.680306 2.220249 5.801108
v -0.018291 0.282923 0.889248
vn 0.903202 2.370545 5.695853
v 0.105841 0.242192 0.889240
vn 0.475361 1.013326 6.175386
v 0.105850 0.242167 0.889245
vn 1.799725 5.891646 0.868459
v 0.015233 0.303688 0.774524
vn 2.021423 5.781718 1.397933
v 0.015850 0.303473 0.774524
vn 1.975678 5.761325 -0.054531
v 0.115235 0.270910 0.764989
vn 1.447448 5.965601 1.329945
v -0.009286 0.311745 0.765139
vn 1.319287 5.835186 1.833743
v -0.018941 0.283475 0.888320
vn 1.489709 5.981368 1.167706
v -0.009354 0.311768 0.765111
vn 1.734162 5.998758 0.624322
v -0.008721 0.311597 0.765111
vn 1.791068 5.988341 0.413463
v -0.008782 0.311617 0.765085
vn 1.815726 5.697768 1.890906
v -0.018292 0.283301 0.888318
vn 1.959198 5.652149 1.871672
v 0.105925 0.242535 0.888323
vn 1.660167 5.737210 1.898601
v -0.018307 0.283305 0.888320
vn 2.041469 5.755482 1.478201
v 0.106482 0.244233 0.880945
vn 4.815984 -3.979728 -0.548719
v 0.044693 0.049368 0.712271
vn 5.200017 -2.985135 -0.974824
v 0.044725 0.049446 0.711994
vn 3.245984 -4.777741 -0.341592
v 0.033727 0.019554 0.833335
vn 4.465243 -4.305009 -0.862475
v 0.043052 0.047933 0.710066
vn 4.340508 -4.476374 -0.702201
v 0.042499 0.046249 0.717382
vn 0.626572 -5.301060 -0.648364
v 0.032431 0.019537 0.827632
vn 3.867912 -4.728797 -1.062287
v 0.043048 0.047932 0.710058
vn -1.768496 -5.976772 0.680908
v 0.033094 0.019725 0.833354
vn -1.940108 -5.715528 0.226908
v -0.091151 0.060502 0.833368
vn 2.666457 -5.365890 -1.370200
v 0.043045 0.047931 0.710050
vn 0.993751 -5.786951 -1.668966
v 0.043041 0.047931 0.710044
vn -1.683885 -5.739495 -1.871672
v 0.042404 0.048103 0.710039
vn -0.635394 -5.826098 -1.938158
v 0.043037 0.047933 0.710039
vn -2.018539 -5.763435 -1.478288
v -0.082405 0.087181 0.717411
vn -1.955350 -5.654736 -1.866718
v -0.081848 0.088878 0.710033
vn 5.655881 -2.104114 -1.238342
v 0.044814 0.049662 0.711994
vn 4.361026 -2.899062 -2.552266
v 0.043133 0.048277 0.709125
vn 5.062641 -2.740929 -2.003811
v 0.043137 0.048280 0.709129
vn 5.726498 -2.006068 -1.150363
v 0.129761 0.256315 0.774461
vn 5.545039 -1.713897 -2.397008
v 0.044379 0.052050 0.709135
vn 5.301139 -1.574167 -2.909728
v 0.044378 0.052056 0.709129
vn 4.735761 -1.255913 -3.800083
v 0.044377 0.052062 0.709125
vn 3.730662 -0.751200 -4.780842
v 0.044375 0.052068 0.709122
vn 2.283685 -0.093007 -5.574317
v 0.044373 0.052073 0.709120
vn 1.471265 5.992206 1.115925
v -0.009415 0.311788 0.765085
vn 1.792159 5.993008 0.289951
v -0.008835 0.311634 0.765062
vn 1.447005 6.004839 1.047390
v -0.009468 0.311805 0.765062
vn 1.792505 5.997295 0.121528
v -0.008881 0.311649 0.765042
vn 1.412978 6.019406 0.949953
v -0.009514 0.311820 0.765042
vn 3.687666 2.761446 -1.765513
v 0.116171 0.270556 0.764992
vn 0.194273 1.377880 5.953313
v -0.018959 0.283109 0.889247
vn 0.866812 2.809700 5.430873
v -0.018326 0.282938 0.889247
vn 1.790734 5.994794 -0.102937
v -0.008921 0.311661 0.765026
vn 1.364879 6.033706 0.819666
v -0.009554 0.311831 0.765026
vn 3.654307 0.397114 -5.082700
v 0.115876 0.269744 0.764665
vn 2.535880 2.396456 3.993315
v 0.106747 0.241855 0.889211
vn 3.510665 2.859531 -1.810988
v 0.116150 0.270575 0.764979
vn 2.981244 5.144210 1.767658
v 0.106794 0.242233 0.888290
vn 0.258603 1.929941 5.594931
v -0.018988 0.283120 0.889245
vn 1.149064 3.742056 4.665843
v -0.018355 0.282950 0.889245
vn 1.410535 4.022994 4.303479
v 0.105840 0.242197 0.889237
vn 1.783368 5.975313 -0.439258
v -0.008952 0.311670 0.765012
vn 1.286581 6.042022 0.611408
v -0.009586 0.311840 0.765012
vn 3.088687 -2.976858 -3.273991
v 0.043130 0.048274 0.709122
vn 3.481197 0.491521 -5.191395
v 0.115856 0.269766 0.764652
vn 3.329547 0.263869 -5.320280
v 0.114677 0.266175 0.763736
vn 2.483622 2.691940 3.968817
v 0.106733 0.241873 0.889210
vn 3.243348 2.996948 -1.865169
v 0.116132 0.270590 0.764968
vn 0.287059 2.602249 4.835076
v -0.019010 0.283129 0.889242
vn -0.829434 -0.492181 6.144297
v -0.020257 0.279330 0.889242
vn 1.407358 4.665851 3.583811
v -0.018377 0.282959 0.889242
vn 1.757207 5.896724 -1.006002
v -0.008977 0.311676 0.765001
vn 1.138828 6.015576 0.247266
v -0.009610 0.311846 0.765001
vn -0.996420 5.500293 1.520807
v -0.018950 0.283477 0.888322
vn -1.721412 -5.803005 1.526829
v 0.033093 0.019727 0.833361
vn 1.387217 -2.888510 -3.729537
v 0.043126 0.048273 0.709120
vn 3.045497 0.397116 -5.477037
v 0.114659 0.266187 0.763726
vn 3.216675 0.629952 -5.338838
v 0.115840 0.269784 0.764643
vn 2.388515 3.148264 3.890427
v 0.106720 0.241886 0.889207
vn 2.782616 3.180865 -1.946910
v 0.116117 0.270601 0.764961
vn -0.029272 2.948466 4.114652
v -0.019025 0.283135 0.889240
vn -1.416121 -0.276412 6.012794
v -0.020273 0.279331 0.889240
vn -3.188169 -0.115902 4.557689
v -0.090549 0.065207 0.834641
vn 1.520842 5.352234 2.820326
v -0.018392 0.282965 0.889240
vn 1.857903 5.319191 2.714672
v 0.105841 0.242199 0.889234
vn 1.662701 5.616251 -2.013264
v -0.008995 0.311679 0.764994
vn 0.770312 5.803804 -0.435464
v -0.009628 0.311850 0.764994
vn 1.837915 5.545649 -2.205581
v 0.115235 0.270909 0.764987
vn -1.512235 -5.112955 3.072497
v 0.033092 0.019729 0.833366
vn -1.856315 -5.561887 2.115015
v -0.091158 0.060505 0.833369
vn -0.094933 -2.936966 -3.906596
v 0.043122 0.048273 0.709119
vn 1.245635 -3.840524 3.098898
v 0.033725 0.019558 0.833366
vn 0.271957 1.135595 -6.163283
v -0.080481 0.093021 0.709120
vn 0.320046 1.046951 -6.173011
v -0.079848 0.092850 0.709120
vn 0.109277 0.398514 -6.255886
v -0.079862 0.092850 0.709119
vn 0.052306 0.616846 -6.215626
v -0.080495 0.093021 0.709119
vn -1.719872 1.419344 -5.284083
v -0.081375 0.093326 0.709152
vn -2.647587 1.881527 -2.959472
v -0.009930 0.311054 0.764667
vn 0.445366 1.795817 -5.990021
v -0.009069 0.310754 0.764635
vn 0.520697 1.796591 -5.983870
v -0.008436 0.310584 0.764635
vn 2.734289 0.863225 -5.551426
v 0.115826 0.269798 0.764638
vn 2.536559 0.621497 -5.701929
v 0.114644 0.266197 0.763719
vn 0.997497 0.585402 -6.022165
v 0.044370 0.052077 0.709119
vn 1.480280 1.035481 -5.966177
v 0.114633 0.266205 0.763716
vn 0.135531 0.412942 -6.252977
v 0.036498 0.054661 0.709119
vn 0.519264 1.636659 -6.038063
v -0.008425 0.310579 0.764635
vn 0.577891 1.761109 -5.990795
v 0.107926 0.272402 0.764635
vn 0.383055 1.431204 -6.105973
v -0.009608 0.306975 0.763716
vn 0.838113 1.713516 -5.957345
v 0.115808 0.269815 0.764635
vn 0.142733 -3.239960 4.911378
v 0.033722 0.019561 0.833368
vn 2.191175 3.966744 3.604506
v 0.106710 0.241895 0.889205
vn 2.034453 3.401564 -2.111993
v 0.116105 0.270607 0.764957
vn 2.599641 5.519544 1.466100
v 0.107351 0.243930 0.880915
vn 1.717418 5.235522 -3.011832
v -0.008116 0.311374 0.764961
vn 1.232885 3.795826 -4.448783
v -0.008135 0.311377 0.764957
vn 1.207173 4.329065 -3.938539
v -0.009005 0.311680 0.764989
vn 1.458801 3.757648 -3.808778
v 0.116096 0.270610 0.764956
vn -1.528487 2.903264 3.136434
v -0.019034 0.283138 0.889237
vn -3.308484 0.488102 4.648851
v -0.020283 0.279331 0.889237
vn -1.555846 5.692785 1.192245
v -0.018393 0.285173 0.880946
vn -0.700328 4.134910 -1.582438
v -0.009638 0.311850 0.764989
vn -0.783275 -2.831485 -4.254119
v 0.042488 0.048444 0.709119
vn -1.766127 -5.630562 -2.150608
v 0.042400 0.048106 0.710035
vn -1.683612 -5.383681 -2.698723
v 0.042484 0.048444 0.709120
vn -1.060884 -3.639487 4.828510
v 0.033089 0.019732 0.833368
vn -1.583846 -4.841653 3.565990
v 0.032212 0.020035 0.833398
vn -0.154390 -0.470418 -6.243926
v -0.073871 0.086633 0.709119
vn -0.904056 -2.406357 -5.276537
v -0.081756 0.089214 0.709120
vn -0.211368 -0.412627 -6.243139
v -0.081744 0.089217 0.709119
vn -1.245210 -3.794519 -4.781311
v -0.073877 0.086629 0.709120
vn -1.706887 -4.723306 -3.445727
v -0.081764 0.089215 0.709123
vn -1.368174 0.329576 -5.971027
v -0.082623 0.089522 0.709152
vn -2.837917 -0.473308 -2.518215
v -0.082626 0.089517 0.709152
vn 1.709054 1.297347 -5.807416
v 0.115815 0.269808 0.764635
vn -1.015814 -3.279541 5.044210
v 0.032219 0.020035 0.833400
vn -1.349193 -3.770512 4.048842
v -0.092019 0.060804 0.833400
vn -4.066465 1.430164 -2.909203
v -0.081376 0.093324 0.709152
vn -6.041604 1.693775 -0.014862
v -0.091936 0.061148 0.832478
vn -2.405088 -1.494520 1.134429
v -0.092021 0.060805 0.833400
vn -5.945721 1.772399 0.763614
v -0.020574 0.278535 0.888913
vn -6.164116 1.127696 -0.205930
v -0.083183 0.087820 0.716528
vn -6.142059 1.212442 -0.122291
v -0.091937 0.061143 0.832485
vn -5.971498 1.950136 0.090567
v -0.020490 0.278871 0.888003
vn -5.943652 2.029569 0.099223
v -0.019240 0.282680 0.888003
vn -5.941235 2.042413 0.021370
v -0.018683 0.284377 0.880625
vn -0.635073 -2.398952 5.765463
v 0.032852 0.019864 0.833400
vn 2.080551 5.233717 2.692692
v 0.106702 0.241900 0.889202
vn 2.199943 5.556831 1.864967
v 0.106786 0.242236 0.888292
vn 2.049337 5.752709 1.478157
v 0.107343 0.243934 0.880914
vn 0.961915 2.931390 -5.383589
v 0.108214 0.273196 0.764956
vn 0.728889 2.518027 -5.690628
v -0.008148 0.311379 0.764956
vn 0.784511 2.885946 -5.517798
v -0.009009 0.311678 0.764987
vn -0.773175 -2.043109 5.889309
v -0.091731 0.061599 0.833721
vn -4.186916 3.155580 1.704509
v -0.019036 0.283138 0.889234
vn -5.423207 1.425172 2.163482
v -0.020286 0.279329 0.889234
vn -4.599543 3.696710 0.503238
v -0.018395 0.285172 0.880945
vn -4.387292 3.715330 0.821718
v -0.018952 0.283475 0.888323
vn -2.120352 2.669821 -2.126091
v -0.009642 0.311848 0.764987
vn -2.693557 -5.440598 -1.454977
v -0.083265 0.087480 0.717443
vn -2.829843 -4.016976 -2.928231
v -0.082624 0.089514 0.709154
vn -5.345822 -1.722776 -0.871434
v -0.082710 0.089179 0.710067
vn -5.315728 -1.776661 -0.810048
v -0.083267 0.087482 0.717443
vn -3.352458 -4.640921 -1.738884
v -0.082708 0.089178 0.710064
vn 0.633749 2.393705 -5.768056
v -0.008781 0.311549 0.764956
vn -5.950507 1.981694 0.331844
v -0.019324 0.282343 0.888913
# 204 vertices, 0 vertices normals

f 1//1 2//2 3//3
f 1//1 4//4 5//5
f 1//1 3//3 4//4
f 1//1 5//5 2//2
f 2//2 6//6 3//3
f 2//2 7//7 6//6
f 2//2 8//8 7//7
f 2//2 9//9 10//10
f 2//2 10//10 8//8
f 2//2 11//11 9//9
f 2//2 12//12 11//11
f 2//2 13//13 14//14
f 2//2 14//14 15//15
f 2//2 5//5 13//13
f 2//2 15//15 12//12
f 6//6 16//16 17//17
f 6//6 18//18 3//3
f 6//6 19//19 20//20
f 6//6 17//17 21//21
f 6//6 20//20 22//22
f 6//6 21//21 19//19
f 6//6 23//23 18//18
f 6//6 22//22 24//24
f 6//6 24//24 23//23
f 6//6 7//7 16//16
f 25//25 26//26 17//17
f 25//25 16//16 7//7
f 25//25 17//17 16//16
f 25//25 7//7 26//26
f 26//26 27//27 28//28
f 26//26 29//29 30//30
f 26//26 31//31 29//29
f 26//26 21//21 17//17
f 26//26 28//28 31//31
f 26//26 32//32 21//21
f 26//26 7//7 27//27
f 26//26 33//33 32//32
f 26//26 34//34 33//33
f 26//26 30//30 34//34
f 35//35 36//36 37//37
f 35//35 37//37 38//38
f 35//35 39//39 40//40
f 35//35 38//38 39//39
f 35//35 40//40 41//41
f 35//35 41//41 5//5
f 35//35 5//5 36//36
f 36//36 4//4 42//42
f 36//36 42//42 37//37
f 36//36 5//5 4//4
f 4//4 3//3 43//43
f 4//4 43//43 42//42
f 37//37 42//42 44//44
f 37//37 45//45 38//38
f 37//37 44//44 46//46
f 37//37 46//46 45//45
f 3//3 18//18 43//43
f 42//42 43//43 23//23
f 42//42 23//23 24//24
f 42//42 24//24 47//47
f 42//42 47//47 44//44
f 43//43 18//18 23//23
f 48//48 49//49 50//50
f 48//48 51//51 52//52
f 48//48 53//53 51//51
f 48//48 54//54 53//53
f 48//48 55//55 54//54
f 48//48 56//56 57//57
f 48//48 52//52 58//58
f 48//48 58//58 56//56
f 48//48 50//50 55//55
f 48//48 57//57 49//49
f 49//49 59//59 50//50
f 49//49 57//57 59//59
f 60//60 61//61 62//62
f 60//60 63//63 61//61
f 60//60 62//62 64//64
f 60//60 64//64 63//63
f 65//65 62//62 7//7
f 65//65 66//66 62//62
f 65//65 7//7 8//8
f 65//65 67//67 68//68
f 65//65 69//69 66//66
f 65//65 8//8 67//67
f 65//65 70//70 69//69
f 65//65 71//71 72//72
f 65//65 72//72 70//70
f 65//65 68//68 73//73
f 65//65 74//74 71//71
f 65//65 73//73 74//74
f 61//61 75//75 7//7
f 61//61 63//63 76//76
f 61//61 77//77 75//75
f 61//61 7//7 62//62
f 61//61 76//76 77//77
f 27//27 78//78 79//79
f 27//27 79//79 80//80
f 27//27 80//80 81//81
f 27//27 7//7 78//78
f 27//27 81//81 82//82
f 27//27 82//82 83//83
f 27//27 83//83 28//28
f 78//78 75//75 79//79
f 78//78 7//7 75//75
f 75//75 77//77 79//79
f 51//51 53//53 52//52
f 53//53 54//54 55//55
f 53//53 84//84 52//52
f 53//53 55//55 84//84
f 84//84 55//55 85//85
f 84//84 86//86 52//52
f 84//84 85//85 86//86
f 55//55 50//50 85//85
f 19//19 21//21 20//20
f 29//29 31//31 30//30
f 86//86 85//85 87//87
f 86//86 88//88 52//52
f 86//86 87//87 88//88
f 85//85 50//50 87//87
f 79//79 77//77 80//80
f 20//20 21//21 32//32
f 20//20 32//32 22//22
f 31//31 28//28 89//89
f 31//31 89//89 30//30
f 39//39 38//38 90//90
f 39//39 90//90 40//40
f 38//38 45//45 91//91
f 38//38 91//91 90//90
f 45//45 46//46 91//91
f 88//88 87//87 92//92
f 88//88 93//93 52//52
f 88//88 92//92 93//93
f 87//87 50//50 92//92
f 63//63 64//64 66//66
f 63//63 66//66 76//76
f 62//62 66//66 64//64
f 77//77 76//76 80//80
f 28//28 94//94 89//89
f 28//28 83//83 94//94
f 80//80 76//76 81//81
f 22//22 32//32 33//33
f 22//22 95//95 24//24
f 22//22 33//33 95//95
f 89//89 94//94 96//96
f 89//89 96//96 97//97
f 89//89 97//97 30//30
f 40//40 90//90 98//98
f 40//40 98//98 41//41
f 90//90 91//91 99//99
f 90//90 99//99 98//98
f 24//24 95//95 47//47
f 91//91 46//46 100//100
f 91//91 100//100 99//99
f 93//93 92//92 101//101
f 93//93 102//102 52//52
f 93//93 101//101 102//102
f 92//92 50//50 101//101
f 66//66 69//69 103//103
f 66//66 103//103 76//76
f 76//76 103//103 81//81
f 94//94 104//104 96//96
f 94//94 105//105 104//104
f 94//94 83//83 105//105
f 81//81 103//103 82//82
f 95//95 33//33 34//34
f 95//95 106//106 47//47
f 95//95 34//34 106//106
f 96//96 104//104 107//107
f 96//96 107//107 97//97
f 41//41 98//98 108//108
f 41//41 109//109 5//5
f 41//41 108//108 109//109
f 98//98 99//99 110//110
f 98//98 110//110 108//108
f 47//47 106//106 44//44
f 99//99 100//100 110//110
f 102//102 101//101 111//111
f 102//102 112//112 113//113
f 102//102 111//111 112//112
f 102//102 113//113 52//52
f 101//101 50//50 111//111
f 67//67 8//8 114//114
f 67//67 114//114 68//68
f 69//69 70//70 115//115
f 69//69 115//115 103//103
f 8//8 10//10 114//114
f 103//103 115//115 82//82
f 104//104 105//105 116//116
f 104//104 117//117 107//107
f 104//104 116//116 117//117
f 105//105 83//83 116//116
f 82//82 115//115 83//83
f 9//9 11//11 10//10
f 106//106 34//34 30//30
f 106//106 118//118 44//44
f 106//106 30//30 118//118
f 107//107 117//117 119//119
f 107//107 119//119 97//97
f 109//109 108//108 120//120
f 109//109 121//121 122//122
f 109//109 120//120 121//121
f 109//109 122//122 5//5
f 108//108 110//110 123//123
f 108//108 123//123 120//120
f 44//44 118//118 46//46
f 110//110 56//56 123//123
f 110//110 100//100 124//124
f 110//110 124//124 56//56
f 112//112 111//111 125//125
f 112//112 126//126 113//113
f 112//112 125//125 126//126
f 111//111 50//50 127//127
f 111//111 127//127 125//125
f 56//56 58//58 123//123
f 56//56 124//124 57//57
f 114//114 10//10 128//128
f 114//114 128//128 129//129
f 114//114 129//129 68//68
f 70//70 72//72 130//130
f 70//70 130//130 115//115
f 10//10 11//11 131//131
f 10//10 131//131 128//128
f 132//132 133//133 134//134
f 132//132 135//135 136//136
f 132//132 134//134 135//135
f 132//132 136//136 137//137
f 132//132 138//138 139//139
f 132//132 139//139 133//133
f 132//132 137//137 138//138
f 115//115 130//130 83//83
f 117//117 116//116 140//140
f 117//117 140//140 119//119
f 116//116 83//83 141//141
f 116//116 141//141 140//140
f 83//83 130//130 142//142
f 83//83 142//142 143//143
f 83//83 143//143 141//141
f 133//133 142//142 144//144
f 133//133 144//144 134//134
f 133//133 145//145 146//146
f 133//133 147//147 145//145
f 133//133 148//148 142//142
f 133//133 139//139 147//147
f 133//133 146//146 148//148
f 11//11 12//12 149//149
f 11//11 149//149 131//131
f 118//118 30//30 97//97
f 118//118 150//150 46//46
f 118//118 97//97 150//150
f 119//119 140//140 151//151
f 119//119 152//152 97//97
f 119//119 151//151 152//152
f 153//153 125//125 127//127
f 153//153 154//154 155//155
f 153//153 155//155 125//125
f 153//153 156//156 154//154
f 153//153 127//127 156//156
f 121//121 120//120 157//157
f 121//121 158//158 122//122
f 121//121 157//157 158//158
f 120//120 123//123 58//58
f 120//120 52//52 157//157
f 120//120 58//58 52//52
f 46//46 150//150 100//100
f 126//126 125//125 155//155
f 126//126 159//159 113//113
f 126//126 160//160 159//159
f 126//126 155//155 160//160
f 52//52 113//113 157//157
f 71//71 161//161 130//130
f 71//71 130//130 72//72
f 71//71 162//162 163//163
f 71//71 163//163 161//161
f 71//71 74//74 162//162
f 128//128 131//131 164//164
f 128//128 165//165 129//129
f 128//128 164//164 165//165
f 131//131 149//149 164//164
f 166//166 161//161 167//167
f 166//166 168//168 134//134
f 166//166 134//134 144//144
f 166//166 144//144 161//161
f 166//166 167//167 168//168
f 161//161 142//142 130//130
f 161//161 144//144 142//142
f 161//161 169//169 167//167
f 161//161 163//163 170//170
f 161//161 170//170 169//169
f 168//168 135//135 134//134
f 168//168 171//171 135//135
f 168//168 167//167 172//172
f 168//168 172//172 171//171
f 135//135 171//171 136//136
f 140//140 141//141 173//173
f 140//140 173//173 151//151
f 141//141 143//143 173//173
f 142//142 148//148 143//143
f 165//165 164//164 174//174
f 165//165 174//174 175//175
f 165//165 175//175 129//129
f 171//171 172//172 176//176
f 171//171 176//176 136//136
f 177//177 178//178 179//179
f 177//177 172//172 180//180
f 177//177 181//181 178//178
f 177//177 180//180 181//181
f 177//177 179//179 182//182
f 177//177 182//182 183//183
f 177//177 184//184 137//137
f 177//177 137//137 172//172
f 177//177 183//183 184//184
f 136//136 176//176 137//137
f 12//12 15//15 185//185
f 12//12 185//185 149//149
f 150//150 97//97 186//186
f 150//150 186//186 100//100
f 152//152 151//151 187//187
f 152//152 187//187 97//97
f 151//151 50//50 188//188
f 151//151 173//173 156//156
f 151//151 188//188 187//187
f 151//151 156//156 127//127
f 151//151 127//127 50//50
f 97//97 187//187 186//186
f 154//154 156//156 189//189
f 154//154 190//190 191//191
f 154//154 189//189 190//190
f 154//154 191//191 155//155
f 13//13 5//5 192//192
f 13//13 192//192 14//14
f 14//14 174//174 185//185
f 14//14 185//185 15//15
f 14//14 192//192 175//175
f 14//14 175//175 174//174
f 158//158 157//157 193//193
f 158//158 194//194 122//122
f 158//158 193//193 194//194
f 122//122 194//194 5//5
f 5//5 178//178 175//175
f 5//5 194//194 178//178
f 5//5 175//175 192//192
f 157//157 113//113 193//193
f 100//100 186//186 124//124
f 159//159 160//160 195//195
f 159//159 195//195 196//196
f 159//159 196//196 113//113
f 160//160 155//155 191//191
f 160//160 197//197 195//195
f 160//160 191//191 197//197
f 113//113 196//196 193//193
f 50//50 59//59 188//188
f 162//162 74//74 170//170
f 162//162 170//170 163//163
f 164//164 149//149 185//185
f 164//164 185//185 174//174
f 68//68 178//178 198//198
f 68//68 129//129 178//178
f 68//68 198//198 73//73
f 169//169 170//170 167//167
f 167//167 170//170 199//199
f 167//167 199//199 172//172
f 173//173 143//143 148//148
f 173//173 148//148 156//156
f 145//145 147//147 139//139
f 145//145 139//139 146//146
f 200//200 201//201 180//180
f 200//200 172//172 202//202
f 200//200 180//180 172//172
f 200//200 202//202 201//201
f 178//178 201//201 202//202
f 178//178 181//181 201//201
f 178//178 194//194 179//179
f 178//178 129//129 175//175
f 178//178 202//202 198//198
f 201//201 181//181 180//180
f 172//172 199//199 202//202
f 172//172 137//137 176//176
f 186//186 187//187 124//124
f 203//203 190//190 139//139
f 203//203 197//197 191//191
f 203//203 191//191 190//190
f 203//203 138//138 197//197
f 203//203 139//139 138//138
f 188//188 59//59 187//187
f 156//156 148//148 189//189
f 187//187 59//59 57//57
f 187//187 57//57 124//124
f 190//190 189//189 139//139
f 189//189 148//148 146//146
f 189//189 146//146 139//139
f 194//194 193//193 204//204
f 194//194 204//204 179//179
f 193//193 196//196 204//204
f 195//195 197//197 137//137
f 195//195 184//184 183//183
f 195//195 137//137 184//184
f 195//195 183//183 196//196
f 197//197 138//138 137//137
f 196//196 183//183 204//204
f 74//74 73//73 202//202
f 74//74 202//202 170//170
f 73//73 198//198 202//202
f 170//170 202//202 199//199
f 179//179 204//204 182//182
f 204//204 183//183 182//182
# 404 faces, 0 coords texture

# End of File
