####
#
# OBJ File Generated by Meshlab
#
####
# Object matlab_mesh_slc_step8_link6.obj
#
# Vertices: 139
# Faces: 274
#
####
vn -0.082658 -3.152430 5.430080
v 0.501663 0.401194 0.989719
vn 0.224733 -4.003465 4.679018
v 0.502304 0.400580 0.989358
vn 1.815811 -2.226610 4.214790
v 0.604764 0.428119 1.004575
vn -0.973272 -4.330221 3.592951
v 0.448282 0.417719 0.998209
vn -0.006054 -2.880189 5.581370
v 0.551120 0.428119 1.004575
vn -0.274695 -4.957019 3.116035
v 0.502136 0.400469 0.989253
vn -0.150732 -5.749273 2.094568
v 0.502405 0.399897 0.987749
vn 2.973535 -2.609406 2.934194
v 0.604778 0.428114 1.004563
vn -1.216253 -5.172873 3.010747
v 0.448415 0.417671 0.998181
vn -1.853741 -5.938344 -0.881123
v 0.517046 0.359635 0.871200
vn 0.030801 -5.412847 -1.921061
v 0.517244 0.359611 0.870948
vn -0.717026 -6.101821 -0.587325
v 0.516876 0.359385 0.873276
vn -1.656794 -5.966359 -0.076422
v 0.516678 0.359409 0.873528
vn -1.129820 -5.299807 -2.124460
v 0.459302 0.382394 0.841513
vn 1.270745 -6.054402 -0.603116
v 0.517745 0.359542 0.872130
vn 0.361815 -4.896949 -3.900291
v 0.512263 0.382236 0.841708
vn 2.652594 -2.905319 -3.623553
v 0.615306 0.393019 0.847478
vn -0.348699 -5.225393 -3.401890
v 0.459720 0.382236 0.841708
vn -0.838441 -5.380421 -2.632244
v 0.459501 0.382318 0.841606
vn 3.644233 -3.000586 -1.820903
v 0.615336 0.393005 0.847531
vn 3.280650 -2.994506 -2.577902
v 0.615322 0.393010 0.847501
vn 0.810944 -5.916738 0.499019
v 0.517378 0.359316 0.874458
vn -0.329392 -5.727737 1.243809
v 0.517180 0.359340 0.874710
vn -2.228633 -5.766854 0.769422
v 0.459123 0.382465 0.882966
vn -1.190566 -5.212599 -2.118323
v 0.459123 0.382465 0.841431
vn 3.973892 -2.946462 -0.889363
v 0.615362 0.393001 0.847617
vn 3.847418 -2.966602 -1.279369
v 0.615350 0.393002 0.847570
vn 2.383878 -5.478565 1.709902
v 0.615336 0.393005 0.889324
vn -1.106203 -4.113310 3.619803
v 0.448168 0.417764 0.998231
vn 3.982667 -3.761303 0.568607
v 0.615374 0.393004 0.889207
vn 3.727083 -4.239442 0.854554
v 0.615362 0.393001 0.889253
vn 4.069555 -2.964808 -0.638552
v 0.615374 0.393004 0.847672
vn 3.234236 -4.854577 1.278530
v 0.615350 0.393002 0.889292
vn 6.125603 -0.720698 0.239512
v 0.618796 0.404074 0.868015
vn 6.245823 -0.016773 0.659074
v 0.607516 0.440616 0.982763
vn 6.214282 -0.284894 0.809131
v 0.604814 0.428140 1.004439
vn 6.143525 -0.517125 -0.089212
v 0.618849 0.404343 0.866717
vn 6.256003 0.446085 0.309116
v 0.615374 0.439521 0.889207
vn 5.969193 -1.923105 0.070168
v 0.615416 0.393057 0.888868
vn 5.959238 -1.962143 -0.052123
v 0.615416 0.393057 0.848074
vn 5.833231 -2.082690 0.189505
v 0.615410 0.393041 0.888950
vn 5.548037 -2.279841 0.327351
v 0.615402 0.393027 0.889025
vn 5.103466 -2.687215 0.368045
v 0.615394 0.393017 0.889093
vn 6.184921 0.222358 0.906656
v 0.604808 0.474859 1.004481
vn 6.234627 0.097121 0.735094
v 0.604814 0.474774 1.004439
vn 6.228408 -0.443769 -0.540743
v 0.618757 0.404584 0.865423
vn 6.201160 -0.141305 -0.703340
v 0.618714 0.404756 0.864828
vn 2.464758 2.311231 -1.879610
v 0.602461 0.600228 0.797545
vn 5.812391 -2.199770 -0.140118
v 0.615410 0.393041 0.847977
vn 5.529374 -2.483077 -0.246935
v 0.615402 0.393027 0.847888
vn 5.098165 -2.757506 -0.356364
v 0.615394 0.393017 0.847808
vn 6.140172 1.125537 0.098572
v 0.602461 0.600228 0.839457
vn 4.493532 -2.964948 -0.474854
v 0.615384 0.393009 0.847736
vn 6.200947 0.164762 -0.911847
v 0.615374 0.439521 0.847672
vn -0.061649 -0.003269 -6.281161
v 0.467968 0.550692 0.790617
vn 0.013235 -0.304241 -6.264095
v 0.469859 0.548531 0.790617
vn -3.158075 -0.173007 -3.338018
v 0.445609 0.543041 0.791217
vn 0.165867 0.588473 -6.214761
v 0.499273 0.589999 0.791217
vn -2.942381 0.526531 -3.266382
v 0.445609 0.589999 0.791217
vn 0.274088 -0.828557 -6.189059
v 0.499255 0.542999 0.791219
vn -3.015466 -0.586297 -3.281907
v 0.445611 0.542999 0.791219
vn 0.272651 -0.200301 -6.266770
v 0.499273 0.543041 0.791217
vn 0.390415 -0.017586 -6.270818
v 0.572461 0.564409 0.795548
vn 0.699473 0.230687 -6.211166
v 0.602435 0.600187 0.797532
vn 1.325027 -0.944220 -5.872981
v 0.602435 0.553239 0.797532
vn -0.004806 0.021654 6.282919
v 0.584453 0.454597 1.004795
vn 0.023574 -0.012269 6.282842
v 0.586345 0.452436 1.004795
vn 1.531050 1.134689 5.521941
v 0.604749 0.475085 1.004580
vn -0.233346 0.951200 6.109797
v 0.551084 0.475085 1.004580
vn -0.131084 -1.393388 5.925883
v 0.551084 0.428127 1.004580
vn 0.556568 -1.125464 5.892947
v 0.604749 0.428127 1.004580
vn 0.363873 -4.830224 -3.980785
v 0.512248 0.382318 0.841606
vn 4.468640 -3.279733 0.431936
v 0.615384 0.393009 0.889153
vn 6.078919 -0.708552 1.105318
v 0.604808 0.428127 1.004481
vn 0.362349 -4.737743 -4.089581
v 0.512232 0.382394 0.841513
vn 0.360295 -4.620027 -4.220932
v 0.512216 0.382465 0.841431
vn 6.249887 0.539166 0.323722
v 0.615362 0.439635 0.889253
vn 5.647326 -1.431640 1.584269
v 0.604799 0.428119 1.004516
vn -2.315224 -5.729566 0.772080
v 0.458963 0.382532 0.882995
vn 6.158392 0.125536 -1.161841
v 0.615362 0.439635 0.847617
vn 0.357577 -4.469017 -4.379093
v 0.512199 0.382532 0.841359
vn -1.242797 -5.109197 -2.196746
v 0.458963 0.382532 0.841359
vn 6.071121 0.306956 1.260265
v 0.604799 0.474931 1.004516
vn 1.854822 2.304033 1.668012
v 0.591940 0.635308 0.954660
vn 4.392717 -2.392856 2.181780
v 0.604789 0.428114 1.004544
vn -2.462077 -5.670548 0.756850
v 0.458824 0.382594 0.883020
vn -1.293885 -3.793926 3.662039
v 0.448072 0.417806 0.998248
vn 5.601185 -0.058810 -2.602338
v 0.602461 0.553278 0.797545
vn 0.353261 -4.271028 -4.570223
v 0.512182 0.382594 0.841298
vn 1.649770 -2.566640 -4.942835
v 0.615289 0.393030 0.847464
vn -1.311062 -4.969413 -2.294139
v 0.458824 0.382594 0.841298
vn -2.650033 -5.588688 0.736687
v 0.458704 0.382650 0.883039
vn 0.347147 -4.008934 -4.799247
v 0.512164 0.382650 0.841246
vn -1.397637 -4.783919 -2.408935
v 0.458704 0.382650 0.841246
vn 5.788302 0.382910 1.977470
v 0.604789 0.474990 1.004544
vn -2.908130 -5.461318 0.706928
v 0.458605 0.382702 0.883052
vn -1.567475 -3.322788 3.669784
v 0.447997 0.417844 0.998258
vn 0.336697 -3.634003 -5.082621
v 0.512146 0.382702 0.841204
vn -1.517422 -4.499435 -2.551748
v 0.458605 0.382702 0.841204
vn 5.084869 0.508076 3.083901
v 0.604778 0.475035 1.004563
vn -3.287545 -5.244826 0.658774
v 0.458525 0.382748 0.883060
vn 0.096512 -1.790650 -6.019156
v 0.499180 0.542894 0.791243
vn -0.434893 -1.831268 -5.972561
v 0.445638 0.542894 0.791243
vn -2.211199 -1.462111 -5.042782
v 0.445621 0.542950 0.791227
vn 0.241189 -1.480183 -6.078818
v 0.499224 0.542950 0.791227
vn 0.257982 -2.313582 -5.791594
v 0.512109 0.382790 0.841151
vn -1.944844 -3.368504 -2.858733
v 0.458465 0.382790 0.841151
vn 0.318817 -3.075562 -5.430082
v 0.512128 0.382748 0.841173
vn 3.328190 -0.408423 -4.520458
v 0.602455 0.553258 0.797536
vn -2.534234 -2.721881 -2.761144
v 0.458426 0.382827 0.841140
vn -1.691661 -4.064777 -2.713425
v 0.458525 0.382748 0.841173
vn 3.542758 0.722791 4.399365
v 0.604764 0.475067 1.004575
vn -1.956758 -2.608222 3.561339
v 0.447940 0.417879 0.998262
vn -3.855228 -4.842443 0.574255
v 0.458465 0.382790 0.883063
vn 0.603750 -1.583361 -6.041387
v 0.602402 0.553220 0.797533
vn -4.312196 -1.830107 -2.300671
v 0.458406 0.382858 0.841139
vn -2.627843 -1.885321 3.185541
v 0.447903 0.417911 0.998261
vn -4.737251 -3.943168 0.394837
v 0.458426 0.382827 0.883060
vn -6.241836 -0.237977 0.382438
v 0.435086 0.578088 0.948330
vn -6.254140 -0.259147 -0.264039
v 0.435086 0.578088 0.906419
vn -6.140794 -1.117695 -0.095473
v 0.447885 0.417939 0.956341
vn -6.184273 -0.018682 0.779992
v 0.435086 0.578125 0.948338
vn -6.270090 -0.002840 -0.285733
v 0.435086 0.578125 0.906419
vn -4.079260 -0.961748 2.553381
v 0.447885 0.417939 0.998254
vn 2.122837 1.323993 -4.530867
v 0.602455 0.600216 0.797536
vn -4.932739 0.957443 2.196773
v 0.435086 0.625083 0.948338
vn -3.244464 0.709811 3.819979
v 0.447885 0.464889 0.998254
vn -6.044343 1.017904 -0.491108
v 0.435086 0.625083 0.906419
vn -2.100663 2.609933 1.843741
v 0.435093 0.625107 0.948337
vn -3.011852 3.836580 -0.659903
v 0.435093 0.625107 0.906425
vn -1.180449 0.583909 5.974967
v 0.447903 0.464869 0.998261
vn -0.285329 3.973509 2.924183
v 0.538276 0.635308 0.954660
vn -5.653529 -2.590740 0.126189
v 0.458406 0.382858 0.883052
vn -2.073248 2.342845 -2.609378
v 0.445614 0.590026 0.791223
vn 0.078177 2.202858 -5.762515
v 0.499279 0.590026 0.791223
vn -0.021731 3.544985 -5.179635
v 0.548791 0.600216 0.797536
vn -0.130106 4.891245 -3.374493
v 0.548797 0.600228 0.797545
vn 2.714325 3.970933 -0.482973
v 0.591940 0.635308 0.912747
vn -0.279800 6.109097 -0.898409
v 0.538276 0.635308 0.912747
# 139 vertices, 0 vertices normals

f 1//1 2//2 3//3
f 1//1 4//4 2//2
f 1//1 3//3 5//5
f 1//1 5//5 4//4
f 6//6 2//2 4//4
f 6//6 7//7 8//8
f 6//6 9//9 7//7
f 6//6 4//4 9//9
f 6//6 8//8 3//3
f 6//6 3//3 2//2
f 10//10 11//11 12//12
f 10//10 13//13 14//14
f 10//10 12//12 13//13
f 10//10 14//14 11//11
f 11//11 15//15 12//12
f 11//11 16//16 17//17
f 11//11 18//18 16//16
f 11//11 19//19 18//18
f 11//11 14//14 19//19
f 11//11 20//20 15//15
f 11//11 21//21 20//20
f 11//11 17//17 21//21
f 13//13 12//12 22//22
f 13//13 23//23 24//24
f 13//13 22//22 23//23
f 13//13 24//24 25//25
f 13//13 25//25 14//14
f 12//12 15//15 22//22
f 15//15 26//26 22//22
f 15//15 27//27 26//26
f 15//15 20//20 27//27
f 23//23 7//7 9//9
f 23//23 22//22 28//28
f 23//23 9//9 4//4
f 23//23 4//4 29//29
f 23//23 28//28 8//8
f 23//23 29//29 24//24
f 23//23 8//8 7//7
f 22//22 30//30 31//31
f 22//22 32//32 30//30
f 22//22 31//31 33//33
f 22//22 26//26 32//32
f 22//22 33//33 28//28
f 34//34 35//35 36//36
f 34//34 37//37 38//38
f 34//34 39//39 40//40
f 34//34 40//40 37//37
f 34//34 41//41 39//39
f 34//34 42//42 41//41
f 34//34 43//43 42//42
f 34//34 38//38 44//44
f 34//34 45//45 35//35
f 34//34 36//36 43//43
f 34//34 44//44 45//45
f 35//35 45//45 36//36
f 37//37 46//46 47//47
f 37//37 47//47 48//48
f 37//37 40//40 49//49
f 37//37 49//49 50//50
f 37//37 50//50 51//51
f 37//37 51//51 46//46
f 37//37 52//52 38//38
f 37//37 48//48 52//52
f 46//46 51//51 47//47
f 47//47 51//51 53//53
f 47//47 53//53 32//32
f 47//47 54//54 48//48
f 47//47 32//32 54//54
f 55//55 56//56 57//57
f 55//55 58//58 56//56
f 55//55 59//59 58//58
f 55//55 57//57 59//59
f 56//56 60//60 61//61
f 56//56 61//61 57//57
f 56//56 58//58 62//62
f 56//56 62//62 60//60
f 63//63 64//64 65//65
f 63//63 65//65 62//62
f 63//63 58//58 64//64
f 63//63 62//62 58//58
f 66//66 67//67 68//68
f 66//66 68//68 69//69
f 66//66 69//69 70//70
f 66//66 70//70 67//67
f 67//67 71//71 68//68
f 67//67 70//70 71//71
f 39//39 41//41 40//40
f 40//40 41//41 49//49
f 41//41 42//42 49//49
f 49//49 42//42 50//50
f 42//42 43//43 50//50
f 16//16 18//18 72//72
f 16//16 72//72 17//17
f 50//50 43//43 51//51
f 18//18 19//19 72//72
f 43//43 73//73 51//51
f 43//43 36//36 74//74
f 43//43 74//74 73//73
f 72//72 19//19 75//75
f 72//72 75//75 17//17
f 51//51 73//73 53//53
f 19//19 14//14 75//75
f 73//73 30//30 53//53
f 73//73 74//74 30//30
f 75//75 14//14 76//76
f 75//75 76//76 17//17
f 53//53 30//30 32//32
f 14//14 25//25 76//76
f 38//38 77//77 44//44
f 38//38 52//52 77//77
f 30//30 74//74 78//78
f 30//30 78//78 31//31
f 24//24 79//79 25//25
f 24//24 29//29 79//79
f 54//54 32//32 26//26
f 54//54 80//80 48//48
f 54//54 26//26 80//80
f 76//76 25//25 81//81
f 76//76 81//81 17//17
f 25//25 79//79 82//82
f 25//25 82//82 81//81
f 77//77 83//83 44//44
f 77//77 52//52 84//84
f 77//77 84//84 83//83
f 45//45 44//44 74//74
f 45//45 74//74 36//36
f 31//31 78//78 85//85
f 31//31 85//85 33//33
f 79//79 86//86 82//82
f 79//79 29//29 87//87
f 79//79 87//87 86//86
f 80//80 26//26 88//88
f 80//80 88//88 48//48
f 81//81 82//82 89//89
f 81//81 89//89 90//90
f 81//81 90//90 17//17
f 26//26 27//27 88//88
f 82//82 86//86 91//91
f 82//82 91//91 89//89
f 44//44 83//83 78//78
f 44//44 78//78 74//74
f 33//33 85//85 28//28
f 86//86 92//92 91//91
f 86//86 87//87 92//92
f 4//4 5//5 70//70
f 4//4 70//70 29//29
f 89//89 91//91 93//93
f 89//89 93//93 90//90
f 27//27 20//20 88//88
f 91//91 92//92 94//94
f 91//91 94//94 93//93
f 83//83 95//95 85//85
f 83//83 85//85 78//78
f 83//83 84//84 95//95
f 28//28 85//85 8//8
f 92//92 96//96 94//94
f 92//92 87//87 97//97
f 92//92 97//97 96//96
f 29//29 70//70 87//87
f 93//93 94//94 98//98
f 93//93 98//98 90//90
f 20//20 21//21 88//88
f 94//94 96//96 99//99
f 94//94 99//99 98//98
f 95//95 100//100 8//8
f 95//95 8//8 85//85
f 95//95 84//84 100//100
f 96//96 101//101 99//99
f 96//96 97//97 101//101
f 87//87 70//70 97//97
f 102//102 103//103 104//104
f 102//102 105//105 106//106
f 102//102 104//104 105//105
f 102//102 106//106 107//107
f 102//102 107//107 103//103
f 98//98 99//99 108//108
f 98//98 108//108 90//90
f 21//21 17//17 109//109
f 21//21 109//109 88//88
f 103//103 107//107 110//110
f 103//103 110//110 104//104
f 99//99 101//101 111//111
f 99//99 111//111 108//108
f 100//100 112//112 3//3
f 100//100 3//3 8//8
f 100//100 84//84 112//112
f 101//101 97//97 113//113
f 101//101 114//114 111//111
f 101//101 113//113 114//114
f 97//97 70//70 113//113
f 105//105 115//115 90//90
f 105//105 104//104 61//61
f 105//105 60//60 115//115
f 105//105 90//90 106//106
f 105//105 61//61 60//60
f 108//108 111//111 106//106
f 108//108 106//106 90//90
f 115//115 60//60 65//65
f 115//115 65//65 90//90
f 17//17 90//90 109//109
f 104//104 110//110 116//116
f 104//104 116//116 61//61
f 111//111 114//114 107//107
f 111//111 107//107 106//106
f 112//112 68//68 71//71
f 112//112 71//71 3//3
f 112//112 84//84 68//68
f 3//3 71//71 5//5
f 114//114 113//113 117//117
f 114//114 118//118 107//107
f 114//114 117//117 118//118
f 119//119 120//120 121//121
f 119//119 122//122 123//123
f 119//119 123//123 120//120
f 119//119 124//124 122//122
f 119//119 121//121 124//124
f 113//113 70//70 117//117
f 5//5 71//71 70//70
f 64//64 58//58 125//125
f 64//64 125//125 109//109
f 64//64 109//109 65//65
f 60//60 62//62 65//65
f 65//65 109//109 90//90
f 61//61 120//120 57//57
f 61//61 116//116 120//120
f 107//107 118//118 110//110
f 120//120 123//123 57//57
f 120//120 116//116 121//121
f 68//68 84//84 69//69
f 126//126 122//122 127//127
f 126//126 128//128 122//122
f 126//126 129//129 130//130
f 126//126 127//127 129//129
f 126//126 130//130 128//128
f 131//131 69//69 127//127
f 131//131 117//117 70//70
f 131//131 70//70 69//69
f 131//131 127//127 124//124
f 131//131 124//124 117//117
f 69//69 84//84 132//132
f 69//69 129//129 127//127
f 69//69 132//132 129//129
f 118//118 117//117 124//124
f 118//118 133//133 110//110
f 118//118 124//124 133//133
f 122//122 128//128 123//123
f 122//122 124//124 127//127
f 58//58 59//59 134//134
f 58//58 135//135 125//125
f 58//58 134//134 135//135
f 125//125 136//136 137//137
f 125//125 135//135 136//136
f 125//125 48//48 88//88
f 125//125 137//137 48//48
f 125//125 88//88 109//109
f 59//59 128//128 134//134
f 59//59 57//57 123//123
f 59//59 123//123 128//128
f 128//128 130//130 134//134
f 136//136 135//135 134//134
f 136//136 134//134 137//137
f 110//110 133//133 116//116
f 52//52 48//48 138//138
f 52//52 138//138 84//84
f 84//84 138//138 132//132
f 129//129 132//132 139//139
f 129//129 139//139 130//130
f 132//132 138//138 139//139
f 133//133 124//124 121//121
f 133//133 121//121 116//116
f 48//48 137//137 138//138
f 138//138 137//137 139//139
f 134//134 130//130 137//137
f 130//130 139//139 137//137
# 274 faces, 0 coords texture

# End of File
