####
#
# OBJ File Generated by Meshlab
#
####
# Object matlab_mesh_step17_link4.obj
#
# Vertices: 185
# Faces: 366
#
####
vn 5.100936 -1.927362 1.989154
v 0.356065 0.474482 0.906226
vn 4.758145 -2.674295 2.971730
v 0.355882 0.474562 0.906591
vn 4.168162 -3.654628 2.880332
v 0.232401 0.311562 0.894674
vn 5.400424 -1.620011 0.921668
v 0.356501 0.474628 0.904874
vn 5.573893 -0.719931 2.481175
v 0.345938 0.492959 0.935084
vn 4.418354 -3.754777 2.328814
v 0.232394 0.311545 0.894662
vn 2.481559 -4.636898 1.699945
v 0.223445 0.297107 0.888220
vn 3.778267 -0.178200 3.148554
v 0.310085 0.494450 0.997822
vn 3.334506 -3.507807 3.906119
v 0.178492 0.323033 0.969132
vn 4.326806 2.013861 3.467465
v 0.279099 0.514611 1.025662
vn 3.453432 0.580828 3.655505
v 0.279045 0.514643 1.025711
vn 5.506387 -0.083052 2.582228
v 0.345924 0.492986 0.935123
vn 2.032280 -2.984145 4.969782
v 0.165466 0.333230 0.985290
vn 5.446764 1.289723 2.637345
v 0.345909 0.493014 0.935147
vn 4.899116 2.710341 2.556478
v 0.345892 0.493038 0.935163
vn 2.751515 -4.230381 3.469808
v 0.177855 0.322158 0.968833
vn 4.967383 -1.195273 -1.080544
v 0.356738 0.475027 0.903388
vn 4.731003 -2.737728 -2.147443
v 0.356102 0.474153 0.903089
vn 4.210523 -1.157122 -4.418592
v 0.345715 0.489586 0.885356
vn 6.188255 0.744406 0.634131
v 0.354672 0.503933 0.891854
vn 6.034553 0.717957 1.453380
v 0.351408 0.497472 0.917384
vn 5.880482 0.361144 -0.654507
v 0.354669 0.503982 0.891826
vn 4.887165 0.649200 -1.589569
v 0.354663 0.504026 0.891803
vn 5.052370 -3.723580 0.081851
v 0.355865 0.473753 0.904575
vn 1.096245 -4.596986 0.070376
v 0.223445 0.297105 0.888215
vn 2.646731 -4.812944 -0.626352
v 0.228917 0.301621 0.870504
vn 0.899679 -4.496559 3.165482
v 0.156517 0.318791 0.978843
vn 1.470204 -4.491058 -1.282180
v 0.232184 0.308145 0.844895
vn 1.439379 -4.129456 -1.750905
v 0.232187 0.308156 0.844864
vn 1.451320 -3.382484 -2.843149
v 0.232184 0.308168 0.844840
vn 2.671034 5.448077 1.626302
v 0.164541 0.615833 0.907793
vn 2.650216 5.390357 1.838605
v 0.161294 0.609355 0.933217
vn 2.691004 5.375728 1.823141
v 0.190664 0.594772 0.933254
vn 2.645955 5.481775 1.543180
v 0.164400 0.615921 0.907729
vn 2.600862 5.403239 1.867769
v 0.161146 0.609425 0.933224
vn 2.966928 5.337873 1.412944
v 0.193957 0.601287 0.907631
vn 2.921583 5.395722 1.291101
v 0.193936 0.601306 0.907604
vn 2.586183 5.339973 2.061693
v 0.239140 0.544184 1.006810
vn 2.929757 5.176295 1.971375
v 0.268996 0.529383 1.006810
vn -2.605110 -5.443044 -1.746902
v 0.226657 0.303612 0.862728
vn -2.501188 -5.533381 -1.563678
v 0.223410 0.297134 0.888151
vn -2.705553 -5.382084 -1.783582
v 0.196897 0.318425 0.862570
vn -2.280467 -5.550958 -1.797705
v 0.226682 0.303615 0.862682
vn -2.161871 -5.685013 -1.337018
v 0.223427 0.297119 0.888177
vn -2.786410 -5.467800 -1.232668
v 0.193625 0.311891 0.888220
vn -2.707626 -5.439160 -1.594625
v 0.193675 0.311868 0.888215
vn 2.632350 5.495139 1.516146
v 0.164283 0.615992 0.907675
vn 2.540962 5.423889 1.888132
v 0.160921 0.609526 0.933241
vn 2.569433 5.413083 1.882563
v 0.161021 0.609481 0.933233
vn 3.007877 5.306513 1.453457
v 0.194035 0.601217 0.907729
vn 3.016748 5.307816 1.413857
v 0.193991 0.601256 0.907675
vn 2.765998 5.360745 1.755733
v 0.190690 0.594763 0.933241
vn 2.830916 5.337252 1.725686
v 0.190730 0.594745 0.933233
vn 3.100710 5.240745 1.497447
v 0.272271 0.535924 0.981128
vn 3.348625 5.195340 1.120549
v 0.345186 0.510523 0.890496
vn 3.030444 5.401085 0.218744
v 0.260899 0.579628 0.816953
vn 4.375561 3.870352 2.313043
v 0.284514 0.519156 1.008011
vn 4.653957 3.442571 1.872651
v 0.351361 0.497553 0.917461
vn -1.944259 -5.639686 -1.823108
v 0.226700 0.303621 0.862640
vn -2.739783 -5.352244 -1.817809
v 0.196858 0.318453 0.862542
vn -2.602402 -5.359704 -1.993240
v 0.194767 0.320199 0.860579
vn -2.901909 -5.212666 -1.925909
v 0.118512 0.383845 0.788998
vn -2.586239 -5.340016 -2.061497
v 0.148368 0.369045 0.788998
vn -1.767971 -5.791706 -1.207689
v 0.223438 0.297110 0.888198
vn 2.621316 5.525805 1.388914
v 0.164187 0.616050 0.907631
vn 5.848189 1.283208 1.596830
v 0.351396 0.497502 0.917413
vn 4.247914 4.059774 2.209889
v 0.284469 0.519188 1.008041
vn 3.063392 0.624303 3.794457
v 0.278997 0.514672 1.025751
vn -1.293287 -5.721350 -1.784433
v 0.226712 0.303629 0.862605
vn -1.346152 -3.814552 2.555835
v 0.156465 0.318800 0.978854
vn -3.008358 -5.426304 -0.924568
v 0.132938 0.331551 0.970290
vn -2.062937 -3.632031 2.354086
v 0.126609 0.333601 0.978854
vn -2.048200 -5.555567 -2.049951
v 0.232169 0.308134 0.844940
vn -2.320881 -5.452917 -2.072406
v 0.226716 0.303640 0.862570
vn 0.069669 -6.091139 -1.538746
v 0.228907 0.301623 0.870498
vn 2.572452 5.570011 1.230112
v 0.164117 0.616090 0.907604
vn 2.454699 5.452254 1.912716
v 0.160845 0.609557 0.933254
vn 2.851493 5.499545 0.990799
v 0.193924 0.601316 0.907584
vn 2.995173 5.436958 0.912251
v 0.254570 0.581677 0.825518
vn 4.057864 4.297345 2.095130
v 0.284425 0.519217 1.008070
vn 2.719085 0.957843 3.959085
v 0.278954 0.514701 1.025776
vn 0.982561 -2.473614 5.626526
v 0.165446 0.333249 0.985304
vn -0.260622 -4.382426 2.987285
v 0.156490 0.318794 0.978850
vn 3.925118 -0.771563 -4.826558
v 0.345695 0.489608 0.885336
vn 4.742045 1.324671 -1.565246
v 0.354651 0.504063 0.891790
vn 5.559747 2.136157 1.775797
v 0.351380 0.497530 0.917441
vn 3.770974 -0.742930 -4.938438
v 0.267329 0.555020 0.811777
vn 3.672375 2.396702 -1.930541
v 0.276290 0.569486 0.818235
vn 0.350686 -5.984319 1.690953
v 0.162826 0.316747 0.970300
vn -0.838722 -6.134720 0.848438
v 0.162811 0.316747 0.970295
vn 3.541434 -1.608110 -4.896411
v 0.232179 0.308183 0.844831
vn 3.394988 -1.581253 -5.021830
v 0.230086 0.309930 0.842866
vn 0.308115 -2.325511 -4.064494
v 0.153835 0.373571 0.771278
vn 2.410911 5.381389 2.167652
v 0.155374 0.605041 0.950961
vn 1.678532 5.699252 1.829792
v 0.160794 0.609575 0.933266
vn 2.285413 5.364996 2.335669
v 0.157415 0.603315 0.952931
vn 2.264199 4.812077 3.117390
v 0.233670 0.539669 1.024512
vn 1.277171 5.351116 2.664848
v 0.155324 0.605060 0.950968
vn 1.697648 5.806471 0.834016
v 0.164068 0.616117 0.907584
vn 2.384471 5.775391 0.380004
v 0.224714 0.596478 0.825518
vn 3.577787 4.683826 2.043864
v 0.284387 0.519241 1.008092
vn 1.912774 1.370267 3.921803
v 0.278917 0.514726 1.025794
vn -0.035173 -1.865561 5.872296
v 0.165426 0.333266 0.985313
vn 4.254951 2.599318 -1.032152
v 0.354636 0.504094 0.891779
vn 4.376853 2.776397 -2.194020
v 0.352545 0.505840 0.889816
vn 3.932761 4.543234 1.819002
v 0.345032 0.499603 0.926026
vn -2.954603 -5.378073 -1.241972
v 0.193584 0.311912 0.888224
vn -2.051554 -5.213070 -2.711762
v 0.153838 0.373559 0.771296
vn -1.732709 -5.290724 -2.858383
v 0.230093 0.309913 0.842877
vn -0.285273 2.352041 4.035563
v 0.233638 0.539678 1.024519
vn 2.637145 4.811528 2.894578
v 0.263526 0.524868 1.024512
vn 2.077713 4.082792 4.208870
v 0.263518 0.524867 1.024519
vn 2.732256 4.393128 3.319177
v 0.272985 0.518437 1.025794
vn 3.127853 5.012971 2.133671
v 0.278454 0.522952 1.008092
vn 1.330782 2.299282 4.818168
v 0.272948 0.518455 1.025797
vn -1.934506 3.374397 2.414863
v 0.155293 0.605066 0.950965
vn -1.401312 3.278300 4.406949
v 0.157386 0.603319 0.952931
vn 3.260418 5.165665 1.441518
v 0.278203 0.532214 0.981128
vn 3.189329 5.079175 1.865206
v 0.274928 0.525673 1.006810
vn 2.569729 5.608753 -0.322329
v 0.231043 0.594428 0.816953
vn 2.104271 3.656923 -3.087350
v 0.260904 0.579624 0.816942
vn 0.070029 3.650078 -2.613741
v 0.231024 0.594435 0.816942
vn 3.336968 5.257214 0.512607
v 0.266832 0.575917 0.816953
vn 2.422406 3.369115 -2.905592
v 0.266842 0.575911 0.816942
vn -0.796352 5.144476 -1.819769
v 0.224689 0.596486 0.825513
vn -1.234460 4.889529 -0.686153
v 0.164035 0.616124 0.907573
vn 0.465992 6.024407 1.650126
v 0.160758 0.609578 0.933276
vn 3.495524 4.967190 1.542205
v 0.287661 0.525782 0.982410
vn 3.803647 4.849757 0.693631
v 0.354616 0.504111 0.891774
vn 2.984285 2.513004 -2.572918
v 0.276272 0.569499 0.818220
vn -3.370385 -5.122318 -1.361967
v 0.099847 0.387446 0.813398
vn -3.260367 -5.165685 -1.441593
v 0.109305 0.381014 0.814680
vn -3.575738 -4.940012 -1.460681
v 0.039191 0.407087 0.895452
vn -3.512009 -4.941433 -1.601231
v 0.099844 0.387449 0.813392
vn 1.077118 1.297634 5.136788
v 0.278886 0.514742 1.025797
vn -0.834659 -1.286445 6.079434
v 0.129638 0.351777 0.985313
vn -0.829017 -1.497280 6.015265
v 0.135570 0.348067 0.985313
vn 0.368793 1.288354 5.482525
v 0.243068 0.533266 1.025797
vn -1.232163 -1.238888 5.980095
v 0.129588 0.351801 0.985311
vn -0.293115 -0.526568 6.224754
v 0.249005 0.529553 1.025797
vn -1.129921 -1.819377 5.906035
v 0.135525 0.348088 0.985311
vn -2.201959 -3.566432 2.355092
v 0.126568 0.333626 0.978855
vn 3.750608 4.769049 1.630367
v 0.348307 0.506144 0.900344
vn 2.571885 0.224951 -5.430737
v 0.267315 0.555037 0.811764
vn -3.211967 -5.109712 -1.746463
v 0.112579 0.387555 0.788998
vn -3.738690 -4.489495 -2.088349
v 0.103121 0.393995 0.787689
vn -3.188595 -5.072002 -1.887907
v 0.112551 0.387584 0.788967
vn -3.100545 -5.240818 -1.497515
v 0.115237 0.377304 0.814680
vn -3.348582 -5.195353 -1.120591
v 0.042286 0.402727 0.905301
vn -3.620724 -0.837106 0.678885
v 0.032856 0.409138 0.904023
vn -3.335781 -5.151062 -1.026457
v 0.120603 0.382099 0.790961
vn -3.055714 -5.284865 -1.443783
v 0.117329 0.375558 0.816643
vn -3.334011 -5.213264 -1.083347
v 0.044379 0.400980 0.907266
vn -2.332882 -3.362336 2.382658
v 0.120631 0.337339 0.978855
vn -2.650225 -5.195266 -2.324397
v 0.123982 0.388360 0.771296
vn -3.035835 -5.087691 -2.074384
v 0.118489 0.383871 0.788967
vn -2.358476 -4.353280 -3.478347
v 0.123954 0.388383 0.771278
vn -3.385549 1.119524 5.151888
v 0.233629 0.539672 1.024515
vn -3.883874 0.804473 4.852010
v 0.043906 0.421853 0.912444
vn -2.638776 -0.126809 5.357047
v 0.120158 0.358212 0.984033
vn -4.535860 1.958467 2.574563
v 0.041813 0.423600 0.910479
vn -3.747159 -2.384836 1.871139
v 0.034949 0.407391 0.905988
vn -2.957301 -2.425168 2.302870
v 0.111201 0.343750 0.977576
vn -2.285764 5.195798 0.945853
v 0.158570 0.611612 0.925263
vn -3.887001 4.110131 -1.601150
v 0.164022 0.616114 0.907573
vn -4.615473 4.071208 -0.054888
v 0.158563 0.611607 0.925243
vn -5.008204 3.365262 1.118402
v 0.155285 0.605059 0.950956
vn -5.334587 3.315717 0.014008
v 0.045090 0.430146 0.884776
vn -4.453679 -0.559788 -0.998512
v 0.036133 0.415684 0.878320
vn -1.413873 2.428197 -4.745485
v 0.222066 0.579973 0.810486
vn 0.835766 1.497402 -6.013883
v 0.251947 0.565162 0.810486
vn 1.205781 1.238017 -5.983042
v 0.257884 0.561449 0.810486
vn -4.101837 -4.268902 -2.010167
v 0.042468 0.413633 0.869749
vn -4.246616 0.185656 -2.089322
v 0.041598 0.420196 0.860631
vn -4.094752 -0.185552 -2.982146
v 0.047934 0.418145 0.852059
vn -3.127621 -5.013276 -2.133275
v 0.109059 0.390282 0.787689
vn -2.073764 -0.606631 -3.267158
v 0.108587 0.398507 0.769999
vn -5.247174 3.412353 -0.447500
v 0.149615 0.597158 0.918794
vn -4.398767 3.487285 -2.221986
v 0.155074 0.601665 0.901123
vn -1.543115 -2.500329 -4.252793
v 0.114524 0.394794 0.769999
vn -3.817203 3.411941 -3.637920
v 0.102252 0.400558 0.778570
vn 0.293121 0.526589 -6.224750
v 0.138467 0.383696 0.769999
vn -0.421913 -1.292021 -5.492950
v 0.144405 0.379983 0.769999
vn 1.171021 0.312886 -6.152620
v 0.153826 0.373587 0.771277
vn 1.025609 0.389934 -6.175885
v 0.144428 0.379976 0.770003
# 185 vertices, 0 vertices normals

f 1//1 2//2 3//3
f 1//1 4//4 5//5
f 1//1 5//5 2//2
f 1//1 6//6 7//7
f 1//1 3//3 6//6
f 1//1 7//7 4//4
f 8//8 9//9 3//3
f 8//8 2//2 5//5
f 8//8 10//10 11//11
f 8//8 5//5 12//12
f 8//8 11//11 13//13
f 8//8 12//12 14//14
f 8//8 13//13 9//9
f 8//8 14//14 15//15
f 8//8 3//3 2//2
f 8//8 15//15 10//10
f 9//9 16//16 7//7
f 9//9 13//13 16//16
f 9//9 7//7 3//3
f 17//17 4//4 18//18
f 17//17 18//18 19//19
f 17//17 20//20 21//21
f 17//17 22//22 20//20
f 17//17 21//21 4//4
f 17//17 23//23 22//22
f 17//17 19//19 23//23
f 4//4 24//24 18//18
f 4//4 21//21 5//5
f 4//4 25//25 26//26
f 4//4 26//26 24//24
f 4//4 7//7 25//25
f 16//16 13//13 27//27
f 16//16 27//27 7//7
f 18//18 24//24 26//26
f 18//18 28//28 29//29
f 18//18 26//26 28//28
f 18//18 29//29 30//30
f 18//18 30//30 19//19
f 31//31 32//32 33//33
f 31//31 34//34 35//35
f 31//31 35//35 32//32
f 31//31 36//36 37//37
f 31//31 37//37 34//34
f 31//31 33//33 36//36
f 32//32 35//35 38//38
f 32//32 38//38 39//39
f 32//32 39//39 33//33
f 40//40 41//41 42//42
f 40//40 43//43 41//41
f 40//40 42//42 43//43
f 41//41 43//43 44//44
f 41//41 44//44 45//45
f 41//41 46//46 42//42
f 41//41 45//45 46//46
f 34//34 47//47 48//48
f 34//34 49//49 35//35
f 34//34 48//48 49//49
f 34//34 37//37 47//47
f 50//50 51//51 52//52
f 50//50 53//53 39//39
f 50//50 36//36 51//51
f 50//50 52//52 53//53
f 50//50 54//54 55//55
f 50//50 39//39 54//54
f 50//50 56//56 36//36
f 50//50 55//55 56//56
f 35//35 49//49 38//38
f 10//10 57//57 11//11
f 10//10 15//15 58//58
f 10//10 58//58 57//57
f 20//20 22//22 21//21
f 43//43 59//59 44//44
f 43//43 42//42 60//60
f 43//43 60//60 61//61
f 43//43 62//62 63//63
f 43//43 63//63 59//59
f 43//43 61//61 62//62
f 44//44 59//59 64//64
f 44//44 64//64 45//45
f 47//47 65//65 48//48
f 47//47 37//37 65//65
f 51//51 36//36 33//33
f 51//51 33//33 52//52
f 49//49 48//48 38//38
f 53//53 52//52 39//39
f 5//5 21//21 66//66
f 5//5 66//66 12//12
f 11//11 57//57 67//67
f 11//11 68//68 13//13
f 11//11 67//67 68//68
f 22//22 23//23 66//66
f 22//22 66//66 21//21
f 57//57 58//58 67//67
f 59//59 69//69 64//64
f 59//59 63//63 69//69
f 64//64 69//69 25//25
f 64//64 25//25 70//70
f 64//64 71//71 45//45
f 64//64 72//72 71//71
f 64//64 70//70 72//72
f 73//73 69//69 74//74
f 73//73 28//28 69//69
f 73//73 74//74 29//29
f 73//73 29//29 28//28
f 75//75 69//69 28//28
f 75//75 25//25 69//69
f 75//75 28//28 26//26
f 75//75 26//26 25//25
f 65//65 76//76 77//77
f 65//65 37//37 78//78
f 65//65 77//77 48//48
f 65//65 78//78 76//76
f 36//36 56//56 79//79
f 36//36 79//79 37//37
f 48//48 77//77 38//38
f 52//52 33//33 39//39
f 12//12 66//66 14//14
f 6//6 3//3 7//7
f 68//68 67//67 80//80
f 68//68 81//81 82//82
f 68//68 82//82 13//13
f 68//68 80//80 81//81
f 13//13 82//82 83//83
f 13//13 83//83 27//27
f 23//23 19//19 84//84
f 23//23 85//85 86//86
f 23//23 86//86 66//66
f 23//23 84//84 87//87
f 23//23 88//88 85//85
f 23//23 87//87 88//88
f 66//66 86//86 14//14
f 67//67 58//58 80//80
f 89//89 25//25 7//7
f 89//89 27//27 83//83
f 89//89 90//90 25//25
f 89//89 7//7 27//27
f 89//89 83//83 90//90
f 69//69 63//63 74//74
f 46//46 45//45 42//42
f 25//25 90//90 83//83
f 25//25 83//83 70//70
f 19//19 30//30 91//91
f 19//19 87//87 84//84
f 19//19 91//91 92//92
f 19//19 93//93 87//87
f 19//19 92//92 93//93
f 94//94 77//77 95//95
f 94//94 96//96 97//97
f 94//94 97//97 38//38
f 94//94 98//98 96//96
f 94//94 38//38 77//77
f 94//94 95//95 98//98
f 76//76 99//99 95//95
f 76//76 78//78 79//79
f 76//76 95//95 77//77
f 76//76 100//100 99//99
f 76//76 79//79 100//100
f 37//37 79//79 78//78
f 14//14 86//86 58//58
f 14//14 58//58 15//15
f 81//81 80//80 101//101
f 81//81 102//102 82//82
f 81//81 101//101 102//102
f 82//82 102//102 103//103
f 82//82 103//103 70//70
f 82//82 70//70 83//83
f 85//85 104//104 58//58
f 85//85 58//58 86//86
f 85//85 88//88 105//105
f 85//85 105//105 104//104
f 80//80 58//58 106//106
f 80//80 106//106 101//101
f 42//42 45//45 60//60
f 74//74 63//63 29//29
f 45//45 71//71 107//107
f 45//45 107//107 60//60
f 29//29 63//63 108//108
f 29//29 108//108 109//109
f 29//29 109//109 30//30
f 96//96 98//98 110//110
f 96//96 110//110 97//97
f 97//97 111//111 38//38
f 97//97 110//110 112//112
f 97//97 112//112 111//111
f 111//111 39//39 38//38
f 111//111 113//113 114//114
f 111//111 114//114 39//39
f 111//111 112//112 115//115
f 111//111 115//115 113//113
f 98//98 95//95 116//116
f 98//98 117//117 110//110
f 98//98 116//116 117//117
f 54//54 39//39 118//118
f 54//54 118//118 55//55
f 39//39 119//119 118//118
f 39//39 114//114 119//119
f 120//120 56//56 121//121
f 120//120 100//100 79//79
f 120//120 79//79 56//56
f 120//120 122//122 100//100
f 120//120 121//121 122//122
f 56//56 123//123 124//124
f 56//56 55//55 123//123
f 56//56 124//124 121//121
f 99//99 100//100 122//122
f 99//99 122//122 125//125
f 99//99 126//126 127//127
f 99//99 127//127 95//95
f 99//99 125//125 126//126
f 95//95 127//127 116//116
f 118//118 119//119 101//101
f 118//118 128//128 129//129
f 118//118 101//101 128//128
f 118//118 129//129 55//55
f 119//119 114//114 101//101
f 123//123 88//88 130//130
f 123//123 55//55 129//129
f 123//123 129//129 88//88
f 123//123 130//130 124//124
f 131//131 132//132 133//133
f 131//131 133//133 134//134
f 131//131 134//134 132//132
f 113//113 102//102 114//114
f 113//113 115//115 135//135
f 113//113 135//135 102//102
f 136//136 137//137 138//138
f 136//136 138//138 139//139
f 136//136 139//139 137//137
f 102//102 101//101 114//114
f 102//102 135//135 103//103
f 137//137 103//103 140//140
f 137//137 72//72 103//103
f 137//137 139//139 141//141
f 137//137 140//140 138//138
f 137//137 141//141 142//142
f 137//137 142//142 72//72
f 103//103 72//72 70//70
f 103//103 135//135 140//140
f 104//104 143//143 58//58
f 104//104 105//105 129//129
f 104//104 129//129 143//143
f 58//58 143//143 106//106
f 128//128 101//101 143//143
f 128//128 143//143 129//129
f 101//101 106//106 143//143
f 88//88 87//87 144//144
f 88//88 129//129 105//105
f 88//88 144//144 130//130
f 145//145 132//132 146//146
f 145//145 62//62 132//132
f 145//145 146//146 147//147
f 145//145 147//147 62//62
f 132//132 62//62 148//148
f 132//132 148//148 149//149
f 132//132 134//134 146//146
f 132//132 150//150 133//133
f 132//132 149//149 150//150
f 71//71 72//72 142//142
f 71//71 142//142 107//107
f 151//151 152//152 148//148
f 151//151 60//60 152//152
f 151//151 62//62 61//61
f 151//151 148//148 62//62
f 151//151 61//61 60//60
f 152//152 60//60 107//107
f 152//152 107//107 149//149
f 152//152 149//149 148//148
f 107//107 153//153 149//149
f 107//107 154//154 153//153
f 107//107 142//142 154//154
f 62//62 155//155 108//108
f 62//62 108//108 63//63
f 62//62 147//147 156//156
f 62//62 156//156 157//157
f 62//62 157//157 155//155
f 30//30 109//109 93//93
f 30//30 93//93 92//92
f 30//30 92//92 91//91
f 87//87 93//93 144//144
f 155//155 157//157 108//108
f 108//108 157//157 93//93
f 108//108 93//93 109//109
f 117//117 116//116 158//158
f 117//117 158//158 110//110
f 159//159 160//160 158//158
f 159//159 161//161 162//162
f 159//159 162//162 163//163
f 159//159 163//163 160//160
f 159//159 158//158 161//161
f 110//110 160//160 139//139
f 110//110 138//138 112//112
f 110//110 139//139 138//138
f 110//110 158//158 160//160
f 112//112 138//138 115//115
f 160//160 163//163 154//154
f 160//160 154//154 139//139
f 164//164 116//116 127//127
f 164//164 126//126 165//165
f 164//164 127//127 126//126
f 164//164 166//166 116//116
f 164//164 165//165 166//166
f 116//116 161//161 158//158
f 116//116 166//166 167//167
f 116//116 167//167 161//161
f 168//168 161//161 166//166
f 168//168 169//169 150//150
f 168//168 150//150 161//161
f 168//168 166//166 169//169
f 161//161 150//150 162//162
f 161//161 167//167 166//166
f 122//122 121//121 170//170
f 122//122 170//170 165//165
f 122//122 165//165 125//125
f 121//121 124//124 171//171
f 121//121 171//171 170//170
f 126//126 125//125 165//165
f 124//124 172//172 171//171
f 124//124 130//130 144//144
f 124//124 144//144 172//172
f 162//162 150//150 149//149
f 162//162 153//153 163//163
f 162//162 149//149 153//153
f 163//163 153//153 154//154
f 173//173 133//133 169//169
f 173//173 146//146 134//134
f 173//173 134//134 133//133
f 173//173 169//169 174//174
f 173//173 175//175 146//146
f 173//173 174//174 175//175
f 133//133 150//150 169//169
f 146//146 176//176 147//147
f 146//146 175//175 177//177
f 146//146 177//177 176//176
f 169//169 166//166 178//178
f 169//169 178//178 179//179
f 169//169 179//179 174//174
f 176//176 177//177 180//180
f 176//176 180//180 157//157
f 176//176 156//156 147//147
f 176//176 157//157 156//156
f 175//175 174//174 181//181
f 175//175 181//181 177//177
f 170//170 171//171 177//177
f 170//170 177//177 179//179
f 170//170 179//179 165//165
f 171//171 182//182 177//177
f 171//171 172//172 182//182
f 177//177 182//182 180//180
f 177//177 181//181 179//179
f 182//182 172//172 183//183
f 182//182 183//183 180//180
f 174//174 179//179 181//181
f 172//172 144//144 184//184
f 172//172 185//185 183//183
f 172//172 184//184 185//185
f 180//180 183//183 157//157
f 183//183 93//93 157//157
f 183//183 185//185 184//184
f 183//183 184//184 93//93
f 138//138 140//140 115//115
f 115//115 140//140 135//135
f 139//139 154//154 141//141
f 141//141 154//154 142//142
f 144//144 93//93 184//184
f 166//166 165//165 179//179
f 166//166 179//179 178//178
# 366 faces, 0 coords texture

# End of File
