####
#
# OBJ File Generated by Meshlab
#
####
# Object matlab_mesh_step5_link5.obj
#
# Vertices: 213
# Faces: 422
#
####
vn -4.591619 -4.160055 0.886533
v 0.367970 0.344453 1.018644
vn -4.858127 -3.841992 1.042742
v 0.358674 0.357716 1.025622
vn -4.937610 -3.792727 0.785132
v 0.351548 0.364956 1.018401
vn -4.303174 -4.465506 1.004058
v 0.377854 0.340036 1.041507
vn -4.482086 -4.249830 1.130031
v 0.377857 0.340044 1.041551
vn -4.943724 -3.845993 0.249026
v 0.376218 0.314886 0.891242
vn -4.816726 -3.872332 1.124480
v 0.363192 0.359175 1.050356
vn -4.227557 -4.569288 0.813228
v 0.402540 0.289972 0.914387
vn -4.721052 -3.942774 1.264300
v 0.363206 0.359168 1.050393
vn -4.647467 -4.048940 -0.160567
v 0.390881 0.295770 0.882445
vn -4.347507 -4.449061 0.876605
v 0.402526 0.289992 0.914416
vn -4.850027 -3.785020 1.253889
v 0.363193 0.359180 1.050382
vn -4.932195 -3.736793 1.088940
v 0.351548 0.364958 1.018412
vn -4.086811 -4.660505 1.007155
v 0.409587 0.286759 0.930166
vn -4.267879 -4.420956 1.206788
v 0.384906 0.336817 1.057269
vn -5.061072 -3.608053 0.793169
v 0.325588 0.399468 1.018412
vn -5.196975 -3.156540 -0.683885
v 0.350215 0.349451 0.891242
vn -4.787625 -3.635160 -1.828045
v 0.400422 0.300686 0.847539
vn -4.498091 -4.115792 -0.549057
v 0.390897 0.295753 0.882432
vn -4.881972 -3.213325 -2.213074
v 0.374464 0.335223 0.847479
vn -4.723655 -3.714301 -1.833248
v 0.403739 0.297430 0.845382
vn -4.389974 -4.221615 -0.584728
v 0.394214 0.292497 0.880276
vn -4.785755 -3.614227 -1.873318
v 0.400425 0.300713 0.847479
vn -4.806353 -3.615093 -1.818919
v 0.364990 0.330193 0.882432
vn -4.996122 -3.518660 -1.086760
v 0.364921 0.330279 0.882445
vn -4.051033 -4.746222 0.713450
v 0.405858 0.286715 0.912231
vn -4.536229 -3.943863 -1.812782
v 0.412138 0.289900 0.839433
vn -4.180312 -4.402495 -0.822534
v 0.402612 0.284967 0.874326
vn -4.721207 -3.631214 -1.990592
v 0.403748 0.297450 0.845319
vn -3.995691 -3.880931 -2.564858
v 0.412163 0.289905 0.839360
vn -3.630631 -4.902230 -0.679249
v 0.407762 0.280690 0.874326
vn -3.987601 -4.826866 0.522535
v 0.399347 0.288235 0.880276
vn -3.882853 -4.672404 -1.598834
v 0.402619 0.284961 0.874326
vn -3.948720 -4.836677 0.686543
v 0.410991 0.282453 0.912231
vn -4.085234 -4.687669 0.899705
v 0.409590 0.286745 0.930105
vn -4.013314 -4.757623 0.854242
v 0.412907 0.283489 0.927948
vn -3.989839 -4.751215 0.983925
v 0.412911 0.283496 0.928006
vn -4.302589 -3.536739 2.491083
v 0.370277 0.355931 1.066170
vn -4.190827 -4.315669 1.690865
v 0.384919 0.336824 1.057335
vn -3.881947 -4.490080 1.883380
v 0.463561 0.280227 1.094858
vn -3.951752 -4.758042 1.105942
v 0.491553 0.226899 0.965529
vn -3.951672 -4.757869 1.106974
v 0.466885 0.276964 1.092698
vn -3.924095 -4.842726 0.786591
v 0.418040 0.279226 0.927948
vn -3.936377 -4.801911 0.946977
v 0.418054 0.279225 0.928006
vn -3.870443 -4.911197 0.596472
v 0.419389 0.274923 0.906281
vn -2.825274 -5.447918 0.122589
v 0.498048 0.218315 0.943820
vn -3.871290 -4.894593 0.731083
v 0.489634 0.225860 0.949779
vn -3.778323 -4.900019 1.034607
v 0.496695 0.222627 0.965529
vn -2.732969 -5.391242 -0.499234
v 0.486403 0.224093 0.911849
vn -5.250519 -2.895094 1.570698
v 0.337203 0.393733 1.050393
vn -5.495341 -2.628238 0.592743
v 0.325559 0.399511 1.018416
vn -4.645496 -2.948525 2.570850
v 0.344274 0.390496 1.066170
vn -5.214324 -2.876608 -1.975067
v 0.359773 0.354403 0.856219
vn -4.750292 -3.309297 -2.380438
v 0.377788 0.331959 0.845319
vn -4.690703 -2.231095 -3.257294
v 0.374399 0.335389 0.847412
vn -4.528786 -3.305939 -2.752526
v 0.386202 0.324414 0.839360
vn -4.691363 -2.714737 -3.141143
v 0.377731 0.332116 0.845247
vn -3.277326 -2.031889 -4.356093
v 0.386168 0.324550 0.839274
vn -3.172609 -4.677613 -2.418482
v 0.417305 0.285634 0.839360
vn -3.394509 -4.038876 -3.411747
v 0.412205 0.289921 0.839298
vn -2.564140 -4.596684 -3.263185
v 0.417356 0.285643 0.839298
vn -2.641656 -2.532713 -4.544095
v 0.412204 0.289943 0.839274
vn -2.447291 -5.519024 -1.572413
v 0.495947 0.229036 0.876883
vn 0.030975 -4.572285 -2.719056
v 0.495998 0.229047 0.876782
vn -0.722783 -5.614669 -1.731699
v 0.495996 0.229037 0.876812
vn -1.624215 -6.046452 -0.509429
v 0.493465 0.220860 0.927599
vn -1.247496 -6.027776 -1.000015
v 0.486438 0.224085 0.911836
vn -2.494666 -5.476030 0.432093
v 0.505110 0.215082 0.959570
vn -0.947694 -6.132350 -0.777395
v 0.493509 0.220848 0.927612
vn -3.841949 -3.580331 3.227918
v 0.448916 0.299325 1.103684
vn -3.641232 -4.682917 1.882806
v 0.468704 0.275956 1.094858
vn -1.679255 -3.832300 3.894538
v 0.468732 0.275972 1.094928
vn -3.648687 -4.214386 2.861371
v 0.463576 0.280256 1.094928
vn -3.459764 -4.882080 1.730475
v 0.472027 0.272693 1.092698
vn -1.222822 -4.097360 3.778467
v 0.472065 0.272700 1.092763
vn -3.142887 -5.152128 1.629745
v 0.480442 0.265147 1.086739
vn 1.081279 -5.003064 0.702823
v 0.505152 0.215071 0.959590
vn 0.788818 -4.800693 1.757085
v 0.505148 0.215077 0.959615
vn 0.435219 -4.144911 2.611624
v 0.480502 0.265133 1.086791
vn -5.187917 -1.082468 -2.463666
v 0.359761 0.354452 0.856183
vn -5.648281 -1.264478 -1.025322
v 0.350192 0.349494 0.891249
vn -5.487772 0.015510 0.386765
v 0.325546 0.399549 1.018426
vn -4.105959 -0.946787 3.618066
v 0.344265 0.390538 1.066191
vn -5.662441 -0.880273 2.150800
v 0.337186 0.393779 1.050395
vn -3.928208 -2.942629 3.920894
v 0.422913 0.333890 1.103684
vn -1.788309 -0.830104 5.008971
v 0.422902 0.333926 1.103699
vn -1.851576 -1.984756 4.709796
v 0.448938 0.299319 1.103699
vn -1.453542 -3.123144 -4.516717
v 0.417360 0.285659 0.839274
vn 0.689561 -5.936305 -1.416843
v 0.503067 0.225800 0.892589
vn 2.068623 -5.189855 -0.759603
v 0.514710 0.220023 0.924566
vn 2.521493 -5.279919 -2.071676
v 0.503076 0.225806 0.892579
vn 3.390222 -4.761169 -2.281317
v 0.503098 0.225821 0.892578
vn 3.564290 -4.732900 -2.087181
v 0.514716 0.220036 0.924548
vn 3.968686 -4.415695 -1.945666
v 0.536760 0.239080 0.919938
vn 4.336419 -4.225797 -0.523736
v 0.536770 0.239081 0.919956
vn 4.382929 -4.058005 1.445455
v 0.527201 0.234123 0.955023
vn -4.215187 0.940093 -3.217634
v 0.359770 0.354487 0.856160
vn -6.043829 0.817140 -1.508844
v 0.350194 0.349524 0.891256
vn -5.891598 1.469170 -1.493574
v 0.335115 0.404508 0.983359
vn -5.191356 2.851403 -1.505376
v 0.335131 0.404540 0.983338
vn -4.950786 2.130034 2.380767
v 0.337183 0.393815 1.050382
vn -4.983006 2.575550 0.792327
v 0.325555 0.399578 1.018434
vn -3.279408 1.603370 3.737153
v 0.344266 0.390572 1.066192
vn 0.378913 0.363982 6.238571
v 0.428059 0.329642 1.103699
vn 0.439966 1.025535 6.172991
v 0.444955 0.352972 1.099108
vn -0.828153 1.179055 5.903544
v 0.422902 0.333956 1.103695
vn -1.087300 -1.893089 4.678895
v 0.454095 0.295035 1.103699
vn 1.098420 0.409801 6.159869
v 0.476148 0.314081 1.099108
vn 0.765803 0.719917 6.192194
v 0.450112 0.348688 1.099108
vn 0.718635 -2.213746 5.491584
v 0.468732 0.275996 1.094943
vn 1.162786 -0.904364 5.939051
v 0.454120 0.295034 1.103695
vn 2.865339 5.399635 1.368730
v 0.506916 0.572274 0.989885
vn 2.713490 5.336194 1.827365
v 0.497347 0.567315 1.024952
vn 1.730343 3.015199 3.742575
v 0.575984 0.510703 1.062460
vn 3.626703 4.919731 0.852463
v 0.585553 0.515661 1.027393
vn 2.272415 5.483890 0.497302
v 0.506910 0.572283 0.989860
vn -0.307167 4.024160 2.803849
v 0.497334 0.567320 1.024956
vn 2.543062 2.503279 3.793549
v 0.581141 0.506419 1.062460
vn 4.199658 4.393071 0.918341
v 0.590710 0.511378 1.027393
vn 3.854240 4.941853 -0.280881
v 0.585546 0.515666 1.027364
vn -0.459613 1.856363 5.920485
v 0.553937 0.491682 1.067048
vn 0.176944 1.279502 6.148964
v 0.444936 0.352977 1.099107
vn -0.202548 2.515344 5.628469
v 0.575970 0.510704 1.062460
vn 4.715270 3.649328 1.968459
v 0.589578 0.498853 1.056487
vn 4.429427 4.205700 0.745666
v 0.599147 0.503811 1.021421
vn 4.036372 4.802475 -0.320640
v 0.590707 0.511379 1.027364
vn 2.896553 1.916966 4.156221
v 0.607177 0.471812 1.062460
vn 4.699764 3.004903 2.715061
v 0.615614 0.464246 1.056487
vn 2.809520 0.612910 5.196209
v 0.607188 0.471782 1.062460
vn 4.483693 1.985817 3.884717
v 0.610509 0.468540 1.060295
vn 4.156154 1.195062 4.518126
v 0.610523 0.468507 1.060293
vn 4.783986 3.621039 1.864320
v 0.592911 0.495580 1.054323
vn 4.641511 3.989970 0.697914
v 0.602479 0.500539 1.019256
vn 4.154331 4.683677 -0.436272
v 0.599150 0.503806 1.021388
vn 4.684926 2.608742 2.888360
v 0.618946 0.460973 1.054323
vn 1.792742 -0.373394 5.940965
v 0.476154 0.314055 1.099107
vn 4.463693 1.555998 4.100653
v 0.618967 0.460934 1.054317
vn 4.995652 3.519279 1.090295
v 0.628515 0.465932 1.019256
vn 4.938296 3.850758 -0.255152
v 0.617117 0.481475 1.010485
vn 4.579643 4.219020 -0.386158
v 0.602485 0.500531 1.019221
vn 5.257817 1.071617 2.214193
v 0.633584 0.441910 1.045552
vn 5.350429 1.606391 0.832415
v 0.643153 0.446868 1.010485
vn -4.443541 -1.887556 -3.957818
v 0.382835 0.327822 0.841439
vn -4.328125 -1.332725 -4.350741
v 0.374382 0.335450 0.847407
vn -4.111923 -1.089889 -4.600875
v 0.382826 0.327877 0.841431
vn -2.584631 -0.651640 -5.286346
v 0.386161 0.324602 0.839265
vn -1.175168 -1.091537 -6.043999
v 0.412218 0.289968 0.839265
vn -0.149495 -1.888832 -5.815298
v 0.417379 0.285680 0.839265
vn 1.634129 -3.758057 -3.948896
v 0.496015 0.229064 0.876769
vn 1.381623 -2.378174 5.446810
v 0.472068 0.272722 1.092777
vn 3.840222 -4.324370 -2.383476
v 0.525132 0.244843 0.887990
vn 3.529152 -2.551536 3.821134
v 0.502544 0.284170 1.082212
vn 2.433058 -3.055138 4.234013
v 0.480511 0.265149 1.086801
vn 4.524951 3.671874 -2.103740
v 0.623045 0.440431 0.835543
vn 4.867234 3.257812 -2.073995
v 0.649080 0.405824 0.835543
vn 3.151611 -0.365171 -3.075606
v 0.649083 0.405812 0.835533
vn 4.779529 3.878477 -1.209206
v 0.630123 0.437190 0.851339
vn 5.195056 3.071400 -1.530151
v 0.656159 0.402583 0.851339
vn 4.190806 4.343737 -1.551535
v 0.608414 0.459484 0.844285
vn 4.168298 3.593911 -2.765392
v 0.623026 0.440447 0.835533
vn 4.879494 3.849302 -0.831958
v 0.641763 0.431419 0.883309
vn 4.471983 4.277536 -1.020421
v 0.615497 0.456241 0.860095
vn 4.758195 -0.094216 -0.172690
v 0.667799 0.396812 0.883309
vn 4.765683 -0.750187 -2.049120
v 0.656166 0.402569 0.851342
vn 4.650679 4.137548 -0.800371
v 0.627125 0.450478 0.892043
vn 5.326188 -2.450210 1.405878
v 0.658230 0.391854 0.918376
vn 4.963737 -1.711363 -1.356294
v 0.667794 0.396806 0.883291
vn 4.195731 -0.839978 3.209398
v 0.633578 0.441897 1.045565
vn 4.849077 -3.436358 2.003644
v 0.658218 0.391844 0.918387
vn -3.529149 2.551644 -3.820982
v 0.490805 0.512214 0.819512
vn -2.608852 1.254859 -5.562920
v 0.499248 0.504641 0.813536
vn -3.488549 -0.053106 -5.012499
v 0.368214 0.346914 0.850184
vn -4.382049 4.058838 -1.444852
v 0.466165 0.562267 0.946691
vn -0.328934 4.397645 -0.936444
v 0.488198 0.581288 0.942102
vn -0.306240 3.377820 -2.627968
v 0.512838 0.531235 0.814924
vn -2.408149 1.033627 -5.696159
v 0.502583 0.501366 0.811370
vn -3.210989 0.071808 -5.272210
v 0.371549 0.343639 0.848017
vn 0.714658 3.090906 -3.330069
v 0.521281 0.523662 0.808948
vn 0.858777 2.886861 -3.435814
v 0.524616 0.520387 0.806782
vn -4.218655 4.218918 0.741917
v 0.456589 0.557304 0.981786
vn -2.077584 5.174182 0.782615
v 0.478622 0.576326 0.977198
vn -3.840179 4.324446 2.383377
v 0.468217 0.551541 1.013735
vn -1.536493 5.374034 1.674408
v 0.490251 0.570563 1.009147
vn 0.774148 1.916644 -4.588797
v 0.539228 0.501350 0.798029
vn -1.604610 0.162382 -5.955815
v 0.517195 0.482329 0.802618
vn -2.424840 3.330648 4.039894
v 0.475300 0.548299 1.029544
vn 3.779225 4.899371 -1.034443
v 0.496642 0.573716 0.936126
vn 3.952454 4.757469 -1.105901
v 0.501802 0.569428 0.936126
vn 3.952429 4.757257 -1.106898
v 0.526442 0.519375 0.808948
vn 2.833017 5.445756 -0.126457
v 0.495282 0.578046 0.957912
vn 3.872124 4.893943 -0.731021
v 0.503725 0.570473 0.951935
vn 1.075214 6.102157 0.720964
v 0.499827 0.575525 0.974051
vn 3.926955 4.815426 -0.908250
v 0.575278 0.517099 0.973630
vn 3.871395 4.910338 -0.597509
v 0.573918 0.521429 0.995415
vn 3.949617 4.835892 -0.687030
v 0.582361 0.513857 0.989439
vn 3.990924 4.756783 -0.946122
v 0.580439 0.512812 0.973630
vn 3.988489 4.826063 -0.522989
v 0.593989 0.508094 1.021388
vn 4.051945 4.745384 -0.714076
v 0.587522 0.509569 0.989439
vn 3.736156 4.405324 -2.181435
v 0.529777 0.516100 0.806782
vn 3.952707 4.757133 -1.106443
v 0.505137 0.566153 0.933960
vn 4.259432 4.535752 -0.820250
v 0.590857 0.506294 0.987273
vn 4.085556 4.664385 -0.992061
v 0.583774 0.509537 0.971464
vn 2.068928 2.074839 -4.265571
v 0.544389 0.497063 0.798029
vn 2.408186 -1.033670 5.696130
v 0.490766 0.295018 1.090355
vn 3.210906 -0.071895 5.272298
v 0.621800 0.452744 1.053707
vn 3.488532 0.053085 5.012510
v 0.625135 0.449470 1.051541
vn -0.765913 -0.720002 -6.192174
v 0.543252 0.447694 0.802618
vn -0.430335 -1.034317 -6.171443
v 0.548413 0.443407 0.802618
vn -0.379028 -0.364094 -6.238543
v 0.565286 0.466716 0.798029
vn 1.824070 0.502281 -4.847448
v 0.570446 0.462428 0.798029
vn 0.459340 -1.856146 -5.920524
v 0.439412 0.304702 0.834677
vn 2.424841 -3.330647 -4.039888
v 0.518049 0.248085 0.872180
vn 2.608884 -1.254891 5.562904
v 0.494101 0.291743 1.088188
# 213 vertices, 0 vertices normals

f 1//1 2//2 3//3
f 1//1 4//4 5//5
f 1//1 3//3 6//6
f 1//1 7//7 2//2
f 1//1 8//8 4//4
f 1//1 5//5 9//9
f 1//1 10//10 11//11
f 1//1 11//11 8//8
f 1//1 6//6 10//10
f 1//1 9//9 7//7
f 2//2 7//7 12//12
f 2//2 13//13 3//3
f 2//2 12//12 13//13
f 4//4 8//8 14//14
f 4//4 15//15 5//5
f 4//4 14//14 15//15
f 3//3 16//16 17//17
f 3//3 13//13 16//16
f 3//3 17//17 6//6
f 7//7 9//9 12//12
f 18//18 19//19 20//20
f 18//18 21//21 22//22
f 18//18 22//22 19//19
f 18//18 20//20 23//23
f 18//18 23//23 21//21
f 24//24 19//19 25//25
f 24//24 20//20 19//19
f 24//24 25//25 20//20
f 19//19 22//22 26//26
f 19//19 8//8 10//10
f 19//19 26//26 8//8
f 19//19 10//10 25//25
f 21//21 27//27 28//28
f 21//21 28//28 22//22
f 21//21 23//23 29//29
f 21//21 29//29 30//30
f 21//21 30//30 27//27
f 22//22 28//28 31//31
f 22//22 32//32 26//26
f 22//22 31//31 32//32
f 27//27 30//30 28//28
f 28//28 30//30 33//33
f 28//28 33//33 31//31
f 32//32 34//34 26//26
f 32//32 31//31 34//34
f 8//8 35//35 14//14
f 8//8 26//26 36//36
f 8//8 36//36 35//35
f 8//8 11//11 10//10
f 35//35 36//36 37//37
f 35//35 37//37 14//14
f 5//5 15//15 38//38
f 5//5 38//38 9//9
f 15//15 14//14 37//37
f 15//15 39//39 38//38
f 15//15 40//40 39//39
f 15//15 37//37 41//41
f 15//15 41//41 42//42
f 15//15 42//42 40//40
f 26//26 34//34 36//36
f 36//36 34//34 43//43
f 36//36 43//43 44//44
f 36//36 44//44 37//37
f 34//34 45//45 46//46
f 34//34 31//31 45//45
f 34//34 47//47 48//48
f 34//34 46//46 47//47
f 34//34 48//48 43//43
f 45//45 31//31 49//49
f 45//45 49//49 46//46
f 43//43 48//48 44//44
f 16//16 13//13 50//50
f 16//16 51//51 17//17
f 16//16 50//50 51//51
f 13//13 12//12 50//50
f 12//12 9//9 38//38
f 12//12 52//52 50//50
f 12//12 38//38 52//52
f 20//20 25//25 53//53
f 20//20 54//54 23//23
f 20//20 53//53 55//55
f 20//20 55//55 54//54
f 23//23 54//54 29//29
f 25//25 10//10 17//17
f 25//25 17//17 53//53
f 10//10 6//6 17//17
f 54//54 56//56 30//30
f 54//54 30//30 29//29
f 54//54 55//55 57//57
f 54//54 57//57 56//56
f 56//56 57//57 58//58
f 56//56 58//58 30//30
f 30//30 59//59 31//31
f 30//30 31//31 33//33
f 30//30 60//60 61//61
f 30//30 61//61 59//59
f 30//30 58//58 62//62
f 30//30 62//62 60//60
f 59//59 63//63 31//31
f 59//59 61//61 64//64
f 59//59 64//64 63//63
f 31//31 63//63 49//49
f 63//63 65//65 49//49
f 63//63 64//64 65//65
f 49//49 66//66 46//46
f 49//49 65//65 67//67
f 49//49 67//67 66//66
f 66//66 68//68 46//46
f 66//66 67//67 69//69
f 66//66 69//69 68//68
f 39//39 40//40 70//70
f 39//39 70//70 38//38
f 40//40 42//42 71//71
f 40//40 71//71 72//72
f 40//40 73//73 70//70
f 40//40 72//72 73//73
f 37//37 44//44 48//48
f 37//37 48//48 41//41
f 41//41 48//48 42//42
f 42//42 48//48 74//74
f 42//42 74//74 71//71
f 71//71 74//74 75//75
f 71//71 75//75 72//72
f 47//47 46//46 68//68
f 47//47 68//68 48//48
f 48//48 68//68 76//76
f 48//48 76//76 74//74
f 68//68 69//69 77//77
f 68//68 77//77 78//78
f 68//68 78//78 79//79
f 68//68 79//79 76//76
f 74//74 76//76 79//79
f 74//74 79//79 75//75
f 53//53 17//17 80//80
f 53//53 80//80 55//55
f 17//17 51//51 81//81
f 17//17 81//81 80//80
f 51//51 50//50 82//82
f 51//51 82//82 81//81
f 50//50 52//52 83//83
f 50//50 84//84 82//82
f 50//50 83//83 84//84
f 52//52 38//38 85//85
f 52//52 85//85 83//83
f 38//38 70//70 85//85
f 85//85 70//70 86//86
f 85//85 86//86 83//83
f 70//70 87//87 86//86
f 70//70 73//73 87//87
f 60//60 62//62 88//88
f 60//60 88//88 61//61
f 61//61 88//88 64//64
f 65//65 89//89 69//69
f 65//65 69//69 67//67
f 65//65 64//64 89//89
f 89//89 90//90 69//69
f 89//89 64//64 91//91
f 89//89 91//91 90//90
f 69//69 90//90 77//77
f 90//90 91//91 92//92
f 90//90 93//93 94//94
f 90//90 95//95 96//96
f 90//90 96//96 77//77
f 90//90 92//92 93//93
f 90//90 94//94 95//95
f 77//77 96//96 78//78
f 80//80 81//81 97//97
f 80//80 97//97 55//55
f 81//81 82//82 98//98
f 81//81 98//98 97//97
f 99//99 82//82 100//100
f 99//99 97//97 82//82
f 99//99 100//100 97//97
f 82//82 84//84 101//101
f 82//82 97//97 98//98
f 82//82 102//102 100//100
f 82//82 101//101 102//102
f 84//84 83//83 103//103
f 84//84 103//103 101//101
f 83//83 86//86 103//103
f 86//86 87//87 104//104
f 86//86 104//104 105//105
f 86//86 105//105 106//106
f 86//86 106//106 103//103
f 87//87 107//107 104//104
f 87//87 73//73 107//107
f 104//104 107//107 108//108
f 104//104 109//109 105//105
f 104//104 108//108 109//109
f 107//107 73//73 72//72
f 107//107 72//72 110//110
f 107//107 111//111 108//108
f 107//107 110//110 111//111
f 112//112 113//113 114//114
f 112//112 115//115 116//116
f 112//112 114//114 115//115
f 112//112 116//116 117//117
f 112//112 117//117 113//113
f 113//113 117//117 114//114
f 115//115 114//114 118//118
f 115//115 119//119 120//120
f 115//115 118//118 119//119
f 115//115 120//120 116//116
f 114//114 105//105 109//109
f 114//114 109//109 118//118
f 114//114 121//121 106//106
f 114//114 106//106 122//122
f 114//114 117//117 123//123
f 114//114 123//123 121//121
f 114//114 122//122 105//105
f 105//105 122//122 106//106
f 119//119 118//118 124//124
f 119//119 125//125 126//126
f 119//119 124//124 125//125
f 119//119 126//126 120//120
f 118//118 127//127 128//128
f 118//118 128//128 124//124
f 118//118 109//109 127//127
f 127//127 109//109 108//108
f 127//127 108//108 129//129
f 127//127 130//130 128//128
f 127//127 129//129 131//131
f 127//127 131//131 130//130
f 125//125 124//124 132//132
f 125//125 133//133 134//134
f 125//125 132//132 133//133
f 125//125 134//134 126//126
f 124//124 128//128 132//132
f 128//128 130//130 135//135
f 128//128 135//135 132//132
f 108//108 111//111 136//136
f 108//108 136//136 129//129
f 130//130 131//131 137//137
f 130//130 137//137 135//135
f 133//133 138//138 139//139
f 133//133 132//132 135//135
f 133//133 135//135 138//138
f 133//133 139//139 140//140
f 133//133 140//140 134//134
f 138//138 135//135 141//141
f 138//138 142//142 139//139
f 138//138 141//141 142//142
f 135//135 137//137 141//141
f 55//55 143//143 57//57
f 55//55 97//97 144//144
f 55//55 144//144 143//143
f 143//143 58//58 57//57
f 143//143 144//144 145//145
f 143//143 145//145 58//58
f 58//58 145//145 146//146
f 58//58 146//146 62//62
f 62//62 146//146 147//147
f 62//62 147//147 148//148
f 62//62 148//148 88//88
f 88//88 148//148 149//149
f 88//88 149//149 64//64
f 64//64 149//149 91//91
f 91//91 149//149 92//92
f 72//72 75//75 150//150
f 72//72 150//150 110//110
f 93//93 92//92 151//151
f 93//93 151//151 94//94
f 78//78 96//96 152//152
f 78//78 152//152 79//79
f 75//75 79//79 153//153
f 75//75 153//153 150//150
f 79//79 152//152 153//153
f 154//154 155//155 156//156
f 154//154 157//157 158//158
f 154//154 158//158 155//155
f 154//154 159//159 157//157
f 154//154 160//160 159//159
f 154//154 156//156 160//160
f 155//155 158//158 156//156
f 157//157 161//161 158//158
f 157//157 159//159 162//162
f 157//157 162//162 161//161
f 158//158 161//161 163//163
f 158//158 163//163 164//164
f 158//158 164//164 156//156
f 161//161 139//139 163//163
f 161//161 162//162 165//165
f 161//161 165//165 140//140
f 161//161 140//140 139//139
f 163//163 166//166 95//95
f 163//163 95//95 167//167
f 163//163 139//139 142//142
f 163//163 142//142 166//166
f 163//163 167//167 164//164
f 166//166 96//96 95//95
f 166//166 142//142 141//141
f 166//166 141//141 168//168
f 166//166 169//169 96//96
f 166//166 168//168 169//169
f 95//95 94//94 167//167
f 96//96 169//169 168//168
f 96//96 168//168 152//152
f 141//141 137//137 168//168
f 170//170 171//171 172//172
f 170//170 97//97 100//100
f 170//170 172//172 97//97
f 170//170 173//173 174//174
f 170//170 100//100 173//173
f 170//170 175//175 171//171
f 170//170 174//174 175//175
f 171//171 176//176 177//177
f 171//171 177//177 172//172
f 171//171 175//175 178//178
f 171//171 178//178 179//179
f 171//171 179//179 176//176
f 97//97 172//172 144//144
f 172//172 177//177 145//145
f 172//172 145//145 144//144
f 173//173 180//180 181//181
f 173//173 100//100 102//102
f 173//173 102//102 180//180
f 173//173 181//181 174//174
f 180//180 102//102 182//182
f 180//180 182//182 183//183
f 180//180 183//183 181//181
f 102//102 101//101 182//182
f 176//176 179//179 184//184
f 176//176 185//185 177//177
f 176//176 184//184 185//185
f 177//177 185//185 146//146
f 177//177 146//146 145//145
f 182//182 186//186 183//183
f 182//182 101//101 186//186
f 186//186 101//101 103//103
f 186//186 103//103 106//106
f 186//186 121//121 123//123
f 186//186 106//106 121//121
f 186//186 117//117 183//183
f 186//186 123//123 117//117
f 111//111 110//110 136//136
f 175//175 174//174 178//178
f 178//178 174//174 187//187
f 178//178 187//187 188//188
f 178//178 189//189 179//179
f 178//178 188//188 189//189
f 174//174 181//181 183//183
f 174//174 190//190 191//191
f 174//174 191//191 187//187
f 174//174 192//192 116//116
f 174//174 183//183 192//192
f 174//174 116//116 190//190
f 187//187 191//191 193//193
f 187//187 193//193 188//188
f 190//190 194//194 191//191
f 190//190 116//116 194//194
f 191//191 194//194 195//195
f 191//191 195//195 193//193
f 193//193 195//195 196//196
f 193//193 196//196 188//188
f 194//194 116//116 120//120
f 194//194 120//120 197//197
f 194//194 197//197 195//195
f 195//195 198//198 196//196
f 195//195 197//197 198//198
f 179//179 189//189 199//199
f 179//179 199//199 184//184
f 189//189 188//188 200//200
f 189//189 200//200 199//199
f 188//188 196//196 200//200
f 196//196 198//198 201//201
f 196//196 202//202 200//200
f 196//196 201//201 202//202
f 198//198 197//197 134//134
f 198//198 134//134 201//201
f 199//199 200//200 159//159
f 199//199 159//159 203//203
f 199//199 203//203 184//184
f 200//200 202//202 159//159
f 159//159 202//202 201//201
f 159//159 201//201 162//162
f 159//159 160//160 203//203
f 162//162 201//201 165//165
f 201//201 134//134 140//140
f 201//201 140//140 165//165
f 192//192 183//183 117//117
f 192//192 117//117 116//116
f 120//120 126//126 197//197
f 197//197 126//126 134//134
f 129//129 136//136 204//204
f 129//129 205//205 131//131
f 129//129 204//204 205//205
f 136//136 110//110 204//204
f 131//131 205//205 206//206
f 131//131 206//206 137//137
f 137//137 206//206 168//168
f 185//185 207//207 146//146
f 185//185 184//184 207//207
f 207//207 147//147 146//146
f 207//207 208//208 148//148
f 207//207 148//148 147//147
f 207//207 184//184 209//209
f 207//207 209//209 208//208
f 208//208 209//209 210//210
f 208//208 210//210 211//211
f 208//208 211//211 148//148
f 148//148 211//211 149//149
f 149//149 211//211 212//212
f 149//149 212//212 151//151
f 149//149 151//151 92//92
f 110//110 150//150 204//204
f 150//150 153//153 213//213
f 150//150 213//213 204//204
f 153//153 152//152 213//213
f 184//184 203//203 209//209
f 209//209 203//203 210//210
f 203//203 160//160 210//210
f 210//210 160//160 156//156
f 210//210 156//156 212//212
f 210//210 212//212 211//211
f 156//156 164//164 212//212
f 164//164 151//151 212//212
f 164//164 167//167 151//151
f 151//151 167//167 94//94
f 205//205 204//204 206//206
f 204//204 213//213 206//206
f 206//206 213//213 168//168
f 168//168 213//213 152//152
# 422 faces, 0 coords texture

# End of File
