####
#
# OBJ File Generated by Meshlab
#
####
# Object matlab_mesh_step21_link4.obj
#
# Vertices: 193
# Faces: 382
#
####
vn -0.480757 -6.212668 -0.095184
v 0.172514 0.356193 0.870190
vn 1.468727 -5.209963 -0.665350
v 0.173601 0.356124 0.869386
vn 0.101230 -6.257718 0.523031
v 0.177236 0.357490 0.885522
vn 0.177321 -5.743062 1.487613
v 0.078779 0.363134 0.936574
vn -0.963079 -6.130446 -0.252286
v 0.060886 0.365013 0.938175
vn 1.546973 -5.154132 -1.162943
v 0.173720 0.356462 0.867865
vn -1.334451 -5.981834 -1.369376
v 0.061680 0.371727 0.903244
vn 0.495333 -5.854199 -2.214448
v 0.178494 0.365909 0.843844
vn 2.299704 -5.153222 -1.754095
v 0.178508 0.365923 0.843811
vn 4.516872 -4.158211 -0.829126
v 0.179126 0.364329 0.852578
vn 4.793266 -3.913554 -0.592117
v 0.178652 0.362602 0.859432
vn -1.189913 -5.692717 -2.262523
v 0.107334 0.406631 0.738213
vn 0.084876 -5.615024 -2.492552
v 0.125232 0.404751 0.736609
vn -1.399004 -5.825328 -1.854975
v 0.008877 0.412260 0.789191
vn -1.429995 -5.944036 -1.441079
v 0.009836 0.409483 0.798956
vn -1.412383 -5.929296 -1.514060
v 0.008401 0.410528 0.796070
vn 2.582755 -4.772868 0.245499
v 0.177247 0.357492 0.885549
vn -1.367984 -6.018445 -1.152817
v 0.060265 0.366604 0.929441
vn -1.277228 -6.059670 -1.044086
v 0.060271 0.366600 0.929456
vn 5.372109 2.763094 -1.664486
v 0.244906 0.556935 0.920858
vn 4.946317 0.909340 -0.523820
v 0.245401 0.556401 0.921575
vn 4.906436 1.863234 -2.376166
v 0.167550 0.628483 0.794477
vn 4.906147 3.660490 -0.523413
v 0.220873 0.589637 0.901653
vn 2.212342 0.405492 4.850183
v 0.161135 0.569212 0.986202
vn 3.524761 -1.277116 4.974972
v 0.161321 0.569184 0.986063
vn 3.716458 -0.314046 5.053190
v 0.162222 0.569143 0.985398
vn 3.978131 2.084273 3.180060
v 0.219612 0.581206 0.943391
vn 2.183316 2.830950 4.923226
v 0.117778 0.587355 0.996304
vn 1.458691 1.826162 4.748809
v 0.117711 0.587376 0.996321
vn 0.833979 -1.453478 6.045036
v 0.115675 0.570557 0.993406
vn 0.129801 -3.870959 3.311780
v 0.075304 0.363656 0.938491
vn 3.653214 2.798473 3.239831
v 0.219578 0.581232 0.943411
vn 1.360623 -3.453773 4.468349
v 0.075324 0.363658 0.938487
vn 1.769702 -3.960013 3.929177
v 0.078795 0.363136 0.936572
vn 3.079955 -3.218531 3.004767
v 0.177249 0.357501 0.885577
vn 2.997620 3.738495 3.083092
v 0.219548 0.581251 0.943423
vn 2.690831 3.733732 3.961187
v 0.216074 0.581774 0.945339
vn 3.539229 -1.350190 4.950616
v 0.244195 0.556133 0.923899
vn 3.520838 -1.328304 4.972666
v 0.243865 0.556185 0.924147
vn 4.205863 0.175143 2.006481
v 0.245282 0.556064 0.923096
vn 3.718477 -0.416648 5.044692
v 0.244951 0.556116 0.923344
vn 3.717243 -0.403371 5.046262
v 0.162408 0.569115 0.985259
vn 3.048155 -3.803688 1.090944
v 0.177251 0.357496 0.885566
vn 4.750120 4.017406 0.741793
v 0.221525 0.587997 0.910458
vn 4.706920 3.983617 1.182895
v 0.220122 0.582896 0.936521
vn 5.047713 3.702854 -0.087103
v 0.220906 0.589593 0.901683
vn 5.100968 -3.143235 -0.739406
v 0.179132 0.364343 0.852543
vn 5.936635 -1.911231 -0.749889
v 0.179133 0.364356 0.852513
vn 5.548694 -2.789705 -0.308938
v 0.178657 0.362614 0.859408
vn 5.275402 -0.081997 -3.409262
v 0.165516 0.611649 0.791558
vn 4.507199 -2.550760 -2.309721
v 0.178516 0.365945 0.843776
vn 1.413873 -1.708599 -3.326745
v 0.125234 0.404757 0.736597
vn 4.561485 2.492446 2.806259
v 0.219648 0.581174 0.943362
vn 4.502688 4.264924 0.751158
v 0.221492 0.588042 0.910420
vn 4.423023 4.270245 1.229900
v 0.220087 0.582932 0.936537
vn 1.142240 5.977492 1.562728
v 0.032322 0.636293 0.882341
vn 1.140407 5.970757 1.589785
v 0.031848 0.634570 0.889181
vn 1.374645 5.834111 1.840470
v 0.183245 0.590204 0.945345
vn 1.087854 5.999798 1.512368
v 0.032202 0.636319 0.882326
vn 1.080110 5.977363 1.606106
v 0.031728 0.634593 0.889180
vn 1.368882 5.936347 1.520701
v 0.183721 0.591936 0.938466
vn 1.316669 5.954807 1.501373
v 0.182286 0.592981 0.935581
vn 1.181071 6.011490 1.367337
v 0.130442 0.630738 0.831292
vn 0.980181 4.573739 3.458957
v 0.084830 0.595820 0.996337
vn 1.138177 2.100507 4.379868
v 0.117652 0.587394 0.996332
vn 0.579388 -1.427474 6.076281
v 0.115618 0.570559 0.993413
vn 0.771207 6.038696 1.554763
v 0.014280 0.638211 0.883934
vn 0.762725 6.003411 1.685499
v 0.013805 0.636484 0.890788
vn 0.833503 6.000848 1.659522
v 0.031546 0.634626 0.889169
vn 0.708190 6.076132 1.419225
v 0.014188 0.638226 0.883918
vn 0.655938 6.005596 1.713954
v 0.013713 0.636497 0.890783
vn 0.860951 6.061227 1.392059
v 0.032022 0.636357 0.882296
vn -0.879471 2.106413 3.474054
v 0.066888 0.597707 0.997939
vn 0.888232 5.566336 2.576741
v 0.084765 0.595831 0.996337
vn 4.463048 4.286071 -0.208622
v 0.220842 0.589671 0.901633
vn 4.062176 4.675070 0.832136
v 0.221460 0.588078 0.910387
vn 3.967931 4.676435 1.293677
v 0.220053 0.582961 0.936546
vn 0.993034 6.033776 1.430323
v 0.032101 0.636341 0.882311
vn 0.962976 5.987919 1.637566
v 0.031626 0.634612 0.889176
vn 1.948237 5.055892 2.774562
v 0.216044 0.581784 0.945345
vn 3.543256 -3.760189 -1.730904
v 0.178515 0.365935 0.843789
vn 4.853020 3.858163 -1.016144
v 0.168982 0.627440 0.797357
vn 0.302238 -1.370413 6.114015
v 0.097705 0.572444 0.995020
vn 0.466333 -0.411339 6.204999
v 0.099739 0.589279 0.997939
vn 0.384670 0.967580 5.759898
v 0.099705 0.589287 0.997942
vn -0.059229 -1.355496 6.115164
v 0.097674 0.572443 0.995020
vn -0.677676 -3.728067 2.717008
v 0.057406 0.365537 0.940096
vn 0.950565 -5.674059 2.462171
v 0.170943 0.357857 0.888834
vn 1.272803 -5.342005 3.047564
v 0.170934 0.357863 0.888847
vn 0.715837 6.127206 1.189989
v 0.015595 0.643344 0.857759
vn 0.379802 6.151852 1.154459
v 0.015531 0.643360 0.857711
vn 0.326677 6.100806 1.389524
v 0.014123 0.638237 0.883901
vn 0.842939 6.116402 1.153148
v 0.033429 0.641480 0.856106
vn 1.001751 2.707230 4.223083
v 0.117603 0.587406 0.996337
vn 0.138642 5.969639 1.851858
v 0.013648 0.636506 0.890774
vn 3.538185 5.043254 0.258691
v 0.220815 0.589695 0.901622
vn 3.196672 5.229477 0.930674
v 0.221432 0.588106 0.910359
vn 3.077531 5.236274 1.364095
v 0.220024 0.582982 0.936549
vn 0.965787 6.086133 1.226089
v 0.033508 0.641459 0.856152
vn 1.175625 6.065230 1.097128
v 0.131850 0.635864 0.805081
vn 1.448640 5.666817 2.291475
v 0.084919 0.595800 0.996332
vn 5.061781 0.016699 -3.711291
v 0.165499 0.611657 0.791534
vn 3.020671 2.864325 -1.807603
v 0.167531 0.628501 0.794455
vn 3.499858 5.080754 0.099585
v 0.168965 0.627457 0.797338
vn 2.528261 0.697428 -5.040928
v 0.127263 0.421599 0.739518
vn -0.461271 -1.261423 6.127409
v 0.064901 0.580857 0.995020
vn -0.928704 -3.224818 4.790397
v 0.024633 0.373951 0.940096
vn 0.213824 2.431934 3.993992
v 0.066932 0.597701 0.997942
vn -2.279268 -0.833536 5.433130
v 0.064859 0.580865 0.995018
vn -2.168566 -2.372305 1.968125
v 0.024609 0.373956 0.940094
vn -1.072721 -6.112297 -0.165102
v 0.057409 0.365536 0.940094
vn 0.777310 6.165774 0.898878
v 0.032813 0.643070 0.847369
vn 0.443225 6.192574 0.799639
v 0.014915 0.644950 0.848974
vn -1.172592 5.494373 -0.569733
v 0.014878 0.644954 0.848955
vn -0.292758 6.157794 1.152224
v 0.015494 0.643368 0.857674
vn -1.285687 5.843588 1.269344
v 0.014085 0.638241 0.883886
vn -2.424120 4.291644 2.283933
v 0.013609 0.636508 0.890764
vn -1.286499 5.466253 2.618506
v 0.065453 0.598752 0.995053
vn 2.585623 5.667736 0.794093
v 0.220791 0.589707 0.901617
vn 2.241937 5.747969 1.066414
v 0.221407 0.588121 0.910337
vn 2.068202 5.741508 1.400106
v 0.219998 0.582994 0.936548
vn 2.195330 5.362604 2.219340
v 0.219522 0.581262 0.943427
vn 1.431298 6.005263 1.154294
v 0.131900 0.635848 0.805109
vn 1.550599 5.967267 1.209130
v 0.164673 0.627434 0.805109
vn 1.514485 6.004286 1.059608
v 0.135374 0.635325 0.803192
vn 1.413691 5.965506 1.362600
v 0.130492 0.630725 0.831299
vn 1.459793 6.029446 0.996575
v 0.135328 0.635341 0.803162
vn 0.699129 3.724891 -2.548421
v 0.134713 0.636928 0.794443
vn 0.928171 6.129954 0.286281
v 0.131235 0.637451 0.796361
vn 1.561399 5.941014 1.317463
v 0.163265 0.622311 0.831299
vn 1.676951 5.919425 1.270361
v 0.166740 0.621788 0.829382
vn 1.970519 5.854286 1.036336
v 0.168147 0.626911 0.803192
vn 1.621350 5.881140 1.490905
v 0.216520 0.583517 0.938466
vn 1.648311 5.972747 1.027663
v 0.168128 0.626922 0.803162
vn 1.525205 6.031899 0.863142
v 0.134758 0.636915 0.794455
vn 1.664415 3.013396 -2.420820
v 0.167513 0.628508 0.794443
vn -1.480304 -5.653154 -2.305136
v 0.074561 0.415045 0.738213
vn -2.292725 -3.414361 -3.473745
v -0.023923 0.420680 0.789191
vn -1.440182 -1.840375 -4.037190
v 0.074557 0.415052 0.738200
vn -2.213513 -2.871267 -3.958120
v 0.068236 0.415413 0.741472
vn -0.859317 -4.536159 -3.652282
v 0.107357 0.406633 0.738200
vn -1.519230 -6.000860 -1.073548
v 0.056790 0.367126 0.931358
vn -1.500070 -6.018583 -1.001078
v 0.056794 0.367123 0.931374
vn -1.950159 -5.863329 -1.014701
v 0.023994 0.375542 0.931374
vn -1.452260 -5.970374 -1.305695
v 0.061672 0.371727 0.903251
vn -1.561206 -5.941056 -1.317493
v 0.028880 0.380146 0.903244
vn -1.861442 -5.866913 -1.198673
v -0.022964 0.417902 0.798956
vn -1.621316 -5.881157 -1.490881
v -0.024399 0.418947 0.796070
vn -1.550455 -5.967330 -1.209003
v 0.027472 0.375019 0.929456
vn 0.716254 6.202994 0.698739
v 0.039076 0.642717 0.844079
vn -0.375057 5.796879 -1.364087
v 0.021199 0.644593 0.845682
vn -0.382518 5.426613 -1.629253
v 0.113358 0.639327 0.797963
vn -3.454162 2.064759 3.407382
v 0.066875 0.597707 0.997929
vn -4.469197 -0.248145 4.365606
v 0.064847 0.580873 0.995009
vn -4.008954 -2.775978 0.987944
v 0.023174 0.375000 0.937208
vn -5.250121 0.082627 3.382290
v 0.026638 0.390798 0.943015
vn -4.106619 -2.288376 0.519880
v -0.028670 0.412757 0.832919
vn -5.585097 0.249157 2.866670
v 0.025204 0.391843 0.940129
vn -5.878734 0.574822 1.718320
v -0.026641 0.429599 0.835840
vn -6.201442 0.770787 0.626206
v -0.026643 0.429595 0.835826
vn -3.986733 -2.477717 -0.483473
v -0.029285 0.414343 0.824199
vn -2.100656 -5.813519 -1.060450
v 0.022559 0.376587 0.928488
vn -6.205928 0.803420 0.523636
v -0.027256 0.431177 0.827131
vn -1.758478 5.824987 1.082377
v 0.013470 0.639827 0.875166
vn -4.334393 3.631809 0.571747
v 0.013461 0.639821 0.875173
vn -2.715025 5.537455 1.200501
v 0.014075 0.638239 0.883869
vn -4.280366 2.701943 1.593682
v 0.013599 0.636506 0.890750
vn -5.115234 1.486380 3.080758
v 0.065439 0.598752 0.995042
vn -6.187146 0.953712 0.190102
v -0.027256 0.431185 0.827120
vn -4.483353 3.207879 0.712884
v 0.012985 0.638088 0.882055
vn -3.310849 -1.688488 -1.884945
v -0.027401 0.421203 0.791109
vn -3.907824 -2.555788 -0.804297
v -0.027877 0.419470 0.797988
vn -6.196032 1.002445 -0.157000
v -0.025847 0.436312 0.800909
vn -5.270439 1.427034 -2.085348
v -0.025371 0.438045 0.794030
vn -4.039076 1.417005 -4.109581
v -0.025371 0.438039 0.794027
vn -3.517701 0.328719 -4.865927
v -0.027398 0.421205 0.791107
vn -2.854474 -0.040177 -5.432458
v -0.023919 0.420682 0.789188
vn -0.420935 -0.935553 -5.752734
v 0.092434 0.413176 0.736597
vn -1.564294 1.493654 -5.724094
v 0.076586 0.431894 0.741121
vn -2.729963 1.603023 -5.416219
v -0.021892 0.437516 0.792109
vn -1.676898 -5.919450 -1.270298
v 0.025402 0.380669 0.905163
vn -1.703744 -5.907537 -1.291772
v 0.023968 0.381714 0.902277
vn -1.912948 -5.859716 -1.170460
v 0.027445 0.381191 0.900359
vn -0.040334 1.353133 -6.107779
v 0.094463 0.430019 0.739518
vn -1.968033 3.639728 -4.202742
v 0.021193 0.644589 0.845678
vn -3.074376 2.804467 -1.618467
v 0.014870 0.644950 0.848951
vn -0.072488 4.675732 -2.979329
v 0.116836 0.638804 0.796045
vn -2.094366 3.415370 -4.492303
v 0.113355 0.639325 0.797963
vn -0.057134 3.309009 -4.933200
v 0.134681 0.636931 0.794444
vn -1.329751 2.823448 -5.016580
v 0.116834 0.638802 0.796044
vn -2.660201 1.938506 -5.352004
v 0.018349 0.644427 0.847033
vn -2.660201 1.938392 -5.352045
v 0.024672 0.644066 0.843759
vn -6.110910 1.441213 -0.052950
v 0.014394 0.643217 0.855833
# 193 vertices, 0 vertices normals

f 1//1 2//2 3//3
f 1//1 3//3 4//4
f 1//1 4//4 5//5
f 1//1 5//5 2//2
f 6//6 2//2 7//7
f 6//6 8//8 9//9
f 6//6 10//10 11//11
f 6//6 11//11 2//2
f 6//6 9//9 10//10
f 6//6 12//12 13//13
f 6//6 13//13 8//8
f 6//6 14//14 12//12
f 6//6 15//15 16//16
f 6//6 7//7 15//15
f 6//6 16//16 14//14
f 2//2 11//11 17//17
f 2//2 17//17 3//3
f 2//2 18//18 7//7
f 2//2 5//5 19//19
f 2//2 19//19 18//18
f 20//20 21//21 22//22
f 20//20 23//23 21//21
f 20//20 22//22 23//23
f 24//24 25//25 26//26
f 24//24 26//26 27//27
f 24//24 28//28 29//29
f 24//24 30//30 31//31
f 24//24 29//29 30//30
f 24//24 27//27 32//32
f 24//24 33//33 34//34
f 24//24 34//34 35//35
f 24//24 32//32 36//36
f 24//24 31//31 33//33
f 24//24 35//35 25//25
f 24//24 37//37 28//28
f 24//24 36//36 37//37
f 38//38 39//39 35//35
f 38//38 40//40 41//41
f 38//38 41//41 39//39
f 38//38 35//35 40//40
f 25//25 39//39 42//42
f 25//25 42//42 26//26
f 25//25 35//35 39//39
f 39//39 41//41 42//42
f 21//21 40//40 43//43
f 21//21 44//44 45//45
f 21//21 45//45 40//40
f 21//21 46//46 44//44
f 21//21 23//23 46//46
f 21//21 47//47 48//48
f 21//21 49//49 47//47
f 21//21 43//43 49//49
f 21//21 50//50 22//22
f 21//21 48//48 51//51
f 21//21 51//51 52//52
f 21//21 52//52 50//50
f 26//26 42//42 27//27
f 40//40 45//45 53//53
f 40//40 53//53 27//27
f 40//40 27//27 41//41
f 40//40 35//35 43//43
f 42//42 41//41 27//27
f 3//3 17//17 4//4
f 44//44 46//46 23//23
f 44//44 54//54 55//55
f 44//44 55//55 45//45
f 44//44 23//23 54//54
f 45//45 55//55 27//27
f 45//45 27//27 53//53
f 56//56 57//57 58//58
f 56//56 59//59 60//60
f 56//56 60//60 57//57
f 56//56 61//61 62//62
f 56//56 63//63 59//59
f 56//56 62//62 63//63
f 56//56 58//58 61//61
f 28//28 37//37 29//29
f 57//57 60//60 64//64
f 57//57 64//64 58//58
f 8//8 13//13 9//9
f 10//10 9//9 47//47
f 10//10 47//47 49//49
f 10//10 49//49 11//11
f 30//30 29//29 65//65
f 30//30 66//66 31//31
f 30//30 65//65 66//66
f 11//11 49//49 43//43
f 11//11 43//43 17//17
f 17//17 43//43 4//4
f 67//67 68//68 69//69
f 67//67 70//70 71//71
f 67//67 71//71 68//68
f 67//67 72//72 70//70
f 67//67 69//69 72//72
f 68//68 71//71 73//73
f 68//68 73//73 74//74
f 68//68 74//74 69//69
f 54//54 23//23 75//75
f 54//54 76//76 77//77
f 54//54 77//77 55//55
f 54//54 75//75 76//76
f 55//55 77//77 32//32
f 55//55 32//32 27//27
f 59//59 78//78 79//79
f 59//59 79//79 60//60
f 59//59 63//63 78//78
f 29//29 37//37 80//80
f 29//29 80//80 65//65
f 60//60 79//79 64//64
f 9//9 81//81 47//47
f 9//9 13//13 81//81
f 23//23 82//82 75//75
f 23//23 22//22 82//82
f 83//83 66//66 84//84
f 83//83 84//84 85//85
f 83//83 86//86 87//87
f 83//83 87//87 66//66
f 83//83 85//85 86//86
f 47//47 81//81 48//48
f 66//66 65//65 84//84
f 66//66 87//87 31//31
f 33//33 31//31 4//4
f 33//33 4//4 34//34
f 43//43 88//88 4//4
f 43//43 35//35 88//88
f 34//34 88//88 89//89
f 34//34 4//4 88//88
f 34//34 89//89 35//35
f 88//88 35//35 89//89
f 90//90 70//70 72//72
f 90//90 91//91 92//92
f 90//90 92//92 70//70
f 90//90 93//93 91//91
f 90//90 72//72 93//93
f 70//70 92//92 71//71
f 84//84 65//65 94//94
f 84//84 94//94 85//85
f 71//71 92//92 95//95
f 71//71 95//95 73//73
f 76//76 75//75 96//96
f 76//76 97//97 98//98
f 76//76 98//98 77//77
f 76//76 96//96 97//97
f 77//77 98//98 36//36
f 77//77 36//36 32//32
f 99//99 78//78 63//63
f 99//99 93//93 72//72
f 99//99 72//72 78//78
f 99//99 100//100 93//93
f 99//99 63//63 100//100
f 78//78 72//72 69//69
f 78//78 69//69 79//79
f 101//101 64//64 94//94
f 101//101 94//94 80//80
f 101//101 58//58 64//64
f 101//101 80//80 58//58
f 65//65 80//80 94//94
f 79//79 69//69 74//74
f 79//79 74//74 64//64
f 81//81 51//51 48//48
f 81//81 13//13 52//52
f 81//81 52//52 51//51
f 50//50 102//102 22//22
f 50//50 52//52 102//102
f 82//82 22//22 103//103
f 82//82 103//103 75//75
f 75//75 104//104 96//96
f 75//75 103//103 104//104
f 22//22 102//102 52//52
f 22//22 52//52 105//105
f 22//22 105//105 103//103
f 106//106 86//86 85//85
f 106//106 107//107 87//87
f 106//106 87//87 86//86
f 106//106 108//108 73//73
f 106//106 85//85 108//108
f 106//106 109//109 107//107
f 106//106 73//73 109//109
f 107//107 109//109 110//110
f 107//107 110//110 87//87
f 87//87 110//110 111//111
f 87//87 111//111 31//31
f 31//31 111//111 5//5
f 31//31 5//5 4//4
f 91//91 93//93 112//112
f 91//91 113//113 114//114
f 91//91 112//112 113//113
f 91//91 115//115 116//116
f 91//91 116//116 92//92
f 91//91 114//114 115//115
f 92//92 116//116 95//95
f 108//108 85//85 64//64
f 108//108 64//64 74//74
f 108//108 74//74 73//73
f 85//85 94//94 64//64
f 95//95 116//116 117//117
f 95//95 117//117 118//118
f 95//95 118//118 73//73
f 97//97 96//96 119//119
f 97//97 120//120 121//121
f 97//97 121//121 98//98
f 97//97 119//119 120//120
f 98//98 121//121 122//122
f 98//98 122//122 36//36
f 123//123 124//124 125//125
f 123//123 126//126 124//124
f 123//123 125//125 127//127
f 123//123 100//100 63//63
f 123//123 63//63 126//126
f 123//123 127//127 128//128
f 123//123 129//129 100//100
f 123//123 128//128 129//129
f 124//124 126//126 130//130
f 124//124 130//130 131//131
f 124//124 132//132 125//125
f 124//124 131//131 132//132
f 126//126 61//61 133//133
f 126//126 133//133 130//130
f 126//126 63//63 62//62
f 126//126 62//62 61//61
f 130//130 133//133 121//121
f 130//130 121//121 131//131
f 93//93 100//100 129//129
f 93//93 129//129 112//112
f 125//125 132//132 134//134
f 125//125 135//135 128//128
f 125//125 134//134 136//136
f 125//125 128//128 127//127
f 125//125 136//136 135//135
f 132//132 131//131 121//121
f 132//132 103//103 136//136
f 132//132 120//120 119//119
f 132//132 121//121 120//120
f 132//132 119//119 103//103
f 132//132 136//136 134//134
f 37//37 36//36 122//122
f 37//37 122//122 80//80
f 137//137 12//12 138//138
f 137//137 139//139 12//12
f 137//137 138//138 140//140
f 137//137 140//140 139//139
f 12//12 139//139 141//141
f 12//12 141//141 13//13
f 12//12 14//14 138//138
f 142//142 18//18 143//143
f 142//142 144//144 18//18
f 142//142 143//143 144//144
f 145//145 18//18 146//146
f 145//145 147//147 148//148
f 145//145 15//15 7//7
f 145//145 146//146 147//147
f 145//145 7//7 18//18
f 145//145 148//148 16//16
f 145//145 16//16 15//15
f 18//18 144//144 149//149
f 18//18 149//149 146//146
f 18//18 19//19 143//143
f 13//13 141//141 52//52
f 113//113 112//112 150//150
f 113//113 151//151 114//114
f 113//113 152//152 151//151
f 113//113 150//150 129//129
f 113//113 129//129 152//152
f 104//104 103//103 119//119
f 104//104 119//119 96//96
f 112//112 129//129 150//150
f 135//135 136//136 128//128
f 103//103 105//105 136//136
f 109//109 73//73 153//153
f 109//109 154//154 110//110
f 109//109 153//153 154//154
f 110//110 155//155 144//144
f 110//110 156//156 155//155
f 110//110 144//144 143//143
f 110//110 143//143 111//111
f 110//110 154//154 153//153
f 110//110 153//153 156//156
f 111//111 143//143 5//5
f 5//5 143//143 19//19
f 157//157 155//155 158//158
f 157//157 159//159 160//160
f 157//157 158//158 159//159
f 157//157 161//161 162//162
f 157//157 162//162 155//155
f 157//157 160//160 163//163
f 157//157 163//163 161//161
f 155//155 156//156 158//158
f 155//155 162//162 144//144
f 115//115 114//114 164//164
f 115//115 164//164 116//116
f 116//116 164//164 165//165
f 116//116 166//166 117//117
f 116//116 165//165 166//166
f 73//73 118//118 153//153
f 156//156 153//153 158//158
f 117//117 166//166 167//167
f 117//117 153//153 118//118
f 117//117 167//167 168//168
f 117//117 168//168 153//153
f 159//159 158//158 153//153
f 159//159 169//169 163//163
f 159//159 153//153 168//168
f 159//159 167//167 170//170
f 159//159 168//168 167//167
f 159//159 170//170 169//169
f 159//159 163//163 160//160
f 61//61 58//58 80//80
f 61//61 80//80 133//133
f 133//133 80//80 122//122
f 133//133 122//122 121//121
f 171//171 138//138 172//172
f 171//171 172//172 173//173
f 171//171 174//174 175//175
f 171//171 173//173 174//174
f 171//171 176//176 138//138
f 171//171 175//175 176//176
f 139//139 140//140 177//177
f 139//139 178//178 141//141
f 139//139 179//179 178//178
f 139//139 177//177 180//180
f 139//139 180//180 179//179
f 141//141 178//178 52//52
f 138//138 14//14 16//16
f 138//138 148//148 172//172
f 138//138 16//16 148//148
f 138//138 176//176 177//177
f 138//138 177//177 140//140
f 181//181 144//144 162//162
f 181//181 146//146 149//149
f 181//181 149//149 144//144
f 181//181 182//182 183//183
f 181//181 162//162 182//182
f 181//181 183//183 146//146
f 147//147 146//146 148//148
f 146//146 183//183 148//148
f 172//172 161//161 169//169
f 172//172 182//182 161//161
f 172//172 148//148 183//183
f 172//172 183//183 182//182
f 172//172 169//169 173//173
f 161//161 182//182 162//162
f 161//161 163//163 169//169
f 178//178 179//179 184//184
f 178//178 184//184 105//105
f 178//178 105//105 52//52
f 151//151 152//152 185//185
f 151//151 185//185 186//186
f 151//151 186//186 114//114
f 152//152 187//187 188//188
f 152//152 129//129 187//187
f 152//152 188//188 185//185
f 114//114 186//186 165//165
f 114//114 165//165 164//164
f 174//174 173//173 186//186
f 174//174 186//186 175//175
f 187//187 129//129 128//128
f 187//187 128//128 189//189
f 187//187 190//190 188//188
f 187//187 189//189 190//190
f 179//179 186//186 191//191
f 179//179 175//175 186//186
f 179//179 192//192 190//190
f 179//179 190//190 189//189
f 179//179 191//191 192//192
f 179//179 180//180 175//175
f 179//179 189//189 184//184
f 173//173 169//169 193//193
f 173//173 193//193 186//186
f 169//169 170//170 193//193
f 128//128 136//136 105//105
f 128//128 184//184 189//189
f 128//128 105//105 184//184
f 166//166 165//165 170//170
f 166//166 170//170 167//167
f 176//176 175//175 180//180
f 176//176 180//180 177//177
f 185//185 188//188 192//192
f 185//185 192//192 186//186
f 188//188 190//190 192//192
f 186//186 192//192 191//191
f 186//186 193//193 165//165
f 165//165 193//193 170//170
# 382 faces, 0 coords texture

# End of File
