####
#
# OBJ File Generated by Meshlab
#
####
# Object matlab_mesh_step9_link6.obj
#
# Vertices: 120
# Faces: 236
#
####
vn -0.702368 -6.158769 0.795862
v 0.498273 0.386538 0.867979
vn -0.315219 -6.221914 0.620566
v 0.498476 0.386495 0.867739
vn -0.117846 -6.182526 1.063202
v 0.557509 0.393084 0.920062
vn -1.043652 -6.178161 0.372863
v 0.498361 0.386384 0.866069
vn -1.445456 -6.100471 0.224880
v 0.449813 0.397573 0.887769
vn -1.114504 -6.129826 0.685063
v 0.454301 0.398275 0.909876
vn -1.646108 -5.806656 1.035234
v 0.454269 0.398288 0.909932
vn -0.223253 -6.109869 1.406959
v 0.557503 0.393088 0.920083
vn -0.294953 -6.218226 0.143768
v 0.498564 0.386340 0.865829
vn 2.965739 -3.507475 0.721932
v 0.610220 0.393084 0.920062
vn -0.356899 -6.139322 -0.944333
v 0.498498 0.386615 0.862198
vn -0.551787 -6.164811 -0.329458
v 0.498149 0.386370 0.864595
vn -1.464138 -6.059481 -0.491031
v 0.449813 0.397573 0.847082
vn -0.943034 -6.025596 -1.218418
v 0.455443 0.402433 0.804808
vn -0.039503 -6.025498 -1.737773
v 0.558659 0.397252 0.814787
vn 2.855713 -3.428476 -1.392423
v 0.611370 0.397252 0.814787
vn 1.313653 -6.007479 -0.336002
v 0.605725 0.392377 0.857182
vn -1.267140 -6.148199 0.118891
v 0.497946 0.386413 0.864834
vn 0.630975 -6.241390 0.044819
v 0.605725 0.392377 0.897891
vn 6.039771 -1.023196 -1.366078
v 0.615822 0.403501 0.829091
vn 5.741336 -1.649025 -0.191223
v 0.619685 0.403922 0.846504
vn 3.122695 -0.553914 -3.607226
v 0.623624 0.559986 0.773598
vn 6.240501 -0.343706 0.642780
v 0.609684 0.435212 0.962884
vn 6.211786 -0.520858 0.734198
v 0.606000 0.428235 0.994279
vn 5.166336 -2.638984 0.327795
v 0.615865 0.397958 0.877667
vn 4.207225 -3.833104 -0.613955
v 0.615865 0.397958 0.836958
vn 6.261384 -0.170950 0.280285
v 0.628121 0.560694 0.836486
vn 6.239879 -0.126264 0.683198
v 0.618257 0.590967 0.953098
vn 6.185368 -0.278883 -0.673831
v 0.628121 0.560694 0.795787
vn -2.386973 -5.690070 0.312216
v 0.449777 0.397583 0.887789
vn -2.540290 -5.570238 -0.517833
v 0.449777 0.397583 0.847083
vn -1.662611 -5.500379 -1.569906
v 0.455416 0.402451 0.804740
vn -2.966898 -5.332865 1.088053
v 0.454251 0.398303 0.909970
vn -3.781133 -4.866744 0.437001
v 0.449756 0.397596 0.887799
vn -3.902260 -4.769050 -0.491011
v 0.449756 0.397596 0.847089
vn -2.204770 -4.844113 1.976283
v 0.444386 0.428579 1.026581
vn -0.281326 -3.227365 3.839367
v 0.547639 0.423361 1.036696
vn -2.041951 -4.536242 -2.425832
v 0.455401 0.402471 0.804694
vn -0.028434 -5.759989 -2.467785
v 0.558656 0.397259 0.814765
vn 5.951466 0.038684 2.001552
v 0.600355 0.468601 1.036674
vn 4.998071 -2.171555 1.485620
v 0.600355 0.423360 1.036674
vn 6.129678 -0.082373 1.261694
v 0.612607 0.586088 0.995528
vn 3.584194 1.610148 2.705794
v 0.612607 0.631319 0.995528
vn 3.040162 0.277944 4.188246
v 0.600347 0.468592 1.036696
vn 2.540545 -5.480783 -0.018804
v 0.610220 0.393084 0.879353
vn 1.792554 -1.931628 2.615312
v 0.600347 0.423361 1.036696
vn 0.424087 -6.059425 1.514146
v 0.610211 0.393088 0.920083
vn -4.658498 -4.162332 0.344243
v 0.414784 0.433501 0.887799
vn -4.574754 -4.205186 0.879042
v 0.404919 0.463777 1.004410
vn -5.388571 -2.438419 0.764137
v 0.404883 0.463818 1.004411
vn -4.677364 -4.076833 -0.570639
v 0.414784 0.433501 0.847089
vn -5.365220 -3.014548 0.176406
v 0.414747 0.433546 0.887799
vn -5.448849 -2.435215 -0.549634
v 0.414747 0.433546 0.847099
vn -4.188730 -4.571479 0.910625
v 0.439891 0.427873 1.004410
vn -4.438042 -4.230145 1.324652
v 0.409414 0.464483 1.026581
vn -2.982598 -1.480233 3.163845
v 0.409380 0.464526 1.026600
vn -1.832223 -2.822918 3.886018
v 0.444382 0.428593 1.026600
vn 0.048000 -5.141176 -3.526856
v 0.508111 0.402471 0.804694
vn 0.162563 -3.085131 -5.101308
v 0.508106 0.402492 0.804670
vn 2.101813 -2.539791 -2.849895
v 0.611364 0.397259 0.814765
vn -4.421633 -3.964418 -1.780316
v 0.420429 0.438375 0.804694
vn -3.590036 -1.745061 -2.991814
v 0.420397 0.438424 0.804670
vn -1.539961 -2.996001 -4.254974
v 0.455398 0.402492 0.804670
vn 6.121826 0.890727 0.153734
v 0.628121 0.605926 0.836486
vn 5.237079 2.251017 0.573310
v 0.618257 0.636198 0.953098
vn 5.308039 2.006353 -0.705402
v 0.628121 0.605926 0.795787
vn 5.145593 3.240226 -0.216546
v 0.618257 0.636198 0.912399
vn 2.375042 5.183983 0.457339
v 0.583256 0.672131 0.953098
vn 1.672767 3.511024 2.709200
v 0.577606 0.667252 0.995528
vn 2.446915 5.234737 -0.267595
v 0.583256 0.672131 0.912399
vn 0.146374 6.253755 0.355143
v 0.479982 0.677370 0.942990
vn 0.059610 5.911998 1.774810
v 0.474330 0.672489 0.985436
vn 0.434715 3.393613 4.304143
v 0.577587 0.667250 0.995533
vn 1.647886 1.380824 5.899550
v 0.612603 0.631303 0.995533
vn 0.656483 1.014288 6.087686
v 0.565346 0.504525 1.036696
vn 0.072706 0.783702 6.180558
v 0.565316 0.504523 1.036697
vn 0.269634 0.063055 6.269912
v 0.600332 0.468576 1.036697
vn -5.069595 2.555580 0.484822
v 0.417144 0.671777 0.963243
vn -4.774436 2.217363 2.053007
v 0.421641 0.672484 0.985433
vn -1.651411 3.116444 2.569877
v 0.421646 0.672489 0.985436
vn -5.276505 2.389134 -0.214131
v 0.417144 0.671777 0.922544
vn -6.258128 0.215757 -0.263671
v 0.404877 0.509054 0.963727
vn -3.468666 5.100824 0.245666
v 0.417148 0.671781 0.963238
vn -4.250563 4.623077 -0.003236
v 0.417148 0.671781 0.922563
vn -6.180998 0.315594 0.659803
v 0.404877 0.509054 1.004402
vn -3.123246 0.561150 3.600162
v 0.409375 0.509762 1.026600
vn 0.192137 -0.269664 6.255452
v 0.600332 0.423373 1.036697
vn -6.073339 -1.553628 -0.076864
v 0.404883 0.463818 0.963712
vn -3.382804 -0.281281 3.590994
v 0.409375 0.464558 1.026600
vn -6.137246 -0.566202 0.565748
v 0.404877 0.463850 1.004402
vn -6.206242 -0.576225 -0.183159
v 0.404877 0.463850 0.963727
vn -0.551287 -0.506142 6.236494
v 0.512638 0.459293 1.036696
vn -0.371266 -0.173252 6.254509
v 0.512632 0.459319 1.036697
vn -0.114372 -0.349282 6.259334
v 0.547648 0.423373 1.036697
vn 0.373275 1.213656 -6.010169
v 0.485365 0.646383 0.763502
vn 0.391107 0.236864 -6.246877
v 0.520367 0.610451 0.763502
vn -0.518099 -0.907811 -6.085738
v 0.467659 0.565219 0.763502
vn 1.605183 3.033779 -3.042549
v 0.588623 0.641150 0.773598
vn 2.996526 1.235782 -2.955656
v 0.623624 0.605218 0.773598
vn -2.782899 1.036456 -3.050147
v 0.432658 0.646383 0.763502
vn 0.160966 3.587996 -3.802928
v 0.485348 0.646391 0.763504
vn -2.963137 -0.194522 -4.021060
v 0.432658 0.601152 0.763502
vn 0.285987 -0.760397 -6.151776
v 0.520367 0.565219 0.763502
vn 4.188648 4.571590 -0.910485
v 0.593120 0.641858 0.795787
vn 1.926765 5.537188 -0.879962
v 0.578759 0.671423 0.890210
vn 0.184527 6.160403 -0.910950
v 0.475484 0.676662 0.880116
vn 0.176918 6.274104 -0.123829
v 0.479982 0.677370 0.902315
vn -6.213308 0.515562 -0.721824
v 0.427008 0.641504 0.805932
vn -5.024823 2.821685 -0.798158
v 0.422793 0.676656 0.880115
vn -1.420128 3.103435 -2.997733
v 0.432664 0.646391 0.763504
vn -6.129544 0.082512 -1.262074
v 0.420392 0.483664 0.804668
vn -6.239856 0.130250 -0.681400
v 0.414741 0.478783 0.847114
vn -2.075184 5.195932 -0.740315
v 0.422800 0.676662 0.880116
vn -5.206752 -0.584587 -2.609455
v 0.420392 0.438461 0.804668
vn -6.188279 -0.583591 -0.565699
v 0.414741 0.433580 0.847114
vn -1.144089 6.005007 0.338769
v 0.427298 0.677370 0.942990
vn -0.128245 3.487262 4.505539
v 0.524903 0.667250 0.995533
vn -0.286014 0.760325 6.151790
v 0.512632 0.504523 1.036697
vn -2.541647 5.480467 0.018789
v 0.422800 0.676662 0.920791
vn -0.457204 6.244012 -0.056467
v 0.427298 0.677370 0.902315
# 120 vertices, 0 vertices normals

f 1//1 2//2 3//3
f 1//1 4//4 2//2
f 1//1 5//5 4//4
f 1//1 6//6 5//5
f 1//1 7//7 6//6
f 1//1 3//3 8//8
f 1//1 8//8 7//7
f 2//2 4//4 9//9
f 2//2 9//9 10//10
f 2//2 10//10 3//3
f 11//11 12//12 13//13
f 11//11 14//14 15//15
f 11//11 13//13 14//14
f 11//11 16//16 17//17
f 11//11 17//17 12//12
f 11//11 15//15 16//16
f 18//18 12//12 9//9
f 18//18 4//4 5//5
f 18//18 9//9 4//4
f 18//18 5//5 13//13
f 18//18 13//13 12//12
f 12//12 17//17 9//9
f 9//9 19//19 10//10
f 9//9 17//17 19//19
f 20//20 21//21 16//16
f 20//20 16//16 22//22
f 20//20 22//22 21//21
f 21//21 23//23 24//24
f 21//21 25//25 26//26
f 21//21 24//24 25//25
f 21//21 26//26 16//16
f 21//21 27//27 28//28
f 21//21 28//28 23//23
f 21//21 22//22 29//29
f 21//21 29//29 27//27
f 23//23 28//28 24//24
f 5//5 6//6 30//30
f 5//5 30//30 31//31
f 5//5 31//31 13//13
f 6//6 7//7 30//30
f 14//14 13//13 31//31
f 14//14 32//32 15//15
f 14//14 31//31 32//32
f 30//30 7//7 33//33
f 30//30 34//34 35//35
f 30//30 33//33 34//34
f 30//30 35//35 31//31
f 7//7 36//36 33//33
f 7//7 8//8 37//37
f 7//7 37//37 36//36
f 32//32 31//31 35//35
f 32//32 38//38 39//39
f 32//32 35//35 38//38
f 32//32 39//39 15//15
f 40//40 41//41 42//42
f 40//40 43//43 44//44
f 40//40 44//44 41//41
f 40//40 42//42 43//43
f 19//19 17//17 45//45
f 19//19 45//45 10//10
f 25//25 10//10 45//45
f 25//25 24//24 10//10
f 25//25 45//45 26//26
f 10//10 24//24 41//41
f 10//10 41//41 46//46
f 10//10 47//47 3//3
f 10//10 46//46 47//47
f 24//24 28//28 42//42
f 24//24 42//42 41//41
f 41//41 44//44 46//46
f 48//48 34//34 49//49
f 48//48 49//49 50//50
f 48//48 51//51 35//35
f 48//48 35//35 34//34
f 48//48 52//52 53//53
f 48//48 50//50 52//52
f 48//48 53//53 51//51
f 34//34 33//33 54//54
f 34//34 54//54 49//49
f 33//33 36//36 54//54
f 49//49 54//54 55//55
f 49//49 55//55 56//56
f 49//49 56//56 50//50
f 54//54 36//36 55//55
f 55//55 36//36 56//56
f 36//36 57//57 56//56
f 36//36 37//37 57//57
f 3//3 47//47 8//8
f 58//58 38//38 59//59
f 58//58 59//59 60//60
f 58//58 60//60 39//39
f 58//58 39//39 38//38
f 16//16 26//26 17//17
f 16//16 15//15 60//60
f 16//16 60//60 22//22
f 17//17 26//26 45//45
f 61//61 38//38 35//35
f 61//61 51//51 53//53
f 61//61 35//35 51//51
f 61//61 62//62 38//38
f 61//61 53//53 62//62
f 38//38 62//62 63//63
f 38//38 63//63 59//59
f 15//15 39//39 60//60
f 64//64 65//65 28//28
f 64//64 27//27 66//66
f 64//64 28//28 27//27
f 64//64 66//66 67//67
f 64//64 67//67 65//65
f 68//68 65//65 67//67
f 68//68 69//69 43//43
f 68//68 43//43 65//65
f 68//68 70//70 71//71
f 68//68 67//67 70//70
f 68//68 71//71 69//69
f 65//65 43//43 28//28
f 69//69 71//71 72//72
f 69//69 72//72 73//73
f 69//69 73//73 74//74
f 69//69 74//74 43//43
f 43//43 42//42 28//28
f 43//43 74//74 44//44
f 75//75 44//44 74//74
f 75//75 73//73 76//76
f 75//75 74//74 73//73
f 75//75 76//76 77//77
f 75//75 77//77 44//44
f 44//44 77//77 46//46
f 78//78 79//79 80//80
f 78//78 81//81 82//82
f 78//78 83//83 84//84
f 78//78 80//80 83//83
f 78//78 85//85 86//86
f 78//78 86//86 79//79
f 78//78 84//84 81//81
f 78//78 82//82 85//85
f 79//79 86//86 80//80
f 27//27 29//29 66//66
f 47//47 46//46 8//8
f 46//46 37//37 8//8
f 46//46 77//77 87//87
f 46//46 87//87 37//37
f 52//52 50//50 88//88
f 52//52 88//88 53//53
f 50//50 56//56 89//89
f 50//50 90//90 91//91
f 50//50 89//89 90//90
f 50//50 91//91 88//88
f 56//56 57//57 92//92
f 56//56 92//92 93//93
f 56//56 93//93 89//89
f 57//57 37//37 92//92
f 92//92 37//37 93//93
f 37//37 87//87 94//94
f 37//37 94//94 93//93
f 95//95 96//96 97//97
f 95//95 98//98 99//99
f 95//95 99//99 96//96
f 95//95 100//100 101//101
f 95//95 102//102 100//100
f 95//95 97//97 102//102
f 95//95 101//101 98//98
f 96//96 99//99 103//103
f 96//96 103//103 97//97
f 98//98 104//104 99//99
f 98//98 105//105 104//104
f 98//98 101//101 105//105
f 99//99 104//104 66//66
f 99//99 66//66 29//29
f 99//99 22//22 103//103
f 99//99 29//29 22//22
f 104//104 105//105 70//70
f 104//104 70//70 67//67
f 104//104 67//67 66//66
f 105//105 101//101 106//106
f 105//105 106//106 107//107
f 105//105 107//107 70//70
f 70//70 107//107 71//71
f 100//100 108//108 81//81
f 100//100 109//109 110//110
f 100//100 81//81 109//109
f 100//100 102//102 111//111
f 100//100 110//110 101//101
f 100//100 111//111 108//108
f 108//108 111//111 112//112
f 108//108 112//112 81//81
f 109//109 81//81 113//113
f 109//109 113//113 110//110
f 81//81 112//112 82//82
f 81//81 84//84 113//113
f 103//103 59//59 97//97
f 103//103 22//22 59//59
f 59//59 22//22 60//60
f 59//59 63//63 97//97
f 102//102 97//97 63//63
f 102//102 62//62 114//114
f 102//102 63//63 62//62
f 102//102 114//114 111//111
f 62//62 53//53 114//114
f 53//53 88//88 91//91
f 53//53 115//115 114//114
f 53//53 91//91 115//115
f 71//71 116//116 72//72
f 71//71 107//107 116//116
f 72//72 116//116 80//80
f 72//72 80//80 117//117
f 72//72 117//117 73//73
f 73//73 117//117 76//76
f 76//76 117//117 118//118
f 76//76 118//118 93//93
f 76//76 93//93 94//94
f 76//76 94//94 77//77
f 77//77 94//94 87//87
f 119//119 83//83 116//116
f 119//119 116//116 120//120
f 119//119 113//113 84//84
f 119//119 84//84 83//83
f 119//119 120//120 113//113
f 83//83 80//80 116//116
f 116//116 107//107 120//120
f 80//80 86//86 117//117
f 85//85 90//90 89//89
f 85//85 89//89 86//86
f 85//85 82//82 90//90
f 86//86 118//118 117//117
f 86//86 89//89 118//118
f 118//118 89//89 93//93
f 90//90 82//82 91//91
f 101//101 110//110 106//106
f 106//106 110//110 113//113
f 106//106 113//113 120//120
f 106//106 120//120 107//107
f 111//111 114//114 112//112
f 112//112 114//114 115//115
f 112//112 115//115 91//91
f 112//112 91//91 82//82
# 236 faces, 0 coords texture

# End of File
