####
#
# OBJ File Generated by Meshlab
#
####
# Object matlab_mesh_step19_link2.obj
#
# Vertices: 165
# Faces: 326
#
####
vn -0.597510 -1.474776 6.078264
v 0.126734 0.216853 0.893676
vn 2.493926 -1.708864 3.443501
v 0.127339 0.216608 0.893676
vn -0.433556 -0.623057 6.168045
v -0.013058 0.277387 0.894607
vn -2.966524 -0.180728 4.603983
v -0.093252 0.068212 0.834732
vn -3.189210 -0.232971 3.734084
v -0.094602 0.064690 0.833724
vn 3.236999 -0.420642 2.711103
v 0.127439 0.216820 0.893676
vn 0.117529 -0.360252 6.248086
v 0.121255 0.226576 0.894606
vn -0.159114 -0.416878 6.251335
v 0.108144 0.230919 0.894607
vn -0.153284 -0.428877 6.254515
v 0.110609 0.230012 0.894606
vn 1.598228 -2.958258 1.964379
v 0.039413 0.013082 0.833361
vn -0.518676 -1.594443 6.055265
v 0.029045 0.017336 0.833724
vn 2.199954 -2.327012 4.081733
v 0.039712 0.013894 0.833724
vn -0.727843 -1.898878 5.930636
v -0.087756 0.062066 0.833724
vn -0.715016 -1.905731 5.929369
v 0.026598 0.018234 0.833724
vn -0.668482 -1.930142 5.925941
v 0.029038 0.017336 0.833723
vn 5.785548 -0.268781 0.706442
v 0.127477 0.216903 0.893400
vn 5.813891 1.954324 1.360348
v 0.122827 0.230664 0.893667
vn 5.636118 2.291691 1.489421
v 0.122821 0.230677 0.893672
vn 2.855754 1.042212 3.874884
v 0.122687 0.230310 0.894606
vn 5.797121 -0.279913 0.674346
v 0.127532 0.217020 0.892976
vn 4.704912 0.545623 -0.644987
v 0.142333 0.248543 0.778828
vn 5.200710 2.917046 -0.061501
v 0.134893 0.262125 0.767571
vn 5.115583 3.143933 1.632765
v 0.122816 0.230687 0.893676
vn 4.812496 -0.383086 -3.989243
v 0.134583 0.261320 0.767193
vn 4.555257 2.092690 -1.133360
v 0.134885 0.262139 0.767558
vn 1.366771 -2.138256 -2.316954
v 0.051607 0.044908 0.706298
vn 2.801485 -0.625322 -3.591360
v 0.053041 0.048650 0.706298
vn 1.935833 -4.020121 -1.193923
v 0.051473 0.044544 0.707224
vn 5.550121 -2.905970 -0.194184
v 0.050434 0.041833 0.718095
vn 2.075682 5.768444 1.202864
v 0.030126 0.301184 0.778802
vn 1.793519 5.849865 1.409849
v 0.001599 0.312557 0.767965
vn 1.713840 5.685488 1.993633
v -0.011491 0.281490 0.893677
vn 1.797608 5.855162 1.375503
v 0.001465 0.312611 0.767910
vn 1.975031 5.873690 1.027033
v 0.011333 0.309470 0.767635
vn 2.030338 5.877646 0.858572
v 0.011303 0.309484 0.767610
vn 2.199530 5.851104 0.629249
v 0.013787 0.308569 0.767609
vn 1.963893 5.604382 2.006209
v -0.000832 0.278052 0.893677
vn 2.088547 5.541455 2.061638
v 0.001626 0.277147 0.893676
vn 2.553632 5.300731 2.054718
v 0.122804 0.230696 0.893682
vn 2.790363 2.928378 -1.731691
v 0.134870 0.262156 0.767542
vn 2.527426 5.513386 1.616872
v 0.123844 0.233408 0.882806
vn -1.486246 -5.867375 -1.127421
v 0.032902 0.015464 0.825880
vn -1.148727 -6.023316 -0.838035
v 0.039388 0.013086 0.833329
vn -2.028932 -5.925638 0.075871
v 0.028760 0.016516 0.833351
vn -2.215146 -5.869941 -0.155522
v 0.026295 0.017423 0.833352
vn -2.464033 -1.782919 1.376632
v -0.094900 0.063881 0.833364
vn 1.730774 -4.394231 -1.093290
v 0.051473 0.044543 0.707230
vn -2.083847 -5.543537 -2.057819
v 0.038357 0.048887 0.707225
vn -1.932695 -5.593439 -2.058027
v 0.040806 0.047986 0.707224
vn -3.918724 -1.806423 -1.053599
v -0.082841 0.095344 0.707222
vn -4.242266 -2.875079 -1.122723
v -0.083881 0.092631 0.718097
vn 1.792002 5.859897 1.358935
v 0.001340 0.312661 0.767860
vn 1.785830 5.865070 1.340195
v 0.001224 0.312707 0.767813
vn 1.778629 5.870872 1.318534
v 0.001117 0.312750 0.767770
vn 1.770171 5.877702 1.291460
v 0.001020 0.312788 0.767731
vn 1.760513 5.884966 1.262024
v 0.000931 0.312822 0.767695
vn 1.748754 5.893665 1.223128
v 0.000852 0.312853 0.767663
vn 2.037128 5.894707 0.707042
v 0.011277 0.309496 0.767590
vn 1.733010 5.904067 1.173731
v 0.000782 0.312879 0.767635
vn 1.711843 5.916790 1.104223
v 0.000722 0.312902 0.767610
vn 0.600547 5.803344 1.887542
v -0.011504 0.281493 0.893680
vn 2.042234 5.913184 0.476060
v 0.011257 0.309505 0.767573
vn 1.681453 5.931535 1.007880
v 0.000670 0.312920 0.767590
vn 2.202656 5.859198 0.518977
v 0.013756 0.308583 0.767588
vn -0.896376 -6.009586 -0.645156
v 0.039398 0.013082 0.833341
vn 1.633501 5.947183 0.858422
v 0.000628 0.312935 0.767573
vn 2.044272 5.924417 0.071141
v 0.011241 0.309511 0.767559
vn 2.207116 5.871622 0.287810
v 0.013729 0.308594 0.767571
vn 1.901987 3.605065 -2.695334
v 0.134864 0.262159 0.767540
vn -0.339809 -5.885054 -0.247877
v 0.039406 0.013080 0.833351
vn 1.547139 5.954529 0.605518
v 0.000595 0.312946 0.767559
vn 2.207253 5.872399 -0.103366
v 0.013706 0.308603 0.767558
vn 3.834182 4.382586 1.835963
v 0.122810 0.230693 0.893679
vn 4.341768 -0.024425 -4.460994
v 0.134576 0.261333 0.767184
vn 4.164558 -0.260621 -4.666590
v 0.133228 0.257815 0.766177
vn -2.169631 -5.760347 0.931137
v 0.026295 0.017424 0.833358
vn -1.979068 -5.741409 1.223238
v 0.028752 0.016519 0.833357
vn 2.614969 -5.055994 -1.011176
v 0.050434 0.041833 0.718092
vn 1.004616 -4.903596 0.593564
v 0.039411 0.013080 0.833357
vn 2.018031 5.861495 -0.733416
v 0.011230 0.309514 0.767549
vn 1.328136 5.879943 0.050898
v 0.000571 0.312953 0.767549
vn 2.175340 5.788760 -0.903152
v 0.013687 0.308609 0.767548
vn 3.928405 2.467822 -1.332602
v 0.134877 0.262150 0.767548
vn 2.616391 1.541345 3.904448
v 0.122681 0.230322 0.894606
vn -0.016995 -0.031152 6.282952
v -0.013035 0.277383 0.894607
vn -0.013624 -0.035531 6.282955
v -0.006205 0.274764 0.894607
vn 0.048963 0.165055 6.278330
v -0.011603 0.281117 0.894607
vn 0.726530 2.738046 4.337586
v -0.011625 0.281125 0.894607
vn 0.052285 0.138993 6.279673
v -0.000957 0.277682 0.894607
vn -0.009473 -0.031540 6.283008
v 0.118790 0.227484 0.894607
vn 0.007621 0.019877 6.283113
v 0.113392 0.233837 0.894607
vn 0.008716 0.019276 6.283111
v 0.120221 0.231218 0.894607
vn 0.999426 2.753864 4.521658
v -0.000966 0.277686 0.894607
vn 0.044392 0.114348 6.281466
v 0.120224 0.231226 0.894607
vn 0.091969 0.239942 6.277702
v 0.001508 0.276774 0.894606
vn 0.068194 0.177879 6.280283
v 0.113386 0.233848 0.894607
vn 0.263915 0.688417 6.216597
v 0.115843 0.232943 0.894606
vn 1.085674 2.845371 4.348664
v 0.001492 0.276782 0.894606
vn 2.811914 0.486228 -5.464307
v 0.133221 0.257823 0.766172
vn 3.071117 0.734301 -5.226800
v 0.134571 0.261343 0.767180
vn -1.635308 -4.348282 3.547463
v 0.026296 0.017424 0.833362
vn -1.469255 -4.196485 3.703383
v 0.028745 0.016523 0.833361
vn 1.701476 5.013754 -2.817956
v 0.011224 0.309515 0.767543
vn 0.123227 6.045126 1.519660
v -0.010465 0.284205 0.882810
vn 0.340311 4.927624 -1.277446
v 0.000556 0.312956 0.767543
vn 1.836944 4.901124 -2.950876
v 0.013673 0.308613 0.767542
vn 1.767183 5.252506 2.895805
v -0.000970 0.277688 0.894606
vn -0.308136 2.837560 3.918123
v -0.011637 0.281130 0.894606
vn 1.874455 5.536023 2.294171
v -0.000836 0.278052 0.893680
vn 2.021709 5.458144 2.365132
v 0.001613 0.277150 0.893679
vn 2.185651 4.672220 3.265420
v 0.122671 0.230334 0.894603
vn 1.971364 5.303056 2.711865
v 0.001479 0.276787 0.894605
vn 3.350268 5.035517 1.576381
v 0.123849 0.233405 0.882808
vn 2.338896 2.718087 3.838133
v 0.122676 0.230330 0.894605
vn -1.612731 -0.152291 5.778412
v -0.013072 0.277388 0.894606
vn 1.569079 4.093325 4.500819
v 0.115832 0.232953 0.894605
vn -2.687260 0.232029 -3.721756
v -0.082707 0.095708 0.706299
vn -0.545832 -1.423957 -5.943442
v -0.075863 0.093084 0.706299
vn -3.019939 -1.106282 -2.045703
v -0.082708 0.095706 0.706301
vn -2.425183 1.489835 -3.881219
v -0.081273 0.099449 0.706299
vn -0.039036 -0.099812 -6.281341
v -0.080258 0.094806 0.706298
vn -5.688152 2.275897 -1.066382
v -0.081273 0.099449 0.706301
vn -5.921677 2.098079 -0.036567
v -0.094767 0.064245 0.832437
vn -4.138346 -1.597415 -0.422066
v -0.094901 0.063881 0.833362
vn -5.881076 2.211067 0.005358
v -0.094468 0.065058 0.832799
vn -5.872618 2.229403 -0.091605
v -0.082410 0.096515 0.706661
vn -1.059741 -2.817878 -4.340865
v 0.038490 0.049251 0.706299
vn -0.038544 -0.100553 -6.281339
v -0.073414 0.092183 0.706298
vn -0.950300 -2.752985 -4.318664
v 0.040939 0.048349 0.706298
vn -1.978385 -5.161383 -2.931601
v -0.075861 0.093081 0.706301
vn 0.277866 0.810323 -6.173688
v -0.070605 0.096008 0.706299
vn 0.010025 0.033393 -6.282987
v -0.078824 0.098548 0.706298
vn -2.646258 1.960877 -3.306946
v -0.001097 0.308624 0.766172
vn 0.528374 1.534886 -6.069790
v 0.009575 0.305182 0.766172
vn 0.285921 0.763152 -6.175638
v -0.068156 0.095107 0.706298
vn 0.569322 1.519242 -6.070094
v 0.012015 0.304283 0.766171
vn 0.290345 0.757442 -6.176652
v 0.046197 0.051273 0.706298
vn 0.580660 1.514884 -6.070122
v 0.126369 0.260452 0.766171
vn 1.198096 1.258328 -6.000646
v 0.133216 0.257827 0.766171
vn 1.506509 1.604244 -5.769961
v 0.134566 0.261349 0.767179
vn -5.608173 1.665923 1.557856
v -0.094601 0.064694 0.833725
vn -2.093534 -5.461793 -2.289900
v -0.075994 0.092720 0.707222
vn -0.997478 -2.677981 5.573394
v 0.026300 0.017425 0.833364
vn -1.230584 -3.210468 5.115076
v -0.088054 0.061257 0.833364
vn -0.924369 -2.608129 5.625775
v 0.028740 0.016527 0.833362
vn -0.599239 -2.451724 5.746528
v 0.039412 0.013085 0.833362
vn -5.867646 2.246857 0.019606
v -0.012944 0.277749 0.893683
vn -5.866961 2.248818 0.000008
v -0.011904 0.280462 0.882807
vn -5.866958 2.248826 -0.000058
v -0.000884 0.309212 0.767541
vn -5.866962 2.248817 -0.000084
v -0.002234 0.305690 0.766533
vn -3.260730 4.163236 0.726701
v -0.010469 0.284205 0.882807
vn -2.949882 4.084126 1.034600
v -0.011509 0.281492 0.893683
vn 1.120457 3.259771 -5.097482
v 0.011223 0.309513 0.767541
vn -1.586074 2.839545 -1.652351
v 0.000551 0.312955 0.767541
vn 1.197191 3.224913 -5.110350
v 0.013663 0.308615 0.767540
vn -2.601790 2.813844 2.242957
v -0.011642 0.281130 0.894604
vn 1.357219 3.540849 -4.691113
v 0.128017 0.264783 0.767540
vn -4.073935 1.005188 2.927825
v -0.013076 0.277387 0.894604
vn -0.575706 -2.173593 5.857662
v 0.039710 0.013894 0.833723
vn -2.460247 2.099277 -3.242507
v 0.000253 0.312146 0.767181
vn 0.660491 1.917597 -5.929827
v 0.010925 0.308704 0.767181
vn 0.710870 1.895835 -5.932218
v 0.013365 0.307805 0.767179
vn -5.830235 2.309258 -0.272869
v -0.080975 0.100258 0.706661
vn -5.829094 2.312229 -0.272308
v -0.000799 0.309433 0.766533
vn 0.724203 1.889385 -5.933346
v 0.127719 0.263974 0.767179
# 165 vertices, 0 vertices normals

f 1//1 2//2 3//3
f 1//1 3//3 4//4
f 1//1 4//4 5//5
f 1//1 5//5 2//2
f 2//2 6//6 7//7
f 2//2 8//8 3//3
f 2//2 9//9 8//8
f 2//2 7//7 9//9
f 2//2 10//10 6//6
f 2//2 11//11 12//12
f 2//2 12//12 10//10
f 2//2 5//5 13//13
f 2//2 13//13 14//14
f 2//2 14//14 15//15
f 2//2 15//15 11//11
f 6//6 16//16 17//17
f 6//6 17//17 18//18
f 6//6 18//18 19//19
f 6//6 19//19 7//7
f 6//6 10//10 16//16
f 20//20 21//21 17//17
f 20//20 16//16 10//10
f 20//20 17//17 16//16
f 20//20 10//10 21//21
f 21//21 22//22 23//23
f 21//21 24//24 25//25
f 21//21 25//25 22//22
f 21//21 18//18 17//17
f 21//21 23//23 18//18
f 21//21 26//26 27//27
f 21//21 27//27 24//24
f 21//21 28//28 26//26
f 21//21 10//10 29//29
f 21//21 29//29 28//28
f 30//30 31//31 32//32
f 30//30 33//33 31//31
f 30//30 34//34 33//33
f 30//30 35//35 34//34
f 30//30 36//36 35//35
f 30//30 32//32 37//37
f 30//30 37//37 38//38
f 30//30 38//38 39//39
f 30//30 40//40 36//36
f 30//30 41//41 40//40
f 30//30 39//39 41//41
f 42//42 43//43 44//44
f 42//42 45//45 46//46
f 42//42 44//44 45//45
f 42//42 47//47 43//43
f 42//42 48//48 49//49
f 42//42 49//49 47//47
f 42//42 50//50 48//48
f 42//42 46//46 51//51
f 42//42 51//51 50//50
f 31//31 33//33 32//32
f 33//33 52//52 32//32
f 33//33 34//34 52//52
f 52//52 53//53 32//32
f 52//52 34//34 53//53
f 53//53 54//54 32//32
f 53//53 34//34 35//35
f 53//53 35//35 54//54
f 54//54 55//55 32//32
f 54//54 35//35 55//55
f 55//55 56//56 32//32
f 55//55 35//35 56//56
f 56//56 57//57 32//32
f 56//56 35//35 58//58
f 56//56 58//58 57//57
f 57//57 59//59 32//32
f 57//57 58//58 59//59
f 59//59 60//60 61//61
f 59//59 58//58 62//62
f 59//59 62//62 60//60
f 59//59 61//61 32//32
f 60//60 63//63 61//61
f 60//60 62//62 63//63
f 35//35 36//36 64//64
f 35//35 64//64 58//58
f 36//36 40//40 64//64
f 43//43 65//65 44//44
f 43//43 47//47 65//65
f 63//63 66//66 61//61
f 63//63 62//62 67//67
f 63//63 67//67 66//66
f 58//58 64//64 68//68
f 58//58 68//68 62//62
f 64//64 40//40 69//69
f 64//64 69//69 68//68
f 65//65 70//70 44//44
f 65//65 47//47 70//70
f 66//66 71//71 61//61
f 66//66 67//67 71//71
f 62//62 68//68 72//72
f 62//62 72//72 67//67
f 68//68 69//69 72//72
f 22//22 25//25 73//73
f 22//22 73//73 23//23
f 24//24 74//74 25//25
f 24//24 75//75 74//74
f 24//24 27//27 75//75
f 45//45 44//44 76//76
f 45//45 76//76 46//46
f 44//44 70//70 77//77
f 44//44 77//77 76//76
f 70//70 47//47 78//78
f 70//70 79//79 77//77
f 70//70 78//78 79//79
f 71//71 67//67 80//80
f 71//71 81//81 61//61
f 71//71 80//80 81//81
f 67//67 72//72 82//82
f 67//67 82//82 80//80
f 72//72 69//69 82//82
f 25//25 74//74 83//83
f 25//25 83//83 73//73
f 18//18 23//23 84//84
f 18//18 84//84 19//19
f 85//85 86//86 87//87
f 85//85 87//87 88//88
f 85//85 3//3 86//86
f 85//85 88//88 3//3
f 86//86 8//8 89//89
f 86//86 89//89 87//87
f 86//86 3//3 8//8
f 8//8 90//90 91//91
f 8//8 91//91 89//89
f 8//8 9//9 90//90
f 90//90 92//92 91//91
f 90//90 9//9 7//7
f 90//90 7//7 92//92
f 87//87 89//89 93//93
f 87//87 93//93 88//88
f 89//89 91//91 94//94
f 89//89 95//95 93//93
f 89//89 96//96 95//95
f 89//89 94//94 96//96
f 91//91 92//92 94//94
f 92//92 7//7 19//19
f 92//92 19//19 94//94
f 95//95 96//96 97//97
f 95//95 98//98 93//93
f 95//95 97//97 98//98
f 19//19 84//84 94//94
f 74//74 75//75 99//99
f 74//74 100//100 40//40
f 74//74 99//99 100//100
f 74//74 40//40 83//83
f 75//75 27//27 99//99
f 76//76 77//77 101//101
f 76//76 101//101 46//46
f 47//47 49//49 28//28
f 47//47 28//28 29//29
f 47//47 10//10 78//78
f 47//47 29//29 10//10
f 77//77 79//79 102//102
f 77//77 102//102 101//101
f 79//79 78//78 10//10
f 79//79 10//10 102//102
f 81//81 80//80 103//103
f 81//81 104//104 61//61
f 81//81 105//105 104//104
f 81//81 103//103 105//105
f 80//80 82//82 106//106
f 80//80 106//106 103//103
f 32//32 88//88 107//107
f 32//32 61//61 108//108
f 32//32 109//109 37//37
f 32//32 108//108 88//88
f 32//32 107//107 109//109
f 37//37 109//109 110//110
f 37//37 110//110 38//38
f 82//82 69//69 106//106
f 38//38 98//98 111//111
f 38//38 110//110 112//112
f 38//38 112//112 98//98
f 38//38 111//111 39//39
f 83//83 113//113 73//73
f 83//83 40//40 113//113
f 23//23 73//73 114//114
f 23//23 114//114 84//84
f 3//3 88//88 108//108
f 3//3 115//115 4//4
f 3//3 108//108 115//115
f 88//88 93//93 107//107
f 93//93 98//98 112//112
f 93//93 112//112 107//107
f 96//96 94//94 97//97
f 94//94 84//84 97//97
f 98//98 97//97 114//114
f 98//98 116//116 111//111
f 98//98 114//114 116//116
f 97//97 84//84 114//114
f 117//117 118//118 119//119
f 117//117 120//120 121//121
f 117//117 121//121 118//118
f 117//117 119//119 122//122
f 117//117 122//122 120//120
f 123//123 124//124 125//125
f 123//123 125//125 126//126
f 123//123 119//119 124//124
f 123//123 126//126 119//119
f 118//118 127//127 119//119
f 118//118 121//121 128//128
f 118//118 128//128 129//129
f 118//118 129//129 127//127
f 127//127 129//129 49//49
f 127//127 48//48 130//130
f 127//127 49//49 48//48
f 127//127 130//130 119//119
f 120//120 131//131 132//132
f 120//120 132//132 121//121
f 120//120 133//133 134//134
f 120//120 134//134 131//131
f 120//120 122//122 133//133
f 131//131 135//135 132//132
f 131//131 134//134 136//136
f 131//131 136//136 135//135
f 121//121 132//132 128//128
f 128//128 132//132 135//135
f 128//128 135//135 129//129
f 129//129 26//26 28//28
f 129//129 135//135 137//137
f 129//129 137//137 26//26
f 129//129 28//28 49//49
f 26//26 137//137 27//27
f 135//135 136//136 138//138
f 135//135 138//138 139//139
f 135//135 139//139 137//137
f 137//137 139//139 27//27
f 100//100 99//99 140//140
f 100//100 140//140 69//69
f 100//100 69//69 40//40
f 99//99 27//27 139//139
f 99//99 139//139 140//140
f 124//124 141//141 125//125
f 124//124 119//119 50//50
f 124//124 50//50 51//51
f 124//124 46//46 141//141
f 124//124 51//51 46//46
f 48//48 50//50 142//142
f 48//48 142//142 130//130
f 101//101 102//102 143//143
f 101//101 144//144 46//46
f 101//101 143//143 144//144
f 102//102 10//10 145//145
f 102//102 145//145 143//143
f 10//10 12//12 146//146
f 10//10 146//146 145//145
f 125//125 141//141 147//147
f 125//125 148//148 149//149
f 125//125 149//149 150//150
f 125//125 147//147 148//148
f 125//125 150//150 126//126
f 104//104 105//105 151//151
f 104//104 151//151 152//152
f 104//104 152//152 61//61
f 105//105 103//103 153//153
f 105//105 154//154 151//151
f 105//105 153//153 154//154
f 103//103 106//106 155//155
f 103//103 155//155 153//153
f 61//61 152//152 156//156
f 61//61 156//156 108//108
f 109//109 107//107 112//112
f 109//109 112//112 110//110
f 106//106 157//157 155//155
f 106//106 69//69 157//157
f 113//113 40//40 39//39
f 113//113 39//39 73//73
f 40//40 41//41 39//39
f 73//73 39//39 111//111
f 73//73 111//111 114//114
f 115//115 108//108 156//156
f 115//115 158//158 4//4
f 115//115 156//156 158//158
f 141//141 46//46 5//5
f 141//141 158//158 147//147
f 141//141 4//4 158//158
f 141//141 5//5 4//4
f 11//11 15//15 12//12
f 12//12 15//15 159//159
f 12//12 159//159 146//146
f 116//116 114//114 111//111
f 119//119 130//130 50//50
f 119//119 126//126 122//122
f 130//130 142//142 50//50
f 160//160 161//161 134//134
f 160//160 133//133 154//154
f 160//160 134//134 133//133
f 160//160 154//154 153//153
f 160//160 153//153 161//161
f 161//161 162//162 136//136
f 161//161 136//136 134//134
f 161//161 153//153 162//162
f 133//133 122//122 163//163
f 133//133 164//164 154//154
f 133//133 163//163 164//164
f 122//122 126//126 163//163
f 162//162 165//165 138//138
f 162//162 138//138 136//136
f 162//162 153//153 155//155
f 162//162 155//155 157//157
f 162//162 157//157 165//165
f 165//165 140//140 138//138
f 165//165 157//157 69//69
f 165//165 69//69 140//140
f 138//138 140//140 139//139
f 46//46 144//144 13//13
f 46//46 13//13 5//5
f 144//144 143//143 14//14
f 144//144 14//14 13//13
f 143//143 145//145 14//14
f 145//145 146//146 159//159
f 145//145 15//15 14//14
f 145//145 159//159 15//15
f 148//148 147//147 152//152
f 148//148 151//151 154//154
f 148//148 154//154 149//149
f 148//148 152//152 151//151
f 149//149 154//154 164//164
f 149//149 164//164 150//150
f 147//147 158//158 156//156
f 147//147 156//156 152//152
f 150//150 164//164 163//163
f 150//150 163//163 126//126
# 326 faces, 0 coords texture

# End of File
