####
#
# OBJ File Generated by Meshlab
#
####
# Object matlab_mesh_step2_link2.obj
#
# Vertices: 169
# Faces: 334
#
####
vn -2.432170 -0.728128 5.553325
v 0.183711 0.000387 0.942747
vn -0.406309 -2.911351 2.955936
v 0.183894 -0.000197 0.942747
vn -0.965483 -0.322374 6.197279
v 0.186613 0.012191 0.943963
vn -1.062412 -0.323488 6.183367
v 0.185434 0.016035 0.943963
vn -0.649917 -0.161415 6.206861
v 0.148261 0.139047 0.943964
vn -1.868782 -0.119262 5.576623
v 0.148255 0.139062 0.943963
vn -2.896610 2.229218 2.303648
v -0.031386 0.084766 0.801191
vn -3.879836 -1.178577 4.792871
v 0.005803 -0.038241 0.801192
vn -4.012046 -1.376330 4.598866
v 0.006978 -0.042072 0.801192
vn 2.036136 -5.911788 0.611809
v 0.184228 -0.000082 0.942747
vn 1.078093 -2.912230 3.371506
v 0.194071 0.003443 0.943963
vn 1.719905 -6.016309 0.416185
v 0.183896 -0.000203 0.942678
vn -0.645282 -1.067879 6.091096
v 0.190236 0.002285 0.943963
vn 0.607581 -2.700252 4.403618
v 0.190243 0.002286 0.943963
vn -1.202395 -3.597212 2.375869
v 0.010616 -0.052014 0.801192
vn 4.842267 1.630223 3.637986
v 0.229221 0.138404 0.850824
vn 4.919647 1.494328 3.595760
v 0.229403 0.137820 0.850824
vn 5.024588 1.617228 3.406702
v 0.229960 0.144558 0.846823
vn 4.805947 1.781336 3.623059
v 0.229253 0.146667 0.846823
vn 3.981194 2.443205 3.975001
v 0.152953 0.140496 0.943135
vn 4.361998 1.471047 4.230157
v 0.156591 0.130554 0.943135
vn 5.009726 1.680975 3.393467
v 0.232207 0.153359 0.839284
vn 5.100165 1.552214 3.325213
v 0.233386 0.149513 0.839284
vn 4.399248 1.339752 4.247303
v 0.157766 0.126723 0.943134
vn 4.466475 1.350280 4.184734
v 0.159514 0.120943 0.943134
vn 4.029041 -1.146204 0.191624
v 0.270588 0.026581 0.839214
vn 4.482855 0.637738 4.209769
v 0.194951 0.003718 0.943136
vn 3.565816 -4.253166 1.587076
v 0.259179 0.018644 0.850824
vn 2.857247 -5.407440 -0.076616
v 0.259181 0.018639 0.850756
vn 3.966794 -3.235115 1.247125
v 0.270576 0.026569 0.839231
vn 4.860993 -2.709334 2.915392
v 0.270563 0.026562 0.839245
vn 4.116077 -2.180101 2.939616
v 0.194952 0.003716 0.943134
vn 1.477022 -2.623653 3.345558
v 0.194080 0.003446 0.943963
vn 3.085381 -5.214504 1.413470
v 0.194950 0.003713 0.943132
vn 2.043169 -5.921281 0.490466
v 0.184230 -0.000088 0.942679
vn 1.862735 -5.988512 0.298832
v 0.184353 -0.000088 0.942117
vn 1.949876 -5.953219 0.013558
v 0.258847 0.018524 0.850756
vn 2.048079 -5.921875 0.463536
v 0.184687 0.000027 0.942117
vn -1.867446 -3.105418 0.635453
v 0.010071 -0.052181 0.800568
vn -1.338763 -3.643534 -2.165819
v 0.085707 -0.029316 0.696648
vn -0.292637 -2.658570 -2.804822
v 0.086573 -0.029050 0.695821
vn -0.551950 -5.358793 -1.580813
v 0.079188 -0.031287 0.705604
vn 1.641663 -2.105119 -2.902908
v 0.090409 -0.027891 0.695821
vn -4.664310 -2.123656 -3.608296
v 0.011418 -0.043296 0.793266
vn -4.863308 -1.736579 -3.541666
v 0.011299 -0.042950 0.793235
vn -4.778875 -2.191251 -3.377002
v 0.010071 -0.052144 0.800536
vn 2.766249 -5.518616 -1.154401
v 0.270027 0.026401 0.838603
vn -4.944419 -1.516621 -3.548842
v 0.011117 -0.042366 0.793235
vn -5.176993 -1.755657 -3.084727
v 0.006447 -0.042253 0.800548
vn -5.173210 -1.573958 -3.198752
v 0.005268 -0.038410 0.800548
vn -4.128196 1.338146 -1.574637
v -0.031928 0.084600 0.800568
vn -3.105880 2.159724 -2.147087
v 0.043709 0.107466 0.696646
vn -4.474257 -1.361376 -4.171584
v 0.080894 -0.015542 0.696648
vn -4.372399 -1.493650 -4.214720
v 0.082069 -0.019374 0.696648
vn -5.062088 -1.877547 -3.213586
v 0.010073 -0.052125 0.800522
vn 4.611859 1.917124 3.812205
v 0.228608 0.163039 0.839369
vn 4.772015 1.865606 3.628769
v 0.228606 0.163108 0.839337
vn 4.784366 1.892902 3.594866
v 0.228603 0.163169 0.839309
vn 4.799834 1.928154 3.549806
v 0.228601 0.163222 0.839284
vn 5.064301 1.699358 3.299983
v 0.232214 0.153380 0.839263
vn 4.820935 1.977444 3.483497
v 0.228599 0.163266 0.839263
vn 5.158620 1.731770 3.128995
v 0.232220 0.153396 0.839245
vn 5.140060 1.564270 3.256418
v 0.233393 0.149534 0.839263
vn 4.850964 2.054909 3.373197
v 0.228596 0.163302 0.839245
vn 5.232885 1.592659 3.088961
v 0.233398 0.149552 0.839245
vn -4.772519 -2.363463 -3.198816
v 0.010070 -0.052160 0.800548
vn -0.487825 -0.147699 6.241563
v 0.185435 0.016049 0.943964
vn -0.492715 -0.148916 6.240731
v 0.183692 0.021818 0.943964
vn -0.467562 -0.146329 6.245292
v 0.186613 0.012208 0.943963
vn 5.303724 1.781549 2.837253
v 0.232224 0.153408 0.839231
vn 4.891906 2.177432 3.178629
v 0.228594 0.163330 0.839231
vn 5.375032 1.635957 2.804621
v 0.233402 0.149567 0.839231
vn -5.349993 -1.628411 -2.845085
v 0.005262 -0.038408 0.800557
vn -5.378880 -1.815816 -2.645785
v 0.006440 -0.042249 0.800557
vn -4.702701 -2.681554 -2.825662
v 0.010070 -0.052171 0.800557
vn 0.044379 0.013413 6.282843
v 0.157462 0.124513 0.943964
vn 0.168143 0.095828 6.276069
v 0.152089 0.140204 0.943964
vn 0.971636 0.669340 6.002167
v 0.152087 0.140221 0.943963
vn 0.189158 0.061088 6.276888
v 0.155719 0.130282 0.943964
vn 0.044262 0.013280 6.282845
v 0.192893 0.007284 0.943964
vn -0.003212 -0.001274 6.283183
v 0.189065 0.006127 0.943964
vn 1.315717 0.438284 6.040056
v 0.155722 0.130287 0.943963
vn 0.144867 0.043785 6.281087
v 0.158640 0.120672 0.943963
vn 0.229589 0.069506 6.276877
v 0.156896 0.126441 0.943963
vn 1.303892 0.395465 6.051278
v 0.156899 0.126450 0.943963
vn 0.905368 0.273680 6.185396
v 0.158644 0.120674 0.943963
vn 5.547911 1.867541 2.194984
v 0.232226 0.153416 0.839221
vn 4.922620 2.425495 2.699036
v 0.228592 0.163350 0.839221
vn 5.620364 1.710524 2.172017
v 0.233403 0.149579 0.839221
vn 3.089431 -5.178098 -1.611783
v 0.270037 0.026408 0.838595
vn 3.879026 -2.057982 1.127351
v 0.270584 0.026576 0.839221
vn -5.702745 -1.735257 -1.833770
v 0.005259 -0.038407 0.800564
vn -5.693531 -1.927777 -1.534382
v 0.006435 -0.042244 0.800564
vn -4.249160 -3.261866 -1.857538
v 0.010070 -0.052178 0.800564
vn 1.083244 2.170671 4.803780
v 0.152087 0.140231 0.943962
vn -2.156695 1.583455 4.715736
v 0.148252 0.139071 0.943962
vn 3.129411 1.057512 5.215056
v 0.155725 0.130289 0.943962
vn 3.140300 0.957608 5.236581
v 0.156900 0.126457 0.943962
vn 2.659660 -1.773898 3.856204
v 0.194086 0.003450 0.943962
vn 3.062883 0.925947 5.306789
v 0.158648 0.120677 0.943962
vn 5.658148 1.930481 -0.074278
v 0.232227 0.153420 0.839215
vn 3.959391 3.257461 3.598498
v 0.159472 0.142467 0.934178
vn 4.205720 2.942224 0.868274
v 0.228589 0.163362 0.839215
vn 5.761056 1.753386 -0.054135
v 0.233402 0.149588 0.839214
vn 5.895749 1.782344 0.792346
v 0.235150 0.143808 0.839214
vn 3.825250 -3.373472 -3.009875
v 0.270044 0.026414 0.838591
vn -5.298026 -1.611125 1.411500
v 0.005258 -0.038408 0.800568
vn -5.730772 -1.732472 0.617580
v 0.003511 -0.032627 0.800568
vn -5.134145 -1.706276 1.622555
v 0.006433 -0.042239 0.800568
vn 2.956932 1.259182 -5.325486
v 0.048414 0.108884 0.695822
vn 3.126726 1.067414 -5.304204
v 0.052049 0.098950 0.695822
vn 1.373273 0.444440 -5.933652
v 0.052048 0.098948 0.695821
vn 0.735176 2.569271 -4.245464
v 0.048410 0.108890 0.695821
vn 1.153715 3.568314 -2.355001
v 0.228045 0.163199 0.838591
vn 4.002945 1.345292 -4.607840
v 0.231684 0.153253 0.838591
vn 3.163401 0.961341 -5.310125
v 0.053226 0.095113 0.695822
vn 1.350456 0.413436 -5.947825
v 0.053223 0.095116 0.695821
vn 4.038754 1.230007 -4.618194
v 0.232857 0.149428 0.838591
vn 1.369648 0.414053 -5.938418
v 0.054970 0.089336 0.695821
vn 4.041216 1.221761 -4.618900
v 0.234606 0.143645 0.838591
vn 4.197807 -0.407471 -4.167044
v 0.270046 0.026419 0.838591
vn 3.648403 -3.421490 -3.289048
v 0.267070 0.025515 0.836228
vn 0.477311 3.906941 2.569409
v 0.152088 0.140234 0.943959
vn -2.260703 4.327583 2.426836
v 0.148251 0.139074 0.943959
vn -2.912952 4.397118 1.992568
v -0.028411 0.085665 0.803555
vn -4.205813 -1.271513 4.478212
v 0.004054 -0.032461 0.801191
vn -4.242818 -1.294963 4.440039
v 0.005802 -0.038243 0.801191
vn -4.284369 -1.356348 4.383820
v 0.006975 -0.042068 0.801191
vn -4.505049 -1.439080 4.131731
v 0.006433 -0.042234 0.800570
vn 3.893934 0.435489 4.774590
v 0.194089 0.003454 0.943959
vn 0.980058 4.239545 2.177799
v 0.152950 0.140498 0.943136
vn 5.027628 1.682162 -3.049772
v 0.232226 0.153419 0.839212
vn 0.853685 5.424770 1.814936
v 0.159471 0.142470 0.934176
vn 1.760964 3.255878 -0.719369
v 0.228587 0.163365 0.839212
vn 5.095468 1.556202 -3.020112
v 0.233399 0.149594 0.839211
vn 4.858538 0.365337 -1.573964
v 0.270588 0.026585 0.839211
vn 5.107066 1.543980 -2.999250
v 0.235148 0.143811 0.839211
vn -3.256125 1.411416 0.814015
v -0.031928 0.084600 0.800570
vn -3.156250 4.887279 -1.221798
v 0.037188 0.105495 0.705605
vn -4.142794 -1.252461 -4.553173
v 0.079149 -0.009760 0.696646
vn -4.121989 -1.255849 -4.571610
v 0.080897 -0.015543 0.696646
vn -4.562928 -1.392049 4.083755
v 0.005260 -0.038409 0.800570
vn -4.591645 -1.388158 4.050762
v 0.003512 -0.032627 0.800570
vn -1.998313 -0.715507 -5.457549
v 0.082935 -0.019108 0.695821
vn -4.097098 -1.314095 -4.576207
v 0.082070 -0.019368 0.696645
vn -3.850767 -1.248318 -4.794609
v 0.082932 -0.019103 0.695822
vn -1.193729 1.587924 -5.235775
v 0.044574 0.107730 0.695821
vn -1.497004 -0.452567 -5.892071
v 0.080013 -0.009497 0.695821
vn -2.232154 2.199511 -2.662333
v 0.044571 0.107731 0.695822
vn -0.044491 -0.013352 -6.282841
v 0.045749 0.103899 0.695821
vn -0.044597 -0.013482 -6.282840
v 0.081188 -0.013328 0.695821
vn -1.098509 5.119978 -2.262427
v 0.048408 0.108891 0.695822
vn -1.847634 -0.561281 -5.654930
v 0.081760 -0.015277 0.695821
vn -3.826580 -1.166242 -4.835059
v 0.081759 -0.015278 0.695822
vn -3.798677 -1.148427 -4.858915
v 0.080011 -0.009496 0.695822
vn 0.003219 0.001277 -6.283183
v 0.049585 0.105058 0.695821
vn -0.095058 5.393793 -1.932132
v 0.225070 0.162299 0.836227
vn -1.820742 6.013559 0.014082
v 0.149113 0.139338 0.943136
vn -1.823846 6.012641 0.007679
v -0.027550 0.085930 0.802732
vn -1.830253 6.010684 0.002080
v -0.030524 0.085030 0.800368
vn -1.865569 5.999571 -0.032791
v -0.031066 0.084864 0.799747
vn -2.875742 4.584854 1.874335
v -0.023713 0.087090 0.802732
vn -1.818297 6.014334 0.000013
v -0.026687 0.086190 0.800368
vn -1.821889 6.013222 -0.011179
v 0.045113 0.107897 0.696443
vn -1.824746 6.012372 -0.005155
v 0.038592 0.105925 0.705403
vn -1.379849 6.094978 0.336819
v 0.042429 0.107086 0.705403
vn -1.792667 6.021718 -0.038026
v 0.048950 0.109057 0.696443
vn -1.864694 5.999835 -0.036989
v 0.038050 0.105759 0.704782
vn -1.791175 6.022173 -0.037045
v 0.225612 0.162466 0.836847
# 169 vertices, 0 vertices normals

f 1//1 2//2 3//3
f 1//1 4//4 5//5
f 1//1 3//3 4//4
f 1//1 5//5 6//6
f 1//1 6//6 7//7
f 1//1 8//8 9//9
f 1//1 9//9 2//2
f 1//1 7//7 8//8
f 2//2 10//10 11//11
f 2//2 12//12 10//10
f 2//2 13//13 3//3
f 2//2 14//14 13//13
f 2//2 11//11 14//14
f 2//2 9//9 15//15
f 2//2 15//15 12//12
f 16//16 17//17 18//18
f 16//16 19//19 20//20
f 16//16 18//18 19//19
f 16//16 20//20 21//21
f 16//16 21//21 17//17
f 17//17 22//22 18//18
f 17//17 23//23 22//22
f 17//17 21//21 24//24
f 17//17 24//24 25//25
f 17//17 26//26 23//23
f 17//17 25//25 27//27
f 17//17 27//27 26//26
f 28//28 29//29 30//30
f 28//28 31//31 32//32
f 28//28 11//11 29//29
f 28//28 30//30 31//31
f 28//28 33//33 11//11
f 28//28 34//34 33//33
f 28//28 32//32 34//34
f 10//10 12//12 35//35
f 10//10 35//35 11//11
f 36//36 37//37 29//29
f 36//36 12//12 15//15
f 36//36 38//38 12//12
f 36//36 29//29 38//38
f 36//36 15//15 37//37
f 37//37 15//15 39//39
f 37//37 40//40 41//41
f 37//37 39//39 42//42
f 37//37 42//42 40//40
f 37//37 41//41 43//43
f 37//37 43//43 29//29
f 12//12 38//38 35//35
f 44//44 45//45 40//40
f 44//44 46//46 45//45
f 44//44 40//40 46//46
f 38//38 29//29 11//11
f 38//38 11//11 35//35
f 29//29 47//47 30//30
f 29//29 43//43 47//47
f 48//48 45//45 49//49
f 48//48 50//50 51//51
f 48//48 49//49 50//50
f 48//48 51//51 52//52
f 48//48 53//53 54//54
f 48//48 54//54 45//45
f 48//48 52//52 53//53
f 45//45 55//55 49//49
f 45//45 46//46 55//55
f 45//45 54//54 40//40
f 19//19 18//18 22//22
f 19//19 56//56 20//20
f 19//19 57//57 56//56
f 19//19 22//22 57//57
f 56//56 57//57 20//20
f 57//57 58//58 20//20
f 57//57 22//22 58//58
f 58//58 59//59 20//20
f 58//58 22//22 60//60
f 58//58 60//60 59//59
f 59//59 61//61 20//20
f 59//59 60//60 62//62
f 59//59 62//62 61//61
f 22//22 23//23 63//63
f 22//22 63//63 60//60
f 23//23 26//26 63//63
f 55//55 46//46 49//49
f 61//61 64//64 20//20
f 61//61 62//62 64//64
f 60//60 63//63 65//65
f 60//60 65//65 62//62
f 63//63 26//26 65//65
f 46//46 66//66 49//49
f 46//46 40//40 66//66
f 4//4 3//3 67//67
f 4//4 68//68 5//5
f 4//4 67//67 68//68
f 3//3 13//13 69//69
f 3//3 69//69 67//67
f 13//13 14//14 69//69
f 64//64 62//62 70//70
f 64//64 71//71 20//20
f 64//64 70//70 71//71
f 62//62 65//65 72//72
f 62//62 72//72 70//70
f 65//65 26//26 72//72
f 31//31 30//30 32//32
f 50//50 49//49 73//73
f 50//50 73//73 51//51
f 49//49 66//66 74//74
f 49//49 74//74 73//73
f 66//66 75//75 74//74
f 66//66 40//40 75//75
f 5//5 68//68 76//76
f 5//5 77//77 78//78
f 5//5 79//79 77//77
f 5//5 76//76 79//79
f 5//5 78//78 6//6
f 68//68 67//67 80//80
f 68//68 80//80 76//76
f 67//67 81//81 80//80
f 67//67 69//69 14//14
f 67//67 14//14 81//81
f 81//81 14//14 80//80
f 77//77 79//79 82//82
f 77//77 82//82 78//78
f 79//79 76//76 83//83
f 79//79 84//84 85//85
f 79//79 83//83 84//84
f 79//79 85//85 82//82
f 76//76 80//80 83//83
f 80//80 14//14 11//11
f 80//80 11//11 83//83
f 84//84 83//83 33//33
f 84//84 86//86 85//85
f 84//84 33//33 86//86
f 83//83 11//11 33//33
f 71//71 70//70 87//87
f 71//71 88//88 20//20
f 71//71 87//87 88//88
f 70//70 72//72 89//89
f 70//70 89//89 87//87
f 72//72 26//26 89//89
f 30//30 47//47 90//90
f 30//30 91//91 32//32
f 30//30 90//90 91//91
f 73//73 74//74 92//92
f 73//73 92//92 51//51
f 74//74 75//75 93//93
f 74//74 93//93 92//92
f 75//75 94//94 93//93
f 75//75 40//40 94//94
f 47//47 43//43 90//90
f 6//6 78//78 95//95
f 6//6 96//96 7//7
f 6//6 95//95 96//96
f 78//78 82//82 97//97
f 78//78 97//97 95//95
f 82//82 85//85 98//98
f 82//82 98//98 97//97
f 85//85 86//86 99//99
f 85//85 100//100 98//98
f 85//85 99//99 100//100
f 86//86 33//33 99//99
f 33//33 34//34 99//99
f 88//88 87//87 101//101
f 88//88 102//102 20//20
f 88//88 103//103 102//102
f 88//88 101//101 103//103
f 87//87 89//89 104//104
f 87//87 104//104 101//101
f 89//89 105//105 104//104
f 89//89 26//26 105//105
f 91//91 90//90 106//106
f 91//91 26//26 27//27
f 91//91 106//106 26//26
f 91//91 27//27 32//32
f 34//34 32//32 99//99
f 92//92 93//93 107//107
f 92//92 108//108 51//51
f 92//92 107//107 108//108
f 93//93 94//94 109//109
f 93//93 109//109 107//107
f 94//94 40//40 42//42
f 94//94 39//39 109//109
f 94//94 42//42 39//39
f 110//110 111//111 112//112
f 110//110 113//113 114//114
f 110//110 112//112 113//113
f 110//110 114//114 115//115
f 110//110 115//115 111//111
f 111//111 116//116 117//117
f 111//111 117//117 112//112
f 111//111 115//115 118//118
f 111//111 118//118 116//116
f 116//116 119//119 117//117
f 116//116 43//43 119//119
f 116//116 118//118 120//120
f 116//116 120//120 121//121
f 116//116 121//121 43//43
f 90//90 122//122 106//106
f 90//90 43//43 122//122
f 96//96 95//95 123//123
f 96//96 124//124 125//125
f 96//96 125//125 7//7
f 96//96 123//123 124//124
f 8//8 7//7 126//126
f 8//8 126//126 127//127
f 8//8 127//127 9//9
f 95//95 97//97 20//20
f 95//95 20//20 123//123
f 97//97 98//98 24//24
f 97//97 21//21 20//20
f 97//97 24//24 21//21
f 9//9 109//109 39//39
f 9//9 39//39 15//15
f 9//9 127//127 128//128
f 9//9 128//128 129//129
f 9//9 129//129 109//109
f 98//98 100//100 130//130
f 98//98 130//130 24//24
f 100//100 99//99 130//130
f 99//99 32//32 130//130
f 102//102 103//103 131//131
f 102//102 131//131 20//20
f 103//103 101//101 132//132
f 103//103 133//133 131//131
f 103//103 134//134 133//133
f 103//103 132//132 134//134
f 101//101 104//104 135//135
f 101//101 135//135 132//132
f 20//20 131//131 123//123
f 104//104 105//105 136//136
f 104//104 137//137 135//135
f 104//104 136//136 137//137
f 24//24 130//130 27//27
f 24//24 27//27 25//25
f 105//105 26//26 136//136
f 26//26 106//106 136//136
f 32//32 27//27 130//130
f 51//51 108//108 138//138
f 51//51 138//138 139//139
f 51//51 139//139 52//52
f 108//108 107//107 138//138
f 53//53 52//52 140//140
f 53//53 140//140 141//141
f 53//53 141//141 54//54
f 107//107 109//109 142//142
f 107//107 143//143 138//138
f 107//107 142//142 143//143
f 54//54 144//144 40//40
f 54//54 141//141 145//145
f 54//54 145//145 146//146
f 54//54 146//146 144//144
f 40//40 144//144 41//41
f 109//109 129//129 142//142
f 147//147 148//148 149//149
f 147//147 113//113 150//150
f 147//147 150//150 151//151
f 147//147 151//151 148//148
f 147//147 149//149 152//152
f 147//147 152//152 113//113
f 148//148 153//153 149//149
f 148//148 151//151 153//153
f 153//153 151//151 144//144
f 153//153 144//144 154//154
f 153//153 155//155 149//149
f 153//153 154//154 155//155
f 113//113 112//112 156//156
f 113//113 156//156 150//150
f 113//113 157//157 114//114
f 113//113 152//152 157//157
f 112//112 117//117 156//156
f 150//150 156//156 117//117
f 150//150 117//117 119//119
f 150//150 119//119 151//151
f 151//151 119//119 43//43
f 151//151 43//43 144//144
f 144//144 43//43 41//41
f 144//144 146//146 154//154
f 106//106 122//122 121//121
f 106//106 121//121 136//136
f 122//122 43//43 121//121
f 124//124 123//123 158//158
f 124//124 158//158 125//125
f 125//125 158//158 159//159
f 125//125 159//159 7//7
f 7//7 159//159 160//160
f 7//7 160//160 161//161
f 7//7 138//138 143//143
f 7//7 143//143 126//126
f 7//7 161//161 138//138
f 126//126 143//143 142//142
f 126//126 142//142 127//127
f 127//127 142//142 128//128
f 123//123 131//131 158//158
f 128//128 142//142 129//129
f 158//158 131//131 159//159
f 159//159 131//131 162//162
f 159//159 162//162 163//163
f 159//159 163//163 160//160
f 164//164 165//165 166//166
f 164//164 167//167 152//152
f 164//164 166//166 167//167
f 164//164 149//149 168//168
f 164//164 168//168 165//165
f 164//164 152//152 149//149
f 160//160 165//165 161//161
f 160//160 163//163 165//165
f 165//165 163//163 166//166
f 165//165 168//168 161//161
f 133//133 134//134 131//131
f 134//134 132//132 115//115
f 134//134 169//169 131//131
f 134//134 114//114 169//169
f 134//134 115//115 114//114
f 132//132 135//135 115//115
f 131//131 169//169 167//167
f 131//131 167//167 163//163
f 131//131 163//163 162//162
f 169//169 114//114 157//157
f 169//169 157//157 167//167
f 167//167 166//166 163//163
f 167//167 157//157 152//152
f 135//135 137//137 118//118
f 135//135 118//118 115//115
f 137//137 136//136 121//121
f 137//137 120//120 118//118
f 137//137 121//121 120//120
f 52//52 139//139 168//168
f 52//52 149//149 140//140
f 52//52 168//168 149//149
f 140//140 149//149 155//155
f 140//140 155//155 154//154
f 140//140 154//154 141//141
f 138//138 161//161 139//139
f 139//139 161//161 168//168
f 141//141 154//154 145//145
f 145//145 154//154 146//146
# 334 faces, 0 coords texture

# End of File
