####
#
# OBJ File Generated by Meshlab
#
####
# Object matlab_mesh_step8_link8.obj
#
# Vertices: 138
# Faces: 272
#
####
vn -3.966617 -4.662522 1.345435
v 0.412775 0.561036 0.887297
vn -3.508291 -4.984712 1.451201
v 0.415194 0.559139 0.887297
vn -2.812446 -5.287020 1.419199
v 0.425590 0.561196 0.916866
vn -4.132860 -4.580528 0.292370
v 0.412864 0.560793 0.886622
vn -4.201166 -4.465268 1.114708
v 0.381798 0.597115 0.916821
vn -3.264463 -5.162251 0.567169
v 0.415283 0.558896 0.886622
vn -4.123183 -4.666112 -0.645766
v 0.413189 0.561010 0.881817
vn -4.481231 -4.100454 0.967650
v 0.381743 0.597179 0.916866
vn -4.619266 -4.233933 -0.345013
v 0.381798 0.597115 0.850236
vn -4.862551 -3.933906 -0.295886
v 0.381743 0.597179 0.850211
vn -1.971193 -5.650117 0.190158
v 0.416340 0.558249 0.885716
vn -3.738882 -4.995326 -0.658532
v 0.415608 0.559113 0.881817
vn -2.387863 -5.550172 -0.598009
v 0.416665 0.558466 0.880912
vn -0.947433 -6.199947 -0.372285
v 0.528369 0.547157 0.778805
vn -1.735911 -5.940877 1.080879
v 0.425622 0.561191 0.916892
vn -1.979433 -5.109466 1.874937
v 0.436400 0.563196 0.945199
vn -0.430615 -6.240007 -0.217863
v 0.528416 0.547149 0.778817
vn -0.290575 -6.253439 0.235527
v 0.528416 0.547149 0.845532
vn -0.158916 -6.231546 0.702906
v 0.539203 0.549156 0.873876
vn -4.268709 -4.498647 -0.826274
v 0.385205 0.599589 0.803071
vn -3.712307 -4.966548 -0.960777
v 0.428961 0.563682 0.803071
vn -2.767331 -5.342545 -1.024874
v 0.429005 0.563675 0.802945
vn -2.553630 -5.174356 -1.579697
v 0.429042 0.563675 0.802854
vn -1.310804 -6.044550 -0.863624
v 0.531790 0.549641 0.731457
vn -6.195979 -0.440366 0.047793
v 0.369257 0.668741 0.843846
vn -6.177923 -1.050592 -0.448408
v 0.369345 0.668499 0.843170
vn -6.035002 -1.582728 -0.260550
v 0.381684 0.597287 0.850196
vn -6.224958 -0.441297 -0.490902
v 0.369582 0.668958 0.839042
vn -6.109303 0.368383 0.851583
v 0.372399 0.770715 0.880754
vn -6.232729 0.509843 -0.233492
v 0.372399 0.770715 0.814064
vn -6.172844 -0.038695 1.042635
v 0.372399 0.713185 0.880754
vn -5.679336 -1.324418 1.306621
v 0.381684 0.597287 0.916911
vn -6.178031 -0.732798 -0.716694
v 0.369670 0.668715 0.838366
vn -6.172914 0.356735 -0.814588
v 0.375819 0.773200 0.766716
vn -5.933385 -0.604361 -1.535104
v 0.375819 0.715669 0.766716
vn -4.527005 -2.393163 -2.224418
v 0.385109 0.599775 0.802787
vn -3.201642 -5.060107 1.683365
v 0.436356 0.563197 0.945123
vn -3.900377 -4.506914 1.961617
v 0.392508 0.599180 0.945123
vn -4.396795 -4.246494 -1.049065
v 0.385157 0.599658 0.802945
vn -4.126093 -3.755886 2.534663
v 0.392479 0.599240 0.945199
vn -5.105216 -3.009472 1.005376
v 0.381702 0.597235 0.916892
vn -5.462997 -2.879232 -0.274147
v 0.381702 0.597235 0.850202
vn -4.631240 -3.360660 -1.488842
v 0.385122 0.599720 0.802854
vn -5.967127 0.064012 1.926814
v 0.381684 0.654857 0.916912
vn -5.657112 1.532646 1.043062
v 0.372408 0.770779 0.880780
vn -5.856312 1.927241 -0.170508
v 0.372408 0.770779 0.814065
vn -5.984896 -0.024708 1.870647
v 0.381684 0.597330 0.916912
vn -4.471717 -2.247539 2.921040
v 0.392471 0.599293 0.945255
vn -1.576792 -4.998544 2.423700
v 0.436446 0.563203 0.945255
vn -5.391075 1.202243 -1.688747
v 0.375833 0.773267 0.766656
vn -4.803740 -0.796831 -3.183152
v 0.375833 0.715728 0.766656
vn -4.500821 -1.828290 -3.393481
v 0.385112 0.599820 0.802753
vn -2.826551 -4.636413 -2.864850
v 0.429084 0.563684 0.802787
vn -1.315421 -4.394915 -2.651495
v 0.531841 0.549637 0.731408
vn -5.526483 1.085904 2.490201
v 0.383195 0.772786 0.909124
vn -4.607009 2.648323 2.240621
v 0.383220 0.772821 0.909155
vn -4.287619 3.887771 0.681658
v 0.372426 0.770813 0.880786
vn -4.628597 3.999160 -0.051828
v 0.372426 0.770813 0.814076
vn -5.421470 0.221848 3.005531
v 0.392478 0.656866 0.945281
vn 0.119274 -6.017623 1.712954
v 0.514689 0.563203 0.945255
vn -0.028897 -6.195887 1.023300
v 0.539253 0.549161 0.873914
vn 1.104154 -2.426979 3.753269
v 0.560157 0.585858 1.006274
vn -0.618931 -2.890007 4.040478
v 0.481924 0.585858 1.006274
vn 2.888009 -2.287773 1.727677
v 0.662921 0.571803 0.934907
vn 1.320667 -5.854935 0.702744
v 0.617485 0.549161 0.873914
vn 0.292242 -6.257130 0.164348
v 0.606659 0.547149 0.845532
vn 0.262613 -6.241887 0.490064
v 0.617446 0.549156 0.873876
vn 0.382813 -6.249069 -0.171105
v 0.606659 0.547149 0.778817
vn 1.153240 -6.153381 -0.133164
v 0.606692 0.547153 0.778836
vn 0.858998 -6.216026 0.079201
v 0.606692 0.547153 0.845546
vn -3.259938 -3.612095 3.955239
v 0.437912 0.621943 1.006241
vn -2.758795 -4.157443 3.757763
v 0.481886 0.585853 1.006241
vn -2.460719 -1.055128 4.556776
v 0.437913 0.621979 1.006274
vn -5.144318 -0.717384 3.193225
v 0.392478 0.599338 0.945281
vn -2.720057 2.612460 -2.157101
v 0.375854 0.773304 0.766627
vn -4.172152 -0.463292 -4.469674
v 0.375854 0.715776 0.766627
vn -3.469144 0.127195 -5.230612
v 0.478591 0.759220 0.695278
vn -2.660760 -1.134563 -5.314794
v 0.478591 0.701681 0.695278
vn -1.036841 2.440905 -3.781638
v 0.478618 0.759248 0.695260
vn -1.610061 -0.392221 -5.754476
v 0.478618 0.701720 0.695260
vn 0.305400 -6.150630 -0.852923
v 0.610084 0.549637 0.731408
vn -0.522387 -3.716200 -3.818706
v 0.531887 0.549643 0.731387
vn 1.753283 -2.805174 -2.584854
v 0.610120 0.549643 0.731387
vn -2.957258 -2.827193 -4.551695
v 0.487866 0.585728 0.731408
vn -1.426698 -1.827129 -5.836030
v 0.522565 0.665591 0.695278
vn -0.485513 -1.111662 -6.023686
v 0.522629 0.665599 0.695260
vn -2.562778 -2.004280 -5.243120
v 0.487876 0.585765 0.731387
vn 0.531592 6.222196 0.222715
v 0.510316 0.797954 0.922698
vn 0.834521 3.812898 2.958239
v 0.506888 0.795463 0.970148
vn 2.564610 4.832427 1.700112
v 0.609652 0.781408 0.898781
vn 2.460183 5.483329 0.195510
v 0.613080 0.783898 0.851331
vn 0.385490 6.241796 -0.212826
v 0.510316 0.797954 0.855989
vn -0.774035 6.168938 0.171239
v 0.432083 0.797954 0.922698
vn 2.661783 2.595077 4.737281
v 0.550899 0.759342 0.970148
vn 0.611791 1.210828 5.988057
v 0.516146 0.679507 1.006274
vn -1.655413 2.840473 2.467431
v 0.428655 0.795463 0.970148
vn -0.049761 2.222130 5.860062
v 0.428689 0.795457 0.970151
vn 0.083979 2.213452 5.861461
v 0.506869 0.795457 0.970151
vn 1.998526 0.742859 5.440170
v 0.560157 0.643386 1.006274
vn 4.883710 1.290696 2.641129
v 0.653665 0.745261 0.898790
vn 4.223066 2.451569 1.960206
v 0.653663 0.745287 0.898781
vn -2.341066 0.688524 4.798645
v 0.437913 0.679507 1.006274
vn 0.015256 0.244374 6.273376
v 0.516118 0.679500 1.006275
vn 4.747781 0.656164 2.758823
v 0.662921 0.629331 0.934907
vn 3.992458 0.106577 4.806010
v 0.662914 0.629304 0.934914
vn 0.186964 0.024814 6.277123
v 0.560147 0.643363 1.006275
vn 5.037748 2.846182 0.286777
v 0.657091 0.747777 0.851331
vn 4.776925 2.357041 -1.054142
v 0.657091 0.747777 0.784622
vn 2.351160 5.318417 -0.688114
v 0.613080 0.783898 0.784622
vn 6.221926 0.756921 0.186421
v 0.657095 0.747752 0.851320
vn 6.213393 0.577852 -0.376201
v 0.657095 0.747752 0.784645
vn 6.252435 0.298867 0.257199
v 0.666349 0.631821 0.887458
vn 4.983741 -2.469666 0.116963
v 0.666349 0.574293 0.887458
vn 6.178599 0.148941 -0.702654
v 0.666349 0.631821 0.820748
vn -2.021176 5.876478 0.045748
v 0.421290 0.795945 0.894329
vn -2.810690 5.404778 0.609404
v 0.417862 0.793455 0.941779
vn -0.507107 6.225064 -0.136531
v 0.432083 0.797954 0.855989
vn -3.245635 5.354453 0.010430
v 0.375854 0.773304 0.833336
vn -1.278399 5.858032 -0.670492
v 0.421290 0.795945 0.827620
vn -0.075017 -0.015018 6.282165
v 0.437938 0.622017 1.006275
vn -0.045687 0.222931 6.272905
v 0.437938 0.679500 1.006275
vn 3.936373 -0.211193 4.834610
v 0.662914 0.571821 0.934914
vn 0.166132 -0.052693 6.276614
v 0.560147 0.585881 1.006275
vn -0.009991 -0.082814 6.282027
v 0.481967 0.585881 1.006275
vn 3.245633 -5.354454 -0.010430
v 0.662921 0.571803 0.868198
vn 4.471641 -2.480261 -0.642409
v 0.666349 0.574293 0.820748
vn 2.021188 -5.876477 -0.045746
v 0.617485 0.549161 0.807205
vn 0.125222 6.213669 -0.800127
v 0.499522 0.795945 0.827620
vn 1.831105 4.938196 -2.070597
v 0.602286 0.781890 0.756253
vn -0.119281 6.017617 -1.713137
v 0.524054 0.781890 0.756253
vn 4.315615 2.142098 -2.650196
v 0.646297 0.745769 0.756253
vn 2.419021 1.129830 -4.479460
v 0.600862 0.723127 0.695260
vn 0.659878 2.848138 -4.003180
v 0.556851 0.759248 0.695260
vn 5.967477 -0.064205 -1.925371
v 0.657091 0.690249 0.784622
vn 5.421506 -0.221961 -3.005425
v 0.646297 0.688241 0.756253
vn 2.310051 -0.664860 -4.798991
v 0.600862 0.665599 0.695260
vn 4.722413 -2.355176 -2.044827
v 0.655555 0.572285 0.792380
vn 2.810691 -5.404778 -0.609401
v 0.620913 0.551652 0.759755
# 138 vertices, 0 vertices normals

f 1//1 2//2 3//3
f 1//1 4//4 2//2
f 1//1 5//5 4//4
f 1//1 3//3 5//5
f 2//2 4//4 6//6
f 2//2 6//6 3//3
f 4//4 7//7 6//6
f 4//4 5//5 8//8
f 4//4 9//9 7//7
f 4//4 8//8 10//10
f 4//4 10//10 9//9
f 6//6 11//11 3//3
f 6//6 7//7 12//12
f 6//6 12//12 11//11
f 11//11 12//12 13//13
f 11//11 13//13 14//14
f 11//11 15//15 3//3
f 11//11 16//16 15//15
f 11//11 14//14 17//17
f 11//11 18//18 19//19
f 11//11 19//19 16//16
f 11//11 17//17 18//18
f 7//7 20//20 21//21
f 7//7 21//21 12//12
f 7//7 9//9 20//20
f 12//12 21//21 13//13
f 13//13 21//21 22//22
f 13//13 22//22 23//23
f 13//13 23//23 24//24
f 13//13 24//24 14//14
f 25//25 26//26 27//27
f 25//25 28//28 26//26
f 25//25 29//29 30//30
f 25//25 31//31 29//29
f 25//25 30//30 28//28
f 25//25 32//32 31//31
f 25//25 27//27 32//32
f 26//26 28//28 33//33
f 26//26 33//33 27//27
f 28//28 34//34 35//35
f 28//28 30//30 34//34
f 28//28 35//35 33//33
f 33//33 35//35 36//36
f 33//33 36//36 27//27
f 5//5 3//3 37//37
f 5//5 38//38 8//8
f 5//5 37//37 38//38
f 20//20 9//9 10//10
f 20//20 39//39 22//22
f 20//20 22//22 21//21
f 20//20 10//10 39//39
f 8//8 38//38 40//40
f 8//8 41//41 42//42
f 8//8 40//40 41//41
f 8//8 42//42 10//10
f 3//3 15//15 16//16
f 3//3 16//16 37//37
f 38//38 37//37 16//16
f 38//38 16//16 40//40
f 39//39 10//10 42//42
f 39//39 43//43 23//23
f 39//39 23//23 22//22
f 39//39 42//42 43//43
f 29//29 31//31 44//44
f 29//29 45//45 46//46
f 29//29 46//46 30//30
f 29//29 44//44 45//45
f 31//31 32//32 47//47
f 31//31 47//47 44//44
f 41//41 40//40 48//48
f 41//41 32//32 27//27
f 41//41 48//48 32//32
f 41//41 27//27 42//42
f 40//40 16//16 49//49
f 40//40 49//49 48//48
f 16//16 19//19 49//49
f 34//34 30//30 46//46
f 34//34 50//50 51//51
f 34//34 46//46 50//50
f 34//34 51//51 35//35
f 35//35 51//51 52//52
f 35//35 52//52 36//36
f 43//43 42//42 27//27
f 43//43 36//36 53//53
f 43//43 53//53 23//23
f 43//43 27//27 36//36
f 23//23 53//53 54//54
f 23//23 54//54 24//24
f 24//24 54//54 17//17
f 24//24 17//17 14//14
f 45//45 55//55 56//56
f 45//45 57//57 58//58
f 45//45 56//56 57//57
f 45//45 44//44 59//59
f 45//45 59//59 55//55
f 45//45 58//58 46//46
f 55//55 59//59 56//56
f 60//60 49//49 61//61
f 60//60 62//62 63//63
f 60//60 64//64 62//62
f 60//60 65//65 64//64
f 60//60 63//63 49//49
f 60//60 61//61 65//65
f 66//66 67//67 19//19
f 66//66 18//18 68//68
f 66//66 19//19 18//18
f 66//66 68//68 69//69
f 66//66 70//70 67//67
f 66//66 69//69 70//70
f 67//67 70//70 65//65
f 67//67 65//65 61//61
f 67//67 61//61 19//19
f 71//71 72//72 63//63
f 71//71 48//48 49//49
f 71//71 49//49 72//72
f 71//71 73//73 48//48
f 71//71 63//63 73//73
f 72//72 49//49 63//63
f 32//32 48//48 74//74
f 32//32 74//74 47//47
f 48//48 73//73 74//74
f 49//49 19//19 61//61
f 18//18 17//17 68//68
f 50//50 46//46 75//75
f 50//50 75//75 76//76
f 50//50 76//76 51//51
f 46//46 58//58 75//75
f 77//77 78//78 76//76
f 77//77 75//75 79//79
f 77//77 79//79 80//80
f 77//77 76//76 75//75
f 77//77 80//80 78//78
f 81//81 68//68 54//54
f 81//81 54//54 82//82
f 81//81 83//83 69//69
f 81//81 69//69 68//68
f 81//81 82//82 83//83
f 68//68 17//17 54//54
f 51//51 78//78 52//52
f 51//51 76//76 78//78
f 36//36 84//84 53//53
f 36//36 52//52 84//84
f 53//53 84//84 54//54
f 78//78 85//85 82//82
f 78//78 80//80 86//86
f 78//78 86//86 85//85
f 78//78 87//87 52//52
f 78//78 82//82 87//87
f 85//85 86//86 82//82
f 84//84 52//52 87//87
f 84//84 87//87 82//82
f 84//84 82//82 54//54
f 88//88 89//89 90//90
f 88//88 91//91 92//92
f 88//88 90//90 91//91
f 88//88 93//93 89//89
f 88//88 92//92 93//93
f 89//89 94//94 90//90
f 89//89 95//95 94//94
f 89//89 93//93 96//96
f 89//89 96//96 97//97
f 89//89 98//98 95//95
f 89//89 97//97 98//98
f 94//94 95//95 99//99
f 94//94 99//99 100//100
f 94//94 101//101 90//90
f 94//94 100//100 101//101
f 95//95 102//102 103//103
f 95//95 98//98 102//102
f 95//95 103//103 99//99
f 99//99 104//104 100//100
f 99//99 62//62 105//105
f 99//99 103//103 106//106
f 99//99 106//106 62//62
f 99//99 105//105 104//104
f 91//91 107//107 108//108
f 91//91 90//90 107//107
f 91//91 109//109 92//92
f 91//91 108//108 109//109
f 107//107 90//90 101//101
f 107//107 101//101 110//110
f 107//107 110//110 111//111
f 107//107 111//111 108//108
f 101//101 100//100 110//110
f 112//112 104//104 113//113
f 112//112 113//113 114//114
f 112//112 114//114 110//110
f 112//112 110//110 104//104
f 104//104 64//64 113//113
f 104//104 110//110 100//100
f 104//104 105//105 64//64
f 115//115 116//116 93//93
f 115//115 93//93 117//117
f 115//115 118//118 57//57
f 115//115 57//57 116//116
f 115//115 119//119 118//118
f 115//115 117//117 119//119
f 116//116 96//96 93//93
f 116//116 57//57 56//56
f 116//116 56//56 96//96
f 93//93 92//92 117//117
f 96//96 102//102 97//97
f 96//96 56//56 102//102
f 102//102 56//56 59//59
f 102//102 59//59 73//73
f 102//102 73//73 120//120
f 102//102 98//98 97//97
f 102//102 121//121 103//103
f 102//102 120//120 121//121
f 118//118 119//119 75//75
f 118//118 75//75 58//58
f 118//118 58//58 57//57
f 44//44 47//47 74//74
f 44//44 74//74 59//59
f 59//59 74//74 73//73
f 62//62 64//64 122//122
f 62//62 106//106 123//123
f 62//62 123//123 124//124
f 62//62 122//122 105//105
f 62//62 124//124 63//63
f 113//113 64//64 125//125
f 113//113 126//126 114//114
f 113//113 125//125 126//126
f 64//64 65//65 125//125
f 64//64 105//105 122//122
f 70//70 69//69 127//127
f 70//70 127//127 65//65
f 65//65 127//127 125//125
f 73//73 63//63 124//124
f 73//73 124//124 120//120
f 128//128 92//92 109//109
f 128//128 129//129 130//130
f 128//128 109//109 129//129
f 128//128 119//119 117//117
f 128//128 117//117 92//92
f 128//128 130//130 119//119
f 129//129 131//131 132//132
f 129//129 109//109 131//131
f 129//129 133//133 130//130
f 129//129 132//132 133//133
f 131//131 109//109 108//108
f 131//131 108//108 134//134
f 131//131 135//135 132//132
f 131//131 134//134 135//135
f 108//108 114//114 134//134
f 108//108 111//111 114//114
f 114//114 126//126 134//134
f 114//114 111//111 110//110
f 133//133 132//132 86//86
f 133//133 79//79 130//130
f 133//133 80//80 79//79
f 133//133 86//86 80//80
f 132//132 135//135 136//136
f 132//132 136//136 86//86
f 119//119 130//130 79//79
f 119//119 79//79 75//75
f 135//135 134//134 137//137
f 135//135 137//137 136//136
f 134//134 126//126 137//137
f 137//137 126//126 138//138
f 137//137 83//83 136//136
f 137//137 138//138 83//83
f 126//126 125//125 127//127
f 126//126 127//127 138//138
f 136//136 83//83 82//82
f 136//136 82//82 86//86
f 83//83 138//138 69//69
f 69//69 138//138 127//127
f 103//103 121//121 120//120
f 103//103 120//120 124//124
f 103//103 124//124 106//106
f 106//106 124//124 123//123
# 272 faces, 0 coords texture

# End of File
