####
#
# OBJ File Generated by Meshlab
#
####
# Object matlab_mesh_step22_link5.obj
#
# Vertices: 220
# Faces: 436
#
####
vn 2.778502 -3.455548 -1.423665
v 0.195747 0.594709 0.854282
vn 5.953626 -1.363319 -1.088544
v 0.195821 0.594955 0.854349
vn 6.048238 -1.687896 -0.103286
v 0.195755 0.594540 0.855680
vn 2.696104 -3.853137 -0.924706
v 0.195681 0.594294 0.855613
vn -0.568112 -5.976877 -1.851262
v 0.062452 0.620350 0.810577
vn 2.724377 -3.416091 -1.978754
v 0.182475 0.612272 0.804350
vn -0.288636 -5.886852 -2.154328
v 0.180476 0.613156 0.802135
vn -0.281257 -2.992550 -4.109953
v 0.076885 0.621884 0.802072
vn -0.706487 -5.784570 -2.288060
v 0.060445 0.621237 0.808350
vn 6.001039 -1.242201 -1.024783
v 0.196017 0.595690 0.854588
vn 5.834292 -2.269876 -0.137965
v 0.185838 0.560633 0.990116
vn 2.512613 -4.391868 -0.931864
v 0.195501 0.593696 0.857901
vn -0.685499 -6.019751 -1.653741
v 0.057133 0.613185 0.836144
vn -0.585376 -6.000442 -1.768201
v 0.063485 0.613276 0.833673
vn 6.042145 -1.720743 0.018228
v 0.185912 0.560879 0.990183
vn 5.486198 -2.019179 1.547234
v 0.185732 0.560281 0.992471
vn 2.310594 -3.440927 0.523697
v 0.185658 0.560035 0.992404
vn 6.086333 -1.551922 -0.058978
v 0.195951 0.595275 0.855919
vn 6.079857 -1.583379 0.056459
v 0.186108 0.561614 0.990422
vn 4.603671 -2.361811 3.527191
v 0.185854 0.560769 0.992642
vn 2.533984 -3.848046 3.279770
v 0.178637 0.561939 1.001274
vn 1.116949 -5.797221 2.145131
v 0.178641 0.561933 1.001258
vn 1.355442 -4.722165 3.238963
v 0.162258 0.561298 1.007536
vn 0.715531 -4.727612 2.277588
v 0.155930 0.561210 1.010001
vn -0.582788 -6.146268 -0.397411
v 0.052318 0.569905 1.010086
vn -0.609144 -5.985278 0.238883
v 0.052278 0.569909 1.010089
vn -0.716579 -6.053595 -1.520749
v 0.054401 0.579440 0.970833
vn 5.186095 -1.922273 2.010160
v 0.185928 0.561015 0.992709
vn 4.285349 1.644972 -0.572469
v 0.244679 0.791498 0.907153
vn 4.801195 3.486214 1.239871
v 0.234837 0.757837 1.041655
vn 5.943732 0.314434 0.453493
v 0.244613 0.791083 0.908484
vn 3.796417 4.871537 0.734406
v 0.202395 0.832240 0.860661
vn 3.365978 5.115149 1.399745
v 0.199589 0.798543 0.995277
vn 3.428030 5.070180 1.414677
v 0.200619 0.791459 1.018400
vn 2.885008 2.746386 3.586147
v 0.198501 0.781961 1.057514
vn 3.785240 3.010165 -1.219603
v 0.202339 0.832294 0.860590
vn 2.923094 -3.067248 -2.402707
v 0.182460 0.612294 0.804296
vn 5.658455 -0.524666 -2.641916
v 0.183416 0.616586 0.805391
vn 5.088060 0.014301 -3.565938
v 0.183399 0.616609 0.805357
vn 4.863098 0.543579 -3.937168
v 0.185336 0.631026 0.809686
vn 4.572349 3.903729 1.408774
v 0.234657 0.757239 1.043943
vn 5.720461 0.762120 0.644636
v 0.234770 0.757422 1.042986
vn 3.622582 0.585468 2.204671
v 0.234590 0.756824 1.045274
vn 3.002354 0.033471 5.126926
v 0.234248 0.756855 1.045475
vn 2.690581 -2.736265 4.678990
v 0.178629 0.561948 1.001286
vn 2.486826 -0.206014 5.320442
v 0.233356 0.756902 1.045986
vn 1.934419 -0.270459 5.909492
v 0.175997 0.781160 1.066173
vn 1.835672 -0.307992 5.875468
v 0.175889 0.781201 1.066210
vn 1.623351 0.241820 5.723626
v 0.175795 0.781232 1.066241
vn 2.202284 1.016688 5.760864
v 0.192173 0.781872 1.059979
vn 0.890176 -1.647131 5.965458
v 0.158739 0.579938 1.015463
vn 2.396447 -1.948422 5.466629
v 0.180567 0.576364 1.005616
vn 2.335362 -1.919114 5.506119
v 0.181524 0.580656 1.006711
vn 2.199199 -1.899956 5.570629
v 0.165118 0.580013 1.012981
vn 1.790028 -1.806987 5.727278
v 0.158779 0.579923 1.015448
vn 2.947923 5.347021 1.424149
v 0.199546 0.798585 0.995222
vn 2.608490 3.331068 3.514662
v 0.198458 0.781987 1.057525
vn 2.012066 2.393720 5.363471
v 0.192119 0.781898 1.059992
vn 1.241018 0.954838 5.397230
v 0.175714 0.781254 1.066262
vn 0.505733 6.090353 1.458668
v 0.023230 0.852909 0.860582
vn 0.459077 6.091931 1.466716
v 0.016902 0.852820 0.863047
vn 0.506994 6.076820 1.514401
v 0.020996 0.843419 0.899700
vn 0.487771 6.138207 1.226068
v 0.023116 0.852932 0.860522
vn 0.647845 6.060441 1.519171
v 0.124401 0.834745 0.899664
vn 0.575842 5.982277 -0.221632
v 0.126523 0.844276 0.860408
vn 0.487938 6.077234 1.518769
v 0.014784 0.843321 0.902162
vn 0.369472 6.123852 1.342825
v 0.016777 0.852843 0.862990
vn 0.403496 6.084198 1.513984
v 0.014657 0.843330 0.902167
vn 0.476089 6.036411 1.668935
v 0.011915 0.809581 1.036855
vn 0.653413 6.027424 1.635130
v 0.121668 0.800999 1.034353
vn 0.318108 6.097776 1.481073
v 0.000523 0.852180 0.869309
vn 0.220591 6.123604 1.377643
v 0.000372 0.852200 0.869259
vn 0.256994 6.091966 1.513571
v -0.001748 0.842687 0.908437
vn 3.461525 3.141289 -1.242363
v 0.202288 0.832333 0.860534
vn 3.004738 5.307276 1.470005
v 0.197426 0.789072 1.034400
vn 2.057098 -2.770543 5.172037
v 0.162224 0.561305 1.007555
vn 0.667770 -3.976265 3.158569
v 0.155885 0.561216 1.010023
vn 0.275500 -5.591515 -2.674295
v 0.180458 0.613179 0.802076
vn 0.499070 5.978511 1.866392
v 0.012947 0.802496 1.059980
vn 0.418566 5.969511 1.910763
v -0.003459 0.801853 1.066249
vn 0.548493 5.977689 1.853627
v 0.116350 0.793834 1.059920
vn 0.482864 5.983758 1.853945
v 0.012866 0.802503 1.059982
vn 0.472247 5.798174 2.331641
v -0.001457 0.800968 1.068469
vn -0.022902 2.209274 4.025984
v -0.001556 0.800971 1.068480
vn 0.443371 4.930187 3.415366
v 0.101917 0.792300 1.068425
vn 0.369483 6.038545 1.686519
v -0.004491 0.808938 1.043125
vn 0.110950 5.916237 2.071136
v -0.003561 0.801857 1.066257
vn 0.703859 5.785041 2.287303
v 0.118356 0.792947 1.062147
vn 2.195862 -1.936809 5.559181
v 0.164162 0.575721 1.011885
vn 1.777423 -1.904255 5.699441
v 0.157823 0.575632 1.014353
vn 0.820574 -1.790617 5.933198
v 0.157781 0.575641 1.014366
vn 0.266414 -3.649926 4.214258
v 0.155845 0.561224 1.010036
vn 2.106536 4.367030 3.220648
v 0.198419 0.782007 1.057528
vn 1.559465 4.084358 4.316822
v 0.192073 0.781917 1.059997
vn 0.785275 1.749594 4.732515
v 0.175646 0.781272 1.066272
vn 0.412118 6.197249 0.367467
v 0.023037 0.852946 0.860480
vn 0.160307 6.201314 0.844550
v 0.016690 0.852855 0.862950
vn 0.418600 6.042688 1.661463
v 0.011832 0.809585 1.036863
vn -0.102194 6.166290 1.000573
v 0.000264 0.852210 0.869225
vn -0.083177 6.095265 1.498530
v -0.001858 0.842687 0.908450
vn 0.077198 6.045356 1.670394
v -0.004594 0.808940 1.043138
vn 0.540315 6.025702 1.687897
v 0.115316 0.800909 1.036824
vn 4.436028 2.194470 -3.349321
v 0.200287 0.833218 0.858314
vn 2.513273 3.214246 -2.070625
v 0.200239 0.833246 0.858272
vn 2.834480 4.952236 -0.322179
v 0.202244 0.832360 0.860496
vn 2.142793 5.694673 1.479541
v 0.199507 0.798613 0.995184
vn 4.536063 0.687570 -4.279109
v 0.183331 0.631912 0.807463
vn 2.233217 5.638475 1.548743
v 0.197386 0.789089 1.034409
vn -0.212028 -3.804133 4.045338
v 0.128403 0.564263 1.012194
vn -0.555381 -3.872649 2.229487
v 0.024877 0.572940 1.012244
vn 1.797959 -2.475774 -3.545354
v 0.180437 0.613198 0.802036
vn 3.252899 -2.489260 -3.345800
v 0.182442 0.612312 0.804260
vn -0.354401 -1.490372 6.092713
v -0.002513 0.796674 1.067384
vn -0.195380 -1.516687 6.093834
v 0.043720 0.788694 1.067384
vn -0.093728 -0.760427 6.183718
v 0.044677 0.792991 1.068480
vn -2.492036 -0.881782 5.201284
v -0.002569 0.796672 1.067379
vn -2.249158 -1.212391 5.287304
v -0.019459 0.595336 1.016572
vn -0.204620 -1.606345 6.069230
v 0.026812 0.587360 1.016574
vn -0.125630 -1.527265 6.093447
v 0.027770 0.591657 1.017671
vn 0.067980 -1.688401 6.043779
v 0.130340 0.578679 1.016524
vn 0.097178 -1.558498 6.081881
v 0.131297 0.582976 1.017620
vn -0.218974 -1.733810 6.034181
v 0.026812 0.587352 1.016572
vn 0.414128 2.813307 4.513276
v 0.101971 0.792290 1.068430
vn -1.247494 1.770612 3.683591
v -0.001611 0.800972 1.068476
vn 0.451479 1.600657 4.962892
v 0.148204 0.784310 1.068430
vn -2.398881 3.214939 2.845547
v -0.003618 0.801859 1.066250
vn 0.842587 4.880737 3.866087
v 0.148187 0.784317 1.068425
vn 0.889096 5.166151 3.427062
v 0.129413 0.789252 1.066272
vn 0.846545 5.298817 3.223092
v 0.129318 0.789269 1.066271
vn 0.893042 4.759126 3.855043
v 0.175589 0.781285 1.066271
vn 0.881996 5.605648 2.669160
v 0.145758 0.789916 1.059992
vn 1.418079 5.442203 2.516178
v 0.198380 0.782022 1.057521
vn 1.095137 5.264782 3.190345
v 0.192028 0.781932 1.059992
vn -0.375267 4.092430 -2.727389
v 0.022996 0.852947 0.860459
vn -1.013713 4.699852 -2.260122
v 0.016644 0.852857 0.862931
vn -1.710285 4.411637 -1.319536
v 0.000204 0.852210 0.869209
vn -1.958621 5.564592 1.283112
v -0.001919 0.842679 0.908465
vn -1.864219 5.481681 1.497856
v -0.004651 0.808934 1.043154
vn 1.024907 6.016393 1.493216
v 0.156010 0.840340 0.860496
vn 1.024536 6.034650 1.415435
v 0.154006 0.841226 0.858272
vn 0.995983 6.018429 1.504850
v 0.155931 0.840357 0.860480
vn 1.002494 6.012861 1.522320
v 0.153808 0.830826 0.899736
vn 1.320442 5.995222 1.279974
v 0.202202 0.832373 0.860480
vn 1.198817 5.975512 1.518538
v 0.200079 0.822843 0.899736
vn 1.399225 5.884550 1.634857
v 0.197347 0.789097 1.034425
vn 1.514690 5.905385 1.512275
v 0.199470 0.798628 0.995168
vn 1.236045 3.374943 -2.258038
v 0.200195 0.833260 0.858254
vn 0.551598 3.873572 -2.230871
v 0.153925 0.841244 0.858254
vn 3.524226 0.997271 -5.016014
v 0.198302 0.818829 0.853943
vn 1.508919 1.430066 -5.770911
v 0.198261 0.818848 0.853926
vn 4.155704 0.498396 -4.588461
v 0.181395 0.617495 0.803133
vn 0.853810 -1.457394 -4.557168
v 0.180413 0.613212 0.802021
vn 2.002123 1.124450 -5.538816
v 0.181371 0.617512 0.803118
vn -4.549905 0.160879 4.315127
v -0.001626 0.800968 1.068462
vn -4.313754 -0.773760 4.502316
v -0.004504 0.782260 1.063051
vn -1.660228 -2.833662 2.026610
v -0.021394 0.580924 1.012244
vn -4.537348 -0.435937 4.294881
v -0.002584 0.796666 1.067364
vn 0.759134 5.886167 2.038292
v 0.124708 0.793038 1.059675
vn 0.629360 5.983843 1.809886
v 0.122702 0.793925 1.057449
vn 0.932444 5.786388 2.201863
v 0.152110 0.790006 1.057521
vn 0.736863 5.986847 1.755127
v 0.123675 0.800112 1.036579
vn -4.278937 2.190007 2.187252
v -0.003633 0.801855 1.066234
vn 0.931539 5.980960 1.672234
v 0.151076 0.797081 1.034425
vn 0.256043 3.827975 -4.037591
v 0.050397 0.849916 0.858305
vn -0.159913 2.233299 -5.849532
v 0.050341 0.849912 0.858304
vn -1.284386 2.302301 -5.549862
v 0.022989 0.852937 0.860456
vn -2.112443 2.564046 -5.291534
v 0.016634 0.852846 0.862928
vn 0.881642 6.031983 1.518606
v 0.151802 0.831713 0.897510
vn 0.859130 6.018899 1.580115
v 0.149070 0.797968 1.032198
vn -3.342251 2.609059 -1.787689
v 0.000188 0.852199 0.869208
vn -4.809309 3.192192 0.627145
v -0.001936 0.842664 0.908480
vn -4.698167 3.135261 0.988371
v -0.004666 0.808919 1.043169
vn 0.208904 1.652919 -6.055282
v 0.151990 0.826832 0.853926
vn -0.010570 1.675747 -6.050231
v 0.048462 0.835504 0.853977
vn -0.859197 -6.018874 -1.580161
v 0.029732 0.616217 0.838299
vn -0.931557 -5.980952 -1.672254
v 0.027726 0.617104 0.836073
vn -0.736941 -5.986827 -1.755170
v 0.055127 0.614072 0.833918
vn -0.881560 -6.031996 -1.518604
v 0.027000 0.582471 0.972988
vn -1.002421 -6.012877 -1.522303
v 0.024994 0.583358 0.970761
vn -2.129050 -5.566201 -1.542425
v -0.018545 0.625087 0.836073
vn -1.199351 -5.975396 -1.518509
v -0.021277 0.591342 0.970761
vn -2.685408 -5.308986 -1.385901
v -0.020668 0.615557 0.875329
vn -3.891560 -1.300287 -1.976535
v -0.019584 0.632163 0.812981
vn -2.135128 -1.891368 -3.148574
v -0.019579 0.632162 0.812977
vn -0.932441 -5.786392 -2.201857
v 0.026692 0.624178 0.812977
vn -3.157073 -2.803740 0.809519
v -0.023400 0.581811 1.010017
vn -4.817638 -2.244799 -0.745795
v -0.021707 0.622629 0.852253
vn -3.361615 -5.113713 -1.422665
v -0.021701 0.622631 0.852233
vn -4.549510 -0.683012 4.266913
v -0.004516 0.782269 1.063041
vn -1.016235 -6.017285 -1.495337
v 0.022871 0.573827 1.010017
vn -4.409603 -4.285853 -1.159577
v -0.024434 0.588886 0.986921
vn -5.499785 -0.013560 2.213013
v -0.006523 0.783157 1.060813
vn -5.598530 -1.338868 0.489753
v -0.023404 0.581820 1.010007
vn -5.436259 -1.759429 -0.408312
v -0.024437 0.588884 0.986942
vn -0.629446 -5.983825 -1.809914
v 0.056100 0.620260 0.813048
vn -0.759165 -5.886156 -2.038318
v 0.054093 0.621147 0.810822
vn -0.320858 1.583589 -6.071728
v 0.020103 0.834235 0.855034
vn -1.062121 -1.621155 -4.364465
v 0.003213 0.632899 0.804227
vn -1.301354 1.683761 -5.820546
v 0.020099 0.834238 0.855035
vn -1.208769 1.824877 -5.797797
v 0.021057 0.838540 0.856133
vn -0.221092 1.720652 -6.036674
v 0.048409 0.835516 0.853981
vn -0.255796 1.581247 -6.075199
v 0.047451 0.831214 0.852884
vn -0.845844 -5.236573 -3.305025
v 0.049484 0.624915 0.804227
vn -1.584222 -1.992560 -4.171866
v -0.013227 0.632252 0.810505
vn -4.181171 1.227704 -2.856691
v -0.002703 0.833500 0.863788
vn -0.451820 -1.608895 -4.952473
v 0.030614 0.629868 0.802072
vn -2.209567 1.762578 -5.609376
v 0.013744 0.834148 0.857507
vn -0.881996 -5.605645 -2.669168
v 0.033044 0.624269 0.810505
vn -0.047337 1.551194 -6.086009
v 0.047504 0.831204 0.852879
vn 0.125286 1.527212 -6.093467
v 0.151032 0.822532 0.852828
vn 0.093638 0.760198 -6.183716
v 0.134142 0.621196 0.802021
vn 0.195659 1.516628 -6.093844
v 0.135100 0.625496 0.803118
vn -5.395146 0.311640 2.327901
v -0.004591 0.797553 1.065136
vn -6.176017 1.006208 0.357037
v -0.005624 0.804617 1.042071
vn -4.447699 1.516903 -2.612079
v -0.000770 0.847897 0.868110
vn -6.178412 1.090814 0.040904
v -0.002894 0.838362 0.907382
vn -2.445805 1.947133 -5.442495
v -0.001744 0.837802 0.864885
vn -6.239817 0.696281 -0.061697
v -0.004826 0.823966 0.903059
vn -6.239968 0.614111 0.242676
v -0.007556 0.790221 1.037748
vn -2.194862 1.935987 -5.559863
v 0.014702 0.838450 0.858605
# 220 vertices, 0 vertices normals

f 1//1 2//2 3//3
f 1//1 4//4 5//5
f 1//1 3//3 4//4
f 1//1 6//6 2//2
f 1//1 7//7 6//6
f 1//1 8//8 7//7
f 1//1 5//5 9//9
f 1//1 9//9 8//8
f 2//2 10//10 3//3
f 2//2 6//6 10//10
f 4//4 11//11 12//12
f 4//4 3//3 11//11
f 4//4 12//12 13//13
f 4//4 14//14 5//5
f 4//4 13//13 14//14
f 11//11 3//3 15//15
f 11//11 15//15 16//16
f 11//11 17//17 12//12
f 11//11 16//16 17//17
f 3//3 10//10 18//18
f 3//3 18//18 15//15
f 15//15 18//18 19//19
f 15//15 19//19 16//16
f 12//12 17//17 13//13
f 17//17 16//16 20//20
f 17//17 20//20 21//21
f 17//17 22//22 23//23
f 17//17 21//21 22//22
f 17//17 23//23 24//24
f 17//17 24//24 25//25
f 17//17 25//25 26//26
f 17//17 27//27 13//13
f 17//17 26//26 27//27
f 16//16 19//19 28//28
f 16//16 28//28 20//20
f 29//29 10//10 6//6
f 29//29 30//30 31//31
f 29//29 31//31 10//10
f 29//29 32//32 33//33
f 29//29 34//34 35//35
f 29//29 35//35 30//30
f 29//29 36//36 32//32
f 29//29 33//33 34//34
f 29//29 6//6 37//37
f 29//29 37//37 38//38
f 29//29 38//38 39//39
f 29//29 40//40 36//36
f 29//29 39//39 40//40
f 10//10 31//31 18//18
f 30//30 41//41 42//42
f 30//30 42//42 31//31
f 30//30 35//35 41//41
f 41//41 43//43 42//42
f 41//41 35//35 43//43
f 31//31 42//42 19//19
f 31//31 19//19 18//18
f 42//42 43//43 19//19
f 19//19 43//43 28//28
f 20//20 28//28 21//21
f 43//43 44//44 45//45
f 43//43 35//35 44//44
f 43//43 21//21 28//28
f 43//43 45//45 21//21
f 44//44 46//46 45//45
f 44//44 35//35 46//46
f 46//46 47//47 48//48
f 46//46 48//48 49//49
f 46//46 35//35 50//50
f 46//46 50//50 47//47
f 46//46 49//49 51//51
f 46//46 52//52 45//45
f 46//46 53//53 52//52
f 46//46 54//54 53//53
f 46//46 55//55 54//54
f 46//46 51//51 55//55
f 47//47 50//50 48//48
f 48//48 50//50 49//49
f 32//32 36//36 56//56
f 32//32 56//56 33//33
f 22//22 21//21 23//23
f 34//34 33//33 57//57
f 34//34 57//57 35//35
f 35//35 57//57 50//50
f 50//50 57//57 58//58
f 50//50 58//58 49//49
f 49//49 58//58 59//59
f 49//49 59//59 51//51
f 60//60 61//61 62//62
f 60//60 63//63 61//61
f 60//60 62//62 64//64
f 60//60 65//65 63//63
f 60//60 64//64 65//65
f 61//61 66//66 62//62
f 61//61 63//63 67//67
f 61//61 67//67 68//68
f 61//61 68//68 66//66
f 66//66 68//68 69//69
f 66//66 69//69 70//70
f 66//66 64//64 62//62
f 66//66 70//70 64//64
f 71//71 67//67 72//72
f 71//71 68//68 67//67
f 71//71 72//72 73//73
f 71//71 73//73 68//68
f 36//36 74//74 56//56
f 36//36 40//40 74//74
f 33//33 56//56 75//75
f 33//33 75//75 57//57
f 21//21 45//45 23//23
f 23//23 45//45 76//76
f 23//23 76//76 24//24
f 24//24 76//76 77//77
f 24//24 77//77 25//25
f 6//6 7//7 78//78
f 6//6 78//78 37//37
f 7//7 8//8 78//78
f 79//79 80//80 81//81
f 79//79 69//69 82//82
f 79//79 82//82 80//80
f 79//79 81//81 69//69
f 83//83 80//80 84//84
f 83//83 84//84 85//85
f 83//83 85//85 80//80
f 80//80 86//86 87//87
f 80//80 82//82 86//86
f 80//80 87//87 84//84
f 80//80 88//88 81//81
f 80//80 85//85 88//88
f 52//52 89//89 45//45
f 52//52 53//53 54//54
f 52//52 54//54 89//89
f 89//89 90//90 76//76
f 89//89 54//54 55//55
f 89//89 55//55 90//90
f 89//89 76//76 45//45
f 90//90 55//55 91//91
f 90//90 77//77 76//76
f 90//90 91//91 92//92
f 90//90 92//92 77//77
f 57//57 75//75 93//93
f 57//57 93//93 58//58
f 58//58 93//93 94//94
f 58//58 94//94 59//59
f 59//59 94//94 95//95
f 59//59 95//95 51//51
f 55//55 51//51 91//91
f 63//63 96//96 67//67
f 63//63 65//65 96//96
f 67//67 96//96 97//97
f 67//67 97//97 72//72
f 68//68 73//73 98//98
f 68//68 98//98 69//69
f 72//72 97//97 99//99
f 72//72 99//99 100//100
f 72//72 100//100 73//73
f 73//73 86//86 98//98
f 73//73 100//100 101//101
f 73//73 101//101 86//86
f 69//69 86//86 82//82
f 69//69 98//98 86//86
f 69//69 81//81 102//102
f 69//69 102//102 70//70
f 86//86 101//101 87//87
f 74//74 103//103 104//104
f 74//74 105//105 106//106
f 74//74 104//104 105//105
f 74//74 40//40 107//107
f 74//74 107//107 103//103
f 74//74 106//106 56//56
f 103//103 107//107 104//104
f 56//56 106//106 108//108
f 56//56 108//108 75//75
f 75//75 108//108 93//93
f 77//77 109//109 110//110
f 77//77 92//92 109//109
f 77//77 110//110 26//26
f 77//77 26//26 25//25
f 37//37 78//78 111//111
f 37//37 112//112 38//38
f 37//37 111//111 112//112
f 78//78 8//8 111//111
f 38//38 112//112 39//39
f 113//113 114//114 115//115
f 113//113 84//84 116//116
f 113//113 115//115 84//84
f 113//113 116//116 117//117
f 113//113 117//117 114//114
f 114//114 118//118 119//119
f 114//114 119//119 115//115
f 114//114 117//117 118//118
f 118//118 120//120 121//121
f 118//118 121//121 119//119
f 118//118 117//117 122//122
f 118//118 122//122 120//120
f 120//120 91//91 121//121
f 120//120 109//109 92//92
f 120//120 92//92 91//91
f 120//120 122//122 110//110
f 120//120 110//110 109//109
f 84//84 115//115 123//123
f 84//84 87//87 124//124
f 84//84 123//123 85//85
f 84//84 124//124 116//116
f 115//115 119//119 125//125
f 115//115 125//125 123//123
f 87//87 101//101 126//126
f 87//87 126//126 124//124
f 119//119 121//121 125//125
f 123//123 125//125 127//127
f 123//123 128//128 129//129
f 123//123 88//88 85//85
f 123//123 127//127 130//130
f 123//123 131//131 88//88
f 123//123 129//129 131//131
f 123//123 130//130 128//128
f 125//125 121//121 95//95
f 125//125 95//95 130//130
f 125//125 130//130 127//127
f 121//121 91//91 51//51
f 121//121 51//51 95//95
f 93//93 108//108 132//132
f 93//93 132//132 94//94
f 94//94 132//132 133//133
f 94//94 133//133 95//95
f 128//128 131//131 129//129
f 128//128 133//133 131//131
f 128//128 130//130 133//133
f 95//95 133//133 130//130
f 96//96 134//134 97//97
f 96//96 65//65 134//134
f 97//97 134//134 135//135
f 97//97 135//135 99//99
f 99//99 135//135 136//136
f 99//99 136//136 137//137
f 99//99 137//137 100//100
f 100//100 137//137 138//138
f 100//100 138//138 101//101
f 101//101 138//138 126//126
f 139//139 140//140 141//141
f 139//139 141//141 142//142
f 139//139 143//143 140//140
f 139//139 142//142 144//144
f 139//139 144//144 143//143
f 105//105 104//104 143//143
f 105//105 143//143 144//144
f 105//105 144//144 145//145
f 105//105 146//146 106//106
f 105//105 145//145 146//146
f 140//140 143//143 147//147
f 140//140 148//148 141//141
f 140//140 147//147 148//148
f 104//104 107//107 149//149
f 104//104 149//149 150//150
f 104//104 147//147 143//143
f 104//104 150//150 147//147
f 40//40 39//39 107//107
f 107//107 39//39 151//151
f 107//107 151//151 149//149
f 106//106 146//146 145//145
f 106//106 145//145 108//108
f 108//108 145//145 132//132
f 112//112 111//111 151//151
f 112//112 151//151 39//39
f 111//111 8//8 152//152
f 111//111 152//152 151//151
f 149//149 151//151 153//153
f 149//149 153//153 150//150
f 151//151 152//152 153//153
f 116//116 124//124 154//154
f 116//116 155//155 156//156
f 116//116 156//156 117//117
f 116//116 157//157 155//155
f 116//116 154//154 157//157
f 117//117 156//156 122//122
f 122//122 156//156 110//110
f 158//158 159//159 88//88
f 158//158 88//88 131//131
f 158//158 160//160 161//161
f 158//158 131//131 160//160
f 158//158 161//161 159//159
f 159//159 81//81 88//88
f 159//159 161//161 70//70
f 159//159 70//70 102//102
f 159//159 102//102 81//81
f 124//124 126//126 154//154
f 126//126 138//138 162//162
f 126//126 162//162 154//154
f 160//160 132//132 145//145
f 160//160 131//131 133//133
f 160//160 133//133 132//132
f 160//160 163//163 161//161
f 160//160 145//145 163//163
f 134//134 65//65 164//164
f 134//134 164//164 165//165
f 134//134 166//166 167//167
f 134//134 167//167 135//135
f 134//134 165//165 166//166
f 65//65 64//64 168//168
f 65//65 148//148 164//164
f 65//65 168//168 148//148
f 64//64 70//70 168//168
f 161//161 163//163 169//169
f 161//161 169//169 70//70
f 70//70 169//169 168//168
f 135//135 167//167 170//170
f 135//135 170//170 136//136
f 136//136 170//170 171//171
f 136//136 171//171 137//137
f 137//137 171//171 138//138
f 138//138 171//171 172//172
f 138//138 172//172 162//162
f 164//164 148//148 173//173
f 164//164 174//174 165//165
f 164//164 173//173 174//174
f 141//141 148//148 168//168
f 141//141 168//168 142//142
f 142//142 168//168 169//169
f 142//142 163//163 144//144
f 142//142 169//169 163//163
f 144//144 163//163 145//145
f 148//148 147//147 173//173
f 147//147 150//150 173//173
f 175//175 176//176 177//177
f 175//175 178//178 179//179
f 175//175 179//179 176//176
f 175//175 13//13 27//27
f 175//175 177//177 13//13
f 175//175 27//27 178//178
f 180//180 176//176 181//181
f 180//180 182//182 183//183
f 180//180 181//181 182//182
f 180//180 184//184 185//185
f 180//180 185//185 176//176
f 180//180 183//183 184//184
f 176//176 179//179 181//181
f 176//176 185//185 177//177
f 182//182 181//181 186//186
f 182//182 186//186 187//187
f 182//182 188//188 183//183
f 182//182 187//187 188//188
f 155//155 157//157 189//189
f 155//155 189//189 156//156
f 178//178 110//110 190//190
f 178//178 190//190 179//179
f 178//178 27//27 26//26
f 178//178 26//26 110//110
f 156//156 186//186 190//190
f 156//156 190//190 110//110
f 156//156 189//189 186//186
f 181//181 179//179 190//190
f 181//181 190//190 186//186
f 186//186 191//191 187//187
f 186//186 189//189 192//192
f 186//186 192//192 193//193
f 186//186 193//193 194//194
f 186//186 194//194 191//191
f 14//14 13//13 5//5
f 13//13 177//177 195//195
f 13//13 195//195 5//5
f 177//177 185//185 196//196
f 177//177 196//196 195//195
f 197//197 198//198 199//199
f 197//197 199//199 200//200
f 197//197 200//200 201//201
f 197//197 202//202 198//198
f 197//197 201//201 202//202
f 198//198 203//203 204//204
f 198//198 204//204 205//205
f 198//198 206//206 8//8
f 198//198 8//8 203//203
f 198//198 207//207 199//199
f 198//198 205//205 207//207
f 198//198 202//202 206//206
f 203//203 208//208 204//204
f 203//203 8//8 208//208
f 204//204 208//208 185//185
f 204//204 184//184 205//205
f 204//204 185//185 184//184
f 208//208 8//8 9//9
f 208//208 9//9 185//185
f 184//184 183//183 205//205
f 185//185 9//9 196//196
f 188//188 187//187 183//183
f 191//191 194//194 187//187
f 209//209 206//206 202//202
f 209//209 210//210 211//211
f 209//209 211//211 206//206
f 209//209 174//174 210//210
f 209//209 202//202 201//201
f 209//209 201//201 174//174
f 206//206 211//211 8//8
f 8//8 211//211 152//152
f 5//5 195//195 196//196
f 5//5 196//196 9//9
f 210//210 174//174 173//173
f 210//210 173//173 212//212
f 210//210 212//212 211//211
f 211//211 212//212 152//152
f 152//152 212//212 153//153
f 174//174 201//201 165//165
f 173//173 150//150 212//212
f 150//150 153//153 212//212
f 157//157 213//213 189//189
f 157//157 154//154 213//213
f 213//213 154//154 162//162
f 213//213 162//162 214//214
f 213//213 214//214 192//192
f 213//213 192//192 189//189
f 162//162 172//172 214//214
f 215//215 216//216 170//170
f 215//215 170//170 217//217
f 215//215 205//205 216//216
f 215//215 217//217 205//205
f 216//216 214//214 172//172
f 216//216 171//171 170//170
f 216//216 172//172 171//171
f 216//216 205//205 218//218
f 216//216 218//218 219//219
f 216//216 219//219 214//214
f 214//214 219//219 192//192
f 166//166 165//165 201//201
f 166//166 200//200 220//220
f 166//166 220//220 167//167
f 166//166 201//201 200//200
f 167//167 220//220 217//217
f 167//167 217//217 170//170
f 192//192 219//219 193//193
f 193//193 219//219 194//194
f 199//199 207//207 200//200
f 207//207 205//205 217//217
f 207//207 220//220 200//200
f 207//207 217//217 220//220
f 205//205 183//183 187//187
f 205//205 187//187 218//218
f 218//218 187//187 194//194
f 218//218 194//194 219//219
# 436 faces, 0 coords texture

# End of File
