####
#
# OBJ File Generated by Meshlab
#
####
# Object matlab_mesh_step6_link6.obj
#
# Vertices: 188
# Faces: 372
#
####
vn -4.945317 -3.447723 -1.674609
v 0.427307 0.436351 0.824141
vn -5.255181 -3.263532 -0.747388
v 0.426883 0.436147 0.826299
vn -4.629695 -0.721515 -2.416766
v 0.396101 0.506766 0.778003
vn -4.658659 -3.608248 -2.170087
v 0.427984 0.435753 0.823633
vn -4.820604 -3.682425 -1.568472
v 0.470961 0.370292 0.842051
vn -5.717818 -1.643893 -0.756119
v 0.389963 0.503241 0.814995
vn -5.174214 -3.423234 -0.389983
v 0.464824 0.366767 0.879044
vn -5.572181 -2.658801 0.718368
v 0.401348 0.481563 0.935507
vn -5.428864 -2.923132 0.964120
v 0.447178 0.409536 0.990743
vn -5.581473 -0.161597 0.227866
v 0.372318 0.546010 0.926695
vn -5.337245 -2.582768 1.940420
v 0.449816 0.419315 1.018407
vn -5.530567 -2.121807 2.011174
v 0.449806 0.419337 1.018404
vn -3.775333 -2.238649 -3.828668
v 0.406657 0.496785 0.771438
vn -4.536232 -3.722025 -2.186681
v 0.481518 0.360311 0.835486
vn -4.079433 4.679399 -0.447142
v 0.387306 0.568809 0.920552
vn -4.528740 3.423643 1.117259
v 0.381168 0.565284 0.957544
vn -3.307772 5.295652 -0.293690
v 0.390152 0.570928 0.921740
vn -4.357839 3.609208 -1.363731
v 0.383602 0.561384 0.886498
vn -3.836058 2.213091 3.607090
v 0.390029 0.563886 0.976175
vn -3.442583 4.880681 1.104734
v 0.384014 0.567403 0.958733
vn -5.299388 3.155861 -0.377570
v 0.377138 0.557648 0.925677
vn -5.502142 2.294600 1.202268
v 0.376519 0.556756 0.954613
vn -4.445849 1.070969 3.887081
v 0.385818 0.555304 0.974359
vn -2.974406 0.723514 5.479656
v 0.464890 0.427412 1.040224
vn -2.425251 3.047127 3.676303
v 0.392875 0.566004 0.977364
vn -3.994615 -1.037349 3.906189
v 0.459105 0.417885 1.038150
vn -1.937258 1.445690 5.652501
v 0.467736 0.429530 1.041412
vn -3.327973 -1.114309 4.793824
v 0.480196 0.404155 1.050363
vn -2.578824 5.571685 0.863481
v 0.475818 0.615862 0.954692
vn -2.676809 5.665067 -0.079743
v 0.481956 0.619388 0.917699
vn -2.993059 5.218160 -1.368552
v 0.416193 0.583044 0.887863
vn -1.120603 1.910671 5.865099
v 0.470498 0.427349 1.042683
vn -1.596958 3.935819 3.572218
v 0.484679 0.614464 0.973323
vn -0.917090 2.221460 5.805383
v 0.395637 0.563823 0.978635
vn -0.764309 2.346773 5.774533
v 0.487441 0.612283 0.974594
vn -2.083948 0.933616 5.769983
v 0.483042 0.406274 1.051552
vn -1.288480 6.022187 0.472314
v 0.511331 0.630741 0.935208
vn 0.577925 5.361474 -0.612612
v 0.517468 0.634266 0.898215
vn -2.102285 5.576248 -1.188362
v 0.508499 0.630538 0.884132
vn -0.095695 4.151920 3.030181
v 0.510714 0.624457 0.971993
vn -1.852237 5.885141 0.894843
v 0.501415 0.625909 0.952246
vn -0.682949 2.227032 5.828030
v 0.562302 0.475809 1.038642
vn -1.127761 0.346134 5.847729
v 0.485804 0.404093 1.052823
vn 0.434323 1.346860 5.895323
v 0.577608 0.452553 1.048782
vn 1.517825 3.374819 4.143607
v 0.513630 0.622143 0.973329
vn 1.472179 2.556546 5.068310
v 0.586917 0.484724 1.037120
vn 2.917734 5.200849 -1.712029
v 0.535113 0.591496 0.786516
vn 3.821631 4.554097 -1.887757
v 0.545670 0.581516 0.779950
vn 0.184390 4.414267 -2.798724
v 0.529195 0.587663 0.768058
vn 3.702823 4.898748 -1.322779
v 0.543974 0.590098 0.805147
vn 4.010622 4.604434 -1.408611
v 0.554531 0.580117 0.798582
vn 4.365818 4.058862 -1.933615
v 0.548433 0.579335 0.781221
vn 2.510780 3.794054 -3.525673
v 0.540335 0.577109 0.761190
vn 2.050628 5.353932 0.049794
v 0.526329 0.632867 0.916847
vn 3.981093 4.743214 -1.002257
v 0.536886 0.622886 0.910281
vn 4.464027 4.226150 -0.009230
v 0.539648 0.620705 0.911552
vn 4.476431 4.136042 -1.317099
v 0.557293 0.577936 0.799852
vn -0.394473 5.437550 -1.915969
v 0.511791 0.630298 0.879834
vn 1.225431 5.410285 1.369876
v 0.520191 0.629342 0.953839
vn 4.059825 4.615204 0.431819
v 0.529091 0.630686 0.918117
vn 3.656298 4.411386 2.012740
v 0.522954 0.627161 0.955110
vn 4.705765 3.608579 -2.047474
v 0.577209 0.544864 0.781221
vn 4.374281 3.170232 -2.974449
v 0.573725 0.538328 0.762526
vn 4.291024 3.756462 -2.569158
v 0.543251 0.574795 0.762526
vn 4.967945 3.486611 -1.245139
v 0.586070 0.543465 0.799852
vn 4.909118 3.752682 0.171704
v 0.568424 0.586234 0.911552
vn 5.208295 3.351364 0.405762
v 0.583731 0.562977 0.921691
vn 5.467076 2.935373 -0.751442
v 0.601376 0.520208 0.809992
vn 5.320148 2.547031 -1.874324
v 0.599538 0.512054 0.781860
vn 3.854593 1.160340 -3.743275
v 0.590239 0.513506 0.762114
vn 4.665116 3.980973 1.340887
v 0.533510 0.617180 0.948544
vn 4.642057 3.864713 1.723741
v 0.551730 0.592690 0.955110
vn 4.208864 3.767463 2.615080
v 0.538260 0.603904 0.965249
vn 4.762727 3.837672 1.397811
v 0.562287 0.582709 0.948544
vn 4.542605 3.713544 2.186984
v 0.567037 0.569433 0.965249
vn 4.878707 3.577636 1.586438
v 0.577593 0.559452 0.958684
vn -5.921789 1.284878 -1.091922
v 0.378455 0.549535 0.889703
vn -4.274497 2.771627 -2.616829
v 0.401006 0.518749 0.774723
vn -3.223539 2.034099 -3.853665
v 0.404299 0.518509 0.770425
vn -3.606613 -3.120104 -3.809635
v 0.435434 0.462313 0.771438
vn -2.821261 -2.308079 -5.110575
v 0.431948 0.483066 0.763174
vn -2.402158 -1.815610 -5.473328
v 0.431952 0.483134 0.763144
vn -2.784342 -0.408005 -5.414550
v 0.415438 0.507955 0.763556
vn -4.100052 -3.762516 -2.735714
v 0.510294 0.325840 0.835486
vn -3.165943 -3.486480 -4.148666
v 0.462358 0.446593 0.763231
vn -1.435030 -3.269381 -4.444172
v 0.535713 0.309248 0.826935
vn -2.369680 -2.972861 -4.840429
v 0.462397 0.446629 0.763174
vn -4.762725 -3.837672 -1.397816
v 0.486268 0.347035 0.852191
vn -4.909119 -3.752682 -0.171705
v 0.480130 0.343510 0.889183
vn -4.986722 -3.416544 1.302406
v 0.462485 0.386279 1.000883
vn -3.537103 -4.377871 -2.154526
v 0.525601 0.302583 0.845625
vn -4.642055 -3.864713 -1.723746
v 0.496824 0.337055 0.845625
vn -2.824520 -4.358397 -3.392883
v 0.535708 0.309224 0.826969
vn -5.792399 2.314196 -0.755394
v 0.383582 0.561341 0.886518
vn -5.669720 -1.790436 1.920928
v 0.376551 0.556448 0.954552
vn -5.809906 -1.016828 1.864590
v 0.376508 0.556661 0.954600
vn -5.626940 0.829060 1.523222
v 0.376506 0.556720 0.954612
vn -5.786540 2.357239 -0.654620
v 0.377122 0.557608 0.925664
vn -2.210858 2.415259 -5.097585
v 0.431613 0.521644 0.758519
vn -1.493034 0.264247 -5.698705
v 0.442170 0.511663 0.751954
vn -1.352850 3.259392 -4.971829
v 0.523417 0.570103 0.754478
vn -2.467866 3.898334 -4.250778
v 0.404331 0.518526 0.770422
vn -2.559553 4.438388 -3.399973
v 0.436890 0.540169 0.771790
vn -0.451092 -1.356225 -5.887055
v 0.470946 0.477191 0.751954
vn -0.024216 1.543051 -5.710068
v 0.533974 0.560123 0.747912
vn 1.127766 -0.346124 -5.847727
v 0.562750 0.525651 0.747912
vn 1.120612 -1.910656 -5.865101
v 0.578057 0.502395 0.758052
vn 0.670609 -2.234969 -5.825695
v 0.486253 0.453935 0.762093
vn -1.078171 -2.290621 -5.495616
v 0.462426 0.446667 0.763144
vn -0.229394 3.754770 -4.953044
v 0.526263 0.572222 0.755667
vn 1.540384 2.630286 -5.039976
v 0.536820 0.562241 0.749101
vn 2.065417 -0.929264 -5.779568
v 0.565513 0.523470 0.749183
vn 2.708442 1.408993 -5.142430
v 0.565596 0.527770 0.749101
vn 3.065984 0.550443 -5.320624
v 0.568359 0.525589 0.750372
vn 1.917047 -1.488265 -5.657750
v 0.580819 0.500214 0.759323
vn 3.844974 3.065226 -3.800281
v 0.570809 0.540642 0.761190
vn 3.752974 2.180499 -4.477338
v 0.587323 0.515820 0.760777
vn -2.832455 -1.540986 4.934952
v 0.482958 0.401974 1.051634
vn -4.239941 -2.913867 3.581224
v 0.475618 0.393063 1.037738
vn -3.999280 -2.889059 3.888326
v 0.478535 0.390749 1.039074
vn -1.693472 -2.730881 4.827718
v 0.511735 0.367503 1.051634
vn -3.982289 -3.221616 3.584740
v 0.478560 0.390698 1.039062
vn 0.189218 -3.956175 4.681362
v 0.522291 0.357522 1.045069
vn 0.024209 -1.543050 5.710067
v 0.514581 0.369621 1.052823
vn -2.690991 -3.910116 3.566860
v 0.509009 0.354261 1.039062
vn -0.019504 -4.550914 2.908405
v 0.520140 0.343715 1.032197
vn 1.415402 -3.357329 4.836145
v 0.525137 0.359641 1.046257
vn 1.491899 -0.281225 5.702393
v 0.606385 0.418081 1.048782
vn 2.280426 -2.490106 4.961613
v 0.616941 0.408100 1.042216
vn 2.617193 -4.541497 3.276794
v 0.612454 0.391222 1.028474
vn 2.556708 2.016487 5.273876
v 0.617392 0.448257 1.037120
vn 3.249494 -1.994702 3.835391
v 0.645045 0.412882 1.029839
vn 2.824706 0.489251 5.381913
v 0.633906 0.423436 1.036708
vn 5.565685 0.272014 -0.126867
v 0.676237 0.383734 0.874040
vn 5.646475 1.743062 0.741513
v 0.658592 0.426503 0.985740
vn 5.930044 -1.266407 1.091867
v 0.670099 0.380209 0.911032
vn 4.382218 -3.576268 1.398456
v 0.665742 0.370007 0.913766
vn 4.640272 0.789712 2.361353
v 0.652454 0.422978 1.022732
vn 5.795688 0.952453 -1.463915
v 0.672827 0.374647 0.845659
vn 5.450675 -1.113857 -1.426867
v 0.672825 0.374635 0.845651
vn 5.376319 -3.041756 0.400727
v 0.672206 0.373743 0.874587
vn 4.279708 -2.745116 2.610683
v 0.648338 0.412643 1.025541
vn 3.721363 3.190413 3.702685
v 0.613121 0.467431 1.029297
vn 3.841145 2.293007 3.755291
v 0.641897 0.432959 1.029297
vn 3.268088 3.428570 4.097420
v 0.586935 0.484738 1.037097
vn -4.665122 -3.980972 -1.340876
v 0.515044 0.312564 0.852191
vn -4.464024 -4.226151 0.009224
v 0.508906 0.309039 0.889183
vn -4.059849 -4.615195 -0.431853
v 0.519463 0.299058 0.882618
vn -3.981092 -4.743216 1.002248
v 0.511669 0.306858 0.890454
vn -4.476431 -4.136042 1.317100
v 0.491261 0.351808 1.000883
vn -4.010625 -4.604430 1.408616
v 0.494024 0.349627 1.002153
vn -1.029280 -5.303313 -1.499116
v 0.528363 0.300402 0.846896
vn -0.112740 -5.139602 -2.486381
v 0.538621 0.306912 0.828305
vn -2.050633 -5.353920 -0.049804
v 0.522226 0.296877 0.883888
vn -4.321423 -3.967446 2.149579
v 0.500122 0.350409 1.019514
vn -4.671146 -3.479879 2.267147
v 0.471346 0.384880 1.019514
vn -4.799424 -2.808041 2.772216
v 0.459109 0.417863 1.038137
vn -4.344250 -3.206199 3.111471
v 0.475646 0.393010 1.037727
vn -3.699055 -4.441667 2.193480
v 0.502884 0.348228 1.020785
vn -4.252335 -3.631414 2.851689
v 0.506096 0.356573 1.037727
vn 1.319397 -5.998637 -0.556327
v 0.537224 0.299004 0.865528
vn -0.461559 -5.296728 0.737956
v 0.531086 0.295478 0.902520
vn -2.333865 -5.261048 1.918230
v 0.513441 0.338248 1.014219
vn -3.702826 -4.898745 1.322781
v 0.504580 0.339646 0.995588
vn 2.508175 -5.591808 -0.880217
v 0.572737 0.313882 0.846043
vn 2.685562 -5.650300 0.183584
v 0.566599 0.310356 0.883036
vn 1.806702 -5.899747 -1.165009
v 0.547914 0.305460 0.848034
vn 2.299316 -5.527229 1.395319
v 0.540837 0.300839 0.916128
vn 1.004604 -5.537999 2.089062
v 0.537548 0.301078 0.920423
vn 0.750703 -2.359526 -5.770403
v 0.561113 0.317461 0.826141
vn 0.917091 -2.221460 -5.805383
v 0.652917 0.365921 0.822100
vn 1.522563 -3.977164 -3.499559
v 0.563876 0.315280 0.827412
vn 0.055647 -3.990087 -4.070566
v 0.538630 0.306934 0.828271
vn 2.425203 -3.047771 -3.676227
v 0.655680 0.363740 0.823371
vn 3.442607 -4.880652 -1.104733
v 0.664540 0.362341 0.842002
vn 3.290923 -5.291829 0.377278
v 0.658403 0.358816 0.878995
vn 2.994035 -5.211256 1.474898
v 0.633151 0.348347 0.912401
vn 3.804657 -2.308278 -3.625996
v 0.658526 0.365858 0.824560
vn 4.521571 -3.482836 -1.072716
v 0.667386 0.364460 0.843191
vn 4.098599 -4.620571 0.531353
v 0.661249 0.360935 0.880183
vn 4.464896 -0.327730 -3.446970
v 0.663526 0.376087 0.825905
vn -5.466128 -1.365896 2.720725
v 0.385791 0.555211 0.974305
vn -4.958355 0.142755 3.317749
v 0.385798 0.555268 0.974342
vn 5.517851 1.643470 -2.510123
v 0.663534 0.376099 0.825929
vn 2.736831 -5.129561 2.382388
v 0.629858 0.348587 0.916699
vn 2.960134 -4.959283 2.455393
v 0.615747 0.390983 1.024176
vn -2.960164 4.959275 -2.455381
v 0.433597 0.540408 0.776088
vn -2.736643 5.129711 -2.382281
v 0.419486 0.582805 0.883565
# 188 vertices, 0 vertices normals

f 1//1 2//2 3//3
f 1//1 4//4 5//5
f 1//1 3//3 4//4
f 1//1 5//5 2//2
f 2//2 6//6 3//3
f 2//2 5//5 7//7
f 2//2 7//7 6//6
f 8//8 6//6 7//7
f 8//8 7//7 9//9
f 8//8 10//10 6//6
f 8//8 9//9 11//11
f 8//8 11//11 12//12
f 8//8 12//12 10//10
f 4//4 3//3 13//13
f 4//4 13//13 14//14
f 4//4 14//14 5//5
f 15//15 16//16 17//17
f 15//15 17//17 18//18
f 15//15 18//18 16//16
f 16//16 19//19 20//20
f 16//16 20//20 17//17
f 16//16 18//18 21//21
f 16//16 21//21 22//22
f 16//16 22//22 23//23
f 16//16 23//23 19//19
f 19//19 24//24 25//25
f 19//19 25//25 20//20
f 19//19 23//23 26//26
f 19//19 26//26 24//24
f 24//24 27//27 25//25
f 24//24 28//28 27//27
f 24//24 26//26 28//28
f 17//17 20//20 29//29
f 17//17 30//30 31//31
f 17//17 29//29 30//30
f 17//17 31//31 18//18
f 20//20 25//25 29//29
f 25//25 27//27 32//32
f 25//25 33//33 29//29
f 25//25 34//34 35//35
f 25//25 32//32 34//34
f 25//25 35//35 33//33
f 27//27 28//28 36//36
f 27//27 36//36 32//32
f 30//30 29//29 37//37
f 30//30 38//38 39//39
f 30//30 37//37 38//38
f 30//30 39//39 31//31
f 29//29 33//33 40//40
f 29//29 41//41 37//37
f 29//29 40//40 41//41
f 33//33 35//35 40//40
f 34//34 32//32 35//35
f 32//32 42//42 35//35
f 32//32 36//36 43//43
f 32//32 43//43 44//44
f 32//32 44//44 42//42
f 35//35 42//42 45//45
f 35//35 45//45 40//40
f 42//42 44//44 46//46
f 42//42 46//46 45//45
f 47//47 48//48 49//49
f 47//47 50//50 51//51
f 47//47 51//51 48//48
f 47//47 38//38 50//50
f 47//47 49//49 38//38
f 48//48 51//51 52//52
f 48//48 52//52 53//53
f 48//48 53//53 49//49
f 50//50 38//38 54//54
f 50//50 54//54 55//55
f 50//50 55//55 51//51
f 51//51 55//55 56//56
f 51//51 57//57 52//52
f 51//51 56//56 57//57
f 38//38 37//37 54//54
f 38//38 49//49 58//58
f 38//38 58//58 39//39
f 37//37 59//59 54//54
f 37//37 41//41 40//40
f 37//37 40//40 59//59
f 54//54 59//59 60//60
f 54//54 60//60 55//55
f 59//59 61//61 60//60
f 59//59 40//40 61//61
f 55//55 60//60 56//56
f 52//52 62//62 63//63
f 52//52 57//57 62//62
f 52//52 64//64 53//53
f 52//52 63//63 64//64
f 62//62 57//57 65//65
f 62//62 65//65 63//63
f 57//57 56//56 66//66
f 57//57 66//66 65//65
f 65//65 66//66 67//67
f 65//65 68//68 69//69
f 65//65 67//67 68//68
f 65//65 70//70 63//63
f 65//65 69//69 70//70
f 60//60 61//61 71//71
f 60//60 71//71 56//56
f 61//61 72//72 71//71
f 61//61 73//73 72//72
f 61//61 40//40 45//45
f 61//61 45//45 73//73
f 72//72 74//74 71//71
f 72//72 73//73 75//75
f 72//72 75//75 74//74
f 56//56 71//71 74//74
f 56//56 74//74 66//66
f 66//66 74//74 67//67
f 74//74 75//75 76//76
f 74//74 76//76 67//67
f 3//3 6//6 77//77
f 3//3 77//77 78//78
f 3//3 78//78 79//79
f 3//3 79//79 13//13
f 6//6 10//10 77//77
f 13//13 80//80 14//14
f 13//13 81//81 80//80
f 13//13 82//82 81//81
f 13//13 79//79 83//83
f 13//13 83//83 82//82
f 80//80 84//84 14//14
f 80//80 85//85 86//86
f 80//80 81//81 87//87
f 80//80 87//87 85//85
f 80//80 86//86 84//84
f 5//5 14//14 88//88
f 5//5 88//88 7//7
f 7//7 88//88 89//89
f 7//7 89//89 90//90
f 7//7 90//90 9//9
f 14//14 84//84 91//91
f 14//14 92//92 88//88
f 14//14 91//91 92//92
f 84//84 93//93 91//91
f 84//84 86//86 93//93
f 77//77 10//10 94//94
f 77//77 94//94 18//18
f 77//77 18//18 78//78
f 10//10 95//95 96//96
f 10//10 96//96 97//97
f 10//10 98//98 18//18
f 10//10 97//97 22//22
f 10//10 18//18 94//94
f 10//10 21//21 98//98
f 10//10 22//22 21//21
f 10//10 12//12 95//95
f 9//9 90//90 11//11
f 99//99 100//100 79//79
f 99//99 101//101 100//100
f 99//99 79//79 102//102
f 99//99 103//103 101//101
f 99//99 102//102 103//103
f 100//100 104//104 82//82
f 100//100 101//101 105//105
f 100//100 105//105 104//104
f 100//100 82//82 83//83
f 100//100 83//83 79//79
f 104//104 105//105 106//106
f 104//104 106//106 107//107
f 104//104 108//108 109//109
f 104//104 107//107 108//108
f 104//104 109//109 82//82
f 101//101 110//110 105//105
f 101//101 103//103 49//49
f 101//101 49//49 110//110
f 105//105 110//110 111//111
f 105//105 111//111 106//106
f 106//106 112//112 107//107
f 106//106 111//111 113//113
f 106//106 113//113 112//112
f 112//112 113//113 114//114
f 112//112 114//114 70//70
f 112//112 115//115 107//107
f 112//112 70//70 115//115
f 110//110 49//49 111//111
f 111//111 49//49 53//53
f 111//111 53//53 116//116
f 111//111 116//116 113//113
f 113//113 117//117 70//70
f 113//113 70//70 114//114
f 113//113 116//116 117//117
f 28//28 118//118 36//36
f 28//28 119//119 120//120
f 28//28 120//120 118//118
f 28//28 26//26 119//119
f 118//118 121//121 43//43
f 118//118 43//43 36//36
f 118//118 122//122 121//121
f 118//118 120//120 122//122
f 121//121 123//123 124//124
f 121//121 124//124 43//43
f 121//121 122//122 125//125
f 121//121 125//125 126//126
f 121//121 126//126 123//123
f 123//123 127//127 124//124
f 123//123 126//126 127//127
f 43//43 124//124 128//128
f 43//43 128//128 44//44
f 124//124 127//127 128//128
f 127//127 129//129 128//128
f 127//127 126//126 130//130
f 127//127 130//130 129//129
f 44//44 128//128 131//131
f 44//44 131//131 46//46
f 128//128 129//129 132//132
f 128//128 133//133 131//131
f 128//128 132//132 133//133
f 129//129 130//130 132//132
f 68//68 134//134 69//69
f 68//68 67//67 135//135
f 68//68 135//135 134//134
f 134//134 136//136 137//137
f 134//134 135//135 138//138
f 134//134 138//138 136//136
f 134//134 139//139 69//69
f 134//134 140//140 139//139
f 134//134 141//141 140//140
f 134//134 137//137 141//141
f 136//136 138//138 142//142
f 136//136 142//142 137//137
f 73//73 143//143 75//75
f 73//73 45//45 143//143
f 75//75 143//143 144//144
f 75//75 144//144 76//76
f 67//67 76//76 138//138
f 67//67 138//138 135//135
f 76//76 144//144 138//138
f 143//143 145//145 46//46
f 143//143 45//45 145//145
f 143//143 46//46 131//131
f 143//143 131//131 144//144
f 144//144 133//133 132//132
f 144//144 132//132 138//138
f 144//144 131//131 133//133
f 138//138 132//132 142//142
f 88//88 146//146 89//89
f 88//88 92//92 146//146
f 146//146 147//147 89//89
f 146//146 92//92 91//91
f 146//146 91//91 148//148
f 146//146 148//148 147//147
f 89//89 147//147 90//90
f 147//147 148//148 149//149
f 147//147 150//150 90//90
f 147//147 149//149 151//151
f 147//147 151//151 150//150
f 91//91 152//152 148//148
f 91//91 93//93 153//153
f 91//91 153//153 152//152
f 148//148 152//152 154//154
f 148//148 154//154 149//149
f 90//90 150//150 155//155
f 90//90 156//156 157//157
f 90//90 155//155 156//156
f 90//90 157//157 11//11
f 150//150 151//151 155//155
f 156//156 155//155 158//158
f 156//156 158//158 157//157
f 155//155 151//151 159//159
f 155//155 159//159 125//125
f 155//155 160//160 158//158
f 155//155 125//125 160//160
f 149//149 154//154 151//151
f 152//152 161//161 154//154
f 152//152 153//153 161//161
f 154//154 161//161 162//162
f 154//154 162//162 163//163
f 154//154 164//164 151//151
f 154//154 163//163 164//164
f 161//161 165//165 166//166
f 161//161 166//166 162//162
f 161//161 153//153 167//167
f 161//161 167//167 165//165
f 162//162 166//166 168//168
f 162//162 169//169 126//126
f 162//162 126//126 163//163
f 162//162 168//168 169//169
f 151//151 164//164 163//163
f 151//151 163//163 159//159
f 159//159 163//163 126//126
f 159//159 126//126 125//125
f 108//108 170//170 86//86
f 108//108 107//107 170//170
f 108//108 86//86 109//109
f 170//170 107//107 171//171
f 170//170 171//171 172//172
f 170//170 172//172 173//173
f 170//170 173//173 86//86
f 107//107 115//115 174//174
f 107//107 174//174 171//171
f 171//171 174//174 172//172
f 172//172 165//165 153//153
f 172//172 174//174 165//165
f 172//172 153//153 173//173
f 165//165 174//174 175//175
f 165//165 175//175 176//176
f 165//165 176//176 166//166
f 165//165 167//167 153//153
f 166//166 176//176 177//177
f 166//166 177//177 168//168
f 115//115 70//70 174//174
f 174//174 178//178 175//175
f 174//174 70//70 178//178
f 175//175 178//178 179//179
f 175//175 179//179 176//176
f 176//176 179//179 180//180
f 176//176 180//180 137//137
f 176//176 137//137 177//177
f 178//178 70//70 181//181
f 178//178 181//181 179//179
f 179//179 181//181 140//140
f 179//179 140//140 141//141
f 179//179 141//141 137//137
f 179//179 137//137 180//180
f 95//95 182//182 96//96
f 95//95 12//12 26//26
f 95//95 26//26 182//182
f 85//85 87//87 86//86
f 96//96 182//182 183//183
f 96//96 183//183 97//97
f 182//182 26//26 183//183
f 81//81 82//82 87//87
f 87//87 82//82 109//109
f 87//87 109//109 86//86
f 93//93 86//86 173//173
f 93//93 173//173 153//153
f 184//184 139//139 181//181
f 184//184 70//70 139//139
f 184//184 181//181 70//70
f 139//139 70//70 69//69
f 139//139 140//140 181//181
f 158//158 160//160 122//122
f 158//158 122//122 120//120
f 158//158 119//119 157//157
f 158//158 120//120 119//119
f 160//160 125//125 122//122
f 169//169 168//168 177//177
f 169//169 185//185 130//130
f 169//169 130//130 126//126
f 169//169 177//177 185//185
f 98//98 21//21 18//18
f 97//97 183//183 23//23
f 97//97 23//23 22//22
f 183//183 26//26 23//23
f 11//11 157//157 26//26
f 11//11 26//26 12//12
f 157//157 119//119 26//26
f 145//145 45//45 46//46
f 117//117 116//116 63//63
f 117//117 63//63 70//70
f 185//185 177//177 186//186
f 185//185 186//186 130//130
f 130//130 186//186 132//132
f 177//177 137//137 186//186
f 186//186 137//137 142//142
f 186//186 142//142 132//132
f 78//78 18//18 187//187
f 78//78 187//187 79//79
f 18//18 31//31 187//187
f 79//79 187//187 103//103
f 79//79 103//103 102//102
f 187//187 31//31 188//188
f 187//187 188//188 103//103
f 31//31 39//39 188//188
f 39//39 58//58 188//188
f 103//103 188//188 49//49
f 188//188 58//58 49//49
f 53//53 64//64 116//116
f 116//116 64//64 63//63
# 372 faces, 0 coords texture

# End of File
