####
#
# OBJ File Generated by Meshlab
#
####
# Object matlab_mesh_step12_link4.obj
#
# Vertices: 194
# Faces: 384
#
####
vn 5.344000 -1.555796 0.634732
v 0.430629 0.388646 0.982742
vn 4.728881 -2.199692 1.698124
v 0.430220 0.388234 0.984164
vn 4.603744 -4.274468 0.097978
v 0.430242 0.388215 0.982544
vn 5.194222 -3.343057 0.085386
v 0.430651 0.388627 0.981122
vn 4.962718 -2.909622 -1.202949
v 0.438549 0.402599 0.860467
vn 6.040813 0.987325 1.215464
v 0.425985 0.415286 0.989806
vn 5.845047 0.067026 2.080807
v 0.419984 0.408204 1.014339
vn 6.169252 1.028376 0.553062
v 0.428787 0.414514 0.963266
vn 4.511616 -1.624945 -1.986998
v 0.438557 0.402624 0.860446
vn 3.631518 0.148209 -2.310546
v 0.438558 0.402653 0.860431
vn 4.062643 -3.752132 2.866404
v 0.430080 0.388093 0.984179
vn 4.407585 -4.209163 1.099762
v 0.429768 0.387754 0.984163
vn 5.638764 0.036615 2.286620
v 0.419963 0.408231 1.014398
vn 4.564260 -0.634609 2.834963
v 0.419943 0.408248 1.014444
vn 3.704944 -3.487996 3.524725
v 0.275619 0.235126 1.000497
vn 3.792198 -3.772390 2.289259
v 0.275167 0.234646 1.000496
vn 4.296984 -4.176475 1.365660
v 0.429628 0.387613 0.984178
vn 4.100390 -0.397341 3.287368
v 0.419922 0.408269 1.014480
vn 4.743190 -3.875035 -0.688665
v 0.426095 0.382166 0.877424
vn 4.573081 -4.308205 0.068559
v 0.430199 0.388147 0.981122
vn 4.418950 -4.267471 -0.876724
v 0.425643 0.381686 0.877423
vn 4.518215 -4.364246 0.092014
v 0.429790 0.387735 0.982543
vn 1.833469 -4.376671 1.658608
v 0.275001 0.234481 1.000496
vn 3.318344 -5.235674 0.173558
v 0.270444 0.228019 0.896797
vn 3.643320 -5.019563 0.015187
v 0.270466 0.228001 0.895177
vn 3.055098 -3.119328 4.513830
v 0.265147 0.249499 1.018075
vn 4.302009 -4.574829 0.102707
v 0.275023 0.234462 0.998876
vn 0.528771 -4.727685 2.380062
v 0.255099 0.239219 1.017327
vn -0.885135 -5.749065 0.125802
v 0.264865 0.227275 0.914558
vn 0.132963 -4.957245 -0.628315
v 0.267681 0.226456 0.887992
vn 0.186955 -3.958010 2.855164
v 0.255078 0.239228 1.017347
vn 4.443132 -4.441463 0.095840
v 0.429650 0.387595 0.982558
vn 4.425622 -4.458975 0.098409
v 0.275189 0.234627 0.998876
vn 3.156441 -3.013876 4.517675
v 0.267896 0.252332 1.018075
vn 4.397444 -4.431966 -0.691983
v 0.425477 0.381521 0.877423
vn 4.407611 -4.451625 -0.349815
v 0.425337 0.381381 0.877438
vn 1.150501 -4.523235 -1.885676
v 0.273713 0.233583 0.863313
vn 4.426621 -4.441894 -0.272730
v 0.425503 0.381545 0.877438
vn 4.114891 -4.713475 -0.266243
v 0.270876 0.228413 0.893756
vn 0.579017 -4.620833 -1.363857
v 0.273705 0.233570 0.863350
vn 4.438813 -4.446358 0.036523
v 0.425094 0.381133 0.878860
vn 4.423675 -4.461592 0.031036
v 0.424928 0.380969 0.878860
vn 4.504844 -4.378653 0.048830
v 0.425233 0.381274 0.878845
vn 4.167543 -4.084463 -2.275347
v 0.425752 0.389486 0.859719
vn 4.220809 -4.040723 -2.252091
v 0.428501 0.392319 0.859719
vn 4.425267 -4.459658 0.082974
v 0.429484 0.387430 0.982558
vn 5.916844 1.486879 1.238382
v 0.425976 0.415331 0.989806
vn -3.298865 -4.831885 -2.220156
v 0.273687 0.233560 0.863395
vn -3.272895 -4.983780 -1.371174
v 0.267673 0.226461 0.887987
vn -3.683758 -4.388826 -2.547061
v 0.248799 0.254246 0.863287
vn 0.089867 -3.618407 -2.988290
v 0.273708 0.233597 0.863287
vn -3.739195 -5.021948 -0.318147
v 0.267669 0.226463 0.887999
vn -3.982618 -4.580818 -1.208508
v 0.242760 0.247112 0.887999
vn 6.039354 1.578720 0.496156
v 0.428784 0.414544 0.963236
vn 5.705105 2.083087 1.270304
v 0.425968 0.415362 0.989802
vn -1.810601 -5.937893 0.438087
v 0.264860 0.227278 0.914581
vn -3.257705 -5.268499 0.137792
v 0.264846 0.227284 0.914594
vn 3.440613 -3.388644 -3.777361
v 0.425755 0.389503 0.859697
vn 3.536502 -3.313392 -3.740437
v 0.428508 0.392341 0.859697
vn 2.400893 -2.533405 5.115452
v 0.265127 0.249510 1.018096
vn 5.906650 2.084313 0.437132
v 0.428776 0.414574 0.963212
vn 5.577088 2.454263 1.295863
v 0.425955 0.415394 0.989797
vn 5.295005 3.145928 0.299169
v 0.428764 0.414607 0.963196
vn 2.525152 -2.399410 5.137845
v 0.267880 0.252348 1.018096
vn -1.113440 -3.015930 2.878396
v 0.255052 0.239238 1.017359
vn 2.064276 -2.076897 -5.415929
v 0.425746 0.389521 0.859682
vn 2.228891 -1.996283 -5.370933
v 0.428503 0.392362 0.859682
vn 1.153865 -1.317726 5.934036
v 0.265107 0.249529 1.018108
vn 4.859127 3.354659 1.273902
v 0.425941 0.415428 0.989791
vn 3.171710 0.777681 3.562077
v 0.419902 0.408294 1.014503
vn 1.274269 -1.164050 5.950307
v 0.267864 0.252370 1.018108
vn -3.851937 -4.560386 1.418249
v 0.230143 0.259887 1.017359
vn -2.246725 -2.417495 3.150907
v 0.230106 0.259920 1.017362
vn -4.177730 -4.674055 -0.066394
v 0.239936 0.247933 0.914594
vn 0.178226 -0.416122 6.244723
v 0.265085 0.249540 1.018111
vn -1.376291 -1.997085 5.193120
v 0.255036 0.239256 1.017362
vn -4.413600 -4.412181 0.554059
v 0.133731 0.353445 0.998353
vn -4.392442 -4.485944 -0.105878
v 0.143532 0.341488 0.895590
vn -4.371054 -4.506348 -0.119162
v 0.148634 0.336514 0.895590
vn -4.385773 -4.498037 0.105260
v 0.143197 0.344236 0.999263
vn -4.385785 -4.498026 0.105210
v 0.138833 0.348470 0.998353
vn -3.795588 -4.417199 -2.353681
v 0.161891 0.338564 0.845196
vn -4.091204 -4.489687 -1.271414
v 0.155851 0.331430 0.869908
vn -4.117660 -4.453769 -1.291229
v 0.151490 0.335661 0.869000
vn -3.830488 -4.394647 -2.337376
v 0.157529 0.342795 0.844288
vn -3.468467 -3.990232 -3.190534
v 0.157502 0.342832 0.844265
vn 0.149652 -2.475748 -4.933267
v 0.273705 0.233617 0.863274
vn 0.975943 -1.007389 -6.102449
v 0.425740 0.389543 0.859676
vn -2.198362 -3.154972 -4.398702
v 0.182432 0.322167 0.844265
vn -1.580057 -2.757007 -5.256327
v 0.269341 0.237852 0.862365
vn -4.156979 -4.408973 -1.309536
v 0.151458 0.335692 0.868997
vn -4.198431 -4.375252 -1.333223
v 0.145552 0.341522 0.868190
vn -2.748241 -2.936968 -4.035068
v 0.151596 0.348662 0.843458
vn 1.188830 -0.895535 -6.066492
v 0.428499 0.392387 0.859676
vn 4.136050 4.317996 1.885915
v 0.420844 0.420399 0.989791
vn 4.020936 4.185224 2.394933
v 0.414804 0.413265 1.014503
vn 4.400425 4.338174 0.894011
v 0.425922 0.415450 0.989781
vn 3.987739 4.437630 1.938210
v 0.414910 0.426256 0.988980
vn 2.030059 2.197315 4.245435
v 0.414777 0.413285 1.014513
vn 4.208487 4.425016 1.215432
v 0.420821 0.420424 0.989781
vn 2.221770 1.417723 4.319818
v 0.419879 0.408310 1.014513
vn 4.582847 4.273858 0.136920
v 0.428746 0.414628 0.963188
vn 0.304402 -0.228000 6.258065
v 0.267843 0.252384 1.018111
vn 2.913237 1.448825 -2.757343
v 0.438548 0.402671 0.860425
vn -0.909879 0.399641 6.204018
v 0.127842 0.359265 0.997549
vn -2.664050 -1.970261 3.613446
v 0.132189 0.355040 0.998455
vn -2.565468 -1.981836 3.626671
v 0.219098 0.270725 1.016555
vn -0.662813 0.419714 6.227226
v 0.229146 0.281009 1.017304
vn -2.746983 -0.151960 1.723984
v 0.127825 0.359275 0.997546
vn -0.854024 0.452411 6.208209
v 0.142238 0.365325 0.999205
vn -2.517290 2.291534 4.146499
v 0.137873 0.369559 0.998295
vn -0.768094 0.614443 6.203837
v 0.137897 0.369555 0.998299
vn -0.688950 0.752209 6.198459
v 0.140653 0.372396 0.998299
vn -2.487725 2.467373 4.109860
v 0.140632 0.372403 0.998295
vn -0.514800 0.572657 6.232639
v 0.231905 0.283853 1.017304
vn 3.877481 4.380000 2.288799
v 0.408870 0.419122 1.013692
vn 3.951837 4.483267 1.911012
v 0.410548 0.430487 0.988072
vn 3.818126 4.428529 2.298198
v 0.404509 0.423353 1.012784
vn 4.225464 4.480861 1.011483
v 0.414914 0.426254 0.988974
vn 3.446263 3.988753 3.231948
v 0.408870 0.419114 1.013706
vn 3.282549 4.961031 1.372957
v 0.298731 0.535454 0.969982
vn 3.982458 4.580907 1.208614
v 0.323640 0.514805 0.969982
vn 3.890874 4.921479 0.071446
v 0.301554 0.534633 0.943386
vn 2.549781 4.128505 3.387292
v 0.292691 0.528320 0.994694
vn 1.034702 5.419794 -0.317274
v 0.301535 0.534647 0.943372
vn 0.353062 5.171188 0.676231
v 0.298711 0.535469 0.969965
vn -0.484798 3.189890 2.935832
v 0.292667 0.528329 0.994697
vn 3.683696 4.388922 2.546972
v 0.317600 0.507671 0.994694
vn 4.169939 4.686410 0.234022
v 0.326463 0.513984 0.943386
vn 4.371019 4.506381 0.119225
v 0.417738 0.425432 0.962381
vn 4.360365 4.517505 0.107536
v 0.413373 0.429667 0.961472
vn 0.817384 2.051543 5.631858
v 0.297032 0.524094 0.995607
vn 1.907495 2.797056 4.524359
v 0.383940 0.439779 1.013706
vn -0.086401 1.012185 6.163131
v 0.383930 0.439772 1.013708
vn 4.186715 4.670520 0.010474
v 0.326465 0.513982 0.943372
vn 2.468168 2.748688 -3.081248
v 0.336267 0.502026 0.840609
vn 0.322059 2.947561 -2.101021
v 0.311336 0.522690 0.840609
vn -4.405479 -4.419903 0.563857
v 0.138096 0.349210 0.999263
vn -2.348824 -2.189016 3.187608
v 0.225004 0.264895 1.017362
vn -0.331447 0.095002 6.259168
v 0.235053 0.275179 1.018111
vn -5.251755 -1.893429 -0.388335
v 0.137626 0.347318 0.894783
vn -4.380341 -4.490100 -0.358949
v 0.146356 0.340667 0.868997
vn -0.112081 -0.124905 6.278695
v 0.240154 0.270205 1.018111
vn -4.828698 -1.315958 -1.011106
v 0.140450 0.346496 0.868190
vn -0.366804 -1.363749 -5.990474
v 0.182429 0.322188 0.844258
vn 0.630148 -0.684426 -6.213706
v 0.421376 0.393778 0.858766
vn -2.144325 -2.643192 -5.046927
v 0.176526 0.327997 0.843458
vn -0.599731 -1.161630 -5.988185
v 0.176546 0.327994 0.843454
vn 0.845717 -0.460076 -6.203585
v 0.424134 0.396621 0.858766
vn 0.514895 -0.572713 -6.232629
v 0.334463 0.478116 0.840663
vn 0.662905 -0.419766 -6.227214
v 0.337222 0.480960 0.840663
vn -0.184291 0.249409 6.266423
v 0.237811 0.278023 1.018111
vn 0.035581 0.039650 6.282733
v 0.262742 0.257358 1.018111
vn 4.380325 4.490109 0.359018
v 0.420016 0.421279 0.988974
vn 1.461318 1.865232 5.229583
v 0.389847 0.433949 1.014513
vn 0.117876 0.809903 6.189882
v 0.389813 0.433967 1.014512
vn 4.392441 4.485945 0.105878
v 0.422840 0.420458 0.962381
vn 4.413601 4.412204 -0.553961
v 0.432641 0.408501 0.859618
vn 2.450233 1.749479 -3.614984
v 0.434183 0.406906 0.859516
vn 1.468877 0.529920 -5.962532
v 0.347257 0.491232 0.841412
vn 3.083302 2.440720 -3.517437
v 0.347275 0.491222 0.841416
vn 2.668420 2.682722 -3.126618
v 0.341368 0.497051 0.840609
vn 4.405476 4.419906 -0.563767
v 0.428277 0.412736 0.858709
vn 1.259849 0.719546 -5.969968
v 0.341375 0.497037 0.840608
vn -5.963611 1.631531 -0.691682
v 0.130649 0.358453 0.970953
vn -4.382553 4.193123 1.341513
v 0.137862 0.369551 0.998289
vn -4.997612 3.313442 0.359750
v 0.127827 0.359280 0.997541
vn -5.785540 2.320292 -0.765801
v 0.136692 0.365593 0.946221
vn -5.081896 3.400081 -0.771066
v 0.136696 0.365601 0.946216
vn -3.111016 0.055335 -2.311891
v 0.146494 0.353636 0.843458
vn -5.034978 3.505784 -0.404867
v 0.133873 0.366422 0.972799
vn -4.459415 4.326463 -0.934727
v 0.149253 0.356480 0.843458
vn -2.132391 2.200266 -3.593479
v 0.301295 0.512415 0.839859
vn -4.473192 4.341806 -0.769239
v 0.139456 0.368445 0.946216
vn -2.235581 2.132761 -3.612481
v 0.298536 0.509570 0.839859
vn -2.348969 1.425739 -3.918585
v 0.146502 0.353643 0.843454
vn -0.784066 -0.888963 -6.070467
v 0.151606 0.348666 0.843454
vn -4.450371 4.363716 -0.773079
v 0.291490 0.524373 0.942622
vn -4.369816 4.255588 1.137651
v 0.140622 0.372395 0.998289
vn -3.093039 5.141606 -0.124267
v 0.298702 0.535465 0.969952
vn -3.288548 3.821389 2.411418
v 0.292656 0.528323 0.994695
vn 4.385779 4.498034 -0.105105
v 0.427540 0.413476 0.859618
vn 4.385770 4.498041 -0.105195
v 0.423175 0.417710 0.858709
vn -3.042164 5.179091 -0.693284
v 0.301525 0.534644 0.943370
vn 0.550007 0.584164 -6.212601
v 0.336271 0.502014 0.840608
vn -1.756803 2.533610 -3.407252
v 0.311330 0.522686 0.840608
vn 0.184382 -0.249449 -6.266415
v 0.328580 0.483921 0.839859
vn 0.331526 -0.095041 -6.259156
v 0.331340 0.486766 0.839859
vn -4.501984 4.371395 0.290070
v 0.130587 0.362124 0.997541
vn -4.494253 4.367826 -0.222284
v 0.136633 0.369267 0.972799
vn -4.481970 4.380682 -0.266524
v 0.288667 0.525194 0.969204
vn -4.496855 4.386142 0.130325
v 0.146668 0.379538 0.973547
vn -0.035545 -0.039611 -6.282734
v 0.303639 0.504594 0.839859
vn 0.112096 0.124924 -6.278694
v 0.326236 0.491742 0.839859
# 194 vertices, 0 vertices normals

f 1//1 2//2 3//3
f 1//1 4//4 5//5
f 1//1 3//3 4//4
f 1//1 6//6 7//7
f 1//1 7//7 2//2
f 1//1 8//8 6//6
f 1//1 5//5 9//9
f 1//1 9//9 10//10
f 1//1 10//10 8//8
f 2//2 11//11 12//12
f 2//2 12//12 3//3
f 2//2 7//7 13//13
f 2//2 13//13 14//14
f 2//2 14//14 11//11
f 11//11 15//15 16//16
f 11//11 17//17 12//12
f 11//11 16//16 17//17
f 11//11 14//14 15//15
f 15//15 14//14 18//18
f 15//15 18//18 16//16
f 4//4 19//19 5//5
f 4//4 3//3 20//20
f 4//4 20//20 19//19
f 19//19 20//20 21//21
f 19//19 21//21 5//5
f 3//3 12//12 22//22
f 3//3 22//22 20//20
f 23//23 24//24 25//25
f 23//23 16//16 26//26
f 23//23 27//27 16//16
f 23//23 25//25 27//27
f 23//23 28//28 29//29
f 23//23 29//29 30//30
f 23//23 30//30 24//24
f 23//23 26//26 31//31
f 23//23 31//31 28//28
f 24//24 30//30 25//25
f 12//12 17//17 32//32
f 12//12 32//32 22//22
f 17//17 16//16 32//32
f 16//16 27//27 33//33
f 16//16 33//33 32//32
f 16//16 34//34 26//26
f 16//16 18//18 34//34
f 35//35 36//36 37//37
f 35//35 21//21 38//38
f 35//35 38//38 36//36
f 35//35 37//37 21//21
f 36//36 39//39 40//40
f 36//36 38//38 41//41
f 36//36 42//42 25//25
f 36//36 25//25 39//39
f 36//36 41//41 42//42
f 36//36 40//40 37//37
f 39//39 25//25 30//30
f 39//39 30//30 40//40
f 20//20 22//22 43//43
f 20//20 43//43 21//21
f 21//21 43//43 38//38
f 21//21 44//44 45//45
f 21//21 45//45 5//5
f 21//21 37//37 44//44
f 38//38 43//43 41//41
f 46//46 27//27 42//42
f 46//46 42//42 41//41
f 46//46 32//32 33//33
f 46//46 33//33 27//27
f 46//46 41//41 32//32
f 27//27 25//25 42//42
f 22//22 32//32 41//41
f 22//22 41//41 43//43
f 6//6 47//47 13//13
f 6//6 13//13 7//7
f 6//6 8//8 47//47
f 48//48 49//49 50//50
f 48//48 40//40 49//49
f 48//48 50//50 51//51
f 48//48 51//51 40//40
f 49//49 40//40 30//30
f 49//49 30//30 52//52
f 49//49 53//53 50//50
f 49//49 52//52 53//53
f 47//47 8//8 54//54
f 47//47 55//55 14//14
f 47//47 14//14 13//13
f 47//47 54//54 55//55
f 8//8 10//10 54//54
f 28//28 31//31 56//56
f 28//28 56//56 29//29
f 29//29 56//56 57//57
f 29//29 57//57 30//30
f 44//44 58//58 45//45
f 44//44 37//37 58//58
f 40//40 51//51 37//37
f 30//30 57//57 52//52
f 45//45 58//58 59//59
f 45//45 59//59 5//5
f 26//26 34//34 60//60
f 26//26 60//60 31//31
f 55//55 54//54 61//61
f 55//55 62//62 18//18
f 55//55 18//18 14//14
f 55//55 61//61 63//63
f 55//55 63//63 62//62
f 34//34 18//18 64//64
f 34//34 64//64 60//60
f 54//54 10//10 61//61
f 5//5 59//59 9//9
f 31//31 60//60 65//65
f 31//31 65//65 56//56
f 56//56 65//65 57//57
f 58//58 37//37 51//51
f 58//58 66//66 59//59
f 58//58 51//51 66//66
f 59//59 66//66 67//67
f 59//59 67//67 9//9
f 60//60 64//64 68//68
f 60//60 68//68 65//65
f 62//62 69//69 70//70
f 62//62 70//70 18//18
f 62//62 63//63 69//69
f 18//18 70//70 64//64
f 64//64 70//70 71//71
f 64//64 71//71 68//68
f 61//61 10//10 63//63
f 9//9 67//67 10//10
f 72//72 65//65 73//73
f 72//72 74//74 57//57
f 72//72 57//57 65//65
f 72//72 73//73 74//74
f 65//65 68//68 75//75
f 65//65 76//76 73//73
f 65//65 75//75 76//76
f 74//74 53//53 57//57
f 74//74 77//77 78//78
f 74//74 78//78 79//79
f 74//74 80//80 81//81
f 74//74 73//73 80//80
f 74//74 81//81 77//77
f 74//74 79//79 53//53
f 57//57 53//53 52//52
f 82//82 83//83 84//84
f 82//82 50//50 53//53
f 82//82 53//53 83//83
f 82//82 85//85 86//86
f 82//82 84//84 85//85
f 82//82 86//86 50//50
f 83//83 53//53 79//79
f 83//83 79//79 84//84
f 66//66 51//51 87//87
f 66//66 88//88 67//67
f 66//66 87//87 88//88
f 50//50 86//86 51//51
f 51//51 86//86 89//89
f 51//51 89//89 90//90
f 51//51 90//90 87//87
f 85//85 84//84 86//86
f 84//84 79//79 91//91
f 84//84 91//91 92//92
f 84//84 93//93 86//86
f 84//84 92//92 93//93
f 67//67 88//88 94//94
f 67//67 94//94 10//10
f 68//68 71//71 75//75
f 95//95 96//96 69//69
f 95//95 69//69 97//97
f 95//95 98//98 99//99
f 95//95 100//100 98//98
f 95//95 99//99 96//96
f 95//95 97//97 100//100
f 96//96 70//70 69//69
f 96//96 99//99 101//101
f 96//96 101//101 70//70
f 69//69 63//63 102//102
f 69//69 102//102 97//97
f 70//70 101//101 71//71
f 71//71 101//101 103//103
f 71//71 103//103 75//75
f 63//63 10//10 104//104
f 63//63 104//104 102//102
f 10//10 94//94 104//104
f 105//105 106//106 107//107
f 105//105 107//107 108//108
f 105//105 109//109 106//106
f 105//105 110//110 111//111
f 105//105 108//108 110//110
f 105//105 111//111 109//109
f 112//112 113//113 114//114
f 112//112 110//110 108//108
f 112//112 108//108 115//115
f 112//112 111//111 110//110
f 112//112 115//115 113//113
f 112//112 114//114 111//111
f 98//98 116//116 99//99
f 98//98 117//117 118//118
f 98//98 118//118 116//116
f 98//98 100//100 119//119
f 98//98 119//119 117//117
f 116//116 118//118 120//120
f 116//116 120//120 99//99
f 121//121 122//122 123//123
f 121//121 124//124 122//122
f 121//121 123//123 125//125
f 121//121 126//126 127//127
f 121//121 127//127 124//124
f 121//121 125//125 126//126
f 122//122 124//124 128//128
f 122//122 128//128 118//118
f 122//122 117//117 119//119
f 122//122 118//118 117//117
f 122//122 129//129 123//123
f 122//122 119//119 130//130
f 122//122 130//130 131//131
f 122//122 131//131 129//129
f 124//124 132//132 133//133
f 124//124 133//133 120//120
f 124//124 120//120 128//128
f 124//124 127//127 132//132
f 128//128 120//120 118//118
f 113//113 115//115 134//134
f 113//113 127//127 114//114
f 113//113 134//134 127//127
f 123//123 129//129 135//135
f 123//123 135//135 136//136
f 123//123 137//137 125//125
f 123//123 136//136 137//137
f 129//129 131//131 135//135
f 138//138 139//139 107//107
f 138//138 77//77 81//81
f 138//138 80//80 139//139
f 138//138 81//81 80//80
f 138//138 106//106 77//77
f 138//138 107//107 106//106
f 139//139 80//80 73//73
f 139//139 73//73 140//140
f 139//139 140//140 108//108
f 139//139 108//108 107//107
f 77//77 106//106 109//109
f 77//77 109//109 141//141
f 77//77 141//141 78//78
f 78//78 142//142 79//79
f 78//78 141//141 142//142
f 73//73 76//76 75//75
f 73//73 143//143 140//140
f 73//73 75//75 143//143
f 79//79 142//142 91//91
f 142//142 141//141 144//144
f 142//142 144//144 92//92
f 142//142 92//92 91//91
f 88//88 87//87 145//145
f 88//88 146//146 94//94
f 88//88 145//145 146//146
f 87//87 90//90 145//145
f 86//86 93//93 147//147
f 86//86 147//147 89//89
f 89//89 147//147 148//148
f 89//89 145//145 90//90
f 89//89 148//148 145//145
f 146//146 149//149 94//94
f 146//146 150//150 149//149
f 146//146 145//145 150//150
f 94//94 149//149 151//151
f 94//94 151//151 104//104
f 149//149 150//150 151//151
f 140//140 143//143 152//152
f 140//140 152//152 108//108
f 143//143 75//75 153//153
f 143//143 153//153 152//152
f 75//75 103//103 153//153
f 100//100 97//97 154//154
f 100//100 154//154 119//119
f 155//155 99//99 120//120
f 155//155 152//152 153//153
f 155//155 153//153 99//99
f 155//155 133//133 156//156
f 155//155 120//120 133//133
f 155//155 156//156 152//152
f 99//99 153//153 101//101
f 152//152 115//115 108//108
f 152//152 156//156 115//115
f 153//153 103//103 101//101
f 97//97 102//102 157//157
f 97//97 157//157 154//154
f 102//102 104//104 158//158
f 102//102 158//158 157//157
f 104//104 159//159 158//158
f 104//104 151//151 160//160
f 104//104 160//160 159//159
f 161//161 159//159 160//160
f 161//161 162//162 163//163
f 161//161 163//163 159//159
f 161//161 160//160 164//164
f 161//161 164//164 162//162
f 159//159 163//163 158//158
f 109//109 165//165 141//141
f 109//109 111//111 166//166
f 109//109 167//167 165//165
f 109//109 166//166 167//167
f 141//141 165//165 144//144
f 168//168 165//165 169//169
f 168//168 170//170 144//144
f 168//168 144//144 165//165
f 168//168 169//169 170//170
f 165//165 171//171 169//169
f 165//165 167//167 171//171
f 170//170 93//93 144//144
f 170//170 172//172 173//173
f 170//170 169//169 174//174
f 170//170 175//175 176//176
f 170//170 176//176 93//93
f 170//170 174//174 172//172
f 170//170 173//173 175//175
f 144//144 93//93 92//92
f 93//93 176//176 177//177
f 93//93 177//177 147//147
f 147//147 177//177 148//148
f 172//172 178//178 173//173
f 172//172 174//174 178//178
f 111//111 114//114 179//179
f 111//111 179//179 166//166
f 132//132 127//127 134//134
f 132//132 134//134 133//133
f 119//119 154//154 130//130
f 133//133 134//134 156//156
f 115//115 156//156 134//134
f 126//126 125//125 180//180
f 126//126 180//180 127//127
f 127//127 180//180 181//181
f 127//127 181//181 114//114
f 114//114 181//181 179//179
f 154//154 157//157 130//130
f 130//130 182//182 131//131
f 130//130 157//157 182//182
f 182//182 183//183 131//131
f 182//182 157//157 158//158
f 182//182 158//158 163//163
f 182//182 163//163 183//183
f 125//125 137//137 184//184
f 125//125 184//184 180//180
f 135//135 131//131 183//183
f 135//135 183//183 136//136
f 137//137 136//136 185//185
f 137//137 186//186 184//184
f 137//137 185//185 186//186
f 136//136 183//183 163//163
f 136//136 162//162 164//164
f 136//136 163//163 162//162
f 136//136 164//164 185//185
f 150//150 145//145 148//148
f 150//150 187//187 151//151
f 150//150 148//148 187//187
f 151//151 187//187 188//188
f 151//151 188//188 164//164
f 151//151 164//164 160//160
f 171//171 167//167 189//189
f 171//171 190//190 169//169
f 171//171 189//189 190//190
f 167//167 166//166 189//189
f 191//191 190//190 192//192
f 191//191 178//178 174//174
f 191//191 174//174 190//190
f 191//191 180//180 178//178
f 191//191 192//192 180//180
f 190//190 189//189 179//179
f 190//190 174//174 169//169
f 190//190 179//179 192//192
f 189//189 166//166 179//179
f 175//175 193//193 177//177
f 175//175 177//177 176//176
f 175//175 173//173 193//193
f 193//193 187//187 148//148
f 193//193 148//148 177//177
f 193//193 173//173 194//194
f 193//193 194//194 187//187
f 187//187 194//194 188//188
f 178//178 180//180 184//184
f 178//178 184//184 186//186
f 178//178 186//186 173//173
f 173//173 186//186 194//194
f 194//194 186//186 185//185
f 194//194 185//185 188//188
f 188//188 185//185 164//164
f 180//180 192//192 181//181
f 181//181 192//192 179//179
# 384 faces, 0 coords texture

# End of File
