####
#
# OBJ File Generated by Meshlab
#
####
# Object matlab_mesh_slc_step4_link2.obj
#
# Vertices: 188
# Faces: 372
#
####
vn -1.880357 -0.786153 5.683902
v 0.189746 0.025262 0.937943
vn -0.051341 -2.778229 3.088672
v 0.189990 0.024694 0.937943
vn -0.423183 -0.172915 6.263443
v 0.137590 0.159298 0.938258
vn -1.939647 -0.412796 5.626836
v 0.137584 0.159311 0.938258
vn -3.346830 1.172557 1.451278
v -0.038954 0.081046 0.802950
vn 1.408352 -2.777479 3.525424
v 0.190210 0.024774 0.937943
vn -0.068769 -0.107546 6.279292
v 0.192254 0.038571 0.938300
vn 2.083732 -5.888768 0.615162
v 0.190119 0.024732 0.937882
vn 1.881479 -5.976230 0.461568
v 0.189951 0.024674 0.937848
vn 0.321602 -5.997496 0.285246
v 0.014868 -0.040117 0.802941
vn -0.254546 -0.117287 6.276905
v 0.190638 0.039626 0.938258
vn -0.258077 -0.114399 6.276822
v 0.187219 0.047338 0.938258
vn -0.239901 -0.121357 6.277429
v 0.191397 0.038134 0.938259
vn -1.595225 -5.016482 0.886596
v 0.014865 -0.040117 0.802946
vn -2.875261 -3.607163 1.897066
v 0.014863 -0.040115 0.802949
vn -4.362971 -2.149033 3.335160
v 0.014111 -0.038637 0.802950
vn -3.928378 -2.534314 3.492762
v 0.014862 -0.040112 0.802951
vn -4.306550 -1.909454 3.825734
v 0.010685 -0.030910 0.802950
vn 2.910759 -3.247020 2.597879
v 0.190339 0.024811 0.937882
vn 4.029229 -1.424393 4.304893
v 0.195891 0.040094 0.938293
vn 3.570462 -1.168740 4.548902
v 0.195898 0.040124 0.938296
vn 3.147950 -0.893293 4.689063
v 0.195904 0.040151 0.938298
vn 2.686708 -0.553769 4.751894
v 0.195908 0.040173 0.938299
vn 2.669687 -0.235945 4.756210
v 0.195910 0.040191 0.938300
vn 4.894167 2.301492 3.095158
v 0.216274 0.166008 0.842266
vn 4.859978 2.076177 3.384166
v 0.216517 0.165440 0.842266
vn 5.550077 1.708672 1.465067
v 0.262679 0.069822 0.834000
vn 4.585433 2.511460 3.481714
v 0.209074 0.190249 0.834289
vn 2.095317 1.529260 4.803089
v 0.142097 0.161368 0.938299
vn 4.677696 2.507214 3.347947
v 0.209046 0.190352 0.834252
vn 5.085298 2.410079 2.763486
v 0.209805 0.188897 0.834218
vn 2.323743 1.109254 4.940333
v 0.142863 0.159864 0.938300
vn 3.353485 1.093590 4.658449
v 0.195909 0.040217 0.938298
vn 3.922379 1.992726 4.365604
v 0.142853 0.159885 0.938299
vn 5.498680 1.058315 1.841203
v 0.262680 0.069808 0.834007
vn 3.757931 -3.863379 1.681490
v 0.190712 0.024947 0.937359
vn 3.967160 -2.293957 0.838853
v 0.258540 0.049550 0.842297
vn 5.072111 -1.926615 3.168337
v 0.195858 0.039981 0.938281
vn 2.239360 -5.862177 0.204330
v 0.190300 0.024791 0.937787
vn 2.295615 -5.844863 0.125210
v 0.190673 0.024926 0.937263
vn 3.607521 -3.705613 -1.553871
v 0.258501 0.049530 0.842202
vn 5.091606 -2.051686 -2.381391
v 0.262668 0.069621 0.833638
vn 5.298035 0.294138 3.362451
v 0.262594 0.069375 0.834218
vn 2.766528 0.248013 4.738322
v 0.195910 0.040206 0.938299
vn 5.418371 0.199735 3.146162
v 0.262611 0.069443 0.834186
vn 5.546937 0.070815 2.832976
v 0.262626 0.069505 0.834156
vn 5.648998 -0.093544 2.402435
v 0.262639 0.069561 0.834129
vn 4.822055 -1.820732 3.553667
v 0.195870 0.040023 0.938286
vn 5.674060 -0.271832 1.891678
v 0.262650 0.069612 0.834104
vn 4.463348 -1.644429 3.960687
v 0.195881 0.040060 0.938290
vn 5.159353 -1.783208 -1.902624
v 0.262677 0.069667 0.833620
vn 5.660462 -0.216173 1.855505
v 0.262660 0.069658 0.834081
vn 2.055528 -5.926523 0.268729
v 0.190080 0.024711 0.937787
vn -0.161455 -5.381365 -2.114872
v 0.084260 -0.013664 0.701862
vn -1.575138 -5.473396 -2.540413
v 0.083887 -0.013799 0.702386
vn -2.042152 -5.134391 -2.985201
v 0.081667 -0.010538 0.698242
vn 1.196183 -4.959842 -2.393173
v 0.084389 -0.013626 0.701801
vn -1.507971 -4.878223 -1.456731
v 0.014893 -0.040106 0.802468
vn -0.445725 -4.368248 -3.802208
v 0.081662 -0.010531 0.698233
vn -1.414856 -5.537633 -1.961539
v 0.014898 -0.040102 0.802454
vn -4.748494 -2.036056 -3.575360
v 0.015815 -0.037835 0.797447
vn -3.128904 -3.775176 -2.511670
v 0.016059 -0.038403 0.797447
vn -3.814818 1.231621 -1.097995
v -0.038938 0.081054 0.802512
vn -2.159293 1.432846 -2.610488
v 0.027833 0.110659 0.698213
vn -3.786204 1.787030 -1.916625
v 0.023621 0.108791 0.704791
vn -1.554932 -4.273136 -1.064219
v 0.014888 -0.040108 0.802480
vn -5.370441 -2.515163 -2.063580
v 0.014122 -0.038602 0.802479
vn -0.678941 -3.999374 -3.997907
v 0.081658 -0.010524 0.698226
vn -1.055094 -3.442725 -4.261988
v 0.081655 -0.010518 0.698221
vn -1.490006 -2.666779 -4.507172
v 0.081652 -0.010511 0.698217
vn -3.430415 -1.610142 -4.693281
v 0.080895 -0.009022 0.698214
vn -1.773862 -1.848753 -4.798609
v 0.081650 -0.010505 0.698214
vn 3.285522 1.461608 -5.152391
v 0.042342 0.102911 0.701770
vn 3.236704 1.460236 -5.182900
v 0.033173 0.111162 0.698274
vn 4.416713 2.158011 -2.438453
v 0.209631 0.189513 0.833561
vn 1.804173 0.458660 -5.671984
v 0.086160 -0.008443 0.698254
vn 4.531750 1.799180 -2.432355
v 0.262693 0.069838 0.833561
vn 2.341613 -4.507651 -2.363806
v 0.084609 -0.013547 0.701801
vn 1.784268 -6.007005 0.031444
v 0.014871 -0.040116 0.802934
vn 3.076772 -4.717647 -1.691137
v 0.258330 0.049468 0.842064
vn 3.531523 -3.592810 -3.699831
v 0.086165 -0.008489 0.698282
vn 3.103310 -3.421134 -4.070127
v 0.086166 -0.008479 0.698274
vn 3.047531 -3.026929 -4.351274
v 0.086167 -0.008469 0.698267
vn 1.882320 -3.765402 -4.654068
v 0.085297 -0.008921 0.698233
vn 4.683370 2.522590 3.325663
v 0.209020 0.190446 0.834217
vn 5.098013 2.416075 2.729855
v 0.209779 0.188989 0.834186
vn 4.688839 2.539040 3.302316
v 0.208996 0.190534 0.834185
vn 5.122783 2.428753 2.670331
v 0.209755 0.189074 0.834156
vn 4.696508 2.561560 3.268620
v 0.208973 0.190613 0.834155
vn 5.152194 2.443495 2.596010
v 0.209732 0.189152 0.834129
vn 4.703499 2.585624 3.234010
v 0.208953 0.190685 0.834128
vn 5.188353 2.461427 2.503366
v 0.209711 0.189222 0.834104
vn 4.712560 2.615344 3.187871
v 0.208935 0.190749 0.834103
vn 5.230542 2.482123 2.387241
v 0.209692 0.189285 0.834081
vn 4.722454 2.653335 3.128717
v 0.208919 0.190805 0.834081
vn 5.282625 2.507445 2.236736
v 0.209674 0.189340 0.834061
vn 4.733065 2.704762 3.046783
v 0.208905 0.190853 0.834061
vn 5.166547 -1.669050 -1.929774
v 0.262685 0.069707 0.833603
vn 5.653909 -0.095182 1.863334
v 0.262668 0.069699 0.834061
vn 2.935798 -2.431603 -4.706007
v 0.086166 -0.008461 0.698261
vn 5.343981 2.537182 2.037506
v 0.209659 0.189388 0.834044
vn 4.741775 2.771110 2.939884
v 0.208892 0.190894 0.834043
vn 5.171403 -1.506994 -1.964441
v 0.262691 0.069743 0.833590
vn 5.638100 0.068114 1.873822
v 0.262674 0.069734 0.834044
vn 1.788273 -3.519834 -4.861027
v 0.085301 -0.008910 0.698226
vn 4.163220 -2.206755 -4.155314
v 0.259785 0.068455 0.831362
vn 3.092425 1.449755 -5.266575
v 0.033152 0.111184 0.698267
vn 5.421207 2.574599 1.746364
v 0.209645 0.189428 0.834029
vn 4.742222 2.869229 2.777117
v 0.208882 0.190927 0.834029
vn 5.168647 -1.278798 -2.018367
v 0.262695 0.069773 0.833579
vn 5.609094 0.298026 1.884588
v 0.262678 0.069764 0.834029
vn -5.432681 -2.579727 -1.771757
v 0.014122 -0.038610 0.802490
vn -2.070013 -4.372307 -0.921143
v 0.014885 -0.040109 0.802490
vn 1.572415 -3.041675 -5.234722
v 0.085305 -0.008900 0.698221
vn 3.154625 1.640171 -5.179362
v 0.032386 0.112690 0.698266
vn 2.839986 1.360206 -5.415814
v 0.033134 0.111203 0.698261
vn 2.917584 1.680723 -5.285591
v 0.032371 0.112701 0.698261
vn 3.738126 2.906549 -2.045115
v 0.208880 0.190987 0.833561
vn 4.155119 -1.991263 -4.269307
v 0.259783 0.068482 0.831347
vn 5.510998 2.618345 1.300134
v 0.209633 0.189461 0.834017
vn 4.712238 3.022459 2.517933
v 0.208874 0.190952 0.834016
vn 5.144071 -0.921779 -2.087088
v 0.262697 0.069797 0.833570
vn 5.551532 0.631599 1.892998
v 0.262680 0.069789 0.834017
vn -5.555251 -2.637687 -1.158321
v 0.014123 -0.038617 0.802499
vn -3.559695 -4.332513 -0.704908
v 0.014882 -0.040108 0.802499
vn 1.259539 -2.355873 -5.643451
v 0.085308 -0.008891 0.698217
vn 2.346237 1.126912 -5.694706
v 0.033118 0.111218 0.698258
vn 2.449867 1.831259 -5.386386
v 0.032359 0.112709 0.698257
vn 4.129722 -1.654030 -4.431193
v 0.259781 0.068504 0.831335
vn 2.725630 -1.592658 -5.087035
v 0.086165 -0.008454 0.698258
vn -0.139504 -0.065201 6.280216
v 0.191495 0.040062 0.938299
vn -0.250150 0.249197 6.260536
v 0.138437 0.159745 0.938299
vn -0.125018 -0.055417 6.280913
v 0.188076 0.047774 0.938299
vn -0.017152 -0.007603 6.283129
v 0.188835 0.046283 0.938300
vn -0.094053 -0.014439 6.281314
v 0.138448 0.159734 0.938299
vn -0.017068 -0.006995 6.283129
v 0.139207 0.158243 0.938300
vn 2.046477 1.064772 5.262118
v 0.142104 0.161355 0.938299
vn 5.570542 2.700829 0.839892
v 0.209623 0.189486 0.834007
vn 4.524924 3.313120 2.034179
v 0.208867 0.190969 0.834007
vn 0.679227 2.977023 3.522958
v 0.142093 0.161374 0.938298
vn 5.048681 -0.320708 -2.180342
v 0.262697 0.069816 0.833564
vn 0.092130 0.040839 6.281569
v 0.146282 0.152152 0.938300
vn 5.755246 2.457116 0.473220
v 0.262676 0.069830 0.833995
vn -5.621360 -2.717192 -0.562069
v 0.014125 -0.038623 0.802506
vn -5.869996 -2.078955 -0.453909
v -0.038937 0.081052 0.802516
vn -5.145569 -3.448219 -0.440250
v 0.014880 -0.040106 0.802507
vn 0.809233 -1.380550 -6.018478
v 0.085310 -0.008882 0.698214
vn 1.542293 0.749005 -6.001886
v 0.033105 0.111231 0.698255
vn 1.451872 2.390983 -5.139463
v 0.032350 0.112714 0.698255
vn 0.931209 3.859549 -1.632128
v 0.208877 0.190989 0.833560
vn 2.303098 -0.393299 -5.382450
v 0.086163 -0.008448 0.698255
vn 4.076877 -1.467434 -4.470165
v 0.259778 0.068522 0.831326
vn 4.638859 0.830643 -2.276696
v 0.262696 0.069830 0.833561
vn -5.424726 -2.511621 1.149261
v 0.014108 -0.038632 0.802949
vn -4.703498 -1.725492 2.175682
v -0.038954 0.081044 0.802950
vn -1.224495 2.437849 5.044921
v 0.138430 0.159750 0.938298
vn -2.475884 1.671284 4.324119
v 0.137582 0.159318 0.938257
vn -3.941632 1.579167 4.229189
v -0.036032 0.082341 0.805190
vn 5.600130 2.819455 0.381484
v 0.209614 0.189504 0.834000
vn 1.981267 4.957592 2.675566
v 0.146304 0.163242 0.931719
vn 3.082665 4.188281 1.425276
v 0.208863 0.190979 0.833999
vn 5.666277 2.581320 -0.396388
v 0.209639 0.189495 0.833564
vn -1.183653 -0.591221 -5.990782
v 0.080898 -0.009024 0.698213
vn -1.137092 -0.504165 -6.026457
v 0.077471 -0.001297 0.698213
vn -0.998068 -0.781301 -5.954577
v 0.081649 -0.010499 0.698213
vn 0.368386 -0.387505 -6.231398
v 0.085312 -0.008875 0.698213
vn 0.637426 0.315100 -6.226566
v 0.033094 0.111240 0.698254
vn -0.681558 2.948478 -3.037008
v 0.032343 0.112715 0.698254
vn 3.403913 1.204345 -5.137809
v 0.259774 0.068534 0.831321
vn 5.319859 2.358756 -2.112804
v 0.213057 0.181785 0.833561
vn 0.595875 0.264200 -6.237372
v 0.036521 0.103512 0.698254
vn -2.371422 4.824073 2.202158
v 0.138426 0.159750 0.938296
vn -2.797958 4.595954 2.390331
v 0.137584 0.159321 0.938256
vn -2.753459 5.633525 0.212679
v -0.038107 0.081477 0.802991
vn -1.629115 5.216586 1.917636
v 0.142091 0.161375 0.938296
vn -2.723825 5.657060 -0.076601
v -0.038090 0.081486 0.802552
vn -2.549473 5.742690 0.007367
v 0.138443 0.159758 0.937862
vn 0.574148 5.339854 0.424240
v 0.208861 0.190981 0.833994
vn -1.295644 5.903047 0.846159
v 0.146304 0.163243 0.931715
vn 0.015340 0.006289 -6.283140
v 0.084561 -0.007400 0.698213
vn 0.015415 0.006835 -6.283140
v 0.034922 0.104555 0.698213
vn -0.714837 1.777956 -5.599670
v 0.031496 0.112283 0.698213
vn 0.138424 0.064814 -6.280195
v 0.032247 0.110808 0.698213
vn 0.138020 0.061196 -6.280276
v 0.035673 0.103081 0.698213
vn -2.693846 5.671727 -0.114663
v 0.024469 0.109223 0.704832
vn -2.112972 4.636502 -2.442541
v 0.028680 0.111090 0.698254
vn -2.539711 5.747004 0.008526
v 0.142107 0.161383 0.937862
vn -2.537984 5.747771 0.006785
v 0.146320 0.163251 0.931281
# 188 vertices, 0 vertices normals

f 1//1 2//2 3//3
f 1//1 3//3 4//4
f 1//1 4//4 5//5
f 1//1 5//5 2//2
f 2//2 6//6 7//7
f 2//2 8//8 6//6
f 2//2 9//9 8//8
f 2//2 10//10 9//9
f 2//2 11//11 12//12
f 2//2 12//12 3//3
f 2//2 13//13 11//11
f 2//2 14//14 10//10
f 2//2 7//7 13//13
f 2//2 15//15 14//14
f 2//2 16//16 17//17
f 2//2 5//5 18//18
f 2//2 18//18 16//16
f 2//2 17//17 15//15
f 6//6 8//8 19//19
f 6//6 19//19 20//20
f 6//6 20//20 21//21
f 6//6 21//21 22//22
f 6//6 22//22 23//23
f 6//6 23//23 24//24
f 6//6 24//24 7//7
f 25//25 26//26 27//27
f 25//25 28//28 29//29
f 25//25 30//30 28//28
f 25//25 31//31 30//30
f 25//25 32//32 33//33
f 25//25 29//29 34//34
f 25//25 34//34 32//32
f 25//25 27//27 31//31
f 25//25 33//33 26//26
f 26//26 35//35 27//27
f 26//26 33//33 35//35
f 36//36 37//37 38//38
f 36//36 19//19 39//39
f 36//36 40//40 41//41
f 36//36 41//41 37//37
f 36//36 39//39 40//40
f 36//36 38//38 19//19
f 37//37 41//41 42//42
f 37//37 43//43 44//44
f 37//37 45//45 43//43
f 37//37 46//46 45//45
f 37//37 47//47 46//46
f 37//37 48//48 38//38
f 37//37 49//49 47//47
f 37//37 50//50 48//48
f 37//37 42//42 51//51
f 37//37 52//52 49//49
f 37//37 20//20 50//50
f 37//37 51//51 52//52
f 37//37 21//21 20//20
f 37//37 22//22 21//21
f 37//37 23//23 22//22
f 37//37 24//24 23//23
f 37//37 44//44 24//24
f 8//8 9//9 53//53
f 8//8 53//53 39//39
f 8//8 39//39 19//19
f 19//19 38//38 48//48
f 19//19 48//48 50//50
f 19//19 50//50 20//20
f 54//54 55//55 56//56
f 54//54 57//57 58//58
f 54//54 56//56 59//59
f 54//54 60//60 55//55
f 54//54 59//59 57//57
f 54//54 58//58 60//60
f 61//61 62//62 63//63
f 61//61 64//64 62//62
f 61//61 63//63 65//65
f 61//61 65//65 64//64
f 9//9 10//10 53//53
f 62//62 55//55 60//60
f 62//62 56//56 55//55
f 62//62 60//60 58//58
f 62//62 59//59 56//56
f 62//62 58//58 66//66
f 62//62 67//67 63//63
f 62//62 68//68 59//59
f 62//62 66//66 67//67
f 62//62 69//69 68//68
f 62//62 70//70 69//69
f 62//62 71//71 72//72
f 62//62 72//72 70//70
f 62//62 64//64 71//71
f 73//73 74//74 75//75
f 73//73 76//76 74//74
f 73//73 75//75 77//77
f 73//73 77//77 76//76
f 57//57 78//78 66//66
f 57//57 59//59 78//78
f 57//57 66//66 58//58
f 40//40 39//39 79//79
f 40//40 79//79 41//41
f 41//41 80//80 81//81
f 41//41 81//81 82//82
f 41//41 82//82 83//83
f 41//41 79//79 66//66
f 41//41 66//66 80//80
f 41//41 83//83 42//42
f 80//80 78//78 81//81
f 80//80 66//66 78//78
f 78//78 59//59 84//84
f 78//78 84//84 82//82
f 78//78 82//82 81//81
f 53//53 79//79 39//39
f 53//53 10//10 79//79
f 28//28 30//30 29//29
f 30//30 85//85 29//29
f 30//30 31//31 86//86
f 30//30 86//86 85//85
f 85//85 87//87 29//29
f 85//85 86//86 88//88
f 85//85 88//88 87//87
f 43//43 45//45 44//44
f 31//31 27//27 86//86
f 87//87 89//89 29//29
f 87//87 88//88 89//89
f 45//45 46//46 44//44
f 86//86 27//27 88//88
f 89//89 88//88 90//90
f 89//89 91//91 29//29
f 89//89 90//90 91//91
f 46//46 47//47 44//44
f 88//88 27//27 90//90
f 91//91 90//90 92//92
f 91//91 93//93 29//29
f 91//91 92//92 93//93
f 47//47 49//49 44//44
f 90//90 27//27 92//92
f 93//93 92//92 94//94
f 93//93 95//95 29//29
f 93//93 94//94 95//95
f 49//49 52//52 44//44
f 92//92 27//27 94//94
f 42//42 83//83 51//51
f 95//95 94//94 96//96
f 95//95 97//97 29//29
f 95//95 96//96 97//97
f 52//52 51//51 98//98
f 52//52 99//99 44//44
f 52//52 98//98 99//99
f 94//94 27//27 96//96
f 51//51 83//83 100//100
f 51//51 100//100 98//98
f 97//97 96//96 101//101
f 97//97 102//102 29//29
f 97//97 101//101 102//102
f 99//99 98//98 103//103
f 99//99 104//104 44//44
f 99//99 103//103 104//104
f 96//96 27//27 101//101
f 59//59 68//68 84//84
f 84//84 68//68 105//105
f 84//84 105//105 82//82
f 98//98 106//106 103//103
f 98//98 100//100 106//106
f 82//82 105//105 83//83
f 74//74 107//107 75//75
f 74//74 76//76 107//107
f 79//79 10//10 66//66
f 102//102 101//101 108//108
f 102//102 109//109 29//29
f 102//102 108//108 109//109
f 104//104 103//103 110//110
f 104//104 111//111 33//33
f 104//104 110//110 111//111
f 104//104 33//33 44//44
f 101//101 27//27 108//108
f 67//67 66//66 112//112
f 67//67 112//112 63//63
f 68//68 69//69 105//105
f 66//66 10//10 113//113
f 66//66 113//113 112//112
f 105//105 69//69 114//114
f 105//105 114//114 83//83
f 115//115 107//107 116//116
f 115//115 117//117 118//118
f 115//115 116//116 117//117
f 115//115 118//118 75//75
f 115//115 75//75 107//107
f 103//103 106//106 119//119
f 103//103 119//119 110//110
f 106//106 100//100 119//119
f 83//83 114//114 100//100
f 107//107 76//76 116//116
f 10//10 14//14 113//113
f 109//109 108//108 120//120
f 109//109 121//121 29//29
f 109//109 120//120 121//121
f 111//111 110//110 122//122
f 111//111 123//123 33//33
f 111//111 122//122 123//123
f 108//108 27//27 120//120
f 112//112 113//113 124//124
f 112//112 124//124 63//63
f 69//69 70//70 114//114
f 113//113 14//14 125//125
f 113//113 125//125 124//124
f 114//114 70//70 126//126
f 114//114 126//126 100//100
f 117//117 116//116 127//127
f 117//117 128//128 118//118
f 117//117 127//127 128//128
f 110//110 119//119 122//122
f 119//119 100//100 129//129
f 119//119 129//129 122//122
f 100//100 126//126 130//130
f 100//100 130//130 129//129
f 116//116 76//76 127//127
f 11//11 13//13 7//7
f 11//11 131//131 132//132
f 11//11 7//7 131//131
f 11//11 132//132 12//12
f 3//3 12//12 132//132
f 3//3 132//132 4//4
f 14//14 15//15 125//125
f 131//131 133//133 132//132
f 131//131 7//7 134//134
f 131//131 134//134 133//133
f 135//135 133//133 136//136
f 135//135 137//137 29//29
f 135//135 136//136 137//137
f 135//135 132//132 133//133
f 135//135 29//29 132//132
f 133//133 134//134 136//136
f 121//121 120//120 138//138
f 121//121 139//139 140//140
f 121//121 138//138 139//139
f 121//121 140//140 29//29
f 137//137 136//136 32//32
f 137//137 32//32 34//34
f 137//137 34//34 29//29
f 7//7 24//24 134//134
f 123//123 122//122 141//141
f 123//123 35//35 33//33
f 123//123 141//141 35//35
f 142//142 24//24 44//44
f 142//142 136//136 134//134
f 142//142 134//134 24//24
f 142//142 32//32 136//136
f 142//142 44//44 32//32
f 120//120 27//27 143//143
f 120//120 143//143 138//138
f 32//32 44//44 33//33
f 124//124 125//125 144//144
f 124//124 144//144 145//145
f 124//124 145//145 63//63
f 70//70 72//72 126//126
f 125//125 15//15 146//146
f 125//125 146//146 144//144
f 126//126 72//72 147//147
f 126//126 147//147 130//130
f 128//128 127//127 148//148
f 128//128 149//149 150//150
f 128//128 148//148 149//149
f 128//128 150//150 118//118
f 122//122 129//129 141//141
f 129//129 130//130 141//141
f 130//130 147//147 151//151
f 130//130 152//152 141//141
f 130//130 151//151 153//153
f 130//130 153//153 152//152
f 127//127 76//76 148//148
f 154//154 15//15 16//16
f 154//154 144//144 15//15
f 154//154 16//16 18//18
f 154//154 18//18 155//155
f 154//154 155//155 144//144
f 4//4 132//132 156//156
f 4//4 157//157 158//158
f 4//4 158//158 5//5
f 4//4 156//156 157//157
f 15//15 144//144 146//146
f 15//15 17//17 16//16
f 132//132 29//29 140//140
f 132//132 140//140 156//156
f 139//139 138//138 159//159
f 139//139 160//160 140//140
f 139//139 161//161 160//160
f 139//139 159//159 161//161
f 35//35 141//141 153//153
f 35//35 153//153 27//27
f 138//138 162//162 75//75
f 138//138 75//75 159//159
f 138//138 143//143 77//77
f 138//138 77//77 162//162
f 71//71 163//163 72//72
f 71//71 64//64 164//164
f 71//71 164//164 163//163
f 144//144 155//155 145//145
f 72//72 163//163 165//165
f 72//72 165//165 147//147
f 147//147 165//165 166//166
f 147//147 166//166 151//151
f 149//149 148//148 167//167
f 149//149 168//168 150//150
f 149//149 167//167 168//168
f 141//141 152//152 153//153
f 151//151 166//166 76//76
f 151//151 169//169 153//153
f 151//151 76//76 77//77
f 151//151 77//77 169//169
f 162//162 170//170 75//75
f 162//162 77//77 170//170
f 148//148 171//171 167//167
f 148//148 76//76 171//171
f 157//157 156//156 172//172
f 157//157 173//173 158//158
f 157//157 172//172 173//173
f 158//158 173//173 5//5
f 5//5 174//174 63//63
f 5//5 63//63 155//155
f 5//5 173//173 172//172
f 5//5 155//155 18//18
f 5//5 172//172 174//174
f 156//156 140//140 175//175
f 156//156 175//175 172//172
f 174//174 176//176 63//63
f 174//174 172//172 177//177
f 174//174 177//177 176//176
f 160//160 161//161 178//178
f 160//160 178//178 140//140
f 161//161 159//159 118//118
f 161//161 118//118 150//150
f 161//161 150//150 178//178
f 140//140 179//179 175//175
f 140//140 178//178 179//179
f 27//27 153//153 77//77
f 27//27 77//77 143//143
f 159//159 75//75 118//118
f 163//163 180//180 165//165
f 163//163 164//164 180//180
f 181//181 180//180 164//164
f 181//181 64//64 182//182
f 181//181 164//164 64//64
f 181//181 182//182 183//183
f 181//181 184//184 180//180
f 181//181 183//183 184//184
f 180//180 184//184 166//166
f 180//180 166//166 165//165
f 64//64 65//65 185//185
f 64//64 186//186 182//182
f 64//64 185//185 186//186
f 63//63 176//176 185//185
f 63//63 185//185 65//65
f 63//63 145//145 155//155
f 182//182 186//186 168//168
f 182//182 168//168 183//183
f 184//184 183//183 171//171
f 184//184 171//171 76//76
f 184//184 76//76 166//166
f 183//183 168//168 167//167
f 183//183 167//167 171//171
f 186//186 185//185 150//150
f 186//186 150//150 168//168
f 176//176 177//177 187//187
f 176//176 188//188 150//150
f 176//176 150//150 185//185
f 176//176 187//187 188//188
f 170//170 77//77 75//75
f 153//153 169//169 77//77
f 172//172 175//175 177//177
f 179//179 178//178 188//188
f 179//179 188//188 187//187
f 179//179 187//187 175//175
f 178//178 150//150 188//188
f 175//175 187//187 177//177
# 372 faces, 0 coords texture

# End of File
