####
#
# OBJ File Generated by Meshlab
#
####
# Object matlab_mesh_slc_step1_link8.obj
#
# Vertices: 169
# Faces: 334
#
####
vn 0.115316 -0.013694 0.089296
v 0.492521 0.551352 0.827712
vn -0.172466 1.823158 -1.996917
v 0.022479 0.049092 -0.028331
vn 2.393840 2.317900 1.050177
v 0.492510 0.551364 0.827711
vn 0.600983 -1.232114 -0.593254
v 0.045540 -0.035471 -0.025330
vn -0.021315 0.115148 0.077510
v 0.462880 0.581033 0.826556
vn -1.713356 -5.093168 3.079559
v 0.045540 -0.035471 -0.025330
vn -1.742436 -5.068583 3.077974
v 0.045540 -0.035471 -0.025330
vn -1.756512 -5.031323 3.209896
v 0.045540 -0.035471 -0.025330
vn -1.722210 -5.095805 3.043339
v 0.045540 -0.035470 -0.025330
vn -1.726172 -5.072201 3.129847
v 0.045540 -0.035470 -0.025330
vn -1.725464 -5.083956 3.061344
v 0.045540 -0.035470 -0.025330
vn -1.740430 -5.053664 3.165733
v 0.045539 -0.035470 -0.025330
vn -1.712333 -5.105059 3.038849
v 0.045539 -0.035470 -0.025330
vn -1.729044 -5.080890 3.086730
v 0.045539 -0.035470 -0.025330
vn -1.731316 -5.073797 3.112228
v 0.045539 -0.035470 -0.025330
vn -1.722057 -5.083158 3.089896
v 0.045539 -0.035470 -0.025330
vn -1.726773 -5.082998 3.089951
v 0.045539 -0.035470 -0.025329
vn -1.724989 -5.082539 3.089584
v 0.045538 -0.035469 -0.025329
vn -1.724641 -5.082927 3.093160
v 0.045538 -0.035469 -0.025329
vn -1.729703 -5.081784 3.082119
v 0.045538 -0.035469 -0.025329
vn -1.732968 -5.069793 3.120739
v 0.045537 -0.035469 -0.025329
vn -1.727940 -5.083024 3.084893
v 0.045537 -0.035469 -0.025328
vn -1.726411 -5.081197 3.097917
v 0.045537 -0.035468 -0.025328
vn -1.723420 -5.088231 3.074545
v 0.045536 -0.035468 -0.025328
vn -1.729643 -5.077800 3.099163
v 0.045536 -0.035468 -0.025328
vn -1.728090 -5.077407 3.100857
v 0.045535 -0.035467 -0.025327
vn -1.729417 -5.078537 3.097224
v 0.045535 -0.035467 -0.025327
vn -1.729967 -5.078949 3.096145
v 0.045534 -0.035466 -0.025327
vn -1.727167 -5.078767 3.099065
v 0.045533 -0.035466 -0.025326
vn -1.726614 -5.082957 3.089729
v 0.045533 -0.035465 -0.025326
vn -1.725552 -5.082361 3.089861
v 0.045532 -0.035465 -0.025325
vn -1.731679 -5.077593 3.095599
v 0.045531 -0.035464 -0.025325
vn -1.729844 -5.075877 3.107078
v 0.045530 -0.035464 -0.025324
vn -1.726286 -5.083511 3.085541
v 0.045529 -0.035463 -0.025324
vn -1.730335 -5.077331 3.099267
v 0.045528 -0.035462 -0.025323
vn -1.729968 -5.076788 3.101282
v 0.045527 -0.035462 -0.025323
vn -1.727657 -5.080195 3.096490
v 0.045526 -0.035461 -0.025322
vn -1.727849 -5.081297 3.089202
v 0.045525 -0.035460 -0.025321
vn -1.730933 -5.075501 3.104364
v 0.045524 -0.035459 -0.025320
vn -1.729483 -5.078010 3.098220
v 0.045522 -0.035458 -0.025320
vn -1.728934 -5.079435 3.096807
v 0.045521 -0.035457 -0.025319
vn -1.728855 -5.079650 3.093034
v 0.045520 -0.035456 -0.025318
vn -1.731495 -5.075669 3.103385
v 0.045518 -0.035455 -0.025317
vn -1.729119 -5.077733 3.099649
v 0.045517 -0.035454 -0.025316
vn -1.728401 -5.080249 3.094871
v 0.045515 -0.035453 -0.025316
vn -1.728978 -5.079824 3.092727
v 0.045514 -0.035452 -0.025315
vn -1.729909 -5.077387 3.101470
v 0.045513 -0.035451 -0.025314
vn -1.727656 -5.080594 3.092754
v 0.045511 -0.035450 -0.025313
vn -1.730707 -5.077348 3.098296
v 0.045510 -0.035449 -0.025312
vn -1.730874 -5.076272 3.102533
v 0.045508 -0.035448 -0.025311
vn -1.729078 -5.078771 3.097002
v 0.045507 -0.035447 -0.025311
vn -1.730894 -5.077485 3.097453
v 0.045506 -0.035446 -0.025310
vn -1.732003 -5.074743 3.104933
v 0.045504 -0.035445 -0.025309
vn -1.729983 -5.076801 3.101472
v 0.045503 -0.035444 -0.025308
vn -1.729504 -5.078993 3.096297
v 0.045501 -0.035444 -0.025307
vn -1.730864 -5.077932 3.096501
v 0.045500 -0.035443 -0.025307
vn -1.731515 -5.075205 3.104240
v 0.045499 -0.035442 -0.025306
vn -1.729579 -5.077927 3.099296
v 0.045498 -0.035441 -0.025305
vn -1.729744 -5.079269 3.094673
v 0.045496 -0.035440 -0.025304
vn -1.729931 -5.077118 3.100405
v 0.045495 -0.035439 -0.025304
vn -1.731975 -5.076910 3.098118
v 0.045494 -0.035438 -0.025303
vn -1.731468 -5.074807 3.105844
v 0.045493 -0.035437 -0.025302
vn -1.729873 -5.078505 3.096919
v 0.045491 -0.035436 -0.025301
vn -1.729965 -5.077471 3.099110
v 0.045490 -0.035436 -0.025301
vn -1.732729 -5.075816 3.099993
v 0.045489 -0.035435 -0.025300
vn -1.731737 -5.074970 3.106238
v 0.045488 -0.035434 -0.025299
vn -1.729248 -5.078704 3.095518
v 0.045487 -0.035433 -0.025299
vn -1.731688 -5.076198 3.101660
v 0.045486 -0.035433 -0.025298
vn -1.731818 -5.076654 3.099241
v 0.045485 -0.035432 -0.025298
vn -1.732551 -5.073805 3.105896
v 0.045484 -0.035431 -0.025297
vn -1.732712 -5.074694 3.104490
v 0.045483 -0.035431 -0.025297
vn -1.729055 -5.079440 3.097840
v 0.045482 -0.035430 -0.025296
vn -1.726307 -5.082741 3.087940
v 0.045482 -0.035430 -0.025296
vn -1.732768 -5.075341 3.099707
v 0.045481 -0.035429 -0.025295
vn -1.733569 -5.071245 3.113749
v 0.045480 -0.035429 -0.025295
vn -1.732668 -5.076299 3.098246
v 0.045480 -0.035428 -0.025294
vn -1.733039 -5.073116 3.109204
v 0.045479 -0.035428 -0.025294
vn -3.105463 -3.282736 3.422876
v -0.000674 -0.001473 0.000850
vn -1.760131 -5.042910 3.130168
v 0.045475 -0.035425 -0.025292
vn -1.207846 -0.432223 -0.610361
v -0.023240 -0.007450 -0.031349
vn 1.429263 1.415260 1.145645
v 0.492487 0.551388 0.827710
vn 2.775940 2.681696 0.842392
v 0.492452 0.551425 0.827708
vn 1.487317 1.471736 1.156055
v 0.492405 0.551474 0.827706
vn 3.828787 3.611830 -0.564462
v 0.492347 0.551535 0.827703
vn 1.680082 1.656047 1.175202
v 0.492277 0.551609 0.827699
vn 3.457285 3.294716 0.148649
v 0.492196 0.551694 0.827694
vn 3.089599 2.968167 0.586228
v 0.492103 0.551792 0.827689
vn 2.799861 2.704996 0.826305
v 0.491998 0.551902 0.827684
vn 3.374272 3.225725 0.259614
v 0.491754 0.552159 0.827670
vn 2.875183 2.779198 0.768968
v 0.491300 0.552635 0.827646
vn 2.693863 2.613519 0.893539
v 0.491125 0.552819 0.827637
vn 2.593491 2.523094 0.950728
v 0.490939 0.553014 0.827627
vn 4.044176 3.731437 -2.712393
v 0.490740 0.553221 0.827616
vn 2.579789 2.520704 0.953607
v 0.490076 0.553916 0.827582
vn 3.849524 3.530709 -3.443256
v 0.489305 0.554718 0.827542
vn 3.310348 3.199544 0.321722
v 0.489025 0.555010 0.827528
vn 3.100938 3.012246 0.556607
v 0.488733 0.555313 0.827513
vn 2.967361 2.893071 0.679268
v 0.488429 0.555629 0.827498
vn 2.759256 2.703263 0.840357
v 0.488113 0.555956 0.827482
vn 2.671398 2.623163 0.896534
v 0.487785 0.556296 0.827466
vn 2.709592 2.661424 0.871387
v 0.487446 0.556647 0.827450
vn 2.619375 2.579841 0.925871
v 0.487094 0.557010 0.827432
vn 2.648364 2.609552 0.907886
v 0.486731 0.557385 0.827415
vn 2.594555 2.562084 0.938110
v 0.486356 0.557772 0.827397
vn 2.580652 2.552128 0.945041
v 0.485969 0.558170 0.827378
vn 2.593870 2.567472 0.936641
v 0.485570 0.558581 0.827360
vn 2.584889 2.561947 0.940733
v 0.485159 0.559002 0.827340
vn 2.607830 2.587435 0.926357
v 0.484736 0.559436 0.827321
vn 2.581402 2.565197 0.940580
v 0.484301 0.559881 0.827301
vn 2.618689 2.604892 0.917492
v 0.483854 0.560338 0.827281
vn 2.586526 2.577288 0.935353
v 0.483395 0.560806 0.827260
vn 2.606270 2.600040 0.922505
v 0.482924 0.561286 0.827239
vn 2.619899 2.617081 0.913056
v 0.482441 0.561778 0.827218
vn 2.604238 2.605700 0.921163
v 0.481946 0.562281 0.827196
vn 2.637735 2.642166 0.899382
v 0.481439 0.562795 0.827175
vn 2.648408 2.656631 0.891146
v 0.480919 0.563321 0.827153
vn 2.645317 2.657867 0.891613
v 0.480388 0.563858 0.827130
vn 2.706471 2.721606 0.849630
v 0.479844 0.564406 0.827108
vn 2.751731 2.769851 0.815922
v 0.479288 0.564965 0.827085
vn 2.846483 2.866063 0.740906
v 0.478719 0.565536 0.827063
vn 3.724581 3.702732 -0.551908
v 0.477550 0.566707 0.827016
vn 3.937433 3.840808 -2.715497
v 0.476969 0.567288 0.826994
vn 2.528072 2.578746 0.946571
v 0.474754 0.569500 0.826912
vn 2.519600 2.581103 0.951040
v 0.474230 0.570019 0.826893
vn 2.525439 2.590711 0.946471
v 0.473717 0.570525 0.826875
vn 2.519125 2.588342 0.949001
v 0.473217 0.571019 0.826858
vn 2.518883 2.591731 0.947810
v 0.472727 0.571501 0.826841
vn 2.524544 2.601063 0.943468
v 0.472250 0.571971 0.826825
vn 2.515511 2.595728 0.947601
v 0.471784 0.572429 0.826810
vn 2.510650 2.594475 0.948987
v 0.471330 0.572874 0.826795
vn 2.507835 2.595146 0.949699
v 0.470887 0.573307 0.826781
vn 2.503240 2.593731 0.951202
v 0.470456 0.573728 0.826767
vn 2.507874 2.601696 0.947390
v 0.470037 0.574137 0.826754
vn 2.503719 2.600754 0.949038
v 0.469630 0.574534 0.826741
vn 2.503850 2.603756 0.947813
v 0.469234 0.574919 0.826729
vn 2.499571 2.602654 0.949362
v 0.468851 0.575292 0.826718
vn 2.498405 2.604196 0.949178
v 0.468479 0.575653 0.826707
vn 2.495608 2.604263 0.949759
v 0.468119 0.576002 0.826696
vn 2.490280 2.601604 0.952107
v 0.467770 0.576339 0.826686
vn 2.501354 2.615050 0.944786
v 0.467434 0.576665 0.826676
vn 2.487640 2.604309 0.951961
v 0.467110 0.576978 0.826667
vn 2.483508 2.602360 0.953407
v 0.466797 0.577280 0.826658
vn 2.496247 2.617170 0.945570
v 0.466496 0.577570 0.826650
vn 2.483013 2.606571 0.952276
v 0.466208 0.577848 0.826642
vn 2.487955 2.613433 0.948885
v 0.465931 0.578114 0.826634
vn 2.479549 2.607203 0.952956
v 0.465666 0.578369 0.826627
vn 2.486682 2.616182 0.948266
v 0.465413 0.578612 0.826620
vn 2.483972 2.615446 0.949327
v 0.465172 0.578843 0.826614
vn 2.483812 2.616794 0.948950
v 0.464943 0.579062 0.826608
vn 2.478713 2.613634 0.951027
v 0.464726 0.579270 0.826602
vn 2.488027 2.624191 0.945701
v 0.464521 0.579466 0.826597
vn 2.467539 2.605459 0.956386
v 0.464329 0.579651 0.826592
vn 2.474907 2.614204 0.951932
v 0.464148 0.579824 0.826587
vn 2.486094 2.626457 0.945323
v 0.463979 0.579985 0.826583
vn 2.470639 2.612718 0.953419
v 0.463822 0.580135 0.826579
vn 2.476234 2.618936 0.950409
v 0.463677 0.580274 0.826575
vn 2.775862 2.928685 0.739948
v 0.463544 0.580400 0.826572
vn 2.141040 2.273165 1.097450
v 0.463424 0.580515 0.826569
vn 2.586342 2.736189 0.881103
v 0.463315 0.580619 0.826566
vn 3.553840 3.719983 -0.359735
v 0.463218 0.580711 0.826564
vn 2.648041 2.800573 0.837653
v 0.463134 0.580792 0.826562
vn 0.197317 0.214671 0.315257
v 0.463061 0.580861 0.826560
vn 3.718879 3.883769 -0.836769
v 0.463001 0.580918 0.826559
vn 3.292391 3.460336 0.137545
v 0.462953 0.580964 0.826558
vn 3.433791 3.606108 -0.113648
v 0.462916 0.580999 0.826557
vn -4.907823 -1.330980 3.690493
v -0.001332 0.001148 0.000931
vn 2.751301 2.858398 4.668114
v 0.491463 0.552464 0.827655
vn 3.187361 3.255140 4.319044
v 0.491882 0.552024 0.827677
vn 3.004189 3.024409 0.697872
v 0.478139 0.566118 0.827040
# 169 vertices, 0 vertices normals

f 1//1 2//2 3//3
f 1//1 4//4 2//2
f 1//1 3//3 5//5
f 1//1 6//6 4//4
f 1//1 7//7 6//6
f 1//1 8//8 7//7
f 1//1 9//9 8//8
f 1//1 10//10 9//9
f 1//1 11//11 10//10
f 1//1 12//12 11//11
f 1//1 13//13 12//12
f 1//1 14//14 13//13
f 1//1 15//15 14//14
f 1//1 16//16 15//15
f 1//1 17//17 16//16
f 1//1 18//18 17//17
f 1//1 19//19 18//18
f 1//1 20//20 19//19
f 1//1 21//21 20//20
f 1//1 22//22 21//21
f 1//1 23//23 22//22
f 1//1 24//24 23//23
f 1//1 25//25 24//24
f 1//1 26//26 25//25
f 1//1 27//27 26//26
f 1//1 28//28 27//27
f 1//1 29//29 28//28
f 1//1 30//30 29//29
f 1//1 31//31 30//30
f 1//1 32//32 31//31
f 1//1 33//33 32//32
f 1//1 34//34 33//33
f 1//1 35//35 34//34
f 1//1 36//36 35//35
f 1//1 37//37 36//36
f 1//1 38//38 37//37
f 1//1 39//39 38//38
f 1//1 40//40 39//39
f 1//1 41//41 40//40
f 1//1 42//42 41//41
f 1//1 43//43 42//42
f 1//1 44//44 43//43
f 1//1 45//45 44//44
f 1//1 46//46 45//45
f 1//1 47//47 46//46
f 1//1 48//48 47//47
f 1//1 49//49 48//48
f 1//1 50//50 49//49
f 1//1 51//51 50//50
f 1//1 52//52 51//51
f 1//1 53//53 52//52
f 1//1 54//54 53//53
f 1//1 55//55 54//54
f 1//1 56//56 55//55
f 1//1 57//57 56//56
f 1//1 58//58 57//57
f 1//1 59//59 58//58
f 1//1 60//60 59//59
f 1//1 61//61 60//60
f 1//1 62//62 61//61
f 1//1 63//63 62//62
f 1//1 64//64 63//63
f 1//1 65//65 64//64
f 1//1 66//66 65//65
f 1//1 67//67 66//66
f 1//1 68//68 67//67
f 1//1 69//69 68//68
f 1//1 70//70 69//69
f 1//1 71//71 70//70
f 1//1 72//72 71//71
f 1//1 73//73 72//72
f 1//1 74//74 73//73
f 1//1 75//75 74//74
f 1//1 76//76 75//75
f 1//1 77//77 76//76
f 1//1 5//5 78//78
f 1//1 79//79 77//77
f 1//1 78//78 79//79
f 2//2 4//4 80//80
f 2//2 80//80 5//5
f 2//2 81//81 3//3
f 2//2 82//82 81//81
f 2//2 83//83 82//82
f 2//2 84//84 83//83
f 2//2 85//85 84//84
f 2//2 86//86 85//85
f 2//2 87//87 86//86
f 2//2 88//88 87//87
f 2//2 89//89 88//88
f 2//2 90//90 89//89
f 2//2 91//91 90//90
f 2//2 92//92 91//91
f 2//2 93//93 92//92
f 2//2 94//94 93//93
f 2//2 95//95 94//94
f 2//2 96//96 95//95
f 2//2 97//97 96//96
f 2//2 98//98 97//97
f 2//2 99//99 98//98
f 2//2 100//100 99//99
f 2//2 101//101 100//100
f 2//2 102//102 101//101
f 2//2 103//103 102//102
f 2//2 104//104 103//103
f 2//2 105//105 104//104
f 2//2 106//106 105//105
f 2//2 107//107 106//106
f 2//2 108//108 107//107
f 2//2 109//109 108//108
f 2//2 110//110 109//109
f 2//2 111//111 110//110
f 2//2 112//112 111//111
f 2//2 113//113 112//112
f 2//2 114//114 113//113
f 2//2 115//115 114//114
f 2//2 116//116 115//115
f 2//2 117//117 116//116
f 2//2 118//118 117//117
f 2//2 119//119 118//118
f 2//2 120//120 119//119
f 2//2 121//121 120//120
f 2//2 122//122 121//121
f 2//2 123//123 122//122
f 2//2 124//124 123//123
f 2//2 125//125 124//124
f 2//2 126//126 125//125
f 2//2 127//127 126//126
f 2//2 128//128 127//127
f 2//2 129//129 128//128
f 2//2 130//130 129//129
f 2//2 131//131 130//130
f 2//2 132//132 131//131
f 2//2 133//133 132//132
f 2//2 134//134 133//133
f 2//2 135//135 134//134
f 2//2 136//136 135//135
f 2//2 137//137 136//136
f 2//2 138//138 137//137
f 2//2 139//139 138//138
f 2//2 140//140 139//139
f 2//2 141//141 140//140
f 2//2 142//142 141//141
f 2//2 143//143 142//142
f 2//2 144//144 143//143
f 2//2 145//145 144//144
f 2//2 146//146 145//145
f 2//2 147//147 146//146
f 2//2 148//148 147//147
f 2//2 149//149 148//148
f 2//2 150//150 149//149
f 2//2 151//151 150//150
f 2//2 152//152 151//151
f 2//2 153//153 152//152
f 2//2 154//154 153//153
f 2//2 155//155 154//154
f 2//2 156//156 155//155
f 2//2 157//157 156//156
f 2//2 158//158 157//157
f 2//2 159//159 158//158
f 2//2 160//160 159//159
f 2//2 161//161 160//160
f 2//2 162//162 161//161
f 2//2 163//163 162//162
f 2//2 164//164 163//163
f 2//2 165//165 164//164
f 2//2 5//5 165//165
f 4//4 6//6 80//80
f 80//80 6//6 7//7
f 80//80 7//7 8//8
f 80//80 8//8 9//9
f 80//80 9//9 10//10
f 80//80 10//10 11//11
f 80//80 11//11 12//12
f 80//80 12//12 13//13
f 80//80 13//13 14//14
f 80//80 14//14 15//15
f 80//80 15//15 16//16
f 80//80 16//16 17//17
f 80//80 17//17 18//18
f 80//80 18//18 19//19
f 80//80 19//19 20//20
f 80//80 20//20 21//21
f 80//80 21//21 22//22
f 80//80 22//22 23//23
f 80//80 23//23 24//24
f 80//80 24//24 25//25
f 80//80 25//25 26//26
f 80//80 26//26 27//27
f 80//80 27//27 28//28
f 80//80 28//28 29//29
f 80//80 29//29 30//30
f 80//80 30//30 31//31
f 80//80 31//31 32//32
f 80//80 32//32 33//33
f 80//80 33//33 34//34
f 80//80 34//34 35//35
f 80//80 35//35 36//36
f 80//80 36//36 37//37
f 80//80 37//37 38//38
f 80//80 38//38 39//39
f 80//80 39//39 40//40
f 80//80 40//40 41//41
f 80//80 41//41 42//42
f 80//80 42//42 43//43
f 80//80 43//43 44//44
f 80//80 44//44 45//45
f 80//80 45//45 46//46
f 80//80 46//46 47//47
f 80//80 47//47 48//48
f 80//80 48//48 49//49
f 80//80 49//49 50//50
f 80//80 50//50 51//51
f 80//80 51//51 52//52
f 80//80 52//52 53//53
f 80//80 53//53 54//54
f 80//80 54//54 55//55
f 80//80 55//55 56//56
f 80//80 56//56 57//57
f 80//80 57//57 58//58
f 80//80 58//58 59//59
f 80//80 59//59 60//60
f 80//80 60//60 61//61
f 80//80 61//61 62//62
f 80//80 62//62 63//63
f 80//80 63//63 64//64
f 80//80 64//64 65//65
f 80//80 65//65 66//66
f 80//80 66//66 67//67
f 80//80 67//67 68//68
f 80//80 68//68 69//69
f 80//80 69//69 70//70
f 80//80 70//70 71//71
f 80//80 71//71 72//72
f 80//80 72//72 73//73
f 80//80 73//73 74//74
f 80//80 74//74 75//75
f 80//80 75//75 76//76
f 80//80 76//76 77//77
f 80//80 77//77 79//79
f 80//80 79//79 78//78
f 80//80 78//78 166//166
f 80//80 166//166 5//5
f 3//3 81//81 90//90
f 3//3 90//90 91//91
f 3//3 91//91 92//92
f 3//3 92//92 94//94
f 3//3 94//94 139//139
f 3//3 139//139 140//140
f 3//3 140//140 141//141
f 3//3 141//141 142//142
f 3//3 142//142 143//143
f 3//3 143//143 144//144
f 3//3 144//144 145//145
f 3//3 145//145 146//146
f 3//3 146//146 147//147
f 3//3 147//147 148//148
f 3//3 148//148 149//149
f 3//3 149//149 150//150
f 3//3 150//150 151//151
f 3//3 151//151 152//152
f 3//3 152//152 153//153
f 3//3 153//153 154//154
f 3//3 154//154 155//155
f 3//3 155//155 156//156
f 3//3 156//156 5//5
f 81//81 82//82 90//90
f 82//82 83//83 90//90
f 83//83 84//84 90//90
f 84//84 85//85 90//90
f 85//85 86//86 90//90
f 86//86 87//87 90//90
f 87//87 88//88 167//167
f 87//87 167//167 90//90
f 88//88 168//168 167//167
f 88//88 89//89 168//168
f 168//168 89//89 167//167
f 89//89 90//90 167//167
f 92//92 93//93 94//94
f 94//94 95//95 96//96
f 94//94 96//96 97//97
f 94//94 97//97 98//98
f 94//94 98//98 99//99
f 94//94 99//99 100//100
f 94//94 100//100 101//101
f 94//94 101//101 102//102
f 94//94 102//102 103//103
f 94//94 103//103 104//104
f 94//94 104//104 105//105
f 94//94 105//105 106//106
f 94//94 106//106 123//123
f 94//94 123//123 124//124
f 94//94 124//124 125//125
f 94//94 125//125 126//126
f 94//94 126//126 127//127
f 94//94 127//127 128//128
f 94//94 128//128 129//129
f 94//94 129//129 130//130
f 94//94 130//130 131//131
f 94//94 131//131 132//132
f 94//94 132//132 133//133
f 94//94 133//133 134//134
f 94//94 134//134 135//135
f 94//94 135//135 136//136
f 94//94 136//136 137//137
f 94//94 137//137 138//138
f 94//94 138//138 139//139
f 106//106 107//107 123//123
f 107//107 108//108 123//123
f 108//108 109//109 123//123
f 109//109 110//110 123//123
f 110//110 111//111 123//123
f 111//111 112//112 123//123
f 112//112 113//113 123//123
f 113//113 114//114 123//123
f 114//114 115//115 123//123
f 115//115 116//116 123//123
f 116//116 117//117 123//123
f 117//117 118//118 123//123
f 118//118 119//119 123//123
f 119//119 120//120 123//123
f 120//120 169//169 123//123
f 120//120 121//121 169//169
f 169//169 121//121 123//123
f 121//121 122//122 123//123
f 156//156 157//157 5//5
f 157//157 158//158 5//5
f 158//158 159//159 5//5
f 159//159 160//160 5//5
f 160//160 161//161 5//5
f 161//161 162//162 5//5
f 162//162 163//163 5//5
f 163//163 164//164 5//5
f 164//164 165//165 5//5
f 5//5 166//166 78//78
# 334 faces, 0 coords texture

# End of File
