####
#
# OBJ File Generated by Meshlab
#
####
# Object matlab_mesh_step24_link3.obj
#
# Vertices: 215
# Faces: 426
#
####
vn -0.227862 -0.697437 6.234398
v 0.039447 0.494422 0.941863
vn -0.115529 -0.736053 6.234314
v 0.040938 0.494116 0.941863
vn 0.222991 1.010811 5.985450
v 0.041064 0.494793 0.941921
vn 0.160234 1.047632 5.961999
v 0.039574 0.495099 0.941921
vn -0.375509 -0.359331 6.236239
v -0.027861 0.504416 0.939496
vn -1.410276 -2.816543 2.830990
v -0.056285 0.271800 0.905576
vn 0.901707 -0.878982 6.044693
v 0.041735 0.493967 0.941856
vn -0.171195 -1.205654 6.157488
v -0.056264 0.271799 0.905577
vn 6.171038 -1.180478 -0.023395
v 0.138714 0.481891 0.904037
vn 6.116141 -1.418155 -0.060208
v 0.094469 0.256910 0.862628
vn 6.164405 -1.141465 -0.313077
v 0.138716 0.481914 0.903762
vn 6.170416 -1.184705 0.005545
v 0.138698 0.481813 0.904475
vn 4.871009 1.964801 0.389482
v 0.138840 0.482567 0.904096
vn 4.901568 1.928069 0.547045
v 0.138825 0.482490 0.904533
vn 4.856573 1.725970 -0.375496
v 0.138842 0.482591 0.903820
vn 2.602886 -3.394874 0.410748
v 0.094409 0.256609 0.864140
vn 6.094255 -1.498969 -0.053559
v 0.094425 0.256686 0.863702
vn 2.797310 -3.904738 -0.609269
v 0.094427 0.256710 0.863427
vn 3.192608 -3.370445 -1.002689
v 0.094471 0.256933 0.862352
vn 4.225453 -1.109968 2.874746
v 0.138654 0.481590 0.905550
vn 3.515584 0.894299 2.140829
v 0.138781 0.482266 0.905608
vn 2.541730 -3.971009 -0.449904
v 0.094412 0.256632 0.863865
vn 1.098465 1.530005 5.138539
v 0.041862 0.494644 0.941914
vn 0.973839 -2.072077 5.770784
v -0.018667 0.267123 0.905559
vn 1.281968 -3.148635 4.115432
v 0.086420 0.257614 0.882920
vn 2.224631 -0.609284 5.807753
v 0.114804 0.490225 0.916821
vn -0.220517 -1.836696 5.932565
v -0.030313 0.268507 0.905577
vn -0.039941 -3.500786 3.315908
v -0.018684 0.267122 0.905561
vn 2.345963 -1.001749 5.740667
v 0.114831 0.490214 0.916808
vn 2.501343 -3.879545 1.315924
v 0.086449 0.257608 0.882878
vn 2.350295 -3.703403 1.670816
v 0.086440 0.257609 0.882899
vn 1.905765 -3.459165 2.617397
v 0.086430 0.257611 0.882913
vn -0.536680 -4.981195 2.539312
v -0.018699 0.267123 0.905561
vn -0.773422 -6.211899 -0.532061
v -0.030320 0.268474 0.903224
vn -0.671025 -6.237580 -0.239987
v -0.018691 0.267088 0.903209
vn -0.675052 -6.243590 -0.031247
v -0.018706 0.267090 0.903221
vn 0.536094 2.612811 5.688698
v 0.040371 0.494950 0.941914
vn 0.706406 3.678311 4.489883
v 0.010536 0.506460 0.939384
vn 0.239078 1.960432 5.964172
v -0.026894 0.511121 0.939401
vn 0.246547 2.693409 5.160977
v -0.026987 0.511136 0.939400
vn 0.213048 3.111431 3.679750
v -0.027059 0.511146 0.939398
vn 0.395853 3.144972 5.231549
v -0.015341 0.509747 0.939384
vn 3.700563 5.032621 0.616906
v 0.116225 0.501211 0.890805
vn 3.598627 5.071201 0.887831
v 0.116093 0.500135 0.898287
vn 3.643715 5.023930 0.980514
v 0.115698 0.496905 0.916668
vn 3.691402 4.479924 2.011177
v 0.115664 0.496925 0.916691
vn 1.304160 4.395881 4.295225
v 0.010629 0.506434 0.939385
vn 0.968776 3.933815 4.603921
v 0.010579 0.506448 0.939385
vn 2.018631 2.855286 3.393860
v 0.115583 0.496964 0.916730
vn 1.443938 4.488198 3.048605
v 0.115564 0.496969 0.916734
vn 3.017921 2.805969 3.242307
v 0.115633 0.496942 0.916709
vn 2.486121 2.615271 3.368598
v 0.115606 0.496955 0.916722
vn 2.440706 -3.353212 -1.626565
v 0.062601 0.282613 0.732804
vn 6.069475 -1.011884 -1.138488
v 0.094597 0.257610 0.862410
vn -0.640949 -6.156044 -1.075793
v 0.062202 0.279364 0.751309
vn -0.758199 -6.146459 -1.059148
v 0.050576 0.280748 0.751335
vn -1.607999 -5.947468 -0.369654
v -0.056292 0.271767 0.903236
vn -2.603791 -5.248153 -0.925568
v -0.080502 0.293548 0.773984
vn -0.779386 -6.150143 -1.022981
v -0.054531 0.290255 0.773984
vn -1.763269 -5.915527 -0.653362
v -0.056950 0.272326 0.899947
vn -2.600319 -5.314707 -0.782767
v -0.080634 0.292465 0.781527
vn 5.924858 -0.153092 -2.067749
v 0.100228 0.510936 0.791074
vn 2.829771 -0.081761 -4.128450
v 0.063401 0.289343 0.732700
vn 5.914879 -0.160622 -2.093496
v 0.100165 0.510982 0.790891
vn 5.849312 0.555316 -1.955711
v 0.091775 0.521946 0.766666
vn 3.661656 5.055557 0.440461
v 0.116191 0.501241 0.890765
vn 4.774250 2.146276 -1.489391
v 0.091764 0.521958 0.766640
vn 3.777394 4.994711 0.066028
v 0.091772 0.521992 0.769005
vn 1.657444 -1.942754 -2.827783
v 0.062599 0.282616 0.732798
vn 5.925081 -0.631153 -1.979905
v 0.063403 0.289343 0.732706
vn 0.717877 6.179492 0.876823
v -0.024018 0.530606 0.810562
vn 0.663603 6.182203 0.904554
v -0.045854 0.535140 0.795603
vn 0.652829 6.181084 0.920000
v -0.047137 0.534402 0.801511
vn 0.693442 6.185145 0.858083
v -0.046256 0.535228 0.795301
vn 0.527810 6.173250 1.017438
v -0.026714 0.514403 0.920879
vn 0.704429 6.158444 1.021792
v -0.026663 0.514394 0.920905
vn 0.743364 6.158997 0.993225
v -0.015085 0.513018 0.920864
vn 0.729746 6.203714 0.662801
v 0.054182 0.526677 0.768990
vn 0.776280 6.188482 0.745294
v 0.065811 0.525292 0.768974
vn 0.776435 6.159197 0.966800
v 0.089989 0.503516 0.898204
vn 0.779295 6.169821 0.896881
v 0.090121 0.504599 0.890661
vn 0.689200 6.186199 0.853404
v -0.046642 0.535311 0.795010
vn 0.646836 6.181678 0.920209
v -0.047490 0.534469 0.801310
vn 0.683879 6.187442 0.848203
v -0.047011 0.535391 0.794731
vn 0.637741 6.182573 0.920518
v -0.047827 0.534532 0.801119
vn 0.678750 6.188625 0.843197
v -0.047364 0.535466 0.794464
vn 0.629128 6.183415 0.920774
v -0.048148 0.534592 0.800936
vn 0.673180 6.189883 0.837803
v -0.047701 0.535538 0.794209
vn 0.619904 6.184276 0.921202
v -0.048452 0.534649 0.800762
vn 0.668459 6.190934 0.833387
v -0.048021 0.535605 0.793965
vn 0.610556 6.185148 0.921569
v -0.048739 0.534702 0.800596
vn 0.662908 6.192132 0.828155
v -0.048324 0.535669 0.793733
vn 0.600373 6.186048 0.922157
v -0.049010 0.534752 0.800440
vn 0.657199 6.193346 0.822944
v -0.048611 0.535729 0.793514
vn 0.589744 6.186979 0.922734
v -0.049264 0.534799 0.800292
vn 0.651238 6.194572 0.817612
v -0.048881 0.535785 0.793306
vn 0.577164 6.188012 0.923653
v -0.049502 0.534842 0.800153
vn 0.645088 6.195803 0.812280
v -0.049135 0.535838 0.793109
vn 0.562152 6.189218 0.924746
v -0.049723 0.534882 0.800023
vn 0.637516 6.197267 0.805780
v -0.049373 0.535887 0.792925
vn 0.629971 6.198705 0.799475
v -0.049594 0.535932 0.792753
vn 0.547254 6.190370 0.925902
v -0.049928 0.534918 0.799902
vn 0.621080 6.200322 0.792132
v -0.049798 0.535973 0.792592
vn 0.530312 6.191588 0.927450
v -0.050116 0.534951 0.799789
vn 0.610787 6.202127 0.783951
v -0.049986 0.536011 0.792443
vn 0.508863 6.193048 0.929498
v -0.050288 0.534981 0.799686
vn 0.598613 6.204161 0.774498
v -0.050157 0.536045 0.792306
vn 0.483845 6.194653 0.931921
v -0.050443 0.535008 0.799591
vn 0.583820 6.206526 0.763143
v -0.050312 0.536075 0.792181
vn 0.453293 6.196419 0.935111
v -0.050581 0.535032 0.799505
vn 0.567756 6.208946 0.751507
v -0.050450 0.536102 0.792068
vn 0.544710 6.212069 0.735055
v -0.050572 0.536125 0.791967
vn 0.413580 6.198451 0.939377
v -0.050703 0.535052 0.799428
vn 0.516026 6.215657 0.715666
v -0.050677 0.536145 0.791877
vn 0.364494 6.200598 0.944706
v -0.050809 0.535069 0.799360
vn 0.668376 6.232973 0.211024
v 0.054164 0.526681 0.768967
vn 0.124600 6.188059 1.044647
v -0.026745 0.514408 0.920860
vn 0.475465 6.219831 0.690029
v -0.050766 0.536161 0.791800
vn 0.291583 6.202758 0.953223
v -0.050897 0.535083 0.799300
vn 3.430796 5.182300 0.895136
v 0.116059 0.500163 0.898265
vn 0.412235 6.224671 0.653751
v -0.050838 0.536173 0.791734
vn 0.176654 6.204279 0.966515
v -0.050970 0.535094 0.799250
vn 3.449421 5.189333 0.454510
v 0.116160 0.501265 0.890731
vn 3.156855 5.348037 0.915910
v 0.116029 0.500185 0.898246
vn 0.295013 6.228572 0.593804
v -0.050893 0.536182 0.791680
vn -0.020107 6.201480 0.985123
v -0.051025 0.535101 0.799208
vn 0.624388 5.016118 3.001288
v -0.015420 0.509759 0.939382
vn 3.405960 5.275534 0.215855
v 0.092429 0.521433 0.772287
vn 3.020621 5.442929 0.532476
v 0.116134 0.501284 0.890702
vn 2.755556 5.556228 0.941186
v 0.116002 0.500203 0.898230
vn 0.661816 4.291770 3.821216
v 0.010499 0.506469 0.939382
vn -0.026200 3.094630 3.623187
v -0.027111 0.511152 0.939394
vn -0.715855 -0.322606 6.197146
v -0.027912 0.504423 0.939493
vn -0.179855 -5.972466 1.673302
v 0.082532 0.257964 0.883753
vn 0.019794 6.215327 0.490205
v -0.050932 0.536188 0.791638
vn -0.418542 6.179526 0.980606
v -0.051064 0.535106 0.799175
vn 0.733941 6.045118 1.489572
v -0.015482 0.509767 0.939379
vn 0.761120 6.147957 1.047709
v -0.015024 0.513006 0.920889
vn -0.465495 6.157514 1.116580
v -0.051461 0.531855 0.817690
vn -0.960751 2.912708 3.311293
v -0.027141 0.511155 0.939390
vn 2.363223 5.527204 0.372437
v 0.091761 0.522000 0.768974
vn 2.517049 5.714145 0.468386
v 0.092419 0.521441 0.772261
vn 2.366242 5.744681 0.638536
v 0.116111 0.501297 0.890679
vn 2.140699 5.807233 0.968793
v 0.115979 0.500215 0.898215
vn 3.706619 2.548190 -1.986190
v 0.091754 0.521966 0.766621
vn 0.729003 5.636577 2.323371
v 0.010469 0.506475 0.939379
vn 0.782744 6.141884 1.068678
v 0.010865 0.509726 0.920864
vn 1.287488 6.044960 0.970426
v 0.115960 0.500223 0.898204
vn -0.748579 -6.018036 -1.565245
v 0.050972 0.283999 0.732820
vn -0.548992 -4.466129 2.870498
v -0.030314 0.268506 0.905576
vn -2.024007 -0.150673 5.753591
v -0.027942 0.504428 0.939488
vn -1.990598 -0.583516 5.666024
v -0.055817 0.275645 0.906137
vn -1.436341 5.714254 0.364178
v -0.050955 0.536190 0.791608
vn -2.137320 5.605244 0.853165
v -0.051087 0.535107 0.799151
vn 0.555040 6.258283 -0.051361
v -0.047054 0.535837 0.790768
vn 0.757785 6.219075 0.279413
v 0.065779 0.525298 0.768952
vn -2.508794 5.233225 1.250731
v -0.051483 0.531854 0.817681
vn -1.182020 6.034596 1.262662
v -0.027799 0.511714 0.936101
vn 1.412802 6.036848 0.776257
v 0.116092 0.501306 0.890661
vn 1.555371 5.970021 0.224664
v 0.091750 0.522004 0.768952
vn 1.813186 2.724731 -2.608844
v 0.091743 0.521971 0.766612
vn -0.705979 -2.865765 -3.653995
v 0.025013 0.287293 0.732813
vn -0.425905 -3.501775 -4.079477
v 0.050985 0.283999 0.732813
vn -0.782664 -6.141912 -1.068571
v 0.024625 0.284040 0.751335
vn -2.135630 -5.533683 -1.232450
v -0.080106 0.296801 0.755454
vn -0.870178 -6.020093 -1.511801
v -0.076205 0.296449 0.754614
vn -0.766148 -6.227083 -0.180266
v -0.030321 0.268473 0.903236
vn 2.652470 0.459972 -5.372164
v 0.091275 0.518126 0.766051
vn -4.875103 0.124788 3.217958
v -0.055822 0.275648 0.906134
vn -3.264509 -2.199734 1.684698
v -0.056290 0.271801 0.905573
vn -6.132857 -0.094827 1.109832
v -0.080627 0.292498 0.783867
vn -5.230698 -1.799075 0.291573
v -0.080628 0.292498 0.783861
vn -5.205223 -2.017463 0.697834
v -0.056948 0.272361 0.902282
vn -6.118517 0.553273 1.317596
v -0.056480 0.276208 0.902843
vn -6.165061 0.696291 0.749879
v -0.052290 0.525128 0.817771
vn -6.206310 0.675908 0.549708
v -0.080159 0.296345 0.784422
vn -6.105359 0.649056 1.331242
v -0.028610 0.504991 0.936192
vn -3.010087 2.423201 2.401742
v -0.027152 0.511154 0.939385
vn -4.508063 0.347183 3.417604
v -0.027952 0.504432 0.939483
vn -0.277026 6.101231 -0.640459
v -0.050962 0.536157 0.789268
vn -2.169258 2.232135 -1.798403
v -0.050968 0.536155 0.789262
vn -3.809805 3.467200 0.010277
v -0.050961 0.536188 0.791590
vn -4.841398 3.002218 0.358442
v -0.051093 0.535105 0.799136
vn 0.362620 6.151172 -0.899770
v -0.047061 0.535804 0.788428
vn 0.741806 5.950125 -1.349048
v 0.065772 0.525265 0.766612
vn 0.607355 5.967181 -1.317516
v 0.054157 0.526648 0.766627
vn -4.915233 2.690738 0.772240
v -0.051489 0.531850 0.817673
vn -4.609192 2.990080 1.430166
v -0.027810 0.511713 0.936094
vn -2.467837 -1.445182 -2.013232
v -0.080107 0.296803 0.755450
vn -5.167998 -1.979666 -0.382596
v -0.080503 0.293548 0.773988
vn -0.076016 -0.584051 -6.235274
v 0.036628 0.285910 0.732798
vn -0.606843 0.475992 -6.147875
v 0.025814 0.294020 0.732716
vn -1.297260 0.271872 -6.138360
v -0.076204 0.296450 0.754610
vn -3.069828 -5.294769 0.021866
v -0.056297 0.271768 0.903246
vn -3.485079 -5.127882 -0.175083
v -0.056955 0.272328 0.899955
vn -4.362476 -2.502145 -0.226761
v -0.080635 0.292465 0.781534
vn 0.045347 0.403150 -6.250108
v 0.037429 0.292637 0.732700
vn -1.347626 -0.344886 -6.113217
v -0.075404 0.303172 0.754512
vn -3.726131 0.896843 -3.038618
v -0.051437 0.532309 0.788702
vn -1.215172 1.033888 -6.077240
v -0.047534 0.531956 0.787861
vn -3.601468 0.632707 -3.085818
v -0.079306 0.303525 0.755353
vn -0.558523 0.964226 -6.147822
v 0.053685 0.522801 0.766065
vn 0.105650 0.893613 -6.218413
v 0.065282 0.521420 0.766049
vn -0.518304 3.538749 -3.893161
v -0.047066 0.535802 0.788422
vn 0.401918 3.384810 -4.159214
v 0.065750 0.525267 0.766610
vn -0.152900 3.297857 -3.938533
v 0.054154 0.526648 0.766626
vn 0.566446 0.832607 -6.184993
v 0.091264 0.518126 0.766049
vn 0.660828 3.377046 -3.407032
v 0.091732 0.521972 0.766610
vn -6.238053 0.747846 0.055478
v -0.079828 0.299220 0.783763
vn -6.237622 0.751412 0.057902
v -0.079359 0.303067 0.784324
vn -0.225635 -0.135143 1.115701
v -0.079366 0.303034 0.781997
vn -6.238177 0.750611 0.003271
v -0.079835 0.299187 0.781436
vn -6.233866 0.785267 0.003754
v -0.051100 0.535072 0.796808
vn -6.234611 0.779406 0.005815
v -0.051496 0.531817 0.815346
vn -6.238114 0.751177 -0.001410
v -0.079703 0.300271 0.773890
# 215 vertices, 0 vertices normals

f 1//1 2//2 3//3
f 1//1 4//4 5//5
f 1//1 3//3 4//4
f 1//1 5//5 6//6
f 1//1 6//6 2//2
f 2//2 7//7 3//3
f 2//2 8//8 7//7
f 2//2 6//6 8//8
f 9//9 10//10 11//11
f 9//9 12//12 10//10
f 9//9 13//13 14//14
f 9//9 14//14 12//12
f 9//9 11//11 15//15
f 9//9 15//15 13//13
f 10//10 12//12 16//16
f 10//10 17//17 18//18
f 10//10 16//16 17//17
f 10//10 19//19 11//11
f 10//10 18//18 19//19
f 12//12 20//20 16//16
f 12//12 14//14 21//21
f 12//12 21//21 20//20
f 17//17 16//16 22//22
f 17//17 22//22 18//18
f 7//7 23//23 3//3
f 7//7 24//24 25//25
f 7//7 26//26 23//23
f 7//7 8//8 27//27
f 7//7 27//27 28//28
f 7//7 28//28 24//24
f 7//7 25//25 26//26
f 20//20 21//21 29//29
f 20//20 30//30 16//16
f 20//20 29//29 25//25
f 20//20 31//31 30//30
f 20//20 32//32 31//31
f 20//20 25//25 32//32
f 16//16 30//30 33//33
f 16//16 34//34 22//22
f 16//16 35//35 34//34
f 16//16 33//33 36//36
f 16//16 36//36 35//35
f 4//4 3//3 37//37
f 4//4 37//37 38//38
f 4//4 39//39 40//40
f 4//4 40//40 41//41
f 4//4 42//42 39//39
f 4//4 38//38 42//42
f 4//4 41//41 5//5
f 3//3 23//23 37//37
f 13//13 15//15 43//43
f 13//13 43//43 44//44
f 13//13 44//44 45//45
f 13//13 45//45 46//46
f 13//13 46//46 14//14
f 14//14 46//46 21//21
f 37//37 23//23 38//38
f 23//23 47//47 48//48
f 23//23 48//48 38//38
f 23//23 26//26 49//49
f 23//23 49//49 50//50
f 23//23 50//50 47//47
f 21//21 46//46 51//51
f 21//21 51//51 52//52
f 21//21 26//26 29//29
f 21//21 52//52 26//26
f 11//11 19//19 15//15
f 19//19 18//18 53//53
f 19//19 54//54 15//15
f 19//19 53//53 54//54
f 18//18 22//22 53//53
f 22//22 55//55 53//53
f 22//22 56//56 55//55
f 22//22 34//34 57//57
f 22//22 58//58 59//59
f 22//22 59//59 56//56
f 22//22 57//57 60//60
f 22//22 61//61 58//58
f 22//22 60//60 61//61
f 62//62 15//15 63//63
f 62//62 64//64 65//65
f 62//62 65//65 15//15
f 62//62 63//63 64//64
f 15//15 54//54 53//53
f 15//15 66//66 43//43
f 15//15 65//65 67//67
f 15//15 68//68 66//66
f 15//15 67//67 68//68
f 15//15 53//53 69//69
f 15//15 70//70 63//63
f 15//15 69//69 70//70
f 64//64 63//63 65//65
f 71//71 72//72 73//73
f 71//71 74//74 72//72
f 71//71 73//73 75//75
f 71//71 76//76 77//77
f 71//71 78//78 74//74
f 71//71 75//75 76//76
f 71//71 79//79 78//78
f 71//71 77//77 80//80
f 71//71 81//81 79//79
f 71//71 80//80 81//81
f 72//72 74//74 73//73
f 74//74 82//82 83//83
f 74//74 83//83 73//73
f 74//74 78//78 82//82
f 82//82 84//84 85//85
f 82//82 85//85 83//83
f 82//82 78//78 84//84
f 84//84 86//86 87//87
f 84//84 87//87 85//85
f 84//84 78//78 86//86
f 73//73 83//83 75//75
f 86//86 88//88 89//89
f 86//86 89//89 87//87
f 86//86 78//78 88//88
f 83//83 85//85 75//75
f 88//88 90//90 91//91
f 88//88 91//91 89//89
f 88//88 78//78 90//90
f 85//85 87//87 75//75
f 90//90 92//92 93//93
f 90//90 93//93 91//91
f 90//90 78//78 92//92
f 87//87 89//89 75//75
f 92//92 94//94 95//95
f 92//92 95//95 93//93
f 92//92 78//78 94//94
f 89//89 91//91 75//75
f 94//94 96//96 97//97
f 94//94 97//97 95//95
f 94//94 78//78 96//96
f 91//91 93//93 75//75
f 96//96 98//98 99//99
f 96//96 99//99 97//97
f 96//96 78//78 98//98
f 93//93 95//95 75//75
f 98//98 100//100 99//99
f 98//98 78//78 100//100
f 95//95 97//97 75//75
f 100//100 101//101 102//102
f 100//100 102//102 99//99
f 100//100 78//78 101//101
f 97//97 99//99 75//75
f 101//101 103//103 104//104
f 101//101 104//104 102//102
f 101//101 78//78 103//103
f 99//99 102//102 75//75
f 103//103 105//105 106//106
f 103//103 106//106 104//104
f 103//103 78//78 105//105
f 102//102 104//104 75//75
f 105//105 107//107 108//108
f 105//105 108//108 106//106
f 105//105 78//78 107//107
f 104//104 106//106 75//75
f 107//107 109//109 110//110
f 107//107 110//110 108//108
f 107//107 78//78 109//109
f 106//106 108//108 75//75
f 109//109 111//111 110//110
f 109//109 78//78 111//111
f 108//108 110//110 75//75
f 111//111 112//112 113//113
f 111//111 113//113 110//110
f 111//111 78//78 112//112
f 110//110 113//113 75//75
f 112//112 114//114 115//115
f 112//112 115//115 113//113
f 112//112 78//78 116//116
f 112//112 116//116 114//114
f 113//113 115//115 117//117
f 113//113 117//117 75//75
f 114//114 118//118 119//119
f 114//114 119//119 115//115
f 114//114 116//116 118//118
f 115//115 119//119 117//117
f 43//43 66//66 120//120
f 43//43 120//120 44//44
f 47//47 50//50 48//48
f 44//44 120//120 46//46
f 44//44 46//46 45//45
f 118//118 121//121 122//122
f 118//118 122//122 119//119
f 118//118 116//116 121//121
f 39//39 42//42 40//40
f 119//119 122//122 117//117
f 66//66 123//123 124//124
f 66//66 124//124 120//120
f 66//66 68//68 123//123
f 48//48 50//50 38//38
f 120//120 124//124 51//51
f 120//120 51//51 46//46
f 30//30 31//31 33//33
f 29//29 26//26 25//25
f 121//121 125//125 126//126
f 121//121 126//126 122//122
f 121//121 116//116 125//125
f 40//40 42//42 127//127
f 40//40 127//127 41//41
f 122//122 126//126 117//117
f 123//123 128//128 129//129
f 123//123 129//129 130//130
f 123//123 68//68 128//128
f 123//123 130//130 124//124
f 42//42 38//38 131//131
f 42//42 131//131 127//127
f 38//38 50//50 131//131
f 124//124 130//130 52//52
f 124//124 52//52 51//51
f 65//65 63//63 67//67
f 5//5 41//41 132//132
f 5//5 133//133 6//6
f 5//5 132//132 133//133
f 24//24 28//28 25//25
f 31//31 28//28 33//33
f 31//31 134//134 28//28
f 31//31 32//32 134//134
f 26//26 52//52 49//49
f 125//125 135//135 136//136
f 125//125 136//136 126//126
f 125//125 116//116 135//135
f 76//76 41//41 137//137
f 76//76 138//138 77//77
f 76//76 75//75 132//132
f 76//76 132//132 41//41
f 76//76 137//137 138//138
f 41//41 127//127 137//137
f 126//126 136//136 139//139
f 126//126 139//139 140//140
f 126//126 140//140 117//117
f 128//128 68//68 141//141
f 128//128 141//141 129//129
f 129//129 142//142 143//143
f 129//129 143//143 144//144
f 129//129 141//141 142//142
f 129//129 144//144 130//130
f 68//68 67//67 145//145
f 68//68 145//145 141//141
f 138//138 127//127 146//146
f 138//138 147//147 148//148
f 138//138 137//137 127//127
f 138//138 146//146 147//147
f 138//138 80//80 77//77
f 138//138 148//148 80//80
f 127//127 131//131 146//146
f 131//131 50//50 146//146
f 130//130 144//144 49//49
f 130//130 49//49 52//52
f 55//55 149//149 53//53
f 55//55 56//56 149//149
f 67//67 63//63 145//145
f 8//8 6//6 27//27
f 27//27 6//6 150//150
f 27//27 150//150 28//28
f 133//133 132//132 140//140
f 133//133 151//151 152//152
f 133//133 152//152 6//6
f 133//133 140//140 151//151
f 28//28 134//134 25//25
f 28//28 150//150 33//33
f 134//134 32//32 25//25
f 135//135 153//153 154//154
f 135//135 155//155 153//153
f 135//135 116//116 155//155
f 135//135 154//154 136//136
f 78//78 79//79 156//156
f 78//78 156//156 116//116
f 75//75 117//117 140//140
f 75//75 140//140 132//132
f 136//136 154//154 157//157
f 136//136 157//157 139//139
f 139//139 157//157 158//158
f 139//139 158//158 140//140
f 142//142 141//141 159//159
f 142//142 159//159 143//143
f 143//143 159//159 148//148
f 143//143 148//148 144//144
f 79//79 141//141 160//160
f 79//79 81//81 159//159
f 79//79 159//159 141//141
f 79//79 160//160 156//156
f 141//141 145//145 161//161
f 141//141 161//161 160//160
f 147//147 146//146 50//50
f 147//147 50//50 148//148
f 144//144 148//148 50//50
f 144//144 50//50 49//49
f 149//149 56//56 162//162
f 149//149 162//162 163//163
f 149//149 163//163 53//53
f 164//164 56//56 58//58
f 164//164 165//165 166//166
f 164//164 58//58 165//165
f 164//164 166//166 162//162
f 164//164 162//162 56//56
f 56//56 59//59 58//58
f 34//34 35//35 167//167
f 34//34 167//167 57//57
f 53//53 163//163 69//69
f 35//35 36//36 167//167
f 70//70 69//69 63//63
f 145//145 168//168 161//161
f 145//145 63//63 168//168
f 6//6 152//152 169//169
f 6//6 57//57 167//167
f 6//6 167//167 150//150
f 6//6 170//170 57//57
f 6//6 169//169 170//170
f 150//150 167//167 36//36
f 150//150 36//36 33//33
f 171//171 172//172 173//173
f 171//171 173//173 174//174
f 171//171 175//175 176//176
f 171//171 176//176 172//172
f 171//171 177//177 175//175
f 171//171 174//174 177//177
f 151//151 140//140 178//178
f 151//151 179//179 152//152
f 151//151 178//178 179//179
f 152//152 179//179 169//169
f 153//153 155//155 180//180
f 153//153 180//180 181//181
f 153//153 182//182 183//183
f 153//153 183//183 154//154
f 153//153 181//181 182//182
f 155//155 116//116 184//184
f 155//155 184//184 180//180
f 116//116 156//156 185//185
f 116//116 186//186 184//184
f 116//116 185//185 186//186
f 140//140 158//158 178//178
f 154//154 183//183 187//187
f 154//154 187//187 157//157
f 157//157 178//178 158//158
f 157//157 187//187 188//188
f 157//157 188//188 178//178
f 81//81 80//80 159//159
f 159//159 80//80 148//148
f 156//156 160//160 161//161
f 156//156 161//161 185//185
f 165//165 58//58 189//189
f 165//165 189//189 166//166
f 58//58 61//61 190//190
f 58//58 190//190 189//189
f 166//166 189//189 162//162
f 162//162 191//191 69//69
f 162//162 69//69 163//163
f 162//162 192//192 191//191
f 162//162 189//189 193//193
f 162//162 193//193 192//192
f 57//57 170//170 194//194
f 57//57 194//194 195//195
f 57//57 195//195 60//60
f 61//61 60//60 196//196
f 61//61 196//196 190//190
f 60//60 195//195 196//196
f 191//191 192//192 197//197
f 191//191 197//197 69//69
f 69//69 197//197 63//63
f 192//192 193//193 198//198
f 192//192 199//199 200//200
f 192//192 201//201 199//199
f 192//192 200//200 202//202
f 192//192 198//198 201//201
f 192//192 202//202 203//203
f 192//192 203//203 197//197
f 180//180 184//184 181//181
f 184//184 186//186 204//204
f 184//184 204//204 181//181
f 186//186 185//185 205//205
f 186//186 206//206 204//204
f 186//186 205//205 206//206
f 168//168 63//63 207//207
f 168//168 207//207 208//208
f 168//168 208//208 161//161
f 197//197 203//203 207//207
f 197//197 207//207 63//63
f 185//185 161//161 208//208
f 185//185 208//208 205//205
f 170//170 173//173 194//194
f 170//170 169//169 174//174
f 170//170 174//174 173//173
f 172//172 176//176 209//209
f 172//172 209//209 196//196
f 172//172 196//196 195//195
f 172//172 195//195 173//173
f 173//173 195//195 194//194
f 179//179 177//177 174//174
f 179//179 174//174 169//169
f 179//179 178//178 177//177
f 175//175 177//177 188//188
f 175//175 187//187 210//210
f 175//175 210//210 176//176
f 175//175 188//188 187//187
f 176//176 210//210 209//209
f 177//177 178//178 188//188
f 209//209 210//210 211//211
f 209//209 212//212 196//196
f 209//209 211//211 212//212
f 182//182 181//181 213//213
f 182//182 213//213 183//183
f 183//183 213//213 214//214
f 183//183 214//214 187//187
f 187//187 214//214 211//211
f 187//187 211//211 210//210
f 189//189 190//190 215//215
f 189//189 201//201 193//193
f 189//189 215//215 201//201
f 190//190 196//196 212//212
f 190//190 212//212 215//215
f 193//193 201//201 198//198
f 199//199 201//201 215//215
f 199//199 215//215 212//212
f 199//199 212//212 214//214
f 199//199 181//181 204//204
f 199//199 204//204 200//200
f 199//199 213//213 181//181
f 199//199 214//214 213//213
f 200//200 204//204 206//206
f 200//200 206//206 202//202
f 202//202 206//206 203//203
f 212//212 211//211 214//214
f 206//206 205//205 203//203
f 203//203 205//205 208//208
f 203//203 208//208 207//207
# 426 faces, 0 coords texture

# End of File
