####
#
# OBJ File Generated by Meshlab
#
####
# Object matlab_mesh_step7_link9.obj
#
# Vertices: 216
# Faces: 428
#
####
vn -3.385363 -4.335590 2.467981
v 0.284203 0.527350 0.802851
vn -2.059175 -5.110324 2.401426
v 0.286757 0.525782 0.802851
vn -2.723527 -3.754806 4.136055
v 0.285341 0.527711 0.804140
vn -3.288359 -3.262746 4.204670
v 0.282148 0.530557 0.804096
vn -3.606631 -4.943512 0.349681
v 0.284382 0.526951 0.801829
vn -4.242009 -3.348199 2.188539
v 0.281010 0.530196 0.802808
vn -4.548382 -4.121499 0.159788
v 0.281189 0.529797 0.801786
vn -1.103644 -4.690767 3.389605
v 0.287895 0.526143 0.804140
vn -2.118030 -5.464294 0.950345
v 0.286936 0.525383 0.801829
vn -0.612624 -5.859731 2.183270
v 0.288074 0.525744 0.803118
vn -0.551790 -2.944801 4.711340
v 0.505573 0.698874 1.045014
vn -3.809564 -2.762130 3.909511
v 0.274217 0.605953 0.852033
vn -2.278439 -1.406986 5.028824
v 0.457681 0.730973 1.045014
vn 0.340859 -5.646036 2.512852
v 0.289148 0.525548 0.802893
vn 2.436102 -2.722943 3.504539
v 0.605865 0.696588 1.030810
vn 0.371599 -5.205199 3.494884
v 0.527352 0.686856 1.025666
vn 0.558028 -5.845088 1.770204
v 0.289327 0.525148 0.801872
vn -3.747332 -4.833912 -1.092997
v 0.284833 0.527365 0.795746
vn -1.090679 -5.659417 0.467264
v 0.288189 0.524787 0.800583
vn -3.228534 -5.349124 -0.656267
v 0.287387 0.525797 0.795746
vn 0.467552 -6.124118 -0.030858
v 0.347201 0.524076 0.720346
vn 1.298378 -6.094213 0.716942
v 0.348339 0.524437 0.721635
vn -2.116056 -5.546426 -1.102852
v 0.288640 0.525201 0.794500
vn -0.886507 -5.299842 -1.625222
v 0.347653 0.524490 0.714263
vn 1.582568 -5.821872 -1.080347
v 0.486960 0.560550 0.633025
vn 1.572373 -6.083178 -0.030158
v 0.481080 0.558512 0.726623
vn 2.159629 -5.627506 0.824289
v 0.497401 0.562603 0.754698
vn 1.473068 -5.683694 2.226105
v 0.422393 0.571836 0.837976
vn 1.532971 -5.735890 2.050721
v 0.424196 0.566397 0.821933
vn -3.458311 -4.810696 -1.732144
v 0.286086 0.526769 0.794500
vn -4.398215 -4.139481 -1.285606
v 0.281640 0.530211 0.795703
vn -3.974761 -4.283887 -2.255385
v 0.282893 0.529615 0.794457
vn -3.162916 -4.566943 -2.813798
v 0.345099 0.526058 0.714263
vn -3.825360 -4.109262 -2.778095
v 0.287308 0.586407 0.695439
vn -3.788433 -3.832958 -3.140654
v 0.287311 0.586507 0.695293
vn -3.127604 -4.190445 -3.466750
v 0.360470 0.582638 0.628154
vn -2.785446 -4.504983 -3.371009
v 0.408082 0.550738 0.628154
vn -1.712686 -4.966604 -2.996351
v 0.408203 0.550757 0.628029
vn -0.654112 -5.320553 -2.515102
v 0.408310 0.550781 0.627937
vn -5.498541 -1.394722 0.955134
v 0.221533 0.617411 0.758291
vn -5.129120 -2.183767 2.820794
v 0.257934 0.601870 0.824048
vn -5.522026 -2.604386 -0.331152
v 0.221712 0.617011 0.757269
vn -6.175863 -0.638302 -0.623490
v 0.221984 0.617825 0.752207
vn -5.961098 -0.181556 1.102610
v 0.220448 0.764576 0.786364
vn -6.253678 0.080814 -0.549511
v 0.226317 0.766609 0.693017
vn -5.797014 0.119200 1.355147
v 0.220453 0.764769 0.786415
vn -5.312204 -1.351479 2.964471
v 0.257907 0.601985 0.824074
vn -5.457479 -0.579555 3.043101
v 0.250471 0.661396 0.824901
vn -5.048252 -2.168822 -1.648178
v 0.222163 0.617425 0.751186
vn -6.057474 -0.349986 -1.392447
v 0.228115 0.761191 0.677045
vn -4.637179 -2.443339 -3.457073
v 0.281176 0.616714 0.670949
vn -4.359111 -3.381396 -2.860726
v 0.223416 0.616830 0.749940
vn -5.215912 -1.450801 -2.847011
v 0.235576 0.701986 0.676120
vn -3.994586 -2.881863 -3.722846
v 0.282428 0.616119 0.669703
vn -3.773863 -2.377058 -4.400296
v 0.338881 0.695346 0.575616
vn -2.862774 -3.113395 -4.542929
v 0.369045 0.592063 0.613824
vn -4.266324 -1.972986 -4.154399
v 0.265786 0.699252 0.642741
vn -4.403298 -2.000027 -3.999844
v 0.260523 0.695825 0.649976
vn -4.487852 -2.131943 -3.842983
v 0.257277 0.690015 0.656834
vn -3.182955 -3.813682 -3.783277
v 0.360491 0.582728 0.628029
vn -3.669549 -3.696199 -3.504696
v 0.287324 0.586596 0.695185
vn -3.053015 -3.420308 -4.240912
v 0.365791 0.586244 0.620691
vn -3.445474 -3.337335 -4.053368
v 0.360518 0.582809 0.627937
vn -6.225889 0.426712 -0.596577
v 0.226329 0.766805 0.692946
vn -5.872247 -0.169723 -1.801395
v 0.228129 0.761378 0.676945
vn -5.283887 -1.160460 -2.978923
v 0.235587 0.702108 0.676047
vn -4.254819 -1.503717 -4.311827
v 0.265850 0.699370 0.642621
vn -3.563257 -2.039774 -4.633586
v 0.338966 0.695473 0.575476
vn -5.659425 0.830935 1.364915
v 0.220470 0.764916 0.786450
vn -6.071396 1.203811 -0.704392
v 0.226349 0.766953 0.692898
vn -5.211222 0.209145 3.403868
v 0.236775 0.769003 0.814486
vn -5.215763 -0.577247 3.431647
v 0.266776 0.665484 0.852937
vn -5.424588 -0.610040 -3.110814
v 0.231376 0.767187 0.670087
vn -5.417302 0.407232 -2.686245
v 0.231405 0.767338 0.670006
vn -4.921831 -1.105763 -3.628474
v 0.238842 0.707927 0.669179
vn -5.746455 0.338683 -1.957958
v 0.228151 0.761519 0.676873
vn -4.052395 -2.101534 3.900756
v 0.274212 0.606073 0.852110
vn -4.450272 -1.781581 -4.058684
v 0.260578 0.695935 0.649866
vn -3.124580 -1.593178 -4.925253
v 0.339044 0.695583 0.575373
vn -2.279645 -2.743731 -5.112171
v 0.369094 0.592144 0.613750
vn -3.021221 -3.645560 -4.080646
v 0.365754 0.586156 0.620793
vn -2.303912 -4.324530 -3.877511
v 0.413466 0.554185 0.620793
vn -1.312351 -4.685086 -3.556605
v 0.413583 0.554216 0.620691
vn -4.693861 -1.749854 -3.776276
v 0.238822 0.707796 0.669262
vn -4.784494 1.694844 3.130312
v 0.236825 0.769119 0.814543
vn -5.227519 2.244991 1.342413
v 0.220503 0.765028 0.786469
vn -5.813825 2.118993 -0.680000
v 0.226384 0.767066 0.692871
vn -4.813879 -0.308492 3.917184
v 0.266800 0.665590 0.852989
vn -4.442764 -1.234238 4.028370
v 0.274224 0.606171 0.852161
vn -4.763407 -0.155292 -4.011670
v 0.236678 0.770773 0.662760
vn -4.280990 -0.447514 -4.576949
v 0.258414 0.758781 0.643447
vn -4.530307 -0.618743 -4.287376
v 0.244152 0.711474 0.661873
vn -5.172258 1.735813 -2.384685
v 0.231448 0.767453 0.669954
vn -4.632876 -1.039054 -4.061892
v 0.244114 0.711362 0.661934
vn -4.523503 1.477819 -3.330808
v 0.236728 0.770893 0.662701
vn -3.959641 -0.179268 -4.839418
v 0.331608 0.754993 0.576199
vn -4.273437 -0.750038 -4.533756
v 0.265913 0.699466 0.642540
vn -4.259788 -0.366015 -4.603343
v 0.258489 0.758885 0.643367
vn -4.213368 0.039971 -4.649354
v 0.309872 0.766985 0.595512
vn -3.817016 1.489381 -4.562916
v 0.309932 0.767099 0.595465
vn -3.080239 0.686326 -5.176843
v 0.331694 0.755092 0.576132
vn -2.396104 -1.182897 -5.346887
v 0.339118 0.695673 0.575305
vn -5.914744 1.514584 -1.438309
v 0.228187 0.761626 0.676829
vn -1.961772 -3.809483 -4.525779
v 0.416837 0.560035 0.613824
vn -0.542750 -3.653128 -4.589521
v 0.416946 0.560073 0.613750
vn -0.162150 -4.963758 -3.343546
v 0.413686 0.554247 0.620624
vn 0.361906 -5.823547 -2.102152
v 0.408406 0.550807 0.627878
vn 1.624085 5.802111 -1.782188
v 0.608207 0.899116 0.818200
vn 0.329082 5.925152 -1.523532
v 0.570128 0.907042 0.809481
vn 1.484112 5.721911 -0.447465
v 0.586460 0.911135 0.837581
vn 1.616735 5.803117 -1.785615
v 0.591907 0.895024 0.790133
vn 2.687006 5.399487 -0.843882
v 0.608239 0.899118 0.818234
vn 2.619652 5.251504 -1.882283
v 0.610043 0.893675 0.802180
vn 1.817637 4.649681 -3.145951
v 0.593711 0.889581 0.774079
vn -0.190287 5.421283 -3.148295
v 0.571927 0.901593 0.793416
vn 0.414717 5.352154 -3.193946
v 0.593689 0.889585 0.774083
vn -0.336043 5.293078 -3.347645
v 0.388500 0.776883 0.600594
vn 0.424173 5.664285 -2.304193
v 0.571932 0.901599 0.793426
vn -2.068389 3.867794 -3.569706
v 0.309987 0.767151 0.595451
vn -0.858283 5.654098 -2.479536
v 0.493419 0.891867 0.788283
vn 0.548913 2.899413 -4.657787
v 0.410279 0.764866 0.581247
vn -3.369427 5.300619 -0.025150
v 0.412484 0.899044 0.965144
vn -3.820609 4.774974 0.855650
v 0.407204 0.895605 0.972397
vn -2.471034 5.683371 0.159051
v 0.412524 0.899069 0.965161
vn -3.329946 5.318683 -0.237543
v 0.418365 0.901082 0.871546
vn -3.229128 4.735230 -1.453937
v 0.234971 0.776392 0.678732
vn -1.942972 5.659105 -0.792447
v 0.418403 0.901107 0.871564
vn -3.495531 5.219969 -0.094879
v 0.229092 0.774354 0.772329
vn -4.109751 4.418062 1.751420
v 0.423525 0.899696 1.000472
vn -2.205403 4.938041 2.204623
v 0.423571 0.899719 1.000520
vn -4.459496 3.946481 1.898057
v 0.403943 0.889778 0.979271
vn -2.579264 2.522121 3.568079
v 0.420307 0.893888 1.007399
vn -4.262577 4.385070 0.390327
v 0.223807 0.770911 0.779587
vn -3.319824 5.166847 0.890166
v 0.407239 0.895626 0.972420
vn -4.691713 3.849908 1.477852
v 0.220543 0.765079 0.786467
vn -5.165642 3.431885 0.209267
v 0.223764 0.770854 0.779594
vn -5.321222 2.877587 -0.988522
v 0.229644 0.772892 0.685997
vn -4.349488 4.215234 -0.743147
v 0.229686 0.772949 0.685990
vn -4.550936 3.453596 2.378983
v 0.420265 0.893869 1.007346
vn -4.735135 3.451295 2.267839
v 0.236875 0.769173 0.814567
vn -2.402466 0.523370 5.129804
v 0.450266 0.790353 1.045841
vn -1.513577 5.736587 -2.062121
v 0.491569 0.897289 0.804311
vn -1.475203 5.682826 -2.227166
v 0.493373 0.891850 0.788268
vn -0.950324 5.931081 -1.687902
v 0.491615 0.897310 0.804337
vn -3.205804 3.543830 -2.851880
v 0.236775 0.770949 0.662678
vn -4.894836 3.465314 -1.859241
v 0.231490 0.767505 0.669936
vn -0.998998 2.159684 -4.710709
v 0.331766 0.755134 0.576103
vn -1.090320 -0.408386 -6.008616
v 0.339181 0.695754 0.575276
vn 3.270409 -2.440802 2.876350
v 0.679077 0.692791 0.963583
vn 3.229322 -4.735186 1.453898
v 0.680881 0.687348 0.947529
vn 2.495153 -5.668019 -0.141796
v 0.503282 0.564641 0.661100
vn 3.356452 -5.306180 0.179351
v 0.497449 0.562633 0.754697
vn 1.805119 -5.285463 -2.138713
v 0.492240 0.563990 0.625772
vn 3.116671 -5.382132 -0.591834
v 0.508562 0.568081 0.653847
vn 2.422194 -4.812011 -2.443932
v 0.492281 0.564020 0.625741
vn 3.766024 -4.802523 -0.899960
v 0.508613 0.568114 0.653841
vn 3.405427 -5.278728 0.025820
v 0.503328 0.564671 0.661099
vn -1.081868 -2.088923 -5.759822
v 0.386971 0.663602 0.575305
vn -0.006074 -1.124355 -6.000500
v 0.387073 0.663654 0.575276
vn 0.270981 -3.149529 -5.127993
v 0.417032 0.560120 0.613718
vn 2.535506 -2.496578 -3.571766
v 0.495545 0.569852 0.618861
vn 0.952545 5.084730 1.959143
v 0.507369 0.912895 0.998405
vn 3.347128 3.628588 3.685902
v 0.555261 0.880796 0.998405
vn 2.092785 5.291806 1.281660
v 0.580581 0.909097 0.931178
vn -0.200067 6.226899 -0.142706
v 0.513248 0.914933 0.904808
vn 0.717432 4.686588 3.322597
v 0.502084 0.909452 1.005664
vn -1.451755 5.846113 0.976322
v 0.428856 0.903163 0.993262
vn 3.679764 3.869172 2.425921
v 0.628473 0.876998 0.931178
vn 3.202280 3.351752 4.119232
v 0.549977 0.877352 1.005664
vn 3.922766 2.665961 4.121040
v 0.623188 0.873555 0.938437
vn 3.397199 5.258169 0.469792
v 0.602360 0.897080 0.911831
vn 4.455443 3.246983 1.337257
v 0.650252 0.864980 0.911831
vn 4.300354 2.432451 3.838394
v 0.658432 0.773464 0.969620
vn 3.923195 2.665383 4.121006
v 0.625209 0.871167 0.938058
vn 5.273094 1.536382 2.050188
v 0.680211 0.761446 0.950273
vn 6.090183 1.397118 0.327766
v 0.686090 0.763484 0.856675
vn 4.524534 3.573348 -0.212194
v 0.656131 0.867018 0.818234
vn 4.248008 2.161697 4.047928
v 0.655168 0.767632 0.976499
vn 4.901327 1.187071 3.612328
v 0.676947 0.755614 0.957152
vn 6.216898 0.807548 0.417353
v 0.682015 0.756003 0.934218
vn 5.741797 -0.151484 1.627895
v 0.687626 0.702066 0.949445
vn 5.922161 1.012286 -0.929647
v 0.687895 0.758041 0.840621
vn 5.888975 -1.029075 0.506994
v 0.689430 0.696623 0.933391
vn 5.032719 -1.274652 -1.162470
v 0.695309 0.698661 0.839794
vn 3.922863 2.665585 4.121191
v 0.619924 0.867724 0.945316
vn 4.141120 1.555368 4.308003
v 0.649883 0.764189 0.983757
vn 4.556073 0.934560 4.152143
v 0.671662 0.752171 0.964410
vn 5.013535 -1.351249 2.477049
v 0.684362 0.696234 0.956325
vn 0.414299 3.366797 4.611650
v 0.498820 0.903620 1.012543
vn 2.714018 2.857830 4.672869
v 0.546712 0.871521 1.012543
vn 0.429418 1.399845 5.822670
v 0.528779 0.800085 1.050984
vn -0.766136 2.588100 5.622178
v 0.420369 0.893886 1.007409
vn 2.132962 1.046312 5.033818
v 0.576671 0.767986 1.050984
vn -0.213061 -0.299475 6.267182
v 0.536193 0.740705 1.050157
vn -0.331304 0.050379 6.268192
v 0.528745 0.800060 1.050983
vn -0.276797 -0.244831 6.267832
v 0.536145 0.740739 1.050157
vn -0.660481 0.843044 6.074034
v 0.450320 0.790349 1.045849
vn 1.487520 -1.730228 4.356856
v 0.584086 0.708606 1.050157
vn 4.269740 0.384567 4.592031
v 0.657298 0.704809 0.982930
vn -0.605200 6.194555 -0.773675
v 0.496916 0.910839 0.876708
vn -1.088327 6.162036 -0.129474
v 0.434736 0.905201 0.899664
vn 4.464683 2.641113 -1.671785
v 0.657936 0.861575 0.802180
vn 3.702657 2.492111 -3.428810
v 0.641603 0.857482 0.774079
vn 2.136605 1.378795 -5.051922
v 0.458171 0.732766 0.581247
vn 5.531379 0.628332 -2.870888
v 0.665350 0.802195 0.801352
vn 4.845238 0.371463 -3.853953
v 0.649018 0.798102 0.773252
vn 2.369186 0.403263 -5.379459
v 0.458176 0.732739 0.581247
vn 0.255171 0.267956 -6.265859
v 0.379659 0.723034 0.576103
vn -0.664618 -0.348733 6.220317
v 0.457719 0.731028 1.045022
vn 4.682727 -3.481345 0.746146
v 0.686166 0.690791 0.940271
vn 4.505843 -3.976800 -0.230209
v 0.692045 0.692829 0.846673
vn 3.495511 -5.219982 0.094868
v 0.686760 0.689386 0.853931
vn -0.344449 -0.717023 6.228998
v 0.505632 0.698914 1.045022
vn 4.845426 -1.477221 -2.999130
v 0.678977 0.694567 0.811693
vn 2.265896 -0.467060 -5.138188
v 0.465586 0.673386 0.580420
vn 4.459308 -3.947037 -1.897513
v 0.511877 0.573945 0.646962
# 216 vertices, 0 vertices normals

f 1//1 2//2 3//3
f 1//1 3//3 4//4
f 1//1 5//5 2//2
f 1//1 6//6 7//7
f 1//1 4//4 6//6
f 1//1 7//7 5//5
f 2//2 8//8 3//3
f 2//2 5//5 9//9
f 2//2 9//9 10//10
f 2//2 10//10 8//8
f 3//3 8//8 11//11
f 3//3 12//12 4//4
f 3//3 13//13 12//12
f 3//3 11//11 13//13
f 8//8 14//14 15//15
f 8//8 10//10 14//14
f 8//8 15//15 16//16
f 8//8 16//16 11//11
f 14//14 10//10 17//17
f 14//14 17//17 15//15
f 5//5 18//18 9//9
f 5//5 7//7 18//18
f 9//9 19//19 17//17
f 9//9 17//17 10//10
f 9//9 18//18 20//20
f 9//9 20//20 19//19
f 19//19 21//21 22//22
f 19//19 22//22 17//17
f 19//19 20//20 23//23
f 19//19 23//23 21//21
f 21//21 23//23 24//24
f 21//21 24//24 25//25
f 21//21 26//26 27//27
f 21//21 27//27 22//22
f 21//21 25//25 26//26
f 17//17 22//22 27//27
f 17//17 28//28 15//15
f 17//17 29//29 28//28
f 17//17 27//27 29//29
f 18//18 30//30 20//20
f 18//18 7//7 31//31
f 18//18 31//31 32//32
f 18//18 32//32 30//30
f 20//20 30//30 23//23
f 30//30 33//33 23//23
f 30//30 32//32 34//34
f 30//30 34//34 33//33
f 33//33 24//24 23//23
f 33//33 34//34 35//35
f 33//33 36//36 37//37
f 33//33 37//37 24//24
f 33//33 35//35 36//36
f 24//24 37//37 38//38
f 24//24 38//38 39//39
f 24//24 39//39 25//25
f 40//40 6//6 41//41
f 40//40 42//42 6//6
f 40//40 43//43 42//42
f 40//40 44//44 45//45
f 40//40 45//45 43//43
f 40//40 46//46 44//44
f 40//40 41//41 47//47
f 40//40 48//48 46//46
f 40//40 47//47 48//48
f 6//6 4//4 12//12
f 6//6 42//42 7//7
f 6//6 12//12 41//41
f 42//42 43//43 49//49
f 42//42 49//49 31//31
f 42//42 31//31 7//7
f 43//43 45//45 50//50
f 43//43 50//50 49//49
f 49//49 51//51 52//52
f 49//49 52//52 31//31
f 49//49 50//50 53//53
f 49//49 53//53 51//51
f 31//31 52//52 32//32
f 51//51 54//54 52//52
f 51//51 53//53 54//54
f 52//52 54//54 35//35
f 52//52 34//34 32//32
f 52//52 35//35 34//34
f 54//54 55//55 56//56
f 54//54 57//57 55//55
f 54//54 58//58 57//57
f 54//54 53//53 59//59
f 54//54 59//59 58//58
f 54//54 60//60 61//61
f 54//54 56//56 62//62
f 54//54 62//62 63//63
f 54//54 61//61 35//35
f 54//54 63//63 60//60
f 44//44 46//46 64//64
f 44//44 64//64 45//45
f 45//45 64//64 65//65
f 45//45 65//65 50//50
f 50//50 65//65 66//66
f 50//50 66//66 53//53
f 55//55 57//57 67//67
f 55//55 68//68 56//56
f 55//55 67//67 68//68
f 36//36 35//35 60//60
f 36//36 60//60 38//38
f 36//36 38//38 37//37
f 46//46 69//69 70//70
f 46//46 71//71 69//69
f 46//46 48//48 72//72
f 46//46 72//72 71//71
f 46//46 70//70 64//64
f 73//73 74//74 75//75
f 73//73 76//76 74//74
f 73//73 75//75 66//66
f 73//73 66//66 76//76
f 64//64 70//70 76//76
f 64//64 76//76 65//65
f 65//65 76//76 66//66
f 41//41 12//12 77//77
f 41//41 77//77 47//47
f 12//12 13//13 77//77
f 57//57 58//58 78//78
f 57//57 78//78 67//67
f 68//68 67//67 79//79
f 68//68 79//79 80//80
f 68//68 80//80 56//56
f 81//81 82//82 38//38
f 81//81 60//60 63//63
f 81//81 38//38 60//60
f 81//81 62//62 83//83
f 81//81 83//83 82//82
f 81//81 63//63 62//62
f 82//82 83//83 39//39
f 82//82 39//39 38//38
f 84//84 58//58 59//59
f 84//84 53//53 66//66
f 84//84 59//59 53//53
f 84//84 75//75 58//58
f 84//84 66//66 75//75
f 58//58 75//75 78//78
f 35//35 61//61 60//60
f 69//69 71//71 85//85
f 69//69 86//86 87//87
f 69//69 85//85 86//86
f 69//69 87//87 70//70
f 71//71 72//72 88//88
f 71//71 88//88 85//85
f 48//48 47//47 89//89
f 48//48 89//89 72//72
f 72//72 89//89 88//88
f 90//90 91//91 92//92
f 90//90 74//74 93//93
f 90//90 94//94 74//74
f 90//90 95//95 91//91
f 90//90 93//93 95//95
f 90//90 92//92 94//94
f 91//91 96//96 97//97
f 91//91 95//95 98//98
f 91//91 98//98 96//96
f 91//91 97//97 92//92
f 99//99 96//96 95//95
f 99//99 95//95 100//100
f 99//99 100//100 96//96
f 96//96 79//79 97//97
f 96//96 98//98 95//95
f 96//96 100//100 101//101
f 96//96 101//101 102//102
f 96//96 102//102 79//79
f 74//74 76//76 103//103
f 74//74 94//94 75//75
f 74//74 103//103 93//93
f 70//70 87//87 103//103
f 70//70 103//103 76//76
f 47//47 77//77 89//89
f 77//77 13//13 89//89
f 94//94 67//67 78//78
f 94//94 78//78 75//75
f 94//94 92//92 67//67
f 67//67 92//92 97//97
f 67//67 97//97 79//79
f 79//79 102//102 80//80
f 56//56 104//104 62//62
f 56//56 80//80 105//105
f 56//56 105//105 104//104
f 104//104 83//83 62//62
f 104//104 105//105 106//106
f 104//104 106//106 83//83
f 83//83 106//106 107//107
f 83//83 107//107 39//39
f 39//39 107//107 25//25
f 108//108 109//109 110//110
f 108//108 111//111 109//109
f 108//108 110//110 112//112
f 108//108 112//112 113//113
f 108//108 114//114 111//111
f 108//108 113//113 114//114
f 115//115 116//116 117//117
f 115//115 118//118 116//116
f 115//115 117//117 119//119
f 115//115 120//120 118//118
f 115//115 119//119 120//120
f 116//116 118//118 114//114
f 116//116 114//114 121//121
f 116//116 121//121 117//117
f 122//122 123//123 124//124
f 122//122 125//125 126//126
f 122//122 124//124 127//127
f 122//122 128//128 123//123
f 122//122 127//127 125//125
f 122//122 126//126 128//128
f 123//123 129//129 130//130
f 123//123 131//131 132//132
f 123//123 128//128 133//133
f 123//123 134//134 124//124
f 123//123 130//130 134//134
f 123//123 133//133 135//135
f 123//123 132//132 129//129
f 123//123 135//135 131//131
f 129//129 132//132 130//130
f 136//136 86//86 135//135
f 136//136 137//137 87//87
f 136//136 87//87 86//86
f 136//136 133//133 138//138
f 136//136 135//135 133//133
f 136//136 138//138 137//137
f 131//131 139//139 132//132
f 131//131 86//86 140//140
f 131//131 135//135 86//86
f 131//131 140//140 139//139
f 139//139 85//85 132//132
f 139//139 140//140 85//85
f 86//86 85//85 140//140
f 85//85 88//88 141//141
f 85//85 141//141 132//132
f 88//88 89//89 13//13
f 88//88 13//13 141//141
f 125//125 127//127 126//126
f 142//142 143//143 119//119
f 142//142 127//127 144//144
f 142//142 144//144 120//120
f 142//142 120//120 143//143
f 142//142 126//126 127//127
f 142//142 145//145 126//126
f 142//142 119//119 145//145
f 143//143 120//120 119//119
f 95//95 93//93 146//146
f 95//95 145//145 100//100
f 95//95 146//146 145//145
f 100//100 145//145 119//119
f 100//100 119//119 101//101
f 101//101 119//119 147//147
f 101//101 147//147 148//148
f 101//101 148//148 102//102
f 137//137 93//93 103//103
f 137//137 103//103 87//87
f 137//137 138//138 146//146
f 137//137 146//146 93//93
f 28//28 29//29 149//149
f 28//28 149//149 15//15
f 29//29 27//27 150//150
f 29//29 150//150 149//149
f 26//26 25//25 27//27
f 27//27 25//25 151//151
f 27//27 151//151 152//152
f 27//27 152//152 150//150
f 153//153 154//154 25//25
f 153//153 25//25 106//106
f 153//153 106//106 155//155
f 153//153 155//155 154//154
f 154//154 151//151 25//25
f 154//154 155//155 156//156
f 154//154 156//156 157//157
f 154//154 157//157 151//151
f 25//25 107//107 106//106
f 151//151 157//157 152//152
f 102//102 158//158 80//80
f 102//102 148//148 159//159
f 102//102 159//159 158//158
f 158//158 105//105 80//80
f 158//158 159//159 160//160
f 158//158 160//160 105//105
f 105//105 161//161 155//155
f 105//105 155//155 106//106
f 105//105 160//160 161//161
f 162//162 163//163 164//164
f 162//162 164//164 165//165
f 162//162 166//166 163//163
f 162//162 165//165 167//167
f 162//162 167//167 166//166
f 163//163 168//168 164//164
f 163//163 166//166 169//169
f 163//163 169//169 170//170
f 163//163 170//170 168//168
f 164//164 168//168 171//171
f 164//164 171//171 110//110
f 164//164 110//110 165//165
f 168//168 172//172 171//171
f 168//168 173//173 172//172
f 168//168 174//174 173//173
f 168//168 170//170 174//174
f 171//171 172//172 112//112
f 171//171 112//112 110//110
f 172//172 173//173 175//175
f 172//172 175//175 176//176
f 172//172 177//177 112//112
f 172//172 176//176 177//177
f 173//173 174//174 178//178
f 173//173 178//178 179//179
f 173//173 179//179 175//175
f 175//175 180//180 176//176
f 175//175 179//179 181//181
f 175//175 181//181 180//180
f 180//180 182//182 176//176
f 180//180 181//181 183//183
f 180//180 183//183 184//184
f 180//180 184//184 182//182
f 174//174 170//170 185//185
f 174//174 185//185 178//178
f 178//178 185//185 186//186
f 178//178 186//186 187//187
f 178//178 187//187 179//179
f 179//179 187//187 188//188
f 179//179 188//188 181//181
f 166//166 189//189 190//190
f 166//166 190//190 169//169
f 166//166 167//167 130//130
f 166//166 130//130 189//189
f 169//169 190//190 185//185
f 169//169 185//185 170//170
f 189//189 191//191 190//190
f 189//189 130//130 132//132
f 189//189 132//132 192//192
f 189//189 192//192 191//191
f 190//190 191//191 193//193
f 190//190 193//193 185//185
f 191//191 194//194 193//193
f 191//191 195//195 196//196
f 191//191 192//192 197//197
f 191//191 197//197 195//195
f 191//191 196//196 194//194
f 193//193 186//186 185//185
f 193//193 194//194 198//198
f 193//193 198//198 186//186
f 186//186 198//198 199//199
f 186//186 199//199 187//187
f 187//187 199//199 149//149
f 187//187 149//149 188//188
f 200//200 165//165 110//110
f 200//200 109//109 144//144
f 200//200 110//110 109//109
f 200//200 127//127 201//201
f 200//200 201//201 165//165
f 200//200 144//144 127//127
f 165//165 201//201 167//167
f 109//109 111//111 118//118
f 109//109 118//118 120//120
f 109//109 120//120 144//144
f 111//111 114//114 118//118
f 112//112 177//177 202//202
f 112//112 202//202 113//113
f 177//177 176//176 202//202
f 114//114 203//203 204//204
f 114//114 113//113 202//202
f 114//114 202//202 203//203
f 114//114 204//204 121//121
f 203//203 202//202 205//205
f 203//203 206//206 207//207
f 203//203 205//205 206//206
f 203//203 207//207 204//204
f 202//202 176//176 182//182
f 202//202 182//182 205//205
f 182//182 184//184 205//205
f 117//117 121//121 147//147
f 117//117 147//147 119//119
f 121//121 204//204 208//208
f 121//121 208//208 147//147
f 204//204 207//207 208//208
f 124//124 167//167 201//201
f 124//124 134//134 167//167
f 124//124 201//201 127//127
f 167//167 134//134 130//130
f 128//128 126//126 138//138
f 128//128 138//138 133//133
f 132//132 141//141 192//192
f 141//141 13//13 209//209
f 141//141 197//197 192//192
f 141//141 209//209 197//197
f 126//126 145//145 146//146
f 126//126 146//146 138//138
f 147//147 208//208 148//148
f 208//208 159//159 148//148
f 208//208 207//207 159//159
f 181//181 188//188 210//210
f 181//181 210//210 183//183
f 183//183 210//210 211//211
f 183//183 211//211 184//184
f 188//188 149//149 150//150
f 188//188 150//150 210//210
f 210//210 150//150 212//212
f 210//210 212//212 211//211
f 194//194 196//196 209//209
f 194//194 209//209 213//213
f 194//194 213//213 198//198
f 198//198 15//15 199//199
f 198//198 11//11 16//16
f 198//198 16//16 15//15
f 198//198 213//213 11//11
f 15//15 149//149 199//199
f 150//150 152//152 212//212
f 152//152 157//157 212//212
f 206//206 205//205 214//214
f 206//206 214//214 215//215
f 206//206 215//215 207//207
f 205//205 184//184 214//214
f 214//214 184//184 216//216
f 214//214 161//161 215//215
f 214//214 216//216 161//161
f 184//184 211//211 216//216
f 215//215 161//161 160//160
f 215//215 159//159 207//207
f 215//215 160//160 159//159
f 161//161 216//216 155//155
f 216//216 211//211 156//156
f 216//216 156//156 155//155
f 211//211 212//212 157//157
f 211//211 157//157 156//156
f 13//13 11//11 213//213
f 13//13 213//213 209//209
f 195//195 197//197 196//196
f 197//197 209//209 196//196
# 428 faces, 0 coords texture

# End of File
