####
#
# OBJ File Generated by Meshlab
#
####
# Object matlab_mesh_step5_link4.obj
#
# Vertices: 187
# Faces: 370
#
####
vn -4.349423 -4.283461 1.097478
v 0.235569 0.163097 0.993786
vn -3.938959 -4.714774 1.309160
v 0.235779 0.163019 0.994136
vn -4.167494 -4.460193 1.467659
v 0.268380 0.159354 1.076929
vn -4.469283 -4.371890 0.291466
v 0.220614 0.176047 0.978106
vn -4.048500 -4.105647 -1.209432
v 0.303327 0.094834 0.924345
vn -4.722992 -3.759653 -0.140722
v 0.220591 0.176071 0.978101
vn -3.704417 -3.897594 2.791528
v 0.272357 0.162032 1.095841
vn -3.304261 -4.839833 -0.726934
v 0.308713 0.090361 0.924345
vn -3.572959 -4.990861 1.266627
v 0.356491 0.073656 1.023190
vn -4.819050 -3.689008 1.623822
v 0.224568 0.178749 0.997014
vn -2.452865 -2.093286 3.910226
v 0.272336 0.162059 1.095850
vn -3.717098 -4.738171 1.703558
v 0.288234 0.143535 1.081800
vn -3.338144 -4.843877 2.169610
v 0.288566 0.143294 1.081800
vn -2.590312 -4.445285 3.091466
v 0.277759 0.157537 1.095825
vn -3.927823 -4.503587 1.877954
v 0.272382 0.162003 1.095825
vn 0.212736 -3.993496 2.424358
v 0.360478 0.076322 1.042085
vn -0.043253 -3.122679 3.219837
v 0.360469 0.076334 1.042102
vn 4.510417 -4.173088 0.916355
v 0.369829 0.073570 1.018374
vn 3.876281 -4.548547 1.686491
v 0.369121 0.073273 1.019635
vn 1.475252 -5.367537 0.384051
v 0.368485 0.072473 1.018573
vn 2.564665 -4.922492 -0.626369
v 0.369193 0.072771 1.017312
vn 4.812108 -3.890921 0.553960
v 0.386578 0.093469 1.015027
vn 4.554643 -3.930371 1.729951
v 0.375597 0.087783 1.037227
vn 4.350423 -3.748828 2.355556
v 0.375595 0.087795 1.037259
vn 1.125646 -4.894199 1.864587
v 0.360489 0.076313 1.042059
vn -1.804128 -5.212917 -1.528361
v 0.308721 0.090358 0.924339
vn 4.213414 -4.420771 -1.122719
v 0.382609 0.090798 0.996135
vn 4.774554 -3.473337 -1.421168
v 0.519630 0.255772 0.957759
vn 3.041338 -4.988966 -2.310539
v 0.367510 0.079322 1.000929
vn 3.933423 -4.390421 -1.720772
v 0.382622 0.090819 0.996106
vn -0.778594 -5.131535 -2.245060
v 0.319722 0.096057 0.902094
vn -0.293249 -4.449719 -2.717965
v 0.319730 0.096070 0.902063
vn 4.954255 -1.171376 1.201282
v 0.523608 0.258450 0.976671
vn -0.900845 -6.181614 -0.163111
v 0.356529 0.073635 1.023129
vn 0.094517 -6.168609 1.076325
v 0.360499 0.076306 1.042022
vn -1.356923 -5.970908 0.454101
v 0.356515 0.073638 1.023151
vn 5.034551 -3.433228 1.279294
v 0.523598 0.258440 0.976682
vn 4.887130 -3.654830 1.493894
v 0.512581 0.252731 0.998964
vn 4.219757 -0.767412 2.940475
v 0.512578 0.252734 0.998980
vn 3.076445 -4.931413 -2.383041
v 0.334841 0.107554 0.897260
vn -1.862246 -5.976434 -0.110553
v 0.311778 0.089288 0.930660
vn 3.131267 -4.425123 -2.952717
v 0.334846 0.107568 0.897237
vn 4.068176 -4.089984 -2.474061
v 0.382630 0.090837 0.996087
vn 4.023704 -3.089358 3.506161
v 0.375589 0.087806 1.037282
vn -4.599751 -3.985152 -1.057193
v 0.299847 0.098252 0.926606
vn -3.572806 -4.299133 -2.868959
v 0.314345 0.100522 0.902094
vn -3.695050 -4.341544 -2.614517
v 0.303344 0.094824 0.924339
vn -3.751216 -3.726131 -3.260670
v 0.314345 0.100543 0.902063
vn -2.533508 -5.495022 0.960064
v 0.356501 0.073644 1.023173
vn -3.150388 -5.337537 0.620541
v 0.311774 0.089290 0.930676
vn -0.629757 -2.655416 3.926354
v 0.277742 0.157558 1.095841
vn -4.838213 -3.661685 1.628705
v 0.215923 0.190205 0.997210
vn -4.900608 -3.397425 -0.213243
v 0.211938 0.187538 0.978297
vn -5.017944 -3.349773 1.699055
v 0.215915 0.190216 0.997210
vn -2.486271 -1.740022 3.943609
v 0.263699 0.173507 1.096046
vn 2.793787 -3.884404 -3.694536
v 0.335621 0.110253 0.894372
vn 2.411003 -0.263043 -3.140354
v 0.472620 0.275178 0.856043
vn 5.010875 -1.432813 -1.918599
v 0.520405 0.258457 0.954894
vn 2.469462 -0.788786 5.712141
v 0.292852 0.169043 1.091038
vn 2.551751 -1.183237 5.616311
v 0.360466 0.076351 1.042107
vn 3.157270 0.971694 4.710737
v 0.429837 0.333981 1.052728
vn 2.254036 -0.517827 5.842025
v 0.292837 0.169063 1.091046
vn -0.397216 -1.745764 4.976041
v 0.277728 0.157580 1.095850
vn 3.232720 -1.871646 4.871028
v 0.375579 0.087816 1.037297
vn 3.356941 -0.617408 5.132149
v 0.512566 0.252736 0.998989
vn -4.864920 -3.650837 -1.504292
v 0.220573 0.176095 0.978100
vn -4.498635 -2.999993 -3.176756
v 0.305692 0.112010 0.902259
vn -3.667115 -3.381259 -3.708450
v 0.314345 0.100564 0.902042
vn -0.193320 -4.206683 -3.436368
v 0.319736 0.096086 0.902042
vn -4.666657 -3.256912 -2.565790
v 0.294674 0.106302 0.924541
vn -4.785436 -3.480221 -2.105972
v 0.291194 0.109719 0.926802
vn -5.139040 -2.026966 -0.633351
v 0.196426 0.213240 0.978295
vn -4.985116 -3.086417 -2.003310
v 0.211935 0.187543 0.978295
vn -4.701155 -2.822178 -3.067874
v 0.290203 0.137676 0.902259
vn -4.726210 -2.832556 -3.019051
v 0.279185 0.131968 0.924541
vn -4.578968 -2.648792 -3.366515
v 0.290198 0.137709 0.902237
vn -4.267910 -2.922319 -3.534819
v 0.305707 0.112012 0.902237
vn -4.906063 -2.247012 -3.150700
v 0.207457 0.218955 0.955986
vn -3.365649 -0.532675 -4.375954
v 0.286714 0.141131 0.904501
vn -5.203540 -3.029572 1.770950
v 0.200426 0.215882 0.997210
vn -2.684549 -1.258505 3.986657
v 0.248190 0.199204 1.096046
vn -5.516736 -1.620566 1.964498
v 0.200404 0.215918 0.997207
vn -5.377310 -2.272364 2.215467
v 0.203469 0.214846 1.003546
vn -0.345125 -3.691937 -4.154333
v 0.320511 0.098771 0.899177
vn 5.071011 0.510577 0.650885
v 0.524383 0.261135 0.973805
vn 0.780263 -2.320507 -5.249639
v 0.335615 0.110265 0.894361
vn 5.392547 1.804763 -2.301634
v 0.517336 0.259538 0.948546
vn 5.473230 1.784427 -1.970237
v 0.520403 0.258466 0.954890
vn 5.533048 2.180842 -0.667538
v 0.524380 0.261144 0.973794
vn 3.114497 1.985788 4.736435
v 0.414328 0.359677 1.052728
vn 4.578380 2.654642 3.361998
v 0.430612 0.336666 1.049863
vn 4.339717 2.952818 3.395643
v 0.415103 0.362363 1.049863
vn 3.050160 2.588416 4.619899
v 0.405690 0.371125 1.052924
vn 1.874339 1.284339 5.802066
v 0.414299 0.359706 1.052732
vn 1.756780 0.830086 5.943671
v 0.429821 0.333988 1.052732
vn 4.185487 1.441510 4.264210
v 0.509094 0.256156 1.001243
vn 1.982350 -0.233306 5.944862
v 0.414728 0.322498 1.057533
vn 1.464654 0.373483 6.070131
v 0.414726 0.322517 1.057533
vn 4.906063 2.246987 3.150707
v 0.513353 0.255419 0.996115
vn 4.701688 2.743080 3.091402
v 0.509869 0.258841 0.998378
vn 4.666675 3.256902 2.565891
v 0.426133 0.368078 1.027554
vn 4.726198 2.832806 3.018830
v 0.441642 0.342381 1.027554
vn 4.760680 3.217545 2.465055
v 0.429618 0.364657 1.025290
vn 4.777471 3.618978 1.884081
v 0.420980 0.376105 1.025486
vn 4.208332 3.802366 2.499329
v 0.417495 0.379526 1.027749
vn 4.646121 3.537934 1.804321
v 0.434096 0.333244 1.047600
vn 4.733375 2.827405 3.012739
v 0.445126 0.338960 1.025290
vn 3.655238 3.580586 3.454706
v 0.406465 0.373810 1.050059
vn 5.013682 3.115340 1.579527
v 0.508874 0.286832 0.973805
vn 4.788768 3.595462 1.901280
v 0.500237 0.298280 0.974001
vn 4.915439 3.462532 0.065032
v 0.508857 0.286861 0.973794
vn 4.531979 3.903728 0.044669
v 0.500236 0.298287 0.973989
vn -3.059751 -2.868369 -4.506034
v 0.315120 0.103250 0.899177
vn -3.739541 -2.430258 -4.312319
v 0.306482 0.114697 0.899372
vn -2.281370 -1.521472 -5.485509
v 0.306503 0.114701 0.899357
vn -2.033389 -1.752510 -5.493442
v 0.315124 0.103276 0.899162
vn -0.402141 -2.657764 -5.241041
v 0.320520 0.098793 0.899162
vn -0.040908 -0.104963 6.276383
v 0.269090 0.169028 1.096046
vn 0.681386 0.190350 6.200365
v 0.277721 0.157603 1.095850
vn 3.538003 4.385286 2.774653
v 0.412104 0.384005 1.027749
vn 3.247719 3.991929 3.505447
v 0.401073 0.378289 1.050059
vn 2.057816 4.952391 0.879092
v 0.412096 0.384022 1.027732
vn 0.255049 4.359118 2.702146
v 0.401058 0.378301 1.050060
vn 0.300554 3.133347 4.348516
v 0.400282 0.375614 1.052927
vn 2.055115 2.206865 5.179460
v 0.405678 0.371131 1.052927
vn 4.362862 4.210209 0.351910
v 0.420979 0.376115 1.025467
vn 3.999520 4.340491 0.799181
v 0.417492 0.379539 1.027732
vn -5.437449 -1.316311 -2.812239
v 0.197201 0.215925 0.975430
vn -4.710264 -2.908291 -2.854863
v 0.210941 0.215534 0.953722
vn -4.923031 -1.754271 -3.375671
v 0.208232 0.221641 0.953121
vn -4.560100 -2.185533 -3.716229
v 0.211716 0.218219 0.950857
vn -5.595334 0.224429 -0.223813
v 0.196422 0.213263 0.978295
vn -5.040118 1.489090 -1.153960
v 0.197198 0.215951 0.975428
vn -4.051962 -2.086657 -4.193017
v 0.290973 0.140394 0.899372
vn -4.062928 0.953379 -3.100078
v 0.208236 0.221671 0.953100
vn -3.535212 -0.298954 -4.990922
v 0.211723 0.218247 0.950835
vn -2.791154 -0.664522 -5.182927
v 0.290981 0.140419 0.899357
vn -2.472861 0.725771 3.497333
v 0.248182 0.199229 1.096045
vn -5.026543 1.535988 1.932400
v 0.200399 0.215941 0.997199
vn -5.370597 1.009036 2.766760
v 0.203466 0.214869 1.003543
vn 0.077629 0.051438 6.281794
v 0.253581 0.194725 1.096046
vn 0.416260 0.222893 6.255436
v 0.269100 0.169029 1.096045
vn 0.501577 0.436101 6.221405
v 0.253578 0.194746 1.096045
vn -0.230116 -0.072647 -6.250617
v 0.451702 0.305378 0.856043
vn -0.465991 -0.399035 -6.221829
v 0.467224 0.279661 0.856043
vn -0.851014 -0.522490 -6.200751
v 0.458603 0.291086 0.856238
vn 2.486294 1.740064 -3.943453
v 0.457098 0.300895 0.856043
vn 0.813279 2.171223 -3.605672
v 0.443081 0.316804 0.856238
vn 2.318420 2.295882 -3.709415
v 0.448477 0.312321 0.856238
vn -0.993025 -0.909386 -6.125467
v 0.330219 0.114748 0.894361
vn -1.149438 -0.727932 -6.130275
v 0.321598 0.126173 0.894556
vn 4.963210 3.373504 -1.828860
v 0.501814 0.285256 0.948546
vn 4.695169 3.841175 -1.620207
v 0.493193 0.296681 0.948741
vn 5.011822 3.358322 -1.697955
v 0.504880 0.284183 0.954890
vn 4.717746 3.825161 -1.589117
v 0.496259 0.295609 0.955085
vn 1.149457 0.727911 6.130274
v 0.399204 0.348234 1.057533
vn 0.993041 0.909368 6.125466
v 0.390583 0.359660 1.057728
vn 0.851012 0.522488 6.200752
v 0.262199 0.183321 1.095850
vn -0.467076 3.089080 -2.173374
v 0.360336 0.398056 0.909982
vn -3.563358 5.125560 -0.280574
v 0.349298 0.392336 0.932309
vn 0.456297 5.057309 -0.420458
v 0.364313 0.400734 0.928885
vn 0.582827 2.939242 -3.546388
v 0.363823 0.394632 0.907717
vn -2.651461 1.007782 -5.605883
v 0.348728 0.383160 0.912518
vn 3.858812 4.783270 -1.290516
v 0.367800 0.397310 0.926620
vn -3.396749 2.808689 -3.066009
v 0.345241 0.386584 0.914783
vn -2.286979 5.366219 1.059221
v 0.353275 0.395014 0.951213
vn -4.408832 4.248899 -0.469422
v 0.334202 0.380864 0.937110
vn -3.859346 4.453703 1.354478
v 0.338179 0.383542 0.956014
vn -2.460338 0.777413 -5.716714
v 0.427985 0.305332 0.861040
vn 3.880595 4.756666 -1.319295
v 0.447058 0.319482 0.875142
vn -1.650915 -0.135654 -5.994781
v 0.306076 0.151891 0.894556
vn 4.212335 4.415379 -1.384020
v 0.452454 0.314999 0.875142
vn 4.265140 4.389459 -1.319626
v 0.497170 0.299359 0.967645
vn -3.124822 4.440813 2.928107
v 0.385962 0.366829 1.054861
vn -1.460379 2.575199 4.320585
v 0.385187 0.364142 1.057728
vn 1.703314 5.440327 0.096433
v 0.409029 0.385094 1.021388
vn -1.797423 5.552374 1.807649
v 0.397991 0.379374 1.043715
vn 3.952519 4.757320 -1.106309
v 0.414425 0.380612 1.021388
vn 3.952362 4.757330 -1.106825
v 0.369709 0.396252 0.928885
vn -3.558678 4.487587 2.479029
v 0.382895 0.367902 1.048516
vn 3.952444 4.757223 -1.106991
v 0.373196 0.392827 0.926620
vn 3.952709 4.757131 -1.106441
v 0.417912 0.377188 1.019123
vn -4.774281 3.473766 1.420886
v 0.201175 0.218629 0.994331
vn -3.040269 1.208792 -5.334024
v 0.208254 0.221687 0.953093
vn -0.889264 4.921727 1.261999
v 0.245115 0.200302 1.089701
vn -4.068252 3.993568 2.641810
v 0.248958 0.201916 1.093178
vn -4.068258 3.993565 2.641805
v 0.245891 0.202989 1.086834
# 187 vertices, 0 vertices normals

f 1//1 2//2 3//3
f 1//1 4//4 5//5
f 1//1 6//6 4//4
f 1//1 3//3 7//7
f 1//1 5//5 8//8
f 1//1 8//8 9//9
f 1//1 10//10 6//6
f 1//1 7//7 11//11
f 1//1 9//9 2//2
f 1//1 11//11 10//10
f 12//12 2//2 9//9
f 12//12 13//13 14//14
f 12//12 15//15 3//3
f 12//12 14//14 15//15
f 12//12 3//3 2//2
f 12//12 16//16 17//17
f 12//12 9//9 16//16
f 12//12 17//17 13//13
f 13//13 17//17 14//14
f 18//18 19//19 20//20
f 18//18 21//21 22//22
f 18//18 20//20 21//21
f 18//18 22//22 23//23
f 18//18 23//23 19//19
f 19//19 23//23 24//24
f 19//19 24//24 25//25
f 19//19 25//25 20//20
f 21//21 20//20 26//26
f 21//21 27//27 28//28
f 21//21 29//29 30//30
f 21//21 30//30 27//27
f 21//21 31//31 32//32
f 21//21 26//26 31//31
f 21//21 32//32 29//29
f 21//21 28//28 33//33
f 21//21 33//33 22//22
f 20//20 34//34 26//26
f 20//20 35//35 36//36
f 20//20 36//36 34//34
f 20//20 25//25 35//35
f 27//27 30//30 28//28
f 22//22 37//37 38//38
f 22//22 38//38 23//23
f 22//22 33//33 37//37
f 23//23 38//38 39//39
f 23//23 39//39 24//24
f 29//29 40//40 30//30
f 29//29 32//32 40//40
f 34//34 36//36 41//41
f 34//34 41//41 26//26
f 35//35 25//25 36//36
f 30//30 40//40 42//42
f 30//30 43//43 28//28
f 30//30 42//42 43//43
f 24//24 44//44 16//16
f 24//24 16//16 25//25
f 24//24 39//39 44//44
f 4//4 6//6 45//45
f 4//4 45//45 5//5
f 46//46 47//47 48//48
f 46//46 48//48 32//32
f 46//46 32//32 47//47
f 47//47 26//26 8//8
f 47//47 5//5 48//48
f 47//47 32//32 26//26
f 47//47 8//8 5//5
f 31//31 26//26 32//32
f 26//26 41//41 8//8
f 36//36 25//25 49//49
f 36//36 8//8 41//41
f 36//36 49//49 50//50
f 36//36 50//50 8//8
f 15//15 14//14 51//51
f 15//15 7//7 3//3
f 15//15 51//51 7//7
f 14//14 17//17 51//51
f 25//25 16//16 49//49
f 52//52 6//6 10//10
f 52//52 10//10 11//11
f 52//52 53//53 6//6
f 52//52 54//54 53//53
f 52//52 11//11 55//55
f 52//52 55//55 54//54
f 40//40 32//32 42//42
f 43//43 42//42 56//56
f 43//43 56//56 57//57
f 43//43 58//58 28//28
f 43//43 57//57 58//58
f 59//59 51//51 60//60
f 59//59 61//61 62//62
f 59//59 62//62 63//63
f 59//59 64//64 65//65
f 59//59 63//63 51//51
f 59//59 65//65 61//61
f 59//59 60//60 64//64
f 37//37 33//33 39//39
f 37//37 39//39 38//38
f 44//44 39//39 64//64
f 44//44 64//64 17//17
f 44//44 17//17 16//16
f 6//6 53//53 66//66
f 6//6 66//66 45//45
f 45//45 66//66 5//5
f 48//48 5//5 67//67
f 48//48 67//67 68//68
f 48//48 68//68 69//69
f 48//48 69//69 32//32
f 5//5 70//70 67//67
f 5//5 66//66 70//70
f 32//32 69//69 42//42
f 8//8 50//50 9//9
f 49//49 16//16 9//9
f 49//49 9//9 50//50
f 7//7 51//51 63//63
f 7//7 63//63 11//11
f 51//51 17//17 60//60
f 53//53 71//71 66//66
f 53//53 54//54 72//72
f 53//53 72//72 73//73
f 53//53 73//73 71//71
f 71//71 70//70 66//66
f 71//71 73//73 70//70
f 74//74 67//67 70//70
f 74//74 75//75 76//76
f 74//74 70//70 75//75
f 74//74 76//76 67//67
f 67//67 76//76 77//77
f 67//67 77//77 68//68
f 75//75 70//70 72//72
f 75//75 78//78 79//79
f 75//75 72//72 78//78
f 75//75 79//79 76//76
f 70//70 73//73 72//72
f 80//80 54//54 81//81
f 80//80 72//72 54//54
f 80//80 82//82 72//72
f 80//80 81//81 83//83
f 80//80 83//83 82//82
f 54//54 55//55 81//81
f 42//42 69//69 84//84
f 42//42 84//84 56//56
f 28//28 58//58 85//85
f 28//28 85//85 33//33
f 56//56 84//84 86//86
f 56//56 86//86 57//57
f 58//58 87//87 88//88
f 58//58 57//57 87//87
f 58//58 88//88 89//89
f 58//58 89//89 85//85
f 90//90 61//61 91//91
f 90//90 92//92 93//93
f 90//90 91//91 92//92
f 90//90 93//93 94//94
f 90//90 94//94 95//95
f 90//90 95//95 61//61
f 61//61 96//96 91//91
f 61//61 97//97 62//62
f 61//61 95//95 98//98
f 61//61 65//65 96//96
f 61//61 98//98 97//97
f 62//62 97//97 63//63
f 96//96 39//39 99//99
f 96//96 100//100 91//91
f 96//96 99//99 100//100
f 96//96 65//65 39//39
f 33//33 85//85 39//39
f 39//39 85//85 99//99
f 39//39 65//65 64//64
f 64//64 60//60 17//17
f 101//101 102//102 103//103
f 101//101 92//92 91//91
f 101//101 91//91 102//102
f 101//101 103//103 104//104
f 101//101 105//105 92//92
f 101//101 104//104 105//105
f 102//102 91//91 106//106
f 102//102 107//107 103//103
f 102//102 106//106 107//107
f 92//92 105//105 108//108
f 92//92 108//108 93//93
f 91//91 100//100 106//106
f 100//100 99//99 106//106
f 103//103 107//107 85//85
f 103//103 109//109 110//110
f 103//103 85//85 109//109
f 103//103 110//110 104//104
f 107//107 106//106 85//85
f 106//106 99//99 85//85
f 109//109 85//85 89//89
f 109//109 111//111 112//112
f 109//109 89//89 111//111
f 109//109 112//112 110//110
f 68//68 113//113 84//84
f 68//68 84//84 69//69
f 68//68 77//77 113//113
f 113//113 77//77 114//114
f 113//113 114//114 115//115
f 113//113 116//116 117//117
f 113//113 117//117 84//84
f 113//113 115//115 116//116
f 84//84 117//117 86//86
f 11//11 63//63 118//118
f 11//11 118//118 55//55
f 97//97 98//98 63//63
f 63//63 98//98 119//119
f 63//63 119//119 118//118
f 120//120 121//121 108//108
f 120//120 105//105 122//122
f 120//120 108//108 105//105
f 120//120 122//122 123//123
f 120//120 123//123 121//121
f 121//121 124//124 108//108
f 121//121 123//123 124//124
f 93//93 108//108 124//124
f 93//93 124//124 125//125
f 93//93 125//125 94//94
f 105//105 104//104 126//126
f 105//105 127//127 122//122
f 105//105 126//126 127//127
f 104//104 110//110 112//112
f 104//104 112//112 126//126
f 78//78 72//72 128//128
f 78//78 129//129 79//79
f 78//78 130//130 131//131
f 78//78 128//128 130//130
f 78//78 131//131 129//129
f 72//72 82//82 132//132
f 72//72 132//132 133//133
f 72//72 133//133 128//128
f 79//79 129//129 76//76
f 129//129 131//131 134//134
f 129//129 134//134 76//76
f 76//76 134//134 114//114
f 76//76 114//114 77//77
f 130//130 128//128 135//135
f 130//130 135//135 131//131
f 128//128 133//133 135//135
f 131//131 135//135 134//134
f 134//134 135//135 136//136
f 134//134 136//136 137//137
f 134//134 137//137 114//114
f 114//114 137//137 115//115
f 82//82 83//83 138//138
f 82//82 139//139 132//132
f 82//82 138//138 140//140
f 82//82 140//140 139//139
f 81//81 55//55 141//141
f 81//81 141//141 138//138
f 81//81 138//138 83//83
f 55//55 118//118 141//141
f 141//141 118//118 142//142
f 141//141 143//143 138//138
f 141//141 142//142 143//143
f 118//118 119//119 142//142
f 144//144 145//145 146//146
f 144//144 147//147 145//145
f 144//144 148//148 149//149
f 144//144 146//146 148//148
f 144//144 149//149 147//147
f 145//145 150//150 151//151
f 145//145 147//147 57//57
f 145//145 57//57 150//150
f 145//145 151//151 146//146
f 150//150 57//57 86//86
f 150//150 86//86 117//117
f 150//150 116//116 115//115
f 150//150 117//117 116//116
f 150//150 115//115 151//151
f 152//152 87//87 57//57
f 152//152 147//147 153//153
f 152//152 57//57 147//147
f 152//152 154//154 87//87
f 152//152 153//153 154//154
f 87//87 154//154 88//88
f 147//147 149//149 153//153
f 154//154 111//111 89//89
f 154//154 89//89 88//88
f 154//154 153//153 155//155
f 154//154 155//155 111//111
f 94//94 156//156 95//95
f 94//94 125//125 157//157
f 94//94 157//157 156//156
f 95//95 156//156 98//98
f 111//111 155//155 112//112
f 156//156 158//158 98//98
f 156//156 157//157 158//158
f 98//98 158//158 119//119
f 158//158 157//157 143//143
f 158//158 143//143 142//142
f 158//158 142//142 119//119
f 159//159 160//160 161//161
f 159//159 162//162 163//163
f 159//159 161//161 164//164
f 159//159 164//164 162//162
f 159//159 165//165 160//160
f 159//159 163//163 165//165
f 160//160 166//166 161//161
f 160//160 165//165 167//167
f 160//160 167//167 168//168
f 160//160 168//168 166//166
f 162//162 148//148 169//169
f 162//162 164//164 170//170
f 162//162 170//170 148//148
f 162//162 169//169 163//163
f 148//148 146//146 171//171
f 148//148 171//171 169//169
f 148//148 170//170 149//149
f 146//146 151//151 171//171
f 171//171 151//151 115//115
f 171//171 137//137 169//169
f 171//171 115//115 137//137
f 153//153 149//149 172//172
f 153//153 173//173 155//155
f 153//153 172//172 173//173
f 149//149 170//170 172//172
f 155//155 173//173 112//112
f 124//124 123//123 174//174
f 124//124 175//175 157//157
f 124//124 174//174 175//175
f 124//124 157//157 125//125
f 176//176 177//177 122//122
f 176//176 161//161 166//166
f 176//176 166//166 177//177
f 176//176 122//122 178//178
f 176//176 178//178 179//179
f 176//176 179//179 161//161
f 177//177 166//166 180//180
f 177//177 123//123 122//122
f 177//177 180//180 174//174
f 177//177 174//174 123//123
f 161//161 179//179 164//164
f 166//166 168//168 180//180
f 122//122 127//127 178//178
f 164//164 179//179 181//181
f 164//164 181//181 170//170
f 170//170 181//181 172//172
f 178//178 127//127 126//126
f 178//178 182//182 179//179
f 178//178 126//126 182//182
f 179//179 182//182 181//181
f 182//182 173//173 172//172
f 182//182 172//172 181//181
f 182//182 126//126 112//112
f 182//182 112//112 173//173
f 132//132 139//139 183//183
f 132//132 183//183 133//133
f 165//165 135//135 133//133
f 165//165 133//133 167//167
f 165//165 163//163 184//184
f 165//165 184//184 135//135
f 167//167 133//133 183//183
f 167//167 183//183 168//168
f 135//135 184//184 136//136
f 163//163 169//169 184//184
f 136//136 184//184 137//137
f 169//169 137//137 184//184
f 185//185 139//139 138//138
f 185//185 138//138 186//186
f 185//185 187//187 139//139
f 185//185 186//186 187//187
f 139//139 140//140 138//138
f 139//139 187//187 183//183
f 175//175 138//138 143//143
f 175//175 174//174 138//138
f 175//175 143//143 157//157
f 138//138 174//174 186//186
f 180//180 187//187 186//186
f 180//180 168//168 187//187
f 180//180 186//186 174//174
f 187//187 168//168 183//183
# 370 faces, 0 coords texture

# End of File
