####
#
# OBJ File Generated by Meshlab
#
####
# Object matlab_mesh_step24_link2.obj
#
# Vertices: 163
# Faces: 322
#
####
vn 0.618309 6.196524 0.467554
v -0.045130 0.305345 0.757507
vn 0.243758 6.218048 0.868258
v -0.075456 0.308087 0.746397
vn 0.332658 6.158943 1.155180
v -0.078799 0.289620 0.875180
vn 0.333941 6.236520 0.615037
v -0.075598 0.308101 0.746341
vn 0.321053 6.236917 0.621565
v -0.075730 0.308113 0.746289
vn 0.509268 6.256408 0.202583
v -0.065202 0.307405 0.746034
vn 0.760902 6.234277 -0.182303
v -0.063144 0.307208 0.746032
vn 0.678908 6.240345 -0.141156
v -0.063178 0.307212 0.746010
vn 0.524770 6.168416 1.060730
v -0.067539 0.288857 0.875180
vn 0.679489 6.124424 1.197915
v -0.065513 0.288664 0.875178
vn 1.258311 5.997922 1.195253
v 0.063487 0.272947 0.875184
vn 1.919875 3.197407 -2.185673
v 0.065754 0.291496 0.745964
vn 0.894904 3.492972 -3.016723
v 0.065747 0.291497 0.745962
vn 1.248930 6.079699 0.894684
v 0.063682 0.274546 0.864043
vn 5.624703 1.298156 0.426080
v 0.072386 0.260658 0.874975
vn 4.387215 1.559145 -0.969869
v 0.076479 0.281470 0.757532
vn 5.038941 3.647555 0.881522
v 0.063520 0.272919 0.875169
vn 5.616313 1.304742 0.445712
v 0.072371 0.260581 0.875411
vn 2.295676 -2.289834 2.179655
v 0.034686 0.036257 0.842066
vn 4.306423 4.232699 -0.435966
v 0.065784 0.291475 0.745993
vn 4.147219 4.567104 0.957028
v 0.063501 0.272940 0.875178
vn 4.577627 0.298635 -4.272461
v 0.065688 0.290603 0.745772
vn 3.872685 2.907480 -1.644070
v 0.065772 0.291485 0.745979
vn 4.804402 3.924751 0.907870
v 0.063510 0.272931 0.875174
vn 1.672823 -1.814426 -2.061964
v 0.036964 0.055009 0.711991
vn 2.903874 -0.119797 -3.914650
v 0.037449 0.058987 0.711991
vn 2.852392 -3.583099 -0.694426
v 0.036946 0.054809 0.712848
vn 5.534301 -2.501305 -0.262314
v 0.036751 0.053210 0.723985
vn 2.987624 0.535465 2.560588
v 0.072360 0.260528 0.875689
vn -0.106599 -0.745419 6.236007
v 0.071663 0.260390 0.875689
vn 2.886478 -0.825351 3.704429
v 0.072315 0.260298 0.875689
vn -0.243398 -0.386635 6.240828
v -0.079302 0.285445 0.876042
vn -2.985650 -0.256586 4.255139
v -0.107071 0.057639 0.842833
vn -3.088644 -0.392280 3.541961
v -0.107538 0.053803 0.842274
vn 0.067944 -0.120782 6.278662
v 0.063008 0.268759 0.876040
vn -0.019554 -0.166163 6.278726
v 0.049726 0.269716 0.876042
vn -0.017993 -0.253380 6.277963
v 0.051761 0.269522 0.876040
vn 2.649021 -1.267208 5.053124
v 0.034769 0.037132 0.842272
vn -0.142102 -1.166471 6.166690
v -0.100082 0.052895 0.842274
vn -0.124690 -1.171054 6.165712
v 0.021486 0.038086 0.842274
vn -0.093106 -1.175760 6.165601
v 0.023493 0.037894 0.842272
vn 0.398477 -1.268493 6.102989
v 0.034767 0.037131 0.842272
vn 5.022899 3.621806 1.058465
v 0.063501 0.272716 0.876039
vn 2.439160 1.924396 3.544716
v 0.063492 0.272729 0.876040
vn 0.076285 -6.116172 -0.397851
v 0.028199 0.035972 0.834399
vn 0.644273 -6.075082 0.007106
v 0.034672 0.036253 0.842046
vn -0.495936 -6.206646 0.777114
v 0.023433 0.037017 0.842055
vn -0.691726 -6.212792 0.575731
v 0.021399 0.037211 0.842057
vn -1.901893 -1.940461 1.522165
v -0.107621 0.052932 0.842069
vn 1.511750 -5.666460 -0.890874
v 0.036945 0.054808 0.712854
vn -0.666453 -6.123413 -1.205954
v 0.023660 0.055764 0.712850
vn -0.501827 -6.138346 -1.209760
v 0.025676 0.055572 0.712848
vn -3.434695 -2.938011 -0.628642
v -0.105362 0.071483 0.712847
vn -0.745214 -6.117054 -1.204273
v -0.097905 0.070575 0.712847
vn -3.551063 -3.116589 -0.509533
v -0.105556 0.069884 0.723988
vn 0.313905 6.238055 0.603144
v -0.075852 0.308124 0.746241
vn 0.305515 6.239255 0.582481
v -0.075965 0.308134 0.746197
vn -0.629100 6.052023 1.102982
v -0.078813 0.289620 0.875183
vn 0.296649 6.240377 0.559978
v -0.076068 0.308142 0.746157
vn 0.285167 6.241456 0.529828
v -0.076161 0.308150 0.746120
vn 0.511894 6.258562 0.067477
v -0.065229 0.307407 0.746012
vn 0.272277 6.242404 0.496653
v -0.076244 0.308157 0.746087
vn 0.255618 6.242782 0.451023
v -0.076317 0.308162 0.746059
vn 0.510405 6.255421 -0.144636
v -0.065251 0.307409 0.745995
vn 0.232566 6.242063 0.388421
v -0.076381 0.308166 0.746034
vn 0.201137 6.238704 0.303370
v -0.076435 0.308170 0.746012
vn 0.153709 6.227752 0.172504
v -0.076479 0.308172 0.745995
vn 0.507074 6.232191 -0.509978
v -0.065267 0.307410 0.745981
vn 0.677065 6.229447 -0.358759
v -0.063208 0.307214 0.745993
vn 1.186517 -5.765269 0.324645
v 0.034680 0.036254 0.842055
vn 0.071822 6.191588 -0.057454
v -0.076514 0.308173 0.745981
vn 0.672859 6.191768 -0.726638
v -0.063233 0.307216 0.745979
vn 2.714919 5.411109 1.059123
v 0.063494 0.272945 0.875181
vn 4.050575 0.451251 -4.721717
v 0.065679 0.290614 0.745763
vn 3.939759 0.228609 -4.861204
v 0.065212 0.286783 0.745204
vn -0.660649 -6.002399 1.526203
v 0.021398 0.037212 0.842064
vn -0.483661 -5.953302 1.722556
v 0.023424 0.037019 0.842062
vn 3.082158 -5.267609 -0.702437
v 0.036751 0.053210 0.723981
vn 2.304122 -4.296699 0.972103
v 0.034684 0.036255 0.842062
vn 0.494343 6.115982 -1.216612
v -0.065278 0.307409 0.745972
vn -0.111611 6.042898 -0.524487
v -0.076538 0.308173 0.745972
vn 0.655512 6.042391 -1.441178
v -0.063252 0.307216 0.745970
vn 3.180345 3.086653 -1.841505
v 0.065762 0.291492 0.745970
vn 2.111378 2.337612 3.528812
v 0.063483 0.272739 0.876040
vn -0.026227 -0.100741 6.281175
v -0.079279 0.285447 0.876042
vn -0.013634 -0.111816 6.281165
v -0.071840 0.284540 0.876042
vn 0.024324 0.535473 6.235872
v -0.078795 0.289416 0.876042
vn 0.066211 3.004505 3.845602
v -0.078818 0.289419 0.876042
vn 0.042005 0.415493 6.255304
v -0.067548 0.288653 0.876042
vn -0.005952 -0.109658 6.281234
v 0.060973 0.268953 0.876042
vn 0.007787 0.063859 6.282527
v 0.054019 0.273830 0.876042
vn 0.009904 0.062736 6.282524
v 0.061457 0.272923 0.876042
vn 0.295397 3.237814 4.290502
v -0.067557 0.288656 0.876042
vn 0.022296 0.177587 6.280421
v 0.061457 0.272932 0.876042
vn 0.082969 0.682396 6.228493
v -0.065513 0.288459 0.876040
vn 0.393925 3.459972 3.818781
v -0.065532 0.288463 0.876040
vn 0.115281 0.945867 6.201067
v 0.056036 0.273646 0.876040
vn 2.548073 0.508053 -5.614787
v 0.065203 0.286788 0.745199
vn 2.670815 0.748274 -5.476880
v 0.065670 0.290622 0.745758
vn -0.468116 -4.298925 3.930902
v 0.021400 0.037213 0.842068
vn -0.357545 -4.231123 4.007031
v 0.023416 0.037021 0.842066
vn 0.399155 5.133163 -3.136048
v -0.065284 0.307408 0.745966
vn -1.085290 6.090349 0.855409
v -0.078619 0.291219 0.864047
vn -0.822119 4.884261 -1.693498
v -0.076553 0.308172 0.745966
vn 0.533558 5.003961 -3.279019
v -0.063267 0.307216 0.745964
vn 0.442478 5.820645 2.167279
v -0.067562 0.288657 0.876041
vn -0.823777 2.834363 3.489765
v -0.078832 0.289420 0.876041
vn 0.474583 6.138756 1.221366
v -0.067544 0.288857 0.875183
vn 0.608945 6.120216 1.269368
v -0.065528 0.288665 0.875181
vn 1.008529 5.297720 2.650942
v 0.063469 0.272747 0.876037
vn 0.589758 5.934324 1.907500
v -0.065546 0.288464 0.876039
vn 2.162015 5.800593 0.870611
v 0.063689 0.274544 0.864045
vn 1.566094 3.337685 3.392440
v 0.063476 0.272745 0.876039
vn -1.404901 -0.232110 5.953473
v -0.079316 0.285443 0.876041
vn 0.494333 4.057014 4.707679
v 0.056022 0.273653 0.876039
vn -2.740740 -0.330069 -3.567147
v -0.105343 0.071684 0.711993
vn -0.170096 -1.396081 -6.003830
v -0.097890 0.070776 0.711993
vn -2.457355 -1.883131 -1.836338
v -0.105343 0.071682 0.711994
vn -2.858763 0.632063 -3.897245
v -0.104858 0.075662 0.711993
vn -0.015462 -0.114073 -6.281039
v -0.103327 0.071492 0.711991
vn -6.095995 0.788288 -1.195145
v -0.104859 0.075662 0.711994
vn -6.265429 0.436199 -0.039466
v -0.107603 0.053133 0.841210
vn -5.757850 -1.271973 -0.029001
v -0.107621 0.052933 0.842068
vn -6.245574 0.680031 0.007543
v -0.107520 0.054008 0.841416
vn -6.222550 0.716016 -0.327279
v -0.105260 0.072553 0.712199
vn -0.345072 -3.161530 -3.831813
v 0.023678 0.055965 0.711993
vn -0.014045 -0.115279 -6.281038
v -0.095873 0.070584 0.711991
vn -0.249230 -3.054339 -3.832562
v 0.025695 0.055773 0.711991
vn -0.684065 -5.615119 -2.483178
v -0.097887 0.070774 0.711994
vn 0.042732 0.563175 -6.248334
v -0.093589 0.074898 0.711993
vn 0.005986 0.110520 -6.281203
v -0.102842 0.075470 0.711991
vn -5.960099 0.978383 -1.731519
v -0.104775 0.076537 0.712199
vn -6.095917 0.870072 -0.874602
v -0.077025 0.304334 0.745404
vn -2.946930 0.939655 -3.983551
v -0.077108 0.303463 0.745199
vn 0.070012 0.897889 -6.218298
v -0.065835 0.302700 0.745199
vn -6.099437 0.864659 -0.865414
v -0.104776 0.076532 0.712199
vn 0.047440 0.452152 -6.250110
v -0.091573 0.074706 0.711991
vn 0.093986 0.895012 -6.218385
v -0.063828 0.302508 0.745197
vn 0.054414 0.446598 -6.250804
v 0.029995 0.059895 0.711991
vn 0.108816 0.893225 -6.218418
v 0.057740 0.287699 0.745197
vn 0.833297 0.792522 -6.132994
v 0.065197 0.286791 0.745197
vn 0.954046 1.088542 -6.028421
v 0.065664 0.290627 0.745757
vn -6.017166 0.508195 1.196450
v -0.107538 0.053808 0.842274
vn -0.216730 -2.135879 5.854044
v 0.021403 0.037215 0.842069
vn -0.355321 -2.916647 5.280375
v -0.100165 0.052024 0.842069
vn -0.183280 -2.112943 5.867706
v 0.023410 0.037024 0.842067
vn 0.455457 -1.819084 5.911833
v 0.034684 0.036260 0.842067
vn -6.237169 0.758329 0.023108
v -0.079303 0.285640 0.875186
vn -6.237075 0.759812 0.000004
v -0.079108 0.287239 0.864045
vn -6.237073 0.759831 -0.000201
v -0.077043 0.304190 0.745964
vn -6.237074 0.759815 -0.000221
v -0.077510 0.300355 0.745404
vn -4.001020 3.366549 0.413346
v -0.078623 0.291218 0.864045
vn -3.763007 3.387015 0.610445
v -0.078818 0.289619 0.875186
vn 0.227376 2.843320 -5.359317
v -0.065284 0.307406 0.745964
vn -2.147950 2.089861 -1.875639
v -0.076558 0.308170 0.745964
vn 0.282116 2.844365 -5.352673
v -0.063277 0.307215 0.745962
vn -2.905716 2.143544 2.061937
v -0.078836 0.289420 0.876039
vn 0.420356 3.450431 -4.561647
v 0.058291 0.292406 0.745962
vn -4.174249 0.217154 2.971486
v -0.079321 0.285440 0.876039
vn -2.852418 1.060064 -3.959037
v -0.076641 0.307299 0.745759
vn 0.092008 1.165991 -6.167013
v -0.065367 0.306535 0.745759
vn 0.123279 1.162603 -6.166929
v -0.063361 0.306344 0.745757
vn 0.141142 1.158587 -6.167833
v 0.058208 0.291535 0.745757
# 163 vertices, 0 vertices normals

f 1//1 2//2 3//3
f 1//1 4//4 2//2
f 1//1 5//5 4//4
f 1//1 6//6 5//5
f 1//1 7//7 8//8
f 1//1 8//8 6//6
f 1//1 3//3 9//9
f 1//1 9//9 10//10
f 1//1 10//10 11//11
f 1//1 12//12 13//13
f 1//1 14//14 12//12
f 1//1 13//13 7//7
f 1//1 11//11 14//14
f 15//15 16//16 17//17
f 15//15 18//18 19//19
f 15//15 17//17 18//18
f 15//15 19//19 16//16
f 16//16 20//20 21//21
f 16//16 22//22 23//23
f 16//16 23//23 20//20
f 16//16 24//24 17//17
f 16//16 21//21 24//24
f 16//16 25//25 26//26
f 16//16 26//26 22//22
f 16//16 27//27 25//25
f 16//16 19//19 28//28
f 16//16 28//28 27//27
f 18//18 29//29 19//19
f 18//18 17//17 29//29
f 30//30 31//31 32//32
f 30//30 32//32 33//33
f 30//30 33//33 34//34
f 30//30 34//34 31//31
f 31//31 29//29 35//35
f 31//31 36//36 32//32
f 31//31 37//37 36//36
f 31//31 35//35 37//37
f 31//31 19//19 29//29
f 31//31 38//38 19//19
f 31//31 34//34 39//39
f 31//31 39//39 40//40
f 31//31 40//40 41//41
f 31//31 41//41 42//42
f 31//31 42//42 38//38
f 29//29 17//17 43//43
f 29//29 43//43 44//44
f 29//29 44//44 35//35
f 45//45 46//46 47//47
f 45//45 48//48 49//49
f 45//45 47//47 48//48
f 45//45 50//50 46//46
f 45//45 51//51 52//52
f 45//45 52//52 50//50
f 45//45 53//53 54//54
f 45//45 49//49 55//55
f 45//45 55//55 53//53
f 45//45 54//54 51//51
f 2//2 4//4 3//3
f 4//4 5//5 3//3
f 5//5 56//56 3//3
f 5//5 6//6 56//56
f 56//56 57//57 58//58
f 56//56 6//6 57//57
f 56//56 58//58 3//3
f 57//57 59//59 58//58
f 57//57 6//6 59//59
f 59//59 60//60 58//58
f 59//59 6//6 61//61
f 59//59 61//61 60//60
f 60//60 62//62 58//58
f 60//60 61//61 62//62
f 62//62 63//63 58//58
f 62//62 61//61 64//64
f 62//62 64//64 63//63
f 63//63 65//65 58//58
f 63//63 64//64 65//65
f 65//65 66//66 58//58
f 65//65 64//64 66//66
f 6//6 8//8 61//61
f 7//7 13//13 8//8
f 66//66 67//67 58//58
f 66//66 64//64 68//68
f 66//66 68//68 67//67
f 61//61 8//8 69//69
f 61//61 69//69 64//64
f 8//8 13//13 69//69
f 46//46 70//70 47//47
f 46//46 50//50 70//70
f 67//67 71//71 58//58
f 67//67 68//68 71//71
f 64//64 69//69 72//72
f 64//64 72//72 68//68
f 69//69 13//13 72//72
f 20//20 23//23 73//73
f 20//20 73//73 21//21
f 17//17 24//24 44//44
f 17//17 44//44 43//43
f 22//22 74//74 23//23
f 22//22 75//75 74//74
f 22//22 26//26 75//75
f 48//48 47//47 76//76
f 48//48 76//76 49//49
f 47//47 70//70 77//77
f 47//47 77//77 76//76
f 70//70 50//50 78//78
f 70//70 79//79 77//77
f 70//70 78//78 79//79
f 71//71 68//68 80//80
f 71//71 81//81 58//58
f 71//71 80//80 81//81
f 68//68 72//72 82//82
f 68//68 82//82 80//80
f 72//72 13//13 82//82
f 23//23 74//74 83//83
f 23//23 83//83 73//73
f 24//24 21//21 84//84
f 24//24 84//84 44//44
f 85//85 86//86 87//87
f 85//85 87//87 88//88
f 85//85 32//32 86//86
f 85//85 88//88 32//32
f 86//86 36//36 89//89
f 86//86 89//89 87//87
f 86//86 32//32 36//36
f 36//36 90//90 91//91
f 36//36 91//91 89//89
f 36//36 37//37 90//90
f 90//90 92//92 91//91
f 90//90 37//37 35//35
f 90//90 35//35 92//92
f 87//87 89//89 93//93
f 87//87 93//93 88//88
f 89//89 91//91 94//94
f 89//89 95//95 93//93
f 89//89 94//94 95//95
f 91//91 92//92 94//94
f 92//92 35//35 44//44
f 92//92 44//44 94//94
f 95//95 94//94 84//84
f 95//95 96//96 93//93
f 95//95 97//97 96//96
f 95//95 84//84 97//97
f 44//44 84//84 94//94
f 74//74 75//75 98//98
f 74//74 99//99 12//12
f 74//74 98//98 99//99
f 74//74 12//12 83//83
f 75//75 26//26 98//98
f 76//76 77//77 100//100
f 76//76 100//100 49//49
f 50//50 52//52 27//27
f 50//50 27//27 78//78
f 77//77 79//79 101//101
f 77//77 101//101 100//100
f 79//79 78//78 27//27
f 79//79 27//27 28//28
f 79//79 19//19 101//101
f 79//79 28//28 19//19
f 81//81 80//80 102//102
f 81//81 103//103 58//58
f 81//81 104//104 103//103
f 81//81 102//102 104//104
f 80//80 82//82 105//105
f 80//80 105//105 102//102
f 3//3 88//88 106//106
f 3//3 58//58 107//107
f 3//3 108//108 9//9
f 3//3 107//107 88//88
f 3//3 106//106 108//108
f 9//9 108//108 109//109
f 9//9 109//109 10//10
f 82//82 13//13 105//105
f 10//10 96//96 110//110
f 10//10 109//109 111//111
f 10//10 111//111 96//96
f 10//10 110//110 11//11
f 83//83 112//112 73//73
f 83//83 12//12 112//112
f 21//21 73//73 113//113
f 21//21 113//113 84//84
f 32//32 88//88 107//107
f 32//32 114//114 33//33
f 32//32 107//107 114//114
f 88//88 93//93 106//106
f 93//93 96//96 111//111
f 93//93 111//111 106//106
f 96//96 97//97 113//113
f 96//96 115//115 110//110
f 96//96 113//113 115//115
f 97//97 84//84 113//113
f 116//116 117//117 118//118
f 116//116 119//119 120//120
f 116//116 120//120 117//117
f 116//116 118//118 121//121
f 116//116 121//121 119//119
f 122//122 123//123 124//124
f 122//122 124//124 125//125
f 122//122 118//118 123//123
f 122//122 125//125 118//118
f 117//117 126//126 118//118
f 117//117 120//120 127//127
f 117//117 127//127 126//126
f 126//126 127//127 128//128
f 126//126 128//128 51//51
f 126//126 51//51 129//129
f 126//126 129//129 118//118
f 119//119 130//130 131//131
f 119//119 131//131 120//120
f 119//119 132//132 133//133
f 119//119 134//134 135//135
f 119//119 135//135 130//130
f 119//119 121//121 136//136
f 119//119 133//133 134//134
f 119//119 136//136 132//132
f 130//130 137//137 131//131
f 130//130 135//135 138//138
f 130//130 138//138 137//137
f 120//120 131//131 127//127
f 127//127 131//131 137//137
f 127//127 137//137 128//128
f 128//128 25//25 52//52
f 128//128 137//137 139//139
f 128//128 139//139 25//25
f 128//128 52//52 51//51
f 25//25 139//139 26//26
f 25//25 27//27 52//52
f 137//137 138//138 140//140
f 137//137 140//140 141//141
f 137//137 141//141 139//139
f 139//139 141//141 26//26
f 99//99 98//98 142//142
f 99//99 142//142 13//13
f 99//99 13//13 12//12
f 98//98 26//26 141//141
f 98//98 141//141 142//142
f 123//123 143//143 124//124
f 123//123 118//118 53//53
f 123//123 53//53 55//55
f 123//123 49//49 34//34
f 123//123 55//55 49//49
f 123//123 34//34 143//143
f 51//51 54//54 129//129
f 100//100 101//101 144//144
f 100//100 145//145 49//49
f 100//100 144//144 145//145
f 101//101 19//19 146//146
f 101//101 146//146 144//144
f 19//19 38//38 147//147
f 19//19 147//147 146//146
f 124//124 143//143 148//148
f 124//124 149//149 150//150
f 124//124 150//150 151//151
f 124//124 148//148 149//149
f 124//124 151//151 125//125
f 103//103 104//104 152//152
f 103//103 152//152 153//153
f 103//103 153//153 58//58
f 104//104 102//102 154//154
f 104//104 155//155 152//152
f 104//104 154//154 155//155
f 102//102 105//105 156//156
f 102//102 156//156 154//154
f 58//58 153//153 157//157
f 58//58 157//157 107//107
f 108//108 106//106 109//109
f 132//132 136//136 133//133
f 105//105 158//158 156//156
f 105//105 13//13 158//158
f 109//109 106//106 111//111
f 112//112 12//12 11//11
f 112//112 11//11 73//73
f 12//12 14//14 11//11
f 73//73 11//11 110//110
f 73//73 110//110 113//113
f 114//114 107//107 157//157
f 114//114 159//159 33//33
f 114//114 157//157 159//159
f 143//143 159//159 148//148
f 143//143 33//33 159//159
f 143//143 34//34 33//33
f 38//38 42//42 147//147
f 115//115 113//113 110//110
f 118//118 129//129 53//53
f 118//118 125//125 121//121
f 129//129 54//54 53//53
f 160//160 161//161 135//135
f 160//160 134//134 133//133
f 160//160 135//135 134//134
f 160//160 155//155 161//161
f 160//160 133//133 155//155
f 161//161 162//162 138//138
f 161//161 138//138 135//135
f 161//161 155//155 154//154
f 161//161 154//154 156//156
f 161//161 156//156 162//162
f 121//121 125//125 136//136
f 162//162 163//163 140//140
f 162//162 140//140 138//138
f 162//162 156//156 158//158
f 162//162 158//158 163//163
f 163//163 142//142 140//140
f 163//163 158//158 13//13
f 163//163 13//13 142//142
f 140//140 142//142 141//141
f 49//49 145//145 39//39
f 49//49 39//39 34//34
f 145//145 144//144 40//40
f 145//145 40//40 39//39
f 144//144 146//146 41//41
f 144//144 41//41 40//40
f 146//146 147//147 41//41
f 147//147 42//42 41//41
f 149//149 148//148 153//153
f 149//149 152//152 150//150
f 149//149 153//153 152//152
f 150//150 152//152 155//155
f 150//150 155//155 133//133
f 150//150 133//133 151//151
f 148//148 159//159 157//157
f 148//148 157//157 153//153
f 151//151 133//133 125//125
f 125//125 133//133 136//136
# 322 faces, 0 coords texture

# End of File
