####
#
# OBJ File Generated by Meshlab
#
####
# Object matlab_mesh_slc_step9_link7.obj
#
# Vertices: 124
# Faces: 244
#
####
vn -4.593127 -3.965286 -1.204982
v 0.438557 0.560788 0.869912
vn -4.118448 -4.644375 -0.936902
v 0.440834 0.558717 0.869912
vn -3.810919 -4.876564 0.123088
v 0.440570 0.558532 0.872467
vn -4.726608 -3.902127 -0.191013
v 0.438293 0.560602 0.872467
vn -4.227443 -2.900262 -2.279529
v 0.420938 0.594977 0.840799
vn -4.059870 -4.316811 -1.921974
v 0.439422 0.560151 0.869329
vn -3.943175 -3.781784 -2.561883
v 0.420968 0.594928 0.840823
vn -2.535238 -4.995137 -1.558051
v 0.441699 0.558081 0.869329
vn -2.176844 -5.446252 0.002313
v 0.441434 0.557896 0.871885
vn -3.683697 -4.838756 1.196351
v 0.440188 0.559121 0.874544
vn -4.760140 -3.606886 0.931106
v 0.437911 0.561191 0.874544
vn -2.844471 -5.459619 1.123238
v 0.441052 0.558484 0.873962
vn -2.815856 -3.085694 -4.693343
v 0.520519 0.553407 0.804520
vn -2.918060 -3.176261 -4.564980
v 0.520436 0.553283 0.804651
vn -1.689874 -2.266421 -5.343178
v 0.511993 0.576386 0.794548
vn -0.509166 -3.475249 -4.531500
v 0.522796 0.551336 0.804520
vn -0.755435 -4.477956 -2.506225
v 0.522713 0.551213 0.804651
vn 1.521100 -4.572120 -3.948819
v 0.525200 0.551682 0.804864
vn 1.592398 -5.365995 -1.880450
v 0.525117 0.551559 0.804995
vn 0.001242 -2.326651 -5.836531
v 0.569247 0.576286 0.794577
vn 0.277304 -2.491743 -5.694972
v 0.569356 0.576321 0.794564
vn -0.001265 -2.325258 -5.837087
v 0.512128 0.576286 0.794577
vn 0.737431 -2.944376 -5.181724
v 0.569450 0.576354 0.794554
vn -0.274177 -2.187977 -5.855207
v 0.512075 0.576321 0.794564
vn -0.805056 -2.189645 -5.722793
v 0.512030 0.576354 0.794554
vn -0.017451 -6.188216 -0.242313
v 0.522449 0.551027 0.807207
vn 0.472297 -6.156249 0.604230
v 0.523028 0.551085 0.808644
vn -0.767236 -5.885492 1.197649
v 0.442014 0.557953 0.873322
vn 1.107082 -6.173723 -0.254567
v 0.524853 0.551373 0.807551
vn 0.669054 -6.021135 1.654675
v 0.444418 0.558299 0.873665
vn 0.583429 -5.911339 2.030975
v 0.444036 0.558887 0.875742
vn -1.164397 -5.450691 2.011117
v 0.441632 0.558542 0.875399
vn 1.545797 -5.884088 0.503360
v 0.525432 0.551430 0.808987
vn 1.343584 -3.395360 -4.209876
v 0.569530 0.576386 0.794548
vn 2.220865 -5.777705 -0.467182
v 0.525697 0.551616 0.806432
vn 1.865662 -3.464615 -3.259170
v 0.569596 0.576416 0.794547
vn 3.487826 -5.028170 -0.659422
v 0.618911 0.595408 0.883917
vn 2.744488 -4.413452 1.273618
v 0.618930 0.595420 0.929951
vn 2.248103 -5.673250 0.614955
v 0.618911 0.595408 0.929912
vn -4.201474 -3.776117 2.479099
v 0.438491 0.561248 0.875981
vn -5.061515 -2.762437 1.643557
v 0.420938 0.594977 0.886795
vn -2.847683 -4.698044 2.504036
v 0.440767 0.559178 0.875981
vn -2.297017 -1.521993 4.267177
v 0.470142 0.613992 0.976188
vn -0.845503 -4.326650 4.132013
v 0.470202 0.613939 0.976162
vn -1.484375 -3.246903 4.399953
v 0.470165 0.613966 0.976180
vn 0.063371 -5.456799 3.025540
v 0.504099 0.595656 0.949703
vn 0.397624 -5.472379 3.027450
v 0.506503 0.596002 0.950046
vn 0.314137 -5.173715 3.519276
v 0.527858 0.613883 0.976097
vn -0.251037 -5.222931 3.449653
v 0.470321 0.613883 0.976097
vn -0.450186 -4.923185 3.743006
v 0.470254 0.613911 0.976135
vn 3.094654 -2.328055 2.046054
v 0.618938 0.595435 0.929975
vn 0.010730 -1.480247 -6.105777
v 0.572067 0.617295 0.784160
vn -0.053734 -1.488868 -6.102926
v 0.515134 0.617295 0.784160
vn -0.291016 -1.268796 -6.124937
v 0.515100 0.617330 0.784151
vn 0.059089 -1.247170 -6.147297
v 0.572219 0.617330 0.784151
vn -0.666022 -0.974621 -6.094207
v 0.515072 0.617365 0.784146
vn 0.138980 -0.987479 -6.169278
v 0.572352 0.617365 0.784146
vn -1.209446 -0.703399 -5.939677
v 0.515048 0.617398 0.784145
vn 0.257742 -0.809089 -6.163988
v 0.572469 0.617398 0.784145
vn -2.237849 -2.037997 -5.298549
v 0.511964 0.576416 0.794547
vn 0.026675 0.019301 -6.282912
v 0.572469 0.665315 0.784145
vn -0.179611 0.014740 -6.277481
v 0.515048 0.665315 0.784145
vn -0.958143 0.079448 -6.121982
v 0.515030 0.665440 0.784146
vn 0.130886 0.096793 -6.277298
v 0.572568 0.665440 0.784146
vn 0.472103 -0.801195 -6.141246
v 0.572568 0.617430 0.784146
vn -1.749684 -0.481322 -5.812248
v 0.515030 0.617430 0.784146
vn -2.788254 -1.375776 -5.441654
v 0.511943 0.576446 0.794549
vn 0.443671 -4.784609 3.958349
v 0.527886 0.613911 0.976135
vn -1.402471 0.253560 -5.920390
v 0.515018 0.665543 0.784150
vn 0.304385 0.230042 -6.254510
v 0.572650 0.665543 0.784150
vn 0.835132 -0.811671 -6.087164
v 0.572650 0.617460 0.784150
vn -2.486970 -0.147402 -5.738034
v 0.515018 0.617460 0.784150
vn -4.552284 -0.917650 -2.489087
v 0.420910 0.595060 0.840778
vn -4.098209 -0.604958 -4.354525
v 0.423998 0.636065 0.830396
vn -4.379595 -0.123875 -3.718008
v 0.423997 0.636104 0.830393
vn 0.695715 -3.997555 4.629286
v 0.527906 0.613939 0.976162
vn -1.384435 0.641540 -5.882857
v 0.515011 0.665625 0.784157
vn 0.576650 0.439642 -6.182393
v 0.572715 0.665625 0.784157
vn 1.395835 -0.819618 -5.954561
v 0.572715 0.617490 0.784157
vn -4.121478 0.937493 -2.722326
v 0.423997 0.684283 0.830393
vn 2.385557 -3.319461 -3.223655
v 0.569647 0.576446 0.794549
vn -4.304183 -1.915163 -2.489171
v 0.420919 0.595021 0.840784
vn 1.054769 -2.621053 5.311915
v 0.527918 0.613966 0.976180
vn 4.568413 -2.982671 -1.133652
v 0.618930 0.595420 0.883936
vn -5.389175 -1.860479 1.599849
v 0.420919 0.595021 0.886799
vn -1.294133 1.386181 -5.750328
v 0.515010 0.665686 0.784167
vn 1.077045 0.822906 -5.917577
v 0.572763 0.665686 0.784167
vn 2.341028 -0.802375 -5.570079
v 0.572763 0.617519 0.784167
vn 3.321248 -2.879134 -3.287429
v 0.569684 0.576475 0.794555
vn 1.313958 -0.856085 5.716787
v 0.527921 0.613992 0.976188
vn 4.017591 -0.715955 3.601150
v 0.618937 0.595453 0.929983
vn 5.762708 -1.644857 -0.600285
v 0.618938 0.595435 0.883956
vn -3.719357 -0.321178 4.374228
v 0.470134 0.614019 0.976186
vn -5.710476 -0.657580 1.476317
v 0.420910 0.595060 0.886798
vn -0.957554 2.981271 -5.003478
v 0.515014 0.665725 0.784180
vn 2.048355 1.694733 -4.454882
v 0.572793 0.665725 0.784180
vn 3.929819 -0.614898 -4.276470
v 0.572793 0.617546 0.784180
vn -2.501136 2.940542 -1.745280
v 0.424004 0.684308 0.830399
vn 4.640953 -2.029022 -3.194145
v 0.569706 0.576502 0.794565
vn 5.791166 -0.475189 -1.867076
v 0.622025 0.636479 0.873570
vn 1.478692 0.548822 5.785935
v 0.527921 0.662171 0.976188
vn -0.791325 0.281898 6.122936
v 0.470142 0.662171 0.976188
vn 4.301097 0.286120 3.736849
v 0.618937 0.643623 0.929983
vn 0.966684 3.311199 2.804890
v 0.531008 0.703232 0.965802
vn 0.750593 1.264009 6.027368
v 0.527916 0.662188 0.976186
vn 2.969511 2.277503 1.426709
v 0.622029 0.684667 0.919599
vn -2.726228 0.809036 4.381694
v 0.470134 0.662188 0.976186
vn -5.737843 1.267800 1.297546
v 0.423997 0.684283 0.876412
vn -5.806943 0.355768 1.567704
v 0.420910 0.643239 0.886798
vn -6.265289 0.388072 -0.163871
v 0.420911 0.643264 0.840782
vn -1.569267 2.752199 2.292894
v 0.473226 0.703232 0.965802
vn -4.101250 3.466614 0.650797
v 0.424004 0.684308 0.876405
vn -6.166878 0.593588 0.695889
v 0.420911 0.643264 0.886789
vn -6.150203 0.096099 -0.845344
v 0.420910 0.643239 0.840778
vn 6.147139 -0.136431 0.823107
v 0.622029 0.636497 0.919599
vn 4.257366 2.275513 -2.090368
v 0.622025 0.684658 0.873570
vn 2.334273 2.716720 -2.745258
v 0.572806 0.665743 0.784196
vn 3.238005 2.915610 -0.731707
v 0.622029 0.684667 0.873593
vn 6.227703 -0.207769 -0.469609
v 0.622029 0.636497 0.873593
vn -0.304556 4.977283 -3.504629
v 0.515024 0.665743 0.784196
vn 5.272876 -0.347043 -3.299949
v 0.572806 0.617573 0.784196
vn 0.520717 6.134035 -0.607501
v 0.531008 0.703232 0.919796
vn -0.936100 6.025822 -0.427629
v 0.473226 0.703232 0.919796
vn 0.114568 5.989522 -1.796916
v 0.481785 0.684308 0.830399
# 124 vertices, 0 vertices normals

f 1//1 2//2 3//3
f 1//1 4//4 5//5
f 1//1 3//3 4//4
f 1//1 6//6 2//2
f 1//1 7//7 6//6
f 1//1 5//5 7//7
f 2//2 6//6 8//8
f 2//2 8//8 9//9
f 2//2 9//9 3//3
f 4//4 3//3 10//10
f 4//4 11//11 5//5
f 4//4 10//10 11//11
f 3//3 9//9 12//12
f 3//3 12//12 10//10
f 13//13 14//14 15//15
f 13//13 16//16 14//14
f 13//13 15//15 16//16
f 6//6 7//7 8//8
f 14//14 16//16 17//17
f 14//14 17//17 5//5
f 14//14 5//5 15//15
f 16//16 18//18 19//19
f 16//16 19//19 17//17
f 16//16 20//20 21//21
f 16//16 22//22 20//20
f 16//16 21//21 23//23
f 16//16 24//24 22//22
f 16//16 23//23 18//18
f 16//16 25//25 24//24
f 16//16 15//15 25//25
f 8//8 17//17 9//9
f 8//8 7//7 17//17
f 17//17 26//26 9//9
f 17//17 19//19 26//26
f 17//17 7//7 5//5
f 9//9 26//26 27//27
f 9//9 28//28 12//12
f 9//9 27//27 28//28
f 26//26 19//19 29//29
f 26//26 29//29 27//27
f 28//28 27//27 30//30
f 28//28 30//30 31//31
f 28//28 32//32 12//12
f 28//28 31//31 32//32
f 27//27 29//29 33//33
f 27//27 33//33 30//30
f 18//18 23//23 34//34
f 18//18 34//34 19//19
f 19//19 35//35 29//29
f 19//19 34//34 36//36
f 19//19 36//36 35//35
f 29//29 35//35 33//33
f 35//35 36//36 37//37
f 35//35 37//37 33//33
f 30//30 33//33 38//38
f 30//30 38//38 31//31
f 33//33 39//39 38//38
f 33//33 37//37 39//39
f 11//11 10//10 40//40
f 11//11 40//40 41//41
f 11//11 41//41 5//5
f 10//10 12//12 32//32
f 10//10 42//42 40//40
f 10//10 32//32 42//42
f 40//40 42//42 43//43
f 40//40 43//43 41//41
f 42//42 32//32 44//44
f 42//42 44//44 45//45
f 42//42 45//45 43//43
f 46//46 32//32 38//38
f 46//46 47//47 48//48
f 46//46 48//48 49//49
f 46//46 49//49 32//32
f 46//46 38//38 47//47
f 32//32 31//31 38//38
f 32//32 49//49 50//50
f 32//32 50//50 44//44
f 47//47 38//38 51//51
f 47//47 51//51 48//48
f 52//52 53//53 54//54
f 52//52 55//55 23//23
f 52//52 54//54 55//55
f 52//52 23//23 53//53
f 53//53 23//23 25//25
f 53//53 25//25 54//54
f 55//55 54//54 56//56
f 55//55 57//57 23//23
f 55//55 56//56 57//57
f 20//20 22//22 24//24
f 20//20 24//24 21//21
f 54//54 25//25 15//15
f 54//54 15//15 56//56
f 57//57 56//56 58//58
f 57//57 59//59 34//34
f 57//57 58//58 59//59
f 57//57 34//34 23//23
f 21//21 24//24 25//25
f 21//21 25//25 23//23
f 56//56 15//15 60//60
f 56//56 60//60 58//58
f 61//61 62//62 63//63
f 61//61 59//59 62//62
f 61//61 64//64 65//65
f 61//61 63//63 64//64
f 61//61 65//65 59//59
f 62//62 59//59 58//58
f 62//62 58//58 66//66
f 62//62 66//66 63//63
f 59//59 65//65 34//34
f 58//58 60//60 67//67
f 58//58 67//67 66//66
f 48//48 68//68 49//49
f 48//48 51//51 68//68
f 49//49 68//68 50//50
f 64//64 63//63 69//69
f 64//64 70//70 71//71
f 64//64 69//69 70//70
f 64//64 71//71 65//65
f 63//63 66//66 72//72
f 63//63 72//72 69//69
f 65//65 71//71 36//36
f 65//65 36//36 34//34
f 66//66 67//67 73//73
f 66//66 74//74 75//75
f 66//66 75//75 72//72
f 66//66 73//73 74//74
f 15//15 5//5 60//60
f 68//68 76//76 50//50
f 68//68 51//51 76//76
f 50//50 76//76 44//44
f 70//70 69//69 77//77
f 70//70 78//78 79//79
f 70//70 77//77 78//78
f 70//70 79//79 71//71
f 69//69 72//72 75//75
f 69//69 80//80 77//77
f 69//69 75//75 80//80
f 71//71 79//79 81//81
f 71//71 81//81 36//36
f 36//36 81//81 37//37
f 60//60 5//5 82//82
f 60//60 82//82 67//67
f 76//76 83//83 44//44
f 76//76 51//51 83//83
f 39//39 37//37 84//84
f 39//39 84//84 38//38
f 44//44 83//83 45//45
f 41//41 85//85 5//5
f 41//41 43//43 85//85
f 78//78 77//77 86//86
f 78//78 87//87 88//88
f 78//78 86//86 87//87
f 78//78 88//88 79//79
f 77//77 80//80 86//86
f 37//37 81//81 89//89
f 37//37 89//89 84//84
f 79//79 88//88 81//81
f 81//81 88//88 89//89
f 5//5 85//85 82//82
f 67//67 82//82 73//73
f 83//83 90//90 45//45
f 83//83 51//51 91//91
f 83//83 91//91 90//90
f 38//38 84//84 92//92
f 38//38 92//92 51//51
f 45//45 90//90 43//43
f 85//85 43//43 93//93
f 85//85 94//94 82//82
f 85//85 93//93 94//94
f 87//87 86//86 95//95
f 87//87 96//96 97//97
f 87//87 95//95 96//96
f 87//87 97//97 88//88
f 86//86 80//80 98//98
f 86//86 98//98 95//95
f 84//84 89//89 99//99
f 84//84 100//100 92//92
f 84//84 97//97 100//100
f 84//84 99//99 97//97
f 88//88 97//97 89//89
f 89//89 97//97 99//99
f 74//74 73//73 75//75
f 82//82 94//94 73//73
f 101//101 102//102 90//90
f 101//101 90//90 103//103
f 101//101 104//104 105//105
f 101//101 105//105 102//102
f 101//101 106//106 104//104
f 101//101 103//103 106//106
f 102//102 43//43 90//90
f 102//102 105//105 107//107
f 102//102 107//107 93//93
f 102//102 93//93 43//43
f 108//108 109//109 107//107
f 108//108 80//80 110//110
f 108//108 111//111 112//112
f 108//108 107//107 111//111
f 108//108 112//112 80//80
f 108//108 113//113 109//109
f 108//108 110//110 113//113
f 109//109 94//94 93//93
f 109//109 114//114 94//94
f 109//109 113//113 114//114
f 109//109 93//93 107//107
f 90//90 91//91 103//103
f 51//51 92//92 115//115
f 51//51 115//115 91//91
f 94//94 114//114 73//73
f 116//116 100//100 117//117
f 116//116 118//118 119//119
f 116//116 117//117 118//118
f 116//116 119//119 100//100
f 96//96 95//95 120//120
f 96//96 117//117 121//121
f 96//96 120//120 117//117
f 96//96 121//121 97//97
f 80//80 114//114 110//110
f 80//80 75//75 114//114
f 80//80 112//112 98//98
f 114//114 75//75 73//73
f 114//114 113//113 110//110
f 95//95 98//98 120//120
f 100//100 97//97 121//121
f 100//100 119//119 92//92
f 100//100 121//121 117//117
f 92//92 119//119 115//115
f 104//104 106//106 122//122
f 104//104 111//111 105//105
f 104//104 122//122 111//111
f 105//105 111//111 107//107
f 106//106 103//103 115//115
f 106//106 115//115 118//118
f 106//106 118//118 122//122
f 103//103 91//91 115//115
f 111//111 122//122 123//123
f 111//111 123//123 112//112
f 112//112 123//123 98//98
f 115//115 119//119 118//118
f 122//122 118//118 124//124
f 122//122 124//124 123//123
f 118//118 117//117 124//124
f 124//124 117//117 120//120
f 124//124 98//98 123//123
f 124//124 120//120 98//98
# 244 faces, 0 coords texture

# End of File
