####
#
# OBJ File Generated by Meshlab
#
####
# Object matlab_mesh_step13_link3.obj
#
# Vertices: 214
# Faces: 424
#
####
vn 3.128747 -2.437372 3.141083
v 0.321857 0.296273 1.012322
vn 3.944577 -4.574923 1.635209
v 0.180707 0.139315 0.913684
vn 1.272141 -5.027048 -0.474717
v 0.215263 0.151875 0.836163
vn 4.685840 -1.517632 2.237369
v 0.322260 0.296620 1.011891
vn 4.634253 1.090822 3.728307
v 0.312351 0.320439 1.021485
vn 4.114384 -0.206696 4.743357
v 0.304941 0.314628 1.027839
vn 2.432663 -1.555790 4.967831
v 0.304917 0.314647 1.027860
vn 1.302354 -4.237363 4.023136
v 0.171173 0.143368 0.935428
vn 0.240896 -4.801104 0.101031
v 0.169854 0.137503 0.928506
vn -0.029301 -4.640624 0.726618
v 0.169843 0.137503 0.928525
vn 4.135979 -4.580204 0.064906
v 0.222698 0.157669 0.829791
vn 3.580116 -4.863501 1.455268
v 0.180587 0.139182 0.913601
vn 0.953998 -5.359781 -0.258724
v 0.180383 0.138967 0.913236
vn 5.386128 -1.972192 0.297647
v 0.360769 0.321697 0.916889
vn 5.400898 -2.176435 0.934742
v 0.360643 0.321557 0.917293
vn 5.167678 -3.238618 -1.201578
v 0.360565 0.321483 0.916525
vn 5.647631 -1.912731 -1.255296
v 0.362856 0.337199 0.898044
vn 6.114585 -0.116572 1.396072
v 0.364184 0.343003 0.904991
vn 6.076764 -0.046814 1.594979
v 0.362363 0.340671 0.911948
vn 5.950093 -0.135057 1.917737
v 0.357773 0.334815 0.929083
vn 6.055150 -0.097418 0.909127
v 0.364192 0.343035 0.904960
vn 5.815631 0.538464 0.850326
v 0.364196 0.343062 0.904934
vn 3.842470 -4.667892 -0.855454
v 0.229141 0.165923 0.805562
vn 2.655417 -3.571447 -2.544181
v 0.229145 0.165929 0.805550
vn 4.069892 -4.640138 -0.499443
v 0.224533 0.160020 0.822774
vn 5.248233 -2.291249 1.151173
v 0.360330 0.321209 0.918286
vn 5.466866 1.118611 2.887797
v 0.312387 0.320386 1.021442
vn 5.156619 1.005543 3.341362
v 0.312369 0.320415 1.021466
vn 5.735876 0.553257 2.170829
v 0.357765 0.334825 0.929106
vn 5.198165 1.965808 2.523677
v 0.357756 0.334834 0.929123
vn -2.008490 -5.570392 -1.775625
v 0.169867 0.137506 0.928483
vn -3.569151 -4.564656 -2.429563
v 0.160074 0.145136 0.926449
vn -3.434619 -4.693268 -2.365432
v 0.165555 0.140855 0.926449
vn -3.632853 -4.606317 -2.242295
v 0.160057 0.145132 0.926483
vn -3.685950 -4.562771 -2.234039
v 0.072101 0.229966 0.896509
vn -3.312506 -4.858868 -2.154516
v 0.165552 0.140841 0.926483
vn -3.547879 -4.565830 -2.458456
v 0.210956 0.155241 0.834100
vn -3.258821 -4.777424 -2.430515
v 0.210965 0.155216 0.834132
vn -3.612726 -4.508869 -2.468027
v 0.073934 0.232315 0.889501
vn -3.597949 -4.508806 -2.489446
v 0.119363 0.246683 0.797126
vn 3.556366 4.571962 2.434451
v 0.251671 0.447789 0.875032
vn 3.545245 4.624115 2.346438
v 0.251614 0.447865 0.874972
vn 3.492834 4.611112 2.451312
v 0.206149 0.433542 0.967301
vn 3.613613 4.578433 2.332355
v 0.257109 0.443574 0.874972
vn 3.597942 4.508818 2.489434
v 0.297680 0.342148 1.004277
vn 3.685949 4.562806 2.233958
v 0.344942 0.358865 0.904894
vn 3.612706 4.508887 2.468022
v 0.343109 0.356516 0.911902
vn 6.013757 0.389874 1.725575
v 0.362366 0.340697 0.911934
vn -3.744247 -4.694251 -1.820258
v 0.160044 0.145129 0.926512
vn -3.397534 -4.936246 -1.790953
v 0.165551 0.140830 0.926512
vn -2.972201 -5.010006 -2.343100
v 0.210976 0.155197 0.834159
vn 0.230864 -5.142232 -1.542880
v 0.215266 0.151879 0.836148
vn -3.274863 -4.742199 -2.478699
v 0.212794 0.157559 0.827144
vn 3.702665 4.635309 2.052660
v 0.257070 0.443630 0.874922
vn 3.518882 4.714739 2.182627
v 0.251564 0.447929 0.874922
vn 3.334602 4.737981 2.426243
v 0.206098 0.433603 0.967257
vn 5.737747 1.422056 2.002218
v 0.362367 0.340720 0.911922
vn -3.850162 -4.810098 -1.139502
v 0.160037 0.145127 0.926536
vn -3.861030 -4.682579 -1.573576
v 0.140811 0.160875 0.926536
vn -3.973205 -4.421844 -1.859110
v 0.052850 0.245732 0.896509
vn -3.311030 -4.615809 -2.660152
v 0.217396 0.163453 0.809961
vn -3.457092 -4.467338 -2.738519
v 0.129499 0.248283 0.779894
vn -2.847707 -4.595023 -3.079200
v 0.217416 0.163447 0.809948
vn -2.579127 -3.709356 -4.047859
v 0.129515 0.248280 0.779880
vn -2.900878 -4.998734 -2.459885
v 0.212807 0.157543 0.827160
vn -3.547481 -4.551571 -2.485194
v 0.124886 0.242373 0.797126
vn -3.580897 -4.998089 -1.130096
v 0.165553 0.140821 0.926536
vn 4.248008 1.707024 3.775976
v 0.312334 0.320458 1.021500
vn 1.913009 -1.125054 5.112249
v 0.304898 0.314664 1.027874
vn -1.115259 -3.337170 4.594417
v 0.171165 0.143372 0.935432
vn 3.486572 4.598296 2.483761
v 0.204320 0.431200 0.974289
vn 3.322930 4.718603 2.479546
v 0.204266 0.431257 0.974256
vn 3.779635 4.724574 1.658103
v 0.257036 0.443674 0.874880
vn 3.471178 4.834910 1.929424
v 0.251520 0.447979 0.874880
vn 3.404016 4.523514 2.712608
v 0.199718 0.425305 0.991473
vn 3.357384 4.318214 3.031833
v 0.287544 0.340548 1.021509
vn 2.997294 4.405139 3.201188
v 0.199658 0.425354 0.991468
vn 3.547475 4.551588 2.485172
v 0.292157 0.346459 1.004277
vn 2.565624 3.718374 4.044694
v 0.287507 0.340572 1.021514
vn 5.567079 -1.479876 -1.748617
v 0.362857 0.337221 0.898020
vn 5.337602 1.483528 0.738400
v 0.364196 0.343084 0.904912
vn 5.048591 2.811383 2.290039
v 0.362365 0.340737 0.911911
vn 3.852119 4.639849 1.748286
v 0.276263 0.427926 0.874880
vn 4.762205 2.318607 0.270788
v 0.364193 0.343099 0.904894
vn -4.022028 -4.710072 -0.500114
v 0.140785 0.160891 0.926555
vn -4.036008 -4.637217 -1.282067
v 0.055225 0.243441 0.897320
vn -3.925635 -4.863120 -0.148233
v 0.160036 0.145125 0.926555
vn 0.268433 -5.113482 -1.782167
v 0.221706 0.160129 0.811937
vn -2.102728 -4.222386 -3.909021
v 0.217434 0.163442 0.809940
vn 0.284396 -4.907200 -2.363506
v 0.221710 0.160135 0.811922
vn 0.266476 -5.157003 -1.672093
v 0.217097 0.154226 0.829148
vn -0.685927 -4.489444 1.612640
v 0.169835 0.137507 0.928537
vn -3.764216 -4.999014 -0.347641
v 0.165558 0.140814 0.926555
vn 3.554098 2.623766 3.790294
v 0.312317 0.320472 1.021509
vn 0.973413 -0.270565 5.188605
v 0.304882 0.314678 1.027882
vn 3.050121 4.944535 2.375186
v 0.206056 0.433649 0.967223
vn 3.016816 4.921860 2.467104
v 0.204222 0.431300 0.974231
vn 3.863332 4.829279 0.938581
v 0.257007 0.443706 0.874848
vn 3.427435 4.964330 1.420846
v 0.251484 0.448017 0.874848
vn 2.339783 4.184188 3.685177
v 0.199609 0.425389 0.991463
vn 5.213527 -0.595218 -2.605950
v 0.362855 0.337238 0.898004
vn 4.124721 4.007859 2.440686
v 0.362359 0.340750 0.911902
vn 4.039579 4.665980 0.973721
v 0.276258 0.427940 0.874848
vn 3.992747 4.640023 1.416508
v 0.361818 0.345390 0.904083
vn 4.309989 3.597437 2.623343
v 0.357746 0.334840 0.929135
vn 4.039761 -4.681284 -0.489673
v 0.222702 0.157673 0.829773
vn 4.923606 -2.063061 -3.297971
v 0.360997 0.334858 0.896719
vn 3.000811 5.177482 1.841540
v 0.247208 0.451324 0.872866
vn 1.508966 4.761252 -0.584589
v 0.247195 0.451337 0.872849
vn 1.240182 5.560814 1.914560
v 0.201762 0.436974 0.965223
vn -3.831271 -4.295368 -2.513077
v 0.059297 0.253992 0.872268
vn -3.865568 -4.283337 -2.470873
v 0.054683 0.248081 0.889501
vn -4.904241 -1.362065 -1.991082
v 0.059288 0.254009 0.872253
vn -3.681081 -4.400166 -2.559896
v 0.104726 0.268360 0.779894
vn -3.771321 -0.931852 -2.939229
v 0.104721 0.268372 0.779880
vn -3.673114 -4.441544 -2.501646
v 0.100112 0.262449 0.797126
vn -5.032599 -1.317337 -1.778939
v 0.054672 0.248094 0.889500
vn -3.541674 -4.411909 -2.718393
v 0.123976 0.252594 0.779894
vn -2.850253 -3.578645 -4.024417
v 0.123988 0.252594 0.779880
vn -4.349171 -1.654880 0.087981
v 0.052837 0.245743 0.896513
vn -4.208869 -4.073138 1.460164
v 0.140773 0.160902 0.926570
vn -4.254183 -3.862681 1.543075
v 0.055213 0.243450 0.897326
vn -3.842856 -4.893477 0.652258
v 0.164312 0.141818 0.928537
vn -3.684262 -4.155459 2.222511
v 0.145033 0.157607 0.928545
vn -1.445939 -3.997314 -4.554496
v 0.217451 0.163439 0.809936
vn -0.608964 -4.542199 -4.125125
v 0.221712 0.160144 0.811911
vn -1.638455 -3.462565 -4.980212
v 0.215075 0.165732 0.809124
vn -1.264665 -3.319912 -5.156629
v 0.224869 0.169236 0.803568
vn -1.628151 -3.435666 -5.002281
v 0.129531 0.248279 0.779875
vn 0.827335 -1.539928 -5.110979
v 0.224883 0.169231 0.803568
vn 0.070101 -0.758632 -5.254684
v 0.136947 0.254071 0.773512
vn 0.859197 -1.060303 -5.506645
v 0.222506 0.171524 0.802756
vn -1.502063 -1.923194 5.789911
v 0.299359 0.318988 1.027882
vn -0.773674 -0.966345 6.028996
v 0.299343 0.319003 1.027882
vn -1.536043 -1.921225 5.781613
v 0.167496 0.150068 0.936717
vn 0.822646 2.862207 5.415855
v 0.192174 0.419595 0.997835
vn 1.959381 4.316515 3.744608
v 0.199571 0.425413 0.991458
vn -1.326000 0.658028 5.736878
v 0.194517 0.417329 0.998638
vn -0.193158 0.778647 5.201953
v 0.280076 0.334781 1.027882
vn -0.800307 1.539948 5.103546
v 0.192140 0.419622 0.997826
vn 2.933439 3.143097 4.338325
v 0.312301 0.320480 1.021514
vn -1.322976 -2.083084 5.773374
v 0.173024 0.145754 0.936717
vn 0.586469 0.516990 5.506623
v 0.304870 0.314689 1.027882
vn 2.875657 5.075973 2.329266
v 0.206023 0.433679 0.967198
vn 2.800509 5.059679 2.456280
v 0.204188 0.431328 0.974212
vn 3.914577 4.885890 0.047946
v 0.256983 0.443728 0.874825
vn 3.626377 5.036377 0.629733
v 0.251456 0.448042 0.874825
vn 3.342277 4.139296 3.223309
v 0.293067 0.336238 1.021509
vn 2.744527 3.473323 4.281959
v 0.293035 0.336258 1.021514
vn 4.225229 0.931376 -3.616216
v 0.362849 0.337252 0.897994
vn 4.444864 3.084319 -1.012431
v 0.364186 0.343109 0.904881
vn 4.170675 4.222927 -1.024773
v 0.276250 0.427950 0.874825
vn 4.314869 4.031291 -1.244784
v 0.361809 0.345402 0.904069
vn 3.673105 4.441555 2.501642
v 0.316931 0.326382 1.004277
vn -3.491760 -4.333820 2.417699
v 0.164300 0.141829 0.928545
vn -2.403961 -4.510431 2.953624
v 0.169828 0.137515 0.928545
vn 1.875928 -2.049706 -4.188707
v 0.229143 0.165935 0.805544
vn 3.715932 -0.254776 -4.901979
v 0.360990 0.334871 0.896708
vn -1.628408 1.960815 4.543659
v 0.187879 0.422917 0.995851
vn -3.860438 0.498727 4.658888
v 0.056033 0.253982 0.904686
vn -2.879144 -0.738460 5.532311
v 0.060294 0.250686 0.906661
vn 0.980816 4.925660 2.990109
v 0.195311 0.428708 0.989483
vn -1.152743 4.847034 2.578082
v 0.195301 0.428707 0.989486
vn -2.607538 3.162342 2.555835
v 0.187876 0.422921 0.995847
vn -4.158096 0.099034 2.878371
v 0.054174 0.251600 0.903400
vn -3.382980 -1.632359 4.850685
v 0.058435 0.248304 0.905376
vn -4.054516 -2.905859 3.793944
v 0.142110 0.166760 0.933459
vn -5.146372 3.377282 1.184289
v 0.056033 0.253983 0.904684
vn -5.374020 1.505581 0.852790
v 0.054173 0.251600 0.903398
vn -3.282651 -2.147518 4.562974
v 0.146354 0.163477 0.935427
vn -2.112205 5.089388 0.139924
v 0.201754 0.436976 0.965216
vn 1.187581 5.515806 2.183189
v 0.199927 0.434624 0.972236
vn -1.865113 5.610854 1.404235
v 0.199919 0.434624 0.972232
vn 3.578199 4.517444 -1.767404
v 0.252722 0.447023 0.872849
vn 3.179608 3.989498 -3.653641
v 0.252719 0.447021 0.872843
vn -0.489327 4.147101 -2.007113
v 0.247189 0.451336 0.872843
vn 3.785376 4.446399 -1.821768
v 0.271989 0.431245 0.872849
vn 3.761919 3.764597 -3.165973
v 0.271994 0.431237 0.872843
vn -5.412297 1.805431 -1.897927
v 0.059291 0.254019 0.872248
vn -5.912760 1.857980 -0.936591
v 0.054673 0.248101 0.889502
vn -1.377169 0.688318 -4.538511
v 0.112153 0.274163 0.773512
vn -1.124533 -1.410741 -5.713474
v 0.131419 0.258385 0.773512
vn -4.416943 1.625546 -3.348998
v 0.104726 0.268379 0.779875
vn -4.203947 -3.336092 3.248042
v 0.140774 0.160909 0.926579
vn -4.049673 -3.425611 3.344474
v 0.145018 0.157626 0.928547
vn -5.978149 0.975645 0.142185
v 0.052838 0.245749 0.896518
vn 0.773371 0.967146 -6.028807
v 0.117680 0.269849 0.773512
vn -3.596364 2.657284 -3.597869
v 0.112150 0.274164 0.773514
vn -0.140650 3.396857 -3.821062
v 0.245854 0.445486 0.865963
vn 2.317328 2.890031 -4.819027
v 0.251384 0.441170 0.865963
vn -2.478257 4.037646 -3.898190
v 0.243994 0.443103 0.864677
vn 3.382936 1.632225 -4.850821
v 0.358588 0.340548 0.896019
vn 2.879159 0.738452 -5.532305
v 0.356729 0.338166 0.894733
vn 2.839656 2.339759 -4.624280
v 0.270658 0.425386 0.865963
vn 2.161198 1.379773 -5.682432
v 0.268799 0.423003 0.864677
vn 1.289221 -0.508529 -5.736889
v 0.136955 0.254065 0.773514
vn -2.636364 -0.973848 5.617407
v 0.148214 0.165859 0.936713
vn 1.124533 1.410743 5.713473
v 0.285603 0.330467 1.027882
vn -2.042193 -1.490979 5.716360
v 0.148229 0.165846 0.936717
vn -2.694108 -2.461229 4.721446
v 0.146370 0.163464 0.935432
vn -2.317340 -2.889940 4.819121
v 0.165637 0.147686 0.935432
vn 4.202265 3.125683 -3.471237
v 0.360462 0.339557 0.897179
vn 4.198021 3.552398 -2.953906
v 0.276238 0.427954 0.874811
vn 4.054422 2.905656 -3.794160
v 0.274903 0.422103 0.867931
vn -4.091973 4.518357 -0.099913
v 0.194330 0.431191 0.971577
vn -4.132480 4.563112 0.456971
v 0.192495 0.428839 0.978593
vn -4.704259 4.040056 -0.683333
v 0.192470 0.428808 0.970291
vn -4.422914 4.225487 -1.433819
v 0.199895 0.434593 0.963930
vn -5.062886 3.293924 -0.928733
v 0.060627 0.259869 0.879128
vn -5.386444 3.051331 -0.389384
v 0.056009 0.253951 0.896382
vn -4.468413 4.153407 -1.495031
v 0.068051 0.265655 0.872767
vn -4.699721 3.710937 -1.842063
v 0.106062 0.274229 0.786755
vn -4.072594 4.080156 -2.282048
v 0.113486 0.280015 0.780394
vn -3.921529 4.273739 -2.248372
v 0.245330 0.448953 0.871557
# 214 vertices, 0 vertices normals

f 1//1 2//2 3//3
f 1//1 4//4 5//5
f 1//1 6//6 7//7
f 1//1 7//7 8//8
f 1//1 5//5 6//6
f 1//1 9//9 2//2
f 1//1 10//10 9//9
f 1//1 8//8 10//10
f 1//1 3//3 11//11
f 1//1 11//11 4//4
f 2//2 12//12 3//3
f 2//2 9//9 12//12
f 12//12 13//13 3//3
f 12//12 9//9 13//13
f 14//14 15//15 11//11
f 14//14 16//16 17//17
f 14//14 18//18 19//19
f 14//14 19//19 20//20
f 14//14 21//21 18//18
f 14//14 20//20 15//15
f 14//14 22//22 21//21
f 14//14 17//17 22//22
f 14//14 23//23 24//24
f 14//14 25//25 23//23
f 14//14 24//24 16//16
f 14//14 11//11 25//25
f 15//15 26//26 11//11
f 15//15 20//20 26//26
f 4//4 26//26 20//20
f 4//4 27//27 28//28
f 4//4 28//28 5//5
f 4//4 20//20 29//29
f 4//4 29//29 30//30
f 4//4 30//30 27//27
f 4//4 11//11 26//26
f 13//13 31//31 3//3
f 13//13 9//9 31//31
f 16//16 24//24 17//17
f 32//32 33//33 34//34
f 32//32 34//34 35//35
f 32//32 35//35 33//33
f 33//33 36//36 34//34
f 33//33 37//37 38//38
f 33//33 38//38 36//36
f 33//33 39//39 40//40
f 33//33 40//40 37//37
f 33//33 35//35 39//39
f 41//41 42//42 43//43
f 41//41 44//44 42//42
f 41//41 43//43 45//45
f 41//41 46//46 44//44
f 41//41 45//45 47//47
f 41//41 47//47 46//46
f 18//18 21//21 48//48
f 18//18 48//48 19//19
f 27//27 30//30 28//28
f 19//19 48//48 20//20
f 34//34 36//36 49//49
f 34//34 49//49 35//35
f 36//36 31//31 9//9
f 36//36 50//50 49//49
f 36//36 38//38 51//51
f 36//36 9//9 50//50
f 36//36 51//51 52//52
f 36//36 52//52 31//31
f 37//37 53//53 38//38
f 37//37 40//40 53//53
f 6//6 5//5 7//7
f 42//42 44//44 54//54
f 42//42 55//55 56//56
f 42//42 54//54 55//55
f 42//42 56//56 43//43
f 21//21 22//22 57//57
f 21//21 57//57 48//48
f 44//44 46//46 54//54
f 28//28 30//30 5//5
f 48//48 57//57 29//29
f 48//48 29//29 20//20
f 31//31 52//52 3//3
f 49//49 50//50 58//58
f 49//49 59//59 60//60
f 49//49 58//58 59//59
f 49//49 60//60 35//35
f 61//61 53//53 62//62
f 61//61 63//63 53//53
f 61//61 62//62 64//64
f 61//61 64//64 63//63
f 53//53 63//63 65//65
f 53//53 65//65 38//38
f 53//53 40//40 66//66
f 53//53 66//66 62//62
f 50//50 9//9 10//10
f 50//50 67//67 58//58
f 50//50 10//10 67//67
f 38//38 65//65 51//51
f 7//7 5//5 68//68
f 7//7 69//69 70//70
f 7//7 68//68 69//69
f 7//7 70//70 8//8
f 43//43 71//71 45//45
f 43//43 56//56 72//72
f 43//43 72//72 71//71
f 55//55 54//54 73//73
f 55//55 74//74 56//56
f 55//55 73//73 74//74
f 71//71 75//75 76//76
f 71//71 72//72 77//77
f 71//71 77//77 75//75
f 71//71 78//78 45//45
f 71//71 76//76 78//78
f 75//75 77//77 79//79
f 75//75 79//79 76//76
f 22//22 17//17 80//80
f 22//22 81//81 82//82
f 22//22 82//82 57//57
f 22//22 80//80 81//81
f 54//54 83//83 73//73
f 54//54 46//46 84//84
f 54//54 84//84 83//83
f 5//5 30//30 68//68
f 57//57 82//82 30//30
f 57//57 30//30 29//29
f 17//17 24//24 80//80
f 59//59 58//58 85//85
f 59//59 86//86 60//60
f 59//59 85//85 86//86
f 58//58 67//67 87//87
f 58//58 87//87 85//85
f 63//63 88//88 65//65
f 63//63 89//89 90//90
f 63//63 90//90 88//88
f 63//63 64//64 89//89
f 65//65 88//88 91//91
f 65//65 91//91 51//51
f 67//67 10//10 92//92
f 67//67 93//93 87//87
f 67//67 92//92 93//93
f 51//51 91//91 52//52
f 69//69 68//68 94//94
f 69//69 95//95 70//70
f 69//69 94//94 95//95
f 56//56 74//74 96//96
f 56//56 96//96 97//97
f 56//56 97//97 72//72
f 74//74 73//73 98//98
f 74//74 99//99 96//96
f 74//74 98//98 99//99
f 72//72 97//97 100//100
f 72//72 100//100 77//77
f 77//77 100//100 79//79
f 81//81 80//80 101//101
f 81//81 84//84 102//102
f 81//81 102//102 82//82
f 81//81 101//101 84//84
f 73//73 83//83 103//103
f 73//73 103//103 98//98
f 83//83 84//84 104//104
f 83//83 104//104 103//103
f 68//68 30//30 105//105
f 68//68 105//105 94//94
f 82//82 102//102 105//105
f 82//82 105//105 30//30
f 88//88 23//23 25//25
f 88//88 25//25 91//91
f 88//88 90//90 23//23
f 91//91 25//25 106//106
f 91//91 106//106 52//52
f 10//10 8//8 92//92
f 52//52 106//106 3//3
f 80//80 107//107 101//101
f 80//80 24//24 107//107
f 23//23 90//90 24//24
f 25//25 11//11 106//106
f 106//106 11//11 3//3
f 108//108 99//99 109//109
f 108//108 110//110 99//99
f 108//108 109//109 110//110
f 111//111 112//112 113//113
f 111//111 114//114 112//112
f 111//111 113//113 115//115
f 111//111 115//115 114//114
f 112//112 39//39 60//60
f 112//112 114//114 116//116
f 112//112 116//116 40//40
f 112//112 40//40 39//39
f 112//112 60//60 117//117
f 112//112 117//117 113//113
f 39//39 35//35 60//60
f 114//114 118//118 40//40
f 114//114 40//40 116//116
f 114//114 115//115 118//118
f 118//118 62//62 40//40
f 118//118 115//115 119//119
f 118//118 119//119 62//62
f 40//40 62//62 66//66
f 86//86 85//85 120//120
f 86//86 120//120 60//60
f 85//85 87//87 121//121
f 85//85 122//122 120//120
f 85//85 121//121 122//122
f 87//87 93//93 123//123
f 87//87 123//123 124//124
f 87//87 124//124 121//121
f 60//60 120//120 117//117
f 89//89 125//125 126//126
f 89//89 64//64 127//127
f 89//89 127//127 125//125
f 89//89 126//126 90//90
f 62//62 119//119 64//64
f 93//93 92//92 123//123
f 128//128 125//125 127//127
f 128//128 127//127 129//129
f 128//128 130//130 125//125
f 128//128 131//131 132//132
f 128//128 132//132 130//130
f 128//128 129//129 131//131
f 133//133 95//95 134//134
f 133//133 134//134 135//135
f 133//133 135//135 95//95
f 136//136 100//100 137//137
f 136//136 138//138 139//139
f 136//136 139//139 79//79
f 136//136 140//140 138//138
f 136//136 79//79 100//100
f 136//136 137//137 140//140
f 95//95 94//94 141//141
f 95//95 135//135 142//142
f 95//95 143//143 134//134
f 95//95 142//142 70//70
f 95//95 141//141 143//143
f 8//8 70//70 92//92
f 96//96 99//99 144//144
f 96//96 144//144 145//145
f 96//96 145//145 97//97
f 99//99 98//98 146//146
f 99//99 110//110 144//144
f 99//99 147//147 109//109
f 99//99 146//146 147//147
f 78//78 76//76 45//45
f 76//76 148//148 45//45
f 76//76 79//79 149//149
f 76//76 149//149 148//148
f 97//97 145//145 137//137
f 97//97 137//137 100//100
f 46//46 47//47 84//84
f 84//84 47//47 102//102
f 84//84 101//101 150//150
f 84//84 151//151 104//104
f 84//84 150//150 151//151
f 98//98 103//103 152//152
f 98//98 152//152 146//146
f 103//103 104//104 151//151
f 103//103 151//151 153//153
f 103//103 153//153 152//152
f 45//45 154//154 47//47
f 45//45 148//148 154//154
f 154//154 148//148 94//94
f 154//154 94//94 105//105
f 154//154 102//102 47//47
f 154//154 105//105 102//102
f 148//148 149//149 141//141
f 148//148 141//141 94//94
f 123//123 92//92 155//155
f 123//123 155//155 124//124
f 90//90 126//126 24//24
f 92//92 70//70 156//156
f 92//92 156//156 155//155
f 101//101 107//107 157//157
f 101//101 158//158 150//150
f 101//101 157//157 158//158
f 107//107 24//24 157//157
f 24//24 126//126 157//157
f 159//159 160//160 161//161
f 159//159 162//162 163//163
f 159//159 140//140 162//162
f 159//159 161//161 140//140
f 159//159 164//164 160//160
f 159//159 163//163 164//164
f 160//160 165//165 166//166
f 160//160 166//166 161//161
f 160//160 164//164 165//165
f 165//165 120//120 167//167
f 165//165 164//164 168//168
f 165//165 168//168 169//169
f 165//165 167//167 170//170
f 165//165 169//169 120//120
f 165//165 170//170 166//166
f 110//110 109//109 171//171
f 110//110 172//172 144//144
f 110//110 171//171 173//173
f 110//110 173//173 172//172
f 109//109 174//174 175//175
f 109//109 147//147 174//174
f 109//109 176//176 171//171
f 109//109 175//175 176//176
f 172//172 162//162 145//145
f 172//172 145//145 144//144
f 172//172 173//173 163//163
f 172//172 163//163 162//162
f 162//162 140//140 137//137
f 162//162 137//137 145//145
f 174//174 177//177 178//178
f 174//174 147//147 146//146
f 174//174 146//146 177//177
f 174//174 178//178 175//175
f 177//177 146//146 152//152
f 177//177 152//152 178//178
f 113//113 117//117 179//179
f 113//113 179//179 115//115
f 117//117 120//120 180//180
f 117//117 180//180 179//179
f 115//115 181//181 182//182
f 115//115 182//182 119//119
f 115//115 179//179 183//183
f 115//115 183//183 181//181
f 119//119 182//182 64//64
f 122//122 121//121 184//184
f 122//122 184//184 120//120
f 121//121 124//124 185//185
f 121//121 185//185 184//184
f 120//120 169//169 186//186
f 120//120 184//184 167//167
f 120//120 186//186 180//180
f 125//125 130//130 126//126
f 64//64 182//182 131//131
f 64//64 131//131 129//129
f 64//64 129//129 127//127
f 181//181 187//187 182//182
f 181//181 183//183 188//188
f 181//181 189//189 190//190
f 181//181 191//191 189//189
f 181//181 188//188 191//191
f 181//181 190//190 187//187
f 182//182 187//187 131//131
f 192//192 193//193 194//194
f 192//192 150//150 158//158
f 192//192 158//158 193//193
f 192//192 194//194 150//150
f 193//193 130//130 195//195
f 193//193 158//158 157//157
f 193//193 157//157 130//130
f 193//193 195//195 194//194
f 130//130 132//132 195//195
f 130//130 157//157 126//126
f 187//187 190//190 194//194
f 187//187 194//194 131//131
f 131//131 194//194 195//195
f 131//131 195//195 196//196
f 131//131 196//196 132//132
f 132//132 196//196 195//195
f 138//138 140//140 197//197
f 138//138 197//197 139//139
f 139//139 134//134 198//198
f 139//139 199//199 134//134
f 139//139 198//198 79//79
f 139//139 197//197 199//199
f 134//134 199//199 135//135
f 134//134 143//143 198//198
f 199//199 200//200 135//135
f 199//199 197//197 170//170
f 199//199 170//170 200//200
f 135//135 200//200 201//201
f 135//135 201//201 142//142
f 140//140 161//161 197//197
f 161//161 166//166 170//170
f 161//161 170//170 197//197
f 200//200 124//124 201//201
f 200//200 170//170 124//124
f 201//201 70//70 142//142
f 201//201 124//124 155//155
f 201//201 155//155 70//70
f 198//198 143//143 149//149
f 198//198 149//149 79//79
f 143//143 141//141 149//149
f 70//70 155//155 156//156
f 151//151 150//150 202//202
f 151//151 203//203 153//153
f 151//151 204//204 203//203
f 151//151 202//202 204//204
f 152//152 153//153 203//203
f 152//152 203//203 178//178
f 124//124 170//170 185//185
f 150//150 194//194 204//204
f 150//150 204//204 202//202
f 205//205 206//206 173//173
f 205//205 164//164 206//206
f 205//205 207//207 164//164
f 205//205 171//171 208//208
f 205//205 173//173 171//171
f 205//205 208//208 207//207
f 206//206 164//164 163//163
f 206//206 163//163 173//173
f 164//164 207//207 169//169
f 164//164 169//169 168//168
f 207//207 209//209 210//210
f 207//207 210//210 169//169
f 207//207 208//208 211//211
f 207//207 211//211 209//209
f 209//209 212//212 179//179
f 209//209 211//211 213//213
f 209//209 213//213 212//212
f 209//209 179//179 210//210
f 210//210 179//179 180//180
f 210//210 180//180 186//186
f 210//210 186//186 169//169
f 212//212 213//213 183//183
f 212//212 183//183 179//179
f 167//167 184//184 185//185
f 167//167 185//185 170//170
f 171//171 176//176 208//208
f 176//176 214//214 208//208
f 176//176 175//175 190//190
f 176//176 189//189 214//214
f 176//176 190//190 189//189
f 208//208 214//214 213//213
f 208//208 213//213 211//211
f 214//214 189//189 191//191
f 214//214 191//191 213//213
f 213//213 191//191 188//188
f 213//213 188//188 183//183
f 175//175 178//178 190//190
f 178//178 194//194 190//190
f 178//178 203//203 194//194
f 194//194 203//203 204//204
# 424 faces, 0 coords texture

# End of File
