####
#
# OBJ File Generated by Meshlab
#
####
# Object matlab_mesh_step6_link2.obj
#
# Vertices: 159
# Faces: 314
#
####
vn -2.925699 -1.622798 5.318293
v 0.192409 0.050820 0.932985
vn 0.246890 -3.086049 3.143912
v 0.192712 0.050274 0.932985
vn -1.965480 0.565074 5.265585
v 0.122822 0.183321 0.935119
vn -3.652431 1.111491 3.257575
v -0.049468 0.083754 0.808617
vn 1.923059 -3.465656 3.411253
v 0.192923 0.050376 0.932985
vn -0.012016 -1.379282 6.046737
v 0.195121 0.059437 0.935117
vn 2.702568 -5.635367 0.607702
v 0.192834 0.050326 0.932938
vn -0.283310 -1.012037 6.054609
v 0.195123 0.059446 0.935119
vn -1.419117 -0.824083 6.047334
v 0.187308 0.071725 0.935119
vn -1.213626 -0.738364 6.085544
v 0.189235 0.068429 0.935119
vn -3.312635 -1.925563 4.949689
v 0.015016 -0.027821 0.808618
vn -3.262685 -2.019257 4.938908
v 0.016936 -0.031104 0.808617
vn -0.488355 -3.772531 2.933444
v 0.022837 -0.040105 0.808617
vn -1.000585 -3.626814 1.194344
v 0.022274 -0.040434 0.808016
vn 3.243089 -3.744458 2.405354
v 0.193045 0.050428 0.932938
vn 2.109209 -2.027871 5.317474
v 0.198578 0.061434 0.935117
vn 4.690684 2.842348 2.998809
v 0.200311 0.191549 0.833989
vn 4.648407 2.577916 3.350270
v 0.200614 0.191003 0.833989
vn 4.398537 0.642484 -0.455214
v 0.259915 0.096909 0.824042
vn 4.489427 3.030723 3.175523
v 0.188074 0.219740 0.824415
vn 4.148928 2.851419 3.718034
v 0.127005 0.185730 0.934230
vn 4.671685 3.010786 2.929623
v 0.193562 0.211607 0.824150
vn 4.803992 2.973233 2.733908
v 0.193552 0.211648 0.824125
vn 4.992467 2.900644 2.477572
v 0.195475 0.208375 0.824103
vn 4.345258 2.667934 3.650876
v 0.132900 0.176736 0.934230
vn 4.413742 2.560526 3.656310
v 0.134824 0.173446 0.934229
vn 4.449458 2.054392 3.830248
v 0.199294 0.061882 0.934234
vn 4.056736 -4.244088 1.241423
v 0.193380 0.050590 0.932396
vn 4.407956 -2.544269 0.995791
v 0.254221 0.079969 0.834020
vn 5.092001 -2.613158 2.530900
v 0.199296 0.061862 0.934225
vn 2.884490 -5.570398 0.276467
v 0.193016 0.050407 0.932840
vn 2.974915 -5.529622 0.188459
v 0.193351 0.050569 0.932298
vn 4.011958 -3.923145 -1.179221
v 0.254192 0.079948 0.833922
vn 5.528404 -1.153838 0.992173
v 0.259906 0.096865 0.824069
vn 4.941347 0.492404 3.442196
v 0.199297 0.061877 0.934232
vn 5.232825 -1.506470 2.962623
v 0.199298 0.061871 0.934229
vn 2.721381 -5.649617 0.392568
v 0.192805 0.050305 0.932840
vn 2.606724 -1.665218 4.367405
v 0.198585 0.061446 0.935119
vn -4.397601 -3.230454 -2.905841
v 0.020300 -0.032989 0.801417
vn -4.300349 -3.613527 -2.613203
v 0.022262 -0.040408 0.807987
vn -5.002905 -3.117031 -2.163067
v 0.016389 -0.031451 0.807998
vn -5.138232 -2.982934 -2.015758
v 0.014455 -0.028149 0.808007
vn -3.671192 -0.061723 0.844438
v -0.050028 0.083426 0.808018
vn -4.399971 -2.872201 -3.445025
v 0.076993 0.003588 0.697831
vn -0.706135 -4.124842 -1.904851
v 0.082889 -0.005405 0.697831
vn -3.880413 1.173705 -1.047556
v -0.050028 0.083427 0.808017
vn -5.093210 -0.836057 -3.067600
v 0.005364 0.115439 0.707324
vn -4.274037 -2.484035 -3.841204
v 0.075071 0.006881 0.697826
vn -4.200705 -2.595436 -3.837481
v 0.076991 0.003598 0.697826
vn -3.675801 1.306614 -1.947080
v 0.010590 0.118459 0.697823
vn 4.980041 -1.090202 0.181308
v 0.259912 0.096884 0.824057
vn 4.496384 -3.047025 -3.108389
v 0.259344 0.096552 0.823451
vn 1.228997 -4.736668 -2.379223
v 0.083597 -0.004991 0.696941
vn 2.784467 -4.399495 -2.587207
v 0.087063 -0.002988 0.696941
vn 2.295790 -1.339960 -4.048560
v 0.087065 -0.002986 0.696940
vn 4.492484 3.039177 3.161770
v 0.188017 0.219874 0.824367
vn 4.495449 3.049259 3.146323
v 0.187963 0.220000 0.824323
vn 4.498696 3.059955 3.129506
v 0.187913 0.220115 0.824282
vn 4.502738 3.072507 3.108972
v 0.187867 0.220222 0.824244
vn 4.507348 3.087507 3.084227
v 0.187825 0.220319 0.824210
vn 4.846063 2.996145 2.630483
v 0.193542 0.211683 0.824103
vn 4.512675 3.104329 3.055550
v 0.187786 0.220407 0.824178
vn 4.519369 3.125739 3.017675
v 0.187751 0.220485 0.824150
vn 4.900804 3.031260 2.481120
v 0.193534 0.211712 0.824084
vn 4.527610 3.152877 2.968028
v 0.187720 0.220554 0.824125
vn 4.537221 3.186968 2.903093
v 0.187693 0.220613 0.824103
vn 4.979184 3.081026 2.243260
v 0.193527 0.211735 0.824069
vn 4.549712 3.234111 2.806035
v 0.187669 0.220663 0.824084
vn 3.237284 3.722932 3.516930
v 0.126996 0.185738 0.934233
vn 5.030532 2.922735 2.369422
v 0.195465 0.208407 0.824084
vn 4.563606 3.304990 2.646530
v 0.187650 0.220704 0.824069
vn 5.092305 3.152328 1.830123
v 0.193522 0.211752 0.824057
vn 5.107262 2.967603 2.134592
v 0.195456 0.208434 0.824069
vn -4.177452 -3.796123 -2.368183
v 0.022266 -0.040420 0.807998
vn -5.107201 -3.173726 -1.721457
v 0.016382 -0.031445 0.808006
vn 4.571204 3.409526 2.369361
v 0.187634 0.220735 0.824057
vn 5.217716 3.031990 1.721585
v 0.195448 0.208456 0.824057
vn 4.440091 1.920467 -1.475126
v 0.259912 0.096915 0.824039
vn -3.845749 -4.099689 -1.873231
v 0.022269 -0.040428 0.808006
vn -0.527992 -0.305399 6.223404
v 0.187304 0.071737 0.935120
vn -0.745747 -0.285045 6.159515
v 0.122830 0.183312 0.935120
vn -0.534817 -0.309045 6.221863
v 0.184103 0.077277 0.935120
vn -0.442295 -0.260863 6.241875
v 0.189228 0.068447 0.935119
vn -0.137270 -0.301659 6.256733
v 0.195123 0.059453 0.935119
vn 2.604855 -0.961318 4.521607
v 0.198590 0.061457 0.935119
vn 5.229043 3.242082 0.960996
v 0.193517 0.211764 0.824048
vn 4.497084 3.576567 1.730821
v 0.187622 0.220757 0.824048
vn 5.354186 3.111422 0.846476
v 0.195441 0.208473 0.824048
vn 4.513231 -2.387651 -3.549666
v 0.259349 0.096568 0.823444
vn 4.794125 -0.409971 -0.003608
v 0.259915 0.096898 0.824048
vn -5.330292 -3.095812 -0.825756
v 0.014453 -0.028149 0.808013
vn -5.229707 -3.251146 -0.380122
v 0.016376 -0.031439 0.808013
vn -1.044831 -5.384054 -2.286471
v 0.077668 -0.008422 0.707320
vn -2.574089 -4.377464 -0.639513
v 0.022272 -0.040433 0.808013
vn 0.050285 0.029058 6.282648
v 0.135393 0.170783 0.935120
vn 1.635883 1.203309 5.482849
v 0.126297 0.185316 0.935120
vn 0.976931 2.212472 4.771227
v 0.126291 0.185326 0.935119
vn 1.552775 0.921181 5.712453
v 0.132192 0.176322 0.935120
vn 0.050243 0.028862 6.282649
v 0.196666 0.064747 0.935120
vn -0.004667 -0.003235 6.283180
v 0.193200 0.062744 0.935120
vn 3.359702 2.117712 4.782414
v 0.132192 0.176326 0.935119
vn 1.548372 0.895227 5.763095
v 0.134116 0.173032 0.935119
vn 3.448840 2.008841 4.781831
v 0.134111 0.173042 0.935118
vn 0.430961 0.249034 6.251725
v 0.137317 0.167492 0.935119
vn 2.989979 0.154457 4.706008
v 0.198592 0.061465 0.935118
vn 3.059209 1.767941 5.194210
v 0.137315 0.167499 0.935118
vn 3.730976 1.711392 4.631404
v 0.198593 0.061472 0.935116
vn 4.822312 3.027882 -1.548621
v 0.193514 0.211769 0.824042
vn 3.109272 4.385104 3.104570
v 0.132220 0.188758 0.924736
vn 3.354885 3.561178 -0.116891
v 0.187614 0.220770 0.824042
vn 4.972008 2.890953 -1.599561
v 0.195434 0.208486 0.824042
vn 4.070815 2.556856 4.027792
v 0.132896 0.176738 0.934233
vn 4.149675 2.417575 4.040979
v 0.134816 0.173454 0.934232
vn 4.998277 1.824193 3.329585
v 0.204521 0.064897 0.924736
vn -4.553579 -2.648722 2.332150
v 0.014453 -0.028150 0.808017
vn -2.780412 -3.766770 -3.728761
v 0.082891 -0.005403 0.697826
vn -0.610413 -2.417306 -4.301127
v 0.083596 -0.004991 0.696940
vn -4.484651 -2.714992 2.448874
v 0.016373 -0.031433 0.808016
vn 2.348382 1.715658 -5.525025
v 0.014770 0.120871 0.696941
vn 2.585098 1.617698 -5.476977
v 0.020666 0.111877 0.696941
vn 1.199459 0.727151 -5.955420
v 0.020665 0.111875 0.696940
vn -0.241225 2.733892 -3.992154
v 0.014764 0.120875 0.696940
vn 0.142290 3.628060 -2.543496
v 0.187049 0.220445 0.823441
vn 3.244606 2.010585 -4.951496
v 0.192952 0.211441 0.823441
vn 2.705675 1.569634 -5.441730
v 0.022589 0.108587 0.696941
vn 1.260295 0.736199 -5.923547
v 0.022584 0.108591 0.696940
vn 3.297627 1.917231 -4.960688
v 0.194867 0.208166 0.823441
vn 1.261861 0.729236 -5.924671
v 0.025788 0.103048 0.696940
vn 3.302410 1.908575 -4.961558
v 0.198072 0.202620 0.823441
vn 3.703469 1.087810 -4.770788
v 0.259352 0.096588 0.823441
vn 2.298896 2.559110 -5.145334
v 0.256499 0.094939 0.821346
vn 4.233460 -0.805146 -4.273381
v 0.259352 0.096580 0.823441
vn 3.921961 -0.860676 -4.664059
v 0.256500 0.094932 0.821347
vn -0.653116 3.981195 2.568151
v 0.126290 0.185329 0.935116
vn -2.929157 2.926089 2.764320
v 0.122819 0.183324 0.935116
vn -3.114269 0.456482 3.882130
v -0.046615 0.085402 0.810711
vn -3.697023 4.610086 1.339754
v -0.049465 0.083756 0.808618
vn -3.157465 5.432164 0.002596
v -0.048760 0.084168 0.807732
vn -3.146262 5.438655 0.015198
v 0.123520 0.183734 0.934235
vn -3.197815 5.408182 -0.034595
v -0.049323 0.083839 0.807131
vn -0.157584 4.771080 1.903741
v 0.126991 0.185740 0.934235
vn -3.148713 5.437219 -0.016470
v 0.011852 0.119197 0.697540
vn -0.372059 5.230648 1.458268
v 0.132217 0.188760 0.924734
vn 0.887153 3.529232 -0.897393
v 0.187609 0.220773 0.824040
vn -3.113511 5.456856 -0.054721
v 0.184756 0.219124 0.821945
vn -3.115137 5.455907 -0.055818
v 0.015323 0.121203 0.697540
vn 4.005825 2.491181 -4.075179
v 0.193512 0.211769 0.824040
vn 4.114768 2.398438 -4.021048
v 0.195428 0.208493 0.824039
vn 4.113524 2.377341 -4.040475
v 0.198633 0.202947 0.824039
vn -2.775960 1.495817 -2.552741
v 0.011292 0.118869 0.696942
vn -2.049963 -1.191360 -5.267297
v 0.075776 0.007293 0.696940
vn -1.985238 -1.230651 -5.242020
v 0.077696 0.004010 0.696940
vn -1.726073 1.676166 -4.645430
v 0.011295 0.118870 0.696940
vn -1.242411 -0.718004 -5.964915
v 0.072572 0.012837 0.696940
vn -0.050410 -0.028961 -6.282646
v 0.013215 0.115587 0.696940
vn -2.627337 5.078157 -1.767831
v 0.014762 0.120875 0.696942
vn -0.050463 -0.029163 -6.282645
v 0.074492 0.009554 0.696940
vn 0.004676 0.003241 -6.283180
v 0.016684 0.117592 0.696940
vn -2.433217 5.572228 -1.072064
v 0.184196 0.218796 0.821347
# 159 vertices, 0 vertices normals

f 1//1 2//2 3//3
f 1//1 3//3 4//4
f 1//1 4//4 2//2
f 2//2 5//5 6//6
f 2//2 7//7 5//5
f 2//2 6//6 8//8
f 2//2 9//9 3//3
f 2//2 10//10 9//9
f 2//2 8//8 10//10
f 2//2 11//11 12//12
f 2//2 12//12 13//13
f 2//2 13//13 14//14
f 2//2 14//14 7//7
f 2//2 4//4 11//11
f 5//5 7//7 15//15
f 5//5 15//15 16//16
f 5//5 16//16 6//6
f 17//17 18//18 19//19
f 17//17 20//20 21//21
f 17//17 22//22 20//20
f 17//17 23//23 22//22
f 17//17 24//24 23//23
f 17//17 21//21 25//25
f 17//17 25//25 26//26
f 17//17 26//26 27//27
f 17//17 19//19 24//24
f 17//17 27//27 18//18
f 18//18 27//27 19//19
f 28//28 29//29 30//30
f 28//28 15//15 31//31
f 28//28 32//32 29//29
f 28//28 31//31 32//32
f 28//28 30//30 15//15
f 29//29 32//32 33//33
f 29//29 33//33 34//34
f 29//29 34//34 35//35
f 29//29 36//36 30//30
f 29//29 35//35 36//36
f 7//7 37//37 31//31
f 7//7 31//31 15//15
f 7//7 14//14 37//37
f 15//15 38//38 16//16
f 15//15 30//30 38//38
f 39//39 40//40 41//41
f 39//39 41//41 42//42
f 39//39 42//42 43//43
f 39//39 44//44 45//45
f 39//39 45//45 40//40
f 39//39 46//46 47//47
f 39//39 48//48 49//49
f 39//39 49//49 44//44
f 39//39 50//50 48//48
f 39//39 43//43 46//46
f 39//39 47//47 50//50
f 32//32 31//31 14//14
f 32//32 14//14 33//33
f 33//33 51//51 34//34
f 33//33 52//52 51//51
f 33//33 45//45 53//53
f 33//33 53//53 54//54
f 33//33 54//54 55//55
f 33//33 14//14 45//45
f 33//33 55//55 52//52
f 37//37 14//14 31//31
f 20//20 56//56 21//21
f 20//20 22//22 56//56
f 56//56 57//57 21//21
f 56//56 22//22 23//23
f 56//56 23//23 57//57
f 57//57 58//58 21//21
f 57//57 23//23 58//58
f 58//58 59//59 21//21
f 58//58 23//23 59//59
f 59//59 60//60 21//21
f 59//59 23//23 61//61
f 59//59 61//61 60//60
f 60//60 62//62 21//21
f 60//60 61//61 62//62
f 62//62 63//63 21//21
f 62//62 61//61 64//64
f 62//62 64//64 63//63
f 63//63 65//65 21//21
f 63//63 64//64 65//65
f 65//65 66//66 21//21
f 65//65 64//64 67//67
f 65//65 67//67 66//66
f 23//23 24//24 61//61
f 66//66 68//68 69//69
f 66//66 67//67 68//68
f 66//66 69//69 21//21
f 61//61 24//24 70//70
f 61//61 70//70 64//64
f 24//24 19//19 70//70
f 68//68 71//71 69//69
f 68//68 67//67 72//72
f 68//68 72//72 71//71
f 64//64 70//70 73//73
f 64//64 73//73 67//67
f 70//70 19//19 73//73
f 40//40 74//74 75//75
f 40//40 75//75 41//41
f 40//40 45//45 74//74
f 6//6 16//16 8//8
f 16//16 38//38 8//8
f 71//71 76//76 69//69
f 71//71 72//72 76//76
f 67//67 73//73 77//77
f 67//67 77//77 72//72
f 73//73 19//19 78//78
f 73//73 78//78 77//77
f 34//34 51//51 35//35
f 41//41 75//75 42//42
f 74//74 79//79 75//75
f 74//74 45//45 79//79
f 9//9 10//10 80//80
f 9//9 81//81 3//3
f 9//9 82//82 81//81
f 9//9 80//80 82//82
f 10//10 8//8 83//83
f 10//10 83//83 80//80
f 8//8 38//38 84//84
f 8//8 84//84 83//83
f 38//38 30//30 85//85
f 38//38 85//85 84//84
f 76//76 72//72 86//86
f 76//76 87//87 69//69
f 76//76 86//86 87//87
f 72//72 77//77 88//88
f 72//72 88//88 86//86
f 77//77 78//78 88//88
f 51//51 52//52 89//89
f 51//51 90//90 35//35
f 51//51 89//89 90//90
f 30//30 36//36 85//85
f 42//42 75//75 91//91
f 42//42 91//91 43//43
f 75//75 79//79 92//92
f 75//75 92//92 91//91
f 79//79 45//45 93//93
f 79//79 94//94 92//92
f 79//79 93//93 94//94
f 52//52 55//55 89//89
f 81//81 82//82 95//95
f 81//81 96//96 97//97
f 81//81 98//98 96//96
f 81//81 95//95 98//98
f 81//81 97//97 3//3
f 82//82 80//80 99//99
f 82//82 99//99 95//95
f 80//80 100//100 99//99
f 80//80 83//83 84//84
f 80//80 84//84 100//100
f 100//100 84//84 99//99
f 96//96 98//98 101//101
f 96//96 101//101 97//97
f 98//98 95//95 102//102
f 98//98 102//102 103//103
f 98//98 103//103 101//101
f 95//95 99//99 85//85
f 95//95 104//104 102//102
f 95//95 85//85 104//104
f 99//99 84//84 85//85
f 102//102 104//104 105//105
f 102//102 106//106 103//103
f 102//102 105//105 107//107
f 102//102 107//107 106//106
f 104//104 85//85 105//105
f 85//85 36//36 105//105
f 87//87 86//86 108//108
f 87//87 109//109 69//69
f 87//87 110//110 109//109
f 87//87 108//108 110//110
f 86//86 88//88 111//111
f 86//86 111//111 108//108
f 21//21 69//69 112//112
f 21//21 112//112 25//25
f 25//25 112//112 113//113
f 25//25 113//113 26//26
f 88//88 78//78 111//111
f 26//26 113//113 27//27
f 90//90 89//89 19//19
f 90//90 114//114 35//35
f 90//90 19//19 114//114
f 36//36 35//35 105//105
f 91//91 92//92 115//115
f 91//91 115//115 43//43
f 44//44 49//49 45//45
f 45//45 49//49 116//116
f 45//45 116//116 117//117
f 45//45 14//14 93//93
f 45//45 117//117 53//53
f 92//92 94//94 118//118
f 92//92 118//118 115//115
f 94//94 93//93 14//14
f 94//94 14//14 118//118
f 119//119 120//120 121//121
f 119//119 122//122 123//123
f 119//119 121//121 122//122
f 119//119 123//123 124//124
f 119//119 124//124 120//120
f 120//120 125//125 126//126
f 120//120 126//126 121//121
f 120//120 124//124 127//127
f 120//120 127//127 125//125
f 53//53 117//117 54//54
f 125//125 128//128 126//126
f 125//125 55//55 128//128
f 125//125 127//127 129//129
f 125//125 129//129 130//130
f 125//125 130//130 131//131
f 125//125 131//131 55//55
f 89//89 132//132 19//19
f 89//89 133//133 132//132
f 89//89 55//55 133//133
f 54//54 117//117 55//55
f 3//3 97//97 134//134
f 3//3 135//135 136//136
f 3//3 136//136 4//4
f 3//3 134//134 135//135
f 137//137 138//138 46//46
f 137//137 46//46 43//43
f 137//137 135//135 139//139
f 137//137 136//136 135//135
f 137//137 4//4 136//136
f 137//137 139//139 138//138
f 137//137 43//43 4//4
f 11//11 115//115 12//12
f 11//11 4//4 43//43
f 11//11 43//43 115//115
f 97//97 101//101 69//69
f 97//97 69//69 134//134
f 101//101 103//103 112//112
f 101//101 112//112 69//69
f 12//12 115//115 118//118
f 12//12 118//118 13//13
f 13//13 118//118 14//14
f 103//103 106//106 107//107
f 103//103 113//113 112//112
f 103//103 107//107 113//113
f 105//105 35//35 107//107
f 138//138 140//140 46//46
f 138//138 139//139 141//141
f 138//138 142//142 140//140
f 138//138 143//143 144//144
f 138//138 144//144 145//145
f 138//138 141//141 143//143
f 138//138 145//145 146//146
f 138//138 146//146 142//142
f 109//109 110//110 143//143
f 109//109 143//143 141//141
f 109//109 141//141 69//69
f 110//110 108//108 147//147
f 110//110 144//144 143//143
f 110//110 147//147 144//144
f 108//108 111//111 148//148
f 108//108 148//148 147//147
f 69//69 141//141 134//134
f 111//111 149//149 148//148
f 111//111 78//78 149//149
f 113//113 107//107 27//27
f 114//114 19//19 27//27
f 114//114 27//27 35//35
f 19//19 132//132 78//78
f 35//35 27//27 107//107
f 46//46 140//140 150//150
f 46//46 50//50 47//47
f 46//46 150//150 50//50
f 48//48 151//151 49//49
f 48//48 50//50 150//150
f 48//48 150//150 151//151
f 49//49 151//151 152//152
f 49//49 152//152 117//117
f 49//49 117//117 116//116
f 153//153 154//154 150//150
f 153//153 122//122 155//155
f 153//153 155//155 154//154
f 153//153 150//150 156//156
f 153//153 156//156 122//122
f 154//154 151//151 150//150
f 154//154 155//155 157//157
f 154//154 157//157 151//151
f 140//140 142//142 150//150
f 151//151 157//157 152//152
f 122//122 121//121 158//158
f 122//122 158//158 155//155
f 122//122 159//159 123//123
f 122//122 156//156 159//159
f 121//121 126//126 158//158
f 155//155 158//158 126//126
f 155//155 126//126 128//128
f 155//155 128//128 157//157
f 157//157 128//128 55//55
f 157//157 55//55 152//152
f 152//152 55//55 117//117
f 132//132 133//133 130//130
f 132//132 130//130 78//78
f 133//133 55//55 130//130
f 55//55 131//131 130//130
f 135//135 134//134 139//139
f 134//134 141//141 139//139
f 142//142 146//146 156//156
f 142//142 156//156 150//150
f 144//144 147//147 124//124
f 144//144 123//123 145//145
f 144//144 124//124 123//123
f 147//147 148//148 127//127
f 147//147 127//127 124//124
f 145//145 123//123 159//159
f 145//145 159//159 146//146
f 146//146 159//159 156//156
f 148//148 149//149 127//127
f 149//149 78//78 129//129
f 149//149 129//129 127//127
f 78//78 130//130 129//129
# 314 faces, 0 coords texture

# End of File
