####
#
# OBJ File Generated by Meshlab
#
####
# Object matlab_mesh_step2_link5.obj
#
# Vertices: 193
# Faces: 382
#
####
vn -4.192981 -2.518091 3.920635
v 0.321338 0.333037 1.067867
vn -3.976178 -2.754850 4.009325
v 0.344144 0.299844 1.067867
vn -3.687960 -2.439122 4.427853
v 0.402047 0.295155 1.121211
vn -4.208394 -0.885040 4.114557
v 0.321311 0.333176 1.067924
vn -4.539709 -2.629634 3.309205
v 0.316641 0.311072 1.047835
vn -3.395981 -2.748624 4.438400
v 0.424853 0.261962 1.121211
vn -3.701150 -3.954566 2.421146
v 0.339485 0.277825 1.047835
vn -2.971031 -0.833759 5.101001
v 0.402024 0.295291 1.121260
vn -2.835707 -3.299981 4.509567
v 0.451637 0.248247 1.130011
vn 0.020949 -2.039748 4.714410
v 0.451700 0.248290 1.130080
vn -3.337072 -4.063869 2.689283
v 0.420196 0.239941 1.101174
vn -2.941181 -2.210227 5.066244
v 0.424896 0.262003 1.121260
vn -2.467398 -4.422331 2.922516
v 0.447008 0.226232 1.109988
vn -4.111405 -4.517762 0.046996
v 0.377597 0.229830 0.911691
vn -3.227739 -5.304363 0.957456
v 0.387794 0.225897 0.925456
vn -4.343143 -3.911434 0.916139
v 0.325260 0.283147 1.028764
vn -4.700069 -3.803482 -1.282516
v 0.377597 0.229835 0.911661
vn -3.642785 -4.996240 0.025425
v 0.381343 0.226919 0.908084
vn -3.123775 -5.383239 0.833589
v 0.391540 0.222986 0.921850
vn -4.384011 -4.123242 -1.441721
v 0.381346 0.226921 0.908050
vn -3.944831 -4.259686 1.816581
v 0.335457 0.279214 1.042530
vn -3.169675 -5.330152 1.010473
v 0.391822 0.224507 0.930761
vn -3.169647 -5.330172 1.010454
v 0.395567 0.221597 0.927154
vn -5.080830 -2.558307 1.215070
v 0.302416 0.316394 1.028764
vn -4.869798 -2.559992 2.927004
v 0.312613 0.312461 1.042530
vn -5.275626 -0.538103 2.948191
v 0.307069 0.338504 1.048831
vn -5.370653 0.326854 0.076835
v 0.302389 0.316478 1.028749
vn -5.313463 -2.284965 -1.693218
v 0.354724 0.263123 0.911661
vn -5.481455 -1.362971 -0.193799
v 0.302393 0.316440 1.028737
vn -4.970266 -0.678292 3.554488
v 0.317279 0.334567 1.062613
vn -3.169665 -5.330157 1.010481
v 0.343230 0.274914 1.044228
vn -3.128990 -5.345578 1.052997
v 0.423941 0.237030 1.097568
vn -3.336764 -5.235744 -0.107275
v 0.391059 0.220395 0.898336
vn -2.507787 -5.602675 -0.466620
v 0.417878 0.206675 0.907110
vn -3.471827 -4.723997 -1.337328
v 0.391074 0.220389 0.898290
vn -3.014868 -5.472256 0.665828
v 0.408150 0.213207 0.916870
vn -3.091269 -5.399781 0.853708
v 0.472251 0.185102 0.975189
vn -3.105054 -5.371892 0.984991
v 0.476278 0.183713 0.980494
vn -3.016001 -5.470166 0.677649
v 0.418360 0.209270 0.930652
vn -3.009474 -5.456365 0.792617
v 0.499072 0.171385 0.983988
vn -3.041482 -5.395752 1.050266
v 0.503090 0.170003 0.989308
vn -2.375798 -5.426792 1.810155
v 0.450753 0.223321 1.106382
vn -2.636373 -5.541551 1.207867
v 0.503105 0.169994 0.989299
vn -0.963641 -5.320513 2.766312
v 0.450773 0.223311 1.106375
vn -1.033039 -5.065666 3.392877
v 0.447024 0.226226 1.109986
vn -0.597617 -4.166997 4.348127
v 0.447033 0.226244 1.110010
vn 0.122125 -5.249787 0.855593
v 0.512832 0.163462 0.979540
vn -0.637935 -5.426541 2.491809
v 0.460501 0.216780 1.096616
vn -4.745632 1.754659 1.315793
v 0.307064 0.338535 1.048819
vn -4.444420 1.804915 3.825302
v 0.317282 0.334595 1.062612
vn -3.580529 1.508450 4.436191
v 0.321317 0.333203 1.067927
vn -1.324542 -0.780626 5.802951
v 0.428828 0.281577 1.130080
vn -0.774119 0.443406 5.920766
v 0.428817 0.281615 1.130080
vn -2.142998 1.244744 5.557864
v 0.402031 0.295317 1.121261
vn 0.992972 0.751275 6.153916
v 0.533894 0.458307 1.096603
vn 1.668727 0.213430 5.981645
v 0.556766 0.425020 1.096603
vn 2.958818 0.631868 4.880104
v 0.556775 0.425030 1.096600
vn 1.213393 2.177726 5.066145
v 0.533884 0.458344 1.096600
vn 1.949364 -0.676820 5.509979
v 0.451708 0.248301 1.130080
vn 2.167376 -3.211482 4.665677
v 0.455450 0.245375 1.126469
vn 3.525401 -1.762218 4.859308
v 0.455461 0.245384 1.126466
vn 0.663121 -4.638655 4.070149
v 0.450785 0.223327 1.106396
vn 3.728040 -3.776578 3.362040
v 0.517508 0.185525 0.999634
vn 4.564245 -3.038597 2.760846
v 0.517523 0.185529 0.999621
vn 3.755912 -2.643911 3.894099
v 0.465195 0.238847 1.116698
vn 1.896611 -4.501275 3.449136
v 0.460520 0.216790 1.096628
vn 3.214025 -4.192274 1.987120
v 0.512847 0.163472 0.979551
vn 2.571857 -3.392522 4.362553
v 0.465177 0.238843 1.116709
vn 4.015394 4.383377 1.711817
v 0.561907 0.479215 1.042805
vn 3.565277 3.601831 3.085830
v 0.550359 0.475724 1.073647
vn 4.703484 3.446823 2.319275
v 0.560087 0.469193 1.063887
vn 4.444970 4.059069 1.514820
v 0.571634 0.472683 1.033045
vn 3.123716 5.188366 0.673749
v 0.561893 0.479232 1.042784
vn 2.297538 4.429671 3.081914
v 0.550337 0.475738 1.073651
vn 4.368395 2.240253 3.572114
v 0.573232 0.442437 1.073647
vn 4.786373 2.388075 3.073512
v 0.582959 0.435905 1.063887
vn 4.738661 1.184746 3.940776
v 0.576981 0.439523 1.070036
vn 4.808013 3.366160 2.239981
v 0.563836 0.466278 1.060276
vn 4.712043 3.791788 1.279528
v 0.575384 0.469769 1.029434
vn 3.652937 4.975764 0.031873
v 0.571628 0.472695 1.033016
vn 4.963102 1.751973 2.893904
v 0.586709 0.432991 1.060276
vn 4.951044 3.801421 0.200573
v 0.627715 0.416451 0.912359
vn 5.458914 1.699775 1.127012
v 0.650587 0.383164 0.912359
vn 4.827242 0.504235 -0.247690
v 0.650599 0.383146 0.912325
vn 5.303615 2.360697 1.690936
v 0.598256 0.436482 1.029434
vn 4.277491 4.029706 -1.180060
v 0.627707 0.416460 0.912325
vn 4.074443 4.569169 -0.064184
v 0.575380 0.469778 1.029403
vn 5.778533 0.214596 2.392591
v 0.639040 0.379673 0.943200
vn 5.536907 -1.370206 2.169764
v 0.639043 0.379652 0.943193
vn 5.783181 1.279077 2.010685
v 0.598271 0.436464 1.029403
vn 5.372660 0.083763 2.919990
v 0.586715 0.432971 1.060270
vn 4.221067 -0.217945 4.456420
v 0.560527 0.422114 1.092986
vn 4.573407 -0.778007 3.789149
v 0.570262 0.415577 1.083219
vn -5.078537 -1.935375 -2.686171
v 0.366272 0.266613 0.880819
vn -4.808018 -3.366152 -2.239983
v 0.389144 0.233326 0.880819
vn -5.199193 -0.247563 -3.115303
v 0.366272 0.266653 0.880804
vn -4.784664 -1.428996 -3.813520
v 0.375999 0.260081 0.871059
vn -4.786384 -2.388130 -3.073477
v 0.370021 0.263699 0.877208
vn -4.735979 -1.167709 -3.950563
v 0.376007 0.260116 0.871037
vn -4.703492 -3.446814 -2.319275
v 0.392894 0.230412 0.877208
vn -4.356987 -2.437009 -3.527236
v 0.379749 0.257167 0.867448
vn -4.346824 -1.597869 -4.171351
v 0.379759 0.257200 0.867423
vn -5.821903 -0.427972 -2.300540
v 0.313941 0.319931 0.997895
vn -5.530096 1.239724 -2.178672
v 0.313945 0.319972 0.997882
vn -3.042069 -3.932534 -2.849559
v 0.402621 0.223880 0.867448
vn -2.840621 -0.605911 -4.903025
v 0.396212 0.274594 0.844474
vn -1.303791 -5.319293 -2.579522
v 0.429425 0.210166 0.876269
vn -2.168589 -3.998479 -3.957621
v 0.402651 0.223886 0.867423
vn -1.271800 -2.069992 -5.121219
v 0.419104 0.241280 0.844474
vn -3.009475 -5.475327 0.665035
v 0.488863 0.175322 0.970206
vn -0.279409 -5.606575 -2.094191
v 0.510138 0.172281 0.929605
vn -2.044375 -5.750299 -0.350380
v 0.498590 0.168790 0.960447
vn -0.584330 -4.903792 -3.804547
v 0.429437 0.210184 0.876242
vn 0.673281 -5.290502 -3.112283
v 0.510150 0.172298 0.929575
vn -1.907865 -5.806885 -0.145479
v 0.508800 0.164853 0.974229
vn 0.261485 -5.830401 -1.804865
v 0.520347 0.168343 0.943387
vn 1.337635 -5.554916 -0.756576
v 0.524380 0.166952 0.948698
vn 1.600487 -5.443416 -2.688271
v 0.520368 0.168357 0.943368
vn 3.320058 -4.218348 -0.396432
v 0.524403 0.166965 0.948684
vn -3.718238 3.564923 1.214940
v 0.412131 0.515265 1.015340
vn -2.895099 4.181645 3.320612
v 0.416166 0.513873 1.020655
vn -1.812052 5.315604 2.816062
v 0.416183 0.513889 1.020636
vn -3.576853 4.087383 0.575831
v 0.412145 0.515281 1.015319
vn -5.387148 2.815517 -1.578086
v 0.307078 0.338552 1.048800
vn -2.166564 3.714377 3.929683
v 0.426384 0.509932 1.034448
vn -0.988303 5.040935 3.445758
v 0.426404 0.509946 1.034435
vn -0.857121 3.196211 4.891924
v 0.507098 0.472046 1.087782
vn 1.163155 3.832774 4.650737
v 0.533876 0.458374 1.096580
vn 0.285417 4.582787 4.192955
v 0.507118 0.472060 1.087767
vn 5.228005 -2.095090 2.550825
v 0.622590 0.362258 0.966142
vn 5.336389 -2.810019 1.759109
v 0.617914 0.340201 0.946072
vn -0.193288 5.073168 -2.561018
v 0.492467 0.482834 0.844446
vn 1.310594 5.146588 -2.459452
v 0.502202 0.476297 0.834678
vn -2.043285 4.364122 -3.642697
v 0.492465 0.482818 0.844425
vn -1.163792 4.055271 -1.042285
v 0.440140 0.536152 0.961523
vn 2.648642 5.533394 -1.213754
v 0.449875 0.529615 0.951756
vn 3.106032 5.371256 -0.985509
v 0.476661 0.515913 0.960574
vn 1.925176 4.919307 -2.626606
v 0.505954 0.473380 0.831065
vn -0.633414 4.626814 -4.084817
v 0.502204 0.476278 0.834654
vn 3.129646 5.345293 -1.052547
v 0.528988 0.462595 0.843497
vn -2.307370 4.324455 0.172611
v 0.428584 0.532659 0.992391
vn 1.907877 5.806875 0.145430
v 0.444175 0.534760 0.966838
vn -5.336347 2.810081 -1.759138
v 0.335073 0.359423 0.995003
vn -5.343264 2.851821 -1.671784
v 0.323517 0.355929 1.025870
vn 3.010176 5.455830 -0.793443
v 0.453910 0.528223 0.957071
vn -4.513571 3.068773 -2.782348
v 0.435464 0.514095 0.941453
vn -3.890058 3.794285 -3.011464
v 0.440140 0.536136 0.961503
vn -0.427521 5.733472 1.900135
v 0.432619 0.531267 0.997706
vn -5.227996 2.095081 -2.550865
v 0.330398 0.337366 0.974933
vn -5.370750 2.772870 -1.713991
v 0.318639 0.342047 1.017920
vn 0.122614 5.447329 2.269513
v 0.442837 0.527326 1.011499
vn 2.044391 5.750284 0.350336
v 0.454393 0.530820 0.980632
vn 3.009504 5.475304 -0.665094
v 0.464128 0.524283 0.970864
vn 3.016969 5.469391 -0.679542
v 0.534624 0.490337 1.010405
vn 3.092273 5.398973 -0.855660
v 0.480696 0.514521 0.965890
vn 2.507880 5.602660 0.466387
v 0.535107 0.492934 1.033965
vn 1.199872 5.183137 2.745406
v 0.523551 0.489440 1.064833
vn 3.015653 5.471794 -0.666049
v 0.544842 0.486397 1.024198
vn 3.124393 5.382794 -0.834356
v 0.561410 0.476635 1.019223
vn 3.469899 4.339119 -2.367224
v 0.532740 0.459679 0.839883
vn 1.318417 4.051532 -3.895784
v 0.505957 0.473360 0.831038
vn 3.169702 5.330106 -1.010631
v 0.557375 0.478027 1.013908
vn 3.169700 5.330097 -1.010688
v 0.609702 0.424709 0.896831
vn 3.169740 5.330077 -1.010662
v 0.561127 0.475111 1.010294
vn 3.768022 4.052745 -2.277268
v 0.613454 0.421793 0.893217
vn 3.227820 5.304280 -0.957644
v 0.565162 0.473719 1.015609
vn 4.006040 3.077420 -3.707874
v 0.613429 0.421788 0.893184
vn 3.467312 3.521485 -3.739965
v 0.532715 0.459674 0.839851
vn 4.650206 2.633081 -3.187042
v 0.636346 0.388479 0.893217
vn 4.392462 2.523608 -3.670456
v 0.636330 0.388460 0.893184
vn 3.944821 4.259710 -1.816678
v 0.617490 0.420401 0.898532
vn 4.869753 2.560036 -2.927023
v 0.640381 0.387086 0.898532
vn 4.482604 -0.565290 -3.527172
v 0.635706 0.365029 0.878462
vn 3.569899 -0.263198 -3.972337
v 0.631670 0.366421 0.873147
vn 4.526190 -1.152901 -1.414024
v 0.645923 0.361089 0.892255
vn 5.370803 -2.772773 1.713999
v 0.634367 0.357595 0.923123
vn -4.573412 0.777802 -3.789098
v 0.382725 0.284048 0.857855
vn -4.221102 0.217729 -4.456324
v 0.392460 0.277510 0.848088
vn -0.769525 -3.303439 -4.891998
v 0.419115 0.241260 0.844483
vn -0.279842 -4.422703 -4.327974
v 0.445872 0.227574 0.853296
vn 0.519801 -4.980068 -3.752501
v 0.526586 0.189688 0.906629
vn 2.105740 -3.759241 -3.874899
v 0.526603 0.189692 0.906626
vn 2.844448 -4.213393 -3.292699
v 0.536821 0.185751 0.920419
vn 3.672830 -3.553587 -1.137420
v 0.540856 0.184359 0.925735
vn 5.343335 -2.851694 1.671769
v 0.629470 0.343695 0.915204
vn -3.149554 2.886030 -3.975078
v 0.487792 0.460777 0.824376
vn -2.423867 2.816736 -4.614764
v 0.497527 0.454240 0.814608
vn -0.205737 1.776532 -4.525264
v 0.501279 0.451323 0.810995
vn 1.089745 0.122562 -5.657808
v 0.524170 0.418009 0.810995
vn 3.221970 2.519514 -4.630437
v 0.528065 0.437621 0.819813
vn 2.612483 0.171082 -4.828955
v 0.550956 0.404307 0.819813
vn 0.905865 -3.252192 -4.829672
v 0.445890 0.227578 0.853293
vn 3.975631 2.754489 -4.010125
v 0.608779 0.399735 0.873147
# 193 vertices, 0 vertices normals

f 1//1 2//2 3//3
f 1//1 3//3 4//4
f 1//1 5//5 2//2
f 1//1 4//4 5//5
f 2//2 6//6 3//3
f 2//2 5//5 7//7
f 2//2 7//7 6//6
f 3//3 6//6 8//8
f 3//3 8//8 4//4
f 6//6 9//9 10//10
f 6//6 7//7 11//11
f 6//6 11//11 9//9
f 6//6 12//12 8//8
f 6//6 10//10 12//12
f 9//9 11//11 13//13
f 9//9 13//13 10//10
f 14//14 15//15 16//16
f 14//14 16//16 17//17
f 14//14 18//18 19//19
f 14//14 19//19 15//15
f 14//14 17//17 20//20
f 14//14 20//20 18//18
f 15//15 21//21 16//16
f 15//15 22//22 21//21
f 15//15 19//19 23//23
f 15//15 23//23 22//22
f 24//24 16//16 25//25
f 24//24 25//25 26//26
f 24//24 26//26 27//27
f 24//24 28//28 16//16
f 24//24 29//29 28//28
f 24//24 27//27 29//29
f 16//16 21//21 25//25
f 16//16 28//28 17//17
f 25//25 21//21 5//5
f 25//25 5//5 30//30
f 25//25 30//30 26//26
f 21//21 22//22 7//7
f 21//21 7//7 5//5
f 22//22 23//23 31//31
f 22//22 31//31 7//7
f 5//5 4//4 30//30
f 7//7 31//31 32//32
f 7//7 32//32 11//11
f 11//11 32//32 13//13
f 18//18 33//33 34//34
f 18//18 20//20 35//35
f 18//18 35//35 33//33
f 18//18 36//36 19//19
f 18//18 34//34 36//36
f 33//33 35//35 34//34
f 19//19 37//37 38//38
f 19//19 38//38 23//23
f 19//19 36//36 39//39
f 19//19 39//39 37//37
f 37//37 39//39 40//40
f 37//37 40//40 38//38
f 23//23 38//38 32//32
f 23//23 32//32 31//31
f 38//38 41//41 42//42
f 38//38 42//42 32//32
f 38//38 40//40 43//43
f 38//38 43//43 41//41
f 32//32 42//42 13//13
f 13//13 42//42 44//44
f 13//13 45//45 46//46
f 13//13 44//44 45//45
f 13//13 46//46 10//10
f 41//41 43//43 42//42
f 42//42 43//43 47//47
f 42//42 47//47 48//48
f 42//42 48//48 44//44
f 26//26 30//30 49//49
f 26//26 49//49 27//27
f 30//30 4//4 50//50
f 30//30 50//50 49//49
f 4//4 8//8 51//51
f 4//4 51//51 50//50
f 8//8 12//12 52//52
f 8//8 52//52 53//53
f 8//8 54//54 51//51
f 8//8 53//53 54//54
f 12//12 10//10 52//52
f 55//55 56//56 57//57
f 55//55 58//58 53//53
f 55//55 57//57 58//58
f 55//55 53//53 59//59
f 55//55 59//59 56//56
f 56//56 59//59 57//57
f 52//52 10//10 59//59
f 52//52 59//59 53//53
f 10//10 60//60 61//61
f 10//10 61//61 59//59
f 10//10 46//46 62//62
f 10//10 62//62 60//60
f 63//63 64//64 65//65
f 63//63 65//65 66//66
f 63//63 67//67 64//64
f 63//63 66//66 67//67
f 60//60 68//68 61//61
f 60//60 62//62 66//66
f 60//60 66//66 68//68
f 68//68 65//65 61//61
f 68//68 66//66 65//65
f 69//69 70//70 71//71
f 69//69 72//72 73//73
f 69//69 71//71 72//72
f 69//69 73//73 74//74
f 69//69 74//74 70//70
f 70//70 75//75 71//71
f 70//70 58//58 57//57
f 70//70 57//57 75//75
f 70//70 74//74 58//58
f 75//75 76//76 71//71
f 75//75 77//77 76//76
f 75//75 57//57 77//77
f 72//72 71//71 78//78
f 72//72 79//79 80//80
f 72//72 78//78 79//79
f 72//72 80//80 73//73
f 71//71 76//76 78//78
f 76//76 77//77 81//81
f 76//76 81//81 78//78
f 82//82 83//83 84//84
f 82//82 79//79 85//85
f 82//82 85//85 83//83
f 82//82 86//86 87//87
f 82//82 84//84 86//86
f 82//82 87//87 79//79
f 83//83 88//88 89//89
f 83//83 85//85 90//90
f 83//83 89//89 84//84
f 83//83 90//90 91//91
f 83//83 91//91 88//88
f 88//88 91//91 89//89
f 77//77 57//57 92//92
f 77//77 92//92 81//81
f 79//79 78//78 85//85
f 79//79 87//87 80//80
f 85//85 78//78 81//81
f 85//85 81//81 91//91
f 85//85 91//91 90//90
f 81//81 92//92 93//93
f 81//81 93//93 91//91
f 94//94 95//95 17//17
f 94//94 28//28 96//96
f 94//94 17//17 28//28
f 94//94 97//97 98//98
f 94//94 98//98 95//95
f 94//94 96//96 99//99
f 94//94 99//99 97//97
f 95//95 98//98 100//100
f 95//95 100//100 20//20
f 95//95 20//20 17//17
f 28//28 29//29 96//96
f 97//97 101//101 98//98
f 97//97 99//99 102//102
f 97//97 102//102 101//101
f 103//103 29//29 104//104
f 103//103 96//96 29//29
f 103//103 104//104 96//96
f 29//29 27//27 104//104
f 98//98 101//101 105//105
f 98//98 105//105 100//100
f 100//100 105//105 20//20
f 20//20 105//105 35//35
f 101//101 102//102 106//106
f 101//101 106//106 105//105
f 105//105 107//107 35//35
f 105//105 108//108 107//107
f 105//105 106//106 109//109
f 105//105 109//109 108//108
f 35//35 107//107 34//34
f 45//45 44//44 62//62
f 45//45 62//62 46//46
f 36//36 34//34 110//110
f 36//36 110//110 39//39
f 107//107 111//111 112//112
f 107//107 112//112 34//34
f 107//107 108//108 113//113
f 107//107 113//113 114//114
f 107//107 114//114 111//111
f 34//34 112//112 110//110
f 39//39 110//110 40//40
f 110//110 112//112 115//115
f 110//110 115//115 40//40
f 111//111 116//116 112//112
f 111//111 114//114 116//116
f 112//112 116//116 115//115
f 40//40 115//115 47//47
f 40//40 47//47 43//43
f 116//116 117//117 115//115
f 116//116 114//114 118//118
f 116//116 118//118 117//117
f 115//115 117//117 47//47
f 117//117 118//118 119//119
f 117//117 119//119 67//67
f 117//117 67//67 47//47
f 47//47 67//67 66//66
f 47//47 66//66 48//48
f 44//44 48//48 66//66
f 44//44 66//66 62//62
f 120//120 49//49 121//121
f 120//120 121//121 122//122
f 120//120 123//123 124//124
f 120//120 124//124 49//49
f 120//120 122//122 123//123
f 49//49 50//50 51//51
f 49//49 51//51 121//121
f 49//49 124//124 27//27
f 121//121 125//125 126//126
f 121//121 51//51 125//125
f 121//121 126//126 122//122
f 125//125 51//51 127//127
f 125//125 127//127 126//126
f 51//51 54//54 127//127
f 127//127 54//54 53//53
f 127//127 58//58 128//128
f 127//127 53//53 58//58
f 127//127 129//129 126//126
f 127//127 128//128 129//129
f 58//58 74//74 128//128
f 57//57 59//59 92//92
f 59//59 61//61 92//92
f 130//130 64//64 67//67
f 130//130 93//93 64//64
f 130//130 89//89 91//91
f 130//130 91//91 93//93
f 130//130 131//131 89//89
f 130//130 67//67 131//131
f 64//64 93//93 65//65
f 92//92 61//61 93//93
f 93//93 61//61 65//65
f 132//132 133//133 134//134
f 132//132 135//135 136//136
f 132//132 136//136 133//133
f 132//132 134//134 135//135
f 133//133 136//136 137//137
f 133//133 138//138 139//139
f 133//133 140//140 138//138
f 133//133 137//137 140//140
f 133//133 139//139 134//134
f 135//135 141//141 142//142
f 135//135 143//143 144//144
f 135//135 144//144 141//141
f 135//135 142//142 145//145
f 135//135 145//145 136//136
f 135//135 146//146 143//143
f 135//135 134//134 147//147
f 135//135 147//147 146//146
f 141//141 144//144 124//124
f 141//141 148//148 142//142
f 141//141 123//123 122//122
f 141//141 124//124 123//123
f 141//141 122//122 148//148
f 136//136 145//145 137//137
f 143//143 146//146 149//149
f 143//143 149//149 150//150
f 143//143 150//150 144//144
f 144//144 150//150 124//124
f 142//142 148//148 151//151
f 142//142 152//152 153//153
f 142//142 151//151 152//152
f 142//142 153//153 145//145
f 148//148 122//122 126//126
f 148//148 126//126 151//151
f 145//145 153//153 154//154
f 145//145 154//154 155//155
f 145//145 155//155 137//137
f 152//152 151//151 156//156
f 152//152 156//156 153//153
f 151//151 157//157 156//156
f 151//151 126//126 157//157
f 153//153 156//156 158//158
f 153//153 158//158 154//154
f 154//154 158//158 80//80
f 154//154 159//159 155//155
f 154//154 80//80 159//159
f 156//156 157//157 73//73
f 156//156 73//73 80//80
f 156//156 80//80 158//158
f 157//157 74//74 73//73
f 157//157 126//126 129//129
f 157//157 129//129 128//128
f 157//157 128//128 74//74
f 138//138 140//140 160//160
f 138//138 160//160 161//161
f 138//138 161//161 139//139
f 140//140 137//137 162//162
f 140//140 163//163 160//160
f 140//140 162//162 163//163
f 137//137 155//155 162//162
f 163//163 162//162 164//164
f 163//163 165//165 160//160
f 163//163 164//164 165//165
f 162//162 155//155 159//159
f 162//162 159//159 166//166
f 162//162 166//166 164//164
f 159//159 80//80 87//87
f 159//159 87//87 166//166
f 160//160 165//165 167//167
f 160//160 168//168 161//161
f 160//160 167//167 168//168
f 165//165 169//169 170//170
f 165//165 164//164 171//171
f 165//165 171//171 169//169
f 165//165 170//170 167//167
f 169//169 171//171 172//172
f 169//169 172//172 173//173
f 169//169 174//174 170//170
f 169//169 173//173 174//174
f 164//164 166//166 171//171
f 171//171 86//86 84//84
f 171//171 84//84 172//172
f 171//171 166//166 87//87
f 171//171 87//87 86//86
f 172//172 84//84 175//175
f 172//172 175//175 173//173
f 84//84 89//89 176//176
f 84//84 176//176 175//175
f 89//89 131//131 176//176
f 96//96 104//104 149//149
f 96//96 177//177 99//99
f 96//96 149//149 177//177
f 99//99 177//177 178//178
f 99//99 178//178 102//102
f 104//104 27//27 150//150
f 104//104 150//150 149//149
f 27//27 124//124 150//150
f 102//102 178//178 106//106
f 108//108 109//109 179//179
f 108//108 179//179 113//113
f 113//113 179//179 180//180
f 113//113 180//180 181//181
f 113//113 181//181 114//114
f 114//114 182//182 183//183
f 114//114 183//183 118//118
f 114//114 181//181 182//182
f 118//118 183//183 184//184
f 118//118 184//184 119//119
f 185//185 131//131 67//67
f 185//185 119//119 175//175
f 185//185 67//67 119//119
f 185//185 175//175 176//176
f 185//185 176//176 131//131
f 119//119 184//184 175//175
f 186//186 187//187 178//178
f 186//186 177//177 149//149
f 186//186 178//178 177//177
f 186//186 146//146 134//134
f 186//186 149//149 146//146
f 186//186 134//134 187//187
f 187//187 188//188 178//178
f 187//187 134//134 139//139
f 187//187 139//139 188//188
f 178//178 188//188 106//106
f 146//146 147//147 134//134
f 188//188 189//189 109//109
f 188//188 109//109 106//106
f 188//188 190//190 189//189
f 188//188 139//139 161//161
f 188//188 161//161 190//190
f 189//189 190//190 191//191
f 189//189 191//191 109//109
f 109//109 191//191 192//192
f 109//109 192//192 179//179
f 190//190 193//193 191//191
f 190//190 161//161 168//168
f 190//190 168//168 167//167
f 190//190 167//167 193//193
f 191//191 193//193 174//174
f 191//191 174//174 192//192
f 192//192 174//174 182//182
f 192//192 182//182 181//181
f 192//192 180//180 179//179
f 192//192 181//181 180//180
f 193//193 167//167 170//170
f 193//193 170//170 174//174
f 174//174 183//183 182//182
f 174//174 173//173 175//175
f 174//174 175//175 183//183
f 183//183 175//175 184//184
# 382 faces, 0 coords texture

# End of File
