####
#
# OBJ File Generated by Meshlab
#
####
# Object matlab_mesh_step17_link2.obj
#
# Vertices: 165
# Faces: 326
#
####
vn -0.883637 -1.687390 5.987513
v 0.144498 0.195753 0.900471
vn 2.257812 -2.020705 3.377114
v 0.145073 0.195452 0.900471
vn -1.693865 -0.091170 5.699832
v 0.011599 0.269434 0.901622
vn -3.077688 -0.067276 4.516562
v -0.087308 0.071851 0.831285
vn -3.266602 -0.138451 3.729347
v -0.088973 0.068525 0.830101
vn 3.259307 -0.838910 2.761377
v 0.145193 0.195653 0.900471
vn 0.545419 -0.442760 6.240476
v 0.140371 0.205670 0.901621
vn 0.094999 -0.469431 6.229463
v 0.140366 0.205679 0.901622
vn -0.274646 -0.553378 6.232944
v 0.127592 0.211365 0.901623
vn -0.523720 -0.663413 6.140858
v 0.011612 0.269432 0.901623
vn -0.240130 -0.502598 6.237466
v 0.130150 0.210118 0.901622
vn 1.270702 -3.181742 1.855433
v 0.039413 0.004025 0.829686
vn -0.940462 -1.895274 5.912658
v 0.027005 0.010473 0.830102
vn -0.902110 -2.011766 5.875076
v 0.029548 0.009233 0.830101
vn 1.885077 -2.711091 3.823154
v 0.039784 0.004786 0.830101
vn -1.050002 -2.097636 5.811446
v -0.082506 0.065287 0.830101
vn 5.729571 -0.918443 0.799559
v 0.145247 0.195744 0.900197
vn 5.825376 1.560226 1.684623
v 0.142359 0.209672 0.900675
vn 2.064593 -0.003646 5.732717
v 0.142159 0.209240 0.901621
vn 2.960515 0.649119 3.978456
v 0.142156 0.209255 0.901622
vn 5.741865 -0.931147 0.763163
v 0.145323 0.195872 0.899780
vn 4.763519 0.106849 -0.507621
v 0.165857 0.230373 0.787394
vn 5.980060 1.198684 1.508915
v 0.142363 0.209659 0.900670
vn 5.450188 2.348246 0.116191
v 0.160087 0.245050 0.776298
vn 4.208953 3.868502 2.114461
v 0.142350 0.209688 0.900683
vn 4.883115 -0.718552 -3.852568
v 0.159707 0.244298 0.775866
vn 4.773554 1.684893 -0.923686
v 0.160081 0.245066 0.776285
vn 5.541980 -2.768319 -1.037067
v 0.059126 0.043415 0.704334
vn 2.726608 -0.791667 -3.570232
v 0.059127 0.043418 0.704333
vn 1.505589 -4.194896 -1.157392
v 0.057131 0.039419 0.705277
vn 1.549429 -4.124631 -1.372799
v 0.057132 0.039421 0.705272
vn 5.381419 2.487896 1.871172
v 0.142355 0.209682 0.900679
vn 1.221556 -2.248839 -2.403117
v 0.057333 0.039834 0.704333
vn 2.604918 5.479370 1.495775
v 0.059333 0.293729 0.787369
vn 2.235682 5.549735 1.918377
v 0.032440 0.308235 0.776743
vn 2.213267 5.386266 2.298882
v 0.013607 0.273427 0.900680
vn 2.339088 5.578038 1.683138
v 0.032304 0.308309 0.776686
vn 2.545079 5.595149 1.284735
v 0.041652 0.304320 0.776360
vn 2.584578 5.605189 1.141881
v 0.041623 0.304338 0.776336
vn 2.752803 5.570761 0.927943
v 0.044199 0.303083 0.776335
vn 2.470963 5.298590 2.263265
v 0.023835 0.268983 0.900680
vn 2.581470 5.198582 2.367897
v 0.026386 0.267740 0.900679
vn 3.011850 4.909806 2.364936
v 0.142344 0.209691 0.900685
vn 3.123627 2.718566 -1.538875
v 0.160068 0.245084 0.776269
vn 2.831467 5.275516 1.904125
v 0.143872 0.212743 0.889958
vn -2.063869 -5.634509 -1.420772
v 0.033184 0.007449 0.822311
vn -1.738928 -5.834010 -1.126079
v 0.039388 0.004033 0.829654
vn -2.533711 -5.721196 -0.567218
v 0.029200 0.008461 0.829666
vn -2.606155 -5.688317 -0.221375
v 0.029191 0.008464 0.829675
vn -2.778044 -5.607824 -0.463922
v 0.026633 0.009711 0.829676
vn -2.696484 -1.662311 1.315132
v -0.089342 0.067767 0.829688
vn -2.378474 -5.466188 -1.985444
v 0.046903 0.043863 0.705277
vn -4.098614 -1.237319 -0.500575
v -0.089342 0.067767 0.829687
vn -4.474120 -2.743105 -1.417576
v -0.073152 0.100112 0.715996
vn -2.570573 -5.202541 -2.367324
v 0.044353 0.045108 0.705273
vn -2.428320 -5.264476 -2.367285
v 0.046896 0.043868 0.705272
vn -4.029288 -1.345471 -1.207961
v -0.071624 0.103164 0.705270
vn 2.334883 5.583695 1.667577
v 0.032177 0.308379 0.776632
vn 2.330201 5.589543 1.651739
v 0.032058 0.308443 0.776582
vn 2.324932 5.596264 1.632565
v 0.031948 0.308502 0.776536
vn 2.318665 5.603842 1.610778
v 0.031847 0.308557 0.776494
vn 2.311551 5.612604 1.584154
v 0.031754 0.308606 0.776455
vn 2.303299 5.622345 1.553604
v 0.031670 0.308651 0.776420
vn 2.292475 5.634484 1.513183
v 0.031595 0.308690 0.776388
vn 2.595076 5.627984 0.986167
v 0.041599 0.304353 0.776316
vn 2.278888 5.648617 1.464016
v 0.031529 0.308725 0.776360
vn 2.260837 5.666211 1.395134
v 0.031471 0.308754 0.776336
vn 1.077824 5.613168 2.172757
v 0.013594 0.273431 0.900684
vn 2.606995 5.656847 0.747807
v 0.041580 0.304365 0.776299
vn 2.233345 5.688754 1.294446
v 0.031422 0.308779 0.776316
vn 2.759112 5.583442 0.817169
v 0.044170 0.303100 0.776315
vn -1.501251 -5.856924 -0.918351
v 0.039399 0.004028 0.829666
vn 2.189518 5.715872 1.142506
v 0.031381 0.308798 0.776299
vn 2.617175 5.682993 0.338951
v 0.041565 0.304373 0.776285
vn 2.770116 5.606076 0.576865
v 0.044145 0.303115 0.776298
vn 2.325452 3.534444 -2.520874
v 0.160062 0.245088 0.776267
vn -0.952962 -5.809838 -0.504080
v 0.039406 0.004025 0.829675
vn 2.106760 5.742278 0.876618
v 0.031350 0.308813 0.776285
vn 2.778434 5.623357 0.164707
v 0.044123 0.303126 0.776285
vn 4.465249 -0.290577 -4.324625
v 0.159702 0.244313 0.775858
vn 4.252370 -0.504038 -4.563782
v 0.158039 0.240990 0.774675
vn -2.745404 -5.548916 0.651556
v 0.026632 0.009711 0.829683
vn -2.552620 -5.550649 0.986058
v 0.029183 0.008468 0.829682
vn 2.039141 -5.276329 -1.210784
v 0.055605 0.036371 0.715991
vn 0.434236 -5.035086 0.412909
v 0.039411 0.004024 0.829682
vn 2.597956 5.651412 -0.489590
v 0.041555 0.304378 0.776276
vn 1.894401 5.709062 0.305441
v 0.031327 0.308822 0.776276
vn 2.754514 5.575624 -0.645098
v 0.044106 0.303135 0.776275
vn 4.189020 2.131321 -1.121290
v 0.160075 0.245077 0.776275
vn 2.742862 1.170608 4.024213
v 0.142153 0.209266 0.901623
vn -0.031177 -0.062555 6.282408
v 0.127581 0.211374 0.901623
vn -0.040284 -0.080465 6.281896
v 0.018072 0.266198 0.901623
vn -0.001706 -0.039995 6.282835
v 0.140360 0.205686 0.901623
vn -0.008762 -0.021395 6.283098
v 0.137809 0.206930 0.901623
vn 3.011456 0.403925 -5.369236
v 0.158033 0.240998 0.774670
vn 3.252391 0.656809 -5.102940
v 0.159697 0.244323 0.775854
vn -2.083602 -4.215423 3.402635
v 0.026634 0.009712 0.829687
vn -1.938004 -4.159992 3.527919
v 0.029177 0.008472 0.829686
vn 2.225049 4.902510 -2.626007
v 0.041549 0.304380 0.776270
vn 0.647322 5.928224 1.778812
v 0.015121 0.276482 0.889961
vn 0.825342 4.900944 -1.067261
v 0.031313 0.308827 0.776270
vn 2.362064 4.789110 -2.747774
v 0.044092 0.303140 0.776269
vn 0.960909 2.579136 4.507672
v 0.013405 0.273012 0.901623
vn 2.199619 4.880062 3.228778
v 0.023629 0.268570 0.901622
vn -0.101726 2.799240 4.067425
v 0.013393 0.273018 0.901622
vn 2.360800 5.209267 2.585625
v 0.023830 0.268984 0.900684
vn 2.509864 5.105187 2.664288
v 0.026373 0.267744 0.900683
vn 2.404505 4.896085 3.092947
v 0.026172 0.267331 0.901621
vn 2.576825 4.323201 3.497299
v 0.142144 0.209280 0.901619
vn 3.763124 4.638225 1.855549
v 0.143877 0.212739 0.889960
vn 2.582533 2.397083 3.991425
v 0.142148 0.209275 0.901621
vn 1.181020 2.447793 4.717139
v 0.023633 0.268568 0.901623
vn 0.041319 0.082533 6.281829
v 0.133142 0.213744 0.901623
vn 0.041622 0.082024 6.281829
v 0.139601 0.210510 0.901623
vn 0.319825 0.638839 6.219606
v 0.135693 0.212500 0.901623
vn 1.281859 2.562783 4.616489
v 0.026184 0.267324 0.901623
vn 1.894297 3.784122 4.643041
v 0.135684 0.212511 0.901621
vn -2.626623 0.477158 -3.843430
v -0.071422 0.103577 0.704334
vn -0.669374 -1.337184 -5.951284
v -0.064958 0.100341 0.704334
vn -3.139736 -0.731964 -2.131702
v -0.071424 0.103575 0.704336
vn -2.173683 1.785531 -3.896574
v -0.069629 0.107160 0.704334
vn -0.041788 -0.082362 -6.281818
v -0.068879 0.102338 0.704333
vn -0.041504 -0.082912 -6.281817
v -0.062414 0.099102 0.704333
vn -5.401374 2.826553 -1.122885
v -0.069630 0.107160 0.704336
vn -5.674748 2.695927 -0.035317
v -0.089141 0.068181 0.828748
vn -5.405629 2.085771 1.635774
v -0.088971 0.068528 0.830102
vn -5.632889 2.783393 0.004626
v -0.088770 0.068942 0.829163
vn -5.624877 2.798105 -0.062783
v -0.071055 0.104333 0.704748
vn -1.292941 -2.616122 -4.513623
v 0.044554 0.045521 0.704334
vn -1.187235 -2.577871 -4.487834
v 0.047097 0.044282 0.704333
vn -2.488482 -4.971329 -2.922242
v -0.064957 0.100338 0.704336
vn 0.412303 0.898424 -6.130951
v -0.059393 0.102713 0.704334
vn 0.008522 0.020851 -6.283102
v -0.067085 0.105921 0.704333
vn -2.395759 2.333377 -3.185997
v 0.029272 0.304742 0.774670
vn 0.796746 1.732340 -5.986733
v 0.039513 0.300293 0.774670
vn 0.423045 0.857676 -6.134085
v -0.056849 0.101473 0.704333
vn 0.843093 1.709323 -5.987128
v 0.042048 0.299058 0.774669
vn 0.426566 0.852131 -6.135172
v 0.052662 0.046654 0.704333
vn 0.853121 1.704322 -5.987144
v 0.151560 0.244241 0.774669
vn 1.478995 1.363283 -5.909172
v 0.158028 0.241003 0.774669
vn 1.780043 1.729336 -5.651292
v 0.159693 0.244330 0.775854
vn -1.342839 -2.733436 5.485667
v 0.026638 0.009712 0.829688
vn -1.565543 -3.127550 5.143739
v -0.082875 0.064530 0.829688
vn -1.303741 -2.766090 5.475750
v 0.029172 0.008477 0.829687
vn -1.027045 -2.622326 5.614326
v 0.039413 0.004028 0.829687
vn -5.619510 2.810490 0.018107
v 0.011795 0.269846 0.900686
vn -5.618583 2.812461 0.000006
v 0.013322 0.272897 0.889959
vn -5.618582 2.812465 -0.000036
v 0.029513 0.305242 0.776267
vn -5.618584 2.812460 -0.000059
v 0.027847 0.301915 0.775083
vn -2.912652 4.430124 0.845591
v 0.015116 0.276482 0.889959
vn -2.582545 4.300364 1.184509
v 0.013589 0.273430 0.900686
vn 1.537810 3.349329 -4.946854
v 0.041547 0.304378 0.776267
vn -1.283334 3.075958 -1.549785
v 0.031307 0.308827 0.776267
vn 1.619003 3.302873 -4.962393
v 0.044082 0.303143 0.776267
vn -2.405730 3.063983 2.298597
v 0.013389 0.273019 0.901620
vn 1.751817 3.499682 -4.681283
v 0.153595 0.248325 0.776267
vn -3.991107 1.317244 2.905102
v 0.011594 0.269434 0.901620
vn -1.110090 -2.259733 5.749983
v 0.027007 0.010470 0.830101
vn -1.048851 -2.235115 5.766543
v 0.029542 0.009235 0.830100
vn -2.180642 2.459995 -3.104902
v 0.030938 0.308069 0.775855
vn 0.978068 2.125741 -5.810154
v 0.041178 0.303620 0.775855
vn -5.585271 2.864433 -0.192898
v 0.029642 0.305500 0.775083
vn 1.033547 2.094670 -5.813872
v 0.043713 0.302385 0.775854
vn -5.586582 2.861814 -0.193507
v -0.069260 0.107917 0.704748
vn 1.045065 2.087778 -5.814976
v 0.153225 0.247568 0.775854
# 165 vertices, 0 vertices normals

f 1//1 2//2 3//3
f 1//1 3//3 4//4
f 1//1 4//4 5//5
f 1//1 5//5 2//2
f 2//2 6//6 7//7
f 2//2 7//7 8//8
f 2//2 9//9 10//10
f 2//2 11//11 9//9
f 2//2 8//8 11//11
f 2//2 10//10 3//3
f 2//2 12//12 6//6
f 2//2 13//13 14//14
f 2//2 14//14 15//15
f 2//2 15//15 12//12
f 2//2 5//5 16//16
f 2//2 16//16 13//13
f 6//6 17//17 18//18
f 6//6 19//19 7//7
f 6//6 18//18 20//20
f 6//6 20//20 19//19
f 6//6 12//12 17//17
f 21//21 22//22 23//23
f 21//21 17//17 12//12
f 21//21 23//23 17//17
f 21//21 12//12 22//22
f 22//22 24//24 25//25
f 22//22 26//26 27//27
f 22//22 27//27 24//24
f 22//22 18//18 23//23
f 22//22 28//28 29//29
f 22//22 30//30 31//31
f 22//22 32//32 18//18
f 22//22 33//33 28//28
f 22//22 29//29 26//26
f 22//22 31//31 33//33
f 22//22 12//12 30//30
f 22//22 25//25 32//32
f 17//17 23//23 18//18
f 34//34 35//35 36//36
f 34//34 37//37 35//35
f 34//34 38//38 37//37
f 34//34 39//39 38//38
f 34//34 40//40 39//39
f 34//34 36//36 41//41
f 34//34 41//41 42//42
f 34//34 42//42 43//43
f 34//34 44//44 40//40
f 34//34 45//45 44//44
f 34//34 43//43 45//45
f 46//46 47//47 48//48
f 46//46 48//48 49//49
f 46//46 50//50 51//51
f 46//46 49//49 50//50
f 46//46 52//52 30//30
f 46//46 30//30 47//47
f 46//46 53//53 54//54
f 46//46 55//55 56//56
f 46//46 56//56 52//52
f 46//46 57//57 55//55
f 46//46 51//51 53//53
f 46//46 54//54 57//57
f 35//35 37//37 36//36
f 37//37 58//58 36//36
f 37//37 38//38 58//58
f 58//58 59//59 36//36
f 58//58 38//38 59//59
f 59//59 60//60 36//36
f 59//59 38//38 60//60
f 60//60 61//61 36//36
f 60//60 38//38 39//39
f 60//60 39//39 61//61
f 61//61 62//62 36//36
f 61//61 39//39 62//62
f 62//62 63//63 36//36
f 62//62 39//39 63//63
f 63//63 64//64 36//36
f 63//63 39//39 65//65
f 63//63 65//65 64//64
f 64//64 66//66 36//36
f 64//64 65//65 66//66
f 66//66 67//67 68//68
f 66//66 65//65 69//69
f 66//66 69//69 67//67
f 66//66 68//68 36//36
f 67//67 70//70 68//68
f 67//67 69//69 70//70
f 39//39 40//40 71//71
f 39//39 71//71 65//65
f 40//40 44//44 71//71
f 47//47 72//72 49//49
f 47//47 49//49 48//48
f 47//47 30//30 72//72
f 70//70 73//73 68//68
f 70//70 69//69 74//74
f 70//70 74//74 73//73
f 65//65 71//71 75//75
f 65//65 75//75 69//69
f 71//71 44//44 76//76
f 71//71 76//76 75//75
f 72//72 77//77 49//49
f 72//72 30//30 77//77
f 73//73 78//78 68//68
f 73//73 74//74 78//78
f 69//69 75//75 79//79
f 69//69 79//79 74//74
f 75//75 76//76 79//79
f 24//24 27//27 25//25
f 7//7 19//19 8//8
f 19//19 20//20 8//8
f 26//26 80//80 27//27
f 26//26 81//81 80//80
f 26//26 29//29 81//81
f 50//50 49//49 82//82
f 50//50 82//82 51//51
f 49//49 77//77 83//83
f 49//49 83//83 82//82
f 77//77 30//30 84//84
f 77//77 85//85 83//83
f 77//77 84//84 85//85
f 78//78 74//74 86//86
f 78//78 87//87 68//68
f 78//78 86//86 87//87
f 74//74 79//79 88//88
f 74//74 88//88 86//86
f 79//79 76//76 88//88
f 27//27 80//80 89//89
f 27//27 89//89 25//25
f 18//18 32//32 90//90
f 18//18 90//90 20//20
f 9//9 11//11 91//91
f 9//9 92//92 10//10
f 9//9 91//91 92//92
f 11//11 8//8 91//91
f 8//8 20//20 93//93
f 8//8 94//94 91//91
f 8//8 93//93 94//94
f 20//20 90//90 93//93
f 80//80 81//81 95//95
f 80//80 96//96 44//44
f 80//80 95//95 96//96
f 80//80 44//44 89//89
f 81//81 29//29 95//95
f 28//28 33//33 29//29
f 82//82 83//83 97//97
f 82//82 97//97 51//51
f 52//52 56//56 30//30
f 30//30 56//56 31//31
f 30//30 12//12 84//84
f 83//83 85//85 98//98
f 83//83 98//98 97//97
f 85//85 84//84 12//12
f 85//85 12//12 98//98
f 87//87 86//86 99//99
f 87//87 100//100 68//68
f 87//87 101//101 100//100
f 87//87 99//99 101//101
f 86//86 88//88 102//102
f 86//86 102//102 99//99
f 36//36 103//103 104//104
f 36//36 68//68 105//105
f 36//36 106//106 41//41
f 36//36 105//105 103//103
f 36//36 104//104 106//106
f 41//41 106//106 107//107
f 41//41 107//107 42//42
f 88//88 76//76 102//102
f 42//42 107//107 108//108
f 42//42 108//108 109//109
f 42//42 109//109 43//43
f 89//89 110//110 25//25
f 89//89 44//44 110//110
f 32//32 25//25 111//111
f 32//32 111//111 90//90
f 10//10 92//92 103//103
f 10//10 103//103 105//105
f 10//10 105//105 3//3
f 92//92 91//91 112//112
f 92//92 112//112 103//103
f 91//91 94//94 113//113
f 91//91 113//113 112//112
f 94//94 114//114 113//113
f 94//94 93//93 114//114
f 103//103 112//112 104//104
f 112//112 113//113 115//115
f 112//112 116//116 108//108
f 112//112 115//115 116//116
f 112//112 108//108 104//104
f 113//113 114//114 115//115
f 114//114 93//93 90//90
f 114//114 90//90 115//115
f 116//116 115//115 111//111
f 116//116 117//117 109//109
f 116//116 111//111 117//117
f 116//116 109//109 108//108
f 115//115 90//90 111//111
f 118//118 119//119 120//120
f 118//118 121//121 122//122
f 118//118 122//122 123//123
f 118//118 123//123 119//119
f 118//118 120//120 124//124
f 118//118 124//124 121//121
f 125//125 53//53 126//126
f 125//125 127//127 128//128
f 125//125 126//126 127//127
f 125//125 120//120 53//53
f 125//125 128//128 120//120
f 119//119 129//129 120//120
f 119//119 123//123 130//130
f 119//119 130//130 129//129
f 129//129 130//130 56//56
f 129//129 55//55 131//131
f 129//129 56//56 55//55
f 129//129 131//131 120//120
f 121//121 132//132 133//133
f 121//121 133//133 122//122
f 121//121 134//134 135//135
f 121//121 135//135 132//132
f 121//121 124//124 134//134
f 132//132 136//136 133//133
f 132//132 135//135 137//137
f 132//132 137//137 136//136
f 122//122 133//133 123//123
f 123//123 133//133 136//136
f 123//123 136//136 130//130
f 130//130 33//33 31//31
f 130//130 136//136 138//138
f 130//130 138//138 33//33
f 130//130 31//31 56//56
f 33//33 138//138 29//29
f 136//136 137//137 139//139
f 136//136 139//139 140//140
f 136//136 140//140 138//138
f 138//138 140//140 29//29
f 96//96 95//95 141//141
f 96//96 141//141 76//76
f 96//96 76//76 44//44
f 95//95 29//29 140//140
f 95//95 140//140 141//141
f 53//53 120//120 57//57
f 53//53 57//57 54//54
f 53//53 51//51 126//126
f 55//55 120//120 131//131
f 55//55 57//57 120//120
f 97//97 98//98 142//142
f 97//97 143//143 51//51
f 97//97 142//142 143//143
f 98//98 12//12 144//144
f 98//98 144//144 142//142
f 12//12 15//15 145//145
f 12//12 145//145 144//144
f 127//127 126//126 146//146
f 127//127 147//147 148//148
f 127//127 148//148 149//149
f 127//127 146//146 147//147
f 127//127 149//149 128//128
f 100//100 101//101 150//150
f 100//100 150//150 151//151
f 100//100 151//151 68//68
f 101//101 99//99 152//152
f 101//101 153//153 150//150
f 101//101 152//152 153//153
f 99//99 102//102 154//154
f 99//99 154//154 152//152
f 68//68 151//151 155//155
f 68//68 155//155 105//105
f 106//106 104//104 108//108
f 106//106 108//108 107//107
f 102//102 156//156 154//154
f 102//102 76//76 156//156
f 110//110 44//44 43//43
f 110//110 43//43 25//25
f 44//44 45//45 43//43
f 25//25 43//43 109//109
f 25//25 109//109 111//111
f 3//3 105//105 155//155
f 3//3 157//157 4//4
f 3//3 155//155 157//157
f 126//126 51//51 5//5
f 126//126 157//157 146//146
f 126//126 4//4 157//157
f 126//126 5//5 4//4
f 13//13 16//16 158//158
f 13//13 158//158 14//14
f 14//14 158//158 159//159
f 14//14 159//159 15//15
f 15//15 144//144 145//145
f 15//15 159//159 144//144
f 117//117 111//111 109//109
f 120//120 128//128 124//124
f 160//160 161//161 135//135
f 160//160 134//134 162//162
f 160//160 135//135 134//134
f 160//160 153//153 152//152
f 160//160 152//152 161//161
f 160//160 162//162 153//153
f 161//161 163//163 137//137
f 161//161 137//137 135//135
f 161//161 152//152 163//163
f 134//134 124//124 162//162
f 124//124 128//128 164//164
f 124//124 164//164 162//162
f 163//163 165//165 139//139
f 163//163 139//139 137//137
f 163//163 152//152 154//154
f 163//163 154//154 156//156
f 163//163 156//156 165//165
f 165//165 141//141 139//139
f 165//165 156//156 76//76
f 165//165 76//76 141//141
f 139//139 141//141 140//140
f 51//51 143//143 16//16
f 51//51 16//16 5//5
f 143//143 142//142 16//16
f 142//142 144//144 158//158
f 142//142 158//158 16//16
f 144//144 159//159 158//158
f 147//147 146//146 150//150
f 147//147 150//150 153//153
f 147//147 153//153 148//148
f 148//148 153//153 149//149
f 146//146 151//151 150//150
f 146//146 157//157 155//155
f 146//146 155//155 151//151
f 149//149 153//153 162//162
f 149//149 162//162 128//128
f 128//128 162//162 164//164
# 326 faces, 0 coords texture

# End of File
