####
#
# OBJ File Generated by Meshlab
#
####
# Object matlab_mesh_step2_link4.obj
#
# Vertices: 191
# Faces: 378
#
####
vn -3.616534 -5.043847 0.488872
v 0.235357 0.088141 1.025799
vn -3.271418 -5.245696 1.109756
v 0.239561 0.086690 1.031337
vn -3.521535 -5.071451 1.139884
v 0.235350 0.088148 1.025811
vn -4.360356 -4.080603 0.054142
v 0.224558 0.096822 1.030280
vn -3.593978 -4.930808 -0.306663
v 0.316210 0.025301 0.947939
vn -3.249787 -5.186545 1.355998
v 0.301082 0.065466 1.112368
vn -3.030968 -5.322032 1.347765
v 0.307106 0.061885 1.112368
vn -2.462050 -5.238547 2.220990
v 0.307116 0.061886 1.112388
vn -3.585101 -4.825716 1.732071
v 0.290282 0.074147 1.116848
vn -3.121356 -5.037945 2.018464
v 0.301082 0.065473 1.112388
vn -3.169290 -5.330449 1.010114
v 0.320421 0.023848 0.953485
vn -3.169078 -5.330484 1.010594
v 0.381942 0.002625 1.034515
vn -2.376892 -5.605534 1.148111
v 0.387976 -0.000962 1.034515
vn -2.599844 -5.453961 1.702065
v 0.311032 0.058842 1.108617
vn -3.582895 -4.959910 1.421093
v 0.228762 0.095371 1.035817
vn -4.697407 -3.118188 1.156424
v 0.224552 0.096830 1.030292
vn -4.254074 -4.503808 -0.782654
v 0.228467 0.093783 1.026515
vn -4.068080 -4.767576 -0.400094
v 0.305411 0.033982 0.952419
vn -4.979733 -2.762642 -1.829848
v 0.222747 0.105614 1.008930
vn -4.341950 -4.212267 -1.640065
v 0.303616 0.042753 0.931058
vn -3.876770 -3.545071 2.773734
v 0.290284 0.074154 1.116868
vn -4.445455 -3.476041 2.464736
v 0.228762 0.095377 1.035838
vn -4.230989 -4.493465 -0.998520
v 0.305413 0.033982 0.952412
vn -4.131103 -4.408024 -1.697279
v 0.314392 0.034089 0.926587
vn -3.408180 -5.047163 -1.220511
v 0.318352 0.024217 0.945654
vn -2.996511 -5.451043 0.291380
v 0.322244 0.021714 0.947939
vn -3.914066 -4.477651 -1.919309
v 0.316538 0.033003 0.924299
vn -1.895262 -5.580317 -1.003142
v 0.324386 0.020630 0.945654
vn -3.569172 -4.306789 -2.528375
v 0.316544 0.033002 0.924290
vn -2.475531 -5.238978 -2.254690
v 0.322585 0.029411 0.924290
vn -2.832442 -5.541896 0.698995
v 0.326455 0.020261 0.953485
vn -0.021138 -4.737682 2.918452
v 0.387983 -0.000961 1.034526
vn -2.848899 -4.849262 2.782884
v 0.296318 0.070567 1.116868
vn -0.567150 -4.195901 3.778253
v 0.307120 0.061892 1.112403
vn -0.006268 -4.595265 3.702252
v 0.311040 0.058844 1.108627
vn -1.404162 -5.938912 -0.489394
v 0.328597 0.019178 0.951201
vn -0.970767 -5.872509 -1.805864
v 0.337479 0.024588 0.924932
vn -2.003414 -5.067154 -2.822830
v 0.335693 0.033373 0.903542
vn -0.266151 -6.119039 -1.400584
v 0.341690 0.023135 0.930478
vn -0.046590 -5.744137 -2.137792
v 0.337498 0.024592 0.924908
vn -1.078832 -5.922894 -0.084899
v 0.390118 -0.002045 1.032231
vn 1.172725 -4.791011 1.459623
v 0.390128 -0.002046 1.032239
vn 0.034242 -6.146874 -1.231184
v 0.403211 0.001912 1.011509
vn 0.562167 -5.878863 -1.966517
v 0.341714 0.023138 0.930461
vn 2.130184 -5.095284 -0.280237
v 0.403235 0.001916 1.011491
vn -5.693742 -2.314559 0.605891
v 0.213601 0.123143 1.030292
vn -5.364340 -1.284387 1.670941
v 0.213587 0.123179 1.030296
vn -5.357716 -1.518496 -2.054300
v 0.211782 0.131959 1.008930
vn -5.016197 -2.221606 3.048153
v 0.224552 0.096834 1.030296
vn -1.663362 -3.248129 4.457747
v 0.296331 0.070566 1.116879
vn -3.399397 -0.972741 4.520020
v 0.279325 0.100502 1.116879
vn -5.006032 -1.199653 3.486592
v 0.217803 0.121724 1.035849
vn -2.563345 -2.320673 4.242228
v 0.290290 0.074158 1.116879
vn -1.386122 -0.552678 6.101383
v 0.295087 0.117196 1.122423
vn -1.015078 -0.857820 6.113407
v 0.306038 0.090883 1.122423
vn -1.113672 0.535665 5.871611
v 0.295079 0.117236 1.122425
vn -0.558603 -1.298446 6.111838
v 0.312072 0.087296 1.122423
vn 0.776387 -0.854358 5.879128
v 0.312086 0.087299 1.122425
vn -0.989443 -1.212236 6.075211
v 0.290300 0.074162 1.116882
vn -0.517783 -0.421615 6.206542
v 0.306045 0.090891 1.122425
vn -0.402045 -2.347046 5.665239
v 0.296346 0.070567 1.116882
vn 2.026015 -3.818525 4.505505
v 0.387987 -0.000953 1.034531
vn 0.637321 -3.212702 5.140944
v 0.307122 0.061903 1.112411
vn 1.866337 -3.570130 4.819326
v 0.311045 0.058854 1.108633
vn 0.411963 -3.012743 -3.622862
v 0.335702 0.033375 0.903533
vn 4.682914 -3.489769 1.699383
v 0.418990 0.018649 1.017037
vn 3.762576 -3.065603 3.234643
v 0.405882 0.014687 1.037785
vn 3.273982 -4.554514 -0.850703
v 0.403251 0.001927 1.011477
vn 2.599206 -4.363436 -3.116220
v 0.339921 0.031919 0.909091
vn 2.987135 -4.253791 -2.644505
v 0.401443 0.010698 0.990121
vn 3.041546 -4.136185 3.466870
v 0.390133 -0.002039 1.032243
vn -3.331509 -3.977683 -3.308042
v 0.329652 0.036964 0.903542
vn -4.248102 -2.478970 -3.737423
v 0.318863 0.045639 0.908018
vn -2.127233 -2.223628 -4.701076
v 0.329656 0.036969 0.903533
vn -4.434160 -3.209278 -2.811707
v 0.305755 0.041677 0.928766
vn 4.722943 2.371889 3.392334
v 0.434871 0.293715 1.062198
vn 3.999585 1.850029 4.282949
v 0.421763 0.289753 1.082947
vn 4.798602 2.084229 3.477320
v 0.423908 0.288668 1.080660
vn 4.828064 2.246627 3.323416
v 0.437015 0.292630 1.059911
vn 4.389261 3.368222 2.721401
v 0.434868 0.293747 1.062179
vn 4.037736 2.608095 3.875220
v 0.421750 0.289781 1.082944
vn 3.603494 0.469973 4.575327
v 0.432728 0.263408 1.082947
vn 1.998022 1.499996 5.427969
v 0.410974 0.298427 1.087423
vn 2.259808 0.665011 5.666945
v 0.421939 0.272083 1.087423
vn 2.691873 3.233759 4.039268
v 0.410975 0.298445 1.087415
vn 4.811410 1.740845 3.630523
v 0.434873 0.262323 1.080660
vn 2.057958 -1.798960 5.221556
v 0.322875 0.078625 1.117949
vn 2.848150 -2.376114 4.875093
v 0.326795 0.075578 1.114173
vn 4.834579 1.845646 3.530373
v 0.509671 0.203602 1.008845
vn 3.587111 1.964065 2.139512
v 0.436648 0.260361 1.079171
vn 4.861028 2.006628 3.438218
v 0.447980 0.266286 1.059911
vn 4.864961 2.003394 3.434564
v 0.524923 0.206480 0.985810
vn 4.877061 2.240180 3.256031
v 0.513958 0.232825 0.985810
vn 4.554416 3.372291 2.315825
v 0.437014 0.292661 1.059890
vn 4.825226 1.714169 3.626774
v 0.511815 0.202518 1.006558
vn 4.301761 -0.066969 4.266113
v 0.513591 0.200555 1.005070
vn 5.049548 -0.359921 2.504836
v 0.528844 0.203433 0.982035
vn 5.007855 2.209630 3.047650
v 0.517878 0.229777 0.982035
vn 4.658327 -0.389426 3.393675
v 0.515736 0.199471 1.002783
vn 3.018384 -2.557912 4.597174
v 0.403738 0.015772 1.040072
vn 4.901619 -0.521221 0.510227
v 0.528854 0.203439 0.982010
vn 4.700918 3.339614 2.185729
v 0.513956 0.232854 0.985789
vn 5.037428 2.904274 1.643446
v 0.517879 0.229805 0.982010
vn 4.859580 -3.454588 -0.141399
v 0.419000 0.018657 1.017015
vn -4.986038 1.016377 2.052581
v 0.213584 0.123205 1.030294
vn -4.939808 0.900496 -0.587567
v 0.211776 0.131976 1.008938
vn -3.270687 0.570631 4.579187
v 0.279326 0.100528 1.116882
vn -4.609441 1.158482 3.803104
v 0.217804 0.121749 1.035852
vn -4.954420 -1.217494 -3.573571
v 0.224890 0.135921 0.988182
vn -4.698262 0.868909 -3.535730
v 0.224894 0.135941 0.988172
vn -4.750571 -1.188756 -3.925972
v 0.227035 0.134837 0.985895
vn -4.825242 -1.714217 -3.626736
v 0.228810 0.132874 0.984406
vn -4.864940 -2.003411 -3.434585
v 0.215703 0.128912 1.005154
vn -4.267542 0.294804 -4.378535
v 0.227040 0.134856 0.985884
vn -4.718879 -3.037980 -2.447928
v 0.226668 0.102567 1.005154
vn -4.043340 -3.209066 -1.608404
v 0.303977 0.075031 0.911793
vn -2.006697 1.886543 -3.606229
v 0.230955 0.131789 0.982119
vn -4.196847 0.170285 -4.495162
v 0.303982 0.075049 0.911783
vn -3.502770 -0.276357 -4.790393
v 0.307905 0.071999 0.908004
vn -4.567282 -1.653032 -3.933686
v 0.307898 0.071984 0.908018
vn -4.811415 -1.740863 -3.630509
v 0.305753 0.073068 0.910305
vn -4.861029 -2.006626 -3.438218
v 0.292645 0.069106 0.931053
vn -4.614639 -3.113179 -2.512185
v 0.303611 0.042761 0.931053
vn -4.798601 -2.084226 -3.477324
v 0.316718 0.046724 0.910305
vn -4.222676 -4.184406 -2.031309
v 0.305762 0.041668 0.928769
vn -3.702970 -2.135014 -4.440521
v 0.318880 0.045633 0.908004
vn 0.090576 1.866481 5.753534
v 0.404933 0.302019 1.087423
vn 0.533283 0.385260 6.209126
v 0.301121 0.113644 1.122425
vn -0.334533 3.380046 3.390648
v 0.404929 0.302040 1.087415
vn -2.377642 1.915881 4.927865
v 0.295075 0.117258 1.122419
vn -0.714076 0.782359 -5.902941
v 0.428535 0.248117 0.868529
vn -0.533308 -0.385293 -6.209118
v 0.439510 0.221751 0.868529
vn -2.259870 -0.665099 -5.666904
v 0.318681 0.063335 0.903533
vn -2.181686 1.784675 -5.213132
v 0.417759 0.256781 0.872999
vn 0.685111 0.561717 -6.146944
v 0.434581 0.244523 0.868529
vn 1.784953 3.140381 -4.303423
v 0.444284 0.264847 0.874066
vn -0.863495 2.375924 -5.724821
v 0.417776 0.256784 0.872998
vn -0.509947 2.128283 -5.876710
v 0.428532 0.248137 0.868536
vn 1.044654 3.070929 -4.833217
v 0.444268 0.264855 0.874067
vn 1.879744 -1.344684 -4.956271
v 0.445556 0.218157 0.868529
vn 4.552461 -1.575248 -3.869014
v 0.507078 0.196935 0.949558
vn 3.392109 0.000646 -4.185763
v 0.461305 0.234887 0.874066
vn 4.248343 -3.002317 -3.471737
v 0.511297 0.195480 0.955116
vn 4.576517 -0.291949 -3.551186
v 0.522827 0.213665 0.955096
vn 2.561486 2.562784 -3.569680
v 0.450330 0.261253 0.874066
vn 3.475613 -3.702891 -3.608631
v 0.449775 0.216701 0.874086
vn 4.678625 -0.176513 -1.660181
v 0.527046 0.212210 0.960654
vn 4.694039 -3.385707 -2.336137
v 0.417192 0.027428 0.995658
vn 4.123360 4.410155 1.712414
v 0.426238 0.301325 1.064361
vn 3.613980 4.298685 2.445322
v 0.424092 0.302411 1.066649
vn 4.254169 4.504122 0.781969
v 0.512148 0.241625 0.964432
vn 4.194734 4.533495 0.875119
v 0.435206 0.301432 1.038533
vn 4.274074 4.352020 1.495040
v 0.437001 0.292680 1.059873
vn 4.469504 3.192666 -0.925329
v 0.516071 0.238576 0.960654
vn 0.976204 4.523845 -2.933020
v 0.433508 0.273511 0.878537
vn 3.130777 5.098592 -1.738605
v 0.439554 0.269917 0.878537
vn 3.593981 4.931041 0.305836
v 0.424430 0.310097 1.043004
vn 3.631759 5.017773 -0.550953
v 0.505296 0.247240 0.965124
vn 3.581659 5.087533 -0.387176
v 0.501372 0.250290 0.968903
vn 4.236983 3.556841 -2.285403
v 0.511852 0.240031 0.955096
vn 3.335141 5.186807 -1.173786
v 0.501076 0.248695 0.959567
vn -4.694029 3.385708 2.336148
v 0.323438 0.307987 0.995290
vn -4.248344 3.002326 3.471731
v 0.229333 0.139935 1.035832
vn -4.637432 3.299061 -0.483592
v 0.321630 0.316758 0.973933
vn -2.986916 4.253888 2.644399
v 0.339187 0.324716 1.000827
vn -3.168499 3.875820 3.420744
v 0.233553 0.138479 1.041390
vn -3.763075 3.065242 -3.234759
v 0.334748 0.320723 0.953168
vn -2.382478 4.650913 0.616846
v 0.337379 0.333488 0.979471
vn -3.018958 2.557387 -4.597343
v 0.336894 0.319638 0.950879
vn -0.790988 4.579253 -1.290891
v 0.350497 0.337453 0.958705
vn -2.848738 2.375543 -4.875251
v 0.413836 0.259831 0.876778
vn 0.270527 4.555592 -2.461594
v 0.352643 0.336368 0.956417
vn -1.689836 3.882086 -4.576836
v 0.352646 0.336361 0.956410
vn -1.712673 3.701406 -4.765755
v 0.429587 0.276553 0.882309
vn 0.136501 3.606479 -4.528312
v 0.433512 0.273502 0.878529
vn -2.598990 4.363521 3.116117
v 0.400709 0.303495 1.081857
vn -3.316553 3.862093 3.529560
v 0.290855 0.118713 1.116862
vn 0.230626 5.702563 2.109918
v 0.403121 0.310811 1.066058
vn -0.467905 5.891574 1.898257
v 0.398901 0.312266 1.060501
vn 2.474636 5.239623 2.253352
v 0.418046 0.306005 1.066649
vn 3.408153 5.047750 1.219240
v 0.422284 0.311182 1.045292
vn 1.895054 5.580652 1.002446
v 0.416238 0.314776 1.045292
vn 4.136319 4.479104 1.515691
v 0.426245 0.301328 1.064335
vn 1.404137 5.938900 0.489300
v 0.412019 0.316232 1.039735
vn 2.832492 5.541846 -0.699174
v 0.414165 0.315146 1.037446
vn 2.996574 5.450997 -0.291550
v 0.418384 0.313691 1.043004
vn 3.169377 5.330356 -1.010333
v 0.420211 0.311552 1.037446
vn 3.169141 5.330392 -1.010882
v 0.358689 0.332773 0.956417
vn 1.082313 4.802890 -2.752599
v 0.429585 0.276561 0.882316
vn 3.169296 5.330236 -1.011219
v 0.435631 0.272966 0.882316
vn 3.169718 5.330090 -1.010666
v 0.497153 0.251745 0.963345
# 191 vertices, 0 vertices normals

f 1//1 2//2 3//3
f 1//1 4//4 5//5
f 1//1 3//3 4//4
f 1//1 5//5 2//2
f 6//6 2//2 5//5
f 6//6 7//7 8//8
f 6//6 9//9 3//3
f 6//6 3//3 2//2
f 6//6 10//10 9//9
f 6//6 5//5 11//11
f 6//6 12//12 13//13
f 6//6 11//11 12//12
f 6//6 8//8 10//10
f 6//6 13//13 7//7
f 7//7 14//14 8//8
f 7//7 13//13 14//14
f 4//4 15//15 16//16
f 4//4 17//17 18//18
f 4//4 3//3 15//15
f 4//4 16//16 19//19
f 4//4 18//18 5//5
f 4//4 19//19 20//20
f 4//4 20//20 17//17
f 9//9 15//15 3//3
f 9//9 10//10 21//21
f 9//9 16//16 15//15
f 9//9 21//21 22//22
f 9//9 22//22 16//16
f 17//17 23//23 18//18
f 17//17 20//20 23//23
f 23//23 5//5 18//18
f 23//23 24//24 5//5
f 23//23 20//20 24//24
f 10//10 8//8 21//21
f 5//5 25//25 26//26
f 5//5 26//26 11//11
f 5//5 24//24 27//27
f 5//5 27//27 25//25
f 25//25 28//28 26//26
f 25//25 29//29 30//30
f 25//25 30//30 28//28
f 25//25 27//27 29//29
f 12//12 11//11 31//31
f 12//12 31//31 13//13
f 11//11 26//26 31//31
f 8//8 14//14 32//32
f 8//8 33//33 21//21
f 8//8 34//34 33//33
f 8//8 35//35 34//34
f 8//8 32//32 35//35
f 26//26 28//28 36//36
f 26//26 36//36 31//31
f 37//37 28//28 38//38
f 37//37 39//39 28//28
f 37//37 40//40 39//39
f 37//37 38//38 40//40
f 28//28 39//39 36//36
f 28//28 30//30 38//38
f 14//14 13//13 32//32
f 13//13 41//41 42//42
f 13//13 31//31 41//41
f 13//13 42//42 32//32
f 43//43 41//41 36//36
f 43//43 39//39 40//40
f 43//43 36//36 39//39
f 43//43 40//40 44//44
f 43//43 45//45 42//42
f 43//43 42//42 41//41
f 43//43 44//44 45//45
f 41//41 31//31 36//36
f 46//46 16//16 47//47
f 46//46 47//47 48//48
f 46//46 48//48 16//16
f 16//16 22//22 49//49
f 16//16 49//49 47//47
f 16//16 48//48 19//19
f 21//21 33//33 50//50
f 21//21 47//47 49//49
f 21//21 49//49 22//22
f 21//21 51//51 52//52
f 21//21 53//53 51//51
f 21//21 52//52 47//47
f 21//21 50//50 53//53
f 33//33 34//34 50//50
f 54//54 55//55 56//56
f 54//54 51//51 55//55
f 54//54 56//56 51//51
f 55//55 57//57 58//58
f 55//55 51//51 53//53
f 55//55 53//53 59//59
f 55//55 60//60 56//56
f 55//55 58//58 60//60
f 55//55 59//59 61//61
f 55//55 61//61 57//57
f 57//57 61//61 58//58
f 34//34 35//35 62//62
f 34//34 63//63 50//50
f 34//34 64//64 63//63
f 34//34 62//62 64//64
f 40//40 38//38 65//65
f 40//40 65//65 44//44
f 35//35 32//32 62//62
f 32//32 42//42 62//62
f 45//45 44//44 65//65
f 45//45 66//66 67//67
f 45//45 67//67 42//42
f 45//45 68//68 66//66
f 45//45 65//65 69//69
f 45//45 70//70 68//68
f 45//45 69//69 70//70
f 42//42 67//67 71//71
f 42//42 71//71 62//62
f 72//72 29//29 73//73
f 72//72 38//38 29//29
f 72//72 73//73 74//74
f 72//72 74//74 65//65
f 72//72 65//65 38//38
f 29//29 38//38 30//30
f 29//29 75//75 73//73
f 29//29 27//27 75//75
f 76//76 77//77 78//78
f 76//76 79//79 80//80
f 76//76 78//78 79//79
f 76//76 80//80 81//81
f 76//76 81//81 77//77
f 77//77 82//82 78//78
f 77//77 83//83 84//84
f 77//77 84//84 82//82
f 77//77 81//81 85//85
f 77//77 85//85 83//83
f 82//82 86//86 78//78
f 82//82 87//87 88//88
f 82//82 89//89 86//86
f 82//82 90//90 89//89
f 82//82 88//88 90//90
f 82//82 84//84 87//87
f 79//79 91//91 92//92
f 79//79 78//78 86//86
f 79//79 86//86 91//91
f 79//79 93//93 94//94
f 79//79 92//92 93//93
f 79//79 94//94 80//80
f 91//91 86//86 95//95
f 91//91 95//95 92//92
f 86//86 89//89 95//95
f 87//87 84//84 58//58
f 87//87 58//58 63//63
f 87//87 63//63 64//64
f 87//87 64//64 62//62
f 87//87 62//62 88//88
f 89//89 90//90 96//96
f 89//89 96//96 95//95
f 93//93 92//92 97//97
f 93//93 98//98 94//94
f 93//93 97//97 98//98
f 92//92 95//95 97//97
f 95//95 96//96 99//99
f 95//95 99//99 97//97
f 90//90 88//88 100//100
f 90//90 100//100 96//96
f 88//88 62//62 100//100
f 96//96 100//100 67//67
f 96//96 67//67 99//99
f 98//98 97//97 101//101
f 98//98 102//102 94//94
f 98//98 103//103 102//102
f 98//98 101//101 103//103
f 97//97 99//99 67//67
f 97//97 66//66 101//101
f 97//97 67//67 66//66
f 100//100 62//62 67//67
f 66//66 68//68 104//104
f 66//66 104//104 101//101
f 67//67 62//62 71//71
f 47//47 52//52 105//105
f 47//47 105//105 106//106
f 47//47 106//106 48//48
f 51//51 56//56 107//107
f 51//51 105//105 52//52
f 51//51 107//107 108//108
f 51//51 108//108 105//105
f 53//53 50//50 61//61
f 53//53 61//61 59//59
f 50//50 63//63 61//61
f 109//109 48//48 110//110
f 109//109 111//111 112//112
f 109//109 112//112 113//113
f 109//109 113//113 48//48
f 109//109 110//110 114//114
f 109//109 114//114 111//111
f 48//48 113//113 19//19
f 48//48 106//106 110//110
f 19//19 113//113 115//115
f 19//19 115//115 20//20
f 111//111 116//116 117//117
f 111//111 117//117 112//112
f 111//111 114//114 118//118
f 111//111 118//118 119//119
f 111//111 119//119 116//116
f 116//116 120//120 117//117
f 116//116 119//119 120//120
f 112//112 117//117 121//121
f 112//112 121//121 122//122
f 112//112 122//122 113//113
f 113//113 122//122 115//115
f 115//115 122//122 123//123
f 115//115 123//123 20//20
f 117//117 120//120 121//121
f 121//121 124//124 123//123
f 121//121 123//123 122//122
f 121//121 120//120 124//124
f 124//124 120//120 73//73
f 124//124 73//73 75//75
f 124//124 75//75 123//123
f 123//123 75//75 125//125
f 123//123 125//125 20//20
f 120//120 119//119 73//73
f 73//73 119//119 126//126
f 73//73 126//126 74//74
f 75//75 27//27 125//125
f 127//127 56//56 128//128
f 127//127 83//83 129//129
f 127//127 128//128 83//83
f 127//127 129//129 130//130
f 127//127 130//130 56//56
f 56//56 60//60 128//128
f 56//56 130//130 107//107
f 60//60 58//58 128//128
f 83//83 128//128 58//58
f 83//83 58//58 84//84
f 83//83 85//85 129//129
f 58//58 61//61 63//63
f 68//68 70//70 104//104
f 131//131 132//132 133//133
f 131//131 133//133 134//134
f 131//131 135//135 132//132
f 131//131 136//136 135//135
f 131//131 134//134 137//137
f 131//131 138//138 139//139
f 131//131 139//139 136//136
f 131//131 137//137 138//138
f 132//132 74//74 133//133
f 132//132 135//135 140//140
f 132//132 140//140 65//65
f 132//132 65//65 74//74
f 24//24 20//20 125//125
f 24//24 125//125 27//27
f 133//133 74//74 119//119
f 133//133 119//119 134//134
f 74//74 126//126 119//119
f 141//141 140//140 142//142
f 141//141 143//143 140//140
f 141//141 144//144 143//143
f 141//141 142//142 144//144
f 135//135 136//136 145//145
f 135//135 145//145 142//142
f 135//135 142//142 140//140
f 140//140 143//143 146//146
f 140//140 146//146 69//69
f 140//140 69//69 65//65
f 143//143 70//70 69//69
f 143//143 69//69 146//146
f 143//143 144//144 147//147
f 143//143 147//147 148//148
f 143//143 148//148 70//70
f 70//70 148//148 104//104
f 80//80 94//94 149//149
f 80//80 150//150 81//81
f 80//80 149//149 150//150
f 81//81 150//150 85//85
f 94//94 102//102 151//151
f 94//94 152//152 153//153
f 94//94 151//151 152//152
f 94//94 153//153 149//149
f 102//102 103//103 151//151
f 103//103 101//101 147//147
f 103//103 154//154 151//151
f 103//103 147//147 154//154
f 101//101 104//104 147//147
f 104//104 148//148 147//147
f 136//136 155//155 156//156
f 136//136 156//156 145//145
f 136//136 139//139 155//155
f 152//152 151//151 157//157
f 152//152 157//157 153//153
f 151//151 154//154 158//158
f 151//151 159//159 157//157
f 151//151 158//158 159//159
f 160//160 144//144 142//142
f 160//160 145//145 156//156
f 160//160 142//142 145//145
f 160//160 154//154 147//147
f 160//160 147//147 144//144
f 160//160 161//161 158//158
f 160//160 156//156 161//161
f 160//160 158//158 154//154
f 162//162 105//105 163//163
f 162//162 164//164 105//105
f 162//162 165//165 164//164
f 162//162 163//163 165//165
f 105//105 108//108 163//163
f 105//105 164//164 106//106
f 107//107 130//130 166//166
f 107//107 166//166 108//108
f 108//108 166//166 163//163
f 167//167 164//164 168//168
f 167//167 169//169 110//110
f 167//167 110//110 106//106
f 167//167 106//106 164//164
f 167//167 170//170 169//169
f 167//167 168//168 170//170
f 164//164 165//165 168//168
f 169//169 114//114 110//110
f 169//169 171//171 118//118
f 169//169 118//118 114//114
f 169//169 170//170 172//172
f 169//169 172//172 173//173
f 169//169 173//173 171//171
f 171//171 134//134 119//119
f 171//171 119//119 118//118
f 171//171 173//173 134//134
f 134//134 173//173 174//174
f 134//134 174//174 175//175
f 134//134 175//175 137//137
f 176//176 177//177 130//130
f 176//176 165//165 177//177
f 176//176 129//129 178//178
f 176//176 130//130 129//129
f 176//176 179//179 165//165
f 176//176 178//178 179//179
f 177//177 165//165 163//163
f 177//177 163//163 166//166
f 177//177 166//166 130//130
f 165//165 179//179 168//168
f 180//180 129//129 85//85
f 180//180 150//150 181//181
f 180//180 85//85 150//150
f 180//180 182//182 178//178
f 180//180 178//178 129//129
f 180//180 181//181 182//182
f 150//150 149//149 181//181
f 149//149 157//157 181//181
f 149//149 153//153 183//183
f 149//149 183//183 157//157
f 184//184 179//179 182//182
f 184//184 185//185 170//170
f 184//184 170//170 168//168
f 184//184 168//168 179//179
f 184//184 182//182 186//186
f 184//184 186//186 185//185
f 179//179 178//178 182//182
f 185//185 172//172 170//170
f 185//185 186//186 187//187
f 185//185 187//187 188//188
f 185//185 188//188 172//172
f 172//172 189//189 173//173
f 172//172 188//188 189//189
f 189//189 155//155 173//173
f 189//189 188//188 190//190
f 189//189 190//190 155//155
f 182//182 181//181 186//186
f 186//186 181//181 157//157
f 186//186 157//157 187//187
f 155//155 190//190 156//156
f 155//155 139//139 175//175
f 155//155 174//174 173//173
f 155//155 175//175 174//174
f 187//187 191//191 190//190
f 187//187 190//190 188//188
f 187//187 157//157 159//159
f 187//187 159//159 191//191
f 191//191 159//159 161//161
f 191//191 161//161 156//156
f 191//191 156//156 190//190
f 157//157 183//183 153//153
f 159//159 158//158 161//161
f 138//138 137//137 139//139
f 139//139 137//137 175//175
# 378 faces, 0 coords texture

# End of File
