####
#
# OBJ File Generated by Meshlab
#
####
# Object matlab_mesh_step20_link4.obj
#
# Vertices: 186
# Faces: 368
#
####
vn 2.797154 0.357161 4.425534
v 0.202053 0.553091 0.992214
vn 2.813146 -2.919287 4.788421
v 0.112254 0.360714 0.942705
vn 3.721258 -2.753263 4.050925
v 0.191313 0.356635 0.893031
vn 3.921343 -1.189868 4.583856
v 0.203078 0.552987 0.991312
vn 4.527792 0.847599 3.947410
v 0.252855 0.558380 0.947348
vn 2.343421 0.891701 4.790611
v 0.154817 0.570727 1.012884
vn 0.535243 -2.227146 5.619335
v 0.093104 0.369032 0.958614
vn 2.425213 -2.761378 5.056152
v 0.093152 0.369004 0.958582
vn 2.929799 -2.628537 4.897498
v 0.096418 0.368499 0.956358
vn 1.942046 -2.612483 5.339259
v 0.093128 0.369021 0.958601
vn 4.288161 1.651854 3.994362
v 0.252830 0.558406 0.947368
vn 3.746404 3.028587 3.773335
v 0.252811 0.558429 0.947374
vn 3.239795 3.599164 3.982556
v 0.249528 0.558937 0.949608
vn 2.385813 -3.386106 4.676983
v 0.089045 0.353011 0.950873
vn 2.584408 -3.462638 4.548754
v 0.092310 0.352506 0.948648
vn 2.306993 -4.261046 1.844603
v 0.187207 0.340602 0.885300
vn 5.070999 0.288171 -0.751163
v 0.278204 0.536629 0.918756
vn 4.535071 -0.381599 1.929398
v 0.278057 0.536271 0.920270
vn 5.326147 -3.102480 0.507024
v 0.195073 0.346193 0.869499
vn 5.488635 2.777957 0.021840
v 0.262620 0.569412 0.905616
vn 5.178420 2.542478 2.108526
v 0.260802 0.563878 0.931513
vn 5.238469 2.581754 -0.724698
v 0.262587 0.569476 0.905576
vn 2.633304 -4.113305 -1.282622
v 0.196897 0.351750 0.843487
vn 3.035874 -3.571416 -1.807885
v 0.196903 0.351766 0.843451
vn 5.255203 1.443870 -2.797168
v 0.201426 0.615144 0.805413
vn 3.799097 -2.810298 -3.048506
v 0.196898 0.351782 0.843426
vn 1.494374 -2.337262 -3.317737
v 0.135797 0.397357 0.743284
vn 4.674444 0.196443 -4.036114
v 0.197297 0.599127 0.797647
vn 3.925659 -1.675123 4.537553
v 0.277602 0.536372 0.920700
vn 4.394130 -0.368712 4.434154
v 0.252880 0.558345 0.947322
vn 4.178448 -3.306444 2.511179
v 0.187214 0.340609 0.885300
vn 5.468498 -2.812401 0.918547
v 0.195077 0.346202 0.869506
vn 0.168394 -5.789019 -1.401697
v 0.187940 0.343347 0.868822
vn 0.307998 -5.767491 -1.156707
v 0.187793 0.342989 0.870336
vn -1.814797 -5.802496 -1.585029
v 0.032987 0.403640 0.822403
vn 1.876066 -5.346367 -1.450172
v 0.196875 0.351710 0.843594
vn -0.216853 -5.910546 -1.809983
v 0.189022 0.346156 0.859278
vn 0.059586 -5.903270 -1.945048
v 0.189033 0.346167 0.859245
vn -1.537183 -5.802794 -1.815162
v 0.127949 0.391747 0.759094
vn -1.414875 -6.037091 -1.014444
v 0.187137 0.340615 0.885240
vn -1.428433 -6.020520 -0.806292
v 0.092263 0.352495 0.948646
vn -0.996228 -6.124658 -0.823018
v 0.187162 0.340605 0.885264
vn 3.255804 -5.212191 -0.554024
v 0.195056 0.346176 0.869491
vn 0.884210 -5.908419 0.019572
v 0.187198 0.340599 0.885291
vn -0.387886 -6.187770 -0.474177
v 0.187183 0.340600 0.885280
vn -1.775072 -5.861412 -1.401796
v 0.094091 0.358066 0.922560
vn -1.804432 -5.834279 -1.475267
v 0.094076 0.358078 0.922530
vn -1.813287 -5.815384 -1.539945
v 0.034637 0.402409 0.825107
vn 1.750795 5.830538 1.554387
v 0.056707 0.637624 0.892121
vn 1.698781 5.851248 1.530655
v 0.056170 0.637783 0.892127
vn 1.751585 5.773496 1.742985
v 0.116303 0.592464 0.992269
vn 1.810626 5.804055 1.583990
v 0.211146 0.580602 0.928971
vn 1.758350 5.854049 1.447428
v 0.150083 0.626161 0.828827
vn 1.651498 5.904780 1.372737
v 0.057975 0.643267 0.866482
vn 1.631135 5.913286 1.360130
v 0.057551 0.643425 0.866311
vn 1.596330 5.877139 1.533099
v 0.055564 0.637953 0.892138
vn 1.671140 5.932743 1.185852
v 0.151912 0.631732 0.802741
vn 1.662498 5.864651 1.516747
v 0.055737 0.637906 0.892135
vn 1.602010 5.752853 1.922253
v 0.116225 0.592480 0.992293
vn 1.569415 5.938257 1.320122
v 0.057382 0.643487 0.866241
vn 2.115741 1.044259 4.707899
v 0.154742 0.570756 1.012914
vn 2.882496 4.332609 3.446807
v 0.249504 0.558957 0.949607
vn 5.014773 2.805843 2.147083
v 0.260765 0.563930 0.931536
vn 1.502229 5.964200 1.278098
v 0.057238 0.643537 0.866185
vn 1.516878 5.891965 1.554927
v 0.055417 0.637991 0.892145
vn 2.491715 -4.408725 -1.273253
v 0.196890 0.351731 0.843535
vn 4.593971 -4.018806 0.071345
v 0.195068 0.346185 0.869495
vn 1.833031 1.450606 4.435973
v 0.154677 0.570783 1.012936
vn 1.681189 -3.969585 4.283853
v 0.089021 0.353003 0.950878
vn 5.100905 2.878883 -0.643879
v 0.262554 0.569530 0.905544
vn 4.831380 3.103604 2.173994
v 0.260730 0.563974 0.931557
vn 1.400427 5.999271 1.214931
v 0.057120 0.643575 0.866142
vn 1.399942 5.907873 1.592486
v 0.055296 0.638019 0.892155
vn -0.614375 4.489531 -1.807404
v 0.151887 0.631739 0.802737
vn 2.003239 -4.411102 3.871300
v 0.092293 0.352497 0.948650
vn 0.251516 -5.607005 1.534718
v 0.092275 0.352492 0.948651
vn -1.180852 -5.700903 -2.248628
v 0.127951 0.391758 0.759060
vn 1.297479 1.463688 4.406524
v 0.154620 0.570804 1.012952
vn 2.442410 5.059793 2.786393
v 0.162490 0.576404 0.997158
vn -0.228101 -4.127457 2.788880
v 0.088997 0.353000 0.950883
vn 5.354134 2.501477 -2.129075
v 0.203073 0.613916 0.808112
vn 4.677984 3.513387 -0.389752
v 0.262526 0.569571 0.905520
vn 4.356845 3.596285 2.227094
v 0.260699 0.564006 0.931574
vn 1.159359 6.070212 1.029898
v 0.057029 0.643603 0.866107
vn 1.151943 5.937303 1.648506
v 0.055203 0.638038 0.892161
vn 1.127656 5.715400 2.249473
v 0.116182 0.592484 0.992314
vn 0.969344 -5.510994 2.486885
v 0.178245 0.341724 0.891280
vn 0.879008 1.806921 4.426382
v 0.154577 0.570822 1.012954
vn -0.660292 -2.021268 5.882164
v 0.060966 0.379137 0.958614
vn 0.366969 1.564723 4.975912
v 0.122400 0.580937 1.012954
vn -0.991491 -3.050759 5.360351
v 0.056859 0.363104 0.950883
vn -1.047667 -1.877996 5.836154
v 0.060909 0.379159 0.958615
vn 2.137563 5.329447 2.478362
v 0.162434 0.576424 0.997167
vn 2.335710 5.250163 2.308957
v 0.257350 0.564557 0.933832
vn 3.868198 2.871769 -1.845960
v 0.201402 0.615168 0.805382
vn 4.139799 4.576688 -0.443173
v 0.203051 0.613939 0.808084
vn 3.965063 4.607655 0.220570
v 0.262495 0.569602 0.905501
vn 3.643896 4.366548 2.248177
v 0.260667 0.564031 0.931587
vn 1.671280 5.574735 2.303095
v 0.130183 0.586560 0.997174
vn 1.817517 5.762613 1.720536
v 0.148403 0.582365 0.992293
vn 1.867860 5.785438 1.582367
v 0.243349 0.570481 0.928971
vn 1.884626 5.491006 2.304543
v 0.162386 0.576439 0.997174
vn 0.694914 6.142991 0.670363
v 0.056961 0.643618 0.866088
vn 0.729187 5.966629 1.720936
v 0.055132 0.638047 0.892173
vn -1.539163 -4.082956 2.582826
v 0.056803 0.363117 0.950880
vn -1.604940 -5.443383 1.037605
v 0.088980 0.353003 0.950880
vn 3.105650 4.261314 3.356707
v 0.252789 0.558449 0.947372
vn 1.554035 4.676726 3.690902
v 0.154540 0.570839 1.012950
vn -0.109345 1.970716 4.200410
v 0.122337 0.580960 1.012950
vn -1.951418 -1.552826 5.666461
v 0.060861 0.379178 0.958609
vn 1.936379 5.685266 1.836582
v 0.171367 0.575315 0.991184
vn 2.883961 5.405710 0.875099
v 0.262465 0.569623 0.905489
vn 2.752391 5.019868 2.139061
v 0.260635 0.564048 0.931596
vn 3.333661 0.925697 -5.022066
v 0.197273 0.599140 0.797625
vn 2.601430 5.592915 0.957860
v 0.203026 0.613955 0.808066
vn 2.674868 3.364813 -1.880462
v 0.201376 0.615186 0.805362
vn 0.500373 5.814993 2.326599
v 0.047276 0.632445 0.907961
vn -1.082140 3.347932 3.633009
v 0.108336 0.586884 1.008090
vn -2.723027 3.007677 1.741608
v 0.047247 0.632447 0.907962
vn -1.842878 4.290633 3.076769
v 0.106686 0.588115 1.005385
vn 0.739364 5.832420 2.203030
v 0.114532 0.593715 0.989609
vn -0.548405 5.870571 1.576619
v 0.055093 0.638046 0.892186
vn 1.839895 5.848230 1.375276
v 0.184089 0.621618 0.802741
vn 1.822549 5.931081 0.618606
v 0.155194 0.631224 0.800507
vn 1.851462 5.824335 1.455950
v 0.182261 0.616043 0.828843
vn 0.078135 3.871063 -2.351517
v 0.155172 0.631231 0.800501
vn 1.872627 5.841276 1.359497
v 0.187371 0.621110 0.800507
vn 1.909096 5.816987 1.410007
v 0.185546 0.615535 0.826608
vn 0.691668 5.705810 2.174393
v 0.241699 0.571711 0.926266
vn -1.059363 4.626235 -2.456011
v 0.065904 0.642498 0.860089
vn -1.477702 4.397491 -1.437412
v 0.056923 0.643621 0.866079
vn 1.732503 3.744768 -2.197809
v 0.187375 0.621110 0.800501
vn -1.968359 -3.802525 2.113842
v 0.056758 0.363132 0.950873
vn -1.851393 -5.824354 -1.455953
v 0.061872 0.368199 0.922530
vn -1.839745 -5.848278 -1.375274
v 0.060043 0.362624 0.948637
vn -1.822797 -5.775281 -1.673517
v 0.095772 0.401862 0.759094
vn -1.867846 -5.785429 -1.582408
v 0.000784 0.413761 0.822403
vn -1.822868 -5.755426 -1.739677
v 0.095748 0.401879 0.759060
vn -1.843411 -5.766357 -1.682018
v 0.086767 0.403003 0.765050
vn -2.117089 -5.308440 -2.431330
v 0.081747 0.407803 0.754200
vn -1.671500 -5.575214 -2.301348
v 0.113950 0.397682 0.754200
vn -3.203347 0.907916 4.551650
v 0.108332 0.586879 1.008090
vn -3.811719 -0.545307 4.406743
v 0.046860 0.385102 0.953748
vn -2.689356 -1.843158 5.370230
v 0.046865 0.385094 0.953748
vn 1.929134 5.794089 1.477803
v 0.246634 0.569972 0.926736
vn 2.000279 5.786037 1.412510
v 0.201197 0.608380 0.834173
vn 1.995838 5.789260 1.405408
v 0.199547 0.609611 0.831469
vn 1.926741 5.798671 1.463123
v 0.187196 0.614304 0.829313
vn -5.297467 0.239997 3.341238
v 0.045210 0.386333 0.951044
vn -2.933163 -2.835626 1.652703
v 0.042757 0.369056 0.946012
vn -3.951568 3.810828 0.226738
v 0.049077 0.638022 0.881855
vn -5.909974 1.897198 -0.653825
v -0.012399 0.436240 0.827514
vn -5.600531 0.929024 1.710544
v -0.014228 0.430665 0.853621
vn -3.542386 3.638171 -1.882024
v 0.056905 0.643611 0.866084
vn -5.476262 2.620778 -1.174863
v 0.049076 0.638016 0.881841
vn -3.685045 -1.613855 -1.322545
v -0.016502 0.420194 0.819778
vn -3.793089 -1.911316 0.159233
v -0.018332 0.414619 0.845885
vn -3.723475 -2.973515 0.918645
v 0.041107 0.370287 0.943307
vn 0.730044 5.700209 2.148432
v 0.183911 0.614812 0.831548
vn -2.922774 2.642218 -4.877480
v 0.061800 0.626452 0.852353
vn -2.916810 2.644718 -4.879310
v 0.147783 0.615693 0.795000
vn -3.094343 2.653911 -4.748181
v 0.052819 0.627575 0.858343
vn -1.073989 2.278143 -5.317121
v 0.151068 0.615185 0.792765
vn 1.559188 1.672884 -5.670793
v 0.183272 0.605064 0.792765
vn -1.909106 -5.816988 -1.409991
v 0.058587 0.368707 0.924766
vn -1.926756 -5.798669 -1.463111
v 0.056937 0.369938 0.922061
vn -1.995851 -5.789248 -1.405439
v 0.044586 0.374631 0.919905
vn -2.700760 -1.928932 5.334606
v 0.042765 0.369059 0.946017
vn -0.810612 -5.740537 -2.117626
v 0.002434 0.412530 0.825107
vn -0.817472 -5.726231 -2.106932
v 0.060222 0.369430 0.919826
vn -1.929150 -5.794090 -1.477781
v -0.002501 0.414270 0.824638
vn -2.000279 -5.786034 -1.412520
v 0.042936 0.375862 0.917201
vn -2.335651 -5.250179 -2.308981
v -0.013217 0.419685 0.817542
vn -2.236362 -5.302212 -2.358186
v 0.072766 0.408927 0.760190
vn 2.138619 -0.087816 -5.801906
v 0.135780 0.397371 0.743277
vn 0.023137 -1.868484 -4.186190
v 0.121797 0.403282 0.738424
vn -5.638678 2.196832 -1.651582
v 0.044976 0.621980 0.874110
vn -4.325151 2.455514 -3.334874
v 0.052805 0.627575 0.858353
vn -4.051132 -1.086651 -2.651890
v -0.008662 0.425791 0.804011
vn -2.836415 -1.283836 -4.011587
v 0.080612 0.414527 0.744414
vn -1.428728 -1.183783 -3.924864
v 0.089593 0.413403 0.738424
vn -2.848176 -1.284291 -4.000370
v -0.005371 0.425285 0.801767
vn -3.127169 1.995131 -5.062538
v 0.065085 0.625943 0.850117
vn -3.049996 2.276108 -4.999527
v 0.056104 0.627067 0.856108
vn -3.368823 -0.729217 -3.350374
v -0.008656 0.425793 0.804002
vn -2.053112 3.940544 -3.817245
v 0.142087 0.616309 0.798755
# 186 vertices, 0 vertices normals

f 1//1 2//2 3//3
f 1//1 4//4 5//5
f 1//1 6//6 7//7
f 1//1 8//8 9//9
f 1//1 9//9 2//2
f 1//1 10//10 8//8
f 1//1 5//5 11//11
f 1//1 7//7 10//10
f 1//1 11//11 12//12
f 1//1 3//3 4//4
f 1//1 13//13 6//6
f 1//1 12//12 13//13
f 2//2 8//8 14//14
f 2//2 9//9 8//8
f 2//2 14//14 15//15
f 2//2 15//15 16//16
f 2//2 16//16 3//3
f 17//17 18//18 19//19
f 17//17 20//20 21//21
f 17//17 21//21 18//18
f 17//17 22//22 20//20
f 17//17 23//23 24//24
f 17//17 19//19 23//23
f 17//17 25//25 22//22
f 17//17 24//24 26//26
f 17//17 26//26 27//27
f 17//17 28//28 25//25
f 17//17 27//27 28//28
f 18//18 29//29 3//3
f 18//18 21//21 5//5
f 18//18 30//30 29//29
f 18//18 5//5 30//30
f 18//18 3//3 31//31
f 18//18 32//32 19//19
f 18//18 31//31 32//32
f 4//4 29//29 30//30
f 4//4 30//30 5//5
f 4//4 3//3 29//29
f 33//33 34//34 35//35
f 33//33 36//36 34//34
f 33//33 37//37 38//38
f 33//33 38//38 36//36
f 33//33 39//39 37//37
f 33//33 35//35 39//39
f 34//34 40//40 41//41
f 34//34 42//42 40//40
f 34//34 36//36 43//43
f 34//34 43//43 44//44
f 34//34 45//45 42//42
f 34//34 44//44 45//45
f 34//34 46//46 47//47
f 34//34 41//41 46//46
f 34//34 48//48 35//35
f 34//34 47//47 48//48
f 49//49 50//50 51//51
f 49//49 51//51 52//52
f 49//49 53//53 50//50
f 49//49 52//52 53//53
f 54//54 55//55 56//56
f 54//54 56//56 53//53
f 54//54 57//57 55//55
f 54//54 53//53 57//57
f 50//50 58//58 59//59
f 50//50 59//59 51//51
f 50//50 53//53 58//58
f 55//55 60//60 56//56
f 55//55 57//57 60//60
f 58//58 56//56 59//59
f 58//58 53//53 56//56
f 40//40 42//42 41//41
f 6//6 61//61 7//7
f 6//6 13//13 62//62
f 6//6 62//62 61//61
f 20//20 22//22 63//63
f 20//20 63//63 21//21
f 21//21 63//63 5//5
f 60//60 64//64 65//65
f 60//60 65//65 56//56
f 60//60 57//57 64//64
f 56//56 65//65 59//59
f 42//42 45//45 41//41
f 36//36 66//66 43//43
f 36//36 38//38 66//66
f 43//43 66//66 67//67
f 43//43 67//67 16//16
f 43//43 16//16 44//44
f 61//61 68//68 7//7
f 61//61 62//62 68//68
f 8//8 10//10 69//69
f 8//8 69//69 14//14
f 22//22 70//70 71//71
f 22//22 71//71 63//63
f 22//22 25//25 70//70
f 63//63 71//71 11//11
f 63//63 11//11 5//5
f 64//64 72//72 73//73
f 64//64 73//73 65//65
f 64//64 57//57 74//74
f 64//64 74//74 72//72
f 65//65 73//73 59//59
f 14//14 69//69 75//75
f 14//14 75//75 15//15
f 45//45 44//44 76//76
f 45//45 76//76 41//41
f 15//15 75//75 16//16
f 66//66 23//23 19//19
f 66//66 19//19 67//67
f 66//66 38//38 77//77
f 66//66 77//77 27//27
f 66//66 27//27 23//23
f 67//67 19//19 31//31
f 67//67 31//31 16//16
f 68//68 78//78 7//7
f 68//68 79//79 78//78
f 68//68 62//62 79//79
f 10//10 7//7 80//80
f 10//10 80//80 69//69
f 70//70 81//81 82//82
f 70//70 82//82 83//83
f 70//70 83//83 71//71
f 70//70 25//25 81//81
f 71//71 83//83 11//11
f 72//72 84//84 85//85
f 72//72 85//85 73//73
f 72//72 74//74 84//84
f 73//73 85//85 86//86
f 73//73 86//86 59//59
f 69//69 80//80 76//76
f 69//69 76//76 75//75
f 37//37 39//39 77//77
f 37//37 77//77 38//38
f 44//44 16//16 87//87
f 44//44 87//87 76//76
f 75//75 76//76 87//87
f 75//75 87//87 16//16
f 23//23 27//27 24//24
f 19//19 32//32 31//31
f 78//78 79//79 88//88
f 78//78 88//88 7//7
f 89//89 7//7 90//90
f 89//89 91//91 7//7
f 89//89 90//90 92//92
f 89//89 92//92 91//91
f 7//7 91//91 80//80
f 7//7 88//88 90//90
f 11//11 83//83 12//12
f 3//3 16//16 31//31
f 79//79 93//93 88//88
f 79//79 62//62 94//94
f 79//79 94//94 93//93
f 81//81 25//25 95//95
f 81//81 95//95 82//82
f 82//82 96//96 97//97
f 82//82 97//97 98//98
f 82//82 98//98 83//83
f 82//82 95//95 96//96
f 83//83 98//98 12//12
f 25//25 28//28 95//95
f 51//51 59//59 99//99
f 51//51 100//100 101//101
f 51//51 99//99 102//102
f 51//51 102//102 100//100
f 51//51 101//101 52//52
f 84//84 103//103 104//104
f 84//84 104//104 85//85
f 84//84 74//74 103//103
f 85//85 104//104 86//86
f 91//91 92//92 105//105
f 91//91 105//105 80//80
f 80//80 105//105 106//106
f 80//80 106//106 76//76
f 76//76 106//106 41//41
f 24//24 27//27 26//26
f 13//13 12//12 107//107
f 13//13 107//107 62//62
f 90//90 88//88 108//108
f 90//90 109//109 92//92
f 90//90 108//108 109//109
f 88//88 93//93 102//102
f 88//88 102//102 108//108
f 92//92 109//109 110//110
f 92//92 110//110 105//105
f 12//12 98//98 107//107
f 93//93 111//111 102//102
f 93//93 94//94 111//111
f 96//96 95//95 112//112
f 96//96 112//112 97//97
f 97//97 112//112 113//113
f 97//97 113//113 98//98
f 98//98 113//113 107//107
f 95//95 28//28 114//114
f 95//95 115//115 112//112
f 95//95 116//116 115//115
f 95//95 114//114 116//116
f 117//117 118//118 86//86
f 117//117 119//119 120//120
f 117//117 120//120 118//118
f 117//117 86//86 121//121
f 117//117 122//122 119//119
f 117//117 121//121 122//122
f 59//59 86//86 99//99
f 100//100 111//111 94//94
f 100//100 94//94 101//101
f 100//100 102//102 111//111
f 57//57 123//123 124//124
f 57//57 53//53 125//125
f 57//57 124//124 126//126
f 57//57 125//125 123//123
f 57//57 126//126 74//74
f 123//123 127//127 124//124
f 123//123 125//125 128//128
f 123//123 128//128 127//127
f 53//53 52//52 101//101
f 53//53 101//101 129//129
f 53//53 129//129 125//125
f 103//103 130//130 131//131
f 103//103 74//74 130//130
f 103//103 131//131 122//122
f 103//103 122//122 104//104
f 104//104 122//122 121//121
f 104//104 121//121 86//86
f 124//124 127//127 132//132
f 124//124 132//132 126//126
f 127//127 128//128 132//132
f 105//105 110//110 133//133
f 105//105 133//133 106//106
f 106//106 133//133 41//41
f 46//46 41//41 134//134
f 46//46 134//134 47//47
f 41//41 133//133 135//135
f 41//41 135//135 134//134
f 136//136 39//39 137//137
f 136//136 138//138 39//39
f 136//136 137//137 139//139
f 136//136 139//139 138//138
f 39//39 138//138 140//140
f 39//39 35//35 137//137
f 39//39 140//140 141//141
f 39//39 141//141 77//77
f 28//28 27//27 114//114
f 62//62 107//107 94//94
f 109//109 108//108 102//102
f 109//109 99//99 118//118
f 109//109 102//102 99//99
f 109//109 118//118 142//142
f 109//109 142//142 110//110
f 110//110 143//143 144//144
f 110//110 142//142 143//143
f 110//110 144//144 133//133
f 107//107 113//113 94//94
f 94//94 113//113 145//145
f 94//94 145//145 101//101
f 99//99 86//86 118//118
f 115//115 146//146 112//112
f 115//115 116//116 147//147
f 115//115 147//147 146//146
f 146//146 113//113 112//112
f 146//146 147//147 148//148
f 146//146 148//148 145//145
f 146//146 145//145 113//113
f 116//116 132//132 128//128
f 116//116 128//128 147//147
f 116//116 114//114 132//132
f 147//147 128//128 148//148
f 118//118 120//120 142//142
f 143//143 149//149 150//150
f 143//143 150//150 144//144
f 143//143 142//142 149//149
f 151//151 119//119 122//122
f 151//151 152//152 153//153
f 151//151 153//153 119//119
f 151//151 131//131 154//154
f 151//151 122//122 131//131
f 151//151 155//155 152//152
f 151//151 154//154 155//155
f 119//119 153//153 142//142
f 119//119 142//142 120//120
f 152//152 156//156 157//157
f 152//152 157//157 153//153
f 152//152 155//155 156//156
f 153//153 149//149 142//142
f 153//153 157//157 149//149
f 149//149 157//157 158//158
f 149//149 158//158 150//150
f 159//159 101//101 148//148
f 159//159 148//148 128//128
f 159//159 125//125 129//129
f 159//159 129//129 101//101
f 159//159 128//128 125//125
f 101//101 145//145 148//148
f 130//130 74//74 160//160
f 130//130 160//160 131//131
f 74//74 126//126 161//161
f 74//74 161//161 160//160
f 131//131 160//160 162//162
f 131//131 162//162 154//154
f 126//126 132//132 163//163
f 126//126 163//163 161//161
f 132//132 114//114 164//164
f 132//132 164//164 163//163
f 165//165 133//133 150//150
f 165//165 134//134 133//133
f 165//165 166//166 134//134
f 165//165 167//167 166//166
f 165//165 150//150 167//167
f 133//133 134//134 135//135
f 133//133 144//144 168//168
f 133//133 168//168 150//150
f 169//169 48//48 47//47
f 169//169 134//134 137//137
f 169//169 47//47 134//134
f 169//169 137//137 35//35
f 169//169 35//35 48//48
f 134//134 166//166 170//170
f 134//134 170//170 137//137
f 171//171 166//166 172//172
f 171//171 137//137 166//166
f 171//171 156//156 173//173
f 171//171 172//172 156//156
f 171//171 173//173 137//137
f 166//166 137//137 170//170
f 166//166 167//167 172//172
f 138//138 139//139 140//140
f 77//77 141//141 27//27
f 137//137 173//173 174//174
f 137//137 174//174 139//139
f 139//139 174//174 140//140
f 114//114 27//27 175//175
f 114//114 175//175 164//164
f 27//27 141//141 176//176
f 27//27 176//176 175//175
f 167//167 150//150 158//158
f 167//167 158//158 172//172
f 150//150 168//168 144//144
f 156//156 172//172 157//157
f 156//156 155//155 177//177
f 156//156 177//177 178//178
f 156//156 178//178 179//179
f 156//156 179//179 173//173
f 157//157 172//172 158//158
f 140//140 174//174 180//180
f 140//140 181//181 141//141
f 140//140 180//180 181//181
f 141//141 181//181 176//176
f 173//173 182//182 174//174
f 173//173 179//179 182//182
f 174//174 182//182 180//180
f 160//160 161//161 183//183
f 160//160 183//183 184//184
f 160//160 184//184 162//162
f 161//161 163//163 183//183
f 162//162 185//185 178//178
f 162//162 184//184 185//185
f 162//162 178//178 154//154
f 185//185 184//184 182//182
f 185//185 182//182 179//179
f 185//185 179//179 178//178
f 183//183 163//163 186//186
f 183//183 186//186 184//184
f 163//163 164//164 181//181
f 163//163 181//181 186//186
f 164//164 176//176 181//181
f 164//164 175//175 176//176
f 181//181 180//180 186//186
f 184//184 186//186 180//180
f 184//184 180//180 182//182
f 155//155 154//154 178//178
f 155//155 178//178 177//177
# 368 faces, 0 coords texture

# End of File
