####
#
# OBJ File Generated by Meshlab
#
####
# Object matlab_mesh_slc_step11_link2.obj
#
# Vertices: 208
# Faces: 412
#
####
vn -1.050270 -1.047864 5.954696
v 0.180799 0.124015 0.919275
vn 1.284403 -2.512387 3.246905
v 0.181254 0.123569 0.919275
vn -0.122970 -0.096385 6.278764
v 0.080915 0.229267 0.919417
vn -0.479315 -0.337485 6.222123
v 0.080890 0.229284 0.919417
vn -1.019563 -0.651483 6.021106
v 0.080871 0.229297 0.919416
vn -1.470904 -0.401281 5.848869
v 0.080858 0.229305 0.919414
vn -3.357288 0.169652 4.567975
v -0.063903 0.078789 0.818615
vn -3.284322 1.132588 2.814693
v -0.066339 0.076256 0.816918
vn -2.860966 -1.777014 5.165474
v -0.066340 0.076252 0.816917
vn 2.337990 -1.944020 3.455929
v 0.181427 0.123727 0.919275
vn -0.003900 -0.053292 6.282672
v 0.176527 0.137323 0.919414
vn 4.190290 -4.637943 0.621507
v 0.181345 0.123643 0.919220
vn 4.063679 -4.761679 0.519487
v 0.181226 0.123534 0.919180
vn -0.033779 -0.047483 6.282593
v 0.175762 0.138058 0.919417
vn -0.046999 -0.048847 6.282454
v 0.087026 0.223387 0.919417
vn -0.046675 -0.049244 6.282452
v 0.175277 0.138476 0.919417
vn 0.335976 -4.858217 -0.403273
v 0.028810 -0.016201 0.816382
vn 3.339135 -4.998700 1.824116
v 0.029317 -0.015675 0.816908
vn -0.143586 -4.656313 0.060709
v 0.028808 -0.016202 0.816390
vn 2.599050 -4.944937 2.679662
v 0.029313 -0.015676 0.816913
vn 0.673955 -4.237578 4.208918
v 0.029308 -0.015676 0.816915
vn -2.163158 -2.385776 5.368403
v 0.028819 -0.015257 0.816916
vn -1.337448 -3.076563 5.134646
v 0.029305 -0.015675 0.816916
vn -2.222337 -2.320537 5.377521
v 0.028080 -0.014545 0.816918
vn 3.901574 -1.525489 2.509543
v 0.181518 0.123801 0.919220
vn 3.157843 0.432141 4.621807
v 0.179294 0.140165 0.919414
vn 2.705533 0.468113 4.671434
v 0.179289 0.140194 0.919414
vn 3.958839 4.274718 2.233135
v 0.139307 0.252972 0.812965
vn 4.035192 4.099425 2.512150
v 0.139762 0.252525 0.812965
vn 3.688495 2.464571 -1.175454
v 0.217934 0.180474 0.804208
vn 3.691709 4.391670 2.553718
v 0.122499 0.272178 0.804322
vn 3.499798 4.177118 3.088608
v 0.084082 0.232660 0.918497
vn 3.822893 4.400137 2.344914
v 0.122984 0.271760 0.804322
vn 4.012064 4.400331 1.939001
v 0.122940 0.271810 0.804299
vn 3.620682 3.980931 3.189481
v 0.084567 0.232242 0.918497
vn 3.729794 3.870077 3.218680
v 0.178979 0.141446 0.918500
vn 4.283329 4.449555 0.816411
v 0.217195 0.181186 0.804210
vn 3.880202 3.704658 3.203633
v 0.179712 0.140740 0.918497
vn 5.155397 -1.791197 1.368808
v 0.181744 0.124007 0.918639
vn 4.773920 -0.553661 0.538250
v 0.222784 0.161402 0.812998
vn 5.714997 0.714103 2.511100
v 0.179763 0.140574 0.918471
vn 4.351776 -4.510696 0.253278
v 0.181491 0.123766 0.919126
vn 4.411817 -4.463501 0.133931
v 0.181717 0.123972 0.918544
vn 4.533152 -1.918627 -1.757734
v 0.222756 0.161367 0.812903
vn 4.916343 0.993229 -0.712105
v 0.217987 0.180326 0.804275
vn 5.611573 1.814443 0.803077
v 0.217998 0.180283 0.804295
vn 5.058559 2.115773 2.973890
v 0.179724 0.140725 0.918494
vn 5.596646 0.743992 2.738662
v 0.179756 0.140610 0.918476
vn 5.560788 0.850618 2.774747
v 0.179749 0.140642 0.918481
vn 5.513723 1.014502 2.808893
v 0.179743 0.140669 0.918485
vn 5.437886 1.244193 2.853248
v 0.179736 0.140692 0.918488
vn 5.310167 1.583499 2.907941
v 0.179730 0.140711 0.918491
vn 4.185231 -4.669399 0.295521
v 0.181318 0.123608 0.919126
vn 4.999822 0.645197 3.663949
v 0.179300 0.140131 0.919413
vn 2.087596 -5.171784 -1.652736
v 0.070545 0.022682 0.704918
vn 1.143752 -5.866244 -1.632191
v 0.070319 0.022476 0.705500
vn 0.226318 -5.894531 -2.153600
v 0.067041 0.023523 0.702149
vn 3.254777 -4.333016 -2.087866
v 0.070636 0.022756 0.704864
vn 2.442383 -5.352442 -0.720641
v 0.028817 -0.016197 0.816361
vn 0.047405 -5.763609 -2.401592
v 0.067034 0.023526 0.702139
vn 2.265256 -4.145846 -3.745817
v 0.067496 0.024000 0.701216
vn 1.614127 -4.081298 -3.799578
v 0.067488 0.024001 0.701210
vn 1.347718 -5.239885 -0.666939
v 0.028813 -0.016200 0.816373
vn -1.143800 -4.857079 -1.668344
v 0.029279 -0.014919 0.811140
vn -4.117099 -4.550922 -1.309241
v 0.028322 -0.015784 0.816390
vn -4.269846 -4.435846 -1.161360
v -0.066103 0.075023 0.816403
vn -0.587902 -5.607629 -2.620532
v 0.067029 0.023530 0.702131
vn -1.486777 -5.286743 -2.860286
v 0.067024 0.023534 0.702124
vn -2.578830 -4.676579 -3.064749
v 0.067021 0.023538 0.702119
vn -3.618586 -3.976804 -3.195752
v 0.066532 0.023961 0.702115
vn -3.262910 -4.202391 -3.270406
v 0.067018 0.023543 0.702115
vn -3.386303 -0.305070 0.340182
v -0.066843 0.075734 0.816406
vn -4.216437 -3.763876 -2.718623
v -0.030912 0.113096 0.708952
vn -3.735683 -3.876067 -3.201729
v -0.027893 0.114768 0.702112
vn -4.647975 -1.274231 -2.542195
v -0.028625 0.115473 0.702115
vn 3.978118 -3.663738 -2.121915
v 0.070809 0.022914 0.704864
vn 3.155530 -3.606706 -4.032668
v 0.067504 0.023999 0.701223
vn 4.456429 -3.553865 -1.712899
v 0.222607 0.161231 0.812797
vn 3.960056 -2.786582 -3.881660
v 0.070253 0.026854 0.701223
vn 4.483259 -0.820629 -4.302977
v 0.217474 0.179794 0.803752
vn 3.808323 -2.524879 -4.157178
v 0.070252 0.026864 0.701216
vn 3.539239 -2.115961 -4.539655
v 0.070251 0.026873 0.701210
vn 3.143291 -1.554979 -4.967768
v 0.070249 0.026881 0.701205
vn 3.691316 4.415136 2.508133
v 0.122455 0.272228 0.804299
vn 4.034651 4.425398 1.828410
v 0.122902 0.271854 0.804278
vn 3.687841 4.445585 2.451190
v 0.122417 0.272272 0.804278
vn 4.453247 -0.746988 -4.343358
v 0.217464 0.179834 0.803736
vn 4.864512 1.064082 -0.734072
v 0.217977 0.180364 0.804257
vn 4.446055 3.008750 3.063584
v 0.179718 0.140735 0.918496
vn 4.061196 4.455386 1.681908
v 0.122869 0.271892 0.804260
vn 3.683203 4.484282 2.372559
v 0.122384 0.272310 0.804260
vn 1.780145 4.886526 2.740592
v 0.084074 0.232665 0.918499
vn 4.393605 -0.627127 -4.419741
v 0.217456 0.179868 0.803722
vn 4.793659 1.183032 -0.760967
v 0.217967 0.180397 0.804242
vn 4.094110 4.492517 1.479599
v 0.122840 0.271923 0.804245
vn 3.674377 4.536411 2.257261
v 0.122355 0.272341 0.804245
vn 3.744632 -0.270169 -4.973881
v 0.215033 0.177349 0.802034
vn 0.055384 0.041954 6.282357
v 0.178525 0.140929 0.919417
vn 2.704536 0.621784 4.692076
v 0.179285 0.140219 0.919414
vn 4.303452 -0.456861 -4.522893
v 0.217449 0.179897 0.803711
vn 4.691144 1.342404 -0.799279
v 0.217958 0.180424 0.804229
vn 0.043888 0.045614 6.282548
v 0.172413 0.146809 0.919417
vn 0.201994 0.210778 6.269590
v 0.084163 0.231720 0.919417
vn 0.109398 0.152854 6.276960
v 0.083678 0.232138 0.919417
vn 0.423310 0.621982 6.184635
v 0.083658 0.232161 0.919417
vn 0.890686 0.943975 6.076735
v 0.084144 0.231743 0.919417
vn 0.229710 0.226737 6.271769
v 0.178526 0.140949 0.919417
vn 0.561104 0.571548 6.224731
v 0.178528 0.140963 0.919416
vn 4.133710 4.537249 1.160310
v 0.122817 0.271948 0.804232
vn 3.653918 4.611908 2.064223
v 0.122332 0.272366 0.804232
vn 1.019956 -3.746463 -4.126168
v 0.067481 0.024003 0.701205
vn 4.006594 -0.641946 -4.795234
v 0.215021 0.177373 0.802020
vn 2.777209 0.909910 4.706138
v 0.179280 0.140240 0.919413
vn 4.153570 -0.194128 -4.669795
v 0.217442 0.179921 0.803703
vn 4.521417 1.574499 -0.858069
v 0.217949 0.180446 0.804219
vn 0.817635 1.294495 5.860680
v 0.083644 0.232179 0.919416
vn 1.883337 2.023596 5.470574
v 0.084129 0.231761 0.919416
vn 1.168718 1.204371 6.023348
v 0.178530 0.140974 0.919414
vn 4.173838 4.583825 0.596918
v 0.122798 0.271967 0.804222
vn 3.597258 4.716739 1.710922
v 0.122313 0.272385 0.804222
vn -4.173794 -4.606321 -0.535425
v 0.028320 -0.015783 0.816396
vn 0.201841 -3.189414 -4.453058
v 0.067474 0.024005 0.701202
vn -0.536425 -4.624533 0.870961
v 0.028805 -0.016201 0.816396
vn 3.843659 -0.380531 -4.951479
v 0.215010 0.177393 0.802009
vn 2.516167 -0.777516 -5.391661
v 0.070247 0.026887 0.701202
vn 2.902324 1.379372 4.691708
v 0.179276 0.140256 0.919412
vn 4.209890 1.940781 -0.951461
v 0.217942 0.180463 0.804212
vn 1.140338 2.180736 4.963612
v 0.083634 0.232191 0.919414
vn 2.759052 3.067788 4.522223
v 0.084119 0.231773 0.919414
vn 2.317410 2.401500 5.167602
v 0.178532 0.140980 0.919412
vn 4.131814 4.548853 -0.505568
v 0.122785 0.271980 0.804215
vn 3.365454 4.814014 0.943435
v 0.122299 0.272398 0.804215
vn 4.346209 4.518729 -0.287333
v 0.217195 0.181186 0.804208
vn -3.992207 -4.404685 1.356928
v 0.028317 -0.015781 0.816401
vn -4.332770 -4.503084 -0.078839
v -0.066109 0.075028 0.816404
vn -0.819583 -2.494973 -4.644436
v 0.067469 0.024008 0.701201
vn -1.286076 -4.411881 2.220717
v 0.028803 -0.016199 0.816401
vn 3.871851 0.248447 -4.881247
v 0.217436 0.179939 0.803697
vn 3.537185 0.066253 -5.178510
v 0.215002 0.177408 0.802002
vn 1.682507 0.264891 -5.699234
v 0.070244 0.026894 0.701201
vn 1.582915 1.652371 -5.831933
v -0.024152 0.117685 0.701202
vn 1.597612 1.745487 -5.803985
v -0.024904 0.118409 0.701205
vn 2.000904 2.161396 -5.542417
v 0.122273 0.271465 0.803698
vn 0.651710 0.688336 -6.136766
v -0.024166 0.117693 0.701201
vn 0.800684 0.917985 -6.093504
v -0.024913 0.118411 0.701204
vn 1.527582 1.362828 -5.870638
v 0.070241 0.026899 0.701201
vn 2.233433 2.327954 -5.360195
v 0.123012 0.270754 0.803695
vn 2.495232 2.042979 -5.330039
v 0.217427 0.179962 0.803696
vn 1.779330 2.075727 -5.655022
v 0.214989 0.177427 0.801998
vn 1.520523 1.955942 -5.758134
v -0.025390 0.118827 0.701205
vn 0.287232 1.773934 -5.668444
v -0.025398 0.118829 0.701204
vn -1.111993 3.280519 -2.697448
v 0.121786 0.271886 0.803698
vn 1.808592 2.128677 -5.627505
v 0.121787 0.271883 0.803698
vn -2.252716 -3.737015 4.042819
v 0.028801 -0.016196 0.816403
vn 3.067366 2.184682 4.529674
v 0.179272 0.140268 0.919409
vn 4.322197 3.651953 2.715133
v 0.182003 0.143112 0.911661
vn 4.259830 4.429726 -1.093284
v 0.123531 0.271262 0.804212
vn 3.380439 3.518060 -3.419552
v 0.123516 0.271275 0.804208
vn 3.352567 3.746298 -2.946448
v 0.122776 0.271987 0.804210
vn 3.526135 3.292618 -2.665645
v 0.217928 0.180481 0.804206
vn -0.205868 2.986100 3.826258
v 0.083628 0.232198 0.919412
vn -2.768838 1.165232 4.596320
v 0.080850 0.229310 0.919412
vn 3.326620 3.835102 3.700053
v 0.084113 0.231780 0.919412
vn 3.310448 3.432874 4.052105
v 0.178535 0.140981 0.919409
vn 1.426059 5.432299 2.365755
v 0.086359 0.235042 0.911664
vn 1.660138 4.114707 -0.851314
v 0.122291 0.272405 0.804210
vn 3.388192 3.915829 3.557432
v 0.084560 0.232247 0.918499
vn -3.181915 -3.435020 3.806001
v 0.028316 -0.015778 0.816403
vn -4.158999 -4.325279 1.502293
v 0.027571 -0.015063 0.816403
vn -2.192446 -2.878121 -4.683794
v 0.067464 0.024011 0.701201
vn -0.128500 -0.133611 -6.277711
v -0.021285 0.109318 0.701201
vn -0.632326 -0.729221 -6.131223
v 0.066983 0.024426 0.701201
vn -1.295490 -1.335664 -5.783943
v -0.027440 0.115229 0.701201
vn -0.130600 -0.127924 -6.277701
v -0.027427 0.115225 0.701201
vn 0.420005 0.436710 -6.224203
v 0.064102 0.032801 0.701201
vn -2.275005 -2.474799 -4.821625
v 0.066978 0.024428 0.701201
vn -1.686557 -1.753758 -5.699166
v -0.021293 0.109317 0.701201
vn 0.095295 0.117216 -6.279428
v -0.024652 0.118111 0.701201
vn -0.205247 0.088654 -6.272786
v -0.028173 0.115943 0.701204
vn -2.546317 1.130090 -2.840042
v -0.028180 0.115941 0.701204
vn 3.174198 1.143344 -5.157735
v 0.217431 0.179953 0.803695
vn 2.485547 1.359867 -5.600125
v 0.214995 0.177420 0.801998
vn -3.240510 -3.377567 3.847287
v 0.027576 -0.015066 0.816406
vn -3.623687 -2.877129 2.364707
v -0.066841 0.075733 0.816407
vn -2.068407 2.530507 -3.076162
v -0.025402 0.118829 0.701204
vn 3.478492 3.353415 3.963442
v 0.179268 0.140276 0.919407
vn 2.534235 2.635304 -5.109792
v 0.211778 0.186395 0.804206
vn 2.557995 2.672430 -5.077840
v 0.123505 0.271282 0.804206
vn 2.536067 2.836385 -4.991523
v 0.122772 0.271987 0.804208
vn -2.119927 4.395901 2.023737
v 0.083627 0.232200 0.919409
vn -4.332469 3.259460 2.080777
v 0.080848 0.229310 0.919409
vn -4.539074 4.344335 0.035078
v 0.080347 0.228791 0.918899
vn -2.254754 5.147789 1.036014
v 0.086357 0.235042 0.911663
vn -1.941654 4.945459 1.448650
v 0.084071 0.232665 0.918500
vn -0.415208 3.625959 -1.447872
v 0.122287 0.272405 0.804208
vn -2.947881 -3.052376 -4.468575
v -0.027449 0.115233 0.701203
vn -4.005382 -0.909550 -3.282657
v -0.028181 0.115938 0.701206
vn 2.168472 2.434040 -5.348735
v 0.122271 0.271468 0.803698
vn 2.503800 2.616713 -5.134402
v 0.123004 0.270763 0.803696
vn 2.445168 2.542682 -5.198065
v 0.211277 0.185876 0.803696
vn -5.262801 2.374757 -0.997053
v -0.028626 0.115474 0.702117
vn -5.278320 2.282218 -0.971451
v -0.030911 0.113097 0.708952
vn -4.552573 4.330214 -0.016660
v -0.030465 0.113564 0.708039
vn -4.552356 4.330435 -0.012573
v -0.066396 0.076201 0.815492
vn -4.529712 4.354308 0.007883
v 0.080791 0.229256 0.917990
vn -4.526698 4.357438 0.007759
v 0.083570 0.232146 0.917990
vn -4.525468 4.358730 0.002370
v 0.085856 0.234523 0.911152
vn -4.528588 4.355459 0.016878
v 0.083126 0.231681 0.918899
# 208 vertices, 0 vertices normals

f 1//1 2//2 3//3
f 1//1 3//3 4//4
f 1//1 4//4 5//5
f 1//1 5//5 6//6
f 1//1 6//6 7//7
f 1//1 7//7 8//8
f 1//1 8//8 9//9
f 1//1 9//9 2//2
f 2//2 10//10 11//11
f 2//2 12//12 10//10
f 2//2 13//13 12//12
f 2//2 11//11 14//14
f 2//2 15//15 3//3
f 2//2 16//16 15//15
f 2//2 14//14 16//16
f 2//2 17//17 13//13
f 2//2 18//18 19//19
f 2//2 19//19 17//17
f 2//2 20//20 18//18
f 2//2 21//21 20//20
f 2//2 22//22 23//23
f 2//2 23//23 21//21
f 2//2 24//24 22//22
f 2//2 9//9 24//24
f 10//10 12//12 25//25
f 10//10 25//25 26//26
f 10//10 26//26 27//27
f 10//10 27//27 11//11
f 28//28 29//29 30//30
f 28//28 31//31 32//32
f 28//28 33//33 31//31
f 28//28 34//34 33//33
f 28//28 32//32 35//35
f 28//28 35//35 36//36
f 28//28 30//30 37//37
f 28//28 37//37 34//34
f 28//28 38//38 29//29
f 28//28 36//36 38//38
f 29//29 38//38 30//30
f 39//39 40//40 41//41
f 39//39 25//25 42//42
f 39//39 43//43 40//40
f 39//39 42//42 43//43
f 39//39 41//41 25//25
f 40//40 43//43 44//44
f 40//40 44//44 45//45
f 40//40 46//46 47//47
f 40//40 45//45 46//46
f 40//40 48//48 41//41
f 40//40 49//49 48//48
f 40//40 50//50 49//49
f 40//40 51//51 50//50
f 40//40 52//52 51//51
f 40//40 47//47 52//52
f 12//12 13//13 53//53
f 12//12 53//53 42//42
f 12//12 42//42 25//25
f 25//25 41//41 48//48
f 25//25 54//54 26//26
f 25//25 48//48 54//54
f 55//55 56//56 57//57
f 55//55 58//58 59//59
f 55//55 59//59 56//56
f 55//55 57//57 60//60
f 55//55 61//61 58//58
f 55//55 60//60 62//62
f 55//55 62//62 61//61
f 13//13 63//63 53//53
f 13//13 17//17 63//63
f 64//64 56//56 59//59
f 64//64 59//59 63//63
f 64//64 57//57 56//56
f 64//64 63//63 17//17
f 64//64 60//60 57//57
f 64//64 17//17 19//19
f 64//64 65//65 66//66
f 64//64 67//67 60//60
f 64//64 19//19 65//65
f 64//64 68//68 67//67
f 64//64 69//69 68//68
f 64//64 70//70 71//71
f 64//64 66//66 72//72
f 64//64 71//71 69//69
f 64//64 72//72 73//73
f 64//64 74//74 70//70
f 64//64 75//75 74//74
f 64//64 73//73 75//75
f 58//58 76//76 59//59
f 58//58 77//77 76//76
f 58//58 61//61 77//77
f 43//43 42//42 59//59
f 43//43 59//59 44//44
f 44//44 78//78 79//79
f 44//44 59//59 78//78
f 44//44 80//80 45//45
f 44//44 79//79 81//81
f 44//44 81//81 82//82
f 44//44 82//82 83//83
f 44//44 83//83 80//80
f 78//78 76//76 79//79
f 78//78 59//59 76//76
f 76//76 77//77 79//79
f 53//53 63//63 42//42
f 42//42 63//63 59//59
f 31//31 33//33 34//34
f 31//31 84//84 32//32
f 31//31 34//34 84//84
f 46//46 45//45 47//47
f 84//84 34//34 85//85
f 84//84 86//86 32//32
f 84//84 85//85 86//86
f 34//34 37//37 85//85
f 54//54 48//48 49//49
f 54//54 49//49 26//26
f 45//45 80//80 87//87
f 45//45 88//88 89//89
f 45//45 87//87 88//88
f 45//45 89//89 47//47
f 86//86 85//85 90//90
f 86//86 91//91 92//92
f 86//86 90//90 91//91
f 86//86 92//92 32//32
f 85//85 37//37 90//90
f 77//77 61//61 79//79
f 80//80 83//83 87//87
f 79//79 61//61 81//81
f 26//26 49//49 50//50
f 26//26 50//50 27//27
f 88//88 87//87 93//93
f 88//88 94//94 89//89
f 88//88 93//93 94//94
f 91//91 90//90 95//95
f 91//91 96//96 92//92
f 91//91 95//95 96//96
f 90//90 37//37 95//95
f 61//61 62//62 81//81
f 87//87 97//97 93//93
f 87//87 83//83 97//97
f 81//81 62//62 82//82
f 11//11 27//27 98//98
f 11//11 98//98 14//14
f 27//27 50//50 51//51
f 27//27 99//99 98//98
f 27//27 51//51 99//99
f 94//94 93//93 100//100
f 94//94 101//101 89//89
f 94//94 100//100 101//101
f 15//15 16//16 102//102
f 15//15 103//103 3//3
f 15//15 102//102 103//103
f 16//16 14//14 98//98
f 16//16 98//98 102//102
f 3//3 104//104 105//105
f 3//3 103//103 104//104
f 3//3 105//105 4//4
f 104//104 103//103 106//106
f 104//104 106//106 105//105
f 98//98 99//99 107//107
f 98//98 107//107 102//102
f 103//103 102//102 107//107
f 103//103 107//107 108//108
f 103//103 108//108 106//106
f 96//96 95//95 109//109
f 96//96 110//110 92//92
f 96//96 109//109 110//110
f 95//95 37//37 109//109
f 60//60 67//67 111//111
f 60//60 111//111 62//62
f 62//62 111//111 82//82
f 93//93 97//97 83//83
f 93//93 112//112 100//100
f 93//93 83//83 112//112
f 82//82 111//111 83//83
f 18//18 20//20 19//19
f 99//99 51//51 52//52
f 99//99 113//113 107//107
f 99//99 52//52 113//113
f 101//101 100//100 114//114
f 101//101 115//115 89//89
f 101//101 114//114 115//115
f 4//4 105//105 116//116
f 4//4 116//116 5//5
f 105//105 106//106 117//117
f 105//105 117//117 116//116
f 107//107 113//113 108//108
f 106//106 108//108 118//118
f 106//106 118//118 117//117
f 110//110 109//109 119//119
f 110//110 120//120 92//92
f 110//110 119//119 120//120
f 109//109 37//37 119//119
f 65//65 19//19 121//121
f 65//65 121//121 66//66
f 67//67 68//68 122//122
f 67//67 122//122 111//111
f 19//19 20//20 123//123
f 19//19 123//123 121//121
f 111//111 122//122 83//83
f 100//100 112//112 124//124
f 100//100 124//124 114//114
f 112//112 83//83 125//125
f 112//112 125//125 124//124
f 83//83 122//122 125//125
f 20//20 21//21 123//123
f 113//113 52//52 47//47
f 113//113 126//126 108//108
f 113//113 47//47 126//126
f 115//115 114//114 127//127
f 115//115 127//127 89//89
f 5//5 116//116 128//128
f 5//5 128//128 6//6
f 116//116 117//117 129//129
f 116//116 129//129 128//128
f 108//108 126//126 118//118
f 117//117 118//118 130//130
f 117//117 130//130 129//129
f 120//120 119//119 131//131
f 120//120 132//132 92//92
f 120//120 131//131 132//132
f 119//119 37//37 133//133
f 119//119 133//133 131//131
f 121//121 123//123 134//134
f 121//121 134//134 135//135
f 121//121 135//135 66//66
f 68//68 69//69 136//136
f 68//68 136//136 122//122
f 123//123 21//21 137//137
f 123//123 137//137 134//134
f 122//122 136//136 125//125
f 114//114 124//124 138//138
f 114//114 138//138 127//127
f 124//124 125//125 139//139
f 124//124 139//139 138//138
f 125//125 136//136 140//140
f 125//125 140//140 139//139
f 141//141 142//142 143//143
f 141//141 144//144 145//145
f 141//141 145//145 142//142
f 141//141 146//146 144//144
f 141//141 147//147 148//148
f 141//141 143//143 147//147
f 141//141 148//148 149//149
f 141//141 149//149 146//146
f 150//150 142//142 145//145
f 150//150 151//151 152//152
f 150//150 145//145 151//151
f 150//150 153//153 143//143
f 150//150 143//143 142//142
f 150//150 152//152 153//153
f 21//21 23//23 154//154
f 21//21 154//154 137//137
f 126//126 47//47 155//155
f 126//126 155//155 118//118
f 127//127 138//138 30//30
f 127//127 156//156 89//89
f 127//127 30//30 156//156
f 47//47 89//89 155//155
f 157//157 131//131 133//133
f 157//157 158//158 159//159
f 157//157 159//159 131//131
f 157//157 160//160 158//158
f 157//157 133//133 160//160
f 6//6 128//128 161//161
f 6//6 162//162 7//7
f 6//6 161//161 162//162
f 128//128 129//129 163//163
f 128//128 163//163 161//161
f 118//118 155//155 130//130
f 129//129 35//35 163//163
f 129//129 130//130 164//164
f 129//129 164//164 35//35
f 132//132 131//131 159//159
f 132//132 165//165 92//92
f 132//132 166//166 165//165
f 132//132 159//159 166//166
f 32//32 92//92 167//167
f 32//32 167//167 35//35
f 35//35 167//167 163//163
f 35//35 164//164 36//36
f 134//134 137//137 168//168
f 134//134 169//169 135//135
f 134//134 168//168 169//169
f 69//69 71//71 170//170
f 69//69 170//170 136//136
f 137//137 154//154 168//168
f 171//171 172//172 173//173
f 171//171 174//174 144//144
f 171//171 144//144 175//175
f 171//171 175//175 172//172
f 171//171 173//173 174//174
f 172//172 136//136 176//176
f 172//172 140//140 136//136
f 172//172 175//175 140//140
f 172//172 177//177 173//173
f 172//172 176//176 177//177
f 174//174 178//178 144//144
f 174//174 179//179 178//178
f 174//174 173//173 180//180
f 174//174 180//180 179//179
f 178//178 179//179 151//151
f 178//178 151//151 145//145
f 178//178 145//145 144//144
f 136//136 170//170 176//176
f 138//138 139//139 181//181
f 138//138 181//181 30//30
f 139//139 140//140 181//181
f 140//140 175//175 146//146
f 140//140 182//182 181//181
f 140//140 146//146 148//148
f 140//140 148//148 182//182
f 144//144 146//146 175//175
f 169//169 168//168 183//183
f 169//169 183//183 184//184
f 169//169 184//184 135//135
f 179//179 180//180 185//185
f 179//179 185//185 151//151
f 151//151 185//185 152//152
f 22//22 24//24 183//183
f 22//22 168//168 154//154
f 22//22 154//154 23//23
f 22//22 183//183 168//168
f 155//155 89//89 186//186
f 155//155 186//186 130//130
f 156//156 30//30 38//38
f 156//156 38//38 89//89
f 30//30 181//181 160//160
f 30//30 160//160 133//133
f 30//30 133//133 37//37
f 89//89 38//38 186//186
f 158//158 160//160 187//187
f 158//158 188//188 189//189
f 158//158 187//187 188//188
f 158//158 189//189 159//159
f 24//24 9//9 184//184
f 24//24 184//184 183//183
f 162//162 161//161 190//190
f 162//162 191//191 7//7
f 162//162 190//190 191//191
f 7//7 191//191 8//8
f 8//8 72//72 184//184
f 8//8 191//191 192//192
f 8//8 192//192 72//72
f 8//8 184//184 9//9
f 161//161 163//163 92//92
f 161//161 92//92 190//190
f 130//130 186//186 164//164
f 163//163 167//167 92//92
f 165//165 166//166 193//193
f 165//165 193//193 194//194
f 165//165 194//194 92//92
f 166//166 159//159 189//189
f 166//166 195//195 193//193
f 166//166 189//189 195//195
f 92//92 194//194 190//190
f 70//70 176//176 71//71
f 70//70 74//74 196//196
f 70//70 196//196 176//176
f 66//66 135//135 72//72
f 71//71 176//176 170//170
f 177//177 176//176 196//196
f 177//177 196//196 173//173
f 173//173 196//196 197//197
f 173//173 197//197 180//180
f 181//181 182//182 148//148
f 181//181 148//148 160//160
f 146//146 149//149 148//148
f 147//147 143//143 198//198
f 147//147 199//199 200//200
f 147//147 200//200 148//148
f 147//147 198//198 199//199
f 201//201 202//202 203//203
f 201//201 180//180 197//197
f 201//201 203//203 180//180
f 201//201 75//75 202//202
f 201//201 197//197 75//75
f 72//72 202//202 75//75
f 72//72 204//204 202//202
f 72//72 135//135 184//184
f 72//72 192//192 204//204
f 72//72 75//75 73//73
f 202//202 204//204 203//203
f 180//180 203//203 152//152
f 180//180 152//152 185//185
f 204//204 192//192 205//205
f 204//204 205//205 206//206
f 204//204 207//207 152//152
f 204//204 152//152 203//203
f 204//204 206//206 207//207
f 153//153 152//152 198//198
f 153//153 198//198 143//143
f 186//186 38//38 164//164
f 160//160 148//148 187//187
f 38//38 36//36 164//164
f 188//188 187//187 200//200
f 188//188 199//199 189//189
f 188//188 200//200 199//199
f 187//187 148//148 200//200
f 191//191 190//190 208//208
f 191//191 208//208 192//192
f 190//190 194//194 208//208
f 193//193 195//195 207//207
f 193//193 207//207 206//206
f 193//193 206//206 194//194
f 195//195 189//189 198//198
f 195//195 152//152 207//207
f 195//195 198//198 152//152
f 194//194 206//206 208//208
f 189//189 199//199 198//198
f 74//74 75//75 196//196
f 196//196 75//75 197//197
f 192//192 208//208 205//205
f 208//208 206//206 205//205
# 412 faces, 0 coords texture

# End of File
