####
#
# OBJ File Generated by Meshlab
#
####
# Object zonopy_mesh_step16_link3.obj
#
# Vertices: 112
# Faces: 220
#
####
vn 6.242220 -0.339667 0.265367
v 0.041558 -0.210043 0.358631
vn 3.274017 1.349605 -2.504665
v 0.041558 -0.209805 0.358461
vn 6.245748 0.355936 0.174469
v 0.041558 -0.209805 0.358631
vn 2.828359 -2.903381 -1.383420
v 0.014930 -0.427632 0.486765
vn 3.747237 -0.745870 -2.840439
v 0.041558 -0.210043 0.358461
vn 6.205796 -0.084537 0.882735
v 0.035027 -0.162839 0.437328
vn 3.163641 -3.111210 0.951729
v 0.014930 -0.427632 0.486935
vn 2.496372 -1.447774 2.857858
v 0.008399 -0.380429 0.565632
vn 2.956496 0.722611 3.628409
v 0.008399 -0.380191 0.565632
vn 0.672940 -2.625292 4.797671
v -0.036267 -0.386554 0.569154
vn 0.909428 -4.214524 4.340606
v -0.036015 -0.386523 0.569133
vn 0.891689 -5.721640 1.671369
v -0.025743 -0.434470 0.491354
vn 0.795928 -3.329462 4.711030
v -0.036147 -0.386540 0.569144
vn 1.090677 -5.718245 1.627179
v -0.025447 -0.434427 0.491321
vn 1.037365 -5.718581 1.640596
v -0.025557 -0.434444 0.491334
vn 0.972426 -5.720302 1.655574
v -0.025655 -0.434458 0.491345
vn 3.669351 3.377723 -0.698023
v 0.035027 -0.162602 0.437158
vn 1.944038 0.607949 -5.905827
v 0.022124 -0.203529 0.352627
vn 2.021148 2.495763 -4.444568
v 0.022081 -0.203513 0.352615
vn 1.056822 -6.189789 0.153498
v -0.025195 -0.434386 0.491290
vn 1.052725 -6.193759 -0.059670
v -0.025195 -0.434386 0.478691
vn 1.119738 -6.139151 -0.503536
v -0.025327 -0.434408 0.478658
vn 1.186452 -5.966851 -1.080723
v -0.025447 -0.434427 0.478628
vn 1.241146 -5.515811 -1.851931
v -0.025557 -0.434444 0.478602
vn 1.219823 -4.773445 -2.537572
v -0.025655 -0.434458 0.478579
vn 2.795695 -2.899676 -4.815083
v 0.022224 -0.219102 0.352659
vn 1.403770 -1.732211 -5.576542
v 0.022013 -0.219175 0.352599
vn 2.451524 -1.985896 -5.262599
v 0.022171 -0.219123 0.352641
vn 2.176347 -1.594657 -5.383074
v 0.022124 -0.219141 0.352627
vn 1.977730 -1.609980 -5.441227
v 0.022081 -0.219156 0.352615
vn 1.697536 -1.640210 -5.514743
v 0.022045 -0.219167 0.352605
vn 3.148665 2.517694 1.512920
v 0.035027 -0.162602 0.437328
vn 1.658954 4.421638 2.682831
v 0.011306 -0.155603 0.443252
vn 2.148636 3.376976 4.782991
v 0.011397 -0.155635 0.443236
vn 2.016145 4.118345 3.784282
v 0.011348 -0.155617 0.443245
vn 1.788881 2.552923 -4.441659
v 0.022045 -0.203500 0.352605
vn 1.959146 5.572349 -1.454602
v 0.011306 -0.155603 0.430417
vn 1.122679 -5.793838 1.488889
v -0.025327 -0.434408 0.491306
vn 0.507574 0.097875 6.260955
v -0.036267 -0.371025 0.569154
vn 0.529070 0.270990 6.248249
v -0.036374 -0.370992 0.569162
vn 0.601280 0.805400 6.141648
v -0.036469 -0.370964 0.569169
vn 0.678493 1.454023 5.868719
v -0.036552 -0.370940 0.569174
vn 1.328584 4.457105 2.682572
v 0.011270 -0.155593 0.443256
vn 0.591261 1.496521 5.849995
v -0.036623 -0.370922 0.569177
vn 0.784164 -5.731956 1.674526
v -0.025819 -0.434479 0.491361
vn 0.628838 -2.629107 4.798225
v -0.036374 -0.386566 0.569162
vn 0.558768 -2.631698 4.793081
v -0.036469 -0.386575 0.569169
vn 0.634267 -5.748310 1.673456
v -0.025884 -0.434486 0.491366
vn 1.152827 -4.766833 -2.550893
v -0.025743 -0.434470 0.478559
vn 0.466255 -2.644790 4.789369
v -0.036552 -0.386583 0.569174
vn 1.037090 -4.761457 -2.570516
v -0.025819 -0.434479 0.478544
vn 0.345846 -2.649994 4.781347
v -0.036623 -0.386588 0.569177
vn 0.412604 -5.762398 1.668537
v -0.025939 -0.434490 0.491369
vn 0.878771 -4.756960 -2.594693
v -0.025884 -0.434486 0.478531
vn 0.157016 -2.660157 4.759781
v -0.036682 -0.386591 0.569179
vn 1.641176 5.626961 -1.490497
v 0.011270 -0.155593 0.430409
vn 1.505605 2.662962 -4.486770
v 0.022013 -0.203492 0.352599
vn 0.646257 -4.737407 -2.623010
v -0.025939 -0.434490 0.478522
vn 1.033850 -2.464971 -5.583778
v 0.021987 -0.219179 0.352595
vn 0.774405 4.515071 2.680128
v 0.011240 -0.155586 0.443258
vn 0.401647 1.523850 5.847222
v -0.036682 -0.370908 0.569179
vn 0.000000 0.000000 6.283185
v -0.051343 -0.370908 0.569179
vn 0.000000 0.000000 6.283185
v -0.051343 -0.386591 0.569179
vn 0.022190 -2.681753 4.777739
v -0.036729 -0.386592 0.569179
vn -0.106170 1.149971 6.036865
v -0.051388 -0.370899 0.569179
vn -0.222188 -2.657475 4.704009
v -0.051388 -0.386592 0.569179
vn 0.171475 1.622587 5.824329
v -0.036729 -0.370899 0.569179
vn 0.140330 -5.784604 1.653857
v -0.025982 -0.434492 0.491370
vn 1.150192 5.720104 -1.490440
v 0.011240 -0.155586 0.430404
vn 0.523231 -1.520752 -5.730738
v -0.070663 -0.209505 0.333843
vn 1.361901 4.396322 -4.035206
v 0.021987 -0.203486 0.352595
vn 0.596992 2.575426 -4.551206
v -0.070663 -0.193810 0.333843
vn 0.421991 -4.768319 -2.621752
v -0.025982 -0.434492 0.478517
vn 0.024573 2.807544 5.604351
v -0.036763 -0.370895 0.569177
vn -0.603439 1.576297 5.728099
v -0.051415 -0.370895 0.569177
vn -0.802670 -2.594119 4.600451
v -0.051415 -0.386591 0.569177
vn 0.439219 5.704373 -1.663583
v -0.081412 -0.145909 0.411651
vn -0.126190 -5.792476 1.648083
v -0.040641 -0.434492 0.491370
vn 0.183813 5.923563 1.337761
v -0.081412 -0.145909 0.424505
vn 0.365975 -4.426958 -4.097930
v -0.118613 -0.424819 0.459769
vn 0.030669 -5.646477 -2.717412
v -0.026015 -0.434491 0.478515
vn -0.393936 -5.902115 -1.420136
v -0.133272 -0.424819 0.459769
vn 0.182688 -4.293906 -4.197923
v -0.118644 -0.424816 0.459763
vn -0.233915 -5.922737 -1.371423
v -0.040666 -0.434491 0.478515
vn -0.055871 -6.063172 -1.118890
v -0.040641 -0.434492 0.478517
vn 0.327226 4.671179 2.917216
v 0.011217 -0.155584 0.443257
vn -0.578279 -5.733332 1.644336
v -0.040666 -0.434491 0.491369
vn -1.314133 -2.656810 4.573444
v -0.144018 -0.376920 0.550431
vn -1.019528 -5.756811 1.544329
v -0.133272 -0.424819 0.472622
vn -1.230952 0.474015 6.120352
v -0.144018 -0.361227 0.550431
vn -2.333933 -2.316512 3.812774
v -0.144044 -0.376916 0.550425
vn -2.335321 -5.036128 1.288434
v -0.133295 -0.424816 0.472617
vn -2.091018 1.582011 5.077794
v -0.144044 -0.361220 0.550425
vn -1.389309 -4.162906 -2.354936
v -0.133295 -0.424816 0.459763
vn -0.805918 5.596285 -1.475786
v -0.096063 -0.145909 0.411651
vn -1.227262 2.841804 -4.090513
v -0.085315 -0.193810 0.333843
vn -3.308766 3.174254 -1.272510
v -0.096065 -0.145910 0.411651
vn -1.921034 3.685314 2.012061
v -0.096063 -0.145909 0.424505
vn -4.060893 3.515927 0.412047
v -0.096065 -0.145910 0.424501
vn -1.862102 -1.430751 -4.893103
v -0.085315 -0.209505 0.333843
vn -4.387127 -1.260320 2.232442
v -0.144052 -0.376911 0.550420
vn -0.183519 4.299615 4.186226
v -0.003434 -0.155584 0.443257
vn 0.010768 -0.070460 -6.282225
v -0.070678 -0.209502 0.333843
vn -3.361403 -2.228965 -2.020392
v -0.133302 -0.424812 0.459762
vn -2.909680 -0.165018 -4.234982
v -0.085316 -0.209502 0.333843
vn 0.009735 0.274278 -6.270634
v -0.070678 -0.193811 0.333843
vn -2.813518 0.976082 -3.472450
v -0.085316 -0.193811 0.333843
vn -4.302776 1.121005 2.487859
v -0.144052 -0.361220 0.550420
vn -4.729201 -3.270375 0.450750
v -0.133302 -0.424812 0.472612
vn -6.043121 0.159987 -1.519612
v -0.133302 -0.409121 0.459762
vn -6.155351 0.614521 -0.450122
v -0.144052 -0.361220 0.537570
vn -6.185429 -0.564673 -0.289924
v -0.144052 -0.376911 0.537570
# 112 vertices, 0 vertices normals

f 1//1 2//2 3//3
f 1//1 4//4 5//5
f 1//1 6//6 7//7
f 1//1 7//7 4//4
f 1//1 5//5 2//2
f 1//1 3//3 6//6
f 8//8 6//6 9//9
f 8//8 7//7 6//6
f 8//8 9//9 10//10
f 8//8 11//11 12//12
f 8//8 13//13 11//11
f 8//8 14//14 7//7
f 8//8 10//10 13//13
f 8//8 15//15 14//14
f 8//8 16//16 15//15
f 8//8 12//12 16//16
f 2//2 17//17 3//3
f 2//2 5//5 18//18
f 2//2 18//18 19//19
f 2//2 19//19 17//17
f 4//4 7//7 20//20
f 4//4 21//21 22//22
f 4//4 20//20 21//21
f 4//4 22//22 23//23
f 4//4 23//23 24//24
f 4//4 24//24 25//25
f 4//4 26//26 5//5
f 4//4 25//25 27//27
f 4//4 28//28 26//26
f 4//4 29//29 28//28
f 4//4 30//30 29//29
f 4//4 31//31 30//30
f 4//4 27//27 31//31
f 32//32 6//6 3//3
f 32//32 17//17 33//33
f 32//32 3//3 17//17
f 32//32 9//9 6//6
f 32//32 34//34 9//9
f 32//32 35//35 34//34
f 32//32 33//33 35//35
f 17//17 19//19 36//36
f 17//17 37//37 33//33
f 17//17 36//36 37//37
f 7//7 38//38 20//20
f 7//7 14//14 38//38
f 5//5 26//26 28//28
f 5//5 28//28 29//29
f 5//5 29//29 18//18
f 9//9 39//39 10//10
f 9//9 40//40 39//39
f 9//9 34//34 35//35
f 9//9 41//41 40//40
f 9//9 35//35 33//33
f 9//9 42//42 41//41
f 9//9 33//33 43//43
f 9//9 44//44 42//42
f 9//9 43//43 44//44
f 21//21 20//20 38//38
f 21//21 38//38 22//22
f 11//11 13//13 12//12
f 22//22 38//38 14//14
f 22//22 14//14 23//23
f 13//13 10//10 45//45
f 13//13 45//45 12//12
f 23//23 14//14 15//15
f 23//23 15//15 24//24
f 10//10 39//39 46//46
f 10//10 46//46 45//45
f 24//24 15//15 16//16
f 24//24 16//16 25//25
f 39//39 40//40 46//46
f 46//46 40//40 47//47
f 46//46 47//47 48//48
f 46//46 48//48 45//45
f 25//25 16//16 12//12
f 25//25 49//49 27//27
f 25//25 12//12 49//49
f 40//40 41//41 47//47
f 47//47 41//41 50//50
f 47//47 50//50 48//48
f 18//18 29//29 30//30
f 18//18 30//30 19//19
f 49//49 12//12 45//45
f 49//49 51//51 27//27
f 49//49 45//45 51//51
f 41//41 42//42 50//50
f 50//50 42//42 52//52
f 50//50 52//52 53//53
f 50//50 53//53 48//48
f 19//19 30//30 31//31
f 19//19 31//31 36//36
f 51//51 45//45 48//48
f 51//51 54//54 27//27
f 51//51 48//48 54//54
f 42//42 44//44 52//52
f 52//52 44//44 55//55
f 52//52 55//55 53//53
f 37//37 36//36 56//56
f 37//37 56//56 43//43
f 37//37 43//43 33//33
f 36//36 31//31 27//27
f 36//36 57//57 56//56
f 36//36 27//27 57//57
f 54//54 48//48 53//53
f 54//54 58//58 59//59
f 54//54 53//53 58//58
f 54//54 59//59 27//27
f 44//44 43//43 60//60
f 44//44 61//61 55//55
f 44//44 60//60 61//61
f 62//62 63//63 64//64
f 62//62 65//65 66//66
f 62//62 64//64 67//67
f 62//62 66//66 63//63
f 62//62 67//67 65//65
f 55//55 61//61 64//64
f 55//55 64//64 68//68
f 55//55 68//68 53//53
f 56//56 57//57 69//69
f 56//56 69//69 60//60
f 56//56 60//60 43//43
f 57//57 27//27 70//70
f 57//57 71//71 69//69
f 57//57 70//70 72//72
f 57//57 72//72 71//71
f 58//58 53//53 68//68
f 58//58 73//73 59//59
f 58//58 68//68 73//73
f 27//27 59//59 70//70
f 63//63 66//66 64//64
f 61//61 60//60 67//67
f 61//61 67//67 64//64
f 65//65 67//67 74//74
f 65//65 75//75 76//76
f 65//65 76//76 66//66
f 65//65 74//74 75//75
f 71//71 77//77 69//69
f 71//71 72//72 77//77
f 64//64 78//78 68//68
f 64//64 66//66 78//78
f 69//69 79//79 60//60
f 69//69 77//77 79//79
f 80//80 73//73 81//81
f 80//80 82//82 83//83
f 80//80 83//83 70//70
f 80//80 81//81 84//84
f 80//80 70//70 73//73
f 80//80 84//84 82//82
f 73//73 78//78 85//85
f 73//73 85//85 81//81
f 73//73 68//68 78//78
f 73//73 70//70 59//59
f 60//60 86//86 67//67
f 60//60 79//79 86//86
f 78//78 66//66 87//87
f 78//78 87//87 85//85
f 88//88 89//89 87//87
f 88//88 90//90 91//91
f 88//88 91//91 92//92
f 88//88 87//87 76//76
f 88//88 75//75 90//90
f 88//88 92//92 89//89
f 88//88 76//76 75//75
f 85//85 87//87 84//84
f 85//85 84//84 81//81
f 89//89 82//82 84//84
f 89//89 84//84 87//87
f 89//89 92//92 82//82
f 90//90 75//75 93//93
f 90//90 93//93 91//91
f 66//66 76//76 87//87
f 67//67 86//86 74//74
f 82//82 92//92 94//94
f 82//82 94//94 83//83
f 95//95 77//77 96//96
f 95//95 96//96 97//97
f 95//95 98//98 77//77
f 95//95 97//97 99//99
f 95//95 99//99 98//98
f 83//83 100//100 70//70
f 83//83 94//94 100//100
f 91//91 93//93 101//101
f 91//91 101//101 92//92
f 102//102 86//86 79//79
f 102//102 79//79 98//98
f 102//102 98//98 93//93
f 102//102 75//75 74//74
f 102//102 93//93 75//75
f 102//102 74//74 86//86
f 70//70 100//100 103//103
f 70//70 103//103 72//72
f 100//100 94//94 104//104
f 100//100 105//105 103//103
f 100//100 104//104 105//105
f 79//79 77//77 98//98
f 77//77 72//72 96//96
f 96//96 72//72 106//106
f 96//96 107//107 97//97
f 96//96 106//106 107//107
f 98//98 99//99 108//108
f 98//98 108//108 93//93
f 92//92 101//101 109//109
f 92//92 109//109 94//94
f 72//72 103//103 106//106
f 93//93 108//108 101//101
f 94//94 109//109 104//104
f 103//103 105//105 107//107
f 103//103 107//107 106//106
f 110//110 97//97 107//107
f 110//110 105//105 104//104
f 110//110 107//107 105//105
f 110//110 111//111 97//97
f 110//110 112//112 111//111
f 110//110 104//104 112//112
f 101//101 111//111 112//112
f 101//101 112//112 109//109
f 101//101 108//108 111//111
f 97//97 111//111 99//99
f 99//99 111//111 108//108
f 112//112 104//104 109//109
# 220 faces, 0 coords texture

# End of File
