####
#
# OBJ File Generated by Meshlab
#
####
# Object zonomesh_2.obj
#
# Vertices: 8
# Faces: 12
#
####
vn 0.022247 -0.406204 -0.730448
v -0.070178 -1.969592 -3.055347
vn -1.066978 -1.635718 -0.027820
v -0.516023 -2.032010 -2.272983
vn -1.562796 -0.031205 0.782763
v -0.779556 -1.285010 -1.541589
vn -2.812450 3.104597 -3.030879
v -0.333711 -1.222592 -2.323954
vn 1.066978 1.635718 0.027820
v 0.469101 -0.506646 -1.660456
vn 1.562796 0.031205 -0.782763
v 0.732634 -1.253646 -2.391850
vn 2.812450 -3.104597 3.030879
v 0.286789 -1.316065 -1.609486
vn -0.022247 0.406204 0.730448
v 0.023256 -0.569065 -0.878092
# 8 vertices, 0 vertices normals

f 1//1 2//2 3//3
f 1//1 4//4 5//5
f 1//1 3//3 4//4
f 1//1 6//6 2//2
f 1//1 5//5 6//6
f 2//2 6//6 7//7
f 2//2 7//7 3//3
f 4//4 3//3 5//5
f 3//3 7//7 8//8
f 3//3 8//8 5//5
f 6//6 5//5 7//7
f 7//7 5//5 8//8
# 12 faces, 0 coords texture

# End of File
