####
#
# OBJ File Generated by Meshlab
#
####
# Object zonopy_mesh_step11_link2.obj
#
# Vertices: 82
# Faces: 160
#
####
vn 6.103028 0.354842 -0.794240
v 0.104261 -0.201659 0.354079
vn 4.935893 -2.330783 0.768219
v 0.104261 -0.201836 0.354134
vn 4.388689 -2.000743 -1.586662
v 0.104261 -0.201836 0.354079
vn 4.612396 -0.165845 -3.617328
v 0.061259 0.018675 0.218572
vn 6.219179 0.452497 0.255027
v 0.104261 -0.201659 0.354134
vn 2.645796 2.100292 -2.364943
v 0.061259 0.030384 0.218572
vn 5.296109 2.572758 -0.848503
v 0.056502 0.074247 0.299302
vn 2.372608 2.674606 1.972965
v 0.056502 0.074247 0.308770
vn 3.893681 -0.765121 3.089157
v 0.095119 -0.157976 0.434488
vn 3.235403 1.171082 2.947641
v 0.095119 -0.157799 0.434488
vn 1.319901 1.381772 5.773149
v 0.082141 -0.161993 0.438634
vn 4.728591 -3.240812 2.561003
v 0.082231 -0.173599 0.438599
vn 4.404493 -2.854370 3.259888
v 0.082203 -0.173629 0.438611
vn 3.869396 -2.377907 3.825537
v 0.082179 -0.173655 0.438620
vn 3.235492 -1.936521 4.136213
v 0.082158 -0.173677 0.438628
vn 2.906543 -2.001687 4.192827
v 0.082141 -0.173693 0.438634
vn 0.842579 1.517005 5.752314
v 0.082126 -0.161996 0.438637
vn 4.229458 -4.641625 0.145271
v 0.087102 -0.217390 0.357845
vn 4.224102 -4.557807 0.635580
v 0.087057 -0.217430 0.357859
vn 4.139579 -4.387554 1.202921
v 0.087017 -0.217465 0.357872
vn 4.258400 -4.598114 -0.308375
v 0.087102 -0.217390 0.348516
vn 4.220185 -4.236841 -1.311040
v 0.087057 -0.217430 0.348500
vn 3.871772 -3.574010 -2.252750
v 0.087017 -0.217465 0.348485
vn 3.744433 -3.515553 -2.359463
v 0.086982 -0.217495 0.348473
vn 2.152178 -1.178964 -4.699919
v 0.061257 0.018670 0.218571
vn 4.071364 -4.433408 1.224892
v 0.086982 -0.217495 0.357882
vn 3.960263 -4.518337 1.244943
v 0.086951 -0.217521 0.357891
vn 3.627054 -3.576197 -2.391086
v 0.086951 -0.217521 0.348462
vn 3.799141 -4.631980 1.272123
v 0.086924 -0.217542 0.357898
vn 2.353207 -2.212423 4.249349
v 0.082126 -0.173705 0.438637
vn 3.458171 -3.662904 -2.427259
v 0.086924 -0.217542 0.348454
vn 3.533652 -4.799368 1.312803
v 0.086902 -0.217558 0.357903
vn 3.183756 -3.784212 -2.477255
v 0.086902 -0.217558 0.348448
vn -0.350981 6.259457 0.095527
v 0.045758 0.074249 0.308761
vn 0.065033 6.277442 -0.142643
v 0.056498 0.074249 0.299305
vn -0.366098 6.247596 -0.223973
v 0.045758 0.074249 0.299305
vn -0.763394 6.053897 -0.984566
v -0.048684 0.064008 0.299303
vn 0.077569 6.280992 0.052390
v 0.056498 0.074249 0.308761
vn -0.374683 5.984672 1.284409
v 0.045759 0.074248 0.308767
vn -0.851445 4.409678 2.759644
v -0.048684 0.064008 0.308770
vn 2.984065 -5.073196 1.375589
v 0.086884 -0.217569 0.357907
vn 2.331286 4.354033 -0.952389
v 0.056502 0.074248 0.299303
vn -0.289251 5.839255 -1.688114
v 0.045759 0.074248 0.299303
vn 2.631623 -3.973110 -2.533824
v 0.086884 -0.217569 0.348443
vn 2.454409 4.521616 0.602545
v 0.056502 0.074248 0.308767
vn 0.303041 1.374743 5.863396
v 0.082114 -0.161999 0.438639
vn 1.305226 -2.514729 4.289672
v 0.082114 -0.173711 0.438639
vn -0.172816 4.428796 3.797085
v 0.045761 0.074247 0.308770
vn 1.870034 -5.435515 1.460172
v 0.086870 -0.217576 0.357909
vn 1.033653 1.861564 -4.891548
v 0.061257 0.030383 0.218571
vn -5.786245 1.525295 -0.540221
v -0.048689 0.064004 0.299303
vn -6.261036 -0.284680 -0.121666
v -0.048689 0.052295 0.299303
vn -6.210857 -0.223195 0.509011
v -0.048689 0.052295 0.308767
vn -5.703760 1.263690 0.914835
v -0.048689 0.064004 0.308767
vn -2.806935 4.087835 -1.174868
v -0.048687 0.064008 0.299302
vn -2.282226 1.334522 -2.601251
v -0.043932 0.020143 0.218572
vn -0.282346 5.096417 -3.553182
v 0.050516 0.030384 0.218572
vn -0.119688 2.409937 -5.150912
v 0.050517 0.030383 0.218571
vn -0.665092 5.158763 -3.460092
v -0.043930 0.020144 0.218572
vn -2.633603 -0.880380 -2.927526
v -0.043932 0.008431 0.218572
vn -2.334320 -2.622597 -1.568208
v -0.018324 -0.227815 0.348441
vn -3.051981 -3.321415 0.776369
v -0.018324 -0.227815 0.357909
vn -2.269430 -1.428514 2.504353
v -0.023078 -0.183950 0.438640
vn -2.687033 0.730958 3.574217
v -0.023078 -0.172238 0.438640
vn 1.568937 -4.194915 -2.584412
v 0.086870 -0.217576 0.348441
vn -2.608491 3.029708 1.856164
v -0.048687 0.064008 0.308770
vn -0.081185 1.551342 5.871504
v 0.071374 -0.161999 0.438639
vn 0.000005 0.000088 6.283185
v -0.012334 -0.172238 0.438640
vn -0.191387 1.509758 5.889894
v -0.023075 -0.172238 0.438640
vn 0.148552 -2.795992 4.561554
v -0.012334 -0.183951 0.438640
vn -0.243563 -2.818547 4.495991
v -0.023075 -0.183951 0.438640
vn -0.395348 -5.821007 1.466969
v -0.018320 -0.227815 0.357909
vn 0.000000 0.000000 6.283185
v -0.012343 -0.183950 0.438640
vn 0.317835 -5.837571 1.478569
v -0.007579 -0.227815 0.357909
vn 0.496561 -2.766360 4.537557
v 0.082107 -0.173713 0.438639
vn 0.250465 -4.592449 -2.671897
v -0.007579 -0.227815 0.348441
vn 0.081186 -1.551342 -5.871504
v -0.033191 0.008431 0.218572
vn 0.735485 -4.534743 -2.683444
v 0.086861 -0.217578 0.348441
vn -0.264817 -4.610501 -2.636364
v -0.018320 -0.227815 0.348441
vn 0.908092 -5.783183 1.476008
v 0.086861 -0.217578 0.357908
vn -0.000005 -0.000088 -6.283185
v 0.050517 0.018670 0.218571
vn 0.000000 0.000000 6.283185
v -0.012343 -0.172238 0.438640
# 82 vertices, 0 vertices normals

f 1//1 2//2 3//3
f 1//1 3//3 4//4
f 1//1 5//5 2//2
f 1//1 4//4 6//6
f 1//1 6//6 7//7
f 1//1 7//7 8//8
f 1//1 8//8 5//5
f 9//9 10//10 11//11
f 9//9 2//2 5//5
f 9//9 5//5 10//10
f 9//9 12//12 2//2
f 9//9 13//13 12//12
f 9//9 14//14 13//13
f 9//9 15//15 14//14
f 9//9 16//16 15//15
f 9//9 11//11 16//16
f 10//10 5//5 8//8
f 10//10 17//17 11//11
f 10//10 8//8 17//17
f 2//2 18//18 3//3
f 2//2 19//19 18//18
f 2//2 12//12 13//13
f 2//2 20//20 19//19
f 2//2 13//13 14//14
f 2//2 14//14 15//15
f 2//2 15//15 16//16
f 2//2 16//16 20//20
f 3//3 18//18 21//21
f 3//3 21//21 22//22
f 3//3 22//22 23//23
f 3//3 23//23 24//24
f 3//3 24//24 25//25
f 3//3 25//25 4//4
f 18//18 19//19 21//21
f 21//21 19//19 22//22
f 19//19 20//20 22//22
f 22//22 20//20 23//23
f 20//20 26//26 23//23
f 20//20 16//16 26//26
f 23//23 26//26 24//24
f 26//26 27//27 24//24
f 26//26 16//16 27//27
f 24//24 27//27 28//28
f 24//24 28//28 25//25
f 27//27 29//29 28//28
f 27//27 16//16 30//30
f 27//27 30//30 29//29
f 28//28 29//29 31//31
f 28//28 31//31 25//25
f 29//29 32//32 31//31
f 29//29 30//30 32//32
f 31//31 32//32 33//33
f 31//31 33//33 25//25
f 16//16 11//11 17//17
f 16//16 17//17 30//30
f 34//34 35//35 36//36
f 34//34 36//36 37//37
f 34//34 38//38 35//35
f 34//34 39//39 38//38
f 34//34 37//37 40//40
f 34//34 40//40 39//39
f 32//32 30//30 41//41
f 32//32 41//41 33//33
f 35//35 38//38 42//42
f 35//35 42//42 43//43
f 35//35 43//43 36//36
f 33//33 41//41 44//44
f 33//33 44//44 25//25
f 36//36 43//43 37//37
f 38//38 39//39 45//45
f 38//38 45//45 42//42
f 30//30 17//17 46//46
f 30//30 46//46 47//47
f 30//30 47//47 41//41
f 39//39 48//48 45//45
f 39//39 40//40 48//48
f 41//41 49//49 44//44
f 41//41 47//47 49//49
f 4//4 25//25 50//50
f 4//4 50//50 6//6
f 51//51 52//52 53//53
f 51//51 53//53 54//54
f 51//51 54//54 55//55
f 51//51 55//55 56//56
f 51//51 56//56 52//52
f 57//57 42//42 6//6
f 57//57 6//6 50//50
f 57//57 43//43 42//42
f 57//57 58//58 56//56
f 57//57 56//56 59//59
f 57//57 50//50 58//58
f 57//57 59//59 43//43
f 52//52 56//56 60//60
f 52//52 60//60 61//61
f 52//52 61//61 53//53
f 42//42 45//45 7//7
f 42//42 7//7 6//6
f 53//53 62//62 63//63
f 53//53 63//63 64//64
f 53//53 64//64 54//54
f 53//53 61//61 62//62
f 17//17 8//8 46//46
f 44//44 49//49 65//65
f 44//44 65//65 25//25
f 43//43 55//55 37//37
f 43//43 59//59 55//55
f 45//45 48//48 8//8
f 45//45 8//8 7//7
f 54//54 66//66 55//55
f 54//54 64//64 66//66
f 48//48 67//67 8//8
f 48//48 40//40 67//67
f 67//67 46//46 8//8
f 67//67 68//68 46//46
f 67//67 69//69 68//68
f 67//67 40//40 69//69
f 70//70 71//71 72//72
f 70//70 68//68 73//73
f 70//70 74//74 75//75
f 70//70 72//72 74//74
f 70//70 47//47 68//68
f 70//70 75//75 47//47
f 70//70 73//73 71//71
f 76//76 77//77 78//78
f 76//76 79//79 77//77
f 76//76 74//74 72//72
f 76//76 72//72 79//79
f 76//76 80//80 74//74
f 76//76 78//78 80//80
f 25//25 58//58 50//50
f 25//25 81//81 58//58
f 25//25 77//77 81//81
f 25//25 65//65 78//78
f 25//25 78//78 77//77
f 71//71 69//69 63//63
f 71//71 62//62 72//72
f 71//71 63//63 62//62
f 71//71 73//73 69//69
f 46//46 68//68 47//47
f 58//58 81//81 56//56
f 55//55 66//66 37//37
f 55//55 59//59 56//56
f 49//49 47//47 75//75
f 49//49 75//75 80//80
f 49//49 80//80 65//65
f 68//68 69//69 82//82
f 68//68 82//82 73//73
f 81//81 77//77 60//60
f 81//81 60//60 56//56
f 69//69 64//64 63//63
f 69//69 40//40 64//64
f 69//69 73//73 82//82
f 77//77 79//79 60//60
f 79//79 72//72 62//62
f 79//79 62//62 61//61
f 79//79 61//61 60//60
f 74//74 80//80 75//75
f 65//65 80//80 78//78
f 66//66 64//64 40//40
f 66//66 40//40 37//37
# 160 faces, 0 coords texture

# End of File
