####
#
# OBJ File Generated by Meshlab
#
####
# Object zonopy_mesh_step29_link2.obj
#
# Vertices: 152
# Faces: 300
#
####
vn -3.322226 3.299213 0.963819
v -0.155248 0.075455 0.440249
vn -2.913127 3.294253 -1.114649
v -0.155248 0.075455 0.439915
vn -5.650163 0.683681 1.530022
v -0.178982 -0.016535 0.440248
vn -5.314495 0.684743 3.203928
v -0.163575 -0.013417 0.465416
vn -4.730301 2.462529 3.124963
v -0.137420 0.077914 0.465417
vn -4.083865 3.289632 2.614099
v -0.137362 0.077924 0.465497
vn -5.291212 0.690223 3.239530
v -0.163525 -0.013405 0.465496
vn -3.406415 3.691668 2.127704
v -0.137308 0.077932 0.465571
vn -5.262151 0.695320 3.283608
v -0.163478 -0.013394 0.465570
vn -2.903966 3.812090 1.800481
v -0.137258 0.077939 0.465637
vn -5.227156 0.701449 3.335817
v -0.163435 -0.013385 0.465636
vn -0.829712 6.227954 -0.028652
v -0.137258 0.077939 0.458506
vn -5.184160 0.708775 3.398095
v -0.163396 -0.013377 0.465695
vn -5.125418 0.718176 3.479779
v -0.163360 -0.013371 0.465748
vn -5.054211 0.720790 3.579734
v -0.163328 -0.013365 0.465793
vn -5.586153 0.719471 -1.613252
v -0.178982 -0.016535 0.439914
vn 0.008901 6.221297 -0.878298
v -0.154813 0.075455 0.439915
vn -2.158669 3.579754 -2.549796
v -0.014573 0.042822 0.219748
vn -0.506426 6.235364 -0.330457
v -0.137213 0.077946 0.458547
vn -0.379023 6.232194 -0.405119
v -0.137172 0.077951 0.458585
vn -4.430450 0.649425 -4.109875
v -0.040779 -0.048494 0.219747
vn -4.162948 -2.321695 0.941597
v -0.178982 -0.016711 0.440248
vn -4.006530 -2.370603 -1.010786
v -0.178982 -0.016711 0.439914
vn -2.307184 -5.833140 -0.106087
v -0.163275 -0.023841 0.458670
vn -5.365318 -0.087977 3.267172
v -0.163629 -0.023630 0.465328
vn -5.351703 0.461229 3.225238
v -0.163629 -0.013430 0.465328
vn -5.369665 -0.279872 3.236173
v -0.163575 -0.023665 0.465416
vn -5.359716 -0.502741 3.194206
v -0.163525 -0.023698 0.465496
vn -5.326519 -0.782324 3.126922
v -0.163478 -0.023727 0.465570
vn -5.253859 -1.115996 3.025927
v -0.163435 -0.023754 0.465636
vn -5.114944 -1.509080 2.875150
v -0.163396 -0.023777 0.465695
vn -4.848994 -1.980932 2.639361
v -0.163360 -0.023798 0.465748
vn -4.466630 -2.406636 2.359810
v -0.163328 -0.023815 0.465793
vn -3.906253 -2.770258 2.014199
v -0.163300 -0.023830 0.465831
vn -3.461291 -2.880069 2.023661
v -0.163275 -0.023841 0.465863
vn -2.977087 -2.730303 -2.182254
v -0.040779 -0.058994 0.219747
vn 0.024876 6.227828 -0.828330
v -0.122842 0.077951 0.458585
vn 0.840680 5.652848 -1.599761
v -0.000161 0.042822 0.219748
vn -4.953705 0.709255 3.717718
v -0.163300 -0.013361 0.465831
vn -2.847394 3.808259 1.828753
v -0.137213 0.077946 0.465696
vn -0.003318 0.009948 -6.283163
v -0.014468 0.042757 0.219738
vn 0.000111 0.000021 -6.283185
v -0.026356 -0.048566 0.219737
vn -0.005777 0.000617 -6.283180
v -0.040651 -0.048566 0.219737
vn 0.023729 0.006767 -6.283057
v -0.000173 0.042757 0.219738
vn -0.062425 0.006721 -6.282639
v -0.040684 -0.048548 0.219737
vn -0.035762 0.101702 -6.280994
v -0.014496 0.042774 0.219738
vn 0.271149 0.070342 -6.267508
v -0.000166 0.042774 0.219738
vn -0.003252 -0.020421 -6.283104
v -0.040651 -0.058966 0.219737
vn 0.039202 -0.023653 -6.282778
v -0.026356 -0.058966 0.219737
vn 0.529724 -0.282559 -6.217759
v -0.026354 -0.058975 0.219737
vn -0.034705 -0.212843 -6.274553
v -0.040684 -0.058975 0.219737
vn 0.027301 -0.001542 -6.283066
v -0.000173 0.032357 0.219738
vn 0.321627 -0.019977 -6.268361
v -0.000166 0.032347 0.219738
vn -2.771755 3.800334 1.870078
v -0.137172 0.077951 0.465749
vn -0.168114 0.020383 -6.280424
v -0.040713 -0.048532 0.219738
vn -0.094427 0.233983 -6.273239
v -0.014520 0.042788 0.219739
vn 0.707478 0.177519 -6.187755
v -0.000161 0.042788 0.219739
vn 0.953960 -0.079095 -6.184939
v -0.000161 0.032339 0.219739
vn -2.678898 3.791091 1.922068
v -0.137135 0.077955 0.465794
vn -0.327518 6.242685 -0.364708
v -0.137135 0.077955 0.458618
vn -4.747627 0.684426 3.968474
v -0.163275 -0.013358 0.465863
vn 1.358096 -0.794821 -5.872061
v -0.026354 -0.058982 0.219738
vn -0.091395 -0.478599 -6.241942
v -0.040713 -0.058982 0.219738
vn 2.049280 -0.232181 -5.823277
v -0.000157 0.032332 0.219740
vn 0.044430 6.234847 -0.765117
v -0.122776 0.077955 0.458618
vn -0.335546 0.040986 -6.272408
v -0.040736 -0.048518 0.219739
vn 1.485528 0.383340 -5.849179
v -0.000157 0.042800 0.219740
vn -0.189980 0.460176 -6.244908
v -0.014539 0.042800 0.219740
vn -2.552099 3.772400 1.989776
v -0.137103 0.077958 0.465832
vn -0.266361 6.254851 -0.301583
v -0.137103 0.077958 0.458647
vn -2.753176 1.027149 5.547638
v -0.059125 0.055579 0.509130
vn -2.533053 1.451284 5.511446
v -0.059084 0.055576 0.509150
vn -1.479504 3.441536 3.131989
v -0.137015 0.077958 0.465916
vn -2.723889 0.388206 5.624123
v -0.085249 -0.035745 0.509166
vn -3.330917 0.493520 5.237915
v -0.163221 -0.013358 0.465915
vn 1.320897 -1.581322 -5.657551
v -0.026354 -0.058987 0.219739
vn -0.181255 -0.979702 -6.108745
v -0.040736 -0.058987 0.219739
vn 0.075734 6.243077 -0.672442
v -0.122721 0.077958 0.458647
vn 2.692356 -0.598181 -5.630668
v -0.000155 0.032327 0.219741
vn 4.422711 -0.780656 -2.708858
v 0.077876 0.009927 0.263025
vn 2.052546 -3.033407 -2.053114
v 0.051670 -0.081389 0.263024
vn 0.816022 -3.252759 -4.879628
v -0.026355 -0.058991 0.219740
vn -2.925160 0.361346 5.533420
v -0.085281 -0.035743 0.509149
vn -3.067392 -0.322331 5.460048
v -0.085281 -0.046212 0.509149
vn -3.103850 -2.311234 4.014161
v -0.163221 -0.023858 0.465915
vn -1.961414 2.286324 5.193372
v -0.059049 0.055573 0.509167
vn 3.273248 2.026032 -2.158619
v 0.077876 0.020427 0.263025
vn -2.288432 3.709993 2.109081
v -0.137075 0.077960 0.465864
vn -0.164975 6.268371 -0.196117
v -0.137075 0.077960 0.458671
vn 1.712060 1.174775 -5.523226
v -0.000155 0.042810 0.219741
vn -3.000508 -1.457391 5.039350
v -0.085249 -0.046228 0.509166
vn 0.144749 6.250745 -0.470826
v -0.122676 0.077960 0.458671
vn -0.672358 0.081247 -6.239312
v -0.040755 -0.048508 0.219740
vn -0.395541 0.896256 -6.131285
v -0.014555 0.042810 0.219741
vn -0.357353 -2.049537 -5.431955
v -0.040755 -0.058991 0.219740
vn 0.142233 -4.903597 -3.754506
v -0.026359 -0.058993 0.219742
vn -2.401792 0.341055 5.776932
v -0.085222 -0.035748 0.509178
vn -1.413243 2.763751 4.803807
v -0.059019 0.055569 0.509179
vn -4.485893 0.642609 4.283801
v -0.163253 -0.013357 0.465887
vn -2.096659 3.688272 2.268057
v -0.137050 0.077960 0.465888
vn -0.030414 6.282541 -0.040170
v -0.137050 0.077960 0.458692
vn -4.035498 0.585270 4.688371
v -0.163235 -0.013357 0.465904
vn 1.664584 2.457044 -5.037144
v -0.000156 0.042816 0.219743
vn -2.688505 -2.261425 4.415725
v -0.085222 -0.046240 0.509178
vn 0.234671 6.253239 -0.357320
v -0.122642 0.077960 0.458692
vn -1.996892 -5.954544 -0.051424
v -0.163253 -0.023849 0.458691
vn -3.203299 -2.939623 2.174598
v -0.163253 -0.023849 0.465887
vn -1.238812 0.153388 -6.138127
v -0.040767 -0.048501 0.219742
vn -0.737438 1.545466 -5.817363
v -0.014564 0.042816 0.219743
vn -0.684353 -2.703281 -4.448465
v -0.040767 -0.058993 0.219742
vn -2.709990 0.333692 -5.448962
v -0.040775 -0.048496 0.219744
vn 1.392195 4.089387 -3.270190
v -0.000158 0.042821 0.219745
vn -1.691801 2.602478 -4.167864
v -0.014571 0.042821 0.219745
vn -1.927821 0.274894 5.946795
v -0.085200 -0.035751 0.509187
vn -0.860789 2.932700 4.456720
v -0.058995 0.055566 0.509188
vn 0.022713 6.282720 0.037001
v -0.122642 0.077960 0.465888
vn -1.832880 3.538184 2.549332
v -0.137030 0.077960 0.465905
vn 0.217941 6.246507 0.330287
v -0.122618 0.077960 0.465905
vn 0.492289 6.233739 -0.273925
v -0.122618 0.077960 0.458708
vn -1.776630 -2.917383 2.991866
v -0.085200 -0.046249 0.509187
vn -0.568382 -5.845825 -1.187268
v 0.037259 -0.081389 0.263024
vn -1.748740 -2.671921 -3.113515
v -0.040775 -0.058994 0.219744
vn -1.814715 -6.014743 -0.012955
v -0.163235 -0.023855 0.458707
vn -2.858685 -2.886997 2.411356
v -0.163235 -0.023855 0.465904
vn 5.616185 -0.189979 2.793969
v 0.077874 0.009934 0.270231
vn 5.624436 0.362190 2.738837
v 0.077874 0.020426 0.270231
vn 2.846159 -0.382391 4.376615
v -0.044561 0.045062 0.509193
vn 5.713232 -0.846248 1.371341
v 0.077877 0.009929 0.270225
vn 3.845310 2.593311 0.715523
v 0.077877 0.020427 0.270225
vn 2.343266 1.701922 3.118478
v -0.044561 0.055559 0.509193
vn 5.149197 -2.275721 2.479965
v 0.051672 -0.081384 0.270230
vn 3.559511 -3.578117 1.084165
v 0.051672 -0.081388 0.270224
vn 1.332367 -2.400674 2.885906
v -0.070768 -0.046254 0.509192
vn -0.952685 0.131933 6.159578
v -0.085183 -0.035754 0.509191
vn 0.325095 5.499009 2.793150
v -0.044583 0.055566 0.509188
vn 0.657185 5.842429 1.269027
v -0.122604 0.077958 0.465916
vn -0.384795 2.413306 4.996821
v -0.058978 0.055563 0.509192
vn 1.150664 6.145241 -0.090905
v -0.122604 0.077958 0.458720
vn 4.949895 -2.890482 -0.813041
v 0.051672 -0.081388 0.263027
vn 1.857689 -5.525196 0.349911
v 0.051670 -0.081389 0.270219
vn 6.052509 -1.685532 0.013982
v 0.077876 0.009927 0.270220
vn -1.733101 -6.039435 -0.000008
v -0.085200 -0.046249 0.501989
vn -0.731450 -6.138049 0.296739
v 0.037259 -0.081389 0.270219
vn 3.930998 2.870813 -0.369247
v 0.077877 0.020427 0.263028
vn 6.147677 -0.668890 -0.333325
v 0.077877 0.009929 0.263028
vn 1.733135 6.039426 0.000013
v -0.000161 0.042822 0.226944
vn 1.093643 3.282762 2.976476
v -0.044566 0.055563 0.509192
vn -0.932622 -2.866611 3.031074
v -0.085183 -0.046253 0.509191
vn -0.118966 0.015088 6.280873
v -0.085172 -0.035757 0.509192
vn -0.049214 0.363037 6.259125
v -0.058965 0.055559 0.509193
vn -0.157628 -3.083451 3.494108
v -0.085172 -0.046254 0.509192
vn -0.000111 -0.000021 6.283185
v -0.058965 0.045062 0.509193
# 152 vertices, 0 vertices normals

f 1//1 2//2 3//3
f 1//1 3//3 4//4
f 1//1 5//5 6//6
f 1//1 4//4 7//7
f 1//1 6//6 8//8
f 1//1 7//7 9//9
f 1//1 8//8 10//10
f 1//1 9//9 11//11
f 1//1 10//10 12//12
f 1//1 12//12 2//2
f 1//1 11//11 13//13
f 1//1 13//13 14//14
f 1//1 14//14 15//15
f 1//1 15//15 5//5
f 2//2 16//16 3//3
f 2//2 17//17 18//18
f 2//2 12//12 19//19
f 2//2 19//19 20//20
f 2//2 20//20 17//17
f 2//2 18//18 21//21
f 2//2 21//21 16//16
f 22//22 16//16 23//23
f 22//22 3//3 16//16
f 22//22 23//23 24//24
f 22//22 25//25 26//26
f 22//22 26//26 3//3
f 22//22 27//27 25//25
f 22//22 28//28 27//27
f 22//22 29//29 28//28
f 22//22 30//30 29//29
f 22//22 31//31 30//30
f 22//22 32//32 31//31
f 22//22 33//33 32//32
f 22//22 34//34 33//33
f 22//22 35//35 34//34
f 22//22 24//24 35//35
f 16//16 21//21 23//23
f 3//3 26//26 4//4
f 23//23 36//36 24//24
f 23//23 21//21 36//36
f 17//17 20//20 37//37
f 17//17 37//37 38//38
f 17//17 38//38 18//18
f 25//25 27//27 4//4
f 25//25 4//4 26//26
f 5//5 15//15 6//6
f 27//27 28//28 7//7
f 27//27 7//7 4//4
f 6//6 15//15 8//8
f 28//28 29//29 9//9
f 28//28 9//9 7//7
f 8//8 15//15 39//39
f 8//8 39//39 10//10
f 29//29 30//30 11//11
f 29//29 11//11 9//9
f 10//10 19//19 12//12
f 10//10 40//40 19//19
f 10//10 39//39 40//40
f 30//30 31//31 13//13
f 30//30 13//13 11//11
f 41//41 42//42 43//43
f 41//41 44//44 42//42
f 41//41 43//43 45//45
f 41//41 46//46 47//47
f 41//41 47//47 44//44
f 41//41 45//45 46//46
f 48//48 43//43 49//49
f 48//48 49//49 50//50
f 48//48 51//51 43//43
f 48//48 50//50 51//51
f 42//42 44//44 52//52
f 42//42 52//52 49//49
f 42//42 49//49 43//43
f 31//31 32//32 14//14
f 31//31 14//14 13//13
f 44//44 53//53 52//52
f 44//44 47//47 53//53
f 19//19 40//40 20//20
f 40//40 54//54 20//20
f 40//40 39//39 54//54
f 52//52 53//53 49//49
f 43//43 51//51 45//45
f 49//49 53//53 50//50
f 46//46 45//45 55//55
f 46//46 56//56 57//57
f 46//46 57//57 47//47
f 46//46 55//55 56//56
f 53//53 47//47 58//58
f 53//53 58//58 50//50
f 54//54 59//59 60//60
f 54//54 60//60 20//20
f 54//54 39//39 61//61
f 54//54 61//61 59//59
f 32//32 33//33 15//15
f 32//32 15//15 14//14
f 47//47 57//57 58//58
f 20//20 60//60 37//37
f 51//51 50//50 62//62
f 51//51 63//63 45//45
f 51//51 62//62 63//63
f 50//50 58//58 64//64
f 50//50 64//64 62//62
f 37//37 60//60 65//65
f 37//37 65//65 38//38
f 45//45 63//63 55//55
f 56//56 55//55 66//66
f 56//56 67//67 57//57
f 56//56 68//68 67//67
f 56//56 66//66 68//68
f 59//59 69//69 70//70
f 59//59 70//70 60//60
f 59//59 61//61 69//69
f 71//71 72//72 73//73
f 71//71 74//74 72//72
f 71//71 73//73 75//75
f 71//71 75//75 74//74
f 63//63 62//62 76//76
f 63//63 76//76 77//77
f 63//63 77//77 55//55
f 58//58 57//57 64//64
f 33//33 34//34 39//39
f 33//33 39//39 15//15
f 57//57 67//67 64//64
f 60//60 70//70 65//65
f 65//65 78//78 38//38
f 65//65 70//70 78//78
f 55//55 77//77 66//66
f 62//62 64//64 79//79
f 62//62 79//79 80//80
f 62//62 81//81 76//76
f 62//62 80//80 81//81
f 76//76 82//82 77//77
f 76//76 81//81 82//82
f 83//83 84//84 74//74
f 83//83 74//74 75//75
f 83//83 85//85 84//84
f 83//83 75//75 85//85
f 72//72 74//74 86//86
f 72//72 86//86 73//73
f 64//64 67//67 87//87
f 64//64 87//87 80//80
f 64//64 80//80 79//79
f 69//69 88//88 89//89
f 69//69 89//89 70//70
f 69//69 61//61 88//88
f 34//34 35//35 61//61
f 34//34 61//61 39//39
f 67//67 68//68 90//90
f 67//67 90//90 87//87
f 84//84 91//91 74//74
f 84//84 85//85 91//91
f 78//78 70//70 89//89
f 78//78 92//92 38//38
f 78//78 89//89 92//92
f 68//68 66//66 93//93
f 68//68 94//94 90//90
f 68//68 93//93 94//94
f 77//77 82//82 95//95
f 77//77 95//95 66//66
f 66//66 95//95 93//93
f 82//82 96//96 95//95
f 82//82 81//81 96//96
f 74//74 91//91 97//97
f 74//74 97//97 86//86
f 86//86 98//98 73//73
f 86//86 97//97 98//98
f 88//88 61//61 99//99
f 88//88 100//100 101//101
f 88//88 101//101 89//89
f 88//88 99//99 102//102
f 88//88 102//102 100//100
f 90//90 94//94 103//103
f 90//90 103//103 87//87
f 91//91 104//104 97//97
f 91//91 85//85 104//104
f 92//92 89//89 101//101
f 92//92 101//101 105//105
f 92//92 105//105 38//38
f 35//35 24//24 106//106
f 35//35 107//107 99//99
f 35//35 106//106 107//107
f 35//35 99//99 61//61
f 94//94 93//93 108//108
f 94//94 109//109 103//103
f 94//94 108//108 109//109
f 95//95 110//110 93//93
f 95//95 96//96 110//110
f 93//93 110//110 108//108
f 24//24 36//36 106//106
f 109//109 108//108 111//111
f 109//109 112//112 103//103
f 109//109 113//113 112//112
f 109//109 111//111 113//113
f 98//98 97//97 114//114
f 98//98 115//115 73//73
f 98//98 114//114 115//115
f 116//116 100//100 117//117
f 116//116 105//105 100//100
f 116//116 117//117 118//118
f 116//116 118//118 119//119
f 116//116 119//119 105//105
f 100//100 105//105 101//101
f 100//100 102//102 117//117
f 103//103 112//112 87//87
f 104//104 114//114 97//97
f 104//104 120//120 114//114
f 104//104 85//85 120//120
f 110//110 96//96 121//121
f 110//110 122//122 108//108
f 110//110 121//121 122//122
f 107//107 106//106 123//123
f 107//107 124//124 102//102
f 107//107 102//102 99//99
f 107//107 123//123 124//124
f 125//125 126//126 127//127
f 125//125 128//128 129//129
f 125//125 129//129 126//126
f 125//125 127//127 128//128
f 96//96 81//81 121//121
f 105//105 119//119 38//38
f 106//106 36//36 123//123
f 126//126 129//129 130//130
f 126//126 130//130 127//127
f 131//131 128//128 127//127
f 131//131 132//132 128//128
f 131//131 127//127 133//133
f 131//131 133//133 132//132
f 108//108 122//122 111//111
f 117//117 102//102 75//75
f 117//117 73//73 118//118
f 117//117 75//75 73//73
f 115//115 114//114 134//134
f 115//115 135//135 136//136
f 115//115 137//137 135//135
f 115//115 136//136 73//73
f 115//115 134//134 137//137
f 118//118 136//136 138//138
f 118//118 73//73 136//136
f 118//118 138//138 119//119
f 139//139 132//132 140//140
f 139//139 81//81 80//80
f 139//139 141//141 132//132
f 139//139 140//140 81//81
f 139//139 80//80 141//141
f 142//142 124//124 123//123
f 142//142 120//120 124//124
f 142//142 123//123 121//121
f 142//142 121//121 143//143
f 142//142 143//143 120//120
f 122//122 121//121 36//36
f 122//122 36//36 111//111
f 124//124 120//120 85//85
f 124//124 85//85 75//75
f 124//124 75//75 102//102
f 112//112 113//113 38//38
f 112//112 38//38 87//87
f 144//144 128//128 145//145
f 144//144 145//145 87//87
f 144//144 129//129 128//128
f 144//144 146//146 129//129
f 144//144 87//87 38//38
f 144//144 38//38 146//146
f 128//128 132//132 141//141
f 128//128 141//141 145//145
f 114//114 120//120 134//134
f 113//113 111//111 21//21
f 113//113 18//18 38//38
f 113//113 21//21 18//18
f 135//135 137//137 147//147
f 135//135 147//147 136//136
f 145//145 141//141 80//80
f 145//145 80//80 87//87
f 120//120 148//148 134//134
f 120//120 143//143 148//148
f 119//119 138//138 38//38
f 132//132 133//133 140//140
f 111//111 36//36 21//21
f 129//129 146//146 136//136
f 129//129 136//136 147//147
f 129//129 147//147 130//130
f 123//123 36//36 121//121
f 146//146 38//38 138//138
f 146//146 138//138 136//136
f 137//137 134//134 149//149
f 137//137 150//150 147//147
f 137//137 149//149 150//150
f 147//147 150//150 130//130
f 81//81 143//143 121//121
f 81//81 140//140 143//143
f 148//148 143//143 151//151
f 148//148 151//151 149//149
f 148//148 149//149 134//134
f 143//143 140//140 133//133
f 143//143 133//133 151//151
f 127//127 150//150 152//152
f 127//127 130//130 150//150
f 127//127 152//152 133//133
f 151//151 133//133 152//152
f 151//151 152//152 149//149
f 150//150 149//149 152//152
# 300 faces, 0 coords texture

# End of File
