####
#
# OBJ File Generated by Meshlab
#
####
# Object zonopy_mesh_step18_link2.obj
#
# Vertices: 199
# Faces: 394
#
####
vn 2.365171 -3.630911 -1.409061
v -0.010560 -0.226986 0.353915
vn 2.597172 -4.115582 0.775623
v -0.010560 -0.226986 0.353970
vn 0.192325 -6.275751 0.165505
v -0.044917 -0.228054 0.354158
vn 0.204488 -6.279089 -0.065902
v -0.044917 -0.228054 0.346850
vn 0.212062 -6.276253 -0.139666
v -0.045268 -0.228064 0.346741
vn 0.219908 -6.271357 -0.216413
v -0.045608 -0.228073 0.346635
vn 0.226568 -6.265326 -0.285067
v -0.045938 -0.228081 0.346532
vn 0.234619 -6.256737 -0.360857
v -0.046258 -0.228088 0.346432
vn 0.241942 -6.246707 -0.433457
v -0.046567 -0.228094 0.346336
vn 0.249427 -6.234801 -0.506221
v -0.046867 -0.228099 0.346242
vn 0.257294 -6.220501 -0.581572
v -0.047155 -0.228103 0.346152
vn 0.264542 -6.205113 -0.653063
v -0.047434 -0.228106 0.346066
vn 0.272935 -6.186328 -0.730381
v -0.047702 -0.228109 0.345982
vn 0.279972 -6.167098 -0.801691
v -0.047960 -0.228110 0.345902
vn 0.288830 -6.143040 -0.882249
v -0.048208 -0.228112 0.345825
vn 0.298166 -6.116985 -0.961952
v -0.048446 -0.228112 0.345751
vn 0.310333 -6.091390 -1.041274
v -0.048674 -0.228112 0.345681
vn 0.327116 -6.059310 -1.147353
v -0.048891 -0.228111 0.345614
vn 0.345047 -6.021770 -1.262132
v -0.049099 -0.228110 0.345550
vn 0.362588 -5.981350 -1.376233
v -0.049296 -0.228108 0.345490
vn 0.381732 -5.933116 -1.500479
v -0.049484 -0.228106 0.345432
vn 0.400382 -5.881567 -1.624524
v -0.049661 -0.228104 0.345378
vn 0.421390 -5.818140 -1.760727
v -0.049828 -0.228101 0.345327
vn 0.443340 -5.744181 -1.903651
v -0.049985 -0.228098 0.345280
vn 0.466375 -5.658287 -2.060841
v -0.050132 -0.228094 0.345236
vn 0.493186 -5.545764 -2.240138
v -0.050270 -0.228090 0.345195
vn 0.516241 -5.436024 -2.409486
v -0.050397 -0.228086 0.345157
vn 0.544216 -5.283422 -2.603897
v -0.050514 -0.228082 0.345123
vn 0.575263 -5.083265 -2.837093
v -0.050622 -0.228077 0.345092
vn 0.585565 -4.952379 -3.005959
v -0.050719 -0.228072 0.345064
vn 2.138749 -1.902947 -4.232272
v 0.065924 -0.020610 0.216086
vn 4.279998 -1.346926 -2.927195
v 0.065930 -0.020604 0.216089
vn 5.952248 -1.735140 -0.486351
v 0.087443 0.017521 0.296999
vn 5.885116 -1.660949 0.828274
v 0.087443 0.017521 0.306468
vn 3.212161 4.935783 -1.204765
v 0.077619 0.040543 0.302605
vn 3.048821 4.698042 1.656950
v 0.077619 0.040543 0.302659
vn 4.078066 4.684223 0.615318
v 0.087394 0.031721 0.306430
vn 4.167583 4.678594 -0.270566
v 0.087394 0.031721 0.297070
vn 4.044965 4.612978 -0.794757
v 0.087410 0.031705 0.297052
vn 3.863193 4.287554 -1.421920
v 0.087423 0.031691 0.297038
vn 1.403563 5.375062 -1.352035
v 0.004705 0.078325 0.297000
vn 1.087215 4.225869 2.364782
v 0.004705 0.078325 0.306468
vn 2.503322 0.663638 4.726059
v 0.003463 -0.184154 0.434357
vn 2.252134 -1.778264 2.740483
v 0.003463 -0.184498 0.434357
vn 5.699034 -0.491886 1.501632
v 0.087445 0.017530 0.306467
vn 0.246496 0.293496 6.263223
v -0.029508 -0.175810 0.435344
vn 0.149600 -2.851716 4.439199
v -0.029508 -0.189906 0.435344
vn 3.596282 2.594810 2.576414
v 0.087440 0.031665 0.306460
vn 3.909915 1.743774 2.542988
v 0.087444 0.031654 0.306464
vn 0.382300 0.774046 6.161767
v -0.112323 -0.129110 0.435346
vn 4.860479 0.799698 2.433745
v 0.087445 0.031645 0.306467
vn 0.349156 1.829367 5.742785
v -0.112342 -0.129098 0.435345
vn 0.992965 -5.497565 2.872651
v -0.028097 -0.189748 0.435256
vn 0.968890 -5.375233 3.082382
v -0.028250 -0.189770 0.435267
vn 0.938479 -5.234186 3.286102
v -0.028396 -0.189791 0.435277
vn 0.908499 -5.100999 3.451074
v -0.028533 -0.189809 0.435287
vn 0.869120 -4.917957 3.643758
v -0.028662 -0.189826 0.435296
vn 0.824688 -4.722941 3.816798
v -0.028783 -0.189841 0.435304
vn 0.775561 -4.513558 3.972240
v -0.028896 -0.189855 0.435311
vn 0.727489 -4.321448 4.092284
v -0.029000 -0.189867 0.435318
vn 0.665347 -4.070934 4.218489
v -0.029097 -0.189877 0.435324
vn 0.602420 -3.851231 4.306326
v -0.029186 -0.189886 0.435329
vn 0.530791 -3.607358 4.379234
v -0.029266 -0.189893 0.435333
vn 0.452325 -3.383381 4.423028
v -0.029339 -0.189899 0.435337
vn 0.332603 -3.121541 4.436226
v -0.029403 -0.189903 0.435340
vn 0.244827 -2.953298 4.455164
v -0.029459 -0.189905 0.435342
vn 3.644912 4.405750 1.662535
v 0.087410 0.031705 0.306440
vn 3.518304 3.822817 2.169941
v 0.087423 0.031691 0.306448
vn 0.185406 -6.260829 0.347853
v -0.045268 -0.228064 0.354175
vn 0.177837 -6.234652 0.532828
v -0.045608 -0.228073 0.354192
vn 0.170376 -6.202592 0.694219
v -0.045938 -0.228081 0.354208
vn 0.162723 -6.157998 0.867644
v -0.046258 -0.228088 0.354223
vn 0.154667 -6.106096 1.031345
v -0.046567 -0.228094 0.354238
vn 0.146529 -6.044723 1.193262
v -0.046867 -0.228099 0.354253
vn 0.137515 -5.989890 1.318853
v -0.047155 -0.228103 0.354267
vn 0.125728 -5.989004 1.321395
v -0.047434 -0.228106 0.354280
vn 0.111241 -5.988591 1.322777
v -0.047702 -0.228109 0.354293
vn 0.096267 -5.988152 1.324323
v -0.047960 -0.228110 0.354305
vn 0.081212 -5.987729 1.325633
v -0.048208 -0.228112 0.354317
vn 0.066594 -5.987134 1.327820
v -0.048446 -0.228112 0.354328
vn -0.000633 -6.282933 0.039425
v -0.060918 -0.228112 0.354328
vn -0.000702 -6.283179 -0.005598
v -0.060918 -0.228112 0.345751
vn 0.055938 -5.986388 1.371047
v -0.048674 -0.228112 0.354338
vn -0.003782 -6.276732 0.199625
v -0.061257 -0.228112 0.354338
vn -0.004058 -6.283039 -0.028415
v -0.061257 -0.228112 0.345681
vn 0.048222 -5.979528 1.534154
v -0.048891 -0.228111 0.354348
vn -0.009102 -6.259662 0.381816
v -0.061581 -0.228111 0.354348
vn -0.009415 -6.282649 -0.055392
v -0.061581 -0.228111 0.345614
vn 0.040388 -5.961874 1.718086
v -0.049099 -0.228110 0.354358
vn -0.014813 -6.231981 0.562859
v -0.061888 -0.228110 0.354358
vn -0.015131 -6.281996 -0.083232
v -0.061888 -0.228110 0.345550
vn 0.031627 -5.933229 1.901500
v -0.049296 -0.228108 0.354367
vn -0.020831 -6.187378 0.767658
v -0.062180 -0.228108 0.354367
vn -0.021184 -6.281002 -0.113132
v -0.062180 -0.228108 0.345490
vn 0.022172 -5.887877 2.108313
v -0.049484 -0.228106 0.354375
vn -0.027300 -6.128644 0.970714
v -0.062456 -0.228106 0.354375
vn -0.027672 -6.279613 -0.145036
v -0.062456 -0.228106 0.345432
vn 0.012390 -5.828193 2.313742
v -0.049661 -0.228104 0.354383
vn -0.034007 -6.051987 1.180272
v -0.062716 -0.228104 0.354383
vn -0.034392 -6.277864 -0.177341
v -0.062716 -0.228104 0.345378
vn 0.003499 -5.751076 2.524500
v -0.049828 -0.228101 0.354390
vn -0.041097 -5.982442 1.338650
v -0.062961 -0.228101 0.354390
vn -0.041090 -6.275757 -0.209826
v -0.062961 -0.228101 0.345327
vn 0.050278 -2.827370 4.477736
v -0.029548 -0.189906 0.435345
vn -0.060696 -3.223284 4.432172
v -0.043155 -0.189906 0.435345
vn -0.053980 -5.980730 1.341359
v -0.063190 -0.228098 0.354397
vn -0.048942 -6.272550 -0.250804
v -0.063190 -0.228098 0.345280
vn -0.071503 -5.979731 1.343020
v -0.063403 -0.228094 0.354403
vn -0.057809 -6.268638 -0.293531
v -0.063403 -0.228094 0.345236
vn -0.091235 -5.978218 1.345065
v -0.063600 -0.228090 0.354408
vn -0.067801 -6.263093 -0.344765
v -0.063600 -0.228090 0.345195
vn -0.112016 -5.976968 1.347221
v -0.063781 -0.228086 0.354413
vn -0.078157 -6.257231 -0.392191
v -0.063781 -0.228086 0.345157
vn -0.137155 -5.974526 1.349777
v -0.063947 -0.228082 0.354418
vn -0.090768 -6.247448 -0.459103
v -0.063947 -0.228082 0.345123
vn -0.168011 -5.972143 1.352582
v -0.064097 -0.228077 0.354421
vn -0.106314 -6.234378 -0.536180
v -0.064097 -0.228077 0.345092
vn -0.204116 -5.968627 1.356552
v -0.064231 -0.228072 0.354425
vn -0.124442 -6.216760 -0.624426
v -0.064231 -0.228072 0.345064
vn -0.250729 -5.963756 1.360605
v -0.064349 -0.228067 0.354427
vn -0.148036 -6.188104 -0.744406
v -0.064349 -0.228067 0.345040
vn 0.563593 -4.923075 -3.109482
v -0.050806 -0.228067 0.345040
vn -0.341377 -5.949716 1.368071
v -0.064451 -0.228062 0.354429
vn -0.195420 -6.104029 -1.007727
v -0.064451 -0.228062 0.345019
vn 0.515234 -4.873833 -3.257850
v -0.050884 -0.228062 0.345019
vn 3.597933 3.355656 2.384665
v 0.087433 0.031677 0.306455
vn 4.135452 3.946606 -1.470817
v 0.087433 0.031677 0.297025
vn 4.139062 2.250640 -2.616714
v 0.065938 -0.006479 0.216103
vn 0.821476 3.203122 -4.120417
v -0.016814 0.040193 0.216086
vn -0.424163 -5.946072 1.378468
v -0.064538 -0.228056 0.354431
vn -0.300316 -2.840984 4.438376
v -0.043189 -0.189904 0.435345
vn -0.235144 -6.069317 -1.109498
v -0.064538 -0.228056 0.345001
vn 0.474242 -4.786801 -3.545299
v -0.050951 -0.228056 0.345001
vn -5.391808 3.216830 0.102617
v -0.008926 0.078305 0.306456
vn -5.393570 3.218942 -0.023824
v -0.008926 0.078305 0.297026
vn -5.179468 1.015668 -1.642761
v -0.147470 -0.167226 0.344962
vn -4.827068 3.789812 0.636520
v -0.008920 0.078315 0.306461
vn -2.820540 1.679404 2.768178
v -0.125950 -0.129095 0.435344
vn -5.805903 1.300122 0.513638
v -0.147470 -0.167226 0.354430
vn -0.527951 -5.924528 1.386250
v -0.064609 -0.228050 0.354432
vn 4.600601 3.290968 -1.446008
v 0.087440 0.031665 0.297015
vn -0.288253 -5.930378 -1.395271
v -0.064609 -0.228050 0.344986
vn 0.414983 -4.723808 -3.665838
v -0.051009 -0.228050 0.344986
vn -4.888491 3.859186 -0.168132
v -0.008920 0.078315 0.297016
vn -4.482618 1.956775 -2.305812
v -0.030421 0.040190 0.216090
vn 5.952479 -0.237542 -1.872630
v 0.065938 -0.020576 0.216103
vn 6.090555 -0.597584 -0.647499
v 0.087445 0.017530 0.297002
vn 5.407485 -0.908560 -2.192399
v 0.065935 -0.020593 0.216095
vn 3.708991 1.866810 -3.542176
v 0.065935 -0.006484 0.216095
vn -3.451502 4.455996 1.470143
v -0.008914 0.078321 0.306465
vn -0.745941 -5.881385 1.403332
v -0.064664 -0.228045 0.354432
vn 5.264918 2.104533 -1.345666
v 0.087444 0.031654 0.297007
vn -0.399910 -5.651914 -1.809162
v -0.064664 -0.228045 0.344975
vn 0.319253 -4.547940 -4.011508
v -0.051057 -0.228045 0.344975
vn 0.182315 0.252311 6.268114
v -0.029548 -0.175797 0.435345
vn 5.900412 0.798359 -1.194930
v 0.087445 0.031645 0.297002
vn -3.695182 4.834218 -0.496120
v -0.008914 0.078321 0.297008
vn -1.371248 4.613330 2.162741
v -0.008907 0.078325 0.306467
vn -2.948921 -5.104582 1.493090
v -0.147414 -0.181377 0.354433
vn -3.110917 -5.444806 -0.256629
v -0.147414 -0.181377 0.344976
vn -2.162315 -5.337821 1.403941
v -0.064727 -0.228033 0.354431
vn -3.304365 -4.807919 1.469462
v -0.147446 -0.181359 0.354433
vn -1.617103 -2.310529 4.493572
v -0.125932 -0.143224 0.435346
vn -1.044094 -2.924901 4.323802
v -0.043208 -0.189901 0.435345
vn 0.010517 -0.363683 6.261271
v -0.029580 -0.189904 0.435345
vn -1.183787 -5.759677 1.431124
v -0.064703 -0.228039 0.354432
vn 2.884990 1.349595 -4.732406
v 0.065930 -0.006490 0.216089
vn -0.626419 -5.022161 -2.368167
v -0.064703 -0.228039 0.344967
vn 0.165317 -4.203288 -4.509588
v -0.051095 -0.228039 0.344967
vn 0.040394 0.056179 6.282366
v -0.029580 -0.175790 0.435345
vn -3.013956 -4.753349 -1.773231
v -0.147446 -0.181359 0.344968
vn -1.454479 -4.179363 -2.565116
v -0.064727 -0.228033 0.344963
vn -1.727906 5.553531 -0.962821
v -0.008907 0.078325 0.297003
vn -1.799275 2.304391 -3.102345
v -0.030418 0.040193 0.216086
vn -4.054243 -0.523527 -4.677290
v -0.030421 0.026076 0.216090
vn -2.081288 -0.792919 -5.321792
v -0.030418 0.026079 0.216086
vn -4.296674 -1.277769 -2.327172
v -0.147470 -0.181333 0.344962
vn -0.199798 4.743977 2.658734
v -0.008899 0.078325 0.306468
vn 0.000017 -0.000037 6.283185
v -0.112323 -0.143224 0.435346
vn -0.076636 0.105570 6.278886
v -0.125932 -0.129110 0.435346
vn 1.526903 0.663787 -5.787771
v 0.065924 -0.006496 0.216086
vn -4.387020 -3.488796 1.306418
v -0.147465 -0.181344 0.354432
vn 0.036864 -3.596507 -5.138432
v -0.051123 -0.228033 0.344963
vn -0.771695 1.213727 5.758562
v -0.125946 -0.129098 0.435345
vn -2.639449 -1.506677 3.933171
v -0.125946 -0.143212 0.435345
vn -3.234641 -2.922394 -2.372709
v -0.147465 -0.181344 0.344963
vn -0.337031 5.909924 -1.400119
v -0.008899 0.078325 0.297000
vn 0.062495 0.781473 -6.181515
v -0.016818 0.040191 0.216086
vn -0.178925 0.693500 -6.175170
v -0.030412 0.040191 0.216086
vn -0.666225 -2.313830 -5.662717
v 0.052320 -0.020610 0.216086
vn -1.557562 -2.853043 -5.364886
v -0.064734 -0.228026 0.344961
vn -0.283307 -0.124284 -6.264844
v -0.030412 0.026084 0.216086
vn -0.096482 -1.655419 -5.801909
v 0.052324 -0.020609 0.216085
vn 0.013059 3.161003 5.426822
v -0.112356 -0.129095 0.435344
vn 0.143507 -1.589975 -5.798400
v 0.065917 -0.020609 0.216085
vn 0.237511 0.099400 -6.270526
v 0.065917 -0.006502 0.216085
vn -5.677601 -1.340021 0.979771
v -0.147470 -0.181333 0.354430
vn -4.114756 -0.359859 3.621397
v -0.125950 -0.143203 0.435344
vn -0.000017 0.000037 -6.283185
v 0.052324 -0.006502 0.216085
# 199 vertices, 0 vertices normals

f 1//1 2//2 3//3
f 1//1 4//4 5//5
f 1//1 3//3 4//4
f 1//1 5//5 6//6
f 1//1 6//6 7//7
f 1//1 7//7 8//8
f 1//1 8//8 9//9
f 1//1 9//9 10//10
f 1//1 10//10 11//11
f 1//1 11//11 12//12
f 1//1 12//12 13//13
f 1//1 13//13 14//14
f 1//1 14//14 15//15
f 1//1 15//15 16//16
f 1//1 16//16 17//17
f 1//1 17//17 18//18
f 1//1 18//18 19//19
f 1//1 19//19 20//20
f 1//1 20//20 21//21
f 1//1 21//21 22//22
f 1//1 22//22 23//23
f 1//1 23//23 24//24
f 1//1 24//24 25//25
f 1//1 25//25 26//26
f 1//1 26//26 27//27
f 1//1 27//27 28//28
f 1//1 28//28 29//29
f 1//1 29//29 30//30
f 1//1 30//30 31//31
f 1//1 32//32 33//33
f 1//1 31//31 32//32
f 1//1 34//34 2//2
f 1//1 33//33 34//34
f 35//35 36//36 37//37
f 35//35 38//38 39//39
f 35//35 37//37 38//38
f 35//35 39//39 40//40
f 35//35 40//40 41//41
f 35//35 42//42 36//36
f 35//35 41//41 42//42
f 43//43 44//44 45//45
f 43//43 46//46 47//47
f 43//43 47//47 44//44
f 43//43 48//48 42//42
f 43//43 49//49 48//48
f 43//43 50//50 46//46
f 43//43 45//45 51//51
f 43//43 51//51 49//49
f 43//43 52//52 50//50
f 43//43 42//42 52//52
f 44//44 2//2 34//34
f 44//44 53//53 2//2
f 44//44 54//54 53//53
f 44//44 55//55 54//54
f 44//44 56//56 55//55
f 44//44 57//57 56//56
f 44//44 58//58 57//57
f 44//44 59//59 58//58
f 44//44 60//60 59//59
f 44//44 61//61 60//60
f 44//44 62//62 61//61
f 44//44 63//63 62//62
f 44//44 64//64 63//63
f 44//44 65//65 64//64
f 44//44 66//66 65//65
f 44//44 47//47 66//66
f 44//44 34//34 45//45
f 36//36 67//67 37//37
f 36//36 68//68 67//67
f 36//36 42//42 68//68
f 2//2 69//69 3//3
f 2//2 70//70 69//69
f 2//2 71//71 70//70
f 2//2 72//72 71//71
f 2//2 73//73 72//72
f 2//2 74//74 73//73
f 2//2 75//75 74//74
f 2//2 53//53 54//54
f 2//2 54//54 55//55
f 2//2 55//55 56//56
f 2//2 56//56 57//57
f 2//2 57//57 58//58
f 2//2 58//58 59//59
f 2//2 59//59 60//60
f 2//2 60//60 61//61
f 2//2 61//61 62//62
f 2//2 62//62 63//63
f 2//2 63//63 64//64
f 2//2 64//64 65//65
f 2//2 65//65 66//66
f 2//2 66//66 47//47
f 2//2 47//47 75//75
f 4//4 3//3 69//69
f 4//4 69//69 5//5
f 5//5 69//69 70//70
f 5//5 70//70 6//6
f 6//6 70//70 71//71
f 6//6 71//71 7//7
f 7//7 71//71 72//72
f 7//7 72//72 8//8
f 8//8 72//72 73//73
f 8//8 73//73 9//9
f 9//9 73//73 74//74
f 9//9 74//74 10//10
f 10//10 74//74 75//75
f 10//10 75//75 11//11
f 11//11 75//75 76//76
f 11//11 76//76 12//12
f 75//75 47//47 76//76
f 12//12 76//76 77//77
f 12//12 77//77 13//13
f 76//76 47//47 77//77
f 13//13 77//77 78//78
f 13//13 78//78 14//14
f 77//77 47//47 78//78
f 14//14 78//78 79//79
f 14//14 79//79 15//15
f 78//78 47//47 79//79
f 15//15 79//79 80//80
f 15//15 80//80 16//16
f 79//79 47//47 80//80
f 81//81 16//16 80//80
f 81//81 82//82 16//16
f 81//81 80//80 83//83
f 81//81 84//84 82//82
f 81//81 83//83 84//84
f 16//16 82//82 17//17
f 82//82 84//84 85//85
f 82//82 85//85 17//17
f 80//80 47//47 83//83
f 84//84 83//83 86//86
f 84//84 87//87 85//85
f 84//84 86//86 87//87
f 17//17 85//85 18//18
f 85//85 87//87 88//88
f 85//85 88//88 18//18
f 83//83 47//47 86//86
f 87//87 86//86 89//89
f 87//87 90//90 88//88
f 87//87 89//89 90//90
f 88//88 90//90 91//91
f 88//88 91//91 19//19
f 88//88 19//19 18//18
f 86//86 47//47 89//89
f 90//90 89//89 92//92
f 90//90 93//93 91//91
f 90//90 92//92 93//93
f 91//91 93//93 94//94
f 91//91 20//20 19//19
f 91//91 94//94 20//20
f 89//89 47//47 92//92
f 93//93 92//92 95//95
f 93//93 96//96 94//94
f 93//93 95//95 96//96
f 20//20 94//94 21//21
f 94//94 96//96 97//97
f 94//94 97//97 21//21
f 92//92 47//47 95//95
f 96//96 95//95 98//98
f 96//96 99//99 97//97
f 96//96 98//98 99//99
f 97//97 99//99 100//100
f 97//97 100//100 22//22
f 97//97 22//22 21//21
f 95//95 47//47 98//98
f 99//99 98//98 101//101
f 99//99 102//102 100//100
f 99//99 101//101 102//102
f 100//100 102//102 103//103
f 100//100 23//23 22//22
f 100//100 103//103 23//23
f 98//98 47//47 104//104
f 98//98 104//104 101//101
f 102//102 101//101 105//105
f 102//102 106//106 103//103
f 102//102 105//105 106//106
f 23//23 103//103 24//24
f 103//103 106//106 107//107
f 103//103 107//107 24//24
f 101//101 104//104 105//105
f 106//106 108//108 107//107
f 106//106 105//105 108//108
f 107//107 108//108 109//109
f 107//107 109//109 25//25
f 107//107 25//25 24//24
f 108//108 110//110 109//109
f 108//108 105//105 110//110
f 109//109 110//110 111//111
f 109//109 26//26 25//25
f 109//109 111//111 26//26
f 110//110 112//112 111//111
f 110//110 105//105 112//112
f 26//26 111//111 27//27
f 111//111 112//112 113//113
f 111//111 113//113 27//27
f 112//112 114//114 113//113
f 112//112 105//105 114//114
f 113//113 114//114 115//115
f 113//113 115//115 28//28
f 113//113 28//28 27//27
f 114//114 116//116 115//115
f 114//114 105//105 116//116
f 115//115 116//116 117//117
f 115//115 117//117 29//29
f 115//115 29//29 28//28
f 116//116 118//118 117//117
f 116//116 105//105 118//118
f 117//117 118//118 119//119
f 117//117 119//119 30//30
f 117//117 30//30 29//29
f 38//38 37//37 67//67
f 38//38 67//67 39//39
f 118//118 120//120 119//119
f 118//118 105//105 120//120
f 119//119 120//120 121//121
f 119//119 121//121 122//122
f 119//119 122//122 30//30
f 30//30 122//122 31//31
f 39//39 67//67 68//68
f 39//39 68//68 40//40
f 120//120 123//123 121//121
f 120//120 105//105 123//123
f 121//121 123//123 124//124
f 121//121 124//124 125//125
f 121//121 125//125 122//122
f 122//122 125//125 31//31
f 40//40 68//68 126//126
f 40//40 127//127 128//128
f 40//40 126//126 127//127
f 40//40 128//128 129//129
f 40//40 129//129 41//41
f 123//123 130//130 124//124
f 123//123 105//105 131//131
f 123//123 131//131 130//130
f 124//124 130//130 132//132
f 124//124 132//132 133//133
f 124//124 133//133 125//125
f 125//125 133//133 31//31
f 68//68 42//42 126//126
f 134//134 135//135 136//136
f 134//134 137//137 135//135
f 134//134 138//138 137//137
f 134//134 136//136 139//139
f 134//134 139//139 138//138
f 130//130 140//140 132//132
f 130//130 131//131 140//140
f 127//127 126//126 48//48
f 127//127 141//141 128//128
f 127//127 48//48 141//141
f 132//132 140//140 142//142
f 132//132 142//142 143//143
f 132//132 143//143 133//133
f 133//133 143//143 31//31
f 126//126 42//42 48//48
f 135//135 137//137 144//144
f 135//135 144//144 145//145
f 135//135 145//145 136//136
f 146//146 128//128 147//147
f 146//146 148//148 149//149
f 146//146 149//149 128//128
f 146//146 147//147 148//148
f 137//137 150//150 144//144
f 137//137 138//138 150//150
f 140//140 151//151 142//142
f 140//140 131//131 151//151
f 141//141 48//48 49//49
f 141//141 152//152 128//128
f 141//141 49//49 152//152
f 142//142 151//151 153//153
f 142//142 153//153 154//154
f 142//142 154//154 143//143
f 46//46 155//155 104//104
f 46//46 104//104 47//47
f 46//46 50//50 155//155
f 143//143 154//154 31//31
f 128//128 152//152 156//156
f 128//128 149//149 129//129
f 128//128 156//156 147//147
f 144//144 150//150 157//157
f 144//144 157//157 145//145
f 150//150 158//158 157//157
f 150//150 138//138 158//158
f 159//159 160//160 161//161
f 159//159 162//162 160//160
f 159//159 163//163 162//162
f 159//159 164//164 163//163
f 159//159 161//161 164//164
f 105//105 104//104 165//165
f 105//105 165//165 131//131
f 151//151 131//131 166//166
f 151//151 166//166 153//153
f 148//148 32//32 167//167
f 148//148 167//167 149//149
f 148//148 147//147 33//33
f 148//148 33//33 32//32
f 152//152 49//49 51//51
f 152//152 51//51 156//156
f 153//153 166//166 168//168
f 153//153 168//168 169//169
f 153//153 169//169 154//154
f 155//155 50//50 170//170
f 155//155 170//170 165//165
f 155//155 165//165 104//104
f 154//154 169//169 31//31
f 149//149 167//167 129//129
f 160//160 162//162 171//171
f 160//160 171//171 172//172
f 160//160 172//172 161//161
f 157//157 158//158 173//173
f 157//157 173//173 174//174
f 157//157 174//174 145//145
f 175//175 145//145 176//176
f 175//175 176//176 177//177
f 175//175 136//136 145//145
f 175//175 177//177 136//136
f 158//158 178//178 173//173
f 158//158 138//138 178//178
f 50//50 179//179 170//170
f 50//50 180//180 179//179
f 50//50 52//52 180//180
f 32//32 31//31 181//181
f 32//32 181//181 167//167
f 131//131 179//179 163//163
f 131//131 165//165 179//179
f 131//131 163//163 164//164
f 131//131 164//164 166//166
f 166//166 164//164 161//161
f 166//166 161//161 168//168
f 45//45 156//156 51//51
f 45//45 147//147 156//156
f 45//45 34//34 147//147
f 162//162 163//163 182//182
f 162//162 182//182 171//171
f 179//179 180//180 163//163
f 179//179 165//165 170//170
f 168//168 161//161 172//172
f 168//168 172//172 183//183
f 168//168 183//183 169//169
f 169//169 183//183 31//31
f 180//180 52//52 184//184
f 180//180 184//184 185//185
f 180//180 185//185 163//163
f 145//145 174//174 176//176
f 163//163 185//185 182//182
f 167//167 181//181 129//129
f 171//171 182//182 186//186
f 171//171 186//186 172//172
f 147//147 34//34 33//33
f 173//173 178//178 187//187
f 173//173 187//187 174//174
f 129//129 174//174 187//187
f 129//129 181//181 188//188
f 129//129 187//187 41//41
f 129//129 188//188 189//189
f 129//129 189//189 174//174
f 176//176 190//190 191//191
f 176//176 174//174 192//192
f 176//176 186//186 177//177
f 176//176 192//192 193//193
f 176//176 193//193 190//190
f 176//176 191//191 186//186
f 190//190 172//172 191//191
f 190//190 193//193 172//172
f 178//178 42//42 41//41
f 178//178 41//41 187//187
f 178//178 138//138 194//194
f 178//178 194//194 42//42
f 52//52 42//42 194//194
f 52//52 194//194 184//184
f 31//31 183//183 195//195
f 31//31 195//195 196//196
f 31//31 196//196 181//181
f 182//182 185//185 197//197
f 182//182 197//197 186//186
f 172//172 186//186 191//191
f 172//172 193//193 183//183
f 184//184 138//138 198//198
f 184//184 194//194 138//138
f 184//184 198//198 185//185
f 174//174 189//189 192//192
f 183//183 193//193 195//195
f 185//185 198//198 197//197
f 181//181 196//196 188//188
f 186//186 197//197 177//177
f 188//188 199//199 189//189
f 188//188 196//196 199//199
f 192//192 199//199 193//193
f 192//192 189//189 199//199
f 138//138 139//139 198//198
f 193//193 199//199 195//195
f 195//195 199//199 196//196
f 197//197 136//136 177//177
f 197//197 198//198 139//139
f 197//197 139//139 136//136
# 394 faces, 0 coords texture

# End of File
