####
#
# OBJ File Generated by Meshlab
#
####
# Object zonopy_mesh_step10_link2.obj
#
# Vertices: 60
# Faces: 116
#
####
vn 4.709780 -0.268263 3.052376
v 0.102416 -0.151848 0.435935
vn 3.714041 1.374552 2.815242
v 0.102416 -0.151730 0.435935
vn 3.208731 0.036019 5.401778
v 0.098673 -0.153501 0.438174
vn 5.802031 -1.375114 0.702145
v 0.113881 -0.195851 0.355958
vn 6.175262 0.596879 0.310497
v 0.113881 -0.195733 0.355958
vn 5.699028 -1.179339 2.247181
v 0.098679 -0.165934 0.438170
vn 4.545313 -0.781325 3.478123
v 0.098673 -0.165955 0.438174
vn 2.015765 2.901456 1.546653
v 0.050022 0.079064 0.308254
vn 2.126495 1.504928 5.360283
v 0.098667 -0.153502 0.438178
vn 6.002101 0.473678 -0.954164
v 0.113881 -0.195733 0.355904
vn 5.642343 -1.060714 -1.181950
v 0.113881 -0.195851 0.355904
vn 5.671219 -2.590248 0.534779
v 0.107723 -0.209144 0.357452
vn 5.505745 -2.659457 0.958904
v 0.107713 -0.209163 0.357455
vn 4.046666 -0.948780 3.713241
v 0.098667 -0.165972 0.438178
vn 3.219558 -1.277253 3.916160
v 0.098662 -0.165983 0.438180
vn 2.570507 -0.743537 -4.125596
v 0.059057 0.023373 0.218077
vn 2.573311 3.637531 -0.801560
v 0.050022 0.079064 0.298798
vn 2.035999 1.644792 -2.493083
v 0.059057 0.035858 0.218077
vn 5.523300 -1.668571 -1.589246
v 0.107723 -0.209144 0.348034
vn 5.397997 -1.814529 -1.662272
v 0.107713 -0.209163 0.348022
vn 5.280777 -2.992512 1.046765
v 0.107705 -0.209179 0.357458
vn 5.174255 -2.088699 -1.782406
v 0.107705 -0.209179 0.348014
vn 1.123103 1.511958 5.590385
v 0.098662 -0.153503 0.438180
vn 4.718396 -3.623821 1.191762
v 0.107698 -0.209190 0.357459
vn 4.599186 -2.589546 -2.006388
v 0.107698 -0.209190 0.348007
vn -0.052548 2.727143 5.644161
v 0.087072 -0.153503 0.438180
vn 0.298592 1.027318 6.030524
v 0.098657 -0.153505 0.438181
vn -0.475786 4.524048 2.591867
v 0.038430 0.079064 0.308254
vn -0.201876 1.555343 5.862049
v 0.087065 -0.153505 0.438181
vn 2.003494 -2.136190 3.891571
v 0.098657 -0.165990 0.438181
vn 2.946604 -4.681534 1.383525
v 0.107692 -0.209196 0.357460
vn 2.822127 -3.410648 -2.283357
v 0.107692 -0.209196 0.348004
vn -1.280117 1.334583 5.554569
v -0.005925 -0.172951 0.438181
vn -0.625218 -1.579810 5.546352
v -0.005925 -0.185436 0.438181
vn 0.420350 -2.763366 4.569478
v 0.005667 -0.185436 0.438181
vn 0.000003 0.000027 6.283185
v 0.005667 -0.172951 0.438181
vn -1.441490 4.089019 3.210814
v -0.054559 0.059618 0.308255
vn -3.021636 2.430465 1.355129
v -0.054560 0.059618 0.308254
vn -3.767299 0.521656 4.040706
v -0.005927 -0.172952 0.438180
vn 0.154260 -1.591861 -5.842605
v -0.033933 0.003927 0.218077
vn 1.420910 -4.236446 -2.676772
v 0.107687 -0.209198 0.348003
vn -0.000003 -0.000027 -6.283185
v 0.047465 0.023373 0.218077
vn -2.612764 -0.999545 -2.904830
v -0.045525 0.003927 0.218077
vn 0.355279 -4.544059 -2.677367
v 0.014697 -0.228643 0.348003
vn -2.027348 -2.848889 -1.528952
v 0.003107 -0.228643 0.348003
vn 1.057753 -5.783001 -1.447719
v 0.014702 -0.228642 0.348004
vn 0.827431 -5.757856 1.542972
v 0.014702 -0.228642 0.357460
vn 0.254334 -5.880233 1.396133
v 0.014697 -0.228643 0.357459
vn 1.532005 -5.653242 1.407487
v 0.107687 -0.209198 0.357459
vn -0.282108 2.820630 -4.476770
v 0.047465 0.035858 0.218077
vn -2.529788 1.180160 -2.938290
v -0.045525 0.016412 0.218077
vn -1.553429 4.717685 -3.578087
v -0.045525 0.016413 0.218078
vn -0.603635 5.755517 -1.448487
v 0.038430 0.079064 0.298798
vn -2.412610 -1.924838 2.400458
v -0.005927 -0.185437 0.438180
vn 0.158258 -4.685712 3.922214
v 0.005662 -0.185437 0.438180
vn 1.146940 -4.181283 4.118972
v 0.098653 -0.165992 0.438180
vn -3.249652 2.886556 -0.873987
v -0.054560 0.059618 0.298798
vn -6.202943 -0.540607 -0.229109
v -0.054560 0.047133 0.298798
vn -6.036655 -0.423939 0.912773
v -0.054560 0.047133 0.308254
vn -2.585272 -3.583014 0.787682
v 0.003107 -0.228643 0.357459
# 60 vertices, 0 vertices normals

f 1//1 2//2 3//3
f 1//1 4//4 5//5
f 1//1 5//5 2//2
f 1//1 6//6 4//4
f 1//1 3//3 7//7
f 1//1 7//7 6//6
f 2//2 5//5 8//8
f 2//2 9//9 3//3
f 2//2 8//8 9//9
f 4//4 10//10 5//5
f 4//4 11//11 10//10
f 4//4 6//6 7//7
f 4//4 12//12 11//11
f 4//4 13//13 12//12
f 4//4 7//7 14//14
f 4//4 14//14 15//15
f 4//4 15//15 13//13
f 10//10 11//11 16//16
f 10//10 17//17 8//8
f 10//10 16//16 18//18
f 10//10 18//18 17//17
f 10//10 8//8 5//5
f 11//11 12//12 19//19
f 11//11 19//19 16//16
f 12//12 13//13 19//19
f 19//19 13//13 20//20
f 19//19 20//20 16//16
f 3//3 9//9 7//7
f 13//13 21//21 20//20
f 13//13 15//15 21//21
f 20//20 21//21 22//22
f 20//20 22//22 16//16
f 7//7 9//9 14//14
f 14//14 9//9 23//23
f 14//14 23//23 15//15
f 21//21 24//24 22//22
f 21//21 15//15 24//24
f 9//9 8//8 23//23
f 22//22 24//24 25//25
f 22//22 25//25 16//16
f 26//26 23//23 8//8
f 26//26 27//27 23//23
f 26//26 28//28 29//29
f 26//26 29//29 27//27
f 26//26 8//8 28//28
f 24//24 15//15 30//30
f 24//24 31//31 25//25
f 24//24 30//30 31//31
f 23//23 27//27 15//15
f 25//25 31//31 32//32
f 25//25 32//32 16//16
f 15//15 27//27 30//30
f 33//33 34//34 35//35
f 33//33 36//36 29//29
f 33//33 29//29 37//37
f 33//33 38//38 39//39
f 33//33 35//35 36//36
f 33//33 39//39 34//34
f 33//33 37//37 38//38
f 40//40 16//16 41//41
f 40//40 42//42 16//16
f 40//40 43//43 42//42
f 40//40 44//44 45//45
f 40//40 41//41 44//44
f 40//40 45//45 43//43
f 46//46 47//47 48//48
f 46//46 44//44 41//41
f 46//46 49//49 47//47
f 46//46 48//48 44//44
f 46//46 41//41 49//49
f 50//50 17//17 18//18
f 50//50 16//16 42//42
f 50//50 42//42 51//51
f 50//50 51//51 52//52
f 50//50 18//18 16//16
f 50//50 53//53 17//17
f 50//50 52//52 53//53
f 34//34 54//54 55//55
f 34//34 39//39 54//54
f 34//34 55//55 35//35
f 27//27 36//36 30//30
f 27//27 29//29 36//36
f 17//17 28//28 8//8
f 17//17 53//53 28//28
f 31//31 30//30 56//56
f 31//31 56//56 49//49
f 31//31 49//49 32//32
f 16//16 32//32 41//41
f 57//57 58//58 59//59
f 57//57 28//28 53//53
f 57//57 51//51 58//58
f 57//57 59//59 38//38
f 57//57 38//38 28//28
f 57//57 53//53 52//52
f 57//57 52//52 51//51
f 58//58 43//43 45//45
f 58//58 51//51 43//43
f 58//58 45//45 59//59
f 36//36 35//35 30//30
f 30//30 35//35 56//56
f 47//47 35//35 55//55
f 47//47 56//56 35//35
f 47//47 49//49 56//56
f 47//47 55//55 48//48
f 42//42 43//43 51//51
f 28//28 38//38 37//37
f 28//28 37//37 29//29
f 59//59 60//60 54//54
f 59//59 54//54 39//39
f 59//59 39//39 38//38
f 59//59 45//45 60//60
f 32//32 49//49 41//41
f 44//44 60//60 45//45
f 44//44 48//48 60//60
f 60//60 48//48 55//55
f 60//60 55//55 54//54
# 116 faces, 0 coords texture

# End of File
