####
#
# OBJ File Generated by Meshlab
#
####
# Object zonopy_mesh_step16_link2.obj
#
# Vertices: 73
# Faces: 142
#
####
vn 3.930133 -3.000631 -1.262712
v 0.034067 -0.223087 0.358636
vn 4.126281 -3.306378 0.722218
v 0.034067 -0.223087 0.358690
vn 2.744258 -5.363190 1.229730
v 0.015129 -0.232474 0.360493
vn 3.028901 -5.182819 -1.236667
v 0.015129 -0.232474 0.351093
vn 2.873074 -4.473319 -2.141191
v 0.015102 -0.232487 0.351081
vn 2.811342 -1.167476 -3.521863
v 0.066200 -0.002955 0.216813
vn 5.577793 -0.483272 -1.953573
v 0.066202 -0.002950 0.216816
vn 6.220118 -0.420757 -0.295522
v 0.076121 0.041562 0.296713
vn 6.141833 -0.329564 0.693292
v 0.076121 0.041562 0.306151
vn 3.078755 0.791010 3.810414
v 0.039712 -0.176825 0.438090
vn 3.213229 -1.188202 2.854453
v 0.039712 -0.176959 0.438090
vn 0.946363 1.447412 5.827077
v 0.024994 -0.175383 0.440397
vn 3.148302 1.980747 2.278500
v 0.076121 0.054172 0.306151
vn 3.498606 -4.044617 3.151610
v 0.025035 -0.187950 0.440390
vn 2.314416 -2.410864 4.232327
v 0.025013 -0.187966 0.440394
vn 1.969572 -2.422038 4.259683
v 0.024994 -0.187977 0.440397
vn 1.490010 -2.556575 4.281700
v 0.024979 -0.187985 0.440399
vn 2.580449 -5.410681 1.269486
v 0.015102 -0.232487 0.360496
vn 2.265391 -5.514969 1.316766
v 0.015079 -0.232497 0.360498
vn 2.568767 -4.521096 -2.234407
v 0.015079 -0.232497 0.351072
vn 1.729585 -5.638126 1.388434
v 0.015061 -0.232504 0.360500
vn 2.023865 -4.586763 -2.356044
v 0.015061 -0.232504 0.351066
vn 1.445635 6.112383 -0.063100
v 0.076117 0.054174 0.296719
vn 1.444606 6.112466 0.068041
v 0.076117 0.054174 0.306145
vn 3.021855 3.794829 1.142082
v 0.076120 0.054173 0.306149
vn 3.145452 3.885925 -0.963047
v 0.076120 0.054173 0.296715
vn 0.779880 5.725822 -1.516098
v -0.016607 0.074836 0.296713
vn 0.643098 1.482425 5.831112
v 0.024979 -0.175381 0.440399
vn 0.657212 4.585157 2.593375
v -0.016607 0.074836 0.306151
vn 0.693394 -2.786128 4.285806
v 0.024967 -0.187990 0.440399
vn -5.977768 1.803012 0.281448
v -0.028249 0.074832 0.306149
vn -5.990451 1.823390 -0.099359
v -0.028249 0.074832 0.296715
vn -6.023366 0.454503 -0.919557
v -0.089326 -0.199232 0.351062
vn -2.061892 3.165946 1.666500
v -0.028248 0.074836 0.306151
vn -2.907143 1.240944 2.872907
v -0.079404 -0.154716 0.440399
vn -6.190941 0.570532 0.255830
v -0.089326 -0.199232 0.360500
vn 4.157142 1.992867 -2.338087
v 0.066202 0.009655 0.216816
vn 1.963092 1.829712 -3.926810
v 0.066200 0.009655 0.216813
vn 0.169378 1.648994 5.806504
v -0.067760 -0.154717 0.440400
vn 0.214939 0.665912 6.196900
v 0.024967 -0.175380 0.440399
vn 4.409574 2.387044 -1.487381
v 0.076121 0.054172 0.296713
vn 0.296708 2.798159 -4.518173
v -0.026531 0.030319 0.216814
vn 0.689468 -5.724671 1.451365
v 0.015047 -0.232507 0.360500
vn 0.922265 -4.538974 -2.496964
v 0.015047 -0.232507 0.351062
vn -2.545206 1.522849 -2.658318
v -0.038168 0.030318 0.216814
vn -2.550276 3.934154 -0.923216
v -0.028248 0.074836 0.296713
vn 0.148523 5.860491 -1.513906
v -0.016609 0.074836 0.296713
vn 0.157210 4.675259 2.685028
v -0.016609 0.074836 0.306151
vn 0.000009 -0.000067 6.283185
v -0.067760 -0.167326 0.440400
vn -0.449649 1.394998 5.789039
v -0.079401 -0.154717 0.440400
vn -0.076557 4.712151 2.691181
v -0.028245 0.074836 0.306151
vn 0.453293 -1.758290 -5.675044
v 0.066196 -0.002956 0.216813
vn 0.099810 0.110280 -6.278347
v 0.066196 0.009653 0.216813
vn -1.353032 -2.439026 4.305609
v -0.079401 -0.167326 0.440400
vn -2.115607 -5.231794 1.520543
v -0.089321 -0.211843 0.360501
vn -0.555441 -4.147407 4.200631
v 0.013324 -0.187990 0.440398
vn -3.364375 -1.126666 3.034054
v -0.079404 -0.167324 0.440399
vn -0.041820 -2.294476 5.284275
v 0.013327 -0.187990 0.440399
vn -4.265119 -2.658418 0.857826
v -0.089326 -0.211841 0.360500
vn -1.523417 -4.532604 -2.361647
v -0.089321 -0.211843 0.351063
vn -0.723559 -5.737870 1.441451
v 0.003402 -0.232507 0.360499
vn -2.653176 -0.814541 -4.072153
v -0.038168 0.017709 0.216814
vn -0.558533 2.780588 -4.348242
v -0.038166 0.030319 0.216814
vn -0.165147 -0.153978 -6.271869
v -0.038166 0.017710 0.216814
vn -0.122279 -5.807240 2.076271
v 0.003406 -0.232507 0.360500
vn 0.023684 -6.245861 0.467515
v 0.015037 -0.232507 0.360499
vn -0.075507 5.876596 -1.515136
v -0.028245 0.074836 0.296713
vn -0.169394 -1.648996 -5.806501
v 0.054561 -0.002956 0.216813
vn -0.511075 -4.561083 -2.556076
v 0.003402 -0.232507 0.351061
vn -2.980550 -2.152509 -1.850233
v -0.089326 -0.211841 0.351062
vn 0.142188 -4.670738 -2.725358
v 0.015037 -0.232507 0.351061
vn 0.049287 -5.054545 3.645680
v 0.024959 -0.187990 0.440398
vn -0.000009 0.000067 -6.283185
v 0.054561 0.009653 0.216813
# 73 vertices, 0 vertices normals

f 1//1 2//2 3//3
f 1//1 4//4 5//5
f 1//1 3//3 4//4
f 1//1 5//5 6//6
f 1//1 7//7 8//8
f 1//1 6//6 7//7
f 1//1 9//9 2//2
f 1//1 8//8 9//9
f 10//10 11//11 9//9
f 10//10 12//12 11//11
f 10//10 9//9 13//13
f 10//10 13//13 12//12
f 11//11 2//2 9//9
f 11//11 14//14 2//2
f 11//11 15//15 14//14
f 11//11 12//12 16//16
f 11//11 16//16 15//15
f 2//2 14//14 15//15
f 2//2 15//15 16//16
f 2//2 16//16 17//17
f 2//2 17//17 3//3
f 4//4 3//3 18//18
f 4//4 18//18 5//5
f 3//3 17//17 18//18
f 5//5 18//18 19//19
f 5//5 20//20 6//6
f 5//5 19//19 20//20
f 18//18 17//17 19//19
f 20//20 19//19 21//21
f 20//20 22//22 6//6
f 20//20 21//21 22//22
f 23//23 24//24 25//25
f 23//23 26//26 27//27
f 23//23 25//25 26//26
f 23//23 27//27 24//24
f 12//12 28//28 16//16
f 12//12 13//13 28//28
f 16//16 28//28 17//17
f 24//24 29//29 25//25
f 24//24 27//27 29//29
f 19//19 17//17 30//30
f 19//19 30//30 21//21
f 31//31 32//32 33//33
f 31//31 34//34 32//32
f 31//31 35//35 34//34
f 31//31 33//33 36//36
f 31//31 36//36 35//35
f 7//7 37//37 8//8
f 7//7 6//6 38//38
f 7//7 38//38 37//37
f 28//28 29//29 39//39
f 28//28 39//39 40//40
f 28//28 40//40 17//17
f 28//28 13//13 29//29
f 26//26 25//25 13//13
f 26//26 37//37 38//38
f 26//26 41//41 37//37
f 26//26 13//13 41//41
f 26//26 38//38 42//42
f 26//26 42//42 27//27
f 22//22 21//21 43//43
f 22//22 44//44 6//6
f 22//22 43//43 44//44
f 17//17 40//40 30//30
f 25//25 29//29 13//13
f 37//37 41//41 8//8
f 21//21 30//30 43//43
f 32//32 45//45 33//33
f 32//32 34//34 46//46
f 32//32 46//46 45//45
f 29//29 27//27 47//47
f 29//29 48//48 39//39
f 29//29 47//47 48//48
f 39//39 49//49 40//40
f 39//39 50//50 49//49
f 39//39 48//48 51//51
f 39//39 51//51 50//50
f 6//6 44//44 52//52
f 6//6 52//52 53//53
f 6//6 53//53 38//38
f 54//54 55//55 56//56
f 54//54 49//49 50//50
f 54//54 50//50 57//57
f 54//54 58//58 49//49
f 54//54 57//57 59//59
f 54//54 59//59 55//55
f 54//54 56//56 58//58
f 27//27 42//42 47//47
f 55//55 60//60 61//61
f 55//55 59//59 60//60
f 55//55 61//61 56//56
f 9//9 41//41 13//13
f 9//9 8//8 41//41
f 45//45 62//62 33//33
f 45//45 46//46 63//63
f 45//45 64//64 62//62
f 45//45 63//63 64//64
f 65//65 43//43 56//56
f 65//65 61//61 66//66
f 65//65 56//56 61//61
f 65//65 66//66 43//43
f 34//34 51//51 67//67
f 34//34 35//35 51//51
f 34//34 67//67 46//46
f 49//49 30//30 40//40
f 49//49 58//58 30//30
f 62//62 64//64 68//68
f 62//62 68//68 69//69
f 62//62 69//69 70//70
f 62//62 70//70 33//33
f 44//44 43//43 66//66
f 44//44 71//71 52//52
f 44//44 66//66 71//71
f 50//50 51//51 35//35
f 50//50 35//35 57//57
f 30//30 58//58 72//72
f 30//30 72//72 43//43
f 60//60 59//59 70//70
f 60//60 69//69 61//61
f 60//60 70//70 69//69
f 38//38 53//53 42//42
f 58//58 56//56 72//72
f 43//43 72//72 56//56
f 46//46 67//67 63//63
f 48//48 47//47 51//51
f 64//64 63//63 73//73
f 64//64 73//73 68//68
f 47//47 42//42 67//67
f 47//47 67//67 51//51
f 68//68 52//52 71//71
f 68//68 73//73 52//52
f 68//68 71//71 69//69
f 52//52 73//73 53//53
f 42//42 63//63 67//67
f 42//42 73//73 63//63
f 42//42 53//53 73//73
f 57//57 35//35 36//36
f 57//57 36//36 59//59
f 59//59 33//33 70//70
f 59//59 36//36 33//33
f 61//61 69//69 71//71
f 61//61 71//71 66//66
# 142 faces, 0 coords texture

# End of File
