####
#
# OBJ File Generated by Meshlab
#
####
# Object zonopy_mesh_step28_link2.obj
#
# Vertices: 90
# Faces: 176
#
####
vn -3.037254 3.619798 0.484796
v -0.166166 0.077888 0.427049
vn 0.026628 6.282832 0.025794
v -0.165897 0.077888 0.427049
vn 0.124613 6.231331 -0.531094
v -0.165897 0.077888 0.426834
vn -2.736583 3.185686 -1.131930
v -0.166166 0.077888 0.426834
vn -5.888496 0.712860 1.121898
v -0.189709 -0.014150 0.427048
vn -5.606207 2.100395 1.776974
v -0.159822 0.077657 0.447661
vn -4.666558 3.213546 1.582474
v -0.159810 0.077659 0.447695
vn -3.332821 3.724823 1.320983
v -0.159800 0.077660 0.447723
vn -2.763880 3.703277 1.388504
v -0.159791 0.077660 0.447744
vn -4.628887 -1.815280 -1.550040
v -0.189709 -0.014287 0.426833
vn -5.416956 0.686941 -1.829951
v -0.189709 -0.014150 0.426833
vn -4.484519 0.604550 -4.242973
v -0.029406 -0.050220 0.218431
vn -5.497055 -1.526544 0.763671
v -0.189709 -0.014287 0.427048
vn -4.366094 -4.272687 -0.850073
v -0.181366 -0.025433 0.439741
vn -4.246481 -4.381149 -0.846325
v -0.181352 -0.025452 0.439762
vn -2.771252 -3.032481 -2.136512
v -0.029406 -0.060840 0.218431
vn 0.092768 6.279153 0.100896
v -0.145660 0.077660 0.447744
vn 0.342125 6.251575 -0.310029
v -0.145660 0.077660 0.439796
vn 1.268239 4.158010 -2.668848
v 0.006269 0.042309 0.218432
vn -1.659860 3.026038 -3.028437
v -0.007873 0.042309 0.218432
vn -5.857413 -0.719458 1.992710
v -0.181383 -0.025411 0.447620
vn -5.811039 0.219996 2.368305
v -0.181383 -0.014871 0.447620
vn -5.367241 -1.911222 1.233390
v -0.181366 -0.025433 0.447660
vn -5.722915 0.651161 2.411650
v -0.181366 -0.014869 0.447660
vn -5.248526 -2.009351 1.300731
v -0.181352 -0.025452 0.447694
vn -5.662908 0.655170 2.542287
v -0.181352 -0.014868 0.447694
vn -4.052871 -4.583404 -0.772514
v -0.181339 -0.025468 0.439780
vn -5.047996 -2.149593 1.411440
v -0.181339 -0.025468 0.447722
vn -5.556120 0.643793 2.762057
v -0.181339 -0.014868 0.447722
vn -0.019979 0.039377 -6.282767
v -0.007854 0.042293 0.218430
vn 0.000137 0.000020 -6.283185
v -0.015275 -0.050235 0.218429
vn -0.047353 0.002899 -6.282825
v -0.029392 -0.050235 0.218429
vn 0.078126 0.028670 -6.281641
v 0.006263 0.042293 0.218430
vn -0.229746 0.421052 -6.236309
v -0.007864 0.042301 0.218430
vn 1.125447 0.295872 -5.999541
v 0.006267 0.042301 0.218430
vn -0.029385 -0.095957 -6.281024
v -0.029392 -0.060835 0.218429
vn 0.031099 -0.099825 -6.280990
v -0.015275 -0.060835 0.218429
vn 0.394782 -1.207409 -5.956274
v -0.015269 -0.060838 0.218429
vn -0.343625 -1.163673 -5.966116
v -0.029400 -0.060838 0.218429
vn 0.093225 -0.006878 -6.281789
v 0.006263 0.031693 0.218430
vn 1.354001 -0.106395 -6.007234
v 0.006267 0.031690 0.218430
vn -3.742632 -4.871659 -0.657502
v -0.181327 -0.025479 0.439795
vn -4.706434 -2.345768 1.580134
v -0.181327 -0.025479 0.447743
vn -5.366209 0.623586 3.107032
v -0.181327 -0.014868 0.447743
vn -2.509423 3.540949 1.896198
v -0.159783 0.077660 0.447760
vn -0.575710 0.037144 -6.236056
v -0.029400 -0.050227 0.218429
vn -1.057539 1.491865 -5.605312
v -0.007870 0.042307 0.218431
vn 1.874033 1.679792 -4.896393
v 0.006269 0.042307 0.218431
vn 2.977471 -0.363359 -5.428602
v 0.006269 0.031689 0.218431
vn 1.155187 -2.855563 -3.815057
v -0.015266 -0.060840 0.218430
vn -1.591354 -2.408315 -3.140265
v -0.029405 -0.060840 0.218430
vn -3.147433 -5.300487 -0.443594
v -0.181317 -0.025487 0.439806
vn -3.911143 -2.621135 1.878855
v -0.181317 -0.025487 0.447759
vn -4.919520 0.575750 3.732512
v -0.181317 -0.014869 0.447759
vn 0.408942 6.210098 0.397448
v -0.145643 0.077660 0.447760
vn 0.686830 6.218295 -0.188325
v -0.145643 0.077660 0.439807
vn -2.772175 0.195226 -5.185661
v -0.029405 -0.050222 0.218430
vn -2.069506 3.295860 2.797224
v -0.159776 0.077658 0.447769
vn 0.620744 6.063181 0.889567
v -0.145634 0.077658 0.447769
vn 1.214115 6.160391 -0.040159
v -0.145634 0.077658 0.439816
vn 0.105979 -6.270444 -0.204630
v 0.057986 -0.077889 0.271419
vn -0.671806 -6.172985 -0.306924
v 0.043847 -0.077889 0.271419
vn -0.195642 -6.111992 -1.182612
v 0.043848 -0.077889 0.271417
vn -0.572951 -6.172084 0.341566
v 0.043847 -0.077889 0.279371
vn 0.511994 -6.108853 0.857438
v 0.057986 -0.077889 0.279371
vn 2.461374 -2.749389 -1.527624
v 0.057989 -0.077889 0.271417
vn 2.978405 -3.181999 1.055249
v 0.057989 -0.077889 0.279370
vn -2.521498 2.632279 4.571243
v -0.086531 0.060611 0.500749
vn -3.268192 0.362212 5.305612
v -0.108066 -0.031918 0.500748
vn -1.032644 2.880859 3.885324
v -0.086521 0.060610 0.500754
vn -1.424168 -6.119654 -0.000015
v -0.108055 -0.042540 0.492801
vn -2.154872 -5.840858 -0.145936
v -0.181309 -0.025492 0.439815
vn 3.095825 2.127680 -1.423754
v 0.079523 0.025261 0.271418
vn -3.211822 -2.102755 4.207061
v -0.108066 -0.042536 0.500748
vn -2.811316 -2.827007 2.249481
v -0.181309 -0.025492 0.447768
vn -1.434829 -2.789044 2.930125
v -0.108055 -0.042540 0.500753
vn -2.037397 0.237025 5.828365
v -0.108055 -0.031919 0.500753
vn 1.250729 -2.430292 3.045647
v -0.093910 -0.042541 0.500755
vn -0.448572 -2.947698 3.384360
v -0.108047 -0.042541 0.500755
vn -4.110898 0.470875 4.610261
v -0.181309 -0.014871 0.447768
vn 4.793233 -0.561093 -2.405844
v 0.079523 0.014640 0.271418
vn 1.424160 6.119656 0.000017
v 0.006269 0.042309 0.226385
vn 0.915906 4.758894 2.496108
v -0.072380 0.060610 0.500754
vn 3.546954 2.462082 0.962773
v 0.079523 0.025261 0.279371
vn -0.572595 0.058649 6.229612
v -0.108047 -0.031922 0.500755
vn 5.538713 -0.647123 1.719270
v 0.079523 0.014640 0.279371
vn 2.653890 -0.291088 4.780336
v -0.072376 0.049989 0.500756
vn -0.283759 1.671512 5.699467
v -0.086514 0.060608 0.500756
vn 1.979892 1.973361 3.152295
v -0.072376 0.060608 0.500756
vn -0.000137 -0.000020 6.283185
v -0.086514 0.049989 0.500756
# 90 vertices, 0 vertices normals

f 1//1 2//2 3//3
f 1//1 3//3 4//4
f 1//1 5//5 6//6
f 1//1 4//4 5//5
f 1//1 6//6 7//7
f 1//1 7//7 8//8
f 1//1 8//8 9//9
f 1//1 9//9 2//2
f 10//10 11//11 12//12
f 10//10 13//13 11//11
f 10//10 14//14 13//13
f 10//10 15//15 14//14
f 10//10 16//16 15//15
f 10//10 12//12 16//16
f 2//2 9//9 17//17
f 2//2 17//17 18//18
f 2//2 18//18 3//3
f 3//3 18//18 19//19
f 3//3 20//20 4//4
f 3//3 19//19 20//20
f 11//11 13//13 5//5
f 11//11 5//5 4//4
f 11//11 4//4 20//20
f 11//11 20//20 12//12
f 13//13 21//21 22//22
f 13//13 22//22 5//5
f 13//13 14//14 23//23
f 13//13 23//23 21//21
f 5//5 22//22 24//24
f 5//5 24//24 8//8
f 5//5 7//7 6//6
f 5//5 8//8 7//7
f 21//21 23//23 24//24
f 21//21 24//24 22//22
f 14//14 15//15 23//23
f 23//23 25//25 26//26
f 23//23 26//26 24//24
f 23//23 15//15 25//25
f 24//24 26//26 9//9
f 24//24 9//9 8//8
f 25//25 15//15 27//27
f 25//25 28//28 29//29
f 25//25 29//29 26//26
f 25//25 27//27 28//28
f 26//26 29//29 9//9
f 15//15 16//16 27//27
f 30//30 31//31 32//32
f 30//30 33//33 31//31
f 30//30 32//32 34//34
f 30//30 34//34 35//35
f 30//30 35//35 33//33
f 36//36 37//37 38//38
f 36//36 32//32 37//37
f 36//36 39//39 32//32
f 36//36 38//38 39//39
f 31//31 33//33 40//40
f 31//31 37//37 32//32
f 31//31 40//40 37//37
f 33//33 41//41 40//40
f 33//33 35//35 41//41
f 28//28 27//27 42//42
f 28//28 43//43 44//44
f 28//28 42//42 43//43
f 28//28 44//44 29//29
f 37//37 40//40 38//38
f 29//29 44//44 45//45
f 29//29 45//45 9//9
f 40//40 41//41 38//38
f 32//32 39//39 46//46
f 32//32 46//46 34//34
f 27//27 16//16 42//42
f 34//34 46//46 47//47
f 34//34 47//47 48//48
f 34//34 48//48 35//35
f 41//41 35//35 49//49
f 41//41 50//50 38//38
f 41//41 49//49 50//50
f 9//9 45//45 17//17
f 39//39 38//38 50//50
f 39//39 51//51 46//46
f 39//39 50//50 51//51
f 43//43 42//42 52//52
f 43//43 52//52 53//53
f 43//43 53//53 54//54
f 43//43 54//54 44//44
f 35//35 48//48 49//49
f 17//17 55//55 56//56
f 17//17 45//45 55//55
f 17//17 56//56 18//18
f 42//42 16//16 52//52
f 18//18 56//56 19//19
f 46//46 51//51 57//57
f 46//46 57//57 47//47
f 44//44 54//54 45//45
f 55//55 45//45 58//58
f 55//55 59//59 60//60
f 55//55 58//58 59//59
f 55//55 60//60 56//56
f 61//61 62//62 63//63
f 61//61 64//64 62//62
f 61//61 65//65 64//64
f 61//61 66//66 67//67
f 61//61 63//63 66//66
f 61//61 67//67 65//65
f 68//68 69//69 70//70
f 68//68 58//58 69//69
f 68//68 70//70 58//58
f 47//47 57//57 20//20
f 47//47 20//20 19//19
f 47//47 19//19 48//48
f 62//62 64//64 71//71
f 62//62 16//16 63//63
f 62//62 71//71 72//72
f 62//62 72//72 16//16
f 45//45 54//54 58//58
f 51//51 50//50 63//63
f 51//51 63//63 16//16
f 51//51 16//16 57//57
f 48//48 73//73 49//49
f 48//48 19//19 73//73
f 74//74 69//69 75//75
f 74//74 76//76 77//77
f 74//74 75//75 76//76
f 74//74 77//77 69//69
f 52//52 16//16 72//72
f 52//52 72//72 53//53
f 64//64 65//65 78//78
f 64//64 76//76 71//71
f 64//64 78//78 79//79
f 64//64 79//79 76//76
f 50//50 49//49 66//66
f 50//50 66//66 63//63
f 69//69 58//58 80//80
f 69//69 77//77 70//70
f 69//69 80//80 75//75
f 53//53 75//75 80//80
f 53//53 80//80 54//54
f 53//53 72//72 75//75
f 65//65 67//67 78//78
f 49//49 73//73 81//81
f 49//49 81//81 66//66
f 54//54 80//80 58//58
f 57//57 16//16 12//12
f 57//57 12//12 20//20
f 56//56 60//60 19//19
f 59//59 58//58 70//70
f 59//59 82//82 60//60
f 59//59 83//83 84//84
f 59//59 70//70 83//83
f 59//59 84//84 82//82
f 66//66 81//81 67//67
f 82//82 73//73 19//19
f 82//82 19//19 60//60
f 82//82 84//84 73//73
f 76//76 75//75 71//71
f 76//76 79//79 85//85
f 76//76 85//85 77//77
f 73//73 86//86 81//81
f 73//73 84//84 86//86
f 75//75 72//72 71//71
f 86//86 67//67 81//81
f 86//86 84//84 87//87
f 86//86 78//78 67//67
f 86//86 87//87 78//78
f 83//83 70//70 88//88
f 83//83 88//88 89//89
f 83//83 89//89 84//84
f 70//70 77//77 88//88
f 77//77 85//85 88//88
f 84//84 89//89 87//87
f 78//78 87//87 90//90
f 78//78 90//90 79//79
f 88//88 87//87 89//89
f 88//88 85//85 90//90
f 88//88 90//90 87//87
f 79//79 90//90 85//85
# 176 faces, 0 coords texture

# End of File
