####
#
# OBJ File Generated by Meshlab
#
####
# Object zonopy_mesh_step15_link4.obj
#
# Vertices: 107
# Faces: 210
#
####
vn 6.258960 -0.307741 0.143032
v 0.012605 -0.366015 0.436416
vn 2.858275 -3.192661 -0.991936
v -0.006962 -0.544556 0.633529
vn 4.186539 -0.980787 -2.570537
v 0.012605 -0.366015 0.436105
vn 4.259501 0.803481 -2.689387
v 0.012605 -0.365673 0.436105
vn 6.279039 0.083037 0.096340
v 0.012605 -0.365673 0.436416
vn 6.264375 -0.045917 0.437211
v 0.010140 -0.297683 0.497968
vn 3.011700 -2.932186 1.037434
v -0.006962 -0.544556 0.633840
vn 3.497199 -1.140555 3.024951
v -0.009426 -0.476223 0.695392
vn 3.912728 0.823170 3.088168
v -0.009426 -0.475881 0.695392
vn 2.141438 -0.079432 5.905905
v -0.044203 -0.476885 0.708003
vn 2.120679 -0.639241 5.843625
v -0.044303 -0.476891 0.708039
vn 1.717400 -1.891019 5.324893
v -0.044472 -0.476899 0.708099
vn 2.126622 -4.542723 3.630153
v -0.041413 -0.548045 0.649788
vn 0.909552 -4.985756 2.359324
v -0.041712 -0.548072 0.649909
vn 1.325016 -4.976530 2.277155
v -0.041581 -0.548064 0.649862
vn 1.131821 -5.019340 2.311957
v -0.041654 -0.548069 0.649889
vn 0.701686 -5.548269 -1.928238
v -0.041581 -0.548064 0.629378
vn 3.637980 -2.473561 -4.124544
v -0.008753 -0.379359 0.425143
vn 3.338420 -1.942549 -4.344092
v -0.008826 -0.379402 0.425105
vn 3.255879 -1.976046 -4.378573
v -0.008893 -0.379441 0.425071
vn 3.683051 -3.892458 -3.278095
v -0.008954 -0.379474 0.425042
vn 2.851980 -2.048919 -4.481320
v -0.009009 -0.379502 0.425015
vn 0.909289 -2.501182 -4.847097
v -0.009167 -0.379561 0.424966
vn 2.282940 -2.194949 -4.672719
v -0.009100 -0.379542 0.424981
vn 1.678756 -2.296531 -4.822737
v -0.009137 -0.379554 0.424971
vn 4.576076 2.619016 -0.866509
v 0.010140 -0.297341 0.497658
vn 2.928752 0.181600 -5.551245
v -0.008826 -0.353793 0.425105
vn 3.026807 0.521604 -5.445230
v -0.008893 -0.353745 0.425071
vn 2.966533 1.640299 -4.822050
v -0.009009 -0.353667 0.425015
vn 3.316024 4.342466 -1.951261
v -0.011992 -0.282442 0.483208
vn 3.739056 4.175156 -1.831850
v -0.011900 -0.282502 0.483252
vn 4.362090 2.531333 1.108545
v 0.010140 -0.297341 0.497968
vn 3.391110 4.508384 1.869439
v -0.011900 -0.282502 0.503737
vn 2.387152 1.903516 4.845638
v -0.044603 -0.450972 0.708136
vn 2.734146 1.782285 4.776191
v -0.044472 -0.451063 0.708099
vn 2.159460 0.031406 5.900214
v -0.044203 -0.451276 0.708003
vn 2.269253 0.229025 5.847453
v -0.044303 -0.451196 0.708039
vn 1.493972 -1.936556 5.406252
v -0.044546 -0.476900 0.708120
vn 0.606181 -5.014940 2.438807
v -0.041762 -0.548073 0.649924
vn 2.624114 -1.809104 -5.001598
v -0.009060 -0.379525 0.424996
vn 2.463210 0.649271 -5.694934
v -0.009060 -0.353638 0.424996
vn 2.469143 1.763944 -5.005711
v -0.009100 -0.353615 0.424981
vn 2.999312 4.681008 1.901484
v -0.011992 -0.282442 0.503753
vn 0.549377 -5.554919 -1.952977
v -0.041654 -0.548069 0.629369
vn 2.337035 1.151813 5.532805
v -0.044546 -0.451013 0.708120
vn 1.239639 -1.943965 5.418748
v -0.044603 -0.476899 0.708136
vn 0.312945 -5.535738 -1.975095
v -0.041712 -0.548072 0.629364
vn 0.826296 -1.969276 5.468896
v -0.044654 -0.476896 0.708147
vn 0.251680 -4.961489 3.021162
v -0.041803 -0.548071 0.649932
vn 1.869633 1.857053 -5.199801
v -0.009137 -0.353599 0.424971
vn 2.767918 4.558716 -2.104671
v -0.012028 -0.282422 0.483195
vn 2.432154 4.940267 1.966298
v -0.012028 -0.282422 0.503757
vn 1.206814 2.195167 4.930655
v -0.044695 -0.450920 0.708153
vn 1.989271 2.015876 4.935682
v -0.044654 -0.450941 0.708147
vn 0.125419 -5.566286 -1.984904
v -0.041762 -0.548073 0.629361
vn 0.315721 -1.882874 5.521412
v -0.044695 -0.476892 0.708153
vn 1.169171 2.050246 -5.306916
v -0.009167 -0.353588 0.424966
vn 1.654368 4.708019 -2.287181
v -0.012059 -0.282410 0.483187
vn 1.360282 5.144756 2.006886
v -0.012059 -0.282410 0.503758
vn -0.061618 -6.240472 0.475434
v -0.058998 -0.548073 0.649924
vn -0.058503 -5.988425 -1.291809
v -0.058998 -0.548073 0.629361
vn -0.285706 -5.049243 2.466168
v -0.059039 -0.548071 0.649932
vn -0.251097 -6.239820 -0.468847
v -0.059039 -0.548071 0.629361
vn 0.049377 -5.254995 -3.344090
v -0.125672 -0.543565 0.619683
vn -0.229780 -5.545192 -1.992323
v -0.142907 -0.543565 0.619683
vn -1.706813 -1.962952 -4.105170
v -0.110328 -0.375052 0.415285
vn 0.301467 -2.361861 -5.104237
v -0.093076 -0.375052 0.415285
vn 0.068584 -2.396924 -5.130754
v -0.093100 -0.375052 0.415285
vn -0.402549 -6.258581 0.246096
v -0.142907 -0.543565 0.640246
vn -0.968568 -5.013064 2.254592
v -0.142948 -0.543562 0.640251
vn -0.940135 -5.270538 -2.015241
v -0.142948 -0.543562 0.619680
vn -0.064902 0.205177 6.273168
v -0.061931 -0.450920 0.708153
vn -0.263731 -2.045962 5.480513
v -0.061931 -0.476892 0.708153
vn 0.447709 5.507762 1.895423
v -0.012083 -0.282405 0.503753
vn 0.051810 4.428012 4.410324
v -0.044747 -0.450907 0.708150
vn 0.426439 2.719068 4.991430
v -0.044726 -0.450910 0.708152
vn -0.715754 -4.185897 4.617953
v -0.059063 -0.548066 0.649933
vn -1.025911 -2.086082 5.370732
v -0.145840 -0.472384 0.698472
vn -0.600605 -1.005386 6.053737
v -0.061955 -0.476886 0.708152
vn -2.374007 -1.692844 4.604508
v -0.145864 -0.472376 0.698469
vn -2.402423 -4.236846 2.050818
v -0.142972 -0.543556 0.640251
vn 0.770588 5.079969 -2.282832
v -0.012083 -0.282405 0.483186
vn 0.606874 1.662627 -5.716116
v -0.093076 -0.349079 0.415285
vn 0.257414 2.046112 -5.480978
v -0.093100 -0.349075 0.415285
vn 0.314190 5.030237 -2.471957
v -0.095992 -0.277895 0.473503
vn -0.252656 1.908545 5.558494
v -0.061955 -0.450910 0.708152
vn -2.731919 -4.351395 -1.782724
v -0.142972 -0.543556 0.619683
vn -0.239830 4.541087 -4.172172
v -0.113220 -0.277895 0.473503
vn -1.543152 1.656427 -4.825135
v -0.110328 -0.349075 0.415285
vn -2.390497 2.843881 -1.294100
v -0.113223 -0.277895 0.473504
vn 0.046578 5.799434 -1.645085
v -0.096009 -0.277895 0.473504
vn -0.049382 5.254999 3.344140
v -0.029311 -0.282405 0.503753
vn 0.127685 5.986448 1.301038
v -0.095992 -0.277895 0.494071
vn -1.641573 4.772561 2.173355
v -0.113220 -0.277895 0.494071
vn -0.235428 4.127407 4.616187
v -0.061961 -0.450907 0.708150
vn -1.270382 1.678512 5.273167
v -0.145864 -0.446400 0.698469
vn -4.455301 -0.607359 2.668583
v -0.145870 -0.472370 0.698466
vn -4.731875 -2.434081 1.084039
v -0.142978 -0.543551 0.640248
vn 0.053299 6.266605 0.286365
v -0.096009 -0.277895 0.494066
vn -4.872802 -2.276504 -0.958682
v -0.142978 -0.543551 0.619687
vn -4.783957 -0.691256 -2.931088
v -0.110331 -0.375049 0.415286
vn -2.953242 3.645045 0.433531
v -0.113223 -0.277895 0.494066
vn -2.863871 1.696349 2.390250
v -0.145870 -0.446396 0.698466
vn -4.445160 1.072458 -2.920657
v -0.110331 -0.349076 0.415286
vn -6.236469 0.083765 -0.657167
v -0.142978 -0.517577 0.619687
vn -6.212829 0.548470 -0.213870
v -0.145870 -0.446396 0.677904
vn -6.277293 -0.091585 -0.121831
v -0.145870 -0.472370 0.677904
# 107 vertices, 0 vertices normals

f 1//1 2//2 3//3
f 1//1 4//4 5//5
f 1//1 6//6 7//7
f 1//1 7//7 2//2
f 1//1 3//3 4//4
f 1//1 5//5 6//6
f 8//8 6//6 9//9
f 8//8 7//7 6//6
f 8//8 9//9 10//10
f 8//8 10//10 11//11
f 8//8 11//11 12//12
f 8//8 13//13 7//7
f 8//8 12//12 14//14
f 8//8 15//15 13//13
f 8//8 16//16 15//15
f 8//8 14//14 16//16
f 2//2 7//7 17//17
f 2//2 18//18 3//3
f 2//2 19//19 18//18
f 2//2 20//20 19//19
f 2//2 21//21 20//20
f 2//2 22//22 21//21
f 2//2 17//17 23//23
f 2//2 24//24 22//22
f 2//2 25//25 24//24
f 2//2 23//23 25//25
f 4//4 26//26 5//5
f 4//4 3//3 27//27
f 4//4 27//27 28//28
f 4//4 28//28 29//29
f 4//4 29//29 30//30
f 4//4 31//31 26//26
f 4//4 30//30 31//31
f 32//32 26//26 33//33
f 32//32 6//6 5//5
f 32//32 5//5 26//26
f 32//32 9//9 6//6
f 32//32 33//33 34//34
f 32//32 35//35 9//9
f 32//32 34//34 35//35
f 26//26 31//31 33//33
f 7//7 13//13 15//15
f 7//7 15//15 17//17
f 3//3 18//18 19//19
f 3//3 19//19 27//27
f 9//9 36//36 10//10
f 9//9 37//37 36//36
f 9//9 35//35 37//37
f 10//10 36//36 11//11
f 19//19 20//20 27//27
f 27//27 20//20 28//28
f 36//36 37//37 11//11
f 11//11 37//37 12//12
f 28//28 20//20 22//22
f 28//28 22//22 29//29
f 20//20 21//21 22//22
f 37//37 35//35 12//12
f 12//12 35//35 38//38
f 12//12 38//38 39//39
f 12//12 39//39 14//14
f 22//22 40//40 29//29
f 22//22 24//24 40//40
f 29//29 41//41 42//42
f 29//29 40//40 41//41
f 29//29 42//42 30//30
f 33//33 31//31 43//43
f 33//33 43//43 34//34
f 31//31 30//30 43//43
f 17//17 15//15 44//44
f 17//17 44//44 23//23
f 15//15 16//16 44//44
f 35//35 45//45 38//38
f 35//35 34//34 45//45
f 38//38 45//45 46//46
f 38//38 46//46 39//39
f 44//44 16//16 47//47
f 44//44 47//47 23//23
f 41//41 40//40 24//24
f 41//41 24//24 42//42
f 16//16 14//14 47//47
f 45//45 34//34 46//46
f 46//46 34//34 48//48
f 46//46 48//48 49//49
f 46//46 49//49 39//39
f 24//24 25//25 42//42
f 42//42 25//25 50//50
f 42//42 50//50 51//51
f 42//42 51//51 30//30
f 43//43 30//30 52//52
f 43//43 52//52 53//53
f 43//43 54//54 34//34
f 43//43 53//53 54//54
f 30//30 51//51 52//52
f 47//47 14//14 55//55
f 47//47 55//55 23//23
f 14//14 39//39 55//55
f 34//34 54//54 48//48
f 48//48 54//54 56//56
f 48//48 56//56 49//49
f 25//25 23//23 50//50
f 50//50 23//23 57//57
f 50//50 58//58 51//51
f 50//50 57//57 58//58
f 52//52 51//51 59//59
f 52//52 59//59 53//53
f 60//60 61//61 55//55
f 60//60 55//55 39//39
f 60//60 39//39 49//49
f 60//60 62//62 63//63
f 60//60 63//63 61//61
f 60//60 49//49 62//62
f 51//51 58//58 59//59
f 61//61 64//64 55//55
f 61//61 65//65 64//64
f 61//61 63//63 65//65
f 64//64 65//65 66//66
f 64//64 67//67 55//55
f 64//64 66//66 68//68
f 64//64 68//68 67//67
f 69//69 65//65 63//63
f 69//69 62//62 70//70
f 69//69 63//63 62//62
f 69//69 70//70 71//71
f 69//69 71//71 65//65
f 55//55 67//67 23//23
f 54//54 53//53 56//56
f 65//65 71//71 66//66
f 56//56 62//62 49//49
f 56//56 72//72 73//73
f 56//56 73//73 62//62
f 56//56 53//53 72//72
f 23//23 67//67 57//57
f 59//59 58//58 74//74
f 59//59 74//74 75//75
f 59//59 76//76 53//53
f 59//59 75//75 76//76
f 62//62 73//73 77//77
f 62//62 77//77 70//70
f 78//78 70//70 77//77
f 78//78 73//73 79//79
f 78//78 77//77 73//73
f 78//78 80//80 81//81
f 78//78 81//81 70//70
f 78//78 79//79 80//80
f 58//58 57//57 82//82
f 58//58 82//82 74//74
f 83//83 57//57 67//67
f 83//83 67//67 68//68
f 83//83 84//84 57//57
f 83//83 68//68 84//84
f 57//57 84//84 85//85
f 57//57 85//85 82//82
f 72//72 53//53 76//76
f 72//72 86//86 79//79
f 72//72 79//79 73//73
f 72//72 76//76 86//86
f 70//70 81//81 87//87
f 70//70 87//87 71//71
f 71//71 87//87 66//66
f 88//88 89//89 90//90
f 88//88 85//85 89//89
f 88//88 90//90 91//91
f 88//88 91//91 85//85
f 92//92 74//74 93//93
f 92//92 93//93 94//94
f 92//92 94//94 95//95
f 92//92 95//95 75//75
f 92//92 75//75 74//74
f 82//82 93//93 74//74
f 82//82 85//85 93//93
f 84//84 89//89 85//85
f 84//84 68//68 89//89
f 80//80 86//86 96//96
f 80//80 96//96 97//97
f 80//80 79//79 86//86
f 80//80 97//97 98//98
f 80//80 98//98 81//81
f 93//93 85//85 99//99
f 93//93 99//99 94//94
f 66//66 89//89 68//68
f 66//66 87//87 100//100
f 66//66 101//101 89//89
f 66//66 100//100 101//101
f 94//94 99//99 102//102
f 94//94 102//102 103//103
f 94//94 103//103 95//95
f 86//86 76//76 75//75
f 86//86 95//95 96//96
f 86//86 75//75 95//95
f 81//81 98//98 100//100
f 81//81 100//100 87//87
f 89//89 101//101 104//104
f 89//89 104//104 90//90
f 96//96 95//95 103//103
f 96//96 103//103 97//97
f 85//85 91//91 99//99
f 105//105 90//90 104//104
f 105//105 106//106 90//90
f 105//105 101//101 100//100
f 105//105 107//107 106//106
f 105//105 104//104 101//101
f 105//105 100//100 107//107
f 97//97 106//106 107//107
f 97//97 107//107 98//98
f 97//97 103//103 106//106
f 90//90 102//102 91//91
f 90//90 106//106 102//102
f 99//99 91//91 102//102
f 102//102 106//106 103//103
f 107//107 100//100 98//98
# 210 faces, 0 coords texture

# End of File
