####
#
# OBJ File Generated by Meshlab
#
####
# Object zonopy_mesh_step25_link4.obj
#
# Vertices: 36
# Faces: 68
#
####
vn 0.002198 -6.283177 -0.005770
v -0.072772 -0.000895 0.677304
vn -0.002177 -6.283183 0.001575
v -0.099125 -0.000895 0.699059
vn -0.001728 -6.283177 -0.005934
v -0.099125 -0.000895 0.677304
vn 2.482436 -2.855261 -1.420020
v -0.072769 -0.000895 0.677302
vn 0.002770 -6.283183 0.001508
v -0.072772 -0.000895 0.699059
vn 2.717968 -3.085170 1.143554
v -0.072769 -0.000895 0.699064
vn -0.525682 -6.143471 0.556579
v -0.099130 -0.000895 0.699064
vn -0.409418 -6.148388 -0.601439
v -0.099130 -0.000895 0.677302
vn -2.481242 2.855262 1.419019
v -0.343426 0.161478 0.609252
vn -0.897133 2.786343 3.653999
v -0.132689 0.121828 0.768164
vn 0.408375 6.148388 0.600602
v -0.317066 0.161478 0.609252
vn -2.717346 3.085170 -1.142856
v -0.343426 0.161478 0.587490
vn -5.529541 0.598798 -1.743530
v -0.362412 0.079182 0.592133
vn 0.525089 6.143471 -0.555948
v -0.317066 0.161478 0.587490
vn -1.932656 0.353724 5.545389
v -0.151674 0.039531 0.772807
vn -4.800982 0.618749 2.394200
v -0.362412 0.079182 0.613895
vn 1.295654 -2.360797 3.202270
v -0.125313 0.015387 0.772807
vn -1.208535 -2.468553 2.999747
v -0.151674 0.015387 0.772807
vn 0.690911 0.101231 6.190282
v -0.125313 0.039531 0.772807
vn 5.529541 -0.598798 1.743530
v -0.053784 0.081402 0.694421
vn 3.355339 -0.233355 4.775180
v -0.106328 0.097684 0.768164
vn -1.501110 -6.087396 0.086222
v -0.309867 0.038755 0.540152
vn -3.148585 -2.140480 1.459456
v -0.362412 0.055037 0.613895
vn 1.551989 2.245890 2.537002
v -0.106328 0.121828 0.768164
vn 3.148585 2.140479 -1.459457
v -0.053784 0.105546 0.672659
vn 1.932656 -0.353724 -5.545390
v -0.264521 0.121052 0.513747
vn 1.208535 2.468553 -2.999747
v -0.264521 0.145196 0.513747
vn 1.501110 6.087396 -0.086222
v -0.106328 0.121828 0.746402
vn 3.735131 2.388633 1.014764
v -0.053784 0.105546 0.694421
vn 4.800982 -0.618749 -2.394200
v -0.053784 0.081402 0.672659
vn -1.295654 2.360797 -3.202270
v -0.290882 0.145196 0.513747
vn -3.735131 -2.388633 -1.014764
v -0.362412 0.055037 0.592133
vn -3.355338 0.233355 -4.775180
v -0.309867 0.062900 0.518390
vn -1.551989 -2.245890 -2.537002
v -0.309867 0.038755 0.518390
vn -0.690911 -0.101231 -6.190282
v -0.290882 0.121052 0.513747
vn 0.897133 -2.786343 -3.653999
v -0.283507 0.038755 0.518390
# 36 vertices, 0 vertices normals

f 1//1 2//2 3//3
f 1//1 3//3 4//4
f 1//1 5//5 2//2
f 1//1 4//4 5//5
f 2//2 5//5 6//6
f 2//2 7//7 8//8
f 2//2 8//8 3//3
f 2//2 6//6 7//7
f 3//3 8//8 4//4
f 5//5 4//4 6//6
f 9//9 10//10 11//11
f 9//9 12//12 13//13
f 9//9 11//11 14//14
f 9//9 15//15 10//10
f 9//9 13//13 16//16
f 9//9 14//14 12//12
f 9//9 16//16 15//15
f 17//17 18//18 7//7
f 17//17 7//7 6//6
f 17//17 19//19 15//15
f 17//17 15//15 18//18
f 17//17 20//20 21//21
f 17//17 6//6 20//20
f 17//17 21//21 19//19
f 18//18 22//22 7//7
f 18//18 15//15 23//23
f 18//18 23//23 22//22
f 10//10 24//24 11//11
f 10//10 19//19 24//24
f 10//10 15//15 19//19
f 7//7 22//22 8//8
f 25//25 26//26 27//27
f 25//25 28//28 29//29
f 25//25 20//20 30//30
f 25//25 14//14 28//28
f 25//25 30//30 26//26
f 25//25 29//29 20//20
f 25//25 27//27 14//14
f 24//24 28//28 11//11
f 24//24 19//19 21//21
f 24//24 21//21 29//29
f 24//24 29//29 28//28
f 12//12 31//31 13//13
f 12//12 14//14 31//31
f 32//32 22//22 23//23
f 32//32 33//33 34//34
f 32//32 13//13 33//33
f 32//32 23//23 13//13
f 32//32 34//34 22//22
f 22//22 34//34 8//8
f 26//26 35//35 31//31
f 26//26 31//31 27//27
f 26//26 36//36 35//35
f 26//26 30//30 36//36
f 4//4 20//20 6//6
f 4//4 8//8 36//36
f 4//4 36//36 30//30
f 4//4 30//30 20//20
f 11//11 28//28 14//14
f 35//35 33//33 31//31
f 35//35 36//36 34//34
f 35//35 34//34 33//33
f 33//33 13//13 31//31
f 31//31 14//14 27//27
f 15//15 16//16 23//23
f 20//20 29//29 21//21
f 13//13 23//23 16//16
f 8//8 34//34 36//36
# 68 faces, 0 coords texture

# End of File
