####
#
# OBJ File Generated by Meshlab
#
####
# Object zonopy_mesh_step4_link2.obj
#
# Vertices: 47
# Faces: 90
#
####
vn -0.146084 4.498169 4.322784
v 0.016271 0.090006 0.294691
vn 2.609807 3.674063 2.212153
v 0.029817 0.090006 0.294691
vn 2.131805 4.230129 1.146883
v 0.029816 0.090007 0.294690
vn -1.244146 4.641405 2.103415
v 0.016267 0.090007 0.294690
vn -0.228172 3.138441 5.262306
v 0.115307 -0.098123 0.462415
vn -5.261413 -3.352000 -0.307882
v 0.057784 -0.207400 0.381076
vn -5.306408 -3.324615 0.091987
v 0.057784 -0.207400 0.390183
vn -5.861481 -1.940906 0.201969
v -0.067798 0.031151 0.294688
vn -1.825136 -4.163259 -1.583196
v 0.057785 -0.207402 0.381075
vn -4.564831 -1.366151 -2.443563
v -0.041254 -0.019271 0.213351
vn -5.772670 -1.263474 -0.855064
v -0.067798 0.031151 0.285579
vn 5.540675 2.962704 -0.001958
v 0.029817 0.090006 0.285585
vn 5.658479 1.127782 -1.016406
v 0.155400 -0.148546 0.381076
vn 2.184596 4.259176 -1.071681
v 0.029816 0.090007 0.285580
vn 2.407992 2.131332 -2.656789
v 0.056360 0.039585 0.213351
vn -2.081216 -1.779745 2.710584
v 0.031241 -0.156979 0.462415
vn -2.059231 -4.469489 1.177059
v 0.057785 -0.207402 0.390185
vn -2.339576 3.921982 4.097484
v -0.067795 0.045753 0.294691
vn -0.679962 1.954664 5.491454
v 0.115306 -0.098124 0.462415
vn -3.633902 2.256835 1.556190
v -0.067799 0.045752 0.294690
vn -2.467132 0.860885 4.477811
v 0.031241 -0.142379 0.462415
vn 2.611042 1.329322 2.928308
v 0.128856 -0.098124 0.462415
vn 5.778491 1.152310 0.741931
v 0.155400 -0.148546 0.390185
vn 1.668580 3.330952 4.081303
v 0.128855 -0.098123 0.462415
vn 3.777349 -0.936178 -4.319445
v 0.056360 0.024984 0.213351
vn 5.560067 0.135160 -2.896059
v 0.155400 -0.148546 0.381075
vn 3.428902 -2.469143 -1.816505
v 0.155400 -0.163147 0.381075
vn 1.596038 -1.312705 -5.358544
v 0.056359 0.024984 0.213350
vn 1.126417 0.801901 -5.761245
v 0.056359 0.039583 0.213350
vn -3.817551 2.555651 -1.278785
v -0.067799 0.045752 0.285580
vn -0.805498 3.545984 -4.542597
v 0.042811 0.039585 0.213351
vn -3.016576 1.443808 -3.712906
v -0.041254 -0.004670 0.213351
vn -6.225223 -0.349229 -0.319046
v -0.067799 0.031152 0.285580
vn -5.708900 -0.695306 1.427083
v -0.067799 0.031152 0.294690
vn -5.928939 0.315914 -1.779777
v -0.067798 0.045750 0.285579
vn -1.306203 5.100020 -1.704506
v 0.016267 0.090007 0.285580
vn 2.593307 -1.091257 3.770204
v 0.128856 -0.112724 0.462415
vn 0.574477 -2.619249 4.696593
v 0.044790 -0.156979 0.462415
vn 1.306203 -5.100019 1.704506
v 0.071335 -0.207402 0.390185
vn 3.788568 -2.998343 1.418744
v 0.155400 -0.163147 0.390185
vn 5.800059 -0.740411 1.362358
v 0.155400 -0.163145 0.390185
vn 5.959114 -0.356325 -1.141418
v 0.155400 -0.163145 0.381076
vn 1.184934 -4.617800 -2.126249
v 0.071335 -0.207402 0.381075
vn 0.453214 -2.155366 -5.342206
v -0.027706 -0.019272 0.213350
vn -2.090964 -1.957286 -3.452089
v -0.041253 -0.019272 0.213350
vn -0.302393 1.240004 -6.001638
v 0.042811 0.039583 0.213350
vn -1.729723 0.295721 -5.678847
v -0.041253 -0.004673 0.213350
# 47 vertices, 0 vertices normals

f 1//1 2//2 3//3
f 1//1 4//4 5//5
f 1//1 3//3 4//4
f 1//1 5//5 2//2
f 6//6 7//7 8//8
f 6//6 9//9 7//7
f 6//6 10//10 9//9
f 6//6 11//11 10//10
f 6//6 8//8 11//11
f 12//12 2//2 13//13
f 12//12 14//14 3//3
f 12//12 15//15 14//14
f 12//12 3//3 2//2
f 12//12 13//13 15//15
f 7//7 16//16 8//8
f 7//7 9//9 17//17
f 7//7 17//17 16//16
f 18//18 19//19 4//4
f 18//18 4//4 20//20
f 18//18 21//21 19//19
f 18//18 20//20 21//21
f 2//2 22//22 23//23
f 2//2 5//5 24//24
f 2//2 24//24 22//22
f 2//2 23//23 13//13
f 25//25 26//26 27//27
f 25//25 27//27 28//28
f 25//25 15//15 26//26
f 25//25 28//28 29//29
f 25//25 29//29 15//15
f 30//30 31//31 32//32
f 30//30 33//33 34//34
f 30//30 32//32 35//35
f 30//30 34//34 20//20
f 30//30 36//36 31//31
f 30//30 20//20 36//36
f 30//30 35//35 33//33
f 37//37 19//19 38//38
f 37//37 38//38 39//39
f 37//37 40//40 41//41
f 37//37 22//22 19//19
f 37//37 39//39 40//40
f 37//37 41//41 23//23
f 37//37 23//23 22//22
f 19//19 21//21 38//38
f 19//19 22//22 5//5
f 19//19 5//5 4//4
f 38//38 16//16 17//17
f 38//38 17//17 39//39
f 38//38 21//21 16//16
f 16//16 21//21 34//34
f 16//16 34//34 8//8
f 4//4 14//14 36//36
f 4//4 36//36 20//20
f 4//4 3//3 14//14
f 40//40 27//27 42//42
f 40//40 39//39 27//27
f 40//40 42//42 41//41
f 43//43 9//9 44//44
f 43//43 17//17 9//9
f 43//43 27//27 39//39
f 43//43 39//39 17//17
f 43//43 44//44 27//27
f 9//9 10//10 45//45
f 9//9 45//45 44//44
f 31//31 14//14 15//15
f 31//31 36//36 14//14
f 31//31 15//15 29//29
f 31//31 46//46 32//32
f 31//31 29//29 46//46
f 33//33 35//35 11//11
f 33//33 11//11 8//8
f 33//33 8//8 34//34
f 21//21 20//20 34//34
f 26//26 15//15 13//13
f 26//26 13//13 42//42
f 26//26 42//42 27//27
f 32//32 10//10 11//11
f 32//32 46//46 47//47
f 32//32 11//11 35//35
f 32//32 47//47 10//10
f 22//22 24//24 5//5
f 27//27 44//44 28//28
f 10//10 47//47 45//45
f 13//13 41//41 42//42
f 13//13 23//23 41//41
f 44//44 46//46 28//28
f 44//44 47//47 46//46
f 44//44 45//45 47//47
f 28//28 46//46 29//29
# 90 faces, 0 coords texture

# End of File
