####
#
# OBJ File Generated by Meshlab
#
####
# Object zonopy_mesh_step3_link6.obj
#
# Vertices: 184
# Faces: 364
#
####
vn 0.784321 3.289362 -4.654918
v 0.176873 -0.558920 0.405264
vn -2.142307 2.903218 -2.663237
v 0.175584 -0.558920 0.405264
vn -1.342133 5.459923 -1.871224
v 0.225052 -0.533169 0.444355
vn 1.183281 0.980810 -5.724137
v 0.170487 -0.624144 0.380664
vn 1.328302 3.383483 -4.461577
v 0.249025 -0.533169 0.444355
vn 3.703262 1.670066 -4.738428
v 0.313469 -0.594926 0.465270
vn 3.532004 0.526802 -4.885505
v 0.307083 -0.660149 0.440669
vn 1.618028 3.631354 -3.875415
v 0.249795 -0.532869 0.444838
vn 4.505796 0.640753 -4.261535
v 0.379952 -0.602582 0.524555
vn 3.942304 1.920787 -4.458058
v 0.370206 -0.534461 0.538537
vn 4.561936 0.737627 -4.149248
v 0.380156 -0.602378 0.524803
vn 3.354141 1.901722 -4.960453
v 0.249882 -0.532839 0.444908
vn 1.617569 4.023572 -2.729507
v 0.249951 -0.532811 0.444965
vn -3.622149 -2.606757 0.946103
v 0.129818 -0.649740 0.457416
vn -0.646043 -5.994947 -0.895114
v 0.266414 -0.685745 0.515658
vn -0.983058 -5.827820 1.111673
v 0.266414 -0.685745 0.517421
vn -5.814025 0.486566 -1.475011
v 0.129818 -0.648571 0.455652
vn -3.154175 -2.594102 -1.151805
v 0.129818 -0.649740 0.455652
vn -5.581560 -0.263424 2.610837
v 0.136204 -0.584517 0.482016
vn -6.172679 0.188043 0.695961
v 0.129818 -0.648571 0.457416
vn -3.386048 -3.601944 2.589630
v 0.182031 -0.654597 0.521281
vn -5.141731 -0.431417 3.553657
v 0.171072 -0.586463 0.533549
vn -5.116230 -0.453503 3.589476
v 0.171607 -0.586569 0.534300
vn -4.942692 -0.645485 3.746891
v 0.172176 -0.586683 0.535097
vn -4.820091 -0.726625 3.889336
v 0.172305 -0.586696 0.535256
vn -1.782572 -1.869571 -3.227292
v 0.169199 -0.625312 0.380664
vn -0.143291 -5.685376 -2.554807
v 0.305795 -0.661317 0.440669
vn -2.540117 0.890601 -4.168971
v 0.169199 -0.624144 0.380664
vn 0.727005 -2.287886 -4.598561
v 0.170487 -0.625312 0.380664
vn 1.077948 -5.859461 -0.712442
v 0.267703 -0.685745 0.515658
vn 2.084667 -2.629129 -2.781460
v 0.307083 -0.661317 0.440669
vn -4.886793 2.616134 -0.696408
v 0.136204 -0.583348 0.480252
vn -3.640723 5.103741 -0.158303
v 0.172424 -0.554513 0.511778
vn -3.300928 5.332468 -0.159772
v 0.172741 -0.554295 0.512027
vn -3.036643 5.490337 -0.160617
v 0.172830 -0.554242 0.512096
vn -2.809167 5.610438 -0.133459
v 0.172908 -0.554199 0.512159
vn -4.753484 2.038149 1.168265
v 0.136204 -0.583348 0.482016
vn -5.231696 -0.333815 3.446481
v 0.136662 -0.584368 0.482727
vn -5.300065 0.299499 3.346750
v 0.136662 -0.583170 0.482727
vn -5.251031 0.468186 3.369956
v 0.171072 -0.555869 0.533549
vn -5.352321 0.882849 3.168415
v 0.171437 -0.555492 0.534062
vn -4.941551 1.775440 2.623065
v 0.172176 -0.554727 0.535097
vn -4.702757 2.113282 2.392695
v 0.172305 -0.554614 0.535256
vn -4.104355 2.523070 2.086893
v 0.172424 -0.554513 0.535400
vn 2.729000 -5.627288 -0.579825
v 0.378245 -0.635312 0.522654
vn 1.049463 -5.897281 0.628839
v 0.267703 -0.685745 0.517421
vn 3.661810 -2.854129 -2.113534
v 0.379726 -0.634762 0.524288
vn 3.705130 -2.851984 -2.027669
v 0.379952 -0.634664 0.524555
vn 3.762557 -2.815891 -1.937797
v 0.380156 -0.634572 0.524803
vn 2.818132 1.441803 -5.424302
v 0.258974 -0.601086 0.430621
vn 4.620020 0.361261 -4.219240
v 0.379726 -0.602806 0.524288
vn 2.957990 1.505792 -5.334901
v 0.259427 -0.600944 0.430911
vn 1.516207 3.518287 -4.103523
v 0.249685 -0.532910 0.444760
vn -0.006885 -6.012789 1.823370
v 0.302756 -0.656691 0.613376
vn -0.037996 -6.008966 1.835103
v 0.302894 -0.656559 0.613812
vn -0.998761 -5.678467 2.212860
v 0.303353 -0.656114 0.615279
vn -2.949570 -3.480685 3.482631
v 0.182920 -0.654614 0.522200
vn -3.327843 -3.613859 2.711901
v 0.182208 -0.654611 0.521483
vn -3.199443 -3.570751 2.882070
v 0.182374 -0.654623 0.521666
vn -3.051236 -3.516145 3.267226
v 0.182803 -0.654618 0.522093
vn 2.202041 2.438924 -5.241597
v 0.249399 -0.533025 0.444578
vn 0.014802 -6.015936 1.812846
v 0.325952 -0.656691 0.613376
vn 0.065657 -6.023219 1.785740
v 0.326229 -0.656559 0.613812
vn 1.308018 -5.818829 1.109470
v 0.327176 -0.656114 0.615279
vn 2.767848 -5.632302 0.093254
v 0.380156 -0.634572 0.548426
vn -5.229274 -0.307201 3.455224
v 0.137122 -0.584224 0.483438
vn -5.291922 0.274570 3.363958
v 0.137122 -0.582987 0.483438
vn -5.227573 -0.278277 3.462997
v 0.137586 -0.584084 0.484149
vn -5.284423 0.248595 3.380068
v 0.137586 -0.582798 0.484149
vn -5.226267 -0.267193 3.466864
v 0.138052 -0.583950 0.484862
vn -5.280822 0.237933 3.387355
v 0.138052 -0.582603 0.484862
vn -5.222035 -0.261547 3.473599
v 0.138518 -0.583822 0.485575
vn -5.274543 0.232181 3.397281
v 0.138518 -0.582401 0.485575
vn -5.219066 -0.197528 3.487076
v 0.138990 -0.583698 0.486288
vn -5.258930 0.175015 3.428941
v 0.138990 -0.582194 0.486288
vn -5.232548 -0.043122 3.477799
v 0.139463 -0.583578 0.487001
vn -5.241275 0.039174 3.464719
v 0.139463 -0.581981 0.487001
vn -5.247884 0.155248 3.447313
v 0.139937 -0.581764 0.487716
vn -5.213387 -0.175504 3.497579
v 0.139937 -0.583462 0.487716
vn -5.207896 -0.096716 3.512398
v 0.140896 -0.583249 0.489145
vn -5.227090 0.084963 3.484321
v 0.140896 -0.581309 0.489145
vn -5.205346 -0.079858 3.517027
v 0.141378 -0.583150 0.489861
vn -5.221041 0.070102 3.494051
v 0.141378 -0.581071 0.489861
vn -5.202723 -0.050011 3.522042
v 0.141862 -0.583056 0.490578
vn -5.212836 0.046721 3.507117
v 0.141862 -0.580829 0.490578
vn -5.208221 0.050370 3.513762
v 0.160314 -0.566970 0.517781
vn -5.197501 -0.060304 3.529367
v 0.160314 -0.583802 0.517781
vn -5.195366 -0.071999 3.532152
v 0.160817 -0.583937 0.518518
vn -5.200664 -0.017959 3.525734
v 0.142348 -0.582967 0.491295
vn -5.204262 0.016868 3.520428
v 0.142348 -0.580579 0.491295
vn -5.195040 0.014291 3.534048
v 0.160817 -0.566468 0.518518
vn -5.238825 0.475583 3.390130
v 0.171607 -0.555320 0.534300
vn -1.049087 -5.617782 2.345246
v 0.303457 -0.656011 0.615578
vn -4.617654 -0.756448 4.092007
v 0.172424 -0.586706 0.535400
vn 1.351002 -5.791367 1.198476
v 0.327361 -0.656011 0.615578
vn 2.951186 -5.532336 0.164275
v 0.380632 -0.634312 0.549138
vn -1.182872 -5.416617 2.590236
v 0.303555 -0.655915 0.615849
vn 1.420211 -5.684039 1.378733
v 0.327528 -0.655915 0.615849
vn -1.289237 5.491408 -1.781756
v 0.225461 -0.532961 0.444673
vn 1.431411 3.418317 -4.296404
v 0.249555 -0.532961 0.444673
vn 3.968097 1.956094 -4.418446
v 0.370464 -0.534131 0.538912
vn 4.722612 0.752826 -3.958542
v 0.380632 -0.601909 0.525433
vn 4.648327 0.750602 -4.061756
v 0.380492 -0.602050 0.525245
vn 4.794362 -1.933301 -2.826067
v 0.380492 -0.634387 0.525245
vn -1.292603 -5.238386 2.852642
v 0.303818 -0.655646 0.616492
vn -4.457534 -0.745278 4.296017
v 0.172647 -0.586699 0.535634
vn 4.045305 -2.723625 -1.836842
v 0.380632 -0.634312 0.525433
vn -4.002257 -2.446126 4.050715
v 0.182675 -0.654618 0.521968
vn -4.291349 -0.758848 4.437675
v 0.172741 -0.586699 0.535732
vn -4.682101 1.460704 3.539066
v 0.172647 -0.554362 0.535634
vn -3.796545 2.632132 2.248320
v 0.172741 -0.554295 0.535732
vn 3.093672 -5.447826 0.214451
v 0.380749 -0.634242 0.549318
vn 1.510225 -5.605132 1.557939
v 0.327912 -0.655646 0.616492
vn 3.259329 -5.338176 0.265162
v 0.380846 -0.634179 0.549469
vn 4.005901 2.080536 -4.282934
v 0.370571 -0.533989 0.539071
vn -1.363414 -5.086307 3.026355
v 0.303893 -0.655574 0.616654
vn -1.214858 5.599159 -1.607083
v 0.225574 -0.532910 0.444760
vn -2.541447 5.741476 -0.053906
v 0.173035 -0.554138 0.512263
vn -4.055259 -0.763681 4.659719
v 0.172830 -0.586694 0.535814
vn 4.850394 0.749967 -3.811844
v 0.380749 -0.601790 0.525600
vn 4.215197 -2.669490 -1.762247
v 0.380749 -0.634242 0.525600
vn 4.043853 2.212512 -4.141178
v 0.370658 -0.533870 0.539214
vn -3.586275 2.708887 2.351593
v 0.172830 -0.554242 0.535814
vn 1.555737 -5.531020 1.698863
v 0.328005 -0.655574 0.616654
vn 4.180609 -4.265922 0.544507
v 0.380983 -0.634081 0.549685
vn -1.483452 -4.843341 3.253810
v 0.303959 -0.655509 0.616790
vn -1.153681 5.701121 -1.426784
v 0.225673 -0.532869 0.444838
vn -3.471554 -2.627273 4.344800
v 0.183023 -0.654608 0.522288
vn -3.886603 -0.739932 4.810430
v 0.172908 -0.586687 0.535880
vn 4.982137 0.745207 -3.629629
v 0.380846 -0.601691 0.525748
vn 4.353822 -2.594767 -1.683383
v 0.380846 -0.634179 0.525748
vn -1.760204 -3.467927 3.901535
v 0.304068 -0.655408 0.616983
vn 4.081890 2.383372 -3.912040
v 0.370731 -0.533770 0.539340
vn -3.335210 2.789175 2.424589
v 0.172908 -0.554199 0.535880
vn 1.624456 -5.435807 1.845931
v 0.328082 -0.655509 0.616790
vn -3.635167 -1.290143 4.939914
v 0.293916 -0.587486 0.630543
vn -2.686588 -0.830242 5.365209
v 0.293957 -0.587437 0.630585
vn -3.244812 1.540332 4.735466
v 0.293957 -0.554916 0.630585
vn -0.818006 5.850680 -1.049117
v 0.225830 -0.532811 0.444965
vn -2.259477 5.861711 0.028203
v 0.225673 -0.532869 0.468559
vn -1.228517 6.038538 0.375369
v 0.225830 -0.532811 0.468672
vn -2.609215 3.484315 2.453207
v 0.173035 -0.554138 0.535970
vn 5.106502 0.728870 -3.482415
v 0.380923 -0.601613 0.525876
vn 5.440070 -0.877616 -2.859199
v 0.380923 -0.634122 0.525876
vn 4.648383 -2.327371 -1.293662
v 0.380983 -0.634081 0.525979
vn 4.764288 1.759601 -3.677518
v 0.370787 -0.533691 0.539450
vn 5.389489 0.733180 -2.796002
v 0.380983 -0.601546 0.525979
vn 3.877635 2.978612 -2.545546
v 0.370831 -0.533624 0.539539
vn -3.960922 1.527174 4.519413
v 0.172978 -0.554167 0.535931
vn 1.963363 -4.551134 2.583387
v 0.328188 -0.655408 0.616983
vn -0.124482 6.271127 -0.180187
v 0.225900 -0.532807 0.445020
vn 3.460573 3.380330 -1.137927
v 0.370846 -0.533591 0.539617
vn 0.345874 6.223925 -0.485345
v 0.249984 -0.532807 0.445020
vn 3.079727 3.550410 -0.234444
v 0.370849 -0.533580 0.539679
vn 5.947274 0.651051 -1.588284
v 0.381011 -0.601513 0.526067
vn -1.250564 2.771437 3.509625
v 0.293993 -0.554905 0.630604
vn -0.376617 6.228647 0.422189
v 0.225900 -0.532807 0.468698
vn -0.236183 6.114382 0.982520
v 0.346805 -0.533580 0.563319
vn 5.754498 -1.424112 -0.765284
v 0.381011 -0.634033 0.526067
vn -1.476651 -2.775496 4.814624
v 0.304122 -0.655358 0.617036
vn 4.995454 -2.880302 1.128681
v 0.381011 -0.634033 0.549745
vn 2.261952 -3.230484 3.656450
v 0.328206 -0.655358 0.617036
vn 6.163531 0.543949 -0.548305
v 0.381022 -0.601502 0.526137
vn 0.014287 6.283031 0.020229
v 0.249984 -0.532807 0.468698
vn 6.166500 -0.610851 -0.322368
v 0.381022 -0.633990 0.526137
vn -0.741615 -2.062308 5.711536
v 0.304166 -0.655315 0.617061
vn -1.398077 -0.594765 5.872284
v 0.293993 -0.587393 0.630604
vn 2.615141 2.661285 1.246448
v 0.370849 -0.533580 0.563319
vn 5.260285 -1.132786 1.799273
v 0.381022 -0.633990 0.549776
vn 2.456360 -1.645479 4.366626
v 0.328210 -0.655315 0.617061
vn -0.155273 -1.454445 6.098322
v 0.304200 -0.655284 0.617070
vn -0.004793 6.007261 1.840428
v 0.346838 -0.533582 0.563326
vn 2.441049 -0.537402 5.026946
v 0.318037 -0.587393 0.630604
vn 5.155469 -0.098500 3.561559
v 0.381015 -0.633960 0.549787
vn 4.980968 -0.007788 3.829272
v 0.370849 -0.566068 0.563319
vn 1.924391 2.459210 3.274658
v 0.318037 -0.554905 0.630604
vn 0.920743 -0.343258 6.059548
v 0.318022 -0.587362 0.630609
vn -0.408296 -0.400483 6.197986
v 0.294023 -0.587362 0.630609
vn 1.303984 -1.137512 5.834937
v 0.328200 -0.655284 0.617070
vn -0.283526 2.767595 4.219590
v 0.294023 -0.554907 0.630609
vn 5.805088 0.300458 1.485734
v 0.381022 -0.601502 0.549776
vn 5.222115 0.042114 3.474596
v 0.381015 -0.601504 0.549787
vn 0.096423 5.979384 1.919327
v 0.370838 -0.533582 0.563326
vn 0.584951 2.592085 4.138150
v 0.318022 -0.554907 0.630609
# 184 vertices, 0 vertices normals

f 1//1 2//2 3//3
f 1//1 4//4 2//2
f 1//1 5//5 4//4
f 1//1 3//3 5//5
f 6//6 7//7 8//8
f 6//6 9//9 7//7
f 6//6 10//10 11//11
f 6//6 11//11 9//9
f 6//6 8//8 12//12
f 6//6 12//12 13//13
f 6//6 13//13 10//10
f 14//14 15//15 16//16
f 14//14 17//17 18//18
f 14//14 19//19 20//20
f 14//14 16//16 21//21
f 14//14 18//18 15//15
f 14//14 20//20 17//17
f 14//14 22//22 19//19
f 14//14 23//23 22//22
f 14//14 24//24 23//23
f 14//14 21//21 25//25
f 14//14 25//25 24//24
f 26//26 27//27 15//15
f 26//26 15//15 18//18
f 26//26 17//17 28//28
f 26//26 29//29 27//27
f 26//26 28//28 29//29
f 26//26 18//18 17//17
f 27//27 30//30 15//15
f 27//27 31//31 30//30
f 27//27 29//29 31//31
f 2//2 28//28 32//32
f 2//2 4//4 28//28
f 2//2 32//32 33//33
f 2//2 33//33 34//34
f 2//2 34//34 35//35
f 2//2 35//35 36//36
f 2//2 36//36 3//3
f 15//15 30//30 16//16
f 37//37 19//19 38//38
f 37//37 20//20 19//19
f 37//37 32//32 20//20
f 37//37 39//39 40//40
f 37//37 38//38 39//39
f 37//37 40//40 41//41
f 37//37 41//41 42//42
f 37//37 42//42 43//43
f 37//37 43//43 44//44
f 37//37 33//33 32//32
f 37//37 44//44 33//33
f 17//17 20//20 32//32
f 17//17 32//32 28//28
f 30//30 31//31 45//45
f 30//30 46//46 16//16
f 30//30 45//45 47//47
f 30//30 47//47 48//48
f 30//30 48//48 49//49
f 30//30 49//49 46//46
f 31//31 29//29 7//7
f 31//31 7//7 47//47
f 31//31 47//47 45//45
f 29//29 28//28 4//4
f 29//29 4//4 7//7
f 7//7 4//4 50//50
f 7//7 51//51 47//47
f 7//7 9//9 51//51
f 7//7 50//50 52//52
f 7//7 52//52 53//53
f 7//7 53//53 8//8
f 19//19 22//22 38//38
f 16//16 46//46 54//54
f 16//16 54//54 55//55
f 16//16 55//55 56//56
f 16//16 56//56 57//57
f 16//16 58//58 21//21
f 16//16 59//59 58//58
f 16//16 60//60 59//59
f 16//16 57//57 60//60
f 4//4 5//5 61//61
f 4//4 61//61 50//50
f 46//46 62//62 54//54
f 46//46 63//63 62//62
f 46//46 64//64 63//63
f 46//46 65//65 64//64
f 46//46 49//49 65//65
f 39//39 38//38 66//66
f 39//39 67//67 40//40
f 39//39 66//66 67//67
f 38//38 22//22 66//66
f 67//67 66//66 68//68
f 67//67 69//69 40//40
f 67//67 68//68 69//69
f 66//66 22//22 68//68
f 69//69 68//68 70//70
f 69//69 71//71 40//40
f 69//69 70//70 71//71
f 68//68 22//22 70//70
f 71//71 70//70 72//72
f 71//71 73//73 40//40
f 71//71 72//72 73//73
f 70//70 22//22 72//72
f 73//73 72//72 74//74
f 73//73 75//75 40//40
f 73//73 74//74 75//75
f 72//72 22//22 74//74
f 75//75 74//74 76//76
f 75//75 77//77 78//78
f 75//75 76//76 77//77
f 75//75 78//78 40//40
f 74//74 79//79 76//76
f 74//74 22//22 79//79
f 77//77 76//76 79//79
f 77//77 79//79 78//78
f 78//78 79//79 80//80
f 78//78 81//81 40//40
f 78//78 80//80 81//81
f 79//79 22//22 80//80
f 81//81 80//80 82//82
f 81//81 83//83 40//40
f 81//81 82//82 83//83
f 80//80 22//22 82//82
f 83//83 82//82 84//84
f 83//83 85//85 86//86
f 83//83 84//84 85//85
f 83//83 86//86 40//40
f 82//82 87//87 84//84
f 82//82 88//88 87//87
f 82//82 22//22 88//88
f 85//85 84//84 89//89
f 85//85 90//90 86//86
f 85//85 89//89 90//90
f 84//84 87//87 89//89
f 90//90 89//89 87//87
f 90//90 87//87 86//86
f 87//87 88//88 86//86
f 86//86 88//88 91//91
f 86//86 91//91 40//40
f 88//88 22//22 91//91
f 91//91 22//22 40//40
f 22//22 23//23 40//40
f 40//40 23//23 92//92
f 40//40 92//92 41//41
f 54//54 62//62 55//55
f 62//62 63//63 55//55
f 41//41 92//92 42//42
f 55//55 63//63 56//56
f 23//23 24//24 92//92
f 92//92 24//24 42//42
f 63//63 64//64 56//56
f 51//51 9//9 48//48
f 51//51 48//48 47//47
f 56//56 64//64 93//93
f 56//56 93//93 57//57
f 24//24 25//25 42//42
f 21//21 58//58 94//94
f 21//21 94//94 25//25
f 42//42 25//25 43//43
f 64//64 95//95 93//93
f 64//64 65//65 96//96
f 64//64 96//96 95//95
f 9//9 11//11 49//49
f 9//9 49//49 48//48
f 93//93 95//95 97//97
f 93//93 97//97 57//57
f 25//25 94//94 43//43
f 58//58 59//59 94//94
f 43//43 94//94 44//44
f 95//95 98//98 97//97
f 95//95 96//96 98//98
f 5//5 3//3 99//99
f 5//5 99//99 100//100
f 5//5 100//100 61//61
f 10//10 101//101 102//102
f 10//10 103//103 11//11
f 10//10 102//102 103//103
f 10//10 13//13 101//101
f 3//3 36//36 99//99
f 11//11 103//103 104//104
f 11//11 104//104 49//49
f 97//97 98//98 105//105
f 97//97 105//105 57//57
f 94//94 59//59 106//106
f 94//94 106//106 44//44
f 33//33 44//44 34//34
f 65//65 49//49 107//107
f 65//65 107//107 96//96
f 59//59 108//108 109//109
f 59//59 109//109 106//106
f 59//59 60//60 108//108
f 50//50 61//61 100//100
f 50//50 100//100 52//52
f 49//49 104//104 107//107
f 44//44 106//106 110//110
f 44//44 110//110 111//111
f 44//44 111//111 34//34
f 98//98 96//96 112//112
f 98//98 113//113 105//105
f 98//98 112//112 114//114
f 98//98 114//114 113//113
f 101//101 115//115 102//102
f 101//101 13//13 115//115
f 103//103 102//102 107//107
f 103//103 107//107 104//104
f 106//106 109//109 110//110
f 108//108 60//60 109//109
f 52//52 100//100 53//53
f 110//110 109//109 111//111
f 105//105 113//113 116//116
f 105//105 116//116 57//57
f 99//99 117//117 100//100
f 99//99 36//36 118//118
f 99//99 118//118 117//117
f 100//100 117//117 53//53
f 109//109 60//60 119//119
f 109//109 119//119 111//111
f 102//102 115//115 120//120
f 102//102 120//120 121//121
f 102//102 121//121 107//107
f 34//34 111//111 35//35
f 96//96 107//107 121//121
f 96//96 121//121 112//112
f 60//60 57//57 119//119
f 115//115 122//122 120//120
f 115//115 13//13 122//122
f 111//111 119//119 123//123
f 111//111 123//123 35//35
f 113//113 124//124 116//116
f 113//113 114//114 125//125
f 113//113 125//125 124//124
f 116//116 124//124 126//126
f 116//116 126//126 57//57
f 117//117 127//127 53//53
f 117//117 118//118 127//127
f 53//53 127//127 8//8
f 119//119 57//57 128//128
f 119//119 129//129 123//123
f 119//119 128//128 129//129
f 120//120 122//122 130//130
f 120//120 130//130 131//131
f 120//120 131//131 121//121
f 35//35 123//123 36//36
f 112//112 121//121 131//131
f 112//112 131//131 114//114
f 57//57 126//126 132//132
f 57//57 132//132 128//128
f 122//122 133//133 130//130
f 122//122 13//13 133//133
f 123//123 129//129 134//134
f 123//123 134//134 36//36
f 124//124 135//135 126//126
f 124//124 125//125 135//135
f 126//126 135//135 132//132
f 129//129 128//128 132//132
f 129//129 132//132 136//136
f 129//129 136//136 137//137
f 129//129 138//138 134//134
f 129//129 137//137 138//138
f 8//8 127//127 139//139
f 8//8 13//13 12//12
f 8//8 139//139 13//13
f 140//140 127//127 118//118
f 140//140 141//141 139//139
f 140//140 139//139 127//127
f 140//140 118//118 142//142
f 140//140 142//142 141//141
f 130//130 133//133 143//143
f 130//130 143//143 144//144
f 130//130 144//144 131//131
f 36//36 134//134 118//118
f 114//114 131//131 145//145
f 114//114 145//145 125//125
f 131//131 144//144 145//145
f 133//133 146//146 147//147
f 133//133 13//13 148//148
f 133//133 148//148 146//146
f 133//133 147//147 143//143
f 134//134 149//149 142//142
f 134//134 142//142 118//118
f 134//134 138//138 149//149
f 135//135 125//125 150//150
f 135//135 150//150 132//132
f 143//143 147//147 145//145
f 143//143 145//145 144//144
f 146//146 148//148 147//147
f 149//149 138//138 142//142
f 13//13 139//139 151//151
f 13//13 152//152 148//148
f 13//13 151//151 153//153
f 13//13 153//153 154//154
f 13//13 154//154 152//152
f 148//148 152//152 155//155
f 148//148 155//155 147//147
f 141//141 142//142 156//156
f 141//141 157//157 151//151
f 141//141 151//151 139//139
f 141//141 158//158 157//157
f 141//141 156//156 158//158
f 147//147 155//155 159//159
f 147//147 159//159 145//145
f 132//132 150//150 160//160
f 132//132 160//160 136//136
f 125//125 145//145 159//159
f 125//125 161//161 150//150
f 125//125 159//159 161//161
f 142//142 138//138 156//156
f 150//150 161//161 162//162
f 150//150 162//162 160//160
f 136//136 160//160 137//137
f 152//152 163//163 155//155
f 152//152 154//154 163//163
f 157//157 164//164 153//153
f 157//157 153//153 151//151
f 157//157 158//158 164//164
f 155//155 163//163 165//165
f 155//155 165//165 159//159
f 160//160 162//162 166//166
f 160//160 166//166 137//137
f 138//138 137//137 167//167
f 138//138 167//167 156//156
f 164//164 158//158 168//168
f 164//164 168//168 154//154
f 164//164 154//154 153//153
f 161//161 159//159 165//165
f 161//161 169//169 162//162
f 161//161 165//165 169//169
f 162//162 169//169 170//170
f 162//162 170//170 166//166
f 137//137 166//166 167//167
f 166//166 170//170 171//171
f 166//166 171//171 167//167
f 158//158 156//156 172//172
f 158//158 172//172 168//168
f 173//173 167//167 171//171
f 173//173 170//170 174//174
f 173//173 175//175 176//176
f 173//173 176//176 177//177
f 173//173 177//177 178//178
f 173//173 171//171 179//179
f 173//173 174//174 175//175
f 173//173 179//179 170//170
f 173//173 178//178 167//167
f 156//156 167//167 178//178
f 156//156 176//176 172//172
f 156//156 180//180 176//176
f 156//156 178//178 180//180
f 163//163 169//169 165//165
f 163//163 154//154 181//181
f 163//163 181//181 169//169
f 168//168 175//175 182//182
f 168//168 176//176 175//175
f 168//168 181//181 154//154
f 168//168 172//172 183//183
f 168//168 183//183 176//176
f 168//168 182//182 181//181
f 169//169 181//181 174//174
f 169//169 174//174 170//170
f 170//170 179//179 171//171
f 175//175 174//174 182//182
f 176//176 180//180 184//184
f 176//176 183//183 172//172
f 176//176 184//184 177//177
f 181//181 182//182 174//174
f 177//177 180//180 178//178
f 177//177 184//184 180//180
# 364 faces, 0 coords texture

# End of File
