####
#
# OBJ File Generated by Meshlab
#
####
# Object zonopy_mesh_step26_link7.obj
#
# Vertices: 128
# Faces: 252
#
####
vn 3.143064 -5.409866 -0.125960
v -0.082682 0.128710 0.841691
vn 1.125695 -5.531610 -1.227276
v -0.130430 0.105867 0.788557
vn 1.973333 -3.688437 -2.876414
v -0.085576 0.136967 0.734879
vn 4.490700 -3.234852 -0.840289
v -0.037828 0.159811 0.788013
vn 4.794822 -3.281305 0.286759
v -0.037828 0.159811 0.788647
vn 2.170226 -4.659559 1.862898
v -0.082682 0.128710 0.842325
vn 1.031917 -5.790630 0.856104
v -0.130430 0.105867 0.789191
vn -0.088477 -4.305692 -4.268715
v -0.086137 0.136967 0.734879
vn -0.808355 -5.887510 0.893256
v -0.130991 0.105867 0.789191
vn -1.096270 -5.371332 -1.642020
v -0.130991 0.105867 0.788557
vn -0.254157 -2.613353 -4.864382
v -0.111305 0.140902 0.732597
vn -0.111566 -2.949232 -5.361893
v -0.111216 0.140894 0.732599
vn 2.326229 -1.659286 -4.467283
v -0.084972 0.140894 0.732599
vn -0.072958 -5.443139 3.075993
v -0.083242 0.128710 0.842325
vn 2.516987 -3.917167 3.062813
v -0.079921 0.142144 0.861664
vn -0.197720 -5.206924 3.494078
v -0.106383 0.142144 0.861664
vn -1.657465 -5.410584 1.573319
v -0.155494 0.115144 0.811824
vn -0.924603 -5.852441 1.509146
v -0.155394 0.115104 0.811745
vn 0.051138 -5.785222 2.447268
v -0.128932 0.115104 0.811745
vn -1.294007 -5.662337 1.407209
v -0.155450 0.115124 0.811789
vn 5.332759 -1.344434 -1.697802
v -0.035970 0.167907 0.782541
vn -2.482866 -4.934853 -1.956066
v -0.155450 0.115124 0.789734
vn 5.964957 -1.671061 -0.604153
v -0.035976 0.167872 0.782572
vn 6.114081 -1.413525 0.073968
v -0.035976 0.167872 0.804272
vn 5.448290 -1.969739 0.755011
v -0.035970 0.167907 0.804400
vn 5.421328 -1.989322 0.934433
v -0.035972 0.167924 0.804453
vn 4.645481 -3.753313 1.950840
v -0.079918 0.142052 0.861503
vn 4.222239 -3.993634 2.265422
v -0.079917 0.142085 0.861564
vn 5.418774 -1.866162 1.178532
v -0.035974 0.167942 0.804499
vn 3.139514 -4.162440 2.776659
v -0.079918 0.142115 0.861618
vn -0.363155 -2.594559 -4.842770
v -0.111385 0.140910 0.732597
vn -1.965442 -4.730825 -3.637947
v -0.155328 0.115083 0.789716
vn -1.491591 -2.592870 -4.832587
v -0.111556 0.140940 0.732609
vn -0.600723 -2.573624 -4.855907
v -0.111453 0.140919 0.732599
vn -2.207668 -5.161422 -2.131252
v -0.155394 0.115104 0.789724
vn -0.965565 -2.590192 -4.852512
v -0.111510 0.140929 0.732603
vn 6.232875 0.044965 -0.530591
v -0.035970 0.188098 0.782541
vn 6.280189 0.057232 0.094257
v -0.035970 0.188098 0.804400
vn 5.384501 -0.752831 -2.559748
v -0.035972 0.167924 0.782530
vn 6.139331 0.099877 -0.923669
v -0.035972 0.188174 0.782530
vn 0.892477 -0.594310 -5.982669
v -0.084978 0.140902 0.732597
vn 3.386833 0.044482 -5.117370
v -0.084972 0.161086 0.732599
vn 5.160518 -0.291372 -3.180281
v -0.035974 0.167942 0.782523
vn 6.276899 0.105787 0.156804
v -0.035972 0.188174 0.804453
vn 2.219652 0.153277 -5.357225
v -0.084978 0.161151 0.732597
vn 5.275102 0.485269 -2.222971
v -0.035979 0.188297 0.782517
vn 5.375846 0.199975 -2.150146
v -0.035974 0.188240 0.782523
vn -0.003281 0.005300 -6.283176
v -0.111305 0.161151 0.732597
vn -0.072085 0.033318 -6.281781
v -0.111385 0.161208 0.732597
vn 2.182559 0.337920 -5.363369
v -0.084983 0.161208 0.732597
vn 5.126670 0.953425 -2.272705
v -0.035986 0.188344 0.782515
vn 6.248132 0.226159 0.354312
v -0.035974 0.188240 0.804499
vn 5.476735 -1.622306 1.631684
v -0.035979 0.167959 0.804538
vn -0.316097 -0.060349 -6.272793
v -0.143346 0.196970 0.733458
vn -0.146691 0.235334 -6.266874
v -0.143346 0.217358 0.733458
vn 1.746562 1.161124 -5.481087
v -0.116801 0.217358 0.733458
vn 2.309674 0.719294 -5.380745
v -0.084991 0.161256 0.732599
vn 6.184451 0.397150 0.614055
v -0.035979 0.188297 0.804538
vn 2.518500 -3.488967 3.361320
v -0.079926 0.142172 0.861702
vn -0.295346 -5.002617 3.735992
v -0.106436 0.142172 0.861702
vn 5.497691 -1.253576 2.164621
v -0.035986 0.167977 0.804570
vn -1.213333 -0.442211 -6.067567
v -0.143381 0.196983 0.733460
vn 2.740891 1.350390 -5.266964
v -0.085000 0.161296 0.732603
vn 4.837943 1.630670 -2.308171
v -0.035995 0.188382 0.782516
vn 6.034192 0.623827 0.976379
v -0.035986 0.188344 0.804570
vn 5.399748 -0.731457 2.851129
v -0.035995 0.167994 0.804595
vn 2.526689 -2.867383 3.762777
v -0.079934 0.142199 0.861731
vn -0.486327 -4.640560 4.099257
v -0.106479 0.142199 0.861731
vn -2.246035 -4.950521 1.756141
v -0.155528 0.115164 0.811851
vn -2.975154 -4.491863 -2.027817
v -0.155494 0.115144 0.789745
vn 3.591935 2.104745 -4.705912
v -0.085011 0.161328 0.732609
vn 4.651354 2.312152 -2.204859
v -0.036006 0.188411 0.782519
vn 5.676984 0.955872 1.491161
v -0.035995 0.188382 0.804595
vn -2.327099 -2.497289 -4.780947
v -0.111591 0.140953 0.732617
vn 2.427881 -2.019605 4.204549
v -0.079943 0.142224 0.861753
vn -0.798261 -3.966423 4.569070
v -0.106511 0.142224 0.861753
vn 1.568258 1.934194 -5.190817
v -0.116813 0.217382 0.733460
vn 4.416548 2.711596 -2.357064
v -0.067796 0.244441 0.783363
vn 5.162016 -0.201668 3.541242
v -0.036006 0.168012 0.804613
vn -3.620072 -3.799167 -2.038543
v -0.155528 0.115164 0.789757
vn 5.154697 1.518330 1.910991
v -0.036006 0.188411 0.804613
vn -0.539111 0.877143 -6.051161
v -0.143381 0.217382 0.733460
vn 0.741869 3.583657 -4.489592
v -0.116826 0.217397 0.733465
vn 3.094271 3.657404 -1.958704
v -0.067808 0.244461 0.783364
vn 2.115497 -1.219999 4.855942
v -0.079955 0.142247 0.861767
vn -1.557759 -2.553345 4.949245
v -0.106533 0.142247 0.861767
vn -3.272228 -3.636504 2.060933
v -0.155551 0.115184 0.811868
vn -3.159813 -0.688465 -4.796379
v -0.143404 0.196997 0.733465
vn 4.898400 0.047566 3.931040
v -0.079943 0.162622 0.861753
vn 3.373532 0.715191 4.740998
v -0.079955 0.162647 0.861767
vn -3.483110 -2.339208 -4.557577
v -0.111615 0.140966 0.732626
vn 5.423751 3.131567 0.323851
v -0.067796 0.244441 0.805456
vn -4.400587 -3.262592 -1.660109
v -0.155551 0.115184 0.789770
vn 3.468317 3.640291 1.788212
v -0.067808 0.244461 0.805462
vn -4.905069 -1.674603 -2.072206
v -0.187341 0.171215 0.790609
vn 4.819346 2.156376 2.635128
v -0.036018 0.188430 0.804623
vn -1.834087 1.900993 -4.238317
v -0.143404 0.217397 0.733465
vn 0.077558 5.240776 -3.420688
v -0.116847 0.217404 0.733473
vn 1.170728 5.352945 -1.529944
v -0.067827 0.244471 0.783370
vn 0.728837 -0.582591 6.063874
v -0.079974 0.142270 0.861773
vn -1.598271 -1.305913 5.456311
v -0.106538 0.142270 0.861773
vn -3.973675 -2.705022 3.755921
v -0.155558 0.115203 0.811877
vn -4.884352 -2.358732 1.915771
v -0.187341 0.171215 0.812707
vn -4.797828 -1.040516 2.223837
v -0.187347 0.171235 0.812712
vn -5.761383 -0.609676 -1.293660
v -0.187347 0.171235 0.790620
vn -4.897325 -0.045844 -3.932370
v -0.143411 0.197013 0.733473
vn 2.521986 1.920710 4.932419
v -0.111744 0.218678 0.862606
vn 1.507601 0.618025 5.861263
v -0.079974 0.162661 0.861773
vn -5.179699 0.222048 -3.505759
v -0.187341 0.191615 0.790609
vn 1.372574 5.270627 1.548738
v -0.067827 0.244471 0.805462
vn 0.717498 2.732592 4.194198
v -0.111763 0.218692 0.862608
vn -4.435844 2.171887 -1.069788
v -0.187347 0.191626 0.790620
vn -2.538113 2.895812 -2.429095
v -0.143411 0.217404 0.733473
vn -2.771966 -1.374071 5.256289
v -0.138322 0.198278 0.862606
vn -2.279539 -0.348150 5.236966
v -0.138327 0.198301 0.862608
vn -1.185409 5.663910 0.922023
v -0.094391 0.244471 0.805462
vn 0.005859 6.283169 -0.005386
v -0.067845 0.244471 0.783389
vn 0.005562 6.283164 0.007228
v -0.067845 0.244471 0.805447
vn 0.068952 -0.031102 6.281852
v -0.111763 0.198301 0.862608
vn -4.131239 1.974439 1.414029
v -0.187347 0.191626 0.812712
vn -1.113418 5.589926 -1.092132
v -0.094391 0.244471 0.783370
vn -1.629306 2.230130 3.016416
v -0.138327 0.218692 0.862608
vn -3.107527 5.460115 0.020341
v -0.143411 0.217404 0.755565
vn -2.815419 5.494871 0.693117
v -0.138326 0.218695 0.862595
vn -0.121786 6.280701 0.004857
v -0.094390 0.244471 0.805447
vn -0.122421 6.280704 -0.003771
v -0.094390 0.244471 0.783389
vn -3.753560 4.986544 -0.009514
v -0.187346 0.191626 0.790642
vn -3.711214 5.010503 0.043805
v -0.187346 0.191626 0.812700
# 128 vertices, 0 vertices normals

f 1//1 2//2 3//3
f 1//1 3//3 4//4
f 1//1 5//5 6//6
f 1//1 6//6 7//7
f 1//1 4//4 5//5
f 1//1 7//7 2//2
f 2//2 8//8 3//3
f 2//2 9//9 10//10
f 2//2 10//10 8//8
f 2//2 7//7 9//9
f 8//8 10//10 11//11
f 8//8 12//12 13//13
f 8//8 13//13 3//3
f 8//8 11//11 12//12
f 14//14 6//6 15//15
f 14//14 16//16 17//17
f 14//14 18//18 19//19
f 14//14 15//15 16//16
f 14//14 19//19 6//6
f 14//14 20//20 18//18
f 14//14 17//17 20//20
f 3//3 13//13 21//21
f 3//3 21//21 4//4
f 9//9 7//7 19//19
f 9//9 18//18 20//20
f 9//9 19//19 18//18
f 9//9 20//20 22//22
f 9//9 22//22 10//10
f 5//5 4//4 23//23
f 5//5 24//24 25//25
f 5//5 23//23 24//24
f 5//5 25//25 26//26
f 5//5 26//26 6//6
f 6//6 27//27 28//28
f 6//6 26//26 29//29
f 6//6 28//28 30//30
f 6//6 29//29 27//27
f 6//6 30//30 15//15
f 6//6 19//19 7//7
f 4//4 21//21 23//23
f 10//10 31//31 11//11
f 10//10 32//32 33//33
f 10//10 34//34 31//31
f 10//10 35//35 32//32
f 10//10 36//36 34//34
f 10//10 22//22 35//35
f 10//10 33//33 36//36
f 24//24 23//23 21//21
f 24//24 21//21 25//25
f 37//37 25//25 21//21
f 37//37 38//38 25//25
f 37//37 21//21 39//39
f 37//37 40//40 38//38
f 37//37 39//39 40//40
f 25//25 38//38 26//26
f 12//12 11//11 41//41
f 12//12 41//41 13//13
f 13//13 42//42 43//43
f 13//13 41//41 42//42
f 13//13 39//39 21//21
f 13//13 43//43 39//39
f 27//27 29//29 28//28
f 38//38 40//40 44//44
f 38//38 44//44 26//26
f 42//42 41//41 45//45
f 42//42 45//45 46//46
f 42//42 47//47 43//43
f 42//42 46//46 47//47
f 40//40 39//39 43//43
f 40//40 47//47 44//44
f 40//40 43//43 47//47
f 26//26 44//44 29//29
f 11//11 48//48 41//41
f 11//11 31//31 48//48
f 48//48 45//45 41//41
f 48//48 31//31 49//49
f 48//48 49//49 50//50
f 48//48 50//50 45//45
f 28//28 29//29 30//30
f 45//45 50//50 51//51
f 45//45 51//51 46//46
f 44//44 47//47 52//52
f 44//44 52//52 29//29
f 47//47 46//46 52//52
f 29//29 52//52 53//53
f 29//29 53//53 30//30
f 31//31 34//34 54//54
f 31//31 54//54 49//49
f 49//49 54//54 55//55
f 49//49 56//56 50//50
f 49//49 55//55 56//56
f 30//30 53//53 15//15
f 50//50 57//57 51//51
f 50//50 56//56 57//57
f 52//52 46//46 58//58
f 52//52 58//58 53//53
f 32//32 35//35 33//33
f 16//16 15//15 59//59
f 16//16 60//60 17//17
f 16//16 59//59 60//60
f 46//46 51//51 58//58
f 53//53 58//58 61//61
f 53//53 61//61 15//15
f 34//34 36//36 62//62
f 34//34 62//62 54//54
f 15//15 61//61 59//59
f 57//57 63//63 64//64
f 57//57 64//64 51//51
f 57//57 56//56 63//63
f 35//35 22//22 33//33
f 58//58 51//51 65//65
f 58//58 65//65 61//61
f 51//51 64//64 65//65
f 61//61 65//65 66//66
f 61//61 66//66 67//67
f 61//61 67//67 59//59
f 36//36 33//33 62//62
f 60//60 59//59 67//67
f 60//60 68//68 69//69
f 60//60 67//67 68//68
f 60//60 69//69 17//17
f 20//20 17//17 70//70
f 20//20 70//70 22//22
f 63//63 56//56 71//71
f 63//63 71//71 72//72
f 63//63 72//72 64//64
f 65//65 64//64 73//73
f 65//65 73//73 66//66
f 22//22 70//70 74//74
f 22//22 74//74 33//33
f 33//33 74//74 62//62
f 68//68 67//67 75//75
f 68//68 76//76 69//69
f 68//68 75//75 76//76
f 54//54 62//62 55//55
f 64//64 72//72 73//73
f 56//56 55//55 77//77
f 56//56 77//77 78//78
f 56//56 78//78 71//71
f 66//66 73//73 79//79
f 66//66 79//79 75//75
f 66//66 75//75 67//67
f 17//17 69//69 80//80
f 17//17 80//80 70//70
f 70//70 80//80 74//74
f 71//71 78//78 72//72
f 73//73 72//72 81//81
f 73//73 81//81 79//79
f 55//55 62//62 82//82
f 55//55 82//82 77//77
f 72//72 78//78 81//81
f 77//77 82//82 83//83
f 77//77 83//83 84//84
f 77//77 84//84 78//78
f 76//76 75//75 85//85
f 76//76 86//86 87//87
f 76//76 87//87 69//69
f 76//76 85//85 86//86
f 62//62 74//74 88//88
f 62//62 88//88 82//82
f 89//89 79//79 81//81
f 89//89 75//75 79//79
f 89//89 81//81 90//90
f 89//89 90//90 85//85
f 89//89 85//85 75//75
f 74//74 80//80 91//91
f 74//74 91//91 88//88
f 78//78 92//92 81//81
f 78//78 84//84 92//92
f 69//69 87//87 93//93
f 69//69 93//93 80//80
f 92//92 94//94 81//81
f 92//92 84//84 94//94
f 80//80 88//88 91//91
f 80//80 95//95 88//88
f 80//80 93//93 95//95
f 81//81 94//94 96//96
f 81//81 96//96 90//90
f 82//82 88//88 97//97
f 82//82 97//97 83//83
f 83//83 97//97 98//98
f 83//83 98//98 99//99
f 83//83 99//99 84//84
f 86//86 85//85 100//100
f 86//86 101//101 102//102
f 86//86 102//102 87//87
f 86//86 100//100 101//101
f 103//103 87//87 102//102
f 103//103 95//95 87//87
f 103//103 104//104 105//105
f 103//103 102//102 104//104
f 103//103 105//105 95//95
f 88//88 95//95 106//106
f 88//88 106//106 97//97
f 90//90 94//94 107//107
f 90//90 96//96 94//94
f 90//90 107//107 108//108
f 90//90 108//108 100//100
f 90//90 100//100 85//85
f 87//87 95//95 93//93
f 95//95 109//109 106//106
f 95//95 105//105 109//109
f 94//94 84//84 99//99
f 94//94 110//110 111//111
f 94//94 111//111 107//107
f 94//94 99//99 110//110
f 109//109 105//105 112//112
f 109//109 112//112 113//113
f 109//109 113//113 106//106
f 114//114 104//104 102//102
f 114//114 101//101 115//115
f 114//114 102//102 101//101
f 114//114 115//115 104//104
f 107//107 111//111 108//108
f 97//97 106//106 113//113
f 97//97 113//113 98//98
f 110//110 116//116 111//111
f 110//110 99//99 117//117
f 110//110 118//118 116//116
f 110//110 117//117 118//118
f 108//108 119//119 100//100
f 108//108 111//111 119//119
f 104//104 112//112 105//105
f 104//104 115//115 120//120
f 104//104 120//120 112//112
f 101//101 119//119 115//115
f 101//101 100//100 119//119
f 98//98 121//121 99//99
f 98//98 113//113 121//121
f 119//119 111//111 122//122
f 119//119 122//122 115//115
f 116//116 121//121 123//123
f 116//116 123//123 124//124
f 116//116 122//122 111//111
f 116//116 118//118 125//125
f 116//116 125//125 126//126
f 116//116 126//126 121//121
f 116//116 124//124 122//122
f 121//121 113//113 123//123
f 121//121 126//126 117//117
f 121//121 117//117 99//99
f 123//123 113//113 127//127
f 123//123 127//127 128//128
f 123//123 128//128 124//124
f 122//122 120//120 115//115
f 122//122 124//124 120//120
f 112//112 120//120 127//127
f 112//112 127//127 113//113
f 120//120 124//124 128//128
f 120//120 128//128 127//127
f 118//118 117//117 125//125
f 125//125 117//117 126//126
# 252 faces, 0 coords texture

# End of File
