####
#
# OBJ File Generated by Meshlab
#
####
# Object zonopy_mesh_step2_link2.obj
#
# Vertices: 58
# Faces: 112
#
####
vn 0.642902 -4.637087 -3.104699
v 0.052316 -0.210585 0.367051
vn -1.064970 -4.567162 -2.882482
v 0.052217 -0.210585 0.367051
vn 0.361856 -1.954881 -5.552669
v -0.028689 -0.009545 0.217271
vn 2.694752 -3.316476 -3.790931
v 0.139747 -0.173422 0.367051
vn 1.106531 -5.622595 -1.614964
v 0.060094 -0.211694 0.374055
vn 0.063915 -6.193727 -1.050064
v 0.060084 -0.211693 0.374046
vn -0.033297 -6.201990 -1.005350
v 0.047000 -0.211693 0.374046
vn -1.927505 -5.015010 -1.623177
v 0.046993 -0.211694 0.374055
vn -2.428479 -1.375717 -2.836571
v -0.041806 -0.009545 0.217271
vn 3.429487 -3.302047 -2.924627
v 0.147075 -0.173490 0.374055
vn 2.472058 -0.809218 -4.468016
v 0.058291 0.028661 0.217271
vn 1.414116 -5.760178 -0.896704
v 0.060100 -0.211694 0.374061
vn -2.554290 -4.655381 -0.913851
v 0.046989 -0.211694 0.374061
vn 3.724607 -2.883106 -1.827577
v 0.147081 -0.173489 0.374061
vn 2.707099 -5.662538 0.070427
v 0.147081 -0.173489 0.383311
vn 4.367691 -2.271184 -0.899254
v 0.147084 -0.173487 0.374067
vn 3.736175 -2.745803 1.133516
v 0.147084 -0.173487 0.383319
vn 1.281787 -5.290947 1.802374
v 0.060104 -0.211693 0.383319
vn 2.274914 -5.839405 -0.142103
v 0.060104 -0.211693 0.374067
vn -1.368327 -5.877517 0.261343
v 0.046989 -0.211694 0.383311
vn 0.824384 -6.111244 0.284815
v 0.060100 -0.211694 0.383311
vn -4.387142 -3.955853 -0.251325
v 0.046987 -0.211693 0.374067
vn 5.468229 0.000360 -3.094654
v 0.147081 -0.159335 0.374061
vn 5.769915 0.606699 -1.400937
v 0.147084 -0.159328 0.374067
vn 2.071682 1.751589 -2.657701
v 0.058291 0.042819 0.217271
vn -2.451402 -4.087140 1.172551
v 0.046987 -0.211693 0.383319
vn -1.056865 4.612070 2.791990
v 0.023752 0.091591 0.301532
vn -3.201802 2.270897 1.639447
v -0.063229 0.053385 0.301532
vn -0.365774 2.000227 5.513555
v 0.112544 -0.110554 0.458330
vn 2.193805 3.595896 1.752521
v 0.036869 0.091591 0.301532
vn 1.474793 5.767777 0.365375
v 0.036868 0.091591 0.301531
vn -1.191283 5.916165 0.524085
v 0.023752 0.091591 0.301531
vn 5.996692 1.350281 -0.147810
v 0.147084 -0.159327 0.374071
vn 6.282412 0.048315 0.028620
v 0.147084 -0.159328 0.383319
vn -5.752692 -2.526847 0.000001
v -0.041806 -0.009545 0.226523
vn -5.929435 -1.015082 -0.584812
v -0.063229 0.039226 0.292280
vn -5.674535 -0.880053 1.189311
v -0.063229 0.039226 0.301532
vn -0.000001 -0.000004 -6.283185
v 0.045174 0.028661 0.217271
vn -3.690699 2.610743 -1.187437
v -0.063229 0.053385 0.292280
vn -0.515049 2.686499 -4.621586
v 0.045174 0.042819 0.217271
vn -2.562719 1.172571 -3.478991
v -0.041806 0.004614 0.217271
vn -1.247847 5.223695 -2.764356
v 0.023752 0.091591 0.292280
vn -1.103933 5.699286 -1.076666
v 0.023752 0.091591 0.292281
vn 0.756976 -3.871499 4.373072
v 0.038681 -0.162921 0.458329
vn 3.281765 -1.855977 3.285203
v 0.125661 -0.124716 0.458329
vn 0.327130 -1.499441 5.871294
v 0.038680 -0.162918 0.458330
vn -2.508576 -2.607560 2.508526
v 0.025564 -0.162921 0.458329
vn 5.532251 -1.159621 1.673016
v 0.147084 -0.173485 0.383321
vn 6.002123 0.265680 1.753788
v 0.125661 -0.110557 0.458329
vn 2.747536 -0.511865 4.154392
v 0.125661 -0.124712 0.458330
vn 5.929358 1.026600 0.597543
v 0.147084 -0.159327 0.383321
vn -2.484766 -0.995594 4.025110
v 0.025564 -0.162918 0.458330
vn 2.676709 4.030870 -1.385405
v 0.036869 0.091591 0.292280
vn 1.299298 5.611202 -0.858169
v 0.036868 0.091591 0.292281
vn 5.752685 2.526862 -0.000000
v 0.125661 -0.110554 0.449080
vn 2.404072 1.429657 2.848572
v 0.125661 -0.110554 0.458330
vn -2.465954 0.832727 4.454677
v 0.025564 -0.148760 0.458330
vn 0.000001 0.000004 6.283185
v 0.038680 -0.148760 0.458330
# 58 vertices, 0 vertices normals

f 1//1 2//2 3//3
f 1//1 4//4 5//5
f 1//1 6//6 7//7
f 1//1 7//7 2//2
f 1//1 5//5 6//6
f 1//1 3//3 4//4
f 2//2 7//7 8//8
f 2//2 8//8 9//9
f 2//2 9//9 3//3
f 4//4 10//10 5//5
f 4//4 3//3 11//11
f 4//4 11//11 10//10
f 6//6 5//5 8//8
f 6//6 8//8 7//7
f 5//5 10//10 12//12
f 5//5 12//12 13//13
f 5//5 13//13 8//8
f 8//8 13//13 9//9
f 10//10 14//14 12//12
f 10//10 11//11 14//14
f 15//15 14//14 16//16
f 15//15 17//17 18//18
f 15//15 19//19 14//14
f 15//15 16//16 17//17
f 15//15 18//18 19//19
f 12//12 20//20 13//13
f 12//12 14//14 19//19
f 12//12 21//21 20//20
f 12//12 19//19 21//21
f 13//13 20//20 22//22
f 13//13 22//22 9//9
f 23//23 14//14 11//11
f 23//23 24//24 16//16
f 23//23 11//11 25//25
f 23//23 25//25 24//24
f 23//23 16//16 14//14
f 20//20 21//21 26//26
f 20//20 26//26 22//22
f 21//21 19//19 18//18
f 21//21 18//18 26//26
f 27//27 28//28 29//29
f 27//27 30//30 31//31
f 27//27 29//29 30//30
f 27//27 32//32 28//28
f 27//27 31//31 32//32
f 24//24 17//17 16//16
f 24//24 25//25 33//33
f 24//24 34//34 17//17
f 24//24 33//33 34//34
f 35//35 22//22 26//26
f 35//35 36//36 9//9
f 35//35 26//26 37//37
f 35//35 37//37 36//36
f 35//35 9//9 22//22
f 3//3 38//38 11//11
f 3//3 9//9 38//38
f 39//39 40//40 41//41
f 39//39 36//36 37//37
f 39//39 41//41 36//36
f 39//39 37//37 28//28
f 39//39 28//28 32//32
f 39//39 42//42 40//40
f 39//39 32//32 43//43
f 39//39 43//43 42//42
f 44//44 45//45 46//46
f 44//44 47//47 26//26
f 44//44 17//17 45//45
f 44//44 26//26 18//18
f 44//44 18//18 17//17
f 44//44 46//46 47//47
f 45//45 17//17 48//48
f 45//45 49//49 50//50
f 45//45 50//50 46//46
f 45//45 48//48 51//51
f 45//45 51//51 49//49
f 47//47 37//37 26//26
f 47//47 46//46 52//52
f 47//47 52//52 37//37
f 17//17 34//34 48//48
f 11//11 40//40 25//25
f 11//11 38//38 40//40
f 40//40 38//38 41//41
f 40//40 53//53 25//25
f 40//40 42//42 53//53
f 38//38 9//9 41//41
f 36//36 41//41 9//9
f 53//53 42//42 54//54
f 53//53 30//30 55//55
f 53//53 33//33 25//25
f 53//53 55//55 33//33
f 53//53 54//54 31//31
f 53//53 31//31 30//30
f 49//49 56//56 50//50
f 49//49 51//51 56//56
f 37//37 52//52 57//57
f 37//37 57//57 28//28
f 28//28 57//57 29//29
f 42//42 43//43 54//54
f 30//30 29//29 56//56
f 30//30 56//56 55//55
f 34//34 33//33 51//51
f 34//34 51//51 48//48
f 33//33 55//55 51//51
f 46//46 50//50 58//58
f 46//46 58//58 57//57
f 46//46 57//57 52//52
f 55//55 56//56 51//51
f 29//29 58//58 56//56
f 29//29 57//57 58//58
f 50//50 56//56 58//58
f 32//32 54//54 43//43
f 32//32 31//31 54//54
# 112 faces, 0 coords texture

# End of File
