####
#
# OBJ File Generated by Meshlab
#
####
# Object zonopy_mesh_step25_link2.obj
#
# Vertices: 32
# Faces: 60
#
####
vn 1.093992 -2.535091 3.526171
v -0.126250 -0.029956 0.484016
vn -1.400924 -2.328482 2.760840
v -0.140401 -0.029956 0.484016
vn -0.669329 -6.072528 0.589874
v 0.038417 -0.082293 0.287502
vn 2.399640 -0.320232 5.125687
v -0.099564 0.061220 0.484017
vn -0.000108 -0.000021 6.283185
v -0.113714 0.061220 0.484017
vn 2.601550 -3.153188 1.299393
v 0.052567 -0.082293 0.287502
vn 5.190273 -0.761465 2.007042
v 0.079254 0.008883 0.287503
vn 3.473439 2.235764 -1.263504
v 0.079254 0.020609 0.278916
vn 3.545807 2.286869 1.188092
v 0.079254 0.020609 0.287503
vn 5.075263 -0.744837 -2.111305
v 0.079254 0.008883 0.278916
vn -5.190273 0.761465 -2.007042
v -0.204475 0.000524 0.412130
vn -2.399640 0.320232 -5.125687
v -0.025657 -0.051813 0.215616
vn -3.545807 -2.286869 -1.188092
v -0.204475 -0.011201 0.412130
vn -3.473439 -2.235764 1.263504
v -0.204475 -0.011201 0.420717
vn -5.075264 0.744837 2.111304
v -0.204475 0.000524 0.420717
vn -1.093992 2.535091 -3.526171
v 0.001030 0.039364 0.215617
vn -2.601550 3.153188 -1.299393
v -0.177788 0.091701 0.412131
vn 0.000108 0.000021 -6.283185
v -0.011507 -0.051813 0.215616
vn 1.037258 -2.548369 -3.660535
v -0.011507 -0.063538 0.215616
vn -1.459198 -2.274921 -2.724459
v -0.025657 -0.063538 0.215616
vn -1.037258 2.548369 3.660535
v -0.113714 0.072946 0.484017
vn -2.544784 3.083002 1.367258
v -0.177788 0.091701 0.420718
vn 0.654389 6.051355 0.665121
v -0.163638 0.091701 0.420718
vn 1.459198 2.274921 2.724459
v -0.099564 0.072946 0.484017
vn -2.285578 0.303584 5.260249
v -0.140401 -0.018231 0.484016
vn 2.544784 -3.083002 -1.367258
v 0.052567 -0.082293 0.278915
vn -0.654389 -6.051355 -0.665121
v 0.038417 -0.082293 0.278915
vn 2.285578 -0.303584 -5.260249
v 0.015180 0.027638 0.215617
vn 1.764999 6.030190 0.000017
v 0.015180 0.039364 0.224204
vn 1.400924 2.328482 -2.760840
v 0.015180 0.039364 0.215617
vn 0.669329 6.072528 -0.589873
v -0.163638 0.091701 0.412131
vn -1.764999 -6.030190 -0.000017
v -0.140401 -0.029956 0.475429
# 32 vertices, 0 vertices normals

f 1//1 2//2 3//3
f 1//1 4//4 5//5
f 1//1 5//5 2//2
f 1//1 3//3 6//6
f 1//1 6//6 4//4
f 7//7 8//8 9//9
f 7//7 4//4 6//6
f 7//7 6//6 10//10
f 7//7 10//10 8//8
f 7//7 9//9 4//4
f 11//11 12//12 13//13
f 11//11 13//13 14//14
f 11//11 14//14 15//15
f 11//11 16//16 12//12
f 11//11 17//17 16//16
f 11//11 15//15 17//17
f 12//12 16//16 18//18
f 12//12 19//19 20//20
f 12//12 20//20 13//13
f 12//12 18//18 19//19
f 21//21 22//22 15//15
f 21//21 23//23 22//22
f 21//21 24//24 23//23
f 21//21 4//4 24//24
f 21//21 25//25 5//5
f 21//21 5//5 4//4
f 21//21 15//15 25//25
f 26//26 27//27 19//19
f 26//26 28//28 10//10
f 26//26 19//19 28//28
f 26//26 3//3 27//27
f 26//26 6//6 3//3
f 26//26 10//10 6//6
f 29//29 23//23 24//24
f 29//29 24//24 9//9
f 29//29 30//30 31//31
f 29//29 8//8 30//30
f 29//29 31//31 23//23
f 29//29 9//9 8//8
f 22//22 23//23 31//31
f 22//22 31//31 17//17
f 22//22 17//17 15//15
f 32//32 13//13 20//20
f 32//32 27//27 3//3
f 32//32 2//2 14//14
f 32//32 14//14 13//13
f 32//32 3//3 2//2
f 32//32 20//20 27//27
f 24//24 4//4 9//9
f 27//27 20//20 19//19
f 2//2 25//25 14//14
f 2//2 5//5 25//25
f 30//30 8//8 28//28
f 30//30 16//16 31//31
f 30//30 28//28 18//18
f 30//30 18//18 16//16
f 14//14 25//25 15//15
f 8//8 10//10 28//28
f 16//16 17//17 31//31
f 28//28 19//19 18//18
# 60 faces, 0 coords texture

# End of File
