####
#
# OBJ File Generated by Meshlab
#
####
# Object zonopy_mesh_step30_link7.obj
#
# Vertices: 175
# Faces: 346
#
####
vn -4.872056 -1.801609 -1.452439
v -0.159647 0.171065 0.843458
vn -5.363783 -1.612175 0.886064
v -0.159647 0.171065 0.846003
vn -4.859031 1.983465 -0.948693
v -0.159647 0.171995 0.843458
vn -2.680448 -0.877210 -4.230404
v -0.125407 0.195833 0.779626
vn -3.410571 -4.236912 -1.740322
v -0.119421 0.120784 0.845526
vn -1.309153 -2.573531 -4.308681
v -0.085180 0.145553 0.781694
vn -4.661286 -4.173075 0.172859
v -0.119421 0.120784 0.848071
vn -4.810184 -4.010636 0.445999
v -0.091089 0.093834 0.914284
vn -4.891915 2.046734 0.920222
v -0.159647 0.171995 0.846003
vn -5.706157 -0.854017 2.279622
v -0.131702 0.144897 0.907763
vn -5.199450 1.592316 2.636524
v -0.131702 0.165322 0.907763
vn -5.635666 -1.133878 2.180840
v -0.131546 0.144727 0.908084
vn -5.247627 -1.900871 1.756613
v -0.131397 0.144568 0.908384
vn -4.454801 -4.286877 0.520641
v -0.090765 0.093516 0.914924
vn 0.491892 6.144367 0.536129
v -0.075134 0.236888 0.823503
vn -1.630066 5.625908 0.459683
v -0.077379 0.236888 0.823503
vn -0.015272 6.118662 1.428215
v -0.053600 0.226992 0.866199
vn 1.350596 4.051983 -2.532168
v -0.075134 0.236888 0.820958
vn 0.031772 6.127493 1.388839
v -0.029934 0.226992 0.866199
vn 0.441353 6.155846 0.983477
v -0.027349 0.226471 0.868439
vn 0.631619 6.136581 0.808353
v -0.025192 0.226018 0.870249
vn 0.718299 6.120370 0.739819
v -0.024812 0.225936 0.870569
vn 1.384636 6.127398 -0.081370
v -0.024812 0.225936 0.850314
vn 3.287229 1.781606 -4.981474
v -0.034907 0.186607 0.823026
vn 2.095765 0.566811 -5.492723
v -0.082935 0.146483 0.781694
vn 0.737264 2.133938 -5.133307
v -0.123161 0.196763 0.779626
vn 2.430775 4.252126 -2.358014
v -0.023180 0.225562 0.851102
vn 3.527849 2.083151 -4.756179
v 0.016721 0.175236 0.856189
vn 3.533211 2.005926 -4.779801
v 0.017216 0.175095 0.856494
vn 3.305599 2.888801 -4.460822
v -0.022680 0.225423 0.851382
vn 3.548408 1.702398 -4.842653
v 0.017439 0.175032 0.856633
vn 2.535662 4.210953 -2.359782
v -0.022455 0.225361 0.851509
vn 2.680838 4.131274 -2.299646
v -0.021873 0.225190 0.851842
vn -3.008844 -5.125412 -1.004415
v -0.090765 0.093516 0.893753
vn 0.126633 -0.092276 -6.276979
v -0.123161 0.195833 0.779626
vn 1.277038 -1.869785 -4.695254
v -0.082935 0.145553 0.781694
vn -2.074679 1.854335 -2.818052
v -0.125407 0.196763 0.779626
vn 3.766369 -0.021116 -5.029048
v 0.018016 0.153706 0.856997
vn 3.833542 -0.177923 -4.967843
v 0.018160 0.153605 0.857106
vn 1.927594 -2.835251 -4.423203
v -0.033453 0.109625 0.824855
vn -1.048485 -4.998232 -3.451885
v -0.061535 0.109625 0.824855
vn 3.936704 -0.372883 -4.857247
v 0.018285 0.153516 0.857207
vn -3.391969 4.447375 1.514037
v -0.111620 0.212119 0.887335
vn -3.860644 4.950943 -0.050429
v -0.111620 0.212119 0.884790
vn -2.605681 5.254731 1.852117
v -0.082166 0.209565 0.936953
vn -2.736189 5.078701 1.943430
v -0.081059 0.209420 0.938913
vn -2.913746 4.488526 2.229213
v -0.080341 0.209309 0.940205
vn -5.151726 1.597545 2.745616
v -0.131546 0.165279 0.908084
vn -5.080348 1.597699 2.847311
v -0.131397 0.165238 0.908384
vn 3.796306 1.406617 -4.561390
v 0.018016 0.174860 0.856997
vn -1.323543 4.896269 -1.628651
v -0.077379 0.236888 0.820958
vn -2.387028 5.417152 1.794965
v -0.080863 0.209393 0.939259
vn -2.850325 4.470760 2.298158
v -0.080169 0.209281 0.940478
vn -2.692916 4.382875 2.397078
v -0.080004 0.209253 0.940735
vn -2.572171 4.354353 2.469994
v -0.079547 0.209163 0.941394
vn -2.361047 4.064537 2.685832
v -0.079184 0.209082 0.941911
vn -2.177279 3.942876 2.838291
v -0.079067 0.209056 0.942046
vn -2.064345 3.781693 2.968440
v -0.078957 0.209030 0.942164
vn -1.004122 -5.092860 -3.321401
v -0.061443 0.109515 0.824990
vn -0.982125 -5.200014 -3.158050
v -0.061356 0.109420 0.825115
vn -0.954966 -5.324197 -2.947915
v -0.061272 0.109337 0.825230
vn -0.938256 -5.436250 -2.769856
v -0.061193 0.109269 0.825335
vn 1.863115 5.805213 -0.976660
v -0.023762 0.225704 0.850800
vn 2.059342 5.579442 -1.318068
v -0.023462 0.225632 0.850955
vn -0.010210 6.116872 1.435909
v -0.052489 0.226471 0.868439
vn 0.029237 6.099177 1.506691
v -0.050803 0.209030 0.942164
vn 0.794550 6.103727 0.745499
v -0.023762 0.225704 0.871443
vn 0.111982 6.052206 1.663819
v -0.050684 0.209004 0.942265
vn 0.855195 6.096075 0.758647
v -0.023462 0.225632 0.871696
vn -5.050044 1.573371 2.958648
v -0.131112 0.165150 0.908919
vn -5.038866 1.573237 2.981156
v -0.130983 0.165111 0.909159
vn -4.927138 1.467509 3.172151
v -0.130653 0.165001 0.909769
vn 0.956811 6.068204 0.771157
v -0.023180 0.225562 0.871932
vn 1.069897 6.047360 0.796425
v -0.022455 0.225361 0.872539
vn 0.211732 6.006565 1.796881
v -0.050587 0.208977 0.942348
vn -5.232353 -1.918001 1.800243
v -0.131112 0.144289 0.908919
vn -3.839251 3.647501 3.161547
v -0.079690 0.209191 0.941190
vn -5.225481 -1.924054 1.811288
v -0.130983 0.144162 0.909159
vn 1.264781 5.988055 0.813281
v -0.021873 0.225190 0.873013
vn -5.078313 -1.879049 2.060915
v -0.130653 0.143847 0.909769
vn -4.800024 1.287188 3.576526
v -0.130545 0.164967 0.909930
vn 1.461495 5.936457 0.851268
v -0.021726 0.225139 0.873136
vn 2.987377 4.247294 -2.090417
v -0.021726 0.225139 0.851943
vn 0.428847 5.780871 2.244464
v -0.050509 0.208951 0.942425
vn -2.725378 -5.330025 -1.000296
v -0.090659 0.093432 0.893899
vn -4.310890 -4.366552 0.691061
v -0.090659 0.093432 0.915093
vn 3.973593 1.435752 -4.354940
v 0.018160 0.174809 0.857106
vn -4.989742 -1.852689 2.481203
v -0.130545 0.143763 0.909930
vn -0.794080 -5.528667 -2.605394
v -0.061119 0.109214 0.825419
vn 1.969138 -3.030011 -4.292008
v -0.033318 0.109515 0.824990
vn 4.114752 -0.516070 -4.666633
v 0.018392 0.153440 0.857301
vn -4.699019 1.174113 3.783600
v -0.130444 0.164933 0.910071
vn -4.557165 1.029704 4.030260
v -0.130348 0.164901 0.910193
vn 1.643653 5.873443 0.880233
v -0.021600 0.225091 0.873244
vn 3.171127 4.295049 -1.942451
v -0.021600 0.225091 0.852037
vn -4.171692 -4.409962 0.845016
v -0.090559 0.093359 0.915242
vn -4.891355 -1.819280 2.726356
v -0.130444 0.143690 0.910071
vn 4.148413 1.518595 -4.108446
v 0.018285 0.174760 0.857207
vn -2.523656 -5.444745 -0.967943
v -0.090559 0.093359 0.894035
vn 2.010014 -3.175160 -4.153976
v -0.033201 0.109420 0.825115
vn 4.205916 -0.577803 -4.584760
v 0.018478 0.153377 0.857388
vn 4.523775 -0.895547 -4.035010
v 0.018546 0.153327 0.857457
vn -4.447026 0.893636 4.244035
v -0.130258 0.164869 0.910295
vn 1.902217 5.769319 0.916446
v -0.021492 0.225045 0.873335
vn 3.394249 4.332710 -1.747476
v -0.021492 0.225045 0.852124
vn -2.276176 -5.567416 -0.924750
v -0.090464 0.093296 0.894159
vn -3.968907 -4.442456 1.057323
v -0.090464 0.093296 0.915370
vn 4.356070 1.619042 -3.755496
v 0.018392 0.174714 0.857301
vn -4.745920 -1.770933 3.030505
v -0.130348 0.143627 0.910193
vn -1.965214 3.554808 3.177234
v -0.078854 0.209004 0.942265
vn 2.060402 -3.351083 -3.965821
v -0.033102 0.109337 0.825230
vn -4.187721 0.718135 4.493967
v -0.130175 0.164838 0.910387
vn -2.018001 -5.700677 -0.877336
v -0.090375 0.093245 0.894272
vn -3.725123 -4.509963 1.206213
v -0.090375 0.093245 0.915478
vn 3.667676 4.384023 -1.480780
v -0.021404 0.225001 0.852205
vn 4.527793 1.720457 -3.484276
v 0.018478 0.174670 0.857388
vn -4.655330 -1.733628 3.312108
v -0.130258 0.143576 0.910295
vn 2.241900 5.618902 0.939270
v -0.021404 0.225001 0.873411
vn 0.597276 5.701155 2.423528
v -0.050452 0.208925 0.942474
vn 1.575311 3.880775 3.369880
v -0.050411 0.208904 0.942512
vn -0.602250 -5.765563 -2.299942
v -0.061050 0.109172 0.825505
vn -0.375643 -5.866026 -2.016031
v -0.060991 0.109139 0.825575
vn 2.103671 -3.511889 -3.867544
v -0.033023 0.109269 0.825335
vn -1.929712 3.507223 3.359842
v -0.078757 0.208977 0.942348
vn 2.657890 5.347146 1.053290
v -0.021335 0.224960 0.873481
vn 3.993142 4.275905 -1.271862
v -0.021335 0.224960 0.852269
vn -1.593558 -5.842477 -0.834243
v -0.090293 0.093205 0.894364
vn -3.359840 -4.358492 1.672482
v -0.090293 0.093205 0.915575
vn 4.699415 1.768387 -2.821201
v 0.018546 0.174628 0.857457
vn -4.293669 -1.586154 3.738899
v -0.130175 0.143537 0.910387
vn -1.701656 2.934102 3.649993
v -0.078669 0.208951 0.942425
vn 2.144518 -3.703289 -3.440708
v -0.032960 0.109214 0.825419
vn 3.167254 5.094094 1.102772
v -0.021285 0.224921 0.873524
vn 4.366963 4.313651 -0.698004
v -0.021285 0.224921 0.852338
vn 5.061532 1.871222 -2.202314
v 0.018596 0.174589 0.857530
vn -3.138468 -4.349139 1.898945
v -0.090217 0.093175 0.915641
vn -3.928976 -1.414218 4.404390
v -0.130098 0.143508 0.910449
vn -3.765434 0.323231 5.000963
v -0.130098 0.164808 0.910449
vn -1.332176 -5.963350 -0.782241
v -0.090217 0.093175 0.894456
vn 4.842604 -1.133915 -3.578553
v 0.018596 0.153289 0.857530
vn -1.573449 2.732358 4.196906
v -0.078587 0.208925 0.942474
vn 2.258140 -4.131606 -3.108484
v -0.032915 0.109172 0.825505
vn 4.953275 -1.745994 -2.015483
v 0.018631 0.153259 0.857590
vn -3.268130 -0.037024 5.365663
v -0.078669 0.187650 0.942425
vn -3.528959 0.164254 5.183992
v -0.130032 0.164784 0.910497
vn -3.112308 -0.147352 5.450630
v -0.078587 0.187625 0.942474
vn -3.368286 -1.363078 4.817958
v -0.130032 0.143484 0.910497
vn 3.769003 4.347711 1.385599
v -0.021249 0.224891 0.873557
vn 4.584339 4.182066 -0.388248
v -0.021249 0.224891 0.852395
vn -0.953151 -6.019463 -0.612492
v -0.090152 0.093152 0.894530
vn -1.849183 -3.635559 2.550827
v -0.090152 0.093152 0.915693
vn 5.229162 1.673033 -1.289561
v 0.018631 0.174558 0.857590
vn 2.275562 -4.384616 -2.174224
v -0.032884 0.109139 0.825575
vn -1.108850 2.457870 4.394164
v -0.078518 0.208904 0.942512
vn -2.146139 -0.426974 5.760754
v -0.078518 0.187604 0.942512
vn 5.044191 2.779623 1.171187
v 0.018631 0.174558 0.878752
vn 2.719409 1.016759 3.833492
v -0.010517 0.158545 0.947724
vn -1.696746 -1.427329 5.783132
v -0.038638 0.137272 0.947707
vn -0.226994 -6.258720 -0.208256
v -0.090086 0.093146 0.894601
vn -0.961723 -3.850399 2.824526
v -0.090086 0.093146 0.915717
vn 0.616830 -6.114188 -0.913590
v -0.062045 0.093152 0.894530
vn 2.452035 -5.161306 -0.948787
v -0.032877 0.109125 0.825642
vn 1.426404 -5.883979 -0.195484
v -0.062035 0.093146 0.894601
vn 6.151317 0.666950 -0.320700
v 0.018640 0.174524 0.857649
vn -0.460400 -1.721467 5.612946
v -0.038569 0.137268 0.947724
vn 5.066165 -2.287420 -0.485235
v 0.018640 0.153247 0.857649
vn -0.465118 1.342533 5.891586
v -0.078448 0.208877 0.942526
vn 5.630944 1.067463 1.391057
v 0.018640 0.174524 0.878765
vn 1.851544 2.348635 4.492277
v -0.050397 0.208877 0.942526
vn -1.070463 -0.128390 6.182161
v -0.078448 0.187601 0.942526
vn 1.188213 -4.558932 2.011128
v -0.062035 0.093146 0.915717
vn 3.574807 -5.116098 0.126740
v -0.032877 0.109125 0.846758
vn 4.918538 -2.085360 0.820363
v 0.018640 0.153247 0.878765
vn 2.225401 -1.704925 2.885956
v -0.010517 0.137268 0.947724
vn -0.318917 0.229929 6.243963
v -0.038569 0.158545 0.947724
# 175 vertices, 0 vertices normals

f 1//1 2//2 3//3
f 1//1 3//3 4//4
f 1//1 5//5 2//2
f 1//1 4//4 6//6
f 1//1 6//6 5//5
f 2//2 7//7 8//8
f 2//2 5//5 7//7
f 2//2 9//9 3//3
f 2//2 10//10 11//11
f 2//2 11//11 9//9
f 2//2 12//12 10//10
f 2//2 13//13 12//12
f 2//2 8//8 14//14
f 2//2 14//14 13//13
f 15//15 16//16 17//17
f 15//15 18//18 16//16
f 15//15 19//19 20//20
f 15//15 17//17 19//19
f 15//15 20//20 21//21
f 15//15 21//21 22//22
f 15//15 22//22 23//23
f 15//15 23//23 18//18
f 24//24 25//25 26//26
f 24//24 18//18 27//27
f 24//24 26//26 18//18
f 24//24 28//28 29//29
f 24//24 27//27 30//30
f 24//24 29//29 31//31
f 24//24 30//30 32//32
f 24//24 31//31 25//25
f 24//24 32//32 33//33
f 24//24 33//33 28//28
f 7//7 5//5 34//34
f 7//7 14//14 8//8
f 7//7 34//34 14//14
f 35//35 36//36 6//6
f 35//35 25//25 36//36
f 35//35 4//4 37//37
f 35//35 37//37 26//26
f 35//35 6//6 4//4
f 35//35 26//26 25//25
f 36//36 25//25 38//38
f 36//36 38//38 39//39
f 36//36 40//40 41//41
f 36//36 41//41 6//6
f 36//36 39//39 42//42
f 36//36 42//42 40//40
f 43//43 16//16 44//44
f 43//43 44//44 9//9
f 43//43 9//9 11//11
f 43//43 45//45 16//16
f 43//43 46//46 45//45
f 43//43 47//47 46//46
f 43//43 11//11 48//48
f 43//43 48//48 49//49
f 43//43 49//49 47//47
f 3//3 44//44 37//37
f 3//3 37//37 4//4
f 3//3 9//9 44//44
f 25//25 31//31 50//50
f 25//25 50//50 38//38
f 16//16 51//51 44//44
f 16//16 18//18 51//51
f 16//16 45//45 46//46
f 16//16 46//46 52//52
f 16//16 52//52 47//47
f 16//16 47//47 53//53
f 16//16 53//53 54//54
f 16//16 54//54 55//55
f 16//16 55//55 56//56
f 16//16 56//56 57//57
f 16//16 57//57 58//58
f 16//16 58//58 17//17
f 51//51 37//37 44//44
f 51//51 18//18 26//26
f 51//51 26//26 37//37
f 5//5 6//6 41//41
f 5//5 41//41 59//59
f 5//5 59//59 60//60
f 5//5 60//60 61//61
f 5//5 61//61 62//62
f 5//5 62//62 34//34
f 18//18 23//23 63//63
f 18//18 63//63 64//64
f 18//18 64//64 27//27
f 19//19 17//17 65//65
f 19//19 65//65 20//20
f 17//17 58//58 65//65
f 20//20 65//65 66//66
f 20//20 66//66 21//21
f 65//65 58//58 66//66
f 21//21 66//66 22//22
f 46//46 47//47 52//52
f 22//22 67//67 63//63
f 22//22 63//63 23//23
f 22//22 66//66 68//68
f 22//22 68//68 67//67
f 67//67 69//69 64//64
f 67//67 64//64 63//63
f 67//67 68//68 69//69
f 10//10 12//12 48//48
f 10//10 48//48 11//11
f 47//47 49//49 70//70
f 47//47 70//70 71//71
f 47//47 71//71 72//72
f 47//47 72//72 53//53
f 69//69 73//73 27//27
f 69//69 27//27 64//64
f 69//69 68//68 73//73
f 12//12 13//13 49//49
f 12//12 49//49 48//48
f 53//53 72//72 54//54
f 73//73 74//74 32//32
f 73//73 32//32 27//27
f 73//73 68//68 75//75
f 73//73 75//75 74//74
f 28//28 33//33 29//29
f 13//13 76//76 70//70
f 13//13 70//70 49//49
f 13//13 14//14 76//76
f 27//27 32//32 30//30
f 54//54 77//77 55//55
f 54//54 72//72 77//77
f 76//76 78//78 71//71
f 76//76 71//71 70//70
f 76//76 14//14 78//78
f 29//29 33//33 31//31
f 77//77 72//72 55//55
f 74//74 79//79 33//33
f 74//74 33//33 32//32
f 74//74 75//75 79//79
f 78//78 14//14 80//80
f 78//78 80//80 72//72
f 78//78 72//72 71//71
f 31//31 33//33 50//50
f 55//55 72//72 81//81
f 55//55 81//81 56//56
f 79//79 82//82 83//83
f 79//79 83//83 33//33
f 79//79 75//75 84//84
f 79//79 84//84 82//82
f 14//14 34//34 85//85
f 14//14 86//86 80//80
f 14//14 85//85 86//86
f 50//50 33//33 83//83
f 50//50 87//87 38//38
f 50//50 83//83 87//87
f 80//80 88//88 81//81
f 80//80 86//86 88//88
f 80//80 81//81 72//72
f 38//38 87//87 39//39
f 34//34 62//62 89//89
f 34//34 89//89 85//85
f 40//40 90//90 59//59
f 40//40 59//59 41//41
f 40//40 42//42 91//91
f 40//40 91//91 90//90
f 56//56 81//81 92//92
f 56//56 92//92 93//93
f 56//56 93//93 57//57
f 82//82 94//94 95//95
f 82//82 95//95 83//83
f 82//82 84//84 94//94
f 88//88 86//86 96//96
f 88//88 96//96 97//97
f 88//88 97//97 92//92
f 88//88 92//92 81//81
f 87//87 83//83 95//95
f 87//87 98//98 39//39
f 87//87 95//95 98//98
f 86//86 85//85 99//99
f 86//86 99//99 96//96
f 85//85 89//89 99//99
f 90//90 100//100 60//60
f 90//90 60//60 59//59
f 90//90 91//91 101//101
f 90//90 101//101 102//102
f 90//90 102//102 100//100
f 57//57 93//93 103//103
f 57//57 103//103 58//58
f 39//39 98//98 42//42
f 94//94 104//104 105//105
f 94//94 105//105 95//95
f 94//94 84//84 104//104
f 96//96 99//99 106//106
f 96//96 107//107 97//97
f 96//96 106//106 107//107
f 98//98 95//95 105//105
f 98//98 108//108 42//42
f 98//98 105//105 108//108
f 97//97 107//107 109//109
f 97//97 109//109 93//93
f 97//97 93//93 92//92
f 99//99 89//89 106//106
f 66//66 58//58 110//110
f 66//66 110//110 68//68
f 100//100 111//111 61//61
f 100//100 61//61 60//60
f 100//100 102//102 111//111
f 42//42 108//108 91//91
f 58//58 103//103 112//112
f 58//58 112//112 110//110
f 107//107 106//106 113//113
f 107//107 114//114 109//109
f 107//107 113//113 114//114
f 108//108 105//105 115//115
f 108//108 116//116 91//91
f 108//108 115//115 116//116
f 109//109 114//114 117//117
f 109//109 117//117 103//103
f 109//109 103//103 93//93
f 104//104 118//118 115//115
f 104//104 115//115 105//105
f 104//104 84//84 119//119
f 104//104 119//119 120//120
f 104//104 120//120 118//118
f 91//91 116//116 101//101
f 106//106 89//89 121//121
f 106//106 121//121 122//122
f 106//106 122//122 113//113
f 111//111 123//123 62//62
f 111//111 62//62 61//61
f 111//111 102//102 123//123
f 110//110 124//124 68//68
f 110//110 112//112 124//124
f 68//68 124//124 75//75
f 118//118 125//125 126//126
f 118//118 126//126 115//115
f 118//118 120//120 125//125
f 114//114 113//113 127//127
f 114//114 128//128 117//117
f 114//114 127//127 128//128
f 116//116 115//115 126//126
f 116//116 129//129 101//101
f 116//116 126//126 129//129
f 117//117 130//130 112//112
f 117//117 128//128 130//130
f 117//117 112//112 103//103
f 101//101 129//129 102//102
f 113//113 122//122 127//127
f 75//75 124//124 131//131
f 75//75 131//131 84//84
f 123//123 102//102 132//132
f 123//123 132//132 89//89
f 123//123 89//89 62//62
f 124//124 112//112 131//131
f 125//125 133//133 134//134
f 125//125 134//134 126//126
f 125//125 120//120 133//133
f 129//129 126//126 134//134
f 129//129 135//135 102//102
f 129//129 134//134 135//135
f 130//130 128//128 136//136
f 130//130 136//136 137//137
f 130//130 137//137 138//138
f 130//130 138//138 112//112
f 128//128 127//127 139//139
f 128//128 139//139 136//136
f 102//102 135//135 140//140
f 102//102 140//140 132//132
f 84//84 131//131 141//141
f 84//84 141//141 119//119
f 127//127 122//122 139//139
f 132//132 142//142 121//121
f 132//132 140//140 143//143
f 132//132 121//121 89//89
f 132//132 143//143 142//142
f 131//131 144//144 141//141
f 131//131 112//112 138//138
f 131//131 138//138 145//145
f 131//131 145//145 144//144
f 144//144 146//146 141//141
f 144//144 147//147 146//146
f 144//144 145//145 147//147
f 133//133 148//148 149//149
f 133//133 149//149 134//134
f 133//133 120//120 148//148
f 136//136 139//139 150//150
f 136//136 151//151 137//137
f 136//136 150//150 151//151
f 137//137 147//147 145//145
f 137//137 151//151 147//147
f 137//137 145//145 138//138
f 135//135 134//134 149//149
f 135//135 152//152 140//140
f 135//135 149//149 152//152
f 139//139 122//122 150//150
f 142//142 153//153 122//122
f 142//142 143//143 153//153
f 142//142 122//122 121//121
f 141//141 146//146 154//154
f 141//141 154//154 119//119
f 140//140 152//152 143//143
f 119//119 154//154 120//120
f 146//146 147//147 155//155
f 146//146 155//155 154//154
f 148//148 152//152 149//149
f 148//148 156//156 152//152
f 148//148 120//120 157//157
f 148//148 157//157 156//156
f 147//147 151//151 158//158
f 147//147 158//158 155//155
f 151//151 150//150 159//159
f 151//151 160//160 158//158
f 151//151 159//159 160//160
f 161//161 150//150 122//122
f 161//161 153//153 162//162
f 161//161 122//122 153//153
f 161//161 163//163 159//159
f 161//161 159//159 150//150
f 161//161 162//162 163//163
f 152//152 156//156 164//164
f 152//152 164//164 143//143
f 158//158 160//160 165//165
f 158//158 165//165 155//155
f 153//153 143//143 166//166
f 153//153 166//166 162//162
f 143//143 164//164 166//166
f 154//154 155//155 167//167
f 154//154 167//167 120//120
f 156//156 157//157 168//168
f 156//156 168//168 164//164
f 120//120 167//167 169//169
f 120//120 169//169 157//157
f 155//155 165//165 170//170
f 155//155 170//170 167//167
f 160//160 163//163 171//171
f 160//160 159//159 163//163
f 160//160 171//171 165//165
f 172//172 173//173 174//174
f 172//172 163//163 162//162
f 172//172 174//174 171//171
f 172//172 162//162 166//166
f 172//172 166//166 173//173
f 172//172 171//171 163//163
f 164//164 173//173 166//166
f 164//164 168//168 173//173
f 173//173 157//157 174//174
f 173//173 168//168 157//157
f 175//175 157//157 169//169
f 175//175 165//165 174//174
f 175//175 174//174 157//157
f 175//175 167//167 170//170
f 175//175 169//169 167//167
f 175//175 170//170 165//165
f 165//165 171//171 174//174
# 346 faces, 0 coords texture

# End of File
