####
#
# OBJ File Generated by Meshlab
#
####
# Object zonopy_mesh_step15_link2.obj
#
# Vertices: 62
# Faces: 120
#
####
vn 4.431937 0.568581 3.256081
v 0.048394 -0.173790 0.439078
vn 4.532080 -0.786815 2.616973
v 0.048394 -0.173876 0.439078
vn 6.229845 -0.199198 0.432620
v 0.070699 0.048914 0.305789
vn 3.151610 0.200515 5.426671
v 0.042477 -0.171274 0.442445
vn 2.942635 1.165415 5.193802
v 0.042469 -0.171270 0.442449
vn 2.387178 2.355975 1.462126
v 0.070699 0.060812 0.305789
vn 5.223576 -2.528448 0.521700
v 0.045000 -0.220685 0.359949
vn 4.196193 -1.488557 3.473392
v 0.042477 -0.183140 0.442445
vn 5.114068 -2.355959 -0.939704
v 0.045000 -0.220685 0.359895
vn 4.598882 -4.062253 0.926264
v 0.036873 -0.229231 0.363019
vn 4.709896 -3.383487 -1.555587
v 0.036873 -0.229231 0.353613
vn 2.903578 -0.822313 -3.129295
v 0.065090 0.002825 0.216934
vn 6.165352 -0.264083 -0.812625
v 0.065091 0.002829 0.216936
vn 6.261589 -0.251907 -0.164659
v 0.070699 0.048914 0.296360
vn 3.749300 -1.601321 3.640292
v 0.042469 -0.183151 0.442449
vn 2.985453 -1.925755 3.825181
v 0.042463 -0.183159 0.442452
vn 4.373558 -4.230013 1.002952
v 0.036863 -0.229242 0.363023
vn 4.457199 -3.520203 -1.670127
v 0.036863 -0.229242 0.353606
vn 2.039160 1.411010 5.443727
v 0.042463 -0.171267 0.442452
vn 3.619119 -4.714662 1.169179
v 0.036854 -0.229249 0.363026
vn 3.674120 -3.874862 -1.942595
v 0.036854 -0.229249 0.353600
vn 6.133572 0.357927 -1.024438
v 0.065091 0.014722 0.216936
vn 2.230664 1.532290 -2.933267
v 0.065090 0.014723 0.216934
vn 0.794181 1.490094 5.691436
v 0.042457 -0.171266 0.442453
vn 1.863736 -5.291138 1.439288
v 0.036848 -0.229253 0.363027
vn 1.884177 -4.176418 -2.334296
v 0.036848 -0.229253 0.353598
vn 1.523226 -2.453300 3.970319
v 0.042457 -0.183164 0.442453
vn 2.967869 2.905457 -0.866409
v 0.070699 0.060812 0.296360
vn 0.095776 1.636989 5.820169
v -0.051849 -0.159789 0.442454
vn 0.000007 -0.000110 6.283185
v -0.051849 -0.171687 0.442454
vn 0.285535 4.661039 2.619613
v -0.023608 0.072289 0.305790
vn -0.361922 1.441028 5.802826
v -0.062585 -0.159789 0.442454
vn -0.947336 4.389221 2.351661
v -0.034342 0.072289 0.305790
vn 0.527557 -1.790170 -5.640820
v 0.065088 0.002824 0.216934
vn 0.039056 0.096668 -6.280990
v 0.065088 0.014722 0.216934
vn -0.912202 -5.724381 1.644472
v -0.068195 -0.217777 0.363027
vn -0.668274 -2.532398 4.646527
v -0.062585 -0.171687 0.442454
vn -2.684973 -1.475083 2.657922
v -0.062588 -0.171687 0.442453
vn -0.799244 -6.191696 -0.471744
v -0.068195 -0.217777 0.353598
vn -0.353612 -5.782110 1.550470
v 0.026108 -0.229254 0.363026
vn -0.250858 -3.631702 4.506706
v 0.031718 -0.183165 0.442453
vn -3.167972 -2.926682 0.798733
v -0.068197 -0.217776 0.363027
vn -3.258427 0.729805 -2.964691
v -0.039952 0.026200 0.216934
vn -2.723058 -0.856622 -3.571798
v -0.039952 0.014302 0.216934
vn -6.201590 0.253682 -0.526277
v -0.068197 -0.205878 0.353598
vn -3.930951 3.235741 -0.835022
v -0.034343 0.072289 0.296361
vn -1.755034 2.271317 -3.289799
v -0.039952 0.026200 0.216934
vn -0.205637 -0.205231 -6.263231
v -0.039952 0.014302 0.216934
vn -0.019594 -1.082476 6.090548
v 0.031721 -0.183164 0.442453
vn -3.298610 2.743650 1.656886
v -0.034343 0.072289 0.305790
vn -1.144336 5.471009 -1.389430
v -0.034342 0.072289 0.296361
vn -2.884355 1.093442 2.897537
v -0.062588 -0.159789 0.442453
vn -6.254564 0.315640 0.147644
v -0.068197 -0.205878 0.363027
vn -0.285558 -4.661030 -2.619607
v 0.026108 -0.229254 0.353597
vn -2.423077 -2.341288 -1.491611
v -0.068197 -0.217776 0.353598
vn -0.095784 -1.636991 -5.820167
v 0.054354 0.002824 0.216934
vn 0.408213 -5.785011 1.487321
v 0.036843 -0.229254 0.363026
vn 0.462595 -4.591262 -2.597302
v 0.036843 -0.229254 0.353597
vn 0.163824 2.757669 -4.632203
v -0.029218 0.026200 0.216934
vn 0.353588 5.782116 -1.550474
v -0.023608 0.072289 0.296361
vn 0.290129 -3.863429 4.363537
v 0.042453 -0.183165 0.442453
vn -0.000007 0.000110 -6.283185
v 0.054354 0.014722 0.216934
# 62 vertices, 0 vertices normals

f 1//1 2//2 3//3
f 1//1 4//4 2//2
f 1//1 5//5 4//4
f 1//1 3//3 6//6
f 1//1 6//6 5//5
f 2//2 7//7 3//3
f 2//2 4//4 8//8
f 2//2 8//8 7//7
f 9//9 7//7 10//10
f 9//9 11//11 12//12
f 9//9 10//10 11//11
f 9//9 13//13 14//14
f 9//9 12//12 13//13
f 9//9 3//3 7//7
f 9//9 14//14 3//3
f 7//7 8//8 15//15
f 7//7 15//15 16//16
f 7//7 16//16 10//10
f 4//4 5//5 8//8
f 8//8 5//5 15//15
f 11//11 10//10 17//17
f 11//11 18//18 12//12
f 11//11 17//17 18//18
f 10//10 16//16 17//17
f 5//5 19//19 15//15
f 5//5 6//6 19//19
f 18//18 17//17 20//20
f 18//18 21//21 12//12
f 18//18 20//20 21//21
f 15//15 19//19 16//16
f 17//17 16//16 20//20
f 13//13 22//22 14//14
f 13//13 12//12 23//23
f 13//13 23//23 22//22
f 19//19 24//24 16//16
f 19//19 6//6 24//24
f 21//21 20//20 25//25
f 21//21 26//26 12//12
f 21//21 25//25 26//26
f 16//16 24//24 27//27
f 16//16 27//27 20//20
f 20//20 27//27 25//25
f 22//22 28//28 14//14
f 22//22 23//23 28//28
f 29//29 30//30 24//24
f 29//29 24//24 31//31
f 29//29 32//32 30//30
f 29//29 33//33 32//32
f 29//29 31//31 33//33
f 12//12 26//26 34//34
f 12//12 34//34 35//35
f 12//12 35//35 23//23
f 36//36 37//37 38//38
f 36//36 39//39 40//40
f 36//36 40//40 41//41
f 36//36 38//38 42//42
f 36//36 42//42 39//39
f 36//36 41//41 37//37
f 43//43 44//44 45//45
f 43//43 46//46 47//47
f 43//43 47//47 48//48
f 43//43 48//48 44//44
f 43//43 45//45 46//46
f 3//3 28//28 6//6
f 3//3 14//14 28//28
f 37//37 30//30 32//32
f 37//37 32//32 38//38
f 37//37 49//49 30//30
f 37//37 41//41 49//49
f 50//50 46//46 45//45
f 50//50 33//33 51//51
f 50//50 52//52 33//33
f 50//50 45//45 53//53
f 50//50 53//53 52//52
f 50//50 51//51 46//46
f 30//30 27//27 24//24
f 30//30 49//49 27//27
f 24//24 6//6 31//31
f 44//44 54//54 55//55
f 44//44 56//56 54//54
f 44//44 48//48 56//56
f 44//44 55//55 45//45
f 26//26 25//25 57//57
f 26//26 58//58 34//34
f 26//26 57//57 58//58
f 28//28 23//23 59//59
f 28//28 60//60 6//6
f 28//28 59//59 60//60
f 32//32 33//33 52//52
f 32//32 52//52 38//38
f 27//27 49//49 61//61
f 27//27 61//61 25//25
f 6//6 60//60 31//31
f 39//39 54//54 40//40
f 39//39 42//42 55//55
f 39//39 55//55 54//54
f 23//23 35//35 59//59
f 25//25 61//61 57//57
f 49//49 41//41 61//61
f 46//46 51//51 47//47
f 60//60 33//33 31//31
f 60//60 59//59 51//51
f 60//60 51//51 33//33
f 34//34 56//56 62//62
f 34//34 62//62 35//35
f 34//34 58//58 56//56
f 54//54 56//56 58//58
f 54//54 58//58 40//40
f 40//40 58//58 57//57
f 40//40 57//57 41//41
f 38//38 52//52 53//53
f 38//38 53//53 42//42
f 59//59 47//47 51//51
f 59//59 62//62 47//47
f 59//59 35//35 62//62
f 56//56 48//48 62//62
f 42//42 45//45 55//55
f 42//42 53//53 45//45
f 47//47 62//62 48//48
f 61//61 41//41 57//57
# 120 faces, 0 coords texture

# End of File
