####
#
# OBJ File Generated by Meshlab
#
####
# Object zonopy_mesh_step4_link5.obj
#
# Vertices: 126
# Faces: 248
#
####
vn -1.388133 -2.222273 -3.466885
v 0.218712 -0.632616 0.438430
vn -4.222000 -0.163454 -4.463609
v 0.185245 -0.499811 0.459069
vn -1.497942 0.278695 -5.793116
v 0.218712 -0.631876 0.438430
vn 0.837892 -2.578493 -3.840870
v 0.220164 -0.632616 0.438430
vn -5.530576 -0.583847 -1.720365
v 0.135328 -0.523067 0.527768
vn 0.048076 -6.053285 -1.627081
v 0.170247 -0.655872 0.507130
vn -2.720129 -2.994174 -1.351296
v 0.168795 -0.655872 0.507130
vn -2.433242 5.787235 0.038517
v 0.185245 -0.499070 0.460448
vn -4.099172 2.235216 -1.080454
v 0.135328 -0.522326 0.527768
vn -3.882929 2.178579 1.263190
v 0.135328 -0.522326 0.529148
vn -2.546783 2.704462 2.659392
v 0.202398 -0.496083 0.604227
vn -1.881885 2.326646 -2.653293
v 0.185245 -0.499070 0.459069
vn -1.794336 5.972404 0.260470
v 0.267112 -0.468224 0.551417
vn -0.988821 5.968682 -0.784630
v 0.267112 -0.468224 0.533470
vn 0.370874 2.821394 -4.992803
v 0.186696 -0.499070 0.459069
vn 1.280706 0.476009 -5.898567
v 0.220164 -0.631876 0.438430
vn -0.644076 5.492645 -2.591613
v 0.227847 -0.485393 0.476984
vn 1.185077 2.238095 -5.648755
v 0.247263 -0.485445 0.476920
vn 0.919597 3.202341 -4.615469
v 0.247468 -0.485393 0.476984
vn -5.186704 -0.788748 2.037239
v 0.135328 -0.523067 0.529148
vn -3.050913 -3.247079 1.138734
v 0.168795 -0.655872 0.508509
vn -3.731221 -0.775429 4.705733
v 0.202398 -0.516576 0.604227
vn 0.181623 -6.049225 -1.672065
v 0.238634 -0.660518 0.530618
vn 0.182144 -6.074147 -1.540485
v 0.238755 -0.660529 0.530674
vn -0.065709 -6.187277 -1.080464
v 0.218878 -0.660529 0.530674
vn 2.672498 -0.136074 -5.683068
v 0.296895 -0.632297 0.474426
vn 2.676211 -0.432816 -5.650487
v 0.297436 -0.632339 0.474681
vn 2.667112 -0.679042 -5.644349
v 0.297949 -0.632378 0.474929
vn 2.686668 -0.465080 -5.641103
v 0.298445 -0.632415 0.475167
vn 2.668930 -0.782985 -5.576837
v 0.298920 -0.632455 0.475397
vn 2.660616 -0.945260 -5.529685
v 0.299800 -0.632517 0.475829
vn 2.643614 -1.123847 -5.467890
v 0.300207 -0.632544 0.476029
vn 2.191048 -2.585188 -4.363784
v 0.301932 -0.632672 0.476895
vn 2.026358 -2.909468 -3.685477
v 0.302207 -0.632683 0.477043
vn 0.394124 -6.067659 -1.293352
v 0.238941 -0.660548 0.530770
vn -0.240354 -6.217233 -0.548478
v 0.219050 -0.660548 0.530770
vn -2.464563 -5.014388 2.512641
v 0.218778 -0.660518 0.548542
vn -1.998237 -3.705433 3.203220
v 0.257543 -0.643632 0.604773
vn -1.946707 -5.315491 1.954069
v 0.218878 -0.660529 0.548614
vn -1.443522 -5.509685 1.599901
v 0.219050 -0.660548 0.548725
vn 2.645412 0.143779 -5.695229
v 0.296895 -0.614292 0.474426
vn 2.593788 0.434400 -5.687453
v 0.297436 -0.614126 0.474681
vn 2.540904 0.664509 -5.702912
v 0.297949 -0.613967 0.474929
vn 2.598959 0.459102 -5.681615
v 0.298445 -0.613814 0.475167
vn 2.599424 0.524327 -5.668923
v 0.298920 -0.613661 0.475397
vn 1.013274 3.287763 -4.489273
v 0.248125 -0.485233 0.477240
vn 1.109742 3.391308 -4.128366
v 0.248248 -0.485205 0.477289
vn 1.232222 3.426683 -3.985584
v 0.248355 -0.485185 0.477336
vn -1.203311 5.924206 -1.501647
v 0.228198 -0.485267 0.477188
vn -0.805684 5.682710 -1.995861
v 0.228299 -0.485233 0.477240
vn 2.620098 0.528141 -5.659103
v 0.299800 -0.613389 0.475829
vn 2.638438 0.531706 -5.649644
v 0.300207 -0.613262 0.476029
vn 2.691696 -0.950289 -5.512634
v 0.300592 -0.632569 0.476221
vn 2.655389 0.532357 -5.641641
v 0.300592 -0.613142 0.476221
vn 2.746718 0.556026 -5.587014
v 0.301932 -0.612708 0.476895
vn 2.951712 0.595897 -5.467795
v 0.302207 -0.612625 0.477043
vn 1.704651 3.097052 -4.586977
v 0.248442 -0.485168 0.477379
vn 1.443571 3.531442 -3.639696
v 0.248518 -0.485153 0.477419
vn 3.094828 0.625844 -5.390678
v 0.303095 -0.612366 0.477575
vn 2.138082 -2.951132 -3.600538
v 0.303095 -0.632707 0.477575
vn 1.427075 -5.445281 -2.618757
v 0.302905 -0.632703 0.477463
vn 0.750318 -6.040583 -0.866321
v 0.239011 -0.660551 0.530813
vn -0.635683 5.765815 -1.985342
v 0.228392 -0.485205 0.477289
vn 3.200904 0.653007 -5.317187
v 0.303263 -0.612318 0.477678
vn 2.238261 -2.952165 -3.479148
v 0.303263 -0.632709 0.477678
vn 3.350394 0.680007 -5.216327
v 0.303410 -0.612280 0.477774
vn 2.375307 -2.947468 -3.392876
v 0.303410 -0.632705 0.477774
vn -0.323815 5.937697 -1.916262
v 0.228478 -0.485185 0.477336
vn -0.204338 5.973646 -1.876541
v 0.228627 -0.485153 0.477419
vn 3.447680 0.697525 -5.153142
v 0.303532 -0.612249 0.477859
vn 3.084362 -2.289783 -4.284993
v 0.303532 -0.632701 0.477859
vn 2.087163 3.515806 -3.507670
v 0.248580 -0.485144 0.477457
vn 2.556643 -2.940188 -3.190940
v 0.303638 -0.632698 0.477934
vn 3.611049 0.743464 -5.011529
v 0.303638 -0.612220 0.477934
vn -0.113585 -6.269489 -0.208953
v 0.219117 -0.660551 0.530813
vn -0.806299 -5.791340 1.437739
v 0.219117 -0.660551 0.548760
vn 4.017878 0.850791 -4.619489
v 0.303725 -0.612200 0.478003
vn 2.874281 -2.898281 -2.735955
v 0.303725 -0.632692 0.478003
vn 2.469042 3.929221 -2.112264
v 0.287006 -0.468224 0.533470
vn 0.260412 -6.179674 0.612370
v 0.239011 -0.660551 0.548760
vn -0.081014 -6.039288 1.709272
v 0.219181 -0.660545 0.548785
vn 1.296723 -5.763936 1.178308
v 0.277437 -0.643632 0.604773
vn 2.830950 -5.592143 0.103273
v 0.342151 -0.615773 0.551963
vn 1.461589 -5.470964 1.748522
v 0.277462 -0.643617 0.604810
vn 0.601394 -6.086385 0.857184
v 0.239058 -0.660545 0.548785
vn -1.634639 -3.461287 3.773118
v 0.257586 -0.643617 0.604810
vn 1.496907 -5.949598 0.587643
v 0.239088 -0.660539 0.548799
vn 5.058111 1.039258 -3.325734
v 0.342151 -0.595281 0.534016
vn 3.931250 -2.767929 -1.642683
v 0.342151 -0.615773 0.534016
vn 4.812501 0.922483 -3.768167
v 0.303824 -0.612190 0.478111
vn 5.366093 1.103742 -2.760601
v 0.342189 -0.595265 0.534087
vn 4.407293 -2.614022 -1.368481
v 0.342189 -0.615751 0.534087
vn 3.836699 2.823618 -3.836748
v 0.248619 -0.485145 0.477492
vn 4.492617 0.939355 -4.124856
v 0.303784 -0.612193 0.478062
vn 3.325927 -2.863064 -2.343158
v 0.303784 -0.632679 0.478062
vn 1.386188 -6.056853 -0.466499
v 0.239058 -0.660545 0.530852
vn -1.257085 6.060991 0.583003
v 0.267147 -0.468217 0.551449
vn -0.552561 6.194431 -0.404589
v 0.267147 -0.468217 0.533516
vn -2.158562 -0.429251 5.757391
v 0.202421 -0.516570 0.604240
vn -1.356937 2.672428 3.901847
v 0.202421 -0.496084 0.604240
vn -0.396735 5.866859 1.381688
v 0.267178 -0.468214 0.551469
vn 2.508865 -5.760474 0.006471
v 0.303824 -0.632666 0.496024
vn 3.619385 -2.848479 -1.952772
v 0.303824 -0.632666 0.478111
vn -0.979072 -2.806000 4.498429
v 0.257622 -0.643604 0.604832
vn 3.282299 -5.296391 0.297029
v 0.342189 -0.615751 0.552019
vn 2.730089 4.163857 -1.312997
v 0.287024 -0.468217 0.533516
vn 5.638632 1.223979 -1.472725
v 0.342213 -0.595255 0.534144
vn 1.897229 -5.944391 -0.177317
v 0.239088 -0.660539 0.530886
vn -0.740197 -0.131512 6.197732
v 0.202442 -0.516563 0.604244
vn 4.375099 -3.243461 0.982158
v 0.342213 -0.615732 0.552057
vn 1.878179 -3.297874 3.254277
v 0.277477 -0.643604 0.604832
vn -0.262709 6.256853 -0.187327
v 0.267178 -0.468214 0.533556
vn 4.909484 -2.193524 -0.837415
v 0.342213 -0.615732 0.534144
vn -0.360330 2.572118 4.568775
v 0.202442 -0.496087 0.604244
vn 2.853375 4.146619 -0.493802
v 0.287033 -0.468214 0.533556
vn 0.861350 2.508747 4.357258
v 0.222297 -0.496087 0.604244
vn -0.029485 0.009293 6.282979
v 0.257658 -0.623134 0.604840
vn 2.321570 3.277363 1.581682
v 0.287033 -0.468214 0.551469
vn 2.057111 0.385388 5.456624
v 0.277475 -0.623134 0.604840
vn 4.657710 1.004124 2.225395
v 0.342218 -0.595257 0.552075
vn 3.402950 1.731851 4.981634
v 0.287028 -0.468221 0.551475
vn -0.299200 -1.204574 5.979554
v 0.257658 -0.643587 0.604840
vn 4.672767 -1.083243 2.268169
v 0.342218 -0.615710 0.552075
vn 1.834206 -1.065932 5.127644
v 0.277475 -0.643587 0.604840
vn 5.981102 1.214179 -0.278344
v 0.342218 -0.595257 0.534190
vn 6.198379 -0.577384 -0.208384
v 0.342218 -0.615710 0.534190
# 126 vertices, 0 vertices normals

f 1//1 2//2 3//3
f 1//1 3//3 4//4
f 1//1 5//5 2//2
f 1//1 6//6 7//7
f 1//1 4//4 6//6
f 1//1 7//7 5//5
f 8//8 9//9 10//10
f 8//8 10//10 11//11
f 8//8 12//12 9//9
f 8//8 13//13 14//14
f 8//8 11//11 13//13
f 8//8 14//14 12//12
f 15//15 3//3 12//12
f 15//15 16//16 3//3
f 15//15 12//12 17//17
f 15//15 18//18 16//16
f 15//15 17//17 19//19
f 15//15 19//19 18//18
f 2//2 9//9 12//12
f 2//2 5//5 9//9
f 2//2 12//12 3//3
f 9//9 20//20 10//10
f 9//9 5//5 20//20
f 20//20 5//5 21//21
f 20//20 21//21 22//22
f 20//20 22//22 10//10
f 3//3 16//16 4//4
f 5//5 7//7 21//21
f 6//6 4//4 23//23
f 6//6 23//23 24//24
f 6//6 24//24 25//25
f 6//6 25//25 7//7
f 4//4 16//16 26//26
f 4//4 26//26 27//27
f 4//4 27//27 28//28
f 4//4 28//28 29//29
f 4//4 29//29 30//30
f 4//4 30//30 31//31
f 4//4 31//31 32//32
f 4//4 32//32 33//33
f 4//4 33//33 34//34
f 4//4 34//34 35//35
f 4//4 24//24 23//23
f 4//4 35//35 24//24
f 21//21 7//7 36//36
f 21//21 37//37 38//38
f 21//21 39//39 37//37
f 21//21 40//40 39//39
f 21//21 36//36 40//40
f 21//21 38//38 22//22
f 16//16 41//41 26//26
f 16//16 42//42 41//41
f 16//16 43//43 42//42
f 16//16 44//44 43//43
f 16//16 45//45 44//44
f 16//16 18//18 19//19
f 16//16 19//19 46//46
f 16//16 46//46 47//47
f 16//16 47//47 48//48
f 16//16 48//48 45//45
f 7//7 25//25 36//36
f 10//10 22//22 11//11
f 12//12 49//49 17//17
f 12//12 50//50 49//49
f 12//12 14//14 50//50
f 26//26 41//41 27//27
f 41//41 42//42 27//27
f 27//27 42//42 29//29
f 27//27 29//29 28//28
f 42//42 43//43 44//44
f 42//42 44//44 29//29
f 29//29 44//44 30//30
f 44//44 45//45 30//30
f 30//30 45//45 31//31
f 45//45 51//51 31//31
f 45//45 48//48 51//51
f 31//31 51//51 32//32
f 51//51 52//52 32//32
f 51//51 48//48 52//52
f 32//32 52//52 53//53
f 32//32 53//53 33//33
f 52//52 54//54 53//53
f 52//52 48//48 54//54
f 53//53 54//54 33//33
f 54//54 55//55 33//33
f 54//54 48//48 55//55
f 33//33 55//55 34//34
f 55//55 56//56 34//34
f 55//55 48//48 57//57
f 55//55 57//57 58//58
f 55//55 58//58 56//56
f 56//56 59//59 60//60
f 56//56 60//60 34//34
f 56//56 58//58 59//59
f 17//17 49//49 50//50
f 17//17 50//50 19//19
f 19//19 50//50 46//46
f 34//34 61//61 62//62
f 34//34 60//60 61//61
f 34//34 62//62 35//35
f 61//61 60//60 62//62
f 50//50 63//63 46//46
f 50//50 14//14 63//63
f 59//59 64//64 65//65
f 59//59 65//65 60//60
f 59//59 58//58 64//64
f 60//60 65//65 62//62
f 46//46 63//63 47//47
f 37//37 39//39 38//38
f 64//64 66//66 67//67
f 64//64 67//67 65//65
f 64//64 58//58 66//66
f 63//63 68//68 47//47
f 63//63 14//14 68//68
f 47//47 68//68 48//48
f 65//65 67//67 62//62
f 68//68 69//69 48//48
f 68//68 14//14 69//69
f 39//39 40//40 38//38
f 24//24 35//35 36//36
f 24//24 36//36 25//25
f 66//66 70//70 71//71
f 66//66 71//71 67//67
f 66//66 58//58 72//72
f 66//66 72//72 70//70
f 67//67 71//71 73//73
f 67//67 73//73 62//62
f 48//48 69//69 58//58
f 48//48 58//58 57//57
f 70//70 74//74 73//73
f 70//70 73//73 71//71
f 70//70 72//72 74//74
f 40//40 36//36 75//75
f 40//40 76//76 38//38
f 40//40 75//75 76//76
f 69//69 14//14 58//58
f 74//74 77//77 78//78
f 74//74 72//72 77//77
f 74//74 78//78 73//73
f 35//35 62//62 75//75
f 35//35 75//75 36//36
f 58//58 79//79 72//72
f 58//58 14//14 79//79
f 73//73 78//78 62//62
f 76//76 62//62 80//80
f 76//76 80//80 81//81
f 76//76 75//75 62//62
f 76//76 81//81 38//38
f 82//82 83//83 84//84
f 82//82 38//38 85//85
f 82//82 84//84 86//86
f 82//82 86//86 38//38
f 82//82 85//85 87//87
f 82//82 87//87 83//83
f 88//88 89//89 90//90
f 88//88 79//79 91//91
f 88//88 91//91 92//92
f 88//88 92//92 89//89
f 88//88 90//90 79//79
f 77//77 72//72 93//93
f 77//77 94//94 95//95
f 77//77 93//93 94//94
f 77//77 95//95 78//78
f 62//62 78//78 96//96
f 62//62 96//96 80//80
f 13//13 11//11 97//97
f 13//13 97//97 98//98
f 13//13 98//98 14//14
f 11//11 22//22 99//99
f 11//11 99//99 100//100
f 11//11 100//100 101//101
f 11//11 101//101 97//97
f 89//89 83//83 102//102
f 89//89 92//92 83//83
f 89//89 102//102 103//103
f 89//89 103//103 90//90
f 22//22 38//38 86//86
f 22//22 86//86 104//104
f 22//22 104//104 99//99
f 83//83 92//92 105//105
f 83//83 105//105 84//84
f 83//83 87//87 102//102
f 79//79 14//14 98//98
f 79//79 106//106 107//107
f 79//79 98//98 106//106
f 79//79 93//93 72//72
f 79//79 90//90 93//93
f 79//79 107//107 91//91
f 38//38 81//81 85//85
f 80//80 96//96 85//85
f 80//80 85//85 81//81
f 78//78 95//95 108//108
f 78//78 108//108 96//96
f 94//94 93//93 90//90
f 94//94 90//90 103//103
f 94//94 103//103 95//95
f 99//99 109//109 100//100
f 99//99 104//104 109//109
f 84//84 105//105 110//110
f 84//84 111//111 104//104
f 84//84 110//110 111//111
f 84//84 104//104 86//86
f 97//97 101//101 112//112
f 97//97 112//112 98//98
f 91//91 107//107 113//113
f 91//91 113//113 92//92
f 96//96 108//108 85//85
f 100//100 109//109 114//114
f 100//100 114//114 101//101
f 92//92 113//113 105//105
f 106//106 98//98 112//112
f 106//106 115//115 107//107
f 106//106 112//112 115//115
f 105//105 113//113 110//110
f 85//85 108//108 87//87
f 95//95 103//103 108//108
f 116//116 101//101 114//114
f 116//116 114//114 117//117
f 116//116 118//118 101//101
f 116//116 119//119 120//120
f 116//116 117//117 119//119
f 116//116 121//121 118//118
f 116//116 120//120 121//121
f 109//109 104//104 122//122
f 109//109 117//117 114//114
f 109//109 122//122 117//117
f 102//102 108//108 103//103
f 102//102 87//87 108//108
f 111//111 110//110 123//123
f 111//111 124//124 122//122
f 111//111 123//123 124//124
f 111//111 122//122 104//104
f 101//101 118//118 115//115
f 101//101 115//115 112//112
f 107//107 115//115 125//125
f 107//107 125//125 126//126
f 107//107 126//126 113//113
f 113//113 126//126 110//110
f 118//118 125//125 115//115
f 118//118 121//121 120//120
f 118//118 120//120 125//125
f 110//110 126//126 123//123
f 119//119 124//124 123//123
f 119//119 117//117 124//124
f 119//119 123//123 120//120
f 124//124 117//117 122//122
f 125//125 123//123 126//126
f 125//125 120//120 123//123
# 248 faces, 0 coords texture

# End of File
