####
#
# OBJ File Generated by Meshlab
#
####
# Object zonopy_mesh_step2_link7.obj
#
# Vertices: 211
# Faces: 418
#
####
vn 0.133310 -6.115512 1.347940
v 0.289606 -0.708743 0.500058
vn -1.035749 -6.023756 0.380756
v 0.305247 -0.720395 0.426196
vn 1.111342 -5.991956 0.320866
v 0.306009 -0.720395 0.426196
vn -1.324917 -5.752798 1.301806
v 0.288843 -0.708743 0.500058
vn 1.101422 -6.093266 0.732527
v 0.337439 -0.706661 0.493554
vn 1.487838 -5.954287 0.545975
v 0.340547 -0.705311 0.500083
vn 1.510217 -5.940343 0.561602
v 0.343347 -0.704058 0.506053
vn 1.564498 -5.909683 0.579525
v 0.344638 -0.703462 0.508825
vn 1.580175 -5.902494 0.586727
v 0.347535 -0.702062 0.515180
vn 1.588271 -5.896958 0.590847
v 0.348574 -0.701554 0.517483
vn 1.598038 -5.890177 0.596219
v 0.349069 -0.701311 0.518583
vn -0.024649 -6.023227 1.788260
v 0.306253 -0.682505 0.588707
vn 0.062506 -6.030296 1.762234
v 0.324789 -0.682505 0.588707
vn 1.610741 -5.881096 0.603225
v 0.350002 -0.700845 0.520667
vn 1.617380 -5.875307 0.610518
v 0.350874 -0.700405 0.522623
vn 1.687391 -5.814790 0.650418
v 0.352427 -0.699614 0.526105
vn 1.761414 -5.739957 0.712738
v 0.354714 -0.698344 0.531377
vn 1.786797 -5.715906 0.742615
v 0.354927 -0.698214 0.531880
vn 1.806767 -5.692616 0.761373
v 0.355125 -0.698091 0.532349
vn 1.830983 -5.663328 0.783344
v 0.355306 -0.697975 0.532782
vn 1.859944 -5.625622 0.811282
v 0.355472 -0.697866 0.533180
vn 1.889093 -5.585809 0.841337
v 0.355621 -0.697763 0.533543
vn 1.972567 -5.507855 0.872193
v 0.355755 -0.697668 0.533870
vn 0.855464 -0.322815 -6.124788
v 0.275123 -0.628917 0.403692
vn 3.160853 1.300973 -4.157660
v 0.333465 -0.649971 0.420096
vn 3.450723 -0.924770 -4.110450
v 0.333465 -0.650772 0.420096
vn -0.483675 -0.136200 -6.229523
v 0.274360 -0.628917 0.403692
vn -1.841660 2.115357 -3.176353
v 0.274360 -0.628116 0.403692
vn 0.336585 -1.998235 -5.618595
v 0.247667 -0.698539 0.408578
vn 0.773621 2.492769 -4.455530
v 0.275123 -0.628116 0.403692
vn 1.612743 -3.034798 -2.356929
v 0.306009 -0.720395 0.424982
vn -0.641366 -4.905818 -2.162219
v 0.305247 -0.720395 0.424982
vn 4.054673 -3.932282 -1.232863
v 0.349069 -0.701311 0.499796
vn 2.852573 -5.575196 -0.234404
v 0.340547 -0.705311 0.485661
vn 3.254540 -5.256303 -0.526491
v 0.343347 -0.704058 0.490231
vn 3.409453 -5.103005 -0.637622
v 0.344003 -0.703757 0.491317
vn 3.810639 -4.481781 -1.009343
v 0.344638 -0.703462 0.492363
vn 4.834522 -3.531362 -1.869858
v 0.346426 -0.702596 0.495352
vn 3.965306 -4.166000 -1.152835
v 0.347535 -0.702062 0.497208
vn 4.029066 -3.977672 -1.229444
v 0.348574 -0.701554 0.498959
vn -4.093281 -2.721596 0.758805
v 0.230501 -0.686887 0.483654
vn -2.881686 -5.514619 0.102330
v 0.246905 -0.698539 0.409792
vn 2.568883 4.100937 -4.005496
v 0.322082 -0.587682 0.474976
vn 5.369619 0.297176 -3.228501
v 0.376350 -0.606870 0.494702
vn 5.422542 -1.109170 -2.722211
v 0.376350 -0.629368 0.494702
vn 5.330312 0.430185 -3.258508
v 0.377538 -0.605349 0.496828
vn 5.308232 0.497431 -3.271297
v 0.378044 -0.604702 0.497742
vn 5.279993 0.583191 -3.279460
v 0.378275 -0.604401 0.498164
vn 5.148583 0.854813 -3.346053
v 0.378498 -0.604094 0.498579
vn 5.050024 1.030341 -3.373373
v 0.378698 -0.603832 0.498955
vn 4.927773 1.222429 -3.393173
v 0.378884 -0.603589 0.499307
vn 4.742391 1.469710 -3.404988
v 0.379054 -0.603364 0.499636
vn 4.497564 1.742369 -3.392918
v 0.379209 -0.603159 0.499941
vn 4.229315 1.991881 -3.348325
v 0.379348 -0.602973 0.500223
vn 1.745722 4.615151 -3.672958
v 0.322212 -0.587533 0.475212
vn -5.299430 2.872174 -1.129876
v 0.257957 -0.616463 0.477554
vn -5.907157 1.113105 -0.724477
v 0.230501 -0.686086 0.482440
vn -4.827457 3.402883 -1.000073
v 0.274778 -0.567517 0.545073
vn -3.588761 0.532881 -3.491575
v 0.246905 -0.697738 0.408578
vn -4.918695 -2.344369 -0.373681
v 0.230501 -0.686887 0.482440
vn -2.065757 -1.793376 -2.225922
v 0.246905 -0.698539 0.408578
vn -0.101015 -6.016757 1.804376
v 0.306527 -0.681913 0.590704
vn -0.193930 -6.005845 1.825002
v 0.306774 -0.681354 0.592579
vn -0.939200 -5.819600 1.936669
v 0.307198 -0.680352 0.595914
vn -1.186008 -5.693045 2.021783
v 0.307875 -0.678760 0.600958
vn -3.508104 -4.589293 2.016803
v 0.250722 -0.663088 0.576724
vn -3.108167 -5.020805 1.998654
v 0.250576 -0.663345 0.575861
vn -3.290342 -4.839568 2.016905
v 0.250651 -0.663213 0.576308
vn -3.698141 4.037815 -1.094506
v 0.274890 -0.567244 0.545503
vn -1.021420 5.478542 -2.662112
v 0.300214 -0.587290 0.475627
vn -6.031462 0.910601 0.449596
v 0.230501 -0.686086 0.483654
vn -3.741969 -4.266228 2.004047
v 0.250789 -0.662970 0.577108
vn -3.951635 -3.890880 1.980762
v 0.250853 -0.662859 0.577460
vn -4.122601 -3.462561 1.940205
v 0.250914 -0.662755 0.577781
vn -4.262095 -2.672876 1.826157
v 0.250971 -0.662658 0.578071
vn -4.536249 -2.489892 1.895183
v 0.251025 -0.662567 0.578321
vn 4.091029 -3.905901 -1.225287
v 0.350874 -0.700405 0.502894
vn 5.402631 -1.923052 -2.548834
v 0.374888 -0.630162 0.492199
vn 4.120907 -3.879586 -1.194558
v 0.352427 -0.699614 0.505578
vn -6.150671 0.156464 1.260730
v 0.251025 -0.637898 0.578321
vn -6.020725 1.017150 0.856805
v 0.251075 -0.637768 0.578548
vn -5.882183 2.206729 0.037719
v 0.274778 -0.567517 0.567228
vn -5.869295 2.225802 0.120573
v 0.274818 -0.567415 0.567405
vn 1.401236 4.844063 -3.351627
v 0.322425 -0.587290 0.475627
vn 1.651890 -5.931433 0.508667
v 0.344003 -0.703757 0.507450
vn 3.951167 -4.319963 -1.043821
v 0.350002 -0.700845 0.501402
vn 0.067104 -6.028510 1.767894
v 0.325572 -0.681913 0.590704
vn 0.074166 -6.025701 1.776790
v 0.326303 -0.681354 0.592579
vn 0.118197 -6.010133 1.821978
v 0.327605 -0.680352 0.595914
vn -0.639017 -5.903487 1.948844
v 0.307576 -0.679471 0.598707
vn 0.132847 -6.002945 1.845321
v 0.328657 -0.679471 0.598707
vn 2.082296 -5.468281 0.894726
v 0.355872 -0.697578 0.534154
vn 2.289231 -5.282794 0.908995
v 0.355974 -0.697497 0.534411
vn 5.456893 -1.100591 -2.665708
v 0.377538 -0.628663 0.496828
vn 4.379382 -3.753446 -1.262560
v 0.353692 -0.698911 0.507858
vn 4.252873 -3.828498 -1.118998
v 0.354714 -0.698344 0.509734
vn 5.497402 0.002518 -3.042528
v 0.377797 -0.605021 0.497297
vn 5.498502 -0.002401 -3.040539
v 0.377797 -0.628497 0.497297
vn 0.189381 -5.983273 1.894616
v 0.329506 -0.678760 0.600958
vn 5.528514 -0.667424 -2.822900
v 0.378044 -0.628348 0.497742
vn 5.494435 -1.111580 -2.578732
v 0.378498 -0.628095 0.498579
vn 5.546085 -0.442760 -2.880268
v 0.378275 -0.628206 0.498164
vn 5.516551 -1.098489 -2.538031
v 0.378698 -0.627964 0.498955
vn 4.370705 -3.776176 -1.086183
v 0.354927 -0.698214 0.510136
vn 0.220305 -5.969680 1.932565
v 0.329682 -0.678599 0.601440
vn -1.197018 -5.673144 2.078761
v 0.307942 -0.678599 0.601440
vn 5.533510 -1.097873 -2.500117
v 0.378884 -0.627841 0.499307
vn 4.407278 -3.757444 -1.066891
v 0.355125 -0.698091 0.510514
vn 0.244096 -5.960153 1.955423
v 0.329845 -0.678448 0.601887
vn -1.201876 -5.658705 2.110185
v 0.308006 -0.678448 0.601887
vn 5.552848 -1.097274 -2.455056
v 0.379054 -0.627725 0.499636
vn 0.271425 -5.948953 1.981486
v 0.329994 -0.678305 0.602301
vn -1.207752 -5.641752 2.147059
v 0.308067 -0.678305 0.602301
vn 4.446775 -3.736367 -1.044449
v 0.355306 -0.697975 0.510866
vn 5.575588 -1.096111 -2.401769
v 0.379209 -0.627616 0.499941
vn 0.307091 -5.934013 2.014225
v 0.330130 -0.678171 0.602682
vn -1.214666 -5.620072 2.192046
v 0.308125 -0.678171 0.602682
vn 4.494985 -3.709613 -1.017296
v 0.355472 -0.697866 0.511192
vn 5.600620 -1.094949 -2.341963
v 0.379348 -0.627513 0.500223
vn 0.345872 -5.916909 2.050640
v 0.330252 -0.678046 0.603028
vn -1.223249 -5.594956 2.244537
v 0.308180 -0.678046 0.603028
vn 4.552421 -3.677420 -0.986813
v 0.355621 -0.697763 0.511494
vn 4.226925 2.056841 -3.220929
v 0.379473 -0.602806 0.500481
vn 5.640044 -1.089748 -2.228153
v 0.379473 -0.627418 0.500481
vn 4.621110 -3.628542 -0.937535
v 0.355755 -0.697668 0.511770
vn 0.445816 -5.870011 2.134582
v 0.330361 -0.677931 0.603341
vn -1.241899 -5.532061 2.352531
v 0.308232 -0.677931 0.603341
vn 2.919179 -4.715124 0.977051
v 0.356188 -0.697294 0.534968
vn 5.622186 0.369904 -2.748074
v 0.379583 -0.602659 0.500724
vn 5.685058 -1.092319 -2.139783
v 0.379583 -0.627328 0.500724
vn 4.223980 2.185458 -3.020431
v 0.379678 -0.602530 0.500936
vn 4.726052 -3.577819 -0.882523
v 0.355872 -0.697578 0.512029
vn 0.886561 -5.876377 2.038905
v 0.330456 -0.677822 0.603612
vn 0.653087 -5.759836 2.298103
v 0.330539 -0.677725 0.603856
vn -1.277527 -5.401012 2.573530
v 0.308327 -0.677725 0.603856
vn -4.265294 -2.587552 1.971470
v 0.251075 -0.662485 0.578548
vn 4.795081 -3.509992 -0.824856
v 0.355974 -0.697497 0.512256
vn 5.711845 -1.094617 -2.021723
v 0.379678 -0.627247 0.500936
vn 1.354975 5.123890 -2.877341
v 0.322633 -0.587053 0.476084
vn 5.078206 1.514444 -2.845797
v 0.379759 -0.602429 0.501131
vn 5.770864 -1.069341 -1.883683
v 0.379759 -0.627164 0.501131
vn 4.207360 2.391335 -2.432315
v 0.379876 -0.602258 0.501434
vn 5.260522 -3.083686 -0.952794
v 0.356061 -0.697414 0.512463
vn 5.084636 -3.249524 -0.587457
v 0.356188 -0.697294 0.512786
vn 1.157894 -5.407839 2.622923
v 0.330708 -0.677485 0.604386
vn -1.351547 -5.065733 3.027423
v 0.308445 -0.677485 0.604386
vn -5.352730 3.049423 -0.578358
v 0.274818 -0.567415 0.545241
vn -4.199174 -2.392385 2.416028
v 0.251202 -0.662280 0.579036
vn -0.809182 5.644986 -2.406680
v 0.300370 -0.587053 0.476084
vn -5.354728 -1.660651 2.068501
v 0.251120 -0.662401 0.578737
vn -5.995954 1.019230 0.978121
v 0.251120 -0.637666 0.578737
vn -5.553173 2.720936 0.377665
v 0.274890 -0.567244 0.567685
vn 5.797312 0.266330 -2.388541
v 0.379823 -0.602338 0.501296
vn 5.882101 -0.235582 -2.181371
v 0.379823 -0.627096 0.501296
vn -6.016922 -0.294101 1.756393
v 0.251165 -0.662332 0.578900
vn 5.844786 -1.070438 -1.485766
v 0.379876 -0.627044 0.501434
vn -6.087370 0.304697 1.484382
v 0.251165 -0.637574 0.578900
vn -5.862715 1.055028 1.360907
v 0.251202 -0.637494 0.579036
vn 4.145726 2.629061 -1.692043
v 0.379910 -0.602208 0.501554
vn 5.979827 -1.009958 -0.844059
v 0.379910 -0.626989 0.501554
vn 5.592000 -2.684183 -0.259643
v 0.356225 -0.697239 0.512913
vn 3.732610 -3.919892 1.134091
v 0.356225 -0.697239 0.535082
vn -1.422762 -4.399411 3.758000
v 0.308482 -0.677422 0.604495
vn 1.877012 -4.576672 3.063552
v 0.330735 -0.677422 0.604495
vn -2.715284 4.773428 -0.938884
v 0.274925 -0.567193 0.545607
vn -0.294118 5.934124 -1.981263
v 0.300415 -0.587010 0.476195
vn -4.098799 -1.995720 3.173122
v 0.251240 -0.662224 0.579135
vn -4.859867 3.298252 0.938531
v 0.274925 -0.567193 0.567777
vn 1.292436 5.532839 -2.159718
v 0.322669 -0.587010 0.476195
vn -5.509850 1.071983 2.258855
v 0.251240 -0.637443 0.579135
vn -1.448385 -3.621741 4.488315
v 0.308518 -0.677366 0.604561
vn 4.051585 2.797061 -0.888417
v 0.379926 -0.602179 0.501659
vn 6.103477 -0.849671 -0.328658
v 0.379926 -0.626940 0.501659
vn 5.918551 -2.104758 -0.030709
v 0.356244 -0.697190 0.513023
vn 4.584022 -3.191179 1.457726
v 0.356244 -0.697190 0.535153
vn 2.535848 -3.395034 3.356262
v 0.330747 -0.677366 0.604561
vn -1.927697 5.447892 -0.743295
v 0.274961 -0.567163 0.545701
vn 5.962600 -1.980852 0.015155
v 0.379910 -0.626989 0.523724
vn 6.006669 -1.230919 0.536943
v 0.379926 -0.626940 0.523789
vn 0.779738 6.018253 -1.285792
v 0.297189 -0.567163 0.545701
vn -3.906617 -1.436351 4.141866
v 0.251279 -0.662174 0.579195
vn -3.644730 3.764010 1.573222
v 0.274961 -0.567163 0.567831
vn 1.441951 5.846987 -1.468092
v 0.322686 -0.586986 0.476293
vn -4.914444 1.117448 3.344312
v 0.251279 -0.637413 0.579195
vn -1.324376 -2.365825 5.101624
v 0.308552 -0.677322 0.604602
vn 4.121453 2.929216 -0.461508
v 0.379927 -0.602167 0.501732
vn 6.280324 -0.101604 -0.044835
v 0.379927 -0.626899 0.501732
vn 5.308758 -2.274514 2.104486
v 0.356247 -0.697149 0.535197
vn 2.471021 -2.294337 3.838899
v 0.330745 -0.677322 0.604602
vn -0.938892 6.042151 -0.375449
v 0.274993 -0.567151 0.545766
vn 0.882922 6.047575 -0.589206
v 0.297187 -0.567151 0.545766
vn 5.885725 -0.665227 1.304000
v 0.379927 -0.626899 0.523830
vn -3.385071 -0.771812 4.957970
v 0.251313 -0.662133 0.579231
vn -3.575641 1.074464 4.619687
v 0.251313 -0.637401 0.579231
vn -1.709560 3.579812 2.381620
v 0.274993 -0.567151 0.567864
vn 2.663577 5.517069 -0.238057
v 0.354425 -0.582339 0.571137
vn 3.073585 2.857173 1.664764
v 0.354425 -0.582339 0.593235
vn 4.952032 2.136286 0.632116
v 0.379927 -0.602167 0.523830
vn 0.540605 5.824970 1.266483
v 0.297187 -0.567151 0.567864
vn 5.080645 -0.631574 3.229503
v 0.354425 -0.607071 0.593235
vn 1.878347 -1.004367 5.138856
v 0.330738 -0.677288 0.604616
vn -1.020600 -0.931487 5.781027
v 0.308575 -0.677288 0.604616
vn 1.839263 2.171751 3.326048
v 0.354417 -0.582343 0.593247
vn 3.995116 -0.080704 4.532582
v 0.354417 -0.607038 0.593247
vn -1.050470 3.583540 4.317094
v 0.275016 -0.567156 0.567874
vn 0.029625 5.474442 3.078338
v 0.297179 -0.567156 0.567874
vn -2.671337 -0.070189 5.682995
v 0.251337 -0.662101 0.579243
vn -2.472174 0.840572 5.630509
v 0.251337 -0.637406 0.579243
vn -1.256345 0.606507 5.881973
v 0.308575 -0.652593 0.604616
vn 1.204906 0.302272 5.948014
v 0.330738 -0.652593 0.604616
vn -0.523327 2.995600 4.660324
v 0.332254 -0.582343 0.593247
# 211 vertices, 0 vertices normals

f 1//1 2//2 3//3
f 1//1 4//4 2//2
f 1//1 3//3 5//5
f 1//1 5//5 6//6
f 1//1 6//6 7//7
f 1//1 7//7 8//8
f 1//1 8//8 9//9
f 1//1 9//9 10//10
f 1//1 10//10 11//11
f 1//1 12//12 4//4
f 1//1 13//13 12//12
f 1//1 11//11 14//14
f 1//1 14//14 15//15
f 1//1 15//15 16//16
f 1//1 16//16 17//17
f 1//1 17//17 18//18
f 1//1 18//18 19//19
f 1//1 19//19 20//20
f 1//1 20//20 21//21
f 1//1 21//21 22//22
f 1//1 22//22 23//23
f 1//1 23//23 13//13
f 24//24 25//25 26//26
f 24//24 27//27 28//28
f 24//24 29//29 27//27
f 24//24 28//28 30//30
f 24//24 26//26 29//29
f 24//24 30//30 25//25
f 31//31 2//2 32//32
f 31//31 29//29 26//26
f 31//31 32//32 29//29
f 31//31 3//3 2//2
f 31//31 26//26 33//33
f 31//31 34//34 3//3
f 31//31 35//35 34//34
f 31//31 36//36 35//35
f 31//31 37//37 36//36
f 31//31 38//38 37//37
f 31//31 39//39 38//38
f 31//31 40//40 39//39
f 31//31 33//33 40//40
f 2//2 4//4 41//41
f 2//2 42//42 32//32
f 2//2 41//41 42//42
f 25//25 30//30 43//43
f 25//25 44//44 45//45
f 25//25 45//45 26//26
f 25//25 46//46 44//44
f 25//25 47//47 46//46
f 25//25 48//48 47//47
f 25//25 49//49 48//48
f 25//25 50//50 49//49
f 25//25 51//51 50//50
f 25//25 52//52 51//51
f 25//25 53//53 52//52
f 25//25 54//54 53//53
f 25//25 43//43 55//55
f 25//25 55//55 54//54
f 56//56 28//28 57//57
f 56//56 57//57 58//58
f 56//56 58//58 28//28
f 59//59 60//60 57//57
f 59//59 27//27 61//61
f 59//59 28//28 27//27
f 59//59 57//57 28//28
f 59//59 61//61 60//60
f 4//4 12//12 62//62
f 4//4 62//62 63//63
f 4//4 63//63 64//64
f 4//4 64//64 65//65
f 4//4 65//65 66//66
f 4//4 67//67 41//41
f 4//4 68//68 67//67
f 4//4 66//66 68//68
f 60//60 42//42 41//41
f 60//60 41//41 57//57
f 60//60 61//61 42//42
f 27//27 29//29 61//61
f 29//29 32//32 61//61
f 42//42 61//61 32//32
f 28//28 58//58 69//69
f 28//28 70//70 30//30
f 28//28 69//69 70//70
f 57//57 41//41 71//71
f 57//57 71//71 58//58
f 41//41 67//67 68//68
f 41//41 68//68 66//66
f 41//41 66//66 72//72
f 41//41 72//72 73//73
f 41//41 73//73 74//74
f 41//41 74//74 75//75
f 41//41 75//75 76//76
f 41//41 76//76 71//71
f 3//3 34//34 6//6
f 3//3 6//6 5//5
f 26//26 77//77 33//33
f 26//26 78//78 79//79
f 26//26 79//79 77//77
f 26//26 45//45 78//78
f 71//71 76//76 80//80
f 71//71 80//80 81//81
f 71//71 82//82 58//58
f 71//71 81//81 83//83
f 71//71 83//83 82//82
f 30//30 55//55 43//43
f 30//30 70//70 84//84
f 30//30 84//84 55//55
f 34//34 35//35 6//6
f 6//6 35//35 7//7
f 35//35 36//36 7//7
f 7//7 36//36 85//85
f 7//7 85//85 8//8
f 36//36 37//37 85//85
f 85//85 37//37 8//8
f 37//37 38//38 39//39
f 37//37 39//39 8//8
f 8//8 39//39 9//9
f 39//39 40//40 9//9
f 9//9 40//40 10//10
f 40//40 33//33 10//10
f 10//10 33//33 11//11
f 33//33 86//86 11//11
f 33//33 77//77 86//86
f 12//12 13//13 62//62
f 13//13 87//87 62//62
f 13//13 23//23 87//87
f 11//11 86//86 14//14
f 86//86 77//77 14//14
f 62//62 87//87 63//63
f 87//87 88//88 63//63
f 87//87 23//23 88//88
f 14//14 77//77 15//15
f 77//77 79//79 15//15
f 88//88 89//89 64//64
f 88//88 64//64 63//63
f 88//88 23//23 89//89
f 15//15 79//79 16//16
f 78//78 45//45 79//79
f 89//89 90//90 64//64
f 89//89 91//91 90//90
f 89//89 23//23 92//92
f 89//89 92//92 93//93
f 89//89 93//93 91//91
f 64//64 90//90 65//65
f 44//44 46//46 94//94
f 44//44 94//94 45//45
f 79//79 45//45 95//95
f 79//79 95//95 96//96
f 79//79 96//96 16//16
f 16//16 96//96 17//17
f 45//45 94//94 95//95
f 90//90 91//91 65//65
f 46//46 97//97 98//98
f 46//46 98//98 94//94
f 46//46 47//47 97//97
f 95//95 94//94 96//96
f 91//91 99//99 65//65
f 91//91 93//93 99//99
f 94//94 98//98 100//100
f 94//94 100//100 101//101
f 94//94 101//101 96//96
f 97//97 47//47 100//100
f 97//97 100//100 98//98
f 47//47 48//48 102//102
f 47//47 102//102 100//100
f 100//100 102//102 101//101
f 48//48 49//49 101//101
f 48//48 101//101 102//102
f 49//49 50//50 103//103
f 49//49 103//103 101//101
f 96//96 101//101 104//104
f 96//96 104//104 17//17
f 99//99 105//105 106//106
f 99//99 106//106 65//65
f 99//99 93//93 105//105
f 65//65 106//106 73//73
f 65//65 72//72 66//66
f 65//65 73//73 72//72
f 101//101 103//103 104//104
f 17//17 104//104 18//18
f 50//50 51//51 107//107
f 50//50 107//107 103//103
f 104//104 103//103 108//108
f 104//104 108//108 18//18
f 105//105 109//109 110//110
f 105//105 110//110 106//106
f 105//105 93//93 109//109
f 106//106 110//110 73//73
f 103//103 107//107 108//108
f 18//18 108//108 19//19
f 51//51 52//52 111//111
f 51//51 111//111 107//107
f 109//109 112//112 113//113
f 109//109 113//113 110//110
f 109//109 93//93 112//112
f 108//108 107//107 114//114
f 108//108 114//114 19//19
f 110//110 113//113 74//74
f 110//110 74//74 73//73
f 19//19 114//114 20//20
f 107//107 111//111 114//114
f 52//52 53//53 115//115
f 52//52 115//115 111//111
f 112//112 116//116 117//117
f 112//112 117//117 113//113
f 112//112 93//93 116//116
f 114//114 111//111 118//118
f 114//114 118//118 20//20
f 113//113 117//117 74//74
f 20//20 118//118 21//21
f 111//111 115//115 118//118
f 53//53 54//54 119//119
f 53//53 119//119 115//115
f 116//116 120//120 121//121
f 116//116 121//121 117//117
f 116//116 93//93 120//120
f 118//118 115//115 122//122
f 118//118 122//122 21//21
f 117//117 121//121 75//75
f 117//117 75//75 74//74
f 21//21 122//122 22//22
f 115//115 119//119 122//122
f 54//54 123//123 124//124
f 54//54 124//124 119//119
f 54//54 55//55 123//123
f 122//122 119//119 125//125
f 122//122 125//125 22//22
f 120//120 126//126 127//127
f 120//120 127//127 121//121
f 120//120 93//93 128//128
f 120//120 128//128 126//126
f 121//121 127//127 75//75
f 119//119 124//124 125//125
f 22//22 125//125 23//23
f 123//123 55//55 84//84
f 123//123 129//129 130//130
f 123//123 130//130 124//124
f 123//123 131//131 129//129
f 123//123 84//84 131//131
f 125//125 124//124 132//132
f 125//125 132//132 23//23
f 126//126 133//133 134//134
f 126//126 134//134 135//135
f 126//126 135//135 127//127
f 126//126 128//128 133//133
f 127//127 135//135 136//136
f 127//127 136//136 75//75
f 75//75 136//136 76//76
f 124//124 130//130 137//137
f 124//124 137//137 132//132
f 23//23 132//132 92//92
f 129//129 131//131 138//138
f 129//129 138//138 130//130
f 133//133 128//128 134//134
f 132//132 137//137 92//92
f 76//76 136//136 80//80
f 92//92 137//137 93//93
f 130//130 138//138 137//137
f 80//80 136//136 81//81
f 131//131 84//84 139//139
f 131//131 140//140 141//141
f 131//131 141//141 138//138
f 131//131 142//142 140//140
f 131//131 139//139 142//142
f 137//137 138//138 143//143
f 137//137 143//143 144//144
f 137//137 144//144 93//93
f 134//134 145//145 146//146
f 134//134 146//146 135//135
f 134//134 128//128 145//145
f 58//58 82//82 147//147
f 58//58 147//147 69//69
f 135//135 146//146 148//148
f 135//135 148//148 136//136
f 70//70 69//69 149//149
f 70//70 149//149 84//84
f 136//136 150//150 81//81
f 136//136 148//148 150//150
f 82//82 83//83 147//147
f 138//138 141//141 143//143
f 84//84 149//149 139//139
f 93//93 144//144 128//128
f 81//81 150//150 151//151
f 81//81 151//151 152//152
f 81//81 152//152 83//83
f 140//140 153//153 154//154
f 140//140 154//154 141//141
f 140//140 142//142 153//153
f 143//143 141//141 144//144
f 147//147 83//83 69//69
f 150//150 155//155 151//151
f 150//150 148//148 155//155
f 83//83 152//152 69//69
f 141//141 154//154 156//156
f 141//141 156//156 144//144
f 151//151 155//155 157//157
f 151//151 157//157 158//158
f 151//151 158//158 152//152
f 153//153 142//142 156//156
f 153//153 156//156 154//154
f 155//155 148//148 157//157
f 157//157 148//148 158//158
f 142//142 139//139 159//159
f 142//142 159//159 160//160
f 142//142 160//160 156//156
f 144//144 156//156 161//161
f 144//144 161//161 128//128
f 145//145 128//128 162//162
f 145//145 163//163 146//146
f 145//145 164//164 163//163
f 145//145 162//162 164//164
f 69//69 152//152 165//165
f 69//69 165//165 149//149
f 146//146 163//163 148//148
f 149//149 165//165 166//166
f 149//149 166//166 139//139
f 148//148 163//163 167//167
f 148//148 167//167 158//158
f 152//152 158//158 168//168
f 152//152 168//168 165//165
f 156//156 160//160 161//161
f 139//139 166//166 169//169
f 139//139 169//169 159//159
f 128//128 161//161 162//162
f 158//158 167//167 170//170
f 158//158 170//170 168//168
f 163//163 164//164 171//171
f 163//163 171//171 167//167
f 159//159 169//169 172//172
f 159//159 172//172 173//173
f 159//159 173//173 160//160
f 161//161 160//160 174//174
f 161//161 174//174 162//162
f 164//164 162//162 175//175
f 164//164 176//176 171//171
f 164//164 175//175 176//176
f 165//165 168//168 177//177
f 165//165 177//177 166//166
f 178//178 160//160 173//173
f 178//178 174//174 160//160
f 178//178 179//179 175//175
f 178//178 173//173 179//179
f 178//178 175//175 174//174
f 166//166 177//177 180//180
f 166//166 180//180 169//169
f 167//167 171//171 181//181
f 167//167 181//181 170//170
f 168//168 170//170 182//182
f 168//168 182//182 177//177
f 169//169 180//180 183//183
f 169//169 183//183 172//172
f 162//162 174//174 175//175
f 170//170 181//181 184//184
f 170//170 184//184 182//182
f 171//171 176//176 185//185
f 171//171 185//185 181//181
f 172//172 183//183 186//186
f 172//172 186//186 187//187
f 172//172 187//187 173//173
f 176//176 175//175 188//188
f 176//176 189//189 185//185
f 176//176 188//188 189//189
f 177//177 182//182 190//190
f 177//177 190//190 180//180
f 180//180 190//190 191//191
f 180//180 191//191 183//183
f 179//179 173//173 187//187
f 179//179 192//192 188//188
f 179//179 187//187 192//192
f 179//179 188//188 175//175
f 181//181 185//185 193//193
f 181//181 193//193 184//184
f 182//182 184//184 194//194
f 182//182 195//195 190//190
f 182//182 194//194 195//195
f 183//183 196//196 186//186
f 183//183 191//191 196//196
f 184//184 193//193 194//194
f 196//196 197//197 198//198
f 196//196 199//199 197//197
f 196//196 191//191 199//199
f 196//196 198//198 186//186
f 186//186 192//192 187//187
f 186//186 198//198 192//192
f 189//189 192//192 200//200
f 189//189 188//188 192//192
f 189//189 200//200 201//201
f 189//189 201//201 202//202
f 189//189 202//202 185//185
f 197//197 199//199 203//203
f 197//197 200//200 198//198
f 197//197 203//203 204//204
f 197//197 204//204 200//200
f 190//190 195//195 191//191
f 185//185 202//202 193//193
f 199//199 191//191 195//195
f 199//199 195//195 205//205
f 199//199 206//206 203//203
f 199//199 205//205 206//206
f 192//192 198//198 200//200
f 193//193 202//202 207//207
f 193//193 207//207 194//194
f 195//195 194//194 208//208
f 195//195 208//208 205//205
f 200//200 204//204 201//201
f 194//194 207//207 208//208
f 201//201 209//209 202//202
f 201//201 204//204 210//210
f 201//201 210//210 209//209
f 203//203 206//206 211//211
f 203//203 211//211 210//210
f 203//203 210//210 204//204
f 202//202 209//209 207//207
f 206//206 205//205 211//211
f 211//211 209//209 210//210
f 211//211 205//205 208//208
f 211//211 208//208 209//209
f 207//207 209//209 208//208
# 418 faces, 0 coords texture

# End of File
