####
#
# OBJ File Generated by Meshlab
#
####
# Object zonopy_mesh_step6_link2.obj
#
# Vertices: 84
# Faces: 164
#
####
vn 2.668684 -0.260580 4.608495
v 0.122270 -0.115558 0.452509
vn 0.208808 -0.915174 6.135893
v 0.036475 -0.156355 0.452509
vn 3.318565 -0.666704 3.924776
v 0.124938 -0.137523 0.447556
vn 0.000001 0.000004 6.283185
v 0.036475 -0.156118 0.452509
vn 2.409378 1.477926 2.949507
v 0.122270 -0.115321 0.452509
vn 5.208411 -0.163200 3.426603
v 0.124930 -0.137438 0.447573
vn 5.796938 0.661110 1.978136
v 0.124930 -0.123693 0.447573
vn 3.836709 -0.548733 4.128909
v 0.124935 -0.137484 0.447564
vn -0.360038 1.934052 5.567388
v 0.122056 -0.115321 0.452509
vn -1.462007 1.240433 5.520600
v 0.036261 -0.156118 0.452509
vn 2.403093 3.494167 1.924368
v 0.035931 0.087042 0.302696
vn -1.172150 4.410796 3.571528
v 0.022889 0.087042 0.302696
vn -3.118138 2.236984 1.665180
v -0.064631 0.050088 0.302696
vn -0.975031 -0.561816 5.958247
v 0.036261 -0.156355 0.452509
vn 0.356341 -1.668213 6.035718
v 0.037425 -0.174492 0.447556
vn 3.314325 -1.066776 3.877471
v 0.124941 -0.137579 0.447542
vn 3.317074 -0.777137 3.887329
v 0.124940 -0.137554 0.447548
vn -2.766557 1.085700 5.394809
v 0.024407 -0.160695 0.447548
vn -0.369175 -1.437961 6.088079
v 0.024426 -0.174492 0.447556
vn -1.278517 -0.935387 5.852009
v 0.024407 -0.174518 0.447548
vn 6.027206 -0.477907 1.094905
v 0.145134 -0.163640 0.377479
vn 5.987136 1.234612 -0.270614
v 0.145134 -0.163402 0.377294
vn 5.921863 1.026364 0.605035
v 0.145134 -0.163402 0.377479
vn 6.273559 -0.123776 -0.149314
v 0.145134 -0.163640 0.377294
vn 6.273049 -0.353380 0.032908
v 0.144097 -0.182790 0.369855
vn 6.030107 -0.784313 1.050413
v 0.144095 -0.182830 0.369841
vn 3.302980 -1.622333 3.826035
v 0.124941 -0.137596 0.447536
vn 6.269409 0.054507 -0.407861
v 0.144097 -0.169044 0.360515
vn 6.098379 0.896255 -0.712415
v 0.144095 -0.169053 0.360480
vn 2.021884 1.794763 -2.630889
v 0.055072 0.041712 0.215553
vn 3.911290 4.083890 -0.711463
v 0.035931 0.087042 0.293290
vn 6.272236 -0.170616 -0.198150
v 0.144097 -0.182790 0.360515
vn 5.851838 0.616305 1.878145
v 0.124935 -0.123707 0.447564
vn 5.970710 0.316439 1.812807
v 0.124938 -0.123719 0.447556
vn 6.264564 -0.212485 -0.248936
v 0.144095 -0.182830 0.360480
vn 6.082610 0.892346 -0.833663
v 0.144092 -0.169061 0.360451
vn 5.976513 -0.949870 1.111634
v 0.144092 -0.182864 0.369828
vn 6.250000 -0.283431 -0.331635
v 0.144092 -0.182864 0.360451
vn 0.395168 -1.832967 5.977166
v 0.037425 -0.174518 0.447548
vn 5.874617 -1.221052 1.196011
v 0.144089 -0.182892 0.369817
vn 6.063932 0.813123 -1.061204
v 0.144089 -0.169068 0.360427
vn 6.216993 -0.396516 -0.463307
v 0.144089 -0.182892 0.360427
vn 6.011214 0.681847 -1.430201
v 0.144086 -0.169075 0.360408
vn -3.104986 0.985595 5.210852
v 0.024392 -0.160700 0.447542
vn -1.538126 -1.107110 5.631835
v 0.024392 -0.174539 0.447542
vn 0.485756 -2.198921 5.827807
v 0.037424 -0.174539 0.447542
vn 5.644382 -1.689969 1.336325
v 0.144086 -0.182913 0.369808
vn 6.132233 -0.593271 -0.687210
v 0.144086 -0.182913 0.360408
vn -3.845908 0.680951 4.750545
v 0.024383 -0.160705 0.447536
vn 0.676825 -2.917428 5.414164
v 0.037422 -0.174553 0.447536
vn -1.998328 -1.444474 5.056595
v 0.024383 -0.174553 0.447536
vn 3.026581 -2.910666 3.611160
v 0.124939 -0.137607 0.447531
vn 4.991673 -2.556785 1.545818
v 0.144083 -0.182928 0.369800
vn 5.834793 0.426794 -2.099519
v 0.144083 -0.169081 0.360395
vn 5.824072 -1.001638 -1.148307
v 0.144083 -0.182928 0.360395
vn -0.948839 5.567379 1.365211
v 0.022890 0.087043 0.302694
vn 1.182488 5.460063 -1.359734
v 0.035930 0.087043 0.293290
vn -1.127314 5.416490 -1.525823
v 0.022890 0.087043 0.293290
vn -3.723103 2.669806 -1.092485
v -0.064631 0.050088 0.293290
vn 0.947754 5.579258 1.260924
v 0.035930 0.087043 0.302694
vn 5.544396 0.115559 -2.916864
v 0.144080 -0.169086 0.360388
vn 0.746407 -4.237297 4.091697
v 0.037420 -0.174561 0.447531
vn -4.790097 0.228856 3.945619
v 0.024377 -0.160710 0.447531
vn -2.479206 -2.343645 2.854818
v 0.024377 -0.174561 0.447531
vn 3.622590 -3.823413 1.258096
v 0.144080 -0.182937 0.369794
vn -0.516291 2.760701 -4.479034
v 0.042029 0.041712 0.215553
vn 3.832814 -2.482916 -1.815118
v 0.144080 -0.182937 0.360388
vn -2.541799 1.222720 -3.309165
v -0.045490 0.004757 0.215553
vn 2.425153 -0.773937 -4.587133
v 0.055072 0.027861 0.215553
vn 0.326791 -1.853118 -5.640018
v -0.032448 -0.009094 0.215553
vn -0.000001 -0.000004 -6.283185
v 0.042029 0.027861 0.215553
vn 2.417255 -3.790944 -2.647401
v 0.144076 -0.182939 0.360386
vn -2.472078 -1.310890 -2.841804
v -0.045490 -0.009094 0.215553
vn 0.784566 -4.545608 -2.475730
v 0.056556 -0.219893 0.360386
vn -1.966948 -3.480485 -1.570692
v 0.043516 -0.219893 0.360386
vn -5.970610 -1.002520 -0.498719
v -0.064631 0.036237 0.293290
vn -5.636109 -0.830518 1.289544
v -0.064631 0.036237 0.302696
vn -1.433788 -5.313003 2.134789
v 0.043518 -0.219892 0.369794
vn 1.318654 -5.398879 1.724236
v 0.056560 -0.219892 0.369794
vn -4.094168 -3.502237 1.486314
v 0.024377 -0.174563 0.447527
vn 2.677475 -5.654894 0.231536
v 0.144076 -0.182939 0.369788
vn 2.126613 -5.718356 -0.885830
v 0.056560 -0.219892 0.360388
vn 0.625649 -6.109094 0.521623
v 0.056556 -0.219893 0.369789
vn -2.666066 -4.286742 0.474484
v 0.043516 -0.219893 0.369789
# 84 vertices, 0 vertices normals

f 1//1 2//2 3//3
f 1//1 4//4 2//2
f 1//1 5//5 4//4
f 1//1 6//6 7//7
f 1//1 7//7 5//5
f 1//1 8//8 6//6
f 1//1 3//3 8//8
f 9//9 4//4 5//5
f 9//9 10//10 4//4
f 9//9 5//5 11//11
f 9//9 12//12 13//13
f 9//9 13//13 10//10
f 9//9 11//11 12//12
f 2//2 14//14 15//15
f 2//2 4//4 10//10
f 2//2 10//10 14//14
f 2//2 15//15 16//16
f 2//2 17//17 3//3
f 2//2 16//16 17//17
f 14//14 10//10 18//18
f 14//14 19//19 15//15
f 14//14 20//20 19//19
f 14//14 18//18 20//20
f 21//21 22//22 23//23
f 21//21 24//24 22//22
f 21//21 23//23 3//3
f 21//21 25//25 24//24
f 21//21 26//26 25//25
f 21//21 3//3 17//17
f 21//21 17//17 16//16
f 21//21 16//16 27//27
f 21//21 27//27 26//26
f 10//10 13//13 18//18
f 22//22 24//24 28//28
f 22//22 28//28 29//29
f 22//22 29//29 30//30
f 22//22 31//31 11//11
f 22//22 30//30 31//31
f 22//22 11//11 23//23
f 5//5 23//23 11//11
f 5//5 7//7 23//23
f 24//24 25//25 32//32
f 24//24 32//32 28//28
f 23//23 7//7 33//33
f 23//23 33//33 34//34
f 23//23 34//34 3//3
f 6//6 8//8 33//33
f 6//6 33//33 7//7
f 25//25 26//26 32//32
f 28//28 32//32 29//29
f 32//32 26//26 35//35
f 32//32 35//35 29//29
f 29//29 35//35 36//36
f 29//29 36//36 30//30
f 8//8 3//3 34//34
f 8//8 34//34 33//33
f 26//26 37//37 35//35
f 26//26 27//27 37//37
f 35//35 37//37 38//38
f 35//35 38//38 36//36
f 15//15 19//19 39//39
f 15//15 39//39 16//16
f 19//19 20//20 39//39
f 37//37 40//40 38//38
f 37//37 27//27 40//40
f 36//36 38//38 41//41
f 36//36 41//41 30//30
f 38//38 40//40 42//42
f 38//38 42//42 41//41
f 41//41 42//42 43//43
f 41//41 43//43 30//30
f 20//20 18//18 44//44
f 20//20 45//45 46//46
f 20//20 44//44 45//45
f 20//20 46//46 39//39
f 40//40 47//47 42//42
f 40//40 27//27 47//47
f 18//18 13//13 44//44
f 39//39 46//46 16//16
f 42//42 47//47 48//48
f 42//42 48//48 43//43
f 45//45 44//44 49//49
f 45//45 50//50 46//46
f 45//45 51//51 50//50
f 45//45 49//49 51//51
f 47//47 27//27 52//52
f 47//47 53//53 48//48
f 47//47 52//52 53//53
f 16//16 46//46 27//27
f 44//44 13//13 49//49
f 43//43 48//48 54//54
f 43//43 54//54 30//30
f 46//46 50//50 27//27
f 48//48 53//53 55//55
f 48//48 55//55 54//54
f 56//56 57//57 58//58
f 56//56 58//58 59//59
f 56//56 60//60 57//57
f 56//56 59//59 13//13
f 56//56 12//12 60//60
f 56//56 13//13 12//12
f 54//54 55//55 61//61
f 54//54 61//61 30//30
f 50//50 51//51 62//62
f 50//50 62//62 52//52
f 50//50 52//52 27//27
f 51//51 49//49 63//63
f 51//51 64//64 62//62
f 51//51 63//63 64//64
f 53//53 52//52 65//65
f 53//53 65//65 55//55
f 49//49 13//13 63//63
f 57//57 60//60 31//31
f 57//57 66//66 58//58
f 57//57 31//31 30//30
f 57//57 30//30 66//66
f 55//55 65//65 67//67
f 55//55 67//67 61//61
f 58//58 66//66 68//68
f 58//58 68//68 59//59
f 60//60 12//12 11//11
f 60//60 11//11 31//31
f 61//61 69//69 30//30
f 61//61 67//67 69//69
f 69//69 70//70 71//71
f 69//69 66//66 30//30
f 69//69 71//71 66//66
f 69//69 67//67 72//72
f 69//69 72//72 70//70
f 70//70 73//73 71//71
f 70//70 74//74 75//75
f 70//70 75//75 73//73
f 70//70 72//72 74//74
f 59//59 76//76 77//77
f 59//59 68//68 76//76
f 59//59 77//77 13//13
f 62//62 64//64 78//78
f 62//62 65//65 52//52
f 62//62 78//78 79//79
f 62//62 79//79 65//65
f 64//64 63//63 77//77
f 64//64 77//77 80//80
f 64//64 80//80 78//78
f 65//65 79//79 81//81
f 65//65 81//81 67//67
f 82//82 79//79 83//83
f 82//82 81//81 79//79
f 82//82 74//74 72//72
f 82//82 72//72 81//81
f 82//82 83//83 74//74
f 66//66 71//71 68//68
f 71//71 73//73 68//68
f 76//76 68//68 73//73
f 76//76 73//73 75//75
f 76//76 75//75 77//77
f 78//78 80//80 84//84
f 78//78 84//84 83//83
f 78//78 83//83 79//79
f 63//63 13//13 77//77
f 77//77 75//75 84//84
f 77//77 84//84 80//80
f 67//67 81//81 72//72
f 74//74 84//84 75//75
f 74//74 83//83 84//84
# 164 faces, 0 coords texture

# End of File
