####
#
# OBJ File Generated by Meshlab
#
####
# Object zonopy_mesh_step1_link2.obj
#
# Vertices: 40
# Faces: 76
#
####
vn 2.223160 -0.848859 -4.888153
v 0.056593 0.032247 0.219323
vn 0.319160 -1.818902 -5.666790
v -0.030990 -0.004558 0.219323
vn -0.000001 -0.000004 -6.283185
v 0.043602 0.032247 0.219323
vn -0.237238 1.386560 -5.942113
v 0.043602 0.046044 0.219323
vn 2.003023 0.805000 -4.953592
v 0.056593 0.046044 0.219323
vn 0.656686 -4.533143 -2.943887
v 0.058336 -0.217121 0.361346
vn 5.002490 -0.248858 -3.745446
v 0.056593 0.032247 0.219323
vn 2.789269 -2.928855 -3.724062
v 0.145919 -0.180315 0.361346
vn 3.704502 -2.365209 -1.289616
v 0.145919 -0.180316 0.361347
vn -0.948088 -4.475725 -2.822708
v 0.045346 -0.217121 0.361346
vn -1.939525 -1.513009 -4.497503
v -0.043980 -0.004558 0.219323
vn -2.121311 0.572425 -5.181989
v -0.043980 0.009239 0.219323
vn -3.188254 1.797162 -3.127113
v -0.043981 0.009240 0.219323
vn -0.758978 3.854462 -4.239040
v 0.043601 0.046045 0.219323
vn 2.432770 2.318114 -2.496181
v 0.056593 0.046045 0.219323
vn 1.390273 -5.723257 -0.938738
v 0.058337 -0.217121 0.361347
vn -2.694425 -4.031381 -0.869500
v 0.045345 -0.217121 0.361347
vn -4.551425 -1.704166 -2.294356
v -0.043981 -0.004558 0.219323
vn 5.621598 0.822435 -1.316846
v 0.145919 -0.166517 0.361347
vn 5.792501 2.434204 -0.000001
v 0.127226 -0.122035 0.439679
vn 5.976844 1.003215 0.481750
v 0.145919 -0.166517 0.370719
vn 3.734517 -2.681111 1.071291
v 0.145919 -0.180316 0.370719
vn 2.387284 4.117860 -0.876700
v 0.037900 0.090528 0.297656
vn -3.734517 2.681111 -1.071291
v -0.062674 0.053723 0.297656
vn -0.927711 4.464315 2.364012
v 0.024909 0.090528 0.307028
vn -1.126694 5.439908 -1.498446
v 0.024909 0.090528 0.297656
vn -5.976844 -1.003215 -0.481750
v -0.062674 0.039924 0.297656
vn -5.621599 -0.822435 1.316845
v -0.062674 0.039924 0.307028
vn -3.064127 2.207608 1.693179
v -0.062674 0.053723 0.307028
vn -5.792502 -2.434203 0.000001
v -0.043981 -0.004558 0.228696
vn -2.387285 -4.117860 0.876700
v 0.045345 -0.217121 0.370719
vn 0.518144 -2.776831 4.444284
v 0.039644 -0.172638 0.449051
vn 2.536906 -1.232985 3.274192
v 0.127226 -0.135833 0.449051
vn 0.000001 0.000004 6.283185
v 0.039644 -0.158840 0.449051
vn -2.013745 -1.796553 2.601172
v 0.026652 -0.172638 0.449051
vn -2.412871 0.759484 4.622899
v 0.026652 -0.158840 0.449051
vn 1.126694 -5.439908 1.498446
v 0.058337 -0.217121 0.370719
vn 1.957090 3.452648 1.585593
v 0.037900 0.090528 0.307028
vn 2.485152 1.294462 2.844848
v 0.127226 -0.122035 0.449051
vn -0.319160 1.818902 5.666790
v 0.114235 -0.122035 0.449051
# 40 vertices, 0 vertices normals

f 1//1 2//2 3//3
f 1//1 4//4 5//5
f 1//1 6//6 2//2
f 1//1 3//3 4//4
f 1//1 5//5 7//7
f 1//1 8//8 6//6
f 1//1 7//7 9//9
f 1//1 9//9 8//8
f 2//2 6//6 10//10
f 2//2 10//10 11//11
f 2//2 11//11 3//3
f 4//4 3//3 12//12
f 4//4 12//12 13//13
f 4//4 14//14 15//15
f 4//4 13//13 14//14
f 4//4 15//15 5//5
f 6//6 8//8 16//16
f 6//6 16//16 10//10
f 10//10 16//16 17//17
f 10//10 17//17 11//11
f 3//3 11//11 12//12
f 12//12 11//11 18//18
f 12//12 18//18 13//13
f 5//5 15//15 7//7
f 8//8 9//9 16//16
f 11//11 17//17 18//18
f 19//19 7//7 15//15
f 19//19 20//20 21//21
f 19//19 22//22 9//9
f 19//19 23//23 20//20
f 19//19 15//15 23//23
f 19//19 9//9 7//7
f 19//19 21//21 22//22
f 24//24 25//25 26//26
f 24//24 27//27 28//28
f 24//24 13//13 27//27
f 24//24 28//28 29//29
f 24//24 26//26 13//13
f 24//24 29//29 25//25
f 30//30 17//17 31//31
f 30//30 27//27 18//18
f 30//30 31//31 28//28
f 30//30 28//28 27//27
f 30//30 18//18 17//17
f 14//14 23//23 15//15
f 14//14 13//13 26//26
f 14//14 26//26 23//23
f 32//32 33//33 34//34
f 32//32 35//35 31//31
f 32//32 22//22 33//33
f 32//32 34//34 36//36
f 32//32 31//31 37//37
f 32//32 36//36 35//35
f 32//32 37//37 22//22
f 20//20 23//23 38//38
f 20//20 39//39 21//21
f 20//20 38//38 39//39
f 40//40 25//25 29//29
f 40//40 34//34 39//39
f 40//40 36//36 34//34
f 40//40 39//39 38//38
f 40//40 29//29 36//36
f 40//40 38//38 25//25
f 33//33 22//22 21//21
f 33//33 39//39 34//34
f 33//33 21//21 39//39
f 35//35 36//36 28//28
f 35//35 28//28 31//31
f 25//25 23//23 26//26
f 25//25 38//38 23//23
f 22//22 16//16 9//9
f 22//22 37//37 16//16
f 16//16 31//31 17//17
f 16//16 37//37 31//31
f 27//27 13//13 18//18
f 36//36 29//29 28//28
# 76 faces, 0 coords texture

# End of File
