####
#
# OBJ File Generated by Meshlab
#
####
# Object zonopy_mesh_step28_link3.obj
#
# Vertices: 206
# Faces: 408
#
####
vn -2.308162 -0.212158 -5.115019
v -0.167139 0.067807 0.412340
vn -4.884263 -0.002602 -3.952367
v -0.325845 0.108402 0.606454
vn -1.340346 2.198153 -3.126351
v -0.167139 0.068092 0.412340
vn 0.737226 -2.630565 -4.779828
v -0.176094 -0.025973 0.424196
vn -1.894293 -2.282127 -3.227827
v -0.176626 -0.025973 0.424196
vn 1.522423 -0.360640 -5.793509
v -0.166607 0.067807 0.412340
vn -3.996638 -2.190944 -1.306374
v -0.335332 0.014623 0.618310
vn -5.585671 0.170695 -1.862581
v -0.335332 0.014907 0.618310
vn -4.275657 -2.069080 1.199248
v -0.335332 0.014623 0.618744
vn -2.756302 -5.537412 -1.103741
v -0.161179 -0.036819 0.440034
vn -3.094446 -5.466232 -0.091505
v -0.314208 0.002314 0.638670
vn -3.085726 -5.471115 -0.095887
v -0.307481 -0.001585 0.644533
vn -3.071539 -5.478208 -0.113821
v -0.307193 -0.001752 0.644779
vn -3.055420 -5.486055 -0.133872
v -0.306913 -0.001914 0.645016
vn -3.037123 -5.494677 -0.156468
v -0.306642 -0.002070 0.645245
vn -3.018556 -5.503149 -0.179017
v -0.306380 -0.002221 0.645466
vn -2.989563 -5.515659 -0.214776
v -0.306127 -0.002367 0.645679
vn -2.961040 -5.527400 -0.248774
v -0.305883 -0.002507 0.645884
vn -2.932431 -5.538499 -0.282540
v -0.305648 -0.002641 0.646082
vn -2.897065 -5.551252 -0.324197
v -0.305422 -0.002770 0.646271
vn -2.854136 -5.565401 -0.374077
v -0.305205 -0.002894 0.646452
vn -2.816919 -5.577083 -0.414244
v -0.304998 -0.003012 0.646626
vn -2.625122 -5.567958 -1.241619
v -0.161088 -0.036880 0.440114
vn -2.488889 -5.590044 -1.369940
v -0.161002 -0.036938 0.440190
vn -2.319816 -5.602422 -1.521423
v -0.160921 -0.036991 0.440262
vn -2.121807 -5.598811 -1.685455
v -0.160844 -0.037041 0.440330
vn -1.824066 -5.557335 -1.913712
v -0.160772 -0.037088 0.440393
vn -1.645307 -5.520780 -2.027617
v -0.160705 -0.037130 0.440453
vn -1.379779 -5.436393 -2.189873
v -0.160641 -0.037169 0.440508
vn -1.289534 -5.421427 -2.207279
v -0.160583 -0.037204 0.440559
vn -1.262321 -5.455313 -2.149526
v -0.160528 -0.037236 0.440606
vn 0.121782 6.277528 -0.138352
v -0.254073 0.108839 0.664668
vn -0.253716 6.256397 0.317462
v -0.254604 0.108839 0.665102
vn 0.031362 6.282247 0.053329
v -0.254073 0.108839 0.665102
vn -0.004825 6.283169 -0.006430
v -0.254604 0.108839 0.664668
vn 0.301555 6.255077 -0.323314
v -0.206972 0.108159 0.686650
vn 0.102107 6.211071 -0.654461
v -0.325314 0.108687 0.606454
vn -2.918864 2.946394 0.872522
v -0.325845 0.108687 0.606888
vn -1.143604 5.874810 1.395877
v -0.224105 0.108160 0.697428
vn -1.422329 5.185292 1.978109
v -0.224054 0.108159 0.697471
vn -2.657377 2.593217 -1.178136
v -0.325845 0.108687 0.606454
vn 0.883263 2.562887 -3.467164
v -0.166607 0.068092 0.412340
vn 1.736308 3.072211 -3.223823
v -0.140603 0.069938 0.427566
vn -5.491736 0.357003 1.959274
v -0.335332 0.014907 0.618744
vn 1.258178 -3.245397 -4.329436
v -0.143354 -0.037308 0.440722
vn 0.101320 -5.096529 -3.666372
v -0.143719 -0.037204 0.440559
vn 0.291958 -4.910015 -3.856543
v -0.143610 -0.037236 0.440606
vn 0.534976 -4.615164 -4.064564
v -0.143513 -0.037263 0.440649
vn 0.868152 -4.091201 -4.274687
v -0.143427 -0.037287 0.440687
vn 0.073191 6.279099 0.127639
v -0.206972 0.108159 0.697471
vn -5.112345 1.044490 3.498943
v -0.301309 0.103224 0.644430
vn -5.076073 1.170694 3.505267
v -0.301178 0.103215 0.644624
vn -5.032195 1.302859 3.509116
v -0.301054 0.103205 0.644806
vn -4.958848 1.495728 3.506274
v -0.300937 0.103196 0.644976
vn -4.899328 1.630371 3.501192
v -0.300828 0.103187 0.645135
vn -4.777465 1.870612 3.476686
v -0.300726 0.103178 0.645281
vn -4.617116 2.129397 3.435965
v -0.300631 0.103170 0.645416
vn -4.419710 2.391146 3.373073
v -0.300543 0.103161 0.645539
vn -4.137202 2.688284 3.266695
v -0.300462 0.103153 0.645650
vn -3.788076 2.964591 3.121800
v -0.300388 0.103145 0.645750
vn -3.419751 3.172733 2.959870
v -0.300322 0.103137 0.645838
vn -3.258195 3.209892 2.931667
v -0.300262 0.103129 0.645914
vn -3.244761 -5.377655 0.095781
v -0.314208 0.002314 0.644709
vn -3.324654 -5.328135 0.180661
v -0.308726 -0.000863 0.651919
vn -3.308864 -5.336492 0.166252
v -0.308402 -0.001051 0.652339
vn -3.312110 -5.330149 0.173698
v -0.308086 -0.001234 0.652746
vn -3.337067 -5.311193 0.203040
v -0.307779 -0.001412 0.653140
vn -3.384515 -5.273030 0.259763
v -0.307481 -0.001585 0.653523
vn -3.448751 -5.216555 0.338833
v -0.307193 -0.001752 0.653892
vn -3.535416 -5.130556 0.449814
v -0.306913 -0.001914 0.654250
vn -3.634764 -5.015231 0.584809
v -0.306642 -0.002070 0.654595
vn -3.762000 -4.833335 0.773197
v -0.306380 -0.002221 0.654928
vn -3.910145 -4.542944 1.029514
v -0.306127 -0.002367 0.655248
vn -4.036195 -4.142211 1.319551
v -0.305883 -0.002507 0.655556
vn -4.102402 -3.539383 1.655862
v -0.305648 -0.002641 0.655852
vn -4.049611 -2.930377 1.900176
v -0.305422 -0.002770 0.656135
vn -4.003314 -2.729781 1.964613
v -0.305205 -0.002894 0.656407
vn -4.900084 0.059927 3.931917
v -0.305205 0.009236 0.656407
vn 1.845269 3.052548 -3.157404
v -0.140562 0.069941 0.427591
vn 2.034355 3.039950 -2.874115
v -0.064392 0.074995 0.479056
vn 2.904616 -0.771973 -5.516955
v -0.140654 0.056736 0.427537
vn 1.436845 -3.300900 -3.938187
v -0.143242 -0.037337 0.440779
vn 3.095073 -0.436086 -5.426740
v -0.140603 0.056719 0.427566
vn 1.322653 -3.264076 -4.185867
v -0.143292 -0.037324 0.440752
vn -4.891418 0.117685 3.940047
v -0.304998 0.009225 0.656666
vn -4.877745 0.204978 3.949676
v -0.304799 0.009214 0.656913
vn -4.860720 0.296832 3.958843
v -0.304609 0.009204 0.657147
vn -4.847175 0.347669 3.967086
v -0.304428 0.009194 0.657370
vn -3.139200 -5.442706 -0.017497
v -0.308086 -0.001234 0.644018
vn -3.116863 -5.454994 -0.050724
v -0.307779 -0.001412 0.644280
vn -3.995847 -2.732414 1.968372
v -0.304998 -0.003012 0.656666
vn -2.810295 -5.580688 -0.413437
v -0.304799 -0.003125 0.646791
vn -3.987521 -2.734188 1.973380
v -0.304799 -0.003125 0.656913
vn -2.802035 -5.585209 -0.410879
v -0.304609 -0.003232 0.646949
vn -3.976955 -2.737559 1.978627
v -0.304609 -0.003232 0.657147
vn -2.792087 -5.590796 -0.407830
v -0.304428 -0.003333 0.647099
vn -3.966675 -2.740821 1.984238
v -0.304428 -0.003333 0.657370
vn -2.781269 -5.596705 -0.404326
v -0.304256 -0.003429 0.647241
vn -3.953732 -2.744569 1.990361
v -0.304256 -0.003429 0.657580
vn -4.837608 0.349371 3.978345
v -0.304256 0.009183 0.657580
vn -2.768284 -5.603872 -0.400385
v -0.304093 -0.003519 0.647376
vn -3.941231 -2.749250 1.996349
v -0.304093 -0.003519 0.657779
vn -4.827063 0.349972 3.991122
v -0.304093 0.009174 0.657779
vn -3.277789 3.143341 3.082574
v -0.300210 0.103122 0.645978
vn -2.754626 -5.611313 -0.395823
v -0.303940 -0.003604 0.647503
vn -3.925776 -2.753294 2.003564
v -0.303940 -0.003604 0.657965
vn -4.814952 0.350689 4.005385
v -0.303940 0.009164 0.657965
vn -1.227628 -5.503036 -2.075532
v -0.160479 -0.037263 0.440649
vn -2.737878 -5.620323 -0.390645
v -0.303795 -0.003683 0.647622
vn -3.906683 -2.758676 2.012813
v -0.303795 -0.003683 0.658139
vn -4.798974 0.351611 4.024211
v -0.303795 0.009154 0.658139
vn -2.717115 -5.631352 -0.384217
v -0.303659 -0.003757 0.647734
vn -3.887377 -2.767442 2.019506
v -0.303659 -0.003757 0.658301
vn -4.785101 0.352648 4.040833
v -0.303659 0.009145 0.658301
vn -2.694313 -5.643574 -0.376597
v -0.303533 -0.003824 0.647838
vn -3.862964 -2.771537 2.031611
v -0.303533 -0.003824 0.658451
vn -4.766405 0.353474 4.062016
v -0.303533 0.009136 0.658451
vn -2.669139 -5.656679 -0.368956
v -0.303415 -0.003886 0.647934
vn -3.834635 -2.780572 2.045167
v -0.303415 -0.003886 0.658589
vn -4.741401 0.355198 4.090960
v -0.303415 0.009127 0.658589
vn -2.638132 -5.672546 -0.359016
v -0.303307 -0.003943 0.648023
vn -1.184659 -5.557264 -1.987310
v -0.160433 -0.037287 0.440687
vn -3.800696 -2.790691 2.059214
v -0.303307 -0.003943 0.658715
vn -4.715140 0.356840 4.120750
v -0.303307 0.009118 0.658715
vn -2.596880 -5.693196 -0.345704
v -0.303207 -0.003994 0.648104
vn -3.754891 -2.803254 2.076882
v -0.303207 -0.003994 0.658829
vn -4.681770 0.358977 4.157799
v -0.303207 0.009110 0.658829
vn -3.322016 3.021276 3.346763
v -0.300165 0.103115 0.646031
vn -2.546178 -5.718382 -0.329969
v -0.303116 -0.004039 0.648178
vn -3.702078 -2.816942 2.100283
v -0.303116 -0.004039 0.658931
vn -4.638829 0.361692 4.204772
v -0.303116 0.009102 0.658931
vn -2.486908 -5.746600 -0.311558
v -0.303035 -0.004079 0.648244
vn -1.127283 -5.624985 -1.868949
v -0.160393 -0.037308 0.440722
vn -3.638397 -2.835377 2.124519
v -0.303035 -0.004079 0.659021
vn -4.589761 0.364762 4.257597
v -0.303035 0.009094 0.659021
vn -2.408863 -5.782405 -0.286652
v -0.302962 -0.004112 0.648303
vn -3.551324 -2.854415 2.157167
v -0.302962 -0.004112 0.659099
vn -4.524431 0.368801 4.324993
v -0.302962 0.009086 0.659099
vn -1.054251 -5.712604 -1.707532
v -0.160356 -0.037324 0.440752
vn -2.304565 -5.828022 -0.253654
v -0.302899 -0.004140 0.648354
vn -3.432275 -2.879460 2.201830
v -0.302899 -0.004140 0.659165
vn -4.430053 0.374503 4.419199
v -0.302899 0.009078 0.659165
vn -3.384378 2.775866 3.759383
v -0.300127 0.103108 0.646072
vn -2.157539 -5.887528 -0.207270
v -0.302844 -0.004163 0.648397
vn -0.951072 -5.813161 -1.493739
v -0.160324 -0.037337 0.440779
vn -3.253904 -2.909832 2.263433
v -0.302844 -0.004163 0.659218
vn -4.288647 0.382592 4.552108
v -0.302844 0.009071 0.659218
vn 3.306863 -0.435249 -5.296466
v -0.140562 0.056707 0.427591
vn 1.608102 -3.355160 -3.540063
v -0.143203 -0.037346 0.440801
vn -1.735994 3.540760 2.721457
v -0.224012 0.108158 0.697504
vn 0.175572 6.258126 0.309819
v -0.206918 0.108158 0.697504
vn 0.437410 6.246606 -0.293409
v -0.206918 0.108158 0.686677
vn -3.521715 0.679659 5.156697
v -0.226734 0.014116 0.710658
vn -3.368163 0.425632 5.259951
v -0.226683 0.014114 0.710693
vn -3.439888 2.176701 4.437503
v -0.300096 0.103101 0.646101
vn -3.720706 0.377431 5.012780
v -0.302762 0.009057 0.659290
vn -0.801454 -5.945062 -1.163305
v -0.160297 -0.037346 0.440801
vn -1.932318 -5.969059 -0.136889
v -0.302799 -0.004180 0.648433
vn -2.975400 -2.947096 2.350572
v -0.302799 -0.004180 0.659260
vn -4.062840 0.394568 4.747152
v -0.302799 0.009064 0.659260
vn 3.709896 -0.404796 -5.020017
v -0.064392 0.061746 0.479056
vn 3.485374 -0.579135 -5.186887
v -0.140532 0.056698 0.427612
vn 2.791119 2.424092 -1.649477
v -0.064380 0.074995 0.479066
vn -3.377381 -0.649265 5.204459
v -0.226683 0.000870 0.710693
vn -2.915353 0.433254 5.503779
v -0.226643 0.014111 0.710717
vn -1.555848 3.411555 3.047089
v -0.223977 0.108155 0.697528
vn 1.700626 -3.515265 -2.914351
v -0.143177 -0.037351 0.440819
vn -0.569548 -6.096328 -0.745243
v -0.160274 -0.037351 0.440819
vn -1.628094 -6.064110 -0.046615
v -0.302762 -0.004191 0.648462
vn -2.522761 -2.975118 2.499162
v -0.302762 -0.004191 0.659290
vn 2.663640 -2.848394 -1.765661
v -0.067042 -0.032296 0.492256
vn 0.805390 6.211596 -0.170171
v -0.206880 0.108155 0.686699
vn 0.441726 6.131433 0.745925
v -0.206880 0.108155 0.697528
vn -1.414580 -6.121868 0.002030
v -0.160297 -0.037346 0.451628
vn -0.925460 -6.190151 0.126643
v -0.160274 -0.037351 0.451648
vn -1.980579 -3.463606 2.671181
v -0.302734 -0.004196 0.659308
vn -2.521389 -2.276771 4.525559
v -0.226643 0.000863 0.710717
vn 4.950773 -0.295606 -3.070151
v -0.064380 0.061748 0.479066
vn 1.255486 6.153559 -0.037471
v -0.206859 0.108151 0.686716
vn -0.044042 -6.227190 0.808714
v -0.084156 -0.032297 0.503074
vn 0.230846 -6.233670 0.490361
v -0.067058 -0.032297 0.503074
vn 0.156331 -5.949084 1.786048
v -0.209521 0.000861 0.710731
vn -0.302946 -6.234714 0.389373
v -0.160256 -0.037353 0.451659
vn -1.037281 -2.868841 3.380081
v -0.226613 0.000861 0.710731
vn 0.143426 -6.262958 0.249054
v -0.143163 -0.037353 0.451659
vn -1.846067 0.453459 5.881479
v -0.226613 0.014108 0.710731
vn -0.977612 3.172486 3.791939
v -0.223951 0.108151 0.697541
vn 1.098961 -5.967496 -1.020904
v -0.067058 -0.032297 0.492246
vn 1.055007 -5.778934 -1.306350
v -0.143163 -0.037353 0.440833
vn -0.168538 -6.259988 -0.253323
v -0.160256 -0.037353 0.440833
vn 1.074138 4.735037 2.383044
v -0.206859 0.108151 0.697541
vn 2.360498 -4.801647 1.124641
v -0.067042 -0.032296 0.503082
vn -0.567539 0.402124 6.177261
v -0.226593 0.014102 0.710735
vn -0.298892 2.146554 5.635992
v -0.223933 0.108146 0.697545
vn 1.584495 -2.080844 3.126262
v -0.209513 0.000862 0.710735
vn -0.325820 -2.653924 4.428845
v -0.226593 0.000862 0.710735
vn 3.470441 4.114544 0.863469
v -0.064380 0.074995 0.489892
vn 5.852776 1.308122 -0.401760
v -0.064378 0.074992 0.479074
vn 6.207389 -0.108025 -0.648589
v -0.064378 0.061752 0.479074
vn 5.298746 -1.965147 -0.677269
v -0.067039 -0.032292 0.492264
vn 4.627866 -1.909071 1.531943
v -0.067039 -0.032292 0.503082
vn 2.191832 2.158494 3.430093
v -0.206852 0.108146 0.697545
vn 5.276695 1.370322 1.466993
v -0.064378 0.074992 0.489892
vn 2.486977 0.308434 4.846670
v -0.209513 0.014102 0.710735
vn 5.643122 0.086369 2.433720
v -0.067039 -0.019052 0.503082
vn 6.220468 -0.048357 0.593037
v -0.064378 0.061752 0.489892
# 206 vertices, 0 vertices normals

f 1//1 2//2 3//3
f 1//1 4//4 5//5
f 1//1 5//5 2//2
f 1//1 6//6 4//4
f 1//1 3//3 6//6
f 7//7 8//8 2//2
f 7//7 2//2 5//5
f 7//7 9//9 8//8
f 7//7 5//5 10//10
f 7//7 11//11 9//9
f 7//7 12//12 11//11
f 7//7 13//13 12//12
f 7//7 14//14 13//13
f 7//7 15//15 14//14
f 7//7 16//16 15//15
f 7//7 17//17 16//16
f 7//7 18//18 17//17
f 7//7 19//19 18//18
f 7//7 20//20 19//19
f 7//7 21//21 20//20
f 7//7 22//22 21//21
f 7//7 10//10 23//23
f 7//7 23//23 24//24
f 7//7 24//24 25//25
f 7//7 25//25 26//26
f 7//7 26//26 27//27
f 7//7 27//27 28//28
f 7//7 28//28 29//29
f 7//7 29//29 30//30
f 7//7 30//30 31//31
f 7//7 31//31 22//22
f 32//32 33//33 34//34
f 32//32 35//35 33//33
f 32//32 34//34 36//36
f 32//32 37//37 35//35
f 32//32 36//36 37//37
f 33//33 35//35 38//38
f 33//33 38//38 39//39
f 33//33 39//39 40//40
f 33//33 40//40 34//34
f 41//41 8//8 38//38
f 41//41 35//35 37//37
f 41//41 2//2 8//8
f 41//41 38//38 35//35
f 41//41 37//37 3//3
f 41//41 3//3 2//2
f 42//42 37//37 43//43
f 42//42 6//6 3//3
f 42//42 3//3 37//37
f 42//42 43//43 6//6
f 8//8 9//9 44//44
f 8//8 44//44 38//38
f 4//4 6//6 45//45
f 4//4 46//46 30//30
f 4//4 30//30 5//5
f 4//4 47//47 46//46
f 4//4 48//48 47//47
f 4//4 49//49 48//48
f 4//4 45//45 49//49
f 34//34 50//50 36//36
f 34//34 40//40 50//50
f 38//38 44//44 51//51
f 38//38 51//51 52//52
f 38//38 52//52 53//53
f 38//38 53//53 54//54
f 38//38 54//54 55//55
f 38//38 55//55 56//56
f 38//38 56//56 57//57
f 38//38 57//57 58//58
f 38//38 58//58 59//59
f 38//38 59//59 60//60
f 38//38 60//60 61//61
f 38//38 61//61 62//62
f 38//38 62//62 39//39
f 9//9 63//63 64//64
f 9//9 11//11 63//63
f 9//9 64//64 65//65
f 9//9 65//65 66//66
f 9//9 66//66 67//67
f 9//9 67//67 68//68
f 9//9 68//68 69//69
f 9//9 69//69 70//70
f 9//9 70//70 71//71
f 9//9 71//71 72//72
f 9//9 72//72 73//73
f 9//9 73//73 74//74
f 9//9 74//74 75//75
f 9//9 75//75 76//76
f 9//9 76//76 77//77
f 9//9 77//77 78//78
f 9//9 78//78 44//44
f 5//5 23//23 10//10
f 5//5 24//24 23//23
f 5//5 25//25 24//24
f 5//5 26//26 25//25
f 5//5 27//27 26//26
f 5//5 28//28 27//27
f 5//5 29//29 28//28
f 5//5 30//30 29//29
f 37//37 79//79 43//43
f 37//37 36//36 80//80
f 37//37 80//80 79//79
f 6//6 81//81 82//82
f 6//6 43//43 83//83
f 6//6 84//84 45//45
f 6//6 83//83 81//81
f 6//6 82//82 84//84
f 44//44 78//78 85//85
f 44//44 85//85 86//86
f 44//44 86//86 87//87
f 44//44 87//87 88//88
f 44//44 88//88 62//62
f 44//44 52//52 51//51
f 44//44 53//53 52//52
f 44//44 54//54 53//53
f 44//44 55//55 54//54
f 44//44 56//56 55//55
f 44//44 57//57 56//56
f 44//44 58//58 57//57
f 44//44 59//59 58//58
f 44//44 60//60 59//59
f 44//44 61//61 60//60
f 44//44 62//62 61//61
f 63//63 11//11 89//89
f 63//63 65//65 64//64
f 63//63 89//89 66//66
f 63//63 66//66 65//65
f 11//11 90//90 89//89
f 11//11 12//12 90//90
f 89//89 90//90 66//66
f 66//66 90//90 67//67
f 90//90 12//12 67//67
f 67//67 12//12 68//68
f 12//12 13//13 68//68
f 68//68 13//13 69//69
f 13//13 14//14 69//69
f 69//69 14//14 70//70
f 70//70 14//14 15//15
f 70//70 15//15 71//71
f 15//15 16//16 71//71
f 71//71 16//16 72//72
f 16//16 17//17 72//72
f 72//72 17//17 73//73
f 73//73 17//17 18//18
f 73//73 18//18 74//74
f 74//74 18//18 19//19
f 74//74 19//19 75//75
f 19//19 20//20 75//75
f 75//75 20//20 76//76
f 76//76 20//20 21//21
f 76//76 21//21 77//77
f 77//77 21//21 22//22
f 77//77 22//22 91//91
f 77//77 91//91 85//85
f 77//77 85//85 78//78
f 22//22 92//92 91//91
f 22//22 31//31 92//92
f 91//91 93//93 86//86
f 91//91 92//92 93//93
f 91//91 86//86 85//85
f 93//93 92//92 94//94
f 93//93 94//94 95//95
f 93//93 95//95 87//87
f 93//93 87//87 86//86
f 92//92 31//31 94//94
f 94//94 96//96 95//95
f 94//94 31//31 96//96
f 95//95 97//97 88//88
f 95//95 96//96 97//97
f 95//95 88//88 87//87
f 97//97 96//96 98//98
f 97//97 99//99 100//100
f 97//97 98//98 99//99
f 97//97 100//100 88//88
f 96//96 31//31 98//98
f 88//88 100//100 62//62
f 99//99 98//98 101//101
f 99//99 102//102 103//103
f 99//99 101//101 102//102
f 99//99 103//103 100//100
f 98//98 31//31 101//101
f 100//100 103//103 104//104
f 100//100 104//104 62//62
f 102//102 101//101 105//105
f 102//102 105//105 106//106
f 102//102 106//106 107//107
f 102//102 107//107 103//103
f 101//101 31//31 108//108
f 101//101 108//108 105//105
f 103//103 107//107 104//104
f 105//105 109//109 106//106
f 105//105 108//108 109//109
f 106//106 110//110 111//111
f 106//106 109//109 110//110
f 106//106 111//111 107//107
f 107//107 111//111 104//104
f 110//110 109//109 112//112
f 110//110 112//112 113//113
f 110//110 113//113 114//114
f 110//110 114//114 111//111
f 109//109 108//108 112//112
f 111//111 114//114 104//104
f 112//112 115//115 113//113
f 112//112 108//108 115//115
f 113//113 115//115 116//116
f 113//113 116//116 117//117
f 113//113 117//117 114//114
f 114//114 117//117 104//104
f 115//115 118//118 116//116
f 115//115 108//108 118//118
f 116//116 118//118 119//119
f 116//116 119//119 120//120
f 116//116 120//120 117//117
f 117//117 120//120 104//104
f 118//118 121//121 119//119
f 118//118 108//108 122//122
f 118//118 122//122 121//121
f 119//119 121//121 123//123
f 119//119 123//123 124//124
f 119//119 124//124 120//120
f 120//120 124//124 104//104
f 121//121 125//125 123//123
f 121//121 122//122 125//125
f 123//123 125//125 126//126
f 123//123 126//126 127//127
f 123//123 127//127 124//124
f 46//46 47//47 31//31
f 46//46 31//31 30//30
f 124//124 127//127 128//128
f 124//124 128//128 104//104
f 125//125 129//129 126//126
f 125//125 122//122 129//129
f 47//47 48//48 108//108
f 47//47 108//108 31//31
f 126//126 129//129 130//130
f 126//126 130//130 131//131
f 126//126 131//131 127//127
f 127//127 131//131 128//128
f 129//129 132//132 130//130
f 129//129 122//122 133//133
f 129//129 133//133 132//132
f 130//130 134//134 135//135
f 130//130 132//132 134//134
f 130//130 135//135 131//131
f 48//48 49//49 122//122
f 48//48 122//122 108//108
f 131//131 135//135 128//128
f 134//134 132//132 136//136
f 134//134 136//136 137//137
f 134//134 137//137 138//138
f 134//134 138//138 135//135
f 132//132 133//133 136//136
f 49//49 45//45 133//133
f 49//49 133//133 122//122
f 135//135 138//138 128//128
f 136//136 133//133 139//139
f 136//136 140//140 137//137
f 136//136 139//139 140//140
f 137//137 140//140 141//141
f 137//137 141//141 142//142
f 137//137 142//142 138//138
f 45//45 84//84 139//139
f 45//45 139//139 133//133
f 62//62 104//104 39//39
f 81//81 83//83 82//82
f 138//138 142//142 143//143
f 138//138 143//143 128//128
f 43//43 79//79 83//83
f 39//39 104//104 40//40
f 140//140 139//139 144//144
f 140//140 144//144 141//141
f 84//84 82//82 145//145
f 84//84 145//145 139//139
f 104//104 128//128 40//40
f 141//141 144//144 146//146
f 141//141 146//146 147//147
f 141//141 147//147 142//142
f 83//83 148//148 149//149
f 83//83 79//79 148//148
f 83//83 149//149 82//82
f 142//142 147//147 143//143
f 139//139 145//145 144//144
f 50//50 40//40 150//150
f 50//50 151//151 152//152
f 50//50 152//152 36//36
f 50//50 150//150 151//151
f 153//153 154//154 150//150
f 153//153 150//150 155//155
f 153//153 155//155 156//156
f 153//153 156//156 154//154
f 82//82 149//149 157//157
f 82//82 157//157 145//145
f 144//144 145//145 158//158
f 144//144 158//158 146//146
f 146//146 158//158 159//159
f 146//146 159//159 160//160
f 146//146 160//160 147//147
f 148//148 79//79 161//161
f 148//148 162//162 149//149
f 148//148 161//161 162//162
f 79//79 80//80 161//161
f 128//128 143//143 40//40
f 36//36 152//152 163//163
f 36//36 163//163 80//80
f 147//147 160//160 155//155
f 147//147 155//155 143//143
f 40//40 143//143 150//150
f 145//145 157//157 158//158
f 154//154 164//164 165//165
f 154//154 165//165 166//166
f 154//154 166//166 150//150
f 154//154 156//156 164//164
f 149//149 162//162 167//167
f 149//149 167//167 168//168
f 149//149 168//168 157//157
f 158//158 157//157 169//169
f 158//158 169//169 159//159
f 159//159 169//169 170//170
f 159//159 170//170 156//156
f 159//159 156//156 160//160
f 162//162 161//161 171//171
f 162//162 171//171 167//167
f 143//143 155//155 150//150
f 151//151 150//150 166//166
f 151//151 172//172 152//152
f 151//151 173//173 172//172
f 151//151 166//166 173//173
f 174//174 157//157 168//168
f 174//174 169//169 157//157
f 174//174 175//175 170//170
f 174//174 170//170 169//169
f 174//174 168//168 175//175
f 152//152 172//172 163//163
f 160//160 156//156 155//155
f 164//164 170//170 176//176
f 164//164 177//177 165//165
f 164//164 156//156 170//170
f 164//164 176//176 177//177
f 161//161 80//80 178//178
f 161//161 178//178 171//171
f 172//172 173//173 179//179
f 172//172 179//179 163//163
f 180//180 181//181 182//182
f 180//180 176//176 183//183
f 180//180 182//182 184//184
f 180//180 183//183 185//185
f 180//180 184//184 176//176
f 180//180 185//185 181//181
f 165//165 177//177 186//186
f 165//165 186//186 187//187
f 165//165 187//187 166//166
f 188//188 181//181 185//185
f 188//188 189//189 171//171
f 188//188 171//171 181//181
f 188//188 185//185 189//189
f 175//175 168//168 190//190
f 175//175 176//176 170//170
f 175//175 183//183 176//176
f 175//175 190//190 183//183
f 167//167 189//189 190//190
f 167//167 171//171 189//189
f 167//167 190//190 168//168
f 173//173 166//166 187//187
f 173//173 191//191 179//179
f 173//173 187//187 191//191
f 181//181 192//192 182//182
f 181//181 171//171 192//192
f 80//80 163//163 178//178
f 177//177 176//176 184//184
f 177//177 184//184 186//186
f 186//186 184//184 193//193
f 186//186 193//193 194//194
f 186//186 194//194 187//187
f 189//189 183//183 190//190
f 189//189 185//185 183//183
f 182//182 192//192 195//195
f 182//182 195//195 196//196
f 182//182 196//196 184//184
f 163//163 179//179 197//197
f 163//163 197//197 198//198
f 163//163 198//198 199//199
f 163//163 199//199 178//178
f 192//192 171//171 200//200
f 192//192 201//201 195//195
f 192//192 200//200 201//201
f 191//191 187//187 194//194
f 191//191 197//197 179//179
f 191//191 194//194 202//202
f 191//191 202//202 197//197
f 178//178 199//199 200//200
f 178//178 200//200 171//171
f 197//197 202//202 203//203
f 197//197 203//203 198//198
f 184//184 196//196 193//193
f 193//193 195//195 204//204
f 193//193 204//204 194//194
f 193//193 196//196 195//195
f 205//205 195//195 201//201
f 205//205 206//206 203//203
f 205//205 201//201 206//206
f 205//205 202//202 204//204
f 205//205 204//204 195//195
f 205//205 203//203 202//202
f 198//198 206//206 199//199
f 198//198 203//203 206//206
f 206//206 201//201 200//200
f 206//206 200//200 199//199
f 194//194 204//204 202//202
# 408 faces, 0 coords texture

# End of File
