####
#
# OBJ File Generated by Meshlab
#
####
# Object zonopy_mesh_step2_link4.obj
#
# Vertices: 118
# Faces: 232
#
####
vn 0.134559 2.060366 -5.929794
v 0.150942 -0.261634 0.477252
vn -0.523331 1.996308 -5.902709
v 0.150503 -0.261634 0.477252
vn -1.014821 1.990318 -5.772974
v 0.143256 -0.236941 0.486508
vn -1.020231 0.923729 -5.853220
v 0.166741 -0.514534 0.393504
vn 1.770201 0.754147 -5.376603
v 0.167179 -0.514534 0.393504
vn 0.213165 2.124249 -5.902850
v 0.168309 -0.236941 0.486508
vn 1.323135 -6.138376 0.021419
v 0.200548 -0.539948 0.476158
vn 0.434147 -6.080355 -0.842885
v 0.121890 -0.554161 0.503180
vn 1.827182 -5.469473 -1.394470
v 0.200548 -0.539948 0.475509
vn 0.464201 -6.220612 0.219709
v 0.121890 -0.554161 0.503829
vn 1.588784 -6.078120 -0.058495
v 0.231897 -0.532078 0.508616
vn 1.426805 -6.117286 0.064631
v 0.231897 -0.532078 0.532782
vn 0.651921 -6.168483 0.557148
v 0.152659 -0.548567 0.556922
vn 0.563314 -6.212587 0.347238
v 0.152403 -0.548620 0.556488
vn 0.589655 -6.202465 0.393855
v 0.152500 -0.548602 0.556650
vn 0.612816 -6.196211 0.431766
v 0.152585 -0.548584 0.556794
vn 0.095563 -5.805361 -2.322814
v 0.088522 -0.529148 0.421174
vn -1.602160 -5.565567 -0.566578
v 0.121452 -0.554161 0.503180
vn -2.313096 -1.976622 -1.936419
v 0.088083 -0.529148 0.421174
vn -0.577305 -2.459489 -4.475196
v 0.166741 -0.514934 0.393504
vn 1.281722 -2.302508 -3.664851
v 0.167179 -0.514934 0.393504
vn -2.405609 -4.974834 0.554393
v 0.121452 -0.554161 0.503829
vn -4.993474 -2.720506 0.276825
v 0.088083 -0.529148 0.421824
vn -3.870571 0.409802 -3.809141
v 0.088083 -0.528747 0.421174
vn 3.159707 -2.653680 -3.623805
v 0.203008 -0.514861 0.423220
vn 2.460427 -4.916732 -2.943137
v 0.202800 -0.514869 0.423051
vn 3.076836 -2.894120 -3.631381
v 0.202910 -0.514866 0.423139
vn -5.297714 -3.152618 0.966898
v 0.098386 -0.531416 0.471213
vn -5.513502 -2.397155 1.124136
v 0.098409 -0.531416 0.471334
vn -6.156032 -0.552210 0.629810
v 0.063698 -0.274422 0.534794
vn -6.259988 -0.239938 -0.190685
v 0.063698 -0.274422 0.510306
vn -6.162809 -0.209866 -0.890053
v 0.063700 -0.274431 0.510291
vn -2.533463 1.611017 -5.490971
v 0.063726 -0.253360 0.510240
vn -2.911898 1.506192 -5.353592
v 0.063715 -0.253313 0.510260
vn -2.719251 1.582391 -5.389411
v 0.063707 -0.253271 0.510276
vn -3.955393 1.256307 -2.991197
v 0.063700 -0.253233 0.510291
vn -0.573152 -6.186741 0.725057
v 0.127433 -0.548620 0.556488
vn 2.523509 -5.424055 -1.061427
v 0.231995 -0.532053 0.508712
vn 3.278588 -2.614461 -3.523413
v 0.203094 -0.514856 0.423292
vn 3.698671 -2.480987 -3.232702
v 0.203280 -0.514836 0.423465
vn 0.278980 2.160428 -5.882676
v 0.168364 -0.236866 0.486537
vn 0.614607 2.302762 -5.749556
v 0.168411 -0.236800 0.486564
vn 3.908236 0.304335 -4.897429
v 0.203008 -0.493823 0.423220
vn 1.466372 2.553920 -5.158394
v 0.168510 -0.236661 0.486633
vn 3.747167 0.844335 -4.861801
v 0.203094 -0.493763 0.423292
vn -2.050653 -5.440677 0.842822
v 0.127446 -0.548602 0.556650
vn -2.509644 -4.935028 0.882038
v 0.127460 -0.548584 0.556794
vn 1.489827 -6.099796 0.085943
v 0.231995 -0.532053 0.532955
vn -1.031861 2.053759 -5.743708
v 0.143239 -0.236866 0.486537
vn 2.637026 -5.364453 -1.079101
v 0.232082 -0.532029 0.508801
vn 1.535667 -6.087007 0.110011
v 0.232082 -0.532029 0.533109
vn -1.048279 2.333339 -5.599299
v 0.143225 -0.236800 0.486564
vn -2.659979 -4.606922 1.047688
v 0.127472 -0.548567 0.556922
vn 2.916598 -5.118842 -1.113653
v 0.232157 -0.532007 0.508880
vn 1.718741 -6.023204 0.174604
v 0.232157 -0.532007 0.533245
vn -1.084508 3.077128 -5.141449
v 0.143201 -0.236661 0.486633
vn 3.580665 -4.422639 -1.146288
v 0.232320 -0.531949 0.509068
vn 2.196207 -5.785056 0.361252
v 0.232320 -0.531949 0.533541
vn 0.709231 -6.088482 0.925783
v 0.152818 -0.548521 0.557198
vn -2.861386 -3.797218 1.430953
v 0.127510 -0.548521 0.557198
vn 4.221742 -1.024711 -4.412481
v 0.203167 -0.514846 0.423359
vn 4.357016 -2.180972 -2.959334
v 0.203316 -0.514827 0.423508
vn 3.883703 0.836672 -4.771689
v 0.203167 -0.493717 0.423359
vn 2.151892 2.895917 -4.197413
v 0.168527 -0.236634 0.486653
vn -5.910851 -1.550035 1.402306
v 0.098432 -0.531410 0.471436
vn -6.021088 -0.466346 1.422312
v 0.063701 -0.274412 0.534813
vn -5.759585 -1.860431 1.474757
v 0.098470 -0.531408 0.471595
vn 4.299366 -0.667527 -4.479975
v 0.203228 -0.514839 0.423416
vn 3.910351 0.836919 -4.748027
v 0.203228 -0.493675 0.423416
vn 4.138746 0.854111 -4.486523
v 0.203280 -0.493638 0.423465
vn -2.851823 -3.560050 1.843232
v 0.127523 -0.548506 0.557256
vn 4.337457 -3.595174 -1.126687
v 0.232351 -0.531931 0.509115
vn 2.667035 -5.453929 0.616503
v 0.232351 -0.531931 0.533603
vn 0.776495 -5.959716 1.468592
v 0.152849 -0.548506 0.557256
vn -1.072219 4.082063 -4.377475
v 0.143200 -0.236634 0.486653
vn -3.938880 1.984883 -2.226441
v 0.063698 -0.253209 0.510306
vn 5.148010 -1.479981 -2.617135
v 0.203340 -0.514817 0.423544
vn 4.675781 0.821492 -3.945068
v 0.203316 -0.493614 0.423508
vn -5.388940 -0.971558 2.699128
v 0.092732 -0.291510 0.620423
vn -0.992244 5.079993 -3.040868
v 0.143203 -0.236618 0.486672
vn 2.639279 3.137746 -2.540868
v 0.168536 -0.236618 0.486672
vn -6.231487 0.371959 0.257026
v 0.063698 -0.253209 0.534794
vn -3.631246 3.174809 -1.350079
v 0.063701 -0.253194 0.510322
vn 4.925251 -2.423867 -0.968139
v 0.232372 -0.531915 0.509153
vn 3.392511 -4.465376 1.027060
v 0.232372 -0.531915 0.533645
vn 0.891898 -5.576471 2.324046
v 0.152869 -0.548492 0.557295
vn -2.604618 -3.385947 2.580584
v 0.127536 -0.548492 0.557295
vn -5.118967 2.110643 0.813318
v 0.063701 -0.253194 0.534813
vn 5.255722 0.772811 -3.079433
v 0.203340 -0.493600 0.423544
vn 5.870454 1.595473 -1.057678
v 0.197568 -0.253716 0.572281
vn 2.471389 4.074042 -1.203493
v 0.168538 -0.236611 0.486688
vn 4.691985 3.078238 -0.218797
v 0.197567 -0.253704 0.572299
vn 6.047195 0.520600 -0.955759
v 0.232380 -0.510688 0.509183
vn 5.769656 0.731407 -2.196951
v 0.203351 -0.493594 0.423572
vn -1.739319 -2.802203 4.005113
v 0.127549 -0.548478 0.557317
vn 5.751981 -1.330694 -0.582530
v 0.232380 -0.531900 0.509183
vn 3.461316 -2.079824 2.043097
v 0.232380 -0.531900 0.533669
vn 1.044506 -3.552386 4.158431
v 0.152877 -0.548478 0.557317
vn -5.948219 0.005112 2.024094
v 0.092732 -0.270292 0.620423
vn -2.736472 -0.469374 4.080353
v 0.092736 -0.291495 0.620433
vn -1.868662 1.799852 2.709098
v 0.092736 -0.270282 0.620433
vn -0.653607 5.882457 -1.189070
v 0.143210 -0.236611 0.486688
vn -2.619253 5.351120 -0.457983
v 0.063707 -0.253189 0.510336
vn 5.868692 -0.302198 -2.178549
v 0.203351 -0.514807 0.423572
vn 5.974157 0.179300 -1.920760
v 0.232372 -0.510698 0.509153
vn -3.059062 4.197387 1.250093
v 0.063707 -0.253189 0.534822
vn 1.403863 5.810063 0.370422
v 0.168538 -0.236611 0.511174
vn 2.141271 2.012765 1.893323
v 0.197567 -0.253704 0.596785
vn 6.164414 0.353837 0.648521
v 0.232380 -0.510688 0.533669
vn -0.252613 -1.788997 5.991940
v 0.127561 -0.548466 0.557322
vn 0.887227 -0.697695 6.001519
v 0.118064 -0.291495 0.620433
vn -0.204887 5.654748 2.345245
v 0.172239 -0.253704 0.596785
vn -0.583376 6.123917 0.616166
v 0.143210 -0.236611 0.511174
vn 0.504079 2.287124 4.868848
v 0.118064 -0.270282 0.620433
vn 3.918925 -0.847238 3.578812
v 0.232379 -0.531887 0.533675
vn 3.511119 -0.291843 4.541689
v 0.197567 -0.274917 0.596785
vn 5.823785 0.123401 2.150928
v 0.232379 -0.510689 0.533675
vn 1.006675 -1.691070 5.823476
v 0.152876 -0.548466 0.557322
# 118 vertices, 0 vertices normals

f 1//1 2//2 3//3
f 1//1 4//4 2//2
f 1//1 5//5 4//4
f 1//1 6//6 5//5
f 1//1 3//3 6//6
f 2//2 4//4 3//3
f 7//7 8//8 9//9
f 7//7 10//10 8//8
f 7//7 9//9 11//11
f 7//7 12//12 13//13
f 7//7 11//11 12//12
f 7//7 14//14 10//10
f 7//7 15//15 14//14
f 7//7 16//16 15//15
f 7//7 13//13 16//16
f 17//17 18//18 19//19
f 17//17 20//20 21//21
f 17//17 8//8 18//18
f 17//17 21//21 9//9
f 17//17 9//9 8//8
f 17//17 19//19 20//20
f 18//18 8//8 22//22
f 18//18 23//23 19//19
f 18//18 22//22 23//23
f 20//20 24//24 4//4
f 20//20 4//4 21//21
f 20//20 19//19 24//24
f 8//8 10//10 22//22
f 21//21 4//4 5//5
f 21//21 5//5 25//25
f 21//21 26//26 9//9
f 21//21 27//27 26//26
f 21//21 25//25 27//27
f 23//23 22//22 28//28
f 23//23 28//28 29//29
f 23//23 29//29 30//30
f 23//23 31//31 19//19
f 23//23 30//30 31//31
f 24//24 19//19 32//32
f 24//24 33//33 4//4
f 24//24 34//34 33//33
f 24//24 35//35 34//34
f 24//24 36//36 35//35
f 24//24 32//32 36//36
f 10//10 37//37 22//22
f 10//10 14//14 37//37
f 4//4 33//33 3//3
f 9//9 26//26 27//27
f 9//9 27//27 25//25
f 9//9 38//38 11//11
f 9//9 25//25 39//39
f 9//9 39//39 40//40
f 9//9 40//40 38//38
f 5//5 6//6 41//41
f 5//5 41//41 42//42
f 5//5 43//43 25//25
f 5//5 42//42 44//44
f 5//5 45//45 43//43
f 5//5 44//44 45//45
f 22//22 37//37 46//46
f 22//22 46//46 47//47
f 22//22 47//47 29//29
f 22//22 29//29 28//28
f 19//19 31//31 32//32
f 12//12 11//11 38//38
f 12//12 48//48 13//13
f 12//12 38//38 48//48
f 37//37 14//14 46//46
f 14//14 15//15 46//46
f 46//46 15//15 47//47
f 6//6 3//3 49//49
f 6//6 49//49 41//41
f 48//48 38//38 50//50
f 48//48 50//50 51//51
f 48//48 51//51 13//13
f 38//38 40//40 50//50
f 3//3 33//33 49//49
f 15//15 16//16 47//47
f 41//41 49//49 52//52
f 41//41 52//52 42//42
f 47//47 16//16 53//53
f 47//47 53//53 29//29
f 50//50 54//54 51//51
f 50//50 40//40 54//54
f 51//51 55//55 13//13
f 51//51 54//54 55//55
f 25//25 43//43 39//39
f 43//43 45//45 39//39
f 49//49 33//33 36//36
f 49//49 36//36 52//52
f 16//16 13//13 53//53
f 42//42 52//52 56//56
f 42//42 56//56 44//44
f 55//55 54//54 57//57
f 55//55 58//58 59//59
f 55//55 57//57 58//58
f 55//55 59//59 13//13
f 53//53 13//13 60//60
f 53//53 60//60 29//29
f 33//33 34//34 35//35
f 33//33 35//35 36//36
f 39//39 45//45 61//61
f 39//39 61//61 40//40
f 54//54 40//40 62//62
f 54//54 62//62 57//57
f 45//45 63//63 61//61
f 45//45 44//44 64//64
f 45//45 64//64 63//63
f 29//29 65//65 66//66
f 29//29 60//60 67//67
f 29//29 67//67 65//65
f 29//29 66//66 30//30
f 52//52 36//36 56//56
f 13//13 59//59 60//60
f 61//61 63//63 68//68
f 61//61 68//68 40//40
f 65//65 67//67 66//66
f 63//63 69//69 68//68
f 63//63 64//64 69//69
f 68//68 69//69 40//40
f 69//69 70//70 40//40
f 69//69 64//64 70//70
f 60//60 59//59 71//71
f 60//60 71//71 67//67
f 58//58 57//57 72//72
f 58//58 73//73 74//74
f 58//58 72//72 73//73
f 58//58 74//74 59//59
f 44//44 56//56 75//75
f 44//44 75//75 64//64
f 36//36 32//32 31//31
f 36//36 76//76 56//56
f 36//36 31//31 76//76
f 57//57 62//62 77//77
f 57//57 77//77 72//72
f 40//40 70//70 62//62
f 70//70 64//64 78//78
f 70//70 78//78 62//62
f 67//67 71//71 79//79
f 67//67 79//79 66//66
f 56//56 76//76 75//75
f 59//59 74//74 71//71
f 64//64 75//75 80//80
f 64//64 81//81 78//78
f 64//64 80//80 81//81
f 76//76 31//31 30//30
f 76//76 30//30 82//82
f 76//76 82//82 83//83
f 76//76 83//83 75//75
f 62//62 78//78 77//77
f 73//73 72//72 84//84
f 73//73 85//85 86//86
f 73//73 84//84 85//85
f 73//73 86//86 74//74
f 30//30 66//66 82//82
f 72//72 77//77 84//84
f 71//71 74//74 87//87
f 71//71 87//87 79//79
f 82//82 66//66 88//88
f 82//82 88//88 83//83
f 75//75 83//83 80//80
f 78//78 81//81 89//89
f 78//78 89//89 77//77
f 74//74 86//86 87//87
f 90//90 81//81 91//91
f 90//90 92//92 93//93
f 90//90 91//91 92//92
f 90//90 93//93 94//94
f 90//90 94//94 81//81
f 87//87 86//86 95//95
f 87//87 95//95 79//79
f 85//85 84//84 96//96
f 85//85 97//97 98//98
f 85//85 96//96 97//97
f 85//85 98//98 86//86
f 79//79 99//99 66//66
f 79//79 95//95 100//100
f 79//79 100//100 99//99
f 99//99 88//88 66//66
f 99//99 101//101 88//88
f 99//99 100//100 101//101
f 81//81 80//80 102//102
f 81//81 94//94 89//89
f 81//81 102//102 91//91
f 83//83 88//88 103//103
f 83//83 103//103 102//102
f 83//83 102//102 80//80
f 77//77 89//89 104//104
f 77//77 104//104 84//84
f 105//105 84//84 104//104
f 105//105 96//96 84//84
f 105//105 93//93 96//96
f 105//105 104//104 94//94
f 105//105 94//94 93//93
f 89//89 94//94 104//104
f 86//86 98//98 95//95
f 88//88 101//101 106//106
f 88//88 106//106 103//103
f 92//92 91//91 107//107
f 92//92 108//108 109//109
f 92//92 107//107 108//108
f 92//92 109//109 93//93
f 95//95 98//98 110//110
f 95//95 110//110 100//100
f 101//101 100//100 111//111
f 101//101 112//112 113//113
f 101//101 113//113 106//106
f 101//101 111//111 114//114
f 101//101 114//114 112//112
f 100//100 110//110 111//111
f 97//97 96//96 93//93
f 97//97 93//93 109//109
f 97//97 109//109 115//115
f 97//97 115//115 98//98
f 91//91 113//113 107//107
f 91//91 102//102 113//113
f 103//103 113//113 102//102
f 103//103 106//106 113//113
f 112//112 108//108 107//107
f 112//112 107//107 113//113
f 112//112 114//114 108//108
f 116//116 111//111 115//115
f 116//116 108//108 114//114
f 116//116 114//114 111//111
f 116//116 115//115 117//117
f 116//116 117//117 108//108
f 111//111 110//110 118//118
f 111//111 118//118 115//115
f 108//108 117//117 109//109
f 98//98 115//115 118//118
f 98//98 118//118 110//110
f 109//109 117//117 115//115
# 232 faces, 0 coords texture

# End of File
