####
#
# OBJ File Generated by Meshlab
#
####
# Object zonopy_mesh_step25_link6.obj
#
# Vertices: 130
# Faces: 256
#
####
vn 0.010306 -6.283084 -0.017503
v -0.054266 -0.019220 0.770648
vn -0.008262 -6.283155 0.007100
v -0.055801 -0.019220 0.772091
vn -0.006970 -6.283098 -0.018475
v -0.055801 -0.019220 0.770648
vn 0.030519 -6.282532 -0.048421
v -0.054189 -0.019219 0.770595
vn 0.012164 -6.283139 0.006619
v -0.054266 -0.019220 0.772091
vn 0.033373 -6.282888 0.019686
v -0.054189 -0.019219 0.772210
vn -0.023279 -6.282990 0.020419
v -0.055908 -0.019219 0.772210
vn -0.021301 -6.282622 -0.049913
v -0.055908 -0.019219 0.770595
vn 0.043949 -6.282064 -0.068223
v -0.054020 -0.019217 0.770479
vn 0.045161 -6.282689 0.029419
v -0.054020 -0.019217 0.772471
vn -0.032620 -6.282850 0.029732
v -0.056142 -0.019217 0.772471
vn -0.031753 -6.282217 -0.068799
v -0.056142 -0.019217 0.770479
vn 0.047317 -6.281773 -0.080583
v -0.048340 -0.019132 0.766708
vn 0.047811 -6.282629 0.033808
v -0.048340 -0.019132 0.780954
vn -0.035149 -6.282798 0.033917
v -0.063917 -0.019132 0.780954
vn -0.034848 -6.281939 -0.080741
v -0.063917 -0.019132 0.766708
vn 0.080431 -6.278286 -0.140021
v -0.048071 -0.019128 0.766548
vn 0.086169 -6.281153 0.057166
v -0.048071 -0.019128 0.781332
vn -0.062463 -6.281770 0.058625
v -0.064281 -0.019128 0.781332
vn -0.058347 -6.278834 -0.142833
v -0.064281 -0.019128 0.766548
vn 0.047707 -6.278023 -0.232170
v -0.042576 -0.018961 0.763129
vn 0.141924 -6.267672 -0.253948
v -0.042125 -0.018947 0.762859
vn 0.051808 -6.281860 0.098894
v -0.042576 -0.018961 0.789138
vn -0.060060 -6.281844 0.078510
v -0.071679 -0.018961 0.789138
vn -0.110612 -6.278809 0.105655
v -0.072277 -0.018947 0.789753
vn -0.104030 -6.269314 -0.258315
v -0.072277 -0.018947 0.762859
vn -0.058473 -6.278655 -0.182456
v -0.071679 -0.018961 0.763129
vn 0.151224 -6.276972 0.103429
v -0.042125 -0.018947 0.789753
vn 0.205004 -6.252596 -0.366141
v -0.041858 -0.018933 0.762698
vn 0.213347 -6.271268 0.150489
v -0.041858 -0.018933 0.790126
vn -0.157453 -6.274742 0.152565
v -0.072635 -0.018933 0.790126
vn -0.151660 -6.255802 -0.370127
v -0.072635 -0.018933 0.762698
vn 0.234067 -6.247019 -0.409649
v -0.041780 -0.018928 0.762652
vn 0.235963 -6.269291 0.172630
v -0.041780 -0.018928 0.790234
vn -0.176312 -6.273257 0.173137
v -0.072740 -0.018928 0.790234
vn -0.175006 -6.250912 -0.410519
v -0.072740 -0.018928 0.762652
vn 0.342926 -6.194116 -0.609209
v -0.041639 -0.018917 0.762571
vn 0.365273 -6.248492 0.240738
v -0.041639 -0.018917 0.790425
vn -0.263552 -6.259434 0.245872
v -0.072928 -0.018917 0.790425
vn -0.248442 -6.203871 -0.620350
v -0.072928 -0.018917 0.762571
vn 0.429492 -6.159653 -0.743433
v -0.041582 -0.018910 0.762538
vn 0.438325 -6.236082 0.301003
v -0.041582 -0.018910 0.790508
vn -0.319866 -6.250811 0.303134
v -0.073005 -0.018910 0.790508
vn -0.314011 -6.173745 -0.747734
v -0.073005 -0.018910 0.762538
vn 0.523097 -6.086952 -0.927762
v -0.041531 -0.018902 0.762508
vn 0.540813 -6.209873 0.368330
v -0.041531 -0.018902 0.790582
vn -0.392409 -6.232987 0.372465
v -0.073075 -0.018902 0.790582
vn -0.380596 -6.108510 -0.936322
v -0.073075 -0.018902 0.762508
vn 0.644974 -6.009025 -1.083158
v -0.041486 -0.018894 0.762482
vn 0.665556 -6.177918 0.427928
v -0.041486 -0.018894 0.790647
vn -0.475160 -6.213877 0.432025
v -0.073138 -0.018894 0.790647
vn -0.462105 -6.042717 -1.093961
v -0.073138 -0.018894 0.762482
vn 0.769337 -5.858586 -1.347895
v -0.041448 -0.018886 0.762461
vn 0.794571 -6.127589 0.524271
v -0.041448 -0.018886 0.790704
vn -0.567683 -6.179827 0.530218
v -0.073190 -0.018886 0.790704
vn -0.551489 -5.907351 -1.359930
v -0.073190 -0.018886 0.762461
vn 0.908617 -5.656939 -1.636784
v -0.041416 -0.018877 0.762443
vn 0.929611 -6.061930 0.648392
v -0.041416 -0.018877 0.790753
vn -0.670624 -6.132688 0.655197
v -0.073235 -0.018877 0.790753
vn -0.663837 -5.716243 -1.659772
v -0.073235 -0.018877 0.762443
vn -0.008686 -5.273810 -3.414762
v -0.020903 0.019079 0.702514
vn 0.057772 -5.300673 -3.370443
v 0.010916 0.019079 0.702514
vn 1.363426 -5.533012 -1.573489
v -0.041389 -0.018868 0.762429
vn -0.117367 -4.875970 -3.895514
v -0.020942 0.019088 0.702501
vn 0.841549 -5.092380 -3.153131
v 0.010944 0.019088 0.702501
vn 1.220900 -5.890792 0.830707
v -0.041389 -0.018868 0.790793
vn -0.936780 -6.000041 0.831163
v -0.073274 -0.018868 0.790793
vn -1.022878 -5.549881 -1.743963
v -0.073274 -0.018868 0.762429
vn -1.442816 -5.368983 -1.909263
v -0.073303 -0.018859 0.762420
vn -0.336852 -4.239384 -4.448749
v -0.020971 0.019098 0.702491
vn 1.383202 -4.467246 -3.045522
v 0.010962 0.019098 0.702491
vn 2.708668 -5.666157 -0.058669
v 0.002537 0.000816 0.813254
vn 2.430060 -5.594312 -1.087324
v -0.041370 -0.018859 0.762420
vn 2.368961 -5.781631 0.304264
v 0.002537 0.000816 0.841617
vn 3.019455 -5.490842 -0.214133
v 0.002556 0.000825 0.813244
vn 0.913116 -5.924404 1.397473
v -0.041370 -0.018859 0.790825
vn -1.107809 -5.871607 1.058888
v -0.073303 -0.018859 0.790825
vn 1.734857 -5.658213 1.008112
v 0.002556 0.000825 0.841649
vn 1.848652 -2.854651 -3.291679
v 0.010977 0.019107 0.702486
vn 3.053639 -5.441560 -0.713332
v -0.041355 -0.018850 0.762414
vn 3.357323 -5.281126 -0.262028
v 0.002570 0.000834 0.813239
vn -0.934471 -2.790992 -4.910059
v -0.020993 0.019107 0.702486
vn 0.118002 -5.892975 2.170528
v -0.041355 -0.018850 0.790848
vn -2.184157 -5.055544 1.235432
v -0.073325 -0.018850 0.790848
vn -2.586073 -4.328519 -1.994109
v -0.073325 -0.018850 0.762414
vn 2.031050 -4.754766 1.860688
v 0.002570 0.000834 0.841672
vn 4.325766 -3.656258 -1.133164
v 0.054902 0.038791 0.753310
vn 4.618780 -3.909149 0.324955
v 0.054902 0.038791 0.781744
vn 5.118740 -1.133726 -1.756808
v 0.054908 0.038802 0.753308
vn 5.158764 -1.740147 1.355083
v 0.054908 0.038802 0.781759
vn 2.289172 -2.970877 3.298372
v 0.002576 0.000845 0.841687
vn -1.795890 -1.426205 -5.189091
v -0.021004 0.019118 0.702484
vn 2.495897 -1.055410 -4.488452
v 0.010982 0.019118 0.702484
vn -0.365013 -5.391203 3.019475
v -0.029400 0.000834 0.841672
vn -1.394327 -3.613953 4.189256
v -0.029411 0.000845 0.841687
vn -3.319671 -3.759908 1.971580
v -0.073336 -0.018839 0.790863
vn -3.957310 -3.042088 -2.243741
v -0.073336 -0.018839 0.762413
vn 4.968352 0.956546 -2.236326
v 0.054908 0.061573 0.753308
vn 2.334417 0.735401 -4.928953
v 0.010982 0.041889 0.702484
vn 4.827542 2.134952 -1.822459
v 0.054907 0.061579 0.753311
vn 6.211059 0.340185 0.404010
v 0.054908 0.061573 0.781759
vn 1.396096 1.871593 -5.417981
v -0.066339 0.173516 0.718331
vn -0.522314 0.250873 -6.202997
v -0.021004 0.041889 0.702484
vn -1.985507 0.876681 -5.156239
v -0.098326 0.173516 0.718331
vn 1.178138 3.626272 -3.808533
v -0.066340 0.173523 0.718334
vn -4.974925 -2.418726 1.646933
v -0.150658 0.112789 0.806710
vn -4.819498 -1.613355 -2.099106
v -0.150658 0.112789 0.778260
vn -4.860354 -1.134042 2.186034
v -0.150661 0.112801 0.806716
vn -5.440831 -0.430147 -1.864633
v -0.150661 0.112801 0.778263
vn -3.007977 -0.466172 -5.035718
v -0.098326 0.150745 0.718331
vn -4.629670 -0.020860 -4.244510
v -0.098329 0.150757 0.718334
vn 5.379524 -0.325586 2.637200
v 0.054907 0.038814 0.781765
vn 2.240942 -1.199005 4.685111
v 0.002575 0.000857 0.841693
vn -1.572023 -2.059023 5.130991
v -0.029414 0.000857 0.841693
vn -3.827171 -2.841194 4.079514
v -0.073339 -0.018827 0.790869
vn 3.595388 2.522591 -4.474200
v 0.010981 0.041895 0.702487
vn 4.840757 1.416394 2.003409
v 0.054907 0.061579 0.781765
vn -2.023613 2.662207 -2.547316
v -0.098329 0.173523 0.718334
vn 2.376102 3.927378 -1.390191
v -0.022415 0.193207 0.769158
vn -0.974660 5.843106 -0.812285
v -0.054403 0.193207 0.769158
vn 1.094132 2.305685 4.421021
v -0.074747 0.155250 0.857541
vn 3.026462 0.441708 5.014944
v 0.002575 0.023623 0.841693
vn -1.764152 2.137225 3.074123
v -0.106735 0.155250 0.857541
vn 0.522314 -0.250872 6.202997
v -0.074747 0.132485 0.857541
vn -1.101430 5.473854 1.342765
v -0.054403 0.193207 0.797612
vn 2.250890 3.545792 1.640893
v -0.022415 0.193207 0.797612
vn -4.450421 1.876675 -1.325986
v -0.150661 0.135566 0.778263
vn -2.336628 -0.801004 4.887516
v -0.106735 0.132485 0.857541
vn -4.249633 2.013586 1.375703
v -0.150661 0.135566 0.806716
vn -3.127180 5.398809 0.162192
v -0.098329 0.173523 0.746788
# 130 vertices, 0 vertices normals

f 1//1 2//2 3//3
f 1//1 3//3 4//4
f 1//1 5//5 2//2
f 1//1 4//4 5//5
f 2//2 5//5 6//6
f 2//2 7//7 8//8
f 2//2 8//8 3//3
f 2//2 6//6 7//7
f 3//3 8//8 4//4
f 5//5 4//4 6//6
f 4//4 8//8 9//9
f 4//4 9//9 6//6
f 7//7 6//6 10//10
f 7//7 11//11 12//12
f 7//7 12//12 8//8
f 7//7 10//10 11//11
f 8//8 12//12 9//9
f 6//6 9//9 10//10
f 9//9 12//12 13//13
f 9//9 13//13 10//10
f 11//11 10//10 14//14
f 11//11 15//15 16//16
f 11//11 16//16 12//12
f 11//11 14//14 15//15
f 12//12 16//16 13//13
f 10//10 13//13 14//14
f 13//13 16//16 17//17
f 13//13 17//17 14//14
f 15//15 14//14 18//18
f 15//15 19//19 20//20
f 15//15 20//20 16//16
f 15//15 18//18 19//19
f 16//16 20//20 17//17
f 14//14 17//17 18//18
f 17//17 20//20 21//21
f 17//17 21//21 22//22
f 17//17 22//22 18//18
f 19//19 18//18 23//23
f 19//19 24//24 25//25
f 19//19 23//23 24//24
f 19//19 25//25 26//26
f 19//19 26//26 20//20
f 20//20 27//27 21//21
f 20//20 26//26 27//27
f 18//18 22//22 28//28
f 18//18 28//28 23//23
f 21//21 27//27 22//22
f 24//24 23//23 28//28
f 24//24 28//28 25//25
f 27//27 26//26 22//22
f 22//22 26//26 29//29
f 22//22 29//29 28//28
f 25//25 28//28 30//30
f 25//25 31//31 32//32
f 25//25 32//32 26//26
f 25//25 30//30 31//31
f 26//26 32//32 29//29
f 28//28 29//29 30//30
f 29//29 32//32 33//33
f 29//29 33//33 30//30
f 31//31 30//30 34//34
f 31//31 35//35 36//36
f 31//31 36//36 32//32
f 31//31 34//34 35//35
f 32//32 36//36 33//33
f 30//30 33//33 34//34
f 33//33 36//36 37//37
f 33//33 37//37 34//34
f 35//35 34//34 38//38
f 35//35 39//39 40//40
f 35//35 40//40 36//36
f 35//35 38//38 39//39
f 36//36 40//40 37//37
f 34//34 37//37 38//38
f 37//37 40//40 41//41
f 37//37 41//41 38//38
f 39//39 38//38 42//42
f 39//39 43//43 44//44
f 39//39 44//44 40//40
f 39//39 42//42 43//43
f 40//40 44//44 41//41
f 38//38 41//41 42//42
f 41//41 44//44 45//45
f 41//41 45//45 42//42
f 43//43 42//42 46//46
f 43//43 47//47 48//48
f 43//43 48//48 44//44
f 43//43 46//46 47//47
f 44//44 48//48 45//45
f 42//42 45//45 46//46
f 45//45 48//48 49//49
f 45//45 49//49 46//46
f 47//47 46//46 50//50
f 47//47 51//51 52//52
f 47//47 52//52 48//48
f 47//47 50//50 51//51
f 48//48 52//52 49//49
f 46//46 49//49 50//50
f 49//49 52//52 53//53
f 49//49 53//53 50//50
f 51//51 50//50 54//54
f 51//51 55//55 56//56
f 51//51 56//56 52//52
f 51//51 54//54 55//55
f 52//52 56//56 53//53
f 50//50 53//53 54//54
f 53//53 56//56 57//57
f 53//53 57//57 54//54
f 55//55 54//54 58//58
f 55//55 59//59 60//60
f 55//55 60//60 56//56
f 55//55 58//58 59//59
f 56//56 60//60 57//57
f 54//54 57//57 58//58
f 57//57 61//61 62//62
f 57//57 62//62 63//63
f 57//57 60//60 61//61
f 57//57 63//63 58//58
f 61//61 60//60 64//64
f 61//61 64//64 65//65
f 61//61 65//65 62//62
f 62//62 65//65 63//63
f 59//59 58//58 66//66
f 59//59 67//67 68//68
f 59//59 68//68 60//60
f 59//59 66//66 67//67
f 60//60 68//68 64//64
f 58//58 63//63 66//66
f 64//64 68//68 69//69
f 64//64 70//70 71//71
f 64//64 71//71 65//65
f 64//64 69//69 70//70
f 72//72 63//63 73//73
f 72//72 74//74 66//66
f 72//72 66//66 63//63
f 72//72 73//73 75//75
f 72//72 75//75 74//74
f 63//63 65//65 71//71
f 63//63 71//71 73//73
f 67//67 66//66 76//76
f 67//67 77//77 69//69
f 67//67 69//69 68//68
f 67//67 76//76 77//77
f 74//74 75//75 78//78
f 74//74 78//78 76//76
f 74//74 76//76 66//66
f 73//73 71//71 79//79
f 73//73 80//80 81//81
f 73//73 81//81 75//75
f 73//73 79//79 80//80
f 75//75 81//81 78//78
f 70//70 69//69 82//82
f 70//70 82//82 79//79
f 70//70 79//79 71//71
f 77//77 76//76 83//83
f 77//77 84//84 85//85
f 77//77 85//85 69//69
f 77//77 83//83 84//84
f 78//78 81//81 86//86
f 78//78 86//86 76//76
f 69//69 85//85 82//82
f 76//76 86//86 83//83
f 80//80 79//79 87//87
f 80//80 87//87 81//81
f 88//88 81//81 87//87
f 88//88 86//86 81//81
f 88//88 87//87 89//89
f 88//88 90//90 91//91
f 88//88 91//91 86//86
f 88//88 89//89 90//90
f 82//82 85//85 92//92
f 82//82 92//92 93//93
f 82//82 93//93 79//79
f 94//94 84//84 83//83
f 94//94 86//86 91//91
f 94//94 83//83 86//86
f 94//94 95//95 96//96
f 94//94 96//96 84//84
f 94//94 91//91 95//95
f 79//79 93//93 87//87
f 84//84 96//96 97//97
f 84//84 97//97 85//85
f 87//87 93//93 89//89
f 85//85 97//97 92//92
f 98//98 90//90 89//89
f 98//98 99//99 100//100
f 98//98 101//101 90//90
f 98//98 89//89 99//99
f 98//98 100//100 101//101
f 102//102 103//103 104//104
f 102//102 99//99 103//103
f 102//102 104//104 105//105
f 102//102 105//105 99//99
f 106//106 107//107 96//96
f 106//106 96//96 108//108
f 106//106 108//108 109//109
f 106//106 109//109 107//107
f 110//110 92//92 97//97
f 110//110 103//103 92//92
f 110//110 107//107 109//109
f 110//110 97//97 107//107
f 110//110 104//104 103//103
f 110//110 111//111 104//104
f 110//110 109//109 111//111
f 90//90 101//101 112//112
f 90//90 112//112 91//91
f 92//92 103//103 93//93
f 95//95 91//91 113//113
f 95//95 114//114 96//96
f 95//95 113//113 114//114
f 103//103 99//99 93//93
f 93//93 99//99 89//89
f 107//107 97//97 96//96
f 96//96 114//114 115//115
f 96//96 115//115 108//108
f 91//91 112//112 113//113
f 99//99 105//105 116//116
f 99//99 116//116 100//100
f 101//101 100//100 117//117
f 101//101 117//117 112//112
f 104//104 111//111 118//118
f 104//104 118//118 105//105
f 100//100 119//119 117//117
f 100//100 116//116 119//119
f 105//105 120//120 119//119
f 105//105 119//119 116//116
f 105//105 118//118 120//120
f 121//121 122//122 117//117
f 121//121 123//123 124//124
f 121//121 125//125 123//123
f 121//121 126//126 125//125
f 121//121 117//117 126//126
f 121//121 124//124 122//122
f 108//108 127//127 109//109
f 108//108 114//114 128//128
f 108//108 115//115 114//114
f 108//108 128//128 129//129
f 108//108 129//129 127//127
f 122//122 112//112 117//117
f 122//122 113//113 112//112
f 122//122 124//124 113//113
f 111//111 127//127 118//118
f 111//111 109//109 127//127
f 127//127 130//130 118//118
f 127//127 129//129 130//130
f 114//114 113//113 124//124
f 114//114 124//124 128//128
f 123//123 125//125 129//129
f 123//123 128//128 124//124
f 123//123 129//129 128//128
f 120//120 125//125 119//119
f 120//120 130//130 125//125
f 120//120 118//118 130//130
f 125//125 126//126 119//119
f 125//125 130//130 129//129
f 119//119 126//126 117//117
# 256 faces, 0 coords texture

# End of File
