####
#
# OBJ File Generated by Meshlab
#
####
# Object zonopy_mesh_step3_link2.obj
#
# Vertices: 62
# Faces: 120
#
####
vn 0.662368 -4.807941 -2.570466
v 0.054064 -0.206551 0.375791
vn -1.721902 -4.233093 -1.879188
v 0.053876 -0.206551 0.375791
vn 0.424780 -2.123667 -5.385320
v -0.025857 -0.017573 0.213275
vn 2.809777 -3.643182 -3.215079
v 0.140928 -0.168079 0.375791
vn 1.216146 -5.649209 -1.422003
v 0.065300 -0.206657 0.384348
vn -2.788585 -4.529652 -0.264622
v 0.051985 -0.206657 0.384348
vn -2.347236 -1.488776 -2.818092
v -0.039185 -0.017573 0.213275
vn 3.525646 -3.566153 -2.389231
v 0.150876 -0.165399 0.384348
vn 1.746019 -5.690659 -0.902428
v 0.065309 -0.206656 0.384355
vn 2.507207 -0.862724 -4.359605
v 0.059716 0.023688 0.213275
vn -0.335325 4.220352 4.610811
v 0.021152 0.090584 0.293683
vn 0.155930 4.354262 4.515682
v 0.034467 0.090584 0.293683
vn 1.489202 4.683507 2.910375
v 0.034471 0.090588 0.293678
vn -0.943807 4.701587 3.363763
v 0.021146 0.090588 0.293678
vn -0.431013 2.178187 5.329306
v 0.112316 -0.098490 0.464761
vn -2.288074 -5.230284 0.091296
v 0.051985 -0.206657 0.393427
vn 0.193713 -6.270030 0.123898
v 0.065300 -0.206657 0.393427
vn -5.177455 -3.448109 -0.030478
v 0.051984 -0.206656 0.384355
vn -2.622394 -4.405092 0.626782
v 0.051984 -0.206656 0.393439
vn -2.566767 3.357193 4.457182
v -0.064424 0.049326 0.293683
vn -3.595382 2.697108 2.322585
v -0.064428 0.049328 0.293679
vn -3.410536 0.654771 4.390438
v 0.026741 -0.139753 0.464760
vn -1.486683 1.573196 5.331057
v 0.026742 -0.139752 0.464761
vn 3.908125 -2.950334 -1.740465
v 0.150883 -0.165396 0.384355
vn 1.034936 -5.945053 0.631124
v 0.065309 -0.206656 0.393439
vn 2.026269 2.086307 3.511961
v 0.125641 -0.098490 0.464761
vn 2.528760 4.310349 0.739758
v 0.034472 0.090589 0.293675
vn -1.405855 5.476480 1.268465
v 0.021144 0.090589 0.293675
vn -2.801643 -3.623772 2.064335
v 0.026742 -0.154302 0.464756
vn -1.721385 -4.937304 2.277767
v 0.051985 -0.206654 0.393446
vn 0.359807 -4.856314 3.926979
v 0.040066 -0.154302 0.464756
vn -2.296288 -1.737875 2.965741
v 0.026741 -0.154298 0.464760
vn -5.730431 -1.046077 0.980384
v -0.064430 0.034782 0.293675
vn 3.286219 -5.192577 0.451143
v 0.150883 -0.165396 0.393439
vn 4.960543 -1.868590 -1.000025
v 0.150887 -0.165392 0.384361
vn 3.853865 -2.459540 1.493633
v 0.150887 -0.165392 0.393446
vn 1.454757 -5.093678 2.029198
v 0.065313 -0.206654 0.393446
vn 2.622424 -5.705153 -0.085731
v 0.065313 -0.206654 0.384361
vn -5.836078 -1.067447 -0.726191
v -0.064430 0.034782 0.284590
vn 2.348259 -4.132528 4.077430
v 0.125641 -0.113042 0.464756
vn 2.746067 -1.133725 3.792637
v 0.125642 -0.113037 0.464760
vn 0.672071 -2.712285 4.883539
v 0.040069 -0.154298 0.464760
vn -3.182376 3.439721 -3.861730
v -0.039186 -0.003025 0.213278
vn -3.691945 2.511673 -1.314544
v -0.064430 0.049328 0.284590
vn -1.211066 5.124614 -1.757479
v 0.021144 0.090589 0.284590
vn -0.528830 2.587032 -4.778777
v 0.046389 0.038234 0.213275
vn -2.625840 0.978528 -3.835834
v -0.039185 -0.003028 0.213275
vn -5.656543 -0.073988 2.718047
v -0.064428 0.034786 0.293679
vn -4.250348 2.471156 0.803508
v -0.064430 0.049328 0.293675
vn 2.213836 4.128522 -1.094079
v 0.034472 0.090589 0.284590
vn 5.687705 0.941514 -1.132596
v 0.150887 -0.150847 0.384361
vn 2.119051 1.724379 -2.711119
v 0.059716 0.038234 0.213275
vn 5.765406 2.482117 -0.015946
v 0.150886 -0.150846 0.384365
vn 6.032717 0.926399 0.419161
v 0.150887 -0.150847 0.393446
vn -0.000001 -0.000004 -6.283185
v 0.046389 0.023688 0.213275
vn -0.696420 -0.158880 6.178325
v 0.026742 -0.154294 0.464761
vn 5.971967 -0.172663 1.841868
v 0.150886 -0.165388 0.393447
vn 3.698259 1.160446 2.879998
v 0.125642 -0.098492 0.464760
vn 0.817643 -0.088591 6.164559
v 0.125641 -0.113032 0.464761
vn 0.065799 -0.287127 6.268902
v 0.040068 -0.154294 0.464761
vn 5.816773 1.255238 0.945455
v 0.150886 -0.150846 0.393447
vn 0.000001 0.000004 6.283185
v 0.040068 -0.139752 0.464761
# 62 vertices, 0 vertices normals

f 1//1 2//2 3//3
f 1//1 4//4 5//5
f 1//1 5//5 6//6
f 1//1 6//6 2//2
f 1//1 3//3 4//4
f 2//2 6//6 7//7
f 2//2 7//7 3//3
f 4//4 8//8 9//9
f 4//4 9//9 5//5
f 4//4 3//3 10//10
f 4//4 10//10 8//8
f 11//11 12//12 13//13
f 11//11 14//14 15//15
f 11//11 13//13 14//14
f 11//11 15//15 12//12
f 5//5 16//16 6//6
f 5//5 17//17 16//16
f 5//5 9//9 17//17
f 6//6 16//16 18//18
f 6//6 18//18 7//7
f 16//16 17//17 19//19
f 16//16 19//19 18//18
f 20//20 14//14 21//21
f 20//20 21//21 22//22
f 20//20 22//22 23//23
f 20//20 15//15 14//14
f 20//20 23//23 15//15
f 8//8 24//24 9//9
f 8//8 10//10 24//24
f 17//17 9//9 25//25
f 17//17 25//25 19//19
f 12//12 15//15 26//26
f 12//12 26//26 13//13
f 14//14 13//13 27//27
f 14//14 28//28 21//21
f 14//14 27//27 28//28
f 29//29 19//19 30//30
f 29//29 31//31 32//32
f 29//29 32//32 33//33
f 29//29 30//30 31//31
f 29//29 33//33 19//19
f 34//34 24//24 35//35
f 34//34 36//36 37//37
f 34//34 38//38 24//24
f 34//34 35//35 36//36
f 34//34 37//37 38//38
f 9//9 24//24 38//38
f 9//9 38//38 25//25
f 18//18 19//19 33//33
f 18//18 39//39 7//7
f 18//18 33//33 39//39
f 40//40 36//36 41//41
f 40//40 41//41 42//42
f 40//40 42//42 37//37
f 40//40 37//37 36//36
f 43//43 44//44 45//45
f 43//43 46//46 47//47
f 43//43 47//47 44//44
f 43//43 45//45 46//46
f 19//19 25//25 30//30
f 48//48 21//21 49//49
f 48//48 32//32 22//22
f 48//48 22//22 21//21
f 48//48 33//33 32//32
f 48//48 49//49 33//33
f 31//31 30//30 37//37
f 31//31 42//42 32//32
f 31//31 37//37 42//42
f 21//21 28//28 49//49
f 24//24 10//10 35//35
f 13//13 26//26 27//27
f 25//25 38//38 37//37
f 25//25 37//37 30//30
f 28//28 44//44 49//49
f 28//28 50//50 45//45
f 28//28 45//45 44//44
f 28//28 27//27 50//50
f 51//51 36//36 35//35
f 51//51 10//10 52//52
f 51//51 52//52 53//53
f 51//51 35//35 10//10
f 51//51 54//54 36//36
f 51//51 53//53 54//54
f 3//3 55//55 10//10
f 3//3 7//7 55//55
f 44//44 39//39 33//33
f 44//44 47//47 39//39
f 44//44 33//33 49//49
f 32//32 42//42 56//56
f 32//32 56//56 22//22
f 36//36 54//54 57//57
f 36//36 57//57 41//41
f 10//10 46//46 52//52
f 10//10 55//55 46//46
f 46//46 55//55 47//47
f 46//46 50//50 52//52
f 46//46 45//45 50//50
f 55//55 7//7 47//47
f 39//39 47//47 7//7
f 41//41 58//58 59//59
f 41//41 59//59 60//60
f 41//41 60//60 42//42
f 41//41 57//57 61//61
f 41//41 61//61 58//58
f 22//22 56//56 23//23
f 50//50 27//27 53//53
f 50//50 53//53 52//52
f 58//58 27//27 26//26
f 58//58 26//26 59//59
f 58//58 61//61 27//27
f 42//42 60//60 56//56
f 27//27 61//61 53//53
f 54//54 53//53 61//61
f 54//54 61//61 57//57
f 59//59 62//62 60//60
f 59//59 26//26 62//62
f 15//15 62//62 26//26
f 15//15 23//23 62//62
f 60//60 62//62 23//23
f 60//60 23//23 56//56
# 120 faces, 0 coords texture

# End of File
