####
#
# OBJ File Generated by Meshlab
#
####
# Object matlab_mesh_step16_link3.obj
#
# Vertices: 185
# Faces: 366
#
####
vn 4.097800 -3.724554 2.903544
v 0.262726 0.363341 1.002402
vn 1.296464 -4.971650 1.158908
v 0.142456 0.182100 0.918881
vn 2.141503 -4.622655 0.620954
v 0.194889 0.181564 0.848237
vn 4.580936 -3.263769 2.728794
v 0.263355 0.363935 1.002172
vn 3.838639 -0.484880 3.658856
v 0.263218 0.364320 1.002794
vn 2.485486 -2.287095 4.472372
v 0.262590 0.363726 1.003024
vn 3.660312 -3.941681 3.247027
v 0.142320 0.182485 0.919503
vn 2.373178 -4.933801 2.433808
v 0.130275 0.183800 0.934627
vn -1.451465 -5.729263 0.067763
v 0.130674 0.183060 0.929449
vn -1.030053 -5.920572 -1.336851
v 0.191201 0.182267 0.844916
vn 1.116877 -4.792132 2.328202
v 0.130260 0.183802 0.934644
vn 5.259821 -0.989972 -0.754746
v 0.317320 0.369786 0.911806
vn 5.703449 -1.691312 0.676712
v 0.317231 0.369653 0.912222
vn 5.059631 -3.693256 -0.145996
v 0.198476 0.186637 0.839834
vn 5.981468 1.009747 1.230751
v 0.317183 0.370171 0.912428
vn 4.955265 -3.329070 -1.265092
v 0.201686 0.192152 0.822358
vn 5.160407 -2.499344 -2.460428
v 0.205165 0.200727 0.820309
vn 5.024648 -3.735163 -0.257723
v 0.199372 0.188177 0.834774
vn 5.860740 1.796771 0.946321
v 0.313500 0.391589 0.900974
vn 5.529504 -0.123762 -1.929343
v 0.313162 0.392582 0.896168
vn 5.637844 2.120958 0.734785
v 0.313496 0.391615 0.900947
vn 4.285117 -1.399812 -3.821539
v 0.205168 0.200738 0.820306
vn 5.207880 -2.098106 1.378927
v 0.317006 0.369314 0.913242
vn 5.961499 0.835486 1.563098
v 0.317095 0.370038 0.912844
vn 5.317965 -0.547002 2.291110
v 0.316870 0.369699 0.913864
vn 2.454424 -4.769047 -0.349150
v 0.194892 0.181566 0.848224
vn 3.140619 0.929860 4.852707
v 0.244527 0.386081 1.012192
vn 0.699789 -1.154722 5.902083
v 0.241609 0.381551 1.012646
vn 0.298883 -2.381158 5.798405
v 0.238253 0.375682 1.010488
vn -1.092475 -3.850070 3.154809
v 0.130236 0.183812 0.934661
vn -0.206380 -4.227880 2.670411
v 0.130247 0.183806 0.934655
vn 4.433934 3.467019 1.718640
v 0.312622 0.390643 0.905556
vn 4.429709 3.436868 1.859748
v 0.311725 0.389104 0.910616
vn 5.476330 1.246247 2.469003
v 0.309146 0.383854 0.925769
vn 5.841554 1.801592 1.450146
v 0.313502 0.391557 0.901006
vn 3.770793 3.483588 3.059681
v 0.248885 0.385921 1.007564
vn 4.277369 1.887366 4.190095
v 0.244554 0.386055 1.012177
vn 5.131301 1.970185 2.621083
v 0.309136 0.383868 0.925782
vn 4.471585 3.177714 2.716500
v 0.309125 0.383880 0.925790
vn -3.024354 -5.090043 -2.102322
v 0.040930 0.261741 0.861176
vn -3.011014 -5.079981 -2.144379
v 0.101457 0.260948 0.776644
vn -2.981292 -5.122152 -2.086595
v 0.100561 0.259409 0.781704
vn -3.052266 -5.108395 -2.013284
v 0.040034 0.260202 0.866236
vn -3.143181 -5.018273 -2.097157
v 0.020850 0.274599 0.859374
vn -2.989274 -5.053283 -2.235586
v 0.103771 0.264924 0.764228
vn -1.378571 -2.062647 -4.174651
v 0.088650 0.277954 0.755278
vn -2.914104 -5.094314 -2.241825
v 0.108144 0.262379 0.764228
vn -1.459584 -2.541245 -4.273318
v 0.110473 0.265087 0.755278
vn -2.953526 -5.114576 -2.142865
v 0.105830 0.258403 0.776644
vn -3.151537 -4.971471 -2.193454
v 0.024001 0.280199 0.841695
vn -3.142490 -4.965192 -2.221942
v 0.086251 0.278038 0.758485
vn -3.041508 -5.119944 -2.000705
v 0.041615 0.258815 0.867381
vn -3.107429 -5.254029 -1.044169
v 0.122477 0.187895 0.925943
vn -3.180214 -5.070130 -1.901330
v 0.019634 0.272437 0.866581
vn -2.981282 -5.122168 -2.086569
v 0.044407 0.257657 0.866236
vn -0.043821 -0.000153 0.060323
v 0.045988 0.256270 0.867381
vn -3.276722 -5.185950 -1.016158
v 0.107277 0.197167 0.925943
vn -2.685711 -2.531656 2.520364
v 0.097072 0.203090 0.935618
vn -3.699638 -5.013951 -0.804694
v 0.096733 0.204079 0.930849
vn -4.453371 -0.933089 -0.279326
v 0.014569 0.275315 0.867545
vn -4.545679 -3.233256 -1.492702
v 0.014571 0.275316 0.867537
vn -2.804488 -5.385479 -1.125298
v 0.126850 0.185350 0.925943
vn -3.169894 -5.421019 0.084588
v 0.126301 0.185605 0.929449
vn -2.981269 -5.122166 -2.086592
v 0.104933 0.256864 0.781704
vn -2.062040 -5.296099 -2.473979
v 0.190587 0.190072 0.823935
vn -2.237387 -5.421904 -2.100692
v 0.188273 0.186096 0.836351
vn -2.946389 -5.122174 -2.134715
v 0.186692 0.187483 0.835206
vn -2.879999 -5.121387 -2.225445
v 0.189006 0.191458 0.822790
vn -0.212763 -2.183795 -3.923574
v 0.116751 0.261554 0.755278
vn -1.071749 -5.805636 -2.102259
v 0.194411 0.187782 0.827441
vn 0.682795 -5.108366 -2.154462
v 0.198910 0.190300 0.818604
vn -2.280489 -5.470182 -1.913221
v 0.187377 0.184557 0.841411
vn -2.981262 -5.122175 -2.086579
v 0.185796 0.185943 0.840266
vn -0.980224 -5.850014 -1.977195
v 0.192097 0.183807 0.839856
vn -0.445105 -0.716545 6.224427
v 0.222036 0.393368 1.012646
vn -0.426873 -0.729850 6.221951
v 0.237237 0.384096 1.012646
vn 0.212145 2.203625 3.905886
v 0.211301 0.405412 1.013167
vn -2.083162 -0.346284 5.532960
v 0.205047 0.394984 1.011451
vn -0.158662 -0.270850 6.267463
v 0.233123 0.392545 1.013167
vn -0.781672 -1.349788 6.064660
v 0.226877 0.382112 1.011451
vn 2.813111 1.340801 4.757243
v 0.244504 0.386103 1.012202
vn 2.369453 1.984009 4.513902
v 0.244483 0.386121 1.012209
vn -0.031698 -2.223553 5.874362
v 0.238229 0.375694 1.010493
vn 0.868002 0.068167 6.170824
v 0.239404 0.389009 1.013167
vn -0.498149 -1.635161 5.996627
v 0.233151 0.378582 1.011451
vn 1.438284 2.159812 4.307792
v 0.239402 0.389012 1.013167
vn 2.981249 5.122184 2.086578
v 0.151660 0.474174 0.931527
vn 2.981269 5.122166 2.086592
v 0.232522 0.403253 0.990089
vn 2.981287 5.122166 2.086567
v 0.293049 0.402460 0.905556
vn 2.884299 5.348300 1.306505
v 0.210605 0.474767 0.845849
vn 2.607268 5.349802 1.957921
v 0.150079 0.475560 0.930382
vn 2.611128 5.292429 2.115089
v 0.149183 0.474021 0.935442
vn 2.946402 5.122164 2.134723
v 0.150764 0.472634 0.936587
vn 2.953530 5.114577 2.142858
v 0.231626 0.401714 0.995149
vn 2.981292 5.122152 2.086595
v 0.236895 0.400708 0.990089
vn 2.914139 5.121361 2.178290
v 0.291468 0.403847 0.904411
vn 3.065427 5.103979 2.003193
v 0.297421 0.399915 0.905556
vn 3.051114 5.119313 1.986680
v 0.295840 0.401302 0.904411
vn 2.188661 5.574807 1.870821
v 0.133528 0.484393 0.924999
vn 2.064791 5.551518 2.082023
v 0.132312 0.482233 0.932200
vn 3.094322 5.252642 1.266866
v 0.214978 0.472222 0.845849
vn 3.090799 5.455155 0.188963
v 0.204095 0.479622 0.833784
vn 2.381137 5.599196 1.565498
v 0.198170 0.482152 0.838581
vn 0.796394 5.790071 1.605048
v 0.133507 0.484411 0.924970
vn 2.235907 5.716942 1.177711
v 0.198155 0.482166 0.838553
vn 1.792786 5.663175 -0.200432
v 0.197816 0.483154 0.833784
vn 2.893796 5.121814 2.206918
v 0.148450 0.468659 0.949002
vn 2.922366 5.068926 2.286073
v 0.229312 0.397738 1.007564
vn 2.482293 5.205621 2.428798
v 0.146869 0.470045 0.947857
vn 3.013833 5.077714 2.145637
v 0.235998 0.399169 0.995149
vn 2.981969 5.016155 2.321106
v 0.233685 0.395193 1.007564
vn 1.445916 2.553426 4.263509
v 0.217580 0.401879 1.013167
vn 1.330768 4.958325 3.245760
v 0.129163 0.476637 0.949865
vn 2.184271 5.154594 2.846707
v 0.129203 0.476615 0.949874
vn 3.181390 5.110660 1.796235
v 0.311041 0.392030 0.904411
vn 3.038447 5.078691 2.108795
v 0.296525 0.398376 0.910616
vn 5.097124 3.063566 0.842405
v 0.313489 0.391636 0.900925
vn 4.241660 4.252387 0.989524
v 0.313481 0.391651 0.900908
vn 3.380389 5.107424 1.132668
v 0.230178 0.462950 0.845849
vn 2.815292 2.569291 -2.492334
v 0.230980 0.463876 0.832828
vn 2.810590 4.789488 -1.769295
v 0.209157 0.476743 0.832828
vn 4.330018 3.342311 -1.285641
v 0.313142 0.392639 0.896140
vn 4.231987 3.482098 -1.573992
v 0.310921 0.394564 0.894429
vn 3.088700 5.021617 2.172688
v 0.251199 0.389897 0.995149
vn 4.078938 4.075222 2.098899
v 0.309411 0.385128 0.923031
vn 3.741493 4.342526 2.539351
v 0.309114 0.383888 0.925793
vn 2.999213 3.998235 3.647730
v 0.244465 0.386133 1.012210
vn -2.093890 -3.590531 3.081051
v 0.118895 0.190223 0.935618
vn -0.700500 -5.898252 -2.044169
v 0.198903 0.190296 0.818618
vn -0.210507 -5.973172 -1.918788
v 0.195767 0.184726 0.836197
vn -1.743448 -3.614877 3.237031
v 0.125174 0.186690 0.935618
vn 1.072977 -5.802380 -1.600784
v 0.195768 0.184720 0.836218
vn -0.214065 -6.005105 -1.833663
v 0.194557 0.182576 0.843363
vn 0.937184 -5.878660 -1.517166
v 0.194556 0.182565 0.843399
vn 0.456862 -6.092495 -1.346080
v 0.194553 0.182558 0.843429
vn 3.609988 -4.838680 -1.011794
v 0.199252 0.189313 0.823389
vn 1.667545 -3.829597 -2.638344
v 0.198914 0.190305 0.818594
vn 3.492938 -4.900955 -0.884142
v 0.196106 0.183724 0.841032
vn 2.766574 -2.653668 -3.933324
v 0.198915 0.190311 0.818590
vn 5.133424 0.476679 -2.119118
v 0.313157 0.392607 0.896153
vn 4.528878 1.423896 -2.181357
v 0.313150 0.392626 0.896143
vn 0.488964 5.792119 1.873350
v 0.132290 0.482249 0.932176
vn 2.004111 5.784691 1.349013
v 0.195756 0.482250 0.841760
vn -1.210532 3.328955 3.096547
v 0.129139 0.476649 0.949855
vn -1.382619 2.735811 4.872490
v 0.131360 0.474724 0.951566
vn 2.066614 0.344058 -5.534510
v 0.123005 0.271982 0.756994
vn -3.477367 0.584834 5.170654
v 0.125106 0.464296 0.949850
vn -3.846350 -2.378379 2.315394
v 0.017131 0.272402 0.874017
vn -3.199921 1.030945 5.308093
v 0.211292 0.405415 1.013162
vn -4.066802 1.163511 4.385464
v 0.122885 0.466221 0.948139
vn -4.026931 -1.285335 1.720002
v 0.014910 0.274328 0.872306
vn -4.520396 -1.068252 0.435093
v 0.014908 0.274330 0.872298
vn -3.148657 3.827921 2.084089
v 0.129131 0.476651 0.949845
vn -5.083004 2.292819 2.357978
v 0.122880 0.466226 0.948129
vn 1.316838 6.035533 1.068513
v 0.133167 0.485399 0.920202
vn -2.007215 4.252811 -0.395418
v 0.133161 0.485401 0.920197
vn -0.776589 5.920735 1.309056
v 0.133500 0.484416 0.924949
vn -1.637359 5.811483 1.507412
v 0.132283 0.482253 0.932159
vn 1.613748 5.979694 1.051940
v 0.195417 0.483238 0.836991
vn -4.410620 -3.372641 -2.096424
v 0.018939 0.283078 0.842652
vn -3.951061 -3.633542 -2.861426
v 0.081188 0.280916 0.759442
vn -4.575354 -3.167995 -1.782774
v 0.015788 0.277478 0.860331
vn -3.194933 -0.774807 -3.136985
v 0.083587 0.280833 0.756235
vn 0.220526 0.382907 -6.251953
v 0.094929 0.274421 0.755278
vn 0.588021 1.359294 -6.065039
v 0.094904 0.288382 0.756994
vn -1.344685 -1.004389 -5.374511
v 0.088634 0.277966 0.755279
vn 0.731653 1.269835 -6.079341
v 0.101182 0.284849 0.756994
vn 2.845694 5.068905 -1.736466
v 0.202879 0.480276 0.832828
vn 1.873790 3.306548 -4.428521
v 0.209138 0.476753 0.832826
vn 1.663361 3.610420 -3.565196
v 0.202857 0.480287 0.832826
vn 0.148904 1.564564 -6.024713
v 0.094885 0.288391 0.756995
vn 2.054013 3.162705 -4.341820
v 0.230970 0.463881 0.832826
vn -4.452127 0.305739 -1.958860
v 0.018939 0.283080 0.842650
vn -5.694420 0.772675 -0.734314
v 0.015786 0.277478 0.860336
vn -3.373908 3.205480 -4.008171
v 0.089841 0.291261 0.757951
vn -1.526788 2.268728 -5.276938
v 0.089842 0.291258 0.757949
vn -4.703064 3.311678 -2.109213
v 0.025190 0.293505 0.844365
vn -2.125092 0.245094 -5.063410
v 0.083591 0.280834 0.756233
vn -0.401441 3.692923 -2.544276
v 0.197813 0.483154 0.833780
vn -1.983912 4.919441 -1.612173
v 0.195413 0.483238 0.836988
vn -5.455620 3.011968 0.537955
v 0.122541 0.467212 0.943376
vn -3.802095 4.473800 0.703948
v 0.131944 0.483239 0.927406
vn -4.005882 4.257874 0.887116
v 0.128792 0.477636 0.945092
vn -5.357428 3.224744 -0.381372
v 0.126910 0.474977 0.918481
vn -5.434075 3.152865 0.029502
v 0.125693 0.472814 0.925690
# 185 vertices, 0 vertices normals

f 1//1 2//2 3//3
f 1//1 4//4 5//5
f 1//1 6//6 2//2
f 1//1 5//5 6//6
f 1//1 3//3 4//4
f 2//2 6//6 7//7
f 2//2 7//7 8//8
f 2//2 9//9 10//10
f 2//2 10//10 3//3
f 2//2 8//8 11//11
f 2//2 11//11 9//9
f 12//12 13//13 14//14
f 12//12 15//15 13//13
f 12//12 16//16 17//17
f 12//12 18//18 16//16
f 12//12 14//14 18//18
f 12//12 19//19 15//15
f 12//12 20//20 21//21
f 12//12 21//21 19//19
f 12//12 17//17 22//22
f 12//12 22//22 20//20
f 13//13 23//23 14//14
f 13//13 15//15 24//24
f 13//13 24//24 23//23
f 4//4 23//23 5//5
f 4//4 3//3 23//23
f 23//23 24//24 25//25
f 23//23 25//25 5//5
f 23//23 26//26 14//14
f 23//23 3//3 26//26
f 6//6 5//5 27//27
f 6//6 28//28 29//29
f 6//6 8//8 7//7
f 6//6 27//27 28//28
f 6//6 29//29 30//30
f 6//6 11//11 8//8
f 6//6 31//31 11//11
f 6//6 30//30 31//31
f 15//15 32//32 33//33
f 15//15 33//33 34//34
f 15//15 35//35 32//32
f 15//15 19//19 35//35
f 15//15 34//34 24//24
f 24//24 34//34 25//25
f 5//5 25//25 34//34
f 5//5 36//36 37//37
f 5//5 37//37 27//27
f 5//5 34//34 38//38
f 5//5 38//38 39//39
f 5//5 39//39 36//36
f 40//40 41//41 42//42
f 40//40 43//43 44//44
f 40//40 42//42 43//43
f 40//40 44//44 41//41
f 45//45 41//41 46//46
f 45//45 47//47 41//41
f 45//45 46//46 48//48
f 45//45 48//48 47//47
f 41//41 47//47 49//49
f 41//41 49//49 42//42
f 41//41 50//50 51//51
f 41//41 44//44 50//50
f 41//41 51//51 46//46
f 52//52 53//53 54//54
f 52//52 43//43 55//55
f 52//52 56//56 53//53
f 52//52 55//55 56//56
f 52//52 54//54 43//43
f 57//57 53//53 58//58
f 57//57 58//58 59//59
f 57//57 54//54 53//53
f 57//57 59//59 60//60
f 57//57 61//61 54//54
f 57//57 60//60 61//61
f 53//53 56//56 62//62
f 53//53 62//62 63//63
f 53//53 63//63 58//58
f 43//43 42//42 64//64
f 43//43 64//64 55//55
f 43//43 54//54 44//44
f 42//42 49//49 64//64
f 65//65 66//66 67//67
f 65//65 68//68 69//69
f 65//65 67//67 68//68
f 65//65 70//70 66//66
f 65//65 71//71 70//70
f 65//65 69//69 71//71
f 66//66 72//72 73//73
f 66//66 73//73 67//67
f 66//66 70//70 74//74
f 66//66 74//74 72//72
f 47//47 68//68 49//49
f 47//47 48//48 69//69
f 47//47 69//69 68//68
f 49//49 68//68 67//67
f 49//49 67//67 73//73
f 49//49 73//73 64//64
f 56//56 55//55 62//62
f 62//62 72//72 10//10
f 62//62 55//55 73//73
f 62//62 73//73 72//72
f 62//62 9//9 63//63
f 62//62 10//10 9//9
f 72//72 74//74 10//10
f 55//55 64//64 73//73
f 75//75 76//76 77//77
f 75//75 78//78 76//76
f 75//75 77//77 78//78
f 76//76 28//28 79//79
f 76//76 80//80 28//28
f 76//76 78//78 80//80
f 76//76 79//79 77//77
f 28//28 27//27 81//81
f 28//28 81//81 82//82
f 28//28 83//83 29//29
f 28//28 82//82 84//84
f 28//28 80//80 85//85
f 28//28 85//85 83//83
f 28//28 84//84 86//86
f 28//28 86//86 79//79
f 87//87 88//88 89//89
f 87//87 89//89 90//90
f 87//87 91//91 92//92
f 87//87 90//90 91//91
f 87//87 93//93 88//88
f 87//87 92//92 93//93
f 88//88 93//93 94//94
f 88//88 94//94 95//95
f 88//88 95//95 89//89
f 89//89 96//96 90//90
f 89//89 95//95 97//97
f 89//89 97//97 98//98
f 89//89 98//98 96//96
f 91//91 90//90 99//99
f 91//91 99//99 100//100
f 91//91 100//100 92//92
f 90//90 96//96 101//101
f 90//90 101//101 102//102
f 90//90 103//103 104//104
f 90//90 104//104 99//99
f 90//90 105//105 103//103
f 90//90 106//106 105//105
f 90//90 102//102 106//106
f 96//96 98//98 101//101
f 93//93 107//107 108//108
f 93//93 108//108 94//94
f 93//93 92//92 109//109
f 93//93 109//109 107//107
f 107//107 109//109 77//77
f 107//107 77//77 108//108
f 94//94 108//108 110//110
f 94//94 110//110 95//95
f 108//108 111//111 110//110
f 108//108 77//77 112//112
f 108//108 112//112 111//111
f 92//92 100//100 113//113
f 92//92 113//113 109//109
f 109//109 114//114 77//77
f 109//109 113//113 114//114
f 95//95 110//110 97//97
f 97//97 32//32 115//115
f 97//97 115//115 98//98
f 97//97 110//110 116//116
f 97//97 116//116 32//32
f 32//32 116//116 33//33
f 32//32 35//35 19//19
f 32//32 19//19 21//21
f 32//32 21//21 117//117
f 32//32 117//117 118//118
f 32//32 118//118 115//115
f 101//101 119//119 120//120
f 101//101 98//98 119//119
f 101//101 121//121 102//102
f 101//101 120//120 121//121
f 119//119 98//98 115//115
f 119//119 115//115 118//118
f 119//119 118//118 122//122
f 119//119 122//122 123//123
f 119//119 123//123 120//120
f 110//110 124//124 116//116
f 110//110 111//111 124//124
f 124//124 111//111 36//36
f 124//124 36//36 33//33
f 124//124 33//33 116//116
f 111//111 112//112 86//86
f 111//111 86//86 36//36
f 36//36 125//125 33//33
f 36//36 27//27 37//37
f 36//36 81//81 27//27
f 36//36 82//82 81//81
f 36//36 39//39 126//126
f 36//36 127//127 82//82
f 36//36 126//126 125//125
f 36//36 86//86 127//127
f 33//33 125//125 38//38
f 33//33 38//38 34//34
f 125//125 39//39 38//38
f 125//125 126//126 39//39
f 63//63 9//9 128//128
f 63//63 128//128 58//58
f 70//70 129//129 74//74
f 70//70 71//71 129//129
f 74//74 129//129 71//71
f 74//74 130//130 10//10
f 74//74 71//71 130//130
f 9//9 11//11 31//31
f 9//9 31//31 30//30
f 9//9 30//30 131//131
f 9//9 131//131 128//128
f 10//10 130//130 132//132
f 10//10 133//133 134//134
f 10//10 132//132 133//133
f 10//10 134//134 135//135
f 10//10 26//26 3//3
f 10//10 135//135 26//26
f 16//16 18//18 26//26
f 16//16 136//136 137//137
f 16//16 138//138 136//136
f 16//16 26//26 138//138
f 16//16 137//137 139//139
f 16//16 139//139 17//17
f 18//18 14//14 26//26
f 130//130 71//71 132//132
f 133//133 132//132 134//134
f 71//71 136//136 138//138
f 71//71 138//138 132//132
f 71//71 137//137 136//136
f 71//71 69//69 137//137
f 132//132 138//138 134//134
f 134//134 138//138 26//26
f 134//134 26//26 135//135
f 20//20 140//140 21//21
f 20//20 22//22 140//140
f 29//29 83//83 30//30
f 21//21 140//140 117//117
f 114//114 113//113 77//77
f 137//137 69//69 139//139
f 140//140 141//141 117//117
f 140//140 22//22 141//141
f 17//17 139//139 22//22
f 83//83 85//85 131//131
f 83//83 131//131 30//30
f 117//117 141//141 118//118
f 82//82 127//127 86//86
f 82//82 86//86 84//84
f 80//80 78//78 58//58
f 80//80 58//58 128//128
f 80//80 128//128 85//85
f 85//85 128//128 131//131
f 99//99 104//104 142//142
f 99//99 142//142 100//100
f 103//103 143//143 104//104
f 103//103 105//105 143//143
f 100//100 142//142 144//144
f 100//100 144//144 113//113
f 113//113 145//145 77//77
f 113//113 144//144 145//145
f 139//139 69//69 22//22
f 141//141 22//22 146//146
f 141//141 122//122 118//118
f 141//141 120//120 123//123
f 141//141 146//146 120//120
f 141//141 123//123 122//122
f 22//22 69//69 146//146
f 147//147 148//148 58//58
f 147//147 78//78 149//149
f 147//147 58//58 78//78
f 147//147 150//150 151//151
f 147//147 151//151 148//148
f 147//147 145//145 144//144
f 147//147 144//144 150//150
f 147//147 149//149 145//145
f 148//148 151//151 152//152
f 148//148 152//152 58//58
f 78//78 77//77 149//149
f 58//58 152//152 60//60
f 58//58 60//60 59//59
f 150//150 144//144 153//153
f 150//150 154//154 151//151
f 150//150 153//153 154//154
f 151//151 154//154 152//152
f 104//104 143//143 155//155
f 104//104 155//155 156//156
f 104//104 157//157 158//158
f 104//104 158//158 142//142
f 104//104 156//156 157//157
f 143//143 105//105 159//159
f 143//143 159//159 155//155
f 105//105 106//106 159//159
f 145//145 149//149 77//77
f 77//77 79//79 112//112
f 79//79 86//86 112//112
f 142//142 158//158 153//153
f 142//142 153//153 144//144
f 50//50 44//44 160//160
f 50//50 160//160 161//161
f 50//50 161//161 51//51
f 44//44 54//54 162//162
f 44//44 162//162 160//160
f 51//51 161//161 163//163
f 51//51 163//163 46//46
f 46//46 164//164 48//48
f 46//46 165//165 164//164
f 46//46 163//163 166//166
f 46//46 166//166 165//165
f 48//48 164//164 69//69
f 54//54 61//61 162//162
f 164//164 165//165 167//167
f 164//164 167//167 69//69
f 69//69 167//167 146//146
f 168//168 121//121 169//169
f 168//168 106//106 102//102
f 168//168 102//102 121//121
f 168//168 170//170 106//106
f 168//168 169//169 170//170
f 165//165 166//166 171//171
f 165//165 170//170 169//169
f 165//165 171//171 170//170
f 165//165 169//169 167//167
f 121//121 120//120 172//172
f 121//121 172//172 169//169
f 120//120 146//146 172//172
f 167//167 169//169 172//172
f 167//167 172//172 146//146
f 160//160 162//162 173//173
f 160//160 173//173 161//161
f 162//162 61//61 174//174
f 162//162 174//174 173//173
f 161//161 173//173 163//163
f 163//163 175//175 176//176
f 163//163 173//173 177//177
f 163//163 178//178 166//166
f 163//163 177//177 175//175
f 163//163 176//176 178//178
f 61//61 60//60 174//174
f 155//155 159//159 156//156
f 159//159 106//106 156//156
f 106//106 170//170 179//179
f 106//106 180//180 156//156
f 106//106 179//179 180//180
f 175//175 156//156 180//180
f 175//175 177//177 156//156
f 175//175 180//180 179//179
f 175//175 179//179 176//176
f 154//154 153//153 181//181
f 154//154 181//181 152//152
f 152//152 181//181 60//60
f 157//157 156//156 182//182
f 157//157 182//182 158//158
f 158//158 182//182 183//183
f 158//158 183//183 153//153
f 153//153 183//183 181//181
f 166//166 178//178 171//171
f 170//170 171//171 176//176
f 170//170 176//176 179//179
f 171//171 178//178 176//176
f 184//184 173//173 174//174
f 184//184 174//174 181//181
f 184//184 185//185 182//182
f 184//184 181//181 185//185
f 184//184 156//156 173//173
f 184//184 182//182 156//156
f 173//173 156//156 177//177
f 174//174 60//60 181//181
f 185//185 181//181 183//183
f 185//185 183//183 182//182
# 366 faces, 0 coords texture

# End of File
