####
#
# OBJ File Generated by Meshlab
#
####
# Object matlab_mesh_step18_link4.obj
#
# Vertices: 146
# Faces: 288
#
####
vn 4.977299 -1.492904 2.353306
v 0.333169 0.495083 0.911964
vn 4.556438 -2.321475 3.527645
v 0.332945 0.495163 0.912306
vn 4.099135 -3.367647 3.242069
v 0.220258 0.326807 0.893566
vn 5.363477 -1.035265 1.073375
v 0.333662 0.495248 0.910643
vn 5.677687 0.429210 2.589815
v 0.319051 0.516254 0.939566
vn 5.086021 -0.250946 3.448920
v 0.318607 0.515437 0.940407
vn 3.978491 -3.887890 1.770515
v 0.213311 0.312329 0.886896
vn 3.513995 -0.067824 3.640715
v 0.277034 0.515170 0.997685
vn 3.185809 -3.284789 4.253879
v 0.156956 0.337000 0.960801
vn 4.137754 3.289432 3.329937
v 0.244334 0.535438 1.019384
vn 2.488667 0.586166 4.457569
v 0.241334 0.535259 1.022886
vn 4.564971 2.274371 2.560383
v 0.319032 0.516285 0.939603
vn 1.615524 -2.671011 5.200676
v 0.142985 0.346629 0.976045
vn 2.805764 -3.904814 3.908841
v 0.156396 0.336102 0.960480
vn 4.878853 -0.590072 -1.105214
v 0.333869 0.495636 0.909146
vn 5.241158 -3.415310 0.311629
v 0.333102 0.494349 0.910322
vn 4.824065 -2.248262 -2.250685
v 0.333308 0.494738 0.908826
vn 4.452011 -0.783819 -4.339431
v 0.319308 0.511549 0.890602
vn 4.722877 1.462516 -1.271668
v 0.326913 0.526572 0.897236
vn 5.389575 2.353396 1.661137
v 0.324150 0.520301 0.923035
vn 2.009310 -3.539590 4.623990
v 0.135722 0.331876 0.969484
vn 0.143832 -4.296390 2.780438
v 0.135380 0.331607 0.969412
vn 0.527593 -5.395780 1.791107
v 0.142674 0.329735 0.961626
vn 0.882655 -4.419808 0.632083
v 0.212653 0.311784 0.886933
vn 3.215649 -4.630985 -0.533256
v 0.218196 0.316648 0.869561
vn 1.785409 -4.065650 -1.575403
v 0.220959 0.322919 0.843762
vn 2.236849 -3.235911 -2.973608
v 0.220958 0.322932 0.843740
vn 3.873505 4.123446 2.636585
v 0.314251 0.517512 0.944708
vn 3.533926 4.075142 2.885493
v 0.244286 0.535467 1.019414
vn -4.966173 3.460785 -1.324594
v 0.128779 0.627002 0.895046
vn -4.725669 3.850093 -0.060570
v 0.123728 0.622750 0.912286
vn -3.667234 4.056994 -1.821364
v 0.129258 0.627605 0.894951
vn -4.400457 3.129270 -2.536651
v 0.121662 0.612591 0.888323
vn -5.462572 3.025006 -0.658062
v 0.116132 0.607736 0.905658
vn -2.566313 -2.752145 4.580867
v 0.089277 0.353528 0.968093
vn -2.940907 -0.226844 5.116719
v 0.096289 0.368801 0.974510
vn -3.063801 -2.504212 1.997774
v 0.088685 0.353773 0.967876
vn -2.135840 -3.531594 2.269237
v 0.098432 0.348162 0.969414
vn -1.342565 -1.358728 5.940146
v 0.106036 0.363190 0.976049
vn -4.078251 -3.391264 -3.004352
v 0.027839 0.421820 0.837233
vn -3.753825 -3.514661 -3.005968
v 0.097803 0.403864 0.762527
vn -4.192672 -1.016550 -1.021178
v 0.017816 0.419084 0.858819
vn -4.675919 -2.165869 -2.298175
v 0.023058 0.423047 0.842338
vn -4.438203 0.861149 -2.698343
v 0.023352 0.423943 0.841466
vn -2.925980 -4.529573 -3.001102
v 0.100647 0.403499 0.759750
vn -3.118548 -5.023577 -2.012778
v 0.095123 0.399262 0.776342
vn -3.321023 -4.948253 -1.923625
v 0.025127 0.417209 0.851019
vn -4.469403 -0.348353 -4.105537
v 0.030663 0.422069 0.833666
vn -1.956457 -0.499851 -3.934904
v 0.100660 0.404122 0.758989
vn -2.390603 -4.876703 -3.012812
v 0.106796 0.400292 0.759750
vn -2.731551 -5.272078 -2.043487
v 0.101296 0.396045 0.776342
vn -1.117895 -2.290907 -4.976754
v 0.106832 0.400905 0.758989
vn -2.178411 -4.899633 -3.104525
v 0.116579 0.395294 0.760527
vn -2.578220 -5.318545 -2.111695
v 0.111042 0.390434 0.777880
vn 2.364967 4.824291 3.084286
v 0.235294 0.539039 1.022191
vn 2.992978 4.335950 3.113838
v 0.241443 0.535832 1.022191
vn 3.032902 5.100516 1.981749
v 0.246835 0.540145 1.005533
vn 2.240727 5.003120 2.950633
v 0.225351 0.544124 1.021357
vn 1.986135 4.567192 3.823903
v 0.225342 0.544124 1.021362
vn 2.569974 5.376393 1.937916
v 0.230892 0.548987 1.003990
vn 1.612148 3.190998 4.871994
v 0.235126 0.538495 1.022900
vn 1.440862 1.142080 4.702981
v 0.241293 0.535281 1.022900
vn 2.732598 5.272958 2.040088
v 0.240667 0.543359 1.005533
vn 1.026287 2.249265 5.079695
v 0.235089 0.538513 1.022900
vn 4.289829 3.944542 1.875521
v 0.324128 0.520323 0.923055
vn 3.407791 4.892736 1.888858
v 0.324105 0.520334 0.923071
vn 3.427682 4.823117 2.096677
v 0.246876 0.540124 1.005514
vn 2.562388 2.650738 -4.693522
v 0.252813 0.585804 0.813848
vn 2.186697 3.552676 -2.859281
v 0.243489 0.591256 0.812476
vn 3.036451 2.845909 -2.404178
v 0.253235 0.585645 0.814014
vn 1.225867 1.402593 -5.940554
v 0.235884 0.576228 0.805841
vn 2.623138 0.524750 -5.444292
v 0.245631 0.570617 0.807379
vn 1.866866 5.567675 2.230302
v 0.121055 0.616450 0.938156
vn 2.073356 5.622659 1.826638
v 0.126598 0.621315 0.920785
vn 1.299276 5.824392 1.801563
v 0.126541 0.621330 0.920794
vn 1.956969 4.916411 3.151268
v 0.194639 0.557435 1.021357
vn 2.233287 5.490801 2.057096
v 0.200181 0.562299 1.003990
vn 1.007267 5.551703 2.552225
v 0.121000 0.616467 0.938161
vn -0.366757 2.396429 3.892253
v 0.194605 0.557444 1.021362
vn 2.152954 5.739323 1.216108
v 0.129361 0.627586 0.894985
vn 2.561178 5.572581 1.298873
v 0.160035 0.614289 0.894985
vn 2.679665 5.576679 0.369628
v 0.237312 0.594475 0.812485
vn 2.315915 5.705638 -0.210704
v 0.206601 0.607787 0.812485
vn 2.020851 5.919355 0.471198
v 0.199296 0.609660 0.820280
vn 1.319266 5.958968 0.757168
v 0.129307 0.627609 0.894963
vn 2.469746 5.524670 1.683517
v 0.157272 0.608017 0.920785
vn 2.735251 5.446989 1.511650
v 0.233658 0.555266 0.978159
vn 2.837086 5.404629 1.482931
v 0.239825 0.552051 0.978159
vn 2.887852 5.417892 1.333382
v 0.317125 0.532228 0.895681
vn 2.907066 5.485930 0.636674
v 0.243480 0.591261 0.812485
vn -0.084589 -1.930928 5.880297
v 0.142965 0.346643 0.976052
vn -1.217840 -3.883752 2.453212
v 0.135357 0.331612 0.969415
vn 4.007477 -0.457190 -4.735835
v 0.245647 0.570601 0.807391
vn 4.314398 3.443732 -0.531444
v 0.326894 0.526601 0.897224
vn 3.491800 2.510215 -1.743368
v 0.253255 0.585632 0.814028
vn 4.405827 3.590053 -1.352423
v 0.324914 0.528188 0.894988
vn -2.469682 -5.524708 -1.683495
v 0.184742 0.331352 0.861133
vn -0.708327 -5.757979 -1.597159
v 0.215416 0.318055 0.861133
vn -2.561066 -5.572648 -1.298824
v 0.181979 0.325081 0.886933
vn -2.548098 -5.400892 -1.904995
v 0.111066 0.390411 0.777911
vn -2.233336 -5.490798 -2.057053
v 0.141777 0.377100 0.777911
vn -1.843221 -3.767049 2.253624
v 0.104646 0.344923 0.969415
vn -2.807754 -5.464205 -1.318011
v 0.111950 0.343050 0.961621
vn -2.859433 -5.494133 -0.991641
v 0.104604 0.344945 0.969414
vn -2.735178 -5.447033 -1.511608
v 0.108300 0.384133 0.803741
vn -2.878498 -5.430131 -1.304747
v 0.026776 0.405601 0.888447
vn -2.887777 -5.417925 -1.333395
v 0.024795 0.407189 0.886208
vn 0.633345 -2.332598 -3.788307
v 0.147315 0.381973 0.760527
vn -1.665007 -5.386499 -2.642279
v 0.147319 0.381963 0.760544
vn 0.398028 1.600371 5.025852
v 0.204352 0.551833 1.022900
vn -2.119936 3.413852 2.407518
v 0.120968 0.616472 0.938157
vn -1.595289 3.662352 4.009935
v 0.122949 0.614884 0.940396
vn 2.801236 5.353435 1.719399
v 0.237059 0.545773 1.003990
vn 1.864275 3.835103 -3.080148
v 0.237316 0.594473 0.812476
vn 0.042470 3.708177 -2.614104
v 0.206579 0.607794 0.812476
vn -0.788306 5.126110 -1.970899
v 0.199268 0.609668 0.820275
vn -1.314153 4.900014 -0.788343
v 0.129272 0.627615 0.894952
vn -0.116831 6.003942 1.574135
v 0.126504 0.621332 0.920804
vn 2.937632 5.334331 1.537213
v 0.249600 0.546423 0.979702
vn 3.357982 5.153032 0.991602
v 0.326872 0.526617 0.897219
vn -2.908361 -5.329825 -1.613880
v 0.095124 0.399254 0.776368
vn -2.937457 -5.334415 -1.537280
v 0.092358 0.392976 0.802199
vn -2.804136 -5.357832 -1.702114
v 0.104899 0.393626 0.777911
vn -2.837058 -5.404626 -1.483001
v 0.102133 0.387347 0.803741
vn -2.971801 -5.325161 -1.505698
v 0.022359 0.410926 0.876870
vn 0.362336 0.527646 5.909923
v 0.241261 0.535296 1.022900
vn -0.950319 -1.546703 5.986505
v 0.106086 0.363169 0.976052
vn -0.790298 -1.658448 5.984169
v 0.112253 0.359954 0.976052
vn -1.991898 -3.724061 3.455500
v 0.098479 0.348138 0.969415
vn -0.296802 -0.624142 6.206164
v 0.210524 0.548616 1.022900
vn -2.782042 -5.332138 -1.818384
v 0.104870 0.393651 0.777880
vn -3.670751 -1.140879 0.499758
v 0.015048 0.412800 0.884670
vn -3.113902 0.989174 5.079208
v 0.194595 0.557439 1.021358
vn -4.392463 0.742058 4.413723
v 0.024634 0.426240 0.893544
vn -4.926969 1.728912 2.318509
v 0.022653 0.427828 0.891305
vn -3.736493 -2.509509 1.526500
v 0.017030 0.411212 0.886909
vn -2.753955 5.224948 0.890045
v 0.123736 0.622755 0.912305
vn -4.910016 2.851164 1.606297
v 0.120960 0.616464 0.938148
vn -5.559411 2.909169 -0.156843
v 0.025420 0.434112 0.865453
vn 0.790210 1.658484 -5.984180
v 0.229712 0.579445 0.805841
vn -1.334903 2.372168 -4.971597
v 0.198975 0.592765 0.805841
vn -3.665121 2.971023 -4.149413
v 0.093349 0.405997 0.766789
vn 0.296816 0.624186 -6.206153
v 0.131397 0.390801 0.758989
vn -0.490227 -1.615047 -5.046005
v 0.137569 0.387584 0.758989
vn 1.363492 0.301560 -6.090025
v 0.147307 0.381989 0.760525
vn 1.079761 0.423087 -6.145367
v 0.137592 0.387580 0.758992
# 146 vertices, 0 vertices normals

f 1//1 2//2 3//3
f 1//1 4//4 5//5
f 1//1 5//5 6//6
f 1//1 7//7 4//4
f 1//1 6//6 2//2
f 1//1 3//3 7//7
f 8//8 9//9 3//3
f 8//8 2//2 6//6
f 8//8 10//10 11//11
f 8//8 12//12 10//10
f 8//8 6//6 12//12
f 8//8 3//3 2//2
f 8//8 11//11 13//13
f 8//8 13//13 9//9
f 9//9 14//14 7//7
f 9//9 7//7 3//3
f 9//9 13//13 14//14
f 15//15 4//4 16//16
f 15//15 17//17 18//18
f 15//15 16//16 17//17
f 15//15 19//19 20//20
f 15//15 20//20 4//4
f 15//15 18//18 19//19
f 4//4 12//12 5//5
f 4//4 7//7 16//16
f 4//4 20//20 12//12
f 14//14 21//21 22//22
f 14//14 13//13 21//21
f 14//14 23//23 24//24
f 14//14 24//24 7//7
f 14//14 22//22 23//23
f 17//17 16//16 25//25
f 17//17 26//26 27//27
f 17//17 25//25 26//26
f 17//17 27//27 18//18
f 16//16 7//7 25//25
f 5//5 12//12 6//6
f 10//10 12//12 28//28
f 10//10 29//29 11//11
f 10//10 28//28 29//29
f 30//30 31//31 32//32
f 30//30 32//32 33//33
f 30//30 34//34 31//31
f 30//30 33//33 34//34
f 35//35 36//36 37//37
f 35//35 37//37 38//38
f 35//35 39//39 36//36
f 35//35 38//38 39//39
f 40//40 41//41 42//42
f 40//40 43//43 44//44
f 40//40 42//42 43//43
f 40//40 44//44 41//41
f 41//41 45//45 46//46
f 41//41 47//47 42//42
f 41//41 46//46 47//47
f 41//41 48//48 49//49
f 41//41 49//49 45//45
f 41//41 44//44 48//48
f 43//43 42//42 44//44
f 45//45 50//50 46//46
f 45//45 49//49 50//50
f 50//50 51//51 46//46
f 50//50 49//49 52//52
f 50//50 52//52 53//53
f 50//50 54//54 51//51
f 50//50 53//53 54//54
f 55//55 56//56 57//57
f 55//55 58//58 59//59
f 55//55 60//60 58//58
f 55//55 61//61 62//62
f 55//55 62//62 56//56
f 55//55 63//63 60//60
f 55//55 57//57 63//63
f 55//55 59//59 64//64
f 55//55 64//64 61//61
f 56//56 29//29 57//57
f 56//56 11//11 29//29
f 56//56 62//62 11//11
f 12//12 20//20 65//65
f 12//12 65//65 66//66
f 12//12 66//66 28//28
f 29//29 28//28 66//66
f 29//29 67//67 57//57
f 29//29 66//66 67//67
f 68//68 69//69 70//70
f 68//68 71//71 69//69
f 68//68 70//70 72//72
f 68//68 72//72 71//71
f 21//21 13//13 22//22
f 7//7 24//24 25//25
f 73//73 74//74 75//75
f 73//73 76//76 77//77
f 73//73 78//78 79//79
f 73//73 77//77 74//74
f 73//73 75//75 78//78
f 73//73 79//79 76//76
f 80//80 81//81 82//82
f 80//80 74//74 81//81
f 80//80 83//83 84//84
f 80//80 82//82 83//83
f 80//80 85//85 75//75
f 80//80 75//75 74//74
f 80//80 84//84 85//85
f 81//81 74//74 86//86
f 81//81 86//86 60//60
f 81//81 87//87 88//88
f 81//81 60//60 87//87
f 81//81 88//88 89//89
f 81//81 90//90 82//82
f 81//81 89//89 90//90
f 74//74 77//77 60//60
f 74//74 60//60 86//86
f 11//11 62//62 13//13
f 13//13 62//62 91//91
f 13//13 91//91 92//92
f 13//13 92//92 22//22
f 19//19 18//18 93//93
f 19//19 94//94 65//65
f 19//19 65//65 20//20
f 19//19 95//95 96//96
f 19//19 96//96 94//94
f 19//19 93//93 95//95
f 67//67 66//66 57//57
f 23//23 22//22 92//92
f 23//23 92//92 24//24
f 97//97 98//98 24//24
f 97//97 99//99 100//100
f 97//97 24//24 99//99
f 97//97 100//100 98//98
f 98//98 26//26 25//25
f 98//98 25//25 24//24
f 98//98 100//100 101//101
f 98//98 101//101 26//26
f 99//99 24//24 102//102
f 99//99 103//103 104//104
f 99//99 102//102 103//103
f 99//99 105//105 100//100
f 99//99 106//106 107//107
f 99//99 38//38 106//106
f 99//99 107//107 105//105
f 99//99 104//104 38//38
f 24//24 92//92 102//102
f 18//18 27//27 108//108
f 18//18 108//108 93//93
f 26//26 101//101 109//109
f 26//26 109//109 108//108
f 26//26 108//108 27//27
f 76//76 58//58 77//77
f 76//76 79//79 110//110
f 76//76 59//59 58//58
f 76//76 110//110 64//64
f 76//76 64//64 59//59
f 58//58 60//60 77//77
f 78//78 75//75 111//111
f 78//78 112//112 79//79
f 78//78 111//111 112//112
f 87//87 60//60 88//88
f 60//60 113//113 88//88
f 60//60 63//63 113//113
f 83//83 82//82 114//114
f 83//83 115//115 84//84
f 83//83 114//114 115//115
f 82//82 90//90 69//69
f 82//82 69//69 114//114
f 85//85 84//84 115//115
f 85//85 115//115 116//116
f 85//85 117//117 118//118
f 85//85 118//118 75//75
f 85//85 116//116 117//117
f 75//75 118//118 111//111
f 88//88 113//113 57//57
f 88//88 119//119 120//120
f 88//88 57//57 119//119
f 88//88 120//120 89//89
f 113//113 63//63 57//57
f 90//90 95//95 70//70
f 90//90 89//89 120//120
f 90//90 120//120 95//95
f 90//90 70//70 69//69
f 121//121 122//122 46//46
f 121//121 123//123 122//122
f 121//121 46//46 123//123
f 122//122 123//123 124//124
f 122//122 124//124 125//125
f 122//122 47//47 46//46
f 122//122 125//125 47//47
f 61//61 64//64 126//126
f 61//61 126//126 62//62
f 127//127 128//128 110//110
f 127//127 129//129 128//128
f 127//127 110//110 39//39
f 127//127 39//39 38//38
f 127//127 38//38 129//129
f 62//62 126//126 91//91
f 128//128 91//91 130//130
f 128//128 129//129 102//102
f 128//128 102//102 92//92
f 128//128 92//92 91//91
f 128//128 130//130 110//110
f 91//91 126//126 130//130
f 94//94 96//96 120//120
f 94//94 120//120 66//66
f 94//94 66//66 65//65
f 119//119 57//57 66//66
f 119//119 66//66 120//120
f 95//95 93//93 72//72
f 95//95 120//120 96//96
f 95//95 72//72 70//70
f 129//129 38//38 102//102
f 123//123 100//100 124//124
f 123//123 46//46 131//131
f 123//123 131//131 100//100
f 124//124 100//100 105//105
f 124//124 105//105 107//107
f 124//124 132//132 125//125
f 124//124 107//107 132//132
f 103//103 102//102 104//104
f 102//102 38//38 104//104
f 100//100 46//46 51//51
f 100//100 51//51 54//54
f 100//100 131//131 46//46
f 100//100 54//54 53//53
f 100//100 53//53 101//101
f 101//101 53//53 109//109
f 93//93 108//108 72//72
f 109//109 53//53 108//108
f 112//112 111//111 133//133
f 112//112 133//133 79//79
f 134//134 36//36 133//133
f 134//134 135//135 136//136
f 134//134 136//136 37//37
f 134//134 37//37 36//36
f 134//134 133//133 135//135
f 79//79 36//36 110//110
f 79//79 133//133 36//36
f 36//36 39//39 110//110
f 137//137 111//111 118//118
f 137//137 117//117 32//32
f 137//137 118//118 117//117
f 137//137 31//31 111//111
f 137//137 32//32 31//31
f 111//111 135//135 133//133
f 111//111 31//31 138//138
f 111//111 138//138 135//135
f 139//139 135//135 31//31
f 139//139 42//42 135//135
f 139//139 31//31 42//42
f 135//135 42//42 132//132
f 135//135 132//132 136//136
f 135//135 138//138 31//31
f 115//115 114//114 140//140
f 115//115 141//141 32//32
f 115//115 140//140 141//141
f 115//115 32//32 116//116
f 114//114 69//69 140//140
f 117//117 116//116 32//32
f 69//69 71//71 140//140
f 136//136 132//132 107//107
f 136//136 106//106 37//37
f 136//136 107//107 106//106
f 37//37 106//106 38//38
f 47//47 125//125 42//42
f 125//125 132//132 42//42
f 42//42 31//31 34//34
f 42//42 34//34 33//33
f 42//42 33//33 44//44
f 48//48 44//44 142//142
f 48//48 142//142 49//49
f 141//141 140//140 49//49
f 141//141 49//49 33//33
f 141//141 33//33 32//32
f 140//140 143//143 49//49
f 140//140 71//71 143//143
f 49//49 143//143 52//52
f 49//49 142//142 33//33
f 143//143 71//71 144//144
f 143//143 144//144 52//52
f 44//44 33//33 142//142
f 71//71 72//72 145//145
f 71//71 146//146 144//144
f 71//71 145//145 146//146
f 52//52 144//144 53//53
f 144//144 108//108 53//53
f 144//144 146//146 108//108
f 110//110 130//130 64//64
f 64//64 130//130 126//126
f 72//72 108//108 145//145
f 108//108 146//146 145//145
# 288 faces, 0 coords texture

# End of File
