####
#
# OBJ File Generated by Meshlab
#
####
# Object matlab_mesh_slc_step15_link2.obj
#
# Vertices: 210
# Faces: 416
#
####
vn -0.193417 -0.262669 6.266205
v 0.060519 0.245933 0.907014
vn -0.193436 -0.262704 6.266200
v 0.060849 0.245690 0.907014
vn 0.000000 0.000000 6.283185
v 0.060658 0.246121 0.907014
vn 0.242609 0.429032 6.242060
v 0.060482 0.246251 0.907014
vn -0.205318 -0.235498 6.266001
v 0.060343 0.246063 0.907014
vn -0.354459 -0.328661 6.243419
v 0.040034 0.256904 0.906668
vn -0.626757 -0.930911 6.075862
v 0.159493 0.173056 0.907014
vn 0.065191 0.088527 6.281261
v 0.061198 0.245768 0.907014
vn 1.937985 -2.102358 3.104654
v 0.160033 0.172702 0.907014
vn 0.065222 0.088576 6.281259
v 0.159842 0.173134 0.907014
vn -0.671828 -0.615073 6.139702
v 0.040007 0.256915 0.906667
vn -0.959408 -0.650263 6.050385
v 0.039986 0.256923 0.906665
vn -3.316713 0.444907 3.247822
v -0.077951 0.069938 0.824661
vn 0.149368 0.227691 6.271361
v 0.061022 0.245897 0.907014
vn 2.787087 -0.735918 2.638292
v 0.160172 0.172891 0.907014
vn 0.960219 -4.462935 0.059950
v 0.033785 -0.001431 0.824174
vn 4.202488 -4.106329 2.105673
v 0.034228 -0.000760 0.824629
vn 0.781716 -4.424761 1.013379
v 0.033784 -0.001430 0.824181
vn 2.270271 -3.765495 3.936413
v 0.034225 -0.000760 0.824632
vn -0.256038 -2.912229 5.348075
v 0.034222 -0.000760 0.824632
vn -1.308995 -2.075880 5.780157
v -0.070786 0.065420 0.824661
vn -1.365154 -2.285438 5.670652
v 0.032805 0.000099 0.824661
vn -1.191507 -2.153964 5.776835
v 0.033372 -0.000217 0.824661
vn 0.154590 0.187942 6.278413
v 0.153428 0.190089 0.906669
vn 5.319098 -0.831947 1.068287
v 0.160243 0.172988 0.906743
vn 5.577045 1.996150 2.093789
v 0.154593 0.189955 0.905677
vn 5.491658 2.054435 2.240879
v 0.154580 0.189987 0.905681
vn 3.737714 1.435743 4.156889
v 0.154316 0.189522 0.906638
vn 2.873216 1.223214 4.363790
v 0.154305 0.189551 0.906638
vn 0.305982 0.310501 6.264435
v 0.153424 0.190114 0.906668
vn 5.343353 -0.850016 1.021333
v 0.160343 0.173123 0.906333
vn 4.095752 0.126020 -0.637695
v 0.187253 0.209670 0.795957
vn 4.562168 -2.053493 -2.429783
v 0.187203 0.209602 0.795920
vn 4.209164 -0.188768 -4.643628
v 0.177674 0.226612 0.786312
vn 4.861675 3.503449 1.876953
v 0.178161 0.227216 0.786805
vn 4.746925 3.252014 2.419655
v 0.154538 0.190067 0.905693
vn 5.130404 2.602232 -0.187093
v 0.178141 0.227256 0.786783
vn 4.525556 1.856786 -1.178032
v 0.178123 0.227290 0.786764
vn 5.415739 2.204521 2.275753
v 0.154568 0.190014 0.905684
vn 5.298524 2.427719 2.313237
v 0.154557 0.190036 0.905688
vn 5.107909 2.750509 2.358939
v 0.154547 0.190054 0.905690
vn 0.139431 0.357124 6.259701
v 0.042190 0.260251 0.906669
vn -0.129288 -0.030456 6.280956
v 0.040068 0.256890 0.906669
vn 0.476524 0.578467 6.231093
v 0.153421 0.190134 0.906667
vn 0.468918 0.776606 6.211805
v 0.042756 0.259936 0.906669
vn 0.740879 1.006172 6.144896
v 0.153420 0.190149 0.906665
vn 3.107393 5.151807 1.602721
v 0.087433 0.283128 0.795933
vn 3.250096 4.955378 2.084113
v 0.087973 0.282774 0.795933
vn 2.988256 3.027301 -1.603831
v 0.178057 0.227387 0.786714
vn 2.790415 5.255185 2.009325
v 0.066196 0.297880 0.786888
vn 2.589243 5.069058 2.586614
v 0.042366 0.260772 0.905722
vn 2.816548 5.274556 1.903471
v 0.066137 0.297922 0.786860
vn 3.122856 5.279490 1.286512
v 0.066703 0.297606 0.786860
vn 3.142313 5.288178 1.174967
v 0.066650 0.297643 0.786836
vn 3.048190 4.880168 2.508582
v 0.042947 0.260449 0.905720
vn 3.084797 4.766660 2.644726
v 0.153682 0.190619 0.905725
vn 2.867142 4.887820 2.657976
v 0.042933 0.260456 0.905722
vn 3.306674 5.154953 0.515108
v 0.177207 0.227931 0.786742
vn 3.272594 4.630836 2.636399
v 0.154523 0.190081 0.905697
vn 3.228403 -5.240601 -0.997398
v 0.059644 0.036365 0.707875
vn 3.944122 -4.190141 -1.362156
v 0.059715 0.036462 0.707604
vn 0.888266 -4.823070 -0.448151
v 0.033785 -0.001430 0.824166
vn 2.602207 -5.552123 -1.352713
v 0.057327 0.035875 0.705239
vn 1.262789 -5.845394 -1.218412
v 0.033784 -0.001428 0.824156
vn 2.503008 -5.621067 -1.267757
v 0.055929 0.033661 0.712297
vn -1.076397 -5.352427 -1.354748
v 0.032634 -0.000318 0.818660
vn 2.172849 -5.585440 -1.641831
v 0.057323 0.035875 0.705230
vn 2.012382 -5.766459 -1.410468
v 0.055922 0.033656 0.712305
vn -3.184110 -5.397780 -0.144759
v 0.033218 -0.001115 0.824174
vn -3.263872 -5.093107 -0.616711
v -0.077541 0.068730 0.824188
vn 1.115740 -5.722907 -1.982017
v 0.057319 0.035877 0.705222
vn -0.353362 -5.641096 -2.330303
v 0.057315 0.035879 0.705215
vn -2.889412 -4.953115 -2.533415
v 0.056745 0.036197 0.705210
vn -1.810912 -5.248040 -2.651366
v 0.057312 0.035882 0.705210
vn -3.216617 -4.935846 -2.183824
v -0.055428 0.103813 0.712322
vn -3.085568 -4.771405 -2.632902
v -0.054021 0.106045 0.705204
vn 4.902757 -3.244640 -1.546511
v 0.059854 0.036650 0.707604
vn 4.123687 -3.667418 -2.746323
v 0.057591 0.036340 0.704281
vn 3.293214 -3.857323 -2.972279
v 0.057586 0.036338 0.704276
vn 5.122334 -3.100371 -1.313891
v 0.187078 0.209432 0.795833
vn 4.914218 -2.739770 -2.765965
v 0.059712 0.039694 0.704288
vn 4.049811 -0.432580 -4.784340
v 0.177691 0.226576 0.786329
vn 4.735018 -2.557433 -3.137830
v 0.059712 0.039701 0.704281
vn 4.344474 -2.143797 -3.837368
v 0.059712 0.039708 0.704276
vn 3.644946 -1.486656 -4.638467
v 0.059711 0.039714 0.704272
vn 2.566029 -0.565631 -5.359751
v 0.059710 0.039720 0.704270
vn 2.804972 5.294894 1.853325
v 0.066084 0.297959 0.786836
vn 3.152474 5.306694 1.053181
v 0.066603 0.297676 0.786814
vn 2.789978 5.319907 1.786309
v 0.066037 0.297992 0.786814
vn 3.163449 5.326753 0.887333
v 0.066563 0.297704 0.786795
vn 2.767131 5.352812 1.689851
v 0.065996 0.298019 0.786795
vn 4.128093 -0.088489 -4.714842
v 0.177659 0.226643 0.786297
vn 4.427758 1.949185 -1.209687
v 0.178106 0.227319 0.786748
vn 3.951951 4.043857 2.508985
v 0.154530 0.190076 0.905695
vn 0.302402 0.727429 6.178698
v 0.042161 0.260274 0.906668
vn 0.819750 1.339945 6.024112
v 0.042727 0.259958 0.906668
vn 3.176113 5.349783 0.659114
v 0.066528 0.297726 0.786778
vn 2.734938 5.391387 1.563039
v 0.065962 0.298042 0.786778
vn 2.856498 1.394077 4.375585
v 0.154295 0.189575 0.906637
vn 3.992994 0.059025 -4.826247
v 0.177646 0.226670 0.786286
vn 4.283693 2.095183 -1.251407
v 0.178091 0.227343 0.786735
vn 0.545795 1.354702 5.908480
v 0.042137 0.260292 0.906667
vn 1.455260 2.391958 5.454902
v 0.042703 0.259976 0.906667
vn 1.217675 1.775230 5.858591
v 0.153420 0.190160 0.906663
vn 3.183974 5.365790 0.312931
v 0.066500 0.297745 0.786765
vn 2.676050 5.441245 1.348390
v 0.065933 0.298060 0.786765
vn 2.261421 -3.611388 -3.594773
v 0.057581 0.036337 0.704272
vn 3.751358 -0.157169 -5.036083
v 0.175701 0.223587 0.784933
vn 2.871283 1.704172 4.374529
v 0.154286 0.189595 0.906636
vn 4.056593 2.301031 -1.310844
v 0.178078 0.227363 0.786725
vn 0.761977 2.070599 5.340145
v 0.042119 0.260306 0.906665
vn 2.125524 3.525368 4.451832
v 0.042685 0.259990 0.906665
vn 2.106041 3.221720 4.746074
v 0.153421 0.190166 0.906660
vn 3.176026 5.356660 -0.264711
v 0.066478 0.297758 0.786755
vn 2.555273 5.490768 0.976130
v 0.065911 0.298073 0.786755
vn 0.228657 5.311338 2.114173
v 0.042358 0.260775 0.905724
vn -3.147332 -5.331907 0.768226
v 0.033217 -0.001115 0.824181
vn 0.840080 -3.119184 -4.106819
v 0.057576 0.036338 0.704270
vn 3.518817 0.061569 -5.200326
v 0.175686 0.223603 0.784922
vn 3.772871 0.285166 -4.982884
v 0.177634 0.226692 0.786277
vn 2.889397 2.194807 4.329724
v 0.154278 0.189611 0.906634
vn 3.653919 2.608891 -1.402733
v 0.178067 0.227378 0.786718
vn 0.621835 2.665225 4.547441
v 0.042106 0.260315 0.906663
vn -1.485978 -0.298803 5.910189
v 0.039971 0.256929 0.906663
vn -3.322181 0.291064 4.113345
v -0.075999 0.073033 0.826018
vn 2.490851 4.301311 3.726873
v 0.042673 0.260000 0.906663
vn 2.843488 4.370391 3.465644
v 0.153424 0.190167 0.906657
vn 3.063795 5.207015 -1.312295
v 0.066462 0.297767 0.786747
vn 2.202043 5.441769 0.231943
v 0.065895 0.298082 0.786747
vn 3.302171 5.225872 -1.080066
v 0.177208 0.227930 0.786740
vn -2.848202 -4.840264 2.477725
v 0.033216 -0.001113 0.824185
vn -3.303224 -5.222916 1.096659
v -0.077547 0.068734 0.824189
vn -0.579319 -2.714751 -4.327054
v 0.057572 0.036338 0.704269
vn 0.190741 -4.299529 2.589627
v 0.033783 -0.001428 0.824185
vn 0.838653 1.531865 -6.017102
v -0.051592 0.109877 0.704270
vn 0.851330 1.412856 -6.033629
v -0.051025 0.109561 0.704270
vn 0.320124 0.568991 -6.214590
v -0.051040 0.109565 0.704269
vn 0.766655 1.850832 -5.940539
v -0.052458 0.110430 0.704299
vn -1.886679 2.758997 -2.821386
v 0.065444 0.297423 0.786298
vn 0.304249 0.710025 -6.180232
v -0.051606 0.109881 0.704269
vn -0.874975 1.919249 -5.410722
v -0.052465 0.110429 0.704298
vn 1.094740 1.980001 -5.861044
v 0.066295 0.296877 0.786269
vn 1.356531 2.230629 -5.692434
v 0.066862 0.296562 0.786269
vn 1.164040 2.120187 -5.793530
v 0.066285 0.296885 0.786270
vn 3.365858 0.669029 -5.209600
v 0.177625 0.226710 0.786272
vn 3.084551 0.441058 -5.441159
v 0.175674 0.223617 0.784915
vn 1.456083 0.500520 -5.805143
v 0.059707 0.039725 0.704269
vn 0.321356 0.509578 -6.224881
v 0.052549 0.044240 0.704269
vn 1.150812 1.755145 -5.920752
v 0.059705 0.039729 0.704270
vn 1.682023 2.078865 -5.639906
v 0.177611 0.226730 0.786270
vn 2.145520 1.130479 -5.662994
v 0.175659 0.223634 0.784912
vn -3.267589 -5.182185 1.394389
v 0.032351 -0.000561 0.824210
vn -2.947298 -4.685269 2.649812
v 0.032358 -0.000564 0.824214
vn -2.627322 -3.631596 3.300344
v -0.078389 0.069272 0.824217
vn -0.989825 -3.688612 4.555526
v 0.033781 -0.001425 0.824188
vn 2.881610 3.043799 4.112682
v 0.154271 0.189622 0.906632
vn 3.691953 4.586404 2.168291
v 0.155937 0.192308 0.898580
vn 3.154696 5.005598 -2.003690
v 0.067320 0.297218 0.786718
vn 2.329795 3.740444 -4.001278
v 0.067302 0.297227 0.786714
vn 2.366605 4.153991 -3.506169
v 0.066452 0.297770 0.786742
vn 2.601594 3.700984 -3.218028
v 0.178049 0.227392 0.786712
vn -0.949359 3.077818 3.389346
v 0.042099 0.260320 0.906660
vn -3.164262 1.008559 4.439142
v 0.039962 0.256931 0.906660
vn -0.353772 5.755848 1.735011
v 0.043765 0.263006 0.898608
vn 0.443563 4.241832 -1.203253
v 0.065885 0.298086 0.786742
vn -2.887406 -4.784919 -2.849947
v 0.056742 0.036201 0.705207
vn -2.085982 -3.565086 4.503679
v 0.033215 -0.001110 0.824188
vn -2.636414 -4.844186 -3.007759
v 0.057308 0.035886 0.705207
vn -2.472996 -4.577182 -3.474933
v 0.057567 0.036340 0.704270
vn -0.216920 -0.343975 -6.256754
v -0.046583 0.101979 0.704269
vn -1.180071 -2.100330 -5.157760
v 0.057005 0.036654 0.704269
vn -1.288296 -1.880723 -5.517274
v -0.053755 0.106495 0.704270
vn -0.251478 -0.288302 -6.255989
v -0.053742 0.106494 0.704269
vn -2.498547 -4.119940 -3.867221
v 0.057001 0.036656 0.704270
vn -1.916862 -3.039867 -5.114212
v -0.046590 0.101977 0.704270
vn -0.694802 0.325675 -6.196509
v -0.054600 0.107043 0.704298
vn -2.830351 0.393441 -2.676615
v -0.054605 0.107039 0.704299
vn 2.471849 1.392963 -5.480760
v 0.177617 0.226722 0.786269
vn 2.144167 1.161615 -5.732140
v 0.175665 0.223627 0.784912
vn -2.098527 -3.451233 4.619412
v 0.032365 -0.000566 0.824217
vn -3.080471 2.171951 -3.055392
v -0.052467 0.110428 0.704299
vn -5.409629 3.187125 -0.025632
v -0.078129 0.069733 0.823273
vn -2.957004 -0.973758 0.770864
v -0.078391 0.069273 0.824217
vn -5.369920 3.215449 0.435640
v 0.039521 0.256269 0.906215
vn -5.593403 2.841830 -0.214877
v -0.056012 0.104807 0.711414
vn -5.532758 2.946058 -0.105209
v -0.078132 0.069728 0.823280
vn -5.319672 3.341584 0.080626
v 0.039779 0.256721 0.905283
vn -5.291082 3.385851 0.082649
v 0.041917 0.260112 0.905283
vn -5.283412 3.399957 0.021490
v 0.043325 0.262344 0.898165
vn -1.401556 -2.501264 5.586068
v 0.033655 -0.000445 0.824632
vn 3.030169 4.264725 3.421144
v 0.154265 0.189629 0.906629
vn 1.643574 2.787827 -5.379964
v 0.067290 0.297231 0.786712
vn 1.698949 2.694397 -5.413924
v 0.170882 0.231912 0.786712
vn 1.636789 2.901904 -5.317092
v 0.066448 0.297769 0.786740
vn -1.809983 -2.285627 5.543580
v -0.077950 0.069934 0.824659
vn -3.445415 4.047986 1.765289
v 0.042098 0.260321 0.906657
vn -5.033599 2.620432 1.930915
v 0.039959 0.256931 0.906657
vn -3.682045 4.600736 0.714671
v 0.043763 0.263006 0.898607
vn -3.440709 4.538459 1.097229
v 0.042355 0.260774 0.905725
vn -1.310959 3.343120 -1.845235
v 0.065882 0.298085 0.786740
vn -2.563751 -3.871976 -4.021417
v -0.053763 0.106497 0.704272
vn -3.652478 -4.600143 -2.164738
v -0.056270 0.104351 0.712351
vn -3.653504 -2.843037 -3.390447
v -0.054604 0.107035 0.704301
vn 1.354740 2.350421 -5.652015
v 0.066852 0.296569 0.786270
vn 1.491810 2.365887 -5.618729
v 0.170444 0.231250 0.786270
vn -5.480768 -0.056197 -1.190532
v -0.054864 0.106584 0.705235
vn -5.475167 -0.122166 -1.120958
v -0.056271 0.104353 0.712350
vn -4.234930 -3.347232 -2.422347
v -0.054862 0.106583 0.705232
vn 1.398905 2.496228 -5.588732
v 0.066010 0.297107 0.786298
vn -5.306518 3.357989 0.201056
v 0.041659 0.259660 0.906215
# 210 vertices, 0 vertices normals

f 1//1 2//2 3//3
f 1//1 3//3 4//4
f 1//1 5//5 6//6
f 1//1 4//4 5//5
f 1//1 6//6 2//2
f 2//2 7//7 8//8
f 2//2 8//8 3//3
f 2//2 6//6 7//7
f 7//7 9//9 10//10
f 7//7 10//10 8//8
f 7//7 6//6 11//11
f 7//7 11//11 12//12
f 7//7 12//12 13//13
f 7//7 13//13 9//9
f 3//3 8//8 14//14
f 3//3 14//14 4//4
f 9//9 15//15 10//10
f 9//9 16//16 15//15
f 9//9 17//17 18//18
f 9//9 18//18 16//16
f 9//9 19//19 17//17
f 9//9 20//20 19//19
f 9//9 21//21 22//22
f 9//9 22//22 23//23
f 9//9 13//13 21//21
f 9//9 23//23 20//20
f 8//8 10//10 24//24
f 8//8 24//24 14//14
f 10//10 15//15 24//24
f 15//15 25//25 26//26
f 15//15 26//26 27//27
f 15//15 28//28 29//29
f 15//15 27//27 28//28
f 15//15 29//29 30//30
f 15//15 30//30 24//24
f 15//15 16//16 25//25
f 31//31 32//32 26//26
f 31//31 25//25 16//16
f 31//31 26//26 25//25
f 31//31 16//16 32//32
f 32//32 33//33 34//34
f 32//32 35//35 36//36
f 32//32 37//37 35//35
f 32//32 38//38 37//37
f 32//32 27//27 26//26
f 32//32 34//34 38//38
f 32//32 39//39 27//27
f 32//32 40//40 39//39
f 32//32 16//16 33//33
f 32//32 41//41 40//40
f 32//32 36//36 41//41
f 5//5 4//4 42//42
f 5//5 43//43 6//6
f 5//5 42//42 43//43
f 4//4 14//14 44//44
f 4//4 45//45 42//42
f 4//4 44//44 46//46
f 4//4 46//46 45//45
f 14//14 24//24 30//30
f 14//14 30//30 44//44
f 47//47 48//48 49//49
f 47//47 50//50 51//51
f 47//47 52//52 50//50
f 47//47 53//53 52//52
f 47//47 54//54 53//53
f 47//47 55//55 56//56
f 47//47 51//51 57//57
f 47//47 57//57 55//55
f 47//47 49//49 58//58
f 47//47 58//58 54//54
f 47//47 59//59 48//48
f 47//47 56//56 59//59
f 48//48 59//59 49//49
f 60//60 61//61 62//62
f 60//60 63//63 61//61
f 60//60 64//64 65//65
f 60//60 65//65 63//63
f 60//60 62//62 64//64
f 66//66 64//64 62//62
f 66//66 67//67 68//68
f 66//66 62//62 16//16
f 66//66 68//68 64//64
f 66//66 69//69 70//70
f 66//66 71//71 67//67
f 66//66 16//16 69//69
f 66//66 72//72 71//71
f 66//66 73//73 74//74
f 66//66 74//74 72//72
f 66//66 70//70 75//75
f 66//66 76//76 73//73
f 66//66 75//75 76//76
f 61//61 77//77 16//16
f 61//61 63//63 67//67
f 61//61 78//78 77//77
f 61//61 67//67 79//79
f 61//61 79//79 78//78
f 61//61 16//16 62//62
f 33//33 80//80 81//81
f 33//33 82//82 34//34
f 33//33 81//81 83//83
f 33//33 83//83 84//84
f 33//33 84//84 85//85
f 33//33 16//16 80//80
f 33//33 85//85 86//86
f 33//33 86//86 82//82
f 80//80 77//77 81//81
f 80//80 16//16 77//77
f 77//77 78//78 81//81
f 50//50 52//52 51//51
f 52//52 53//53 54//54
f 52//52 87//87 51//51
f 52//52 54//54 87//87
f 35//35 37//37 36//36
f 87//87 54//54 88//88
f 87//87 89//89 51//51
f 87//87 88//88 89//89
f 54//54 58//58 88//88
f 37//37 38//38 36//36
f 89//89 88//88 90//90
f 89//89 91//91 51//51
f 89//89 90//90 91//91
f 88//88 58//58 90//90
f 82//82 86//86 34//34
f 81//81 78//78 83//83
f 28//28 27//27 39//39
f 28//28 39//39 29//29
f 38//38 34//34 92//92
f 38//38 93//93 94//94
f 38//38 92//92 93//93
f 38//38 94//94 36//36
f 43//43 42//42 95//95
f 43//43 95//95 6//6
f 42//42 45//45 96//96
f 42//42 96//96 95//95
f 45//45 46//46 96//96
f 91//91 90//90 97//97
f 91//91 98//98 51//51
f 91//91 97//97 98//98
f 90//90 58//58 97//97
f 63//63 65//65 67//67
f 64//64 68//68 65//65
f 65//65 68//68 67//67
f 78//78 79//79 83//83
f 34//34 86//86 92//92
f 83//83 79//79 84//84
f 29//29 39//39 40//40
f 29//29 99//99 30//30
f 29//29 40//40 99//99
f 93//93 92//92 100//100
f 93//93 101//101 94//94
f 93//93 100//100 101//101
f 6//6 95//95 102//102
f 6//6 102//102 11//11
f 95//95 96//96 103//103
f 95//95 103//103 102//102
f 30//30 99//99 44//44
f 96//96 46//46 104//104
f 96//96 104//104 103//103
f 98//98 97//97 105//105
f 98//98 106//106 51//51
f 98//98 105//105 106//106
f 97//97 58//58 105//105
f 67//67 71//71 107//107
f 67//67 107//107 79//79
f 79//79 107//107 84//84
f 92//92 108//108 100//100
f 92//92 86//86 108//108
f 84//84 107//107 85//85
f 99//99 40//40 41//41
f 99//99 109//109 44//44
f 99//99 41//41 109//109
f 101//101 100//100 110//110
f 101//101 110//110 94//94
f 11//11 102//102 111//111
f 11//11 111//111 12//12
f 102//102 103//103 112//112
f 102//102 112//112 111//111
f 44//44 109//109 46//46
f 103//103 104//104 113//113
f 103//103 113//113 112//112
f 106//106 105//105 114//114
f 106//106 115//115 116//116
f 106//106 114//114 115//115
f 106//106 116//116 51//51
f 105//105 58//58 114//114
f 69//69 16//16 117//117
f 69//69 117//117 70//70
f 71//71 72//72 118//118
f 71//71 118//118 107//107
f 16//16 18//18 117//117
f 107//107 118//118 85//85
f 100//100 108//108 119//119
f 100//100 120//120 110//110
f 100//100 119//119 120//120
f 108//108 86//86 119//119
f 85//85 118//118 86//86
f 17//17 19//19 18//18
f 109//109 41//41 36//36
f 109//109 121//121 46//46
f 109//109 36//36 121//121
f 110//110 120//120 122//122
f 110//110 122//122 94//94
f 12//12 111//111 123//123
f 12//12 124//124 125//125
f 12//12 123//123 124//124
f 12//12 125//125 13//13
f 111//111 112//112 126//126
f 111//111 126//126 123//123
f 46//46 121//121 104//104
f 112//112 113//113 127//127
f 112//112 127//127 126//126
f 115//115 114//114 128//128
f 115//115 129//129 116//116
f 115//115 128//128 129//129
f 114//114 58//58 130//130
f 114//114 130//130 128//128
f 55//55 57//57 56//56
f 117//117 18//18 131//131
f 117//117 131//131 132//132
f 117//117 132//132 70//70
f 72//72 74//74 133//133
f 72//72 133//133 118//118
f 18//18 19//19 134//134
f 18//18 134//134 131//131
f 135//135 136//136 137//137
f 135//135 138//138 139//139
f 135//135 140//140 141//141
f 135//135 137//137 140//140
f 135//135 141//141 138//138
f 135//135 142//142 143//143
f 135//135 143//143 136//136
f 135//135 144//144 142//142
f 135//135 139//139 144//144
f 118//118 133//133 86//86
f 120//120 119//119 145//145
f 120//120 145//145 122//122
f 119//119 86//86 146//146
f 119//119 146//146 145//145
f 86//86 133//133 147//147
f 86//86 147//147 146//146
f 136//136 147//147 148//148
f 136//136 148//148 137//137
f 136//136 149//149 147//147
f 136//136 143//143 150//150
f 136//136 150//150 151//151
f 136//136 151//151 149//149
f 152//152 131//131 153//153
f 152//152 153//153 154//154
f 152//152 132//132 131//131
f 152//152 154//154 132//132
f 138//138 141//141 139//139
f 19//19 20//20 155//155
f 19//19 155//155 134//134
f 121//121 36//36 156//156
f 121//121 156//156 104//104
f 122//122 145//145 49//49
f 122//122 157//157 94//94
f 122//122 49//49 157//157
f 36//36 94//94 156//156
f 158//158 128//128 130//130
f 158//158 159//159 160//160
f 158//158 160//160 128//128
f 158//158 161//161 159//159
f 158//158 130//130 161//161
f 124//124 123//123 162//162
f 124//124 163//163 125//125
f 124//124 162//162 163//163
f 123//123 126//126 51//51
f 123//123 51//51 162//162
f 104//104 156//156 113//113
f 126//126 57//57 51//51
f 126//126 127//127 57//57
f 129//129 128//128 160//160
f 129//129 164//164 116//116
f 129//129 165//165 164//164
f 129//129 160//160 165//165
f 51//51 116//116 162//162
f 57//57 127//127 56//56
f 73//73 166//166 74//74
f 73//73 76//76 166//166
f 131//131 134//134 167//167
f 131//131 167//167 153//153
f 74//74 166//166 168//168
f 74//74 168//168 169//169
f 74//74 169//169 133//133
f 134//134 155//155 167//167
f 170//170 171//171 172//172
f 170//170 173//173 137//137
f 170//170 137//137 148//148
f 170//170 148//148 171//171
f 170//170 172//172 173//173
f 171//171 133//133 174//174
f 171//171 147//147 133//133
f 171//171 148//148 147//147
f 171//171 175//175 172//172
f 171//171 174//174 175//175
f 173//173 140//140 137//137
f 173//173 176//176 140//140
f 173//173 172//172 177//177
f 173//173 177//177 176//176
f 140//140 176//176 141//141
f 133//133 169//169 174//174
f 145//145 146//146 178//178
f 145//145 178//178 49//49
f 146//146 147//147 179//179
f 146//146 179//179 178//178
f 147//147 149//149 150//150
f 147//147 150//150 179//179
f 153//153 167//167 180//180
f 153//153 180//180 154//154
f 176//176 177//177 181//181
f 176//176 181//181 141//141
f 182//182 183//183 184//184
f 182//182 177//177 185//185
f 182//182 186//186 183//183
f 182//182 185//185 186//186
f 182//182 184//184 187//187
f 182//182 187//187 188//188
f 182//182 189//189 139//139
f 182//182 139//139 177//177
f 182//182 188//188 189//189
f 141//141 181//181 139//139
f 190//190 20//20 22//22
f 190//190 22//22 180//180
f 190//190 167//167 155//155
f 190//190 155//155 20//20
f 190//190 180//180 167//167
f 20//20 23//23 22//22
f 156//156 94//94 191//191
f 156//156 191//191 113//113
f 157//157 49//49 59//59
f 157//157 59//59 94//94
f 49//49 178//178 161//161
f 49//49 161//161 130//130
f 49//49 130//130 58//58
f 94//94 59//59 191//191
f 159//159 143//143 192//192
f 159//159 161//161 193//193
f 159//159 192//192 194//194
f 159//159 193//193 143//143
f 159//159 194//194 160//160
f 21//21 13//13 195//195
f 21//21 195//195 22//22
f 22//22 195//195 154//154
f 22//22 154//154 180//180
f 163//163 162//162 196//196
f 163//163 197//197 125//125
f 163//163 196//196 197//197
f 125//125 197//197 13//13
f 13//13 183//183 154//154
f 13//13 197//197 183//183
f 13//13 154//154 195//195
f 162//162 116//116 196//196
f 113//113 191//191 127//127
f 164//164 165//165 198//198
f 164//164 198//198 199//199
f 164//164 199//199 116//116
f 165//165 160//160 194//194
f 165//165 200//200 198//198
f 165//165 194//194 200//200
f 116//116 199//199 196//196
f 166//166 174//174 168//168
f 166//166 76//76 201//201
f 166//166 201//201 174//174
f 70//70 183//183 202//202
f 70//70 132//132 183//183
f 70//70 202//202 75//75
f 168//168 174//174 169//169
f 175//175 174//174 201//201
f 175//175 201//201 172//172
f 172//172 201//201 203//203
f 172//172 203//203 177//177
f 142//142 144//144 204//204
f 142//142 204//204 143//143
f 178//178 179//179 150//150
f 178//178 150//150 161//161
f 149//149 151//151 150//150
f 143//143 193//193 205//205
f 143//143 204//204 192//192
f 143//143 205//205 150//150
f 206//206 207//207 185//185
f 206//206 177//177 203//203
f 206//206 185//185 177//177
f 206//206 208//208 207//207
f 206//206 203//203 208//208
f 183//183 207//207 208//208
f 183//183 186//186 185//185
f 183//183 185//185 207//207
f 183//183 197//197 184//184
f 183//183 132//132 154//154
f 183//183 208//208 202//202
f 177//177 139//139 181//181
f 191//191 59//59 56//56
f 191//191 56//56 127//127
f 161//161 150//150 193//193
f 192//192 204//204 209//209
f 192//192 209//209 194//194
f 193//193 150//150 205//205
f 197//197 196//196 210//210
f 197//197 210//210 184//184
f 196//196 199//199 210//210
f 198//198 200//200 189//189
f 198//198 189//189 188//188
f 198//198 188//188 199//199
f 200//200 194//194 209//209
f 200//200 139//139 189//189
f 200//200 209//209 139//139
f 199//199 188//188 210//210
f 76//76 75//75 208//208
f 76//76 208//208 203//203
f 76//76 203//203 201//201
f 75//75 202//202 208//208
f 144//144 139//139 209//209
f 144//144 209//209 204//204
f 184//184 210//210 187//187
f 210//210 188//188 187//187
# 416 faces, 0 coords texture

# End of File
