####
#
# OBJ File Generated by Meshlab
#
####
# Object matlab_mesh_slc_step7_link8.obj
#
# Vertices: 111
# Faces: 218
#
####
vn -4.153043 -3.830565 1.918446
v 0.392368 0.524809 0.898031
vn -2.703691 -4.973581 2.136495
v 0.394651 0.523056 0.898031
vn -3.294697 -3.830304 3.653117
v 0.393310 0.525009 0.899265
vn -3.863219 -2.960531 3.301245
v 0.386984 0.546931 0.914431
vn -4.318555 -4.298122 0.238264
v 0.392492 0.524531 0.897321
vn -5.010072 -3.194186 1.583503
v 0.391117 0.526626 0.898016
vn -5.195340 -3.514101 0.223573
v 0.391242 0.526348 0.897306
vn -1.454492 -4.598459 3.289053
v 0.395594 0.523257 0.899265
vn -2.732956 -5.259727 0.856089
v 0.394776 0.522779 0.897321
vn -1.408416 -5.782385 2.014649
v 0.395718 0.522979 0.898555
vn -0.025329 -5.514136 2.558278
v 0.396643 0.522662 0.898291
vn 0.815295 -4.932724 3.388230
v 0.516800 0.580694 0.966515
vn -1.748107 -3.273586 4.456240
v 0.436518 0.580694 0.966515
vn 0.170813 -5.794156 1.668520
v 0.396768 0.522384 0.897581
vn -5.125169 -3.606653 -0.341145
v 0.329183 0.617365 0.849935
vn -4.769229 -3.454532 -1.746866
v 0.329526 0.617566 0.845505
vn -4.331626 -4.320574 -0.906058
v 0.392835 0.524731 0.892891
vn -5.572716 -2.552443 -0.275080
v 0.327933 0.619182 0.849921
vn -5.061460 -1.324179 -1.819165
v 0.328276 0.619383 0.845491
vn -1.432210 -5.624417 0.402098
v 0.395825 0.522184 0.896348
vn -3.656088 -5.041940 -0.725445
v 0.395119 0.522979 0.892891
vn 0.448032 -6.180783 -0.072275
v 0.470520 0.521283 0.794787
vn 1.092576 -6.146468 0.384758
v 0.471463 0.521484 0.796020
vn -2.198108 -5.434102 -0.978847
v 0.396168 0.522384 0.891918
vn -0.850696 -4.928935 -1.961594
v 0.470863 0.521484 0.790357
vn 0.716682 -5.038688 -2.418820
v 0.559830 0.542182 0.762125
vn 1.310958 -6.104642 0.465783
v 0.559830 0.542182 0.829318
vn 1.508803 -5.702639 2.155169
v 0.467116 0.546931 0.914431
vn 1.861166 -5.778182 0.884752
v 0.559916 0.542204 0.829352
vn -4.397802 -3.387437 -2.902587
v 0.330576 0.616971 0.844532
vn -3.870461 -4.005370 -2.740342
v 0.386985 0.546966 0.847266
vn -4.550078 -2.907412 -3.194135
v 0.329325 0.618788 0.844518
vn -3.886491 -4.321433 -1.995769
v 0.386984 0.546931 0.847325
vn -3.821803 -4.732674 -1.490588
v 0.393885 0.524137 0.891918
vn -2.818105 -2.593759 -4.379898
v 0.405271 0.616070 0.742971
vn -3.406864 -1.270361 -4.409151
v 0.404021 0.617888 0.742957
vn -3.262158 -4.160535 -3.363460
v 0.468580 0.523236 0.790357
vn -2.029957 -2.975337 -4.811676
v 0.407555 0.614318 0.742971
vn -1.945123 -0.957083 -5.757044
v 0.447504 0.652284 0.721240
vn -1.468786 -1.171093 -5.812467
v 0.447576 0.652321 0.721212
vn -0.475693 -3.010154 -5.334992
v 0.479633 0.542204 0.762108
vn -1.874289 -4.337150 -3.944478
v 0.479590 0.542160 0.762159
vn -1.078526 -3.961583 -4.377847
v 0.479613 0.542182 0.762125
vn -5.114716 -0.597754 1.229034
v 0.327808 0.619460 0.850631
vn -4.844554 -0.010596 3.944243
v 0.328751 0.619660 0.851865
vn -5.253925 1.267446 2.041015
v 0.354971 0.718909 0.873484
vn -6.044205 0.130689 -0.715294
v 0.328151 0.619661 0.846201
vn -5.856144 1.395272 1.198341
v 0.354926 0.718766 0.873438
vn -5.525184 0.899596 -1.846327
v 0.354926 0.718766 0.806439
vn -3.861496 -2.352944 3.791416
v 0.386985 0.546966 0.914459
vn -4.427658 -0.958213 4.182492
v 0.386987 0.546998 0.914472
vn -4.400399 1.599624 3.764124
v 0.404584 0.752802 0.925586
vn -4.580246 0.049306 4.300185
v 0.386987 0.608916 0.914472
vn -2.058121 0.614919 5.168613
v 0.436528 0.642644 0.966530
vn -4.411346 -0.824466 -3.951905
v 0.402972 0.618482 0.743930
vn -5.090938 -0.100523 -3.674846
v 0.354926 0.657040 0.806439
vn -3.462795 0.477718 -5.116645
v 0.447427 0.713857 0.721277
vn -5.006384 -0.023675 -3.796134
v 0.354971 0.657092 0.806379
vn -5.353773 1.151345 -1.931282
v 0.354971 0.718909 0.806379
vn -5.174850 1.395958 -2.116974
v 0.355016 0.719020 0.806329
vn -4.686242 2.037287 -2.157048
v 0.355054 0.719106 0.806299
vn -2.679795 -0.171285 -5.675839
v 0.447427 0.652245 0.721277
vn -3.253794 0.601647 -5.175670
v 0.447504 0.714010 0.721240
vn -3.078720 0.808700 -5.190750
v 0.447576 0.714138 0.721212
vn -5.209543 1.532613 2.065278
v 0.355016 0.719020 0.873522
vn 1.622339 -5.686470 2.123474
v 0.467202 0.546966 0.914459
vn -2.550938 1.054081 -5.231659
v 0.447644 0.714237 0.721189
vn -0.956415 -1.072414 -5.902027
v 0.447644 0.652359 0.721189
vn -3.675727 3.355561 -2.066482
v 0.355094 0.719162 0.806283
vn -5.001862 2.329213 1.766341
v 0.355054 0.719106 0.873543
vn 3.182661 -4.577681 1.531636
v 0.609495 0.575909 0.881426
vn 1.091287 -3.989146 -2.771113
v 0.559916 0.542204 0.762108
vn -1.646856 -1.434176 4.703747
v 0.436528 0.580711 0.966530
vn -1.930665 1.649211 -4.985562
v 0.447700 0.714312 0.721180
vn -0.357912 -0.681000 -6.144172
v 0.447700 0.652393 0.721180
vn 0.039650 -1.925927 -5.972474
v 0.527861 0.652359 0.721189
vn 0.251663 -1.186618 -6.059532
v 0.527983 0.652393 0.721180
vn -2.331095 3.073789 2.646619
v 0.404622 0.752844 0.925608
vn -4.355562 3.945875 1.032522
v 0.355094 0.719162 0.873553
vn 1.469243 -2.361142 3.998337
v 0.516836 0.580711 0.966530
vn 2.171820 -3.033072 -2.788145
v 0.559968 0.542228 0.762101
vn 2.660273 -5.489019 0.787278
v 0.559968 0.542228 0.829371
vn -1.100776 2.725332 -4.095098
v 0.447754 0.714361 0.721179
vn -0.025641 -0.050454 -6.282421
v 0.447754 0.652427 0.721179
vn 1.278535 -0.841970 -5.828565
v 0.528061 0.652427 0.721179
vn 0.331768 0.414500 6.210563
v 0.516836 0.642644 0.966530
vn 2.690433 -0.347449 5.276816
v 0.516844 0.580736 0.966529
vn 2.144524 1.242697 4.947228
v 0.516844 0.642652 0.966529
vn -0.096070 1.662276 6.025628
v 0.436550 0.642652 0.966529
vn -0.761392 3.906540 2.669910
v 0.404661 0.752857 0.925610
vn -2.403435 5.523884 -0.854867
v 0.404622 0.752844 0.858338
vn -1.121340 5.931024 -0.732574
v 0.404661 0.752857 0.858346
vn 4.196913 -1.729302 1.890651
v 0.609513 0.575930 0.881435
vn 4.302233 -3.328399 -1.628364
v 0.609495 0.575909 0.814156
vn 4.869455 -1.500494 -1.502119
v 0.609513 0.575930 0.814171
vn 0.403535 5.220382 -3.347978
v 0.577588 0.748042 0.773234
vn -0.636083 5.642041 -2.277827
v 0.497281 0.748042 0.773234
vn -0.126494 5.971420 -1.501279
v 0.497330 0.748051 0.773253
vn 2.444493 2.678309 -1.555903
v 0.577624 0.748051 0.773253
vn 1.775006 2.151927 -4.134390
v 0.528099 0.714379 0.721190
vn 0.566323 1.353091 -5.745998
v 0.528061 0.714361 0.721179
vn -0.653276 4.502661 -3.725371
v 0.447805 0.714379 0.721190
vn 3.165431 -0.294904 -5.115733
v 0.528099 0.652463 0.721190
vn -2.526855 5.231252 -1.885081
v 0.355136 0.719185 0.806283
vn 4.244046 -1.424124 -4.037704
v 0.559988 0.542258 0.762108
vn 1.023493 3.703552 2.751131
v 0.484955 0.752857 0.925610
vn 2.938605 3.508093 1.030485
v 0.577624 0.748051 0.840517
vn 0.119803 6.274802 -0.135232
v 0.484955 0.752857 0.858346
vn 4.819419 1.007645 2.215363
v 0.609513 0.637846 0.881435
vn 5.539715 0.531843 -1.660714
v 0.609513 0.637846 0.814171
vn 4.742800 -0.059512 -4.106773
v 0.577624 0.686135 0.773253
# 111 vertices, 0 vertices normals

f 1//1 2//2 3//3
f 1//1 3//3 4//4
f 1//1 5//5 2//2
f 1//1 6//6 7//7
f 1//1 7//7 5//5
f 1//1 4//4 6//6
f 2//2 8//8 3//3
f 2//2 5//5 9//9
f 2//2 9//9 10//10
f 2//2 10//10 8//8
f 3//3 8//8 4//4
f 8//8 11//11 12//12
f 8//8 10//10 11//11
f 8//8 12//12 13//13
f 8//8 13//13 4//4
f 11//11 10//10 14//14
f 11//11 14//14 12//12
f 15//15 5//5 7//7
f 15//15 16//16 17//17
f 15//15 17//17 5//5
f 15//15 18//18 19//19
f 15//15 7//7 18//18
f 15//15 19//19 16//16
f 5//5 17//17 9//9
f 9//9 20//20 14//14
f 9//9 14//14 10//10
f 9//9 17//17 21//21
f 9//9 21//21 20//20
f 20//20 22//22 23//23
f 20//20 23//23 14//14
f 20//20 21//21 24//24
f 20//20 24//24 22//22
f 22//22 24//24 25//25
f 22//22 25//25 26//26
f 22//22 26//26 23//23
f 14//14 23//23 27//27
f 14//14 28//28 12//12
f 14//14 27//27 29//29
f 14//14 29//29 28//28
f 23//23 26//26 27//27
f 16//16 30//30 31//31
f 16//16 19//19 32//32
f 16//16 32//32 30//30
f 16//16 33//33 17//17
f 16//16 31//31 33//33
f 17//17 34//34 21//21
f 17//17 33//33 34//34
f 21//21 34//34 24//24
f 30//30 35//35 31//31
f 30//30 32//32 36//36
f 30//30 36//36 35//35
f 34//34 33//33 24//24
f 35//35 37//37 31//31
f 35//35 38//38 37//37
f 35//35 36//36 39//39
f 35//35 39//39 38//38
f 37//37 38//38 25//25
f 37//37 25//25 31//31
f 24//24 33//33 25//25
f 38//38 39//39 40//40
f 38//38 40//40 41//41
f 38//38 42//42 25//25
f 38//38 43//43 42//42
f 38//38 41//41 43//43
f 25//25 33//33 31//31
f 25//25 42//42 43//43
f 25//25 43//43 26//26
f 44//44 6//6 4//4
f 44//44 45//45 46//46
f 44//44 18//18 6//6
f 44//44 47//47 18//18
f 44//44 48//48 49//49
f 44//44 49//49 47//47
f 44//44 46//46 48//48
f 44//44 4//4 50//50
f 44//44 50//50 51//51
f 44//44 51//51 45//45
f 6//6 18//18 7//7
f 45//45 52//52 46//46
f 45//45 53//53 54//54
f 45//45 51//51 53//53
f 45//45 54//54 52//52
f 18//18 47//47 19//19
f 47//47 49//49 19//19
f 19//19 55//55 32//32
f 19//19 49//49 56//56
f 19//19 56//56 55//55
f 55//55 36//36 32//32
f 55//55 57//57 36//36
f 55//55 56//56 58//58
f 55//55 59//59 60//60
f 55//55 58//58 59//59
f 55//55 60//60 61//61
f 55//55 61//61 57//57
f 36//36 57//57 62//62
f 36//36 62//62 39//39
f 57//57 63//63 39//39
f 57//57 39//39 62//62
f 57//57 61//61 63//63
f 48//48 46//46 49//49
f 49//49 46//46 59//59
f 49//49 59//59 58//58
f 49//49 58//58 56//56
f 63//63 64//64 40//40
f 63//63 40//40 39//39
f 63//63 61//61 64//64
f 46//46 65//65 59//59
f 46//46 52//52 65//65
f 28//28 66//66 12//12
f 28//28 29//29 66//66
f 4//4 13//13 50//50
f 59//59 65//65 60//60
f 64//64 67//67 68//68
f 64//64 68//68 40//40
f 64//64 61//61 69//69
f 64//64 69//69 67//67
f 40//40 68//68 41//41
f 65//65 52//52 70//70
f 65//65 70//70 60//60
f 66//66 29//29 71//71
f 66//66 71//71 12//12
f 27//27 26//26 72//72
f 27//27 72//72 29//29
f 50//50 13//13 73//73
f 50//50 73//73 51//51
f 60//60 70//70 61//61
f 67//67 74//74 75//75
f 67//67 75//75 68//68
f 67//67 69//69 74//74
f 76//76 68//68 75//75
f 76//76 77//77 72//72
f 76//76 72//72 41//41
f 76//76 75//75 77//77
f 76//76 41//41 68//68
f 26//26 43//43 41//41
f 26//26 41//41 72//72
f 52//52 78//78 70//70
f 52//52 54//54 78//78
f 70//70 78//78 79//79
f 70//70 79//79 61//61
f 53//53 51//51 73//73
f 53//53 73//73 54//54
f 12//12 80//80 73//73
f 12//12 71//71 80//80
f 12//12 73//73 13//13
f 29//29 72//72 81//81
f 29//29 82//82 71//71
f 29//29 81//81 82//82
f 61//61 79//79 69//69
f 74//74 69//69 83//83
f 74//74 83//83 84//84
f 74//74 84//84 75//75
f 77//77 75//75 84//84
f 77//77 85//85 81//81
f 77//77 81//81 72//72
f 77//77 84//84 85//85
f 86//86 54//54 80//80
f 86//86 80//80 87//87
f 86//86 88//88 89//89
f 86//86 89//89 54//54
f 86//86 87//87 88//88
f 78//78 54//54 90//90
f 78//78 91//91 79//79
f 78//78 90//90 92//92
f 78//78 92//92 91//91
f 54//54 73//73 80//80
f 54//54 89//89 90//90
f 79//79 91//91 69//69
f 80//80 71//71 93//93
f 80//80 93//93 87//87
f 71//71 82//82 94//94
f 71//71 94//94 95//95
f 71//71 95//95 93//93
f 82//82 81//81 94//94
f 96//96 97//97 98//98
f 96//96 99//99 100//100
f 96//96 100//100 97//97
f 96//96 98//98 99//99
f 101//101 83//83 102//102
f 101//101 85//85 83//83
f 101//101 100//100 103//103
f 101//101 102//102 100//100
f 101//101 103//103 85//85
f 91//91 97//97 104//104
f 91//91 92//92 97//97
f 91//91 104//104 69//69
f 97//97 83//83 104//104
f 97//97 100//100 102//102
f 97//97 92//92 98//98
f 97//97 102//102 83//83
f 69//69 104//104 83//83
f 83//83 85//85 84//84
f 94//94 81//81 105//105
f 94//94 105//105 95//95
f 85//85 103//103 81//81
f 81//81 103//103 105//105
f 106//106 88//88 107//107
f 106//106 107//107 108//108
f 106//106 90//90 89//89
f 106//106 89//89 88//88
f 106//106 108//108 90//90
f 88//88 109//109 107//107
f 88//88 87//87 109//109
f 107//107 109//109 110//110
f 107//107 99//99 108//108
f 107//107 110//110 99//99
f 109//109 87//87 93//93
f 109//109 93//93 110//110
f 90//90 108//108 92//92
f 93//93 95//95 110//110
f 108//108 99//99 98//98
f 108//108 98//98 92//92
f 99//99 110//110 111//111
f 99//99 111//111 100//100
f 110//110 95//95 111//111
f 100//100 111//111 103//103
f 111//111 95//95 103//103
f 95//95 105//105 103//103
# 218 faces, 0 coords texture

# End of File
