####
#
# OBJ File Generated by Meshlab
#
####
# Object matlab_mesh_step11_link3.obj
#
# Vertices: 173
# Faces: 342
#
####
vn 4.580198 -4.265595 0.162757
v 0.353852 0.249301 1.014321
vn 4.566939 -4.280261 0.258715
v 0.353476 0.248959 1.015295
vn 4.255848 -4.622166 0.017056
v 0.353284 0.248777 1.014948
vn 5.044693 -1.558838 1.162021
v 0.354218 0.249700 1.013910
vn 5.219431 -1.367877 1.537065
v 0.353842 0.249357 1.014884
vn 4.370316 -4.505877 -0.125340
v 0.353659 0.249119 1.013974
vn 4.534179 -4.338050 -0.295524
v 0.354025 0.249518 1.013563
vn 3.011905 -2.773721 2.684310
v 0.353323 0.248820 1.015689
vn 4.222884 -4.650904 0.072507
v 0.353131 0.248638 1.015342
vn 4.965498 -1.387754 1.938056
v 0.353689 0.249218 1.015278
vn 3.859378 -4.842732 0.778066
v 0.200871 0.109906 0.907290
vn 3.812523 -0.448102 3.975527
v 0.343653 0.266145 1.028889
vn 1.371121 -3.009332 5.157158
v 0.340808 0.263346 1.028889
vn -0.263957 -3.165736 4.981400
v 0.193289 0.109997 0.926196
vn -0.298864 -4.545395 -0.087957
v 0.192067 0.108764 0.925325
vn -0.655655 -4.247504 0.737698
v 0.192059 0.108765 0.925340
vn -1.631564 -3.442322 2.187890
v 0.192052 0.108770 0.925348
vn 3.634864 -4.985152 0.772895
v 0.200742 0.109788 0.907198
vn 4.427903 -4.275485 -0.748426
v 0.200678 0.109724 0.906943
vn -0.001287 -4.270864 -0.955810
v 0.200549 0.109606 0.906851
vn 5.316317 -2.367899 0.409831
v 0.383928 0.288674 0.922180
vn 5.238994 -1.292818 0.052335
v 0.390278 0.304241 0.905108
vn 4.816680 -3.849943 -0.897127
v 0.383735 0.288492 0.921833
vn 5.882624 0.455288 2.130184
v 0.387987 0.301859 0.911958
vn 5.552780 1.384467 2.587737
v 0.346319 0.268032 1.022271
vn 5.914684 0.295485 2.095943
v 0.382309 0.295956 0.928846
vn 5.568872 1.323578 2.369994
v 0.382303 0.295960 0.928862
vn -1.699096 -1.241184 5.876384
v 0.265964 0.337537 1.024881
vn -1.280176 -0.649436 5.934754
v 0.242202 0.362863 1.023294
vn -2.817910 -2.510403 4.819169
v 0.169800 0.131010 0.925349
vn -1.068465 -0.846041 5.947359
v 0.318546 0.285594 1.028902
vn -1.996760 -1.866114 5.654164
v 0.173153 0.134438 0.927670
vn -2.059257 -1.818818 5.648299
v 0.171034 0.132235 0.926195
vn 4.244406 -4.632596 -0.033221
v 0.353530 0.249001 1.013882
vn 2.784672 -5.248375 -0.871726
v 0.230718 0.138564 0.825303
vn 0.636960 -4.167474 -1.783878
v 0.238696 0.146860 0.801536
vn 4.313472 -4.154259 -1.410497
v 0.241545 0.149662 0.801536
vn 2.647184 -5.257537 -0.947633
v 0.233012 0.140949 0.818444
vn 2.150827 -5.272926 -1.052362
v 0.201078 0.110088 0.905483
vn 1.860523 -5.243862 -1.126056
v 0.200925 0.109949 0.905877
vn -4.205881 -4.340186 -1.649928
v 0.187117 0.113518 0.925340
vn -4.229962 -4.205108 -1.537787
v 0.101379 0.200656 0.918344
vn -4.005975 -3.995270 -2.732778
v 0.103674 0.203043 0.911480
vn -4.001985 -3.994876 -2.739187
v 0.139670 0.230959 0.818048
vn 0.099354 -2.672939 -3.282660
v 0.238696 0.146862 0.801532
vn -3.998206 -3.994382 -2.745392
v 0.145360 0.236877 0.801119
vn -3.661556 -3.741672 -3.385560
v 0.148017 0.238755 0.794526
vn -2.496568 -2.805111 -4.406808
v 0.152966 0.233996 0.794526
vn 4.703779 -3.970210 -1.042927
v 0.242783 0.150891 0.802385
vn 3.924554 4.095561 2.701046
v 0.291931 0.389447 0.921959
vn 3.909698 4.127392 2.673788
v 0.287321 0.397635 0.916139
vn 3.303670 4.554228 2.700569
v 0.235657 0.387569 1.004424
vn 0.602315 2.815458 3.945664
v 0.229969 0.381654 1.021347
vn 3.781832 3.963849 3.056995
v 0.315691 0.294531 1.028348
vn 4.214080 4.213947 1.547803
v 0.367286 0.327860 0.904535
vn 3.982046 4.019372 2.731975
v 0.364991 0.325473 0.911399
vn 3.791363 3.886540 3.125588
v 0.320639 0.289772 1.028348
vn 3.973921 4.019365 2.743686
v 0.323297 0.291650 1.021755
vn 3.964561 4.031984 2.738990
v 0.328987 0.297568 1.004826
vn 3.903454 4.139785 2.663751
v 0.276691 0.419594 0.897661
vn 3.850551 4.148129 2.728470
v 0.240627 0.391814 0.990972
vn 3.972627 4.122174 2.589113
v 0.281589 0.414913 0.897612
vn 3.840163 4.156385 2.730440
v 0.238318 0.389450 0.997820
vn 3.863843 4.132389 2.733568
v 0.238334 0.389430 0.997831
vn 0.388958 0.934255 6.116715
v 0.243877 0.364509 1.023294
vn 1.555046 2.259287 4.545634
v 0.229985 0.381635 1.021351
vn -1.492695 -0.358545 5.889128
v 0.227136 0.378832 1.021351
vn -2.433098 -1.424563 5.609762
v 0.079622 0.225477 0.918640
vn 1.574279 1.755666 5.159562
v 0.321397 0.288399 1.028902
vn -2.268680 -1.607331 5.634535
v 0.085323 0.219351 0.919192
vn -3.123943 -2.815848 1.496370
v 0.084086 0.218124 0.918344
vn 0.817156 1.406672 5.862423
v 0.230014 0.381602 1.021355
vn 2.432370 2.737708 4.592704
v 0.315696 0.294524 1.028350
vn 3.892697 4.172041 2.625800
v 0.276662 0.419653 0.897612
vn 3.671733 4.315176 2.705327
v 0.240614 0.391837 0.990956
vn 4.004474 4.149488 2.493324
v 0.281575 0.414951 0.897574
vn 3.867951 4.234436 2.552793
v 0.276639 0.419698 0.897574
vn 0.576875 -2.343674 5.492346
v 0.340795 0.263358 1.028899
vn 5.319483 1.950687 2.667934
v 0.346308 0.268045 1.022287
vn 3.206165 0.211841 4.187557
v 0.343644 0.266161 1.028899
vn 4.697023 -0.110039 -0.427595
v 0.390281 0.304255 0.905094
vn 5.482921 1.645553 2.411580
v 0.387987 0.301870 0.911953
vn 3.718779 -1.219638 -3.586234
v 0.242784 0.150894 0.802380
vn 4.085282 4.217906 2.224368
v 0.281564 0.414976 0.897547
vn 3.801383 4.371590 2.370962
v 0.276622 0.419729 0.897547
vn -0.421396 -1.400685 5.812443
v 0.340785 0.263370 1.028902
vn -1.378174 -2.418572 5.590821
v 0.195407 0.112200 0.927671
vn 4.674531 3.066769 2.741375
v 0.346297 0.268056 1.022299
vn 2.437302 1.265160 4.263448
v 0.343635 0.266175 1.028902
vn 3.407665 1.339049 -1.173601
v 0.390279 0.304267 0.905087
vn 4.582814 3.240955 2.664550
v 0.387984 0.301880 0.911951
vn 3.609033 -0.305419 -4.726786
v 0.388161 0.302064 0.903612
vn 4.680981 3.018231 2.689929
v 0.382296 0.295965 0.928874
vn 2.631140 -1.322288 -3.813642
v 0.241547 0.149667 0.801532
vn -2.405418 0.756476 5.211631
v 0.227118 0.378849 1.021347
vn -2.566920 -1.275576 5.591124
v 0.081741 0.227679 0.920115
vn 3.477271 4.493632 2.682167
v 0.273958 0.417845 0.904159
vn 2.486992 5.083174 2.473378
v 0.273951 0.417865 0.904135
vn 3.257729 4.601598 2.681270
v 0.237952 0.389956 0.997560
vn 4.255711 4.343881 0.610782
v 0.281559 0.414989 0.897531
vn 3.068774 4.788640 1.041944
v 0.276612 0.419746 0.897531
vn -3.113370 -3.156854 2.155505
v 0.187106 0.113527 0.925348
vn -0.965493 -0.979419 5.966127
v 0.335838 0.268126 1.028902
vn 1.898455 1.883258 4.790442
v 0.326343 0.283642 1.028902
vn -1.917311 -1.945318 5.658352
v 0.190461 0.116957 0.927671
vn -1.923753 -1.952185 5.653749
v 0.188343 0.114754 0.926196
vn -3.280251 -1.721506 1.388690
v 0.078386 0.224249 0.917792
vn 3.520914 3.616860 3.720362
v 0.320642 0.289768 1.028350
vn 3.832568 3.662370 3.289100
v 0.343628 0.266184 1.028900
vn 3.667202 3.716198 3.405767
v 0.326328 0.283659 1.028900
vn 4.032028 3.993649 2.696381
v 0.372987 0.321734 0.905087
vn 4.266487 4.183175 1.054608
v 0.384579 0.310392 0.904535
vn 4.018547 3.982264 2.733354
v 0.370691 0.319347 0.911951
vn 3.477989 2.771082 -2.997349
v 0.390273 0.304273 0.905085
vn 3.382758 2.961501 -2.611705
v 0.384584 0.310387 0.904534
vn 4.116237 3.863928 2.753427
v 0.346286 0.268063 1.022307
vn 4.016298 3.980611 2.739067
v 0.334676 0.291454 1.005378
vn 4.039854 3.956219 2.739580
v 0.351976 0.273980 1.005378
vn -1.088103 3.851343 2.138884
v 0.229964 0.381660 1.021340
vn -3.341974 -0.209524 5.141244
v 0.225881 0.377622 1.020499
vn -3.788695 2.825546 2.633462
v 0.227112 0.378854 1.021340
vn -4.273128 2.607032 2.354228
v 0.225878 0.377630 1.020495
vn -3.448742 -0.034749 5.004497
v 0.080504 0.226452 0.919267
vn -0.788660 4.694135 1.207393
v 0.237950 0.389965 0.997544
vn -0.829508 4.733103 1.369696
v 0.235654 0.387577 1.004411
vn -1.348243 5.089920 0.944567
v 0.273951 0.417871 0.904119
vn 3.141653 3.202089 -3.191163
v 0.281556 0.414991 0.897526
vn 0.186783 3.136797 -1.295349
v 0.276608 0.419749 0.897526
vn 4.461821 4.412029 0.014052
v 0.298851 0.397522 0.897531
vn 3.242067 3.072342 -2.974383
v 0.298856 0.397516 0.897526
vn 4.003225 3.994293 2.738235
v 0.328992 0.297564 1.004824
vn 4.013963 3.978461 2.745598
v 0.328986 0.285537 1.022307
vn -4.032050 -3.993674 -2.696309
v 0.095678 0.206782 0.917792
vn -4.018546 -3.982268 -2.733351
v 0.097974 0.209169 0.910928
vn -4.016289 -3.980624 -2.739060
v 0.133981 0.237072 0.817497
vn -3.354651 -3.313321 2.547937
v 0.169814 0.130994 0.925348
vn -0.406882 -0.912636 -6.128722
v 0.232996 0.152987 0.800980
vn -1.564217 -1.758164 -5.158790
v 0.147277 0.240109 0.793974
vn 1.252292 0.690469 -5.948428
v 0.235847 0.155792 0.800980
vn 2.220763 1.643147 -5.642940
v 0.381231 0.306959 0.902212
vn 2.428930 1.425717 -5.611315
v 0.389039 0.303049 0.904239
vn 1.451740 2.320124 -5.549646
v 0.386920 0.300846 0.902764
vn 0.067845 -1.630761 2.337856
v 0.080503 0.226457 0.919265
vn -4.084880 -3.914731 -2.730949
v 0.080681 0.226636 0.910928
vn -4.331538 0.247813 -1.368038
v 0.080680 0.226641 0.910922
vn -4.223717 0.281608 -1.432234
v 0.086371 0.232558 0.893993
vn -4.193192 0.258198 -1.568504
v 0.122371 0.260464 0.800567
vn -4.040031 -3.956039 -2.739577
v 0.116681 0.254547 0.817497
vn -3.752910 0.051745 0.186785
v 0.078384 0.224253 0.917789
vn 1.085818 0.831637 -5.942323
v 0.150129 0.242915 0.793974
vn 2.059226 1.804923 -5.652666
v 0.295504 0.394088 0.895204
vn -4.416185 4.468725 0.017288
v 0.235098 0.387159 0.997544
vn -4.425981 4.459054 0.070737
v 0.232802 0.384771 1.004411
vn -4.381109 4.495560 -0.215207
v 0.236717 0.388741 0.996698
vn -4.443247 4.434356 -0.143712
v 0.233865 0.385935 0.996698
vn -4.487830 4.396878 0.028294
v 0.231569 0.383547 1.003565
vn -4.334987 4.530218 -0.387019
v 0.272717 0.416647 0.903273
vn -1.211834 3.253463 -3.029587
v 0.275375 0.418525 0.896680
vn 1.923683 1.952163 -5.653780
v 0.280323 0.413766 0.896680
vn 2.224134 1.647201 -5.640386
v 0.383350 0.309162 0.903688
vn 2.063632 1.810952 -5.648970
v 0.297623 0.396292 0.896680
vn -4.013960 -3.978465 -2.745596
v 0.139671 0.242990 0.800567
vn -2.005327 -1.990063 -4.515581
v 0.142328 0.244868 0.793974
vn -4.464180 4.413315 -0.179715
v 0.231746 0.383731 0.995223
vn -4.399442 4.471472 -0.359526
v 0.234598 0.386537 0.995223
vn -4.399455 4.471456 -0.359572
v 0.089223 0.235364 0.893993
vn -4.386146 4.477403 -0.432582
v 0.125223 0.263270 0.800567
vn -2.464415 0.397647 -2.447744
v 0.125028 0.262342 0.793974
vn -4.377238 4.487899 -0.415973
v 0.270598 0.414443 0.901797
vn -1.230982 3.236462 -3.065422
v 0.273255 0.416321 0.895204
vn -1.398799 2.414375 -3.220107
v 0.127880 0.265148 0.793974
vn 0.965458 0.979419 -5.966139
v 0.132829 0.260390 0.793974
vn 1.917234 1.945294 -5.658387
v 0.278204 0.411563 0.895204
# 173 vertices, 0 vertices normals

f 1//1 2//2 3//3
f 1//1 4//4 5//5
f 1//1 5//5 2//2
f 1//1 6//6 7//7
f 1//1 3//3 6//6
f 1//1 7//7 4//4
f 2//2 8//8 9//9
f 2//2 5//5 10//10
f 2//2 10//10 8//8
f 2//2 9//9 3//3
f 8//8 11//11 9//9
f 8//8 10//10 12//12
f 8//8 13//13 14//14
f 8//8 12//12 13//13
f 8//8 15//15 11//11
f 8//8 16//16 15//15
f 8//8 14//14 17//17
f 8//8 17//17 16//16
f 11//11 18//18 19//19
f 11//11 19//19 9//9
f 11//11 15//15 18//18
f 18//18 20//20 19//19
f 18//18 15//15 20//20
f 4//4 21//21 22//22
f 4//4 7//7 23//23
f 4//4 23//23 21//21
f 4//4 22//22 24//24
f 4//4 25//25 5//5
f 4//4 24//24 26//26
f 4//4 26//26 27//27
f 4//4 27//27 25//25
f 21//21 23//23 22//22
f 5//5 12//12 10//10
f 5//5 25//25 12//12
f 28//28 29//29 30//30
f 28//28 31//31 29//29
f 28//28 32//32 31//31
f 28//28 33//33 32//32
f 28//28 30//30 33//33
f 6//6 34//34 35//35
f 6//6 3//3 9//9
f 6//6 9//9 34//34
f 6//6 36//36 37//37
f 6//6 38//38 36//36
f 6//6 35//35 38//38
f 6//6 37//37 7//7
f 34//34 39//39 35//35
f 34//34 40//40 39//39
f 34//34 9//9 20//20
f 34//34 20//20 40//40
f 39//39 40//40 36//36
f 39//39 36//36 38//38
f 39//39 38//38 35//35
f 40//40 20//20 36//36
f 9//9 19//19 20//20
f 20//20 15//15 41//41
f 20//20 41//41 42//42
f 20//20 43//43 44//44
f 20//20 42//42 43//43
f 20//20 45//45 36//36
f 20//20 46//46 47//47
f 20//20 44//44 46//46
f 20//20 47//47 48//48
f 20//20 48//48 45//45
f 7//7 37//37 23//23
f 23//23 49//49 22//22
f 23//23 37//37 49//49
f 50//50 51//51 52//52
f 50//50 52//52 53//53
f 50//50 53//53 54//54
f 50//50 55//55 51//51
f 50//50 56//56 55//55
f 50//50 54//54 57//57
f 50//50 57//57 58//58
f 50//50 59//59 56//56
f 50//50 58//58 59//59
f 51//51 60//60 61//61
f 51//51 62//62 60//60
f 51//51 61//61 63//63
f 51//51 64//64 52//52
f 51//51 63//63 64//64
f 51//51 55//55 62//62
f 29//29 65//65 66//66
f 29//29 67//67 68//68
f 29//29 66//66 67//67
f 29//29 31//31 69//69
f 29//29 70//70 71//71
f 29//29 69//69 65//65
f 29//29 68//68 70//70
f 29//29 71//71 30//30
f 65//65 72//72 66//66
f 65//65 69//69 73//73
f 65//65 73//73 72//72
f 60//60 74//74 75//75
f 60//60 62//62 74//74
f 60//60 75//75 61//61
f 74//74 62//62 76//76
f 74//74 77//77 75//75
f 74//74 76//76 77//77
f 62//62 55//55 76//76
f 13//13 12//12 78//78
f 13//13 78//78 14//14
f 12//12 25//25 79//79
f 12//12 80//80 78//78
f 12//12 79//79 80//80
f 22//22 81//81 82//82
f 22//22 82//82 24//24
f 22//22 49//49 83//83
f 22//22 83//83 81//81
f 25//25 27//27 79//79
f 24//24 82//82 27//27
f 24//24 27//27 26//26
f 72//72 73//73 66//66
f 77//77 76//76 84//84
f 77//77 85//85 75//75
f 77//77 84//84 85//85
f 76//76 55//55 84//84
f 15//15 16//16 41//41
f 78//78 80//80 86//86
f 78//78 86//86 87//87
f 78//78 87//87 14//14
f 80//80 79//79 88//88
f 80//80 89//89 86//86
f 80//80 88//88 89//89
f 81//81 90//90 91//91
f 81//81 91//91 82//82
f 81//81 92//92 90//90
f 81//81 83//83 92//92
f 79//79 27//27 93//93
f 79//79 93//93 88//88
f 82//82 91//91 93//93
f 82//82 93//93 27//27
f 49//49 37//37 94//94
f 49//49 94//94 83//83
f 67//67 66//66 53//53
f 67//67 95//95 96//96
f 67//67 96//96 68//68
f 67//67 53//53 95//95
f 97//97 85//85 98//98
f 97//97 99//99 85//85
f 97//97 98//98 99//99
f 66//66 73//73 54//54
f 66//66 54//54 53//53
f 61//61 75//75 63//63
f 85//85 84//84 100//100
f 85//85 99//99 75//75
f 85//85 101//101 98//98
f 85//85 100//100 101//101
f 64//64 63//63 52//52
f 84//84 55//55 100//100
f 41//41 16//16 102//102
f 41//41 102//102 42//42
f 16//16 17//17 102//102
f 36//36 45//45 37//37
f 37//37 45//45 94//94
f 31//31 103//103 104//104
f 31//31 104//104 69//69
f 31//31 32//32 33//33
f 31//31 33//33 103//103
f 103//103 105//105 87//87
f 103//103 86//86 89//89
f 103//103 87//87 86//86
f 103//103 89//89 104//104
f 103//103 33//33 105//105
f 105//105 106//106 87//87
f 105//105 33//33 106//106
f 70//70 68//68 107//107
f 70//70 107//107 71//71
f 106//106 14//14 87//87
f 106//106 102//102 17//17
f 106//106 17//17 14//14
f 106//106 33//33 30//30
f 106//106 30//30 102//102
f 69//69 104//104 108//108
f 69//69 108//108 73//73
f 104//104 89//89 109//109
f 104//104 110//110 108//108
f 104//104 109//109 110//110
f 89//89 88//88 109//109
f 111//111 90//90 112//112
f 111//111 113//113 90//90
f 111//111 55//55 56//56
f 111//111 112//112 55//55
f 111//111 56//56 113//113
f 90//90 113//113 91//91
f 90//90 92//92 114//114
f 90//90 114//114 115//115
f 90//90 115//115 112//112
f 88//88 93//93 116//116
f 88//88 116//116 109//109
f 113//113 56//56 117//117
f 113//113 117//117 118//118
f 113//113 118//118 91//91
f 91//91 118//118 116//116
f 91//91 116//116 93//93
f 92//92 83//83 114//114
f 83//83 94//94 114//114
f 95//95 53//53 119//119
f 95//95 120//120 96//96
f 95//95 121//121 122//122
f 95//95 119//119 121//121
f 95//95 122//122 120//120
f 96//96 120//120 123//123
f 96//96 123//123 68//68
f 68//68 123//123 107//107
f 99//99 98//98 124//124
f 99//99 52//52 63//63
f 99//99 63//63 75//75
f 99//99 124//124 125//125
f 99//99 125//125 52//52
f 98//98 101//101 126//126
f 98//98 126//126 124//124
f 52//52 125//125 119//119
f 52//52 119//119 53//53
f 73//73 108//108 57//57
f 73//73 57//57 54//54
f 108//108 110//110 57//57
f 101//101 100//100 127//127
f 101//101 128//128 126//126
f 101//101 127//127 128//128
f 100//100 129//129 130//130
f 100//100 55//55 129//129
f 100//100 130//130 127//127
f 129//129 55//55 112//112
f 129//129 112//112 130//130
f 112//112 115//115 130//130
f 131//131 56//56 59//59
f 131//131 117//117 56//56
f 131//131 132//132 117//117
f 131//131 59//59 58//58
f 131//131 58//58 132//132
f 43//43 42//42 133//133
f 43//43 134//134 135//135
f 43//43 133//133 134//134
f 43//43 135//135 44//44
f 71//71 42//42 136//136
f 71//71 136//136 30//30
f 71//71 107//107 133//133
f 71//71 133//133 42//42
f 42//42 102//102 136//136
f 136//136 102//102 30//30
f 45//45 137//137 94//94
f 45//45 48//48 138//138
f 45//45 138//138 137//137
f 94//94 137//137 139//139
f 94//94 139//139 140//140
f 94//94 141//141 114//114
f 94//94 142//142 141//141
f 94//94 140//140 142//142
f 120//120 122//122 123//123
f 123//123 122//122 143//143
f 123//123 143//143 107//107
f 144//144 134//134 107//107
f 144//144 107//107 145//145
f 144//144 146//146 147//147
f 144//144 145//145 146//146
f 144//144 147//147 148//148
f 144//144 148//148 134//134
f 134//134 133//133 107//107
f 134//134 148//148 135//135
f 107//107 143//143 149//149
f 107//107 149//149 145//145
f 137//137 138//138 139//139
f 139//139 138//138 150//150
f 139//139 151//151 140//140
f 139//139 150//150 151//151
f 110//110 109//109 132//132
f 110//110 132//132 57//57
f 109//109 116//116 132//132
f 114//114 141//141 115//115
f 117//117 132//132 116//116
f 117//117 116//116 118//118
f 132//132 58//58 57//57
f 152//152 153//153 125//125
f 152//152 124//124 154//154
f 152//152 125//125 124//124
f 152//152 155//155 153//153
f 152//152 154//154 155//155
f 153//153 121//121 119//119
f 153//153 119//119 125//125
f 153//153 155//155 156//156
f 153//153 156//156 122//122
f 153//153 122//122 121//121
f 124//124 126//126 157//157
f 124//124 157//157 154//154
f 126//126 128//128 158//158
f 126//126 158//158 157//157
f 128//128 127//127 159//159
f 128//128 159//159 158//158
f 127//127 130//130 159//159
f 130//130 115//115 160//160
f 130//130 161//161 159//159
f 130//130 160//160 161//161
f 115//115 141//141 160//160
f 46//46 44//44 135//135
f 46//46 162//162 163//163
f 46//46 135//135 162//162
f 46//46 163//163 47//47
f 47//47 163//163 138//138
f 47//47 138//138 48//48
f 141//141 142//142 140//140
f 141//141 140//140 160//160
f 155//155 122//122 156//156
f 155//155 164//164 122//122
f 155//155 154//154 165//165
f 155//155 165//165 164//164
f 122//122 164//164 149//149
f 122//122 149//149 143//143
f 164//164 146//146 149//149
f 164//164 165//165 166//166
f 164//164 166//166 146//146
f 146//146 145//145 149//149
f 146//146 166//166 147//147
f 147//147 162//162 135//135
f 147//147 135//135 148//148
f 147//147 166//166 167//167
f 147//147 167//167 168//168
f 147//147 168//168 163//163
f 147//147 163//163 162//162
f 154//154 157//157 165//165
f 157//157 169//169 165//165
f 157//157 158//158 170//170
f 157//157 170//170 169//169
f 165//165 169//169 167//167
f 165//165 167//167 166//166
f 169//169 170//170 171//171
f 169//169 171//171 167//167
f 167//167 171//171 168//168
f 168//168 171//171 172//172
f 168//168 172//172 163//163
f 163//163 172//172 150//150
f 163//163 150//150 138//138
f 158//158 159//159 170//170
f 170//170 159//159 173//173
f 170//170 173//173 171//171
f 171//171 173//173 172//172
f 159//159 161//161 173//173
f 161//161 160//160 140//140
f 161//161 151//151 173//173
f 161//161 140//140 151//151
f 173//173 151//151 150//150
f 173//173 150//150 172//172
# 342 faces, 0 coords texture

# End of File
