####
#
# OBJ File Generated by Meshlab
#
####
# Object matlab_mesh_step20_link9.obj
#
# Vertices: 209
# Faces: 414
#
####
vn 6.162406 0.920856 0.653991
v 0.669472 0.705647 0.895807
vn 6.162715 0.841594 0.848713
v 0.669154 0.704872 0.899003
vn 6.202767 0.449699 0.797579
v 0.668705 0.646170 0.948912
vn 5.981940 0.415955 -0.851001
v 0.669445 0.759455 0.779764
vn 6.059213 1.512876 0.127908
v 0.665991 0.775644 0.783315
vn 5.704026 2.215747 0.918141
v 0.603115 0.900727 1.106599
vn 5.579610 -0.898677 -0.949783
v 0.678883 0.672540 0.827294
vn 6.247422 0.100975 0.534840
v 0.675262 0.661775 0.871709
vn 6.039861 1.134768 1.236527
v 0.607690 0.801885 1.207070
vn 5.153769 2.440234 1.673695
v 0.599007 0.888215 1.158453
vn 6.058867 0.731697 1.351458
v 0.611554 0.782913 1.202821
vn 4.690630 -2.086951 3.009667
v 0.609487 0.766669 1.200650
vn 5.449278 -1.804833 1.139284
v 0.668800 0.633519 0.945302
vn 5.557462 -0.019183 2.448521
v 0.611550 0.782875 1.202848
vn 4.674410 -1.081101 3.464195
v 0.608971 0.775022 1.206516
vn 3.887613 -2.291003 4.297033
v 0.608929 0.774969 1.206531
vn 3.468078 -2.159711 4.696622
v 0.608902 0.774967 1.206552
vn 3.966170 -3.172335 3.493217
v 0.591007 0.730656 1.191949
vn 4.352264 -3.678557 0.890183
v 0.648040 0.593440 0.938361
vn 5.907894 -1.589505 0.003896
v 0.672421 0.644284 0.900887
vn 4.640951 -3.828781 -0.859271
v 0.652157 0.605985 0.886366
vn 6.199984 0.178635 0.868338
v 0.668700 0.646052 0.949007
vn 6.153637 -0.099092 1.167312
v 0.668685 0.645942 0.949106
vn 6.086281 -0.375140 1.510059
v 0.668662 0.645828 0.949175
vn 5.665349 0.051532 -2.547707
v 0.665474 0.771090 0.766125
vn 6.079837 1.284104 -0.860724
v 0.665532 0.771221 0.766391
vn 5.342654 2.706942 -0.865677
v 0.661668 0.790192 0.770640
vn 5.703780 0.862543 -1.973755
v 0.665520 0.771161 0.766243
vn 5.753782 2.337260 -0.244245
v 0.661671 0.790214 0.770813
vn 5.149099 3.032189 0.623366
v 0.604574 0.927311 1.024124
vn 3.240707 -3.146734 -2.896218
v 0.653624 0.632596 0.803823
vn 3.003040 -0.583419 -4.514826
v 0.647549 0.726789 0.751465
vn 3.375646 0.376590 -4.217737
v 0.665403 0.770967 0.766000
vn 3.549862 -2.378907 -3.524551
v 0.656209 0.640471 0.800141
vn 1.665077 4.130077 3.677658
v 0.493366 0.954787 1.186548
vn 2.437372 3.467058 4.565030
v 0.537012 0.924872 1.186548
vn 3.088783 3.796592 3.398348
v 0.577952 0.904644 1.178755
vn 1.187967 2.157436 5.596964
v 0.502804 0.867872 1.234077
vn 1.455470 5.639434 2.355720
v 0.487721 0.957376 1.183886
vn 0.776880 4.510627 3.652810
v 0.462550 0.963184 1.185274
vn 2.472263 5.334871 1.874170
v 0.499828 0.983042 1.112955
vn -0.117846 2.844867 5.486314
v 0.470952 0.876886 1.233966
vn 2.979552 4.617577 2.859840
v 0.526597 0.939388 1.178755
vn 1.500823 1.812306 5.610501
v 0.546450 0.837957 1.234077
vn 3.014507 2.120472 4.822998
v 0.586612 0.818326 1.227431
vn -0.113861 2.056170 5.741662
v 0.468368 0.869011 1.237648
vn 0.683555 0.919324 6.177227
v 0.519722 0.834267 1.237648
vn 0.794407 0.574439 6.204492
v 0.540914 0.833155 1.235294
vn 1.007580 -0.553746 6.020607
v 0.577456 0.804942 1.232615
vn 2.356494 0.533437 5.426378
v 0.584027 0.810451 1.231113
vn 0.116101 -0.324086 6.115148
v 0.513151 0.828758 1.239150
vn 1.127122 5.840017 1.797588
v 0.494182 0.985632 1.110293
vn 2.705034 5.445692 0.845529
v 0.503448 0.993808 1.068540
vn 3.542197 5.016206 1.295592
v 0.547095 0.963893 1.068540
vn 3.709502 4.930980 0.439357
v 0.583536 0.943800 1.044217
vn 1.561360 5.756474 0.166119
v 0.497803 0.996397 1.065878
vn 2.659164 5.290404 -0.830479
v 0.532181 0.978544 1.044217
vn 3.518484 4.928654 1.652630
v 0.543474 0.953127 1.112955
vn 3.684487 4.856520 1.520590
v 0.579418 0.931255 1.096211
vn 4.083677 4.582061 1.187779
v 0.583635 0.943682 1.044365
vn 3.295255 4.900097 2.133786
v 0.526858 0.939242 1.178694
vn 3.957844 3.490475 2.714326
v 0.578068 0.904586 1.178694
vn 3.991202 4.599547 1.483289
v 0.579527 0.931170 1.096218
vn 0.305654 5.752274 -0.255685
v 0.467877 1.002361 1.050752
vn -0.431430 5.964742 1.646224
v 0.463759 0.989816 1.102747
vn -0.536549 5.646584 2.364788
v 0.462273 0.963217 1.185262
vn 1.807862 5.331828 -2.738562
v 0.574925 0.849411 0.792828
vn 1.582645 5.476011 -2.635383
v 0.557116 0.863247 0.810529
vn 0.317983 5.642827 -2.043631
v 0.467859 1.002348 1.050699
vn 2.781752 5.232594 -1.612462
v 0.553180 0.962124 1.023929
vn 1.953678 3.834496 -3.751379
v 0.610213 0.824908 0.770341
vn 0.840592 4.944408 -3.599300
v 0.545908 0.848724 0.776877
vn 0.426752 5.275056 -3.154917
v 0.524910 0.865144 0.797164
vn -1.590006 -5.814299 -1.723581
v 0.517442 0.585468 0.870620
vn -1.874934 -5.858057 -0.949969
v 0.513821 0.574702 0.915035
vn -2.286983 -5.689402 -1.225103
v 0.508176 0.577292 0.912374
vn -2.178793 -5.588055 -1.777174
v 0.511797 0.588057 0.867958
vn -0.376267 -4.253269 -3.298868
v 0.535195 0.607602 0.790673
vn -0.020127 -5.887280 -1.652225
v 0.533784 0.581005 0.873216
vn 0.020987 -5.584605 0.447788
v 0.529666 0.568460 0.925210
vn -0.981868 -5.572423 1.123889
v 0.529608 0.568471 0.925236
vn -2.498072 -5.263041 0.420496
v 0.465362 0.592277 0.931746
vn -3.004123 -5.250867 -1.613865
v 0.469479 0.604822 0.879751
vn -2.363866 -4.169469 -3.328980
v 0.470946 0.631432 0.797207
vn 4.314754 4.013625 -0.591202
v 0.604534 0.927380 1.023929
vn 5.406992 2.811029 1.105321
v 0.603108 0.900712 1.106679
vn 4.954277 3.597171 1.167597
v 0.604561 0.927278 1.024286
vn 4.566495 4.059741 1.461258
v 0.578110 0.904560 1.178639
vn 4.414791 4.234072 1.420476
v 0.579562 0.931126 1.096247
vn 5.164750 1.090975 2.837479
v 0.607681 0.801885 1.207107
vn 4.714918 3.924622 1.329935
v 0.600458 0.914789 1.076039
vn 4.367596 4.302710 1.348525
v 0.583664 0.943614 1.044494
vn 4.634830 2.985625 -1.758617
v 0.661651 0.790171 0.770502
vn 4.275101 1.624604 4.050080
v 0.586742 0.818256 1.227348
vn 4.612282 0.129141 4.224248
v 0.605102 0.794031 1.210776
vn 3.939153 0.249865 4.783031
v 0.584163 0.810403 1.231016
vn 3.697995 -0.929029 4.871307
v 0.588033 0.791393 1.226757
vn 3.226631 -1.974330 5.011692
v 0.587956 0.791368 1.226798
vn 2.840886 -1.272722 5.323505
v 0.587904 0.791387 1.226840
vn 4.328602 1.053961 -3.843287
v 0.665444 0.771100 0.766068
vn 3.218693 2.842407 -3.437833
v 0.661568 0.790164 0.770341
vn 3.293860 4.941698 -2.045432
v 0.610440 0.824827 0.770502
vn -0.167242 4.241999 3.777203
v 0.462293 0.963205 1.185290
vn 3.069754 -2.636824 4.776016
v 0.602331 0.769459 1.208054
vn 1.502693 -1.839109 5.503905
v 0.581332 0.785879 1.228342
vn 1.112028 -3.343849 4.820092
v 0.563437 0.741567 1.213738
vn 2.036650 -3.977744 3.647093
v 0.584435 0.725147 1.193451
vn -0.195743 -1.593310 6.056838
v 0.517027 0.809695 1.234877
vn 0.188520 -2.624315 5.610043
v 0.563375 0.741609 1.213765
vn 1.938795 1.827122 -5.586680
v 0.661524 0.790046 0.770277
vn 0.888935 2.332951 -5.672665
v 0.610128 0.824816 0.770277
vn 0.411023 3.724391 -4.749233
v 0.545896 0.848676 0.776820
vn -1.497932 3.691303 4.728854
v 0.350491 0.943734 1.170638
vn -1.221422 2.934786 5.419740
v 0.455721 0.957696 1.186792
vn -1.220265 2.934497 5.420157
v 0.459708 0.955330 1.188972
vn -2.245160 4.689259 2.717805
v 0.350469 0.943751 1.170613
vn -1.920820 3.216999 4.957089
v 0.343919 0.938225 1.172140
vn -3.811736 3.140271 2.408375
v 0.343892 0.938239 1.172116
vn -1.221169 2.934319 5.420049
v 0.453136 0.949821 1.190474
vn -2.059814 2.830625 5.137724
v 0.341334 0.930350 1.175822
vn -4.232015 2.293728 2.839796
v 0.341306 0.930358 1.175802
vn -0.605386 1.019175 5.790869
v 0.461796 0.863503 1.239150
vn -1.419602 0.580335 5.576834
v 0.349994 0.844032 1.224497
vn -3.056459 1.176438 4.443622
v 0.349962 0.844043 1.224484
vn -0.767916 -1.305539 6.083442
v 0.401349 0.809287 1.224497
vn -0.722235 -1.612963 6.020045
v 0.405226 0.790224 1.220224
vn -0.883478 -2.011410 5.844174
v 0.387339 0.746004 1.205658
vn -0.314454 -2.007238 5.937162
v 0.499142 0.765470 1.220307
vn -1.046724 -1.555695 5.996876
v 0.383460 0.765082 1.209935
vn -3.596260 -0.862995 2.733058
v 0.332065 0.799852 1.209935
vn -2.228759 5.520304 0.478909
v 0.356075 0.982890 1.036100
vn -2.524182 5.358300 1.343759
v 0.351957 0.970345 1.088094
vn -2.387109 4.748995 -1.405099
v 0.356056 0.982882 1.036050
vn -3.902201 4.850634 0.849177
v 0.349503 0.977381 1.037602
vn -4.430564 3.504505 -0.855451
v 0.349479 0.977370 1.037553
vn -3.871311 4.785785 1.198298
v 0.345386 0.964836 1.089596
vn -0.211713 4.909945 -3.898574
v 0.524880 0.865110 0.797121
vn -0.683015 5.336061 -3.227158
v 0.413108 0.845674 0.782512
vn -2.079178 3.941346 -3.701823
v 0.413077 0.845644 0.782472
vn -4.862470 3.479376 0.736778
v 0.345359 0.964816 1.089588
vn 2.183398 -4.753293 1.000955
v 0.641468 0.587931 0.939863
vn 2.524236 -5.358120 -1.344099
v 0.645586 0.600476 0.887868
vn 2.159585 -4.120767 -3.234563
v 0.647052 0.627087 0.805324
vn -0.508644 -5.185753 3.182364
v 0.472633 0.705676 1.178798
vn 0.607550 -5.482809 3.004873
v 0.641411 0.587937 0.939885
vn -0.754177 -4.500176 3.867942
v 0.451635 0.722096 1.199086
vn -0.666690 -3.451075 5.042575
v 0.451571 0.722143 1.199116
vn -1.777307 -5.452472 2.566860
v 0.408328 0.729493 1.185334
vn -1.752716 -3.640815 3.796542
v 0.387330 0.745913 1.205621
vn 1.435827 -4.432521 -3.482737
v 0.646998 0.627068 0.805323
vn 1.408631 -0.761091 -5.546193
v 0.647505 0.726777 0.751451
vn 1.318515 -2.936263 -5.395158
v 0.656161 0.640462 0.800133
vn 1.221122 -2.934451 -5.419988
v 0.544407 0.621000 0.785488
vn 1.220434 -2.934550 -5.420090
v 0.537835 0.615491 0.786990
vn 0.605197 -1.019360 -5.790837
v 0.535702 0.707311 0.736802
vn 1.087761 -4.202298 -4.046667
v 0.535250 0.607616 0.790672
vn -0.092034 -2.099620 -5.685130
v 0.529125 0.701799 0.738306
vn 1.272822 -2.975795 -5.384903
v 0.653575 0.632581 0.803819
vn -0.327903 -2.786339 -5.393810
v 0.526539 0.693918 0.741992
vn -0.317112 -2.332877 5.823520
v 0.499132 0.765384 1.220274
vn -2.750251 -5.231464 1.637888
v 0.444363 0.608697 0.952033
vn -3.484467 -2.304008 2.297029
v 0.335975 0.780657 1.205621
vn -3.549721 -1.487449 2.665192
v 0.335943 0.780774 1.205658
vn -4.384955 -3.747744 0.226028
v 0.393009 0.643441 0.952033
vn -5.827967 -2.163108 -0.318036
v 0.392965 0.643536 0.952080
vn -3.957747 -4.580406 -1.489992
v 0.418124 0.639566 0.879751
vn -3.810243 -4.762345 -0.621761
v 0.414007 0.627021 0.931746
vn -4.717944 -3.920914 -1.328948
v 0.397126 0.655986 0.900039
vn -4.910601 -2.999438 -2.038884
v 0.398593 0.682597 0.817495
vn -3.368234 -3.420142 -3.080162
v 0.419591 0.666177 0.797207
vn -5.198231 -3.281395 -1.185536
v 0.394476 0.670052 0.869489
vn -5.797447 -2.033432 -0.884694
v 0.394431 0.670113 0.869551
vn -0.886468 -0.549624 -6.194868
v 0.420087 0.765879 0.743348
vn -2.024523 -1.218938 -5.594611
v 0.413516 0.760370 0.744850
vn -1.007525 0.575426 -6.022498
v 0.420074 0.765942 0.743345
vn -0.135436 0.320605 -6.112183
v 0.484306 0.742081 0.736802
vn -1.382967 -2.078995 -5.763259
v 0.464870 0.725626 0.744850
vn -3.183558 -2.124514 -4.441225
v 0.410931 0.752495 0.748532
vn -2.751172 -0.246033 -5.202933
v 0.413497 0.760429 0.744848
vn -1.024007 -1.300364 -6.016489
v 0.477729 0.736569 0.738306
vn -1.702597 -2.672213 -5.384545
v 0.462286 0.717751 0.748532
vn -4.953119 -2.110600 -3.223135
v 0.389933 0.768915 0.768819
vn -5.239075 -1.019012 -2.577745
v 0.389895 0.768982 0.768835
vn -4.279063 -1.224498 -4.290129
v 0.410911 0.752548 0.748534
vn -5.547933 -1.943946 -1.634871
v 0.398551 0.682667 0.817517
vn 1.045535 1.555282 -5.997189
v 0.614007 0.805737 0.766000
vn 0.767378 1.305183 -6.083615
v 0.596109 0.761547 0.751451
vn 0.721161 1.612452 -6.020401
v 0.592231 0.780625 0.755728
vn 0.322584 2.096446 -5.900240
v 0.498325 0.805350 0.755628
vn -0.875493 3.095635 -4.919895
v 0.434093 0.829211 0.762171
vn 0.195758 1.592911 -6.056993
v 0.480428 0.761159 0.741079
vn -5.859163 2.191400 0.588024
v 0.342773 0.956935 1.093274
vn -5.996437 0.597053 -0.101879
v 0.324875 0.912744 1.078725
vn -5.717637 0.638968 1.072775
v 0.323409 0.886167 1.161253
vn -1.502355 1.839305 -5.503900
v 0.416195 0.785020 0.747622
vn -3.069737 2.637890 -4.775204
v 0.395180 0.801454 0.767923
vn -4.049428 3.095523 -3.430072
v 0.406500 0.840132 0.783975
vn -5.477221 2.117183 -1.383933
v 0.331581 0.933180 1.023004
vn -5.891213 2.142285 0.243969
v 0.327462 0.920625 1.075039
vn -4.367113 1.461797 -3.431182
v 0.388603 0.795942 0.769426
vn -6.174853 -0.997081 -0.542531
v 0.333531 0.826429 1.127407
vn -6.123098 -1.244672 -0.615335
v 0.337410 0.807350 1.123130
vn -3.186956 1.008263 -5.067110
v 0.409618 0.779508 0.749125
vn -5.574053 -0.186858 -2.187087
v 0.386016 0.788061 0.773112
vn -5.954093 0.555626 -0.772111
v 0.328995 0.925299 1.026690
vn -4.612322 -0.128996 -4.223467
v 0.392481 0.776863 0.765149
vn -6.145891 -1.058432 -0.764413
v 0.337651 0.838984 1.075372
vn -6.139487 -1.068282 -0.802427
v 0.394672 0.701746 0.821794
vn -6.137563 -1.099705 -0.772746
v 0.341530 0.819905 1.071095
# 209 vertices, 0 vertices normals

f 1//1 2//2 3//3
f 1//1 4//4 5//5
f 1//1 5//5 6//6
f 1//1 7//7 4//4
f 1//1 8//8 7//7
f 1//1 3//3 8//8
f 1//1 9//9 2//2
f 1//1 6//6 10//10
f 1//1 10//10 9//9
f 2//2 11//11 3//3
f 2//2 9//9 11//11
f 12//12 13//13 14//14
f 12//12 14//14 15//15
f 12//12 15//15 16//16
f 12//12 16//16 17//17
f 12//12 17//17 18//18
f 12//12 18//18 19//19
f 12//12 19//19 13//13
f 20//20 13//13 19//19
f 20//20 7//7 8//8
f 20//20 8//8 13//13
f 20//20 21//21 7//7
f 20//20 19//19 21//21
f 13//13 8//8 22//22
f 13//13 22//22 23//23
f 13//13 23//23 24//24
f 13//13 24//24 14//14
f 4//4 7//7 25//25
f 4//4 26//26 27//27
f 4//4 27//27 5//5
f 4//4 28//28 26//26
f 4//4 25//25 28//28
f 5//5 29//29 30//30
f 5//5 27//27 29//29
f 5//5 30//30 6//6
f 7//7 21//21 31//31
f 7//7 32//32 33//33
f 7//7 34//34 32//32
f 7//7 31//31 34//34
f 7//7 33//33 25//25
f 8//8 3//3 22//22
f 35//35 36//36 37//37
f 35//35 38//38 36//36
f 35//35 39//39 40//40
f 35//35 41//41 39//39
f 35//35 40//40 42//42
f 35//35 43//43 41//41
f 35//35 37//37 43//43
f 35//35 42//42 38//38
f 36//36 38//38 44//44
f 36//36 44//44 45//45
f 36//36 45//45 37//37
f 38//38 42//42 46//46
f 38//38 46//46 47//47
f 38//38 47//47 44//44
f 44//44 48//48 49//49
f 44//44 50//50 45//45
f 44//44 49//49 50//50
f 44//44 47//47 51//51
f 44//44 51//51 48//48
f 48//48 51//51 49//49
f 39//39 41//41 52//52
f 39//39 52//52 40//40
f 53//53 54//54 55//55
f 53//53 41//41 54//54
f 53//53 56//56 41//41
f 53//53 57//57 56//56
f 53//53 55//55 57//57
f 54//54 41//41 58//58
f 54//54 58//58 59//59
f 54//54 60//60 55//55
f 54//54 59//59 60//60
f 41//41 56//56 52//52
f 41//41 61//61 37//37
f 41//41 43//43 61//61
f 41//41 37//37 58//58
f 58//58 62//62 63//63
f 58//58 63//63 59//59
f 58//58 37//37 62//62
f 56//56 57//57 64//64
f 56//56 64//64 65//65
f 56//56 65//65 52//52
f 52//52 65//65 66//66
f 52//52 66//66 40//40
f 67//67 68//68 69//69
f 67//67 70//70 71//71
f 67//67 57//57 70//70
f 67//67 71//71 72//72
f 67//67 72//72 73//73
f 67//67 73//73 68//68
f 67//67 69//69 57//57
f 68//68 73//73 69//69
f 74//74 75//75 76//76
f 74//74 77//77 78//78
f 74//74 76//76 77//77
f 74//74 79//79 75//75
f 74//74 78//78 79//79
f 75//75 79//79 80//80
f 75//75 80//80 81//81
f 75//75 82//82 76//76
f 75//75 81//81 82//82
f 77//77 76//76 83//83
f 77//77 83//83 84//84
f 77//77 84//84 78//78
f 76//76 82//82 83//83
f 3//3 11//11 22//22
f 22//22 11//11 14//14
f 22//22 14//14 23//23
f 23//23 14//14 24//24
f 29//29 27//27 85//85
f 29//29 85//85 30//30
f 86//86 87//87 10//10
f 86//86 6//6 87//87
f 86//86 10//10 6//6
f 88//88 89//89 62//62
f 88//88 10//10 89//89
f 88//88 62//62 10//10
f 11//11 9//9 90//90
f 11//11 90//90 14//14
f 9//9 10//10 90//90
f 87//87 91//91 10//10
f 87//87 92//92 91//91
f 87//87 6//6 30//30
f 87//87 30//30 92//92
f 91//91 92//92 89//89
f 91//91 89//89 10//10
f 92//92 30//30 60//60
f 92//92 60//60 63//63
f 92//92 63//63 89//89
f 89//89 63//63 62//62
f 26//26 28//28 93//93
f 26//26 93//93 27//27
f 27//27 93//93 85//85
f 10//10 62//62 90//90
f 61//61 43//43 37//37
f 62//62 94//94 90//90
f 62//62 37//37 45//45
f 62//62 45//45 94//94
f 14//14 90//90 95//95
f 14//14 95//95 15//15
f 90//90 94//94 96//96
f 90//90 96//96 95//95
f 94//94 45//45 50//50
f 94//94 50//50 96//96
f 15//15 97//97 17//17
f 15//15 95//95 97//97
f 15//15 17//17 16//16
f 97//97 95//95 96//96
f 97//97 96//96 50//50
f 97//97 98//98 17//17
f 97//97 99//99 98//98
f 97//97 50//50 99//99
f 30//30 85//85 55//55
f 30//30 55//55 60//60
f 60//60 59//59 63//63
f 28//28 25//25 100//100
f 28//28 100//100 101//101
f 28//28 101//101 93//93
f 102//102 93//93 101//101
f 102//102 70//70 85//85
f 102//102 85//85 93//93
f 102//102 71//71 70//70
f 102//102 101//101 71//71
f 40//40 103//103 42//42
f 40//40 66//66 103//103
f 98//98 99//99 17//17
f 25//25 33//33 100//100
f 17//17 99//99 104//104
f 17//17 104//104 18//18
f 99//99 50//50 49//49
f 99//99 105//105 104//104
f 99//99 49//49 105//105
f 104//104 105//105 106//106
f 104//104 107//107 18//18
f 104//104 106//106 107//107
f 105//105 49//49 108//108
f 105//105 108//108 109//109
f 105//105 109//109 106//106
f 49//49 51//51 108//108
f 70//70 57//57 85//85
f 85//85 57//57 55//55
f 57//57 69//69 64//64
f 100//100 33//33 110//110
f 100//100 110//110 101//101
f 71//71 101//101 110//110
f 71//71 111//111 112//112
f 71//71 110//110 111//111
f 71//71 112//112 72//72
f 103//103 113//113 114//114
f 103//103 114//114 115//115
f 103//103 115//115 42//42
f 103//103 66//66 116//116
f 103//103 116//116 113//113
f 113//113 117//117 114//114
f 113//113 116//116 118//118
f 113//113 118//118 117//117
f 42//42 115//115 46//46
f 114//114 117//117 119//119
f 114//114 119//119 115//115
f 117//117 120//120 119//119
f 117//117 118//118 121//121
f 117//117 121//121 120//120
f 115//115 119//119 46//46
f 46//46 119//119 122//122
f 46//46 122//122 47//47
f 47//47 122//122 51//51
f 119//119 120//120 123//123
f 119//119 123//123 122//122
f 120//120 121//121 124//124
f 120//120 124//124 123//123
f 108//108 51//51 125//125
f 108//108 126//126 127//127
f 108//108 125//125 126//126
f 108//108 128//128 109//109
f 108//108 127//127 128//128
f 122//122 123//123 51//51
f 51//51 123//123 125//125
f 126//126 125//125 129//129
f 126//126 129//129 127//127
f 123//123 124//124 130//130
f 123//123 130//130 125//125
f 125//125 130//130 129//129
f 64//64 131//131 132//132
f 64//64 132//132 65//65
f 64//64 69//69 133//133
f 64//64 133//133 131//131
f 65//65 132//132 116//116
f 65//65 116//116 66//66
f 131//131 134//134 132//132
f 131//131 133//133 135//135
f 131//131 135//135 134//134
f 132//132 134//134 136//136
f 132//132 136//136 118//118
f 132//132 118//118 116//116
f 72//72 112//112 137//137
f 72//72 137//137 73//73
f 73//73 138//138 133//133
f 73//73 133//133 69//69
f 73//73 137//137 139//139
f 73//73 139//139 138//138
f 138//138 139//139 133//133
f 134//134 135//135 136//136
f 136//136 135//135 140//140
f 136//136 140//140 118//118
f 18//18 107//107 141//141
f 18//18 141//141 19//19
f 21//21 19//19 142//142
f 21//21 142//142 143//143
f 21//21 143//143 31//31
f 19//19 141//141 142//142
f 107//107 106//106 144//144
f 107//107 144//144 145//145
f 107//107 145//145 141//141
f 106//106 146//146 144//144
f 106//106 109//109 147//147
f 106//106 147//147 146//146
f 144//144 146//146 148//148
f 144//144 80//80 145//145
f 144//144 148//148 81//81
f 144//144 81//81 80//80
f 146//146 149//149 148//148
f 146//146 147//147 149//149
f 142//142 141//141 80//80
f 142//142 79//79 150//150
f 142//142 80//80 79//79
f 142//142 150//150 143//143
f 141//141 145//145 80//80
f 79//79 78//78 150//150
f 32//32 34//34 151//151
f 32//32 151//151 33//33
f 34//34 31//31 152//152
f 34//34 152//152 151//151
f 153//153 154//154 155//155
f 153//153 151//151 152//152
f 153//153 155//155 151//151
f 153//153 152//152 154//154
f 154//154 156//156 157//157
f 154//154 152//152 156//156
f 154//154 157//157 155//155
f 31//31 143//143 158//158
f 31//31 158//158 152//152
f 143//143 156//156 158//158
f 143//143 150//150 156//156
f 156//156 152//152 158//158
f 156//156 159//159 157//157
f 156//156 150//150 78//78
f 156//156 78//78 159//159
f 160//160 149//149 147//147
f 160//160 109//109 128//128
f 160//160 147//147 109//109
f 160//160 128//128 127//127
f 160//160 127//127 149//149
f 148//148 149//149 161//161
f 148//148 82//82 81//81
f 148//148 161//161 82//82
f 162//162 149//149 163//163
f 162//162 164//164 149//149
f 162//162 163//163 165//165
f 162//162 165//165 164//164
f 149//149 164//164 161//161
f 149//149 127//127 163//163
f 166//166 83//83 167//167
f 166//166 167//167 168//168
f 166//166 168//168 169//169
f 166//166 170//170 84//84
f 166//166 84//84 83//83
f 166//166 169//169 170//170
f 83//83 82//82 167//167
f 167//167 82//82 161//161
f 167//167 164//164 168//168
f 167//167 161//161 164//164
f 168//168 164//164 171//171
f 168//168 171//171 169//169
f 164//164 165//165 172//172
f 164//164 172//172 171//171
f 173//173 174//174 175//175
f 173//173 176//176 174//174
f 173//173 175//175 176//176
f 174//174 177//177 178//178
f 174//174 178//178 179//179
f 174//174 176//176 180//180
f 174//174 180//180 177//177
f 174//174 179//179 175//175
f 177//177 181//181 178//178
f 177//177 180//180 157//157
f 177//177 157//157 181//181
f 178//178 181//181 170//170
f 178//178 182//182 183//183
f 178//178 170//170 169//169
f 178//178 169//169 182//182
f 178//178 184//184 179//179
f 178//178 183//183 184//184
f 181//181 84//84 170//170
f 181//181 157//157 159//159
f 181//181 159//159 84//84
f 182//182 169//169 183//183
f 84//84 159//159 78//78
f 169//169 171//171 185//185
f 169//169 185//185 183//183
f 171//171 172//172 185//185
f 186//186 33//33 187//187
f 186//186 111//111 33//33
f 186//186 187//187 188//188
f 186//186 188//188 111//111
f 33//33 111//111 110//110
f 33//33 151//151 187//187
f 111//111 189//189 112//112
f 111//111 188//188 189//189
f 189//189 190//190 112//112
f 189//189 188//188 191//191
f 189//189 191//191 190//190
f 118//118 140//140 192//192
f 118//118 192//192 121//121
f 121//121 192//192 193//193
f 121//121 194//194 124//124
f 121//121 193//193 194//194
f 124//124 194//194 130//130
f 133//133 139//139 135//135
f 112//112 190//190 137//137
f 137//137 190//190 139//139
f 190//190 191//191 195//195
f 190//190 195//195 196//196
f 190//190 196//196 139//139
f 139//139 197//197 135//135
f 139//139 196//196 197//197
f 135//135 197//197 198//198
f 135//135 198//198 199//199
f 135//135 199//199 140//140
f 140//140 199//199 192//192
f 197//197 196//196 200//200
f 197//197 200//200 198//198
f 192//192 199//199 193//193
f 187//187 151//151 155//155
f 187//187 176//176 191//191
f 187//187 155//155 176//176
f 187//187 191//191 188//188
f 176//176 155//155 157//157
f 176//176 157//157 180//180
f 176//176 175//175 191//191
f 191//191 175//175 195//195
f 194//194 193//193 201//201
f 194//194 201//201 130//130
f 163//163 127//127 129//129
f 163//163 130//130 202//202
f 163//163 129//129 130//130
f 163//163 202//202 165//165
f 130//130 201//201 202//202
f 165//165 202//202 172//172
f 175//175 179//179 203//203
f 175//175 203//203 195//195
f 195//195 203//203 196//196
f 196//196 203//203 200//200
f 198//198 200//200 204//204
f 198//198 205//205 199//199
f 198//198 204//204 205//205
f 199//199 205//205 193//193
f 179//179 206//206 203//203
f 179//179 184//184 183//183
f 179//179 183//183 206//206
f 206//206 200//200 203//203
f 206//206 183//183 204//204
f 206//206 204//204 200//200
f 205//205 207//207 201//201
f 205//205 201//201 193//193
f 205//205 204//204 208//208
f 205//205 208//208 207//207
f 209//209 202//202 201//201
f 209//209 207//207 208//208
f 209//209 201//201 207//207
f 209//209 185//185 172//172
f 209//209 172//172 202//202
f 209//209 208//208 185//185
f 183//183 185//185 208//208
f 183//183 208//208 204//204
# 414 faces, 0 coords texture

# End of File
