####
#
# OBJ File Generated by Meshlab
#
####
# Object matlab_mesh_slc_step25_link2.obj
#
# Vertices: 192
# Faces: 380
#
####
vn -0.056766 -0.388007 6.258616
v -0.062566 0.284925 0.871927
vn -0.056732 -0.387980 6.258620
v -0.062133 0.284862 0.871927
vn 0.002677 0.018303 6.283131
v -0.061910 0.284865 0.871927
vn 0.002214 0.018690 6.283129
v -0.062070 0.284888 0.871927
vn -0.222819 -0.322222 6.247928
v -0.062726 0.284948 0.871927
vn -2.268549 -1.568527 2.056090
v -0.104301 0.050731 0.842016
vn -0.044356 -0.404487 6.256711
v 0.059077 0.267135 0.871927
vn 2.957967 -0.621088 3.182732
v 0.059734 0.267074 0.871927
vn 0.002677 0.018304 6.283131
v 0.059349 0.267468 0.871925
vn 0.002677 0.018303 -0.000054
v -0.061862 0.285195 0.871925
vn 2.585491 0.951591 2.290751
v 0.059782 0.267405 0.871925
vn 6.092180 -1.410362 0.240626
v 0.027246 0.041254 0.841988
vn 4.799653 -3.061930 0.325732
v 0.027243 0.041183 0.841597
vn 4.622271 -3.078870 0.752466
v 0.027246 0.041254 0.841998
vn 3.137678 -3.427281 1.319178
v 0.027245 0.041255 0.842005
vn 2.527343 -3.326728 2.132360
v 0.027243 0.041256 0.842011
vn 1.681118 -3.014849 3.457881
v 0.027240 0.041257 0.842014
vn -0.188094 -2.597465 5.362413
v -0.096789 0.050187 0.842016
vn -0.129329 -2.647187 5.313421
v 0.025358 0.041342 0.842016
vn 0.505356 -2.324306 5.330180
v 0.027237 0.041259 0.842016
vn 2.212778 -4.785430 0.339855
v 0.026531 0.040053 0.836033
vn 2.503926 -4.324143 -0.304106
v 0.026531 0.040052 0.835970
vn 5.530210 -2.581388 0.033322
v 0.027243 0.041182 0.841581
vn 3.679074 -4.229038 0.698343
v 0.027243 0.041185 0.841611
vn 1.615850 -5.967135 1.051358
v 0.027242 0.041187 0.841623
vn -0.383149 -6.006134 1.719720
v 0.025346 0.041340 0.842011
vn -0.752935 -5.113869 2.706759
v -0.104299 0.050730 0.842016
vn -3.224982 -2.984959 -0.050440
v -0.104304 0.050665 0.841647
vn -1.032529 -6.078937 0.797368
v -0.104302 0.050665 0.841651
vn 5.023888 2.007326 0.424425
v 0.059797 0.267505 0.871275
vn 4.388893 2.408266 0.231944
v 0.062466 0.285757 0.753367
vn 3.741467 4.877108 1.233582
v 0.044680 0.279477 0.870216
vn 3.650751 1.664024 -1.532973
v 0.062466 0.285757 0.753305
vn 2.792143 5.599352 0.310556
v 0.045798 0.294738 0.743930
vn 2.710373 5.638512 0.548922
v 0.045843 0.294713 0.743963
vn 1.297102 3.690582 3.277287
v 0.044490 0.279608 0.870206
vn 3.522286 4.744171 1.842692
v 0.044642 0.279506 0.870215
vn 3.143615 4.443901 2.506393
v 0.044607 0.279532 0.870213
vn 2.672391 4.027926 3.016481
v 0.044577 0.279554 0.870212
vn 2.123544 3.521874 3.346782
v 0.044550 0.279573 0.870211
vn 1.703916 3.213981 3.436530
v 0.044526 0.279588 0.870209
vn 1.536757 3.325847 3.392339
v 0.044506 0.279600 0.870207
vn 0.077862 0.532344 6.236775
v 0.059189 0.267491 0.871925
vn 0.112879 1.214253 6.044372
v -0.062021 0.285219 0.871925
vn 0.077843 0.532314 6.236780
v 0.059622 0.267428 0.871925
vn 0.165309 1.085171 6.186510
v 0.044496 0.278909 0.870330
vn 0.040628 1.957191 5.566586
v -0.062678 0.285279 0.871925
vn -0.394630 0.165817 6.266933
v -0.086972 0.288389 0.870336
vn -0.405955 -0.344664 6.248769
v -0.087261 0.284425 0.870336
vn 0.277531 6.231507 0.429689
v -0.060161 0.303651 0.753341
vn 0.573486 6.219583 0.676660
v -0.059505 0.303590 0.753341
vn 1.103278 6.041209 -0.293351
v 0.045580 0.294838 0.743781
vn 0.384209 6.247354 -0.341586
v -0.060161 0.303650 0.753279
vn 0.029987 6.254369 0.262552
v -0.085432 0.304311 0.744037
vn -0.110194 6.238171 0.742562
v -0.084893 0.304295 0.744274
vn -0.504503 3.594072 3.356558
v -0.087051 0.289085 0.870206
vn -0.080672 6.247848 0.650725
v -0.085016 0.304299 0.744221
vn -0.057643 6.253703 0.571168
v -0.085131 0.304303 0.744170
vn -0.025658 6.257889 0.463438
v -0.085239 0.304306 0.744123
vn -0.000148 6.258157 0.371543
v -0.085339 0.304309 0.744078
vn 0.303496 5.135992 2.823093
v -0.085105 0.288998 0.870209
vn 0.490063 6.172824 1.030737
v 0.044469 0.279613 0.870202
vn -0.115158 3.634569 3.484517
v -0.087034 0.289084 0.870208
vn 0.288912 5.840567 1.954649
v -0.085137 0.289000 0.870207
vn 0.813607 4.435975 2.946099
v 0.044478 0.279612 0.870204
vn 1.047266 6.132161 0.747707
v 0.044547 0.280573 0.862230
vn 0.274990 4.058715 4.767624
v -0.085019 0.288989 0.870212
vn 0.280649 4.511047 3.993186
v -0.085065 0.288994 0.870211
vn -0.376524 0.563777 6.220205
v -0.087010 0.288397 0.870333
vn 0.066382 3.218427 5.283339
v -0.086980 0.289079 0.870211
vn -0.019379 3.323174 4.562019
v -0.087010 0.289082 0.870209
vn 5.982514 -1.389996 -0.667619
v 0.029215 0.058405 0.717413
vn 6.086181 -0.770811 -0.961982
v 0.029264 0.058735 0.717411
vn 5.895139 -2.065171 -0.507155
v 0.028355 0.056430 0.715242
vn 5.573900 -1.897561 -1.257497
v 0.028353 0.056425 0.715236
vn 5.816375 -2.363947 -0.234093
v 0.028285 0.055477 0.723135
vn 4.891423 -2.462529 -1.746684
v 0.028350 0.056422 0.715232
vn 3.713091 -3.003574 -2.318353
v 0.028347 0.056420 0.715228
vn 2.121815 -3.297412 -2.823380
v 0.028344 0.056418 0.715225
vn -0.273789 -4.409754 -3.254741
v 0.026452 0.056502 0.715224
vn 0.705758 -3.350424 -3.313086
v 0.028341 0.056418 0.715224
vn -1.101185 -6.113973 -0.745920
v -0.103269 0.064929 0.723201
vn -0.938406 -5.346412 -2.218979
v -0.103200 0.065890 0.715224
vn 6.094605 -0.741765 -0.946683
v 0.062433 0.285534 0.753269
vn 5.948373 -0.575510 -1.938226
v 0.028386 0.057119 0.715117
vn 2.869018 5.530541 0.036469
v 0.045757 0.294760 0.743901
vn 2.875352 5.491217 -0.124301
v 0.045720 0.294779 0.743874
vn 5.658046 -0.524675 -2.579435
v 0.028383 0.057111 0.715113
vn 3.360339 2.752517 -3.272105
v 0.045716 0.294707 0.743479
vn 3.230318 2.829458 -3.175311
v 0.045683 0.294725 0.743460
vn 5.667670 -0.407622 -2.679984
v 0.028674 0.061072 0.715117
vn 5.348379 -0.339024 -3.228375
v 0.028672 0.061076 0.715113
vn 4.606290 -0.175338 -4.187009
v 0.028670 0.061078 0.715109
vn 3.434637 0.038106 -5.149419
v 0.028667 0.061080 0.715106
vn 0.035610 6.250687 0.206255
v -0.085518 0.304313 0.743998
vn 0.358466 6.247909 -0.518381
v -0.083645 0.304227 0.743963
vn 0.365802 6.241217 -0.575139
v -0.083722 0.304229 0.743930
vn 0.548564 6.187188 -0.890792
v 0.045571 0.294838 0.743776
vn 0.022757 6.248824 0.183487
v -0.085596 0.304315 0.743963
vn 0.005377 6.245916 0.153682
v -0.085666 0.304316 0.743930
vn 0.364969 6.234769 -0.638357
v -0.083792 0.304230 0.743901
vn -0.014888 6.242562 0.122366
v -0.085729 0.304317 0.743901
vn 0.364002 6.225840 -0.718067
v -0.083854 0.304231 0.743874
vn -0.042442 6.236475 0.077164
v -0.085784 0.304317 0.743875
vn 0.362834 6.213020 -0.817822
v -0.083910 0.304231 0.743851
vn -0.078251 6.228417 0.025402
v -0.085832 0.304317 0.743851
vn 2.786149 5.532156 -0.128341
v 0.045686 0.294796 0.743851
vn -0.464214 -0.344202 6.242821
v -0.087299 0.284423 0.870333
vn 0.353167 6.204052 -0.897091
v -0.083958 0.304231 0.743831
vn -0.127857 6.214990 -0.042473
v -0.085872 0.304316 0.743831
vn 3.099325 2.874455 -3.210898
v 0.045654 0.294740 0.743444
vn 2.653675 5.593062 -0.128574
v 0.045657 0.294810 0.743831
vn 5.002911 -0.551526 -3.602457
v 0.028381 0.057104 0.715109
vn 3.077994 0.438346 -5.459386
v 0.045358 0.290672 0.742951
vn -0.474509 0.576806 6.209371
v -0.087041 0.288404 0.870331
vn -0.597318 -0.334550 6.230551
v -0.087330 0.284422 0.870331
vn 0.319112 6.196438 -0.976061
v -0.083999 0.304231 0.743814
vn -0.210394 6.187564 -0.147365
v -0.085905 0.304315 0.743814
vn -1.924634 3.003300 2.667563
v -0.087060 0.289084 0.870204
vn 0.442961 6.165412 -1.126689
v -0.083961 0.304162 0.743444
vn 0.408921 6.135477 -1.274645
v -0.084002 0.304162 0.743431
vn 0.400000 3.394037 -3.635921
v 0.045568 0.294773 0.743411
vn 2.901237 2.929222 -3.258254
v 0.045629 0.294753 0.743431
vn 2.469214 5.669583 -0.131850
v 0.045632 0.294821 0.743814
vn 3.905764 -0.576457 -4.673536
v 0.028378 0.057098 0.715106
vn 2.889840 0.464026 -5.558362
v 0.045333 0.290677 0.742937
vn -0.669753 0.582206 6.187278
v -0.087064 0.288409 0.870328
vn -0.818955 -0.318052 6.202983
v -0.087353 0.284421 0.870328
vn 0.282770 6.184109 -1.074066
v -0.084033 0.304230 0.743800
vn -0.383514 6.160528 -0.169119
v -0.085930 0.304314 0.743800
vn 0.364570 6.048682 -1.578681
v -0.084036 0.304163 0.743422
vn 2.603255 3.004162 -3.323623
v 0.045608 0.294762 0.743422
vn 2.182664 5.773073 -0.136686
v 0.045611 0.294829 0.743800
vn 2.355665 -0.583345 -5.546202
v 0.028374 0.057093 0.715105
vn 2.603847 0.501101 -5.693088
v 0.045312 0.290680 0.742927
vn 1.825711 0.241848 -5.879527
v 0.028663 0.061082 0.715105
vn -1.108871 0.593061 6.103804
v -0.087080 0.288414 0.870326
vn -1.314662 -0.280696 6.101301
v -0.087370 0.284421 0.870326
vn -3.189871 -0.350074 4.796910
v -0.104005 0.054821 0.842511
vn -0.292071 -5.097333 3.298763
v 0.025352 0.041341 0.842015
vn 0.217718 6.138942 -1.294845
v -0.085933 0.304247 0.743422
vn 0.011079 5.909889 -1.872653
v -0.085951 0.304246 0.743415
vn -0.854861 6.071332 -0.162939
v -0.085948 0.304312 0.743789
vn 2.098071 3.096699 -3.396646
v 0.045591 0.294769 0.743415
vn 1.719099 5.905212 -0.148025
v 0.045594 0.294835 0.743789
vn 0.327632 5.690165 -2.421197
v -0.084063 0.304162 0.743415
vn -0.203554 0.674312 -6.234139
v -0.102877 0.070566 0.715105
vn 0.036961 0.604036 -6.252017
v -0.100980 0.070482 0.715105
vn 0.010902 0.237105 -6.274194
v -0.100994 0.070476 0.715104
vn -2.444621 0.516968 -4.958709
v -0.102882 0.070559 0.715104
vn -2.578837 1.565017 -2.438998
v -0.085963 0.304242 0.743411
vn 0.059827 1.223461 -6.143289
v -0.084094 0.304160 0.743411
vn 0.918461 -0.681306 -6.038486
v 0.028370 0.057089 0.715104
vn 0.019055 0.262975 -6.272101
v 0.021153 0.061626 0.715104
vn 0.469236 0.345045 -6.211786
v 0.028660 0.061082 0.715104
vn 0.129542 1.789198 -5.922757
v 0.038053 0.295317 0.743411
vn 2.105167 0.560257 -5.883194
v 0.045294 0.290682 0.742920
vn 1.554356 0.606890 -5.938987
v 0.045281 0.290682 0.742916
vn 1.116713 3.169895 -3.428516
v 0.045577 0.294772 0.743412
vn -2.887795 0.616274 5.124625
v -0.087090 0.288418 0.870323
vn -3.199990 -0.090614 4.986983
v -0.087379 0.284422 0.870323
vn -1.058026 3.603516 -3.033126
v -0.085961 0.304244 0.743412
vn -2.648216 5.399653 0.627236
v -0.086991 0.290045 0.862230
vn -2.567094 5.102618 -0.191198
v -0.085958 0.304310 0.743781
vn -0.211801 -2.924755 -5.141590
v -0.095689 0.065347 0.715224
vn -0.101956 -2.076398 -5.835908
v 0.026458 0.056502 0.715224
vn 0.011451 -1.944334 -5.888636
v 0.028336 0.056419 0.715223
vn -1.785996 0.039071 -5.686606
v -0.103171 0.066566 0.715104
vn -0.013758 -0.189884 -6.278381
v -0.095665 0.066022 0.715104
vn -3.040032 -0.174463 -3.099503
v -0.103172 0.066557 0.715105
vn -0.001512 -0.017374 -6.283136
v -0.101283 0.066482 0.715104
vn -4.709670 0.359629 -2.728345
v -0.102883 0.070554 0.715105
vn -0.028710 -0.425873 -6.256365
v 0.026482 0.057172 0.715104
vn -0.001272 -0.017555 -6.283136
v -0.093777 0.065938 0.715104
vn 0.058342 -0.987149 -6.200491
v 0.028366 0.057085 0.715105
vn -0.062298 -0.860248 -6.219032
v -0.095660 0.066013 0.715105
vn -0.052574 -0.946987 -6.209019
v 0.026487 0.057168 0.715105
vn 0.180738 3.543832 -4.437838
v -0.084082 0.304161 0.743412
vn -5.204490 0.637455 2.778710
v -0.087092 0.288421 0.870320
vn -5.485171 0.262491 2.361134
v -0.087381 0.284423 0.870320
vn -6.257939 0.371682 0.266577
v -0.104272 0.051397 0.841897
vn -6.228529 0.447568 0.490881
v -0.087352 0.285084 0.870202
vn -6.269661 0.407932 -0.013999
v -0.103169 0.066623 0.715474
vn -6.270029 0.403113 -0.006132
v -0.103239 0.065662 0.723448
vn -4.825773 2.840618 -0.327177
v -0.085960 0.304307 0.743776
vn -6.266654 0.454924 -0.016448
v -0.102880 0.070619 0.715474
vn -6.275241 0.312854 -0.017048
v -0.103242 0.065597 0.723079
vn -6.275368 0.310141 -0.011753
v -0.104275 0.051332 0.841528
vn -4.604190 2.004629 1.631590
v -0.087063 0.289082 0.870202
vn -5.224996 2.556246 0.262297
v -0.086993 0.290043 0.862226
vn -2.323398 -1.656146 -2.028867
v -0.103202 0.065891 0.715224
vn -4.138359 -2.819249 -0.375621
v -0.103271 0.064931 0.723198
# 192 vertices, 0 vertices normals

f 1//1 2//2 3//3
f 1//1 3//3 4//4
f 1//1 5//5 6//6
f 1//1 4//4 5//5
f 1//1 6//6 2//2
f 2//2 7//7 3//3
f 2//2 6//6 7//7
f 7//7 8//8 3//3
f 7//7 6//6 8//8
f 3//3 8//8 9//9
f 3//3 10//10 4//4
f 3//3 9//9 10//10
f 8//8 11//11 9//9
f 8//8 12//12 13//13
f 8//8 13//13 11//11
f 8//8 14//14 12//12
f 8//8 15//15 14//14
f 8//8 16//16 15//15
f 8//8 17//17 16//16
f 8//8 6//6 18//18
f 8//8 18//18 19//19
f 8//8 19//19 20//20
f 8//8 20//20 17//17
f 21//21 22//22 23//23
f 21//21 23//23 13//13
f 21//21 13//13 24//24
f 21//21 24//24 25//25
f 21//21 15//15 16//16
f 21//21 25//25 15//15
f 21//21 26//26 27//27
f 21//21 16//16 26//26
f 21//21 28//28 22//22
f 21//21 27//27 29//29
f 21//21 29//29 28//28
f 30//30 31//31 32//32
f 30//30 11//11 13//13
f 30//30 32//32 11//11
f 30//30 13//13 31//31
f 31//31 33//33 34//34
f 31//31 35//35 36//36
f 31//31 34//34 35//35
f 31//31 37//37 32//32
f 31//31 38//38 37//37
f 31//31 39//39 38//38
f 31//31 13//13 33//33
f 31//31 40//40 39//39
f 31//31 41//41 40//40
f 31//31 42//42 41//41
f 31//31 36//36 42//42
f 10//10 9//9 43//43
f 10//10 44//44 4//4
f 10//10 43//43 44//44
f 9//9 11//11 45//45
f 9//9 45//45 43//43
f 11//11 32//32 37//37
f 11//11 37//37 38//38
f 11//11 38//38 39//39
f 11//11 39//39 40//40
f 11//11 40//40 41//41
f 11//11 46//46 45//45
f 11//11 41//41 46//46
f 5//5 4//4 47//47
f 5//5 47//47 48//48
f 5//5 49//49 6//6
f 5//5 48//48 49//49
f 4//4 44//44 47//47
f 50//50 51//51 52//52
f 50//50 53//53 54//54
f 50//50 55//55 56//56
f 50//50 57//57 55//55
f 50//50 58//58 57//57
f 50//50 59//59 58//58
f 50//50 60//60 59//59
f 50//50 54//54 60//60
f 50//50 61//61 62//62
f 50//50 63//63 64//64
f 50//50 64//64 61//61
f 50//50 56//56 63//63
f 50//50 52//52 53//53
f 50//50 65//65 51//51
f 50//50 62//62 65//65
f 51//51 66//66 52//52
f 51//51 65//65 66//66
f 47//47 44//44 36//36
f 47//47 67//67 68//68
f 47//47 69//69 48//48
f 47//47 70//70 71//71
f 47//47 68//68 70//70
f 47//47 71//71 69//69
f 47//47 36//36 65//65
f 47//47 65//65 67//67
f 44//44 43//43 46//46
f 44//44 46//46 41//41
f 44//44 41//41 42//42
f 44//44 42//42 36//36
f 43//43 45//45 46//46
f 72//72 73//73 13//13
f 72//72 74//74 75//75
f 72//72 23//23 76//76
f 72//72 76//76 74//74
f 72//72 75//75 73//73
f 72//72 13//13 23//23
f 22//22 75//75 23//23
f 22//22 77//77 75//75
f 22//22 78//78 77//77
f 22//22 79//79 78//78
f 22//22 80//80 81//81
f 22//22 81//81 79//79
f 22//22 28//28 82//82
f 22//22 83//83 80//80
f 22//22 82//82 83//83
f 33//33 84//84 85//85
f 33//33 86//86 34//34
f 33//33 87//87 86//86
f 33//33 85//85 88//88
f 33//33 89//89 90//90
f 33//33 91//91 92//92
f 33//33 13//13 84//84
f 33//33 88//88 91//91
f 33//33 90//90 87//87
f 33//33 92//92 93//93
f 33//33 93//93 94//94
f 33//33 94//94 89//89
f 84//84 73//73 85//85
f 84//84 13//13 73//73
f 73//73 75//75 85//85
f 53//53 95//95 54//54
f 53//53 96//96 95//95
f 53//53 97//97 96//96
f 53//53 52//52 98//98
f 53//53 98//98 97//97
f 55//55 57//57 56//56
f 57//57 58//58 56//56
f 58//58 59//59 56//56
f 59//59 60//60 56//56
f 60//60 54//54 56//56
f 54//54 95//95 56//56
f 95//95 99//99 56//56
f 95//95 96//96 97//97
f 95//95 97//97 99//99
f 99//99 100//100 56//56
f 99//99 97//97 100//100
f 35//35 34//34 36//36
f 100//100 97//97 101//101
f 100//100 102//102 56//56
f 100//100 101//101 102//102
f 97//97 98//98 101//101
f 34//34 86//86 36//36
f 102//102 101//101 103//103
f 102//102 104//104 56//56
f 102//102 103//103 104//104
f 101//101 98//98 103//103
f 86//86 87//87 36//36
f 104//104 103//103 105//105
f 104//104 106//106 56//56
f 104//104 105//105 106//106
f 103//103 98//98 105//105
f 87//87 107//107 36//36
f 87//87 90//90 107//107
f 74//74 76//76 75//75
f 23//23 75//75 76//76
f 85//85 75//75 88//88
f 89//89 94//94 90//90
f 91//91 88//88 92//92
f 49//49 48//48 69//69
f 49//49 108//108 6//6
f 49//49 69//69 108//108
f 12//12 14//14 13//13
f 106//106 105//105 109//109
f 106//106 110//110 56//56
f 106//106 109//109 110//110
f 105//105 98//98 109//109
f 67//67 65//65 68//68
f 107//107 90//90 111//111
f 107//107 112//112 36//36
f 107//107 111//111 112//112
f 75//75 77//77 88//88
f 13//13 14//14 24//24
f 88//88 77//77 113//113
f 88//88 113//113 92//92
f 90//90 114//114 111//111
f 90//90 94//94 114//114
f 92//92 113//113 93//93
f 108//108 69//69 115//115
f 108//108 116//116 6//6
f 108//108 115//115 116//116
f 69//69 71//71 115//115
f 14//14 15//15 24//24
f 110//110 109//109 117//117
f 110//110 118//118 119//119
f 110//110 117//117 118//118
f 110//110 119//119 56//56
f 70//70 68//68 61//61
f 70//70 61//61 71//71
f 109//109 120//120 121//121
f 109//109 121//121 117//117
f 109//109 98//98 122//122
f 109//109 122//122 120//120
f 68//68 65//65 61//61
f 112//112 111//111 123//123
f 112//112 124//124 36//36
f 112//112 123//123 124//124
f 77//77 78//78 113//113
f 24//24 15//15 25//25
f 113//113 78//78 125//125
f 113//113 125//125 93//93
f 120//120 122//122 121//121
f 111//111 114//114 126//126
f 111//111 126//126 123//123
f 114//114 94//94 126//126
f 93//93 125//125 94//94
f 116//116 115//115 127//127
f 116//116 128//128 6//6
f 116//116 127//127 128//128
f 115//115 71//71 63//63
f 115//115 63//63 127//127
f 118//118 117//117 129//129
f 118//118 130//130 119//119
f 118//118 129//129 130//130
f 71//71 61//61 64//64
f 71//71 64//64 63//63
f 117//117 121//121 131//131
f 117//117 131//131 129//129
f 61//61 65//65 62//62
f 124//124 123//123 132//132
f 124//124 133//133 65//65
f 124//124 132//132 133//133
f 124//124 65//65 36//36
f 78//78 79//79 125//125
f 125//125 79//79 134//134
f 125//125 134//134 94//94
f 121//121 122//122 131//131
f 123//123 126//126 135//135
f 123//123 135//135 132//132
f 126//126 94//94 136//136
f 126//126 136//136 135//135
f 94//94 134//134 136//136
f 128//128 127//127 137//137
f 128//128 138//138 139//139
f 128//128 137//137 138//138
f 128//128 139//139 6//6
f 26//26 16//16 140//140
f 26//26 140//140 27//27
f 127//127 63//63 56//56
f 127//127 56//56 137//137
f 16//16 17//17 140//140
f 130//130 129//129 131//131
f 130//130 141//141 142//142
f 130//130 131//131 141//141
f 130//130 143//143 119//119
f 130//130 142//142 143//143
f 133//133 132//132 144//144
f 133//133 145//145 65//65
f 133//133 144//144 145//145
f 79//79 81//81 134//134
f 141//141 131//131 146//146
f 141//141 146//146 142//142
f 147//147 148//148 149//149
f 147//147 150//150 151//151
f 147//147 149//149 150//150
f 147//147 151//151 152//152
f 147//147 152//152 148//148
f 134//134 81//81 153//153
f 134//134 153//153 136//136
f 131//131 122//122 146//146
f 148//148 154//154 149//149
f 148//148 155//155 154//154
f 148//148 152//152 156//156
f 148//148 156//156 122//122
f 148//148 122//122 155//155
f 132//132 135//135 144//144
f 135//135 136//136 157//157
f 135//135 157//157 144//144
f 136//136 153//153 155//155
f 136//136 155//155 158//158
f 136//136 159//159 157//157
f 136//136 158//158 159//159
f 138//138 137//137 160//160
f 138//138 161//161 139//139
f 138//138 160//160 161//161
f 140//140 17//17 19//19
f 140//140 18//18 27//27
f 140//140 19//19 18//18
f 137//137 56//56 119//119
f 137//137 119//119 160//160
f 17//17 20//20 19//19
f 143//143 142//142 162//162
f 143//143 163//163 119//119
f 143//143 164//164 163//163
f 143//143 162//162 164//164
f 145//145 144//144 159//159
f 145//145 66//66 65//65
f 145//145 52//52 66//66
f 145//145 159//159 52//52
f 80//80 165//165 166//166
f 80//80 166//166 81//81
f 80//80 83//83 165//165
f 81//81 166//166 167//167
f 81//81 167//167 153//153
f 168//168 169//169 170//170
f 168//168 150//150 171//171
f 168//168 171//171 169//169
f 168//168 170//170 172//172
f 168//168 172//172 150//150
f 169//169 173//173 170//170
f 169//169 171//171 174//174
f 169//169 174//174 173//173
f 173//173 174//174 153//153
f 173//173 153//153 175//175
f 173//173 176//176 170//170
f 173//173 177//177 176//176
f 173//173 175//175 177//177
f 142//142 146//146 178//178
f 142//142 178//178 162//162
f 150//150 149//149 171//171
f 150//150 172//172 151//151
f 171//171 149//149 174//174
f 174//174 149//149 154//154
f 174//174 154//154 153//153
f 153//153 154//154 155//155
f 153//153 167//167 175//175
f 146//146 122//122 178//178
f 144//144 157//157 159//159
f 155//155 122//122 158//158
f 161//161 160//160 179//179
f 161//161 180//180 139//139
f 161//161 179//179 180//180
f 139//139 180//180 6//6
f 6//6 181//181 28//28
f 6//6 28//28 29//29
f 6//6 180//180 182//182
f 6//6 27//27 18//18
f 6//6 182//182 181//181
f 6//6 29//29 27//27
f 160//160 119//119 179//179
f 183//183 184//184 185//185
f 183//183 186//186 172//172
f 183//183 170//170 187//187
f 183//183 187//187 184//184
f 183//183 172//172 170//170
f 183//183 185//185 186//186
f 181//181 184//184 188//188
f 181//181 188//188 28//28
f 181//181 182//182 189//189
f 181//181 190//190 185//185
f 181//181 185//185 184//184
f 181//181 189//189 190//190
f 184//184 187//187 188//188
f 163//163 164//164 190//190
f 163//163 190//190 189//189
f 163//163 189//189 119//119
f 164//164 162//162 185//185
f 164//164 185//185 190//190
f 119//119 189//189 179//179
f 186//186 185//185 172//172
f 52//52 159//159 98//98
f 191//191 192//192 187//187
f 191//191 165//165 83//83
f 191//191 170//170 176//176
f 191//191 187//187 170//170
f 191//191 176//176 165//165
f 191//191 83//83 192//192
f 28//28 192//192 83//83
f 28//28 188//188 192//192
f 28//28 83//83 82//82
f 192//192 188//188 187//187
f 165//165 176//176 166//166
f 166//166 176//176 177//177
f 166//166 177//177 175//175
f 166//166 175//175 167//167
f 162//162 178//178 152//152
f 162//162 151//151 185//185
f 162//162 152//152 151//151
f 172//172 185//185 151//151
f 178//178 156//156 152//152
f 178//178 122//122 156//156
f 159//159 158//158 122//122
f 159//159 122//122 98//98
f 180//180 179//179 182//182
f 179//179 189//189 182//182
# 380 faces, 0 coords texture

# End of File
