####
#
# OBJ File Generated by Meshlab
#
####
# Object matlab_mesh_slc_step26_link4.obj
#
# Vertices: 196
# Faces: 388
#
####
vn 1.494091 6.099790 0.127190
v 0.021497 0.646301 0.784639
vn 3.190330 3.079688 -1.612868
v 0.022580 0.646029 0.784449
vn 1.675816 5.638953 -0.891760
v -0.015569 0.655606 0.762339
vn 1.440105 6.088557 0.460700
v 0.021613 0.646248 0.785377
vn 5.600880 -0.225447 -1.869381
v 0.064429 0.435395 0.746954
vn 4.988686 1.020457 -2.983185
v 0.060559 0.446099 0.740128
vn 3.777493 3.700869 -0.175438
v 0.022696 0.645975 0.785187
vn 4.433318 1.667960 -4.093986
v 0.059509 0.449002 0.740128
vn 2.480232 1.183341 -5.278819
v 0.055243 0.449495 0.736313
vn 1.402958 3.273646 -3.292749
v -0.020032 0.656066 0.758417
vn 2.152974 1.378073 -5.546116
v -0.018971 0.653153 0.758106
vn 6.091045 -0.973702 -1.049669
v 0.082660 0.417686 0.866788
vn 3.465983 -3.206623 -2.029229
v 0.064151 0.434315 0.746919
vn 4.206351 -1.268781 -3.780052
v 0.060426 0.439586 0.739500
vn 6.132678 0.489127 -0.895310
v 0.064545 0.435341 0.747692
vn 4.898911 0.273390 -3.753754
v 0.060527 0.443202 0.739859
vn 3.889699 -3.710343 -1.069951
v 0.082382 0.416605 0.866753
vn 6.021489 -0.122596 -0.447918
v 0.082776 0.417632 0.867526
vn 4.701932 -3.274092 -0.732774
v 0.082498 0.416552 0.867491
vn 1.305711 -4.831633 -2.751305
v -0.054090 0.398962 0.734734
vn 2.121321 -1.630489 -4.493001
v 0.056173 0.440011 0.735682
vn 1.586037 -4.211181 -4.271614
v -0.047451 0.401447 0.734734
vn 2.354538 -5.674386 -0.834839
v 0.082375 0.416534 0.867146
vn 1.488375 -6.066335 -0.677415
v 0.082358 0.416355 0.868689
vn 3.818444 -3.795817 -0.421778
v 0.082491 0.416481 0.867884
vn 2.397149 -2.430132 1.736974
v 0.082474 0.416302 0.869427
vn 1.542980 6.050105 0.691752
v 0.039844 0.628538 0.905211
vn 1.062688 6.149830 0.637449
v -0.013010 0.643446 0.884152
vn 1.162823 6.127146 0.699099
v -0.013028 0.642795 0.890141
vn 1.525968 6.014329 0.937261
v 0.039826 0.628360 0.906754
vn 3.857900 3.582341 0.578406
v 0.040909 0.628087 0.906564
vn 3.902330 3.501501 0.192654
v 0.040927 0.628265 0.905021
vn -1.559693 3.845570 4.710544
v -0.064418 0.606094 0.919047
vn -0.952868 1.756707 5.394911
v -0.063859 0.606051 0.919263
vn -1.551947 4.194700 4.402086
v -0.031111 0.639831 0.900351
vn -1.596257 4.208773 4.376551
v -0.128802 0.604399 0.898795
vn -2.188253 2.093182 4.194566
v -0.134941 0.602172 0.898698
vn -0.270884 1.755564 5.729450
v -0.063457 0.606131 0.919263
vn -0.606443 4.590169 3.776197
v -0.025005 0.642056 0.900351
vn 0.010884 -0.112313 6.281138
v -0.061872 0.605927 0.919263
vn -0.939387 -0.511595 6.051440
v -0.064137 0.604971 0.919228
vn 0.112863 2.594387 5.719057
v -0.063053 0.606220 0.919215
vn 0.167239 2.803387 5.606596
v 0.037832 0.628412 0.907146
vn 0.306997 4.399104 3.461845
v -0.017967 0.641807 0.901385
vn 0.346424 0.934639 6.004340
v -0.061469 0.606007 0.919263
vn 0.493724 1.017172 5.998702
v -0.061065 0.606096 0.919215
vn 1.099557 2.777490 3.608093
v 0.039820 0.628288 0.907146
vn 0.036539 -0.682679 6.225362
v -0.062150 0.604847 0.919228
vn 0.420458 -0.613993 6.205967
v -0.061748 0.604927 0.919228
vn 2.386743 1.747833 2.372333
v 0.040902 0.628015 0.906956
vn 1.099172 6.048615 1.126958
v -0.014561 0.642200 0.897564
vn 0.867158 -0.572893 6.194519
v -0.061344 0.605016 0.919180
vn 0.896820 -0.558532 6.191147
v 0.039541 0.627208 0.907112
vn 6.206526 0.305722 0.133732
v 0.082759 0.417453 0.869069
vn 6.166497 -1.093033 -0.075071
v 0.082769 0.417561 0.867918
vn 4.036428 -0.416550 2.575907
v 0.082752 0.417382 0.869461
vn 1.356759 -0.650319 6.075440
v 0.040624 0.626935 0.906922
vn 1.296924 -1.375796 5.887129
v 0.058027 0.425787 0.878546
vn -0.265280 -1.825220 5.938329
v -0.022288 0.394337 0.881733
vn 0.024067 -3.662917 3.311449
v -0.051831 0.386034 0.876976
vn -1.978604 -0.531463 5.933546
v -0.134973 0.599268 0.898428
vn -2.479771 -1.191231 5.519540
v -0.134011 0.592689 0.898066
vn -2.440520 -1.478750 5.508499
v -0.059797 0.389030 0.876274
vn -1.320511 -3.277294 3.748705
v -0.058735 0.386117 0.875962
vn -2.690174 -0.724727 5.512284
v -0.135073 0.595618 0.898066
vn 0.094396 -2.189730 5.746766
v -0.020301 0.394213 0.881733
vn 0.464652 -1.574144 6.019708
v -0.019898 0.394293 0.881733
vn 0.758004 -4.086568 3.840753
v -0.019218 0.393941 0.881543
vn 0.892908 -0.774584 6.170830
v -0.060665 0.604654 0.919038
vn 0.905288 -0.760760 6.170828
v -0.060261 0.604743 0.918990
vn 1.047382 -3.671978 3.383727
v -0.018815 0.394021 0.881543
vn 1.309744 -4.229813 3.173478
v 0.082070 0.416213 0.869475
vn 1.256729 -6.111275 0.197228
v -0.048291 0.386261 0.873175
vn 1.183575 -6.140459 -0.523207
v -0.046892 0.387023 0.865732
vn -4.115244 3.510011 0.238848
v -0.141268 0.615426 0.767272
vn -4.180914 3.482056 0.383512
v -0.141286 0.614775 0.773262
vn -1.280971 5.634886 1.581070
v -0.029294 0.643033 0.897702
vn -2.906337 5.446803 -0.149331
v -0.140412 0.616038 0.759551
vn -2.812333 5.155598 -1.243799
v -0.141243 0.615354 0.756269
vn -2.879947 2.005993 -2.234367
v -0.141260 0.615339 0.756253
vn -6.210131 0.915564 0.033558
v -0.141467 0.614366 0.766777
vn -1.234653 4.699365 -2.208116
v -0.030571 0.656544 0.758744
vn -6.217356 0.837233 0.131336
v -0.141482 0.613688 0.773363
vn -1.777587 5.986976 0.549494
v -0.030778 0.655570 0.769267
vn -1.099524 6.063651 0.608286
v -0.029278 0.643710 0.891116
vn -2.557126 5.205722 1.766808
v -0.138727 0.602615 0.895075
vn -5.731700 1.291059 0.867037
v -0.139989 0.601821 0.895195
vn -3.871339 2.034806 2.195408
v -0.139983 0.601829 0.895211
vn -2.059766 5.459312 2.132374
v -0.035938 0.640545 0.897702
vn -2.930471 4.071357 3.593473
v -0.139905 0.601851 0.895263
vn -3.278857 2.423269 3.222343
v -0.139955 0.601840 0.895234
vn 0.815312 6.092251 1.297120
v -0.020173 0.642894 0.897928
vn 0.714272 6.126091 1.103617
v -0.020267 0.642911 0.897910
vn 0.552593 6.122187 1.156481
v -0.020346 0.642922 0.897895
vn 0.243806 6.114378 1.198002
v -0.020408 0.642930 0.897880
vn -0.824321 5.301141 2.404157
v -0.029274 0.643032 0.897717
vn -0.322702 0.606628 -6.244456
v -0.136429 0.612798 0.755670
vn -0.230500 0.588282 -6.251317
v -0.062401 0.409081 0.733769
vn -0.337380 0.568126 -6.247621
v -0.136461 0.609902 0.755401
vn -0.469902 1.159708 -6.125135
v -0.136328 0.616414 0.756029
vn -0.182249 0.617350 -6.249906
v -0.130377 0.614997 0.755670
vn -3.346476 0.354059 -3.163660
v -0.141354 0.611342 0.755863
vn -3.222283 0.679974 -3.082553
v -0.141261 0.615329 0.756251
vn -0.227571 0.585512 -6.251678
v -0.061352 0.406194 0.733459
vn -0.324095 0.554087 -6.249745
v -0.062433 0.406184 0.733500
vn 1.660468 1.201091 -5.559793
v -0.056349 0.411280 0.733769
vn -0.163191 0.595548 -6.252512
v -0.055300 0.408393 0.733459
vn -0.066359 0.298772 -6.266825
v -0.055332 0.405496 0.733190
vn -1.321852 -0.178404 -5.940543
v -0.061384 0.403297 0.733190
vn -0.429254 1.382110 -6.054460
v -0.130277 0.618613 0.756029
vn -1.308892 3.549820 -4.307739
v -0.134616 0.617828 0.756253
vn -0.632754 1.729995 -6.007023
v -0.134614 0.617818 0.756251
vn -0.629428 1.979353 -5.727693
v -0.124292 0.617198 0.755762
vn -0.131288 0.624263 -6.250718
v -0.026570 0.652550 0.757240
vn -0.072282 0.461646 -6.263385
v -0.032655 0.650349 0.757148
vn -0.413407 1.395833 -6.053543
v -0.124192 0.620815 0.756121
vn -0.131303 0.624264 -6.250718
v -0.025521 0.649663 0.756929
vn 0.081795 3.254104 -3.936951
v -0.026470 0.656167 0.757599
vn 0.333348 0.788187 -6.204935
v -0.025421 0.653280 0.757288
vn 2.728697 1.206848 -2.002556
v -0.129328 0.612110 0.755359
vn -0.131302 0.624262 -6.250718
v -0.031606 0.647462 0.756837
vn 0.369476 0.592930 -6.223399
v 0.048507 0.445946 0.735029
vn -0.123594 0.603050 -6.252916
v 0.042422 0.443745 0.734937
vn 0.426920 0.721293 -6.199886
v 0.048607 0.449562 0.735388
vn 0.369176 0.387477 -6.230397
v 0.048475 0.443050 0.734760
vn 1.201527 0.567662 -6.131307
v 0.055143 0.445845 0.735951
vn 1.150859 0.480192 -6.146544
v 0.055111 0.442940 0.735682
vn -0.015932 0.306113 -6.268832
v 0.042390 0.440848 0.734668
vn 0.341445 5.924408 -1.070728
v -0.021696 0.656444 0.758915
vn -0.498340 6.054276 -0.350846
v -0.030561 0.656546 0.758751
vn -1.532209 4.369102 -3.911117
v -0.127938 0.620313 0.756413
vn 3.228243 0.441199 -5.244861
v 0.056273 0.443661 0.736043
vn 2.989567 0.799707 -5.181318
v 0.056305 0.446566 0.736313
vn 0.828701 6.168497 -0.169164
v -0.021593 0.656434 0.758954
vn 0.488445 6.235452 0.596571
v -0.021792 0.655458 0.769500
vn 0.318723 6.238399 0.621309
v -0.020393 0.643607 0.891299
vn 0.651333 6.217254 0.625444
v -0.020330 0.643599 0.891322
vn 0.819621 6.193437 0.669153
v -0.014543 0.642853 0.891520
vn 0.743939 6.206608 0.634579
v -0.020251 0.643587 0.891348
vn -4.619383 -3.613644 -0.597951
v -0.065273 0.399406 0.744433
vn -4.513530 -3.769404 -0.357480
v -0.065291 0.398755 0.750423
vn -6.087897 -1.029060 -0.167608
v -0.141589 0.607503 0.766105
vn -5.872014 -2.114243 -0.634257
v -0.066323 0.402308 0.744433
vn -5.692032 -1.999999 -1.617394
v -0.065269 0.402912 0.736815
vn -5.233052 -2.868974 -1.372828
v -0.064206 0.399983 0.736815
vn -1.983165 -3.078604 -2.406292
v -0.062952 0.399059 0.734566
vn -4.929560 -3.106910 0.732244
v -0.062732 0.386595 0.872236
vn -5.851481 -1.039554 0.884271
v -0.140110 0.594967 0.894542
vn -1.587256 -5.836523 -0.595062
v -0.062968 0.398382 0.741152
vn -2.048049 -5.795090 -0.551433
v -0.063174 0.397408 0.751675
vn -2.614456 -4.062934 1.043496
v -0.061675 0.385549 0.873524
vn -6.087137 -1.043716 -0.074213
v -0.141604 0.606825 0.772693
vn -4.663886 -1.894802 3.215677
v -0.138919 0.591779 0.894558
vn -5.767373 -2.187288 0.863079
v -0.138924 0.591780 0.894542
vn -5.121916 -2.210684 2.865570
v -0.062862 0.388718 0.873847
vn -3.246823 -0.278013 -2.873885
v -0.141382 0.608475 0.755598
vn -2.159379 -3.818658 2.237977
v -0.061668 0.385549 0.873535
vn 1.130819 -6.148864 0.570356
v -0.052707 0.385464 0.873720
vn 0.908323 -6.165805 0.253073
v -0.052759 0.385453 0.873710
vn 0.385786 -6.168207 0.235557
v -0.052802 0.385447 0.873699
vn -0.598423 -2.058309 -5.171043
v -0.060334 0.400394 0.733190
vn 0.363303 -0.917921 -6.119263
v -0.054282 0.402593 0.733190
vn 0.841556 -2.730768 -5.505820
v -0.053762 0.400127 0.734028
vn 0.610493 -4.717039 -2.820050
v -0.054113 0.398958 0.734730
vn -4.001907 -1.293584 -3.956908
v -0.064137 0.402245 0.734566
vn 0.631844 -0.728771 -6.087911
v 0.049525 0.440147 0.734760
vn 0.391697 -0.825717 -6.147965
v 0.043440 0.437945 0.734668
vn 1.080130 -2.738250 -5.458736
v 0.050034 0.437785 0.735584
vn 1.024819 -2.635006 -5.495258
v -0.047656 0.402352 0.734028
vn 1.101054 -6.152232 -0.625613
v -0.054105 0.398284 0.741314
vn 0.562855 -6.218450 -0.592556
v -0.052597 0.386422 0.863163
vn 0.443386 -6.214966 -0.624217
v -0.054129 0.398281 0.741316
vn 1.872646 0.533451 -5.961659
v 0.056205 0.442916 0.735951
vn 0.663970 6.132908 -0.412267
v -0.021649 0.656441 0.758930
vn -2.893800 -0.472504 5.507341
v -0.135041 0.598522 0.898336
vn -3.730151 -0.414073 5.033467
v -0.140048 0.597858 0.894848
vn -1.799097 4.778230 3.584200
v -0.035913 0.640546 0.897717
vn -2.057217 5.601895 -1.648203
v -0.134604 0.617840 0.756269
vn -3.680064 -0.895246 4.971827
v -0.140077 0.594966 0.894580
vn -3.550548 -1.573870 4.917369
v -0.138892 0.591782 0.894580
vn -3.707931 -1.869440 4.713601
v -0.062854 0.388716 0.873859
vn -5.687391 -1.952407 -1.743717
v -0.065325 0.405415 0.734889
vn 0.345115 6.244642 0.594626
v -0.021852 0.655465 0.769474
vn 0.156731 6.252317 0.592694
v -0.021901 0.655469 0.769451
vn 0.071169 -6.253146 -0.592890
v -0.052630 0.386421 0.863164
vn 0.002368 -6.263865 -0.224834
v -0.052836 0.385447 0.873688
vn -4.795879 -1.038153 3.159084
v -0.140104 0.594964 0.894558
vn -4.924857 -0.243198 3.467183
v -0.140076 0.597844 0.894825
vn -0.720150 6.162186 0.595295
v -0.030766 0.655571 0.769287
vn -0.009361 6.250998 0.629794
v -0.029258 0.643709 0.891136
vn -0.492568 -6.220083 -0.592298
v -0.061468 0.386522 0.863000
vn -6.104281 -0.007365 1.071610
v -0.140082 0.597835 0.894808
vn -6.252971 0.487276 -0.040674
v -0.141468 0.614357 0.766758
vn -6.264989 0.386297 0.055937
v -0.141483 0.613679 0.773346
vn -6.281755 0.099864 0.040938
v -0.141576 0.609693 0.772959
vn -6.281338 0.109531 -0.058772
v -0.141561 0.610371 0.766371
# 196 vertices, 0 vertices normals

f 1//1 2//2 3//3
f 1//1 4//4 2//2
f 1//1 3//3 4//4
f 2//2 5//5 6//6
f 2//2 4//4 7//7
f 2//2 7//7 5//5
f 2//2 6//6 8//8
f 2//2 8//8 9//9
f 2//2 10//10 3//3
f 2//2 11//11 10//10
f 2//2 9//9 11//11
f 5//5 12//12 13//13
f 5//5 13//13 14//14
f 5//5 7//7 15//15
f 5//5 15//15 12//12
f 5//5 14//14 16//16
f 5//5 16//16 6//6
f 12//12 17//17 13//13
f 12//12 15//15 18//18
f 12//12 18//18 19//19
f 12//12 19//19 17//17
f 13//13 17//17 20//20
f 13//13 21//21 14//14
f 13//13 20//20 22//22
f 13//13 22//22 21//21
f 17//17 23//23 20//20
f 17//17 19//19 23//23
f 23//23 24//24 20//20
f 23//23 19//19 25//25
f 23//23 25//25 24//24
f 24//24 25//25 26//26
f 24//24 26//26 20//20
f 4//4 27//27 7//7
f 4//4 3//3 28//28
f 4//4 28//28 29//29
f 4//4 29//29 27//27
f 27//27 30//30 31//31
f 27//27 32//32 7//7
f 27//27 31//31 32//32
f 27//27 29//29 30//30
f 33//33 34//34 35//35
f 33//33 36//36 37//37
f 33//33 35//35 36//36
f 33//33 37//37 34//34
f 34//34 38//38 39//39
f 34//34 40//40 38//38
f 34//34 41//41 40//40
f 34//34 37//37 41//41
f 34//34 39//39 35//35
f 42//42 43//43 44//44
f 42//42 38//38 45//45
f 42//42 46//46 43//43
f 42//42 45//45 46//46
f 42//42 44//44 38//38
f 43//43 46//46 47//47
f 43//43 47//47 44//44
f 38//38 40//40 45//45
f 38//38 44//44 39//39
f 40//40 41//41 48//48
f 40//40 48//48 49//49
f 40//40 49//49 45//45
f 30//30 47//47 50//50
f 30//30 50//50 31//31
f 30//30 29//29 51//51
f 30//30 51//51 47//47
f 46//46 45//45 52//52
f 46//46 52//52 53//53
f 46//46 53//53 47//47
f 47//47 53//53 50//50
f 47//47 51//51 44//44
f 45//45 49//49 52//52
f 7//7 32//32 15//15
f 15//15 32//32 18//18
f 32//32 31//31 54//54
f 32//32 54//54 18//18
f 18//18 55//55 19//19
f 18//18 54//54 55//55
f 55//55 54//54 56//56
f 55//55 56//56 25//25
f 55//55 25//25 19//19
f 31//31 50//50 56//56
f 31//31 56//56 54//54
f 50//50 53//53 57//57
f 50//50 57//57 58//58
f 50//50 58//58 56//56
f 56//56 26//26 25//25
f 56//56 58//58 26//26
f 41//41 59//59 48//48
f 41//41 60//60 59//59
f 41//41 37//37 61//61
f 41//41 62//62 63//63
f 41//41 63//63 64//64
f 41//41 64//64 60//60
f 41//41 65//65 62//62
f 41//41 61//61 65//65
f 59//59 66//66 48//48
f 59//59 60//60 66//66
f 48//48 66//66 67//67
f 48//48 67//67 49//49
f 66//66 68//68 67//67
f 66//66 60//60 68//68
f 52//52 49//49 69//69
f 52//52 70//70 53//53
f 52//52 69//69 70//70
f 53//53 70//70 57//57
f 49//49 67//67 58//58
f 49//49 58//58 69//69
f 67//67 68//68 71//71
f 67//67 71//71 58//58
f 68//68 60//60 71//71
f 70//70 69//69 58//58
f 70//70 58//58 57//57
f 26//26 72//72 73//73
f 26//26 58//58 72//72
f 26//26 74//74 20//20
f 26//26 73//73 74//74
f 71//71 72//72 58//58
f 71//71 60//60 73//73
f 71//71 73//73 72//72
f 75//75 76//76 77//77
f 75//75 78//78 79//79
f 75//75 79//79 80//80
f 75//75 80//80 81//81
f 75//75 82//82 78//78
f 75//75 81//81 83//83
f 75//75 83//83 76//76
f 75//75 84//84 82//82
f 75//75 85//85 84//84
f 75//75 77//77 85//85
f 76//76 86//86 77//77
f 76//76 83//83 87//87
f 76//76 88//88 86//86
f 76//76 87//87 88//88
f 86//86 37//37 89//89
f 86//86 90//90 37//37
f 86//86 91//91 90//90
f 86//86 89//89 77//77
f 86//86 88//88 91//91
f 44//44 51//51 92//92
f 44//44 92//92 93//93
f 44//44 93//93 94//94
f 44//44 94//94 95//95
f 44//44 95//95 96//96
f 44//44 96//96 39//39
f 97//97 98//98 99//99
f 97//97 100//100 101//101
f 97//97 101//101 98//98
f 97//97 99//99 102//102
f 97//97 102//102 103//103
f 97//97 103//103 100//100
f 98//98 104//104 105//105
f 98//98 101//101 106//106
f 98//98 106//106 104//104
f 98//98 105//105 99//99
f 104//104 106//106 107//107
f 104//104 107//107 108//108
f 104//104 109//109 105//105
f 104//104 108//108 109//109
f 100//100 110//110 101//101
f 100//100 80//80 111//111
f 100//100 111//111 112//112
f 100//100 103//103 80//80
f 100//100 112//112 110//110
f 113//113 114//114 115//115
f 113//113 101//101 110//110
f 113//113 115//115 101//101
f 113//113 116//116 114//114
f 113//113 110//110 116//116
f 114//114 117//117 115//115
f 114//114 116//116 118//118
f 114//114 118//118 119//119
f 114//114 119//119 117//117
f 101//101 115//115 120//120
f 101//101 120//120 106//106
f 106//106 120//120 107//107
f 115//115 117//117 121//121
f 115//115 121//121 120//120
f 117//117 122//122 123//123
f 117//117 123//123 121//121
f 117//117 119//119 124//124
f 117//117 124//124 122//122
f 122//122 124//124 9//9
f 122//122 125//125 123//123
f 122//122 126//126 127//127
f 122//122 9//9 126//126
f 122//122 127//127 125//125
f 120//120 121//121 123//123
f 120//120 123//123 107//107
f 107//107 123//123 128//128
f 107//107 128//128 108//108
f 123//123 125//125 128//128
f 116//116 110//110 111//111
f 116//116 111//111 118//118
f 118//118 10//10 119//119
f 118//118 129//129 10//10
f 118//118 130//130 129//129
f 118//118 131//131 82//82
f 118//118 82//82 130//130
f 118//118 111//111 131//131
f 110//110 112//112 111//111
f 119//119 10//10 124//124
f 124//124 10//10 11//11
f 124//124 11//11 9//9
f 6//6 16//16 132//132
f 6//6 133//133 8//8
f 6//6 132//132 133//133
f 3//3 10//10 134//134
f 3//3 134//134 135//135
f 3//3 135//135 136//136
f 3//3 137//137 28//28
f 3//3 136//136 137//137
f 28//28 138//138 51//51
f 28//28 51//51 29//29
f 28//28 139//139 94//94
f 28//28 93//93 138//138
f 28//28 137//137 139//139
f 28//28 94//94 93//93
f 8//8 133//133 9//9
f 140//140 141//141 142//142
f 140//140 143//143 144//144
f 140//140 145//145 146//146
f 140//140 144//144 145//145
f 140//140 146//146 141//141
f 140//140 142//142 143//143
f 141//141 147//147 148//148
f 141//141 146//146 149//149
f 141//141 149//149 150//150
f 141//141 150//150 151//151
f 141//141 151//151 147//147
f 141//141 152//152 142//142
f 141//141 148//148 152//152
f 147//147 153//153 154//154
f 147//147 155//155 153//153
f 147//147 151//151 155//155
f 147//147 154//154 148//148
f 143//143 156//156 144//144
f 143//143 142//142 156//156
f 60//60 64//64 157//157
f 60//60 158//158 73//73
f 60//60 159//159 158//158
f 60//60 160//160 159//159
f 60//60 157//157 160//160
f 161//161 162//162 163//163
f 161//161 109//109 162//162
f 161//161 163//163 164//164
f 161//161 164//164 146//146
f 161//161 146//146 165//165
f 161//161 165//165 109//109
f 166//166 167//167 128//128
f 166//166 125//125 21//21
f 166//166 128//128 125//125
f 166//166 21//21 168//168
f 166//166 169//169 167//167
f 166//166 168//168 169//169
f 162//162 167//167 169//169
f 162//162 109//109 108//108
f 162//162 108//108 167//167
f 162//162 169//169 163//163
f 167//167 108//108 128//128
f 99//99 105//105 156//156
f 99//99 156//156 102//102
f 105//105 109//109 156//156
f 109//109 165//165 156//156
f 125//125 127//127 21//21
f 74//74 73//73 159//159
f 74//74 159//159 160//160
f 74//74 170//170 20//20
f 74//74 171//171 172//172
f 74//74 160//160 171//171
f 74//74 172//172 170//170
f 14//14 21//21 16//16
f 16//16 21//21 132//132
f 138//138 93//93 51//51
f 51//51 93//93 92//92
f 173//173 133//133 132//132
f 173//173 126//126 133//133
f 173//173 21//21 127//127
f 173//173 132//132 21//21
f 173//173 127//127 126//126
f 133//133 126//126 9//9
f 10//10 174//174 134//134
f 10//10 129//129 174//174
f 175//175 37//37 91//91
f 175//175 65//65 61//61
f 175//175 61//61 37//37
f 175//175 176//176 65//65
f 175//175 91//91 176//176
f 36//36 35//35 177//177
f 36//36 177//177 37//37
f 35//35 39//39 96//96
f 35//35 96//96 177//177
f 37//37 90//90 91//91
f 37//37 177//177 89//89
f 78//78 178//178 79//79
f 78//78 82//82 178//178
f 73//73 158//158 159//159
f 163//163 169//169 164//164
f 21//21 22//22 168//168
f 169//169 168//168 22//22
f 169//169 20//20 164//164
f 169//169 22//22 20//20
f 62//62 65//65 179//179
f 62//62 180//180 63//63
f 62//62 179//179 180//180
f 63//63 180//180 64//64
f 64//64 180//180 181//181
f 64//64 181//181 157//157
f 65//65 176//176 179//179
f 145//145 144//144 165//165
f 145//145 165//165 146//146
f 144//144 182//182 165//165
f 144//144 156//156 182//182
f 134//134 174//174 135//135
f 135//135 174//174 183//183
f 135//135 183//183 136//136
f 139//139 137//137 94//94
f 174//174 129//129 183//183
f 183//183 129//129 184//184
f 183//183 184//184 136//136
f 137//137 136//136 95//95
f 137//137 95//95 94//94
f 20//20 170//170 164//164
f 170//170 172//172 164//164
f 171//171 160//160 185//185
f 171//171 185//185 172//172
f 160//160 157//157 186//186
f 160//160 186//186 185//185
f 180//180 179//179 187//187
f 180//180 153//153 181//181
f 180//180 187//187 153//153
f 181//181 153//153 157//157
f 157//157 153//153 155//155
f 157//157 155//155 151//151
f 157//157 151//151 186//186
f 179//179 176//176 188//188
f 179//179 188//188 187//187
f 129//129 130//130 184//184
f 184//184 130//130 189//189
f 184//184 189//189 190//190
f 184//184 190//190 136//136
f 136//136 190//190 96//96
f 136//136 96//96 95//95
f 79//79 178//178 111//111
f 79//79 111//111 80//80
f 130//130 82//82 84//84
f 130//130 84//84 189//189
f 178//178 131//131 111//111
f 178//178 82//82 131//131
f 176//176 91//91 88//88
f 176//176 88//88 188//188
f 177//177 96//96 77//77
f 177//177 77//77 89//89
f 189//189 84//84 85//85
f 189//189 85//85 190//190
f 190//190 85//85 77//77
f 190//190 77//77 96//96
f 164//164 172//172 149//149
f 164//164 149//149 146//146
f 172//172 185//185 149//149
f 185//185 186//186 151//151
f 185//185 191//191 149//149
f 185//185 151//151 191//191
f 149//149 191//191 150//150
f 191//191 151//151 150//150
f 182//182 156//156 165//165
f 153//153 187//187 148//148
f 153//153 148//148 154//154
f 187//187 188//188 192//192
f 187//187 192//192 148//148
f 80//80 103//103 193//193
f 80//80 193//193 81//81
f 188//188 88//88 87//87
f 188//188 87//87 192//192
f 81//81 193//193 194//194
f 81//81 194//194 83//83
f 83//83 194//194 87//87
f 156//156 142//142 102//102
f 142//142 152//152 195//195
f 142//142 196//196 102//102
f 142//142 195//195 196//196
f 152//152 148//148 192//192
f 152//152 192//192 195//195
f 102//102 196//196 103//103
f 103//103 196//196 193//193
f 196//196 195//195 194//194
f 196//196 194//194 193//193
f 195//195 192//192 194//194
f 192//192 87//87 194//194
# 388 faces, 0 coords texture

# End of File
