####
#
# OBJ File Generated by Meshlab
#
####
# Object matlab_mesh_slc_step25_link4.obj
#
# Vertices: 206
# Faces: 408
#
####
vn -0.665084 -1.006570 6.112750
v -0.018785 0.604584 0.937400
vn -0.367777 -2.100387 5.830972
v -0.000766 0.392184 0.891733
vn 0.075619 -1.000323 6.182989
v -0.016809 0.604353 0.937400
vn 0.048672 -0.176459 6.256147
v -0.016975 0.605358 0.937503
vn -0.704075 1.661838 5.235734
v -0.018951 0.605588 0.937503
vn -2.162749 -0.910129 5.706210
v -0.085920 0.602662 0.922717
vn -1.959708 -1.406271 5.754569
v -0.037225 0.393127 0.888097
vn -1.574508 -2.017544 5.511091
v -0.036616 0.390505 0.887663
vn 0.200768 -3.262509 4.713237
v 0.001209 0.391954 0.891733
vn -0.308407 -3.536981 4.679329
v -0.029255 0.388026 0.887659
vn 0.833547 -2.556771 5.363067
v 0.002464 0.392163 0.891712
vn 0.852782 -0.847417 6.104733
v -0.015555 0.604563 0.937379
vn 0.601771 1.347721 5.644406
v -0.015721 0.605567 0.937482
vn 0.828829 -5.077099 3.218142
v 0.001434 0.391930 0.891673
vn 0.178461 -5.212312 3.500521
v -0.026596 0.387841 0.887269
vn 0.262068 -5.336090 3.303181
v -0.025847 0.384141 0.881481
vn 1.019505 -6.180523 -0.452236
v 0.102560 0.405304 0.869370
vn 2.402428 -2.018961 1.417627
v 0.103814 0.405514 0.869349
vn -0.001022 -5.654276 0.913386
v -0.028667 0.383019 0.879781
vn 1.001048 -6.157250 -0.742084
v 0.102534 0.405380 0.868591
vn 1.240666 -3.679154 3.776098
v 0.002689 0.392140 0.891652
vn 0.318115 -5.425781 3.130507
v -0.026295 0.383936 0.881184
vn 0.369388 -5.494671 2.984812
v -0.026727 0.383752 0.880903
vn 0.559614 -5.635662 2.709222
v -0.027142 0.383584 0.880642
vn 6.222919 0.772410 0.059380
v 0.085840 0.618217 0.913078
vn 5.883282 -1.164612 -0.218592
v 0.103859 0.405818 0.867411
vn 6.138283 0.871428 -0.694317
v 0.085815 0.618293 0.912299
vn 6.224948 0.739124 0.297768
v 0.085809 0.618000 0.914619
vn 6.237071 -0.199500 0.126995
v 0.103827 0.405600 0.868952
vn 4.155526 3.387675 0.407622
v 0.085674 0.619222 0.913181
vn 4.076118 3.403999 0.731282
v 0.085642 0.619004 0.914723
vn 4.384480 3.211931 -0.150782
v 0.085649 0.619297 0.912402
vn 5.088780 -2.874995 -0.304120
v 0.103846 0.405731 0.867808
vn 3.223941 -4.548350 -0.742054
v 0.103821 0.405807 0.867029
vn 3.663971 -2.481959 -0.984979
v 0.103833 0.405893 0.866632
vn 2.454425 -5.503694 -0.671955
v 0.103789 0.405590 0.868570
vn 3.763116 -0.052610 3.135419
v 0.085796 0.617913 0.915016
vn 2.681473 1.817230 2.455376
v 0.085630 0.618918 0.915119
vn 1.436772 -0.763235 6.057429
v -0.015151 0.604616 0.937290
vn 1.488765 -0.725648 6.046856
v 0.085571 0.617937 0.915076
vn 1.085045 1.377777 5.746540
v -0.015318 0.605621 0.937393
vn 1.592640 -1.349894 5.913291
v 0.084803 0.415314 0.877111
vn 1.391256 2.286507 4.816317
v 0.085405 0.618941 0.915179
vn 1.327442 -3.835435 3.719852
v 0.103411 0.405461 0.869438
vn -0.185929 2.427305 5.317989
v -0.017696 0.605798 0.937482
vn -0.624565 4.981416 3.636876
v 0.018078 0.638687 0.909875
vn -0.803630 4.455373 4.351784
v -0.059603 0.611091 0.924976
vn -0.872355 4.312031 4.470366
v -0.071416 0.609414 0.924472
vn -1.171189 3.304904 5.016384
v -0.076035 0.608410 0.924472
vn -1.353439 2.393523 5.607736
v -0.080053 0.607059 0.924125
vn -1.457740 2.561312 5.389133
v -0.080920 0.606845 0.924006
vn -1.473999 2.397339 5.414987
v -0.081766 0.606640 0.923874
vn -1.497993 2.201373 5.462356
v -0.082592 0.606448 0.923730
vn -1.509970 2.008461 5.530037
v -0.083395 0.606268 0.923580
vn -1.517843 1.920489 5.499697
v -0.084174 0.606104 0.923427
vn -1.521419 1.691860 5.590325
v -0.084929 0.605951 0.923270
vn -1.935069 1.206487 5.309165
v -0.085661 0.605811 0.923113
vn 2.302528 5.815354 0.509395
v 0.056894 0.641912 0.796292
vn 3.360395 2.986453 -1.614860
v 0.056868 0.641988 0.795513
vn 2.311224 5.576390 -0.862833
v 0.022556 0.655218 0.779097
vn 2.208618 5.849454 0.618916
v 0.038645 0.638196 0.901955
vn 2.127916 5.854110 0.787423
v 0.038192 0.638368 0.901939
vn 1.874407 5.934550 0.789429
v 0.037318 0.638683 0.901885
vn 2.059943 5.877341 0.792581
v 0.037750 0.638530 0.901917
vn 0.441667 3.988265 4.787161
v 0.033915 0.634179 0.913542
vn 0.026123 4.122981 4.738888
v 0.018162 0.638660 0.909905
vn -0.231233 4.483636 4.342224
v 0.018113 0.638677 0.909890
vn 2.067180 5.824095 1.125910
v 0.037676 0.637636 0.907207
vn 1.814297 5.702748 1.719582
v 0.037243 0.637778 0.907260
vn 0.858040 3.879289 4.772866
v 0.036182 0.633812 0.913513
vn 1.399826 4.901198 3.643222
v 0.046481 0.632760 0.911682
vn 1.215923 4.598707 4.085507
v 0.039777 0.633458 0.913022
vn 1.079589 4.335666 4.363106
v 0.038708 0.633634 0.913134
vn 0.760612 3.893964 4.783045
v 0.035037 0.633994 0.913563
vn 1.561024 5.256225 3.041347
v 0.046024 0.633053 0.911434
vn 0.320544 5.112357 2.469937
v 0.027358 0.640485 0.908147
vn 0.995660 -6.133705 -0.925267
v 0.102566 0.405597 0.867050
vn -1.447567 -5.545256 -0.574349
v -0.043702 0.399416 0.759362
vn -0.060123 -6.122505 -0.905090
v -0.044021 0.399764 0.756808
vn 5.734089 1.077705 -2.111600
v 0.057035 0.640983 0.795410
vn 3.945727 -2.339980 -1.712196
v 0.075053 0.428584 0.749743
vn 5.878167 0.905620 -1.996849
v 0.071267 0.443270 0.743858
vn 2.829136 0.685511 -4.125319
v 0.069331 0.438491 0.736863
vn 2.042845 -4.492580 -2.993025
v 0.067587 0.428185 0.741767
vn 5.829114 0.407941 -2.229118
v 0.072538 0.434066 0.743940
vn 5.646084 -0.353415 -2.707583
v 0.072347 0.432455 0.743540
vn 2.346494 -0.762318 -4.123486
v 0.069072 0.435343 0.736466
vn 3.658006 -3.259053 -3.813768
v 0.068830 0.433311 0.737851
vn 0.283679 -5.913669 -1.551478
v -0.043947 0.400669 0.751433
vn 1.109264 -5.044237 -3.051736
v 0.062090 0.426907 0.741767
vn 1.269139 -5.831134 -1.906893
v 0.056563 0.425540 0.742271
vn 3.201537 4.445160 -3.068979
v 0.024463 0.654300 0.779461
vn 3.087290 4.741032 -2.696400
v 0.024134 0.654501 0.779417
vn 2.932028 5.034925 -2.271358
v 0.023809 0.654678 0.779370
vn 2.768139 5.264519 -1.860619
v 0.023488 0.654834 0.779317
vn 2.598875 5.432611 -1.464369
v 0.023173 0.654974 0.779254
vn 2.449370 5.538288 -1.130222
v 0.022861 0.655101 0.779182
vn 2.600830 2.230081 -4.920168
v 0.020027 0.650649 0.771916
vn 2.283430 4.720177 -2.625472
v 0.016358 0.655870 0.773439
vn 2.497684 1.480385 -5.446703
v 0.020637 0.648026 0.771483
vn -1.162039 5.198714 2.903749
v -0.078679 0.614246 0.917812
vn -1.616866 4.937723 2.726468
v -0.084176 0.612969 0.917812
vn -1.708097 3.774692 4.709852
v -0.095173 0.608453 0.917815
vn -1.211063 -3.546708 4.848044
v -0.041210 0.385556 0.883696
vn -0.398435 -5.071286 3.473017
v -0.038385 0.385485 0.883991
vn 2.231159 5.629072 -0.797762
v 0.022256 0.655326 0.779008
vn 1.788171 5.993438 0.592841
v 0.022282 0.655080 0.781466
vn 2.057088 5.676145 -0.805401
v 0.021963 0.655427 0.778912
vn -0.522749 0.516687 -6.225560
v 0.053690 0.436773 0.737353
vn -0.459341 0.853741 -6.205456
v 0.053948 0.439921 0.737750
vn -0.256202 0.855609 -6.218396
v 0.063834 0.437214 0.736863
vn 0.134174 -1.044939 -5.867390
v 0.063575 0.434066 0.736466
vn -0.523913 -0.017075 -6.259558
v -0.046601 0.406101 0.745328
vn -3.195412 -0.598288 -3.559000
v -0.055727 0.406482 0.746119
vn -0.886536 0.696204 -6.176535
v -0.055540 0.410196 0.746491
vn -3.479249 0.608244 -3.093549
v -0.109680 0.622129 0.779550
vn -2.515835 1.875310 -1.949492
v -0.109394 0.626069 0.780028
vn -0.915116 0.728638 -6.169594
v -0.056372 0.413453 0.746999
vn -1.166338 3.259523 -4.127994
v -0.102525 0.627901 0.779533
vn -1.051146 3.438764 -3.246970
v -0.002360 0.654613 0.772325
vn -0.409894 1.282832 -6.117633
v 0.006766 0.654232 0.771535
vn 0.633595 -3.384882 -5.200339
v 0.061390 0.431352 0.737626
vn 0.385414 -2.858298 -5.576889
v 0.061357 0.431357 0.737621
vn -0.069495 -3.062083 -3.958613
v -0.045727 0.402824 0.745328
vn 0.239685 3.424642 -3.800832
v 0.013594 0.655976 0.771535
vn 2.675549 -3.647559 -4.331108
v 0.068317 0.433031 0.737713
vn 2.308873 -3.668937 -4.505633
v 0.068289 0.433044 0.737686
vn 1.886420 -3.669529 -4.688035
v 0.068265 0.433057 0.737665
vn 1.434888 -3.619728 -4.877919
v 0.068240 0.433068 0.737647
vn 1.056727 -3.423972 -5.134988
v 0.068215 0.433078 0.737635
vn 0.830066 -3.147501 -5.373409
v 0.068193 0.433088 0.737626
vn 0.928486 3.533553 -3.688465
v 0.013632 0.655973 0.771538
vn 3.079494 3.534040 -4.177493
v 0.014108 0.655864 0.771739
vn 2.925402 3.660571 -4.141811
v 0.014001 0.655893 0.771685
vn 2.709733 3.783811 -4.082038
v 0.013904 0.655918 0.771639
vn 2.494816 3.883853 -3.993366
v 0.013818 0.655939 0.771603
vn 2.122003 3.920320 -3.849020
v 0.013745 0.655955 0.771573
vn 1.496958 3.824746 -3.554751
v 0.013682 0.655967 0.771551
vn 0.879481 -3.846534 -4.866520
v 0.061425 0.431348 0.737635
vn -1.995809 -2.188787 -2.402546
v -0.054853 0.403204 0.746119
vn -2.470471 -5.552358 -0.447598
v -0.028986 0.383367 0.877227
vn -1.738399 -3.560753 3.844402
v -0.041237 0.385546 0.883682
vn -2.599835 -3.467611 2.585463
v -0.041254 0.385542 0.883668
vn -3.274031 -3.608438 0.863262
v -0.041260 0.385540 0.883655
vn -3.440324 -4.072060 -0.436534
v -0.054930 0.402142 0.752804
vn -2.891575 -5.263108 -0.350963
v -0.042090 0.386593 0.873566
vn 3.045456 -3.731033 -4.030058
v 0.068376 0.433004 0.737778
vn 2.901038 -3.674354 -4.178684
v 0.068346 0.433019 0.737744
vn -1.457800 6.072946 0.493265
v -0.093929 0.631986 0.788960
vn -1.433063 6.078825 0.472250
v 0.006581 0.656857 0.779798
vn -0.750438 3.957993 -2.940946
v 0.004467 0.656357 0.772325
vn -2.120679 5.713446 0.160598
v -0.099456 0.630619 0.789463
vn -1.057920 5.666865 2.099399
v 0.018060 0.638693 0.909861
vn 0.168951 5.901605 -0.073137
v 0.012078 0.658135 0.779798
vn -2.328004 5.674849 0.961323
v -0.099530 0.629714 0.794838
vn -2.466617 5.477128 -0.585905
v -0.109376 0.626079 0.780041
vn -3.316336 5.272982 0.812708
v -0.109453 0.625018 0.786721
vn -3.460938 5.137882 0.962485
v -0.108623 0.623963 0.796826
vn -1.861344 5.894463 1.035041
v -0.084495 0.613317 0.915258
vn -3.575946 2.227384 2.166387
v -0.095801 0.608405 0.917563
vn -1.800656 3.718351 4.696024
v -0.095327 0.608444 0.917765
vn -1.932403 3.611891 4.666222
v -0.095459 0.608437 0.917720
vn -2.060841 3.503641 4.603242
v -0.095568 0.608431 0.917679
vn -2.276197 3.179701 4.473586
v -0.095658 0.608424 0.917644
vn -2.528200 2.656006 3.998439
v -0.095726 0.608418 0.917613
vn -2.782724 2.527346 3.279928
v -0.095774 0.608410 0.917586
vn 2.714033 5.536118 0.414965
v 0.012397 0.657787 0.782353
vn 0.401866 6.034665 0.891455
v 0.027432 0.641390 0.902772
vn 1.677388 5.309102 0.513488
v 0.027113 0.641738 0.900218
vn -3.543745 -0.352906 5.144143
v -0.095962 0.604688 0.917213
vn -2.828645 -1.260387 5.454500
v -0.095328 0.597483 0.916762
vn -3.387044 -1.279700 5.055683
v -0.095374 0.597477 0.916736
vn -3.558477 -0.657892 5.074021
v -0.096247 0.600751 0.916736
vn -2.907178 -1.575905 5.342588
v -0.042066 0.388797 0.884190
vn -3.791674 -1.701337 4.698228
v -0.042085 0.388796 0.884176
vn -5.961943 -1.761021 -0.718788
v -0.054855 0.403211 0.746123
vn -5.957277 -1.909061 -0.055918
v -0.054932 0.402149 0.752803
vn -6.069994 -1.585258 -0.009720
v -0.055805 0.405424 0.752803
vn -6.049199 -1.490154 -0.695703
v -0.055729 0.406485 0.746123
vn -5.719283 -2.420348 0.267461
v -0.054103 0.401095 0.762909
vn -6.060882 -1.611719 0.378882
v -0.054976 0.404369 0.762909
vn -3.655437 -0.118187 -2.984301
v -0.109867 0.618416 0.779178
vn -3.579928 -0.352804 -3.600810
v -0.056559 0.409739 0.746627
vn -6.153068 -0.970938 -0.005974
v -0.109944 0.617353 0.785864
vn -4.980277 -0.750529 2.781931
v -0.096274 0.600751 0.916714
vn -4.882665 -1.491031 2.852181
v -0.095400 0.597474 0.916714
vn -4.947329 -3.792355 0.015319
v -0.054100 0.401090 0.762893
vn -6.056394 -1.615079 0.435922
v -0.108240 0.613024 0.795953
vn -6.148851 -0.669419 0.502098
v -0.109114 0.616301 0.795953
vn -5.731648 -1.704914 1.543063
v -0.042092 0.388797 0.884163
vn -6.073185 -0.652827 0.891822
v -0.096278 0.600756 0.916697
vn -4.170457 -0.262662 4.687379
v -0.095989 0.604691 0.917191
vn -4.834765 2.767465 0.507805
v -0.109471 0.625007 0.786713
vn -4.915358 2.704606 0.748995
v -0.108642 0.623954 0.796802
vn -6.083922 0.218812 -0.998449
v -0.109867 0.618417 0.779179
vn -5.983504 0.457582 -1.289654
v -0.109681 0.622117 0.779550
vn -6.194036 -0.430620 0.274908
v -0.109944 0.617355 0.785867
vn -6.027873 -1.623665 0.671279
v -0.095403 0.597478 0.916697
vn -6.242865 0.314618 0.624556
v -0.108927 0.620015 0.796325
vn -6.259767 0.342972 0.272158
v -0.109757 0.621054 0.786238
vn -6.168128 0.248904 1.086858
v -0.096091 0.604456 0.917067
vn -5.221512 -0.000411 2.987652
v -0.096087 0.604465 0.917086
vn -6.267157 0.429794 0.080093
v -0.109757 0.621067 0.786236
vn -6.266546 0.456337 -0.016458
v -0.109395 0.626058 0.780027
vn -6.251257 0.459253 0.321720
v -0.109472 0.624996 0.786715
vn -6.078143 0.873757 1.020290
v -0.095806 0.608397 0.917545
# 206 vertices, 0 vertices normals

f 1//1 2//2 3//3
f 1//1 3//3 4//4
f 1//1 5//5 6//6
f 1//1 4//4 5//5
f 1//1 6//6 7//7
f 1//1 7//7 8//8
f 1//1 8//8 2//2
f 2//2 9//9 3//3
f 2//2 10//10 9//9
f 2//2 8//8 10//10
f 3//3 9//9 11//11
f 3//3 12//12 13//13
f 3//3 11//11 12//12
f 3//3 13//13 4//4
f 9//9 14//14 11//11
f 9//9 10//10 15//15
f 9//9 15//15 16//16
f 9//9 16//16 14//14
f 17//17 18//18 19//19
f 17//17 20//20 18//18
f 17//17 19//19 20//20
f 14//14 21//21 11//11
f 14//14 16//16 22//22
f 14//14 22//22 23//23
f 14//14 23//23 24//24
f 14//14 24//24 19//19
f 14//14 19//19 21//21
f 25//25 26//26 27//27
f 25//25 28//28 29//29
f 25//25 29//29 26//26
f 25//25 30//30 31//31
f 25//25 31//31 28//28
f 25//25 27//27 32//32
f 25//25 32//32 30//30
f 26//26 33//33 34//34
f 26//26 29//29 33//33
f 26//26 35//35 27//27
f 26//26 34//34 35//35
f 33//33 29//29 18//18
f 33//33 18//18 36//36
f 33//33 36//36 34//34
f 28//28 37//37 18//18
f 28//28 18//18 29//29
f 28//28 31//31 38//38
f 28//28 38//38 37//37
f 39//39 40//40 41//41
f 39//39 12//12 42//42
f 39//39 41//41 12//12
f 39//39 42//42 40//40
f 40//40 37//37 38//38
f 40//40 43//43 41//41
f 40//40 38//38 43//43
f 40//40 42//42 37//37
f 12//12 11//11 42//42
f 12//12 41//41 13//13
f 11//11 21//21 42//42
f 37//37 42//42 18//18
f 18//18 44//44 19//19
f 18//18 20//20 36//36
f 18//18 42//42 44//44
f 21//21 44//44 42//42
f 21//21 19//19 44//44
f 5//5 4//4 45//45
f 5//5 45//45 46//46
f 5//5 47//47 48//48
f 5//5 49//49 50//50
f 5//5 48//48 49//49
f 5//5 50//50 51//51
f 5//5 51//51 52//52
f 5//5 52//52 53//53
f 5//5 53//53 54//54
f 5//5 54//54 55//55
f 5//5 55//55 56//56
f 5//5 56//56 57//57
f 5//5 57//57 6//6
f 5//5 46//46 47//47
f 4//4 13//13 45//45
f 58//58 30//30 59//59
f 58//58 59//59 60//60
f 58//58 61//61 30//30
f 58//58 62//62 61//61
f 58//58 60//60 63//63
f 58//58 64//64 62//62
f 58//58 63//63 64//64
f 30//30 32//32 59//59
f 30//30 61//61 62//62
f 30//30 62//62 31//31
f 45//45 13//13 65//65
f 45//45 65//65 66//66
f 45//45 66//66 67//67
f 45//45 67//67 46//46
f 31//31 62//62 68//68
f 31//31 68//68 69//69
f 31//31 69//69 38//38
f 41//41 43//43 70//70
f 41//41 70//70 13//13
f 43//43 38//38 71//71
f 43//43 71//71 72//72
f 43//43 72//72 73//73
f 43//43 73//73 70//70
f 13//13 70//70 74//74
f 13//13 74//74 65//65
f 38//38 75//75 71//71
f 38//38 76//76 75//75
f 38//38 69//69 76//76
f 77//77 20//20 19//19
f 77//77 34//34 36//36
f 77//77 36//36 20//20
f 77//77 78//78 79//79
f 77//77 19//19 78//78
f 77//77 79//79 34//34
f 80//80 81//81 82//82
f 80//80 27//27 81//81
f 80//80 59//59 27//27
f 80//80 83//83 59//59
f 80//80 82//82 83//83
f 81//81 27//27 35//35
f 81//81 35//35 84//84
f 81//81 85//85 82//82
f 81//81 86//86 85//85
f 81//81 87//87 86//86
f 81//81 84//84 88//88
f 81//81 88//88 87//87
f 27//27 59//59 32//32
f 35//35 34//34 89//89
f 35//35 90//90 84//84
f 35//35 89//89 91//91
f 35//35 91//91 90//90
f 34//34 79//79 89//89
f 59//59 92//92 93//93
f 59//59 93//93 94//94
f 59//59 94//94 95//95
f 59//59 95//95 96//96
f 59//59 96//96 97//97
f 59//59 97//97 60//60
f 59//59 98//98 99//99
f 59//59 100//100 98//98
f 59//59 83//83 100//100
f 59//59 99//99 92//92
f 47//47 101//101 48//48
f 47//47 46//46 101//101
f 75//75 76//76 71//71
f 85//85 86//86 83//83
f 85//85 83//83 82//82
f 71//71 76//76 72//72
f 86//86 87//87 83//83
f 72//72 76//76 73//73
f 70//70 73//73 76//76
f 70//70 76//76 74//74
f 74//74 76//76 65//65
f 49//49 48//48 101//101
f 49//49 51//51 50//50
f 49//49 52//52 51//51
f 49//49 102//102 103//103
f 49//49 101//101 102//102
f 49//49 103//103 52//52
f 65//65 76//76 66//66
f 10//10 22//22 15//15
f 10//10 8//8 104//104
f 10//10 105//105 22//22
f 10//10 104//104 105//105
f 15//15 22//22 16//16
f 92//92 99//99 93//93
f 93//93 99//99 94//94
f 22//22 105//105 23//23
f 94//94 99//99 95//95
f 23//23 19//19 24//24
f 23//23 105//105 19//19
f 95//95 99//99 96//96
f 52//52 103//103 53//53
f 96//96 99//99 97//97
f 53//53 55//55 54//54
f 53//53 103//103 55//55
f 97//97 99//99 60//60
f 62//62 64//64 68//68
f 60//60 106//106 63//63
f 60//60 99//99 106//106
f 55//55 57//57 56//56
f 55//55 103//103 57//57
f 64//64 63//63 69//69
f 64//64 69//69 68//68
f 106//106 107//107 63//63
f 106//106 108//108 107//107
f 106//106 99//99 108//108
f 109//109 110//110 111//111
f 109//109 112//112 113//113
f 109//109 111//111 112//112
f 109//109 114//114 115//115
f 109//109 113//113 114//114
f 109//109 116//116 117//117
f 109//109 118//118 116//116
f 109//109 115//115 118//118
f 109//109 119//119 120//120
f 109//109 120//120 110//110
f 109//109 117//117 119//119
f 110//110 120//120 121//121
f 110//110 121//121 111//111
f 112//112 111//111 87//87
f 112//112 87//87 122//122
f 112//112 122//122 123//123
f 112//112 123//123 124//124
f 112//112 124//124 113//113
f 111//111 83//83 87//87
f 111//111 121//121 125//125
f 111//111 125//125 83//83
f 87//87 88//88 126//126
f 87//87 126//126 127//127
f 87//87 127//127 128//128
f 87//87 128//128 129//129
f 87//87 129//129 130//130
f 87//87 130//130 131//131
f 87//87 131//131 122//122
f 98//98 100//100 132//132
f 98//98 133//133 99//99
f 98//98 134//134 133//133
f 98//98 135//135 134//134
f 98//98 136//136 135//135
f 98//98 137//137 136//136
f 98//98 138//138 137//137
f 98//98 132//132 138//138
f 100//100 83//83 132//132
f 83//83 125//125 132//132
f 90//90 91//91 124//124
f 90//90 139//139 84//84
f 90//90 124//124 139//139
f 89//89 79//79 140//140
f 89//89 140//140 124//124
f 89//89 124//124 91//91
f 78//78 19//19 141//141
f 78//78 141//141 79//79
f 19//19 105//105 142//142
f 19//19 142//142 143//143
f 19//19 143//143 144//144
f 19//19 145//145 141//141
f 19//19 146//146 145//145
f 19//19 144//144 146//146
f 79//79 141//141 145//145
f 79//79 145//145 140//140
f 84//84 147//147 88//88
f 84//84 148//148 147//147
f 84//84 126//126 148//148
f 84//84 127//127 126//126
f 84//84 128//128 127//127
f 84//84 129//129 128//128
f 84//84 139//139 129//129
f 149//149 150//150 151//151
f 149//149 152//152 153//153
f 149//149 151//151 152//152
f 149//149 153//153 150//150
f 150//150 154//154 151//151
f 150//150 153//153 154//154
f 152//152 155//155 153//153
f 152//152 156//156 157//157
f 152//152 157//157 158//158
f 152//152 158//158 155//155
f 152//152 120//120 156//156
f 152//152 151//151 120//120
f 102//102 159//159 160//160
f 102//102 101//101 153//153
f 102//102 161//161 103//103
f 102//102 162//162 161//161
f 102//102 163//163 162//162
f 102//102 164//164 163//163
f 102//102 165//165 164//164
f 102//102 166//166 165//165
f 102//102 160//160 166//166
f 102//102 153//153 159//159
f 155//155 159//159 153//153
f 155//155 158//158 160//160
f 155//155 160//160 159//159
f 167//167 168//168 63//63
f 167//167 154//154 169//169
f 167//167 169//169 168//168
f 167//167 107//107 108//108
f 167//167 63//63 107//107
f 167//167 108//108 154//154
f 168//168 169//169 153//153
f 168//168 76//76 69//69
f 168//168 69//69 63//63
f 168//168 153//153 76//76
f 154//154 108//108 99//99
f 154//154 99//99 138//138
f 154//154 138//138 132//132
f 154//154 132//132 125//125
f 154//154 125//125 151//151
f 154//154 153//153 169//169
f 76//76 67//67 66//66
f 76//76 46//46 67//67
f 76//76 153//153 46//46
f 101//101 46//46 153//153
f 6//6 57//57 170//170
f 6//6 171//171 7//7
f 6//6 172//172 171//171
f 6//6 173//173 172//172
f 6//6 170//170 173//173
f 7//7 171//171 8//8
f 8//8 171//171 172//172
f 8//8 174//174 142//142
f 8//8 142//142 104//104
f 8//8 172//172 174//174
f 57//57 103//103 161//161
f 57//57 161//161 162//162
f 57//57 162//162 163//163
f 57//57 163//163 164//164
f 57//57 164//164 165//165
f 57//57 165//165 166//166
f 57//57 166//166 170//170
f 105//105 104//104 142//142
f 88//88 147//147 148//148
f 88//88 148//148 126//126
f 99//99 133//133 134//134
f 99//99 134//134 135//135
f 99//99 135//135 136//136
f 99//99 136//136 137//137
f 99//99 137//137 138//138
f 129//129 139//139 130//130
f 139//139 122//122 130//130
f 139//139 124//124 122//122
f 130//130 122//122 131//131
f 122//122 124//124 123//123
f 174//174 172//172 142//142
f 142//142 172//172 175//175
f 142//142 175//175 143//143
f 176//176 177//177 178//178
f 176//176 179//179 114//114
f 176//176 178//178 179//179
f 176//176 140//140 177//177
f 176//176 114//114 140//140
f 177//177 180//180 181//181
f 177//177 181//181 178//178
f 177//177 140//140 145//145
f 177//177 145//145 180//180
f 179//179 178//178 182//182
f 179//179 182//182 183//183
f 179//179 183//183 114//114
f 178//178 181//181 184//184
f 178//178 184//184 182//182
f 172//172 173//173 185//185
f 172//172 186//186 175//175
f 172//172 185//185 186//186
f 175//175 186//186 143//143
f 180//180 145//145 187//187
f 180//180 188//188 189//189
f 180//180 190//190 191//191
f 180//180 187//187 144//144
f 180//180 144//144 190//190
f 180//180 189//189 181//181
f 180//180 191//191 188//188
f 143//143 186//186 190//190
f 143//143 190//190 144//144
f 173//173 170//170 192//192
f 173//173 192//192 185//185
f 181//181 189//189 184//184
f 170//170 166//166 160//160
f 170//170 160//160 192//192
f 156//156 119//119 117//117
f 156//156 120//120 119//119
f 156//156 117//117 193//193
f 156//156 193//193 157//157
f 157//157 193//193 158//158
f 158//158 193//193 194//194
f 158//158 194//194 160//160
f 140//140 114//114 113//113
f 140//140 113//113 124//124
f 145//145 146//146 187//187
f 146//146 144//144 187//187
f 182//182 184//184 195//195
f 182//182 116//116 118//118
f 182//182 118//118 183//183
f 182//182 195//195 196//196
f 182//182 196//196 116//116
f 183//183 118//118 115//115
f 183//183 115//115 114//114
f 184//184 189//189 197//197
f 184//184 197//197 195//195
f 188//188 191//191 189//189
f 186//186 185//185 191//191
f 186//186 198//198 190//190
f 186//186 191//191 198//198
f 190//190 198//198 191//191
f 189//189 199//199 200//200
f 189//189 191//191 201//201
f 189//189 200//200 197//197
f 189//189 201//201 199//199
f 185//185 192//192 202//202
f 185//185 202//202 201//201
f 185//185 201//201 191//191
f 192//192 160//160 202//202
f 116//116 203//203 204//204
f 116//116 196//196 203//203
f 116//116 204//204 117//117
f 203//203 193//193 204//204
f 203//203 196//196 200//200
f 203//203 200//200 205//205
f 203//203 205//205 193//193
f 120//120 151//151 125//125
f 120//120 125//125 121//121
f 117//117 204//204 193//193
f 193//193 205//205 194//194
f 199//199 194//194 205//205
f 199//199 205//205 200//200
f 199//199 201//201 206//206
f 199//199 206//206 194//194
f 202//202 160//160 206//206
f 202//202 206//206 201//201
f 194//194 206//206 160//160
f 195//195 197//197 200//200
f 195//195 200//200 196//196
# 408 faces, 0 coords texture

# End of File
