####
#
# OBJ File Generated by Meshlab
#
####
# Object matlab_mesh_step12_link6.obj
#
# Vertices: 123
# Faces: 242
#
####
vn -3.283323 -5.196140 -1.264212
v 0.408085 0.501119 0.805602
vn -3.211273 -5.282614 -1.103067
v 0.402524 0.494552 0.849461
vn -3.686334 -4.949001 -0.586006
v 0.402505 0.494560 0.849479
vn -3.340774 -4.795967 -1.948803
v 0.408075 0.501138 0.805549
vn -1.310307 -5.383239 -1.907227
v 0.495491 0.446980 0.820188
vn -1.623238 -5.695486 -0.491113
v 0.489914 0.440393 0.864171
vn 5.071761 -3.677687 0.050345
v 0.543825 0.446975 0.852278
vn 4.062879 -4.391953 0.344061
v 0.538255 0.440397 0.896207
vn 3.149421 -5.062339 -0.318425
v 0.538255 0.440397 0.864154
vn 3.089359 -4.676354 -0.547330
v 0.543825 0.446975 0.820224
vn 5.779956 -1.612808 0.183727
v 0.633363 0.589272 0.844214
vn 5.682535 -2.237598 0.557782
v 0.627782 0.582679 0.888233
vn 4.820302 -3.855137 0.903070
v 0.536383 0.443350 0.918981
vn 2.225853 -5.326960 0.850379
v 0.526826 0.454326 1.015744
vn 1.805111 -5.584817 0.547223
v 0.538247 0.440393 0.896220
vn 1.232802 -5.943219 -0.289779
v 0.538247 0.440393 0.864171
vn 4.895714 -3.710186 1.065783
v 0.524964 0.457290 1.038505
vn 2.533245 -4.112099 1.833290
v 0.524949 0.457283 1.038545
vn 5.744281 -2.006466 0.773218
v 0.625902 0.585639 0.911051
vn 4.038683 -1.123906 2.794383
v 0.614479 0.599568 1.030576
vn -4.200459 -4.671162 0.068223
v 0.363958 0.528820 0.881533
vn -3.726253 -5.021072 0.108626
v 0.402505 0.494560 0.881533
vn -4.492643 -4.361056 0.135961
v 0.352480 0.542805 1.001071
vn -4.218239 -4.559253 -0.646962
v 0.363958 0.528820 0.849479
vn -4.527122 -4.329908 0.042119
v 0.363902 0.528872 0.881547
vn -4.704852 -3.948641 -0.610547
v 0.363902 0.528872 0.849497
vn -3.758214 -4.996713 0.278329
v 0.391075 0.508505 1.001071
vn -1.588329 -5.767833 0.267776
v 0.489914 0.440393 0.896220
vn -1.676049 -5.760815 0.561458
v 0.478488 0.454326 1.015747
vn 2.342425 -4.129527 -1.807816
v 0.543824 0.446980 0.820188
vn 3.177941 -0.992057 -2.561303
v 0.633363 0.589272 0.812180
vn -4.125658 -4.442459 -1.564049
v 0.369528 0.535399 0.805549
vn -3.907939 -3.449303 -2.678316
v 0.369478 0.535459 0.805514
vn -2.633480 -3.932032 -3.622947
v 0.408073 0.501159 0.805514
vn 5.026314 3.759563 0.031491
v 0.631479 0.637715 0.867038
vn 4.994380 2.997133 0.655431
v 0.620058 0.651648 0.986563
vn 5.703093 1.787918 0.288839
v 0.631483 0.637709 0.867033
vn 4.661530 4.137517 -0.119149
v 0.631479 0.637715 0.834989
vn 4.498721 4.355053 -0.040646
v 0.620058 0.651648 0.954513
vn 5.227579 3.483087 -0.004452
v 0.631483 0.637709 0.834998
vn 3.648273 4.964252 0.620525
v 0.581463 0.685949 0.986563
vn 3.566311 4.706425 1.816995
v 0.575886 0.679361 1.030546
vn 4.856914 2.925782 1.468439
v 0.614481 0.645061 1.030546
vn 3.726593 5.020899 -0.108548
v 0.581463 0.685949 0.954513
vn 1.729941 5.692752 0.560928
v 0.494022 0.740154 0.971885
vn 6.157583 0.712961 0.648042
v 0.620060 0.651638 0.986557
vn 1.309678 4.675224 2.595687
v 0.488441 0.733561 1.015903
vn 2.036096 3.223456 3.782398
v 0.575853 0.679372 1.030576
vn 3.420275 1.290927 3.002000
v 0.614479 0.645045 1.030576
vn 0.055210 -6.234360 0.774923
v 0.526811 0.454326 1.015747
vn -0.116060 -6.225686 0.826510
v 0.476616 0.457283 1.038545
vn 0.995925 -2.817548 3.257934
v 0.524931 0.457286 1.038566
vn -5.048502 -3.715117 0.038193
v 0.352449 0.542842 1.001074
vn -5.550258 -2.249610 -0.252590
v 0.352449 0.542842 0.969040
vn -3.641453 -4.749057 1.321953
v 0.389198 0.511462 1.023872
vn -4.257204 -4.391287 0.962678
v 0.350603 0.545762 1.023872
vn -3.384026 -1.690138 2.535215
v 0.350569 0.545803 1.023893
vn -1.047090 -3.156953 2.882069
v 0.476607 0.457286 1.038566
vn -3.190437 -3.788485 3.510992
v 0.389196 0.511476 1.023893
vn 3.953876 4.662890 -1.074795
v 0.594761 0.669058 0.812188
vn 4.352808 4.444416 -0.556761
v 0.633356 0.634758 0.812188
vn 3.156109 1.183615 -2.400638
v 0.633363 0.634749 0.812180
vn 3.925655 4.886157 -0.257052
v 0.592884 0.672015 0.834989
vn 3.129047 4.081404 -2.517212
v 0.594736 0.669076 0.812180
vn 3.518086 5.190240 -0.318688
v 0.592856 0.672036 0.834998
vn 2.051625 5.742812 -0.534067
v 0.505444 0.726225 0.820326
vn 1.694660 5.765929 -0.329677
v 0.494022 0.740154 0.939850
vn 1.352125 -2.841477 -4.163751
v 0.543815 0.446991 0.820170
vn -5.611476 -1.981642 -0.595268
v 0.363872 0.528914 0.849515
vn -3.014781 -0.975109 -3.117366
v 0.369453 0.535507 0.805497
vn -1.163683 -1.928109 -5.407319
v 0.408079 0.501180 0.805497
vn -0.810731 -3.573640 -4.181748
v 0.495491 0.446991 0.820170
vn 0.181749 6.253576 -0.298420
v 0.494000 0.740156 0.939864
vn 0.174160 6.239978 0.398759
v 0.494000 0.740156 0.971874
vn -2.755052 4.459835 0.944114
v 0.440117 0.733561 1.015903
vn 0.141060 3.902107 3.498159
v 0.488416 0.733560 1.015910
vn -1.044948 6.027552 0.287712
v 0.445703 0.740156 0.971874
vn 5.787520 1.602724 0.139561
v 0.633363 0.634749 0.844214
vn 6.215922 -0.477227 0.596225
v 0.631483 0.592232 0.867033
vn 6.223860 -0.333057 0.686819
v 0.620060 0.606161 0.986557
vn 0.459526 1.403411 5.960998
v 0.575824 0.679365 1.030582
vn 1.517427 0.343641 5.898255
v 0.614467 0.645025 1.030582
vn 0.517489 0.021667 6.261623
v 0.524931 0.502763 1.038566
vn 1.758053 -0.275205 5.873032
v 0.614467 0.599576 1.030582
vn 0.254361 0.053561 6.271447
v 0.524911 0.502748 1.038568
vn -2.585933 5.138056 0.403795
v 0.445698 0.740154 0.971885
vn -2.825649 4.682337 -0.578606
v 0.445698 0.740154 0.939850
vn -5.071715 3.677862 -0.050257
v 0.440117 0.733561 0.983869
vn -1.074431 6.036813 -0.219281
v 0.445703 0.740156 0.939864
vn -5.779718 1.613130 -0.183757
v 0.350563 0.591283 0.991886
vn -1.379224 3.007827 2.928376
v 0.440120 0.733560 1.015910
vn -3.177850 0.992222 2.561159
v 0.350563 0.591283 1.023895
vn 0.175421 -0.328858 6.249563
v 0.524911 0.457299 1.038568
vn -5.765821 -2.062581 -0.157351
v 0.350569 0.545803 0.991859
vn -1.635862 -1.744434 5.527037
v 0.437981 0.491613 1.038566
vn -0.824839 -0.407665 6.140531
v 0.437971 0.491639 1.038568
vn -3.599134 -0.360930 2.920341
v 0.350563 0.545834 1.023895
vn -6.221719 -0.501356 -0.187362
v 0.350563 0.545834 0.991886
vn -0.139353 -0.420215 6.249065
v 0.476614 0.457299 1.038568
vn 1.068256 2.885353 -2.972850
v 0.507325 0.723265 0.797507
vn 1.412730 1.399308 -5.545596
v 0.545952 0.688938 0.797507
vn -0.055477 -0.181955 -6.276924
v 0.497628 0.643462 0.797507
vn -1.689155 2.391678 -2.862373
v 0.459001 0.723265 0.797507
vn 0.209098 5.812737 -1.896628
v 0.507304 0.723268 0.797512
vn -0.274076 -0.050584 -6.269753
v 0.459001 0.677789 0.797507
vn 0.390847 6.215055 -0.721907
v 0.505422 0.726230 0.820339
vn 0.499528 -0.237403 -6.222544
v 0.545952 0.643462 0.797507
vn -3.363881 5.074605 -0.932242
v 0.457121 0.726225 0.820326
vn -1.194984 5.982836 -0.834100
v 0.457126 0.726230 0.820339
vn -4.845850 3.830104 -0.902768
v 0.447579 0.737194 0.917031
vn -3.224053 0.849978 -2.997175
v 0.369451 0.580992 0.805497
vn -0.628128 5.737504 -1.784675
v 0.459008 0.723268 0.797512
vn -5.744053 2.006786 -0.773305
v 0.358029 0.594918 0.925022
vn -5.682286 2.237591 -0.557867
v 0.356147 0.597879 0.947850
vn 0.148652 -0.972178 -6.163052
v 0.456403 0.501180 0.805497
vn -3.398885 -0.051828 -3.495771
v 0.369451 0.535542 0.805497
vn -6.247678 -0.285406 -0.512950
v 0.352445 0.542872 0.969058
vn -6.239786 -0.175796 -0.668884
v 0.363868 0.528946 0.849533
vn -0.148660 0.971993 6.163081
v 0.527528 0.679365 1.030582
vn 0.055441 0.181854 6.276931
v 0.486268 0.537089 1.038568
vn -0.499551 0.237338 6.222550
v 0.437971 0.537089 1.038568
vn -6.223862 0.333035 -0.686830
v 0.363868 0.574396 0.849533
vn -6.215985 0.476776 -0.596372
v 0.352445 0.588322 0.969058
# 123 vertices, 0 vertices normals

f 1//1 2//2 3//3
f 1//1 4//4 5//5
f 1//1 3//3 4//4
f 1//1 5//5 6//6
f 1//1 6//6 2//2
f 2//2 6//6 3//3
f 7//7 8//8 9//9
f 7//7 10//10 11//11
f 7//7 9//9 10//10
f 7//7 11//11 12//12
f 7//7 12//12 8//8
f 8//8 13//13 14//14
f 8//8 15//15 16//16
f 8//8 14//14 15//15
f 8//8 16//16 9//9
f 8//8 12//12 13//13
f 13//13 17//17 18//18
f 13//13 18//18 14//14
f 13//13 12//12 19//19
f 13//13 19//19 20//20
f 13//13 20//20 17//17
f 17//17 20//20 18//18
f 21//21 22//22 23//23
f 21//21 24//24 3//3
f 21//21 3//3 22//22
f 21//21 25//25 26//26
f 21//21 23//23 25//25
f 21//21 26//26 24//24
f 22//22 3//3 6//6
f 22//22 27//27 23//23
f 22//22 28//28 29//29
f 22//22 6//6 28//28
f 22//22 29//29 27//27
f 10//10 9//9 16//16
f 10//10 30//30 31//31
f 10//10 16//16 30//30
f 10//10 31//31 11//11
f 32//32 4//4 24//24
f 32//32 24//24 26//26
f 32//32 33//33 4//4
f 32//32 26//26 33//33
f 4//4 3//3 24//24
f 4//4 33//33 34//34
f 4//4 34//34 5//5
f 35//35 36//36 37//37
f 35//35 38//38 39//39
f 35//35 39//39 36//36
f 35//35 37//37 40//40
f 35//35 40//40 38//38
f 41//41 36//36 39//39
f 41//41 42//42 43//43
f 41//41 43//43 36//36
f 41//41 44//44 45//45
f 41//41 39//39 44//44
f 41//41 45//45 42//42
f 36//36 43//43 46//46
f 36//36 46//46 37//37
f 42//42 45//45 47//47
f 42//42 47//47 48//48
f 42//42 48//48 49//49
f 42//42 49//49 43//43
f 43//43 49//49 46//46
f 15//15 14//14 50//50
f 15//15 28//28 16//16
f 15//15 50//50 28//28
f 14//14 18//18 50//50
f 18//18 51//51 29//29
f 18//18 20//20 52//52
f 18//18 52//52 51//51
f 18//18 29//29 50//50
f 25//25 23//23 53//53
f 25//25 53//53 54//54
f 25//25 54//54 26//26
f 23//23 27//27 55//55
f 23//23 56//56 57//57
f 23//23 55//55 56//56
f 23//23 57//57 53//53
f 27//27 29//29 58//58
f 27//27 58//58 55//55
f 56//56 55//55 57//57
f 55//55 59//59 57//57
f 55//55 58//58 59//59
f 28//28 6//6 16//16
f 28//28 50//50 29//29
f 51//51 52//52 58//58
f 51//51 58//58 29//29
f 60//60 61//61 62//62
f 60//60 63//63 38//38
f 60//60 38//38 61//61
f 60//60 64//64 63//63
f 60//60 62//62 64//64
f 61//61 38//38 62//62
f 63//63 44//44 39//39
f 63//63 39//39 38//38
f 63//63 64//64 65//65
f 63//63 65//65 44//44
f 38//38 40//40 62//62
f 44//44 66//66 67//67
f 44//44 67//67 45//45
f 44//44 65//65 66//66
f 30//30 16//16 5//5
f 30//30 5//5 68//68
f 30//30 68//68 31//31
f 16//16 6//6 5//5
f 33//33 26//26 69//69
f 33//33 70//70 34//34
f 33//33 69//69 70//70
f 34//34 70//70 71//71
f 34//34 71//71 72//72
f 34//34 72//72 5//5
f 26//26 54//54 69//69
f 5//5 72//72 68//68
f 45//45 67//67 73//73
f 45//45 74//74 47//47
f 45//45 73//73 74//74
f 47//47 75//75 76//76
f 47//47 74//74 77//77
f 47//47 76//76 48//48
f 47//47 77//77 75//75
f 78//78 37//37 79//79
f 78//78 11//11 62//62
f 78//78 79//79 11//11
f 78//78 62//62 40//40
f 78//78 40//40 37//37
f 37//37 46//46 80//80
f 37//37 80//80 79//79
f 46//46 49//49 80//80
f 48//48 76//76 81//81
f 48//48 81//81 82//82
f 48//48 82//82 49//49
f 49//49 20//20 80//80
f 49//49 82//82 20//20
f 83//83 52//52 84//84
f 83//83 82//82 85//85
f 83//83 85//85 52//52
f 83//83 84//84 82//82
f 86//86 75//75 77//77
f 86//86 87//87 88//88
f 86//86 88//88 75//75
f 86//86 77//77 89//89
f 86//86 89//89 87//87
f 75//75 88//88 90//90
f 75//75 91//91 76//76
f 75//75 92//92 91//91
f 75//75 90//90 92//92
f 11//11 79//79 12//12
f 11//11 31//31 62//62
f 12//12 79//79 19//19
f 79//79 80//80 19//19
f 19//19 80//80 20//20
f 20//20 82//82 84//84
f 20//20 84//84 52//52
f 52//52 85//85 93//93
f 52//52 93//93 58//58
f 53//53 57//57 94//94
f 53//53 94//94 54//54
f 57//57 59//59 95//95
f 57//57 95//95 96//96
f 57//57 97//97 98//98
f 57//57 96//96 97//97
f 57//57 98//98 94//94
f 59//59 58//58 95//95
f 95//95 58//58 96//96
f 58//58 93//93 99//99
f 58//58 99//99 96//96
f 100//100 101//101 102//102
f 100//100 66//66 64//64
f 100//100 64//64 101//101
f 100//100 103//103 104//104
f 100//100 105//105 103//103
f 100//100 102//102 105//105
f 100//100 104//104 106//106
f 100//100 106//106 66//66
f 101//101 64//64 62//62
f 101//101 62//62 107//107
f 101//101 107//107 102//102
f 66//66 65//65 64//64
f 66//66 106//106 67//67
f 67//67 106//106 73//73
f 62//62 31//31 107//107
f 103//103 108//108 109//109
f 103//103 110//110 108//108
f 103//103 105//105 111//111
f 103//103 112//112 104//104
f 103//103 109//109 112//112
f 103//103 111//111 110//110
f 108//108 110//110 87//87
f 108//108 87//87 109//109
f 110//110 111//111 113//113
f 110//110 113//113 114//114
f 110//110 114//114 87//87
f 87//87 89//89 109//109
f 87//87 114//114 88//88
f 88//88 114//114 90//90
f 107//107 115//115 102//102
f 107//107 31//31 115//115
f 115//115 31//31 68//68
f 115//115 68//68 72//72
f 115//115 71//71 102//102
f 115//115 72//72 71//71
f 105//105 102//102 71//71
f 105//105 70//70 116//116
f 105//105 71//71 70//70
f 105//105 116//116 111//111
f 70//70 69//69 116//116
f 69//69 54//54 117//117
f 69//69 118//118 116//116
f 69//69 117//117 118//118
f 54//54 94//94 98//98
f 54//54 98//98 117//117
f 74//74 73//73 77//77
f 76//76 91//91 119//119
f 76//76 119//119 81//81
f 81//81 120//120 85//85
f 81//81 85//85 82//82
f 81//81 119//119 120//120
f 120//120 119//119 121//121
f 120//120 121//121 96//96
f 120//120 96//96 99//99
f 120//120 99//99 85//85
f 85//85 99//99 93//93
f 77//77 73//73 89//89
f 91//91 92//92 121//121
f 91//91 121//121 119//119
f 92//92 97//97 121//121
f 92//92 90//90 97//97
f 121//121 97//97 96//96
f 97//97 90//90 98//98
f 104//104 112//112 106//106
f 106//106 112//112 109//109
f 106//106 109//109 73//73
f 73//73 109//109 89//89
f 111//111 122//122 113//113
f 111//111 116//116 122//122
f 122//122 123//123 113//113
f 122//122 116//116 118//118
f 122//122 118//118 117//117
f 122//122 117//117 123//123
f 113//113 123//123 90//90
f 113//113 90//90 114//114
f 123//123 117//117 98//98
f 123//123 98//98 90//90
# 242 faces, 0 coords texture

# End of File
