####
#
# OBJ File Generated by Meshlab
#
####
# Object matlab_mesh_slc_step7_link7.obj
#
# Vertices: 111
# Faces: 218
#
####
vn -4.529876 -3.301227 1.926476
v 0.410644 0.490762 0.897464
vn -3.328272 -4.782947 1.753014
v 0.412709 0.488860 0.897464
vn -3.705828 -2.758942 3.768472
v 0.411428 0.490832 0.898654
vn -4.783487 -1.771752 3.634762
v 0.410309 0.492413 0.898009
vn -4.567964 -4.126879 -0.026978
v 0.410927 0.490112 0.895379
vn -5.078512 -2.612208 1.901712
v 0.409524 0.492344 0.896819
vn -2.209907 -5.659564 1.546317
v 0.413594 0.488266 0.896711
vn -0.126346 -5.274394 2.411895
v 0.414378 0.488336 0.897901
vn -1.810946 -4.172608 3.366847
v 0.413493 0.488930 0.898654
vn -3.495746 -4.961699 0.381812
v 0.412992 0.488210 0.895379
vn -1.905499 -5.462665 0.071089
v 0.413877 0.487616 0.894627
vn 0.099855 -5.765223 1.391808
v 0.414661 0.487686 0.895817
vn -1.626553 -1.611020 4.575357
v 0.471580 0.558440 0.970793
vn -4.441116 -1.355279 4.134898
v 0.406789 0.514289 0.902702
vn 1.322708 -2.660358 4.109517
v 0.532061 0.558440 0.970793
vn 0.008583 -4.529611 4.354387
v 0.532034 0.558428 0.970781
vn -0.012080 -4.518698 4.365707
v 0.471575 0.558428 0.970781
vn 2.800145 -5.203553 1.315350
v 0.608418 0.554483 0.900662
vn -4.634416 -3.930306 -1.552577
v 0.389139 0.522616 0.876653
vn -4.474276 -4.154941 -1.247888
v 0.411202 0.490263 0.893167
vn -5.256686 -1.934263 -1.417927
v 0.388019 0.524197 0.876008
vn -3.957815 -4.302411 -2.180779
v 0.406795 0.514252 0.852151
vn -4.093544 -4.641765 -1.025975
v 0.413267 0.488361 0.893167
vn -5.072784 -3.634639 -0.235596
v 0.409807 0.491693 0.894734
vn -4.166585 -4.338959 -1.747683
v 0.412087 0.489668 0.892414
vn -4.854142 -3.847526 -1.037532
v 0.410083 0.491844 0.892522
vn -2.510408 -5.197313 -1.207073
v 0.414152 0.487767 0.892414
vn -3.645099 -3.937552 -3.267987
v 0.451578 0.521279 0.792208
vn -3.119992 -3.866815 -3.756317
v 0.453642 0.519378 0.792208
vn -4.286233 -3.322304 -2.943404
v 0.406788 0.514324 0.852044
vn -3.569186 -2.359062 -4.126064
v 0.450458 0.522861 0.791563
vn -3.020036 -3.386865 -4.185353
v 0.452523 0.520959 0.791563
vn -0.811495 -4.764289 -2.117837
v 0.475706 0.487025 0.808722
vn 0.102696 -6.204166 -0.289982
v 0.475430 0.486874 0.810934
vn -1.394099 -3.940369 -4.370494
v 0.483101 0.510357 0.781908
vn 1.541180 -6.047735 -0.391029
v 0.476491 0.487094 0.809912
vn -4.063378 -3.968293 -2.464385
v 0.406789 0.514289 0.852091
vn 0.310384 -4.955766 -3.750609
v 0.543446 0.510357 0.781908
vn 1.037412 -4.678734 -2.600486
v 0.543533 0.510382 0.781883
vn 1.237727 -6.027469 0.393594
v 0.476215 0.486944 0.812125
vn 1.937265 -5.881920 0.712407
v 0.543533 0.510382 0.832548
vn 2.378880 -5.626216 0.796653
v 0.543597 0.510406 0.832568
vn -6.227670 0.034302 -0.802862
v 0.387736 0.524847 0.878092
vn -5.249882 -1.024221 1.202319
v 0.387461 0.524697 0.880305
vn -6.197479 0.276168 -0.745388
v 0.395619 0.604466 0.837877
vn -5.532908 -2.073449 -0.536327
v 0.387744 0.524046 0.878220
vn -4.978327 -0.657269 3.616540
v 0.388245 0.524766 0.881495
vn -5.437508 0.499150 2.065072
v 0.395632 0.604588 0.888432
vn -6.086537 0.412278 -0.966544
v 0.395632 0.604588 0.837821
vn -4.519914 -0.646378 4.234899
v 0.406788 0.514324 0.902709
vn -4.679871 0.074962 4.185750
v 0.406788 0.566287 0.902709
vn -5.513160 -1.273681 -2.136374
v 0.395619 0.552637 0.837877
vn -4.207719 -0.749590 -4.604748
v 0.471874 0.548685 0.767706
vn -3.262037 -1.335444 -4.906435
v 0.471910 0.548717 0.767668
vn -1.136231 -3.382873 -4.853337
v 0.483119 0.510382 0.781883
vn -5.253519 -1.261465 -2.521566
v 0.395632 0.552680 0.837821
vn -5.070169 -1.022754 -3.090132
v 0.395646 0.552721 0.837778
vn -4.750718 -0.503332 -3.855321
v 0.395663 0.552757 0.837748
vn -4.525896 -2.744111 -3.356798
v 0.406792 0.514356 0.852011
vn -4.183200 0.026092 -4.686564
v 0.471910 0.600547 0.767668
vn -4.280194 -0.024848 -4.599278
v 0.395682 0.552791 0.837730
vn -3.858909 0.166625 -4.915512
v 0.471944 0.600656 0.767638
vn -2.726172 -1.255171 -5.160195
v 0.471944 0.548748 0.767638
vn -4.401891 1.996826 -2.155181
v 0.395682 0.604806 0.837730
vn -5.362838 0.785147 2.077058
v 0.395646 0.604684 0.888443
vn -4.653207 0.188927 4.216961
v 0.406792 0.566356 0.902711
vn -5.833970 0.607704 -1.436835
v 0.395646 0.604684 0.837778
vn -3.352254 0.440832 -5.140390
v 0.471977 0.600742 0.767617
vn -1.868560 -1.160167 -5.536397
v 0.471977 0.548779 0.767617
vn -0.522990 -2.718192 -5.537720
v 0.483138 0.510406 0.781868
vn -5.304798 1.475053 1.902020
v 0.395663 0.604757 0.888447
vn -2.436968 0.398684 5.209748
v 0.471580 0.610454 0.970793
vn -2.998526 2.664375 2.715744
v 0.460460 0.648859 0.956531
vn 1.378864 -3.867309 -2.794614
v 0.543597 0.510406 0.781868
vn -5.140222 0.950237 -2.137018
v 0.395663 0.604757 0.837748
vn -2.617655 0.941065 -5.200770
v 0.472009 0.600807 0.767604
vn -1.052706 -0.965533 -5.866838
v 0.472009 0.548807 0.767604
vn -4.890792 2.848249 1.402246
v 0.395682 0.604806 0.888446
vn 2.196912 -3.161149 -2.894974
v 0.543639 0.510430 0.781861
vn 3.225646 -5.362480 0.284557
v 0.543639 0.510430 0.832577
vn -1.688861 2.074694 -4.623788
v 0.472039 0.600849 0.767599
vn -0.367269 -0.412837 -6.203924
v 0.472039 0.548835 0.767599
vn 0.154383 -1.679492 -6.016214
v 0.532468 0.548807 0.767604
vn 1.013233 -0.973079 -5.896641
v 0.532519 0.548835 0.767599
vn -1.138060 3.636368 2.476387
v 0.460479 0.648871 0.956533
vn -3.325828 5.316164 -0.205063
v 0.460460 0.648859 0.905815
vn -4.127321 4.592933 0.452130
v 0.395703 0.604829 0.888438
vn -1.600255 5.687376 -0.604621
v 0.460479 0.648871 0.905821
vn -0.154853 -0.105713 6.274365
v 0.471593 0.558456 0.970794
vn -0.543416 1.148165 5.975036
v 0.471593 0.610464 0.970794
vn 3.767099 -2.013843 1.716329
v 0.608434 0.554495 0.900672
vn 2.240509 -0.733280 5.125401
v 0.532069 0.558456 0.970794
vn 3.926019 -4.801789 -0.578125
v 0.608418 0.554483 0.849946
vn 4.456574 -1.881376 -1.359980
v 0.608434 0.554495 0.849959
vn 0.513482 5.116410 -3.472250
v 0.597298 0.644903 0.835684
vn -0.690059 5.609899 -2.402543
v 0.536817 0.644903 0.835684
vn -0.189011 5.929184 -1.570103
v 0.536844 0.644910 0.835699
vn 2.440724 2.678405 -1.556035
v 0.597320 0.644910 0.835699
vn 1.602651 2.022488 -4.165195
v 0.532544 0.600869 0.767603
vn 0.358759 0.503500 -6.185485
v 0.532519 0.600849 0.767599
vn -0.862926 3.463689 -4.029780
v 0.472068 0.600869 0.767603
vn 2.787206 -0.307411 -5.192072
v 0.532544 0.548861 0.767603
vn -3.261181 3.970076 -1.999315
v 0.395703 0.604829 0.837725
vn 3.860427 -1.848935 -3.847852
v 0.543658 0.510454 0.781863
vn 1.023493 3.703548 2.751132
v 0.520956 0.648871 0.956533
vn 2.017407 1.120968 4.954404
v 0.532069 0.610464 0.970794
vn 2.938606 3.508093 1.030485
v 0.597320 0.644910 0.886411
vn 0.119804 6.274802 -0.135233
v 0.520956 0.648871 0.905821
vn 4.819417 1.007645 2.215364
v 0.608434 0.606503 0.900672
vn 5.539717 0.531844 -1.660712
v 0.608434 0.606503 0.849959
vn 4.742801 -0.059513 -4.106772
v 0.597320 0.592903 0.835699
# 111 vertices, 0 vertices normals

f 1//1 2//2 3//3
f 1//1 3//3 4//4
f 1//1 5//5 2//2
f 1//1 6//6 5//5
f 1//1 4//4 6//6
f 2//2 7//7 8//8
f 2//2 9//9 3//3
f 2//2 8//8 9//9
f 2//2 5//5 10//10
f 2//2 10//10 7//7
f 7//7 10//10 11//11
f 7//7 11//11 12//12
f 7//7 12//12 8//8
f 3//3 9//9 13//13
f 3//3 14//14 4//4
f 3//3 13//13 14//14
f 9//9 8//8 15//15
f 9//9 16//16 17//17
f 9//9 17//17 13//13
f 9//9 15//15 16//16
f 8//8 12//12 18//18
f 8//8 18//18 15//15
f 19//19 20//20 21//21
f 19//19 21//21 22//22
f 19//19 22//22 20//20
f 20//20 23//23 10//10
f 20//20 5//5 24//24
f 20//20 10//10 5//5
f 20//20 25//25 23//23
f 20//20 26//26 21//21
f 20//20 24//24 26//26
f 20//20 22//22 25//25
f 23//23 25//25 27//27
f 23//23 27//27 11//11
f 23//23 11//11 10//10
f 5//5 6//6 24//24
f 25//25 22//22 27//27
f 28//28 29//29 30//30
f 28//28 31//31 32//32
f 28//28 32//32 29//29
f 28//28 30//30 31//31
f 27//27 33//33 34//34
f 27//27 34//34 11//11
f 27//27 22//22 33//33
f 29//29 33//33 30//30
f 29//29 32//32 35//35
f 29//29 35//35 33//33
f 33//33 36//36 34//34
f 33//33 22//22 37//37
f 33//33 38//38 39//39
f 33//33 37//37 30//30
f 33//33 35//35 38//38
f 33//33 39//39 36//36
f 11//11 34//34 40//40
f 11//11 40//40 12//12
f 34//34 36//36 40//40
f 36//36 39//39 40//40
f 12//12 40//40 41//41
f 12//12 41//41 42//42
f 12//12 42//42 18//18
f 40//40 39//39 41//41
f 43//43 44//44 45//45
f 43//43 21//21 46//46
f 43//43 46//46 44//44
f 43//43 45//45 21//21
f 44//44 6//6 47//47
f 44//44 47//47 48//48
f 44//44 46//46 24//24
f 44//44 24//24 6//6
f 44//44 48//48 49//49
f 44//44 49//49 45//45
f 6//6 4//4 47//47
f 47//47 4//4 14//14
f 47//47 14//14 50//50
f 47//47 51//51 48//48
f 47//47 50//50 51//51
f 21//21 26//26 46//46
f 21//21 45//45 52//52
f 21//21 52//52 30//30
f 21//21 37//37 22//22
f 21//21 30//30 37//37
f 26//26 24//24 46//46
f 31//31 53//53 54//54
f 31//31 54//54 55//55
f 31//31 56//56 57//57
f 31//31 57//57 58//58
f 31//31 30//30 59//59
f 31//31 55//55 32//32
f 31//31 58//58 53//53
f 31//31 59//59 56//56
f 32//32 55//55 35//35
f 53//53 58//58 54//54
f 45//45 49//49 56//56
f 45//45 56//56 52//52
f 60//60 54//54 61//61
f 60//60 62//62 63//63
f 60//60 63//63 54//54
f 60//60 64//64 62//62
f 60//60 61//61 64//64
f 52//52 56//56 30//30
f 54//54 63//63 55//55
f 54//54 58//58 61//61
f 48//48 65//65 49//49
f 48//48 51//51 66//66
f 48//48 66//66 65//65
f 14//14 13//13 50//50
f 49//49 65//65 67//67
f 49//49 67//67 57//57
f 49//49 57//57 56//56
f 62//62 68//68 69//69
f 62//62 69//69 63//63
f 62//62 64//64 68//68
f 38//38 35//35 55//55
f 38//38 55//55 39//39
f 56//56 59//59 30//30
f 63//63 69//69 70//70
f 63//63 70//70 55//55
f 65//65 71//71 67//67
f 65//65 66//66 72//72
f 65//65 73//73 71//71
f 65//65 72//72 73//73
f 51//51 50//50 13//13
f 51//51 72//72 66//66
f 51//51 13//13 72//72
f 41//41 39//39 74//74
f 41//41 74//74 42//42
f 67//67 71//71 75//75
f 67//67 75//75 58//58
f 67//67 58//58 57//57
f 68//68 76//76 77//77
f 68//68 77//77 69//69
f 68//68 64//64 76//76
f 39//39 55//55 70//70
f 39//39 70//70 74//74
f 69//69 77//77 70//70
f 71//71 73//73 78//78
f 71//71 78//78 75//75
f 16//16 15//15 13//13
f 16//16 13//13 17//17
f 42//42 74//74 79//79
f 42//42 80//80 18//18
f 42//42 79//79 80//80
f 75//75 78//78 64//64
f 75//75 64//64 61//61
f 75//75 61//61 58//58
f 76//76 64//64 81//81
f 76//76 81//81 82//82
f 76//76 82//82 77//77
f 83//83 74//74 70//70
f 83//83 77//77 82//82
f 83//83 70//70 77//77
f 83//83 84//84 79//79
f 83//83 79//79 74//74
f 83//83 82//82 84//84
f 73//73 72//72 85//85
f 73//73 86//86 87//87
f 73//73 85//85 88//88
f 73//73 87//87 78//78
f 73//73 88//88 86//86
f 72//72 13//13 89//89
f 72//72 90//90 85//85
f 72//72 89//89 90//90
f 78//78 87//87 64//64
f 15//15 18//18 91//91
f 15//15 92//92 89//89
f 15//15 91//91 92//92
f 15//15 89//89 13//13
f 18//18 80//80 93//93
f 18//18 93//93 94//94
f 18//18 94//94 91//91
f 80//80 79//79 93//93
f 95//95 96//96 97//97
f 95//95 98//98 99//99
f 95//95 99//99 96//96
f 95//95 97//97 98//98
f 100//100 81//81 101//101
f 100//100 84//84 81//81
f 100//100 99//99 102//102
f 100//100 101//101 99//99
f 100//100 102//102 84//84
f 86//86 88//88 103//103
f 86//86 103//103 87//87
f 96//96 99//99 101//101
f 96//96 88//88 97//97
f 96//96 103//103 88//88
f 96//96 101//101 103//103
f 64//64 87//87 103//103
f 64//64 103//103 81//81
f 81//81 84//84 82//82
f 81//81 103//103 101//101
f 93//93 79//79 94//94
f 84//84 102//102 79//79
f 79//79 102//102 104//104
f 79//79 104//104 94//94
f 105//105 106//106 107//107
f 105//105 107//107 108//108
f 105//105 85//85 90//90
f 105//105 90//90 106//106
f 105//105 108//108 85//85
f 106//106 109//109 107//107
f 106//106 90//90 92//92
f 106//106 92//92 109//109
f 107//107 109//109 110//110
f 107//107 98//98 108//108
f 107//107 110//110 98//98
f 109//109 92//92 91//91
f 109//109 91//91 110//110
f 85//85 108//108 88//88
f 90//90 89//89 92//92
f 91//91 94//94 110//110
f 108//108 98//98 97//97
f 108//108 97//97 88//88
f 98//98 110//110 111//111
f 98//98 111//111 99//99
f 110//110 94//94 111//111
f 99//99 111//111 102//102
f 111//111 94//94 102//102
f 94//94 104//104 102//102
# 218 faces, 0 coords texture

# End of File
