####
#
# OBJ File Generated by Meshlab
#
####
# Object matlab_mesh_slc_step13_link4.obj
#
# Vertices: 190
# Faces: 376
#
####
vn -1.469619 1.203617 5.986939
v 0.168570 0.343134 0.982792
vn -1.171093 0.905468 6.096943
v 0.168831 0.342804 0.982913
vn -1.257693 1.156706 6.041869
v 0.287373 0.533694 0.972758
vn -1.864934 0.798108 5.912755
v 0.167947 0.342532 0.982756
vn -1.629909 1.254287 5.936634
v 0.135421 0.373199 0.967380
vn -2.217198 2.052835 5.341719
v 0.287349 0.533709 0.972749
vn -2.046974 -0.089488 5.736671
v 0.168208 0.342202 0.982877
vn -0.973576 0.157460 6.171732
v 0.224466 0.287114 0.997709
vn -0.673901 0.570470 6.187592
v 0.376980 0.447222 1.003379
vn -2.058606 0.759681 5.887390
v 0.128314 0.365932 0.965906
vn -2.281605 0.417442 5.816428
v 0.128069 0.366037 0.965806
vn -1.839250 1.090500 5.896386
v 0.135211 0.373354 0.967290
vn -2.519159 -0.019481 5.663583
v 0.127968 0.366080 0.965763
vn -2.646194 -0.148978 5.548137
v 0.127878 0.366123 0.965723
vn -3.027382 -2.278990 3.200849
v 0.217282 0.279752 0.996213
vn -1.768027 -0.994916 5.779172
v 0.217298 0.279745 0.996217
vn 5.283740 0.223677 0.868981
v 0.412179 0.409579 0.986220
vn 5.624447 -2.706896 0.498717
v 0.417111 0.399296 0.882847
vn 5.795930 0.139525 0.438399
v 0.412308 0.409545 0.984558
vn 3.565081 -0.969857 2.412313
v 0.411806 0.409164 0.987657
vn 4.946022 -3.725714 0.546957
v 0.416739 0.398882 0.884284
vn 4.363901 1.710316 -2.445113
v 0.412575 0.425350 0.880364
vn 5.114919 3.089680 1.430497
v 0.396238 0.434463 0.995539
vn 4.495287 2.443013 -2.063562
v 0.412536 0.425437 0.880371
vn 4.870393 -3.855027 0.286637
v 0.416868 0.398848 0.882623
vn 3.358521 -1.071066 -2.031406
v 0.417241 0.399263 0.881185
vn 4.438397 -4.399260 0.652348
v 0.411642 0.408999 0.987657
vn 2.270467 -2.447493 3.433112
v 0.257688 0.254862 0.995642
vn 4.384801 -4.463775 0.545641
v 0.262621 0.244580 0.892269
vn 4.443729 -4.407530 0.541943
v 0.416575 0.398716 0.884284
vn 2.693006 -2.660952 3.398776
v 0.257852 0.255028 0.995642
vn 0.911129 -0.896419 6.149759
v 0.386675 0.437856 1.003660
vn 0.360439 -2.845420 2.153545
v 0.257065 0.254260 0.995606
vn -0.008940 -0.563709 6.250290
v 0.234343 0.277613 0.998010
vn 0.613617 -0.652911 6.213337
v 0.386630 0.437893 1.003670
vn 0.188320 -0.281985 6.262101
v 0.386591 0.437927 1.003676
vn 4.394376 -4.475798 0.147346
v 0.262750 0.244546 0.890608
vn 4.448811 -4.425010 0.152589
v 0.416704 0.398683 0.882623
vn 0.323362 -4.758654 0.252147
v 0.261998 0.243978 0.892233
vn 4.917985 1.838247 3.285991
v 0.389969 0.439866 1.003292
vn 3.488472 0.586947 4.028124
v 0.389797 0.440104 1.003417
vn 3.414074 0.709869 3.987494
v 0.389646 0.440307 1.003516
vn 3.349933 0.914285 3.832801
v 0.389577 0.440397 1.003557
vn 3.274748 0.964762 3.839354
v 0.389517 0.440472 1.003591
vn 3.075762 1.240982 3.676107
v 0.389461 0.440541 1.003621
vn 1.909519 -0.453231 5.882294
v 0.389409 0.440595 1.003642
vn 2.742523 1.535830 3.626678
v 0.389366 0.440646 1.003660
vn 2.068797 -0.298512 -5.802463
v 0.416980 0.399593 0.881064
vn 1.246877 -0.995264 -6.072803
v 0.416357 0.398991 0.881028
vn 1.022827 -0.300498 -6.149024
v 0.315686 0.504622 0.848260
vn 4.169689 0.761196 -2.793496
v 0.412671 0.424981 0.880365
vn 2.801170 2.103926 -3.249360
v 0.322851 0.511992 0.849751
vn 4.206453 -4.178179 -1.505048
v 0.417077 0.399097 0.881185
vn 4.355565 -4.417451 -0.756252
v 0.263123 0.244961 0.889171
vn 3.077774 -3.106150 -3.555027
v 0.416454 0.398495 0.881149
vn 2.642269 -2.518622 -4.468472
v 0.416618 0.398661 0.881149
vn 1.375696 -4.232385 -1.982194
v 0.262500 0.244359 0.889134
vn 5.958543 1.030098 -1.094184
v 0.412707 0.424779 0.880373
vn 4.246174 0.988511 -2.739932
v 0.412632 0.425152 0.880362
vn 4.299877 1.178727 -2.687435
v 0.412612 0.425229 0.880361
vn 4.381036 1.387662 -2.606772
v 0.412594 0.425291 0.880363
vn 0.357367 -4.642100 -0.335361
v 0.262127 0.243944 0.890571
vn -0.598225 -1.218247 6.087648
v 0.230558 0.270201 0.996974
vn -1.444074 -2.884575 5.144785
v 0.227117 0.270310 0.996524
vn -1.982765 -3.224982 3.156739
v 0.227051 0.270343 0.996524
vn -3.954006 -4.839907 -0.281561
v 0.248059 0.254064 0.888763
vn -2.261488 -3.040797 3.028810
v 0.226954 0.270403 0.996520
vn 1.323429 -1.240139 -6.005238
v 0.252801 0.258011 0.873221
vn 0.687350 -0.567046 -6.185610
v 0.163126 0.344548 0.842575
vn 1.937285 -3.934853 -4.281032
v 0.250258 0.255083 0.873365
vn 0.161947 -4.123022 -3.332791
v 0.250193 0.255130 0.873295
vn -0.637375 -3.676380 -3.078831
v 0.250165 0.255152 0.873268
vn 1.247895 -3.144965 -5.094049
v 0.250145 0.255175 0.873248
vn -0.990222 -3.129721 -3.375289
v 0.250124 0.255195 0.873231
vn 0.362333 -4.809506 -3.643343
v 0.250220 0.255108 0.873327
vn 1.598330 -1.537443 -5.878222
v 0.252815 0.257984 0.873231
vn -3.568155 -4.997524 -0.977946
v 0.250906 0.252623 0.881196
vn -4.247773 -4.599809 -0.431936
v 0.248015 0.254106 0.888740
vn -4.274642 -4.553971 -0.553809
v 0.158334 0.340639 0.858089
vn -2.935276 -3.969734 -2.938704
v 0.160442 0.341727 0.842585
vn 4.703405 3.928615 1.144116
v 0.392036 0.439176 0.998540
vn 4.881595 2.128793 3.127973
v 0.389718 0.440211 1.003469
vn 4.866539 3.930104 0.493670
v 0.391567 0.441629 0.988126
vn 4.715955 3.181967 -1.534034
v 0.412515 0.425471 0.880375
vn 4.582994 3.659824 -1.114261
v 0.412494 0.425503 0.880381
vn 4.153078 4.628748 0.896528
v 0.298114 0.529972 0.969319
vn 3.114391 4.269484 2.648284
v 0.290104 0.536457 0.972767
vn 2.150077 2.624045 3.538516
v 0.379691 0.450017 1.003379
vn 4.121296 4.690806 0.486737
v 0.292213 0.537546 0.957258
vn 4.272225 4.555889 0.555131
v 0.381799 0.451105 0.987875
vn 4.627651 4.200707 0.508030
v 0.391475 0.441734 0.988150
vn 4.437389 4.396826 0.541842
v 0.391398 0.441812 0.988172
vn 2.244736 2.001498 3.596752
v 0.389290 0.440724 1.003676
vn 4.334573 4.501499 0.524803
v 0.386953 0.446195 0.987875
vn 4.191705 4.386589 1.505343
v 0.384845 0.445107 1.003379
vn -0.724312 -0.675605 6.200821
v 0.225979 0.274587 0.996974
vn -0.404842 -0.307802 6.252252
v 0.229041 0.282628 0.998014
vn -0.846733 -0.872109 6.164128
v 0.221872 0.275264 0.996523
vn -0.521110 -0.238512 6.242141
v 0.228986 0.282671 0.998012
vn -1.641766 -1.555274 5.663526
v 0.221815 0.275300 0.996520
vn -0.106880 -0.509445 6.253527
v 0.234280 0.277661 0.998013
vn -0.254472 -0.417626 6.251795
v 0.234223 0.277707 0.998015
vn -0.550455 -0.579652 6.232105
v 0.234169 0.277740 0.998014
vn -1.249439 -1.605798 5.875502
v 0.227001 0.270376 0.996523
vn -1.888646 1.130490 5.874243
v 0.135125 0.373417 0.967250
vn -1.960268 1.197281 5.834366
v 0.135041 0.373474 0.967212
vn -2.080048 1.332095 5.762509
v 0.134974 0.373520 0.967179
vn -2.969141 -0.510999 5.184141
v 0.127802 0.366156 0.965687
vn -3.224329 -3.857255 2.499121
v 0.226916 0.270432 0.996516
vn -3.805338 -4.208126 1.702327
v 0.226881 0.270459 0.996510
vn -0.325753 -0.303032 6.259391
v 0.229107 0.282583 0.998015
vn -0.133666 0.021793 6.279301
v 0.381438 0.442837 1.003676
vn -2.208942 1.445615 5.687617
v 0.134910 0.373555 0.967146
vn -2.929431 0.040165 5.382811
v 0.127742 0.366191 0.965655
vn -3.404586 -0.736196 4.427509
v 0.127692 0.366215 0.965627
vn -2.453624 1.721911 5.490270
v 0.134863 0.373585 0.967119
vn -0.636537 -0.071914 6.234623
v 0.224498 0.287098 0.997713
vn -0.968375 -0.529403 6.182732
v 0.217327 0.279728 0.996221
vn -2.236127 -2.119287 4.983593
v 0.221768 0.275337 0.996516
vn -4.374533 -4.501900 0.090777
v 0.136167 0.357919 0.967275
vn -4.391210 -4.484901 0.068417
v 0.132085 0.361858 0.965880
vn -4.367995 -4.512970 -0.172004
v 0.133438 0.360812 0.958967
vn -4.337256 -4.497890 -0.529820
v 0.153181 0.345549 0.858089
vn -4.332889 -4.547417 -0.159643
v 0.141321 0.353009 0.967275
vn -0.499953 -2.578816 -5.065145
v 0.250105 0.255217 0.873221
vn -0.246378 0.119216 6.276245
v 0.381401 0.442864 1.003674
vn 2.531536 1.676118 3.877124
v 0.389325 0.440687 1.003670
vn 4.469354 4.410292 0.207362
v 0.411141 0.426549 0.887294
vn -2.988586 2.281421 4.960794
v 0.134826 0.373602 0.967095
vn -3.718551 -0.482237 3.814682
v 0.127659 0.366233 0.965603
vn 2.734008 5.381085 0.182049
v 0.292157 0.537594 0.957245
vn 1.266084 2.949571 3.636434
v 0.290069 0.536488 0.972758
vn 0.465426 3.261984 2.836496
v 0.290048 0.536506 0.972749
vn 4.083582 4.774117 0.100121
v 0.292177 0.537576 0.957249
vn 2.569944 4.244028 -1.930475
v 0.313252 0.521285 0.849454
vn 2.572431 5.437231 -0.319297
v 0.311899 0.522331 0.856367
vn 4.332888 4.547417 0.159670
v 0.398812 0.438735 0.878689
vn 4.391209 4.484900 -0.068443
v 0.408048 0.429886 0.880084
vn 4.374535 4.501896 -0.090786
v 0.403966 0.433824 0.878689
vn 4.367988 4.512977 0.171996
v 0.406695 0.430932 0.886997
vn -3.459184 -3.410230 2.547973
v 0.221728 0.275370 0.996510
vn -1.496909 -2.282733 -4.356071
v 0.160425 0.341749 0.842575
vn 4.371480 3.936945 -1.677086
v 0.408411 0.429442 0.878986
vn -3.799076 3.222491 3.544374
v 0.134805 0.373610 0.967075
vn -4.390250 -3.987513 1.589221
v 0.131722 0.362302 0.966978
vn -3.837454 -0.460479 1.757387
v 0.127640 0.366241 0.965583
vn 0.233918 1.719392 5.736125
v 0.379681 0.450021 1.003379
vn -3.771207 3.570003 2.462562
v 0.287336 0.533711 0.972739
vn -4.488453 -4.389785 -0.214226
v 0.128992 0.365195 0.958670
vn -5.105215 -3.123716 -0.708762
v 0.148735 0.349932 0.857792
vn -4.197350 -4.382329 -1.499680
v 0.155289 0.346637 0.842585
vn -4.432974 -0.641857 -1.503425
v 0.150843 0.351020 0.842288
vn -4.007345 -4.211478 -2.368558
v 0.155997 0.346109 0.842288
vn 0.694690 0.109169 -6.226990
v 0.315669 0.504651 0.848258
vn 2.029058 1.564303 -5.403180
v 0.322827 0.512013 0.849747
vn 0.419357 -0.177223 -6.265425
v 0.165471 0.347009 0.842663
vn 1.971731 2.155630 4.199872
v 0.384136 0.445635 1.003676
vn 0.043497 0.443650 6.256333
v 0.384102 0.445663 1.003674
vn 3.652409 3.772712 -2.246165
v 0.318406 0.516374 0.849454
vn 1.942978 1.773542 -5.330971
v 0.318406 0.516371 0.849452
vn -4.175310 0.207761 0.426771
v 0.127635 0.366247 0.965567
vn -5.102723 1.472373 -0.890803
v 0.129742 0.367334 0.950074
vn -4.754834 3.777449 -1.502595
v 0.131096 0.366287 0.943156
vn -2.522133 0.141386 -2.736326
v 0.150847 0.351021 0.842280
vn -1.880118 -2.095353 -4.437559
v 0.156005 0.346107 0.842280
vn -1.519466 4.116130 1.561150
v 0.290036 0.536511 0.972739
vn -4.328657 4.064831 1.675719
v 0.284991 0.531250 0.972651
vn -4.427210 4.046315 1.546827
v 0.134793 0.373608 0.967057
vn -0.418055 2.989521 -2.737697
v 0.313248 0.521285 0.849452
vn -1.622480 5.284875 -1.117422
v 0.311894 0.522332 0.856371
vn -1.302544 5.031757 -0.357668
v 0.292143 0.537598 0.957246
vn 0.477093 0.279976 -6.240142
v 0.311248 0.509010 0.847962
vn 0.164299 -0.045302 -6.277326
v 0.158706 0.348906 0.842280
vn 0.220288 0.012818 -6.277500
v 0.161050 0.351367 0.842367
vn -4.534051 4.327421 0.106338
v 0.280178 0.526350 0.971249
vn -4.539904 4.321606 0.110262
v 0.277833 0.523889 0.971161
vn -4.506045 4.371051 -0.078152
v 0.282879 0.529149 0.971249
vn -4.460011 4.292968 -0.893416
v 0.282284 0.527437 0.955757
vn -4.465509 4.286599 -0.900173
v 0.279940 0.524976 0.955669
vn -4.390258 4.348983 -0.926271
v 0.284985 0.530236 0.955757
vn -4.392027 4.237663 -1.493543
v 0.282641 0.527776 0.955669
vn -4.391865 4.237409 -1.494743
v 0.132442 0.370133 0.950074
vn -4.390740 4.236448 -1.500775
v 0.133797 0.369086 0.943156
vn -2.149099 2.129596 -3.891409
v 0.153548 0.353821 0.842280
vn -4.599661 3.994247 -1.505025
v 0.286340 0.529189 0.948838
vn -1.895028 2.273515 -3.836658
v 0.306090 0.513924 0.847962
vn -4.390634 4.236558 -1.500776
v 0.283995 0.526729 0.948751
vn -4.839743 3.572293 -1.488174
v 0.304736 0.514971 0.854881
vn -2.195987 2.216991 -3.514891
v 0.155892 0.356282 0.842367
vn -4.374436 4.223925 -1.579423
v 0.303746 0.511463 0.847875
# 190 vertices, 0 vertices normals

f 1//1 2//2 3//3
f 1//1 4//4 2//2
f 1//1 5//5 4//4
f 1//1 3//3 6//6
f 1//1 6//6 5//5
f 2//2 4//4 7//7
f 2//2 7//7 8//8
f 2//2 8//8 9//9
f 2//2 9//9 3//3
f 4//4 10//10 11//11
f 4//4 5//5 12//12
f 4//4 11//11 7//7
f 4//4 12//12 10//10
f 7//7 11//11 13//13
f 7//7 13//13 14//14
f 7//7 14//14 15//15
f 7//7 16//16 8//8
f 7//7 15//15 16//16
f 17//17 18//18 19//19
f 17//17 20//20 21//21
f 17//17 21//21 18//18
f 17//17 19//19 22//22
f 17//17 23//23 20//20
f 17//17 22//22 24//24
f 17//17 24//24 23//23
f 18//18 21//21 25//25
f 18//18 26//26 19//19
f 18//18 25//25 26//26
f 27//27 28//28 29//29
f 27//27 30//30 21//21
f 27//27 29//29 30//30
f 27//27 20//20 31//31
f 27//27 31//31 28//28
f 27//27 21//21 20//20
f 28//28 31//31 32//32
f 28//28 33//33 29//29
f 28//28 34//34 33//33
f 28//28 32//32 35//35
f 28//28 35//35 36//36
f 28//28 36//36 34//34
f 30//30 29//29 37//37
f 30//30 38//38 21//21
f 30//30 37//37 38//38
f 29//29 33//33 39//39
f 29//29 39//39 37//37
f 20//20 23//23 40//40
f 20//20 40//40 41//41
f 20//20 41//41 31//31
f 31//31 41//41 42//42
f 31//31 42//42 43//43
f 31//31 43//43 44//44
f 31//31 44//44 45//45
f 31//31 45//45 46//46
f 31//31 46//46 47//47
f 31//31 47//47 32//32
f 21//21 38//38 25//25
f 48//48 26//26 49//49
f 48//48 49//49 50//50
f 48//48 51//51 26//26
f 48//48 50//50 52//52
f 48//48 52//52 51//51
f 53//53 54//54 55//55
f 53//53 26//26 25//25
f 53//53 38//38 37//37
f 53//53 37//37 54//54
f 53//53 25//25 38//38
f 53//53 55//55 56//56
f 53//53 56//56 26//26
f 54//54 37//37 57//57
f 54//54 57//57 55//55
f 19//19 26//26 58//58
f 19//19 58//58 51//51
f 19//19 51//51 59//59
f 19//19 59//59 60//60
f 19//19 60//60 61//61
f 19//19 61//61 22//22
f 26//26 56//56 49//49
f 26//26 51//51 58//58
f 37//37 39//39 62//62
f 37//37 62//62 57//57
f 33//33 63//63 64//64
f 33//33 34//34 63//63
f 33//33 64//64 65//65
f 33//33 65//65 39//39
f 39//39 66//66 62//62
f 39//39 65//65 67//67
f 39//39 67//67 66//66
f 49//49 56//56 68//68
f 49//49 68//68 69//69
f 49//49 69//69 50//50
f 55//55 57//57 70//70
f 55//55 70//70 71//71
f 55//55 71//71 72//72
f 55//55 72//72 73//73
f 55//55 73//73 74//74
f 55//55 74//74 56//56
f 57//57 62//62 71//71
f 57//57 75//75 70//70
f 57//57 71//71 75//75
f 56//56 74//74 76//76
f 56//56 76//76 68//68
f 62//62 77//77 72//72
f 62//62 66//66 77//77
f 62//62 72//72 71//71
f 77//77 66//66 78//78
f 77//77 78//78 79//79
f 77//77 74//74 72//72
f 77//77 79//79 80//80
f 77//77 80//80 74//74
f 23//23 81//81 45//45
f 23//23 41//41 40//40
f 23//23 82//82 41//41
f 23//23 42//42 82//82
f 23//23 43//43 42//42
f 23//23 44//44 43//43
f 23//23 45//45 44//44
f 23//23 83//83 81//81
f 23//23 24//24 84//84
f 23//23 84//84 85//85
f 23//23 85//85 83//83
f 86//86 87//87 88//88
f 86//86 89//89 87//87
f 86//86 88//88 90//90
f 86//86 90//90 89//89
f 81//81 83//83 91//91
f 81//81 47//47 45//45
f 81//81 91//91 92//92
f 81//81 93//93 47//47
f 81//81 92//92 94//94
f 81//81 95//95 93//93
f 81//81 94//94 95//95
f 96//96 63//63 97//97
f 96//96 98//98 63//63
f 96//96 97//97 99//99
f 96//96 100//100 98//98
f 96//96 99//99 100//100
f 63//63 34//34 101//101
f 63//63 101//101 102//102
f 63//63 65//65 64//64
f 63//63 102//102 103//103
f 63//63 98//98 104//104
f 63//63 104//104 65//65
f 63//63 103//103 97//97
f 41//41 82//82 42//42
f 51//51 52//52 59//59
f 10//10 12//12 11//11
f 5//5 6//6 12//12
f 70//70 75//75 71//71
f 59//59 52//52 60//60
f 11//11 12//12 105//105
f 11//11 105//105 106//106
f 11//11 106//106 13//13
f 12//12 6//6 105//105
f 34//34 36//36 101//101
f 60//60 52//52 61//61
f 13//13 106//106 14//14
f 105//105 6//6 106//106
f 101//101 36//36 102//102
f 61//61 52//52 22//22
f 14//14 106//106 107//107
f 14//14 108//108 15//15
f 14//14 107//107 108//108
f 106//106 6//6 107//107
f 66//66 67//67 109//109
f 66//66 109//109 110//110
f 66//66 110//110 78//78
f 65//65 104//104 67//67
f 72//72 74//74 73//73
f 111//111 102//102 112//112
f 111//111 97//97 102//102
f 111//111 112//112 97//97
f 102//102 97//97 103//103
f 102//102 36//36 112//112
f 45//45 47//47 46//46
f 22//22 52//52 24//24
f 83//83 85//85 91//91
f 108//108 107//107 113//113
f 108//108 114//114 115//115
f 108//108 113//113 114//114
f 108//108 115//115 15//15
f 107//107 6//6 113//113
f 98//98 100//100 104//104
f 104//104 100//100 67//67
f 97//97 112//112 99//99
f 114//114 113//113 116//116
f 114//114 116//116 115//115
f 113//113 6//6 116//116
f 100//100 99//99 117//117
f 100//100 118//118 119//119
f 100//100 117//117 118//118
f 100//100 119//119 67//67
f 78//78 120//120 121//121
f 78//78 122//122 123//123
f 78//78 123//123 79//79
f 78//78 121//121 122//122
f 78//78 124//124 120//120
f 78//78 110//110 124//124
f 67//67 119//119 109//109
f 74//74 125//125 76//76
f 74//74 80//80 125//125
f 76//76 125//125 68//68
f 99//99 112//112 126//126
f 99//99 126//126 117//117
f 32//32 47//47 35//35
f 47//47 127//127 35//35
f 47//47 93//93 127//127
f 24//24 52//52 84//84
f 91//91 85//85 128//128
f 91//91 128//128 92//92
f 118//118 117//117 8//8
f 118//118 16//16 119//119
f 118//118 8//8 16//16
f 115//115 116//116 129//129
f 115//115 130//130 15//15
f 115//115 129//129 130//130
f 117//117 126//126 9//9
f 117//117 9//9 8//8
f 116//116 6//6 129//129
f 87//87 89//89 131//131
f 87//87 132//132 88//88
f 87//87 133//133 132//132
f 87//87 131//131 133//133
f 89//89 134//134 131//131
f 89//89 90//90 94//94
f 89//89 135//135 136//136
f 89//89 137//137 135//135
f 89//89 136//136 134//134
f 89//89 138//138 139//139
f 89//89 94//94 140//140
f 89//89 140//140 138//138
f 89//89 139//139 137//137
f 119//119 16//16 15//15
f 119//119 141//141 109//109
f 119//119 15//15 141//141
f 109//109 141//141 110//110
f 125//125 80//80 142//142
f 125//125 142//142 68//68
f 68//68 142//142 69//69
f 35//35 127//127 36//36
f 127//127 93//93 36//36
f 84//84 52//52 143//143
f 84//84 143//143 85//85
f 130//130 129//129 144//144
f 130//130 145//145 15//15
f 130//130 146//146 145//145
f 130//130 144//144 146//146
f 3//3 132//132 133//133
f 3//3 133//133 6//6
f 3//3 9//9 147//147
f 3//3 147//147 132//132
f 129//129 6//6 148//148
f 129//129 148//148 144//144
f 132//132 147//147 88//88
f 134//134 136//136 131//131
f 120//120 141//141 15//15
f 120//120 124//124 141//141
f 120//120 145//145 121//121
f 120//120 15//15 145//145
f 141//141 124//124 110//110
f 122//122 121//121 149//149
f 122//122 149//149 150//150
f 122//122 150//150 123//123
f 123//123 151//151 79//79
f 123//123 150//150 151//151
f 121//121 145//145 146//146
f 121//121 146//146 149//149
f 79//79 151//151 80//80
f 151//151 150//150 152//152
f 151//151 152//152 153//153
f 151//151 153//153 80//80
f 80//80 153//153 142//142
f 50//50 154//154 155//155
f 50//50 156//156 154//154
f 50//50 69//69 156//156
f 50//50 155//155 52//52
f 112//112 36//36 157//157
f 112//112 157//157 158//158
f 112//112 158//158 126//126
f 36//36 93//93 157//157
f 157//157 93//93 95//95
f 157//157 88//88 158//158
f 157//157 95//95 88//88
f 85//85 143//143 138//138
f 85//85 138//138 128//128
f 92//92 128//128 140//140
f 92//92 140//140 94//94
f 128//128 138//138 140//140
f 52//52 159//159 139//139
f 52//52 139//139 143//143
f 52//52 155//155 160//160
f 52//52 160//160 159//159
f 143//143 139//139 138//138
f 149//149 146//146 161//161
f 149//149 161//161 150//150
f 150//150 161//161 152//152
f 146//146 144//144 161//161
f 152//152 161//161 162//162
f 152//152 163//163 164//164
f 152//152 164//164 153//153
f 152//152 162//162 163//163
f 153//153 164//164 165//165
f 153//153 165//165 142//142
f 6//6 133//133 166//166
f 6//6 166//166 148//148
f 144//144 148//148 167//167
f 144//144 167//167 168//168
f 144//144 168//168 161//161
f 88//88 95//95 90//90
f 88//88 147//147 158//158
f 133//133 131//131 166//166
f 95//95 94//94 90//90
f 135//135 137//137 159//159
f 135//135 159//159 160//160
f 135//135 169//169 170//170
f 135//135 171//171 136//136
f 135//135 170//170 171//171
f 135//135 160//160 169//169
f 137//137 139//139 159//159
f 131//131 136//136 171//171
f 131//131 171//171 166//166
f 142//142 165//165 69//69
f 154//154 156//156 172//172
f 154//154 172//172 160//160
f 154//154 160//160 155//155
f 156//156 69//69 173//173
f 156//156 174//174 172//172
f 156//156 173//173 174//174
f 69//69 165//165 173//173
f 126//126 158//158 9//9
f 158//158 147//147 9//9
f 175//175 176//176 167//167
f 175//175 177//177 178//178
f 175//175 178//178 179//179
f 175//175 179//179 176//176
f 175//175 148//148 177//177
f 175//175 167//167 148//148
f 176//176 161//161 168//168
f 176//176 179//179 162//162
f 176//176 162//162 161//161
f 176//176 168//168 167//167
f 177//177 180//180 178//178
f 177//177 148//148 166//166
f 177//177 166//166 180//180
f 178//178 180//180 181//181
f 178//178 181//181 179//179
f 163//163 162//162 182//182
f 163//163 183//183 164//164
f 163//163 182//182 183//183
f 164//164 183//183 184//184
f 164//164 184//184 165//165
f 179//179 181//181 182//182
f 179//179 182//182 162//162
f 165//165 184//184 173//173
f 185//185 186//186 187//187
f 185//185 180//180 188//188
f 185//185 188//188 186//186
f 185//185 187//187 181//181
f 185//185 181//181 180//180
f 186//186 189//189 190//190
f 186//186 188//188 169//169
f 186//186 190//190 187//187
f 186//186 172//172 174//174
f 186//186 174//174 189//189
f 186//186 169//169 172//172
f 189//189 184//184 190//190
f 189//189 174//174 184//184
f 180//180 166//166 171//171
f 180//180 171//171 170//170
f 180//180 170//170 188//188
f 188//188 170//170 169//169
f 187//187 183//183 182//182
f 187//187 190//190 183//183
f 187//187 182//182 181//181
f 183//183 190//190 184//184
f 184//184 174//174 173//173
f 172//172 169//169 160//160
# 376 faces, 0 coords texture

# End of File
