####
#
# OBJ File Generated by Meshlab
#
####
# Object matlab_mesh_slc_step9_link6.obj
#
# Vertices: 138
# Faces: 272
#
####
vn -2.368218 -5.743066 0.499751
v 0.497859 0.386570 0.866743
vn -0.933593 -5.693212 1.304013
v 0.498274 0.386540 0.867977
vn -2.975996 -5.464508 0.593635
v 0.435901 0.420565 0.876990
vn -2.117243 -5.778754 -0.121009
v 0.497946 0.386416 0.864836
vn -1.216348 -6.134493 0.401075
v 0.498361 0.386386 0.866070
vn -0.801476 -5.379822 2.387763
v 0.486472 0.423470 0.982597
vn -1.514054 -4.432226 3.416544
v 0.426032 0.450876 0.993594
vn 0.360761 -6.045545 0.987966
v 0.498477 0.386497 0.867737
vn 2.742468 -2.828675 3.070819
v 0.581811 0.445779 1.003661
vn -1.674115 -4.067376 3.429465
v 0.425930 0.450924 0.993609
vn -1.869049 -3.514601 3.483915
v 0.425848 0.450968 0.993619
vn -0.167932 -4.700180 3.573995
v 0.486616 0.423552 0.982758
vn 2.273707 -2.670925 3.704617
v 0.581787 0.445786 1.003685
vn 1.637093 -2.319876 4.531424
v 0.581762 0.445796 1.003702
vn -0.018913 -4.028046 4.807792
v 0.529110 0.445796 1.003702
vn -0.151511 -2.587166 5.441624
v 0.529047 0.445809 1.003712
vn 1.260163 -5.989479 1.208632
v 0.600366 0.406971 0.871632
vn 0.222046 -6.128900 0.118875
v 0.498564 0.386343 0.865831
vn 1.334200 -6.113152 0.064522
v 0.600454 0.406817 0.869726
vn 1.299362 -5.859807 1.855668
v 0.600511 0.407053 0.871793
vn 3.188104 -2.849437 2.727704
v 0.581836 0.445774 1.003630
vn 1.826472 -5.843370 1.024058
v 0.602610 0.407505 0.871692
vn 2.181637 -5.778967 0.070917
v 0.602697 0.407351 0.869786
vn 3.722905 -3.288363 1.154741
v 0.602754 0.407587 0.871853
vn 5.879635 -1.439306 0.487989
v 0.603104 0.407832 0.869456
vn 6.214846 -0.271378 0.804795
v 0.591301 0.444761 0.984076
vn 4.024345 -4.362006 0.431968
v 0.602842 0.407433 0.869946
vn 4.629233 -2.500631 -0.464245
v 0.603191 0.407678 0.867549
vn 6.237564 0.418225 0.201202
v 0.603818 0.623516 0.845927
vn 6.030762 0.386745 1.245201
v 0.593954 0.653793 0.962539
vn 6.244569 -0.001439 0.691217
v 0.593954 0.608552 0.962539
vn 4.475953 -2.230597 1.816830
v 0.590952 0.444516 0.986473
vn 3.953915 -2.636546 2.588619
v 0.581862 0.445771 1.003591
vn 5.621751 0.105013 2.784976
v 0.581887 0.490554 1.003545
vn 5.390296 -0.877982 2.964169
v 0.581887 0.445772 1.003545
vn 1.872782 2.180060 1.775684
v 0.593952 0.653801 0.962542
vn -2.499768 -5.672231 -1.005648
v 0.498296 0.386660 0.862439
vn -0.295428 -4.828837 -2.329385
v 0.498498 0.386617 0.862200
vn -0.695012 -5.968541 -0.545326
v 0.498149 0.386372 0.864597
vn -1.528039 -4.301048 -2.706619
v 0.435901 0.420565 0.836384
vn 1.315956 -5.759452 -1.730193
v 0.600388 0.407091 0.866095
vn 1.147824 -6.155395 -0.499488
v 0.498913 0.386587 0.863434
vn 0.158531 -3.708570 -5.064741
v 0.488456 0.420427 0.836479
vn 1.321616 -2.562739 -5.275832
v 0.591628 0.415506 0.846407
vn 3.100775 -3.290665 -3.211374
v 0.591733 0.415431 0.846525
vn -0.387614 -4.160146 -4.629491
v 0.436172 0.420427 0.836479
vn 2.837984 -3.247870 -3.570570
v 0.591706 0.415448 0.846485
vn -1.230857 -4.530853 -3.294961
v 0.436026 0.420499 0.836427
vn 2.484464 -3.116432 -4.074682
v 0.591680 0.415467 0.846451
vn 1.974112 -2.904526 -4.661411
v 0.591654 0.415486 0.846425
vn 1.372877 -6.106847 -0.517249
v 0.600803 0.407062 0.867329
vn 2.947574 -3.955139 -2.195227
v 0.602632 0.407625 0.866154
vn 2.841666 -5.251268 -0.856549
v 0.603047 0.407596 0.867389
vn 4.875597 -2.454910 -2.144279
v 0.602776 0.407707 0.866315
vn 5.034479 -1.538196 -3.413869
v 0.591761 0.415413 0.846574
vn 3.432242 -0.616161 -4.486315
v 0.603810 0.578254 0.805209
vn 5.314094 -0.137527 -2.249489
v 0.603818 0.578275 0.805218
vn 6.281852 -0.006240 0.087454
v 0.603818 0.578275 0.845927
vn 0.090375 -1.475582 -6.101522
v 0.469334 0.584616 0.793446
vn 0.213856 -1.333176 -6.135462
v 0.471085 0.586390 0.793114
vn 0.372873 -1.490460 -6.089684
v 0.500454 0.583292 0.795140
vn -0.165721 -1.309958 -6.130698
v 0.468201 0.585648 0.793204
vn 0.220482 -1.762004 -6.013470
v 0.488343 0.420726 0.836308
vn -2.105912 -3.074984 -2.914104
v 0.435652 0.420726 0.836308
vn 0.269400 -1.244151 -6.151282
v 0.473102 0.588059 0.792833
vn 0.019943 -1.119671 -6.178650
v 0.470034 0.587505 0.792857
vn 0.222080 -0.914775 -6.199613
v 0.472138 0.589253 0.792564
vn 0.432913 -1.229913 -6.137334
v 0.500497 0.583352 0.795128
vn -0.427656 -0.920152 -6.186477
v 0.466062 0.587935 0.792877
vn -0.458589 -1.480445 -6.088526
v 0.447944 0.583292 0.795140
vn -0.832257 -1.300179 -6.065863
v 0.447905 0.583352 0.795128
vn -0.326070 -0.737284 -6.221063
v 0.468080 0.589980 0.792501
vn 0.085102 -0.337527 -6.227380
v 0.470381 0.591911 0.792179
vn 0.504948 -0.706310 -6.212141
v 0.500529 0.583405 0.795122
vn 0.630523 -0.200272 -6.237640
v 0.575678 0.588786 0.801645
vn 0.368808 0.303886 -6.253753
v 0.500550 0.628685 0.795121
vn 1.009375 0.121112 -6.181912
v 0.603791 0.623437 0.805205
vn 1.725477 -0.917986 -5.763035
v 0.603791 0.578233 0.805205
vn 0.550123 -0.291714 -6.251393
v 0.500550 0.583453 0.795121
vn -0.028234 0.196895 6.261939
v 0.564523 0.471025 1.005612
vn 0.270233 -0.104061 6.248333
v 0.566546 0.468918 1.005612
vn 0.883516 0.973009 6.001151
v 0.581715 0.491065 1.003714
vn -0.342375 0.809071 6.150491
v 0.529005 0.491065 1.003714
vn -0.506888 -1.339592 5.932873
v 0.529005 0.445825 1.003714
vn 2.175125 0.574392 5.606730
v 0.581739 0.491041 1.003712
vn 0.865648 -1.623124 5.502593
v 0.581739 0.445809 1.003712
vn 0.251810 -0.547494 6.231186
v 0.581715 0.445825 1.003714
vn -0.631222 -0.541711 -6.227567
v 0.464038 0.590042 0.792877
vn -0.704336 -0.274882 -6.228075
v 0.466057 0.592087 0.792501
vn -1.577529 -0.957552 -5.870494
v 0.447876 0.583405 0.795122
vn -0.293750 0.059877 -6.236162
v 0.468358 0.594018 0.792179
vn -2.766486 -0.465470 -5.059054
v 0.447858 0.583453 0.795121
vn -1.391944 0.210445 -5.969341
v 0.447858 0.628685 0.795121
vn -2.866813 0.805643 -3.320290
v 0.447849 0.628735 0.795125
vn 0.351818 1.265880 -6.047080
v 0.500560 0.628735 0.795125
vn 5.485861 0.121968 3.019171
v 0.581862 0.490676 1.003591
vn 5.254063 0.161445 3.379297
v 0.581836 0.490781 1.003630
vn 0.171174 -3.516689 -5.195409
v 0.488434 0.420499 0.836427
vn 4.898553 0.213891 3.833197
v 0.581811 0.490870 1.003661
vn 0.188757 -3.220184 -5.380252
v 0.488411 0.420565 0.836384
vn 4.352806 0.287685 4.380980
v 0.581787 0.490943 1.003685
vn -3.176128 -5.346904 0.567982
v 0.435797 0.420625 0.877003
vn 0.792456 -1.202568 -6.078319
v 0.603762 0.578214 0.805204
vn 0.742861 -1.932036 -5.894422
v 0.591604 0.415527 0.846396
vn 0.211301 -2.817005 -5.595106
v 0.488388 0.420625 0.836349
vn -2.797220 -2.437567 -2.795639
v 0.435611 0.420767 0.836301
vn -1.629725 -4.016119 -2.789138
v 0.435797 0.420625 0.836349
vn 3.467939 0.395117 5.012860
v 0.581762 0.491000 1.003702
vn -3.542307 -5.112140 0.523420
v 0.435714 0.420678 0.877011
vn 0.240257 -2.242632 -5.837101
v 0.488366 0.420678 0.836324
vn -1.797507 -3.577898 -2.887902
v 0.435714 0.420678 0.836324
vn -2.167080 -2.698169 3.437409
v 0.425786 0.451008 0.993623
vn -4.092559 -4.678872 0.445392
v 0.435652 0.420726 0.877013
vn 2.336991 0.482160 -5.343257
v 0.603810 0.623486 0.805209
vn -4.258289 -1.349514 -2.402381
v 0.435591 0.420803 0.836302
vn -2.741150 -1.889813 3.111636
v 0.425746 0.451044 0.993622
vn -4.925861 -3.745075 0.285702
v 0.435611 0.420767 0.877010
vn 2.936966 1.458739 -2.625338
v 0.603818 0.623516 0.805218
vn -4.361432 -0.042708 -3.729858
v 0.447849 0.583495 0.795125
vn 2.838127 3.073874 -1.562640
v 0.603817 0.623529 0.805230
vn 6.101509 1.369345 0.094795
v 0.603817 0.623529 0.845929
vn -0.128257 3.488034 4.504206
v 0.541245 0.653801 0.962542
vn -6.231788 0.601689 0.340925
v 0.437985 0.659012 0.952446
vn -6.210494 0.652588 -0.429572
v 0.437985 0.659012 0.911737
vn -6.258144 0.215603 -0.263663
v 0.425727 0.496307 0.952915
vn -1.936265 2.250910 1.594465
v 0.437987 0.659034 0.952446
vn -2.872250 3.364164 -0.486910
v 0.437987 0.659034 0.911747
vn -3.392580 0.695198 2.988890
v 0.425727 0.496307 0.993614
vn -1.228250 0.585318 5.987039
v 0.425746 0.496285 0.993622
vn -4.066157 -0.857633 2.469569
v 0.425727 0.451075 0.993614
vn -5.712086 -2.532977 0.080882
v 0.435591 0.420803 0.877002
vn -2.127530 2.384715 -2.201776
v 0.447851 0.628762 0.795134
vn 0.280420 4.004166 -3.696318
v 0.500559 0.628762 0.795134
vn -6.142230 0.079011 -1.129036
v 0.435591 0.466034 0.836302
vn 0.084426 5.928595 1.395234
v 0.490695 0.659034 0.952446
vn 2.932581 4.075381 -0.384551
v 0.593952 0.653801 0.921842
vn 0.189134 6.160546 -0.799784
v 0.490695 0.659034 0.911747
vn -6.121826 -0.890727 -0.153734
v 0.425727 0.451075 0.952915
# 138 vertices, 0 vertices normals

f 1//1 2//2 3//3
f 1//1 4//4 5//5
f 1//1 5//5 2//2
f 1//1 3//3 4//4
f 2//2 6//6 7//7
f 2//2 8//8 9//9
f 2//2 5//5 8//8
f 2//2 9//9 6//6
f 2//2 7//7 10//10
f 2//2 10//10 11//11
f 2//2 11//11 3//3
f 6//6 12//12 7//7
f 6//6 9//9 12//12
f 12//12 9//9 13//13
f 12//12 13//13 14//14
f 12//12 14//14 15//15
f 12//12 15//15 16//16
f 12//12 16//16 7//7
f 8//8 17//17 9//9
f 8//8 5//5 18//18
f 8//8 18//18 19//19
f 8//8 19//19 17//17
f 17//17 20//20 21//21
f 17//17 22//22 20//20
f 17//17 19//19 23//23
f 17//17 23//23 22//22
f 17//17 21//21 9//9
f 20//20 22//22 24//24
f 20//20 24//24 21//21
f 25//25 26//26 24//24
f 25//25 24//24 27//27
f 25//25 28//28 29//29
f 25//25 27//27 28//28
f 25//25 29//29 30//30
f 25//25 30//30 31//31
f 25//25 31//31 26//26
f 26//26 32//32 24//24
f 26//26 30//30 32//32
f 26//26 31//31 30//30
f 22//22 23//23 27//27
f 22//22 27//27 24//24
f 24//24 32//32 33//33
f 24//24 33//33 21//21
f 32//32 34//34 35//35
f 32//32 35//35 33//33
f 32//32 30//30 36//36
f 32//32 36//36 34//34
f 37//37 38//38 39//39
f 37//37 4//4 40//40
f 37//37 39//39 4//4
f 37//37 40//40 38//38
f 38//38 41//41 42//42
f 38//38 42//42 39//39
f 38//38 43//43 44//44
f 38//38 45//45 41//41
f 38//38 46//46 43//43
f 38//38 47//47 45//45
f 38//38 48//48 46//46
f 38//38 49//49 47//47
f 38//38 40//40 48//48
f 38//38 50//50 49//49
f 38//38 44//44 50//50
f 41//41 51//51 42//42
f 41//41 52//52 51//51
f 41//41 45//45 52//52
f 4//4 39//39 18//18
f 4//4 18//18 5//5
f 4//4 3//3 40//40
f 39//39 42//42 18//18
f 42//42 51//51 19//19
f 42//42 19//19 18//18
f 51//51 52//52 53//53
f 51//51 53//53 23//23
f 51//51 23//23 19//19
f 52//52 54//54 53//53
f 52//52 45//45 54//54
f 54//54 28//28 53//53
f 54//54 55//55 56//56
f 54//54 45//45 55//55
f 54//54 56//56 57//57
f 54//54 57//57 28//28
f 53//53 28//28 23//23
f 28//28 27//27 23//23
f 28//28 58//58 29//29
f 28//28 57//57 58//58
f 59//59 60//60 61//61
f 59//59 62//62 60//60
f 59//59 61//61 63//63
f 59//59 63//63 64//64
f 59//59 64//64 62//62
f 60//60 65//65 61//61
f 60//60 62//62 66//66
f 60//60 66//66 65//65
f 65//65 66//66 67//67
f 65//65 67//67 68//68
f 65//65 68//68 61//61
f 62//62 69//69 66//66
f 62//62 70//70 71//71
f 62//62 71//71 69//69
f 62//62 64//64 70//70
f 66//66 69//69 72//72
f 66//66 72//72 67//67
f 67//67 72//72 73//73
f 67//67 73//73 74//74
f 67//67 74//74 68//68
f 75//75 73//73 76//76
f 75//75 77//77 78//78
f 75//75 74//74 79//79
f 75//75 78//78 74//74
f 75//75 76//76 77//77
f 75//75 79//79 73//73
f 80//80 81//81 82//82
f 80//80 82//82 83//83
f 80//80 83//83 84//84
f 80//80 84//84 81//81
f 81//81 85//85 82//82
f 81//81 86//86 85//85
f 81//81 87//87 86//86
f 81//81 84//84 87//87
f 88//88 89//89 72//72
f 88//88 69//69 90//90
f 88//88 72//72 69//69
f 88//88 90//90 89//89
f 89//89 91//91 72//72
f 89//89 90//90 92//92
f 89//89 93//93 91//91
f 89//89 92//92 93//93
f 91//91 73//73 72//72
f 91//91 76//76 73//73
f 91//91 93//93 94//94
f 91//91 95//95 76//76
f 91//91 94//94 95//95
f 69//69 71//71 90//90
f 73//73 79//79 74//74
f 34//34 96//96 33//33
f 34//34 33//33 35//35
f 34//34 36//36 96//96
f 55//55 45//45 56//56
f 96//96 97//97 21//21
f 96//96 21//21 33//33
f 96//96 36//36 97//97
f 43//43 46//46 98//98
f 43//43 98//98 44//44
f 45//45 47//47 56//56
f 46//46 48//48 98//98
f 97//97 99//99 9//9
f 97//97 9//9 21//21
f 97//97 36//36 99//99
f 98//98 48//48 100//100
f 98//98 100//100 44//44
f 47//47 49//49 56//56
f 48//48 40//40 100//100
f 99//99 101//101 13//13
f 99//99 13//13 9//9
f 99//99 36//36 101//101
f 3//3 102//102 40//40
f 3//3 11//11 102//102
f 7//7 16//16 10//10
f 61//61 68//68 103//103
f 61//61 103//103 104//104
f 61//61 104//104 63//63
f 100//100 40//40 105//105
f 100//100 105//105 44//44
f 49//49 50//50 56//56
f 70//70 64//64 106//106
f 70//70 106//106 71//71
f 40//40 102//102 107//107
f 40//40 107//107 105//105
f 101//101 108//108 14//14
f 101//101 14//14 13//13
f 101//101 36//36 108//108
f 102//102 109//109 107//107
f 102//102 11//11 109//109
f 10//10 16//16 84//84
f 10//10 84//84 11//11
f 68//68 74//74 103//103
f 105//105 107//107 110//110
f 105//105 110//110 44//44
f 103//103 74//74 78//78
f 103//103 78//78 104//104
f 50//50 78//78 56//56
f 50//50 44//44 78//78
f 71//71 106//106 90//90
f 107//107 109//109 111//111
f 107//107 111//111 110//110
f 108//108 85//85 86//86
f 108//108 86//86 14//14
f 108//108 36//36 85//85
f 14//14 86//86 15//15
f 109//109 11//11 112//112
f 109//109 113//113 111//111
f 109//109 112//112 113//113
f 11//11 84//84 112//112
f 15//15 86//86 16//16
f 77//77 76//76 114//114
f 77//77 114//114 56//56
f 77//77 56//56 78//78
f 110//110 111//111 63//63
f 110//110 63//63 104//104
f 110//110 104//104 44//44
f 78//78 44//44 104//104
f 90//90 106//106 115//115
f 90//90 115//115 92//92
f 111//111 113//113 64//64
f 111//111 64//64 63//63
f 85//85 36//36 82//82
f 86//86 87//87 16//16
f 113//113 112//112 116//116
f 113//113 117//117 64//64
f 113//113 116//116 117//117
f 112//112 84//84 116//116
f 16//16 87//87 84//84
f 76//76 95//95 114//114
f 114//114 95//95 118//118
f 114//114 118//118 57//57
f 114//114 57//57 56//56
f 93//93 92//92 119//119
f 93//93 119//119 94//94
f 92//92 115//115 119//119
f 64//64 117//117 106//106
f 29//29 58//58 118//118
f 29//29 118//118 120//120
f 29//29 121//121 30//30
f 29//29 120//120 121//121
f 30//30 121//121 36//36
f 82//82 36//36 122//122
f 82//82 122//122 83//83
f 123//123 124//124 125//125
f 123//123 126//126 127//127
f 123//123 128//128 126//126
f 123//123 127//127 124//124
f 123//123 125//125 128//128
f 129//129 83//83 126//126
f 129//129 116//116 83//83
f 129//129 126//126 128//128
f 129//129 128//128 130//130
f 129//129 130//130 116//116
f 83//83 116//116 84//84
f 83//83 122//122 126//126
f 58//58 57//57 118//118
f 117//117 116//116 130//130
f 117//117 131//131 106//106
f 117//117 130//130 131//131
f 95//95 94//94 132//132
f 95//95 133//133 118//118
f 95//95 132//132 133//133
f 118//118 133//133 120//120
f 94//94 124//124 132//132
f 94//94 119//119 134//134
f 94//94 134//134 124//124
f 124//124 134//134 125//125
f 124//124 127//127 132//132
f 119//119 115//115 134//134
f 106//106 131//131 115//115
f 135//135 36//36 136//136
f 135//135 126//126 122//122
f 135//135 122//122 36//36
f 135//135 137//137 126//126
f 135//135 136//136 137//137
f 121//121 120//120 136//136
f 121//121 136//136 36//36
f 126//126 137//137 127//127
f 128//128 125//125 130//130
f 131//131 130//130 138//138
f 131//131 138//138 115//115
f 130//130 125//125 138//138
f 133//133 137//137 120//120
f 133//133 132//132 137//137
f 137//137 136//136 120//120
f 137//137 132//132 127//127
f 134//134 115//115 138//138
f 134//134 138//138 125//125
# 272 faces, 0 coords texture

# End of File
