####
#
# OBJ File Generated by Meshlab
#
####
# Object matlab_mesh_slc_step12_link7.obj
#
# Vertices: 127
# Faces: 250
#
####
vn -0.350378 -5.076315 -3.669503
v 0.570222 0.615655 0.835757
vn 0.086104 -3.103824 -4.864421
v 0.570754 0.616925 0.834009
vn 0.008033 -5.183825 -3.537971
v 0.572134 0.615352 0.836119
vn -1.368605 -4.536845 -3.593383
v 0.554376 0.606293 0.850647
vn -1.592514 -4.191620 -4.183559
v 0.554410 0.606318 0.850608
vn -4.059744 -4.700424 -0.948965
v 0.475628 0.653495 0.862227
vn -4.014441 -4.777222 -0.248521
v 0.475327 0.653192 0.865122
vn -4.495418 -2.052122 -1.985170
v 0.466997 0.661658 0.858864
vn -3.423065 -4.744339 -1.857862
v 0.476336 0.652924 0.862036
vn -3.608551 -5.042395 -0.301649
v 0.476035 0.652621 0.864932
vn -4.251194 -4.568869 -0.270317
v 0.472807 0.655398 0.865122
vn -4.641153 -4.108363 0.215211
v 0.466997 0.661658 0.886812
vn -2.388700 -1.673561 2.624898
v 0.476532 0.661509 0.990177
vn -3.584127 -2.241711 -3.275960
v 0.467009 0.661651 0.858852
vn -1.502345 -4.945715 -2.819801
v 0.554350 0.606276 0.850682
vn -1.631150 -5.328406 -1.585365
v 0.554334 0.606266 0.850714
vn -1.720973 -5.694226 -0.432091
v 0.554326 0.606264 0.850743
vn -3.266144 -5.199801 1.080492
v 0.476548 0.661499 0.990174
vn -1.705269 -5.812946 0.083048
v 0.554326 0.606264 0.878675
vn -1.384163 -3.239238 3.153983
v 0.563858 0.606100 0.982032
vn 1.032625 0.077378 -6.011651
v 0.584700 0.656560 0.827624
vn 0.512794 0.147087 -6.024761
v 0.584208 0.656722 0.827552
vn 1.371851 1.555335 -5.931019
v 0.586121 0.656419 0.827914
vn 1.736083 -0.073907 -5.703027
v 0.586613 0.656257 0.827986
vn 0.863296 -3.099782 -4.763094
v 0.572666 0.616622 0.834371
vn -0.860110 -2.614442 -5.001193
v 0.570262 0.617086 0.833937
vn -0.798882 1.030312 -5.992925
v 0.580981 0.659498 0.827743
vn -0.103010 0.820569 -5.841080
v 0.581689 0.658928 0.827552
vn -2.061723 -0.905874 -5.746726
v 0.467052 0.661648 0.858831
vn -1.428749 0.581547 -6.090639
v 0.489639 0.743671 0.856731
vn -1.430318 0.714606 -6.071065
v 0.489616 0.743792 0.856748
vn -1.438114 0.882137 -6.035150
v 0.489598 0.743900 0.856766
vn -1.453375 1.112951 -5.961407
v 0.489583 0.743993 0.856784
vn -1.483986 1.421011 -5.818610
v 0.489573 0.744072 0.856802
vn -1.924140 0.087350 -5.964597
v 0.467052 0.708072 0.858831
vn -2.336145 0.233184 -5.731580
v 0.467027 0.708160 0.858840
vn -1.610087 1.839322 -5.513208
v 0.489567 0.744136 0.856820
vn 0.033753 2.113631 -5.916041
v 0.539371 0.744136 0.856820
vn -1.677250 -1.545326 -5.641189
v 0.567742 0.619292 0.833937
vn 1.398097 1.756946 -5.864701
v 0.583601 0.658625 0.827914
vn 1.698014 1.588207 -5.764125
v 0.625494 0.687848 0.847881
vn 1.951457 1.241832 -5.630840
v 0.625669 0.687981 0.847969
vn 0.218061 2.465194 -5.749117
v 0.539425 0.744186 0.856838
vn 0.532986 3.214738 -5.216523
v 0.539464 0.744222 0.856857
vn -2.768864 -1.933767 -4.675223
v 0.467027 0.661648 0.858840
vn 1.616848 -3.642395 -4.269786
v 0.604140 0.606318 0.850608
vn 1.727742 -3.930250 -3.719076
v 0.604180 0.606293 0.850647
vn 1.443284 1.721989 -5.865021
v 0.584093 0.658463 0.827986
vn 2.859148 -0.037722 -5.594620
v 0.625669 0.642919 0.847969
vn 2.851800 -0.148864 -5.593515
v 0.625831 0.642808 0.848052
vn 2.843693 -0.283678 -5.584775
v 0.625981 0.642705 0.848132
vn 2.826682 -0.452305 -5.566173
v 0.626118 0.642610 0.848207
vn 2.795605 -0.667593 -5.528829
v 0.626243 0.642525 0.848278
vn 2.785162 -0.853758 -5.471169
v 0.626356 0.642448 0.848345
vn 2.877417 -0.895097 -5.402671
v 0.626456 0.642380 0.848408
vn 2.293810 -1.773608 -5.574125
v 0.603879 0.606494 0.850424
vn 2.181768 -2.150513 -5.465334
v 0.603960 0.606438 0.850475
vn 2.063269 -2.586359 -5.260738
v 0.604030 0.606390 0.850522
vn 1.854014 -3.128158 -4.871623
v 0.604090 0.606350 0.850567
vn 1.992601 1.259691 -5.603654
v 0.625831 0.688104 0.848052
vn 2.043874 1.285680 -5.569805
v 0.625981 0.688217 0.848132
vn 2.104751 1.316162 -5.528023
v 0.626118 0.688321 0.848207
vn 2.179247 1.354312 -5.474250
v 0.626243 0.688415 0.848278
vn 2.264033 1.397399 -5.412104
v 0.626356 0.688499 0.848345
vn 2.366849 1.451806 -5.328658
v 0.626456 0.688574 0.848408
vn -3.019260 0.328225 -5.186782
v 0.467009 0.708231 0.858852
vn 2.488282 1.515668 -5.227617
v 0.626545 0.688639 0.848466
vn 3.018946 -0.935718 -5.307694
v 0.626545 0.642321 0.848466
vn 2.643801 1.599505 -5.079427
v 0.626621 0.688695 0.848520
vn 3.202040 -0.987872 -5.171128
v 0.626621 0.642271 0.848520
vn 1.031742 4.414468 -3.555028
v 0.539488 0.744244 0.856876
vn 2.845799 1.710196 -4.870124
v 0.626686 0.688741 0.848570
vn 3.442782 -1.058848 -4.975278
v 0.626686 0.642230 0.848570
vn -3.879734 0.519152 -4.135057
v 0.466997 0.708288 0.858864
vn 3.111866 1.863045 -4.538241
v 0.626738 0.688777 0.848615
vn 3.763841 -1.156026 -4.669750
v 0.626738 0.642197 0.848615
vn -1.974342 2.353623 -4.936862
v 0.489565 0.744186 0.856838
vn 3.456329 2.056247 -4.023822
v 0.626778 0.688804 0.848656
vn 4.186185 -1.287560 -4.185344
v 0.626778 0.642174 0.848656
vn -4.507708 0.885466 -2.651116
v 0.466991 0.708329 0.858878
vn 1.976356 -4.204081 -2.982652
v 0.604210 0.606276 0.850682
vn -5.637935 -1.797608 0.310900
v 0.466991 0.661667 0.886822
vn -5.612636 -1.345448 -0.803812
v 0.466991 0.661667 0.858878
vn -2.405152 3.084821 -3.552358
v 0.489568 0.744222 0.856857
vn 3.868720 2.304407 -3.074637
v 0.626806 0.688821 0.848693
vn 4.729129 -1.471507 -3.290814
v 0.626806 0.642159 0.848693
vn 2.276031 -4.393476 -1.783543
v 0.604230 0.606266 0.850714
vn -6.267114 0.077618 0.278585
v 0.466991 0.708329 0.886822
vn -4.030906 1.407754 2.581894
v 0.476529 0.708193 0.990173
vn -5.745561 1.725507 0.277623
v 0.466992 0.708354 0.886825
vn -5.098557 1.856203 -1.451414
v 0.466992 0.708354 0.858894
vn 4.276216 -4.221966 0.367246
v 0.613786 0.606098 0.982009
vn 3.808968 -4.543913 -0.220747
v 0.613786 0.606098 0.954065
vn 4.838814 -1.375732 1.816928
v 0.636363 0.641984 0.980009
vn 1.797560 -3.244858 2.195799
v 0.613780 0.606095 0.982027
vn 1.542789 -5.877156 -0.012982
v 0.613780 0.606095 0.954095
vn -5.378918 -0.422742 2.220740
v 0.476529 0.661524 0.990173
vn 5.927384 1.328155 -0.386921
v 0.636363 0.688653 0.952044
vn 6.010764 -1.148466 -0.395608
v 0.636363 0.641991 0.952044
vn 5.955046 -1.260950 -0.651668
v 0.626827 0.642157 0.848754
vn 4.777919 2.677169 -0.093490
v 0.636363 0.688659 0.952078
vn 5.561273 1.901887 -0.607214
v 0.626827 0.688827 0.848754
vn -2.256655 3.912195 -1.938993
v 0.489574 0.744244 0.856876
vn 1.569617 5.330133 -1.305459
v 0.539497 0.744251 0.856895
vn 4.248365 2.472468 -1.480463
v 0.626822 0.688829 0.848725
vn 5.267978 -1.640357 -1.666430
v 0.626822 0.642154 0.848725
vn 5.750897 -1.738733 -0.145002
v 0.636363 0.641984 0.952078
vn 2.638212 -4.593528 -0.711819
v 0.604240 0.606264 0.850743
vn 0.752765 1.050824 6.003948
v 0.549028 0.744074 0.988160
vn 0.229439 0.119654 6.267090
v 0.526446 0.708185 0.990177
vn 0.571704 -0.002743 6.257107
v 0.549028 0.697399 0.988160
vn -0.807597 1.138954 5.987368
v 0.499115 0.744074 0.988160
vn 2.522119 1.228010 4.653694
v 0.636356 0.688656 0.980017
vn 1.033607 3.514117 2.504572
v 0.549027 0.744080 0.988158
vn -2.214310 0.324271 5.255744
v 0.476532 0.708185 0.990177
vn 0.194254 -0.376749 6.240180
v 0.526446 0.661509 0.990177
vn 3.921232 2.092306 1.563854
v 0.636363 0.688659 0.980009
vn 1.773951 5.769732 -0.074851
v 0.549027 0.744080 0.960248
vn -1.493121 3.036312 2.193590
v 0.499115 0.744080 0.988158
vn -4.339628 4.282868 0.207862
v 0.489574 0.744244 0.884808
vn -1.732149 5.759611 0.076910
v 0.489585 0.744251 0.884805
vn -1.378456 5.643962 -0.715471
v 0.489585 0.744251 0.856895
vn 2.724497 -0.632591 4.932554
v 0.636356 0.641987 0.980017
vn 0.671463 -2.147516 5.239306
v 0.613770 0.606100 0.982032
vn -0.916167 -5.137255 1.817629
v 0.563867 0.606095 0.982027
vn -0.054176 -6.282687 -0.002727
v 0.563867 0.606095 0.954095
vn 0.054544 6.282680 0.002743
v 0.539497 0.744251 0.884805
# 127 vertices, 0 vertices normals

f 1//1 2//2 3//3
f 1//1 3//3 4//4
f 1//1 5//5 2//2
f 1//1 4//4 5//5
f 6//6 7//7 8//8
f 6//6 9//9 10//10
f 6//6 10//10 7//7
f 6//6 8//8 9//9
f 11//11 7//7 12//12
f 11//11 12//12 8//8
f 11//11 8//8 7//7
f 7//7 10//10 13//13
f 7//7 13//13 12//12
f 9//9 14//14 15//15
f 9//9 8//8 14//14
f 9//9 15//15 16//16
f 9//9 16//16 17//17
f 9//9 17//17 10//10
f 10//10 18//18 13//13
f 10//10 19//19 20//20
f 10//10 17//17 19//19
f 10//10 20//20 18//18
f 21//21 2//2 22//22
f 21//21 22//22 23//23
f 21//21 24//24 25//25
f 21//21 25//25 2//2
f 21//21 23//23 24//24
f 2//2 26//26 22//22
f 2//2 25//25 3//3
f 2//2 5//5 26//26
f 27//27 28//28 29//29
f 27//27 30//30 31//31
f 27//27 31//31 32//32
f 27//27 32//32 33//33
f 27//27 33//33 34//34
f 27//27 35//35 36//36
f 27//27 29//29 35//35
f 27//27 34//34 37//37
f 27//27 36//36 30//30
f 27//27 38//38 28//28
f 27//27 37//37 38//38
f 28//28 39//39 29//29
f 28//28 22//22 39//39
f 28//28 40//40 22//22
f 28//28 41//41 40//40
f 28//28 42//42 41//41
f 28//28 38//38 43//43
f 28//28 43//43 44//44
f 28//28 44//44 42//42
f 39//39 22//22 26//26
f 39//39 26//26 45//45
f 39//39 45//45 29//29
f 22//22 40//40 23//23
f 26//26 5//5 45//45
f 3//3 25//25 46//46
f 3//3 46//46 47//47
f 3//3 47//47 4//4
f 48//48 24//24 23//23
f 48//48 40//40 41//41
f 48//48 23//23 40//40
f 48//48 41//41 24//24
f 24//24 41//41 42//42
f 24//24 42//42 49//49
f 24//24 49//49 50//50
f 24//24 50//50 51//51
f 24//24 51//51 52//52
f 24//24 52//52 53//53
f 24//24 53//53 54//54
f 24//24 54//54 25//25
f 25//25 54//54 55//55
f 25//25 56//56 57//57
f 25//25 55//55 56//56
f 25//25 57//57 58//58
f 25//25 58//58 59//59
f 25//25 59//59 46//46
f 42//42 60//60 50//50
f 42//42 50//50 49//49
f 42//42 44//44 60//60
f 60//60 61//61 51//51
f 60//60 51//51 50//50
f 60//60 44//44 61//61
f 61//61 62//62 52//52
f 61//61 52//52 51//51
f 61//61 44//44 62//62
f 62//62 63//63 53//53
f 62//62 53//53 52//52
f 62//62 44//44 63//63
f 63//63 64//64 54//54
f 63//63 54//54 53//53
f 63//63 44//44 64//64
f 64//64 65//65 55//55
f 64//64 55//55 54//54
f 64//64 44//44 65//65
f 30//30 36//36 66//66
f 30//30 66//66 31//31
f 56//56 55//55 57//57
f 65//65 67//67 68//68
f 65//65 68//68 55//55
f 65//65 44//44 67//67
f 31//31 66//66 32//32
f 55//55 68//68 57//57
f 57//57 68//68 58//58
f 67//67 69//69 70//70
f 67//67 70//70 68//68
f 67//67 44//44 71//71
f 67//67 71//71 69//69
f 32//32 66//66 33//33
f 68//68 70//70 58//58
f 58//58 70//70 59//59
f 69//69 72//72 73//73
f 69//69 73//73 70//70
f 69//69 71//71 72//72
f 33//33 66//66 74//74
f 33//33 74//74 34//34
f 35//35 29//29 45//45
f 35//35 45//45 36//36
f 70//70 73//73 59//59
f 59//59 73//73 46//46
f 72//72 75//75 76//76
f 72//72 76//76 73//73
f 72//72 71//71 75//75
f 34//34 74//74 37//37
f 36//36 45//45 14//14
f 36//36 14//14 66//66
f 73//73 76//76 46//46
f 46//46 76//76 47//47
f 45//45 5//5 4//4
f 45//45 4//4 15//15
f 45//45 15//15 14//14
f 38//38 37//37 77//77
f 38//38 77//77 43//43
f 75//75 78//78 79//79
f 75//75 79//79 76//76
f 75//75 71//71 78//78
f 37//37 74//74 80//80
f 37//37 80//80 77//77
f 66//66 14//14 8//8
f 66//66 8//8 74//74
f 76//76 79//79 47//47
f 47//47 79//79 81//81
f 47//47 81//81 15//15
f 47//47 15//15 4//4
f 12//12 82//82 83//83
f 12//12 83//83 8//8
f 12//12 13//13 82//82
f 43//43 77//77 84//84
f 43//43 84//84 44//44
f 78//78 85//85 86//86
f 78//78 86//86 79//79
f 78//78 71//71 85//85
f 77//77 80//80 84//84
f 74//74 8//8 83//83
f 74//74 83//83 80//80
f 79//79 86//86 81//81
f 81//81 86//86 87//87
f 81//81 87//87 16//16
f 81//81 16//16 15//15
f 88//88 82//82 89//89
f 88//88 80//80 82//82
f 88//88 90//90 91//91
f 88//88 91//91 80//80
f 88//88 89//89 90//90
f 92//92 93//93 94//94
f 92//92 94//94 95//95
f 92//92 95//95 96//96
f 92//92 96//96 93//93
f 18//18 20//20 13//13
f 82//82 80//80 83//83
f 82//82 13//13 97//97
f 82//82 97//97 89//89
f 98//98 99//99 100//100
f 98//98 101//101 99//99
f 98//98 102//102 101//101
f 98//98 100//100 102//102
f 44//44 84//84 103//103
f 44//44 103//103 71//71
f 85//85 71//71 104//104
f 85//85 105//105 106//106
f 85//85 106//106 86//86
f 85//85 104//104 105//105
f 84//84 80//80 91//91
f 84//84 91//91 103//103
f 99//99 101//101 107//107
f 99//99 107//107 100//100
f 93//93 107//107 94//94
f 93//93 96//96 108//108
f 93//93 106//106 107//107
f 93//93 108//108 106//106
f 86//86 106//106 87//87
f 87//87 106//106 108//108
f 87//87 108//108 17//17
f 87//87 17//17 16//16
f 109//109 110//110 111//111
f 109//109 112//112 110//110
f 109//109 111//111 113//113
f 109//109 114//114 112//112
f 109//109 113//113 114//114
f 110//110 112//112 115//115
f 110//110 115//115 116//116
f 110//110 116//116 111//111
f 117//117 94//94 101//101
f 117//117 101//101 118//118
f 117//117 114//114 113//113
f 117//117 113//113 94//94
f 117//117 118//118 114//114
f 112//112 114//114 119//119
f 112//112 119//119 115//115
f 115//115 13//13 116//116
f 115//115 119//119 89//89
f 115//115 89//89 97//97
f 115//115 97//97 13//13
f 120//120 90//90 89//89
f 120//120 103//103 91//91
f 120//120 91//91 90//90
f 120//120 119//119 121//121
f 120//120 89//89 119//119
f 120//120 121//121 122//122
f 120//120 122//122 103//103
f 111//111 116//116 123//123
f 111//111 123//123 113//113
f 116//116 13//13 20//20
f 116//116 124//124 123//123
f 116//116 20//20 124//124
f 94//94 107//107 101//101
f 94//94 113//113 123//123
f 94//94 123//123 95//95
f 95//95 125//125 96//96
f 95//95 123//123 124//124
f 95//95 124//124 125//125
f 125//125 19//19 126//126
f 125//125 126//126 96//96
f 125//125 124//124 20//20
f 125//125 20//20 19//19
f 19//19 17//17 126//126
f 101//101 105//105 104//104
f 101//101 104//104 118//118
f 101//101 102//102 105//105
f 71//71 103//103 122//122
f 71//71 122//122 104//104
f 105//105 102//102 100//100
f 105//105 100//100 106//106
f 107//107 106//106 100//100
f 96//96 126//126 108//108
f 108//108 126//126 17//17
f 114//114 127//127 119//119
f 114//114 118//118 127//127
f 127//127 121//121 119//119
f 127//127 118//118 104//104
f 127//127 104//104 121//121
f 121//121 104//104 122//122
# 250 faces, 0 coords texture

# End of File
