####
#
# OBJ File Generated by Meshlab
#
####
# Object matlab_mesh_step22_link4.obj
#
# Vertices: 194
# Faces: 384
#
####
vn 0.004549 -6.158145 0.007152
v 0.157095 0.368989 0.869583
vn 2.144486 -4.777767 -0.396628
v 0.158265 0.368997 0.868871
vn 2.859826 -4.728334 0.493322
v 0.161666 0.372263 0.886283
vn 0.639356 -5.409476 2.266551
v 0.058203 0.370806 0.926578
vn -0.416076 -6.122805 0.058594
v 0.039860 0.370592 0.927750
vn -0.869165 -6.132436 -1.011091
v 0.039278 0.372089 0.918930
vn 2.258606 -4.697725 -1.013066
v 0.158359 0.369310 0.867343
vn -0.898443 -6.083600 -1.230744
v 0.040306 0.376703 0.892632
vn 5.277168 -3.384867 -0.409003
v 0.162691 0.376862 0.860080
vn 2.712061 -5.202389 -1.983176
v 0.162482 0.380058 0.844384
vn 4.114424 -3.498369 -1.597259
v 0.162489 0.380070 0.844364
vn 5.472859 -2.580225 -0.595001
v 0.163074 0.378567 0.853219
vn 5.638428 -2.488895 -0.288803
v 0.162697 0.376874 0.860056
vn -0.709488 -5.676395 -2.419703
v 0.099648 0.412147 0.732379
vn -0.328377 -3.914715 -3.882002
v 0.099670 0.412150 0.732367
vn 0.807165 -5.633943 -2.342977
v 0.117996 0.412360 0.731204
vn -0.959896 -5.743538 -2.182161
v -0.003805 0.410674 0.772626
vn -0.951064 -6.055120 -1.353202
v -0.002993 0.408115 0.782504
vn -0.966951 -6.029250 -1.438049
v -0.004183 0.408978 0.779477
vn 5.121771 3.307418 -1.096788
v 0.209021 0.575492 0.921961
vn 4.934764 1.399788 -0.348216
v 0.209500 0.575005 0.922743
vn 4.461521 2.657421 -1.829441
v 0.135681 0.639730 0.787218
vn 4.634492 4.167515 -0.162179
v 0.180260 0.607370 0.900412
vn 3.065650 -0.886684 5.351105
v 0.118653 0.582824 0.977645
vn 3.106986 -0.820438 5.325336
v 0.208038 0.574715 0.925104
vn 3.509363 2.330030 3.369162
v 0.179404 0.599617 0.942277
vn 1.721661 0.504553 5.172822
v 0.118295 0.582857 0.977856
vn 3.204003 -2.710753 2.995961
v 0.161670 0.372275 0.886312
vn 3.157699 -0.967289 5.283312
v 0.208236 0.574685 0.924983
vn 3.278075 -0.032532 5.358375
v 0.209208 0.574723 0.924392
vn 1.854337 3.443474 4.917431
v 0.072484 0.598630 0.984112
vn 1.586333 2.875898 5.208681
v 0.072403 0.598652 0.984128
vn 0.944508 1.859751 4.984466
v 0.072332 0.598669 0.984139
vn 0.447378 -1.309396 6.121939
v 0.072337 0.581816 0.981279
vn 0.467776 -3.634386 4.207018
v 0.054558 0.371307 0.928155
vn 3.132598 2.965904 3.390473
v 0.179367 0.599642 0.942294
vn 1.294432 -3.071008 4.959412
v 0.054576 0.371309 0.928152
vn 1.685303 -3.636528 4.333113
v 0.058216 0.370809 0.926578
vn 2.584336 2.095222 5.327903
v 0.175726 0.600142 0.943869
vn 2.184925 3.666067 4.137558
v 0.175690 0.600160 0.943879
vn 3.947762 0.563442 2.113671
v 0.209406 0.574693 0.924271
vn 3.265417 -3.494460 1.216454
v 0.161670 0.372269 0.886302
vn 4.344502 4.448248 0.900753
v 0.180890 0.605811 0.909336
vn 4.273334 4.452811 1.145588
v 0.179822 0.601272 0.935439
vn 4.294107 4.511261 0.730446
v 0.180846 0.605863 0.909289
vn 5.535854 1.295013 -2.485354
v 0.135703 0.639707 0.787253
vn 6.071793 -1.469061 -0.613008
v 0.163074 0.378581 0.853190
vn 5.442652 0.429020 -3.088395
v 0.135691 0.622861 0.784354
vn 5.204474 -1.992689 -1.946292
v 0.162491 0.380081 0.844352
vn 1.696681 -1.538920 -3.110513
v 0.117998 0.412365 0.731194
vn 4.168928 3.036255 2.885535
v 0.179446 0.599585 0.942251
vn 4.059754 4.711092 0.748903
v 0.180806 0.605907 0.909248
vn 4.451375 4.341757 -0.117015
v 0.180221 0.607412 0.900378
vn 4.016153 4.669717 1.181520
v 0.179781 0.601307 0.935451
vn 1.515167 4.909108 3.055219
v 0.175659 0.600170 0.943883
vn 0.334367 -1.293983 6.131305
v 0.053969 0.581611 0.982457
vn 0.366912 -0.661387 6.222085
v 0.053964 0.598464 0.985317
vn 0.180513 0.308904 6.084246
v 0.053911 0.598473 0.985321
vn 0.009772 -1.318771 6.125713
v 0.053920 0.581604 0.982457
vn -0.490202 -3.722979 2.639012
v 0.036209 0.371093 0.929329
vn 0.753368 2.447034 4.615263
v 0.072272 0.598683 0.984145
vn 3.950776 4.809290 0.115526
v 0.180186 0.607444 0.900356
vn 3.607494 5.044060 0.807971
v 0.180770 0.605941 0.909212
vn 3.544934 5.013060 1.231759
v 0.179744 0.601335 0.935457
vn 4.099040 4.733658 -0.261569
v 0.136870 0.638868 0.790238
vn -0.274682 -1.269114 6.142404
v 0.020696 0.588261 0.982457
vn 0.050768 0.909188 5.880440
v 0.020686 0.605130 0.985321
vn -0.166536 1.985494 4.851395
v 0.020609 0.605141 0.985320
vn -0.561004 -1.269519 6.111525
v 0.020622 0.588264 0.982454
vn -0.801517 -3.408724 4.497862
v 0.002944 0.377756 0.929329
vn 1.168698 -5.472308 2.803553
v 0.155043 0.372175 0.888882
vn 1.435199 -5.001957 3.505318
v 0.155034 0.372181 0.888895
vn 0.660743 3.725526 4.306437
v 0.039048 0.605340 0.984145
vn 0.481172 4.034440 3.806750
v 0.038958 0.605355 0.984145
vn 2.980349 5.426676 0.483272
v 0.180156 0.607466 0.900343
vn 2.726085 5.524091 0.893651
v 0.180739 0.605966 0.909181
vn 2.643434 5.491196 1.289527
v 0.179712 0.601355 0.935458
vn 2.512854 3.842464 3.241401
v 0.179335 0.599660 0.942303
vn 0.464340 6.088879 1.476771
v -0.005080 0.639319 0.864170
vn 0.465237 6.073191 1.541476
v -0.005457 0.637626 0.871006
vn 0.928458 5.752027 2.160768
v 0.142367 0.606837 0.943883
vn 0.236257 6.125477 1.335350
v -0.005159 0.639329 0.864152
vn 0.207315 6.071601 1.584251
v -0.005537 0.637634 0.870997
vn 0.678962 6.104575 1.246721
v 0.098257 0.640808 0.823877
vn 0.509716 6.072291 1.531631
v 0.141177 0.607700 0.940856
vn 0.509683 6.072299 1.531611
v 0.097879 0.639112 0.830728
vn 0.291623 5.170754 3.041740
v 0.038892 0.605362 0.984142
vn 0.542408 6.046906 1.615676
v 0.045533 0.605457 0.981558
vn 4.838569 0.619494 -3.884417
v 0.135674 0.622868 0.784329
vn 2.806148 3.148071 -1.765757
v 0.135661 0.639745 0.787194
vn 3.014339 5.457827 0.371716
v 0.136851 0.638882 0.790219
vn -1.108211 2.125197 3.535011
v 0.020564 0.605146 0.985315
vn -2.161665 -1.088149 5.583619
v 0.020579 0.588270 0.982449
vn -2.049516 -2.617969 2.001639
v 0.002920 0.377760 0.929327
vn -0.466541 -5.957390 0.683256
v 0.039855 0.370593 0.927753
vn -1.202824 -6.109966 -0.834594
v 0.036212 0.371093 0.929327
vn -1.059076 -6.098144 -1.059053
v 0.039271 0.372093 0.918915
vn -1.228347 -6.092120 -0.924235
v 0.006568 0.377259 0.927750
vn -0.138491 6.187986 1.070877
v -0.022480 0.643726 0.839050
vn -0.153669 6.131147 1.320832
v -0.023508 0.639115 0.865327
vn 0.048627 6.148200 1.272707
v -0.005219 0.639333 0.864137
vn -0.103896 6.212936 0.891717
v -0.023064 0.645226 0.830212
vn -1.281121 5.676574 -0.378480
v -0.023101 0.645228 0.830191
vn -0.306741 6.183634 1.070579
v -0.022519 0.643731 0.839012
vn -1.439187 5.843678 1.211350
v -0.023546 0.639117 0.865310
vn 0.054101 6.191957 1.063079
v -0.004191 0.643947 0.837838
vn 0.012777 6.235009 0.566121
v -0.004773 0.645444 0.829018
vn -0.247963 6.036651 1.682574
v -0.023885 0.637421 0.872172
vn 0.027913 6.096005 1.521910
v -0.005596 0.637637 0.870987
vn -2.213807 5.060621 1.997102
v -0.023924 0.637421 0.872160
vn -1.011606 5.802107 2.052685
v 0.019374 0.606009 0.982288
vn 2.152228 5.843662 0.830580
v 0.180131 0.607476 0.900337
vn 1.870006 5.902809 0.996287
v 0.180713 0.605979 0.909157
vn 1.731840 5.876050 1.304996
v 0.179685 0.601365 0.935455
vn 1.839985 5.524863 2.175861
v 0.179307 0.599669 0.942305
vn 1.115488 6.091878 1.046838
v 0.099335 0.645409 0.797609
vn 1.256859 6.064643 1.053390
v 0.132600 0.638745 0.797609
vn 1.231514 6.084143 0.971604
v 0.132576 0.638755 0.797579
vn 1.099716 6.063545 1.212658
v 0.098307 0.640798 0.823886
vn 1.262345 6.041188 1.173755
v 0.131573 0.634135 0.823886
vn 1.142822 6.117585 0.847951
v 0.098751 0.646909 0.788771
vn 0.385426 6.040734 -0.350425
v 0.098702 0.646919 0.788759
vn 0.691834 6.146082 1.033870
v 0.099284 0.645422 0.797579
vn 1.228489 6.092072 0.924368
v 0.131994 0.640252 0.788759
vn 1.410140 6.016347 1.131080
v 0.135218 0.633634 0.822309
vn 1.656238 5.968732 0.956152
v 0.136245 0.638245 0.796032
vn 1.280411 6.076293 0.956971
v 0.136225 0.638254 0.796002
vn 0.901938 6.033794 1.444532
v 0.142745 0.608533 0.937032
vn 1.323655 5.974783 1.400408
v 0.176037 0.601866 0.937032
vn 0.670771 6.069983 1.467572
v 0.141555 0.609396 0.934005
vn 0.217105 6.185626 1.072845
v -0.004132 0.643940 0.837875
vn 0.213677 6.207345 0.933153
v -0.004716 0.645440 0.829037
vn 1.482751 3.119417 -2.457796
v 0.135642 0.639751 0.787182
vn -1.194979 -1.970741 -4.451791
v 0.066378 0.418817 0.732367
vn -1.781089 -4.414557 -3.280136
v -0.037097 0.417342 0.772626
vn -1.576559 -3.934107 -4.196299
v 0.059737 0.418722 0.734951
vn -1.252208 -6.067375 -1.042029
v 0.005986 0.378756 0.918930
vn -1.262112 -6.041234 -1.173757
v 0.007013 0.383370 0.892632
vn 1.217686 6.125628 0.638844
v 0.102396 0.646408 0.787194
vn 0.592948 3.805191 -2.695325
v 0.102350 0.646418 0.787182
vn 0.071549 6.256850 0.413159
v 0.001868 0.645539 0.826434
vn 2.225602 1.014565 -5.310024
v 0.117983 0.429242 0.734059
vn -3.100180 1.913539 2.955402
v 0.020549 0.605145 0.985305
vn -3.950533 -0.839670 4.785616
v 0.020566 0.588278 0.982441
vn -3.905221 -3.884612 0.427372
v 0.001730 0.378623 0.926300
vn -1.797093 -5.931511 -0.985282
v 0.001148 0.380121 0.917480
vn -4.752472 -0.641542 4.011901
v 0.002904 0.394636 0.932193
vn -5.499004 -0.392661 2.887946
v 0.002899 0.394635 0.932184
vn -1.647087 -5.971720 -0.949415
v 0.002338 0.379257 0.920507
vn -5.671583 -1.069207 2.258051
v 0.002915 0.377767 0.929320
vn -4.058834 -2.813202 0.350275
v -0.041568 0.410035 0.816172
vn -6.003254 -0.078677 1.732013
v -0.041584 0.426911 0.819038
vn -6.193002 0.044490 0.860477
v -0.041586 0.426908 0.819026
vn -3.899339 -2.945017 -0.556250
v -0.042151 0.411532 0.807352
vn -6.222988 -0.531544 0.405881
v -0.041570 0.410040 0.816162
vn -6.232841 -0.504631 0.229743
v -0.042150 0.411534 0.807363
vn -1.553314 5.869642 1.012810
v -0.024129 0.640614 0.856489
vn -4.361930 3.495527 0.527989
v -0.024139 0.640608 0.856495
vn -2.977166 5.401237 1.125593
v -0.023558 0.639115 0.865294
vn -4.349992 2.531567 1.386395
v -0.023936 0.637418 0.872147
vn -4.960361 1.928968 2.500173
v 0.019359 0.606009 0.982277
vn -3.436875 -2.499236 -1.725783
v -0.040745 0.417842 0.774204
vn -3.777452 -2.968270 -0.794882
v -0.041123 0.416146 0.781054
vn -4.179719 0.809540 -2.933556
v -0.040761 0.434714 0.777065
vn -3.691584 -0.570774 -3.363386
v -0.040745 0.417846 0.774201
vn -2.184197 -1.171949 -5.325546
v -0.037095 0.417345 0.772623
vn -0.179943 -0.309893 -6.085234
v 0.084706 0.419033 0.731194
vn -1.540956 1.330941 -5.867545
v 0.066363 0.435693 0.735233
vn -0.653014 1.270406 -6.101019
v 0.066368 0.435691 0.735231
vn -0.600638 0.860987 -6.181828
v 0.066385 0.418823 0.732367
vn -2.267288 1.279562 -5.708219
v -0.037111 0.434213 0.775487
vn -1.323644 -5.974786 -1.400402
v -0.037475 0.415645 0.779477
vn -1.410047 -6.016378 -1.131010
v 0.003365 0.383871 0.894209
vn -1.431784 -6.007860 -1.150687
v 0.002175 0.384735 0.891182
vn -0.760217 -6.039911 -1.423864
v 0.005823 0.384234 0.889605
vn -0.690742 -6.047902 -1.453459
v -0.036285 0.414782 0.782504
vn -6.264777 0.299814 -0.232386
v -0.041139 0.433017 0.783918
vn -6.255884 0.232034 0.116055
v -0.042167 0.428401 0.810227
vn -0.024203 1.310559 -6.126437
v 0.084691 0.435909 0.734059
vn -0.356223 0.862036 -6.208530
v 0.084686 0.419040 0.731196
vn -0.498909 6.053161 -1.060442
v -0.016460 0.645323 0.827607
vn -0.218757 6.026871 -1.200539
v 0.080374 0.646703 0.789932
vn -1.346978 3.846882 -3.569346
v 0.080369 0.646702 0.789930
vn -0.106304 6.049609 -1.079800
v 0.098670 0.646919 0.788759
vn -0.233688 5.779707 -2.451072
v 0.084022 0.646202 0.788355
vn -1.636382 3.641820 -4.072707
v -0.016467 0.645319 0.827601
vn -2.883907 2.461774 -1.654666
v -0.023111 0.645224 0.830186
vn -0.831158 3.392457 -4.233733
v 0.084018 0.646201 0.788352
vn -0.090237 3.686560 -4.023418
v 0.102320 0.646418 0.787181
vn -2.221675 1.612803 -5.651676
v -0.019461 0.644723 0.828608
vn -2.221670 1.612723 -5.651701
v -0.012817 0.644818 0.826024
vn -0.352042 1.302168 -6.129256
v 0.084669 0.435908 0.734060
vn -4.807026 2.741447 0.619234
v -0.024517 0.638912 0.863348
vn -6.194714 0.958022 -0.088719
v -0.023489 0.643527 0.837039
# 194 vertices, 0 vertices normals

f 1//1 2//2 3//3
f 1//1 3//3 4//4
f 1//1 4//4 5//5
f 1//1 5//5 6//6
f 1//1 6//6 2//2
f 7//7 2//2 8//8
f 7//7 9//9 3//3
f 7//7 3//3 2//2
f 7//7 10//10 11//11
f 7//7 12//12 13//13
f 7//7 13//13 9//9
f 7//7 11//11 12//12
f 7//7 14//14 15//15
f 7//7 16//16 10//10
f 7//7 15//15 16//16
f 7//7 17//17 14//14
f 7//7 18//18 19//19
f 7//7 8//8 18//18
f 7//7 19//19 17//17
f 2//2 6//6 8//8
f 20//20 21//21 22//22
f 20//20 23//23 21//21
f 20//20 22//22 23//23
f 24//24 25//25 26//26
f 24//24 27//27 28//28
f 24//24 26//26 27//27
f 24//24 28//28 25//25
f 25//25 29//29 30//30
f 25//25 30//30 26//26
f 25//25 28//28 29//29
f 27//27 31//31 32//32
f 27//27 32//32 33//33
f 27//27 34//34 35//35
f 27//27 33//33 34//34
f 27//27 26//26 36//36
f 27//27 37//37 38//38
f 27//27 38//38 28//28
f 27//27 39//39 40//40
f 27//27 36//36 39//39
f 27//27 35//35 37//37
f 27//27 40//40 31//31
f 29//29 41//41 30//30
f 29//29 28//28 41//41
f 21//21 41//41 42//42
f 21//21 43//43 44//44
f 21//21 23//23 45//45
f 21//21 45//45 43//43
f 21//21 44//44 41//41
f 21//21 46//46 22//22
f 21//21 12//12 47//47
f 21//21 13//13 12//12
f 21//21 42//42 13//13
f 21//21 48//48 46//46
f 21//21 47//47 49//49
f 21//21 49//49 50//50
f 21//21 50//50 48//48
f 30//30 41//41 26//26
f 41//41 44//44 51//51
f 41//41 51//51 26//26
f 41//41 28//28 42//42
f 43//43 45//45 44//44
f 31//31 40//40 32//32
f 23//23 52//52 45//45
f 23//23 53//53 52//52
f 23//23 22//22 53//53
f 45//45 52//52 54//54
f 45//45 54//54 44//44
f 44//44 54//54 26//26
f 44//44 26//26 51//51
f 32//32 40//40 55//55
f 32//32 55//55 33//33
f 56//56 34//34 57//57
f 56//56 57//57 58//58
f 56//56 59//59 60//60
f 56//56 58//58 59//59
f 56//56 60//60 34//34
f 34//34 33//33 57//57
f 34//34 60//60 35//35
f 9//9 13//13 42//42
f 9//9 42//42 3//3
f 3//3 42//42 4//4
f 57//57 33//33 61//61
f 57//57 61//61 58//58
f 52//52 53//53 62//62
f 52//52 63//63 64//64
f 52//52 64//64 54//54
f 52//52 62//62 63//63
f 54//54 64//64 36//36
f 54//54 36//36 26//26
f 33//33 55//55 61//61
f 10//10 16//16 50//50
f 10//10 50//50 11//11
f 53//53 65//65 62//62
f 53//53 22//22 65//65
f 46//46 48//48 22//22
f 66//66 59//59 58//58
f 66//66 67//67 68//68
f 66//66 58//58 67//67
f 66//66 69//69 70//70
f 66//66 70//70 59//59
f 66//66 68//68 69//69
f 59//59 70//70 60//60
f 12//12 11//11 47//47
f 37//37 35//35 4//4
f 37//37 4//4 38//38
f 42//42 71//71 4//4
f 42//42 28//28 71//71
f 38//38 71//71 72//72
f 38//38 4//4 71//71
f 38//38 72//72 28//28
f 71//71 28//28 72//72
f 67//67 58//58 73//73
f 67//67 73//73 74//74
f 67//67 74//74 68//68
f 58//58 61//61 73//73
f 63//63 62//62 75//75
f 63//63 76//76 77//77
f 63//63 77//77 64//64
f 63//63 75//75 76//76
f 64//64 77//77 78//78
f 64//64 78//78 36//36
f 79//79 80//80 81//81
f 79//79 82//82 83//83
f 79//79 83//83 80//80
f 79//79 84//84 82//82
f 79//79 81//81 85//85
f 79//79 86//86 84//84
f 79//79 85//85 86//86
f 39//39 36//36 78//78
f 39//39 78//78 40//40
f 73//73 61//61 55//55
f 73//73 81//81 74//74
f 73//73 55//55 81//81
f 80//80 83//83 87//87
f 80//80 88//88 81//81
f 80//80 87//87 88//88
f 11//11 49//49 47//47
f 11//11 50//50 49//49
f 48//48 89//89 22//22
f 48//48 50//50 89//89
f 65//65 22//22 90//90
f 65//65 90//90 62//62
f 62//62 91//91 75//75
f 62//62 90//90 91//91
f 22//22 89//89 90//90
f 69//69 68//68 92//92
f 69//69 93//93 94//94
f 69//69 94//94 70//70
f 69//69 92//92 93//93
f 70//70 94//94 60//60
f 60//60 95//95 35//35
f 60//60 94//94 96//96
f 60//60 96//96 95//95
f 95//95 4//4 35//35
f 95//95 97//97 5//5
f 95//95 94//94 98//98
f 95//95 96//96 94//94
f 95//95 98//98 97//97
f 95//95 5//5 4//4
f 99//99 100//100 101//101
f 99//99 102//102 103//103
f 99//99 104//104 105//105
f 99//99 105//105 100//100
f 99//99 106//106 107//107
f 99//99 101//101 106//106
f 99//99 103//103 104//104
f 99//99 107//107 102//102
f 100//100 108//108 109//109
f 100//100 82//82 101//101
f 100//100 105//105 110//110
f 100//100 110//110 108//108
f 100//100 109//109 82//82
f 68//68 74//74 87//87
f 68//68 87//87 92//92
f 108//108 83//83 109//109
f 108//108 92//92 87//87
f 108//108 110//110 111//111
f 108//108 111//111 92//92
f 108//108 87//87 83//83
f 76//76 75//75 112//112
f 76//76 113//113 114//114
f 76//76 114//114 77//77
f 76//76 112//112 113//113
f 77//77 114//114 115//115
f 77//77 115//115 78//78
f 116//116 117//117 118//118
f 116//116 119//119 120//120
f 116//116 120//120 117//117
f 116//116 121//121 122//122
f 116//116 123//123 84//84
f 116//116 118//118 124//124
f 116//116 84//84 119//119
f 116//116 122//122 123//123
f 116//116 124//124 121//121
f 117//117 120//120 125//125
f 117//117 126//126 127//127
f 117//117 125//125 126//126
f 117//117 127//127 118//118
f 119//119 128//128 129//129
f 119//119 129//129 120//120
f 119//119 84//84 130//130
f 119//119 130//130 128//128
f 120//120 129//129 114//114
f 120//120 114//114 125//125
f 131//131 82//82 84//84
f 131//131 132//132 107//107
f 131//131 123//123 122//122
f 131//131 84//84 123//123
f 131//131 106//106 101//101
f 131//131 101//101 82//82
f 131//131 122//122 132//132
f 131//131 107//107 106//106
f 82//82 109//109 83//83
f 126//126 125//125 114//114
f 126//126 90//90 133//133
f 126//126 113//113 112//112
f 126//126 114//114 113//113
f 126//126 112//112 90//90
f 126//126 133//133 127//127
f 40//40 78//78 115//115
f 40//40 115//115 55//55
f 74//74 88//88 87//87
f 74//74 81//81 88//88
f 14//14 134//134 15//15
f 14//14 135//135 136//136
f 14//14 17//17 135//135
f 14//14 136//136 134//134
f 97//97 98//98 137//137
f 97//97 138//138 8//8
f 97//97 8//8 6//6
f 97//97 137//137 138//138
f 97//97 6//6 5//5
f 89//89 50//50 90//90
f 16//16 15//15 50//50
f 102//102 107//107 103//103
f 91//91 90//90 112//112
f 91//91 112//112 75//75
f 121//121 139//139 140//140
f 121//121 124//124 133//133
f 121//121 140//140 122//122
f 121//121 133//133 139//139
f 132//132 141//141 107//107
f 132//132 122//122 141//141
f 139//139 133//133 140//140
f 90//90 50//50 142//142
f 90//90 142//142 133//133
f 93//93 92//92 143//143
f 93//93 144//144 94//94
f 93//93 143//143 144//144
f 94//94 145//145 146//146
f 94//94 147//147 148//148
f 94//94 149//149 137//137
f 94//94 137//137 98//98
f 94//94 146//146 149//149
f 94//94 144//144 143//143
f 94//94 150//150 145//145
f 94//94 143//143 147//147
f 94//94 148//148 150//150
f 151//151 145//145 150//150
f 151//151 152//152 153//153
f 151//151 154//154 145//145
f 151//151 150//150 148//148
f 151//151 155//155 156//156
f 151//151 148//148 152//152
f 151//151 153//153 155//155
f 151//151 156//156 154//154
f 145//145 154//154 146//146
f 104//104 103//103 157//157
f 104//104 157//157 105//105
f 105//105 157//157 158//158
f 105//105 159//159 160//160
f 105//105 160//160 110//110
f 105//105 158//158 159//159
f 92//92 111//111 143//143
f 147//147 143//143 148//148
f 110//110 143//143 111//111
f 110//110 160//160 161//161
f 110//110 161//161 143//143
f 152//152 143//143 161//161
f 152//152 148//148 143//143
f 152//152 160//160 153//153
f 152//152 161//161 160//160
f 128//128 130//130 85//85
f 128//128 81//81 55//55
f 128//128 55//55 129//129
f 128//128 85//85 81//81
f 129//129 55//55 115//115
f 129//129 115//115 114//114
f 118//118 127//127 124//124
f 84//84 86//86 130//130
f 130//130 86//86 85//85
f 127//127 133//133 124//124
f 162//162 135//135 163//163
f 162//162 163//163 164//164
f 162//162 165//165 135//135
f 162//162 164//164 165//165
f 134//134 136//136 166//166
f 134//134 167//167 15//15
f 134//134 168//168 169//169
f 134//134 170//170 167//167
f 134//134 166//166 171//171
f 134//134 169//169 170//170
f 134//134 171//171 168//168
f 15//15 167//167 50//50
f 135//135 17//17 19//19
f 135//135 172//172 163//163
f 135//135 19//19 172//172
f 135//135 165//165 166//166
f 135//135 166//166 136//136
f 173//173 149//149 146//146
f 173//173 138//138 149//149
f 173//173 174//174 175//175
f 173//173 146//146 174//174
f 173//173 175//175 138//138
f 149//149 138//138 137//137
f 176//176 18//18 8//8
f 176//176 138//138 175//175
f 176//176 8//8 138//138
f 176//176 172//172 19//19
f 176//176 19//19 18//18
f 176//176 175//175 172//172
f 163//163 154//154 177//177
f 163//163 174//174 146//146
f 163//163 146//146 154//154
f 163//163 172//172 175//175
f 163//163 175//175 174//174
f 163//163 177//177 164//164
f 154//154 156//156 178//178
f 154//154 178//178 177//177
f 167//167 179//179 142//142
f 167//167 142//142 50//50
f 167//167 170//170 180//180
f 167//167 180//180 179//179
f 181//181 182//182 183//183
f 181//181 103//103 107//107
f 181//181 141//141 184//184
f 181//181 107//107 141//141
f 181//181 183//183 103//103
f 181//181 184//184 182//182
f 182//182 185//185 183//183
f 182//182 184//184 185//185
f 103//103 186//186 187//187
f 103//103 183//183 186//186
f 103//103 187//187 158//158
f 103//103 158//158 157//157
f 185//185 188//188 183//183
f 185//185 184//184 189//189
f 185//185 189//189 188//188
f 168//168 187//187 190//190
f 168//168 164//164 187//187
f 168//168 191//191 188//188
f 168//168 188//188 169//169
f 168//168 190//190 191//191
f 168//168 171//171 164//164
f 141//141 122//122 184//184
f 122//122 140//140 184//184
f 140//140 133//133 179//179
f 140//140 179//179 189//189
f 140//140 189//189 184//184
f 133//133 142//142 179//179
f 179//179 180//180 192//192
f 179//179 192//192 189//189
f 155//155 153//153 156//156
f 159//159 158//158 193//193
f 159//159 193//193 160//160
f 160//160 193//193 178//178
f 160//160 178//178 153//153
f 153//153 178//178 156//156
f 165//165 164//164 171//171
f 165//165 171//171 166//166
f 170//170 169//169 180//180
f 180//180 169//169 192//192
f 186//186 183//183 191//191
f 186//186 191//191 187//187
f 183//183 188//188 191//191
f 187//187 164//164 177//177
f 187//187 191//191 190//190
f 187//187 194//194 158//158
f 187//187 177//177 194//194
f 158//158 194//194 193//193
f 188//188 189//189 192//192
f 188//188 192//192 169//169
f 194//194 177//177 178//178
f 194//194 178//178 193//193
# 384 faces, 0 coords texture

# End of File
