####
#
# OBJ File Generated by Meshlab
#
####
# Object matlab_mesh_step3_link2.obj
#
# Vertices: 167
# Faces: 330
#
####
vn -0.271593 -3.079558 2.966426
v 0.187616 0.011391 0.940185
vn 1.893176 -3.301918 2.874776
v 0.187966 0.011497 0.940180
vn -0.487379 -1.287968 6.011295
v 0.190304 0.023632 0.943118
vn -0.687361 -0.986327 6.012837
v 0.190305 0.023645 0.943121
vn -2.166479 -0.889214 5.824480
v 0.184214 0.036930 0.943121
vn -1.876148 0.539453 5.280572
v 0.135632 0.155964 0.943122
vn -1.845264 -0.809366 5.923917
v 0.185754 0.033201 0.943121
vn -3.985984 1.049747 3.506455
v -0.039233 0.084586 0.801949
vn -3.882242 -1.593948 4.644205
v 0.009349 -0.034422 0.801950
vn -3.840630 -1.703680 4.631598
v 0.010882 -0.038135 0.801950
vn -1.389619 -3.779402 2.922011
v 0.015444 -0.047709 0.801950
vn -1.465500 -3.717202 1.434494
v 0.014907 -0.047931 0.801326
vn 3.362168 -4.380212 1.554747
v 0.188358 0.011615 0.939666
vn 3.776018 -2.952900 1.237703
v 0.259520 0.033098 0.846301
vn 4.694143 -2.652098 3.210049
v 0.194842 0.025487 0.942271
vn 3.704089 -3.635195 -1.076791
v 0.259519 0.033097 0.846242
vn 4.920998 -1.412198 0.261412
v 0.267171 0.054992 0.837722
vn 5.242940 -0.485093 3.427763
v 0.267147 0.054927 0.837752
vn 4.703191 0.172179 3.927584
v 0.194846 0.025523 0.942285
vn 5.576802 -1.057688 2.100796
v 0.267161 0.054962 0.837735
vn 4.773168 -2.208650 3.388523
v 0.194845 0.025502 0.942277
vn 4.862945 -1.312051 3.645017
v 0.194847 0.025514 0.942281
vn 2.524004 -2.015319 4.747020
v 0.194000 0.025140 0.943118
vn 4.882669 2.043575 3.308780
v 0.223660 0.151773 0.846283
vn 4.896766 2.239960 3.125904
v 0.220165 0.163858 0.843560
vn 4.333055 2.133851 4.001906
v 0.140196 0.157792 0.942277
vn 5.283175 2.166471 2.610240
v 0.221016 0.161793 0.843560
vn 4.471062 1.953160 3.949290
v 0.144747 0.148237 0.942277
vn 4.524851 1.854026 3.943308
v 0.146287 0.144508 0.942277
vn 4.394503 1.383283 4.191827
v 0.194842 0.025530 0.942287
vn 4.535351 0.369948 -0.205163
v 0.267184 0.055051 0.837698
vn 4.680663 1.436879 -0.855086
v 0.267181 0.055060 0.837695
vn 1.524483 -6.044859 -0.680022
v 0.085244 -0.019513 0.701599
vn 1.954736 -5.948504 -0.457818
v 0.085594 -0.019408 0.701594
vn -0.211157 -5.497597 -1.794028
v 0.087231 -0.018416 0.696760
vn -2.201641 -3.930540 -0.036090
v 0.014905 -0.047931 0.801322
vn -4.543060 -2.694371 -2.981636
v 0.013690 -0.041114 0.795478
vn -4.474763 -3.221150 -2.577479
v 0.014899 -0.047909 0.801299
vn -5.441661 -2.500329 -1.895863
v 0.010358 -0.038380 0.801309
vn -5.548015 -2.480986 -1.437763
v 0.010352 -0.038372 0.801316
vn -5.557429 -2.278262 -1.821389
v 0.008812 -0.034643 0.801317
vn -3.817483 0.048797 0.429016
v -0.039768 0.084365 0.801328
vn -1.391313 -4.021957 -2.383532
v 0.087236 -0.018413 0.696751
vn -4.568305 -1.876583 -3.883643
v 0.081147 -0.005121 0.696744
vn -4.328941 -1.965925 -4.085525
v 0.082683 -0.008842 0.696744
vn -3.314094 1.858650 -2.130958
v 0.032571 0.113895 0.696737
vn -4.880563 -1.198557 -3.713971
v 0.026334 0.111349 0.705754
vn 2.085364 -5.914914 -0.360336
v 0.259349 0.033046 0.846100
vn 1.894784 -5.930079 -0.722563
v 0.088072 -0.018068 0.695912
vn 0.411002 -5.053032 -2.380696
v 0.088074 -0.018067 0.695906
vn 4.436285 -2.820808 -3.408678
v 0.266627 0.054767 0.837090
vn 2.369879 -5.753822 -0.856985
v 0.091769 -0.016560 0.695912
vn 2.378990 -5.234947 -2.092423
v 0.091777 -0.016556 0.695906
vn 2.181648 -3.216914 -3.841853
v 0.091782 -0.016552 0.695903
vn 2.322840 -0.842430 -4.713714
v 0.091785 -0.016547 0.695902
vn 5.376748 2.205646 2.387932
v 0.218647 0.173917 0.837752
vn 4.677969 2.378528 3.432317
v 0.212870 0.186282 0.837983
vn 4.087903 2.284035 4.125316
v 0.140182 0.157811 0.942282
vn 4.720065 2.384941 3.358181
v 0.212823 0.186431 0.837945
vn 5.180766 2.293022 2.691047
v 0.217113 0.177617 0.837771
vn 4.726969 2.395659 3.337231
v 0.212778 0.186569 0.837909
vn 4.735454 2.408652 3.310929
v 0.212738 0.186695 0.837876
vn 5.219406 2.310591 2.591723
v 0.217103 0.177661 0.837752
vn 4.744767 2.422822 3.281613
v 0.212700 0.186811 0.837845
vn 4.756261 2.440265 3.243910
v 0.212666 0.186915 0.837818
vn 5.287808 2.342524 2.411336
v 0.217094 0.177699 0.837736
vn 4.769756 2.461231 3.197599
v 0.212635 0.187008 0.837793
vn 4.787289 2.488653 3.133366
v 0.212607 0.187090 0.837771
vn 4.806892 2.520916 3.055193
v 0.212582 0.187161 0.837752
vn 5.383492 2.386430 2.124234
v 0.217087 0.177729 0.837722
vn 5.421027 2.224171 2.263520
v 0.218637 0.173959 0.837735
vn 4.833996 2.566037 2.932075
v 0.212561 0.187221 0.837736
vn 4.865499 2.631759 2.738300
v 0.212544 0.187269 0.837722
vn 5.514941 2.446505 1.616183
v 0.217080 0.177751 0.837711
vn 5.515562 2.263418 1.970585
v 0.218628 0.173994 0.837722
vn -4.305403 -3.447881 -2.246158
v 0.014901 -0.047920 0.801309
vn 2.427426 -1.583801 4.814738
v 0.194008 0.025156 0.943121
vn 4.892976 2.730181 2.382164
v 0.212529 0.187307 0.837711
vn 5.642179 2.315722 1.466587
v 0.218620 0.174022 0.837711
vn 4.469876 -2.554818 -3.545022
v 0.266637 0.054793 0.837082
vn 4.870956 -1.111302 0.193785
v 0.267179 0.055017 0.837711
vn -3.814980 -3.814088 -1.577253
v 0.014903 -0.047927 0.801316
vn -2.609601 -4.718229 -3.136957
v 0.081014 -0.020952 0.705746
vn -0.988294 -0.403712 6.096232
v 0.184211 0.036945 0.943123
vn -0.901833 -0.375618 6.128559
v 0.185748 0.033223 0.943122
vn -0.396025 -0.433147 6.205619
v 0.190306 0.023657 0.943122
vn 2.359046 -0.895290 4.964622
v 0.194012 0.025169 0.943122
vn 5.635418 2.505150 0.555013
v 0.217075 0.177767 0.837703
vn 4.818199 2.865700 1.613702
v 0.212518 0.187333 0.837703
vn 3.251368 3.391160 3.797803
v 0.140172 0.157822 0.942285
vn 5.755888 2.362733 0.423770
v 0.218612 0.174045 0.837703
vn 4.198520 1.912331 4.226442
v 0.144739 0.148245 0.942282
vn 4.218499 1.735917 4.301089
v 0.146276 0.144523 0.942281
vn 4.784774 -0.548013 0.076349
v 0.267183 0.055036 0.837703
vn -5.714340 -2.343834 -0.543125
v 0.008810 -0.034643 0.801322
vn -3.067342 -3.197672 -4.025004
v 0.087241 -0.018409 0.696744
vn -0.561949 -3.018822 -3.990693
v 0.088075 -0.018065 0.695903
vn -5.600536 -2.496133 0.076690
v 0.010347 -0.038364 0.801322
vn 4.500512 -1.947819 -3.836691
v 0.266643 0.054813 0.837076
vn -0.326799 -0.058699 6.261108
v 0.135641 0.155954 0.943123
vn -0.428185 -0.174756 6.248958
v 0.181917 0.042567 0.943123
vn 0.041548 0.016957 6.282865
v 0.146200 0.142278 0.943123
vn 1.881499 1.018026 5.411834
v 0.139348 0.157467 0.943123
vn 1.157682 1.996997 4.967977
v 0.139342 0.157479 0.943122
vn 1.980886 0.880846 5.414881
v 0.143905 0.147900 0.943123
vn 0.041472 0.016825 6.282866
v 0.192476 0.028891 0.943123
vn -0.003085 -0.001572 6.283183
v 0.188769 0.027378 0.943123
vn 2.024427 0.831004 5.438022
v 0.145442 0.144178 0.943122
vn 0.266605 0.108809 6.273443
v 0.147737 0.138556 0.943122
vn 2.624426 -0.045988 5.082146
v 0.194015 0.025180 0.943122
vn 3.546448 1.122972 4.958851
v 0.194016 0.025189 0.943120
vn 5.028419 2.276004 -2.008740
v 0.217072 0.177775 0.837698
vn 3.296552 3.987437 3.405815
v 0.146407 0.160366 0.933271
vn 3.570955 2.882277 -0.177765
v 0.212510 0.187349 0.837698
vn 5.101381 2.095903 -2.180761
v 0.218605 0.174062 0.837698
vn 4.930856 1.104847 3.722380
v 0.201080 0.028068 0.933271
vn -4.248545 -1.743000 -4.263603
v 0.081149 -0.005117 0.696739
vn -5.022340 -2.063967 2.369773
v 0.008811 -0.034644 0.801326
vn -4.138748 -1.790680 -4.355812
v 0.082683 -0.008830 0.696739
vn -1.981022 -0.881004 -5.414700
v 0.083513 -0.008487 0.695902
vn -1.432228 -1.338681 -5.333993
v 0.088075 -0.018061 0.695902
vn -4.949989 -2.134113 2.546014
v 0.010345 -0.038357 0.801326
vn 2.548047 1.518585 -5.401562
v 0.037117 0.115746 0.695903
vn 2.777042 1.240965 -5.425869
v 0.041675 0.106179 0.695903
vn 1.079527 0.473440 -6.055330
v 0.041673 0.106177 0.695902
vn 3.727237 1.858783 -4.664663
v 0.211973 0.187127 0.837074
vn 3.641237 1.578990 -4.859015
v 0.216535 0.177553 0.837074
vn 0.135384 2.814890 -3.760454
v 0.037111 0.115751 0.695902
vn 0.784087 3.726866 -2.360930
v 0.211971 0.187132 0.837075
vn 2.928199 1.200079 -5.383078
v 0.043212 0.102457 0.695903
vn 1.199480 0.494972 -6.002686
v 0.043206 0.102464 0.695902
vn 3.741281 1.531773 -4.795404
v 0.218068 0.173840 0.837074
vn 3.479953 1.428514 -5.032657
v 0.215174 0.172658 0.834737
vn 4.098903 0.917276 -4.530254
v 0.266646 0.054839 0.837075
vn 1.204417 0.491622 -6.001189
v 0.045503 0.096838 0.695902
vn 3.805205 0.250033 -4.839663
v 0.263751 0.053657 0.834737
vn 4.364658 -0.629561 -4.255104
v 0.266646 0.054829 0.837074
vn 4.033720 -0.636491 -4.674532
v 0.263752 0.053647 0.834737
vn -0.360036 4.058945 2.677397
v 0.139340 0.157482 0.943120
vn -2.511522 2.746099 2.759168
v 0.135629 0.155967 0.943120
vn -3.165031 -0.246617 4.045021
v -0.036337 0.085768 0.804286
vn -3.304196 4.442728 1.745759
v -0.039230 0.084589 0.801950
vn -2.386508 5.812290 0.002109
v -0.038399 0.084932 0.801113
vn -2.421872 5.797377 -0.033377
v -0.038937 0.084710 0.800489
vn -3.567233 1.760424 -1.050076
v -0.039767 0.084367 0.801326
vn -2.377062 5.816147 0.014276
v 0.136455 0.156308 0.942287
vn 0.237067 4.833271 2.025419
v 0.140167 0.157823 0.942287
vn -2.378314 5.815643 -0.011812
v 0.033932 0.114457 0.696524
vn 0.123484 5.287748 1.578313
v 0.146404 0.160369 0.933270
vn 1.394529 3.422598 -0.679976
v 0.212506 0.187353 0.837696
vn -2.347401 5.827882 -0.039151
v 0.209610 0.186171 0.835358
vn -2.348896 5.827268 -0.040128
v 0.037644 0.115972 0.696524
vn 4.299988 1.929868 -4.145981
v 0.217069 0.177775 0.837696
vn 4.343964 1.788469 -4.169488
v 0.218599 0.174072 0.837695
vn 4.346572 1.774332 -4.173215
v 0.220897 0.168443 0.837695
vn -2.422271 1.934854 -2.657843
v 0.033397 0.114236 0.695903
vn -2.035035 -0.835392 -5.437791
v 0.081980 -0.004774 0.695902
vn -1.419921 2.029703 -4.603399
v 0.033401 0.114237 0.695902
vn -1.180535 -0.481883 -6.036586
v 0.079683 0.000853 0.695902
vn -0.052017 -0.021106 -6.282682
v 0.034935 0.110524 0.695902
vn -0.052117 -0.021274 -6.282681
v 0.081216 -0.002860 0.695902
vn -1.953674 5.411361 -1.709302
v 0.037109 0.115751 0.695903
vn 3.926115 1.780607 -4.546226
v 0.216535 0.177554 0.837075
vn 4.053571 1.669142 -4.490967
v 0.218064 0.173851 0.837075
vn 0.003864 0.001970 -6.283182
v 0.038645 0.112038 0.695902
vn -1.784313 5.908431 -0.777356
v 0.209075 0.185950 0.834737
vn 4.071477 1.662034 -4.478977
v 0.220362 0.168222 0.837075
# 167 vertices, 0 vertices normals

f 1//1 2//2 3//3
f 1//1 3//3 4//4
f 1//1 5//5 6//6
f 1//1 7//7 5//5
f 1//1 4//4 7//7
f 1//1 6//6 8//8
f 1//1 9//9 10//10
f 1//1 10//10 11//11
f 1//1 11//11 12//12
f 1//1 12//12 2//2
f 1//1 8//8 9//9
f 13//13 14//14 15//15
f 13//13 2//2 12//12
f 13//13 15//15 2//2
f 13//13 12//12 14//14
f 14//14 16//16 17//17
f 14//14 18//18 19//19
f 14//14 20//20 18//18
f 14//14 17//17 20//20
f 14//14 21//21 15//15
f 14//14 22//22 21//21
f 14//14 19//19 22//22
f 14//14 12//12 16//16
f 2//2 23//23 3//3
f 2//2 15//15 23//23
f 24//24 25//25 26//26
f 24//24 27//27 25//25
f 24//24 26//26 28//28
f 24//24 28//28 29//29
f 24//24 29//29 30//30
f 24//24 31//31 32//32
f 24//24 32//32 27//27
f 24//24 30//30 31//31
f 33//33 34//34 12//12
f 33//33 35//35 34//34
f 33//33 36//36 35//35
f 33//33 12//12 36//36
f 37//37 38//38 39//39
f 37//37 39//39 40//40
f 37//37 41//41 42//42
f 37//37 43//43 38//38
f 37//37 40//40 41//41
f 37//37 44//44 45//45
f 37//37 45//45 43//43
f 37//37 46//46 44//44
f 37//37 42//42 47//47
f 37//37 47//47 46//46
f 16//16 48//48 49//49
f 16//16 49//49 50//50
f 16//16 51//51 17//17
f 16//16 52//52 53//53
f 16//16 50//50 52//52
f 16//16 53//53 54//54
f 16//16 54//54 55//55
f 16//16 12//12 48//48
f 16//16 55//55 51//51
f 48//48 34//34 49//49
f 48//48 12//12 34//34
f 34//34 35//35 49//49
f 25//25 27//27 56//56
f 25//25 57//57 58//58
f 25//25 59//59 57//57
f 25//25 60//60 59//59
f 25//25 56//56 60//60
f 25//25 58//58 26//26
f 27//27 32//32 56//56
f 57//57 59//59 58//58
f 59//59 61//61 58//58
f 59//59 60//60 61//61
f 61//61 62//62 58//58
f 61//61 60//60 63//63
f 61//61 63//63 62//62
f 62//62 64//64 58//58
f 62//62 63//63 64//64
f 64//64 65//65 58//58
f 64//64 63//63 66//66
f 64//64 66//66 65//65
f 65//65 67//67 58//58
f 65//65 66//66 67//67
f 67//67 68//68 58//58
f 67//67 66//66 68//68
f 68//68 69//69 58//58
f 68//68 66//66 70//70
f 68//68 70//70 69//69
f 60//60 56//56 71//71
f 60//60 71//71 63//63
f 69//69 72//72 58//58
f 69//69 70//70 72//72
f 63//63 71//71 66//66
f 56//56 32//32 71//71
f 18//18 20//20 19//19
f 72//72 73//73 58//58
f 72//72 70//70 74//74
f 72//72 74//74 73//73
f 66//66 71//71 75//75
f 66//66 75//75 70//70
f 71//71 32//32 75//75
f 20//20 17//17 19//19
f 38//38 76//76 40//40
f 38//38 43//43 76//76
f 38//38 40//40 39//39
f 3//3 23//23 4//4
f 23//23 15//15 77//77
f 23//23 77//77 4//4
f 73//73 78//78 58//58
f 73//73 74//74 78//78
f 70//70 75//75 79//79
f 70//70 79//79 74//74
f 75//75 32//32 79//79
f 17//17 51//51 80//80
f 17//17 81//81 19//19
f 17//17 80//80 81//81
f 15//15 21//21 77//77
f 35//35 43//43 49//49
f 35//35 82//82 83//83
f 35//35 83//83 43//43
f 35//35 36//36 82//82
f 76//76 43//43 83//83
f 76//76 82//82 40//40
f 76//76 83//83 82//82
f 49//49 43//43 50//50
f 51//51 55//55 80//80
f 52//52 50//50 53//53
f 5//5 7//7 84//84
f 5//5 84//84 6//6
f 7//7 4//4 85//85
f 7//7 85//85 84//84
f 4//4 77//77 86//86
f 4//4 86//86 85//85
f 77//77 21//21 87//87
f 77//77 87//87 86//86
f 78//78 74//74 88//88
f 78//78 89//89 90//90
f 78//78 88//88 89//89
f 78//78 90//90 58//58
f 74//74 79//79 91//91
f 74//74 91//91 88//88
f 26//26 58//58 92//92
f 26//26 92//92 28//28
f 28//28 92//92 93//93
f 28//28 93//93 29//29
f 79//79 32//32 91//91
f 29//29 93//93 30//30
f 81//81 80//80 94//94
f 81//81 94//94 19//19
f 21//21 22//22 87//87
f 41//41 40//40 95//95
f 41//41 95//95 42//42
f 43//43 45//45 96//96
f 43//43 96//96 97//97
f 43//43 97//97 50//50
f 40//40 82//82 98//98
f 40//40 98//98 95//95
f 82//82 36//36 98//98
f 50//50 97//97 53//53
f 80//80 99//99 94//94
f 80//80 55//55 99//99
f 53//53 97//97 54//54
f 100//100 101//101 102//102
f 100//100 103//103 104//104
f 100//100 105//105 103//103
f 100//100 102//102 105//105
f 100//100 6//6 101//101
f 100//100 104//104 6//6
f 101//101 84//84 106//106
f 101//101 106//106 102//102
f 101//101 6//6 84//84
f 84//84 107//107 106//106
f 84//84 85//85 107//107
f 107//107 85//85 86//86
f 107//107 86//86 106//106
f 103//103 105//105 58//58
f 103//103 58//58 104//104
f 105//105 102//102 108//108
f 105//105 108//108 92//92
f 105//105 92//92 58//58
f 102//102 106//106 109//109
f 102//102 109//109 108//108
f 106//106 86//86 87//87
f 106//106 87//87 109//109
f 108//108 109//109 110//110
f 108//108 93//93 92//92
f 108//108 110//110 111//111
f 108//108 111//111 93//93
f 109//109 87//87 110//110
f 87//87 22//22 110//110
f 89//89 88//88 112//112
f 89//89 113//113 90//90
f 89//89 114//114 113//113
f 89//89 112//112 114//114
f 88//88 91//91 115//115
f 88//88 115//115 112//112
f 58//58 90//90 104//104
f 91//91 32//32 115//115
f 93//93 111//111 30//30
f 94//94 99//99 31//31
f 94//94 116//116 19//19
f 94//94 31//31 116//116
f 22//22 19//19 110//110
f 44//44 117//117 45//45
f 44//44 46//46 117//117
f 95//95 98//98 118//118
f 95//95 118//118 42//42
f 45//45 117//117 119//119
f 45//45 119//119 96//96
f 96//96 119//119 120//120
f 96//96 120//120 121//121
f 96//96 121//121 97//97
f 98//98 36//36 122//122
f 98//98 122//122 118//118
f 36//36 12//12 122//122
f 123//123 124//124 125//125
f 123//123 126//126 127//127
f 123//123 127//127 124//124
f 123//123 128//128 129//129
f 123//123 125//125 128//128
f 123//123 129//129 126//126
f 124//124 130//130 131//131
f 124//124 127//127 132//132
f 124//124 132//132 133//133
f 124//124 133//133 130//130
f 124//124 131//131 125//125
f 97//97 121//121 54//54
f 130//130 133//133 134//134
f 130//130 135//135 131//131
f 130//130 55//55 135//135
f 130//130 134//134 136//136
f 130//130 136//136 55//55
f 99//99 137//137 31//31
f 99//99 138//138 137//137
f 99//99 55//55 138//138
f 54//54 121//121 55//55
f 6//6 104//104 139//139
f 6//6 140//140 141//141
f 6//6 141//141 8//8
f 6//6 139//139 140//140
f 142//142 143//143 144//144
f 142//142 145//145 42//42
f 142//142 144//144 145//145
f 142//142 140//140 146//146
f 142//142 141//141 140//140
f 142//142 8//8 141//141
f 142//142 146//146 143//143
f 142//142 42//42 8//8
f 9//9 118//118 10//10
f 9//9 8//8 42//42
f 9//9 42//42 118//118
f 104//104 90//90 139//139
f 10//10 118//118 122//122
f 10//10 122//122 12//12
f 10//10 12//12 11//11
f 110//110 19//19 111//111
f 143//143 146//146 147//147
f 143//143 148//148 144//144
f 143//143 149//149 150//150
f 143//143 150//150 151//151
f 143//143 147//147 149//149
f 143//143 151//151 152//152
f 143//143 152//152 148//148
f 113//113 114//114 150//150
f 113//113 149//149 90//90
f 113//113 150//150 149//149
f 114//114 112//112 153//153
f 114//114 126//126 150//150
f 114//114 153//153 126//126
f 112//112 115//115 154//154
f 112//112 154//154 153//153
f 90//90 149//149 147//147
f 90//90 147//147 139//139
f 115//115 155//155 154//154
f 115//115 32//32 155//155
f 116//116 31//31 30//30
f 116//116 30//30 19//19
f 31//31 137//137 32//32
f 19//19 30//30 111//111
f 145//145 144//144 156//156
f 145//145 46//46 47//47
f 145//145 47//47 42//42
f 145//145 156//156 46//46
f 117//117 157//157 120//120
f 117//117 120//120 119//119
f 117//117 46//46 156//156
f 117//117 156//156 157//157
f 158//158 159//159 156//156
f 158//158 128//128 160//160
f 158//158 160//160 161//161
f 158//158 161//161 159//159
f 158//158 156//156 162//162
f 158//158 162//162 128//128
f 159//159 157//157 156//156
f 159//159 161//161 120//120
f 159//159 120//120 157//157
f 144//144 148//148 156//156
f 126//126 153//153 163//163
f 126//126 129//129 150//150
f 126//126 163//163 127//127
f 127//127 163//163 164//164
f 127//127 164//164 132//132
f 128//128 125//125 165//165
f 128//128 165//165 160//160
f 128//128 166//166 129//129
f 128//128 162//162 166//166
f 125//125 131//131 165//165
f 160//160 165//165 131//131
f 160//160 131//131 135//135
f 160//160 135//135 161//161
f 161//161 135//135 55//55
f 161//161 55//55 120//120
f 120//120 55//55 121//121
f 132//132 164//164 167//167
f 132//132 167//167 134//134
f 132//132 134//134 133//133
f 137//137 138//138 134//134
f 137//137 134//134 32//32
f 138//138 55//55 134//134
f 55//55 136//136 134//134
f 140//140 139//139 146//146
f 139//139 147//147 146//146
f 148//148 152//152 162//162
f 148//148 162//162 156//156
f 150//150 129//129 151//151
f 153//153 154//154 163//163
f 151//151 129//129 166//166
f 151//151 166//166 162//162
f 151//151 162//162 152//152
f 154//154 155//155 164//164
f 154//154 164//164 163//163
f 155//155 32//32 167//167
f 155//155 167//167 164//164
f 32//32 134//134 167//167
# 330 faces, 0 coords texture

# End of File
