####
#
# OBJ File Generated by Meshlab
#
####
# Object matlab_mesh_step7_link7.obj
#
# Vertices: 150
# Faces: 296
#
####
vn -4.303774 -4.205410 1.442687
v 0.410644 0.490760 0.897467
vn -3.323126 -4.856637 1.641617
v 0.412709 0.488859 0.897467
vn -3.605371 -4.511975 2.422581
v 0.428714 0.496047 0.935922
vn -4.445247 -4.309987 0.004587
v 0.410927 0.490109 0.895378
vn -4.737927 -3.745689 1.099654
v 0.379982 0.530038 0.912446
vn -4.108781 -4.096888 2.376995
v 0.390910 0.530893 0.935922
vn -2.209912 -5.659574 1.546287
v 0.413594 0.488265 0.896714
vn -1.752027 -5.752723 1.741200
v 0.414378 0.488334 0.897904
vn -2.438561 -5.423108 1.989879
v 0.413493 0.488928 0.898657
vn -2.057353 -4.866269 2.376628
v 0.428753 0.496048 0.935982
vn -3.495722 -4.961706 0.381800
v 0.412992 0.488207 0.895378
vn -1.940846 -5.463457 0.076647
v 0.413877 0.487613 0.894625
vn -0.710028 -6.015901 1.044880
v 0.414662 0.487683 0.895815
vn -4.325650 -4.449976 -0.941691
v 0.411203 0.490260 0.893165
vn -4.087941 -4.669024 -0.944817
v 0.413268 0.488358 0.893165
vn -4.421880 -4.326022 -1.013971
v 0.384591 0.532936 0.819683
vn -3.943163 -4.737984 -1.162229
v 0.422316 0.498164 0.819683
vn -2.434941 -5.423118 -0.813800
v 0.414153 0.487764 0.892413
vn -4.724095 -4.091483 -0.567826
v 0.380036 0.529971 0.861808
vn -4.984871 -3.745788 -0.419408
v 0.379982 0.530038 0.861781
vn -0.905874 -6.107721 -0.856475
v 0.475706 0.487022 0.808721
vn -0.444532 -6.245624 -0.335696
v 0.475431 0.486871 0.810933
vn -3.087598 -5.127001 -1.295928
v 0.422350 0.498165 0.819566
vn -2.770443 -5.062344 -1.707243
v 0.422382 0.498170 0.819477
vn -0.090902 -6.138583 -0.917456
v 0.511821 0.488302 0.771451
vn 0.186110 -6.249691 -0.197606
v 0.508269 0.486047 0.803838
vn -1.821616 -5.501598 -1.939192
v 0.498728 0.494220 0.749334
vn 0.400728 -6.255905 0.156396
v 0.517118 0.486727 0.821765
vn 0.888493 -6.147989 0.434985
v 0.565626 0.492099 0.865891
vn 0.423704 -5.710217 2.049267
v 0.489269 0.496056 0.936021
vn -1.437115 -4.538567 2.956153
v 0.428789 0.496056 0.936021
vn -1.591613 -4.414776 -2.979453
v 0.498769 0.494224 0.749285
vn 0.658545 -5.936572 -1.340126
v 0.559250 0.494224 0.749285
vn 0.849144 -6.211504 -0.268060
v 0.554673 0.491242 0.791626
vn 1.194558 -6.141686 -0.127086
v 0.565626 0.492099 0.815174
vn -4.550493 -4.073614 -1.205655
v 0.384546 0.533011 0.819566
vn -4.124520 -3.556232 2.885891
v 0.390886 0.530953 0.935982
vn -5.111880 -3.051473 1.190790
v 0.379943 0.530097 0.912464
vn -5.408674 -3.057955 -0.409447
v 0.379943 0.530097 0.861765
vn -4.686948 -3.558424 -1.570255
v 0.384515 0.533075 0.819477
vn -6.063195 -1.614486 0.184719
v 0.368814 0.568498 0.898201
vn -6.005517 -1.720401 -0.414946
v 0.368814 0.568498 0.847501
vn -5.817054 -2.229011 -0.367347
v 0.379921 0.530147 0.861757
vn -5.879319 -0.588582 1.183484
v 0.368801 0.568552 0.898212
vn -6.135315 -0.781555 -0.369538
v 0.368801 0.568552 0.847495
vn -5.516317 -1.832450 1.437542
v 0.379921 0.530147 0.912473
vn -4.179095 -2.295462 3.426947
v 0.390874 0.531004 0.936021
vn -5.882296 -1.914363 -1.008811
v 0.373386 0.571476 0.805213
vn -5.072292 -1.486816 -2.230347
v 0.373378 0.571534 0.805154
vn -4.606410 -2.904955 -2.207115
v 0.384498 0.533129 0.819415
vn -2.945000 -4.643436 -2.647030
v 0.422412 0.498181 0.819415
vn -5.989352 0.005815 1.324980
v 0.368801 0.620566 0.898212
vn -5.340314 -0.118717 3.215925
v 0.379762 0.569453 0.921780
vn -6.263737 0.021374 -0.346564
v 0.368801 0.620566 0.847495
vn -4.690787 2.198878 0.841244
v 0.368801 0.620603 0.898212
vn -4.894000 2.515381 -0.169681
v 0.368801 0.620603 0.847499
vn -4.844295 1.609964 2.829272
v 0.379762 0.621461 0.921780
vn 2.073045 -5.596225 0.779739
v 0.565662 0.492108 0.865918
vn 1.552676 -3.442084 3.798708
v 0.554074 0.540110 1.004136
vn -0.875729 -3.007253 4.616224
v 0.493597 0.540110 1.004136
vn 1.051144 -5.615254 2.485947
v 0.489298 0.496069 0.936040
vn 2.466953 -5.681887 -0.038006
v 0.565662 0.492108 0.815206
vn -5.609879 -0.474227 2.776394
v 0.379754 0.569409 0.921760
vn -5.691753 -0.717878 2.559085
v 0.379915 0.530189 0.912472
vn -4.568777 -1.058927 3.767103
v 0.390875 0.531046 0.936040
vn -2.653568 -1.107265 4.959597
v 0.455651 0.575087 1.004136
vn -6.244617 0.016537 -0.693840
v 0.373378 0.623548 0.805154
vn -4.021495 2.030599 -1.753416
v 0.373382 0.623588 0.805121
vn -4.849963 -0.812149 -2.790404
v 0.373382 0.571581 0.805121
vn 1.484298 -6.083223 -0.367155
v 0.570203 0.495081 0.772833
vn -0.711648 -3.694776 -4.147959
v 0.498806 0.494235 0.749259
vn 1.779866 -3.158899 -2.890824
v 0.559283 0.494235 0.749259
vn 3.207358 -4.851412 -1.013330
v 0.570243 0.495093 0.772828
vn -3.291129 -2.156811 -4.706830
v 0.449735 0.567577 0.735023
vn -4.307258 -2.758225 -3.539126
v 0.384496 0.533174 0.819381
vn -3.249648 -3.089328 -4.255602
v 0.460855 0.529172 0.749285
vn -2.283338 -2.548308 -5.266468
v 0.487650 0.532629 0.735023
vn -2.311205 -0.768937 -5.199485
v 0.449747 0.567620 0.734999
vn -0.952374 -1.604702 -5.741967
v 0.487692 0.532642 0.734999
vn -2.692337 -2.669805 -4.998448
v 0.460860 0.529213 0.749259
vn 1.998332 4.456262 2.755687
v 0.505014 0.665502 0.989875
vn 3.239762 3.174441 4.224093
v 0.542960 0.630524 0.989875
vn 3.082886 4.454068 3.021946
v 0.581371 0.661540 0.919764
vn 2.575795 4.911967 1.507299
v 0.581379 0.661541 0.919753
vn 0.705835 3.940595 3.052468
v 0.505003 0.665503 0.989881
vn 3.167862 2.710854 4.600948
v 0.542964 0.630511 0.989881
vn 4.596415 2.787871 2.288630
v 0.619333 0.626548 0.919764
vn 2.086619 2.390585 5.401318
v 0.516128 0.627095 1.004136
vn 3.048079 2.164220 4.831591
v 0.554074 0.592117 1.004136
vn 0.740593 1.411591 5.820195
v 0.516113 0.627095 1.004141
vn 2.221540 0.665959 5.181380
v 0.554075 0.592103 1.004141
vn 4.821948 1.045639 2.539818
v 0.630443 0.588140 0.934023
vn 2.387775 5.351298 0.277707
v 0.585960 0.664525 0.877376
vn 4.757863 3.914921 0.447944
v 0.623906 0.629548 0.877376
vn 4.742908 3.030233 -1.408930
v 0.623906 0.629548 0.826663
vn 4.327421 3.806818 1.779915
v 0.619325 0.626563 0.919753
vn 2.329833 5.155464 -0.690021
v 0.585960 0.664525 0.826663
vn 0.339490 6.271939 -0.055935
v 0.585953 0.664526 0.826676
vn 0.351550 6.243474 0.304144
v 0.509585 0.668489 0.947485
vn 0.400482 6.269831 0.016407
v 0.585953 0.664526 0.877368
vn 5.599317 2.599532 0.292565
v 0.623915 0.629534 0.877368
vn 5.482316 1.943010 -1.151799
v 0.623915 0.629534 0.826676
vn -2.116444 5.746772 0.079554
v 0.438158 0.667629 0.923929
vn -2.971030 4.907513 0.976629
v 0.433577 0.664644 0.966307
vn -0.918406 6.203730 0.298989
v 0.449118 0.668486 0.947498
vn -0.365087 6.246896 0.212454
v 0.449135 0.668489 0.947485
vn -2.104342 5.597740 -0.707513
v 0.438158 0.667629 0.873216
vn -3.481786 5.229882 -0.002243
v 0.433577 0.664644 0.915594
vn -0.780813 6.227251 0.022819
v 0.438171 0.667631 0.923907
vn -2.308393 3.007403 2.507452
v 0.444538 0.665502 0.989875
vn -3.381576 0.482109 5.025761
v 0.455651 0.627095 1.004136
vn -1.100750 0.898635 5.788372
v 0.455663 0.627095 1.004141
vn -4.742801 0.059513 4.106772
v 0.390875 0.583054 0.936040
vn -0.836342 3.640918 3.084737
v 0.444552 0.665503 0.989881
vn -1.239843 -0.165241 6.006130
v 0.455663 0.575114 1.004141
vn 3.475488 -4.224126 1.370966
v 0.630438 0.536149 0.934014
vn 4.187943 -1.756988 2.306520
v 0.630443 0.536159 0.934023
vn 1.911688 -1.042352 5.063316
v 0.554075 0.540122 1.004141
vn -0.142908 -1.215039 6.022220
v 0.493624 0.540122 1.004141
vn 4.551995 -4.034521 0.149273
v 0.635019 0.539134 0.891636
vn 3.481767 -5.229895 0.002244
v 0.570243 0.495093 0.823540
vn 4.625722 -2.710426 -1.218177
v 0.635019 0.539134 0.840923
vn 5.631145 -1.205546 -0.942064
v 0.635026 0.539145 0.840936
vn 5.839979 -1.482853 0.230306
v 0.635026 0.539145 0.891627
vn 1.623375 4.499984 -2.296547
v 0.574999 0.663668 0.803095
vn 3.971669 2.517014 -3.288426
v 0.612945 0.628691 0.803095
vn 0.631229 2.569867 -4.659176
v 0.510215 0.619633 0.734997
vn -0.411200 5.700574 -1.882313
v 0.514522 0.663668 0.803095
vn 0.024332 6.276065 -0.287818
v 0.498621 0.667631 0.873215
vn 4.937785 0.827823 -3.485134
v 0.612951 0.628676 0.803097
vn 2.242365 0.853394 -5.000347
v 0.548177 0.584641 0.734997
vn 0.136205 6.276754 -0.094752
v 0.509585 0.668489 0.896794
vn 5.644460 0.631122 -2.686697
v 0.624059 0.590284 0.817355
vn 5.795461 0.683472 -2.225651
v 0.635019 0.591141 0.840923
vn 5.355061 0.197334 -3.169869
v 0.624062 0.590268 0.817357
vn 5.886609 0.614938 -1.098920
v 0.635026 0.591126 0.840936
vn -2.980433 4.319093 -2.296877
v 0.373396 0.623596 0.805115
vn -0.758128 6.097261 -0.732157
v 0.438171 0.667631 0.873215
vn -0.814795 2.770503 -4.113277
v 0.449764 0.619633 0.734997
vn -2.177785 2.012490 -4.129910
v 0.449747 0.619627 0.734999
vn -0.378270 -0.059457 -6.258057
v 0.449764 0.567652 0.734997
vn 4.792576 -1.855128 -2.925906
v 0.624059 0.538276 0.817355
vn 3.623076 -1.269529 -4.562808
v 0.559287 0.494252 0.749256
vn 5.200744 -0.380916 -3.306052
v 0.624062 0.538287 0.817357
vn 0.807270 -1.474243 -5.899416
v 0.548169 0.532642 0.734999
vn -0.051183 -0.376239 -6.258857
v 0.487726 0.532660 0.734997
vn 2.202133 -0.370724 -5.219411
v 0.548177 0.532660 0.734997
vn 6.073873 0.960634 0.402826
v 0.635026 0.591126 0.891627
vn -0.210950 6.272203 -0.072906
v 0.449135 0.668489 0.896794
vn 4.743109 -0.059544 -4.106398
v 0.612951 0.576695 0.803097
# 150 vertices, 0 vertices normals

f 1//1 2//2 3//3
f 1//1 4//4 2//2
f 1//1 5//5 4//4
f 1//1 6//6 5//5
f 1//1 3//3 6//6
f 2//2 7//7 8//8
f 2//2 9//9 10//10
f 2//2 8//8 9//9
f 2//2 4//4 11//11
f 2//2 11//11 7//7
f 2//2 10//10 3//3
f 7//7 11//11 12//12
f 7//7 12//12 13//13
f 7//7 13//13 8//8
f 9//9 8//8 10//10
f 8//8 13//13 10//10
f 14//14 15//15 11//11
f 14//14 4//4 16//16
f 14//14 11//11 4//4
f 14//14 16//16 17//17
f 14//14 17//17 15//15
f 15//15 18//18 12//12
f 15//15 12//12 11//11
f 15//15 17//17 18//18
f 4//4 19//19 16//16
f 4//4 5//5 20//20
f 4//4 20//20 19//19
f 18//18 21//21 22//22
f 18//18 22//22 12//12
f 18//18 17//17 23//23
f 18//18 23//23 24//24
f 18//18 24//24 21//21
f 21//21 25//25 26//26
f 21//21 26//26 22//22
f 21//21 24//24 27//27
f 21//21 27//27 25//25
f 12//12 22//22 26//26
f 12//12 26//26 28//28
f 12//12 28//28 13//13
f 13//13 28//28 29//29
f 13//13 30//30 31//31
f 13//13 29//29 30//30
f 13//13 31//31 10//10
f 25//25 27//27 32//32
f 25//25 33//33 34//34
f 25//25 34//34 26//26
f 25//25 32//32 33//33
f 26//26 34//34 28//28
f 28//28 34//34 35//35
f 28//28 35//35 29//29
f 16//16 19//19 36//36
f 16//16 36//36 23//23
f 16//16 23//23 17//17
f 19//19 20//20 36//36
f 5//5 6//6 37//37
f 5//5 38//38 39//39
f 5//5 37//37 38//38
f 5//5 39//39 20//20
f 6//6 3//3 10//10
f 6//6 10//10 37//37
f 36//36 20//20 40//40
f 36//36 40//40 24//24
f 36//36 24//24 23//23
f 20//20 39//39 40//40
f 41//41 42//42 43//43
f 41//41 44//44 45//45
f 41//41 46//46 44//44
f 41//41 45//45 42//42
f 41//41 43//43 46//46
f 38//38 37//37 47//47
f 38//38 46//46 43//43
f 38//38 47//47 46//46
f 38//38 43//43 39//39
f 37//37 10//10 31//31
f 37//37 31//31 47//47
f 48//48 42//42 49//49
f 48//48 49//49 50//50
f 48//48 50//50 42//42
f 42//42 45//45 49//49
f 42//42 50//50 43//43
f 40//40 39//39 50//50
f 40//40 50//50 51//51
f 40//40 51//51 24//24
f 24//24 51//51 27//27
f 39//39 43//43 50//50
f 27//27 51//51 32//32
f 52//52 44//44 53//53
f 52//52 54//54 44//44
f 52//52 55//55 56//56
f 52//52 57//57 55//55
f 52//52 53//53 57//57
f 52//52 56//56 54//54
f 30//30 29//29 58//58
f 30//30 59//59 60//60
f 30//30 61//61 59//59
f 30//30 58//58 61//61
f 30//30 60//60 31//31
f 29//29 35//35 62//62
f 29//29 62//62 58//58
f 44//44 63//63 53//53
f 44//44 46//46 64//64
f 44//44 54//54 45//45
f 44//44 64//64 65//65
f 44//44 65//65 63//63
f 63//63 65//65 53//53
f 46//46 47//47 65//65
f 46//46 65//65 64//64
f 47//47 31//31 60//60
f 47//47 66//66 65//65
f 47//47 60//60 66//66
f 67//67 54//54 68//68
f 67//67 49//49 54//54
f 67//67 68//68 69//69
f 67//67 69//69 49//49
f 54//54 49//49 45//45
f 54//54 56//56 68//68
f 33//33 70//70 34//34
f 33//33 32//32 71//71
f 33//33 72//72 70//70
f 33//33 71//71 72//72
f 34//34 70//70 35//35
f 70//70 72//72 73//73
f 70//70 73//73 62//62
f 70//70 62//62 35//35
f 49//49 74//74 75//75
f 49//49 69//69 74//74
f 49//49 75//75 50//50
f 50//50 76//76 32//32
f 50//50 32//32 51//51
f 50//50 75//75 76//76
f 74//74 77//77 71//71
f 74//74 76//76 75//75
f 74//74 69//69 78//78
f 74//74 78//78 79//79
f 74//74 79//79 77//77
f 74//74 80//80 76//76
f 74//74 71//71 80//80
f 77//77 79//79 71//71
f 76//76 80//80 71//71
f 76//76 71//71 32//32
f 81//81 82//82 83//83
f 81//81 84//84 85//85
f 81//81 85//85 82//82
f 81//81 83//83 84//84
f 82//82 85//85 86//86
f 82//82 86//86 87//87
f 82//82 87//87 83//83
f 88//88 89//89 85//85
f 88//88 85//85 90//90
f 88//88 90//90 89//89
f 89//89 86//86 85//85
f 89//89 90//90 91//91
f 89//89 91//91 92//92
f 89//89 87//87 86//86
f 89//89 92//92 87//87
f 93//93 94//94 95//95
f 93//93 84//84 96//96
f 93//93 96//96 94//94
f 93//93 97//97 98//98
f 93//93 95//95 97//97
f 93//93 99//99 84//84
f 93//93 100//100 99//99
f 93//93 98//98 100//100
f 94//94 96//96 87//87
f 94//94 101//101 102//102
f 94//94 87//87 101//101
f 94//94 102//102 95//95
f 84//84 99//99 85//85
f 84//84 83//83 96//96
f 96//96 83//83 87//87
f 103//103 104//104 105//105
f 103//103 105//105 106//106
f 103//103 107//107 108//108
f 103//103 108//108 104//104
f 103//103 109//109 107//107
f 103//103 106//106 109//109
f 104//104 110//110 105//105
f 104//104 55//55 57//57
f 104//104 57//57 110//110
f 104//104 108//108 55//55
f 105//105 110//110 106//106
f 110//110 111//111 112//112
f 110//110 57//57 113//113
f 110//110 113//113 111//111
f 110//110 114//114 106//106
f 110//110 112//112 114//114
f 111//111 113//113 66//66
f 111//111 66//66 115//115
f 111//111 115//115 112//112
f 55//55 108//108 56//56
f 57//57 53//53 113//113
f 113//113 53//53 65//65
f 113//113 65//65 66//66
f 59//59 116//116 117//117
f 59//59 61//61 116//116
f 59//59 118//118 119//119
f 59//59 117//117 118//118
f 59//59 119//119 60//60
f 120//120 116//116 58//58
f 120//120 121//121 122//122
f 120//120 58//58 121//121
f 120//120 122//122 123//123
f 120//120 124//124 117//117
f 120//120 117//117 116//116
f 120//120 123//123 124//124
f 116//116 61//61 58//58
f 121//121 58//58 62//62
f 121//121 73//73 122//122
f 121//121 62//62 73//73
f 66//66 60//60 119//119
f 66//66 119//119 115//115
f 125//125 126//126 127//127
f 125//125 97//97 126//126
f 125//125 128//128 129//129
f 125//125 129//129 97//97
f 125//125 127//127 128//128
f 126//126 97//97 95//95
f 126//126 95//95 130//130
f 126//126 130//130 131//131
f 126//126 131//131 127//127
f 97//97 129//129 132//132
f 97//97 132//132 98//98
f 95//95 102//102 130//130
f 133//133 134//134 135//135
f 133//133 130//130 134//134
f 133//133 135//135 130//130
f 134//134 130//130 102//102
f 134//134 102//102 136//136
f 134//134 136//136 135//135
f 107//107 128//128 137//137
f 107//107 68//68 56//56
f 107//107 56//56 108//108
f 107//107 109//109 138//138
f 107//107 138//138 128//128
f 107//107 137//137 68//68
f 128//128 127//127 139//139
f 128//128 138//138 129//129
f 128//128 139//139 137//137
f 68//68 140//140 69//69
f 68//68 137//137 140//140
f 140//140 78//78 69//69
f 140//140 137//137 139//139
f 140//140 139//139 141//141
f 140//140 141//141 78//78
f 142//142 122//122 73//73
f 142//142 72//72 143//143
f 142//142 73//73 72//72
f 142//142 144//144 122//122
f 142//142 143//143 144//144
f 122//122 144//144 123//123
f 145//145 72//72 71//71
f 145//145 79//79 146//146
f 145//145 71//71 79//79
f 145//145 147//147 72//72
f 145//145 146//146 147//147
f 72//72 147//147 143//143
f 78//78 141//141 146//146
f 78//78 146//146 79//79
f 99//99 100//100 132//132
f 99//99 106//106 85//85
f 99//99 132//132 106//106
f 85//85 106//106 114//114
f 85//85 114//114 112//112
f 85//85 112//112 90//90
f 90//90 112//112 115//115
f 90//90 115//115 119//119
f 90//90 119//119 91//91
f 91//91 118//118 92//92
f 91//91 119//119 118//118
f 100//100 98//98 132//132
f 101//101 87//87 148//148
f 101//101 148//148 136//136
f 101//101 136//136 102//102
f 87//87 92//92 148//148
f 148//148 92//92 124//124
f 148//148 124//124 136//136
f 92//92 118//118 117//117
f 92//92 117//117 124//124
f 109//109 106//106 149//149
f 109//109 149//149 138//138
f 106//106 132//132 149//149
f 124//124 123//123 136//136
f 129//129 138//138 149//149
f 129//129 149//149 132//132
f 130//130 135//135 150//150
f 130//130 150//150 131//131
f 135//135 136//136 123//123
f 135//135 144//144 150//150
f 135//135 123//123 144//144
f 127//127 131//131 146//146
f 127//127 141//141 139//139
f 127//127 146//146 141//141
f 131//131 150//150 147//147
f 131//131 147//147 146//146
f 150//150 144//144 143//143
f 150//150 143//143 147//147
# 296 faces, 0 coords texture

# End of File
