####
#
# OBJ File Generated by Meshlab
#
####
# Object matlab_mesh_step2_link6.obj
#
# Vertices: 184
# Faces: 364
#
####
vn -4.628938 -3.413091 2.321358
v 0.314644 0.398432 0.987110
vn -4.177314 -3.910675 2.224647
v 0.340168 0.364691 0.987110
vn -4.208734 -3.126176 3.440884
v 0.327859 0.395996 1.002803
vn -4.933993 -2.130597 2.315914
v 0.314605 0.398482 0.987104
vn -5.103835 -3.415302 0.197054
v 0.317953 0.383034 0.958104
vn -3.335536 -4.049427 3.023240
v 0.353383 0.362254 1.002803
vn -3.960327 -4.382962 0.842287
v 0.343478 0.349293 0.958104
vn -3.833700 -1.659428 4.235210
v 0.327836 0.396042 1.002816
vn -2.813730 -5.182519 1.998938
v 0.356693 0.346856 0.973797
vn -2.241449 -5.384950 2.297622
v 0.501935 0.315700 1.052941
vn -3.240412 -3.191535 4.179152
v 0.353392 0.362260 1.002816
vn -2.199914 -3.306988 4.088587
v 0.498615 0.331101 1.081935
vn -3.687049 -4.943640 0.603156
v 0.389037 0.302880 0.856191
vn -2.788036 -5.486180 1.252146
v 0.401034 0.293880 0.844515
vn -2.791512 -5.476374 1.284161
v 0.355474 0.340293 0.946428
vn -4.728183 -4.100787 -0.246126
v 0.345506 0.347227 0.953567
vn -3.949803 -4.474998 -0.197591
v 0.391066 0.300814 0.851654
vn -2.409727 -5.605991 1.475824
v 0.414249 0.291443 0.860208
vn -3.382981 -4.878089 -0.191515
v 0.403062 0.291813 0.839978
vn -2.312784 -5.686873 1.262562
v 0.416277 0.289377 0.855671
vn -2.404237 -5.556279 1.628178
v 0.368689 0.337856 0.962121
vn -1.976742 -5.831827 1.082468
v 0.416308 0.289366 0.855675
vn -5.069682 -3.659143 -0.599888
v 0.319981 0.380968 0.953567
vn -5.524563 -2.160666 -0.366934
v 0.317925 0.383081 0.958111
vn -5.563358 -2.471044 -1.361382
v 0.319956 0.381012 0.953568
vn -5.312781 -2.835526 -1.334143
v 0.365510 0.334599 0.851653
vn -2.085010 -5.606139 1.899767
v 0.513946 0.306689 1.041251
vn -2.044066 -5.697974 1.681267
v 0.559500 0.260275 0.939336
vn -1.957787 -5.789967 1.413696
v 0.561531 0.258206 0.934793
vn -4.841995 -3.648627 -1.649294
v 0.374342 0.337215 0.819602
vn -4.695786 -3.818980 -1.665123
v 0.399866 0.303474 0.819602
vn -4.954340 -3.656425 -1.090038
v 0.365541 0.334555 0.851654
vn -5.108156 -2.582541 -2.175157
v 0.374320 0.337262 0.819561
vn -4.456593 -4.115532 -1.614960
v 0.411863 0.294473 0.807925
vn -4.705056 -3.700954 -1.890828
v 0.399877 0.303480 0.819561
vn -2.845590 -4.407213 -2.126910
v 0.411887 0.294469 0.807870
vn -2.616455 -5.357457 -0.516067
v 0.403077 0.291805 0.839963
vn 1.040907 -5.447188 2.945981
v 0.589615 0.266712 0.976920
vn 3.418709 -3.254331 2.793106
v 0.591645 0.264643 0.972378
vn 2.856035 -2.755538 3.335178
v 0.544065 0.313124 1.078832
vn -0.465804 -5.475867 2.457851
v 0.547393 0.297726 1.049860
vn 0.310424 -3.917232 3.786433
v 0.532050 0.322137 1.090526
vn 0.923086 -3.937031 3.734649
v 0.544061 0.313125 1.078835
vn 0.533364 -1.733930 4.041178
v 0.532045 0.322143 1.090531
vn -1.807719 -5.451849 2.504111
v 0.535372 0.306744 1.061560
vn 5.520445 -1.292387 2.691445
v 0.593525 0.269142 0.970699
vn 5.656159 -1.289128 2.250066
v 0.628487 0.363117 0.943538
vn 5.422422 -1.163455 2.953325
v 0.624575 0.360685 0.949764
vn 4.847379 -0.664792 3.778450
v 0.579024 0.407099 1.051680
vn 4.577322 -2.964456 2.354454
v 0.591648 0.264640 0.972369
vn 5.714918 -1.582149 2.016432
v 0.593529 0.269143 0.970689
vn 5.423741 -1.164984 2.950297
v 0.626607 0.358615 0.945218
vn -0.370507 -5.546449 2.360306
v 0.592944 0.251312 0.947944
vn 1.839401 -3.769274 1.214614
v 0.594975 0.249242 0.943398
vn 4.387310 4.244450 1.447841
v 0.565044 0.489892 1.013639
vn 4.308894 3.677575 2.450454
v 0.556234 0.487228 1.045732
vn 4.686635 3.761268 1.794249
v 0.568245 0.478217 1.034041
vn 4.709386 3.927334 1.213965
v 0.577055 0.480880 1.001948
vn 2.823430 5.143049 0.349790
v 0.565030 0.489911 1.013622
vn 1.607722 3.505529 3.039437
v 0.556213 0.487246 1.045741
vn 4.588582 3.245168 2.705713
v 0.581790 0.453446 1.045732
vn 4.925385 3.114179 2.178992
v 0.593801 0.444435 1.034041
vn 3.744866 1.828108 4.128843
v 0.581790 0.453437 1.045741
vn 5.096327 3.318023 1.393656
v 0.602611 0.447098 1.001948
vn 5.329650 2.851306 1.189649
v 0.602627 0.447083 1.001922
vn 3.921503 4.599305 -0.044754
v 0.577050 0.480893 1.001922
vn 5.016012 1.110836 2.752658
v 0.593810 0.444418 1.034041
vn 4.919456 3.886146 0.308101
v 0.624640 0.432398 0.895491
vn 5.391229 2.722206 1.006391
v 0.650196 0.398616 0.895491
vn 5.254164 1.286323 0.341260
v 0.650210 0.398599 0.895459
vn 3.351557 4.896643 -0.732012
v 0.622601 0.434479 0.900006
vn 3.930971 4.431946 -0.951417
v 0.624632 0.432409 0.895459
vn 5.649090 0.521681 2.287247
v 0.639362 0.398004 0.932125
vn 5.699040 0.056990 1.890602
v 0.641393 0.395934 0.927579
vn -4.786671 0.425416 1.529331
v 0.314589 0.398517 0.987092
vn -2.410156 -0.917913 5.429684
v 0.473059 0.364883 1.081935
vn -3.548939 0.908942 4.452361
v 0.327831 0.396076 1.002817
vn -0.452271 0.347866 5.773056
v 0.506468 0.355952 1.090531
vn -2.025097 1.180356 5.577290
v 0.473054 0.364911 1.081932
vn -0.721874 -5.882303 -1.703016
v 0.445322 0.285504 0.816461
vn -1.399424 -6.063293 -0.206859
v 0.436512 0.282841 0.848553
vn -0.486873 -6.186255 -0.861928
v 0.590545 0.254345 0.895579
vn -0.977958 -6.156769 -0.252787
v 0.581735 0.251682 0.927672
vn -1.527894 -3.571057 -3.611972
v 0.411914 0.294472 0.807840
vn 0.469807 -4.251480 -3.849200
v 0.445328 0.285513 0.816439
vn 1.336876 -4.439947 -2.703232
v 0.590550 0.254349 0.895554
vn -1.676573 -5.998483 0.684737
v 0.449743 0.280402 0.864265
vn -0.808030 -6.050944 0.283534
v 0.594966 0.249242 0.943384
vn 0.016637 -6.234761 -0.619655
v 0.603776 0.251905 0.911291
vn 2.867019 -3.550152 -0.631054
v 0.603792 0.251907 0.911279
vn -5.829591 -1.410935 -1.813701
v 0.326736 0.385744 0.926018
vn -5.754416 0.248244 -1.970237
v 0.326733 0.385784 0.926002
vn -5.772472 -1.684812 -1.812889
v 0.328766 0.383675 0.921476
vn -5.681457 -0.188731 -2.453347
v 0.328765 0.383714 0.921456
vn -5.091493 -0.782813 -2.986705
v 0.374316 0.337300 0.819539
vn -5.950625 -0.079408 -0.964200
v 0.317917 0.383119 0.958121
vn -4.509299 -3.038879 -2.947740
v 0.386331 0.328251 0.807870
vn -3.705350 -1.706953 -4.305512
v 0.386336 0.328282 0.807840
vn 2.936932 0.538120 5.245486
v 0.567004 0.416117 1.063380
vn 0.469344 1.722850 5.843716
v 0.541426 0.449927 1.063380
vn -0.948064 2.014361 5.875254
v 0.506448 0.355980 1.090519
vn 5.484354 -0.980967 2.897911
v 0.626456 0.365188 0.948084
vn 3.190253 0.820107 5.066319
v 0.568884 0.420620 1.061700
vn 0.969812 2.027525 5.680749
v 0.543307 0.454429 1.061700
vn -0.332148 2.639838 5.660487
v 0.543289 0.454458 1.061687
vn -0.728039 2.260753 5.806598
v 0.541408 0.449954 1.063368
vn 4.921958 -0.423860 3.676002
v 0.580904 0.411601 1.050001
vn 5.820135 -1.805845 1.524761
v 0.596856 0.253744 0.941718
vn 5.863180 -1.674662 1.511458
v 0.631815 0.347719 0.914567
vn 5.897785 -1.566519 1.496439
v 0.644713 0.380524 0.898629
vn 2.437970 5.573696 -1.448675
v 0.579081 0.478822 0.997376
vn 1.958325 5.789754 -1.414012
v 0.406565 0.523517 0.918782
vn 2.112921 5.771193 -1.087117
v 0.551788 0.492353 0.997897
vn 2.370984 5.614580 -1.497223
v 0.553820 0.490282 0.993351
vn 2.044491 5.697883 -1.681072
v 0.408597 0.521447 0.914236
vn -1.729101 4.035828 -1.759906
v 0.373156 0.532469 0.910159
vn -1.838114 3.802040 -1.014504
v 0.373151 0.532476 0.910183
vn 1.677110 5.998223 -0.685466
v 0.518374 0.501311 0.989298
vn 1.399605 6.063247 0.206582
v 0.531616 0.498870 1.005023
vn 2.788045 5.486132 -1.252345
v 0.567061 0.487841 1.009076
vn -0.143426 4.398093 3.062285
v 0.522799 0.496205 1.037142
vn 2.105528 5.614329 -1.858412
v 0.454148 0.475033 0.812319
vn 2.280642 5.440077 -2.148849
v 0.466168 0.466015 0.800619
vn 2.047132 5.573758 -2.049895
v 0.454120 0.475035 0.812295
vn 2.404349 5.556220 -1.628244
v 0.599371 0.443869 0.891435
vn 0.464807 5.475241 -2.458065
v 0.420738 0.483984 0.803694
vn 0.369429 5.545840 -2.360513
v 0.375189 0.530398 0.905611
vn 2.813815 5.182296 -1.999320
v 0.611391 0.434850 0.879735
vn 2.221196 5.370741 -2.358389
v 0.466144 0.466013 0.800591
vn 2.791527 5.476324 -1.284350
v 0.612612 0.441427 0.907159
vn 4.177533 3.910575 -2.224282
v 0.627960 0.417011 0.866488
vn 3.156056 3.697494 -3.377142
v 0.614718 0.419452 0.850763
vn 4.347483 0.089588 -1.466889
v 0.653537 0.383201 0.866488
vn 5.919675 -1.733423 1.078508
v 0.653533 0.383191 0.866496
vn -3.149968 2.728212 4.523818
v 0.362790 0.490051 0.975666
vn -4.923002 2.499957 1.816028
v 0.349548 0.492492 0.959941
vn -5.915260 1.702975 -0.608750
v 0.314597 0.398538 0.987073
vn -1.581864 2.434569 5.491487
v 0.508012 0.458886 1.054781
vn -2.970525 3.096596 4.422158
v 0.364670 0.494553 0.973986
vn -4.667564 2.978573 2.509074
v 0.351429 0.496994 0.958261
vn -5.680300 2.265813 -0.148467
v 0.362454 0.525309 0.943982
vn -5.895379 2.120237 -0.398796
v 0.349556 0.492513 0.959922
vn -1.403107 2.853419 5.337027
v 0.509893 0.463388 1.053101
vn -1.239385 4.445382 2.566442
v 0.377576 0.527370 0.958026
vn -2.692074 3.550633 0.574758
v 0.364335 0.529811 0.942302
vn -5.894217 1.837384 -1.068872
v 0.327495 0.431334 0.971133
vn -5.863131 1.674777 -1.511524
v 0.336315 0.433990 0.938990
vn -5.889205 1.624490 -1.468064
v 0.327495 0.431324 0.971123
vn -5.820131 1.805860 -1.524759
v 0.371271 0.527974 0.911862
vn -3.508455 3.223018 -2.565178
v 0.376478 0.517078 0.881211
vn -5.622802 1.469644 -2.257541
v 0.374598 0.512576 0.882891
vn 0.978184 6.156703 0.252603
v 0.386393 0.530035 0.925907
vn 1.403548 -2.853558 -5.336913
v 0.458234 0.318330 0.800479
vn 2.970527 -3.096599 -4.422155
v 0.603456 0.287165 0.879594
vn 0.231320 -3.077762 -5.434421
v 0.411942 0.294485 0.807833
vn -0.261768 -2.371667 -5.681629
v 0.424840 0.327271 0.791882
vn 4.667533 -2.978605 -2.509154
v 0.616698 0.284724 0.895319
vn 5.680191 -2.265904 0.148200
v 0.605673 0.256410 0.909599
vn 5.895350 -1.823966 1.078414
v 0.640631 0.350384 0.882448
vn 4.927090 -2.451367 -1.656648
v 0.618579 0.289226 0.893639
vn 1.582397 -2.434731 -5.491361
v 0.460114 0.322833 0.798799
vn 3.149967 -2.728212 -4.523819
v 0.605337 0.291668 0.877915
vn 2.197862 -0.070982 -5.197962
v 0.495073 0.416807 0.771648
vn 3.420916 0.170448 -3.930038
v 0.640296 0.385643 0.850763
vn 0.019084 -1.969422 -5.868293
v 0.426722 0.331775 0.790202
vn 0.839058 -0.377920 -5.832694
v 0.461681 0.425749 0.763051
vn 2.201087 3.307355 -4.088608
v 0.469495 0.450617 0.771648
vn 1.807686 5.451502 -2.504552
v 0.432763 0.474962 0.791990
vn 1.694969 3.124458 -4.320449
v 0.436093 0.459572 0.763051
vn -5.897805 1.566326 -1.496546
v 0.323416 0.401205 0.954941
vn -5.656130 1.289109 -2.250187
v 0.339639 0.418601 0.910042
vn -5.484348 0.980957 -2.897926
v 0.341671 0.416531 0.905496
vn -4.921941 0.423887 -3.676012
v 0.387222 0.370117 0.803580
vn -3.190251 -0.820103 -5.066318
v 0.399242 0.361098 0.791880
vn -1.656041 -1.804534 -5.734244
v 0.424820 0.327289 0.791880
vn -5.423935 1.165237 -2.949839
v 0.341520 0.423103 0.908362
vn -5.422402 1.163472 -2.953356
v 0.343552 0.421033 0.903816
vn -4.847378 0.664830 -3.778453
v 0.389103 0.374619 0.801900
vn -2.936938 -0.538114 -5.245480
v 0.401123 0.365601 0.790200
vn -1.271687 -1.471162 -5.940710
v 0.426700 0.331791 0.790200
vn -3.328689 3.271738 -2.977685
v 0.378510 0.515008 0.876665
vn -1.865013 2.814507 -3.094932
v 0.424061 0.468594 0.774749
vn -0.564104 1.918027 -3.755338
v 0.436081 0.459576 0.763049
vn -0.091453 -0.277593 -6.015168
v 0.461659 0.425766 0.763049
# 184 vertices, 0 vertices normals

f 1//1 2//2 3//3
f 1//1 3//3 4//4
f 1//1 5//5 2//2
f 1//1 4//4 5//5
f 2//2 6//6 3//3
f 2//2 5//5 7//7
f 2//2 7//7 6//6
f 3//3 6//6 8//8
f 3//3 8//8 4//4
f 6//6 7//7 9//9
f 6//6 9//9 10//10
f 6//6 11//11 8//8
f 6//6 12//12 11//11
f 6//6 10//10 12//12
f 13//13 14//14 15//15
f 13//13 7//7 16//16
f 13//13 15//15 7//7
f 13//13 17//17 14//14
f 13//13 16//16 17//17
f 14//14 18//18 15//15
f 14//14 17//17 19//19
f 14//14 19//19 20//20
f 14//14 20//20 18//18
f 18//18 21//21 15//15
f 18//18 20//20 22//22
f 18//18 22//22 21//21
f 5//5 23//23 7//7
f 5//5 4//4 24//24
f 5//5 24//24 25//25
f 5//5 26//26 23//23
f 5//5 25//25 26//26
f 7//7 15//15 21//21
f 7//7 21//21 9//9
f 7//7 23//23 16//16
f 9//9 21//21 27//27
f 9//9 27//27 10//10
f 21//21 28//28 27//27
f 21//21 22//22 29//29
f 21//21 29//29 28//28
f 30//30 31//31 17//17
f 30//30 32//32 33//33
f 30//30 17//17 32//32
f 30//30 33//33 31//31
f 31//31 34//34 19//19
f 31//31 19//19 17//17
f 31//31 33//33 35//35
f 31//31 35//35 36//36
f 31//31 36//36 34//34
f 32//32 17//17 16//16
f 32//32 23//23 26//26
f 32//32 16//16 23//23
f 32//32 26//26 33//33
f 34//34 36//36 19//19
f 19//19 36//36 37//37
f 19//19 37//37 20//20
f 20//20 37//37 22//22
f 38//38 39//39 40//40
f 38//38 40//40 41//41
f 38//38 41//41 39//39
f 42//42 43//43 44//44
f 42//42 12//12 45//45
f 42//42 44//44 12//12
f 42//42 45//45 41//41
f 42//42 41//41 43//43
f 43//43 40//40 44//44
f 43//43 41//41 40//40
f 39//39 46//46 47//47
f 39//39 48//48 49//49
f 39//39 49//49 40//40
f 39//39 50//50 51//51
f 39//39 52//52 48//48
f 39//39 51//51 46//46
f 39//39 47//47 52//52
f 39//39 53//53 54//54
f 39//39 41//41 53//53
f 39//39 54//54 50//50
f 46//46 51//51 47//47
f 55//55 56//56 57//57
f 55//55 58//58 59//59
f 55//55 57//57 58//58
f 55//55 59//59 60//60
f 55//55 60//60 56//56
f 56//56 61//61 62//62
f 56//56 62//62 57//57
f 56//56 60//60 63//63
f 56//56 63//63 61//61
f 61//61 63//63 62//62
f 58//58 64//64 65//65
f 58//58 57//57 62//62
f 58//58 62//62 64//64
f 58//58 66//66 59//59
f 58//58 65//65 66//66
f 64//64 62//62 67//67
f 64//64 67//67 65//65
f 62//62 63//63 67//67
f 68//68 69//69 70//70
f 68//68 71//71 66//66
f 68//68 66//66 65//65
f 68//68 65//65 69//69
f 68//68 72//72 71//71
f 68//68 70//70 72//72
f 69//69 73//73 74//74
f 69//69 65//65 67//67
f 69//69 67//67 73//73
f 69//69 74//74 70//70
f 4//4 8//8 75//75
f 4//4 75//75 24//24
f 8//8 11//11 76//76
f 8//8 76//76 77//77
f 8//8 77//77 75//75
f 11//11 12//12 76//76
f 76//76 12//12 78//78
f 76//76 78//78 79//79
f 76//76 79//79 77//77
f 12//12 10//10 45//45
f 12//12 44//44 78//78
f 80//80 81//81 37//37
f 80//80 82//82 83//83
f 80//80 83//83 81//81
f 80//80 36//36 84//84
f 80//80 37//37 36//36
f 80//80 85//85 86//86
f 80//80 86//86 82//82
f 80//80 84//84 85//85
f 81//81 87//87 22//22
f 81//81 83//83 87//87
f 81//81 22//22 37//37
f 87//87 83//83 88//88
f 87//87 88//88 29//29
f 87//87 29//29 22//22
f 82//82 89//89 83//83
f 82//82 86//86 89//89
f 83//83 89//89 88//88
f 89//89 86//86 90//90
f 89//89 90//90 54//54
f 89//89 54//54 88//88
f 88//88 54//54 29//29
f 28//28 29//29 54//54
f 28//28 54//54 27//27
f 91//91 24//24 92//92
f 91//91 93//93 25//25
f 91//91 25//25 24//24
f 91//91 92//92 94//94
f 91//91 95//95 93//93
f 91//91 94//94 95//95
f 24//24 75//75 96//96
f 24//24 96//96 92//92
f 10//10 27//27 41//41
f 10//10 41//41 45//45
f 27//27 53//53 41//41
f 27//27 54//54 53//53
f 33//33 26//26 93//93
f 33//33 97//97 36//36
f 33//33 36//36 35//35
f 33//33 93//93 95//95
f 33//33 95//95 98//98
f 33//33 98//98 97//97
f 26//26 25//25 93//93
f 97//97 98//98 36//36
f 36//36 98//98 84//84
f 78//78 44//44 99//99
f 78//78 100//100 101//101
f 78//78 99//99 100//100
f 78//78 101//101 79//79
f 44//44 40//40 49//49
f 44//44 49//49 99//99
f 48//48 52//52 102//102
f 48//48 102//102 49//49
f 100//100 99//99 103//103
f 100//100 104//104 105//105
f 100//100 103//103 104//104
f 100//100 106//106 101//101
f 100//100 105//105 106//106
f 99//99 49//49 103//103
f 49//49 102//102 107//107
f 49//49 107//107 103//103
f 50//50 54//54 51//51
f 52//52 47//47 102//102
f 102//102 47//47 73//73
f 102//102 73//73 67//67
f 102//102 67//67 107//107
f 104//104 103//103 63//63
f 104//104 60//60 105//105
f 104//104 63//63 60//60
f 103//103 107//107 63//63
f 107//107 67//67 63//63
f 51//51 54//54 108//108
f 51//51 108//108 109//109
f 51//51 109//109 47//47
f 47//47 74//74 73//73
f 47//47 109//109 110//110
f 47//47 110//110 74//74
f 71//71 72//72 111//111
f 71//71 111//111 66//66
f 112//112 113//113 114//114
f 112//112 115//115 116//116
f 112//112 114//114 115//115
f 112//112 117//117 113//113
f 112//112 116//116 117//117
f 113//113 59//59 114//114
f 113//113 117//117 118//118
f 113//113 118//118 119//119
f 113//113 119//119 59//59
f 59//59 66//66 111//111
f 59//59 120//120 114//114
f 59//59 111//111 120//120
f 59//59 119//119 121//121
f 59//59 121//121 60//60
f 60//60 121//121 105//105
f 122//122 123//123 124//124
f 122//122 125//125 123//123
f 122//122 115//115 125//125
f 122//122 124//124 126//126
f 122//122 116//116 115//115
f 122//122 126//126 127//127
f 122//122 127//127 116//116
f 123//123 125//125 128//128
f 123//123 128//128 129//129
f 123//123 129//129 124//124
f 125//125 130//130 72//72
f 125//125 72//72 128//128
f 125//125 115//115 114//114
f 125//125 114//114 130//130
f 128//128 72//72 131//131
f 128//128 132//132 129//129
f 128//128 131//131 132//132
f 130//130 114//114 120//120
f 130//130 120//120 111//111
f 130//130 111//111 72//72
f 72//72 70//70 131//131
f 70//70 74//74 110//110
f 70//70 133//133 131//131
f 70//70 134//134 133//133
f 70//70 110//110 134//134
f 75//75 77//77 135//135
f 75//75 136//136 137//137
f 75//75 135//135 136//136
f 75//75 137//137 96//96
f 77//77 79//79 138//138
f 77//77 138//138 135//135
f 79//79 101//101 138//138
f 136//136 135//135 139//139
f 136//136 140//140 141//141
f 136//136 139//139 140//140
f 136//136 141//141 142//142
f 136//136 142//142 137//137
f 135//135 138//138 139//139
f 138//138 143//143 139//139
f 138//138 101//101 106//106
f 138//138 106//106 105//105
f 138//138 105//105 143//143
f 140//140 139//139 144//144
f 140//140 145//145 141//141
f 140//140 144//144 145//145
f 139//139 143//143 144//144
f 143//143 121//121 144//144
f 143//143 105//105 121//121
f 146//146 141//141 147//147
f 146//146 137//137 141//141
f 146//146 147//147 148//148
f 146//146 148//148 137//137
f 149//149 141//141 145//145
f 149//149 117//117 150//150
f 149//149 145//145 117//117
f 149//149 151//151 147//147
f 149//149 150//150 151//151
f 149//149 147//147 141//141
f 141//141 137//137 142//142
f 117//117 145//145 144//144
f 117//117 152//152 119//119
f 117//117 144//144 152//152
f 117//117 119//119 118//118
f 117//117 116//116 150//150
f 152//152 144//144 119//119
f 144//144 121//121 119//119
f 85//85 153//153 154//154
f 85//85 154//154 86//86
f 85//85 84//84 155//155
f 85//85 155//155 156//156
f 85//85 156//156 153//153
f 86//86 154//154 157//157
f 86//86 157//157 90//90
f 90//90 158//158 54//54
f 90//90 157//157 158//158
f 54//54 158//158 108//108
f 158//158 159//159 109//109
f 158//158 109//109 108//108
f 158//158 157//157 160//160
f 158//158 160//160 134//134
f 158//158 134//134 159//159
f 159//159 134//134 110//110
f 159//159 110//110 109//109
f 153//153 161//161 162//162
f 153//153 162//162 154//154
f 153//153 156//156 161//161
f 154//154 162//162 160//160
f 154//154 160//160 157//157
f 161//161 163//163 164//164
f 161//161 164//164 162//162
f 161//161 156//156 165//165
f 161//161 165//165 166//166
f 161//161 166//166 163//163
f 162//162 164//164 133//133
f 162//162 133//133 160//160
f 160//160 133//133 134//134
f 167//167 163//163 166//166
f 167//167 132//132 163//163
f 167//167 129//129 132//132
f 167//167 168//168 129//129
f 167//167 169//169 168//168
f 167//167 166//166 169//169
f 163//163 132//132 164//164
f 132//132 131//131 164//164
f 164//164 131//131 133//133
f 92//92 96//96 170//170
f 92//92 171//171 94//94
f 92//92 170//170 171//171
f 96//96 137//137 170//170
f 95//95 94//94 172//172
f 95//95 173//173 98//98
f 95//95 172//172 173//173
f 98//98 173//173 174//174
f 98//98 174//174 175//175
f 98//98 175//175 84//84
f 84//84 175//175 156//156
f 84//84 156//156 155//155
f 94//94 171//171 172//172
f 171//171 151//151 176//176
f 171//171 176//176 172//172
f 171//171 170//170 147//147
f 171//171 147//147 151//151
f 151//151 150//150 176//176
f 173//173 172//172 177//177
f 173//173 178//178 174//174
f 173//173 177//177 178//178
f 174//174 178//178 179//179
f 174//174 179//179 180//180
f 174//174 180//180 175//175
f 175//175 180//180 156//156
f 172//172 176//176 177//177
f 176//176 150//150 181//181
f 176//176 181//181 177//177
f 150//150 116//116 127//127
f 150//150 127//127 181//181
f 178//178 177//177 181//181
f 178//178 182//182 183//183
f 178//178 183//183 179//179
f 178//178 181//181 182//182
f 179//179 183//183 184//184
f 179//179 184//184 180//180
f 180//180 184//184 165//165
f 180//180 165//165 156//156
f 182//182 181//181 126//126
f 182//182 126//126 183//183
f 183//183 126//126 168//168
f 183//183 168//168 169//169
f 183//183 169//169 166//166
f 183//183 166//166 184//184
f 184//184 166//166 165//165
f 181//181 127//127 126//126
f 124//124 129//129 168//168
f 124//124 168//168 126//126
f 170//170 137//137 148//148
f 170//170 148//148 147//147
# 364 faces, 0 coords texture

# End of File
