####
#
# OBJ File Generated by Meshlab
#
####
# Object matlab_mesh_step2_link8.obj
#
# Vertices: 204
# Faces: 404
#
####
vn -2.164039 -5.648574 1.696355
v 0.238858 0.368817 0.891760
vn -2.062473 -5.796765 1.159903
v 0.243905 0.363682 0.880488
vn -1.412971 -5.856358 1.537179
v 0.349221 0.341045 0.937625
vn -2.879347 -5.359931 1.253304
v 0.202183 0.381615 0.887140
vn -2.752384 -5.464986 1.233973
v 0.207278 0.376426 0.875747
vn -1.969288 -5.690580 1.775974
v 0.344113 0.346249 0.949050
vn -2.277726 -4.216825 3.430706
v 0.306866 0.370210 0.978887
vn -2.987088 -4.489113 2.602697
v 0.201763 0.392765 0.921628
vn -1.965401 -5.917689 0.726954
v 0.296810 0.331547 0.770817
vn -1.837773 -5.940542 0.894414
v 0.244118 0.363596 0.880363
vn -2.887292 -5.385301 0.563190
v 0.207287 0.376417 0.875730
vn -1.897172 -5.951587 0.490493
v 0.311223 0.324928 0.755200
vn -1.769674 -5.962202 0.893758
v 0.258725 0.356886 0.864530
vn -2.829962 -5.517646 0.097688
v 0.260154 0.344327 0.766055
vn -2.500381 -5.726972 0.062628
v 0.274719 0.337636 0.750267
vn -1.793837 -5.994435 0.095374
v 0.311543 0.324811 0.754875
vn 0.262558 -5.800142 0.565861
v 0.416696 0.302246 0.812093
vn -2.571168 -5.634583 -0.415566
v 0.274762 0.337618 0.750198
vn -0.700928 -5.948706 1.458218
v 0.363828 0.334334 0.921791
vn -1.976875 -5.947204 -0.432487
v 0.311573 0.324803 0.754837
vn -1.532813 -6.049603 -0.284929
v 0.311593 0.324797 0.754831
vn -3.677583 -4.916519 1.045612
v 0.202171 0.381624 0.887149
vn -3.686833 -5.005209 0.205913
v 0.207274 0.376427 0.875738
vn -2.762077 -5.361909 1.641709
v 0.202179 0.381621 0.887155
vn -3.707161 -5.004717 -0.610969
v 0.260145 0.344334 0.766042
vn -3.329350 -5.270664 -0.681930
v 0.260155 0.344329 0.766032
vn -0.180309 -5.700736 2.562218
v 0.343686 0.357407 0.983485
vn 0.389076 -5.605021 2.809922
v 0.360822 0.364428 0.995621
vn 0.542491 -2.780640 4.269329
v 0.360823 0.364450 0.995666
vn -0.427318 -5.761535 2.288006
v 0.348789 0.352209 0.972074
vn 0.374509 -5.643056 2.737531
v 0.365925 0.359230 0.984209
vn -1.291299 -4.783466 3.163839
v 0.343666 0.357422 0.983516
vn -1.220139 -5.780106 2.062831
v 0.348774 0.352218 0.972090
vn 0.474424 -5.612299 2.782516
v 0.375411 0.357725 0.979807
vn 0.690856 -5.713928 2.478155
v 0.380514 0.352527 0.968395
vn 1.761093 -4.661686 3.436525
v 0.375430 0.357740 0.979832
vn 0.121580 -5.825405 2.184533
v 0.363378 0.345507 0.956260
vn 0.733391 -5.909849 1.973134
v 0.416249 0.313414 0.846564
vn 1.651974 -5.605481 2.138495
v 0.433385 0.320434 0.858699
vn 1.620120 -5.230310 2.806569
v 0.380538 0.352536 0.968406
vn 2.587172 -5.241574 1.189457
v 0.433853 0.309275 0.824242
vn 2.413597 -5.216811 2.490873
v 0.433406 0.320447 0.858708
vn 3.999213 -3.211190 1.943559
v 0.433464 0.320456 0.858668
vn -4.069924 -4.668042 0.830110
v 0.174322 0.405089 0.887149
vn -3.775358 -1.876293 3.013878
v 0.173855 0.416277 0.921628
vn -4.068847 -4.770764 -0.000063
v 0.179425 0.399891 0.875738
vn -4.951020 -1.945313 0.015914
v 0.174295 0.405114 0.887155
vn -4.678766 -3.932639 -0.546013
v 0.179403 0.399910 0.875730
vn -3.980210 -4.773373 -0.921867
v 0.264016 0.345504 0.743156
vn -4.566652 -2.402431 -2.189897
v 0.236145 0.368993 0.743117
vn -3.692854 -4.908691 -1.153138
v 0.264029 0.345500 0.743117
vn -4.036786 -4.755608 -0.725925
v 0.232296 0.367798 0.766042
vn -4.285266 -4.489884 -0.859387
v 0.232271 0.367822 0.766032
vn -1.701593 -2.552883 5.322889
v 0.324037 0.377244 0.991047
vn -1.238498 -1.464954 5.982835
v 0.332939 0.387943 0.995666
vn -0.449960 -0.148724 6.066405
v 0.332894 0.388028 0.995677
vn -1.862320 -0.430204 5.358763
v 0.296130 0.400756 0.991047
vn 3.088006 -1.659483 4.686716
v 0.360868 0.364467 0.995650
vn 0.748198 -0.479651 5.809456
v 0.360813 0.364507 0.995677
vn 3.786297 -2.522841 3.480622
v 0.375486 0.357750 0.979803
vn 3.787193 -3.197275 2.840479
v 0.380598 0.352542 0.968368
vn 4.361141 0.265449 4.424204
v 0.402651 0.490617 0.968549
vn 5.053410 -0.074706 3.429852
v 0.417258 0.483907 0.952716
vn 3.302522 2.342266 3.572483
v 0.402642 0.490638 0.968556
vn 3.829764 0.026121 4.881103
v 0.387820 0.452312 0.980765
vn 5.587491 -0.001811 2.600333
v 0.470126 0.451818 0.843017
vn 4.562109 2.460141 2.195834
v 0.417260 0.483922 0.952710
vn 4.969563 -0.773041 3.652173
v 0.402438 0.445596 0.964919
vn 5.718000 -0.450081 1.858287
v 0.475234 0.446614 0.831592
vn 5.189826 2.560151 1.607567
v 0.470126 0.451836 0.843010
vn 5.423686 -1.159160 2.952693
v 0.455304 0.413510 0.855219
vn 6.093949 -0.861717 0.865437
v 0.479109 0.447785 0.808677
vn 5.964175 -1.793366 0.790249
v 0.456813 0.372473 0.819939
vn 4.710218 -0.281970 -1.835313
v 0.479573 0.436616 0.774210
vn 4.898489 1.830951 -0.138426
v 0.479115 0.447800 0.808641
vn 5.762250 1.319773 1.222755
v 0.475238 0.446628 0.831575
vn 5.693634 -1.504062 1.872921
v 0.452939 0.371302 0.842854
vn 5.429866 -1.165579 2.938725
v 0.460416 0.408302 0.843784
vn 5.903951 -1.986552 0.814447
v 0.452162 0.359949 0.823561
vn 4.867417 -1.969800 -1.882275
v 0.457275 0.361304 0.785468
vn 5.670824 -1.578521 1.893835
v 0.448288 0.358778 0.846476
vn 5.438972 -1.176057 2.917653
v 0.438119 0.332990 0.855043
vn 5.827303 -2.183574 0.835420
v 0.437341 0.321628 0.835734
vn 4.920726 -2.359968 -1.663619
v 0.452619 0.348765 0.789095
vn -4.688254 -0.725782 2.428676
v 0.173848 0.416287 0.921621
vn -3.823673 1.130407 4.846990
v 0.191005 0.423315 0.933771
vn -4.929804 0.821449 1.835466
v 0.173839 0.416333 0.921601
vn -3.124376 0.245723 5.182583
v 0.191026 0.423312 0.933788
vn -3.456027 1.630141 4.929447
v 0.191017 0.423370 0.933765
vn -0.862530 -5.334516 -2.228745
v 0.315467 0.325968 0.731917
vn -2.703611 -4.629367 -2.256733
v 0.278636 0.338789 0.727283
vn 0.903282 -5.588571 -1.135243
v 0.420570 0.303417 0.789178
vn -1.815398 -4.020641 -3.521380
v 0.278675 0.338782 0.727261
vn 0.522798 -3.465783 -4.490875
v 0.315506 0.326004 0.731864
vn 2.233889 -3.994491 -3.079811
v 0.420609 0.303449 0.789123
vn 3.099271 -5.338647 -0.152131
v 0.437727 0.310446 0.801328
vn 4.151876 -3.213589 -1.170682
v 0.437780 0.310484 0.801283
vn 4.712165 -3.700622 0.835767
v 0.433903 0.309312 0.824217
vn -5.613051 1.393147 -2.396452
v 0.205115 0.494121 0.849357
vn -5.633715 1.325051 -2.371092
v 0.200465 0.481597 0.852979
vn -5.837987 1.662789 -1.469532
v 0.200468 0.481616 0.852984
vn -5.821591 1.779634 -1.436682
v 0.205123 0.494150 0.849359
vn -3.371259 3.383467 -1.929950
v 0.219945 0.532476 0.837150
vn -5.447075 1.184453 -2.898892
v 0.215290 0.519942 0.840775
vn -5.766358 1.148509 -1.838645
v 0.178171 0.406305 0.864243
vn -5.431326 1.166185 -2.935763
v 0.192993 0.444630 0.852034
vn -5.538715 -0.762209 -1.623347
v 0.178169 0.406285 0.864241
vn -5.074678 -1.672382 -1.885337
v 0.183277 0.401081 0.852815
vn -5.480313 0.967618 -2.909825
v 0.183283 0.401097 0.852808
vn -6.125957 0.766042 -0.469468
v 0.174294 0.405133 0.887177
vn -5.042193 0.104640 -3.459060
v 0.236149 0.369011 0.743108
vn -3.957750 -2.942049 -3.073305
v 0.250752 0.362282 0.727283
vn -3.343807 -1.545455 -4.464900
v 0.250767 0.362294 0.727261
vn 3.691812 -0.172829 4.951266
v 0.383165 0.439778 0.984390
vn 4.929134 -0.834820 3.686418
v 0.397783 0.433062 0.968544
vn 2.149075 0.916727 5.711820
v 0.387767 0.452358 0.980792
vn 5.423308 -1.160321 2.952932
v 0.450649 0.400976 0.858844
vn 1.870835 0.605887 5.796748
v 0.383111 0.439818 0.984418
vn 5.422679 -1.162201 2.953346
v 0.402895 0.427854 0.957109
vn 5.428102 -1.166136 2.941776
v 0.455761 0.395768 0.847409
vn 2.548827 5.633940 0.289600
v 0.378611 0.515322 0.945622
vn 2.277674 4.004720 2.845716
v 0.374734 0.514150 0.968556
vn 3.694943 4.907534 1.150074
v 0.389353 0.507434 0.952710
vn 3.063989 5.302957 0.131320
v 0.393229 0.508606 0.929776
vn 1.648835 5.984964 -0.030404
v 0.341807 0.528112 0.940968
vn 1.236111 5.813236 1.488335
v 0.337929 0.526940 0.963912
vn 1.111394 3.389611 4.274809
v 0.374703 0.514155 0.968566
vn 1.925672 1.559571 5.686764
v 0.402622 0.490634 0.968566
vn 4.264595 4.511738 0.824854
v 0.421137 0.485094 0.929776
vn 3.060688 5.228666 -0.513774
v 0.446095 0.476520 0.820076
vn 2.042101 5.804188 -1.152676
v 0.409296 0.489309 0.815414
vn 1.964214 5.918364 -0.727902
v 0.356431 0.521393 0.925115
vn 4.634977 3.965954 0.477230
v 0.474003 0.453008 0.820076
vn 2.178698 5.615706 -1.787606
v 0.346104 0.493867 0.751382
vn 3.180704 5.113411 -1.195056
v 0.451207 0.471312 0.808641
vn 2.986456 4.489580 -2.601582
v 0.451646 0.460167 0.774190
vn 2.277377 4.217158 -3.430004
v 0.346543 0.482722 0.716931
vn 1.967388 5.690904 -1.776642
v 0.309306 0.506656 0.746717
vn 2.161232 5.650065 -1.695374
v 0.414410 0.484099 0.803975
vn 3.867933 1.842814 -2.820871
v 0.479554 0.436655 0.774190
vn -2.671815 1.623892 5.449646
v 0.213323 0.498623 0.922529
vn -1.340127 1.584799 5.760512
v 0.318426 0.476068 0.979788
vn -3.214316 2.180179 4.778365
v 0.213314 0.498682 0.922507
vn -0.675438 2.008760 5.879339
v 0.323081 0.488602 0.976163
vn 0.531270 1.630898 5.999576
v 0.359848 0.475879 0.980792
vn -0.211907 3.737676 3.794488
v 0.337903 0.526928 0.963954
vn -1.654488 2.341193 5.533080
v 0.323075 0.488664 0.976138
vn -1.974891 2.100523 5.531358
v 0.318418 0.476125 0.979765
vn 0.312843 1.257657 6.079258
v 0.355191 0.463340 0.984418
vn -2.957059 -2.520408 4.763395
v 0.278958 0.393722 0.978887
vn -4.876206 3.601486 -0.683950
v 0.219506 0.543621 0.871601
vn -3.962331 3.317121 1.091463
v 0.215629 0.542449 0.894535
vn -3.038179 4.703681 -1.181000
v 0.219526 0.543632 0.871546
vn -5.827392 2.183225 -0.835624
v 0.216068 0.531304 0.860084
vn -1.946053 4.098238 2.663120
v 0.232800 0.549483 0.906695
vn -3.121106 5.356155 -0.141321
v 0.215647 0.542460 0.894490
vn -4.920707 2.359764 1.663004
v 0.200793 0.504184 0.906716
vn -0.710376 5.834039 0.747188
v 0.232826 0.549497 0.906654
vn -3.149300 2.615913 4.639239
v 0.217971 0.511221 0.918881
vn 0.486424 -1.956820 -5.934066
v 0.330328 0.364330 0.719655
vn 1.496718 -2.290229 -5.572227
v 0.330337 0.364285 0.719672
vn -0.866945 -2.682898 -5.335771
v 0.278709 0.338794 0.727245
vn 3.149273 -2.615883 -4.639282
v 0.435440 0.341728 0.776930
vn -0.531109 -1.630948 -5.999557
v 0.293563 0.377070 0.715019
vn 1.702656 2.555015 -5.321936
v 0.329372 0.475688 0.704771
vn 1.854760 0.447709 -5.367548
v 0.357279 0.452176 0.704771
vn 0.463752 0.180181 -6.055619
v 0.320518 0.464920 0.700134
vn -0.540372 2.008968 -4.479343
v 0.292598 0.488442 0.700134
vn 2.957057 2.520397 -4.763399
v 0.374450 0.459210 0.716931
vn 3.144407 -0.038792 -5.238064
v 0.462382 0.429621 0.762030
vn 3.377239 -1.395638 -5.006714
v 0.462395 0.429579 0.762046
vn 1.173289 -1.523000 -5.855480
v 0.334983 0.376864 0.716030
vn -0.312555 -1.257694 -6.079222
v 0.298220 0.389609 0.711392
vn 2.596806 -1.554733 -5.505263
v 0.357291 0.452136 0.704788
vn 1.835777 -1.966657 -5.586332
v 0.334994 0.376824 0.716046
vn 1.476684 4.760399 -3.209934
v 0.309777 0.495479 0.712299
vn -5.904041 1.986109 -0.815029
v 0.201246 0.492978 0.872293
vn -5.964157 1.793298 -0.790742
v 0.196591 0.480444 0.875918
vn -4.867365 1.969722 1.881678
v 0.196136 0.491645 0.910342
vn -5.423862 1.158639 -2.952574
v 0.198105 0.439422 0.840599
vn -4.969636 0.772768 -3.652080
v 0.250971 0.407336 0.730899
vn -3.961933 0.042454 -4.805675
v 0.265589 0.400620 0.715052
vn -2.381657 -1.169992 -5.489048
v 0.250790 0.362315 0.727245
vn -0.735185 5.909441 -1.974237
v 0.237116 0.539511 0.849309
vn -0.123122 5.825273 -2.185415
v 0.289982 0.507425 0.739610
vn -2.889762 3.474984 -2.678390
v 0.272811 0.500390 0.727450
vn -5.428111 1.166138 -2.941758
v 0.197648 0.457165 0.848409
vn -0.262041 5.799891 -0.566097
v 0.236704 0.550670 0.883710
vn 0.699238 5.948307 -1.458624
v 0.289569 0.518585 0.774010
vn -0.374479 5.643099 -2.737448
v 0.287429 0.493674 0.711603
vn -1.948051 2.734274 -3.828227
v 0.292541 0.488466 0.700168
vn 0.332727 5.769868 -2.318928
v 0.304600 0.500708 0.723763
vn -2.756474 3.017440 -3.130036
v 0.277922 0.495182 0.716015
vn -4.929137 0.834820 -3.686419
v 0.255626 0.419871 0.727274
vn -5.422698 1.162124 -2.953341
v 0.250514 0.425079 0.738709
vn 1.412065 5.855981 -1.538189
v 0.304193 0.511866 0.758156
vn 0.287625 5.587071 -2.735729
v 0.309712 0.495500 0.712328
vn 1.269568 5.793235 -2.012272
v 0.304663 0.500689 0.723738
vn -3.873308 0.231736 -4.853221
v 0.270244 0.413154 0.711428
vn -2.017785 -0.518586 -5.707763
v 0.270301 0.413131 0.711392
vn -5.423316 1.160290 -2.952929
v 0.202760 0.451957 0.836974
vn -2.274757 -0.842763 -5.638865
v 0.265644 0.400591 0.715019
vn 1.771766 5.961963 -0.891185
v 0.394672 0.496028 0.831268
vn 3.210187 -2.169898 -4.783399
v 0.440097 0.354267 0.773304
# 204 vertices, 0 vertices normals

f 1//1 2//2 3//3
f 1//1 4//4 5//5
f 1//1 5//5 2//2
f 1//1 6//6 7//7
f 1//1 3//3 6//6
f 1//1 8//8 4//4
f 1//1 7//7 8//8
f 2//2 9//9 10//10
f 2//2 5//5 11//11
f 2//2 10//10 3//3
f 2//2 11//11 9//9
f 9//9 12//12 13//13
f 9//9 14//14 15//15
f 9//9 15//15 12//12
f 9//9 13//13 10//10
f 9//9 11//11 14//14
f 12//12 16//16 17//17
f 12//12 15//15 18//18
f 12//12 19//19 13//13
f 12//12 17//17 19//19
f 12//12 18//18 16//16
f 16//16 20//20 21//21
f 16//16 21//21 17//17
f 16//16 18//18 20//20
f 4//4 22//22 23//23
f 4//4 23//23 5//5
f 4//4 24//24 22//22
f 4//4 8//8 24//24
f 5//5 23//23 11//11
f 14//14 25//25 26//26
f 14//14 11//11 25//25
f 14//14 26//26 18//18
f 14//14 18//18 15//15
f 27//27 28//28 29//29
f 27//27 30//30 31//31
f 27//27 31//31 28//28
f 27//27 32//32 33//33
f 27//27 29//29 32//32
f 27//27 33//33 30//30
f 28//28 34//34 29//29
f 28//28 31//31 34//34
f 34//34 31//31 35//35
f 34//34 35//35 36//36
f 34//34 36//36 29//29
f 30//30 37//37 31//31
f 30//30 33//33 3//3
f 30//30 3//3 37//37
f 37//37 35//35 31//31
f 37//37 38//38 39//39
f 37//37 39//39 35//35
f 37//37 3//3 19//19
f 37//37 19//19 38//38
f 35//35 39//39 40//40
f 35//35 40//40 36//36
f 38//38 19//19 17//17
f 38//38 17//17 41//41
f 38//38 41//41 39//39
f 39//39 42//42 40//40
f 39//39 41//41 43//43
f 39//39 43//43 42//42
f 20//20 18//18 21//21
f 44//44 22//22 45//45
f 44//44 46//46 22//22
f 44//44 47//47 48//48
f 44//44 48//48 46//46
f 44//44 45//45 47//47
f 22//22 46//46 23//23
f 22//22 24//24 8//8
f 22//22 8//8 45//45
f 46//46 48//48 23//23
f 23//23 25//25 11//11
f 23//23 48//48 25//25
f 49//49 25//25 50//50
f 49//49 50//50 51//51
f 49//49 51//51 25//25
f 52//52 25//25 48//48
f 52//52 48//48 53//53
f 52//52 50//50 25//25
f 52//52 53//53 50//50
f 25//25 51//51 26//26
f 32//32 29//29 54//54
f 32//32 6//6 33//33
f 32//32 7//7 6//6
f 32//32 54//54 7//7
f 55//55 29//29 56//56
f 55//55 57//57 29//29
f 55//55 56//56 57//57
f 29//29 36//36 58//58
f 29//29 58//58 59//59
f 29//29 57//57 54//54
f 29//29 59//59 56//56
f 36//36 40//40 60//60
f 36//36 60//60 58//58
f 33//33 6//6 3//3
f 40//40 42//42 61//61
f 40//40 61//61 60//60
f 42//42 43//43 61//61
f 62//62 63//63 64//64
f 62//62 65//65 63//63
f 62//62 64//64 65//65
f 63//63 66//66 67//67
f 63//63 65//65 68//68
f 63//63 68//68 66//66
f 63//63 67//67 64//64
f 66//66 69//69 70//70
f 66//66 68//68 71//71
f 66//66 71//71 69//69
f 66//66 70//70 67//67
f 72//72 69//69 73//73
f 72//72 73//73 74//74
f 72//72 75//75 76//76
f 72//72 76//76 69//69
f 72//72 74//74 75//75
f 69//69 77//77 73//73
f 69//69 71//71 78//78
f 69//69 78//78 77//77
f 69//69 76//76 70//70
f 73//73 77//77 79//79
f 73//73 79//79 80//80
f 73//73 80//80 74//74
f 77//77 81//81 79//79
f 77//77 78//78 82//82
f 77//77 82//82 81//81
f 79//79 81//81 43//43
f 79//79 83//83 84//84
f 79//79 43//43 83//83
f 79//79 84//84 80//80
f 81//81 82//82 43//43
f 85//85 86//86 87//87
f 85//85 47//47 45//45
f 85//85 45//45 86//86
f 85//85 87//87 47//47
f 86//86 45//45 88//88
f 86//86 88//88 89//89
f 86//86 89//89 87//87
f 10//10 13//13 3//3
f 13//13 19//19 3//3
f 90//90 21//21 91//91
f 90//90 92//92 21//21
f 90//90 91//91 93//93
f 90//90 94//94 95//95
f 90//90 95//95 92//92
f 90//90 93//93 94//94
f 21//21 92//92 17//17
f 21//21 18//18 91//91
f 92//92 96//96 17//17
f 92//92 95//95 97//97
f 92//92 97//97 96//96
f 17//17 96//96 41//41
f 96//96 97//97 98//98
f 96//96 98//98 41//41
f 41//41 98//98 43//43
f 99//99 100//100 101//101
f 99//99 102//102 103//103
f 99//99 101//101 102//102
f 99//99 103//103 104//104
f 99//99 104//104 100//100
f 100//100 105//105 101//101
f 100//100 104//104 106//106
f 100//100 106//106 105//105
f 107//107 47//47 105//105
f 107//107 108//108 48//48
f 107//107 48//48 47//47
f 107//107 105//105 109//109
f 107//107 109//109 108//108
f 47//47 110//110 105//105
f 47//47 87//87 110//110
f 108//108 50//50 53//53
f 108//108 53//53 48//48
f 108//108 109//109 111//111
f 108//108 111//111 50//50
f 50//50 112//112 91//91
f 50//50 91//91 51//51
f 50//50 111//111 113//113
f 50//50 113//113 112//112
f 51//51 91//91 18//18
f 51//51 18//18 26//26
f 112//112 113//113 91//91
f 91//91 113//113 93//93
f 65//65 114//114 115//115
f 65//65 115//115 68//68
f 65//65 64//64 116//116
f 65//65 116//116 114//114
f 68//68 115//115 117//117
f 68//68 117//117 71//71
f 114//114 58//58 115//115
f 114//114 116//116 118//118
f 114//114 118//118 58//58
f 115//115 119//119 117//117
f 115//115 58//58 60//60
f 115//115 60//60 119//119
f 119//119 120//120 117//117
f 119//119 60//60 61//61
f 119//119 61//61 120//120
f 71//71 117//117 78//78
f 78//78 117//117 120//120
f 78//78 120//120 82//82
f 120//120 61//61 43//43
f 120//120 43//43 82//82
f 58//58 118//118 59//59
f 83//83 43//43 98//98
f 83//83 97//97 84//84
f 83//83 98//98 97//97
f 121//121 122//122 123//123
f 121//121 124//124 125//125
f 121//121 123//123 124//124
f 121//121 125//125 126//126
f 121//121 126//126 122//122
f 122//122 64//64 123//123
f 122//122 127//127 128//128
f 122//122 128//128 64//64
f 122//122 126//126 127//127
f 64//64 67//67 123//123
f 64//64 128//128 116//116
f 124//124 129//129 130//130
f 124//124 123//123 67//67
f 124//124 67//67 129//129
f 124//124 130//130 131//131
f 124//124 132//132 125//125
f 124//124 131//131 132//132
f 129//129 67//67 70//70
f 129//129 133//133 130//130
f 129//129 70//70 133//133
f 134//134 135//135 136//136
f 134//134 137//137 138//138
f 134//134 136//136 137//137
f 134//134 138//138 135//135
f 130//130 133//133 135//135
f 130//130 135//135 131//131
f 133//133 70//70 76//76
f 133//133 75//75 135//135
f 133//133 76//76 75//75
f 135//135 75//75 136//136
f 135//135 138//138 139//139
f 135//135 139//139 131//131
f 75//75 140//140 136//136
f 75//75 74//74 140//140
f 141//141 142//142 143//143
f 141//141 88//88 57//57
f 141//141 57//57 142//142
f 141//141 143//143 88//88
f 144//144 142//142 145//145
f 144//144 146//146 147//147
f 144//144 145//145 146//146
f 144//144 147//147 148//148
f 144//144 148//148 142//142
f 142//142 57//57 149//149
f 142//142 149//149 145//145
f 142//142 148//148 143//143
f 45//45 8//8 150//150
f 45//45 150//150 88//88
f 8//8 7//7 150//150
f 88//88 150//150 57//57
f 88//88 143//143 89//89
f 150//150 7//7 57//57
f 7//7 54//54 57//57
f 57//57 56//56 149//149
f 151//151 152//152 153//153
f 151//151 103//103 154//154
f 151//151 154//154 152//152
f 151//151 153//153 103//103
f 152//152 155//155 156//156
f 152//152 154//154 157//157
f 152//152 157//157 155//155
f 152//152 156//156 153//153
f 155//155 146//146 158//158
f 155//155 157//157 159//159
f 155//155 159//159 146//146
f 155//155 158//158 156//156
f 146//146 145//145 127//127
f 146//146 127//127 126//126
f 146//146 159//159 147//147
f 146//146 126//126 158//158
f 94//94 160//160 161//161
f 94//94 93//93 162//162
f 94//94 161//161 163//163
f 94//94 163//163 95//95
f 94//94 162//162 164//164
f 94//94 164//164 160//160
f 95//95 163//163 84//84
f 95//95 84//84 97//97
f 165//165 166//166 167//167
f 165//165 137//137 166//166
f 165//165 168//168 137//137
f 165//165 167//167 168//168
f 166//166 137//137 169//169
f 166//166 169//169 170//170
f 166//166 170//170 171//171
f 166//166 172//172 173//173
f 166//166 174//174 175//175
f 166//166 171//171 174//174
f 166//166 175//175 172//172
f 166//166 173//173 167//167
f 137//137 136//136 169//169
f 137//137 168//168 176//176
f 137//137 176//176 138//138
f 169//169 136//136 140//140
f 169//169 140//140 170//170
f 170//170 140//140 74//74
f 170//170 74//74 171//171
f 172//172 160//160 164//164
f 172//172 175//175 160//160
f 172//172 164//164 173//173
f 160//160 175//175 161//161
f 102//102 177//177 154//154
f 102//102 101//101 177//177
f 102//102 154//154 103//103
f 177//177 101//101 178//178
f 177//177 178//178 179//179
f 177//177 157//157 154//154
f 177//177 179//179 157//157
f 101//101 105//105 178//178
f 178//178 105//105 110//110
f 178//178 110//110 87//87
f 178//178 87//87 179//179
f 105//105 106//106 109//109
f 109//109 106//106 180//180
f 109//109 180//180 111//111
f 111//111 180//180 181//181
f 111//111 181//181 113//113
f 113//113 181//181 182//182
f 113//113 182//182 183//183
f 113//113 183//183 93//93
f 93//93 183//183 162//162
f 103//103 184//184 185//185
f 103//103 186//186 187//187
f 103//103 185//185 186//186
f 103//103 187//187 104//104
f 103//103 153//153 184//184
f 184//184 153//153 188//188
f 184//184 188//188 189//189
f 184//184 189//189 185//185
f 104//104 187//187 106//106
f 186//186 190//190 191//191
f 186//186 185//185 192//192
f 186//186 192//192 190//190
f 186//186 193//193 194//194
f 186//186 191//191 193//193
f 186//186 195//195 187//187
f 186//186 194//194 195//195
f 190//190 192//192 191//191
f 185//185 189//189 196//196
f 185//185 196//196 192//192
f 192//192 197//197 191//191
f 192//192 196//196 198//198
f 192//192 198//198 197//197
f 193//193 191//191 194//194
f 191//191 197//197 168//168
f 191//191 199//199 194//194
f 191//191 168//168 200//200
f 191//191 200//200 199//199
f 197//197 198//198 176//176
f 197//197 176//176 168//168
f 187//187 201//201 106//106
f 187//187 195//195 201//201
f 201//201 180//180 106//106
f 201//201 195//195 194//194
f 201//201 194//194 181//181
f 201//201 181//181 180//180
f 194//194 199//199 182//182
f 194//194 182//182 181//181
f 199//199 200//200 202//202
f 199//199 202//202 182//182
f 182//182 202//202 183//183
f 145//145 116//116 128//128
f 145//145 149//149 116//116
f 145//145 128//128 127//127
f 116//116 149//149 118//118
f 149//149 56//56 118//118
f 118//118 56//56 59//59
f 157//157 179//179 159//159
f 159//159 179//179 143//143
f 159//159 143//143 147//147
f 179//179 87//87 89//89
f 179//179 89//89 143//143
f 143//143 148//148 147//147
f 153//153 156//156 188//188
f 156//156 158//158 188//188
f 188//188 158//158 125//125
f 188//188 125//125 203//203
f 188//188 203//203 189//189
f 158//158 126//126 125//125
f 125//125 132//132 203//203
f 132//132 131//131 203//203
f 189//189 203//203 196//196
f 196//196 138//138 198//198
f 196//196 203//203 131//131
f 196//196 131//131 139//139
f 196//196 139//139 138//138
f 138//138 176//176 198//198
f 174//174 171//171 204//204
f 174//174 204//204 175//175
f 171//171 74//74 80//80
f 171//171 80//80 204//204
f 175//175 204//204 161//161
f 161//161 204//204 163//163
f 204//204 80//80 84//84
f 204//204 84//84 163//163
f 183//183 202//202 164//164
f 183//183 164//164 162//162
f 168//168 167//167 200//200
f 167//167 173//173 200//200
f 200//200 173//173 202//202
f 173//173 164//164 202//202
# 404 faces, 0 coords texture

# End of File
