####
#
# OBJ File Generated by Meshlab
#
####
# Object matlab_mesh_step7_link2.obj
#
# Vertices: 160
# Faces: 316
#
####
vn 0.457951 -3.054597 3.157973
v 0.192891 0.063271 0.930396
vn 2.049557 -3.299643 3.416873
v 0.193096 0.063384 0.930396
vn -0.060310 -1.265359 6.067327
v 0.194449 0.073311 0.932553
vn 2.989486 -5.491195 0.592250
v 0.193010 0.063331 0.930354
vn -0.286417 -0.962847 6.080003
v 0.194449 0.073320 0.932555
vn -1.323523 -0.866437 6.059216
v 0.186002 0.085146 0.932556
vn -1.934077 0.484775 5.312043
v 0.115598 0.193216 0.932556
vn -1.200791 -0.823326 6.082400
v 0.188067 0.082013 0.932555
vn -3.688231 0.865696 3.422599
v -0.053482 0.083057 0.810586
vn -3.106808 -2.036017 5.038431
v 0.016918 -0.024991 0.810587
vn -3.054414 -2.124156 5.027952
v 0.018975 -0.028111 0.810587
vn -0.276255 -3.765545 3.041752
v 0.025371 -0.036820 0.810587
vn -0.767736 -3.681536 1.310400
v 0.024809 -0.037191 0.809995
vn 3.348488 -3.363762 2.515141
v 0.193215 0.063443 0.930354
vn 2.468420 -1.781886 5.096205
v 0.197794 0.075489 0.932553
vn 4.598047 3.128875 2.845601
v 0.191245 0.203635 0.829830
vn 4.260814 3.306153 3.223778
v 0.176867 0.231374 0.820388
vn 4.005839 3.118150 3.645957
v 0.119624 0.195829 0.931654
vn 4.383582 3.311658 3.038700
v 0.176790 0.231526 0.820334
vn 4.585214 3.296975 2.751706
v 0.182634 0.223814 0.820019
vn 4.707963 3.273082 2.550257
v 0.182619 0.223855 0.819994
vn 4.896870 3.207506 2.282240
v 0.184678 0.220746 0.819972
vn 4.194214 2.894275 3.639224
v 0.126015 0.187127 0.931654
vn 4.286439 2.803495 3.620794
v 0.128076 0.184000 0.931654
vn 4.404726 2.345530 3.715831
v 0.198460 0.075963 0.931659
vn 4.344844 0.937419 -0.570167
v 0.255023 0.112807 0.819911
vn 4.343691 -3.880522 1.271515
v 0.193530 0.063615 0.929804
vn 4.566947 -2.259178 0.973267
v 0.250751 0.094918 0.829861
vn 5.295404 -2.451866 2.328098
v 0.198462 0.075929 0.931643
vn 3.178600 -5.406759 0.281827
v 0.193191 0.063422 0.930256
vn 3.268441 -5.360664 0.192284
v 0.193506 0.063595 0.929706
vn 4.223294 -3.541260 -1.221993
v 0.250727 0.094898 0.829763
vn 5.540622 -0.811867 0.688066
v 0.255018 0.112762 0.819938
vn 5.602723 0.242652 2.830983
v 0.255011 0.112738 0.819953
vn 4.964802 0.891269 3.367907
v 0.198464 0.075958 0.931657
vn 5.318412 -2.034747 2.591686
v 0.198465 0.075941 0.931649
vn 5.368326 -0.959252 2.960087
v 0.198466 0.075951 0.931654
vn 3.004917 -5.503487 0.400442
v 0.192986 0.063310 0.930256
vn 2.741027 -1.379028 4.403928
v 0.197800 0.075503 0.932555
vn -4.255612 -3.524209 -2.740052
v 0.022251 -0.030085 0.803380
vn -4.125864 -3.911374 -2.431665
v 0.024796 -0.037166 0.809966
vn -4.892910 -3.424121 -1.939211
v 0.018429 -0.028499 0.809977
vn -5.028819 -3.291174 -1.803103
v 0.016356 -0.025360 0.809986
vn -3.649422 -0.337234 0.866406
v -0.054041 0.082688 0.809997
vn -4.291806 -3.100900 -3.380395
v 0.074974 0.008358 0.698254
vn -0.521963 -4.148462 -1.885366
v 0.081365 -0.000345 0.698254
vn -3.956575 0.990388 -0.963279
v -0.054041 0.082689 0.809996
vn -4.659934 -2.681985 -3.242904
v -0.002358 0.116362 0.707882
vn -4.207647 -2.756994 -3.727378
v 0.072914 0.011488 0.698250
vn -4.130317 -2.849555 -3.735202
v 0.074971 0.008368 0.698249
vn -3.780317 1.084499 -1.889707
v 0.002518 0.119539 0.698247
vn 5.039079 -0.717889 0.020479
v 0.255022 0.112781 0.819925
vn 4.597777 -2.644972 -3.316625
v 0.254455 0.112407 0.819329
vn 1.001731 -4.306675 -2.545723
v 0.082027 0.000092 0.697352
vn 2.887007 -4.023250 -2.814775
v 0.085381 0.002277 0.697352
vn 2.352265 -1.152834 -4.228509
v 0.085384 0.002280 0.697351
vn 4.385460 3.319245 3.026490
v 0.176717 0.231668 0.820284
vn 4.387683 3.328783 3.011101
v 0.176649 0.231802 0.820236
vn 4.389707 3.338491 2.995690
v 0.176585 0.231926 0.820192
vn 4.392540 3.349724 2.976609
v 0.176526 0.232040 0.820151
vn 4.395293 3.361902 2.956127
v 0.176471 0.232146 0.820113
vn 4.398926 3.376356 2.930488
v 0.176421 0.232242 0.820078
vn 4.748127 3.298782 2.438492
v 0.182607 0.223891 0.819972
vn 4.403269 3.394601 2.897497
v 0.176375 0.232328 0.820047
vn 4.407851 3.414864 2.860192
v 0.176334 0.232406 0.820019
vn 4.797714 3.334510 2.283741
v 0.182595 0.223920 0.819953
vn 4.413864 3.441218 2.808597
v 0.176297 0.232474 0.819994
vn 4.420930 3.476072 2.737566
v 0.176265 0.232533 0.819972
vn 4.867774 3.384694 2.038075
v 0.182586 0.223943 0.819938
vn 4.429060 3.521413 2.637851
v 0.176237 0.232582 0.819953
vn 4.933437 3.231499 2.163195
v 0.184666 0.220778 0.819953
vn 4.435863 3.587968 2.475779
v 0.176214 0.232622 0.819938
vn 3.061485 3.968961 3.407959
v 0.119614 0.195838 0.931657
vn 4.966595 3.455097 1.610466
v 0.182579 0.223960 0.819926
vn 5.003705 3.277869 1.913507
v 0.184654 0.220805 0.819938
vn -3.968013 -4.090204 -2.174379
v 0.024800 -0.037178 0.809977
vn -4.978505 -3.475267 -1.498767
v 0.018421 -0.028493 0.809985
vn 4.430068 3.687921 2.186203
v 0.176196 0.232653 0.819926
vn 5.099333 3.340740 1.488408
v 0.184644 0.220828 0.819925
vn 4.281896 2.165932 -1.521314
v 0.255019 0.112814 0.819908
vn -3.581105 -4.366633 -1.665610
v 0.024804 -0.037186 0.809985
vn -0.466902 -0.304457 6.233342
v 0.185997 0.085159 0.932556
vn -0.629639 -0.272953 6.191433
v 0.115608 0.193207 0.932556
vn -0.470163 -0.306292 6.232666
v 0.182455 0.090595 0.932556
vn -0.477917 -0.317469 6.231432
v 0.188058 0.082032 0.932556
vn -0.152224 -0.323705 6.253025
v 0.194449 0.073329 0.932556
vn 2.680689 -0.683785 4.547492
v 0.197804 0.075515 0.932556
vn 5.073140 3.534401 0.710121
v 0.182573 0.223972 0.819917
vn 4.328460 3.833337 1.528542
v 0.176182 0.232674 0.819917
vn 5.202767 3.408711 0.596686
v 0.184634 0.220845 0.819917
vn 4.551015 -1.989334 -3.742833
v 0.254459 0.112424 0.819323
vn 4.817164 -0.064930 -0.150740
v 0.255024 0.112796 0.819917
vn -5.176345 -3.389343 -0.602874
v 0.016355 -0.025360 0.809992
vn -5.054148 -3.528723 -0.135044
v 0.018416 -0.028487 0.809992
vn -0.583588 -5.576538 -2.134270
v 0.076494 -0.003518 0.707877
vn -2.202885 -4.503736 -0.423702
v 0.024807 -0.037190 0.809992
vn 0.046772 0.030470 6.282689
v 0.128895 0.181254 0.932556
vn 1.800643 1.440232 5.211724
v 0.118962 0.195393 0.932556
vn 0.897839 2.286850 4.695113
v 0.118956 0.195403 0.932556
vn 1.643475 1.095039 5.584727
v 0.125353 0.186690 0.932556
vn 0.046756 0.030280 6.282690
v 0.195743 0.078642 0.932556
vn -0.004616 -0.003575 6.283180
v 0.192388 0.076456 0.932556
vn 3.376297 2.392928 4.650646
v 0.125352 0.186694 0.932556
vn 1.715824 1.118327 5.570178
v 0.127414 0.183563 0.932556
vn 3.580302 2.351600 4.556407
v 0.127409 0.183574 0.932555
vn 0.412666 0.268837 6.252187
v 0.130956 0.178127 0.932556
vn 2.989495 0.418968 4.696629
v 0.197805 0.075524 0.932555
vn 3.688848 1.965121 4.558291
v 0.197805 0.075531 0.932553
vn 4.617760 3.256859 -1.752556
v 0.182570 0.223977 0.819911
vn 2.927105 4.576850 2.990781
v 0.124489 0.199013 0.922027
vn 3.148275 3.728924 -0.234525
v 0.176173 0.232687 0.819911
vn 4.745002 3.110731 -1.845085
v 0.184626 0.220857 0.819911
vn 3.940296 2.779924 4.019883
v 0.126011 0.187128 0.931657
vn 4.042451 2.655091 4.006437
v 0.128067 0.184008 0.931657
vn 4.955132 2.129685 3.210260
v 0.203339 0.079134 0.922026
vn -4.355681 -2.856577 2.503791
v 0.016356 -0.025361 0.809996
vn -3.093552 -3.649383 -3.864546
v 0.081368 -0.000342 0.698249
vn -0.693780 -2.302256 -4.511333
v 0.082026 0.000093 0.697351
vn -4.281843 -2.914799 2.626539
v 0.018412 -0.028481 0.809995
vn 2.190583 1.782224 -5.575068
v 0.006540 0.122155 0.697352
vn 2.428727 1.707440 -5.524789
v 0.012931 0.113453 0.697352
vn 1.142823 0.778993 -5.965147
v 0.012930 0.113450 0.697351
vn -0.467261 2.718747 -3.940891
v 0.006534 0.122159 0.697351
vn -0.097695 3.597474 -2.592988
v 0.175609 0.232321 0.819320
vn 3.037424 2.114929 -5.039544
v 0.182008 0.223608 0.819320
vn 2.493449 1.630837 -5.522990
v 0.014992 0.110326 0.697352
vn 1.146067 0.754865 -5.967599
v 0.014987 0.110330 0.697351
vn 3.093092 2.027437 -5.048278
v 0.184059 0.220496 0.819320
vn 1.144908 0.745927 -5.970441
v 0.018532 0.104890 0.697351
vn 3.098464 2.018805 -5.049156
v 0.187606 0.215053 0.819320
vn 3.528175 1.270134 -4.871881
v 0.254460 0.112445 0.819320
vn 2.648486 1.885958 -5.374851
v 0.251660 0.110621 0.817300
vn 4.156971 -0.493513 -4.413228
v 0.254461 0.112437 0.819319
vn 3.827239 -0.560699 -4.799064
v 0.251662 0.110613 0.817300
vn -0.891149 3.976831 2.546528
v 0.118954 0.195406 0.932553
vn -3.055378 2.771846 2.783360
v 0.115595 0.193218 0.932553
vn -4.048310 1.708605 4.068740
v -0.050682 0.084881 0.812606
vn -3.930214 4.264683 1.520465
v -0.053479 0.083059 0.810587
vn -3.443770 5.255320 0.002734
v -0.052820 0.083494 0.809689
vn -3.432200 5.262881 0.015447
v 0.116251 0.193650 0.931659
vn -3.485191 5.227591 -0.034867
v -0.053382 0.083123 0.809097
vn -0.402015 4.804574 1.840745
v 0.119609 0.195839 0.931659
vn -3.434997 5.261026 -0.018176
v 0.003733 0.120340 0.697941
vn -0.638804 5.229848 1.401295
v 0.124486 0.199016 0.922025
vn 0.678845 3.556961 -0.957849
v 0.176168 0.232689 0.819909
vn -3.398854 5.283704 -0.060607
v 0.173369 0.230865 0.817889
vn -3.400667 5.282523 -0.061372
v 0.007092 0.122528 0.697941
vn 3.779275 2.641715 -4.197966
v 0.182568 0.223977 0.819909
vn 3.868487 2.542257 -4.185653
v 0.184619 0.220865 0.819908
vn 3.868926 2.520791 -4.202932
v 0.188165 0.215422 0.819908
vn -2.874547 1.308815 -2.521144
v 0.003173 0.119971 0.697353
vn -2.023437 -1.325768 -5.211285
v 0.073573 0.011922 0.697351
vn -1.957473 -1.363376 -5.185345
v 0.075630 0.008802 0.697351
vn -1.852563 1.642841 -4.507970
v 0.003176 0.119972 0.697351
vn -1.182042 -0.770127 -5.975554
v 0.070028 0.017362 0.697351
vn 0.004626 0.003583 -6.283180
v 0.008590 0.119039 0.697351
vn -0.046932 -0.030397 -6.282686
v 0.005233 0.116852 0.697351
vn -2.969505 4.988984 -1.643366
v 0.006532 0.122159 0.697353
vn -0.046962 -0.030597 -6.282685
v 0.072085 0.014242 0.697351
vn 0.471256 1.578467 -2.078903
v 0.172809 0.230496 0.817300
# 160 vertices, 0 vertices normals

f 1//1 2//2 3//3
f 1//1 4//4 2//2
f 1//1 3//3 5//5
f 1//1 6//6 7//7
f 1//1 8//8 6//6
f 1//1 5//5 8//8
f 1//1 7//7 9//9
f 1//1 10//10 11//11
f 1//1 11//11 12//12
f 1//1 12//12 13//13
f 1//1 13//13 4//4
f 1//1 9//9 10//10
f 2//2 4//4 14//14
f 2//2 14//14 15//15
f 2//2 15//15 3//3
f 16//16 17//17 18//18
f 16//16 19//19 17//17
f 16//16 20//20 19//19
f 16//16 21//21 20//20
f 16//16 22//22 21//21
f 16//16 18//18 23//23
f 16//16 23//23 24//24
f 16//16 24//24 25//25
f 16//16 26//26 22//22
f 16//16 25//25 26//26
f 27//27 28//28 29//29
f 27//27 14//14 30//30
f 27//27 31//31 28//28
f 27//27 30//30 31//31
f 27//27 29//29 14//14
f 28//28 31//31 32//32
f 28//28 32//32 33//33
f 28//28 34//34 35//35
f 28//28 33//33 34//34
f 28//28 36//36 29//29
f 28//28 37//37 36//36
f 28//28 35//35 37//37
f 4//4 38//38 30//30
f 4//4 30//30 14//14
f 4//4 13//13 38//38
f 14//14 29//29 36//36
f 14//14 39//39 15//15
f 14//14 36//36 39//39
f 40//40 41//41 42//42
f 40//40 42//42 43//43
f 40//40 43//43 44//44
f 40//40 45//45 46//46
f 40//40 46//46 41//41
f 40//40 47//47 48//48
f 40//40 49//49 50//50
f 40//40 50//50 45//45
f 40//40 51//51 49//49
f 40//40 44//44 47//47
f 40//40 48//48 51//51
f 31//31 30//30 13//13
f 31//31 13//13 32//32
f 32//32 52//52 33//33
f 32//32 53//53 52//52
f 32//32 46//46 54//54
f 32//32 54//54 55//55
f 32//32 55//55 56//56
f 32//32 13//13 46//46
f 32//32 56//56 53//53
f 38//38 13//13 30//30
f 17//17 19//19 18//18
f 19//19 57//57 18//18
f 19//19 20//20 57//57
f 57//57 58//58 18//18
f 57//57 20//20 58//58
f 58//58 59//59 18//18
f 58//58 20//20 21//21
f 58//58 21//21 59//59
f 59//59 60//60 18//18
f 59//59 21//21 60//60
f 60//60 61//61 18//18
f 60//60 21//21 61//61
f 61//61 62//62 18//18
f 61//61 21//21 63//63
f 61//61 63//63 62//62
f 62//62 64//64 18//18
f 62//62 63//63 64//64
f 64//64 65//65 18//18
f 64//64 63//63 66//66
f 64//64 66//66 65//65
f 65//65 67//67 18//18
f 65//65 66//66 67//67
f 67//67 68//68 18//18
f 67//67 66//66 69//69
f 67//67 69//69 68//68
f 21//21 22//22 63//63
f 68//68 70//70 18//18
f 68//68 69//69 70//70
f 63//63 22//22 71//71
f 63//63 71//71 66//66
f 22//22 26//26 71//71
f 70//70 72//72 73//73
f 70//70 69//69 74//74
f 70//70 74//74 72//72
f 70//70 73//73 18//18
f 66//66 71//71 75//75
f 66//66 75//75 69//69
f 71//71 26//26 75//75
f 34//34 33//33 35//35
f 41//41 76//76 77//77
f 41//41 77//77 42//42
f 41//41 46//46 76//76
f 3//3 15//15 5//5
f 15//15 39//39 5//5
f 72//72 78//78 73//73
f 72//72 74//74 78//78
f 69//69 75//75 79//79
f 69//69 79//79 74//74
f 75//75 26//26 80//80
f 75//75 80//80 79//79
f 33//33 52//52 35//35
f 42//42 77//77 43//43
f 76//76 81//81 77//77
f 76//76 46//46 81//81
f 6//6 8//8 82//82
f 6//6 83//83 7//7
f 6//6 84//84 83//83
f 6//6 82//82 84//84
f 8//8 5//5 85//85
f 8//8 85//85 82//82
f 5//5 39//39 86//86
f 5//5 86//86 85//85
f 39//39 36//36 87//87
f 39//39 87//87 86//86
f 78//78 74//74 88//88
f 78//78 89//89 73//73
f 78//78 88//88 89//89
f 74//74 79//79 90//90
f 74//74 90//90 88//88
f 79//79 80//80 90//90
f 52//52 53//53 91//91
f 52//52 92//92 35//35
f 52//52 91//91 92//92
f 36//36 37//37 87//87
f 43//43 77//77 93//93
f 43//43 93//93 44//44
f 77//77 81//81 94//94
f 77//77 94//94 93//93
f 81//81 46//46 95//95
f 81//81 96//96 94//94
f 81//81 95//95 96//96
f 53//53 56//56 91//91
f 83//83 84//84 97//97
f 83//83 98//98 99//99
f 83//83 100//100 98//98
f 83//83 97//97 100//100
f 83//83 99//99 7//7
f 84//84 82//82 101//101
f 84//84 101//101 97//97
f 82//82 102//102 101//101
f 82//82 85//85 102//102
f 102//102 85//85 86//86
f 102//102 86//86 101//101
f 98//98 100//100 103//103
f 98//98 18//18 99//99
f 98//98 103//103 18//18
f 100//100 97//97 104//104
f 100//100 104//104 105//105
f 100//100 105//105 103//103
f 97//97 101//101 106//106
f 97//97 106//106 104//104
f 101//101 86//86 87//87
f 101//101 87//87 106//106
f 104//104 106//106 107//107
f 104//104 107//107 108//108
f 104//104 108//108 105//105
f 106//106 87//87 107//107
f 87//87 37//37 107//107
f 89//89 88//88 109//109
f 89//89 110//110 73//73
f 89//89 111//111 110//110
f 89//89 109//109 111//111
f 88//88 90//90 112//112
f 88//88 112//112 109//109
f 18//18 103//103 113//113
f 18//18 73//73 99//99
f 18//18 113//113 23//23
f 23//23 113//113 114//114
f 23//23 114//114 24//24
f 90//90 80//80 112//112
f 24//24 114//114 25//25
f 92//92 91//91 26//26
f 92//92 115//115 35//35
f 92//92 26//26 115//115
f 37//37 35//35 107//107
f 93//93 94//94 116//116
f 93//93 116//116 44//44
f 45//45 50//50 46//46
f 46//46 50//50 117//117
f 46//46 117//117 118//118
f 46//46 13//13 95//95
f 46//46 118//118 54//54
f 94//94 96//96 119//119
f 94//94 119//119 116//116
f 96//96 95//95 13//13
f 96//96 13//13 119//119
f 120//120 121//121 122//122
f 120//120 123//123 124//124
f 120//120 122//122 123//123
f 120//120 124//124 125//125
f 120//120 125//125 121//121
f 121//121 126//126 127//127
f 121//121 127//127 122//122
f 121//121 125//125 128//128
f 121//121 128//128 126//126
f 54//54 118//118 55//55
f 126//126 129//129 127//127
f 126//126 56//56 129//129
f 126//126 128//128 130//130
f 126//126 130//130 131//131
f 126//126 131//131 132//132
f 126//126 132//132 56//56
f 91//91 133//133 26//26
f 91//91 134//134 133//133
f 91//91 56//56 134//134
f 55//55 118//118 56//56
f 7//7 99//99 135//135
f 7//7 136//136 137//137
f 7//7 137//137 9//9
f 7//7 135//135 136//136
f 138//138 139//139 47//47
f 138//138 47//47 44//44
f 138//138 136//136 140//140
f 138//138 137//137 136//136
f 138//138 9//9 137//137
f 138//138 140//140 139//139
f 138//138 44//44 9//9
f 10//10 116//116 11//11
f 10//10 9//9 44//44
f 10//10 44//44 116//116
f 99//99 73//73 135//135
f 103//103 105//105 113//113
f 11//11 116//116 119//119
f 11//11 119//119 12//12
f 12//12 119//119 13//13
f 105//105 114//114 113//113
f 105//105 108//108 114//114
f 107//107 35//35 108//108
f 139//139 141//141 47//47
f 139//139 140//140 142//142
f 139//139 143//143 141//141
f 139//139 144//144 145//145
f 139//139 145//145 146//146
f 139//139 142//142 144//144
f 139//139 146//146 147//147
f 139//139 147//147 143//143
f 110//110 111//111 144//144
f 110//110 144//144 142//142
f 110//110 142//142 73//73
f 111//111 109//109 148//148
f 111//111 145//145 144//144
f 111//111 148//148 145//145
f 109//109 112//112 149//149
f 109//109 149//149 148//148
f 73//73 142//142 135//135
f 112//112 150//150 149//149
f 112//112 80//80 150//150
f 114//114 108//108 25//25
f 115//115 26//26 25//25
f 115//115 25//25 35//35
f 26//26 133//133 80//80
f 35//35 25//25 108//108
f 47//47 141//141 151//151
f 47//47 51//51 48//48
f 47//47 151//151 51//51
f 49//49 152//152 50//50
f 49//49 51//51 151//151
f 49//49 151//151 152//152
f 50//50 152//152 153//153
f 50//50 153//153 117//117
f 117//117 153//153 118//118
f 154//154 155//155 151//151
f 154//154 123//123 156//156
f 154//154 157//157 155//155
f 154//154 156//156 157//157
f 154//154 151//151 158//158
f 154//154 158//158 123//123
f 155//155 152//152 151//151
f 155//155 157//157 159//159
f 155//155 159//159 152//152
f 141//141 143//143 151//151
f 152//152 159//159 153//153
f 123//123 122//122 127//127
f 123//123 127//127 156//156
f 123//123 160//160 124//124
f 123//123 158//158 160//160
f 157//157 156//156 127//127
f 157//157 127//127 129//129
f 157//157 129//129 159//159
f 159//159 129//129 56//56
f 159//159 56//56 153//153
f 153//153 56//56 118//118
f 133//133 134//134 131//131
f 133//133 131//131 80//80
f 134//134 56//56 131//131
f 56//56 132//132 131//131
f 136//136 135//135 140//140
f 135//135 142//142 140//140
f 143//143 147//147 151//151
f 145//145 148//148 125//125
f 145//145 124//124 146//146
f 145//145 125//125 124//124
f 148//148 149//149 128//128
f 148//148 128//128 125//125
f 146//146 124//124 160//160
f 146//146 160//160 147//147
f 147//147 160//160 158//158
f 147//147 158//158 151//151
f 149//149 150//150 128//128
f 150//150 80//80 131//131
f 150//150 130//130 128//128
f 150//150 131//131 130//130
# 316 faces, 0 coords texture

# End of File
