####
#
# OBJ File Generated by Meshlab
#
####
# Object matlab_mesh_step4_link3.obj
#
# Vertices: 214
# Faces: 424
#
####
vn 0.676503 -5.312889 2.944892
v 0.416300 0.069233 1.021135
vn 2.524858 -4.346428 2.368827
v 0.417063 0.069367 1.021118
vn 0.193621 -4.643572 4.045047
v 0.407021 0.076271 1.031369
vn -2.060979 -4.540928 1.180655
v 0.232648 -0.001020 0.897736
vn -1.515412 -4.846001 0.193287
v 0.232651 -0.001022 0.897730
vn -0.787023 -2.890181 4.824332
v 0.337489 0.133330 1.089949
vn 1.437264 -2.263063 5.295881
v 0.338252 0.133464 1.089932
vn 1.518734 -0.608414 5.380360
v 0.337495 0.157148 1.095754
vn -1.603598 -1.722845 5.785923
v 0.326841 0.151500 1.092506
vn -2.170594 -1.492923 5.526649
v 0.326828 0.151520 1.092508
vn 3.025593 -2.105976 3.781746
v 0.417681 0.081923 1.034620
vn -4.135959 -2.304764 1.980885
v 0.152451 0.074244 0.958864
vn -3.300142 -3.107905 1.626384
v 0.152455 0.074236 0.958863
vn 4.219069 -4.001124 1.437127
v 0.417921 0.069678 1.019874
vn 3.998115 -4.192652 1.722453
v 0.417316 0.069459 1.020764
vn 2.700193 -5.616039 0.456397
v 0.417318 0.069389 1.020309
vn 3.557238 -4.685314 -0.327616
v 0.417923 0.069608 1.019419
vn 5.001156 -3.476829 1.038739
v 0.433293 0.087483 1.006721
vn 5.117634 -2.793523 2.339659
v 0.431178 0.087862 1.012887
vn 5.134790 -2.606087 2.499547
v 0.421664 0.083662 1.028381
vn 5.231341 -2.485640 2.340671
v 0.431206 0.087890 1.012859
vn 4.827260 -2.957652 2.675656
v 0.417689 0.081901 1.034588
vn 2.375598 -5.707233 0.667990
v 0.417065 0.069297 1.020663
vn 3.463986 -3.069123 3.397213
v 0.417685 0.081912 1.034606
vn -1.389924 -4.468239 -0.809072
v 0.234732 -0.001429 0.891613
vn 2.367934 -1.073026 5.593340
v 0.337502 0.157121 1.095746
vn 3.407490 -0.532458 4.275721
v 0.417675 0.081932 1.034627
vn -1.253283 -4.308328 -1.374951
v 0.234741 -0.001426 0.891593
vn 4.543221 -3.417690 -0.131290
v 0.433314 0.087508 1.006701
vn -0.297219 -4.108802 -2.337182
v 0.248305 0.004587 0.869784
vn 1.327735 -4.376296 -3.118066
v 0.248311 0.004592 0.869778
vn 0.678711 -5.802120 -1.193311
v 0.244316 0.002819 0.876014
vn 3.193011 -5.239723 -1.352046
v 0.258964 0.010238 0.873034
vn 3.401708 -4.466903 -2.454022
v 0.258973 0.010245 0.873030
vn 4.704078 2.095112 3.600057
v 0.349696 0.264453 1.018457
vn 4.698678 2.150899 3.573405
v 0.349669 0.264560 1.018430
vn 4.673872 2.122952 3.622646
v 0.345703 0.262803 1.024622
vn 1.489571 0.848822 4.795859
v 0.325978 0.184336 1.095759
vn 4.729592 2.129973 3.544817
v 0.429814 0.189494 0.957235
vn 2.356120 1.036451 4.942687
v 0.328505 0.178635 1.095759
vn 4.745561 2.032459 3.580724
v 0.412694 0.105147 1.028389
vn 4.702033 2.008690 3.650273
v 0.408700 0.103377 1.034627
vn 4.715614 2.130342 3.563593
v 0.406535 0.105409 1.036278
vn -4.711492 -2.243752 -3.498898
v 0.231611 0.005538 0.889922
vn -4.663070 -2.242417 -3.560030
v 0.241116 0.009726 0.874478
vn -4.624744 -2.464576 -3.454496
v 0.231595 0.005509 0.889962
vn -4.825993 -2.287756 -3.294620
v 0.151383 0.080697 0.951178
vn -4.729595 -2.129941 -3.544834
v 0.160944 0.084934 0.935624
vn 4.725665 2.215606 3.498114
v 0.359190 0.268777 1.002946
vn 4.708827 2.292293 3.470047
v 0.359187 0.268881 1.002883
vn 4.667431 2.243484 3.556227
v 0.349645 0.264653 1.018405
vn 4.803276 2.174885 3.413982
v 0.439374 0.193732 0.941681
vn 4.596911 2.219170 3.661300
v 0.345670 0.262891 1.024612
vn -4.399351 -2.840550 -3.471903
v 0.234781 -0.001386 0.891501
vn -4.163416 -3.143157 -3.474408
v 0.244308 0.002823 0.876014
vn -4.097513 -3.334288 -3.321166
v 0.234765 -0.001405 0.891536
vn -4.617154 -2.615755 -3.346765
v 0.231583 0.005484 0.889998
vn -4.489109 -2.584690 -3.543864
v 0.241125 0.009712 0.874476
vn -4.681611 -2.126340 -3.610715
v 0.245082 0.011483 0.868287
vn -4.082361 -2.009283 -4.223154
v 0.264763 0.090184 0.797068
vn -4.471738 -2.439723 -3.656494
v 0.245100 0.011473 0.868269
vn -4.745574 -2.032504 -3.580679
v 0.178047 0.169372 0.864438
vn -4.687746 -2.020081 -3.662622
v 0.184206 0.169110 0.856550
vn -4.167664 -1.801895 -4.250658
v 0.262235 0.095884 0.797068
vn -4.702049 -2.008729 -3.650232
v 0.182040 0.171142 0.858201
vn 4.895186 2.281916 3.194410
v 0.439373 0.193790 0.941644
vn 4.682250 2.409140 3.423589
v 0.359184 0.268968 1.002829
vn 4.605634 2.375527 3.550535
v 0.349623 0.264731 1.018383
vn 4.486501 2.353167 3.710688
v 0.345641 0.262966 1.024602
vn 5.364015 -1.773665 2.515340
v 0.431228 0.087914 1.012833
vn 5.277713 -1.835819 2.803004
v 0.421668 0.083677 1.028387
vn 4.811916 2.025396 3.495865
v 0.441888 0.187987 0.941725
vn 4.861609 2.082755 3.387570
v 0.441894 0.188047 0.941681
vn 4.759557 2.061851 3.544753
v 0.432333 0.183810 0.957235
vn 4.885296 1.936951 3.441173
v 0.450841 0.166662 0.941681
vn 4.816685 1.987695 3.510825
v 0.441285 0.162433 0.957223
vn -4.212110 -2.971386 -3.584327
v 0.248283 0.004585 0.869808
vn -4.178808 -2.658654 -3.845260
v 0.245117 0.011463 0.868257
vn -2.520494 -4.202697 -3.068184
v 0.248295 0.004584 0.869794
vn -2.463681 -4.618786 -2.833483
v 0.244313 0.002819 0.876013
vn -2.960073 -4.239530 -2.691709
v 0.234752 -0.001418 0.891567
vn -4.696477 -2.729912 -3.144501
v 0.231574 0.005461 0.890030
vn -4.789058 -2.492642 -3.213485
v 0.229414 0.007487 0.891677
vn 1.566860 0.191030 4.948954
v 0.337487 0.157172 1.095759
vn 5.002984 2.154280 3.119429
v 0.441897 0.188097 0.941644
vn 4.772783 2.397870 3.308955
v 0.361343 0.267009 1.001134
vn 4.639686 2.571693 3.354810
v 0.359180 0.269039 1.002784
vn 4.505884 2.568721 3.541577
v 0.349605 0.264795 1.018363
vn 4.307842 2.547802 3.781720
v 0.345616 0.263027 1.024592
vn 4.712146 -2.727806 -0.372078
v 0.433328 0.087528 1.006685
vn 5.405619 -0.673003 2.687147
v 0.431245 0.087935 1.012811
vn 5.303682 -0.422040 3.213295
v 0.421669 0.083691 1.028390
vn 5.167175 1.678989 3.093129
v 0.450860 0.166678 0.941644
vn 4.810640 1.986235 3.519928
v 0.441280 0.162425 0.957235
vn 5.014307 1.209990 3.484087
v 0.421669 0.083703 1.028389
vn 5.353019 0.445937 2.704267
v 0.431255 0.087953 1.012791
vn -1.128840 -1.073567 -4.990465
v 0.264776 0.090173 0.797062
vn -0.028691 -2.474167 -4.090135
v 0.267935 0.083335 0.798592
vn -4.790190 -2.825844 -2.920633
v 0.231568 0.005441 0.890057
vn -4.759530 -2.061955 -3.544732
v 0.158425 0.090619 0.935624
vn -4.861456 -2.100413 -3.375762
v 0.148864 0.086382 0.951178
vn -4.811513 -1.990400 -3.516349
v 0.149463 0.112047 0.935618
vn -4.824701 -1.890663 -3.550028
v 0.169072 0.190817 0.864438
vn -5.099200 -2.194107 -2.912738
v 0.148851 0.086384 0.951197
vn -4.989763 -2.006337 -3.227096
v 0.139888 0.107803 0.951197
vn -4.827485 -2.801567 -2.883868
v 0.229405 0.007471 0.891707
vn -5.003587 -2.502446 -2.803628
v 0.151375 0.080690 0.951197
vn -1.705812 -0.747771 5.995832
v 0.324304 0.157214 1.092508
vn -0.757917 -0.326078 6.172895
v 0.334953 0.162891 1.095759
vn -2.420513 -1.034931 5.598601
v 0.324291 0.157238 1.092508
vn 1.596246 0.608851 4.886505
v 0.337480 0.157191 1.095759
vn -2.809216 -1.271125 5.438438
v 0.326818 0.151538 1.092508
vn 5.037885 2.457914 2.774213
v 0.439371 0.193836 0.941614
vn 5.234970 2.254262 2.608090
v 0.441898 0.188136 0.941614
vn 4.812209 2.669861 3.026039
v 0.361341 0.267062 1.001096
vn 4.643889 2.744220 3.196928
v 0.359175 0.269094 1.002747
vn 4.411400 2.749197 3.527858
v 0.349589 0.264844 1.018345
vn 4.166192 2.712794 3.823565
v 0.345596 0.263074 1.024582
vn 1.109416 1.226337 4.879500
v 0.325960 0.184372 1.095756
vn 5.102674 -1.729566 -0.203025
v 0.433336 0.087546 1.006675
vn 5.506808 1.332116 2.430431
v 0.450873 0.166691 0.941614
vn 5.709148 0.767316 2.422394
v 0.450145 0.163771 0.944253
vn 3.992539 1.686532 4.423486
v 0.328524 0.178591 1.095759
vn 4.648315 1.877806 3.786130
v 0.415510 0.083965 1.036278
vn -4.837102 -3.004969 -2.646098
v 0.232577 0.000604 0.893242
vn -4.857121 -3.091775 -2.478768
v 0.154547 0.073823 0.952732
vn -4.767772 -3.691048 -1.710575
v 0.232566 0.000604 0.893264
vn -4.952252 -3.280337 -1.835270
v 0.154536 0.073830 0.952746
vn -5.241524 -2.652436 -2.128212
v 0.151370 0.080683 0.951213
vn 3.254354 -1.806527 -4.287978
v 0.278594 0.088987 0.801843
vn 4.275123 -0.290667 -1.217418
v 0.452957 0.166296 0.935484
vn -5.331117 -1.872247 -2.570670
v 0.139868 0.107828 0.951213
vn -5.000507 -1.789070 -3.357377
v 0.140595 0.110748 0.948574
vn -4.922103 -1.805603 -3.457020
v 0.159486 0.186567 0.880036
vn -5.402654 -2.328503 -2.150271
v 0.148843 0.086384 0.951213
vn -2.479483 -0.849648 5.583367
v 0.315316 0.178683 1.092508
vn -2.658569 -0.378057 5.532295
v 0.315301 0.178720 1.092505
vn -4.495185 -1.617158 3.192046
v 0.140938 0.101411 0.958864
vn -4.511913 -1.975520 2.817815
v 0.149921 0.079949 0.958864
vn -4.692634 -3.985547 -1.249464
v 0.230485 0.001010 0.899381
vn -5.543099 -2.597540 -1.311112
v 0.149289 0.081090 0.957330
vn -5.579168 -2.664810 -0.501061
v 0.149291 0.081082 0.957335
vn 5.159338 2.678136 2.248764
v 0.439366 0.193869 0.941590
vn 5.447161 2.368318 2.018483
v 0.441896 0.188164 0.941590
vn 4.395621 3.055908 3.243240
v 0.356009 0.275948 1.001214
vn 4.201138 3.075684 3.498438
v 0.346423 0.271698 1.016812
vn 4.830372 2.832370 2.849828
v 0.361337 0.267099 1.001066
vn 4.793700 2.847556 2.895030
v 0.359169 0.269133 1.002719
vn 3.712859 3.065028 3.946226
v 0.342429 0.269927 1.023049
vn 6.018538 -0.608826 0.985336
v 0.452226 0.163365 0.938137
vn 5.633702 1.716801 2.019363
v 0.450879 0.166702 0.941590
vn 5.990577 -0.373864 1.012518
v 0.452954 0.166285 0.935497
vn -5.619053 -2.405926 -1.405377
v 0.146762 0.086790 0.957330
vn -5.683498 -2.429533 -0.018356
v 0.146762 0.086787 0.957335
vn -4.129440 0.130662 1.303325
v 0.137779 0.108249 0.957335
vn 2.613765 4.382884 2.187681
v 0.356010 0.275971 1.001189
vn 2.079154 4.669522 2.601729
v 0.346417 0.271718 1.016800
vn 0.282945 3.857787 2.975893
v 0.342420 0.269946 1.023042
vn 0.416721 2.087853 4.583379
v 0.322801 0.191210 1.094227
vn 1.154751 3.864853 4.593050
v 0.323529 0.194132 1.091585
vn -4.669226 -1.949751 -3.724939
v 0.175231 0.190554 0.856550
vn -4.321370 -1.681139 -4.185534
v 0.253260 0.117329 0.797068
vn -4.735055 -1.929027 -3.650223
v 0.173065 0.192587 0.858201
vn -3.531762 1.309171 -3.286843
v 0.173066 0.192604 0.858191
vn -3.111168 0.656953 -4.890585
v 0.175233 0.190570 0.856538
vn -1.425457 0.625785 -4.730675
v 0.253263 0.117340 0.797062
vn -1.835381 -0.802474 -5.561679
v 0.262246 0.095878 0.797062
vn -5.653119 -1.327348 -2.105190
v 0.139857 0.107843 0.951228
vn -5.704945 -0.773489 -2.427922
v 0.140585 0.110765 0.948587
vn -4.889166 0.938543 -2.454015
v 0.159476 0.186579 0.880044
vn -4.705133 1.037838 -2.686431
v 0.169070 0.190832 0.864433
vn -3.203234 1.076516 4.851435
v 0.312141 0.185558 1.090976
vn 4.926374 3.199126 2.015796
v 0.436207 0.200707 0.940061
vn 4.810801 3.260389 2.297140
v 0.358178 0.273937 0.999537
vn 5.567885 2.585109 0.666393
v 0.441444 0.193463 0.935484
vn 5.622619 2.388382 0.342158
v 0.443974 0.187758 0.935484
vn -3.825801 4.684902 -1.124311
v 0.170988 0.193010 0.864297
vn -3.772518 4.679790 -1.049674
v 0.166992 0.191238 0.870539
vn -3.481698 4.881227 -1.172223
v 0.170996 0.193014 0.864285
vn -1.960744 3.468752 4.417678
v 0.322797 0.191213 1.094223
vn -3.420865 3.049664 4.023149
v 0.312143 0.185564 1.090974
vn -5.077800 1.667088 0.444417
v 0.138507 0.111171 0.954693
vn -4.106347 3.606513 3.087989
v 0.137781 0.108252 0.957335
vn -4.158862 2.446290 -0.056999
v 0.157399 0.186985 0.886150
vn -3.547002 4.215689 2.880040
v 0.331761 0.264294 1.019791
vn -1.832255 5.343575 1.542158
v 0.342418 0.269948 1.023035
vn -3.313263 4.952990 1.777775
v 0.331764 0.264299 1.019786
vn -2.863906 5.587130 -0.244637
v 0.177652 0.196890 0.873779
vn -2.402362 5.708286 -0.705408
v 0.181650 0.198663 0.867534
vn -2.909127 5.511305 0.370748
v 0.168058 0.192637 0.889401
vn 1.100696 4.643682 0.636228
v 0.356012 0.275976 1.001173
vn 5.390427 2.741278 0.051138
v 0.438285 0.200301 0.933954
vn 3.200600 2.893378 -1.845271
v 0.438284 0.200303 0.933954
vn 4.729621 3.881590 1.425696
v 0.358181 0.273941 0.999521
vn 4.901343 3.636227 1.446455
v 0.436210 0.200708 0.940047
vn -1.189771 5.886459 0.880438
v 0.346415 0.271720 1.016790
vn -2.625625 5.703829 -0.117034
v 0.181647 0.198662 0.867548
vn -2.702998 5.666937 -0.117766
v 0.177651 0.196890 0.873791
vn 1.419025 -0.516654 -6.047444
v 0.264785 0.090164 0.797065
vn 1.703313 -0.798325 -5.951635
v 0.267936 0.083345 0.798591
vn 4.511866 1.975537 -2.817835
v 0.440814 0.194596 0.933954
vn 4.677864 1.147077 -2.837622
v 0.452952 0.166306 0.935479
vn 5.713150 2.418774 -0.985941
v 0.443965 0.187777 0.935479
vn 2.845521 -0.109331 -5.481157
v 0.278589 0.088994 0.801840
vn -2.214207 3.842155 -3.187230
v 0.173070 0.192609 0.858191
vn 0.757972 0.326155 -6.172873
v 0.255792 0.111635 0.797062
vn 1.375880 2.504912 -4.922347
v 0.263922 0.122992 0.800313
vn 2.412563 1.039966 -5.600048
v 0.266452 0.117287 0.800313
vn 2.551989 0.686839 -5.543371
v 0.275435 0.095825 0.800313
vn -0.835505 4.721838 -2.937338
v 0.183724 0.198258 0.861441
vn 2.928425 4.257542 -1.400435
v 0.360254 0.273535 0.993427
vn 1.490527 4.404262 -0.842466
v 0.358086 0.275571 0.995080
vn 4.495175 1.617191 -3.191737
v 0.449801 0.173125 0.933954
vn 2.732047 0.200091 -5.537871
v 0.275439 0.095813 0.800315
# 214 vertices, 0 vertices normals

f 1//1 2//2 3//3
f 1//1 3//3 4//4
f 1//1 5//5 2//2
f 1//1 4//4 5//5
f 6//6 7//7 8//8
f 6//6 9//9 10//10
f 6//6 8//8 9//9
f 6//6 3//3 11//11
f 6//6 10//10 12//12
f 6//6 11//11 7//7
f 6//6 13//13 4//4
f 6//6 4//4 3//3
f 6//6 12//12 13//13
f 14//14 15//15 16//16
f 14//14 17//17 18//18
f 14//14 16//16 17//17
f 14//14 19//19 20//20
f 14//14 21//21 19//19
f 14//14 20//20 22//22
f 14//14 22//22 15//15
f 14//14 18//18 21//21
f 15//15 2//2 23//23
f 15//15 23//23 16//16
f 15//15 22//22 2//2
f 2//2 22//22 24//24
f 2//2 24//24 11//11
f 2//2 11//11 3//3
f 2//2 5//5 25//25
f 2//2 25//25 23//23
f 7//7 26//26 8//8
f 7//7 11//11 27//27
f 7//7 27//27 26//26
f 17//17 16//16 28//28
f 17//17 29//29 18//18
f 17//17 30//30 31//31
f 17//17 32//32 30//30
f 17//17 28//28 32//32
f 17//17 33//33 34//34
f 17//17 31//31 33//33
f 17//17 34//34 29//29
f 16//16 23//23 28//28
f 23//23 25//25 28//28
f 35//35 36//36 37//37
f 35//35 37//37 38//38
f 35//35 39//39 36//36
f 35//35 38//38 40//40
f 35//35 41//41 39//39
f 35//35 42//42 41//41
f 35//35 40//40 43//43
f 35//35 43//43 42//42
f 44//44 45//45 46//46
f 44//44 46//46 47//47
f 44//44 48//48 45//45
f 44//44 47//47 48//48
f 49//49 50//50 51//51
f 49//49 51//51 39//39
f 49//49 52//52 50//50
f 49//49 39//39 52//52
f 36//36 51//51 53//53
f 36//36 53//53 37//37
f 36//36 39//39 51//51
f 37//37 53//53 38//38
f 19//19 21//21 20//20
f 54//54 55//55 56//56
f 54//54 56//56 57//57
f 54//54 58//58 55//55
f 54//54 57//57 58//58
f 59//59 45//45 60//60
f 59//59 61//61 45//45
f 59//59 60//60 61//61
f 45//45 61//61 58//58
f 45//45 58//58 46//46
f 45//45 48//48 62//62
f 45//45 63//63 64//64
f 45//45 64//64 60//60
f 45//45 65//65 63//63
f 45//45 62//62 65//65
f 46//46 58//58 57//57
f 46//46 57//57 47//47
f 50//50 52//52 66//66
f 50//50 67//67 68//68
f 50//50 68//68 51//51
f 50//50 66//66 67//67
f 51//51 68//68 69//69
f 51//51 69//69 53//53
f 53//53 69//69 38//38
f 21//21 18//18 29//29
f 21//21 70//70 71//71
f 21//21 71//71 20//20
f 21//21 29//29 70//70
f 20//20 71//71 24//24
f 20//20 24//24 22//22
f 72//72 73//73 74//74
f 72//72 75//75 73//73
f 72//72 74//74 76//76
f 72//72 76//76 75//75
f 26//26 27//27 8//8
f 77//77 55//55 78//78
f 77//77 79//79 55//55
f 77//77 78//78 79//79
f 55//55 58//58 78//78
f 55//55 79//79 80//80
f 55//55 80//80 56//56
f 56//56 80//80 81//81
f 56//56 81//81 82//82
f 56//56 82//82 57//57
f 61//61 78//78 58//58
f 61//61 60//60 78//78
f 57//57 82//82 83//83
f 57//57 83//83 47//47
f 9//9 8//8 84//84
f 9//9 84//84 10//10
f 52//52 39//39 74//74
f 52//52 73//73 85//85
f 52//52 74//74 73//73
f 52//52 85//85 66//66
f 39//39 41//41 74//74
f 67//67 86//86 87//87
f 67//67 66//66 86//86
f 67//67 87//87 88//88
f 67//67 88//88 68//68
f 68//68 88//88 89//89
f 68//68 89//89 69//69
f 69//69 89//89 38//38
f 70//70 29//29 90//90
f 70//70 91//91 92//92
f 70//70 92//92 71//71
f 70//70 90//90 91//91
f 71//71 92//92 11//11
f 71//71 11//11 24//24
f 73//73 75//75 93//93
f 73//73 93//93 85//85
f 75//75 94//94 95//95
f 75//75 76//76 94//94
f 75//75 96//96 93//93
f 75//75 95//95 96//96
f 74//74 94//94 76//76
f 74//74 41//41 95//95
f 74//74 95//95 94//94
f 8//8 27//27 84//84
f 79//79 78//78 97//97
f 79//79 30//30 32//32
f 79//79 32//32 80//80
f 79//79 98//98 30//30
f 79//79 97//97 98//98
f 80//80 32//32 28//28
f 80//80 28//28 81//81
f 81//81 28//28 99//99
f 81//81 99//99 82//82
f 29//29 34//34 90//90
f 100//100 101//101 102//102
f 100//100 48//48 47//47
f 100//100 47//47 101//101
f 100//100 102//102 103//103
f 100//100 103//103 62//62
f 100//100 62//62 48//48
f 101//101 47//47 104//104
f 101//101 105//105 102//102
f 101//101 104//104 105//105
f 78//78 60//60 97//97
f 82//82 99//99 106//106
f 82//82 107//107 83//83
f 82//82 106//106 107//107
f 47//47 83//83 107//107
f 47//47 107//107 104//104
f 108//108 10//10 109//109
f 108//108 110//110 10//10
f 108//108 109//109 110//110
f 10//10 84//84 111//111
f 10//10 110//110 112//112
f 10//10 112//112 12//12
f 10//10 111//111 109//109
f 86//86 66//66 113//113
f 86//86 113//113 87//87
f 66//66 85//85 114//114
f 66//66 114//114 113//113
f 87//87 115//115 116//116
f 87//87 113//113 115//115
f 87//87 116//116 117//117
f 87//87 117//117 88//88
f 88//88 117//117 118//118
f 88//88 118//118 89//89
f 89//89 118//118 119//119
f 89//89 119//119 38//38
f 91//91 90//90 120//120
f 91//91 96//96 95//95
f 91//91 95//95 92//92
f 91//91 120//120 96//96
f 92//92 95//95 27//27
f 92//92 27//27 11//11
f 85//85 93//93 121//121
f 85//85 121//121 114//114
f 93//93 96//96 122//122
f 93//93 122//122 121//121
f 123//123 42//42 43//43
f 123//123 27//27 42//42
f 123//123 40//40 111//111
f 123//123 111//111 124//124
f 123//123 43//43 40//40
f 123//123 124//124 27//27
f 84//84 27//27 124//124
f 84//84 124//124 111//111
f 30//30 98//98 31//31
f 28//28 125//125 106//106
f 28//28 106//106 99//99
f 28//28 25//25 125//125
f 126//126 125//125 25//25
f 126//126 107//107 106//106
f 126//126 106//106 125//125
f 126//126 25//25 127//127
f 126//126 128//128 129//129
f 126//126 127//127 128//128
f 126//126 129//129 107//107
f 90//90 34//34 130//130
f 90//90 131//131 120//120
f 90//90 130//130 131//131
f 33//33 31//31 34//34
f 102//102 105//105 103//103
f 105//105 104//104 132//132
f 105//105 132//132 133//133
f 105//105 133//133 134//134
f 105//105 134//134 103//103
f 104//104 107//107 135//135
f 104//104 135//135 132//132
f 107//107 129//129 135//135
f 136//136 110//110 109//109
f 136//136 38//38 119//119
f 136//136 109//109 38//38
f 136//136 137//137 138//138
f 136//136 138//138 110//110
f 136//136 119//119 137//137
f 110//110 138//138 139//139
f 110//110 139//139 112//112
f 5//5 140//140 25//25
f 5//5 4//4 140//140
f 112//112 139//139 12//12
f 13//13 140//140 4//4
f 13//13 141//141 129//129
f 13//13 128//128 140//140
f 13//13 129//129 128//128
f 13//13 12//12 142//142
f 13//13 142//142 141//141
f 140//140 128//128 127//127
f 140//140 127//127 25//25
f 115//115 113//113 143//143
f 115//115 143//143 116//116
f 113//113 114//114 144//144
f 113//113 144//144 143//143
f 116//116 145//145 146//146
f 116//116 146//146 117//117
f 116//116 147//147 148//148
f 116//116 143//143 147//147
f 116//116 148//148 145//145
f 117//117 146//146 149//149
f 117//117 149//149 118//118
f 38//38 109//109 40//40
f 109//109 111//111 40//40
f 118//118 149//149 119//119
f 96//96 120//120 122//122
f 41//41 42//42 95//95
f 95//95 42//42 27//27
f 122//122 120//120 150//150
f 122//122 150//150 121//121
f 114//114 121//121 151//151
f 114//114 151//151 144//144
f 121//121 150//150 152//152
f 121//121 152//152 131//131
f 121//121 131//131 151//151
f 153//153 141//141 154//154
f 153//153 135//135 141//141
f 153//153 155//155 135//135
f 153//153 154//154 155//155
f 141//141 135//135 129//129
f 141//141 142//142 154//154
f 145//145 148//148 156//156
f 145//145 156//156 157//157
f 145//145 157//157 146//146
f 146//146 157//157 158//158
f 146//146 158//158 149//149
f 149//149 159//159 119//119
f 149//149 160//160 159//159
f 149//149 158//158 160//160
f 31//31 98//98 34//34
f 120//120 131//131 150//150
f 34//34 98//98 130//130
f 150//150 131//131 152//152
f 161//161 63//63 65//65
f 161//161 162//162 63//63
f 161//161 163//163 164//164
f 161//161 65//65 163//163
f 161//161 164//164 162//162
f 63//63 162//162 64//64
f 162//162 165//165 166//166
f 162//162 166//166 64//64
f 162//162 164//164 165//165
f 64//64 166//166 167//167
f 64//64 167//167 60//60
f 163//163 65//65 103//103
f 163//163 103//103 164//164
f 65//65 62//62 103//103
f 132//132 135//135 168//168
f 132//132 168//168 169//169
f 132//132 169//169 170//170
f 132//132 170//170 133//133
f 135//135 155//155 168//168
f 133//133 170//170 134//134
f 103//103 134//134 171//171
f 103//103 171//171 164//164
f 134//134 170//170 171//171
f 60//60 167//167 97//97
f 137//137 119//119 172//172
f 137//137 172//172 138//138
f 138//138 172//172 155//155
f 138//138 155//155 154//154
f 138//138 154//154 139//139
f 139//139 154//154 142//142
f 139//139 142//142 12//12
f 147//147 143//143 173//173
f 147//147 174//174 156//156
f 147//147 173//173 174//174
f 147//147 156//156 148//148
f 143//143 144//144 175//175
f 143//143 175//175 173//173
f 119//119 159//159 172//172
f 144//144 151//151 176//176
f 144//144 176//176 175//175
f 151//151 131//131 176//176
f 177//177 178//178 179//179
f 177//177 164//164 171//171
f 177//177 171//171 178//178
f 177//177 179//179 164//164
f 172//172 159//159 180//180
f 172//172 181//181 155//155
f 172//172 180//180 181//181
f 155//155 182//182 168//168
f 155//155 181//181 183//183
f 155//155 183//183 182//182
f 182//182 184//184 170//170
f 182//182 169//169 168//168
f 182//182 170//170 169//169
f 182//182 183//183 184//184
f 185//185 184//184 181//181
f 185//185 158//158 186//186
f 185//185 181//181 180//180
f 185//185 187//187 184//184
f 185//185 180//180 158//158
f 185//185 186//186 187//187
f 178//178 184//184 188//188
f 178//178 171//171 170//170
f 178//178 170//170 184//184
f 178//178 189//189 179//179
f 178//178 188//188 189//189
f 184//184 190//190 188//188
f 184//184 183//183 181//181
f 184//184 187//187 186//186
f 184//184 186//186 190//190
f 174//174 173//173 191//191
f 174//174 191//191 156//156
f 173//173 175//175 192//192
f 173//173 192//192 193//193
f 173//173 194//194 191//191
f 173//173 195//195 194//194
f 173//173 193//193 195//195
f 156//156 191//191 157//157
f 157//157 191//191 196//196
f 157//157 196//196 158//158
f 197//197 198//198 191//191
f 197//197 191//191 189//189
f 197//197 189//189 198//198
f 159//159 160//160 180//180
f 160//160 158//158 180//180
f 158//158 196//196 186//186
f 198//198 190//190 191//191
f 198//198 189//189 188//188
f 198//198 188//188 190//190
f 190//190 196//196 191//191
f 190//190 186//186 196//196
f 98//98 97//97 199//199
f 98//98 200//200 130//130
f 98//98 199//199 200//200
f 175//175 176//176 201//201
f 175//175 201//201 192//192
f 176//176 131//131 202//202
f 176//176 203//203 201//201
f 176//176 202//202 203//203
f 131//131 130//130 202//202
f 130//130 200//200 204//204
f 130//130 204//204 202//202
f 165//165 164//164 205//205
f 165//165 205//205 166//166
f 166//166 206//206 167//167
f 166//166 207//207 208//208
f 166//166 208//208 206//206
f 166//166 205//205 207//207
f 167//167 206//206 97//97
f 164//164 179//179 205//205
f 206//206 208//208 209//209
f 206//206 209//209 97//97
f 97//97 209//209 199//199
f 192//192 201//201 193//193
f 207//207 205//205 210//210
f 207//207 211//211 193//193
f 207//207 193//193 201//201
f 207//207 212//212 211//211
f 207//207 210//210 212//212
f 207//207 201//201 208//208
f 208//208 201//201 213//213
f 208//208 213//213 209//209
f 209//209 213//213 214//214
f 209//209 214//214 199//199
f 179//179 189//189 210//210
f 179//179 210//210 205//205
f 194//194 195//195 211//211
f 194//194 211//211 191//191
f 195//195 193//193 211//211
f 191//191 211//211 212//212
f 191//191 212//212 189//189
f 189//189 212//212 210//210
f 200//200 199//199 204//204
f 203//203 202//202 213//213
f 203//203 213//213 201//201
f 202//202 204//204 213//213
f 204//204 199//199 214//214
f 204//204 214//214 213//213
# 424 faces, 0 coords texture

# End of File
