####
#
# OBJ File Generated by Meshlab
#
####
# Object matlab_mesh_step12_link2.obj
#
# Vertices: 165
# Faces: 326
#
####
vn 1.517101 -2.620966 3.228071
v 0.177150 0.136119 0.916326
vn 3.021346 -1.740873 2.834381
v 0.177315 0.136284 0.916326
vn 0.128819 -0.821313 6.186148
v 0.174616 0.147859 0.917987
vn -0.079612 -0.640611 6.191661
v 0.174612 0.147870 0.917989
vn -0.638587 -0.758226 6.181884
v 0.163283 0.156640 0.917989
vn -0.633486 -0.511487 6.151600
v 0.064535 0.240242 0.917990
vn -0.547124 -0.671212 6.192648
v 0.165851 0.154496 0.917989
vn -1.845782 0.116946 5.520687
v 0.064523 0.240247 0.917989
vn -3.194795 -0.140293 4.788306
v -0.071926 0.079057 0.822227
vn -1.973587 -2.348536 5.459446
v 0.024526 -0.007243 0.820616
vn -1.913715 -2.406614 5.451661
v 0.027081 -0.009375 0.820615
vn 0.940111 -3.433441 3.493354
v 0.035860 -0.016014 0.820615
vn 0.451606 -3.603706 1.724249
v 0.035365 -0.016608 0.820095
vn -3.508424 -0.021546 3.878303
v -0.074223 0.076343 0.820615
vn 5.242016 -2.233192 1.108032
v 0.177418 0.136388 0.916058
vn 5.881788 -0.160597 2.190902
v 0.177606 0.151397 0.917035
vn 3.230378 -0.403364 4.303095
v 0.177196 0.150905 0.917987
vn 5.263090 -2.254811 1.048489
v 0.177557 0.136527 0.915661
vn 4.540101 -0.837539 -0.264009
v 0.214965 0.174141 0.808757
vn 5.579285 1.985300 2.070469
v 0.212432 0.192494 0.798179
vn 4.691821 2.696847 2.808927
v 0.177597 0.151431 0.917048
vn 5.434424 0.819882 -0.132052
v 0.212429 0.192518 0.798162
vn 4.706156 -1.593486 -3.844992
v 0.211928 0.191918 0.797636
vn 4.776204 -1.253670 -3.837798
v 0.211926 0.191940 0.797625
vn 4.969461 0.855048 -0.558952
v 0.212426 0.192538 0.798150
vn 5.805710 0.260738 2.320261
v 0.177605 0.151412 0.917041
vn 5.544454 1.208215 2.538351
v 0.177602 0.151423 0.917045
vn 0.543050 -4.243437 -1.615391
v 0.070182 0.024522 0.701186
vn 1.461786 -3.726852 -2.408586
v 0.070589 0.025009 0.700242
vn 3.834198 -3.046046 -2.963420
v 0.073176 0.028065 0.700242
vn 2.482256 -0.644696 -4.460401
v 0.073178 0.028069 0.700241
vn 3.701414 4.552991 2.120489
v 0.127047 0.261533 0.808734
vn 3.331011 4.671280 2.561445
v 0.103886 0.283476 0.798840
vn 3.150928 4.484135 3.004246
v 0.067529 0.243785 0.917046
vn 3.430114 4.693711 2.370468
v 0.103737 0.283620 0.798772
vn 3.446179 4.701572 2.325254
v 0.103595 0.283757 0.798707
vn 3.596472 4.721555 2.061612
v 0.111273 0.278115 0.798279
vn 3.700694 4.712527 1.877099
v 0.111240 0.278154 0.798249
vn 3.756783 4.720126 1.728798
v 0.111210 0.278188 0.798222
vn 3.936339 4.681478 1.434574
v 0.113766 0.276061 0.798199
vn 3.435044 4.545850 2.648364
v 0.067549 0.243773 0.917041
vn 3.385770 4.270093 3.073908
v 0.076301 0.237151 0.917046
vn 3.502766 4.169016 3.097580
v 0.078863 0.235013 0.917045
vn 3.806603 3.852448 3.077516
v 0.177592 0.151435 0.917050
vn 3.786326 2.154968 -1.094308
v 0.212417 0.192563 0.798134
vn 3.843420 4.240486 2.592157
v 0.180594 0.154981 0.906798
vn -3.151294 -4.862160 -1.984194
v 0.030395 -0.011439 0.813051
vn -2.845607 -5.199426 -1.619061
v 0.035343 -0.016593 0.820064
vn -3.831585 -4.872786 -1.008359
v 0.026606 -0.009984 0.820075
vn -3.867514 -4.879774 -0.579789
v 0.026597 -0.009980 0.820084
vn -4.001955 -4.753699 -0.868068
v 0.024029 -0.007837 0.820085
vn -3.274378 -1.386201 1.190187
v -0.074716 0.075752 0.820097
vn -3.447256 -4.423574 -2.821403
v 0.061411 0.031155 0.701186
vn -4.139842 -0.215891 -0.580682
v -0.074716 0.075753 0.820095
vn -4.794068 -2.694103 -2.335589
v -0.042899 0.113339 0.711431
vn -3.506489 -4.171489 -3.088494
v 0.058849 0.033296 0.701181
vn -3.410210 -4.226118 -3.114727
v 0.061405 0.031164 0.701181
vn -4.087152 -0.209580 -1.566966
v -0.039897 0.116886 0.701178
vn 3.444511 4.707608 2.313860
v 0.103461 0.283885 0.798645
vn 3.442827 4.714126 2.301115
v 0.103334 0.284007 0.798588
vn 3.441010 4.721293 2.286799
v 0.103214 0.284120 0.798533
vn 3.439016 4.729209 2.270645
v 0.103102 0.284227 0.798482
vn 3.436832 4.737953 2.252364
v 0.102998 0.284325 0.798435
vn 3.434579 4.746967 2.233149
v 0.102901 0.284416 0.798391
vn 3.431876 4.757943 2.208669
v 0.102811 0.284500 0.798350
vn 3.776037 4.744604 1.611919
v 0.111184 0.278216 0.798199
vn 3.428556 4.770421 2.180576
v 0.102729 0.284576 0.798313
vn 3.424968 4.783947 2.148838
v 0.102655 0.284645 0.798279
vn 3.420011 4.801664 2.104733
v 0.102589 0.284706 0.798249
vn 3.799927 4.776888 1.446461
v 0.111162 0.278240 0.798179
vn 3.413342 4.823195 2.049168
v 0.102530 0.284760 0.798222
vn 3.403845 4.849796 1.975285
v 0.102478 0.284806 0.798199
vn 3.831249 4.818364 1.185783
v 0.111144 0.278259 0.798163
vn 3.389113 4.883576 1.872704
v 0.102435 0.284844 0.798179
vn 3.957358 4.706717 1.282606
v 0.113740 0.276088 0.798179
vn 3.303172 3.159586 -2.036827
v 0.212411 0.192569 0.798132
vn 3.361514 4.930573 1.701865
v 0.102398 0.284875 0.798163
vn 1.987703 5.018473 2.808627
v 0.067517 0.243791 0.917049
vn 3.867840 4.867047 0.746823
v 0.111131 0.278273 0.798150
vn 3.986952 4.742351 1.024396
v 0.113718 0.276111 0.798162
vn -2.594086 -5.288769 -1.362917
v 0.035352 -0.016601 0.820075
vn 2.951837 -0.072363 4.292510
v 0.177196 0.150922 0.917989
vn 3.300942 4.990074 1.406293
v 0.102370 0.284899 0.798150
vn 4.020112 4.782154 0.583943
v 0.113699 0.276130 0.798150
vn -2.027904 -5.357739 -0.864513
v 0.035358 -0.016606 0.820084
vn -0.157885 -0.186744 6.273653
v 0.163274 0.156651 0.917990
vn -0.169757 -0.200520 6.272180
v 0.069805 0.235781 0.917990
vn -0.112254 -0.136823 6.278813
v 0.165836 0.154513 0.917989
vn -0.025212 -0.099410 6.280839
v 0.174608 0.147879 0.917989
vn 2.810247 0.483744 4.390742
v 0.177195 0.150935 0.917989
vn 3.868858 4.876445 -0.142893
v 0.111121 0.278281 0.798141
vn 3.100831 5.026993 0.779624
v 0.102349 0.284915 0.798141
vn 4.015256 4.776836 -0.305904
v 0.113683 0.276144 0.798140
vn 4.489508 -0.698943 -4.253107
v 0.211924 0.191957 0.797618
vn 4.560275 1.384484 -0.733761
v 0.212422 0.192553 0.798140
vn -3.996551 -4.750581 0.339707
v 0.024028 -0.007837 0.820091
vn -3.808912 -4.800476 0.746237
v 0.026591 -0.009975 0.820091
vn 1.346034 -5.531934 -1.519384
v 0.067184 0.020979 0.711426
vn -0.495181 -4.825273 0.239363
v 0.035362 -0.016608 0.820091
vn 2.145785 1.037379 -4.803352
v 0.209629 0.189246 0.796007
vn 1.410708 2.127251 4.868966
v 0.067122 0.243297 0.917990
vn 0.339911 2.646934 4.394604
v 0.067112 0.243306 0.917989
vn 1.646557 2.037173 4.875701
v 0.075894 0.236664 0.917990
vn -0.006753 -0.009391 6.283163
v 0.172046 0.150017 0.917990
vn 0.050781 0.059984 6.282202
v 0.169363 0.157534 0.917990
vn 0.050880 0.059664 6.282202
v 0.174633 0.153073 0.917990
vn 3.111502 4.063724 3.639033
v 0.075891 0.236667 0.917989
vn 1.729935 2.057694 4.889653
v 0.078456 0.234526 0.917989
vn 0.397829 0.469923 6.235946
v 0.171925 0.155396 0.917989
vn 2.879173 1.611653 4.414618
v 0.177193 0.150945 0.917988
vn 3.252830 3.329094 4.055002
v 0.177189 0.150952 0.917986
vn 3.353201 4.273924 -2.433120
v 0.111115 0.278285 0.798135
vn 1.675557 5.481599 2.386733
v 0.070517 0.247336 0.906801
vn 1.889506 4.461458 -0.755935
v 0.102336 0.284924 0.798135
vn 3.510174 4.179649 -2.516403
v 0.113670 0.276153 0.798134
vn 3.153630 4.159150 3.497750
v 0.076296 0.237153 0.917049
vn 4.419793 3.637484 2.552384
v 0.180598 0.154976 0.906800
vn -3.125513 -3.717347 3.199592
v 0.024030 -0.007837 0.820095
vn -2.859939 -4.381805 -3.454670
v 0.070184 0.024525 0.701181
vn -0.229115 -2.423928 -4.351109
v 0.070589 0.025010 0.700241
vn -3.022741 -3.724207 3.310999
v 0.026585 -0.009969 0.820095
vn 1.320920 1.909432 -5.823504
v -0.036896 0.120427 0.700242
vn 1.523583 1.939767 -5.775833
v -0.028125 0.113794 0.700242
vn 0.767992 0.944892 -6.041959
v -0.028124 0.113790 0.700242
vn -1.568274 2.352230 -3.720068
v -0.036903 0.120429 0.700242
vn -1.321468 3.170526 -2.840593
v 0.101837 0.284334 0.797615
vn 1.900498 2.392879 -5.460269
v 0.110620 0.277693 0.797615
vn 1.588614 1.885617 -5.777339
v -0.025562 0.111656 0.700242
vn 0.763004 0.913849 -6.048877
v -0.025569 0.111658 0.700241
vn 1.962875 2.336443 -5.466814
v 0.113167 0.275567 0.797614
vn 0.819675 0.968297 -6.015638
v 0.067904 0.032533 0.700241
vn 1.971159 2.328674 -5.467848
v 0.206642 0.196444 0.797614
vn 2.557577 1.818677 -5.312377
v 0.211918 0.191978 0.797614
vn 2.144048 1.549516 -5.663276
v 0.209620 0.189264 0.796002
vn 3.634883 0.473745 -4.878536
v 0.211921 0.191970 0.797614
vn 3.302272 0.302241 -5.214064
v 0.209625 0.189257 0.796002
vn -1.873519 3.579874 2.437644
v 0.067108 0.243308 0.917986
vn -3.641878 1.980830 2.858584
v 0.064519 0.240248 0.917986
vn -4.760813 2.835094 1.910990
v -0.074221 0.076346 0.820616
vn -4.809659 4.042869 0.003423
v -0.073816 0.076832 0.819676
vn -4.851559 3.991961 -0.034401
v -0.074311 0.076238 0.819156
vn -4.797263 4.057604 0.016068
v 0.064921 0.240732 0.917051
vn -2.230038 -2.634504 5.249793
v -0.068947 0.071877 0.820615
vn -2.367520 -2.796919 5.100294
v -0.069440 0.071286 0.820097
vn -2.274158 -2.712894 5.190803
v 0.024034 -0.007838 0.820097
vn -2.246821 -2.695122 5.212152
v 0.026582 -0.009963 0.820096
vn -1.687942 4.680371 1.516953
v 0.067511 0.243791 0.917051
vn -4.801623 4.052215 -0.030836
v -0.039001 0.117960 0.700761
vn -2.005375 4.938175 1.120964
v 0.070513 0.247338 0.906798
vn -0.455467 3.478872 -1.276297
v 0.102330 0.284925 0.798132
vn -4.764902 4.092915 -0.100268
v 0.100033 0.282211 0.796520
vn -4.766425 4.091103 -0.101209
v -0.036412 0.121019 0.700761
vn 2.536135 3.205291 -4.699235
v 0.111113 0.278284 0.798132
vn 2.652980 3.168366 -4.656943
v 0.113660 0.276158 0.798132
vn 2.715777 3.208341 -4.573290
v 0.207135 0.197035 0.798132
vn -3.235902 0.206407 -2.320658
v -0.039495 0.117369 0.700243
vn -1.725063 -2.052049 -4.889656
v 0.059254 0.033781 0.700242
vn -1.634820 -2.058226 -4.861564
v 0.061809 0.031649 0.700241
vn -2.442138 1.119782 -3.814193
v -0.039492 0.117371 0.700242
vn -0.918364 -1.084885 -5.977343
v -0.034218 0.112906 0.700242
vn -0.045971 -0.053913 -6.282383
v -0.036937 0.115239 0.700241
vn -4.578048 4.042870 -1.050951
v -0.036905 0.120428 0.700243
vn -0.045880 -0.054199 -6.282383
v -0.031663 0.110774 0.700241
vn 0.006092 0.008474 -6.283167
v -0.034348 0.118297 0.700241
vn 0.142626 0.245077 -0.615736
v 0.099539 0.281620 0.796002
# 165 vertices, 0 vertices normals

f 1//1 2//2 3//3
f 1//1 3//3 4//4
f 1//1 5//5 6//6
f 1//1 7//7 5//5
f 1//1 4//4 7//7
f 1//1 6//6 8//8
f 1//1 8//8 9//9
f 1//1 10//10 11//11
f 1//1 11//11 12//12
f 1//1 12//12 13//13
f 1//1 13//13 2//2
f 1//1 9//9 14//14
f 1//1 14//14 10//10
f 2//2 15//15 16//16
f 2//2 17//17 3//3
f 2//2 16//16 17//17
f 2//2 13//13 15//15
f 18//18 19//19 16//16
f 18//18 15//15 13//13
f 18//18 16//16 15//15
f 18//18 13//13 19//19
f 19//19 20//20 21//21
f 19//19 22//22 20//20
f 19//19 23//23 24//24
f 19//19 25//25 22//22
f 19//19 26//26 16//16
f 19//19 24//24 25//25
f 19//19 27//27 26//26
f 19//19 28//28 29//29
f 19//19 29//29 30//30
f 19//19 30//30 31//31
f 19//19 21//21 27//27
f 19//19 13//13 28//28
f 19//19 31//31 23//23
f 32//32 33//33 34//34
f 32//32 35//35 33//33
f 32//32 36//36 35//35
f 32//32 37//37 36//36
f 32//32 38//38 37//37
f 32//32 39//39 38//38
f 32//32 40//40 39//39
f 32//32 41//41 42//42
f 32//32 34//34 41//41
f 32//32 42//42 43//43
f 32//32 43//43 44//44
f 32//32 45//45 40//40
f 32//32 46//46 45//45
f 32//32 44//44 46//46
f 47//47 48//48 49//49
f 47//47 49//49 50//50
f 47//47 51//51 52//52
f 47//47 50//50 51//51
f 47//47 53//53 28//28
f 47//47 28//28 48//48
f 47//47 54//54 55//55
f 47//47 56//56 57//57
f 47//47 57//57 53//53
f 47//47 58//58 56//56
f 47//47 52//52 54//54
f 47//47 55//55 58//58
f 33//33 35//35 34//34
f 35//35 36//36 34//34
f 36//36 59//59 34//34
f 36//36 37//37 38//38
f 36//36 38//38 59//59
f 59//59 60//60 34//34
f 59//59 38//38 60//60
f 60//60 61//61 34//34
f 60//60 38//38 61//61
f 61//61 62//62 34//34
f 61//61 38//38 39//39
f 61//61 39//39 62//62
f 62//62 63//63 34//34
f 62//62 39//39 63//63
f 63//63 64//64 34//34
f 63//63 39//39 64//64
f 64//64 65//65 34//34
f 64//64 39//39 66//66
f 64//64 66//66 65//65
f 65//65 67//67 34//34
f 65//65 66//66 67//67
f 67//67 68//68 34//34
f 67//67 66//66 68//68
f 68//68 69//69 34//34
f 68//68 66//66 70//70
f 68//68 70//70 69//69
f 69//69 71//71 34//34
f 69//69 70//70 71//71
f 71//71 72//72 34//34
f 71//71 70//70 73//73
f 71//71 73//73 72//72
f 39//39 40//40 66//66
f 72//72 74//74 34//34
f 72//72 73//73 74//74
f 66//66 40//40 75//75
f 66//66 75//75 70//70
f 40//40 45//45 76//76
f 40//40 76//76 75//75
f 74//74 77//77 78//78
f 74//74 73//73 79//79
f 74//74 79//79 77//77
f 74//74 78//78 34//34
f 70//70 75//75 80//80
f 70//70 80//80 73//73
f 75//75 76//76 80//80
f 20//20 22//22 21//21
f 48//48 81//81 50//50
f 48//48 50//50 49//49
f 48//48 28//28 81//81
f 3//3 17//17 4//4
f 17//17 16//16 82//82
f 17//17 82//82 4//4
f 77//77 83//83 78//78
f 77//77 79//79 83//83
f 73//73 80//80 84//84
f 73//73 84//84 79//79
f 80//80 76//76 84//84
f 22//22 25//25 21//21
f 16//16 26//26 82//82
f 81//81 85//85 50//50
f 81//81 28//28 85//85
f 23//23 31//31 24//24
f 5//5 7//7 86//86
f 5//5 87//87 6//6
f 5//5 86//86 87//87
f 7//7 4//4 88//88
f 7//7 88//88 86//86
f 4//4 82//82 89//89
f 4//4 89//89 88//88
f 82//82 26//26 90//90
f 82//82 90//90 89//89
f 83//83 79//79 91//91
f 83//83 92//92 78//78
f 83//83 91//91 92//92
f 79//79 84//84 93//93
f 79//79 93//93 91//91
f 41//41 34//34 42//42
f 84//84 76//76 93//93
f 25//25 24//24 94//94
f 25//25 95//95 21//21
f 25//25 94//94 95//95
f 26//26 27//27 90//90
f 51//51 50//50 96//96
f 51//51 96//96 52//52
f 50//50 85//85 97//97
f 50//50 97//97 96//96
f 85//85 28//28 98//98
f 85//85 99//99 97//97
f 85//85 98//98 99//99
f 24//24 100//100 94//94
f 24//24 31//31 100//100
f 6//6 87//87 101//101
f 6//6 101//101 102//102
f 6//6 102//102 8//8
f 87//87 86//86 103//103
f 87//87 103//103 101//101
f 86//86 104//104 105//105
f 86//86 105//105 103//103
f 86//86 88//88 104//104
f 104//104 106//106 105//105
f 104//104 88//88 89//89
f 104//104 89//89 106//106
f 101//101 103//103 107//107
f 101//101 34//34 102//102
f 101//101 107//107 34//34
f 103//103 105//105 108//108
f 103//103 108//108 42//42
f 103//103 42//42 107//107
f 105//105 106//106 109//109
f 105//105 109//109 108//108
f 106//106 89//89 90//90
f 106//106 90//90 109//109
f 108//108 109//109 110//110
f 108//108 43//43 42//42
f 108//108 110//110 111//111
f 108//108 111//111 43//43
f 109//109 90//90 110//110
f 90//90 27//27 110//110
f 92//92 91//91 112//112
f 92//92 113//113 78//78
f 92//92 114//114 113//113
f 92//92 112//112 114//114
f 91//91 93//93 115//115
f 91//91 115//115 112//112
f 34//34 107//107 116//116
f 34//34 78//78 102//102
f 34//34 116//116 42//42
f 42//42 116//116 107//107
f 93//93 76//76 115//115
f 43//43 111//111 44//44
f 95//95 94//94 45//45
f 95//95 117//117 21//21
f 95//95 45//45 117//117
f 27//27 21//21 110//110
f 96//96 97//97 118//118
f 96//96 118//118 52//52
f 53//53 57//57 28//28
f 28//28 57//57 119//119
f 28//28 119//119 120//120
f 28//28 13//13 98//98
f 28//28 120//120 29//29
f 97//97 99//99 121//121
f 97//97 121//121 118//118
f 99//99 98//98 13//13
f 99//99 13//13 121//121
f 122//122 123//123 124//124
f 122//122 125//125 126//126
f 122//122 124//124 125//125
f 122//122 126//126 127//127
f 122//122 127//127 123//123
f 123//123 128//128 129//129
f 123//123 129//129 124//124
f 123//123 127//127 130//130
f 123//123 130//130 128//128
f 29//29 120//120 30//30
f 128//128 131//131 129//129
f 128//128 31//31 131//131
f 128//128 130//130 132//132
f 128//128 132//132 133//133
f 128//128 133//133 134//134
f 128//128 134//134 31//31
f 94//94 100//100 31//31
f 94//94 135//135 45//45
f 94//94 136//136 135//135
f 94//94 31//31 136//136
f 30//30 120//120 31//31
f 8//8 102//102 137//137
f 8//8 138//138 9//9
f 8//8 137//137 138//138
f 139//139 140//140 141//141
f 139//139 54//54 52//52
f 139//139 141//141 54//54
f 139//139 138//138 142//142
f 139//139 9//9 138//138
f 139//139 14//14 9//9
f 139//139 142//142 140//140
f 139//139 52//52 14//14
f 10//10 14//14 143//143
f 10//10 143//143 144//144
f 10//10 144//144 145//145
f 10//10 145//145 11//11
f 102//102 78//78 137//137
f 11//11 121//121 13//13
f 11//11 13//13 12//12
f 11//11 145//145 146//146
f 11//11 146//146 121//121
f 110//110 21//21 111//111
f 140//140 142//142 147//147
f 140//140 148//148 141//141
f 140//140 149//149 150//150
f 140//140 150//150 151//151
f 140//140 147//147 149//149
f 140//140 151//151 152//152
f 140//140 152//152 148//148
f 113//113 114//114 149//149
f 113//113 149//149 147//147
f 113//113 147//147 78//78
f 114//114 112//112 153//153
f 114//114 150//150 149//149
f 114//114 153//153 150//150
f 112//112 115//115 154//154
f 112//112 154//154 153//153
f 78//78 147//147 137//137
f 115//115 155//155 154//154
f 115//115 76//76 155//155
f 117//117 45//45 44//44
f 117//117 44//44 21//21
f 45//45 135//135 76//76
f 45//45 46//46 44//44
f 21//21 44//44 111//111
f 54//54 141//141 156//156
f 54//54 58//58 55//55
f 54//54 156//156 58//58
f 56//56 157//157 57//57
f 56//56 58//58 156//156
f 56//56 156//156 157//157
f 118//118 121//121 145//145
f 118//118 144//144 52//52
f 118//118 145//145 144//144
f 57//57 157//157 158//158
f 57//57 158//158 120//120
f 57//57 120//120 119//119
f 121//121 146//146 145//145
f 159//159 160//160 156//156
f 159//159 125//125 161//161
f 159//159 161//161 160//160
f 159//159 156//156 162//162
f 159//159 162//162 125//125
f 141//141 148//148 156//156
f 160//160 157//157 156//156
f 160//160 161//161 163//163
f 160//160 163//163 157//157
f 157//157 163//163 158//158
f 125//125 124//124 129//129
f 125//125 164//164 161//161
f 125//125 129//129 164//164
f 125//125 165//165 126//126
f 125//125 162//162 165//165
f 161//161 164//164 163//163
f 163//163 164//164 129//129
f 163//163 129//129 158//158
f 158//158 129//129 131//131
f 158//158 131//131 120//120
f 120//120 131//131 31//31
f 135//135 136//136 133//133
f 135//135 133//133 76//76
f 136//136 31//31 134//134
f 136//136 134//134 133//133
f 138//138 137//137 142//142
f 14//14 52//52 143//143
f 143//143 52//52 144//144
f 137//137 147//147 142//142
f 148//148 152//152 162//162
f 148//148 162//162 156//156
f 150//150 153//153 127//127
f 150//150 126//126 151//151
f 150//150 127//127 126//126
f 153//153 154//154 127//127
f 151//151 126//126 165//165
f 151//151 165//165 162//162
f 151//151 162//162 152//152
f 154//154 155//155 130//130
f 154//154 130//130 127//127
f 155//155 76//76 132//132
f 155//155 132//132 130//130
f 76//76 133//133 132//132
# 326 faces, 0 coords texture

# End of File
