####
#
# OBJ File Generated by Meshlab
#
####
# Object matlab_mesh_slc_step10_link6.obj
#
# Vertices: 112
# Faces: 220
#
####
vn -0.575433 -5.104821 -3.445693
v 0.475462 0.422731 0.854960
vn -0.934051 -5.698594 -1.623394
v 0.474968 0.421553 0.857311
vn -1.302061 -4.747291 -2.800871
v 0.425279 0.445437 0.835289
vn -0.118876 -4.355222 -4.296899
v 0.526059 0.424742 0.848385
vn -0.010478 -5.187500 -3.269960
v 0.526101 0.424738 0.848390
vn 5.557164 -2.306694 -0.396383
v 0.581965 0.426115 0.865126
vn 4.180640 -3.525911 0.069475
v 0.581471 0.424936 0.867476
vn 3.513344 -3.712748 -1.063858
v 0.578010 0.424738 0.848400
vn 4.954697 -0.817808 -2.536279
v 0.615248 0.585888 0.817212
vn 6.162454 -0.525668 -0.459201
v 0.615251 0.585899 0.817228
vn 6.176372 -0.663059 0.329417
v 0.615251 0.585899 0.855321
vn -1.084388 -5.979141 -0.400884
v 0.474635 0.421283 0.859766
vn 1.917233 -3.228232 -2.301757
v 0.578005 0.424738 0.848390
vn -2.127309 -5.819684 0.097012
v 0.474436 0.421340 0.859978
vn -0.496578 -6.157670 0.579800
v 0.474950 0.421301 0.861044
vn -1.479919 -5.894354 1.001204
v 0.474752 0.421358 0.861256
vn -2.850576 -5.535458 0.487029
v 0.425213 0.445468 0.873337
vn -1.487687 -4.153592 -2.734824
v 0.425213 0.445468 0.835267
vn 0.182217 -6.279649 -0.037475
v 0.477207 0.421350 0.860341
vn -1.433894 -5.880815 1.666139
v 0.464403 0.453950 0.977324
vn -1.625197 -5.711989 1.941734
v 0.415064 0.470657 0.991126
vn -0.139252 -5.007346 3.064240
v 0.515908 0.449912 1.004285
vn -1.969505 -4.786670 2.733430
v 0.415012 0.470677 0.991138
vn -0.739358 -3.179732 3.731715
v 0.515882 0.449915 1.004287
vn 0.071015 -6.247157 0.480529
v 0.477523 0.421368 0.861619
vn -0.071553 -6.177888 1.106838
v 0.526101 0.424738 0.886484
vn 0.618053 -6.235232 -0.084819
v 0.580822 0.424648 0.868653
vn 3.154170 -3.733899 0.382166
v 0.581137 0.424666 0.869932
vn 2.051807 -5.257183 0.944943
v 0.578005 0.424738 0.886484
vn 3.750002 -4.344303 0.752777
v 0.578010 0.424738 0.886469
vn 6.021804 -1.385310 1.061000
v 0.567860 0.449928 1.004259
vn 4.338409 -2.234810 2.302984
v 0.567855 0.449916 1.004275
vn 5.128599 -0.308322 2.540319
v 0.605100 0.611059 0.973115
vn -0.020077 0.474201 6.260225
v 0.534579 0.480312 1.005918
vn -0.341355 -0.052943 6.230666
v 0.531450 0.462106 1.006995
vn 0.726928 0.649150 6.118485
v 0.567832 0.495307 1.004287
vn -0.420643 0.738524 6.181247
v 0.515882 0.495307 1.004287
vn -0.032140 0.682664 -6.139486
v 0.496858 0.640296 0.800682
vn 0.365695 0.072392 -6.214546
v 0.499013 0.638258 0.800682
vn -1.016947 -0.545263 -6.103237
v 0.462381 0.606580 0.804035
vn -0.654149 0.004182 -6.248813
v 0.462381 0.651758 0.804035
vn -1.707633 0.081141 -5.909092
v 0.462368 0.651859 0.804037
vn -2.496243 0.350114 -5.231684
v 0.462361 0.651942 0.804041
vn -2.901524 0.848726 -4.352825
v 0.462359 0.652007 0.804047
vn -2.904427 1.521424 -3.337991
v 0.462362 0.652054 0.804056
vn 0.531754 1.448533 -5.996223
v 0.514299 0.652054 0.804056
vn 1.004932 0.098421 -6.175252
v 0.600159 0.618377 0.813685
vn 0.645216 -0.546170 -6.219601
v 0.514212 0.606624 0.804041
vn 0.063142 -0.543069 -6.241325
v 0.495885 0.620052 0.801759
vn 0.477361 -0.864320 -6.186981
v 0.514146 0.606602 0.804037
vn 0.750566 -0.774762 -6.159152
v 0.615101 0.585909 0.817164
vn 1.229878 0.366535 -6.130267
v 0.615158 0.631212 0.817173
vn 1.149645 -0.735333 -6.066476
v 0.615158 0.585894 0.817173
vn -0.918983 -0.074779 6.206669
v 0.430304 0.481987 0.993992
vn -2.445617 0.568281 5.209970
v 0.414954 0.516110 0.991143
vn -3.079586 -1.541358 2.712998
v 0.414954 0.470718 0.991143
vn 0.024881 -0.659205 6.163054
v 0.533606 0.460067 1.006995
vn 0.406852 -1.832913 5.593059
v 0.567832 0.449915 1.004287
vn -0.043581 -0.930252 -6.207996
v 0.490841 0.614910 0.802438
vn -0.031990 -0.786513 -6.230763
v 0.493323 0.617499 0.802091
vn 0.110607 -1.084014 -6.184620
v 0.513969 0.606560 0.804036
vn 0.004977 -1.184609 -6.170482
v 0.513858 0.606539 0.804040
vn -0.015377 -1.178306 -6.171624
v 0.462422 0.606539 0.804040
vn -0.345182 -0.915690 -6.185979
v 0.462399 0.606560 0.804036
vn 0.298527 -1.004127 -6.184645
v 0.514065 0.606580 0.804035
vn 0.221332 -1.441152 -6.097319
v 0.477063 0.445527 0.835244
vn -2.284304 -2.642023 -2.854870
v 0.425126 0.445527 0.835244
vn -2.060340 -0.179787 -5.746928
v 0.462368 0.606602 0.804037
vn -3.273884 -1.606797 -2.694250
v 0.425105 0.445555 0.835243
vn -3.483160 -0.023617 -5.186469
v 0.462361 0.606624 0.804041
vn 0.748750 -2.715733 -5.203413
v 0.577996 0.424742 0.848385
vn -3.462281 -5.164002 0.421351
v 0.425162 0.445498 0.873347
vn -2.302960 -2.948979 3.151037
v 0.414975 0.470697 0.991144
vn 1.627163 0.770251 -5.893450
v 0.615201 0.631247 0.817184
vn 1.891440 -0.787555 -5.822362
v 0.615201 0.585885 0.817184
vn -4.157891 0.008327 -4.707716
v 0.425105 0.490947 0.835243
vn -5.209527 0.338572 -2.465504
v 0.425099 0.490961 0.835249
vn 0.042990 -3.056542 -5.478077
v 0.477064 0.445468 0.835267
vn 0.170293 -2.183246 -5.845040
v 0.477066 0.445498 0.835252
vn -1.764089 -3.415418 -2.878636
v 0.425162 0.445498 0.835252
vn 1.603335 -2.500088 2.995867
v 0.567845 0.449912 1.004285
vn -4.394596 -4.369554 0.295934
v 0.425126 0.445527 0.873351
vn 0.651835 3.249817 -4.865551
v 0.514320 0.652083 0.804068
vn 2.369312 1.669772 -4.920902
v 0.615232 0.631269 0.817197
vn 3.235588 -0.906566 -5.014105
v 0.615232 0.585883 0.817197
vn 2.513042 0.153914 5.502789
v 0.567845 0.495298 1.004285
vn 2.664158 1.477571 2.619668
v 0.605100 0.656439 0.973115
vn -6.031034 1.648204 0.319307
v 0.452211 0.677224 0.959956
vn -5.922213 1.828540 -0.556123
v 0.452211 0.677224 0.921849
vn -6.165074 0.710525 -0.315573
v 0.414947 0.516121 0.953043
vn -3.078686 2.539591 2.181781
v 0.452218 0.677247 0.959968
vn -3.766711 3.907186 -0.673778
v 0.452218 0.677247 0.921861
vn -4.538793 0.945129 2.484062
v 0.414947 0.516121 0.991136
vn -5.379556 -3.117214 0.104585
v 0.425105 0.445555 0.873350
vn -2.382184 2.782024 -2.778385
v 0.462370 0.652083 0.804068
vn 3.018456 2.323649 -2.104778
v 0.615248 0.631280 0.817212
vn 2.199932 3.691465 1.808847
v 0.605097 0.656444 0.973112
vn 3.315537 4.435614 -0.328131
v 0.605097 0.656444 0.935005
vn 0.342843 4.783234 2.453989
v 0.504174 0.677254 0.959970
vn 5.690446 2.644224 -0.008061
v 0.605100 0.656439 0.935022
vn -0.132017 2.217200 5.746287
v 0.553157 0.656439 0.973115
vn -1.057809 3.514385 2.571731
v 0.452231 0.677254 0.959970
vn -1.324430 5.834808 -0.485995
v 0.452231 0.677254 0.921876
vn -5.354177 -0.504789 1.886101
v 0.414947 0.470741 0.991136
vn -5.945872 -1.993895 -0.054152
v 0.414954 0.470718 0.953037
vn -1.104684 5.291512 -2.239257
v 0.462383 0.652095 0.804082
vn 0.780002 5.246872 -2.620955
v 0.514326 0.652095 0.804082
vn 5.283614 2.063114 -0.566808
v 0.615251 0.631279 0.817228
vn 0.639577 6.107198 -0.636851
v 0.504174 0.677254 0.921876
vn -5.241878 -0.423114 -2.275474
v 0.425099 0.445581 0.835249
vn -6.152632 -0.787364 -0.181383
v 0.414947 0.470741 0.953043
vn 6.048130 1.090833 0.152878
v 0.615251 0.631279 0.855321
# 112 vertices, 0 vertices normals

f 1//1 2//2 3//3
f 1//1 3//3 4//4
f 1//1 5//5 2//2
f 1//1 4//4 5//5
f 6//6 7//7 8//8
f 6//6 8//8 9//9
f 6//6 9//9 10//10
f 6//6 11//11 7//7
f 6//6 10//10 11//11
f 2//2 12//12 3//3
f 2//2 13//13 12//12
f 2//2 5//5 13//13
f 14//14 12//12 15//15
f 14//14 16//16 17//17
f 14//14 15//15 16//16
f 14//14 3//3 12//12
f 14//14 17//17 18//18
f 14//14 18//18 3//3
f 12//12 19//19 15//15
f 12//12 13//13 19//19
f 16//16 20//20 21//21
f 16//16 15//15 22//22
f 16//16 21//21 23//23
f 16//16 23//23 17//17
f 16//16 22//22 24//24
f 16//16 24//24 20//20
f 20//20 24//24 21//21
f 15//15 19//19 25//25
f 15//15 25//25 26//26
f 15//15 26//26 22//22
f 19//19 27//27 25//25
f 19//19 13//13 27//27
f 27//27 28//28 25//25
f 27//27 13//13 28//28
f 7//7 28//28 8//8
f 7//7 11//11 28//28
f 25//25 28//28 29//29
f 25//25 29//29 26//26
f 28//28 30//30 29//29
f 28//28 31//31 32//32
f 28//28 32//32 30//30
f 28//28 13//13 8//8
f 28//28 11//11 33//33
f 28//28 33//33 31//31
f 34//34 35//35 36//36
f 34//34 36//36 37//37
f 34//34 37//37 35//35
f 38//38 39//39 40//40
f 38//38 41//41 42//42
f 38//38 40//40 41//41
f 38//38 42//42 43//43
f 38//38 43//43 44//44
f 38//38 44//44 45//45
f 38//38 46//46 39//39
f 38//38 45//45 46//46
f 39//39 47//47 48//48
f 39//39 49//49 40//40
f 39//39 50//50 49//49
f 39//39 48//48 50//50
f 39//39 46//46 47//47
f 47//47 51//51 48//48
f 47//47 52//52 53//53
f 47//47 53//53 51//51
f 47//47 46//46 52//52
f 54//54 35//35 37//37
f 54//54 55//55 56//56
f 54//54 37//37 55//55
f 54//54 56//56 24//24
f 54//54 24//24 35//35
f 35//35 57//57 36//36
f 35//35 24//24 57//57
f 57//57 58//58 36//36
f 57//57 24//24 58//58
f 59//59 60//60 61//61
f 59//59 62//62 63//63
f 59//59 63//63 64//64
f 59//59 61//61 62//62
f 59//59 64//64 60//60
f 60//60 49//49 61//61
f 60//60 64//64 49//49
f 49//49 64//64 40//40
f 49//49 65//65 61//61
f 49//49 50//50 65//65
f 62//62 61//61 66//66
f 62//62 66//66 63//63
f 63//63 66//66 67//67
f 63//63 67//67 64//64
f 61//61 65//65 66//66
f 64//64 67//67 40//40
f 41//41 40//40 68//68
f 41//41 68//68 42//42
f 65//65 50//50 66//66
f 40//40 67//67 69//69
f 40//40 69//69 68//68
f 42//42 68//68 70//70
f 42//42 70//70 43//43
f 50//50 51//51 71//71
f 50//50 48//48 51//51
f 50//50 71//71 66//66
f 51//51 53//53 71//71
f 68//68 69//69 70//70
f 3//3 18//18 4//4
f 30//30 32//32 29//29
f 31//31 33//33 32//32
f 17//17 72//72 18//18
f 17//17 23//23 73//73
f 17//17 73//73 72//72
f 21//21 24//24 23//23
f 52//52 74//74 75//75
f 52//52 75//75 53//53
f 52//52 46//46 74//74
f 43//43 70//70 76//76
f 43//43 76//76 77//77
f 43//43 77//77 44//44
f 78//78 18//18 79//79
f 78//78 79//79 71//71
f 78//78 71//71 4//4
f 78//78 4//4 18//18
f 53//53 75//75 71//71
f 8//8 13//13 9//9
f 70//70 69//69 76//76
f 18//18 72//72 80//80
f 18//18 80//80 79//79
f 29//29 32//32 81//81
f 29//29 81//81 26//26
f 32//32 33//33 81//81
f 72//72 82//82 80//80
f 72//72 73//73 82//82
f 23//23 24//24 73//73
f 26//26 81//81 22//22
f 74//74 46//46 83//83
f 74//74 84//84 85//85
f 74//74 85//85 75//75
f 74//74 83//83 84//84
f 44//44 77//77 45//45
f 79//79 80//80 66//66
f 79//79 66//66 71//71
f 75//75 13//13 71//71
f 75//75 85//85 13//13
f 13//13 5//5 71//71
f 13//13 85//85 9//9
f 80//80 82//82 67//67
f 80//80 67//67 66//66
f 5//5 4//4 71//71
f 86//86 81//81 33//33
f 86//86 36//36 58//58
f 86//86 58//58 81//81
f 86//86 87//87 36//36
f 86//86 33//33 87//87
f 88//88 89//89 90//90
f 88//88 91//91 92//92
f 88//88 92//92 89//89
f 88//88 93//93 91//91
f 88//88 90//90 93//93
f 81//81 58//58 22//22
f 82//82 73//73 56//56
f 82//82 94//94 67//67
f 82//82 56//56 94//94
f 73//73 24//24 56//56
f 22//22 58//58 24//24
f 46//46 45//45 95//95
f 46//46 95//95 83//83
f 84//84 83//83 96//96
f 84//84 96//96 9//9
f 84//84 9//9 85//85
f 45//45 89//89 95//95
f 45//45 77//77 89//89
f 89//89 92//92 95//95
f 89//89 77//77 90//90
f 67//67 94//94 69//69
f 97//97 98//98 99//99
f 97//97 99//99 87//87
f 97//97 87//87 100//100
f 97//97 100//100 98//98
f 36//36 87//87 101//101
f 36//36 101//101 37//37
f 91//91 55//55 102//102
f 91//91 102//102 103//103
f 91//91 93//93 55//55
f 91//91 103//103 92//92
f 55//55 37//37 102//102
f 55//55 93//93 104//104
f 55//55 104//104 56//56
f 37//37 101//101 102//102
f 94//94 56//56 105//105
f 94//94 105//105 69//69
f 56//56 104//104 105//105
f 83//83 95//95 106//106
f 83//83 107//107 96//96
f 83//83 106//106 107//107
f 96//96 98//98 108//108
f 96//96 107//107 98//98
f 96//96 108//108 10//10
f 96//96 10//10 9//9
f 98//98 107//107 109//109
f 98//98 109//109 99//99
f 98//98 100//100 108//108
f 95//95 92//92 106//106
f 76//76 69//69 110//110
f 76//76 110//110 77//77
f 92//92 103//103 106//106
f 69//69 105//105 111//111
f 69//69 111//111 110//110
f 105//105 104//104 111//111
f 99//99 102//102 101//101
f 99//99 101//101 87//87
f 99//99 109//109 102//102
f 112//112 87//87 33//33
f 112//112 11//11 108//108
f 112//112 33//33 11//11
f 112//112 108//108 100//100
f 112//112 100//100 87//87
f 102//102 109//109 103//103
f 93//93 90//90 104//104
f 11//11 10//10 108//108
f 104//104 90//90 111//111
f 107//107 106//106 109//109
f 109//109 106//106 103//103
f 77//77 110//110 111//111
f 77//77 111//111 90//90
# 220 faces, 0 coords texture

# End of File
