####
#
# OBJ File Generated by Meshlab
#
####
# Object matlab_mesh_step26_link2.obj
#
# Vertices: 161
# Faces: 318
#
####
vn -0.019117 -0.409845 6.266425
v 0.046082 0.273265 0.868128
vn 2.939206 -0.437682 3.901480
v 0.046741 0.273236 0.868128
vn -0.202971 -0.275868 6.259252
v -0.106802 0.283554 0.868252
vn -3.049158 -0.312623 3.951919
v -0.112201 0.052819 0.845848
vn -3.085711 -0.456314 3.315019
v -0.112291 0.048934 0.845471
vn 2.832197 0.889025 2.479592
v 0.046773 0.273568 0.868127
vn 2.200205 2.222082 3.387910
v 0.036376 0.284870 0.868250
vn -0.017740 -0.094293 6.281465
v -0.106779 0.283558 0.868252
vn -0.001350 -0.057594 6.282657
v -0.099245 0.283382 0.868252
vn -0.001078 -0.057609 6.282657
v 0.023189 0.280512 0.868252
vn 0.003636 -0.047499 6.282808
v 0.034477 0.280852 0.868252
vn 0.029820 -0.035933 6.282719
v 0.036282 0.280872 0.868250
vn 2.560389 -0.766511 5.560685
v 0.030789 0.046266 0.845469
vn 2.480784 -1.960592 2.243797
v 0.030799 0.045402 0.845332
vn -0.018698 -0.801698 6.229145
v -0.104739 0.048758 0.845471
vn -0.001976 -0.804329 6.228516
v 0.017695 0.045903 0.845471
vn 0.020104 -0.804452 6.228773
v 0.019472 0.045923 0.845469
vn 0.801091 -0.830445 6.109348
v 0.030787 0.046265 0.845469
vn 0.469058 -6.193795 0.300546
v 0.024614 0.044086 0.837630
vn 0.799264 -6.095220 -0.378614
v 0.024613 0.044086 0.837568
vn 1.256248 -5.978512 0.262560
v 0.030787 0.045395 0.845312
vn 0.134758 -6.190732 1.040572
v 0.019505 0.045058 0.845321
vn -0.060049 -6.220052 0.852141
v 0.017700 0.045038 0.845323
vn -1.686280 -1.918179 1.527818
v -0.112282 0.048074 0.845335
vn 5.437166 1.893590 0.318921
v 0.046781 0.273654 0.867475
vn 4.764727 2.449408 0.194758
v 0.048288 0.289254 0.749167
vn 4.599402 4.233368 0.633910
v 0.036385 0.284988 0.867422
vn 4.409012 1.793330 -1.303379
v 0.048288 0.289254 0.749105
vn 3.834895 4.727080 -0.527922
v 0.036682 0.297600 0.737511
vn 3.659854 5.024921 0.657496
v 0.036364 0.285008 0.867430
vn 4.348682 4.475190 0.641357
v 0.036374 0.285000 0.867426
vn 4.596138 4.221468 0.726587
v 0.036387 0.284857 0.868249
vn -0.028429 6.250406 0.350799
v -0.075065 0.301124 0.749141
vn 0.064074 6.271944 -0.211155
v -0.075065 0.301124 0.749079
vn -0.129386 6.280422 -0.054891
v -0.095040 0.300638 0.737551
vn -0.327137 6.256858 0.433844
v -0.105480 0.300329 0.737860
vn -1.107596 6.061459 0.758810
v -0.106725 0.287685 0.867436
vn -0.293927 6.260488 0.323669
v -0.105612 0.300326 0.737808
vn -0.248000 6.224022 0.795537
v -0.106711 0.287686 0.867432
vn -0.131336 6.224139 0.825024
v -0.095414 0.288026 0.867436
vn 0.077621 6.224784 0.829760
v -0.093613 0.288047 0.867430
vn 0.695628 6.155340 0.818015
v 0.036349 0.285014 0.867436
vn -0.021879 6.223564 0.843206
v -0.093627 0.288046 0.867434
vn 1.584018 3.209885 -2.349125
v 0.036650 0.297617 0.737481
vn 0.543322 3.343852 -3.090146
v 0.036643 0.297617 0.737479
vn 0.649052 6.208010 0.603587
v 0.036374 0.286100 0.856232
vn 1.009199 -6.107660 -0.656663
v 0.031092 0.058005 0.715385
vn 3.191049 -3.329912 -0.461560
v 0.031093 0.058006 0.715380
vn -0.040055 -6.222992 -0.835621
v 0.017995 0.057645 0.715382
vn 0.127391 -6.222651 -0.840226
v 0.019782 0.057665 0.715380
vn -3.152270 -3.379176 -0.439167
v -0.111988 0.060677 0.715378
vn -3.238453 -3.389866 -0.336101
v -0.112013 0.059590 0.726582
vn 3.575105 3.151430 -1.830108
v 0.036669 0.297608 0.737497
vn 4.473444 0.516785 -4.365583
v 0.036679 0.296736 0.737359
vn 1.769568 -1.666231 -1.942660
v 0.031090 0.058135 0.714565
vn 5.810933 -1.866392 -0.167884
v 0.031067 0.056919 0.726579
vn 2.879139 0.089530 -4.149335
v 0.031184 0.062141 0.714565
vn 0.039705 6.265419 -0.387404
v -0.093244 0.300657 0.737528
vn -0.300572 6.260070 0.306454
v -0.105734 0.300323 0.737760
vn -0.308401 6.259498 0.287477
v -0.105846 0.300319 0.737716
vn -0.317535 6.258607 0.264778
v -0.105949 0.300316 0.737675
vn -0.127719 6.277660 -0.164082
v -0.095067 0.300637 0.737530
vn -0.327829 6.257399 0.238862
v -0.106041 0.300313 0.737638
vn -0.340389 6.255482 0.206573
v -0.106124 0.300310 0.737606
vn -0.356371 6.252396 0.164062
v -0.106197 0.300306 0.737576
vn -0.128803 6.267685 -0.366296
v -0.095088 0.300636 0.737513
vn -0.377632 6.247066 0.106171
v -0.106261 0.300303 0.737551
vn -0.406642 6.237860 0.028865
v -0.106314 0.300300 0.737530
vn -0.449587 6.218782 -0.091412
v -0.106358 0.300298 0.737513
vn -0.129499 6.236449 -0.697923
v -0.095104 0.300634 0.737499
vn 0.039095 6.247431 -0.579003
v -0.093274 0.300656 0.737511
vn -0.522998 6.171135 -0.300330
v -0.106392 0.300295 0.737499
vn 0.038305 6.199822 -0.920995
v -0.093299 0.300654 0.737497
vn 2.208642 5.710786 0.720326
v 0.036356 0.285013 0.867434
vn 1.760872 -5.607715 0.534746
v 0.030794 0.045397 0.845321
vn -0.028224 0.542774 6.234558
v -0.106685 0.287556 0.868252
vn -0.216702 3.044465 3.623142
v -0.106709 0.287556 0.868252
vn -0.001405 0.399696 6.257655
v -0.095397 0.287896 0.868252
vn 0.001507 0.064287 6.282527
v 0.027037 0.285026 0.868252
vn 0.003973 0.063318 6.282522
v 0.034571 0.284850 0.868252
vn -0.044061 3.220464 4.364867
v -0.095407 0.287897 0.868252
vn 0.004519 0.166185 6.280865
v 0.034570 0.284858 0.868252
vn 0.016471 0.716018 6.220932
v -0.093592 0.287916 0.868250
vn 1.848923 2.576146 3.356830
v 0.036366 0.284878 0.868250
vn 0.050132 3.506395 3.593854
v -0.093611 0.287917 0.868250
vn 0.020706 0.885609 6.213365
v 0.028823 0.285055 0.868250
vn -0.129309 6.104943 -1.373481
v -0.095115 0.300633 0.737489
vn -0.683683 6.001140 -0.741509
v -0.106416 0.300292 0.737489
vn -1.516161 6.037792 0.582213
v -0.106700 0.288771 0.856236
vn 0.035994 6.031607 -1.605325
v -0.093318 0.300653 0.737487
vn 3.950461 0.584757 -4.799277
v 0.036668 0.296745 0.737350
vn 2.870260 3.236993 -2.033292
v 0.036658 0.297614 0.737487
vn -0.048079 -5.993083 1.708778
v 0.017700 0.045039 0.845330
vn 0.124078 -5.944016 1.863171
v 0.019496 0.045059 0.845328
vn 2.766756 -3.972571 1.074271
v 0.030798 0.045399 0.845328
vn 3.880221 0.385230 -4.900342
v 0.036577 0.292865 0.736973
vn -1.000636 2.813316 3.304511
v -0.106723 0.287556 0.868251
vn -1.261209 -0.241728 6.039460
v -0.106816 0.283550 0.868251
vn -0.143737 5.878991 1.945045
v -0.095412 0.287897 0.868251
vn -0.029768 5.947514 1.810050
v -0.093625 0.287917 0.868249
vn 1.209968 3.444974 3.197262
v 0.036358 0.284884 0.868249
vn 0.103969 4.453337 4.421621
v 0.028809 0.285060 0.868249
vn 0.481412 5.409719 2.413733
v 0.036351 0.284885 0.868247
vn -0.120067 5.143746 -3.203684
v -0.095120 0.300631 0.737483
vn -1.258841 4.843689 -1.829712
v -0.106431 0.300289 0.737483
vn 0.017697 4.985341 -3.352343
v -0.093333 0.300651 0.737481
vn 1.708332 5.979101 0.583817
v 0.036381 0.286099 0.856234
vn -0.027232 -4.191219 4.042006
v 0.017701 0.045040 0.845334
vn 0.077404 -4.150949 4.101491
v 0.019488 0.045060 0.845332
vn 2.484121 0.490298 -5.646653
v 0.036569 0.292869 0.736967
vn 2.603800 0.692065 -5.540395
v 0.036659 0.296752 0.737345
vn -2.909231 1.851108 1.981053
v -0.106727 0.287555 0.868249
vn -4.103266 -0.100981 3.003548
v -0.106820 0.283548 0.868249
vn -6.153903 -0.003305 0.867624
v -0.112291 0.048939 0.845471
vn -6.281927 0.040271 0.007432
v -0.112294 0.049068 0.844656
vn -6.271736 -0.293775 -0.035632
v -0.112284 0.048203 0.844519
vn -6.186047 -0.741788 0.053626
v -0.112282 0.048074 0.845334
vn -6.281427 0.145550 0.021224
v -0.106823 0.283676 0.867438
vn 0.710778 -1.424354 5.953339
v 0.030796 0.045404 0.845333
vn -6.281477 0.146504 0.000003
v -0.106798 0.284763 0.856234
vn -6.281477 0.146515 -0.000253
v -0.106529 0.296279 0.737481
vn -6.281477 0.146503 -0.000271
v -0.106620 0.292394 0.737104
vn -6.210568 0.089716 -0.636828
v -0.112000 0.061666 0.714704
vn -4.200098 3.017272 0.283149
v -0.106704 0.288770 0.856234
vn -4.017413 3.054425 0.421724
v -0.106729 0.287683 0.867438
vn -0.058739 2.641158 -5.391205
v -0.095120 0.300628 0.737481
vn -2.275052 1.750064 -1.939975
v -0.106435 0.300287 0.737481
vn -0.018545 2.643690 -5.385810
v -0.093343 0.300648 0.737479
vn -5.823949 0.335675 -2.085126
v -0.111906 0.065678 0.714703
vn -2.929386 0.238729 -3.995688
v -0.111897 0.064813 0.714567
vn -6.135637 0.188641 -0.941958
v -0.111906 0.065674 0.714704
vn -5.873641 0.286024 -1.535052
v -0.106526 0.296402 0.737104
vn 0.068510 2.937149 -5.073464
v 0.029091 0.297793 0.737479
vn -6.267845 -0.421460 -0.055053
v -0.112016 0.059719 0.725771
vn -0.021676 -3.211006 -3.597227
v 0.017993 0.057774 0.714567
vn -0.145132 -6.221899 -0.853732
v -0.104436 0.060501 0.715378
vn -0.139702 -5.989096 -1.727806
v -0.104438 0.060629 0.714567
vn 0.007347 -1.824898 5.945235
v 0.017704 0.045042 0.845335
vn -0.058120 -2.491649 5.524737
v -0.104730 0.047897 0.845335
vn 0.063857 -3.105143 -3.613905
v 0.019780 0.057794 0.714565
vn 0.032099 -1.801135 5.957648
v 0.019481 0.045062 0.845333
vn -2.741609 -0.516324 -3.642417
v -0.111990 0.060807 0.714567
vn -0.028670 -1.228422 -6.072941
v -0.104441 0.060631 0.714567
vn -2.131488 -2.080240 -1.761381
v -0.111990 0.060805 0.714567
vn -0.004203 -0.102005 -6.281488
v -0.110203 0.060827 0.714565
vn -6.082485 0.156073 -1.551063
v -0.111897 0.064813 0.714567
vn -0.002409 -0.103205 -6.281489
v -0.102654 0.060651 0.714565
vn -0.013742 0.491591 -6.262803
v -0.100586 0.065154 0.714567
vn -0.007355 0.186051 -6.277600
v -0.110110 0.064833 0.714565
vn -2.742226 0.516535 -4.661358
v -0.106517 0.295541 0.736968
vn -0.016135 0.607590 -6.253718
v -0.095201 0.295883 0.736968
vn -0.000038 0.308029 -6.268043
v -0.098799 0.065174 0.714565
vn 0.000098 0.607186 -6.253762
v -0.093424 0.295903 0.736966
vn 0.007083 0.303423 -6.268490
v 0.023635 0.062317 0.714565
vn 0.014153 0.606844 -6.253795
v 0.029010 0.293048 0.736966
vn 0.751310 0.581170 -6.166401
v 0.036562 0.292871 0.736966
vn 0.862292 0.805174 -6.092217
v 0.036652 0.296756 0.737343
vn -0.020047 0.795540 -6.229662
v -0.095111 0.299768 0.737345
vn -2.684306 0.607536 -4.651353
v -0.106426 0.299426 0.737345
vn 0.001370 0.796499 -6.229274
v -0.093334 0.299787 0.737343
vn 0.018529 0.794459 -6.229857
v 0.029100 0.296932 0.737343
# 161 vertices, 0 vertices normals

f 1//1 2//2 3//3
f 1//1 3//3 4//4
f 1//1 4//4 5//5
f 1//1 5//5 2//2
f 2//2 6//6 7//7
f 2//2 8//8 3//3
f 2//2 9//9 8//8
f 2//2 10//10 9//9
f 2//2 11//11 10//10
f 2//2 12//12 11//11
f 2//2 7//7 12//12
f 2//2 13//13 14//14
f 2//2 14//14 6//6
f 2//2 5//5 15//15
f 2//2 15//15 16//16
f 2//2 16//16 17//17
f 2//2 17//17 18//18
f 2//2 18//18 13//13
f 19//19 20//20 21//21
f 19//19 21//21 22//22
f 19//19 23//23 24//24
f 19//19 22//22 23//23
f 19//19 24//24 20//20
f 25//25 26//26 27//27
f 25//25 6//6 14//14
f 25//25 27//27 6//6
f 25//25 14//14 26//26
f 26//26 28//28 29//29
f 26//26 29//29 30//30
f 26//26 31//31 27//27
f 26//26 30//30 31//31
f 26//26 14//14 28//28
f 6//6 32//32 7//7
f 6//6 27//27 32//32
f 33//33 34//34 35//35
f 33//33 36//36 37//37
f 33//33 38//38 36//36
f 33//33 35//35 38//38
f 33//33 39//39 40//40
f 33//33 41//41 42//42
f 33//33 37//37 39//39
f 33//33 40//40 43//43
f 33//33 43//43 41//41
f 33//33 44//44 45//45
f 33//33 46//46 44//44
f 33//33 45//45 34//34
f 33//33 42//42 46//46
f 20//20 47//47 48//48
f 20//20 49//49 50//50
f 20//20 50//50 47//47
f 20//20 48//48 21//21
f 20//20 51//51 49//49
f 20//20 24//24 52//52
f 20//20 52//52 51//51
f 28//28 53//53 29//29
f 28//28 54//54 53//53
f 28//28 48//48 55//55
f 28//28 14//14 56//56
f 28//28 56//56 48//48
f 28//28 55//55 57//57
f 28//28 57//57 54//54
f 34//34 58//58 35//35
f 34//34 45//45 58//58
f 36//36 38//38 37//37
f 38//38 59//59 37//37
f 38//38 35//35 59//59
f 59//59 60//60 37//37
f 59//59 35//35 60//60
f 60//60 61//61 37//37
f 60//60 35//35 62//62
f 60//60 62//62 61//61
f 61//61 63//63 37//37
f 61//61 62//62 63//63
f 63//63 64//64 37//37
f 63//63 62//62 64//64
f 64//64 65//65 37//37
f 64//64 62//62 66//66
f 64//64 66//66 65//65
f 65//65 67//67 37//37
f 65//65 66//66 67//67
f 67//67 68//68 37//37
f 67//67 66//66 68//68
f 35//35 58//58 62//62
f 68//68 69//69 37//37
f 68//68 66//66 70//70
f 68//68 70//70 69//69
f 62//62 58//58 71//71
f 62//62 71//71 66//66
f 58//58 45//45 71//71
f 32//32 27//27 7//7
f 69//69 72//72 37//37
f 69//69 70//70 72//72
f 66//66 71//71 73//73
f 66//66 73//73 70//70
f 71//71 45//45 73//73
f 29//29 53//53 74//74
f 29//29 74//74 30//30
f 27//27 31//31 7//7
f 21//21 75//75 22//22
f 21//21 48//48 75//75
f 8//8 9//9 76//76
f 8//8 76//76 77//77
f 8//8 77//77 3//3
f 9//9 10//10 78//78
f 9//9 78//78 76//76
f 10//10 11//11 79//79
f 10//10 79//79 78//78
f 11//11 80//80 79//79
f 11//11 12//12 80//80
f 76//76 78//78 81//81
f 76//76 81//81 77//77
f 78//78 79//79 82//82
f 78//78 83//83 81//81
f 78//78 82//82 83//83
f 79//79 80//80 82//82
f 80//80 12//12 7//7
f 80//80 7//7 82//82
f 83//83 82//82 84//84
f 83//83 85//85 81//81
f 83//83 86//86 85//85
f 83//83 84//84 86//86
f 7//7 31//31 84//84
f 7//7 84//84 82//82
f 72//72 70//70 87//87
f 72//72 88//88 89//89
f 72//72 87//87 88//88
f 72//72 89//89 37//37
f 70//70 73//73 90//90
f 70//70 90//90 87//87
f 73//73 45//45 90//90
f 53//53 54//54 91//91
f 53//53 92//92 74//74
f 53//53 91//91 92//92
f 31//31 30//30 84//84
f 23//23 22//22 93//93
f 23//23 93//93 24//24
f 22//22 75//75 94//94
f 22//22 94//94 93//93
f 75//75 95//95 94//94
f 75//75 48//48 95//95
f 54//54 96//96 91//91
f 54//54 57//57 96//96
f 3//3 77//77 97//97
f 3//3 98//98 4//4
f 3//3 97//97 98//98
f 77//77 81//81 99//99
f 77//77 39//39 97//97
f 77//77 99//99 39//39
f 81//81 85//85 100//100
f 81//81 100//100 99//99
f 85//85 86//86 101//101
f 85//85 41//41 100//100
f 85//85 102//102 103//103
f 85//85 101//101 102//102
f 85//85 103//103 41//41
f 86//86 84//84 101//101
f 84//84 30//30 101//101
f 88//88 87//87 104//104
f 88//88 105//105 89//89
f 88//88 104//104 105//105
f 87//87 90//90 106//106
f 87//87 106//106 104//104
f 39//39 99//99 40//40
f 39//39 37//37 97//97
f 90//90 45//45 106//106
f 41//41 43//43 100//100
f 41//41 103//103 42//42
f 92//92 91//91 44//44
f 92//92 107//107 74//74
f 92//92 44//44 107//107
f 30//30 74//74 101//101
f 93//93 94//94 108//108
f 93//93 108//108 24//24
f 47//47 50//50 48//48
f 94//94 95//95 109//109
f 94//94 109//109 108//108
f 95//95 48//48 56//56
f 95//95 14//14 109//109
f 95//95 56//56 14//14
f 91//91 96//96 110//110
f 91//91 111//111 44//44
f 91//91 110//110 111//111
f 96//96 57//57 110//110
f 98//98 97//97 112//112
f 98//98 113//113 4//4
f 98//98 112//112 113//113
f 114//114 115//115 116//116
f 114//114 117//117 5//5
f 114//114 116//116 117//117
f 114//114 113//113 118//118
f 114//114 4//4 113//113
f 114//114 5//5 4//4
f 114//114 118//118 115//115
f 97//97 37//37 112//112
f 99//99 100//100 40//40
f 13//13 18//18 119//119
f 13//13 119//119 14//14
f 100//100 43//43 40//40
f 102//102 101//101 103//103
f 101//101 74//74 103//103
f 115//115 120//120 121//121
f 115//115 121//121 122//122
f 115//115 118//118 120//120
f 115//115 122//122 123//123
f 115//115 123//123 116//116
f 89//89 105//105 124//124
f 89//89 124//124 125//125
f 89//89 125//125 37//37
f 105//105 104//104 126//126
f 105//105 127//127 124//124
f 105//105 126//126 127//127
f 104//104 106//106 128//128
f 104//104 128//128 126//126
f 37//37 125//125 112//112
f 129//129 130//130 131//131
f 129//129 132//132 130//130
f 129//129 131//131 132//132
f 106//106 133//133 128//128
f 106//106 45//45 133//133
f 107//107 44//44 42//42
f 107//107 42//42 74//74
f 44//44 111//111 45//45
f 44//44 46//46 42//42
f 74//74 42//42 103//103
f 117//117 116//116 134//134
f 117//117 24//24 5//5
f 117//117 52//52 24//24
f 117//117 134//134 52//52
f 49//49 135//135 50//50
f 49//49 51//51 136//136
f 49//49 136//136 137//137
f 49//49 137//137 135//135
f 108//108 109//109 138//138
f 108//108 139//139 24//24
f 108//108 138//138 139//139
f 50//50 135//135 140//140
f 50//50 140//140 48//48
f 48//48 140//140 55//55
f 109//109 14//14 141//141
f 109//109 141//141 138//138
f 14//14 119//119 141//141
f 142//142 143//143 144//144
f 142//142 130//130 145//145
f 142//142 145//145 143//143
f 142//142 123//123 131//131
f 142//142 131//131 146//146
f 142//142 144//144 123//123
f 142//142 146//146 130//130
f 116//116 123//123 144//144
f 116//116 144//144 134//134
f 143//143 135//135 144//144
f 143//143 145//145 147//147
f 143//143 147//147 135//135
f 135//135 147//147 140//140
f 135//135 137//137 144//144
f 130//130 148//148 149//149
f 130//130 149//149 145//145
f 130//130 132//132 150//150
f 130//130 150//150 151//151
f 130//130 151//151 148//148
f 130//130 146//146 131//131
f 148//148 152//152 149//149
f 148//148 151//151 153//153
f 148//148 153//153 152//152
f 145//145 149//149 147//147
f 147//147 149//149 152//152
f 147//147 152//152 140//140
f 140//140 152//152 154//154
f 140//140 154//154 55//55
f 55//55 154//154 57//57
f 152//152 153//153 155//155
f 152//152 155//155 156//156
f 152//152 156//156 154//154
f 154//154 156//156 57//57
f 111//111 110//110 157//157
f 111//111 157//157 45//45
f 110//110 57//57 156//156
f 110//110 156//156 157//157
f 113//113 112//112 118//118
f 5//5 24//24 15//15
f 15//15 24//24 139//139
f 15//15 139//139 138//138
f 15//15 138//138 16//16
f 16//16 138//138 141//141
f 16//16 141//141 17//17
f 112//112 125//125 118//118
f 17//17 141//141 119//119
f 17//17 119//119 18//18
f 120//120 118//118 125//125
f 120//120 124//124 121//121
f 120//120 125//125 124//124
f 121//121 124//124 127//127
f 121//121 127//127 132//132
f 121//121 132//132 122//122
f 122//122 132//132 131//131
f 122//122 131//131 123//123
f 127//127 126//126 158//158
f 127//127 159//159 132//132
f 127//127 158//158 159//159
f 126//126 128//128 158//158
f 132//132 159//159 150//150
f 128//128 133//133 160//160
f 128//128 160//160 158//158
f 133//133 45//45 157//157
f 133//133 161//161 160//160
f 133//133 157//157 161//161
f 51//51 52//52 134//134
f 51//51 144//144 137//137
f 51//51 134//134 144//144
f 51//51 137//137 136//136
f 159//159 158//158 151//151
f 159//159 151//151 150//150
f 158//158 160//160 153//153
f 158//158 153//153 151//151
f 160//160 161//161 155//155
f 160//160 155//155 153//153
f 161//161 157//157 155//155
f 155//155 157//157 156//156
# 318 faces, 0 coords texture

# End of File
