####
#
# OBJ File Generated by Meshlab
#
####
# Object matlab_mesh_step8_link2.obj
#
# Vertices: 159
# Faces: 314
#
####
vn 0.656540 -3.001597 3.188575
v 0.192195 0.076529 0.927752
vn 2.194673 -3.133590 3.425963
v 0.192394 0.076651 0.927752
vn 0.047604 -1.183311 6.102580
v 0.193253 0.086760 0.929772
vn 3.267596 -5.329975 0.600058
v 0.192310 0.076593 0.927709
vn -0.219128 -0.894276 6.108142
v 0.193253 0.086770 0.929774
vn -1.170882 -0.854627 6.093350
v 0.184233 0.098125 0.929774
vn -1.927466 0.417494 5.358852
v 0.108378 0.202554 0.929774
vn -1.033065 -0.786546 6.116801
v 0.186411 0.095162 0.929774
vn -3.664138 0.718813 3.494973
v -0.057191 0.082276 0.812646
vn -2.898460 -2.118243 5.128392
v 0.018659 -0.022130 0.812647
vn -2.843985 -2.200568 5.118647
v 0.020828 -0.025080 0.812646
vn -0.036308 -3.731417 3.112904
v 0.027684 -0.033489 0.812646
vn -0.559639 -3.687689 1.370990
v 0.027124 -0.033901 0.812066
vn 3.549713 -3.151957 2.498911
v 0.192509 0.076716 0.927709
vn 2.501859 -1.581605 5.150616
v 0.196484 0.089106 0.929772
vn 4.484709 3.398555 2.713601
v 0.181319 0.215380 0.825676
vn 4.264803 3.575261 2.905973
v 0.165357 0.242338 0.815974
vn 3.917284 3.365244 3.522541
v 0.112241 0.205351 0.928861
vn 4.465003 3.565945 2.610288
v 0.171608 0.234892 0.815652
vn 4.582044 3.544627 2.413779
v 0.171591 0.234932 0.815626
vn 4.770473 3.484637 2.138975
v 0.173762 0.231991 0.815603
vn 4.128027 3.169312 3.487672
v 0.119092 0.196948 0.928861
vn 4.188612 3.054825 3.526886
v 0.121266 0.193991 0.928860
vn 4.349280 2.627426 3.593446
v 0.197100 0.089595 0.928866
vn 4.276631 1.143248 -0.669499
v 0.249551 0.127690 0.815542
vn 4.572433 -3.625544 1.234624
v 0.192804 0.076897 0.927150
vn 4.710091 -2.023846 0.920497
v 0.246333 0.109863 0.825708
vn 5.462534 -2.140740 2.247529
v 0.197103 0.089561 0.928850
vn 3.461310 -5.228907 0.289805
v 0.192484 0.076693 0.927609
vn 3.552613 -5.176294 0.192566
v 0.192779 0.076874 0.927051
vn 4.380860 -3.334233 -1.249680
v 0.246309 0.109840 0.825608
vn 5.597975 -0.541897 0.602407
v 0.249548 0.127645 0.815569
vn 5.621922 0.555194 2.749724
v 0.249543 0.127621 0.815584
vn 4.974760 1.203432 3.254577
v 0.197104 0.089591 0.928864
vn 5.467506 -1.733981 2.501670
v 0.197106 0.089573 0.928856
vn 5.466878 -0.645591 2.857492
v 0.197106 0.089583 0.928860
vn 3.282122 -5.341321 0.419650
v 0.192285 0.076570 0.927609
vn 2.804175 -1.175915 4.367453
v 0.196489 0.089120 0.929774
vn -4.116518 -3.777704 -2.608172
v 0.024090 -0.027004 0.805322
vn -3.956551 -4.158569 -2.292513
v 0.027109 -0.033878 0.812036
vn -4.746501 -3.694855 -1.802256
v 0.020285 -0.025509 0.812047
vn -4.888279 -3.567489 -1.658247
v 0.018099 -0.022541 0.812057
vn -3.608807 -0.495458 0.954924
v -0.057749 0.081867 0.812068
vn -4.191299 -3.369694 -3.247104
v 0.072718 0.012598 0.698749
vn -0.344779 -4.201127 -1.814661
v 0.079568 0.004196 0.698749
vn -4.020444 0.768738 -0.899485
v -0.057749 0.081868 0.812067
vn -5.046390 -1.766102 -2.929228
v -0.009824 0.116683 0.708512
vn -4.134538 -3.021005 -3.603157
v 0.070545 0.015558 0.698745
vn -4.050870 -3.113306 -3.610044
v 0.072714 0.012607 0.698744
vn -3.870366 0.864163 -1.827356
v -0.005302 0.119968 0.698742
vn 5.072668 -0.482215 -0.066917
v 0.249551 0.127664 0.815556
vn 4.660522 -2.465125 -3.367685
v 0.248987 0.127249 0.814972
vn 1.313254 -4.414062 -2.442443
v 0.080183 0.004648 0.697835
vn 3.147515 -4.007755 -2.720569
v 0.083422 0.007001 0.697835
vn 2.377142 -1.133055 -4.185442
v 0.083424 0.007003 0.697834
vn 4.266321 3.583693 2.891805
v 0.165277 0.242475 0.815922
vn 4.267258 3.592042 2.878677
v 0.165201 0.242604 0.815874
vn 4.268847 3.601770 2.862134
v 0.165131 0.242724 0.815828
vn 4.270539 3.613414 2.842353
v 0.165065 0.242835 0.815786
vn 4.272093 3.625103 2.822458
v 0.165005 0.242937 0.815748
vn 4.274575 3.639567 2.795964
v 0.164949 0.243029 0.815712
vn 4.617751 3.569874 2.303785
v 0.171576 0.234966 0.815604
vn 4.276826 3.656116 2.765971
v 0.164899 0.243113 0.815680
vn 4.280078 3.677271 2.725122
v 0.164854 0.243188 0.815652
vn 4.662856 3.606107 2.146779
v 0.171563 0.234994 0.815585
vn 4.283452 3.703730 2.672789
v 0.164813 0.243254 0.815626
vn 4.286877 3.736979 2.603767
v 0.164778 0.243310 0.815604
vn 4.725497 3.656170 1.900716
v 0.171553 0.235017 0.815569
vn 4.290421 3.780551 2.505512
v 0.164748 0.243358 0.815585
vn 4.803818 3.509014 2.017814
v 0.173747 0.232022 0.815584
vn 4.290161 3.846033 2.341066
v 0.164723 0.243397 0.815569
vn 2.922760 4.164512 3.292015
v 0.112231 0.205359 0.928864
vn 4.811798 3.724590 1.477602
v 0.171544 0.235033 0.815557
vn 4.864346 3.553546 1.776267
v 0.173734 0.232049 0.815569
vn -3.796062 -4.317506 -2.044893
v 0.027115 -0.033889 0.812047
vn -4.820730 -3.742724 -1.361571
v 0.020277 -0.025503 0.812056
vn 4.273961 3.940779 2.054870
v 0.164703 0.243426 0.815557
vn 4.947741 3.614720 1.352850
v 0.173722 0.232071 0.815556
vn 4.133395 2.356659 -1.639651
v 0.249547 0.127696 0.815539
vn -3.371651 -4.569798 -1.543649
v 0.027119 -0.033896 0.812056
vn -0.400934 -0.291512 6.243830
v 0.184228 0.098138 0.929775
vn -0.705789 -0.350599 6.161753
v 0.108388 0.202546 0.929775
vn -0.403161 -0.292849 6.243415
v 0.180361 0.103461 0.929775
vn -0.370572 -0.274592 6.250036
v 0.186402 0.095181 0.929775
vn -0.109939 -0.264226 6.263956
v 0.193252 0.086778 0.929775
vn 2.743714 -0.504112 4.498472
v 0.196492 0.089131 0.929775
vn 4.898246 3.797025 0.589887
v 0.171538 0.235044 0.815548
vn 4.153250 4.072153 1.405883
v 0.164688 0.243447 0.815548
vn 5.031703 3.676265 0.455520
v 0.173712 0.232087 0.815547
vn 4.572261 -1.816347 -3.803907
v 0.248990 0.127266 0.814965
vn 4.811424 0.159901 -0.246681
v 0.249552 0.127679 0.815547
vn -5.007253 -3.656101 -0.457229
v 0.018098 -0.022541 0.812063
vn -4.873046 -3.784141 -0.004806
v 0.020272 -0.025498 0.812062
vn -0.316021 -5.610884 -2.032667
v 0.075052 0.000915 0.708508
vn -1.969977 -4.622428 -0.335238
v 0.027122 -0.033900 0.812062
vn 0.043436 0.031551 6.282727
v 0.122344 0.191173 0.929775
vn 1.748889 1.573301 5.147531
v 0.111627 0.204899 0.929775
vn 0.824322 2.363781 4.644999
v 0.111620 0.204909 0.929774
vn 1.709663 1.270508 5.450658
v 0.118478 0.196497 0.929775
vn 0.043420 0.031350 6.282727
v 0.194318 0.092088 0.929775
vn -0.004572 -0.003925 6.283179
v 0.191078 0.089735 0.929775
vn 3.416285 2.693016 4.473759
v 0.118476 0.196500 0.929774
vn 1.775086 1.290052 5.440517
v 0.120651 0.193540 0.929775
vn 3.615326 2.648349 4.375517
v 0.120645 0.193550 0.929774
vn 0.455180 0.330637 6.241228
v 0.124518 0.188216 0.929775
vn 3.043832 0.632664 4.629705
v 0.196493 0.089141 0.929774
vn 3.671582 2.214068 4.455264
v 0.196492 0.089148 0.929771
vn 4.440899 3.483132 -1.823284
v 0.171534 0.235049 0.815542
vn 2.713182 4.797726 2.868715
v 0.116751 0.208642 0.919098
vn 2.959789 3.914352 -0.294877
v 0.164678 0.243458 0.815542
vn 4.561524 3.334885 -1.945966
v 0.173703 0.232099 0.815542
vn 3.889814 3.052259 3.866089
v 0.119088 0.196950 0.928864
vn 3.964475 2.903920 3.912177
v 0.121257 0.194000 0.928864
vn 4.940183 2.334608 3.071284
v 0.201624 0.092874 0.919097
vn -4.152159 -3.036799 2.627676
v 0.018099 -0.022542 0.812067
vn -2.849807 -3.946539 -3.700028
v 0.079571 0.004199 0.698744
vn -0.510013 -2.411202 -4.339551
v 0.080182 0.004648 0.697834
vn -4.075561 -3.089274 2.739869
v 0.020268 -0.025492 0.812066
vn 2.006558 1.811912 -5.636509
v -0.001442 0.122768 0.697836
vn 2.237679 1.750506 -5.592120
v 0.005408 0.114366 0.697836
vn 1.053254 0.798496 -5.994821
v 0.005408 0.114363 0.697835
vn -0.664437 2.683274 -3.941432
v -0.001449 0.122772 0.697835
vn -0.328167 3.549960 -2.644147
v 0.164115 0.243051 0.814962
vn 2.827451 2.190320 -5.129663
v 0.170975 0.234639 0.814962
vn 2.356684 1.718720 -5.560084
v 0.007582 0.111409 0.697835
vn 1.108339 0.814142 -5.966191
v 0.007577 0.111413 0.697834
vn 2.884869 2.108704 -5.137989
v 0.173138 0.231696 0.814962
vn 1.104541 0.802388 -5.971039
v 0.011447 0.106085 0.697834
vn 2.890793 2.100102 -5.138895
v 0.177010 0.226367 0.814962
vn 3.365955 1.369872 -4.957820
v 0.248989 0.127287 0.814962
vn 2.235098 2.203790 -5.422592
v 0.246248 0.125295 0.813022
vn 4.092012 -0.353965 -4.488992
v 0.248991 0.127278 0.814962
vn 3.763763 -0.443158 -4.865233
v 0.246250 0.125287 0.813023
vn -1.046266 3.914597 2.525998
v 0.111618 0.204912 0.929772
vn -3.165032 2.649666 2.801327
v 0.108374 0.202556 0.929772
vn -2.753865 -0.198266 4.096315
v -0.054450 0.084268 0.814585
vn -4.110590 4.030376 1.594399
v -0.057189 0.082279 0.812647
vn -3.707035 5.073044 0.002873
v -0.056577 0.082729 0.811737
vn -3.695039 5.081790 0.015611
v 0.108983 0.203004 0.928866
vn -3.749455 5.041394 -0.035018
v -0.057137 0.082317 0.811157
vn -0.623475 4.817527 1.776530
v 0.112226 0.205360 0.928866
vn -3.698253 5.079402 -0.020211
v -0.004136 0.120825 0.698413
vn -0.865138 5.203713 1.349159
v 0.116748 0.208645 0.919096
vn 0.477871 3.570844 -1.028317
v 0.164673 0.243461 0.815539
vn -3.661306 5.105171 -0.067124
v 0.161931 0.241469 0.813600
vn -3.663043 5.103905 -0.068036
v -0.000893 0.123181 0.698413
vn 3.585584 2.787200 -4.261720
v 0.171532 0.235049 0.815539
vn 3.667696 2.688085 -4.266735
v 0.173696 0.232106 0.815539
vn 3.663187 2.661223 -4.294616
v 0.177568 0.226777 0.815539
vn -2.958134 1.123729 -2.486970
v -0.004694 0.120415 0.697836
vn -2.000736 -1.461800 -5.150269
v 0.071157 0.016008 0.697835
vn -1.926240 -1.492548 -5.123832
v 0.073326 0.013057 0.697834
vn -1.959234 1.568269 -4.427960
v -0.004691 0.120417 0.697835
vn -1.108218 -0.805064 -5.997789
v 0.067287 0.021335 0.697835
vn 0.005346 0.004589 -6.283177
v 0.000720 0.119822 0.697834
vn -0.050827 -0.036701 -6.282557
v -0.002522 0.117467 0.697834
vn -3.256891 4.856617 -1.581362
v -0.001451 0.122772 0.697836
vn -0.050832 -0.036927 -6.282557
v 0.069456 0.018385 0.697834
vn -3.361653 5.239594 -0.628744
v 0.161374 0.241059 0.813023
# 159 vertices, 0 vertices normals

f 1//1 2//2 3//3
f 1//1 4//4 2//2
f 1//1 3//3 5//5
f 1//1 6//6 7//7
f 1//1 8//8 6//6
f 1//1 5//5 8//8
f 1//1 7//7 9//9
f 1//1 10//10 11//11
f 1//1 11//11 12//12
f 1//1 12//12 13//13
f 1//1 13//13 4//4
f 1//1 9//9 10//10
f 2//2 4//4 14//14
f 2//2 14//14 15//15
f 2//2 15//15 3//3
f 16//16 17//17 18//18
f 16//16 19//19 17//17
f 16//16 20//20 19//19
f 16//16 21//21 20//20
f 16//16 18//18 22//22
f 16//16 22//22 23//23
f 16//16 23//23 24//24
f 16//16 25//25 21//21
f 16//16 24//24 25//25
f 26//26 27//27 28//28
f 26//26 14//14 29//29
f 26//26 30//30 27//27
f 26//26 29//29 30//30
f 26//26 28//28 14//14
f 27//27 30//30 31//31
f 27//27 31//31 32//32
f 27//27 33//33 34//34
f 27//27 32//32 33//33
f 27//27 35//35 28//28
f 27//27 36//36 35//35
f 27//27 34//34 36//36
f 4//4 37//37 29//29
f 4//4 29//29 14//14
f 4//4 13//13 37//37
f 14//14 28//28 35//35
f 14//14 38//38 15//15
f 14//14 35//35 38//38
f 39//39 40//40 41//41
f 39//39 41//41 42//42
f 39//39 42//42 43//43
f 39//39 44//44 45//45
f 39//39 45//45 40//40
f 39//39 46//46 47//47
f 39//39 48//48 49//49
f 39//39 49//49 44//44
f 39//39 50//50 48//48
f 39//39 43//43 46//46
f 39//39 47//47 50//50
f 30//30 29//29 13//13
f 30//30 13//13 31//31
f 31//31 51//51 32//32
f 31//31 52//52 51//51
f 31//31 45//45 53//53
f 31//31 53//53 54//54
f 31//31 54//54 55//55
f 31//31 13//13 45//45
f 31//31 55//55 52//52
f 37//37 13//13 29//29
f 17//17 56//56 18//18
f 17//17 19//19 56//56
f 56//56 57//57 18//18
f 56//56 19//19 57//57
f 57//57 58//58 18//18
f 57//57 19//19 20//20
f 57//57 20//20 58//58
f 58//58 59//59 18//18
f 58//58 20//20 59//59
f 59//59 60//60 18//18
f 59//59 20//20 60//60
f 60//60 61//61 18//18
f 60//60 20//20 62//62
f 60//60 62//62 61//61
f 61//61 63//63 18//18
f 61//61 62//62 63//63
f 63//63 64//64 18//18
f 63//63 62//62 65//65
f 63//63 65//65 64//64
f 64//64 66//66 18//18
f 64//64 65//65 66//66
f 66//66 67//67 18//18
f 66//66 65//65 68//68
f 66//66 68//68 67//67
f 20//20 21//21 62//62
f 67//67 69//69 18//18
f 67//67 68//68 69//69
f 62//62 21//21 70//70
f 62//62 70//70 65//65
f 21//21 25//25 70//70
f 69//69 71//71 72//72
f 69//69 68//68 73//73
f 69//69 73//73 71//71
f 69//69 72//72 18//18
f 65//65 70//70 74//74
f 65//65 74//74 68//68
f 70//70 25//25 74//74
f 33//33 32//32 34//34
f 40//40 75//75 76//76
f 40//40 76//76 41//41
f 40//40 45//45 75//75
f 3//3 15//15 5//5
f 15//15 38//38 5//5
f 71//71 77//77 72//72
f 71//71 73//73 77//77
f 68//68 74//74 78//78
f 68//68 78//78 73//73
f 74//74 25//25 79//79
f 74//74 79//79 78//78
f 32//32 51//51 34//34
f 41//41 76//76 42//42
f 75//75 80//80 76//76
f 75//75 45//45 80//80
f 6//6 8//8 81//81
f 6//6 82//82 7//7
f 6//6 83//83 82//82
f 6//6 81//81 83//83
f 8//8 5//5 84//84
f 8//8 84//84 81//81
f 5//5 38//38 85//85
f 5//5 85//85 84//84
f 38//38 35//35 86//86
f 38//38 86//86 85//85
f 77//77 73//73 87//87
f 77//77 88//88 72//72
f 77//77 87//87 88//88
f 73//73 78//78 89//89
f 73//73 89//89 87//87
f 78//78 79//79 89//89
f 51//51 52//52 90//90
f 51//51 91//91 34//34
f 51//51 90//90 91//91
f 35//35 36//36 86//86
f 42//42 76//76 92//92
f 42//42 92//92 43//43
f 76//76 80//80 93//93
f 76//76 93//93 92//92
f 80//80 45//45 94//94
f 80//80 95//95 93//93
f 80//80 94//94 95//95
f 52//52 55//55 90//90
f 82//82 83//83 96//96
f 82//82 97//97 98//98
f 82//82 99//99 97//97
f 82//82 96//96 99//99
f 82//82 98//98 7//7
f 83//83 81//81 100//100
f 83//83 100//100 96//96
f 81//81 101//101 100//100
f 81//81 84//84 101//101
f 101//101 84//84 85//85
f 101//101 85//85 100//100
f 97//97 99//99 102//102
f 97//97 18//18 98//98
f 97//97 102//102 18//18
f 99//99 96//96 103//103
f 99//99 103//103 104//104
f 99//99 104//104 102//102
f 96//96 100//100 86//86
f 96//96 105//105 103//103
f 96//96 86//86 105//105
f 100//100 85//85 86//86
f 103//103 105//105 106//106
f 103//103 106//106 107//107
f 103//103 107//107 104//104
f 105//105 86//86 106//106
f 86//86 36//36 106//106
f 88//88 87//87 108//108
f 88//88 109//109 72//72
f 88//88 110//110 109//109
f 88//88 108//108 110//110
f 87//87 89//89 111//111
f 87//87 111//111 108//108
f 18//18 102//102 112//112
f 18//18 72//72 98//98
f 18//18 112//112 22//22
f 22//22 112//112 113//113
f 22//22 113//113 23//23
f 89//89 79//79 111//111
f 23//23 113//113 24//24
f 91//91 90//90 25//25
f 91//91 114//114 34//34
f 91//91 25//25 114//114
f 36//36 34//34 106//106
f 92//92 93//93 115//115
f 92//92 115//115 43//43
f 44//44 49//49 45//45
f 45//45 49//49 116//116
f 45//45 116//116 117//117
f 45//45 13//13 94//94
f 45//45 117//117 53//53
f 93//93 95//95 118//118
f 93//93 118//118 115//115
f 95//95 94//94 13//13
f 95//95 13//13 118//118
f 119//119 120//120 121//121
f 119//119 122//122 123//123
f 119//119 121//121 122//122
f 119//119 123//123 124//124
f 119//119 124//124 120//120
f 120//120 125//125 126//126
f 120//120 126//126 121//121
f 120//120 124//124 127//127
f 120//120 127//127 125//125
f 53//53 117//117 54//54
f 125//125 128//128 126//126
f 125//125 55//55 128//128
f 125//125 127//127 129//129
f 125//125 129//129 130//130
f 125//125 130//130 131//131
f 125//125 131//131 55//55
f 90//90 132//132 25//25
f 90//90 133//133 132//132
f 90//90 55//55 133//133
f 54//54 117//117 55//55
f 7//7 98//98 134//134
f 7//7 135//135 136//136
f 7//7 136//136 9//9
f 7//7 134//134 135//135
f 137//137 138//138 46//46
f 137//137 46//46 43//43
f 137//137 135//135 139//139
f 137//137 136//136 135//135
f 137//137 9//9 136//136
f 137//137 139//139 138//138
f 137//137 43//43 9//9
f 10//10 115//115 11//11
f 10//10 9//9 43//43
f 10//10 43//43 115//115
f 98//98 72//72 134//134
f 102//102 104//104 112//112
f 11//11 115//115 118//118
f 11//11 118//118 12//12
f 12//12 118//118 13//13
f 104//104 113//113 112//112
f 104//104 107//107 113//113
f 106//106 34//34 107//107
f 138//138 140//140 46//46
f 138//138 139//139 141//141
f 138//138 142//142 140//140
f 138//138 143//143 144//144
f 138//138 144//144 145//145
f 138//138 141//141 143//143
f 138//138 145//145 146//146
f 138//138 146//146 142//142
f 109//109 110//110 143//143
f 109//109 143//143 141//141
f 109//109 141//141 72//72
f 110//110 108//108 147//147
f 110//110 144//144 143//143
f 110//110 147//147 144//144
f 108//108 111//111 148//148
f 108//108 148//148 147//147
f 72//72 141//141 134//134
f 111//111 149//149 148//148
f 111//111 79//79 149//149
f 113//113 107//107 24//24
f 114//114 25//25 24//24
f 114//114 24//24 34//34
f 25//25 132//132 79//79
f 34//34 24//24 107//107
f 46//46 140//140 150//150
f 46//46 50//50 47//47
f 46//46 150//150 50//50
f 48//48 151//151 152//152
f 48//48 152//152 49//49
f 48//48 50//50 150//150
f 48//48 150//150 151//151
f 49//49 152//152 116//116
f 116//116 152//152 117//117
f 153//153 154//154 150//150
f 153//153 122//122 155//155
f 153//153 156//156 154//154
f 153//153 155//155 156//156
f 153//153 150//150 157//157
f 153//153 157//157 122//122
f 154//154 151//151 150//150
f 154//154 156//156 158//158
f 154//154 158//158 152//152
f 154//154 152//152 151//151
f 140//140 142//142 150//150
f 122//122 121//121 126//126
f 122//122 126//126 155//155
f 122//122 159//159 123//123
f 122//122 157//157 159//159
f 156//156 155//155 126//126
f 156//156 126//126 128//128
f 156//156 128//128 158//158
f 158//158 128//128 55//55
f 158//158 55//55 152//152
f 152//152 55//55 117//117
f 132//132 133//133 130//130
f 132//132 130//130 79//79
f 133//133 55//55 130//130
f 55//55 131//131 130//130
f 135//135 134//134 139//139
f 134//134 141//141 139//139
f 142//142 146//146 150//150
f 144//144 147//147 124//124
f 144//144 123//123 145//145
f 144//144 124//124 123//123
f 147//147 148//148 124//124
f 145//145 123//123 159//159
f 145//145 159//159 157//157
f 145//145 157//157 146//146
f 146//146 157//157 150//150
f 148//148 149//149 127//127
f 148//148 127//127 124//124
f 149//149 79//79 129//129
f 149//149 129//129 127//127
f 79//79 130//130 129//129
# 314 faces, 0 coords texture

# End of File
