####
#
# OBJ File Generated by Meshlab
#
####
# Object matlab_mesh_step27_link2.obj
#
# Vertices: 163
# Faces: 322
#
####
vn -0.000547 -0.004158 6.283182
v -0.090252 0.284483 0.864302
vn -0.000207 -0.004377 6.283182
v -0.089812 0.284462 0.864302
vn -0.000548 0.008946 6.283172
v -0.090241 0.284716 0.864302
vn -0.055380 0.545312 6.233779
v -0.120683 0.285467 0.864296
vn -0.015663 -0.084762 6.281790
v -0.120581 0.281469 0.864296
vn -0.000595 -0.234527 6.274418
v 0.032551 0.278669 0.864302
vn 0.000000 0.000000 6.283185
v 0.032562 0.278903 0.864302
vn 2.898342 -0.252640 4.145063
v 0.033365 0.278674 0.864302
vn -0.185463 -0.218868 6.266653
v -0.120604 0.281463 0.864295
vn -3.039765 -0.366919 3.931304
v -0.114692 0.050280 0.847303
vn -3.080234 -0.509406 3.250744
v -0.114592 0.046388 0.847017
vn 0.000091 0.001916 6.283185
v 0.032936 0.278928 0.864302
vn -0.000020 0.004437 6.283182
v -0.089427 0.284721 0.864302
vn -0.000327 0.065992 6.282528
v 0.020559 0.289677 0.864296
vn -0.022235 0.390130 6.259550
v -0.109417 0.286359 0.864296
vn -0.002161 0.084601 6.282265
v -0.101869 0.286551 0.864296
vn 3.107072 0.091324 3.122149
v 0.033376 0.278907 0.864302
vn 6.282618 -0.033725 0.028625
v 0.033379 0.278978 0.863649
vn 6.282617 -0.029093 0.020164
v 0.033989 0.291858 0.745005
vn 5.320819 2.267217 0.273511
v 0.033379 0.279089 0.863632
vn 6.281928 -0.122624 0.021383
v 0.033376 0.278896 0.864230
vn 3.211924 1.434491 2.415207
v 0.033376 0.279018 0.864285
vn 6.281968 -0.121137 0.019132
v 0.033379 0.278967 0.863576
vn 4.616147 2.776760 0.041330
v 0.033989 0.291969 0.744988
vn 6.264007 -0.064803 -0.308232
v 0.033989 0.291847 0.744932
vn 2.307016 -0.505235 5.791694
v 0.028373 0.050728 0.847015
vn 2.561311 -1.781243 2.281912
v 0.028429 0.049870 0.846912
vn 0.015679 -0.611161 6.251850
v 0.007835 0.049528 0.847017
vn 0.030470 -0.612697 6.251433
v 0.015401 0.049722 0.847017
vn 0.047427 -0.611565 6.251678
v 0.017079 0.049830 0.847015
vn 0.909847 -0.587892 6.113901
v 0.028372 0.050726 0.847015
vn 0.490119 -6.186341 0.968333
v 0.022448 0.048064 0.839211
vn 1.049288 -6.021876 0.007774
v 0.022448 0.048053 0.839139
vn 1.555843 -5.902849 0.392944
v 0.028417 0.049863 0.846892
vn 0.447781 -6.155979 1.162819
v 0.017159 0.048973 0.846902
vn 0.254506 -6.195461 0.987424
v 0.015453 0.048863 0.846903
vn 2.068976 2.360671 3.311983
v 0.022265 0.289787 0.864294
vn -0.302152 6.235937 0.025525
v -0.089798 0.297780 0.744962
vn -0.674908 6.234345 0.386824
v -0.120029 0.295213 0.733668
vn -1.359688 6.039391 0.581543
v -0.120727 0.285559 0.863503
vn -0.602485 6.244092 0.173324
v -0.120160 0.295202 0.733616
vn -0.449403 6.263575 -0.188841
v -0.109606 0.296026 0.733359
vn -0.279971 6.250013 -0.508775
v -0.107908 0.296134 0.733336
vn -0.540122 6.227869 0.613039
v -0.120713 0.285561 0.863500
vn -0.450275 6.233065 0.634671
v -0.109439 0.286454 0.863503
vn -0.226480 6.244276 0.644258
v -0.107737 0.286564 0.863498
vn 0.410234 6.205129 0.625732
v 0.022232 0.289896 0.863504
vn -0.342862 6.238246 0.649457
v -0.107752 0.286563 0.863501
vn 1.419796 3.203481 -2.428353
v 0.021994 0.299454 0.733289
vn 0.383431 3.250691 -3.142897
v 0.021987 0.299454 0.733287
vn 0.242574 6.255064 0.458731
v 0.022211 0.290720 0.852277
vn 4.338252 4.481201 0.726150
v 0.022277 0.289776 0.864293
vn 4.521566 1.845136 -1.593123
v 0.033989 0.291958 0.744916
vn 3.560093 4.978962 -0.541301
v 0.022026 0.299439 0.733318
vn 3.391955 5.230283 0.504992
v 0.022247 0.289891 0.863498
vn 4.077415 4.744016 0.505024
v 0.022258 0.289883 0.863494
vn 3.357066 -3.184495 -0.348960
v 0.028184 0.059429 0.716700
vn 1.812235 -1.587786 -1.879802
v 0.028177 0.059524 0.715908
vn 5.884821 -1.601932 -0.128692
v 0.028205 0.058605 0.727922
vn -1.580460 -1.921443 1.551573
v -0.114537 0.045534 0.846915
vn 0.278922 -6.240357 -0.646589
v 0.015208 0.058426 0.716702
vn 0.447138 -6.231930 -0.651339
v 0.016896 0.058535 0.716700
vn -2.990224 -3.589950 -0.339702
v -0.114782 0.055092 0.716698
vn -3.061993 -3.599804 -0.258495
v -0.114761 0.054268 0.727925
vn 3.417684 3.255287 -1.923468
v 0.022014 0.299447 0.733305
vn 4.420688 0.615288 -4.408583
v 0.022069 0.298582 0.733201
vn 2.833915 0.191539 -4.318101
v 0.028074 0.063530 0.715908
vn -0.608362 6.243151 0.159081
v -0.120281 0.295192 0.733568
vn -0.616266 6.241608 0.138880
v -0.120392 0.295182 0.733523
vn -0.624426 6.240072 0.120022
v -0.120494 0.295173 0.733483
vn -0.447907 6.259448 -0.281586
v -0.109632 0.296023 0.733338
vn -0.634514 6.237604 0.092734
v -0.120586 0.295164 0.733446
vn -0.646428 6.234613 0.062908
v -0.120668 0.295156 0.733413
vn -0.661561 6.229897 0.021583
v -0.120741 0.295149 0.733384
vn -0.448323 6.246887 -0.469616
v -0.109653 0.296021 0.733320
vn -0.682574 6.222366 -0.034538
v -0.120804 0.295142 0.733359
vn -0.709050 6.211016 -0.107484
v -0.120857 0.295136 0.733338
vn -0.751150 6.187052 -0.227573
v -0.120900 0.295131 0.733320
vn -0.447025 6.211273 -0.792954
v -0.109669 0.296018 0.733307
vn -0.279683 6.229190 -0.685244
v -0.107938 0.296131 0.733318
vn -0.820283 6.135154 -0.423935
v -0.120934 0.295126 0.733307
vn -0.277901 6.176573 -1.019911
v -0.107962 0.296128 0.733305
vn 1.940022 5.838022 0.547339
v 0.022239 0.289895 0.863501
vn 2.050247 -5.503043 0.629161
v 0.028424 0.049865 0.846902
vn -0.358516 3.050776 3.507773
v -0.120706 0.285466 0.864295
vn -0.211111 3.183511 4.427330
v -0.109427 0.286359 0.864295
vn -0.003362 0.148626 6.281390
v 0.020557 0.289686 0.864295
vn -0.013619 0.524517 6.251387
v -0.107711 0.286469 0.864294
vn 1.699894 2.662082 3.263381
v 0.022254 0.289795 0.864294
vn -0.119651 3.392879 3.488244
v -0.107730 0.286469 0.864294
vn -0.029146 1.138680 6.170365
v -0.100173 0.286662 0.864294
vn -0.439217 6.073592 -1.456271
v -0.109679 0.296016 0.733297
vn -0.964443 5.960290 -0.845178
v -0.120958 0.295122 0.733297
vn -1.759600 5.988818 0.442998
v -0.120748 0.286383 0.852281
vn -0.271220 5.996764 -1.697526
v -0.107982 0.296125 0.733295
vn 3.913765 0.642465 -4.827528
v 0.022058 0.298591 0.733191
vn 2.704155 3.294383 -2.130183
v 0.022003 0.299452 0.733295
vn 0.255791 -5.965391 1.792758
v 0.015452 0.048865 0.846910
vn 0.426009 -5.908798 1.941167
v 0.017149 0.048974 0.846908
vn 2.977136 -3.769503 1.132380
v 0.028428 0.049868 0.846908
vn 3.847381 0.460269 -4.920739
v 0.022158 0.294703 0.732906
vn -1.098379 2.780925 3.205020
v -0.120720 0.285465 0.864294
vn -1.222009 -0.237290 6.062947
v -0.120617 0.281459 0.864294
vn -0.439233 5.868666 1.852336
v -0.109432 0.286360 0.864294
vn -0.344714 5.959597 1.677453
v -0.107745 0.286468 0.864293
vn 1.020503 3.517910 3.091020
v 0.022246 0.289800 0.864293
vn 0.206380 5.463170 2.270537
v 0.022239 0.289802 0.864291
vn -0.380455 5.139776 -3.225268
v -0.109684 0.296014 0.733291
vn -1.484269 4.804300 -1.890352
v -0.120972 0.295119 0.733291
vn -0.237708 4.957966 -3.392786
v -0.107997 0.296123 0.733289
vn -0.148001 5.772707 -2.475184
v -0.100433 0.296316 0.733289
vn 1.417470 6.073170 0.443210
v 0.022218 0.290719 0.852279
vn 0.183770 -4.118966 4.091971
v 0.015453 0.048866 0.846914
vn 0.139766 -5.451468 3.051077
v 0.007890 0.048672 0.846914
vn 0.287356 -4.084146 4.163729
v 0.017141 0.048975 0.846912
vn 2.483801 0.479196 -5.653334
v 0.022149 0.294706 0.732900
vn 2.553159 0.657593 -5.569023
v 0.022049 0.298597 0.733186
vn -2.916127 1.721000 1.924265
v -0.120725 0.285464 0.864293
vn -4.099870 -0.253901 3.003014
v -0.120622 0.281456 0.864293
vn -6.159289 -0.287745 0.819903
v -0.114593 0.046392 0.847017
vn -6.275520 -0.281054 0.006617
v -0.114599 0.046487 0.846225
vn -6.242086 -0.663585 -0.030772
v -0.114544 0.045629 0.846122
vn -6.212260 -0.796669 0.060293
v -0.114537 0.045534 0.846914
vn -6.281048 -0.161789 0.018820
v -0.120629 0.281550 0.863505
vn 0.793295 -1.216314 5.968387
v 0.028427 0.049872 0.846913
vn -6.129193 -0.168007 -0.958750
v -0.114844 0.056046 0.716013
vn -6.280473 -0.183237 -0.001635
v -0.114823 0.055222 0.727235
vn -2.324205 1.574126 -1.973351
v -0.120977 0.295116 0.733289
vn -2.746625 -0.599555 -3.736103
v -0.114789 0.055188 0.715910
vn -6.196592 -0.263524 -0.679695
v -0.114844 0.056040 0.716013
vn -5.554560 0.005310 -2.010703
v -0.120877 0.291224 0.733003
vn -6.125255 -0.154689 -0.977571
v -0.114947 0.060048 0.716013
vn -4.146991 2.872562 0.322544
v -0.120732 0.285558 0.863505
vn -4.291803 2.834496 0.216171
v -0.120753 0.286382 0.852279
vn -0.186085 2.536366 -5.391050
v -0.109685 0.296011 0.733289
vn -0.152577 2.532017 -5.393051
v -0.108007 0.296120 0.733287
vn -5.542310 0.024045 -2.308624
v -0.114947 0.060052 0.716013
vn -2.926390 0.040085 -4.101844
v -0.114892 0.059194 0.715910
vn -0.060939 2.375703 -5.539992
v -0.100440 0.296314 0.733287
vn -6.243672 -0.634571 -0.034828
v -0.114768 0.054362 0.727137
vn 0.142608 -3.208495 -3.476063
v 0.015201 0.058520 0.715910
vn -1.943884 -2.135677 -1.728624
v -0.114789 0.055187 0.715911
vn 0.094182 -1.654082 5.985120
v 0.015456 0.048868 0.846915
vn 0.041709 -1.626019 6.000445
v 0.007890 0.048674 0.846915
vn 0.223561 -3.112889 -3.501070
v 0.016889 0.058629 0.715908
vn 0.114432 -1.629997 5.996901
v 0.017134 0.048977 0.846913
vn 0.047748 -1.862366 -5.732739
v 0.007638 0.058326 0.715910
vn 0.000478 -0.087327 -6.281940
v -0.113102 0.055297 0.715908
vn 0.002266 -0.088393 -6.281941
v 0.009325 0.058435 0.715908
vn -0.019828 0.228681 -6.274714
v -0.113204 0.059303 0.715908
vn -2.432432 0.315499 -5.141633
v -0.120822 0.290370 0.732900
vn -0.036504 0.459621 -6.266246
v -0.119144 0.290478 0.732899
vn -0.012367 0.233858 -6.274441
v -0.101917 0.060198 0.715908
vn -0.005899 0.230116 -6.274741
v -0.094353 0.060392 0.715908
vn -0.024126 0.459940 -6.266270
v -0.107852 0.291374 0.732899
vn -0.011808 0.460258 -6.266294
v -0.100285 0.291568 0.732899
vn 0.751601 0.472939 -6.172361
v 0.022142 0.294708 0.732899
vn 0.801073 0.656182 -6.127630
v 0.022042 0.298600 0.733185
vn -0.047131 0.607431 -6.252001
v -0.109630 0.295158 0.733186
vn -2.392037 0.387522 -5.135179
v -0.120922 0.294262 0.733186
vn -0.030506 0.605146 -6.251997
v -0.107952 0.295266 0.733185
vn -0.015498 0.604115 -6.252386
v -0.100385 0.295460 0.733185
vn -0.036806 0.463828 -6.265932
v -0.119244 0.294371 0.733185
# 163 vertices, 0 vertices normals

f 1//1 2//2 3//3
f 1//1 3//3 4//4
f 1//1 5//5 2//2
f 1//1 4//4 5//5
f 2//2 6//6 7//7
f 2//2 7//7 3//3
f 2//2 5//5 6//6
f 6//6 8//8 7//7
f 6//6 5//5 9//9
f 6//6 9//9 10//10
f 6//6 10//10 11//11
f 6//6 11//11 8//8
f 3//3 7//7 12//12
f 3//3 13//13 14//14
f 3//3 12//12 13//13
f 3//3 15//15 4//4
f 3//3 16//16 15//15
f 3//3 14//14 16//16
f 7//7 8//8 17//17
f 7//7 17//17 12//12
f 18//18 19//19 20//20
f 18//18 17//17 21//21
f 18//18 20//20 22//22
f 18//18 22//22 17//17
f 18//18 23//23 19//19
f 18//18 21//21 23//23
f 19//19 24//24 20//20
f 19//19 23//23 25//25
f 19//19 25//25 24//24
f 8//8 26//26 27//27
f 8//8 27//27 17//17
f 8//8 11//11 28//28
f 8//8 28//28 29//29
f 8//8 29//29 30//30
f 8//8 30//30 31//31
f 8//8 31//31 26//26
f 32//32 33//33 34//34
f 32//32 34//34 35//35
f 32//32 36//36 33//33
f 32//32 35//35 36//36
f 13//13 12//12 14//14
f 12//12 17//17 14//14
f 17//17 22//22 37//37
f 17//17 37//37 14//14
f 17//17 27//27 21//21
f 38//38 39//39 40//40
f 38//38 41//41 39//39
f 38//38 42//42 41//41
f 38//38 43//43 42//42
f 38//38 44//44 45//45
f 38//38 46//46 47//47
f 38//38 40//40 44//44
f 38//38 45//45 48//48
f 38//38 48//48 46//46
f 38//38 49//49 50//50
f 38//38 51//51 49//49
f 38//38 50//50 43//43
f 38//38 47//47 51//51
f 20//20 24//24 52//52
f 20//20 52//52 22//22
f 24//24 25//25 53//53
f 24//24 53//53 54//54
f 24//24 54//54 55//55
f 24//24 37//37 52//52
f 24//24 56//56 37//37
f 24//24 55//55 56//56
f 22//22 52//52 37//37
f 23//23 21//21 27//27
f 23//23 27//27 25//25
f 25//25 57//57 58//58
f 25//25 27//27 59//59
f 25//25 59//59 57//57
f 25//25 58//58 53//53
f 33//33 36//36 60//60
f 33//33 61//61 62//62
f 33//33 62//62 57//57
f 33//33 57//57 34//34
f 33//33 63//63 61//61
f 33//33 60//60 64//64
f 33//33 64//64 63//63
f 53//53 65//65 54//54
f 53//53 66//66 65//65
f 53//53 58//58 67//67
f 53//53 67//67 66//66
f 39//39 41//41 40//40
f 41//41 68//68 40//40
f 41//41 42//42 68//68
f 68//68 69//69 40//40
f 68//68 42//42 69//69
f 69//69 70//70 40//40
f 69//69 42//42 71//71
f 69//69 71//71 70//70
f 70//70 72//72 40//40
f 70//70 71//71 72//72
f 72//72 73//73 40//40
f 72//72 71//71 73//73
f 73//73 74//74 40//40
f 73//73 71//71 75//75
f 73//73 75//75 74//74
f 74//74 76//76 40//40
f 74//74 75//75 76//76
f 76//76 77//77 40//40
f 76//76 75//75 77//77
f 42//42 43//43 71//71
f 77//77 78//78 40//40
f 77//77 75//75 79//79
f 77//77 79//79 78//78
f 71//71 43//43 80//80
f 71//71 80//80 75//75
f 43//43 50//50 80//80
f 78//78 81//81 40//40
f 78//78 79//79 81//81
f 75//75 80//80 82//82
f 75//75 82//82 79//79
f 80//80 50//50 82//82
f 54//54 65//65 83//83
f 54//54 83//83 55//55
f 34//34 84//84 35//35
f 34//34 57//57 84//84
f 5//5 4//4 85//85
f 5//5 85//85 9//9
f 4//4 15//15 86//86
f 4//4 86//86 85//85
f 15//15 16//16 87//87
f 15//15 88//88 86//86
f 15//15 87//87 88//88
f 16//16 14//14 87//87
f 14//14 37//37 87//87
f 88//88 87//87 89//89
f 88//88 90//90 86//86
f 88//88 91//91 90//90
f 88//88 89//89 91//91
f 37//37 56//56 89//89
f 37//37 89//89 87//87
f 81//81 79//79 92//92
f 81//81 93//93 94//94
f 81//81 92//92 93//93
f 81//81 94//94 40//40
f 79//79 82//82 95//95
f 79//79 95//95 92//92
f 82//82 50//50 95//95
f 65//65 66//66 96//96
f 65//65 97//97 83//83
f 65//65 96//96 97//97
f 56//56 55//55 89//89
f 36//36 35//35 98//98
f 36//36 98//98 60//60
f 35//35 84//84 99//99
f 35//35 99//99 98//98
f 84//84 100//100 99//99
f 84//84 57//57 100//100
f 66//66 101//101 96//96
f 66//66 67//67 101//101
f 9//9 85//85 102//102
f 9//9 103//103 10//10
f 9//9 102//102 103//103
f 85//85 86//86 104//104
f 85//85 44//44 102//102
f 85//85 104//104 44//44
f 86//86 90//90 105//105
f 86//86 105//105 104//104
f 90//90 91//91 106//106
f 90//90 46//46 105//105
f 90//90 106//106 107//107
f 90//90 107//107 46//46
f 91//91 89//89 106//106
f 89//89 55//55 106//106
f 93//93 92//92 108//108
f 93//93 109//109 94//94
f 93//93 108//108 109//109
f 92//92 95//95 110//110
f 92//92 110//110 108//108
f 44//44 104//104 45//45
f 44//44 40//40 102//102
f 95//95 111//111 110//110
f 95//95 50//50 111//111
f 46//46 48//48 105//105
f 46//46 107//107 47//47
f 97//97 96//96 49//49
f 97//97 112//112 83//83
f 97//97 49//49 112//112
f 55//55 83//83 106//106
f 98//98 99//99 113//113
f 98//98 114//114 60//60
f 98//98 113//113 114//114
f 99//99 100//100 115//115
f 99//99 115//115 113//113
f 100//100 57//57 59//59
f 100//100 27//27 115//115
f 100//100 59//59 27//27
f 96//96 101//101 116//116
f 96//96 117//117 49//49
f 96//96 116//116 117//117
f 101//101 67//67 116//116
f 103//103 102//102 118//118
f 103//103 119//119 10//10
f 103//103 118//118 119//119
f 120//120 121//121 122//122
f 120//120 123//123 11//11
f 120//120 122//122 123//123
f 120//120 119//119 124//124
f 120//120 10//10 119//119
f 120//120 11//11 10//10
f 120//120 124//124 121//121
f 102//102 40//40 118//118
f 104//104 105//105 48//48
f 104//104 48//48 45//45
f 26//26 31//31 125//125
f 26//26 125//125 27//27
f 106//106 83//83 107//107
f 126//126 127//127 128//128
f 126//126 129//129 130//130
f 126//126 130//130 127//127
f 126//126 128//128 131//131
f 126//126 131//131 132//132
f 126//126 132//132 129//129
f 121//121 127//127 130//130
f 121//121 124//124 133//133
f 121//121 130//130 122//122
f 121//121 134//134 128//128
f 121//121 128//128 127//127
f 121//121 133//133 134//134
f 94//94 109//109 134//134
f 94//94 134//134 133//133
f 94//94 133//133 40//40
f 109//109 108//108 135//135
f 109//109 128//128 134//134
f 109//109 135//135 128//128
f 108//108 110//110 136//136
f 108//108 136//136 135//135
f 40//40 133//133 118//118
f 137//137 138//138 132//132
f 137//137 131//131 138//138
f 137//137 132//132 131//131
f 110//110 111//111 50//50
f 110//110 139//139 136//136
f 110//110 50//50 139//139
f 112//112 49//49 47//47
f 112//112 47//47 83//83
f 49//49 117//117 50//50
f 49//49 51//51 47//47
f 83//83 47//47 107//107
f 123//123 122//122 140//140
f 123//123 60//60 11//11
f 123//123 64//64 60//60
f 123//123 140//140 64//64
f 114//114 113//113 60//60
f 61//61 141//141 62//62
f 61//61 63//63 142//142
f 61//61 142//142 141//141
f 113//113 115//115 143//143
f 113//113 144//144 60//60
f 113//113 143//143 144//144
f 62//62 141//141 145//145
f 62//62 145//145 57//57
f 57//57 145//145 58//58
f 115//115 27//27 146//146
f 115//115 146//146 143//143
f 27//27 125//125 146//146
f 129//129 147//147 142//142
f 129//129 138//138 148//148
f 129//129 148//148 149//149
f 129//129 149//149 147//147
f 129//129 132//132 138//138
f 129//129 142//142 130//130
f 147//147 141//141 142//142
f 147//147 149//149 141//141
f 122//122 130//130 142//142
f 122//122 142//142 140//140
f 141//141 149//149 145//145
f 138//138 150//150 148//148
f 138//138 131//131 151//151
f 138//138 151//151 152//152
f 138//138 152//152 150//150
f 148//148 150//150 153//153
f 148//148 153//153 154//154
f 148//148 154//154 149//149
f 149//149 154//154 67//67
f 149//149 67//67 145//145
f 145//145 67//67 58//58
f 150//150 152//152 155//155
f 150//150 155//155 153//153
f 153//153 155//155 156//156
f 153//153 156//156 157//157
f 153//153 157//157 154//154
f 117//117 116//116 158//158
f 117//117 158//158 50//50
f 154//154 157//157 67//67
f 116//116 67//67 157//157
f 116//116 157//157 158//158
f 119//119 118//118 124//124
f 11//11 60//60 28//28
f 28//28 60//60 144//144
f 28//28 144//144 29//29
f 29//29 144//144 143//143
f 29//29 143//143 30//30
f 118//118 133//133 124//124
f 30//30 143//143 146//146
f 30//30 146//146 125//125
f 30//30 125//125 31//31
f 128//128 135//135 159//159
f 128//128 160//160 131//131
f 128//128 159//159 160//160
f 135//135 136//136 161//161
f 135//135 161//161 159//159
f 131//131 160//160 151//151
f 136//136 139//139 161//161
f 139//139 50//50 158//158
f 139//139 162//162 161//161
f 139//139 158//158 162//162
f 63//63 64//64 140//140
f 63//63 140//140 142//142
f 160//160 159//159 163//163
f 160//160 163//163 152//152
f 160//160 152//152 151//151
f 159//159 161//161 163//163
f 163//163 161//161 155//155
f 163//163 155//155 152//152
f 161//161 162//162 156//156
f 161//161 156//156 155//155
f 162//162 158//158 156//156
f 158//158 157//157 156//156
# 322 faces, 0 coords texture

# End of File
