####
#
# OBJ File Generated by Meshlab
#
####
# Object matlab_mesh_step15_link4.obj
#
# Vertices: 197
# Faces: 390
#
####
vn 5.441255 2.578063 1.765658
v 0.367418 0.451928 0.992772
vn 4.326441 -0.838416 2.387667
v 0.367114 0.451515 0.994236
vn 5.620791 1.937241 1.771202
v 0.389906 0.450498 0.924865
vn 5.346318 2.010748 2.330348
v 0.346789 0.471152 1.024853
vn 5.131432 -3.001884 1.226541
v 0.392285 0.434860 0.894277
vn 4.926888 -3.368405 1.802075
v 0.392185 0.434926 0.894676
vn 4.418099 -4.089540 1.738940
v 0.251228 0.279895 0.900302
vn 5.275747 -2.892187 0.556731
v 0.392590 0.434978 0.892905
vn 6.021887 -0.707804 1.189660
v 0.395234 0.452286 0.904119
vn 5.638471 -2.176573 1.589837
v 0.389928 0.450433 0.924772
vn 0.886036 -4.644560 0.423221
v 0.241806 0.268320 0.896861
vn 2.536739 -5.066618 -0.125870
v 0.247119 0.270151 0.876158
vn 3.596392 -3.814692 3.190343
v 0.219785 0.291173 0.983853
vn 4.350227 -0.690258 3.386241
v 0.346753 0.471181 1.024909
vn 5.765055 -1.196008 1.689325
v 0.389924 0.450456 0.924815
vn 2.782583 -3.253274 4.543065
v 0.208023 0.300642 1.000427
vn 5.937673 0.418455 1.793283
v 0.389916 0.450477 0.924845
vn 2.700144 -4.627676 2.655168
v 0.219044 0.290354 0.983618
vn 1.422694 -4.731911 2.869994
v 0.198605 0.289076 0.996988
vn 5.030249 -2.621083 -0.917557
v 0.392894 0.435390 0.891441
vn 4.577058 -3.449861 -2.450867
v 0.392153 0.434571 0.891206
vn 4.331530 -2.770749 -3.540887
v 0.390158 0.447602 0.875409
vn 5.469671 -1.971662 -1.022636
v 0.399566 0.459129 0.878871
vn 6.049771 -1.428801 0.872094
v 0.395232 0.452260 0.904091
vn 5.100487 -1.070738 -1.293391
v 0.399576 0.459168 0.878847
vn 1.195629 -4.433984 -1.507761
v 0.251466 0.277044 0.850846
vn 0.769866 -3.640727 -2.566190
v 0.251465 0.277056 0.850820
vn 5.232981 3.036227 1.685687
v 0.351114 0.478005 0.999694
vn 4.968364 3.431908 1.691163
v 0.351064 0.478093 0.999684
vn 3.847086 0.131119 3.119069
v 0.346722 0.471210 1.024955
vn 5.070706 3.355576 1.551852
v 0.356374 0.479923 0.978987
vn 5.364845 2.817148 1.632298
v 0.394258 0.457399 0.899522
vn 3.639051 1.250628 -1.634559
v 0.399572 0.459230 0.878819
vn 2.985863 -3.084688 4.566735
v 0.344598 0.468598 1.024579
vn -1.996853 -5.697212 -0.947028
v 0.241807 0.268322 0.896848
vn -0.252887 -5.266252 -1.242322
v 0.247117 0.270151 0.876152
vn -2.685503 -5.569393 -0.288540
v 0.241799 0.268323 0.896867
vn -3.519473 -5.089128 -0.850322
v 0.213847 0.285834 0.896867
vn 0.357126 -4.305999 3.008161
v 0.198582 0.289079 0.997002
vn -0.650269 -6.128795 0.989766
v 0.201351 0.287749 0.990587
vn 3.791101 -2.105055 -4.449628
v 0.390154 0.447626 0.875389
vn 2.361211 -2.434987 -4.824447
v 0.251468 0.277073 0.850811
vn 0.108097 -5.108055 -1.420893
v 0.251459 0.277034 0.850881
vn -3.193763 -5.004114 -2.049667
v 0.223513 0.294566 0.850820
vn -3.351973 -5.053972 -1.585028
v 0.219161 0.287665 0.876163
vn 6.038232 0.619496 1.446915
v 0.395228 0.452307 0.904142
vn 4.926982 3.603698 1.483594
v 0.356352 0.479959 0.978972
vn 4.777334 3.708610 1.695726
v 0.351040 0.478129 0.999675
vn 2.562151 1.050948 3.592550
v 0.346665 0.471259 1.025008
vn 3.496344 0.374637 3.454214
v 0.346692 0.471235 1.024987
vn 4.367576 4.242181 1.237315
v 0.356331 0.479992 0.978962
vn 2.409195 -2.695273 5.119142
v 0.344564 0.468619 1.024610
vn 1.885043 -2.697572 5.259380
v 0.208004 0.300654 1.000443
vn 4.720126 -0.234339 -1.655184
v 0.399576 0.459201 0.878830
vn 4.516963 4.145979 1.090810
v 0.396799 0.460562 0.885241
vn 3.169298 5.102910 1.838513
v 0.223406 0.584747 0.945526
vn 3.164972 5.060879 1.961380
v 0.219064 0.577865 0.970798
vn 3.193710 5.004160 2.049631
v 0.246903 0.560415 0.970823
vn 2.163623 5.537305 1.529776
v 0.223303 0.584828 0.945480
vn 1.556269 4.781400 3.007104
v 0.218951 0.577926 0.970823
vn 3.351830 5.054064 1.584996
v 0.251255 0.567317 0.945480
vn -1.209955 -3.362443 2.733107
v 0.198558 0.289085 0.997010
vn -2.318613 -5.711341 0.182947
v 0.201331 0.287753 0.990587
vn 3.052839 -1.291113 -5.262427
v 0.390144 0.447647 0.875375
vn 5.749739 1.814773 1.590324
v 0.395219 0.452328 0.904161
vn 4.257026 4.234653 1.660399
v 0.351017 0.478161 0.999665
vn 1.315682 -1.904439 5.800462
v 0.344535 0.468639 1.024631
vn 0.399197 -1.589948 5.885219
v 0.207986 0.300668 1.000453
vn -3.668128 -4.493641 1.291932
v 0.165115 0.311060 0.997010
vn -2.329609 -3.247925 2.608548
v 0.170606 0.306596 0.997010
vn -2.567151 -2.688309 2.956597
v 0.165078 0.311091 0.997012
vn -4.062546 -4.776686 -0.396070
v 0.082465 0.385593 0.945885
vn -4.019836 -4.791788 -0.564209
v 0.080254 0.387587 0.944516
vn -2.966123 -2.124102 2.780204
v 0.155652 0.319267 0.995315
vn -3.458163 -2.054718 2.593748
v 0.073038 0.393768 0.944188
vn -3.917106 -4.785336 -1.047246
v 0.123531 0.366796 0.844381
vn -3.821449 -4.848744 -1.089257
v 0.129022 0.362332 0.844381
vn -3.861011 -4.747999 -1.423844
v 0.128844 0.368627 0.823677
vn -4.255411 -4.408037 -1.180183
v 0.114085 0.374990 0.842681
vn -3.288131 -0.338895 1.101302
v 0.070827 0.395762 0.942820
vn -3.634930 -5.081232 -0.516055
v 0.173380 0.305264 0.990587
vn -3.779086 -4.898197 -1.031472
v 0.131231 0.360339 0.845748
vn -3.461914 -4.968047 -1.645916
v 0.136545 0.362170 0.825044
vn -1.974418 -2.501777 4.958810
v 0.170574 0.306624 0.997012
vn -0.764174 -1.247266 6.110282
v 0.198549 0.289100 0.997012
vn -3.597288 -4.848556 -1.679621
v 0.134336 0.364162 0.823677
vn -4.182824 -4.316713 -1.686166
v 0.119398 0.376820 0.821977
vn -3.799549 -4.704359 -1.686210
v 0.124890 0.372356 0.821977
vn 1.523494 -2.123967 -5.556744
v 0.249257 0.279067 0.849442
vn 2.003100 -0.401025 -5.840353
v 0.305316 0.524166 0.822878
vn 2.258807 -1.005416 -5.769790
v 0.168774 0.356190 0.798693
vn -0.145717 -2.609387 -4.696271
v 0.166643 0.353568 0.798315
vn -3.697194 -4.871948 -1.125606
v 0.140897 0.369072 0.799702
vn -3.178658 -4.616699 -2.652429
v 0.138688 0.371064 0.798335
vn -3.605474 -4.870404 -1.271598
v 0.221304 0.296559 0.849453
vn -2.373531 -4.768498 -3.114044
v 0.249256 0.279048 0.849453
vn -2.531423 -4.682684 -3.130244
v 0.166640 0.353553 0.798335
vn -3.623021 -4.575242 -2.287979
v 0.129242 0.379258 0.796635
vn -1.921319 -2.443462 -4.414026
v 0.129241 0.379268 0.796619
vn -2.731094 -3.996087 -3.845659
v 0.138668 0.371092 0.798315
vn 3.799549 4.704360 1.686212
v 0.345526 0.482625 0.999665
vn 3.005446 3.767267 3.503766
v 0.341174 0.475723 1.025008
vn 3.861015 4.747998 1.423834
v 0.341572 0.486355 0.997966
vn 3.597294 4.848554 1.679614
v 0.336080 0.490819 0.997966
vn 2.949297 4.275020 3.140729
v 0.331728 0.483917 1.023308
vn 1.307367 1.926342 5.250424
v 0.341144 0.475737 1.025014
vn 1.189676 0.698069 5.560309
v 0.346640 0.471269 1.025014
vn -0.449001 -0.548829 6.243028
v 0.174543 0.322643 1.000453
vn -0.514086 -0.771810 6.208856
v 0.180034 0.318179 1.000453
vn -0.652132 -0.367247 6.232403
v 0.311037 0.490639 1.024637
vn -0.997271 -0.541220 6.138116
v 0.174495 0.322663 1.000452
vn -0.406602 -0.568515 6.244039
v 0.316533 0.486172 1.024637
vn -0.653718 -0.885708 6.174467
v 0.179991 0.318195 1.000452
vn -0.756987 -0.278992 6.211187
v 0.344508 0.468648 1.024637
vn -0.739350 -1.192659 6.124423
v 0.207967 0.300671 1.000452
vn 4.480790 4.088014 -1.283298
v 0.397363 0.461222 0.877452
vn 4.183241 4.641680 0.170978
v 0.399558 0.459243 0.878813
vn 3.104481 2.059439 -3.188004
v 0.314733 0.535738 0.826318
vn 3.917117 4.785334 1.047192
v 0.346885 0.488185 0.977262
vn 4.273165 4.514372 -0.385489
v 0.314747 0.535728 0.826333
vn 3.960379 4.774628 -0.258807
v 0.305301 0.543921 0.824633
vn -4.865481 -3.670712 -1.340253
v 0.073603 0.394429 0.936392
vn -4.893030 -3.595097 -1.492173
v 0.114079 0.374998 0.842676
vn -3.999048 -4.321439 -2.099146
v 0.123751 0.383722 0.796635
vn -2.486610 -0.197101 -2.914877
v 0.123745 0.383735 0.796619
vn -4.927938 -3.453541 -1.667436
v 0.119390 0.376828 0.821982
vn 2.635604 4.876309 2.847657
v 0.221160 0.575934 0.972190
vn 0.626763 0.160190 -0.779473
v 0.249112 0.558423 0.972190
vn 2.571487 4.286962 3.472147
v 0.303776 0.501428 1.023308
vn 0.507093 2.923301 4.729694
v 0.303742 0.501437 1.023318
vn 2.993492 4.953561 2.381870
v 0.329518 0.485909 1.021941
vn 3.461918 4.968047 1.645911
v 0.333871 0.492811 0.996599
vn 3.821472 4.848730 1.089236
v 0.341394 0.492650 0.977262
vn 0.725735 1.505673 5.462660
v 0.313169 0.493261 1.025014
vn 2.281723 3.618134 4.599220
v 0.331717 0.483913 1.023318
vn 2.489591 5.590126 0.577436
v 0.228617 0.586658 0.924776
vn -1.214611 4.779818 -0.702175
v 0.228584 0.586669 0.924765
vn -1.639757 4.847602 0.487700
v 0.223273 0.584839 0.945459
vn -1.669287 3.223657 2.417454
v 0.218917 0.577932 0.970822
vn 3.779111 4.898179 1.031451
v 0.339185 0.494642 0.975895
vn 3.519426 5.089147 0.850359
v 0.256569 0.569147 0.924776
vn -0.582849 2.956686 5.250204
v 0.221128 0.575938 0.972190
vn 3.939005 4.845410 0.696174
v 0.384634 0.471888 0.877119
vn 3.938995 4.845408 0.696247
v 0.381861 0.473220 0.883541
vn 3.975317 4.812024 0.718856
v 0.387353 0.468755 0.883541
vn 3.938996 4.845419 0.696161
v 0.382425 0.473880 0.875752
vn 3.938971 4.845430 0.696227
v 0.379652 0.475212 0.882174
vn 4.020068 4.791609 0.563955
v 0.390126 0.467424 0.877119
vn 4.005035 4.808319 0.535356
v 0.387917 0.469416 0.875752
vn 2.995051 5.288639 -0.816291
v 0.271858 0.565897 0.824633
vn 3.588931 4.980594 -0.421825
v 0.299809 0.548386 0.824633
vn 2.220280 3.040994 -3.641444
v 0.299811 0.548381 0.824621
vn 2.854896 5.564860 0.079003
v 0.269084 0.567228 0.831056
vn 3.634951 5.081213 0.516070
v 0.297036 0.549717 0.831056
vn -0.034365 3.235941 -2.548410
v 0.271836 0.565905 0.824621
vn 2.545692 2.743102 -3.528106
v 0.305307 0.543914 0.824621
vn -0.928728 4.971194 -1.431856
v 0.269060 0.567238 0.831049
vn -1.969691 0.321920 5.842391
v 0.165069 0.330838 0.998755
vn 0.453217 -1.306944 -5.826127
v 0.166633 0.353588 0.798309
vn 1.432178 0.225859 -6.098347
v 0.305303 0.524189 0.822875
vn 1.107495 -0.009610 -6.184802
v 0.168765 0.356211 0.798687
vn -1.243999 -2.019878 -5.483575
v 0.157217 0.361744 0.796619
vn -0.152820 -1.015654 -5.902079
v 0.157240 0.361733 0.796618
vn -0.210566 -0.295857 6.262079
v 0.318665 0.488793 1.025014
vn -0.557781 0.505854 6.181242
v 0.313130 0.493283 1.025009
vn 2.048272 1.030091 -5.788192
v 0.314711 0.535751 0.826312
vn -2.646814 0.918052 5.614462
v 0.082455 0.405340 0.947628
vn -3.703947 2.357384 2.961084
v 0.080244 0.407334 0.946260
vn -4.803450 4.000027 -0.430609
v 0.213856 0.573267 0.942019
vn -4.822208 3.980278 -0.420040
v 0.211724 0.570645 0.941641
vn -4.883114 3.950415 0.131471
v 0.221142 0.582217 0.945082
vn -4.418119 3.984787 -1.758816
v 0.219167 0.575097 0.921325
vn -4.503085 3.911903 -1.746760
v 0.217036 0.572475 0.920947
vn -4.644332 4.163290 -0.718670
v 0.223269 0.584833 0.945445
vn -5.363874 -2.818862 -1.632293
v 0.076138 0.397592 0.922126
vn -5.270774 -2.989681 -1.656522
v 0.078914 0.396259 0.915698
vn -5.068364 0.839237 -0.910086
v 0.075183 0.402669 0.917457
vn -4.886691 3.945840 0.133637
v 0.084600 0.414241 0.920897
vn -4.736978 0.741440 -1.651744
v 0.080494 0.404499 0.896763
vn -1.728084 2.341547 -4.354755
v 0.262419 0.554334 0.821181
vn 0.621771 0.870808 -6.177954
v 0.290394 0.536810 0.821181
vn 0.210551 0.295845 -6.262081
v 0.151742 0.366203 0.796618
vn -2.257428 2.420249 -4.064991
v 0.125877 0.386357 0.796996
vn -3.950675 3.667143 -3.165623
v 0.260287 0.551712 0.820804
vn -4.140067 3.940543 -2.605101
v 0.259643 0.555666 0.827609
vn -4.239393 3.823825 -2.623800
v 0.257511 0.553044 0.827231
vn -0.055562 0.265640 -6.235813
v 0.123755 0.383733 0.796618
vn 0.896341 0.569608 -6.160451
v 0.295890 0.532342 0.821181
vn -4.511414 4.160126 -1.235259
v 0.228577 0.586661 0.924766
vn -4.212832 1.019272 -2.030827
v 0.083270 0.403166 0.890335
vn -4.499531 3.457296 -2.660152
v 0.120969 0.385068 0.803046
vn 1.853012 1.098071 -5.848315
v 0.305319 0.543897 0.824621
vn 1.258507 0.381877 -6.127250
v 0.295910 0.532335 0.821185
vn 1.080607 0.012912 -6.189461
v 0.159372 0.364356 0.796996
vn -0.190784 -0.297899 -6.263190
v 0.129254 0.379264 0.796618
vn -1.289668 1.056106 5.884311
v 0.303737 0.501429 1.023319
vn -3.668317 2.557150 2.949926
v 0.216786 0.575310 0.970445
# 197 vertices, 0 vertices normals

f 1//1 2//2 3//3
f 1//1 4//4 2//2
f 1//1 3//3 4//4
f 5//5 6//6 7//7
f 5//5 8//8 9//9
f 5//5 10//10 6//6
f 5//5 9//9 10//10
f 5//5 11//11 12//12
f 5//5 12//12 8//8
f 5//5 7//7 11//11
f 2//2 13//13 7//7
f 2//2 6//6 10//10
f 2//2 4//4 14//14
f 2//2 10//10 15//15
f 2//2 14//14 16//16
f 2//2 15//15 17//17
f 2//2 16//16 13//13
f 2//2 17//17 3//3
f 2//2 7//7 6//6
f 13//13 18//18 11//11
f 13//13 19//19 18//18
f 13//13 16//16 19//19
f 13//13 11//11 7//7
f 20//20 8//8 12//12
f 20//20 21//21 22//22
f 20//20 23//23 24//24
f 20//20 24//24 8//8
f 20//20 22//22 25//25
f 20//20 25//25 23//23
f 20//20 26//26 21//21
f 20//20 12//12 26//26
f 8//8 24//24 9//9
f 18//18 19//19 11//11
f 21//21 26//26 27//27
f 21//21 27//27 22//22
f 28//28 4//4 3//3
f 28//28 29//29 30//30
f 28//28 30//30 4//4
f 28//28 31//31 29//29
f 28//28 32//32 33//33
f 28//28 3//3 32//32
f 28//28 33//33 31//31
f 4//4 30//30 14//14
f 10//10 9//9 15//15
f 14//14 30//30 34//34
f 14//14 34//34 16//16
f 23//23 25//25 9//9
f 23//23 9//9 24//24
f 35//35 36//36 11//11
f 35//35 11//11 37//37
f 35//35 38//38 36//36
f 35//35 37//37 38//38
f 19//19 16//16 39//39
f 19//19 40//40 11//11
f 19//19 39//39 40//40
f 22//22 41//41 25//25
f 22//22 27//27 42//42
f 22//22 42//42 41//41
f 43//43 36//36 44//44
f 43//43 26//26 12//12
f 43//43 12//12 36//36
f 43//43 44//44 27//27
f 43//43 27//27 26//26
f 36//36 12//12 11//11
f 36//36 38//38 45//45
f 36//36 45//45 44//44
f 15//15 9//9 46//46
f 15//15 46//46 17//17
f 29//29 31//31 47//47
f 29//29 48//48 49//49
f 29//29 50//50 30//30
f 29//29 47//47 51//51
f 29//29 49//49 50//50
f 29//29 51//51 48//48
f 30//30 50//50 34//34
f 34//34 50//50 52//52
f 34//34 52//52 16//16
f 16//16 52//52 53//53
f 16//16 53//53 39//39
f 25//25 41//41 54//54
f 25//25 54//54 46//46
f 25//25 46//46 9//9
f 31//31 33//33 55//55
f 31//31 55//55 47//47
f 56//56 57//57 58//58
f 56//56 59//59 60//60
f 56//56 61//61 59//59
f 56//56 60//60 57//57
f 56//56 58//58 61//61
f 57//57 60//60 58//58
f 40//40 39//39 62//62
f 40//40 63//63 11//11
f 40//40 62//62 63//63
f 11//11 63//63 37//37
f 39//39 53//53 62//62
f 41//41 64//64 54//54
f 41//41 42//42 64//64
f 17//17 46//46 65//65
f 17//17 65//65 3//3
f 48//48 66//66 49//49
f 48//48 51//51 66//66
f 50//50 49//49 52//52
f 52//52 49//49 53//53
f 53//53 49//49 67//67
f 53//53 67//67 68//68
f 53//53 68//68 62//62
f 54//54 64//64 33//33
f 54//54 33//33 65//65
f 54//54 65//65 46//46
f 47//47 55//55 51//51
f 69//69 70//70 71//71
f 69//69 72//72 73//73
f 69//69 71//71 74//74
f 69//69 73//73 70//70
f 69//69 75//75 72//72
f 69//69 74//74 75//75
f 76//76 77//77 73//73
f 76//76 78//78 77//77
f 76//76 79//79 78//78
f 76//76 73//73 80//80
f 76//76 80//80 79//79
f 81//81 63//63 62//62
f 81//81 38//38 63//63
f 81//81 70//70 73//73
f 81//81 62//62 70//70
f 81//81 73//73 38//38
f 63//63 38//38 37//37
f 82//82 38//38 73//73
f 82//82 77//77 83//83
f 82//82 83//83 45//45
f 82//82 45//45 38//38
f 82//82 73//73 77//77
f 70//70 62//62 84//84
f 70//70 84//84 71//71
f 62//62 68//68 85//85
f 62//62 85//85 84//84
f 77//77 78//78 86//86
f 77//77 86//86 83//83
f 78//78 79//79 87//87
f 78//78 87//87 88//88
f 78//78 88//88 86//86
f 64//64 42//42 89//89
f 64//64 90//90 33//33
f 64//64 91//91 90//90
f 64//64 92//92 91//91
f 64//64 89//89 92//92
f 93//93 83//83 86//86
f 93//93 44//44 83//83
f 93//93 94//94 95//95
f 93//93 86//86 94//94
f 93//93 95//95 44//44
f 83//83 44//44 45//45
f 44//44 95//95 96//96
f 44//44 96//96 27//27
f 27//27 96//96 92//92
f 27//27 92//92 89//89
f 27//27 89//89 42//42
f 94//94 97//97 95//95
f 94//94 86//86 88//88
f 94//94 98//98 99//99
f 94//94 88//88 98//98
f 94//94 100//100 97//97
f 94//94 99//99 100//100
f 97//97 96//96 95//95
f 97//97 100//100 92//92
f 97//97 92//92 96//96
f 101//101 102//102 66//66
f 101//101 66//66 103//103
f 101//101 104//104 105//105
f 101//101 105//105 102//102
f 101//101 103//103 104//104
f 102//102 49//49 66//66
f 102//102 105//105 106//106
f 102//102 106//106 107//107
f 102//102 107//107 49//49
f 108//108 109//109 110//110
f 108//108 110//110 111//111
f 108//108 111//111 109//109
f 32//32 3//3 65//65
f 32//32 65//65 33//33
f 66//66 51//51 103//103
f 49//49 107//107 67//67
f 67//67 107//107 68//68
f 109//109 68//68 112//112
f 109//109 111//111 113//113
f 109//109 112//112 110//110
f 109//109 113//113 68//68
f 68//68 107//107 114//114
f 68//68 114//114 112//112
f 68//68 113//113 115//115
f 68//68 115//115 85//85
f 33//33 116//116 117//117
f 33//33 90//90 118//118
f 33//33 117//117 55//55
f 33//33 118//118 116//116
f 51//51 55//55 117//117
f 51//51 119//119 103//103
f 51//51 117//117 119//119
f 120//120 116//116 118//118
f 120//120 121//121 117//117
f 120//120 117//117 116//116
f 120//120 118//118 121//121
f 79//79 122//122 123//123
f 79//79 123//123 87//87
f 79//79 80//80 122//122
f 124//124 87//87 125//125
f 124//124 98//98 87//87
f 124//124 125//125 98//98
f 87//87 98//98 88//88
f 87//87 123//123 126//126
f 87//87 126//126 125//125
f 98//98 125//125 99//99
f 127//127 128//128 60//60
f 127//127 129//129 105//105
f 127//127 105//105 128//128
f 127//127 60//60 130//130
f 127//127 130//130 129//129
f 128//128 105//105 131//131
f 128//128 58//58 60//60
f 128//128 131//131 58//58
f 104//104 132//132 131//131
f 104//104 131//131 105//105
f 104//104 103//103 133//133
f 104//104 133//133 132//132
f 129//129 134//134 106//106
f 129//129 106//106 135//135
f 129//129 130//130 134//134
f 129//129 135//135 105//105
f 105//105 135//135 106//106
f 59//59 61//61 136//136
f 59//59 136//136 137//137
f 59//59 138//138 139//139
f 59//59 139//139 60//60
f 59//59 137//137 138//138
f 61//61 58//58 131//131
f 61//61 132//132 140//140
f 61//61 131//131 132//132
f 61//61 141//141 136//136
f 61//61 140//140 141//141
f 60//60 142//142 130//130
f 60//60 139//139 142//142
f 132//132 133//133 140//140
f 103//103 119//119 133//133
f 143//143 144//144 145//145
f 143//143 146//146 147//147
f 143//143 147//147 144//144
f 143//143 148//148 149//149
f 143//143 145//145 148//148
f 143//143 149//149 146//146
f 133//133 144//144 140//140
f 133//133 119//119 144//144
f 144//144 147//147 140//140
f 144//144 119//119 145//145
f 150//150 151//151 152//152
f 150//150 153//153 154//154
f 150//150 154//154 151//151
f 150//150 155//155 153//153
f 150//150 152//152 155//155
f 151//151 146//146 121//121
f 151//151 154//154 146//146
f 151//151 121//121 156//156
f 151//151 156//156 152//152
f 146//146 154//154 147//147
f 146//146 149//149 121//121
f 136//136 141//141 154//154
f 136//136 153//153 155//155
f 136//136 154//154 153//153
f 136//136 155//155 157//157
f 136//136 157//157 137//137
f 141//141 140//140 154//154
f 140//140 147//147 154//154
f 148//148 145//145 117//117
f 148//148 117//117 149//149
f 119//119 117//117 145//145
f 121//121 149//149 117//117
f 121//121 118//118 156//156
f 72//72 75//75 73//73
f 71//71 84//84 111//111
f 71//71 111//111 158//158
f 71//71 158//158 74//74
f 73//73 75//75 80//80
f 84//84 85//85 113//113
f 84//84 113//113 111//111
f 85//85 115//115 113//113
f 90//90 91//91 159//159
f 90//90 160//160 118//118
f 90//90 161//161 160//160
f 90//90 159//159 161//161
f 91//91 92//92 159//159
f 100//100 99//99 162//162
f 100//100 162//162 92//92
f 92//92 162//162 163//163
f 92//92 163//163 159//159
f 134//134 110//110 164//164
f 134//134 164//164 106//106
f 134//134 130//130 165//165
f 134//134 165//165 110//110
f 106//106 164//164 107//107
f 110//110 112//112 164//164
f 110//110 165//165 111//111
f 111//111 165//165 158//158
f 164//164 112//112 114//114
f 164//164 114//114 107//107
f 118//118 160//160 166//166
f 118//118 166//166 156//156
f 75//75 74//74 167//167
f 75//75 167//167 168//168
f 75//75 168//168 80//80
f 74//74 158//158 167//167
f 169//169 170//170 171//171
f 169//169 172//172 173//173
f 169//169 173//173 170//170
f 169//169 138//138 174//174
f 169//169 171//171 138//138
f 169//169 174//174 172//172
f 122//122 80//80 175//175
f 122//122 176//176 123//123
f 122//122 175//175 176//176
f 123//123 176//176 126//126
f 170//170 177//177 178//178
f 170//170 173//173 177//177
f 170//170 178//178 171//171
f 177//177 80//80 168//168
f 177//177 173//173 179//179
f 177//177 179//179 175//175
f 177//177 175//175 80//80
f 177//177 168//168 178//178
f 180//180 181//181 182//182
f 180//180 183//183 184//184
f 180//180 185//185 155//155
f 180//180 184//184 186//186
f 180//180 186//186 185//185
f 180//180 155//155 181//181
f 180//180 187//187 183//183
f 180//180 182//182 187//187
f 181//181 188//188 163//163
f 181//181 155//155 152//152
f 181//181 152//152 188//188
f 181//181 163//163 182//182
f 183//183 125//125 184//184
f 183//183 187//187 125//125
f 172//172 185//185 186//186
f 172//172 186//186 173//173
f 172//172 137//137 157//157
f 172//172 157//157 185//185
f 172//172 174//174 189//189
f 172//172 189//189 137//137
f 185//185 157//157 155//155
f 190//190 176//176 179//179
f 190//190 125//125 126//126
f 190//190 126//126 176//176
f 190//190 179//179 191//191
f 190//190 191//191 125//125
f 176//176 175//175 179//179
f 184//184 125//125 191//191
f 184//184 191//191 186//186
f 125//125 187//187 99//99
f 173//173 186//186 179//179
f 179//179 186//186 191//191
f 188//188 152//152 156//156
f 188//188 156//156 192//192
f 188//188 193//193 194//194
f 188//188 194//194 163//163
f 188//188 192//192 193//193
f 99//99 187//187 195//195
f 99//99 195//195 162//162
f 162//162 195//195 163//163
f 142//142 139//139 196//196
f 142//142 196//196 130//130
f 130//130 196//196 165//165
f 167//167 158//158 196//196
f 167//167 196//196 168//168
f 158//158 165//165 196//196
f 138//138 171//171 139//139
f 138//138 137//137 174//174
f 139//139 171//171 197//197
f 139//139 197//197 196//196
f 171//171 178//178 197//197
f 197//197 178//178 168//168
f 197//197 168//168 196//196
f 137//137 189//189 174//174
f 156//156 166//166 192//192
f 160//160 161//161 194//194
f 160//160 193//193 166//166
f 160//160 194//194 193//193
f 161//161 159//159 163//163
f 161//161 163//163 194//194
f 166//166 193//193 192//192
f 187//187 182//182 195//195
f 182//182 163//163 195//195
# 390 faces, 0 coords texture

# End of File
