####
#
# OBJ File Generated by Meshlab
#
####
# Object matlab_mesh_step21_link3.obj
#
# Vertices: 193
# Faces: 382
#
####
vn 1.988965 0.520172 4.677807
v 0.133587 0.457708 0.971747
vn 3.542247 -1.114107 4.964092
v 0.216255 0.445058 0.909925
vn 4.122815 2.048607 3.114861
v 0.199890 0.461180 0.922476
vn 2.578487 3.493450 4.475199
v 0.106242 0.475248 0.974185
vn 1.797595 2.522959 4.852647
v 0.106204 0.475269 0.974190
vn 0.600982 0.657761 6.002981
v 0.101226 0.476664 0.974802
vn 3.839778 2.436218 3.151583
v 0.199870 0.461196 0.922491
vn 0.986669 -4.044853 3.367751
v 0.042526 0.244436 0.923382
vn 2.278895 -3.445259 4.272920
v 0.136211 0.230350 0.871702
vn 3.344270 3.456488 3.072019
v 0.199852 0.461209 0.922500
vn -0.096374 -1.024736 6.180832
v 0.097882 0.465230 0.973502
vn -0.812951 -3.619672 3.169845
v 0.037588 0.245807 0.923997
vn -0.138996 -3.698461 2.581474
v 0.042509 0.244437 0.923388
vn 2.523448 4.771553 2.623163
v 0.199835 0.461217 0.922503
vn -0.623787 -3.778723 3.016193
v 0.042495 0.244441 0.923390
vn 4.249404 -0.029694 2.206900
v 0.216441 0.445030 0.909786
vn 5.764506 -2.338604 0.619170
v 0.140914 0.232229 0.852337
vn 5.319647 0.826530 0.829682
v 0.216550 0.445293 0.908989
vn 2.202493 -4.203147 0.311311
v 0.136231 0.230346 0.871658
vn 2.165424 -4.057948 0.806932
v 0.136225 0.230345 0.871679
vn 1.919897 -3.865377 2.020016
v 0.136219 0.230347 0.871694
vn 5.890043 -2.184155 0.030551
v 0.141023 0.232492 0.851540
vn 2.049735 -3.987379 -0.333095
v 0.140654 0.231551 0.852078
vn 4.897912 0.834196 -0.487313
v 0.216649 0.445574 0.907931
vn 5.874848 -1.924581 -0.758370
v 0.141123 0.232773 0.850482
vn 5.580031 -1.239062 -2.407868
v 0.216388 0.444895 0.907672
vn 2.737916 -0.035702 -4.603982
v 0.087581 0.287021 0.736410
vn 4.788927 3.944066 0.967153
v 0.201529 0.467040 0.896888
vn 4.713854 3.978259 1.189263
v 0.201102 0.465487 0.904293
vn 4.744807 3.990655 0.651874
v 0.201510 0.467072 0.896856
vn 5.188065 3.251781 -0.806181
v 0.201195 0.467588 0.893123
vn 4.109383 2.211139 -1.843706
v 0.147870 0.506439 0.785921
vn 5.558520 -2.833290 -0.203005
v 0.140763 0.231814 0.851280
vn 2.763802 -3.363033 -1.629746
v 0.140862 0.232095 0.850223
vn 2.046732 -4.680079 -1.085283
v 0.140753 0.231831 0.851020
vn 0.939083 -2.108484 -2.898005
v 0.084236 0.275579 0.735109
vn -1.539890 -6.014068 -0.910327
v 0.042195 0.244951 0.919681
vn -1.675067 -5.963843 -1.007658
v 0.035021 0.246922 0.919681
vn -1.690642 -5.906291 -1.317328
v -0.018283 0.285731 0.812511
vn -1.567480 -5.901488 -1.478754
v 0.083043 0.271230 0.753367
vn -1.683650 -5.890420 -1.393698
v -0.017854 0.287292 0.805064
vn -1.672484 -5.885697 -1.427822
v -0.014376 0.286769 0.803146
vn -1.650663 -5.883254 -1.461445
v 0.075862 0.273201 0.753376
vn 5.405262 -1.161168 -2.980978
v 0.140878 0.248177 0.843603
vn 5.252217 -1.469362 -3.103841
v 0.137535 0.236754 0.842304
vn 1.623702 5.920975 1.335673
v 0.019029 0.529829 0.843170
vn 1.617099 5.923614 1.331926
v 0.018811 0.529926 0.843007
vn 1.617486 5.921526 1.340774
v 0.018190 0.528498 0.850070
vn 1.481213 5.931181 1.438862
v 0.070317 0.490148 0.956532
vn 1.625923 5.923300 1.322576
v 0.111223 0.516399 0.790271
vn 1.669924 5.946418 1.132939
v 0.118367 0.514443 0.790236
vn 1.630509 5.902333 1.405982
v 0.077496 0.488175 0.956532
vn 1.667037 5.911847 1.321939
v 0.171641 0.475645 0.897396
vn 1.605136 5.935434 1.292260
v 0.167734 0.474607 0.906762
vn 1.668740 5.896385 1.385705
v 0.171212 0.474084 0.904844
vn 1.608337 5.927174 1.326617
v 0.018609 0.530015 0.842854
vn 1.585297 5.927488 1.352539
v 0.017832 0.528641 0.849866
vn 1.608900 5.923148 1.343909
v 0.018003 0.528573 0.849964
vn 1.599056 5.930864 1.321226
v 0.018424 0.530097 0.842712
vn 1.595028 5.971823 1.103362
v 0.111194 0.516414 0.790236
vn 1.585997 5.935944 1.313865
v 0.018255 0.530172 0.842581
vn 1.556293 5.933054 1.361541
v 0.017678 0.528703 0.849777
vn 1.570070 5.942062 1.304939
v 0.018102 0.530239 0.842461
vn 1.523609 5.938875 1.372539
v 0.017540 0.528757 0.849695
vn 1.550634 5.949339 1.294335
v 0.017965 0.530299 0.842352
vn 1.529163 5.957199 1.282853
v 0.017844 0.530352 0.842254
vn 1.481579 5.945933 1.386890
v 0.017418 0.528805 0.849621
vn 1.498549 5.967886 1.267347
v 0.017740 0.530397 0.842167
vn 1.426049 5.954537 1.406131
v 0.017313 0.528847 0.849555
vn 1.455250 5.982332 1.246220
v 0.017651 0.530435 0.842092
vn 1.355609 5.967414 1.418615
v 0.017224 0.528881 0.849497
vn 4.512000 4.188347 1.216688
v 0.201082 0.465515 0.904276
vn 1.392124 6.001790 1.217657
v 0.017580 0.530465 0.842027
vn 1.260534 5.987619 1.419304
v 0.017152 0.528909 0.849447
vn 1.244525 5.965700 1.527926
v 0.015960 0.524574 0.867648
vn -0.493370 2.536796 3.468784
v 0.069122 0.485798 0.974799
vn 4.443853 4.273885 0.662467
v 0.201491 0.467097 0.896828
vn 4.093379 4.574279 1.277123
v 0.201063 0.465538 0.904261
vn 1.708795 2.943824 4.530956
v 0.106171 0.475287 0.974193
vn 1.275020 6.032946 1.170498
v 0.017524 0.530489 0.841973
vn 1.101102 6.018222 1.416745
v 0.017096 0.528930 0.849405
vn 1.055646 5.984539 1.585741
v 0.015902 0.524588 0.867635
vn 4.874552 3.743069 -0.600783
v 0.201176 0.467612 0.893108
vn -0.015656 -5.872485 1.572294
v 0.132744 0.230869 0.873611
vn 3.789860 4.823879 0.755545
v 0.201475 0.467116 0.896806
vn 3.411244 5.067869 1.345029
v 0.201046 0.465556 0.904248
vn 1.764227 4.308266 3.654540
v 0.106143 0.475300 0.974194
vn 1.012245 3.001808 4.479138
v 0.101216 0.476671 0.974802
vn -0.313035 -0.950090 6.192748
v 0.065856 0.474338 0.973502
vn -0.273209 -0.972208 6.192445
v 0.090717 0.467199 0.973502
vn 0.018220 0.165540 6.219873
v 0.069200 0.485772 0.974802
vn 0.501958 2.577227 3.855447
v 0.069151 0.485789 0.974802
vn -0.648660 -0.862651 6.162251
v 0.065806 0.474348 0.973501
vn -1.901935 -2.622013 2.418326
v 0.005497 0.254931 0.923997
vn -0.092535 -0.329362 6.264502
v 0.094061 0.478633 0.974802
vn -1.043468 -3.653710 2.856835
v 0.030408 0.247779 0.923997
vn 0.994128 6.084713 1.081410
v 0.017484 0.530505 0.841930
vn 0.733352 6.068789 1.406656
v 0.017056 0.528945 0.849372
vn 1.499704 6.040405 0.824661
v 0.111177 0.516423 0.790210
vn 0.144695 0.504431 6.239046
v 0.076365 0.483803 0.974802
vn 0.957327 3.365915 3.861094
v 0.076325 0.483817 0.974802
vn 0.548473 5.986251 1.745131
v 0.015861 0.524598 0.867624
vn 4.208307 4.509904 -0.459391
v 0.149309 0.505391 0.788816
vn 4.220181 4.537632 -0.194435
v 0.201160 0.467629 0.893099
vn -1.676036 -6.033164 -0.268518
v 0.035316 0.246414 0.923390
vn 2.768124 5.442734 0.885642
v 0.201459 0.467129 0.896789
vn 2.401628 5.594611 1.380694
v 0.201030 0.465567 0.904237
vn 1.836146 5.576751 2.181410
v 0.106120 0.475308 0.974192
vn 1.652583 5.566418 2.255590
v 0.101212 0.476674 0.974799
vn 1.908464 5.666855 1.915318
v 0.196358 0.461740 0.924422
vn -2.223672 -0.334821 5.622220
v 0.065776 0.474356 0.973497
vn -0.363515 5.959591 0.965071
v 0.017461 0.530514 0.841899
vn -0.891545 5.903907 1.269586
v 0.017032 0.528953 0.849346
vn 1.096545 5.859769 -0.855411
v 0.110863 0.516935 0.786518
vn -0.039243 6.036454 0.308706
v 0.017147 0.531026 0.838206
vn 0.856594 6.146529 -0.122561
v 0.020625 0.530503 0.836288
vn 1.680556 5.996139 0.821747
v 0.118356 0.514450 0.790210
vn 1.595052 5.899798 1.456060
v 0.070346 0.490135 0.956550
vn 1.617225 5.823858 1.701698
v 0.076301 0.483825 0.974799
vn 1.654657 5.880078 1.470082
v 0.077519 0.488164 0.956550
vn -2.208124 4.259354 2.249208
v 0.015837 0.524603 0.867613
vn -0.449421 5.811641 2.327404
v 0.067681 0.486846 0.971902
vn 1.733892 5.911928 1.230261
v 0.143258 0.507297 0.790236
vn 1.747997 5.954319 0.944836
v 0.143268 0.507299 0.790210
vn 1.753629 5.891448 1.299007
v 0.196552 0.468494 0.897396
vn 2.389419 5.698801 0.875340
v 0.149615 0.504885 0.792500
vn 2.299340 5.740408 0.780846
v 0.148175 0.505934 0.789604
vn 1.693833 5.865323 1.485350
v 0.102407 0.481024 0.956532
vn 1.698831 5.864923 1.481283
v 0.192645 0.467456 0.906762
vn 1.750916 5.863578 1.419257
v 0.196123 0.466933 0.904844
vn -1.706986 -5.916816 -1.246079
v 0.010130 0.254069 0.919681
vn -1.744316 -5.948087 -0.979489
v 0.010090 0.254077 0.919697
vn -1.761498 -5.898090 -1.259623
v 0.008650 0.255126 0.916800
vn -1.753616 -5.891450 -1.299015
v -0.043194 0.292882 0.812511
vn -1.698314 -6.003731 -0.737292
v 0.035001 0.246926 0.919697
vn -0.825499 -2.938840 -3.884019
v 0.077057 0.277551 0.735109
vn 3.395156 5.251146 0.289167
v 0.201145 0.467640 0.893096
vn 3.190403 5.393557 0.366649
v 0.149301 0.505397 0.788808
vn 2.091912 2.482975 -2.313163
v 0.147861 0.506445 0.785911
vn -1.733710 -6.011734 -0.560043
v 0.010404 0.253565 0.923390
vn 1.733700 6.011728 0.560172
v 0.142954 0.507811 0.786518
vn 1.764009 5.808844 1.614719
v 0.191450 0.463106 0.925028
vn 1.779611 5.807727 1.600765
v 0.194928 0.462583 0.923110
vn -2.649382 2.795097 3.285481
v 0.069111 0.485799 0.974792
vn -4.421689 0.563713 4.109824
v 0.065767 0.474360 0.973491
vn -2.299253 -5.740429 -0.780881
v 0.005183 0.255443 0.920304
vn -3.812585 -2.165951 1.839171
v 0.005492 0.254934 0.923993
vn -3.678583 -5.029443 0.007868
v 0.004051 0.255983 0.921095
vn -4.446548 -1.919851 0.369470
v -0.047789 0.293736 0.816803
vn -3.884940 -2.050725 -0.389816
v -0.048103 0.294246 0.813125
vn -5.093085 -1.352701 1.548670
v -0.047787 0.293736 0.816811
vn -5.395371 1.014181 3.049074
v 0.064327 0.475409 0.970593
vn -5.687004 1.292018 1.920892
v 0.012486 0.513163 0.866301
vn -2.335446 3.044810 -1.411069
v 0.017141 0.531025 0.838200
vn -2.181752 5.774327 0.994027
v 0.017454 0.530515 0.841878
vn -2.752526 5.497518 1.061855
v 0.017025 0.528953 0.849328
vn 1.675989 6.033166 0.268460
v 0.118042 0.514962 0.786518
vn -4.034615 3.195276 1.619066
v 0.015830 0.524602 0.867602
vn -4.792690 2.231514 3.190181
v 0.067671 0.486848 0.971894
vn -1.765111 -5.822866 -1.564388
v -0.041571 0.298793 0.786797
vn -1.750897 -5.863585 -1.419253
v -0.042766 0.294443 0.805064
vn -2.909892 -1.129108 -1.833198
v -0.046478 0.300160 0.787401
vn -1.747663 -5.823795 -1.581013
v -0.038093 0.298270 0.784879
vn -1.698800 -5.864957 -1.481182
v -0.039288 0.293920 0.803146
vn -1.808417 -5.800167 -1.596360
v -0.041592 0.298800 0.786796
vn -2.311006 -5.629826 -1.438019
v -0.047673 0.295809 0.805671
vn -0.858931 -2.498281 -3.857488
v 0.052145 0.284702 0.735109
vn -1.693792 -5.865342 -1.485319
v 0.050950 0.280352 0.753376
vn 0.092515 0.329419 -6.264496
v 0.059325 0.282730 0.735109
vn 0.035226 1.042120 -6.174267
v 0.055490 0.296144 0.736410
vn -1.854623 -2.026800 -3.705573
v 0.047238 0.286068 0.735716
vn -0.833746 -0.615937 -5.984058
v 0.052127 0.284709 0.735111
vn -2.124784 -5.754324 -1.308153
v -0.048102 0.294248 0.813118
vn 0.273110 0.972222 -6.192453
v 0.062670 0.294172 0.736410
vn 1.318999 4.822019 -2.620178
v 0.115770 0.515569 0.785911
vn 1.364014 4.758239 -2.350594
v 0.122949 0.513597 0.785911
vn 0.733966 2.655659 -5.416002
v 0.122929 0.513601 0.785910
vn 0.661854 3.485599 -4.062407
v 0.115746 0.515574 0.785910
vn -0.320258 1.124195 -6.159641
v 0.055471 0.296148 0.736412
vn 0.918822 2.835414 -5.141091
v 0.147850 0.506448 0.785910
vn -4.032111 -2.068468 -0.671006
v -0.047674 0.295808 0.805675
vn -1.891106 1.574162 -5.681034
v 0.050583 0.297510 0.737017
vn -0.900746 1.214546 -6.056046
v 0.050585 0.297508 0.737016
vn -4.257318 1.747461 -3.208683
v -0.043134 0.311599 0.788702
vn -1.039912 0.281714 -6.092989
v 0.047241 0.286069 0.735715
vn -2.602218 2.076019 -5.284371
v -0.039655 0.311076 0.786783
vn -0.514870 3.505161 -3.679197
v 0.110860 0.516934 0.786515
vn -1.026721 4.081690 -2.974483
v 0.020620 0.530502 0.836281
vn -4.751986 3.337775 0.668656
v 0.015517 0.525112 0.863924
vn -6.037805 1.644133 0.384463
v 0.012173 0.513673 0.862623
vn -4.397047 3.655830 0.517287
v 0.016712 0.529463 0.845650
vn -5.989944 1.775176 -0.446501
v 0.013797 0.519586 0.836899
vn -6.044966 1.712887 0.011778
v 0.013368 0.518024 0.844349
# 193 vertices, 0 vertices normals

f 1//1 2//2 3//3
f 1//1 4//4 5//5
f 1//1 5//5 6//6
f 1//1 3//3 7//7
f 1//1 8//8 9//9
f 1//1 7//7 10//10
f 1//1 11//11 12//12
f 1//1 6//6 11//11
f 1//1 13//13 8//8
f 1//1 10//10 14//14
f 1//1 15//15 13//13
f 1//1 9//9 2//2
f 1//1 14//14 4//4
f 1//1 12//12 15//15
f 2//2 16//16 3//3
f 2//2 9//9 16//16
f 16//16 17//17 18//18
f 16//16 18//18 3//3
f 16//16 19//19 17//17
f 16//16 20//20 19//19
f 16//16 21//21 20//20
f 16//16 9//9 21//21
f 17//17 22//22 18//18
f 17//17 23//23 22//22
f 17//17 19//19 23//23
f 24//24 25//25 26//26
f 24//24 18//18 25//25
f 24//24 26//26 27//27
f 24//24 28//28 29//29
f 24//24 29//29 3//3
f 24//24 30//30 28//28
f 24//24 3//3 18//18
f 24//24 31//31 30//30
f 24//24 32//32 31//31
f 24//24 27//27 32//32
f 25//25 18//18 22//22
f 25//25 22//22 33//33
f 25//25 34//34 26//26
f 25//25 33//33 34//34
f 22//22 23//23 33//33
f 35//35 23//23 36//36
f 35//35 34//34 33//33
f 35//35 33//33 23//23
f 35//35 36//36 34//34
f 23//23 19//19 13//13
f 23//23 13//13 37//37
f 23//23 38//38 39//39
f 23//23 40//40 36//36
f 23//23 37//37 38//38
f 23//23 41//41 42//42
f 23//23 42//42 43//43
f 23//23 43//43 40//40
f 23//23 39//39 41//41
f 26//26 34//34 44//44
f 26//26 44//44 27//27
f 34//34 45//45 44//44
f 34//34 36//36 45//45
f 46//46 47//47 48//48
f 46//46 48//48 49//49
f 46//46 50//50 47//47
f 46//46 51//51 50//50
f 46//46 49//49 52//52
f 46//46 53//53 51//51
f 46//46 52//52 54//54
f 46//46 54//54 55//55
f 46//46 55//55 53//53
f 47//47 56//56 57//57
f 47//47 58//58 48//48
f 47//47 57//57 58//58
f 47//47 50//50 56//56
f 56//56 59//59 57//57
f 56//56 50//50 60//60
f 56//56 60//60 59//59
f 48//48 58//58 49//49
f 59//59 61//61 62//62
f 59//59 62//62 57//57
f 59//59 60//60 61//61
f 58//58 57//57 49//49
f 61//61 63//63 64//64
f 61//61 64//64 62//62
f 61//61 60//60 63//63
f 57//57 62//62 49//49
f 63//63 65//65 64//64
f 63//63 60//60 65//65
f 62//62 64//64 49//49
f 65//65 66//66 67//67
f 65//65 67//67 64//64
f 65//65 60//60 66//66
f 64//64 67//67 49//49
f 66//66 68//68 69//69
f 66//66 69//69 67//67
f 66//66 60//60 68//68
f 67//67 69//69 49//49
f 68//68 70//70 71//71
f 68//68 71//71 69//69
f 68//68 60//60 70//70
f 69//69 71//71 49//49
f 28//28 30//30 72//72
f 28//28 72//72 29//29
f 4//4 14//14 5//5
f 29//29 72//72 3//3
f 70//70 73//73 74//74
f 70//70 74//74 71//71
f 70//70 60//60 73//73
f 71//71 74//74 75//75
f 71//71 75//75 76//76
f 71//71 76//76 49//49
f 19//19 20//20 13//13
f 30//30 31//31 77//77
f 30//30 77//77 78//78
f 30//30 78//78 72//72
f 5//5 79//79 6//6
f 5//5 14//14 79//79
f 72//72 78//78 7//7
f 72//72 7//7 3//3
f 73//73 80//80 81//81
f 73//73 81//81 74//74
f 73//73 60//60 80//80
f 74//74 81//81 82//82
f 74//74 82//82 75//75
f 75//75 82//82 76//76
f 45//45 36//36 44//44
f 31//31 83//83 77//77
f 31//31 32//32 83//83
f 44//44 36//36 27//27
f 8//8 13//13 84//84
f 8//8 84//84 21//21
f 8//8 21//21 9//9
f 20//20 84//84 13//13
f 20//20 21//21 84//84
f 77//77 83//83 85//85
f 77//77 85//85 86//86
f 77//77 86//86 78//78
f 79//79 87//87 88//88
f 79//79 88//88 6//6
f 79//79 14//14 87//87
f 78//78 86//86 10//10
f 78//78 10//10 7//7
f 89//89 90//90 91//91
f 89//89 91//91 92//92
f 89//89 93//93 94//94
f 89//89 92//92 93//93
f 89//89 94//94 90//90
f 90//90 11//11 95//95
f 90//90 95//95 91//91
f 90//90 94//94 96//96
f 90//90 96//96 11//11
f 11//11 6//6 95//95
f 11//11 96//96 12//12
f 80//80 97//97 98//98
f 80//80 60//60 99//99
f 80//80 98//98 81//81
f 80//80 99//99 97//97
f 50//50 51//51 60//60
f 91//91 95//95 100//100
f 91//91 100//100 101//101
f 91//91 101//101 92//92
f 95//95 6//6 100//100
f 81//81 98//98 102//102
f 81//81 102//102 82//82
f 82//82 102//102 76//76
f 100//100 6//6 88//88
f 100//100 88//88 101//101
f 83//83 103//103 104//104
f 83//83 104//104 85//85
f 83//83 32//32 103//103
f 13//13 105//105 37//37
f 13//13 15//15 105//105
f 85//85 104//104 106//106
f 85//85 106//106 107//107
f 85//85 107//107 86//86
f 87//87 108//108 109//109
f 87//87 110//110 108//108
f 87//87 14//14 110//110
f 87//87 109//109 88//88
f 86//86 107//107 14//14
f 86//86 14//14 10//10
f 93//93 92//92 76//76
f 93//93 111//111 94//94
f 93//93 76//76 111//111
f 97//97 112//112 113//113
f 97//97 99//99 114//114
f 97//97 113//113 98//98
f 97//97 115//115 112//112
f 97//97 116//116 115//115
f 97//97 114//114 116//116
f 60//60 51//51 117//117
f 60//60 117//117 99//99
f 118//118 92//92 119//119
f 118//118 120//120 52//52
f 118//118 49//49 76//76
f 118//118 76//76 92//92
f 118//118 52//52 49//49
f 118//118 119//119 120//120
f 92//92 101//101 119//119
f 98//98 113//113 121//121
f 98//98 121//121 102//102
f 102//102 121//121 122//122
f 102//102 122//122 76//76
f 51//51 123//123 124//124
f 51//51 53//53 125//125
f 51//51 125//125 123//123
f 51//51 124//124 117//117
f 123//123 126//126 127//127
f 123//123 106//106 126//126
f 123//123 127//127 124//124
f 123//123 125//125 106//106
f 120//120 101//101 109//109
f 120//120 128//128 129//129
f 120//120 119//119 101//101
f 120//120 109//109 128//128
f 120//120 54//54 52//52
f 120//120 129//129 130//130
f 120//120 55//55 54//54
f 120//120 130//130 55//55
f 101//101 88//88 109//109
f 131//131 38//38 132//132
f 131//131 132//132 133//133
f 131//131 134//134 38//38
f 131//131 133//133 134//134
f 38//38 37//37 135//135
f 38//38 135//135 132//132
f 38//38 134//134 39//39
f 40//40 136//136 36//36
f 40//40 43//43 136//136
f 37//37 105//105 135//135
f 103//103 32//32 137//137
f 103//103 137//137 104//104
f 104//104 137//137 106//106
f 32//32 138//138 137//137
f 32//32 139//139 138//138
f 32//32 27//27 139//139
f 140//140 105//105 94//94
f 140//140 94//94 132//132
f 140//140 132//132 105//105
f 105//105 15//15 12//12
f 105//105 96//96 94//94
f 105//105 12//12 96//96
f 105//105 132//132 135//135
f 126//126 106//106 137//137
f 126//126 138//138 127//127
f 126//126 137//137 138//138
f 106//106 125//125 107//107
f 127//127 138//138 139//139
f 127//127 139//139 141//141
f 127//127 141//141 124//124
f 108//108 110//110 142//142
f 108//108 142//142 109//109
f 110//110 14//14 143//143
f 110//110 143//143 142//142
f 107//107 125//125 130//130
f 107//107 130//130 14//14
f 14//14 130//130 143//143
f 111//111 76//76 144//144
f 111//111 145//145 94//94
f 111//111 144//144 145//145
f 94//94 146//146 132//132
f 94//94 145//145 147//147
f 94//94 147//147 148//148
f 94//94 149//149 150//150
f 94//94 148//148 149//149
f 94//94 150//150 146//146
f 151//151 145//145 152//152
f 151//151 147//147 145//145
f 151//151 153//153 149//149
f 151//151 149//149 148//148
f 151//151 152//152 153//153
f 151//151 148//148 147//147
f 112//112 115//115 154//154
f 112//112 155//155 156//156
f 112//112 156//156 113//113
f 112//112 154//154 155//155
f 99//99 117//117 157//157
f 99//99 157//157 114//114
f 76//76 122//122 144//144
f 113//113 156//156 158//158
f 113//113 158//158 121//121
f 121//121 144//144 122//122
f 121//121 158//158 159//159
f 121//121 159//159 144//144
f 53//53 55//55 125//125
f 125//125 55//55 130//130
f 117//117 124//124 141//141
f 117//117 141//141 157//157
f 128//128 109//109 142//142
f 128//128 142//142 129//129
f 129//129 142//142 143//143
f 129//129 143//143 130//130
f 160//160 161//161 162//162
f 160//160 163//163 164//164
f 160//160 164//164 161//161
f 160//160 165//165 163//163
f 160//160 162//162 165//165
f 161//161 41//41 39//39
f 161//161 164//164 42//42
f 161//161 42//42 41//41
f 161//161 134//134 166//166
f 161//161 39//39 134//134
f 161//161 166//166 162//162
f 163//163 167//167 168//168
f 163//163 168//168 164//164
f 163//163 165//165 167//167
f 164//164 168//168 43//43
f 164//164 43//43 42//42
f 167//167 136//136 168//168
f 167//167 169//169 136//136
f 167//167 170//170 169//169
f 167//167 171//171 172//172
f 167//167 165//165 162//162
f 167//167 172//172 170//170
f 167//167 162//162 171//171
f 136//136 43//43 168//168
f 136//136 169//169 36//36
f 132//132 146//146 150//150
f 132//132 150//150 133//133
f 134//134 133//133 150//150
f 134//134 173//173 166//166
f 134//134 150//150 173//173
f 169//169 170//170 174//174
f 169//169 174//174 27//27
f 169//169 27//27 36//36
f 175//175 176//176 177//177
f 175//175 114//114 157//157
f 175//175 157//157 176//176
f 175//175 178//178 114//114
f 175//175 177//177 178//178
f 170//170 172//172 179//179
f 170//170 178//178 177//177
f 170//170 179//179 178//178
f 170//170 177//177 174//174
f 176//176 139//139 180//180
f 176//176 157//157 141//141
f 176//176 141//141 139//139
f 176//176 180//180 177//177
f 139//139 27//27 180//180
f 174//174 177//177 180//180
f 174//174 180//180 27//27
f 166//166 173//173 181//181
f 166//166 181//181 162//162
f 171//171 182//182 183//183
f 171//171 162//162 184//184
f 171//171 185//185 172//172
f 171//171 184//184 186//186
f 171//171 186//186 182//182
f 171//171 183//183 185//185
f 173//173 150//150 181//181
f 115//115 116//116 154//154
f 116//116 114//114 154//154
f 114//114 178//178 187//187
f 114//114 188//188 154//154
f 114//114 187//187 188//188
f 182//182 154//154 188//188
f 182//182 184//184 154//154
f 182//182 188//188 187//187
f 182//182 186//186 184//184
f 182//182 187//187 183//183
f 145//145 144//144 152//152
f 153//153 152//152 158//158
f 153//153 158//158 189//189
f 153//153 190//190 149//149
f 153//153 189//189 190//190
f 149//149 190//190 150//150
f 152//152 144//144 159//159
f 152//152 159//159 158//158
f 155//155 154//154 191//191
f 155//155 191//191 156//156
f 156//156 191//191 189//189
f 156//156 189//189 158//158
f 172//172 185//185 179//179
f 178//178 179//179 183//183
f 178//178 183//183 187//187
f 179//179 185//185 183//183
f 192//192 162//162 181//181
f 192//192 181//181 190//190
f 192//192 193//193 191//191
f 192//192 190//190 193//193
f 192//192 154//154 162//162
f 192//192 191//191 154//154
f 162//162 154//154 184//184
f 181//181 150//150 190//190
f 193//193 190//190 189//189
f 193//193 189//189 191//191
# 382 faces, 0 coords texture

# End of File
