####
#
# OBJ File Generated by Meshlab
#
####
# Object matlab_mesh_step15_link9.obj
#
# Vertices: 203
# Faces: 402
#
####
vn 5.058856 3.519385 1.222948
v 0.746156 0.802737 1.218870
vn 5.080564 3.502138 1.179160
v 0.753030 0.813542 1.158529
vn 5.024046 3.587601 1.166928
v 0.741694 0.829866 1.157654
vn 5.110691 2.950755 1.846737
v 0.746173 0.802670 1.218996
vn 4.806310 3.541540 1.836297
v 0.734836 0.818993 1.218121
vn 4.415543 4.416342 0.615257
v 0.696039 0.910022 1.093966
vn 4.806230 3.922209 0.876050
v 0.701755 0.902268 1.103431
vn 4.564357 4.272094 0.289639
v 0.756721 0.887756 0.807197
vn 4.206511 4.551976 0.872133
v 0.681592 0.918972 1.130370
vn 4.268018 4.576158 0.356309
v 0.756675 0.887798 0.807240
vn 4.141777 4.697482 0.498080
v 0.742228 0.896748 0.843644
vn 4.562803 4.104403 1.130199
v 0.687308 0.911218 1.139835
vn 5.067512 3.582579 0.967028
v 0.756141 0.820916 1.121250
vn 5.016775 3.679031 0.856900
v 0.701783 0.902238 1.103395
vn 4.912327 3.843846 0.549113
v 0.762440 0.879995 0.816676
vn 3.950054 4.774700 0.915185
v 0.629387 0.963834 1.130370
vn 4.037114 4.792378 0.454462
v 0.690022 0.941610 0.843644
vn 3.819601 4.758433 1.467874
v 0.622529 0.952961 1.190836
vn 3.742155 5.023548 0.320785
v 0.682881 0.947700 0.841661
vn 3.756755 4.931668 0.859624
v 0.622246 0.969924 1.128387
vn 3.612765 4.921887 1.451003
v 0.615388 0.959051 1.188853
vn 4.034231 4.629005 1.329747
v 0.674735 0.908099 1.190836
vn 4.415746 4.117022 1.501070
v 0.680450 0.900345 1.200301
vn 3.874998 4.644758 1.668064
v 0.628245 0.945207 1.200301
vn 3.649381 4.818522 1.714324
v 0.622463 0.952990 1.190898
vn 3.151620 4.071856 3.142736
v 0.628182 0.945228 1.200378
vn 3.750609 3.586776 2.943566
v 0.680450 0.900313 1.200378
vn 5.400113 2.933899 1.008384
v 0.767477 0.804592 1.122125
vn 5.474759 2.694845 1.250263
v 0.760620 0.793720 1.182591
vn 5.718017 2.237153 0.709162
v 0.828160 0.782291 0.835378
vn 5.271154 3.326614 0.635475
v 0.828113 0.782369 0.835399
vn 5.812686 1.573734 1.537963
v 0.760637 0.793647 1.182634
vn 5.940126 1.675028 1.036958
v 0.821294 0.771403 0.895916
vn 3.817544 3.126534 3.565156
v 0.734822 0.818954 1.218205
vn 4.528382 2.083829 3.099461
v 0.746170 0.802610 1.219079
vn 4.065836 4.778693 0.249147
v 0.704469 0.932660 0.807240
vn 3.760138 3.061715 -2.329166
v 0.762722 0.883007 0.762062
vn 3.840316 4.954795 0.168691
v 0.697328 0.938750 0.805257
vn 4.088529 4.770197 -0.030328
v 0.710455 0.927922 0.762062
vn 5.133608 3.572599 0.543532
v 0.773788 0.863650 0.817551
vn 5.504430 2.460359 -0.611397
v 0.834162 0.777542 0.790243
vn 5.199351 3.509342 -0.018091
v 0.779789 0.858901 0.772416
vn 2.408385 5.504789 0.722900
v 0.622179 0.969975 1.128374
vn 2.163052 5.292058 1.881601
v 0.615313 0.959087 1.188911
vn 3.361115 5.284515 -0.074938
v 0.697304 0.938768 0.805210
vn 1.402357 3.266860 -2.600315
v 0.703305 0.934020 0.760075
vn 2.014616 5.702489 -0.121415
v 0.682836 0.947731 0.841655
vn 5.998263 0.701071 1.593957
v 0.769346 0.729609 1.190480
vn 5.792453 0.885683 2.241913
v 0.754899 0.738559 1.226884
vn 5.679491 -0.819217 1.806800
v 0.769337 0.729530 1.190537
vn 6.133074 0.227965 1.037970
v 0.829994 0.707287 0.903818
vn 6.093975 1.085065 1.044147
v 0.821307 0.771323 0.895935
vn 5.121013 -0.186255 2.994541
v 0.754869 0.738493 1.226982
vn 2.719873 4.625441 2.888632
v 0.621033 0.951325 1.198391
vn 0.935013 2.367390 5.101880
v 0.628127 0.945224 1.200414
vn 2.697730 2.938626 4.814392
v 0.680436 0.900274 1.200414
vn 2.018844 1.856293 5.350015
v 0.734800 0.818909 1.218246
vn 2.921720 1.213474 4.734261
v 0.746155 0.802551 1.219121
vn 5.069044 3.695075 0.094142
v 0.768442 0.875246 0.771542
vn 6.126025 1.131072 0.776974
v 0.828179 0.782220 0.835350
vn 5.683961 1.119541 -1.022797
v 0.834189 0.777468 0.790256
vn 0.457309 6.063514 0.425805
v 0.622122 0.969990 1.128351
vn -0.028222 5.163057 2.582474
v 0.615250 0.959093 1.188936
vn 0.301585 3.118738 4.471963
v 0.620972 0.951326 1.198426
vn 0.975875 5.785094 -0.799931
v 0.688838 0.942982 0.796520
vn 0.038275 6.232216 -0.565317
v 0.682793 0.947733 0.841637
vn 4.289054 -3.433578 1.916544
v 0.769314 0.729490 1.190559
vn 4.791824 -2.715115 1.104873
v 0.829985 0.707234 0.903845
vn 2.949756 -1.621088 3.610769
v 0.754833 0.738462 1.227031
vn 6.186737 0.704027 0.792682
v 0.836859 0.718174 0.843281
vn 4.111538 -1.784578 -1.271071
v 0.842866 0.713379 0.798166
vn 4.769048 -2.805437 0.739895
v 0.835981 0.702477 0.858847
vn 4.819492 -2.415357 0.311184
v 0.835995 0.702482 0.858751
vn -4.990622 0.029434 -3.075276
v 0.553756 0.860250 0.738824
vn -5.812863 0.141393 -1.839655
v 0.539288 0.869213 0.775269
vn -4.431628 3.023145 -1.743510
v 0.539291 0.869240 0.775276
vn -2.556229 1.559665 -3.713503
v 0.553772 0.860269 0.738803
vn -3.292480 -1.052556 -4.081722
v 0.562450 0.796180 0.746714
vn -5.915621 -1.296960 -1.533543
v 0.547969 0.805151 0.783186
vn -4.759986 2.049316 -1.039507
v 0.478620 0.891497 1.061990
vn -5.963953 -1.526437 -1.036773
v 0.487298 0.827407 1.069900
vn -3.530473 -5.153037 -0.289179
v 0.625789 0.651012 1.124151
vn -3.731181 -5.027007 -0.128947
v 0.611321 0.659975 1.160596
vn -4.036992 -4.792479 -0.454461
v 0.618639 0.657109 1.122164
vn -3.245258 -5.190306 -0.934601
v 0.686446 0.628769 0.837432
vn -1.415618 -5.696279 -0.556059
v 0.686483 0.628740 0.837484
vn -1.705211 -5.788892 0.231110
v 0.625812 0.650997 1.124198
vn -3.312158 -5.320793 0.106739
v 0.611331 0.659968 1.160670
vn -4.065713 -4.778788 -0.249414
v 0.604172 0.666072 1.158609
vn -1.331315 -3.116900 2.630011
v 0.605321 0.664720 1.205764
vn -4.088460 -4.770245 0.030383
v 0.598166 0.670822 1.203775
vn -2.581909 -4.368144 -3.191366
v 0.687592 0.647418 0.767415
vn -2.670229 -5.124986 -1.984679
v 0.693311 0.639656 0.776895
vn -3.799158 -4.763422 -1.497033
v 0.686162 0.645753 0.774908
vn -2.814897 -3.597786 -3.436632
v 0.680443 0.653515 0.765428
vn -0.633559 -2.225595 -5.398602
v 0.680478 0.653507 0.765420
vn -0.299357 -3.166408 -4.403060
v 0.687633 0.647405 0.767409
vn -3.949891 -4.774798 -0.915266
v 0.679296 0.634866 0.835446
vn -0.292252 -5.109021 -2.445421
v 0.693355 0.639638 0.776899
vn -5.331217 -3.192573 -0.696821
v 0.480465 0.816453 1.130428
vn -5.400255 -2.933670 -1.008632
v 0.541122 0.794209 0.843709
vn -4.967950 -3.785907 -0.514755
v 0.546145 0.718787 1.149192
vn -5.417687 -1.592630 0.901166
v 0.474417 0.821262 1.175579
vn -5.764228 -2.058120 -0.661605
v 0.480427 0.816510 1.130485
vn -5.199648 -3.508858 0.017455
v 0.528780 0.739898 1.193411
vn -5.133902 -3.572126 -0.544097
v 0.534790 0.735146 1.148317
vn -4.141554 -4.697687 -0.498061
v 0.566372 0.702024 1.122164
vn -4.361966 -4.471819 -0.367634
v 0.551904 0.710987 1.158609
vn -4.415477 -4.416360 -0.615307
v 0.612561 0.688743 0.871891
vn -4.206528 -4.551923 -0.872247
v 0.627028 0.679781 0.835446
vn -4.768577 -4.031933 -0.648395
v 0.546185 0.718749 1.149130
vn -4.599904 -4.244791 -0.239108
v 0.551867 0.711020 1.158681
vn -4.829980 -3.894925 -0.850472
v 0.606842 0.696505 0.862411
vn -3.746742 -3.043054 2.342944
v 0.545857 0.715772 1.203775
vn -3.445603 -2.823323 -3.412163
v 0.573803 0.779789 0.747601
vn -2.037868 -2.420275 -5.411525
v 0.626070 0.734875 0.747601
vn -3.479201 -3.384090 -3.014938
v 0.628175 0.698430 0.765428
vn -5.024489 -3.586866 -1.167295
v 0.566937 0.768902 0.808139
vn -5.080692 -3.501865 -1.179483
v 0.555589 0.785246 0.807264
vn -3.904984 -2.117374 -3.190716
v 0.562455 0.796134 0.746727
vn -1.575301 -1.500809 -5.785277
v 0.573806 0.779821 0.747588
vn -0.547560 -1.460126 -5.852563
v 0.626115 0.734871 0.747588
vn -5.067951 -3.581858 -0.967328
v 0.552469 0.777865 0.844584
vn -4.562964 -4.104094 -1.130496
v 0.621309 0.687542 0.825966
vn -5.521092 -2.359985 -1.426968
v 0.547988 0.805097 0.783172
vn -4.034206 -4.628987 -1.329884
v 0.633894 0.690668 0.774908
vn 4.086259 2.649403 -2.708619
v 0.774070 0.866663 0.762937
vn 4.243888 2.036445 -2.826963
v 0.828443 0.785304 0.780764
vn 3.106975 1.177347 -4.407254
v 0.774104 0.866600 0.762934
vn 1.930720 0.726927 -5.717832
v 0.766949 0.872702 0.760945
vn 3.032753 1.829255 -5.189247
v 0.762748 0.882958 0.762060
vn 1.816034 1.144066 -5.692684
v 0.755593 0.889060 0.760071
vn 2.549933 2.827865 -3.119352
v 0.755573 0.889105 0.760075
vn 3.529306 0.599919 -3.926494
v 0.828467 0.785235 0.780766
vn -0.952054 3.665790 -3.664910
v 0.646646 0.925520 0.753417
vn -2.035738 5.463699 -1.486544
v 0.632165 0.934491 0.789889
vn 0.564404 1.364350 -6.068459
v 0.703284 0.934010 0.760071
vn 0.339488 1.476269 -6.026212
v 0.646700 0.925489 0.753407
vn -0.748288 6.177631 -0.849584
v 0.688803 0.942981 0.796543
vn -0.646842 6.207279 -0.688023
v 0.682720 0.947724 0.841599
vn 3.410526 -0.330220 -4.512339
v 0.837142 0.721187 0.788667
vn 5.509533 0.007834 -1.763196
v 0.842861 0.713425 0.798146
vn 3.392382 -1.500908 -4.475744
v 0.837145 0.721146 0.788677
vn 1.344732 -1.044355 -6.012530
v 0.744273 0.655927 0.774057
vn 1.280158 -0.551699 -6.125771
v 0.735593 0.719984 0.766153
vn 1.597283 -2.716484 -4.996109
v 0.744271 0.655895 0.774063
vn 1.008132 -0.772255 -6.147748
v 0.737124 0.662024 0.772070
vn 1.204225 -0.547177 -6.141250
v 0.728438 0.726086 0.764164
vn 0.951655 -0.678744 -6.171027
v 0.682752 0.743361 0.754242
vn 0.941008 -0.239149 -6.184336
v 0.674075 0.807450 0.746332
vn -1.008343 0.772555 6.147667
v 0.571490 0.936734 1.193761
vn -0.952098 0.678872 6.170945
v 0.625853 0.855369 1.211593
vn -0.790624 0.741135 6.188035
v 0.682407 0.863844 1.218238
vn -1.565996 2.463091 5.036391
v 0.564335 0.942836 1.191772
vn -1.280133 0.551970 6.125746
v 0.573012 0.878746 1.199682
vn -1.203980 0.547377 6.141275
v 0.580168 0.872644 1.201671
vn -0.941685 0.238913 6.184285
v 0.634531 0.791280 1.219503
vn -0.123905 0.476672 6.186069
v 0.691083 0.799816 1.226183
vn -2.178284 5.568037 0.059343
v 0.565484 0.961500 1.121697
vn -2.216908 4.506847 2.352192
v 0.558613 0.950603 1.182282
vn -0.620475 6.163080 0.126960
v 0.622042 0.969987 1.128310
vn -4.682854 3.620712 -0.095101
v 0.472610 0.896249 1.107084
vn -2.198446 5.648713 -0.732347
v 0.565491 0.961493 1.121618
vn -4.774055 2.423311 -0.697990
v 0.472614 0.896247 1.107003
vn -4.115074 1.815796 1.522350
v 0.465739 0.885351 1.167668
vn -3.297722 0.911921 4.287109
v 0.471461 0.877584 1.177158
vn -1.034838 5.680565 2.115708
v 0.615167 0.959085 1.188919
vn -6.062963 0.418529 -0.363614
v 0.465740 0.885345 1.167611
vn -3.381841 -1.215041 3.141760
v 0.480138 0.813495 1.185068
vn -1.444159 6.026342 -0.799947
v 0.626155 0.939243 0.834983
vn -1.297826 0.476000 6.129232
v 0.627375 0.797382 1.217514
vn -0.719827 -0.299596 6.232641
v 0.645886 0.774922 1.220378
vn -1.930760 -0.726941 5.717808
v 0.541657 0.726029 1.204889
vn -2.394240 -2.501531 3.172575
v 0.553012 0.709670 1.205764
vn -0.007761 0.133709 6.202084
v 0.702443 0.783450 1.227057
vn -0.943759 -5.784038 0.776098
v 0.619802 0.655749 1.169292
vn 2.035722 -5.463669 1.486728
v 0.676440 0.664239 1.175945
vn 1.287598 -4.249093 3.424696
v 0.661959 0.673210 1.212418
vn 0.325873 -6.216532 0.642847
v 0.625876 0.651000 1.124251
vn -0.625147 -0.584700 6.222753
v 0.609566 0.718203 1.212442
vn -0.031672 -2.392466 5.433085
v 0.661896 0.673236 1.212442
vn -3.216196 -1.565850 3.158702
v 0.534502 0.732131 1.202900
vn -5.069179 -3.694821 -0.094838
v 0.540135 0.723539 1.194286
vn 0.794825 1.618247 5.704033
v 0.682490 0.863860 1.218246
vn 0.739745 0.846023 6.181699
v 0.743413 0.754848 1.226183
vn 1.242742 -0.704504 5.538504
v 0.754773 0.738482 1.227057
vn 2.784195 -5.489621 0.981947
v 0.737111 0.641983 0.889231
vn 1.462582 -6.026392 0.778903
v 0.682450 0.659487 1.130852
vn 2.161825 -5.655013 0.602238
v 0.743105 0.637231 0.844231
vn 1.220822 -6.099399 0.778019
v 0.682427 0.659494 1.130943
vn -2.780515 5.491030 -0.981204
v 0.571494 0.956748 1.076603
vn -6.186487 -0.706855 -0.793695
v 0.471749 0.880599 1.122575
vn -0.728749 0.288074 -5.962490
v 0.553823 0.860242 0.738792
vn 0.373376 -6.146604 -0.123825
v 0.686554 0.628737 0.837539
vn 2.216970 -4.506822 -2.352234
v 0.749993 0.648128 0.783553
vn 0.941608 -5.939365 -1.626044
v 0.693428 0.639639 0.776930
vn -0.738761 -0.845326 -6.181922
v 0.565182 0.843876 0.739667
vn 0.123570 -0.476445 -6.186385
v 0.617512 0.798908 0.739667
vn 1.297830 -0.475992 -6.129232
v 0.681230 0.801348 0.748321
vn 0.718384 0.300587 -6.232699
v 0.662719 0.823809 0.745457
vn 0.623672 0.585430 -6.222895
v 0.699029 0.880521 0.753407
vn 0.007290 -0.133726 -6.202120
v 0.606153 0.815274 0.738792
vn 2.247322 -5.570657 -0.174525
v 0.743121 0.637231 0.844137
# 203 vertices, 0 vertices normals

f 1//1 2//2 3//3
f 1//1 4//4 2//2
f 1//1 3//3 5//5
f 1//1 5//5 4//4
f 6//6 7//7 8//8
f 6//6 9//9 7//7
f 6//6 10//10 11//11
f 6//6 11//11 9//9
f 6//6 8//8 10//10
f 7//7 9//9 12//12
f 7//7 12//12 3//3
f 7//7 13//13 14//14
f 7//7 3//3 13//13
f 7//7 14//14 15//15
f 7//7 15//15 8//8
f 16//16 9//9 17//17
f 16//16 18//18 9//9
f 16//16 17//17 19//19
f 16//16 20//20 21//21
f 16//16 21//21 18//18
f 16//16 19//19 20//20
f 9//9 18//18 22//22
f 9//9 22//22 23//23
f 9//9 23//23 12//12
f 9//9 11//11 17//17
f 18//18 24//24 22//22
f 18//18 21//21 25//25
f 18//18 25//25 26//26
f 18//18 26//26 24//24
f 22//22 24//24 23//23
f 12//12 23//23 3//3
f 24//24 26//26 27//27
f 24//24 27//27 23//23
f 23//23 5//5 3//3
f 23//23 27//27 5//5
f 28//28 29//29 30//30
f 28//28 2//2 29//29
f 28//28 13//13 2//2
f 28//28 31//31 15//15
f 28//28 14//14 13//13
f 28//28 15//15 14//14
f 28//28 30//30 31//31
f 29//29 2//2 4//4
f 29//29 4//4 32//32
f 29//29 32//32 33//33
f 29//29 33//33 30//30
f 2//2 13//13 3//3
f 4//4 5//5 34//34
f 4//4 35//35 32//32
f 4//4 34//34 35//35
f 5//5 27//27 34//34
f 36//36 10//10 37//37
f 36//36 17//17 11//11
f 36//36 11//11 10//10
f 36//36 38//38 17//17
f 36//36 39//39 38//38
f 36//36 37//37 39//39
f 10//10 8//8 37//37
f 17//17 38//38 19//19
f 31//31 40//40 15//15
f 31//31 30//30 41//41
f 31//31 42//42 40//40
f 31//31 41//41 42//42
f 20//20 19//19 43//43
f 20//20 43//43 21//21
f 21//21 43//43 44//44
f 21//21 44//44 25//25
f 38//38 45//45 19//19
f 38//38 39//39 46//46
f 38//38 46//46 45//45
f 19//19 45//45 47//47
f 19//19 47//47 43//43
f 48//48 49//49 50//50
f 48//48 32//32 49//49
f 48//48 50//50 51//51
f 48//48 51//51 52//52
f 48//48 52//52 32//32
f 49//49 32//32 35//35
f 49//49 35//35 53//53
f 49//49 53//53 50//50
f 25//25 44//44 54//54
f 25//25 54//54 26//26
f 26//26 54//54 55//55
f 26//26 55//55 56//56
f 26//26 56//56 27//27
f 27//27 56//56 34//34
f 32//32 52//52 33//33
f 35//35 34//34 57//57
f 35//35 58//58 53//53
f 35//35 57//57 58//58
f 34//34 56//56 57//57
f 40//40 42//42 59//59
f 40//40 59//59 15//15
f 8//8 15//15 59//59
f 8//8 59//59 37//37
f 30//30 33//33 60//60
f 30//30 60//60 61//61
f 30//30 61//61 41//41
f 33//33 52//52 60//60
f 43//43 47//47 62//62
f 43//43 62//62 44//44
f 44//44 62//62 63//63
f 44//44 63//63 64//64
f 44//44 64//64 54//54
f 54//54 64//64 55//55
f 45//45 46//46 65//65
f 45//45 65//65 47//47
f 47//47 65//65 66//66
f 47//47 66//66 62//62
f 50//50 53//53 67//67
f 50//50 67//67 68//68
f 50//50 68//68 51//51
f 53//53 58//58 69//69
f 53//53 69//69 67//67
f 70//70 51//51 71//71
f 70//70 60//60 51//51
f 70//70 61//61 60//60
f 70//70 71//71 61//61
f 51//51 60//60 52//52
f 51//51 68//68 72//72
f 51//51 73//73 71//71
f 51//51 72//72 73//73
f 74//74 75//75 76//76
f 74//74 77//77 78//78
f 74//74 76//76 77//77
f 74//74 78//78 79//79
f 74//74 79//79 75//75
f 75//75 80//80 76//76
f 75//75 81//81 80//80
f 75//75 79//79 81//81
f 82//82 83//83 84//84
f 82//82 85//85 86//86
f 82//82 84//84 85//85
f 82//82 87//87 88//88
f 82//82 88//88 83//83
f 82//82 86//86 87//87
f 83//83 89//89 84//84
f 83//83 90//90 91//91
f 83//83 91//91 89//89
f 83//83 88//88 90//90
f 92//92 93//93 94//94
f 92//92 95//95 96//96
f 92//92 94//94 95//95
f 92//92 97//97 93//93
f 92//92 96//96 97//97
f 93//93 85//85 98//98
f 93//93 98//98 94//94
f 93//93 97//97 99//99
f 93//93 99//99 86//86
f 93//93 86//86 85//85
f 85//85 84//84 98//98
f 100//100 101//101 102//102
f 100//100 103//103 104//104
f 100//100 105//105 103//103
f 100//100 104//104 101//101
f 100//100 102//102 106//106
f 100//100 106//106 105//105
f 107//107 84//84 89//89
f 107//107 108//108 109//109
f 107//107 89//89 108//108
f 107//107 110//110 84//84
f 107//107 109//109 110//110
f 84//84 110//110 98//98
f 111//111 108//108 112//112
f 111//111 113//113 109//109
f 111//111 109//109 108//108
f 111//111 102//102 113//113
f 111//111 112//112 102//102
f 108//108 89//89 114//114
f 108//108 114//114 112//112
f 89//89 91//91 114//114
f 115//115 116//116 117//117
f 115//115 118//118 119//119
f 115//115 120//120 121//121
f 115//115 119//119 120//120
f 115//115 117//117 118//118
f 115//115 121//121 116//116
f 116//116 95//95 117//117
f 116//116 121//121 122//122
f 116//116 122//122 96//96
f 116//116 96//96 95//95
f 118//118 123//123 101//101
f 118//118 101//101 119//119
f 118//118 117//117 124//124
f 118//118 124//124 123//123
f 123//123 124//124 113//113
f 123//123 113//113 102//102
f 123//123 102//102 101//101
f 120//120 119//119 101//101
f 120//120 125//125 79//79
f 120//120 101//101 125//125
f 120//120 78//78 121//121
f 120//120 79//79 78//78
f 125//125 101//101 104//104
f 125//125 81//81 79//79
f 125//125 104//104 81//81
f 117//117 95//95 126//126
f 117//117 126//126 124//124
f 95//95 94//94 126//126
f 124//124 126//126 110//110
f 124//124 110//110 109//109
f 124//124 109//109 113//113
f 126//126 94//94 110//110
f 94//94 98//98 110//110
f 127//127 42//42 128//128
f 127//127 37//37 59//59
f 127//127 59//59 42//42
f 127//127 128//128 129//129
f 127//127 129//129 130//130
f 127//127 131//131 37//37
f 127//127 130//130 132//132
f 127//127 132//132 131//131
f 42//42 41//41 128//128
f 39//39 37//37 133//133
f 39//39 133//133 46//46
f 37//37 131//131 132//132
f 37//37 132//132 133//133
f 128//128 41//41 134//134
f 128//128 134//134 129//129
f 41//41 61//61 134//134
f 46//46 133//133 132//132
f 46//46 135//135 136//136
f 46//46 136//136 65//65
f 46//46 137//137 138//138
f 46//46 132//132 137//137
f 46//46 138//138 135//135
f 65//65 136//136 139//139
f 65//65 139//139 140//140
f 65//65 140//140 66//66
f 141//141 142//142 143//143
f 141//141 144//144 145//145
f 141//141 134//134 142//142
f 141//141 145//145 134//134
f 141//141 143//143 146//146
f 141//141 146//146 144//144
f 142//142 134//134 61//61
f 142//142 61//61 71//71
f 142//142 71//71 143//143
f 144//144 147//147 148//148
f 144//144 97//97 96//96
f 144//144 96//96 147//147
f 144//144 148//148 145//145
f 144//144 146//146 97//97
f 147//147 122//122 149//149
f 147//147 96//96 122//122
f 147//147 150//150 148//148
f 147//147 149//149 150//150
f 151//151 152//152 153//153
f 151//151 154//154 155//155
f 151//151 156//156 152//152
f 151//151 155//155 156//156
f 151//151 55//55 64//64
f 151//151 64//64 154//154
f 151//151 153//153 55//55
f 152//152 156//156 157//157
f 152//152 157//157 158//158
f 152//152 158//158 153//153
f 159//159 160//160 161//161
f 159//159 162//162 160//160
f 159//159 163//163 164//164
f 159//159 164//164 162//162
f 159//159 161//161 163//163
f 160//160 154//154 63//63
f 160//160 162//162 165//165
f 160//160 165//165 166//166
f 160//160 166//166 154//154
f 160//160 63//63 167//167
f 160//160 167//167 161//161
f 154//154 166//166 155//155
f 154//154 64//64 63//63
f 162//162 164//164 165//165
f 165//165 103//103 166//166
f 165//165 164//164 168//168
f 165//165 168//168 103//103
f 166//166 103//103 169//169
f 166//166 169//169 155//155
f 170//170 136//136 163//163
f 170//170 163//163 161//161
f 170//170 161//161 140//140
f 170//170 140//140 136//136
f 156//156 155//155 171//171
f 156//156 171//171 157//157
f 172//172 157//157 173//173
f 172//172 174//174 175//175
f 172//172 173//173 174//174
f 172//172 175//175 158//158
f 172//172 158//158 157//157
f 157//157 171//171 173//173
f 176//176 90//90 88//88
f 176//176 177//177 178//178
f 176//176 178//178 90//90
f 176//176 87//87 179//179
f 176//176 88//88 87//87
f 176//176 179//179 177//177
f 174//174 90//90 180//180
f 174//174 173//173 114//114
f 174//174 114//114 91//91
f 174//174 91//91 90//90
f 174//174 180//180 175//175
f 90//90 178//178 181//181
f 90//90 181//181 180//180
f 173//173 171//171 182//182
f 173//173 182//182 114//114
f 155//155 169//169 182//182
f 155//155 182//182 171//171
f 103//103 105//105 169//169
f 103//103 168//168 104//104
f 169//169 105//105 182//182
f 183//183 114//114 182//182
f 183//183 105//105 106//106
f 183//183 182//182 105//105
f 183//183 102//102 112//112
f 183//183 112//112 114//114
f 183//183 106//106 102//102
f 55//55 184//184 56//56
f 55//55 153//153 184//184
f 56//56 184//184 57//57
f 58//58 57//57 185//185
f 58//58 186//186 69//69
f 58//58 185//185 186//186
f 184//184 153//153 158//158
f 184//184 158//158 185//185
f 184//184 185//185 57//57
f 62//62 66//66 161//161
f 62//62 161//161 63//63
f 63//63 161//161 167//167
f 66//66 140//140 161//161
f 67//67 69//69 177//177
f 67//67 177//177 68//68
f 69//69 178//178 177//177
f 69//69 186//186 178//178
f 177//177 187//187 68//68
f 177//177 188//188 189//189
f 177//177 179//179 190//190
f 177//177 190//190 188//188
f 177//177 189//189 187//187
f 178//178 186//186 181//181
f 68//68 187//187 72//72
f 187//187 189//189 72//72
f 191//191 80//80 164//164
f 191//191 136//136 80//80
f 191//191 163//163 136//136
f 191//191 164//164 163//163
f 80//80 192//192 168//168
f 80//80 136//136 76//76
f 80//80 81//81 192//192
f 80//80 168//168 164//164
f 192//192 81//81 104//104
f 192//192 104//104 168//168
f 135//135 77//77 136//136
f 135//135 138//138 193//193
f 135//135 193//193 77//77
f 136//136 77//77 76//76
f 136//136 140//140 139//139
f 77//77 193//193 78//78
f 87//87 86//86 194//194
f 87//87 194//194 179//179
f 97//97 146//146 99//99
f 99//99 146//146 195//195
f 99//99 195//195 196//196
f 99//99 196//196 194//194
f 99//99 194//194 86//86
f 121//121 78//78 197//197
f 121//121 197//197 122//122
f 122//122 197//197 198//198
f 122//122 198//198 149//149
f 78//78 193//193 197//197
f 129//129 199//199 130//130
f 129//129 134//134 145//145
f 129//129 145//145 199//199
f 199//199 145//145 148//148
f 199//199 150//150 130//130
f 199//199 148//148 150//150
f 130//130 150//150 200//200
f 130//130 200//200 132//132
f 137//137 132//132 201//201
f 137//137 201//201 138//138
f 132//132 200//200 202//202
f 132//132 202//202 201//201
f 150//150 149//149 198//198
f 150//150 198//198 200//200
f 200//200 198//198 202//202
f 188//188 179//179 194//194
f 188//188 194//194 189//189
f 188//188 190//190 179//179
f 143//143 71//71 195//195
f 143//143 195//195 146//146
f 71//71 73//73 195//195
f 73//73 203//203 195//195
f 73//73 72//72 203//203
f 195//195 203//203 194//194
f 195//195 194//194 196//196
f 203//203 72//72 189//189
f 203//203 189//189 194//194
f 175//175 186//186 185//185
f 175//175 185//185 158//158
f 175//175 180//180 181//181
f 175//175 181//181 186//186
f 138//138 201//201 202//202
f 138//138 202//202 193//193
f 197//197 193//193 202//202
f 197//197 202//202 198//198
# 402 faces, 0 coords texture

# End of File
