####
#
# OBJ File Generated by Meshlab
#
####
# Object matlab_mesh_step27_link4.obj
#
# Vertices: 160
# Faces: 316
#
####
vn 4.278178 -3.632513 -0.335062
v 0.059764 0.426892 0.867944
vn 3.634814 -2.765810 0.992475
v 0.059758 0.426755 0.869487
vn 1.242118 -4.053321 -2.787437
v -0.045958 0.395160 0.710857
vn 2.950061 -5.439384 -1.007887
v 0.054594 0.443477 0.728120
vn 3.227992 -5.324876 -0.818807
v 0.062636 0.448939 0.723311
vn 3.552705 -4.958376 -1.050340
v 0.062652 0.448954 0.723279
vn 4.226971 -3.489068 -1.272230
v 0.062662 0.448967 0.723255
vn 3.865594 -1.684636 -2.154074
v 0.062664 0.448978 0.723239
vn 1.902445 -3.182909 -3.446842
v -0.039585 0.398343 0.710857
vn 5.964385 0.470539 1.093929
v 0.059765 0.427479 0.869604
vn 4.075757 -2.481789 2.780248
v 0.052498 0.437657 0.890699
vn 1.070590 -5.948504 0.565089
v -0.058715 0.382669 0.875133
vn 2.220764 -4.856422 3.300585
v 0.046146 0.434488 0.890699
vn 1.240256 -4.129242 3.089250
v -0.056134 0.383876 0.878376
vn 6.220706 -0.298653 0.055926
v 0.062635 0.446887 0.769078
vn 3.813036 3.856480 -0.527325
v -0.012515 0.647862 0.772188
vn 4.041356 3.969802 0.318062
v -0.005409 0.634303 0.893728
vn 5.790899 1.246574 -1.026971
v 0.062084 0.457011 0.723605
vn 2.036538 5.918457 0.537352
v -0.012522 0.647726 0.773732
vn 0.794931 6.102393 0.491819
v -0.040510 0.656705 0.774693
vn 0.866464 6.011581 -0.111886
v -0.040273 0.658867 0.739938
vn 0.810983 6.099252 0.382049
v -0.040260 0.657833 0.759312
vn 3.499391 4.691966 -1.091065
v -0.038138 0.657852 0.730408
vn 3.292247 4.204203 -1.590073
v -0.038167 0.657862 0.730359
vn 3.256103 1.122715 -3.642467
v 0.062080 0.457015 0.723598
vn 2.897488 1.498615 -4.209039
v 0.060580 0.460044 0.723598
vn 3.830543 3.995420 0.527608
v -0.005416 0.634166 0.895271
vn 6.071849 1.284776 0.221171
v 0.062054 0.454921 0.769444
vn 2.123731 1.954903 2.512033
v -0.005417 0.633975 0.896453
vn 0.849651 5.851043 1.285189
v -0.047556 0.646900 0.896561
vn -0.520729 -0.086795 6.217256
v -0.108270 0.602120 0.898740
vn -0.016816 0.076033 6.281941
v -0.107876 0.602244 0.898740
vn -0.069082 0.439821 6.260549
v -0.092459 0.643442 0.897790
vn 0.017057 -0.157984 6.279568
v -0.105482 0.602092 0.898737
vn -0.985544 0.211296 6.174451
v -0.200962 0.589677 0.885451
vn -0.840405 -0.367912 6.215801
v -0.200381 0.581647 0.885084
vn -0.822175 -0.444234 6.213200
v -0.198887 0.578628 0.885084
vn -0.932195 -0.567278 6.183862
v -0.198981 0.578597 0.885069
vn -0.987875 -0.418143 6.188098
v -0.200478 0.581620 0.885069
vn -0.109995 0.208107 6.278654
v -0.098819 0.640267 0.897790
vn -0.531052 0.805161 6.156301
v -0.098884 0.640267 0.897789
vn -1.276221 -2.809985 2.292384
v -0.100292 0.380741 0.878336
vn -1.741017 2.907438 3.782031
v -0.098921 0.640266 0.897784
vn 0.064909 -1.001632 6.159123
v 0.012108 0.432116 0.890751
vn -0.066278 -0.966520 6.162275
v 0.001954 0.431384 0.890711
vn -0.182504 -1.133539 6.146544
v -0.007716 0.426595 0.889541
vn 0.068215 -0.056085 6.279640
v -0.105088 0.602216 0.898737
vn 0.662854 2.900722 4.182912
v -0.048340 0.646569 0.897830
vn -0.045083 0.579433 6.240549
v -0.082254 0.644178 0.897830
vn 0.182036 -0.120023 6.279400
v -0.104484 0.602409 0.898723
vn 0.170906 0.008637 6.279273
v -0.046843 0.643546 0.897830
vn 1.880064 0.227010 5.659959
v 0.051884 0.445727 0.891116
vn 5.983413 1.805045 0.647097
v -0.005357 0.633787 0.896429
vn 1.183726 3.677083 4.204904
v -0.048293 0.646556 0.897828
vn 6.004894 1.599137 0.877313
v 0.051917 0.445688 0.891065
vn 5.635729 1.029731 2.040896
v 0.051908 0.445708 0.891092
vn 4.401305 0.761210 3.873243
v 0.051896 0.445721 0.891109
vn 5.959837 0.819534 1.490007
v 0.054311 0.439648 0.885453
vn 3.841820 -1.966196 3.111595
v 0.052489 0.437674 0.890725
vn 0.017779 -0.283396 6.276765
v 0.011528 0.440145 0.891116
vn 0.081011 -0.257287 6.276974
v 0.045511 0.442544 0.891116
vn -0.522490 6.242107 0.457443
v -0.065483 0.655294 0.774693
vn -0.443176 5.947154 1.563691
v -0.072528 0.645489 0.896561
vn -0.678938 6.224513 0.371157
v -0.065232 0.656422 0.759312
vn -1.047462 3.785505 3.017301
v -0.092548 0.643449 0.897784
vn -0.387896 5.208975 3.373094
v -0.082393 0.644181 0.897824
vn -0.202830 5.158383 2.973530
v -0.048411 0.646579 0.897824
vn 0.240919 3.423721 3.933520
v -0.048379 0.646576 0.897829
vn -0.635443 6.193099 -0.208470
v -0.065245 0.657456 0.739938
vn 1.145491 3.309956 -3.016369
v -0.038214 0.657868 0.730306
vn -0.427623 6.030970 -1.582869
v -0.072197 0.655469 0.730306
vn -1.361343 5.409254 -1.466769
v -0.082351 0.654737 0.730266
vn -1.558437 6.048987 0.317816
v -0.082380 0.652647 0.776121
vn 2.547600 4.022489 -2.193721
v -0.038192 0.657867 0.730325
vn 0.318766 -6.264692 -0.356183
v -0.083701 0.382292 0.855759
vn 1.036305 -6.145104 -0.353819
v -0.058728 0.383703 0.855759
vn 0.300128 -6.242952 0.216804
v -0.083687 0.381259 0.875133
vn -0.344283 -6.218673 -0.379961
v -0.100262 0.382831 0.832481
vn 0.463136 -6.249743 -0.450891
v -0.058478 0.384831 0.840378
vn -0.850062 -2.745840 -2.885828
v -0.090093 0.392029 0.710815
vn 0.627673 -3.898330 3.559703
v -0.056155 0.383872 0.878375
vn 0.418260 -5.923703 2.045121
v -0.066309 0.383140 0.878336
vn 0.442594 -6.225218 -0.687549
v -0.056113 0.394428 0.710818
vn -1.334383 0.819137 5.935789
v -0.201059 0.589655 0.885436
vn 2.038165 -4.520374 3.794969
v 0.046128 0.434498 0.890725
vn -0.212158 2.824728 5.093900
v -0.082334 0.644181 0.897829
vn -0.274966 2.358807 5.324629
v -0.092516 0.643447 0.897789
vn -1.989340 1.969427 4.801105
v -0.201127 0.589636 0.885422
vn -1.440405 -0.541437 6.075981
v -0.200546 0.581603 0.885056
vn 1.519031 -3.568277 4.797228
v 0.046109 0.434507 0.890743
vn 1.347853 -3.864973 4.680047
v 0.036447 0.429722 0.889574
vn 3.141956 -1.515465 4.204575
v 0.052477 0.437687 0.890743
vn -1.347164 -0.773282 6.074832
v -0.199047 0.578576 0.885056
vn 2.593900 1.474153 -5.271337
v -0.036696 0.654827 0.730203
vn -2.752252 4.961557 2.435247
v -0.191497 0.594412 0.886579
vn -2.698452 2.143235 2.752389
v -0.201167 0.589623 0.885409
vn -3.012783 -0.989406 5.108822
v -0.200586 0.581593 0.885043
vn -2.874366 5.583009 0.063104
v -0.190940 0.600927 0.717919
vn -2.798805 5.623837 0.088428
v -0.184571 0.604106 0.717919
vn -2.325717 5.030604 -2.013946
v -0.184597 0.604094 0.717891
vn -3.338208 4.261378 -1.492455
v -0.190970 0.600911 0.717891
vn -3.525768 5.119986 0.177933
v -0.201137 0.591713 0.839555
vn -2.480621 5.755461 0.243644
v -0.092526 0.645536 0.851925
vn -2.423347 5.291239 -1.631480
v -0.174927 0.608883 0.719061
vn 0.576745 -1.761649 5.759379
v 0.046091 0.434515 0.890751
vn 0.257538 -1.974371 5.951771
v 0.036421 0.429725 0.889580
vn 1.608614 -0.908306 5.628670
v 0.052464 0.437698 0.890751
vn 2.874295 -0.480342 -4.320721
v 0.062660 0.448986 0.723233
vn 1.627731 -1.915827 -5.608374
v 0.052991 0.444196 0.722062
vn -2.817586 -1.489156 5.170256
v -0.199086 0.578564 0.885043
vn -2.913094 -1.621863 4.924695
v -0.101810 0.383781 0.878439
vn 0.631188 0.322980 -6.242907
v 0.061160 0.452015 0.723233
vn 0.217799 2.936592 -4.591342
v -0.038234 0.657864 0.730302
vn -0.401802 5.695570 -2.588912
v -0.048369 0.657136 0.730266
vn -0.243429 3.600985 -4.509260
v -0.048359 0.657134 0.730262
vn 0.390804 0.350613 -6.256922
v -0.041677 0.409394 0.711220
vn 0.212496 1.074003 -6.149231
v -0.130807 0.612006 0.719093
vn 0.099836 0.939030 -6.161626
v -0.140480 0.607215 0.717922
vn 0.346448 0.385041 -6.258716
v -0.043196 0.412436 0.711323
vn -2.819177 5.504349 0.896608
v -0.098931 0.640263 0.897777
vn -2.343632 5.691103 0.771409
v -0.092556 0.643447 0.897777
vn -4.423380 1.380963 1.583163
v -0.201178 0.589613 0.885397
vn -4.876603 -1.356491 1.994310
v -0.200599 0.581593 0.885032
vn -1.067603 2.429207 -4.994311
v -0.184601 0.604084 0.717882
vn -2.769497 1.126046 -2.611934
v -0.190977 0.600900 0.717882
vn -5.190618 2.059898 -0.108619
v -0.201149 0.591703 0.839546
vn -2.807287 5.616596 0.224501
v -0.098902 0.642352 0.851925
vn -1.013761 3.626317 -4.112379
v -0.082354 0.654734 0.730262
vn -0.939206 3.122223 -5.016940
v -0.174928 0.608876 0.719053
vn 0.109273 -1.698586 6.048186
v 0.002439 0.427326 0.889580
vn 0.256913 -3.770849 4.132907
v -0.090137 0.381473 0.878375
vn 0.299070 -3.131991 -3.478100
v -0.045972 0.395159 0.710855
vn 0.657549 -0.802084 -6.067529
v -0.039597 0.398344 0.710855
vn 0.283129 0.199699 -6.263655
v -0.041098 0.401374 0.710855
vn -4.808811 -2.422216 2.130677
v -0.199098 0.578563 0.885032
vn -5.445864 -2.753290 0.982743
v -0.101813 0.383784 0.878434
vn -3.998158 -3.987087 0.494770
v -0.100294 0.380742 0.878330
vn -3.247524 -4.422668 -0.431136
v -0.100265 0.382832 0.832479
vn -3.360470 -3.722834 -1.670186
v -0.090095 0.392029 0.710818
vn -5.039889 -2.469490 -2.257708
v -0.091595 0.395058 0.710818
vn -2.253167 -1.034709 -5.031960
v -0.091594 0.395059 0.710815
vn -5.597488 -2.772835 -0.676705
v -0.101766 0.385862 0.832479
vn -3.031220 -0.706917 -3.058858
v -0.190397 0.592880 0.717517
vn -5.901550 -1.603516 -0.347099
v -0.200569 0.583682 0.839180
vn -5.597520 -2.772812 -0.676530
v -0.103285 0.388903 0.832582
vn 0.226714 -3.105526 -3.557116
v -0.056097 0.394430 0.710815
vn -2.312410 -0.984526 -5.030406
v -0.093113 0.398101 0.710919
vn -0.109294 1.698888 -6.048100
v -0.140932 0.611277 0.719053
vn 0.089983 0.257600 -6.276604
v -0.042617 0.404415 0.710958
vn -0.063196 1.000042 -6.159152
v -0.150605 0.606485 0.717882
vn 0.078684 0.269772 -6.276120
v -0.139901 0.599194 0.717557
vn -0.006859 0.247496 -6.278135
v -0.150026 0.598465 0.717517
vn -0.071996 0.238317 -6.277616
v -0.184022 0.596064 0.717517
vn 0.020016 -0.021555 -6.283002
v -0.049722 0.397614 0.710815
vn 0.004555 0.108587 -6.281239
v -0.051223 0.400644 0.710815
vn -0.002773 0.211369 -6.279615
v -0.052742 0.403686 0.710919
vn -5.611539 -2.784402 -0.400419
v -0.199068 0.580652 0.839180
vn -5.609586 -2.788111 -0.403595
v -0.101784 0.385873 0.832582
vn -0.025801 0.106800 -6.281218
v -0.085219 0.398244 0.710815
vn -0.049785 0.187902 -6.280054
v -0.086738 0.401285 0.710919
# 160 vertices, 0 vertices normals

f 1//1 2//2 3//3
f 1//1 4//4 5//5
f 1//1 5//5 6//6
f 1//1 6//6 7//7
f 1//1 7//7 8//8
f 1//1 8//8 2//2
f 1//1 3//3 9//9
f 1//1 9//9 4//4
f 2//2 10//10 11//11
f 2//2 12//12 3//3
f 2//2 13//13 14//14
f 2//2 11//11 13//13
f 2//2 14//14 12//12
f 2//2 15//15 10//10
f 2//2 8//8 15//15
f 16//16 17//17 18//18
f 16//16 19//19 17//17
f 16//16 20//20 19//19
f 16//16 21//21 22//22
f 16//16 22//22 20//20
f 16//16 23//23 21//21
f 16//16 24//24 23//23
f 16//16 18//18 25//25
f 16//16 25//25 26//26
f 16//16 26//26 24//24
f 17//17 19//19 27//27
f 17//17 27//27 28//28
f 17//17 28//28 18//18
f 19//19 20//20 27//27
f 27//27 29//29 28//28
f 27//27 20//20 30//30
f 27//27 30//30 29//29
f 31//31 32//32 33//33
f 31//31 34//34 32//32
f 31//31 35//35 36//36
f 31//31 37//37 38//38
f 31//31 36//36 39//39
f 31//31 40//40 41//41
f 31//31 33//33 40//40
f 31//31 38//38 42//42
f 31//31 39//39 37//37
f 31//31 41//41 43//43
f 31//31 43//43 35//35
f 31//31 44//44 34//34
f 31//31 45//45 44//44
f 31//31 42//42 46//46
f 31//31 46//46 45//45
f 32//32 34//34 47//47
f 32//32 47//47 48//48
f 32//32 49//49 33//33
f 32//32 48//48 49//49
f 50//50 29//29 51//51
f 50//50 47//47 52//52
f 50//50 51//51 47//47
f 50//50 52//52 29//29
f 29//29 53//53 28//28
f 29//29 30//30 54//54
f 29//29 55//55 53//53
f 29//29 54//54 48//48
f 29//29 56//56 55//55
f 29//29 48//48 51//51
f 29//29 57//57 56//56
f 29//29 52//52 57//57
f 53//53 10//10 28//28
f 53//53 55//55 10//10
f 10//10 58//58 59//59
f 10//10 55//55 58//58
f 10//10 59//59 11//11
f 10//10 15//15 28//28
f 34//34 60//60 61//61
f 34//34 61//61 47//47
f 34//34 44//44 60//60
f 47//47 51//51 48//48
f 47//47 61//61 52//52
f 58//58 55//55 56//56
f 58//58 56//56 59//59
f 62//62 20//20 22//22
f 62//62 63//63 30//30
f 62//62 30//30 20//20
f 62//62 64//64 65//65
f 62//62 22//22 64//64
f 62//62 65//65 63//63
f 63//63 66//66 67//67
f 63//63 67//67 30//30
f 63//63 65//65 66//66
f 30//30 48//48 54//54
f 30//30 68//68 48//48
f 30//30 67//67 68//68
f 69//69 21//21 70//70
f 69//69 64//64 22//22
f 69//69 22//22 21//21
f 69//69 71//71 72//72
f 69//69 70//70 71//71
f 69//69 73//73 64//64
f 69//69 72//72 73//73
f 21//21 23//23 24//24
f 21//21 24//24 74//74
f 21//21 74//74 70//70
f 64//64 73//73 65//65
f 75//75 76//76 12//12
f 75//75 77//77 78//78
f 75//75 12//12 77//77
f 75//75 78//78 76//76
f 76//76 79//79 3//3
f 76//76 3//3 12//12
f 76//76 78//78 80//80
f 76//76 80//80 79//79
f 77//77 12//12 42//42
f 77//77 42//42 78//78
f 12//12 14//14 81//81
f 12//12 81//81 82//82
f 12//12 82//82 42//42
f 79//79 83//83 3//3
f 79//79 80//80 83//83
f 4//4 6//6 5//5
f 4//4 9//9 6//6
f 35//35 84//84 39//39
f 35//35 39//39 36//36
f 35//35 43//43 84//84
f 13//13 11//11 85//85
f 13//13 85//85 14//14
f 11//11 59//59 85//85
f 6//6 9//9 7//7
f 37//37 39//39 38//38
f 56//56 57//57 59//59
f 49//49 48//48 68//68
f 49//49 86//86 87//87
f 49//49 68//68 86//86
f 49//49 87//87 33//33
f 24//24 26//26 74//74
f 40//40 33//33 87//87
f 40//40 87//87 41//41
f 84//84 88//88 89//89
f 84//84 89//89 39//39
f 84//84 43//43 88//88
f 85//85 59//59 90//90
f 85//85 90//90 91//91
f 85//85 91//91 14//14
f 59//59 57//57 92//92
f 59//59 92//92 90//90
f 7//7 9//9 8//8
f 38//38 39//39 89//89
f 38//38 93//93 42//42
f 38//38 89//89 93//93
f 28//28 15//15 8//8
f 28//28 8//8 18//18
f 57//57 52//52 92//92
f 86//86 68//68 67//67
f 86//86 66//66 65//65
f 86//86 67//67 66//66
f 86//86 65//65 87//87
f 18//18 8//8 25//25
f 74//74 94//94 70//70
f 74//74 26//26 94//94
f 41//41 87//87 65//65
f 41//41 65//65 43//43
f 88//88 95//95 96//96
f 88//88 43//43 95//95
f 88//88 96//96 97//97
f 88//88 97//97 89//89
f 98//98 99//99 100//100
f 98//98 101//101 102//102
f 98//98 102//102 103//103
f 98//98 72//72 99//99
f 98//98 100//100 101//101
f 98//98 103//103 72//72
f 99//99 104//104 100//100
f 99//99 72//72 104//104
f 90//90 92//92 105//105
f 90//90 105//105 91//91
f 14//14 91//91 105//105
f 14//14 105//105 106//106
f 14//14 106//106 81//81
f 92//92 52//52 107//107
f 92//92 107//107 105//105
f 8//8 108//108 25//25
f 8//8 9//9 109//109
f 8//8 109//109 108//108
f 93//93 89//89 97//97
f 93//93 110//110 111//111
f 93//93 111//111 42//42
f 93//93 97//97 110//110
f 60//60 44//44 61//61
f 61//61 44//44 105//105
f 61//61 105//105 107//107
f 61//61 107//107 52//52
f 25//25 108//108 112//112
f 25//25 112//112 26//26
f 71//71 70//70 72//72
f 70//70 94//94 113//113
f 70//70 114//114 72//72
f 70//70 113//113 115//115
f 70//70 115//115 114//114
f 94//94 26//26 113//113
f 26//26 112//112 116//116
f 26//26 117//117 113//113
f 26//26 118//118 117//117
f 26//26 119//119 118//118
f 26//26 116//116 119//119
f 95//95 43//43 120//120
f 95//95 120//120 96//96
f 43//43 65//65 121//121
f 43//43 121//121 120//120
f 96//96 102//102 122//122
f 96//96 120//120 102//102
f 96//96 122//122 123//123
f 96//96 123//123 97//97
f 73//73 72//72 121//121
f 73//73 121//121 65//65
f 101//101 100//100 124//124
f 101//101 125//125 126//126
f 101//101 126//126 102//102
f 101//101 124//124 125//125
f 102//102 120//120 127//127
f 102//102 127//127 103//103
f 102//102 126//126 122//122
f 104//104 72//72 128//128
f 104//104 128//128 100//100
f 72//72 114//114 115//115
f 72//72 115//115 128//128
f 72//72 103//103 121//121
f 100//100 129//129 124//124
f 100//100 128//128 129//129
f 44//44 130//130 105//105
f 44//44 45//45 130//130
f 105//105 130//130 106//106
f 131//131 81//81 130//130
f 131//131 130//130 46//46
f 131//131 42//42 82//82
f 131//131 82//82 81//81
f 131//131 46//46 42//42
f 81//81 106//106 130//130
f 130//130 45//45 46//46
f 3//3 83//83 132//132
f 3//3 132//132 9//9
f 108//108 109//109 133//133
f 108//108 133//133 112//112
f 9//9 132//132 133//133
f 9//9 133//133 109//109
f 112//112 133//133 134//134
f 112//112 134//134 116//116
f 110//110 97//97 123//123
f 110//110 135//135 111//111
f 110//110 123//123 135//135
f 111//111 135//135 42//42
f 42//42 135//135 136//136
f 42//42 136//136 137//137
f 42//42 137//137 138//138
f 42//42 138//138 78//78
f 139//139 140//140 141//141
f 139//139 80//80 138//138
f 139//139 138//138 142//142
f 139//139 143//143 140//140
f 139//139 144//144 143//143
f 139//139 145//145 144//144
f 139//139 141//141 80//80
f 139//139 142//142 145//145
f 83//83 80//80 146//146
f 83//83 146//146 132//132
f 78//78 138//138 80//80
f 140//140 143//143 147//147
f 140//140 147//147 141//141
f 117//117 118//118 148//148
f 117//117 148//148 113//113
f 113//113 148//148 115//115
f 118//118 119//119 149//149
f 118//118 150//150 148//148
f 118//118 151//151 152//152
f 118//118 149//149 151//151
f 118//118 152//152 150//150
f 119//119 116//116 149//149
f 116//116 134//134 149//149
f 120//120 121//121 127//127
f 122//122 126//126 144//144
f 122//122 144//144 123//123
f 121//121 103//103 127//127
f 125//125 124//124 153//153
f 125//125 143//143 126//126
f 125//125 153//153 143//143
f 126//126 143//143 144//144
f 129//129 148//148 150//150
f 129//129 128//128 148//148
f 129//129 150//150 124//124
f 148//148 128//128 115//115
f 124//124 150//150 153//153
f 150//150 152//152 153//153
f 132//132 146//146 154//154
f 132//132 154//154 133//133
f 133//133 154//154 134//134
f 151//151 149//149 152//152
f 149//149 134//134 155//155
f 149//149 156//156 152//152
f 149//149 155//155 156//156
f 134//134 154//154 155//155
f 135//135 123//123 157//157
f 135//135 157//157 158//158
f 135//135 158//158 136//136
f 136//136 158//158 138//138
f 136//136 138//138 137//137
f 123//123 144//144 157//157
f 157//157 144//144 145//145
f 157//157 145//145 158//158
f 158//158 145//145 142//142
f 158//158 142//142 138//138
f 80//80 141//141 159//159
f 80//80 159//159 146//146
f 146//146 159//159 155//155
f 146//146 155//155 154//154
f 143//143 153//153 160//160
f 143//143 160//160 147//147
f 147//147 160//160 159//159
f 147//147 159//159 141//141
f 153//153 152//152 160//160
f 152//152 156//156 160//160
f 160//160 156//156 159//159
f 156//156 155//155 159//159
# 316 faces, 0 coords texture

# End of File
