####
#
# OBJ File Generated by Meshlab
#
####
# Object matlab_mesh_step4_link4.obj
#
# Vertices: 189
# Faces: 374
#
####
vn -4.461298 -4.113647 1.296689
v 0.237965 0.138770 1.005387
vn -4.016219 -4.678986 0.940642
v 0.238771 0.137986 1.005232
vn -4.046583 -4.543352 1.566204
v 0.279283 0.129305 1.085290
vn -4.622437 -3.997627 0.174436
v 0.225380 0.149078 0.990257
vn -3.762645 -4.266359 2.412333
v 0.283789 0.132013 1.104529
vn -4.794424 -3.574158 1.927347
v 0.229887 0.151787 1.009495
vn -5.049650 -3.136532 1.927628
v 0.220985 0.163950 1.009868
vn -3.343835 -3.289914 3.483027
v 0.283773 0.132039 1.104545
vn -4.903330 -3.604941 1.558247
v 0.216478 0.161242 0.990629
vn -4.811652 -3.588694 -0.237107
v 0.225363 0.149099 0.990253
vn 2.780956 -5.625812 0.132775
v 0.375646 0.052584 1.020052
vn 1.864134 -5.643163 -0.716105
v 0.378156 0.053648 1.001273
vn 3.485016 -5.148768 0.396082
v 0.382656 0.056352 1.020497
vn 1.310735 -5.922046 -0.553425
v 0.366476 0.048473 1.023022
vn 2.753425 -5.548655 0.497156
v 0.370976 0.051177 1.042247
vn -3.825143 -4.785454 1.362247
v 0.238998 0.137901 1.005571
vn -3.905749 -4.131469 -1.285311
v 0.306999 0.072496 0.928014
vn -2.172002 -5.040377 -0.974130
v 0.312557 0.068241 0.928014
vn -2.695132 -5.519502 0.380216
v 0.316010 0.066974 0.934103
vn -1.378570 -5.542997 0.781057
v 0.366457 0.048469 1.023062
vn -3.535114 -4.825934 1.777840
v 0.295641 0.116712 1.090179
vn -2.990872 -5.010096 2.250530
v 0.295986 0.116488 1.090179
vn -2.110109 -4.437855 3.341010
v 0.289339 0.127765 1.104529
vn 0.434424 -4.421486 1.827339
v 0.370967 0.051181 1.042306
vn 3.920824 -4.835803 0.812256
v 0.398294 0.067960 1.015204
vn 4.142286 -4.530519 0.717487
v 0.398321 0.067979 1.015187
vn 4.016650 -4.705397 1.074521
v 0.386619 0.062793 1.036981
vn 0.071986 -6.121831 -1.408881
v 0.312560 0.068242 0.928010
vn -0.181717 -6.063985 -1.569126
v 0.324262 0.073428 0.906216
vn -0.843420 -4.836595 -2.590100
v 0.324276 0.073436 0.906184
vn 2.128052 -5.503944 -1.019790
v 0.378165 0.053654 1.001249
vn 0.294002 -5.885434 -0.147781
v 0.366463 0.048468 1.023043
vn 1.952053 -5.488022 0.922787
v 0.370970 0.051177 1.042282
vn 3.731522 -5.050432 0.032161
v 0.382672 0.056363 1.020488
vn 3.710605 -5.067989 -0.159013
v 0.393814 0.065270 0.995948
vn 3.759569 -4.447211 -1.459191
v 0.393826 0.065280 0.995928
vn 4.493099 -4.036376 0.539748
v 0.398336 0.067991 1.015171
vn 4.201320 -3.659972 2.328433
v 0.386617 0.062796 1.037001
vn -4.746884 -3.750200 -1.610597
v 0.303393 0.075880 0.930763
vn 1.745504 -5.634356 -2.161876
v 0.327729 0.072169 0.912273
vn 2.753769 -5.221347 -1.555794
v 0.378176 0.053664 1.001232
vn -0.442789 -2.897075 4.387155
v 0.289331 0.127783 1.104545
vn 0.956071 -3.360000 3.568137
v 0.370966 0.051190 1.042320
vn -4.892581 -2.935525 -0.620980
v 0.216469 0.161252 0.990625
vn -4.587943 -3.092504 2.774228
v 0.274879 0.144191 1.104917
vn -5.103741 -2.563952 -0.703824
v 0.202480 0.187279 0.990625
vn -5.369135 -2.396014 2.079152
v 0.206990 0.189990 1.009869
vn -5.120881 -2.747091 2.388547
v 0.260890 0.170219 1.104917
vn -5.136407 -2.761943 2.338249
v 0.210443 0.188723 1.015958
vn 2.799675 -4.242583 -3.378642
v 0.339930 0.085059 0.900857
vn 3.643319 -4.160071 -2.930961
v 0.343387 0.083791 0.906954
vn 4.796078 -3.590438 -1.462126
v 0.524162 0.235489 0.957438
vn 4.942649 -1.233188 1.306285
v 0.528674 0.238201 0.976681
vn 3.939434 -4.045126 -2.656714
v 0.393829 0.065289 0.995916
vn 2.872595 -1.150233 5.462136
v 0.304981 0.139398 1.099241
vn 3.126895 0.805340 4.757145
v 0.435301 0.309613 1.060771
vn 2.569068 -0.767941 5.665042
v 0.304968 0.139414 1.099250
vn 0.318664 -1.490193 5.378036
v 0.289326 0.127804 1.104554
vn 3.539229 -2.296117 4.313381
v 0.386607 0.062800 1.037016
vn 3.341756 -0.990509 5.200826
v 0.516933 0.233000 0.998543
vn 2.424052 -1.848788 5.455777
v 0.367356 0.054578 1.045072
vn 4.304195 -0.772443 3.161842
v 0.516941 0.233000 0.998538
vn -4.811575 -3.023022 -2.590429
v 0.294499 0.088033 0.931135
vn -4.711875 -3.073883 -2.688213
v 0.298105 0.084649 0.928386
vn -3.665488 -3.691899 -3.337125
v 0.318718 0.077691 0.906184
vn -4.518220 -2.778394 -3.331059
v 0.309824 0.089844 0.906556
vn -4.228161 -2.702019 -3.740178
v 0.309843 0.089845 0.906532
vn -3.418897 -3.269167 -3.990886
v 0.318724 0.077710 0.906161
vn -0.082866 -4.234780 -3.330678
v 0.324289 0.073449 0.906161
vn -2.113896 -1.795631 5.016588
v 0.283762 0.132065 1.104554
vn -2.343577 -1.411478 4.676061
v 0.274880 0.144200 1.104925
vn -4.798864 -2.555466 -3.149208
v 0.280510 0.114060 0.931135
vn -5.269520 -1.721563 -0.715679
v 0.202463 0.187316 0.990623
vn -4.928281 -2.031320 -3.274500
v 0.214196 0.192517 0.968766
vn -4.793456 -2.559640 -3.154000
v 0.284116 0.110676 0.928386
vn -4.733556 -2.505189 -3.282359
v 0.295836 0.115871 0.906556
vn -3.980529 -0.741270 -4.309225
v 0.292226 0.119291 0.909284
vn -4.608940 -2.325440 -3.561754
v 0.295836 0.115904 0.906532
vn -2.708659 -1.151910 4.209640
v 0.260873 0.170258 1.104925
vn -5.570760 -1.140807 2.271370
v 0.206975 0.190028 1.009866
vn -5.391017 -1.770343 2.688516
v 0.210431 0.188760 1.015962
vn 2.816846 -3.892884 -3.784018
v 0.340658 0.087979 0.898218
vn 2.441384 -0.294955 -3.465420
v 0.470995 0.258185 0.859725
vn -0.475003 -3.665005 -4.514342
v 0.325016 0.076369 0.903521
vn 4.847468 -3.142620 -1.902742
v 0.524164 0.235494 0.957434
vn 5.693794 -2.424322 -0.585552
v 0.528674 0.238206 0.976668
vn 4.660362 -2.355926 -3.132061
v 0.474455 0.256916 0.865827
vn 4.661045 -0.494305 -2.096837
v 0.524893 0.238416 0.954792
vn 1.051756 -2.422785 -4.969723
v 0.340655 0.087991 0.898206
vn 2.885758 1.674012 4.916235
v 0.421294 0.335672 1.060771
vn 4.625986 2.368684 3.502936
v 0.436029 0.312533 1.058132
vn 4.327873 2.740886 3.558350
v 0.422022 0.338591 1.058132
vn 2.747363 2.035943 4.985223
v 0.412412 0.347807 1.061143
vn 1.728040 1.071041 5.931059
v 0.421271 0.335700 1.060773
vn 1.262189 0.706033 6.109415
v 0.405641 0.324097 1.066074
vn 1.460011 0.787915 6.060185
v 0.435291 0.309621 1.060773
vn 1.421864 0.541974 6.083313
v 0.419660 0.298018 1.066074
vn 4.081517 0.766616 4.410499
v 0.513331 0.236388 1.001290
vn 1.814813 0.015003 5.973989
v 0.419660 0.298003 1.066075
vn 4.928260 2.031448 3.274444
v 0.517668 0.235920 0.995898
vn 3.686247 0.246199 4.532645
v 0.514058 0.239307 0.998650
vn 5.375871 0.629900 1.376461
v 0.529401 0.241121 0.974041
vn 5.259294 0.691522 -0.226136
v 0.529402 0.241128 0.974027
vn 4.698017 2.953859 2.894134
v 0.433754 0.343793 1.036275
vn 4.793473 2.559879 3.153781
v 0.447761 0.317735 1.036275
vn 4.822013 2.867691 2.795333
v 0.437364 0.340405 1.033523
vn 4.714604 3.322362 2.452610
v 0.433741 0.343828 1.036256
vn 4.264857 3.486300 2.978481
v 0.424872 0.355928 1.036646
vn 4.343310 3.692490 1.151947
v 0.439639 0.309145 1.055380
vn 4.798853 2.555665 3.149062
v 0.451371 0.314347 1.033523
vn 3.793879 3.205578 3.709735
v 0.413140 0.350727 1.058504
vn 5.043372 2.810715 2.305436
v 0.515394 0.267179 0.974041
vn 4.830595 3.325751 2.242639
v 0.437354 0.340437 1.033503
vn 4.947791 3.174667 0.259711
v 0.515383 0.267207 0.974027
vn -3.019907 -2.845595 -4.589852
v 0.319452 0.080630 0.903521
vn -3.881637 -2.285857 -4.311490
v 0.310570 0.092765 0.903893
vn -2.505312 -1.544199 -5.345216
v 0.310591 0.092765 0.903877
vn -2.164566 -1.847551 -5.364157
v 0.319456 0.080653 0.903507
vn -0.315438 -2.878016 -5.063930
v 0.325025 0.076388 0.903507
vn -0.157345 -0.224559 6.271062
v 0.280444 0.139939 1.104925
vn 0.720250 0.090693 6.181526
v 0.289320 0.127824 1.104554
vn 2.130273 2.148985 5.189967
v 0.412406 0.347813 1.061144
vn 3.879038 4.200718 1.082848
v 0.424876 0.355940 1.036627
vn 3.287040 3.725158 3.638600
v 0.413134 0.350735 1.058502
vn -5.444990 -1.090172 -2.868952
v 0.203191 0.190236 0.987984
vn -4.653667 -1.905260 -3.759320
v 0.217806 0.189130 0.966014
vn -4.967954 -1.492899 -3.456585
v 0.214923 0.195437 0.966126
vn -4.647421 -1.885817 -3.775061
v 0.218533 0.192049 0.963375
vn -5.645906 0.225767 -0.122563
v 0.202460 0.187338 0.990624
vn -5.073342 1.516227 -1.122806
v 0.203188 0.190259 0.987982
vn -4.223958 -1.883688 -4.160512
v 0.296563 0.118823 0.903893
vn -4.219790 0.955856 -3.291123
v 0.214929 0.195465 0.966107
vn -3.747943 -0.084256 -4.813370
v 0.218542 0.192075 0.963354
vn -2.962191 -0.555081 -5.071229
v 0.296572 0.118844 0.903877
vn -2.454624 0.726563 3.794954
v 0.260867 0.170281 1.104925
vn -4.984493 1.466399 2.177519
v 0.206970 0.190050 1.009858
vn -5.413340 0.327536 3.137150
v 0.210429 0.188781 1.015960
vn 0.000000 0.000000 6.283185
v 0.266437 0.165997 1.104925
vn 0.446748 0.162730 6.232136
v 0.280455 0.139937 1.104925
vn 0.501239 0.403960 6.214758
v 0.266436 0.166016 1.104925
vn -0.313627 -0.052021 -6.222169
v 0.451408 0.288528 0.859725
vn -0.501238 -0.403961 -6.214758
v 0.465427 0.262449 0.859725
vn -1.021438 -0.552511 -6.174678
v 0.456561 0.274562 0.860096
vn 2.492098 1.665359 -4.065023
v 0.456976 0.284264 0.859725
vn 0.618725 2.251683 -3.578491
v 0.442542 0.300641 0.860096
vn 2.306796 2.416044 -3.725833
v 0.448111 0.296376 0.860096
vn -1.046540 -0.952430 -6.101493
v 0.335087 0.092255 0.898206
vn -1.262193 -0.706045 -6.109412
v 0.326221 0.104368 0.898577
vn 4.960957 3.162004 -2.155020
v 0.507414 0.265764 0.948690
vn 3.977894 4.179939 -1.386022
v 0.521433 0.239685 0.948690
vn 4.590055 3.875053 -1.796474
v 0.498549 0.277876 0.949061
vn 5.046469 3.143125 -1.923111
v 0.510873 0.264495 0.954792
vn 4.634704 3.843722 -1.738912
v 0.502008 0.276607 0.955163
vn 4.290508 4.187271 0.473320
v 0.428488 0.352550 1.033873
vn 4.470092 3.862855 0.060543
v 0.506518 0.279319 0.974397
vn 1.021444 0.552515 6.174677
v 0.275301 0.153903 1.104554
vn 1.046568 0.952427 6.101486
v 0.396775 0.336210 1.066445
vn -0.561441 3.355918 -2.212064
v 0.360900 0.377262 0.922326
vn -3.422779 5.178078 -0.369831
v 0.349158 0.372056 0.944201
vn 0.524307 5.209928 -0.396658
v 0.365410 0.379974 0.941561
vn 0.386492 3.244641 -3.487932
v 0.364513 0.373871 0.919572
vn -2.882758 1.522405 -5.367235
v 0.360897 0.377257 0.922326
vn 3.635985 4.945581 -1.319024
v 0.369023 0.376583 0.938807
vn -3.551814 2.872535 -3.091029
v 0.345269 0.365659 0.927627
vn -2.058218 5.364718 1.165800
v 0.353668 0.374768 0.963436
vn -4.437649 4.075004 -0.574674
v 0.333528 0.360454 0.949502
vn 3.665343 4.911318 -1.359015
v 0.447052 0.303353 0.879331
vn -1.723625 -0.155332 -5.977057
v 0.312202 0.130447 0.898577
vn -2.654821 0.888791 -5.592030
v 0.426911 0.289039 0.865397
vn 4.077782 4.548426 -1.366017
v 0.503059 0.280588 0.968296
vn 4.017945 4.575392 -1.433580
v 0.452621 0.299088 0.879331
vn 0.431596 3.058419 4.747486
v 0.406837 0.352077 1.061144
vn 0.337441 4.309152 2.880180
v 0.407566 0.354999 1.058502
vn -2.799858 4.242792 3.378281
v 0.391935 0.343397 1.063803
vn -1.409289 2.500612 4.515030
v 0.391207 0.340475 1.066445
vn 1.796632 5.519864 0.129278
v 0.415848 0.361474 1.030526
vn -1.484715 5.552018 1.996288
v 0.404106 0.356268 1.052401
vn 2.173217 5.013128 0.932144
v 0.419307 0.360205 1.036627
vn 3.760307 4.909622 -1.110910
v 0.421416 0.357209 1.030526
vn 3.760119 4.909648 -1.111432
v 0.370978 0.375709 0.941561
vn -3.777032 4.339426 1.580703
v 0.338038 0.363166 0.968736
vn -3.404012 4.365848 2.837748
v 0.388476 0.344665 1.057701
vn 3.760229 4.909515 -1.111649
v 0.374591 0.372319 0.938807
vn 3.760542 4.909400 -1.111094
v 0.425029 0.353819 1.027772
vn -4.776504 3.285987 1.704126
v 0.207698 0.192971 1.007217
vn -2.952123 1.242712 -5.403124
v 0.348882 0.362269 0.924873
vn -4.677611 2.275688 3.125146
v 0.257408 0.171549 1.098824
vn -4.005401 3.757541 3.052223
v 0.261595 0.173202 1.102284
vn -4.005406 3.757558 3.052195
v 0.258136 0.174471 1.096182
# 189 vertices, 0 vertices normals

f 1//1 2//2 3//3
f 1//1 4//4 2//2
f 1//1 3//3 5//5
f 1//1 6//6 7//7
f 1//1 5//5 8//8
f 1//1 9//9 10//10
f 1//1 7//7 9//9
f 1//1 10//10 4//4
f 1//1 8//8 6//6
f 11//11 12//12 13//13
f 11//11 14//14 12//12
f 11//11 13//13 15//15
f 11//11 15//15 14//14
f 2//2 16//16 3//3
f 2//2 4//4 17//17
f 2//2 17//17 18//18
f 2//2 18//18 19//19
f 2//2 20//20 16//16
f 2//2 19//19 20//20
f 21//21 16//16 20//20
f 21//21 22//22 23//23
f 21//21 3//3 16//16
f 21//21 5//5 3//3
f 21//21 23//23 5//5
f 21//21 20//20 24//24
f 21//21 24//24 22//22
f 22//22 24//24 23//23
f 25//25 13//13 26//26
f 25//25 26//26 27//27
f 25//25 27//27 13//13
f 12//12 14//14 28//28
f 12//12 29//29 30//30
f 12//12 28//28 29//29
f 12//12 31//31 13//13
f 12//12 30//30 31//31
f 14//14 15//15 32//32
f 14//14 32//32 18//18
f 14//14 18//18 28//28
f 13//13 27//27 33//33
f 13//13 31//31 34//34
f 13//13 34//34 26//26
f 13//13 33//33 15//15
f 15//15 33//33 32//32
f 35//35 26//26 31//31
f 35//35 31//31 36//36
f 35//35 36//36 26//26
f 26//26 34//34 31//31
f 26//26 36//36 37//37
f 26//26 37//37 38//38
f 26//26 38//38 27//27
f 27//27 38//38 33//33
f 4//4 10//10 39//39
f 4//4 39//39 17//17
f 29//29 28//28 18//18
f 29//29 18//18 30//30
f 31//31 30//30 40//40
f 31//31 41//41 36//36
f 31//31 40//40 41//41
f 32//32 33//33 20//20
f 32//32 20//20 19//19
f 32//32 19//19 18//18
f 6//6 8//8 7//7
f 5//5 23//23 42//42
f 5//5 42//42 8//8
f 23//23 24//24 43//43
f 23//23 43//43 42//42
f 33//33 38//38 24//24
f 33//33 24//24 20//20
f 9//9 7//7 44//44
f 9//9 44//44 10//10
f 7//7 8//8 45//45
f 7//7 46//46 44//44
f 7//7 47//47 46//46
f 7//7 48//48 49//49
f 7//7 45//45 48//48
f 7//7 49//49 47//47
f 36//36 41//41 50//50
f 36//36 50//50 51//51
f 36//36 52//52 53//53
f 36//36 54//54 52//52
f 36//36 51//51 54//54
f 36//36 53//53 37//37
f 55//55 56//56 57//57
f 55//55 57//57 58//58
f 55//55 59//59 60//60
f 55//55 58//58 61//61
f 55//55 61//61 43//43
f 55//55 43//43 59//59
f 55//55 60//60 56//56
f 37//37 53//53 62//62
f 37//37 62//62 38//38
f 38//38 62//62 59//59
f 38//38 59//59 43//43
f 38//38 43//43 24//24
f 10//10 44//44 63//63
f 10//10 63//63 39//39
f 39//39 63//63 64//64
f 39//39 64//64 17//17
f 65//65 17//17 66//66
f 65//65 30//30 18//18
f 65//65 18//18 17//17
f 65//65 66//66 67//67
f 65//65 68//68 69//69
f 65//65 69//69 30//30
f 65//65 67//67 68//68
f 17//17 64//64 66//66
f 30//30 69//69 40//40
f 41//41 40//40 69//69
f 41//41 69//69 50//50
f 8//8 42//42 58//58
f 8//8 70//70 71//71
f 8//8 58//58 70//70
f 8//8 71//71 45//45
f 42//42 61//61 58//58
f 42//42 43//43 61//61
f 46//46 72//72 44//44
f 46//46 47//47 73//73
f 46//46 74//74 72//72
f 46//46 73//73 74//74
f 44//44 72//72 63//63
f 72//72 75//75 63//63
f 72//72 74//74 75//75
f 63//63 75//75 64//64
f 76//76 66//66 64//64
f 76//76 75//75 74//74
f 76//76 64//64 75//75
f 76//76 74//74 77//77
f 76//76 77//77 78//78
f 76//76 78//78 66//66
f 66//66 78//78 67//67
f 47//47 49//49 79//79
f 47//47 80//80 73//73
f 47//47 79//79 81//81
f 47//47 81//81 80//80
f 48//48 45//45 79//79
f 48//48 79//79 49//49
f 45//45 71//71 79//79
f 50//50 82//82 83//83
f 50//50 69//69 84//84
f 50//50 84//84 82//82
f 50//50 83//83 51//51
f 52//52 54//54 85//85
f 52//52 85//85 86//86
f 52//52 86//86 53//53
f 54//54 51//51 83//83
f 54//54 83//83 87//87
f 54//54 88//88 85//85
f 54//54 87//87 88//88
f 82//82 84//84 89//89
f 82//82 89//89 83//83
f 90//90 56//56 91//91
f 90//90 92//92 93//93
f 90//90 91//91 92//92
f 90//90 93//93 94//94
f 90//90 94//94 95//95
f 90//90 96//96 56//56
f 90//90 95//95 97//97
f 90//90 97//97 96//96
f 56//56 98//98 91//91
f 56//56 99//99 57//57
f 56//56 96//96 97//97
f 56//56 60//60 98//98
f 56//56 97//97 99//99
f 57//57 99//99 58//58
f 98//98 62//62 100//100
f 98//98 101//101 91//91
f 98//98 100//100 101//101
f 98//98 60//60 62//62
f 53//53 102//102 62//62
f 53//53 86//86 103//103
f 53//53 103//103 102//102
f 62//62 102//102 100//100
f 62//62 60//60 59//59
f 104//104 105//105 106//106
f 104//104 92//92 91//91
f 104//104 91//91 105//105
f 104//104 106//106 107//107
f 104//104 108//108 92//92
f 104//104 107//107 108//108
f 105//105 91//91 109//109
f 105//105 110//110 106//106
f 105//105 109//109 110//110
f 92//92 108//108 111//111
f 92//92 111//111 93//93
f 91//91 101//101 100//100
f 91//91 100//100 109//109
f 106//106 110//110 112//112
f 106//106 112//112 107//107
f 110//110 109//109 100//100
f 110//110 102//102 112//112
f 110//110 100//100 102//102
f 112//112 102//102 103//103
f 112//112 113//113 107//107
f 112//112 114//114 113//113
f 112//112 103//103 114//114
f 68//68 115//115 84//84
f 68//68 84//84 69//69
f 68//68 67//67 115//115
f 115//115 67//67 116//116
f 115//115 116//116 117//117
f 115//115 118//118 119//119
f 115//115 119//119 84//84
f 115//115 117//117 118//118
f 84//84 119//119 89//89
f 70//70 58//58 120//120
f 70//70 120//120 71//71
f 99//99 97//97 121//121
f 99//99 121//121 58//58
f 58//58 121//121 120//120
f 93//93 111//111 122//122
f 93//93 122//122 94//94
f 108//108 107//107 123//123
f 108//108 123//123 124//124
f 108//108 124//124 111//111
f 111//111 124//124 122//122
f 74//74 73//73 125//125
f 74//74 126//126 78//78
f 74//74 78//78 77//77
f 74//74 127//127 128//128
f 74//74 125//125 127//127
f 74//74 128//128 126//126
f 73//73 80//80 129//129
f 73//73 129//129 130//130
f 73//73 130//130 125//125
f 126//126 128//128 131//131
f 126//126 131//131 78//78
f 78//78 131//131 116//116
f 78//78 116//116 67//67
f 127//127 125//125 132//132
f 127//127 132//132 128//128
f 125//125 130//130 132//132
f 128//128 132//132 131//131
f 131//131 132//132 133//133
f 131//131 133//133 134//134
f 131//131 134//134 116//116
f 116//116 134//134 117//117
f 80//80 81//81 135//135
f 80//80 136//136 129//129
f 80//80 135//135 137//137
f 80//80 137//137 136//136
f 79//79 71//71 138//138
f 79//79 138//138 135//135
f 79//79 135//135 81//81
f 71//71 120//120 138//138
f 138//138 120//120 139//139
f 138//138 140//140 135//135
f 138//138 139//139 140//140
f 120//120 121//121 139//139
f 141//141 142//142 143//143
f 141//141 144//144 142//142
f 141//141 145//145 146//146
f 141//141 143//143 145//145
f 141//141 146//146 144//144
f 142//142 147//147 148//148
f 142//142 144//144 83//83
f 142//142 83//83 89//89
f 142//142 89//89 147//147
f 142//142 148//148 143//143
f 147//147 89//89 119//119
f 147//147 118//118 148//148
f 147//147 119//119 118//118
f 85//85 88//88 103//103
f 85//85 103//103 86//86
f 149//149 150//150 144//144
f 149//149 144//144 151//151
f 149//149 152//152 88//88
f 149//149 88//88 150//150
f 149//149 151//151 153//153
f 149//149 153//153 152//152
f 150//150 83//83 144//144
f 150//150 88//88 87//87
f 150//150 87//87 83//83
f 144//144 146//146 151//151
f 152//152 114//114 88//88
f 152//152 153//153 114//114
f 88//88 114//114 103//103
f 94//94 122//122 95//95
f 107//107 113//113 154//154
f 107//107 154//154 123//123
f 113//113 114//114 155//155
f 113//113 155//155 154//154
f 114//114 153//153 155//155
f 118//118 117//117 148//148
f 95//95 156//156 97//97
f 95//95 122//122 157//157
f 95//95 157//157 140//140
f 95//95 140//140 156//156
f 97//97 156//156 121//121
f 156//156 140//140 139//139
f 156//156 139//139 121//121
f 158//158 159//159 160//160
f 158//158 161//161 162//162
f 158//158 160//160 163//163
f 158//158 163//163 161//161
f 158//158 164//164 159//159
f 158//158 162//162 164//164
f 159//159 165//165 160//160
f 159//159 164//164 166//166
f 159//159 166//166 165//165
f 161//161 145//145 162//162
f 161//161 163//163 167//167
f 161//161 167//167 145//145
f 145//145 143//143 168//168
f 145//145 168//168 169//169
f 145//145 167//167 146//146
f 145//145 169//169 162//162
f 143//143 148//148 168//168
f 168//168 148//148 134//134
f 168//168 134//134 169//169
f 148//148 117//117 134//134
f 151//151 146//146 170//170
f 151//151 170//170 153//153
f 146//146 167//167 171//171
f 146//146 171//171 170//170
f 153//153 170//170 155//155
f 172//172 173//173 174//174
f 172//172 122//122 124//124
f 172//172 124//124 173//173
f 172//172 175//175 157//157
f 172//172 174//174 175//175
f 172//172 157//157 122//122
f 176//176 177//177 178//178
f 176//176 160//160 165//165
f 176//176 165//165 177//177
f 176//176 178//178 179//179
f 176//176 179//179 180//180
f 176//176 180//180 160//160
f 177//177 165//165 181//181
f 177//177 173//173 178//178
f 177//177 182//182 174//174
f 177//177 181//181 182//182
f 177//177 174//174 173//173
f 160//160 180//180 163//163
f 165//165 166//166 181//181
f 178//178 173//173 124//124
f 178//178 123//123 179//179
f 178//178 124//124 123//123
f 163//163 180//180 183//183
f 163//163 183//183 167//167
f 167//167 183//183 171//171
f 179//179 123//123 154//154
f 179//179 184//184 183//183
f 179//179 183//183 180//180
f 179//179 154//154 184//184
f 184//184 170//170 183//183
f 184//184 154//154 170//170
f 170//170 171//171 183//183
f 170//170 154//154 155//155
f 129//129 136//136 185//185
f 129//129 185//185 130//130
f 164//164 132//132 130//130
f 164//164 130//130 166//166
f 164//164 186//186 133//133
f 164//164 133//133 132//132
f 164//164 162//162 186//186
f 166//166 130//130 181//181
f 130//130 185//185 181//181
f 186//186 169//169 134//134
f 186//186 134//134 133//133
f 186//186 162//162 169//169
f 187//187 136//136 137//137
f 187//187 135//135 188//188
f 187//187 137//137 135//135
f 187//187 189//189 136//136
f 187//187 188//188 189//189
f 136//136 189//189 185//185
f 175//175 135//135 140//140
f 175//175 174//174 188//188
f 175//175 188//188 135//135
f 175//175 140//140 157//157
f 182//182 189//189 188//188
f 182//182 181//181 189//189
f 182//182 188//188 174//174
f 189//189 181//181 185//185
# 374 faces, 0 coords texture

# End of File
