####
#
# OBJ File Generated by Meshlab
#
####
# Object matlab_mesh_step19_link9.obj
#
# Vertices: 220
# Faces: 436
#
####
vn 5.326975 2.279625 2.331324
v 0.614901 0.876282 1.186661
vn 5.076068 2.302681 2.896237
v 0.599034 0.887946 1.205817
vn 4.723240 1.456419 3.686815
v 0.615355 0.798256 1.245746
vn 5.311999 1.684059 2.742435
v 0.631222 0.786591 1.226589
vn 5.697224 1.872282 1.858208
v 0.629699 0.843564 1.177227
vn 5.277224 2.707669 1.429232
v 0.626609 0.906788 1.119681
vn 5.038614 2.801159 2.424055
v 0.598747 0.898492 1.197394
vn 3.781057 3.277718 3.134584
v 0.578280 0.913721 1.221166
vn 5.411744 1.141016 2.600135
v 0.644412 0.754310 1.218603
vn 3.799898 1.387870 4.324853
v 0.593007 0.824462 1.262528
vn 4.182841 0.469275 4.467238
v 0.623903 0.769572 1.242416
vn 6.000542 1.551358 1.032089
v 0.630840 0.892130 1.117112
vn 5.895352 1.632293 1.382458
v 0.642929 0.817097 1.159610
vn 5.994567 1.422290 1.207061
v 0.647161 0.802439 1.157041
vn 6.096278 1.075228 0.940718
v 0.719815 0.697719 0.892033
vn 6.009863 1.543801 0.987040
v 0.703495 0.787409 0.852104
vn 5.993942 1.599243 0.994352
v 0.699264 0.802067 0.854673
vn 5.234765 2.973721 0.831500
v 0.630673 0.917052 1.077592
vn 5.195392 2.778297 -0.442708
v 0.703328 0.812332 0.812584
vn 4.578232 4.073452 1.381299
v 0.614806 0.928717 1.096749
vn 4.289405 4.358215 0.081526
v 0.609754 0.945483 1.061017
vn 4.676374 3.721683 1.828368
v 0.610742 0.918452 1.138838
vn 3.958464 4.672587 0.865191
v 0.589287 0.960712 1.084790
vn 3.970967 4.455330 1.778900
v 0.584266 0.947625 1.138331
vn 4.922552 -0.483131 2.699127
v 0.649552 0.735447 1.215103
vn 6.033951 1.579445 0.308781
v 0.707559 0.797674 0.810015
vn 6.126922 1.076602 0.618518
v 0.723880 0.707983 0.849944
vn 5.353590 1.256122 -1.867552
v 0.716177 0.761376 0.773961
vn 4.755127 2.348008 -2.245099
v 0.711038 0.780239 0.777461
vn 4.052841 4.053993 -1.930011
v 0.680079 0.835181 0.797818
vn 5.678643 -1.077215 1.070120
v 0.719855 0.625094 0.951921
vn 5.816434 -0.424119 -0.781746
v 0.730890 0.672122 0.815336
vn 5.954103 -1.012177 0.179992
v 0.724884 0.638207 0.898276
vn 6.131351 0.834376 1.059036
v 0.719660 0.628508 0.950518
vn 3.618069 5.085197 -0.518696
v 0.558635 0.982926 1.061017
vn 3.764883 4.931165 -0.964686
v 0.609600 0.945537 1.060659
vn 3.243147 5.187537 0.713556
v 0.538168 0.998155 1.084790
vn 3.373479 5.266801 -0.580803
v 0.558254 0.983146 1.060750
vn 2.859686 5.425292 0.579089
v 0.537711 0.998435 1.084596
vn 3.429320 5.168423 -0.909914
v 0.558234 0.983148 1.060659
vn 3.059165 5.082636 1.904159
v 0.533147 0.985068 1.138331
vn 2.293279 5.448811 2.019406
v 0.532675 0.985302 1.138325
vn 3.042978 4.475780 2.989756
v 0.527161 0.951164 1.221166
vn 2.160243 4.140813 3.621173
v 0.526663 0.951378 1.221318
vn 3.547540 4.961311 -1.454445
v 0.628961 0.872624 0.797818
vn 3.552380 4.367751 -2.623703
v 0.673242 0.838908 0.794427
vn 3.095068 4.875505 -2.164317
v 0.622123 0.876352 0.794427
vn 3.792992 3.614040 -3.452485
v 0.679871 0.835112 0.797501
vn 2.990283 3.673566 -3.920935
v 0.673002 0.838854 0.794095
vn 2.341068 5.215535 -2.341537
v 0.621678 0.876490 0.794180
vn 2.779972 5.409401 -1.296036
v 0.551365 0.986890 1.057253
vn 1.563636 4.390542 -3.529620
v 0.621637 0.876465 0.794095
vn 2.699522 3.425771 4.418185
v 0.577967 0.913809 1.221318
vn 2.582348 2.843434 4.927097
v 0.577975 0.913774 1.221335
vn 2.055140 1.069383 5.322790
v 0.592668 0.824526 1.262729
vn 3.196622 -0.161670 5.404216
v 0.598138 0.805638 1.259037
vn 3.937682 -0.527602 4.520927
v 0.629042 0.750710 1.238916
vn 2.372780 -0.536362 5.727926
v 0.597818 0.805609 1.259217
vn 4.976623 0.856176 -3.294581
v 0.716124 0.761228 0.773824
vn 4.037179 2.313305 -4.156652
v 0.710979 0.780121 0.777331
vn 3.467139 3.220420 -4.090264
v 0.704187 0.783972 0.774063
vn 5.545061 -1.506068 -1.784596
v 0.730826 0.671977 0.815210
vn 3.269762 2.937873 -4.448188
v 0.704117 0.783859 0.773928
vn 4.329622 -2.472507 3.469189
v 0.649493 0.735314 1.215100
vn 5.280517 -2.771686 1.090795
v 0.719778 0.624919 0.951932
vn 3.290614 -1.919771 4.919072
v 0.628950 0.750603 1.238946
vn 2.656117 -1.053739 5.510033
v 0.628833 0.750667 1.239030
vn 5.534855 -2.863237 -0.456048
v 0.724814 0.638053 0.898203
vn 3.218371 5.370886 -0.490964
v 0.537666 0.998457 1.084529
vn 2.071214 5.654544 0.690561
v 0.530850 1.002174 1.081193
vn 1.396144 5.719161 1.928774
v 0.525814 0.989040 1.134922
vn 1.621550 5.497295 2.556218
v 0.519802 0.955116 1.217915
vn 3.232805 5.348814 -0.646201
v 0.551393 0.986884 1.057348
vn 0.558011 5.443797 -0.258263
v 0.530796 1.002199 1.081123
vn -0.481504 5.793051 1.824240
v 0.525756 0.989050 1.134914
vn -0.619424 4.162302 3.550029
v 0.519630 0.955172 1.217881
vn 0.068343 4.089961 3.968404
v 0.519740 0.955126 1.217929
vn 1.740041 5.682466 -1.995523
v 0.601135 0.891779 0.818025
vn 0.337225 5.530800 -2.614699
v 0.601068 0.891773 0.817965
vn 0.530217 3.539518 4.299559
v 0.526610 0.951385 1.221335
vn 3.619337 -0.226876 -4.219181
v 0.716078 0.761138 0.773741
vn 3.723577 2.081932 -4.576904
v 0.710928 0.780055 0.777253
vn 3.882848 -2.353883 -2.894982
v 0.730771 0.671890 0.815135
vn 2.277957 2.128241 -5.161142
v 0.704059 0.783796 0.773847
vn 3.965562 -3.055816 3.558327
v 0.649443 0.735243 1.215099
vn 4.603802 -3.607301 0.993052
v 0.719715 0.624818 0.951941
vn 3.210550 -2.477352 4.785922
v 0.622734 0.744287 1.239934
vn 2.904981 -2.003685 5.189562
v 0.628875 0.750552 1.238969
vn 1.602629 -3.118965 4.729626
v 0.622652 0.744229 1.239959
vn 4.787351 -3.811098 -0.907913
v 0.724756 0.637967 0.898150
vn 2.661744 -3.919470 3.458499
v 0.643220 0.728920 1.216089
vn -1.771802 5.929157 0.662245
v 0.420986 0.975667 1.062889
vn -2.037413 5.649720 1.681789
v 0.415945 0.962518 1.116681
vn -0.796584 5.860362 -1.724658
v 0.530683 1.002164 1.081037
vn -1.884305 5.495568 -0.789492
v 0.420871 0.975639 1.062806
vn -1.911460 3.936018 3.716675
v 0.409818 0.928646 1.199650
vn -2.614202 5.470661 1.519051
v 0.415827 0.962479 1.116639
vn 2.345720 3.149843 -4.903431
v 0.672938 0.838757 0.794000
vn 0.620024 3.674532 -4.536928
v 0.621532 0.876396 0.794000
vn -0.613319 5.337488 -3.172986
v 0.600946 0.891718 0.817886
vn 0.447996 1.950705 5.611999
v 0.541303 0.862137 1.262729
vn -1.401418 2.502251 5.587558
v 0.526505 0.951428 1.221290
vn -1.262884 2.322189 5.692668
v 0.541192 0.862181 1.262689
vn 0.371941 -0.542733 6.070355
v 0.586445 0.818203 1.263720
vn 0.565417 -1.410713 5.888926
v 0.591595 0.799287 1.260208
vn 1.136408 -2.066767 5.535209
v 0.622605 0.744340 1.240022
vn -0.685274 0.559301 5.969544
v 0.535080 0.855814 1.263720
vn -1.400102 2.037529 5.763744
v 0.534964 0.855854 1.263681
vn -0.824151 -1.237941 6.100544
v 0.476634 0.791672 1.245486
vn -0.632569 -1.824183 5.947510
v 0.481784 0.772756 1.241974
vn -1.177424 0.004755 6.014696
v 0.425269 0.829283 1.245486
vn -1.660397 1.343805 5.810926
v 0.425152 0.829329 1.245450
vn -0.987166 -1.372662 6.051196
v 0.427375 0.768657 1.232512
vn -1.374302 -2.343124 5.503241
v 0.432525 0.749741 1.229000
vn -0.818423 -3.608845 4.553370
v 0.463619 0.694749 1.208831
vn -0.384707 -2.413665 5.787926
v 0.512792 0.717815 1.221791
vn -2.200844 -0.530155 5.480215
v 0.376009 0.806268 1.232512
vn 1.974373 -1.917917 -5.602863
v 0.666873 0.738073 0.760789
vn 2.226891 0.548303 -5.455166
v 0.709209 0.764880 0.770335
vn 1.664639 -1.464644 -5.799868
v 0.659999 0.741816 0.757381
vn 3.257275 -4.152001 -2.832749
v 0.724548 0.665568 0.816125
vn 2.245232 -2.751805 -5.064904
v 0.681561 0.648826 0.802189
vn 0.987163 1.372659 -6.051197
v 0.657843 0.802491 0.770335
vn 1.211991 0.065170 -6.020083
v 0.659949 0.741865 0.757361
vn 1.414117 2.329198 -5.505182
v 0.652694 0.821407 0.773847
vn 0.824146 1.237949 -6.100543
v 0.608584 0.779476 0.757361
vn 0.632701 1.823796 -5.947662
v 0.603434 0.798392 0.760872
vn 0.562977 2.360926 -5.791977
v 0.652613 0.821452 0.773856
vn 3.579472 -4.869219 -1.231213
v 0.718533 0.631644 0.899140
vn 1.988840 -3.927690 -3.630787
v 0.675333 0.642499 0.803181
vn 3.102616 -4.608784 1.033985
v 0.713492 0.618495 0.952932
vn 1.233545 -5.092252 3.340858
v 0.594017 0.705952 1.203175
vn 1.790766 -5.609887 1.631717
v 0.664280 0.595507 0.940025
vn 0.267590 -3.738031 4.723969
v 0.573431 0.721275 1.227062
vn 1.862807 -5.747844 0.019802
v 0.664232 0.595480 0.939958
vn 2.272888 -5.541837 -1.610556
v 0.669273 0.608629 0.886166
vn -3.095622 4.628480 -1.018737
v 0.371726 0.952653 1.049915
vn -3.580205 4.869056 1.230703
v 0.366685 0.939504 1.103707
vn -2.608514 4.220987 -3.291648
v 0.441998 0.842227 0.786758
vn -4.211110 3.818932 -2.673257
v 0.371698 0.952574 1.049846
vn -4.729535 3.474891 -0.727841
v 0.365503 0.946330 1.050906
vn -5.134855 1.338185 -1.415667
v 0.365469 0.946246 1.050838
vn -5.014000 3.342719 0.716047
v 0.360462 0.933181 1.104697
vn -4.539490 1.224586 1.322748
v 0.354416 0.899254 1.187682
vn -3.634932 4.475855 2.241613
v 0.360645 0.905581 1.186690
vn -3.098623 4.998587 2.154876
v 0.360684 0.905613 1.186677
vn -2.897319 5.280472 1.778575
v 0.415753 0.962437 1.116646
vn -2.824020 4.984722 2.464649
v 0.409747 0.928629 1.199608
vn -1.366114 3.888376 -4.546821
v 0.462566 0.826918 0.762888
vn -1.157005 5.158179 -3.236899
v 0.491134 0.865193 0.799655
vn -0.268133 3.737975 -4.723854
v 0.511719 0.849871 0.775769
vn -1.478055 2.422388 -5.099536
v 0.462546 0.826806 0.762809
vn -3.315508 3.317120 -3.991788
v 0.441960 0.842128 0.786695
vn -4.301227 3.551628 -2.865752
v 0.435775 0.835905 0.787748
vn -4.577089 0.870005 -2.597501
v 0.435732 0.835801 0.787687
vn -5.995096 0.781956 -0.240259
v 0.360425 0.933087 1.104671
vn -3.022958 4.097808 3.462298
v 0.360670 0.905580 1.186722
vn -3.395141 2.558693 4.167444
v 0.354447 0.899258 1.187712
vn -2.246454 2.752495 5.063549
v 0.403590 0.922319 1.200642
vn -2.126761 -2.029661 5.331736
v 0.381159 0.787352 1.229000
vn -3.194919 -2.785322 4.457880
v 0.381132 0.787332 1.228974
vn -2.844595 -3.331802 4.425377
v 0.412213 0.732388 1.208831
vn -2.960638 0.320592 5.135285
v 0.369140 0.810009 1.229106
vn -4.297991 -0.487873 2.301949
v 0.369104 0.810008 1.229081
vn -3.405237 -1.778802 4.970554
v 0.375979 0.806264 1.232490
vn -1.974899 1.917558 5.602712
v 0.418277 0.833073 1.242041
vn -0.371925 0.542754 -6.070359
v 0.498773 0.752945 0.739127
vn -0.564366 1.410022 -5.889498
v 0.493623 0.771861 0.742639
vn 0.648506 -0.479780 -6.004424
v 0.550138 0.715334 0.739127
vn 0.384887 2.413228 -5.788090
v 0.572358 0.853331 0.781040
vn -0.539375 -1.904414 -5.647808
v 0.543915 0.709011 0.740118
vn -2.685367 -1.161492 -4.539373
v 0.492550 0.746622 0.740118
vn -2.470355 0.483655 -5.671545
v 0.487400 0.765538 0.743630
vn 1.338754 -1.985343 -5.790185
v 0.550186 0.715291 0.739150
vn 1.488661 -2.387944 -5.617737
v 0.565478 0.616021 0.784918
vn -1.021608 -3.271876 -4.300176
v 0.558609 0.619763 0.781512
vn 0.902522 -2.367116 -5.710849
v 0.543958 0.708964 0.740141
vn 1.503888 -2.361056 -5.625136
v 0.557061 0.711547 0.742559
vn 1.504171 -2.361897 -5.624707
v 0.571748 0.622301 0.783958
vn 1.503253 -2.361734 -5.625021
v 0.550833 0.705220 0.743550
vn 0.404128 -4.142669 -3.473495
v 0.565520 0.615974 0.784950
vn -0.887436 -3.687015 -3.742876
v 0.558646 0.619718 0.781541
vn -3.448523 -2.969318 -3.665052
v 0.507243 0.657374 0.781512
vn -5.172067 -1.931700 -2.961646
v 0.471982 0.761931 0.763988
vn -5.397093 -1.235829 -2.470482
v 0.440885 0.816869 0.784172
vn -4.227385 -0.718115 -4.294478
v 0.461471 0.801547 0.760285
vn -5.126985 -2.386624 -2.708116
v 0.486675 0.672683 0.805382
vn -5.148397 -2.776745 -2.048390
v 0.486654 0.672679 0.805427
vn -5.626825 -1.970747 -1.709797
v 0.455573 0.727623 0.825571
vn -3.481909 0.794638 -4.619084
v 0.456318 0.820478 0.763801
vn -4.088322 -3.840831 -2.450457
v 0.507239 0.657356 0.781541
vn 1.082279 -5.392121 2.964436
v 0.593961 0.705906 1.203115
vn -0.497577 -5.399734 2.583781
v 0.484150 0.679374 1.184882
vn -1.673523 -4.561852 2.891088
v 0.463581 0.694683 1.208752
vn -2.780303 -5.409049 1.295899
v 0.533853 0.584258 0.945594
vn -0.565627 -5.338593 0.191218
v 0.554422 0.568949 0.921724
vn 0.746285 -5.756977 2.349126
v 0.554467 0.568981 0.921794
vn -3.269971 -4.111905 3.093342
v 0.412216 0.732294 1.208752
vn -4.281311 -3.602914 1.574499
v 0.405347 0.736036 1.205346
vn -3.546254 -4.961363 1.457422
v 0.456712 0.698425 1.205346
vn -4.515918 -2.041391 1.871780
v 0.374257 0.791076 1.225566
vn -0.198920 -5.608741 -1.776134
v 0.559463 0.582098 0.867933
vn -3.046266 -5.256296 -0.666218
v 0.547552 0.572691 0.918318
vn -2.728754 -5.183065 -1.965657
v 0.552593 0.585840 0.864527
vn -3.530625 -5.113461 0.653647
v 0.526984 0.587999 0.942188
vn -4.491581 -3.899468 -0.190685
v 0.475619 0.625610 0.942188
vn -5.698423 -2.368944 -0.716868
v 0.444520 0.680630 0.962415
vn -4.104811 -4.284081 -1.791291
v 0.501228 0.623451 0.864527
vn -3.989452 -4.631267 -0.881739
v 0.496187 0.610301 0.918318
vn -5.081580 -3.283250 -1.436711
v 0.480660 0.638759 0.888397
vn -5.765250 -2.091499 -1.161074
v 0.449564 0.693790 0.908582
vn -1.503259 2.361738 5.625018
v 0.534318 0.865925 1.259281
vn -1.504121 2.362008 5.624674
v 0.513402 0.948844 1.218873
vn -1.503851 2.361015 5.625163
v 0.528090 0.859598 1.260272
vn -6.031247 -1.440709 -1.013057
v 0.429723 0.801968 0.870698
vn -6.105745 -1.137186 -0.882633
v 0.359461 0.912413 1.133849
vn -6.025579 -1.460187 -1.018919
v 0.434877 0.783036 0.867183
vn -6.039627 -1.447074 -0.951080
v 0.374148 0.823167 1.175248
vn -6.030002 -1.455819 -0.999045
v 0.444411 0.712721 0.912098
vn -6.024063 -1.504528 -0.959417
v 0.379301 0.804236 1.171733
# 220 vertices, 0 vertices normals

f 1//1 2//2 3//3
f 1//1 4//4 5//5
f 1//1 3//3 4//4
f 1//1 6//6 7//7
f 1//1 7//7 2//2
f 1//1 5//5 6//6
f 2//2 7//7 8//8
f 2//2 8//8 3//3
f 4//4 3//3 9//9
f 4//4 9//9 5//5
f 3//3 8//8 10//10
f 3//3 10//10 11//11
f 3//3 11//11 9//9
f 12//12 6//6 13//13
f 12//12 14//14 15//15
f 12//12 13//13 14//14
f 12//12 16//16 17//17
f 12//12 17//17 6//6
f 12//12 15//15 16//16
f 18//18 6//6 19//19
f 18//18 20//20 6//6
f 18//18 19//19 21//21
f 18//18 21//21 20//20
f 6//6 20//20 22//22
f 6//6 22//22 7//7
f 6//6 17//17 19//19
f 6//6 5//5 13//13
f 20//20 21//21 23//23
f 20//20 23//23 24//24
f 20//20 24//24 22//22
f 22//22 24//24 8//8
f 22//22 8//8 7//7
f 14//14 13//13 9//9
f 14//14 25//25 15//15
f 14//14 9//9 25//25
f 13//13 5//5 9//9
f 26//26 16//16 27//27
f 26//26 19//19 17//17
f 26//26 17//17 16//16
f 26//26 27//27 28//28
f 26//26 28//28 29//29
f 26//26 29//29 19//19
f 16//16 15//15 27//27
f 19//19 30//30 21//21
f 19//19 29//29 30//30
f 27//27 15//15 31//31
f 27//27 32//32 28//28
f 27//27 33//33 32//32
f 27//27 31//31 33//33
f 15//15 34//34 31//31
f 15//15 25//25 34//34
f 34//34 25//25 31//31
f 35//35 21//21 36//36
f 35//35 37//37 23//23
f 35//35 23//23 21//21
f 35//35 38//38 39//39
f 35//35 39//39 37//37
f 35//35 40//40 38//38
f 35//35 36//36 40//40
f 21//21 30//30 36//36
f 37//37 41//41 23//23
f 37//37 39//39 42//42
f 37//37 42//42 41//41
f 23//23 41//41 24//24
f 41//41 43//43 24//24
f 41//41 42//42 44//44
f 41//41 44//44 43//43
f 24//24 43//43 8//8
f 45//45 30//30 46//46
f 45//45 47//47 40//40
f 45//45 46//46 47//47
f 45//45 40//40 36//36
f 45//45 36//36 30//30
f 30//30 29//29 48//48
f 30//30 48//48 46//46
f 47//47 46//46 49//49
f 47//47 50//50 51//51
f 47//47 51//51 40//40
f 47//47 52//52 50//50
f 47//47 49//49 52//52
f 46//46 48//48 49//49
f 43//43 44//44 53//53
f 43//43 53//53 8//8
f 8//8 53//53 54//54
f 8//8 54//54 55//55
f 8//8 55//55 10//10
f 56//56 10//10 55//55
f 56//56 57//57 11//11
f 56//56 11//11 10//10
f 56//56 58//58 57//57
f 56//56 55//55 58//58
f 28//28 32//32 59//59
f 28//28 59//59 60//60
f 28//28 60//60 29//29
f 29//29 61//61 48//48
f 29//29 60//60 61//61
f 32//32 33//33 62//62
f 32//32 62//62 59//59
f 61//61 60//60 63//63
f 61//61 63//63 49//49
f 61//61 49//49 48//48
f 25//25 57//57 64//64
f 25//25 9//9 57//57
f 25//25 64//64 65//65
f 25//25 65//65 31//31
f 57//57 9//9 11//11
f 57//57 66//66 64//64
f 57//57 58//58 67//67
f 57//57 67//67 66//66
f 33//33 31//31 65//65
f 33//33 68//68 62//62
f 33//33 65//65 68//68
f 38//38 40//40 69//69
f 38//38 69//69 39//39
f 39//39 70//70 71//71
f 39//39 71//71 42//42
f 39//39 69//69 70//70
f 42//42 71//71 72//72
f 42//42 72//72 44//44
f 73//73 40//40 51//51
f 73//73 69//69 40//40
f 73//73 51//51 74//74
f 73//73 74//74 69//69
f 70//70 69//69 74//74
f 70//70 74//74 75//75
f 70//70 75//75 71//71
f 71//71 75//75 76//76
f 71//71 77//77 72//72
f 71//71 76//76 77//77
f 50//50 78//78 74//74
f 50//50 74//74 51//51
f 50//50 52//52 79//79
f 50//50 79//79 78//78
f 78//78 79//79 74//74
f 44//44 72//72 80//80
f 44//44 80//80 54//54
f 44//44 54//54 53//53
f 72//72 77//77 80//80
f 59//59 62//62 81//81
f 59//59 81//81 82//82
f 59//59 82//82 60//60
f 60//60 82//82 63//63
f 62//62 68//68 83//83
f 62//62 83//83 81//81
f 63//63 82//82 84//84
f 63//63 84//84 49//49
f 64//64 66//66 85//85
f 64//64 85//85 86//86
f 64//64 86//86 65//65
f 66//66 87//87 85//85
f 66//66 88//88 89//89
f 66//66 89//89 87//87
f 66//66 67//67 88//88
f 68//68 65//65 86//86
f 68//68 90//90 83//83
f 68//68 86//86 90//90
f 87//87 91//91 85//85
f 87//87 89//89 91//91
f 74//74 92//92 93//93
f 74//74 93//93 75//75
f 74//74 79//79 94//94
f 74//74 94//94 95//95
f 74//74 95//95 92//92
f 75//75 93//93 96//96
f 75//75 96//96 76//76
f 92//92 95//95 93//93
f 93//93 95//95 97//97
f 93//93 97//97 96//96
f 52//52 49//49 98//98
f 52//52 99//99 100//100
f 52//52 98//98 99//99
f 52//52 100//100 79//79
f 49//49 84//84 98//98
f 79//79 100//100 94//94
f 80//80 101//101 54//54
f 80//80 77//77 102//102
f 80//80 102//102 103//103
f 80//80 103//103 101//101
f 54//54 101//101 55//55
f 58//58 55//55 104//104
f 58//58 105//105 106//106
f 58//58 104//104 105//105
f 58//58 106//106 67//67
f 101//101 107//107 104//104
f 101//101 104//104 55//55
f 101//101 103//103 108//108
f 101//101 108//108 107//107
f 77//77 76//76 102//102
f 105//105 104//104 109//109
f 105//105 110//110 106//106
f 105//105 109//109 110//110
f 107//107 111//111 104//104
f 107//107 108//108 112//112
f 107//107 112//112 111//111
f 104//104 111//111 109//109
f 110//110 109//109 113//113
f 110//110 114//114 115//115
f 110//110 113//113 114//114
f 110//110 116//116 106//106
f 110//110 115//115 116//116
f 111//111 117//117 113//113
f 111//111 113//113 109//109
f 111//111 112//112 117//117
f 81//81 83//83 118//118
f 81//81 119//119 82//82
f 81//81 118//118 120//120
f 81//81 120//120 119//119
f 82//82 119//119 84//84
f 83//83 121//121 122//122
f 83//83 90//90 121//121
f 83//83 122//122 118//118
f 123//123 119//119 124//124
f 123//123 125//125 84//84
f 123//123 84//84 119//119
f 123//123 126//126 127//127
f 123//123 124//124 126//126
f 123//123 127//127 125//125
f 119//119 120//120 124//124
f 125//125 127//127 128//128
f 125//125 99//99 98//98
f 125//125 98//98 84//84
f 125//125 128//128 99//99
f 121//121 90//90 129//129
f 121//121 129//129 130//130
f 121//121 130//130 122//122
f 85//85 91//91 86//86
f 88//88 67//67 106//106
f 88//88 106//106 89//89
f 90//90 86//86 129//129
f 86//86 91//91 131//131
f 86//86 131//131 129//129
f 91//91 89//89 132//132
f 91//91 132//132 133//133
f 91//91 133//133 131//131
f 89//89 106//106 134//134
f 89//89 134//134 132//132
f 129//129 131//131 135//135
f 129//129 136//136 130//130
f 129//129 135//135 136//136
f 131//131 133//133 135//135
f 137//137 138//138 95//95
f 137//137 139//139 140//140
f 137//137 141//141 138//138
f 137//137 95//95 139//139
f 137//137 140//140 142//142
f 137//137 142//142 141//141
f 138//138 141//141 143//143
f 138//138 143//143 144//144
f 138//138 97//97 95//95
f 138//138 145//145 146//146
f 138//138 144//144 145//145
f 138//138 147//147 97//97
f 138//138 148//148 147//147
f 138//138 146//146 148//148
f 149//149 139//139 150//150
f 149//149 151//151 152//152
f 149//149 150//150 151//151
f 149//149 152//152 153//153
f 149//149 153//153 139//139
f 139//139 154//154 142//142
f 139//139 95//95 150//150
f 139//139 153//153 155//155
f 139//139 142//142 140//140
f 139//139 155//155 154//154
f 141//141 142//142 143//143
f 143//143 142//142 156//156
f 143//143 156//156 144//144
f 154//154 155//155 142//142
f 157//157 158//158 159//159
f 157//157 96//96 148//148
f 157//157 159//159 96//96
f 157//157 145//145 144//144
f 157//157 144//144 158//158
f 157//157 148//148 146//146
f 157//157 146//146 145//145
f 160//160 114//114 113//113
f 160//160 117//117 161//161
f 160//160 113//113 117//117
f 160//160 161//161 162//162
f 160//160 162//162 114//114
f 114//114 162//162 115//115
f 117//117 163//163 164//164
f 117//117 112//112 163//163
f 117//117 165//165 161//161
f 117//117 164//164 165//165
f 158//158 163//163 166//166
f 158//158 166//166 159//159
f 158//158 144//144 164//164
f 158//158 164//164 163//163
f 163//163 112//112 166//166
f 126//126 124//124 167//167
f 126//126 167//167 168//168
f 126//126 168//168 127//127
f 124//124 169//169 167//167
f 124//124 120//120 169//169
f 127//127 168//168 152//152
f 127//127 99//99 128//128
f 127//127 170//170 99//99
f 127//127 152//152 170//170
f 167//167 169//169 171//171
f 167//167 172//172 173//173
f 167//167 171//171 172//172
f 167//167 173//173 168//168
f 169//169 120//120 174//174
f 169//169 174//174 171//171
f 168//168 173//173 152//152
f 175//175 176//176 177//177
f 175//175 178//178 179//179
f 175//175 122//122 130//130
f 175//175 179//179 122//122
f 175//175 180//180 178//178
f 175//175 130//130 181//181
f 175//175 181//181 182//182
f 175//175 177//177 180//180
f 175//175 182//182 176//176
f 172//172 171//171 183//183
f 172//172 184//184 185//185
f 172//172 183//183 184//184
f 172//172 186//186 173//173
f 172//172 185//185 186//186
f 171//171 176//176 183//183
f 171//171 174//174 177//177
f 171//171 177//177 176//176
f 184//184 183//183 187//187
f 184//184 187//187 188//188
f 184//184 189//189 185//185
f 184//184 188//188 189//189
f 173//173 186//186 190//190
f 173//173 190//190 152//152
f 183//183 176//176 191//191
f 183//183 191//191 188//188
f 183//183 188//188 187//187
f 176//176 182//182 191//191
f 192//192 193//193 133//133
f 192//192 132//132 193//193
f 192//192 133//133 132//132
f 193//193 194//194 195//195
f 193//193 196//196 197//197
f 193//193 195//195 196//196
f 193//193 132//132 194//194
f 193//193 197//197 133//133
f 198//198 194//194 162//162
f 198//198 199//199 200//200
f 198//198 200//200 194//194
f 198//198 161//161 201//201
f 198//198 201//201 199//199
f 198//198 162//162 161//161
f 194//194 200//200 195//195
f 194//194 132//132 134//134
f 194//194 134//134 115//115
f 194//194 115//115 162//162
f 136//136 135//135 196//196
f 136//136 202//202 130//130
f 136//136 196//196 202//202
f 135//135 133//133 196//196
f 202//202 196//196 203//203
f 202//202 204//204 182//182
f 202//202 203//203 204//204
f 202//202 181//181 130//130
f 202//202 182//182 181//181
f 196//196 195//195 203//203
f 196//196 133//133 197//197
f 195//195 200//200 205//205
f 195//195 205//205 203//203
f 199//199 206//206 205//205
f 199//199 205//205 200//200
f 199//199 201//201 207//207
f 199//199 207//207 206//206
f 208//208 204//204 203//203
f 208//208 209//209 206//206
f 208//208 203//203 209//209
f 208//208 210//210 188//188
f 208//208 206//206 210//210
f 208//208 191//191 204//204
f 208//208 188//188 191//191
f 204//204 191//191 182//182
f 209//209 203//203 205//205
f 209//209 205//205 206//206
f 210//210 206//206 211//211
f 210//210 189//189 188//188
f 210//210 211//211 189//189
f 206//206 207//207 211//211
f 94//94 100//100 95//95
f 95//95 100//100 150//150
f 97//97 147//147 148//148
f 97//97 148//148 96//96
f 99//99 151//151 100//100
f 99//99 170//170 152//152
f 99//99 152//152 151//151
f 100//100 151//151 150//150
f 102//102 76//76 212//212
f 102//102 212//212 103//103
f 103//103 212//212 108//108
f 76//76 96//96 213//213
f 76//76 213//213 212//212
f 96//96 159//159 213//213
f 212//212 213//213 214//214
f 212//212 214//214 108//108
f 108//108 214//214 166//166
f 108//108 166//166 112//112
f 213//213 159//159 166//166
f 213//213 166//166 214//214
f 106//106 116//116 134//134
f 116//116 115//115 134//134
f 152//152 190//190 153//153
f 153//153 190//190 155//155
f 142//142 155//155 215//215
f 142//142 216//216 156//156
f 142//142 215//215 216//216
f 156//156 216//216 144//144
f 186//186 185//185 190//190
f 185//185 155//155 190//190
f 185//185 189//189 217//217
f 185//185 217//217 215//215
f 185//185 215//215 155//155
f 189//189 211//211 217//217
f 161//161 165//165 201//201
f 165//165 164//164 201//201
f 216//216 218//218 144//144
f 216//216 215//215 219//219
f 216//216 219//219 218//218
f 144//144 218//218 164//164
f 220//220 201//201 164//164
f 220//220 218//218 219//219
f 220//220 164//164 218//218
f 220//220 211//211 207//207
f 220//220 207//207 201//201
f 220//220 219//219 211//211
f 217//217 211//211 219//219
f 217//217 219//219 215//215
f 118//118 178//178 120//120
f 118//118 122//122 179//179
f 118//118 179//179 178//178
f 178//178 174//174 120//120
f 178//178 180//180 174//174
f 174//174 180//180 177//177
# 436 faces, 0 coords texture

# End of File
