####
#
# OBJ File Generated by Meshlab
#
####
# Object matlab_mesh_slc_step16_link2.obj
#
# Vertices: 211
# Faces: 418
#
####
vn -0.232950 -0.351043 6.254808
v 0.049955 0.252525 0.903775
vn -0.232959 -0.351060 6.254805
v 0.050300 0.252296 0.903775
vn 0.000000 0.000000 6.283185
v 0.050085 0.252720 0.903775
vn 0.299111 0.594884 6.207831
v 0.049905 0.252839 0.903775
vn -0.250434 -0.316086 6.254444
v 0.049776 0.252644 0.903775
vn -0.400958 -0.402375 6.228392
v 0.028670 0.262558 0.903314
vn -0.545278 -0.900326 6.101567
v 0.152371 0.184563 0.903775
vn 0.080562 0.121385 6.279805
v 0.050643 0.252392 0.903775
vn 2.074838 -1.989096 3.123781
v 0.152929 0.184235 0.903775
vn 0.080615 0.121484 6.279800
v 0.152714 0.184659 0.903775
vn -0.692081 -0.679628 6.121503
v 0.028642 0.262568 0.903313
vn -0.927564 -0.628857 6.069454
v 0.028620 0.262575 0.903311
vn -3.296110 0.302703 3.354696
v -0.080725 0.068295 0.826527
vn 0.179426 0.304879 6.263204
v 0.050464 0.252511 0.903775
vn 2.814816 -0.561912 2.610046
v 0.153059 0.184430 0.903775
vn 1.176090 -4.414045 0.159846
v 0.034399 0.002612 0.826056
vn 4.451178 -3.849756 2.085268
v 0.034818 0.003316 0.826490
vn 1.033491 -4.340622 1.104836
v 0.034398 0.002612 0.826063
vn 2.574498 -3.589449 3.930851
v 0.034815 0.003315 0.826493
vn 0.006337 -2.826303 5.388579
v 0.034812 0.003315 0.826494
vn -1.153107 -2.049300 5.821198
v -0.073366 0.064154 0.826527
vn -1.176416 -2.228929 5.735945
v 0.033364 0.004099 0.826527
vn -1.095505 -2.253853 5.745942
v 0.033947 0.003812 0.826527
vn 0.171973 0.248487 6.275902
v 0.145244 0.201513 0.903315
vn 5.360372 -0.535949 1.012375
v 0.153121 0.184525 0.903502
vn 5.408231 2.384643 2.114968
v 0.146370 0.201444 0.902322
vn 3.762795 1.716535 4.047163
v 0.146149 0.200994 0.903280
vn 2.863556 1.438164 4.288688
v 0.146136 0.201023 0.903280
vn 0.349446 0.398136 6.256048
v 0.145239 0.201538 0.903314
vn 5.384593 -0.553206 0.966152
v 0.153209 0.184657 0.903089
vn 4.065896 0.313580 -0.710471
v 0.176863 0.220302 0.791677
vn 5.499038 2.333614 1.947281
v 0.146385 0.201413 0.902318
vn 4.610452 -1.858985 -2.467994
v 0.176815 0.220230 0.791641
vn 4.118436 -0.052621 -4.729080
v 0.166215 0.236722 0.781969
vn 4.634162 3.794262 1.898913
v 0.166682 0.237362 0.782441
vn 4.613925 3.536677 2.279387
v 0.146324 0.201524 0.902333
vn 5.028750 2.963759 -0.140069
v 0.166659 0.237400 0.782420
vn 4.401069 2.049796 -1.295374
v 0.166639 0.237433 0.782401
vn 5.325860 2.529770 2.148313
v 0.146357 0.201471 0.902325
vn 5.199236 2.745321 2.182295
v 0.146345 0.201493 0.902328
vn 4.993303 3.058153 2.224628
v 0.146334 0.201511 0.902331
vn 0.158520 0.472480 6.243539
v 0.030656 0.266009 0.903315
vn -0.153106 -0.020838 6.280482
v 0.028705 0.262546 0.903315
vn 0.513564 0.684444 6.216809
v 0.145235 0.201558 0.903313
vn 0.567332 1.056215 6.158591
v 0.031239 0.265721 0.903315
vn 0.750647 1.116585 6.124006
v 0.145233 0.201573 0.903311
vn 2.861945 5.333661 1.444448
v 0.073571 0.288804 0.791652
vn 3.024956 5.142584 1.967866
v 0.074129 0.288475 0.791652
vn 3.042431 5.283586 0.462182
v 0.165703 0.238024 0.782383
vn 2.552103 5.437350 1.828287
v 0.051354 0.302321 0.782529
vn 2.321762 5.263868 2.442034
v 0.030786 0.266510 0.902367
vn 2.563913 5.454580 1.742452
v 0.051292 0.302359 0.782502
vn 2.882591 5.457283 1.075215
v 0.051875 0.302071 0.782502
vn 2.796469 5.041252 2.467165
v 0.031383 0.266216 0.902364
vn 2.886124 4.967691 2.495080
v 0.145451 0.202028 0.902370
vn 2.643687 5.085609 2.518305
v 0.031369 0.266223 0.902367
vn 2.796582 3.138422 -1.707388
v 0.166568 0.237527 0.782350
vn 2.987765 5.135062 2.044757
v 0.147519 0.203690 0.895159
vn 3.087611 4.836311 2.488571
v 0.146308 0.201537 0.902337
vn 3.579634 -5.049325 -0.905541
v 0.056752 0.039299 0.708670
vn 4.265898 -3.998215 -1.232667
v 0.056814 0.039394 0.708397
vn 1.014599 -4.854667 -0.355969
v 0.034398 0.002612 0.826048
vn 3.113885 -5.312444 -1.217081
v 0.054666 0.038603 0.706117
vn 3.003167 -5.403944 -1.114174
v 0.053463 0.036467 0.713234
vn -0.833703 -5.418195 -1.202209
v 0.033010 0.003522 0.820495
vn 1.483280 -5.823182 -1.110949
v 0.034397 0.002614 0.826038
vn 2.628663 -5.420931 -1.488132
v 0.054663 0.038603 0.706108
vn 2.393374 -5.638051 -1.287462
v 0.053457 0.036462 0.713243
vn -2.910547 -5.550036 0.109286
v 0.033816 0.002899 0.826056
vn -3.009131 -5.245047 -0.401897
v -0.080277 0.067101 0.826070
vn 1.465637 -5.665807 -1.847957
v 0.054659 0.038604 0.706100
vn -0.135948 -5.681223 -2.212012
v 0.054655 0.038605 0.706094
vn -2.655577 -5.122533 -2.443020
v 0.054069 0.038896 0.706088
vn -1.629671 -5.371971 -2.537043
v 0.054652 0.038608 0.706088
vn -3.000330 -5.127886 -2.044716
v -0.061242 0.100946 0.713261
vn -2.884451 -4.971545 -2.487819
v -0.060031 0.103099 0.706082
vn 5.098282 -3.065468 -1.422514
v 0.056944 0.039589 0.708397
vn 4.468792 -3.451068 -2.521963
v 0.054888 0.039053 0.705158
vn 3.628234 -3.693004 -2.806562
v 0.054883 0.039051 0.705153
vn 5.271968 -2.934812 -1.222858
v 0.176697 0.220052 0.791559
vn 4.925317 -2.449071 -2.943179
v 0.056838 0.042516 0.705158
vn 4.505104 -2.046937 -3.711022
v 0.056838 0.042523 0.705153
vn 3.738532 -1.399763 -4.593236
v 0.056837 0.042529 0.705150
vn 2.535665 -0.481874 -5.370445
v 0.056836 0.042534 0.705147
vn 5.023639 -2.706208 -2.625936
v 0.056838 0.042509 0.705165
vn 2.889099 5.467614 0.988141
v 0.051820 0.302105 0.782477
vn 2.550029 5.473513 1.690576
v 0.051237 0.302393 0.782477
vn 2.896694 5.483758 0.863573
v 0.051771 0.302135 0.782455
vn 2.532171 5.496458 1.621505
v 0.051188 0.302423 0.782455
vn 2.904384 5.499970 0.701036
v 0.051729 0.302160 0.782435
vn 2.506921 5.524582 1.528606
v 0.051146 0.302448 0.782435
vn 4.033783 0.039379 -4.797840
v 0.166198 0.236753 0.781955
vn 4.298739 2.136643 -1.322584
v 0.166621 0.237461 0.782385
vn 0.326729 0.909732 6.125059
v 0.030625 0.266030 0.903314
vn 0.930200 1.709122 5.885670
v 0.031208 0.265742 0.903314
vn 1.179756 1.898047 5.826172
v 0.145232 0.201584 0.903308
vn 2.912060 5.516707 0.465372
v 0.051693 0.302181 0.782419
vn 2.467591 5.560202 1.389365
v 0.051110 0.302468 0.782419
vn 2.840483 1.612052 4.298698
v 0.146125 0.201047 0.903279
vn 4.145289 2.271897 -1.369009
v 0.166605 0.237485 0.782372
vn 3.790946 4.282531 2.365031
v 0.146315 0.201533 0.902336
vn 0.533065 1.545034 5.809157
v 0.030600 0.266047 0.903313
vn 1.511769 2.797700 5.219684
v 0.031183 0.265759 0.903313
vn 1.998049 3.400882 4.647297
v 0.145233 0.201590 0.903305
vn 2.915693 5.526031 0.117052
v 0.051664 0.302197 0.782406
vn 2.404467 5.600615 1.179039
v 0.051080 0.302485 0.782406
vn 2.506912 -3.513088 -3.490278
v 0.054879 0.039049 0.705150
vn 3.887154 0.179051 -4.910013
v 0.166183 0.236779 0.781943
vn 3.660680 -0.042596 -5.104662
v 0.164380 0.233575 0.780676
vn 2.838892 1.918008 4.292900
v 0.146115 0.201067 0.903277
vn 3.908331 2.467927 -1.426556
v 0.166591 0.237504 0.782361
vn 0.696516 2.231079 5.202374
v 0.030582 0.266060 0.903311
vn 2.075985 3.875651 4.163246
v 0.031165 0.265772 0.903311
vn 2.897998 5.498598 -0.452719
v 0.051641 0.302209 0.782395
vn 2.267592 5.632749 0.802244
v 0.051058 0.302496 0.782395
vn -0.098913 5.365513 1.985108
v 0.030778 0.266513 0.902368
vn -2.858587 -5.447370 1.036071
v 0.033815 0.002900 0.826063
vn 0.946275 -3.063033 -4.026316
v 0.054874 0.039049 0.705147
vn 3.414374 0.160383 -5.267374
v 0.164364 0.233591 0.780666
vn 3.648189 0.394160 -5.068851
v 0.166171 0.236800 0.781934
vn 2.831435 2.399946 4.242503
v 0.146106 0.201082 0.903275
vn 3.486739 2.752957 -1.517790
v 0.166579 0.237518 0.782354
vn 0.489695 2.743081 4.463070
v 0.030568 0.266068 0.903308
vn -1.475299 -0.289850 5.931767
v 0.028605 0.262579 0.903308
vn -3.391592 0.237475 4.228113
v -0.078916 0.071511 0.827797
vn 2.348909 4.570795 3.515456
v 0.031151 0.265781 0.903308
vn 2.681169 4.587145 3.311752
v 0.145235 0.201591 0.903302
vn 2.776664 5.314195 -1.514616
v 0.051624 0.302216 0.782387
vn 1.898763 5.542565 0.059162
v 0.051041 0.302504 0.782387
vn 3.016756 5.346086 -1.296162
v 0.165704 0.238023 0.782381
vn -2.566485 -4.909512 2.675921
v 0.033814 0.002902 0.826068
vn -3.012784 -5.335738 1.361876
v -0.080283 0.067105 0.826071
vn -0.534007 -2.761274 -4.249225
v 0.054870 0.039050 0.705147
vn 0.473764 -4.227754 2.693673
v 0.034397 0.002614 0.826068
vn 0.679620 1.427678 -6.059823
v -0.057816 0.107021 0.705147
vn 0.706463 1.318864 -6.072644
v -0.057233 0.106733 0.705147
vn 0.245888 0.493039 -6.234490
v -0.057247 0.106736 0.705147
vn 0.641710 1.811371 -5.973519
v -0.058698 0.107527 0.705181
vn -2.060941 2.608724 -2.848005
v 0.050613 0.301812 0.781959
vn 0.227903 0.687600 -6.191705
v -0.057830 0.107024 0.705147
vn -1.219299 1.900637 -5.251562
v -0.058704 0.107526 0.705180
vn 0.947019 1.944406 -5.897704
v 0.051480 0.301313 0.781926
vn 1.172879 2.169892 -5.757536
v 0.052063 0.301025 0.781926
vn 1.068007 2.223849 -5.760172
v 0.051469 0.301320 0.781927
vn 3.225086 0.747426 -5.290577
v 0.166160 0.236817 0.781929
vn 2.964335 0.506696 -5.502727
v 0.164352 0.233604 0.780659
vn 1.370417 0.553779 -5.843995
v 0.056833 0.042539 0.705147
vn 0.255854 0.454658 -6.239564
v 0.049481 0.046677 0.705147
vn 1.002620 1.770477 -5.944598
v 0.056831 0.042544 0.705148
vn 1.490353 2.042880 -5.709939
v 0.166146 0.236837 0.781927
vn 0.902761 1.838901 -5.938739
v 0.164335 0.233620 0.780656
vn -2.970960 -5.280628 1.661722
v 0.032933 0.003406 0.826097
vn -2.656542 -4.736836 2.878015
v 0.032940 0.003404 0.826101
vn -2.336497 -3.731647 3.538493
v -0.081139 0.067597 0.826104
vn -0.702795 -3.632281 4.630325
v 0.034395 0.002618 0.826070
vn 2.776702 3.238038 4.013262
v 0.146098 0.201093 0.903273
vn 3.502134 4.794128 2.029351
v 0.147526 0.203685 0.895160
vn 2.861413 5.088647 -2.227696
v 0.052498 0.301715 0.782354
vn 2.081436 3.749827 -4.135190
v 0.052479 0.301723 0.782350
vn 2.121851 4.213228 -3.633772
v 0.051614 0.302219 0.782383
vn 2.364547 3.754233 -3.344836
v 0.166560 0.237531 0.782348
vn -1.098297 3.053701 3.318532
v 0.030561 0.266073 0.903305
vn -3.220898 0.916228 4.446327
v 0.028596 0.262581 0.903305
vn -0.566688 5.689047 1.611014
v 0.031989 0.268665 0.895193
vn 0.182882 4.241928 -1.281603
v 0.051031 0.302507 0.782383
vn -2.667130 -4.968152 -2.756336
v 0.054066 0.038899 0.706085
vn -1.839944 -3.562376 4.612957
v 0.033812 0.002905 0.826070
vn -2.452897 -5.006188 -2.898067
v 0.054649 0.038612 0.706085
vn -2.401818 -4.924758 -3.068056
v 0.054866 0.039051 0.705148
vn -0.216121 -0.384055 -6.252123
v -0.052441 0.099397 0.705147
vn -1.181761 -2.373277 -4.826743
v 0.054287 0.039337 0.705147
vn -1.246997 -2.011812 -5.446659
v -0.059807 0.103535 0.705148
vn -0.259247 -0.321873 -6.251107
v -0.059794 0.103535 0.705147
vn -2.432170 -4.497313 -3.544093
v 0.054283 0.039339 0.705148
vn -1.871755 -3.326471 -4.958199
v -0.052448 0.099394 0.705148
vn -2.430379 -4.071067 -3.898854
v -0.059815 0.103537 0.705150
vn -0.981521 0.424597 -6.109068
v -0.060668 0.104036 0.705180
vn -2.872212 0.200834 -2.636608
v -0.060672 0.104032 0.705180
vn 2.298632 1.411527 -5.553944
v 0.166152 0.236829 0.781926
vn 1.977425 1.174289 -5.786913
v 0.164342 0.233614 0.780656
vn -1.847771 -3.437275 4.736452
v 0.032947 0.003402 0.826103
vn -5.552877 2.931399 0.146120
v -0.081140 0.067601 0.826101
vn -5.640078 2.731400 -0.084516
v -0.080922 0.068043 0.825159
vn -2.838091 -1.124975 0.876484
v -0.081142 0.067598 0.826103
vn -5.522816 2.920620 0.527437
v 0.028179 0.261887 0.902881
vn -3.436841 2.111315 -2.995600
v -0.058707 0.107524 0.705180
vn -5.810980 2.365193 -0.271356
v -0.061883 0.101879 0.712356
vn -5.826135 2.331601 -0.257250
v -0.080925 0.068037 0.825166
vn -5.480406 3.070243 0.091629
v 0.028395 0.262324 0.901948
vn -5.448635 3.124942 0.094998
v 0.030361 0.265817 0.901948
vn -5.441330 3.140775 0.023754
v 0.031572 0.267971 0.894770
vn -1.285018 -2.605059 5.571422
v 0.034229 0.003602 0.826494
vn 2.874473 4.484031 3.273336
v 0.146092 0.201099 0.903270
vn 1.440784 2.777698 -5.439826
v 0.052467 0.301726 0.782348
vn 1.519305 2.700216 -5.461650
v 0.159198 0.241673 0.782348
vn 1.432713 2.886978 -5.381333
v 0.051611 0.302218 0.782381
vn -1.575233 -2.301759 5.616587
v -0.080725 0.068291 0.826525
vn -3.693558 3.881694 1.730853
v 0.030559 0.266074 0.903302
vn -5.158231 2.402123 1.944906
v 0.028593 0.262581 0.903302
vn -3.993161 4.396680 0.644936
v 0.031987 0.268665 0.895191
vn -3.708819 4.374101 1.034832
v 0.030775 0.266511 0.902370
vn -1.499079 3.229551 -1.917079
v 0.051027 0.302506 0.782381
vn -3.514095 -4.761092 -2.021406
v -0.062098 0.101438 0.713293
vn -3.496130 -3.169210 -3.326352
v -0.060671 0.104028 0.705182
vn 1.180556 2.328962 -5.703478
v 0.052052 0.301033 0.781927
vn 1.278661 2.272523 -5.707195
v 0.158784 0.240980 0.781927
vn -5.472882 -0.480615 -1.156358
v -0.060889 0.103592 0.706118
vn -5.455577 -0.553714 -1.086994
v -0.062100 0.101440 0.713293
vn -4.066842 -3.681035 -2.307603
v -0.060887 0.103591 0.706115
vn 1.283475 2.601730 -5.573325
v 0.051196 0.301524 0.781959
vn -5.464660 3.090675 0.240981
v 0.030145 0.265380 0.902881
# 211 vertices, 0 vertices normals

f 1//1 2//2 3//3
f 1//1 3//3 4//4
f 1//1 5//5 6//6
f 1//1 4//4 5//5
f 1//1 6//6 2//2
f 2//2 7//7 8//8
f 2//2 8//8 3//3
f 2//2 6//6 7//7
f 7//7 9//9 10//10
f 7//7 10//10 8//8
f 7//7 6//6 11//11
f 7//7 11//11 12//12
f 7//7 12//12 13//13
f 7//7 13//13 9//9
f 3//3 8//8 14//14
f 3//3 14//14 4//4
f 9//9 15//15 10//10
f 9//9 16//16 15//15
f 9//9 17//17 18//18
f 9//9 18//18 16//16
f 9//9 19//19 17//17
f 9//9 20//20 19//19
f 9//9 21//21 22//22
f 9//9 22//22 23//23
f 9//9 13//13 21//21
f 9//9 23//23 20//20
f 8//8 10//10 24//24
f 8//8 24//24 14//14
f 10//10 15//15 24//24
f 15//15 25//25 26//26
f 15//15 27//27 28//28
f 15//15 26//26 27//27
f 15//15 28//28 29//29
f 15//15 29//29 24//24
f 15//15 16//16 25//25
f 30//30 31//31 32//32
f 30//30 25//25 16//16
f 30//30 32//32 25//25
f 30//30 16//16 31//31
f 31//31 33//33 34//34
f 31//31 35//35 36//36
f 31//31 37//37 35//35
f 31//31 38//38 37//37
f 31//31 26//26 32//32
f 31//31 34//34 38//38
f 31//31 39//39 26//26
f 31//31 40//40 39//39
f 31//31 16//16 33//33
f 31//31 41//41 40//40
f 31//31 36//36 41//41
f 25//25 32//32 26//26
f 5//5 4//4 42//42
f 5//5 43//43 6//6
f 5//5 42//42 43//43
f 4//4 14//14 44//44
f 4//4 45//45 42//42
f 4//4 44//44 46//46
f 4//4 46//46 45//45
f 14//14 24//24 29//29
f 14//14 29//29 44//44
f 47//47 48//48 49//49
f 47//47 50//50 51//51
f 47//47 52//52 50//50
f 47//47 53//53 52//52
f 47//47 54//54 55//55
f 47//47 51//51 56//56
f 47//47 56//56 54//54
f 47//47 49//49 53//53
f 47//47 55//55 48//48
f 48//48 57//57 49//49
f 48//48 58//58 57//57
f 48//48 59//59 58//58
f 48//48 55//55 59//59
f 60//60 61//61 62//62
f 60//60 63//63 61//61
f 60//60 64//64 63//63
f 60//60 62//62 64//64
f 65//65 66//66 62//62
f 65//65 67//67 68//68
f 65//65 62//62 16//16
f 65//65 68//68 66//66
f 65//65 69//69 70//70
f 65//65 71//71 67//67
f 65//65 16//16 69//69
f 65//65 72//72 71//71
f 65//65 73//73 74//74
f 65//65 74//74 72//72
f 65//65 70//70 75//75
f 65//65 76//76 73//73
f 65//65 75//75 76//76
f 61//61 77//77 16//16
f 61//61 63//63 67//67
f 61//61 78//78 77//77
f 61//61 67//67 79//79
f 61//61 79//79 78//78
f 61//61 16//16 62//62
f 33//33 80//80 81//81
f 33//33 81//81 82//82
f 33//33 82//82 83//83
f 33//33 16//16 80//80
f 33//33 83//83 84//84
f 33//33 84//84 34//34
f 80//80 77//77 81//81
f 80//80 16//16 77//77
f 77//77 85//85 81//81
f 77//77 78//78 85//85
f 50//50 52//52 51//51
f 52//52 53//53 86//86
f 52//52 87//87 51//51
f 52//52 86//86 87//87
f 53//53 49//49 86//86
f 35//35 37//37 36//36
f 87//87 86//86 88//88
f 87//87 89//89 51//51
f 87//87 88//88 89//89
f 86//86 49//49 88//88
f 37//37 38//38 36//36
f 89//89 88//88 90//90
f 89//89 91//91 51//51
f 89//89 90//90 91//91
f 88//88 49//49 90//90
f 85//85 78//78 81//81
f 27//27 26//26 39//39
f 27//27 39//39 28//28
f 38//38 34//34 92//92
f 38//38 93//93 36//36
f 38//38 92//92 93//93
f 43//43 42//42 94//94
f 43//43 94//94 6//6
f 42//42 45//45 95//95
f 42//42 95//95 94//94
f 45//45 46//46 96//96
f 45//45 96//96 95//95
f 91//91 90//90 97//97
f 91//91 98//98 51//51
f 91//91 97//97 98//98
f 90//90 49//49 97//97
f 63//63 64//64 68//68
f 63//63 68//68 67//67
f 66//66 68//68 62//62
f 64//64 62//62 68//68
f 78//78 79//79 81//81
f 34//34 84//84 92//92
f 81//81 79//79 82//82
f 28//28 39//39 40//40
f 28//28 99//99 29//29
f 28//28 40//40 99//99
f 93//93 92//92 100//100
f 93//93 100//100 101//101
f 93//93 101//101 36//36
f 6//6 94//94 102//102
f 6//6 102//102 11//11
f 94//94 95//95 103//103
f 94//94 103//103 102//102
f 29//29 99//99 44//44
f 95//95 96//96 104//104
f 95//95 104//104 103//103
f 98//98 97//97 105//105
f 98//98 106//106 51//51
f 98//98 105//105 106//106
f 97//97 49//49 105//105
f 67//67 71//71 107//107
f 67//67 107//107 79//79
f 79//79 107//107 82//82
f 92//92 108//108 100//100
f 92//92 109//109 108//108
f 92//92 84//84 109//109
f 82//82 107//107 83//83
f 99//99 40//40 41//41
f 99//99 110//110 44//44
f 99//99 41//41 110//110
f 100//100 108//108 111//111
f 100//100 111//111 101//101
f 11//11 102//102 112//112
f 11//11 112//112 12//12
f 102//102 103//103 113//113
f 102//102 113//113 112//112
f 44//44 110//110 46//46
f 103//103 104//104 113//113
f 106//106 105//105 114//114
f 106//106 115//115 116//116
f 106//106 114//114 115//115
f 106//106 116//116 51//51
f 105//105 49//49 114//114
f 69//69 16//16 117//117
f 69//69 117//117 70//70
f 71//71 72//72 118//118
f 71//71 118//118 107//107
f 16//16 18//18 117//117
f 107//107 118//118 83//83
f 108//108 109//109 119//119
f 108//108 120//120 111//111
f 108//108 119//119 120//120
f 109//109 84//84 119//119
f 83//83 118//118 84//84
f 17//17 19//19 18//18
f 110//110 41//41 36//36
f 110//110 121//121 46//46
f 110//110 36//36 121//121
f 111//111 120//120 122//122
f 111//111 122//122 101//101
f 12//12 112//112 123//123
f 12//12 124//124 125//125
f 12//12 123//123 124//124
f 12//12 125//125 13//13
f 112//112 113//113 126//126
f 112//112 126//126 123//123
f 46//46 121//121 96//96
f 113//113 104//104 127//127
f 113//113 127//127 126//126
f 115//115 114//114 128//128
f 115//115 129//129 116//116
f 115//115 128//128 129//129
f 114//114 49//49 130//130
f 114//114 130//130 128//128
f 54//54 56//56 55//55
f 117//117 18//18 131//131
f 117//117 131//131 132//132
f 117//117 132//132 70//70
f 72//72 74//74 133//133
f 72//72 133//133 118//118
f 18//18 19//19 134//134
f 18//18 134//134 131//131
f 135//135 136//136 137//137
f 135//135 138//138 139//139
f 135//135 140//140 141//141
f 135//135 137//137 140//140
f 135//135 141//141 138//138
f 135//135 142//142 143//143
f 135//135 143//143 136//136
f 135//135 144//144 142//142
f 135//135 139//139 144//144
f 118//118 133//133 84//84
f 120//120 119//119 145//145
f 120//120 145//145 122//122
f 119//119 84//84 146//146
f 119//119 146//146 145//145
f 84//84 133//133 147//147
f 84//84 147//147 146//146
f 136//136 147//147 148//148
f 136//136 148//148 137//137
f 136//136 149//149 147//147
f 136//136 143//143 150//150
f 136//136 150//150 151//151
f 136//136 151//151 149//149
f 152//152 131//131 153//153
f 152//152 153//153 154//154
f 152//152 132//132 131//131
f 152//152 154//154 132//132
f 138//138 141//141 139//139
f 19//19 20//20 155//155
f 19//19 155//155 134//134
f 121//121 36//36 156//156
f 121//121 156//156 96//96
f 122//122 145//145 57//57
f 122//122 157//157 101//101
f 122//122 57//57 157//157
f 36//36 101//101 156//156
f 158//158 128//128 130//130
f 158//158 159//159 160//160
f 158//158 160//160 128//128
f 158//158 161//161 159//159
f 158//158 130//130 161//161
f 124//124 123//123 162//162
f 124//124 163//163 125//125
f 124//124 162//162 163//163
f 123//123 126//126 51//51
f 123//123 51//51 162//162
f 96//96 156//156 104//104
f 126//126 56//56 51//51
f 126//126 127//127 56//56
f 129//129 128//128 160//160
f 129//129 164//164 116//116
f 129//129 165//165 164//164
f 129//129 160//160 165//165
f 51//51 116//116 162//162
f 56//56 127//127 55//55
f 73//73 166//166 74//74
f 73//73 76//76 166//166
f 131//131 134//134 167//167
f 131//131 167//167 153//153
f 74//74 166//166 168//168
f 74//74 168//168 169//169
f 74//74 169//169 133//133
f 134//134 155//155 167//167
f 170//170 171//171 172//172
f 170//170 173//173 137//137
f 170//170 137//137 148//148
f 170//170 148//148 171//171
f 170//170 172//172 173//173
f 171//171 133//133 174//174
f 171//171 147//147 133//133
f 171//171 148//148 147//147
f 171//171 175//175 172//172
f 171//171 174//174 176//176
f 171//171 176//176 175//175
f 173//173 140//140 137//137
f 173//173 177//177 140//140
f 173//173 172//172 178//178
f 173//173 178//178 177//177
f 140//140 177//177 141//141
f 133//133 169//169 174//174
f 145//145 146//146 179//179
f 145//145 179//179 57//57
f 146//146 147//147 180//180
f 146//146 180//180 179//179
f 147//147 149//149 151//151
f 147//147 150//150 180//180
f 147//147 151//151 150//150
f 153//153 167//167 181//181
f 153//153 181//181 154//154
f 182//182 183//183 184//184
f 182//182 184//184 185//185
f 182//182 185//185 183//183
f 177//177 178//178 186//186
f 177//177 186//186 141//141
f 183//183 178//178 187//187
f 183//183 188//188 184//184
f 183//183 187//187 188//188
f 183//183 185//185 189//189
f 183//183 189//189 190//190
f 183//183 191//191 139//139
f 183//183 139//139 178//178
f 183//183 190//190 191//191
f 141//141 186//186 139//139
f 192//192 20//20 22//22
f 192//192 22//22 167//167
f 192//192 167//167 155//155
f 192//192 155//155 20//20
f 20//20 23//23 22//22
f 156//156 101//101 193//193
f 156//156 193//193 104//104
f 157//157 57//57 59//59
f 157//157 59//59 101//101
f 57//57 179//179 161//161
f 57//57 58//58 59//59
f 57//57 161//161 130//130
f 57//57 130//130 49//49
f 101//101 59//59 193//193
f 159//159 143//143 194//194
f 159//159 161//161 195//195
f 159//159 194//194 196//196
f 159//159 195//195 143//143
f 159//159 196//196 160//160
f 21//21 13//13 197//197
f 21//21 197//197 22//22
f 22//22 181//181 167//167
f 22//22 197//197 154//154
f 22//22 154//154 181//181
f 163//163 162//162 198//198
f 163//163 199//199 125//125
f 163//163 198//198 199//199
f 125//125 199//199 13//13
f 13//13 184//184 154//154
f 13//13 199//199 184//184
f 13//13 154//154 197//197
f 162//162 116//116 198//198
f 104//104 193//193 127//127
f 164//164 165//165 200//200
f 164//164 200//200 201//201
f 164//164 201//201 116//116
f 165//165 160//160 196//196
f 165//165 202//202 200//200
f 165//165 196//196 202//202
f 116//116 201//201 198//198
f 166//166 174//174 168//168
f 166//166 76//76 176//176
f 166//166 176//176 174//174
f 70//70 184//184 203//203
f 70//70 132//132 184//184
f 70//70 203//203 75//75
f 168//168 174//174 169//169
f 175//175 176//176 172//172
f 172//172 176//176 204//204
f 172//172 204//204 178//178
f 142//142 144//144 205//205
f 142//142 205//205 143//143
f 179//179 180//180 150//150
f 179//179 150//150 161//161
f 143//143 195//195 206//206
f 143//143 205//205 194//194
f 143//143 206//206 150//150
f 207//207 208//208 187//187
f 207//207 178//178 204//204
f 207//207 187//187 178//178
f 207//207 209//209 208//208
f 207//207 204//204 209//209
f 184//184 208//208 209//209
f 184//184 188//188 208//208
f 184//184 199//199 185//185
f 184//184 132//132 154//154
f 184//184 209//209 203//203
f 208//208 188//188 187//187
f 178//178 139//139 186//186
f 193//193 59//59 55//55
f 193//193 55//55 127//127
f 161//161 150//150 195//195
f 194//194 205//205 210//210
f 194//194 210//210 196//196
f 195//195 150//150 206//206
f 199//199 198//198 211//211
f 199//199 211//211 185//185
f 198//198 201//201 190//190
f 198//198 190//190 211//211
f 200//200 202//202 191//191
f 200//200 191//191 190//190
f 200//200 190//190 201//201
f 202//202 196//196 210//210
f 202//202 139//139 191//191
f 202//202 210//210 139//139
f 76//76 75//75 209//209
f 76//76 209//209 204//204
f 76//76 204//204 176//176
f 75//75 203//203 209//209
f 144//144 139//139 210//210
f 144//144 210//210 205//205
f 185//185 211//211 189//189
f 211//211 190//190 189//189
# 418 faces, 0 coords texture

# End of File
