####
#
# OBJ File Generated by Meshlab
#
####
# Object matlab_mesh_slc_step26_link2.obj
#
# Vertices: 189
# Faces: 374
#
####
vn -0.030885 -0.319937 6.266699
v -0.076289 0.285081 0.868128
vn -0.030898 -0.319947 6.266698
v -0.075851 0.285039 0.868128
vn 0.001514 0.015685 6.283146
v -0.075629 0.285053 0.868128
vn 0.001105 0.015993 6.283144
v -0.075783 0.285068 0.868128
vn -0.219630 -0.266722 6.255126
v -0.076443 0.285096 0.868128
vn -2.133386 -1.663926 2.012462
v -0.106619 0.048485 0.843606
vn -0.020105 -0.332981 6.265417
v 0.046081 0.273265 0.868128
vn 0.001515 0.015685 6.283146
v 0.046303 0.273279 0.868128
vn 3.010387 -0.443961 3.181108
v 0.046741 0.273237 0.868128
vn 0.001514 0.015684 -0.000040
v -0.075597 0.285384 0.868127
vn 0.001515 0.015684 -0.000040
v 0.046335 0.273610 0.868127
vn 2.511016 1.096025 2.254970
v 0.046773 0.273568 0.868127
vn 5.627561 -2.138363 0.401179
v 0.025138 0.045461 0.843578
vn 5.245763 -2.582098 0.360181
v 0.025139 0.045405 0.843203
vn 4.360412 -3.054597 0.891717
v 0.025138 0.045462 0.843587
vn 3.246300 -3.255296 1.451920
v 0.025136 0.045463 0.843595
vn 2.683453 -3.163735 2.233289
v 0.025134 0.045464 0.843601
vn 1.872958 -2.872084 3.521830
v 0.025131 0.045465 0.843604
vn -0.055547 -2.379986 5.508422
v -0.099070 0.048309 0.843606
vn 0.008754 -2.589917 5.308634
v 0.023364 0.045452 0.843606
vn 0.681024 -2.220090 5.295524
v 0.025128 0.045467 0.843606
vn 2.609797 -4.274242 0.364864
v 0.024613 0.044086 0.837630
vn 2.801359 -4.001188 -0.228679
v 0.024613 0.044086 0.837568
vn 5.828461 -1.894000 0.107868
v 0.025138 0.045404 0.843187
vn -0.080409 -5.975460 1.857455
v 0.023352 0.045449 0.843601
vn -0.475207 -5.000411 2.753129
v -0.106617 0.048485 0.843606
vn -3.121634 -3.156722 -0.052330
v -0.106619 0.048433 0.843253
vn -0.727591 -6.148714 0.642467
v -0.106617 0.048433 0.843257
vn 4.907438 2.266875 0.361399
v 0.046781 0.273654 0.867475
vn 4.274819 2.619197 0.186580
v 0.048287 0.289254 0.749167
vn 3.515685 5.114418 0.949919
v 0.030907 0.284837 0.866325
vn 3.509657 1.819935 -1.543970
v 0.048287 0.289254 0.749105
vn 2.557203 5.700756 0.023929
v 0.031163 0.297189 0.739686
vn 2.389402 5.787567 0.519125
v 0.031252 0.297148 0.739748
vn 1.139512 3.807415 3.194034
v 0.030709 0.284960 0.866313
vn 2.477122 5.756570 0.285732
v 0.031205 0.297170 0.739716
vn 3.311201 4.986239 1.636797
v 0.030867 0.284865 0.866324
vn 2.954667 4.680454 2.347764
v 0.030831 0.284889 0.866322
vn 2.449231 4.171614 2.954962
v 0.030799 0.284910 0.866321
vn 1.954850 3.664805 3.272926
v 0.030771 0.284927 0.866319
vn 1.551146 3.315692 3.370230
v 0.030746 0.284942 0.866317
vn 1.388942 3.445284 3.320042
v 0.030726 0.284952 0.866315
vn 0.054946 0.568931 -0.052434
v 0.046181 0.273625 0.868127
vn 0.056175 1.282575 6.015740
v -0.075751 0.285399 0.868127
vn 0.054896 0.568845 -0.052417
v 0.046618 0.273583 0.868127
vn -0.060258 2.042752 5.487061
v -0.076411 0.285427 0.868127
vn -0.430792 0.449926 6.234092
v -0.100964 0.287312 0.866418
vn -0.428860 -0.111453 6.266312
v -0.101020 0.283332 0.866421
vn -0.466419 -0.291466 6.249856
v -0.101058 0.283328 0.866418
vn -0.435958 0.014326 6.268025
v -0.100925 0.287306 0.866421
vn -0.038487 6.247740 0.348225
v -0.075065 0.301124 0.749140
vn 0.269729 6.254365 0.529075
v -0.074405 0.301096 0.749140
vn 0.775910 6.125867 -0.261856
v 0.030983 0.297257 0.739565
vn 0.062581 6.247844 -0.405231
v -0.075065 0.301124 0.749079
vn -0.322564 6.257487 0.248752
v -0.100242 0.300306 0.739823
vn -0.403623 6.246955 0.533309
v -0.099942 0.300315 0.739957
vn -0.653943 3.477731 3.306425
v -0.101041 0.287983 0.866314
vn -0.374408 6.254054 0.434082
v -0.100049 0.300312 0.739909
vn -0.351308 6.257173 0.350569
v -0.100149 0.300309 0.739864
vn 0.052109 5.108575 2.793324
v -0.099209 0.287997 0.866317
vn 0.219865 6.165084 1.074552
v 0.030688 0.284965 0.866310
vn -0.300228 3.538928 3.441746
v -0.101024 0.287983 0.866316
vn -0.050445 6.236220 0.761367
v -0.099268 0.287998 0.866313
vn -0.003871 5.755115 2.042860
v -0.099242 0.287998 0.866315
vn 0.074001 4.214676 4.632718
v -0.099123 0.287993 0.866321
vn 0.052185 4.535070 4.027038
v -0.099170 0.287996 0.866319
vn -0.115087 3.163542 5.319028
v -0.100969 0.287981 0.866319
vn -0.214749 3.123394 4.751302
v -0.101001 0.287982 0.866317
vn 0.633398 4.511930 2.854067
v 0.030696 0.284964 0.866312
vn 6.077391 -1.043654 -0.604199
v 0.026128 0.059772 0.718608
vn 6.015817 -1.805188 -0.161446
v 0.026120 0.059687 0.719260
vn 6.036972 -1.642446 -0.428005
v 0.025432 0.057721 0.716524
vn 6.142749 -0.501547 -0.866214
v 0.026160 0.060104 0.718607
vn 5.715636 -1.481805 -1.229364
v 0.025431 0.057717 0.716518
vn 5.078057 -2.050432 -1.741045
v 0.025429 0.057713 0.716514
vn 3.943341 -2.668942 -2.312097
v 0.025426 0.057710 0.716510
vn 2.343206 -3.066786 -2.801324
v 0.025423 0.057708 0.716508
vn -0.048755 -4.271402 -3.244031
v 0.023646 0.057693 0.716507
vn 0.877759 -3.250930 -3.215135
v 0.025419 0.057708 0.716507
vn -1.067957 -6.104640 -0.594509
v -0.106348 0.059950 0.724505
vn -0.800971 -5.223171 -2.209931
v -0.106330 0.060726 0.716507
vn 6.147748 -0.479958 -0.854511
v 0.048266 0.289029 0.749075
vn 2.563500 5.672218 -0.116808
v 0.031125 0.297207 0.739659
vn 3.107508 2.949303 -3.094333
v 0.031125 0.297150 0.739280
vn 5.662514 -0.220132 -2.659255
v 0.025425 0.058389 0.716418
vn 5.332284 -0.102890 -3.296408
v 0.025519 0.062363 0.716418
vn 4.663009 -0.003639 -4.139112
v 0.025517 0.062365 0.716415
vn 3.439270 0.142246 -5.142534
v 0.025514 0.062367 0.716412
vn -0.293501 6.253525 0.140345
v -0.100327 0.300304 0.739784
vn -0.289017 6.249158 0.083841
v -0.100404 0.300301 0.739748
vn 0.029376 6.249040 -0.617417
v -0.098643 0.300312 0.739716
vn 0.045092 6.239140 -0.691557
v -0.098713 0.300310 0.739686
vn 0.228227 6.226804 -0.778380
v 0.030974 0.297257 0.739560
vn -0.303828 6.245931 0.059728
v -0.100474 0.300298 0.739716
vn -0.323725 6.241001 0.026132
v -0.100536 0.300295 0.739686
vn 0.033104 6.236558 -0.727470
v -0.098775 0.300307 0.739659
vn -0.349145 6.234534 -0.012465
v -0.100591 0.300292 0.739660
vn 0.142470 6.210045 -0.945136
v -0.098775 0.300250 0.739280
vn 0.123836 6.199476 -1.009742
v -0.098830 0.300248 0.739261
vn 0.225363 3.343984 -3.559041
v 0.030975 0.297206 0.739211
vn 0.013056 6.233522 -0.766057
v -0.098831 0.300304 0.739636
vn -0.382502 6.224780 -0.062808
v -0.100639 0.300289 0.739636
vn 3.021722 2.968250 -3.105726
v 0.031091 0.297165 0.739261
vn 2.475517 5.707404 -0.120215
v 0.031091 0.297221 0.739636
vn -0.013662 6.228533 -0.815857
v -0.098879 0.300302 0.739616
vn -0.430798 6.209174 -0.128794
v -0.100679 0.300287 0.739616
vn -1.984702 2.859744 2.632092
v -0.101051 0.287982 0.866312
vn 0.092873 6.179671 -1.110895
v -0.098879 0.300247 0.739245
vn 2.886867 3.002913 -3.139322
v 0.031062 0.297178 0.739245
vn 2.344721 5.759590 -0.120927
v 0.031061 0.297233 0.739616
vn 5.065552 -0.253410 -3.574959
v 0.025423 0.058382 0.716415
vn 3.044124 0.460640 -5.476519
v 0.030965 0.293090 0.738848
vn -0.516165 0.459768 6.225115
v -0.100995 0.287317 0.866416
vn -0.583641 -0.289901 6.239400
v -0.101089 0.283326 0.866416
vn -0.041915 6.220105 -0.885887
v -0.098920 0.300299 0.739598
vn -0.522271 6.192844 -0.150913
v -0.100711 0.300284 0.739599
vn 0.058326 6.140453 -1.271902
v -0.098920 0.300245 0.739232
vn 2.692681 3.043715 -3.186046
v 0.031036 0.297189 0.739232
vn 2.156635 5.826575 -0.122416
v 0.031035 0.297243 0.739598
vn 3.911994 -0.317374 -4.702157
v 0.025420 0.058375 0.716412
vn 2.856392 0.474625 -5.574767
v 0.030940 0.293093 0.738834
vn -0.706851 0.456400 6.202194
v -0.101019 0.287322 0.866413
vn -0.797204 -0.284948 6.212157
v -0.101113 0.283324 0.866413
vn -0.071311 6.204633 -0.983948
v -0.100711 0.300230 0.739233
vn -0.151678 6.146165 -1.230872
v -0.100736 0.300228 0.739223
vn -0.722786 6.162605 -0.150562
v -0.100736 0.300281 0.739584
vn 2.394262 3.095983 -3.246790
v 0.031014 0.297197 0.739223
vn 1.873981 5.914374 -0.126343
v 0.031014 0.297250 0.739584
vn 0.043405 6.037408 -1.616599
v -0.098953 0.300243 0.739223
vn 2.377624 -0.391899 -5.601883
v 0.025417 0.058370 0.716410
vn 2.580283 0.493749 -5.704804
v 0.030918 0.293095 0.738824
vn 1.845151 0.258877 -5.898467
v 0.025511 0.062368 0.716410
vn -1.156900 0.447333 6.118614
v -0.101036 0.287326 0.866411
vn -1.296431 -0.271776 6.112768
v -0.101129 0.283323 0.866411
vn -3.147616 -0.370649 4.573522
v -0.106523 0.052595 0.844005
vn -0.032484 -5.089809 3.358570
v 0.023358 0.045450 0.843605
vn -0.364793 5.889019 -1.812832
v -0.100753 0.300226 0.739216
vn -1.182232 6.057969 -0.141730
v -0.100754 0.300278 0.739573
vn 1.907401 3.159513 -3.314326
v 0.030997 0.297202 0.739216
vn 1.414047 6.021456 -0.135382
v 0.030997 0.297255 0.739573
vn 0.037206 5.675808 -2.488668
v -0.098980 0.300241 0.739216
vn -0.127507 0.563166 -6.254097
v -0.106239 0.065399 0.716411
vn 0.006365 0.553021 -6.258499
v -0.104457 0.065414 0.716410
vn -0.001486 0.261375 -6.272279
v -0.104470 0.065406 0.716410
vn -2.398811 0.354030 -5.059652
v -0.106243 0.065391 0.716410
vn -2.595357 1.419804 -2.417155
v -0.100766 0.300222 0.739212
vn -0.004824 1.208696 -6.134593
v -0.099011 0.300237 0.739211
vn 0.939501 -0.531870 -6.065682
v 0.025414 0.058365 0.716410
vn 0.006558 0.280436 -6.270637
v 0.017964 0.062544 0.716410
vn 0.502553 0.290051 -6.213683
v 0.025507 0.062368 0.716410
vn 0.034032 1.459031 -6.048113
v 0.023422 0.297382 0.739211
vn 0.123918 0.604149 -6.251881
v 0.030879 0.293094 0.738812
vn 2.102392 0.522746 -5.888402
v 0.030901 0.293095 0.738817
vn 1.019289 0.572747 -6.143389
v 0.030888 0.293095 0.738813
vn 0.938957 3.159024 -3.341064
v 0.030984 0.297205 0.739212
vn -2.884611 0.397989 5.210169
v -0.101045 0.287329 0.866408
vn -3.124185 -0.192981 5.090286
v -0.101139 0.283323 0.866408
vn -1.313907 3.745393 -2.891132
v -0.100763 0.300224 0.739212
vn -2.780393 5.403313 0.517818
v -0.101033 0.288758 0.858318
vn -2.845827 5.041486 -0.159982
v -0.100764 0.300276 0.739565
vn 0.765903 6.189553 0.602097
v 0.030715 0.285739 0.858317
vn -0.063275 -2.710847 -5.296621
v -0.098783 0.060550 0.716507
vn 0.007360 -1.948448 -5.871605
v 0.023651 0.057693 0.716507
vn 0.109593 -2.030358 -5.800180
v 0.025415 0.057708 0.716506
vn -1.777306 -0.036601 -5.698116
v -0.106337 0.061389 0.716410
vn -0.003903 -0.166937 -6.279537
v -0.098794 0.061212 0.716410
vn -3.049489 -0.272256 -3.102912
v -0.106338 0.061380 0.716410
vn -0.000652 -0.016358 -6.283142
v -0.104563 0.061404 0.716410
vn -4.679121 0.122730 -2.752151
v -0.106244 0.065386 0.716410
vn -0.006612 -0.372048 -6.262954
v 0.023640 0.058350 0.716410
vn -0.000387 -0.016536 -6.283142
v -0.097020 0.061227 0.716410
vn 0.084909 -0.826901 -6.225479
v 0.025409 0.058361 0.716410
vn -0.017287 -0.740556 -6.236885
v -0.098788 0.061204 0.716410
vn -0.003415 -0.801784 -6.230592
v 0.023645 0.058346 0.716410
vn -0.001952 3.590416 -4.422416
v -0.098999 0.300239 0.739212
vn -5.165070 0.326082 2.990327
v -0.101047 0.287332 0.866406
vn -5.405683 0.005881 2.555269
v -0.101141 0.283325 0.866406
vn -6.256002 0.054903 0.375244
v -0.106625 0.049138 0.843510
vn -6.210221 0.141782 0.665706
v -0.101146 0.283973 0.866310
vn -6.282166 0.093049 -0.012962
v -0.106338 0.061432 0.716763
vn -6.282289 0.088528 -0.005634
v -0.106356 0.060656 0.724757
vn -5.011175 2.572994 -0.270971
v -0.100766 0.300273 0.739560
vn -6.281421 0.147424 -0.015329
v -0.106244 0.065438 0.716763
vn -6.282998 -0.013248 -0.015508
v -0.106356 0.060604 0.724405
vn -6.282982 -0.015824 -0.010606
v -0.106624 0.049086 0.843157
vn -4.564781 1.831666 1.613000
v -0.101053 0.287981 0.866310
vn -5.203453 2.432206 0.224133
v -0.101035 0.288756 0.858313
vn -2.256236 -1.708761 -2.064888
v -0.106332 0.060727 0.716507
vn -4.182413 -2.978555 -0.298362
v -0.106350 0.059951 0.724501
# 189 vertices, 0 vertices normals

f 1//1 2//2 3//3
f 1//1 3//3 4//4
f 1//1 5//5 6//6
f 1//1 4//4 5//5
f 1//1 6//6 2//2
f 2//2 7//7 3//3
f 2//2 6//6 7//7
f 7//7 8//8 3//3
f 7//7 9//9 8//8
f 7//7 6//6 9//9
f 3//3 8//8 10//10
f 3//3 10//10 4//4
f 8//8 9//9 11//11
f 8//8 11//11 10//10
f 9//9 12//12 11//11
f 9//9 13//13 14//14
f 9//9 14//14 12//12
f 9//9 15//15 13//13
f 9//9 16//16 15//15
f 9//9 17//17 16//16
f 9//9 18//18 17//17
f 9//9 6//6 19//19
f 9//9 19//19 20//20
f 9//9 20//20 21//21
f 9//9 21//21 18//18
f 22//22 23//23 24//24
f 22//22 24//24 14//14
f 22//22 14//14 15//15
f 22//22 15//15 16//16
f 22//22 16//16 17//17
f 22//22 25//25 26//26
f 22//22 17//17 25//25
f 22//22 27//27 23//23
f 22//22 26//26 28//28
f 22//22 28//28 27//27
f 29//29 30//30 31//31
f 29//29 12//12 24//24
f 29//29 31//31 12//12
f 29//29 24//24 30//30
f 30//30 32//32 33//33
f 30//30 34//34 35//35
f 30//30 36//36 34//34
f 30//30 33//33 36//36
f 30//30 37//37 31//31
f 30//30 38//38 37//37
f 30//30 24//24 32//32
f 30//30 39//39 38//38
f 30//30 40//40 39//39
f 30//30 41//41 40//40
f 30//30 42//42 41//41
f 30//30 35//35 42//42
f 10//10 11//11 43//43
f 10//10 44//44 4//4
f 10//10 43//43 44//44
f 11//11 12//12 45//45
f 11//11 45//45 43//43
f 12//12 31//31 37//37
f 12//12 37//37 38//38
f 12//12 38//38 39//39
f 12//12 39//39 40//40
f 12//12 14//14 24//24
f 12//12 40//40 41//41
f 12//12 41//41 45//45
f 5//5 4//4 46//46
f 5//5 46//46 47//47
f 5//5 48//48 49//49
f 5//5 50//50 48//48
f 5//5 49//49 6//6
f 5//5 47//47 50//50
f 4//4 44//44 46//46
f 51//51 52//52 53//53
f 51//51 54//54 55//55
f 51//51 56//56 57//57
f 51//51 58//58 56//56
f 51//51 59//59 58//58
f 51//51 55//55 59//59
f 51//51 60//60 61//61
f 51//51 62//62 63//63
f 51//51 64//64 60//60
f 51//51 57//57 62//62
f 51//51 63//63 64//64
f 51//51 53//53 54//54
f 51//51 61//61 52//52
f 52//52 61//61 53//53
f 46//46 44//44 35//35
f 46//46 65//65 66//66
f 46//46 67//67 68//68
f 46//46 66//66 67//67
f 46//46 68//68 47//47
f 46//46 35//35 69//69
f 46//46 69//69 65//65
f 44//44 43//43 41//41
f 44//44 41//41 42//42
f 44//44 42//42 35//35
f 43//43 45//45 41//41
f 70//70 71//71 72//72
f 70//70 73//73 24//24
f 70//70 72//72 74//74
f 70//70 24//24 71//71
f 70//70 74//74 73//73
f 23//23 71//71 24//24
f 23//23 72//72 71//71
f 23//23 74//74 72//72
f 23//23 75//75 74//74
f 23//23 76//76 75//75
f 23//23 77//77 76//76
f 23//23 78//78 79//79
f 23//23 79//79 77//77
f 23//23 27//27 80//80
f 23//23 81//81 78//78
f 23//23 80//80 81//81
f 32//32 82//82 74//74
f 32//32 83//83 33//33
f 32//32 24//24 82//82
f 32//32 84//84 83//83
f 32//32 74//74 85//85
f 32//32 85//85 86//86
f 32//32 86//86 87//87
f 32//32 87//87 88//88
f 32//32 88//88 84//84
f 82//82 73//73 74//74
f 82//82 24//24 73//73
f 54//54 89//89 55//55
f 54//54 90//90 89//89
f 54//54 91//91 90//90
f 54//54 92//92 91//91
f 54//54 53//53 93//93
f 54//54 93//93 92//92
f 56//56 58//58 57//57
f 58//58 59//59 57//57
f 59//59 55//55 57//57
f 55//55 89//89 57//57
f 89//89 90//90 57//57
f 90//90 94//94 57//57
f 90//90 91//91 94//94
f 34//34 36//36 35//35
f 94//94 91//91 92//92
f 94//94 95//95 57//57
f 94//94 92//92 95//95
f 36//36 33//33 35//35
f 95//95 92//92 96//96
f 95//95 97//97 57//57
f 95//95 96//96 97//97
f 92//92 98//98 99//99
f 92//92 99//99 96//96
f 92//92 93//93 100//100
f 92//92 100//100 98//98
f 33//33 83//83 35//35
f 97//97 96//96 101//101
f 97//97 102//102 57//57
f 97//97 101//101 102//102
f 96//96 99//99 101//101
f 83//83 84//84 103//103
f 83//83 104//104 35//35
f 83//83 103//103 104//104
f 98//98 100//100 99//99
f 84//84 88//88 103//103
f 48//48 50//50 47//47
f 48//48 47//47 49//49
f 13//13 15//15 14//14
f 102//102 101//101 105//105
f 102//102 106//106 107//107
f 102//102 105//105 106//106
f 102//102 107//107 57//57
f 101//101 99//99 108//108
f 101//101 108//108 105//105
f 65//65 69//69 66//66
f 104//104 103//103 109//109
f 104//104 110//110 35//35
f 104//104 109//109 110//110
f 74//74 75//75 85//85
f 85//85 75//75 111//111
f 85//85 111//111 86//86
f 99//99 100//100 108//108
f 103//103 112//112 109//109
f 103//103 88//88 112//112
f 86//86 111//111 87//87
f 49//49 47//47 113//113
f 49//49 114//114 6//6
f 49//49 113//113 114//114
f 47//47 68//68 113//113
f 106//106 105//105 115//115
f 106//106 116//116 107//107
f 106//106 115//115 116//116
f 67//67 66//66 60//60
f 67//67 60//60 68//68
f 105//105 108//108 117//117
f 105//105 117//117 115//115
f 66//66 69//69 60//60
f 110//110 109//109 118//118
f 110//110 119//119 35//35
f 110//110 118//118 119//119
f 75//75 76//76 111//111
f 111//111 76//76 120//120
f 111//111 120//120 87//87
f 108//108 100//100 117//117
f 109//109 112//112 121//121
f 109//109 121//121 118//118
f 112//112 88//88 121//121
f 87//87 120//120 88//88
f 114//114 113//113 122//122
f 114//114 123//123 6//6
f 114//114 122//122 123//123
f 113//113 68//68 62//62
f 113//113 62//62 122//122
f 116//116 115//115 117//117
f 116//116 124//124 125//125
f 116//116 117//117 124//124
f 116//116 126//126 107//107
f 116//116 125//125 126//126
f 68//68 60//60 64//64
f 68//68 64//64 62//62
f 60//60 69//69 61//61
f 119//119 118//118 127//127
f 119//119 128//128 69//69
f 119//119 127//127 128//128
f 119//119 69//69 35//35
f 76//76 77//77 120//120
f 124//124 117//117 129//129
f 124//124 129//129 125//125
f 120//120 77//77 130//130
f 120//120 130//130 88//88
f 117//117 100//100 129//129
f 118//118 121//121 131//131
f 118//118 131//131 127//127
f 121//121 88//88 132//132
f 121//121 132//132 131//131
f 88//88 130//130 132//132
f 123//123 122//122 133//133
f 123//123 134//134 135//135
f 123//123 133//133 134//134
f 123//123 135//135 6//6
f 25//25 17//17 136//136
f 25//25 136//136 26//26
f 122//122 62//62 57//57
f 122//122 57//57 133//133
f 17//17 18//18 136//136
f 126//126 125//125 137//137
f 126//126 138//138 107//107
f 126//126 137//137 138//138
f 62//62 64//64 63//63
f 128//128 127//127 139//139
f 128//128 140//140 69//69
f 128//128 139//139 140//140
f 77//77 79//79 130//130
f 125//125 129//129 141//141
f 125//125 141//141 137//137
f 142//142 143//143 144//144
f 142//142 145//145 146//146
f 142//142 144//144 145//145
f 142//142 146//146 147//147
f 142//142 147//147 143//143
f 130//130 79//79 148//148
f 130//130 148//148 132//132
f 129//129 100//100 141//141
f 143//143 149//149 144//144
f 143//143 150//150 149//149
f 143//143 147//147 151//151
f 143//143 151//151 100//100
f 143//143 100//100 152//152
f 143//143 152//152 150//150
f 127//127 131//131 139//139
f 131//131 132//132 153//153
f 131//131 153//153 139//139
f 132//132 148//148 150//150
f 132//132 150//150 154//154
f 132//132 155//155 153//153
f 132//132 154//154 155//155
f 134//134 133//133 156//156
f 134//134 157//157 135//135
f 134//134 156//156 157//157
f 136//136 18//18 20//20
f 136//136 20//20 26//26
f 133//133 57//57 107//107
f 133//133 107//107 156//156
f 18//18 21//21 20//20
f 138//138 137//137 158//158
f 138//138 159//159 107//107
f 138//138 160//160 159//159
f 138//138 158//158 160//160
f 140//140 139//139 155//155
f 140//140 161//161 69//69
f 140//140 53//53 161//161
f 140//140 155//155 53//53
f 78//78 162//162 163//163
f 78//78 163//163 79//79
f 78//78 81//81 162//162
f 79//79 163//163 164//164
f 79//79 164//164 148//148
f 165//165 166//166 167//167
f 165//165 145//145 168//168
f 165//165 168//168 166//166
f 165//165 167//167 169//169
f 165//165 169//169 145//145
f 166//166 170//170 167//167
f 166//166 168//168 171//171
f 166//166 171//171 170//170
f 170//170 171//171 148//148
f 170//170 148//148 172//172
f 170//170 173//173 167//167
f 170//170 174//174 173//173
f 170//170 172//172 174//174
f 137//137 141//141 175//175
f 137//137 175//175 158//158
f 145//145 144//144 168//168
f 145//145 169//169 146//146
f 168//168 144//144 171//171
f 171//171 144//144 149//149
f 171//171 149//149 148//148
f 148//148 149//149 150//150
f 148//148 164//164 172//172
f 141//141 100//100 175//175
f 139//139 153//153 155//155
f 150//150 100//100 154//154
f 150//150 152//152 100//100
f 157//157 156//156 176//176
f 157//157 177//177 135//135
f 157//157 176//176 177//177
f 135//135 177//177 6//6
f 6//6 178//178 27//27
f 6//6 27//27 28//28
f 6//6 177//177 179//179
f 6//6 26//26 19//19
f 6//6 179//179 178//178
f 6//6 28//28 26//26
f 19//19 26//26 20//20
f 156//156 107//107 176//176
f 180//180 181//181 182//182
f 180//180 183//183 169//169
f 180//180 167//167 184//184
f 180//180 184//184 181//181
f 180//180 169//169 167//167
f 180//180 182//182 183//183
f 178//178 181//181 185//185
f 178//178 185//185 27//27
f 178//178 179//179 186//186
f 178//178 187//187 182//182
f 178//178 182//182 181//181
f 178//178 186//186 187//187
f 181//181 184//184 185//185
f 159//159 160//160 187//187
f 159//159 187//187 186//186
f 159//159 186//186 107//107
f 160//160 158//158 182//182
f 160//160 182//182 187//187
f 107//107 186//186 176//176
f 183//183 182//182 169//169
f 161//161 53//53 61//61
f 161//161 61//61 69//69
f 53//53 155//155 93//93
f 188//188 189//189 184//184
f 188//188 162//162 81//81
f 188//188 167//167 173//173
f 188//188 184//184 167//167
f 188//188 173//173 162//162
f 188//188 81//81 189//189
f 27//27 189//189 81//81
f 27//27 185//185 189//189
f 27//27 81//81 80//80
f 189//189 185//185 184//184
f 162//162 173//173 163//163
f 163//163 173//173 174//174
f 163//163 174//174 172//172
f 163//163 172//172 164//164
f 158//158 175//175 147//147
f 158//158 146//146 182//182
f 158//158 147//147 146//146
f 169//169 182//182 146//146
f 175//175 151//151 147//147
f 175//175 100//100 151//151
f 155//155 154//154 100//100
f 155//155 100//100 93//93
f 177//177 176//176 179//179
f 176//176 186//186 179//179
# 374 faces, 0 coords texture

# End of File
