####
#
# OBJ File Generated by Meshlab
#
####
# Object matlab_mesh_step25_link4.obj
#
# Vertices: 207
# Faces: 410
#
####
vn -0.197653 -0.863228 6.213769
v -0.018786 0.604583 0.937400
vn 0.082718 -0.886411 6.208289
v -0.016810 0.604353 0.937400
vn 0.048604 -0.176563 6.256186
v -0.016976 0.605358 0.937503
vn -0.204431 0.534720 6.120126
v -0.018952 0.605588 0.937503
vn -0.387963 -0.885433 6.202563
v -0.100515 0.597867 0.932247
vn -0.277379 -1.156824 6.166165
v -0.064807 0.392574 0.898836
vn 0.792026 -0.710434 6.146586
v -0.015554 0.604563 0.937379
vn 0.558928 0.485266 6.068033
v -0.015720 0.605568 0.937482
vn -0.079258 -1.118594 6.182142
v -0.053199 0.397451 0.899918
vn -0.030835 -1.116339 6.183129
v -0.019149 0.396222 0.899918
vn 0.419324 -2.047455 5.811574
v -0.013780 0.383932 0.897721
vn 0.957085 -2.721405 5.172295
v -0.006958 0.385674 0.897721
vn 6.221192 0.796783 0.067091
v 0.085841 0.618217 0.913079
vn 6.223312 0.759938 0.299999
v 0.085810 0.618000 0.914620
vn 5.897816 -1.043812 0.746724
v 0.103682 0.415142 0.889682
vn 4.578605 3.204073 0.376876
v 0.085675 0.619222 0.913182
vn 4.529220 3.218886 0.697414
v 0.085643 0.619005 0.914723
vn 6.178982 0.925436 -0.450090
v 0.085816 0.618293 0.912299
vn 6.268966 0.240495 0.105617
v 0.103978 0.418720 0.870416
vn 6.163478 -0.303535 -0.414345
v 0.104175 0.421422 0.844134
vn 5.900123 -1.508305 -0.215924
v 0.103860 0.405817 0.867412
vn 5.089278 -2.874000 -0.304030
v 0.103847 0.405731 0.867808
vn 3.292740 -4.540263 -0.723821
v 0.103822 0.405807 0.867028
vn 6.248732 -0.525348 0.060223
v 0.103828 0.405600 0.868953
vn 3.837606 -3.239297 -0.784467
v 0.103834 0.405893 0.866631
vn 6.282649 -0.064784 0.031218
v 0.104174 0.421406 0.844179
vn 3.335764 -3.161779 0.444620
v 0.103815 0.405514 0.869349
vn 2.510602 -5.493753 -0.670873
v 0.103790 0.405590 0.868569
vn 3.858472 0.114412 3.143870
v 0.085797 0.617913 0.915016
vn 3.018532 1.646333 2.582922
v 0.085631 0.618918 0.915120
vn 1.413133 -0.514394 6.099383
v -0.015150 0.604616 0.937290
vn 1.491201 -0.492436 6.080958
v 0.085572 0.617937 0.915076
vn 1.387679 -0.286835 6.120325
v -0.015317 0.605621 0.937394
vn 1.446996 -1.360231 5.821384
v 0.103650 0.415172 0.889757
vn 1.546762 -0.004735 6.073402
v 0.085406 0.618942 0.915180
vn 4.554778 -2.112710 1.571258
v 0.103679 0.415152 0.889715
vn 3.708810 -2.293200 2.535512
v 0.103672 0.415158 0.889737
vn 2.761188 -2.011220 3.991094
v 0.103662 0.415165 0.889752
vn 1.749428 -5.498992 2.478987
v 0.092003 0.410169 0.888494
vn 1.432854 -5.356419 2.629507
v -0.018568 0.380791 0.896633
vn 1.808986 -5.391639 2.656360
v 0.092013 0.410196 0.888546
vn 1.067407 -6.168318 -0.394888
v -0.025369 0.379055 0.896623
vn 0.471580 -6.176726 -0.737514
v -0.025186 0.381762 0.870256
vn 0.635545 -5.683087 1.193619
v -0.025382 0.379052 0.896633
vn -0.019833 1.315678 6.065792
v -0.017695 0.605798 0.937482
vn -0.243610 2.118174 5.890486
v -0.099418 0.611218 0.933040
vn -0.291897 2.021767 5.885921
v -0.099640 0.611204 0.933036
vn -0.355002 2.099951 5.805375
v -0.099844 0.611191 0.933030
vn -0.323868 1.042611 6.174984
v -0.106599 0.609474 0.933030
vn -0.411715 1.021829 6.102136
v -0.106797 0.609454 0.933023
vn -0.478436 1.156429 6.003628
v -0.106966 0.609436 0.933015
vn -0.629655 1.514640 5.656759
v -0.107109 0.609418 0.933007
vn -0.373732 -0.605856 6.241580
v -0.118757 0.604511 0.931917
vn 4.663866 3.115546 -0.130421
v 0.085649 0.619298 0.912402
vn 3.064287 5.460175 0.493001
v 0.045109 0.645439 0.879923
vn 2.866234 5.518415 0.827024
v 0.044766 0.642855 0.905754
vn 0.412328 3.832467 3.541533
v 0.044172 0.639390 0.925017
vn -0.176931 2.223677 5.873690
v -0.098897 0.611245 0.933048
vn -0.215487 2.148499 5.892014
v -0.099170 0.611232 0.933044
vn -0.016817 4.119749 3.471385
v 0.010122 0.640619 0.925017
vn 2.950292 5.398464 1.256671
v 0.044469 0.639287 0.924934
vn 1.557966 2.873077 3.552678
v 0.044246 0.639377 0.925009
vn 1.016677 3.237960 3.530487
v 0.044206 0.639387 0.925015
vn 2.895941 5.089596 1.998743
v 0.044401 0.639317 0.924960
vn 2.694060 4.471202 2.800966
v 0.044342 0.639342 0.924981
vn 2.128340 3.408421 3.418156
v 0.044290 0.639363 0.924997
vn 6.218617 0.165965 -0.559281
v 0.104172 0.421437 0.844097
vn 4.092653 -1.833526 -1.662300
v 0.091305 0.437008 0.723293
vn 0.302074 -3.816162 -3.384142
v -0.037736 0.400900 0.730167
vn 1.485233 -5.960442 -1.321196
v 0.080132 0.428769 0.736481
vn 2.285866 -5.494625 -1.680820
v 0.084871 0.431844 0.727952
vn 0.858445 -6.114407 -1.075650
v -0.038031 0.397325 0.749448
vn 4.798932 3.107115 -0.982963
v 0.056869 0.641988 0.795513
vn 3.440209 5.228329 0.186844
v 0.031934 0.661177 0.758855
vn 3.330128 5.240550 0.104460
v 0.031905 0.661199 0.758769
vn 2.983163 5.115915 -0.142844
v 0.031881 0.661216 0.758697
vn 5.337509 2.250745 -2.372684
v 0.037269 0.648937 0.756500
vn 2.588200 4.327367 -1.099812
v 0.031836 0.661233 0.758591
vn 2.802401 4.464586 -0.697903
v 0.031858 0.661227 0.758636
vn 2.427874 -0.767436 -3.064295
v 0.091302 0.437011 0.723285
vn 3.038735 5.474660 0.475730
v 0.045031 0.645494 0.879803
vn -0.589698 -0.481352 6.200907
v -0.118857 0.604510 0.931911
vn -3.139346 -1.590076 3.106132
v -0.064829 0.392573 0.898834
vn 1.457264 -5.872184 -1.688410
v 0.072821 0.430344 0.722289
vn 1.543302 -5.806787 -1.822916
v 0.079612 0.432074 0.722289
vn 1.611035 -5.679809 -2.116249
v 0.079643 0.432095 0.722252
vn 1.669893 -5.354869 -2.684371
v 0.079672 0.432113 0.722227
vn 1.514158 -4.207220 -3.854198
v 0.079697 0.432131 0.722211
vn 2.881829 5.552422 0.485534
v 0.044962 0.645541 0.879694
vn 2.612222 5.685562 0.519036
v 0.044894 0.645582 0.879599
vn 2.639169 5.630264 0.841256
v 0.044698 0.642890 0.905744
vn -0.452533 2.431113 5.650448
v -0.100022 0.611178 0.933023
vn 2.415831 5.771651 0.540480
v 0.044835 0.645616 0.879517
vn 2.173075 5.815480 0.862107
v 0.044587 0.642940 0.905731
vn 2.469988 5.706685 0.848235
v 0.044638 0.642918 0.905736
vn 1.787258 -5.280561 2.884155
v 0.092021 0.410221 0.888589
vn -0.585577 2.903700 5.418784
v -0.100176 0.611166 0.933015
vn -0.713024 4.779447 2.981358
v 0.010068 0.640618 0.925012
vn 2.102223 5.885380 0.565131
v 0.044783 0.645643 0.879449
vn 1.722592 -5.094299 3.228470
v 0.092031 0.410245 0.888625
vn 1.426004 -5.770196 -2.020980
v 0.072839 0.430360 0.722252
vn -0.749209 3.437686 5.018747
v -0.100305 0.611153 0.933007
vn 1.006807 6.153564 0.666183
v 0.031661 0.658520 0.784971
vn 0.985545 6.107216 0.907916
v 0.044502 0.642965 0.905726
vn 1.636949 6.030372 0.608161
v 0.044738 0.645662 0.879392
vn 1.682302 5.971062 0.872795
v 0.044542 0.642956 0.905727
vn 5.145337 2.228389 -2.740467
v 0.037239 0.648941 0.756439
vn 1.602102 -4.731114 3.782608
v 0.092042 0.410267 0.888651
vn 1.550836 -4.811959 3.721173
v 0.081600 0.407485 0.889405
vn 1.302330 -5.438780 -2.782166
v 0.072857 0.430374 0.722227
vn -1.028478 4.364333 4.165977
v -0.100413 0.611140 0.932997
vn -0.880679 2.366233 4.962123
v -0.107227 0.609401 0.932997
vn -1.574982 6.052714 0.601937
v -0.119497 0.631268 0.766634
vn -1.658529 6.038890 0.447838
v -0.119597 0.631248 0.766572
vn -1.670624 6.000767 0.784500
v -0.119794 0.628538 0.792949
vn -1.548769 6.038416 0.767859
v -0.009304 0.657999 0.784970
vn -1.253167 4.817406 -2.228998
v -0.009108 0.660712 0.758540
vn -1.553612 6.023864 0.878785
v -0.119693 0.628561 0.792969
vn -1.987558 5.850544 1.009601
v -0.107090 0.612947 0.913693
vn -1.537647 6.019283 0.939304
v -0.096628 0.615737 0.912940
vn -1.537647 6.019321 0.939058
v 0.003536 0.642449 0.905731
vn -0.906374 6.098186 1.000202
v 0.010364 0.644193 0.905731
vn -1.232410 6.097445 0.768462
v -0.002476 0.659743 0.784970
vn 0.156734 6.257291 0.500061
v -0.002097 0.662458 0.758636
vn 0.164101 6.239014 0.715601
v -0.002293 0.659751 0.784971
vn 0.430076 6.224391 0.697622
v 0.031640 0.658523 0.784968
vn -0.014359 6.241346 0.107169
v -0.002173 0.662463 0.758591
vn -0.113447 6.233817 0.726841
v -0.002370 0.659753 0.784968
vn -0.066559 6.195093 0.971757
v 0.010418 0.644197 0.905727
vn 0.203334 6.202280 0.963735
v 0.010493 0.644195 0.905726
vn 0.382197 6.190202 0.955781
v 0.044468 0.642968 0.905727
vn 4.782799 2.194993 -3.350700
v 0.037211 0.648941 0.756393
vn -1.182252 0.360845 5.879537
v -0.118927 0.604509 0.931904
vn -0.715162 -6.181855 -0.679364
v -0.059242 0.382996 0.870230
vn -0.366779 -6.210388 -0.846497
v -0.072091 0.398549 0.749470
vn 0.320590 -6.167316 -0.941206
v -0.038041 0.397320 0.749470
vn -0.242268 -6.259724 -0.419583
v -0.059392 0.380282 0.896633
vn -0.475277 -3.628813 2.595712
v -0.059438 0.380283 0.896639
vn 0.123711 -3.598750 4.036561
v -0.025388 0.379055 0.896639
vn 1.128825 -3.982624 4.538297
v -0.018566 0.380797 0.896639
vn 1.276147 -3.456344 4.922919
v 0.093208 0.412378 0.890505
vn 0.824960 -3.945879 -4.445373
v 0.072875 0.430389 0.722211
vn -1.333027 5.324420 2.749587
v -0.100497 0.611128 0.932986
vn -1.166443 3.227104 3.847920
v -0.107320 0.609386 0.932986
vn -1.809042 5.981924 0.087878
v -0.119677 0.631228 0.766527
vn -1.917235 5.924708 0.776613
v -0.119873 0.628516 0.792936
vn 2.184082 4.136541 -2.099878
v 0.031816 0.661233 0.758558
vn -0.263173 6.010372 -0.741854
v -0.002234 0.662462 0.758558
vn -0.620987 6.196490 0.744015
v -0.002431 0.659750 0.784967
vn 4.061030 2.087872 -4.187201
v 0.037184 0.648943 0.756361
vn -2.388360 1.573684 2.979651
v -0.118969 0.604507 0.931894
vn -3.067759 -1.506773 4.635021
v -0.065661 0.395830 0.899343
vn -1.823848 -2.841064 2.131406
v -0.059465 0.380289 0.896639
vn -2.984375 -4.285272 -0.713742
v -0.072109 0.398553 0.749448
vn -0.189730 -6.170833 -1.166325
v -0.037745 0.400897 0.730180
vn -1.736250 -2.248417 -2.443894
v -0.071813 0.402128 0.730167
vn -1.313191 -6.109920 -0.644544
v -0.059268 0.383003 0.870209
vn -0.056162 -1.186627 6.169395
v -0.047831 0.385160 0.897721
vn 0.360814 -1.598603 -5.820114
v 0.072891 0.430401 0.722205
vn 0.127332 -2.067778 -5.893065
v 0.062429 0.427611 0.722958
vn 1.092580 -1.784403 -4.953841
v 0.079718 0.432146 0.722205
vn -1.508183 5.922826 1.416989
v -0.100558 0.611116 0.932974
vn -1.775662 4.237801 3.126244
v -0.107386 0.609372 0.932974
vn -1.489857 5.948886 1.342314
v -0.090096 0.613906 0.932221
vn -1.569799 5.257841 -2.329315
v -0.109272 0.634001 0.765748
vn -1.857526 5.150444 -1.719686
v -0.119734 0.631211 0.766501
vn -2.274000 5.791913 0.783129
v -0.119930 0.628497 0.792931
vn 1.222714 3.447987 -3.718899
v 0.031798 0.661228 0.758540
vn -0.573687 4.164616 -2.528405
v -0.002280 0.662457 0.758540
vn 2.252198 1.678283 -5.353934
v 0.037162 0.648944 0.756345
vn 2.234367 1.427032 -5.489118
v 0.037994 0.645687 0.755836
vn -4.175145 4.029210 0.907846
v -0.131809 0.620057 0.811133
vn -2.546831 5.654908 1.003955
v -0.118673 0.608082 0.912613
vn -3.953415 4.341427 0.558827
v -0.131514 0.623632 0.791852
vn -5.722829 0.674284 0.340126
v -0.131813 0.620051 0.811122
vn -4.101797 1.088300 1.702104
v -0.118977 0.604503 0.931884
vn -5.922573 -1.988122 -0.352043
v -0.077473 0.410837 0.751643
vn -5.901567 -2.026320 0.056443
v -0.077669 0.408123 0.778073
vn -6.166382 -0.483747 -0.139154
v -0.131617 0.622766 0.784681
vn -4.416733 -0.965873 -2.858509
v -0.077177 0.414412 0.732362
vn -3.070586 -0.928489 -3.385358
v -0.071818 0.402140 0.730168
vn -3.611662 -4.216580 -0.313722
v -0.072305 0.395839 0.775878
vn -2.877281 1.060597 -2.269417
v -0.131322 0.626338 0.765415
vn -5.406713 -2.780569 1.109601
v -0.059474 0.380305 0.896636
vn -3.081739 4.086981 -1.233326
v -0.131317 0.626345 0.765422
vn -5.868571 1.818952 0.211334
v -0.131518 0.623623 0.791855
vn -1.844757 0.445272 -5.876830
v -0.078004 0.417663 0.732867
vn -2.272571 0.032429 -5.582349
v -0.077172 0.414404 0.732359
vn -0.246435 -0.229173 -6.148781
v 0.038813 0.431630 0.722205
vn -0.266260 -0.671546 -6.188228
v 0.028351 0.428840 0.722958
vn -0.047703 0.515679 -6.239667
v 0.045641 0.433374 0.722205
vn -0.661123 0.807833 -6.195857
v -0.115502 0.616864 0.762470
vn -0.441887 0.884926 -6.200191
v -0.015338 0.643580 0.755266
vn -0.095140 1.010989 -6.197556
v -0.008508 0.645325 0.755266
vn -0.716180 0.788479 -6.191896
v -0.125968 0.614073 0.763223
vn -0.717867 0.782446 -6.192504
v -0.072651 0.405398 0.730676
vn 0.083952 1.053316 -6.192721
v 0.025583 0.644097 0.755266
vn 0.522096 1.227745 -6.120584
v 0.037138 0.648948 0.756342
vn -1.529453 6.008770 1.013945
v -0.089800 0.617481 0.912940
vn -1.531754 6.007870 1.015713
v -0.100263 0.614691 0.913693
vn -0.958101 2.622039 -5.184992
v -0.020692 0.655845 0.757457
vn -1.077703 2.645471 -5.173191
v -0.120855 0.629129 0.764662
vn -0.414105 2.477499 -5.577706
v -0.002307 0.662441 0.758534
vn -1.024802 3.569253 -5.022405
v -0.009137 0.660696 0.758534
vn 0.405537 1.698946 -5.978807
v 0.031784 0.661213 0.758534
vn -0.431077 2.018229 -5.815130
v -0.013861 0.657590 0.757457
vn 0.056085 1.186312 -6.169455
v 0.020230 0.656362 0.757457
# 207 vertices, 0 vertices normals

f 1//1 2//2 3//3
f 1//1 4//4 5//5
f 1//1 3//3 4//4
f 1//1 5//5 6//6
f 1//1 6//6 2//2
f 2//2 7//7 8//8
f 2//2 8//8 3//3
f 2//2 6//6 9//9
f 2//2 9//9 10//10
f 2//2 10//10 11//11
f 2//2 11//11 12//12
f 2//2 12//12 7//7
f 13//13 14//14 15//15
f 13//13 16//16 17//17
f 13//13 17//17 14//14
f 13//13 18//18 16//16
f 13//13 15//15 19//19
f 13//13 20//20 18//18
f 13//13 19//19 20//20
f 21//21 22//22 23//23
f 21//21 24//24 22//22
f 21//21 25//25 20//20
f 21//21 23//23 25//25
f 21//21 26//26 19//19
f 21//21 15//15 24//24
f 21//21 20//20 26//26
f 21//21 19//19 15//15
f 22//22 24//24 27//27
f 22//22 27//27 28//28
f 22//22 28//28 23//23
f 14//14 29//29 15//15
f 14//14 17//17 30//30
f 14//14 30//30 29//29
f 24//24 15//15 27//27
f 31//31 32//32 33//33
f 31//31 7//7 34//34
f 31//31 33//33 7//7
f 31//31 34//34 32//32
f 32//32 29//29 30//30
f 32//32 35//35 33//33
f 32//32 30//30 35//35
f 32//32 34//34 29//29
f 7//7 33//33 8//8
f 7//7 12//12 34//34
f 29//29 36//36 15//15
f 29//29 37//37 36//36
f 29//29 38//38 37//37
f 29//29 34//34 38//38
f 27//27 39//39 40//40
f 27//27 41//41 39//39
f 27//27 15//15 36//36
f 27//27 42//42 43//43
f 27//27 36//36 37//37
f 27//27 43//43 28//28
f 27//27 44//44 42//42
f 27//27 40//40 44//44
f 27//27 37//37 41//41
f 4//4 3//3 45//45
f 4//4 45//45 46//46
f 4//4 46//46 47//47
f 4//4 47//47 48//48
f 4//4 49//49 50//50
f 4//4 48//48 49//49
f 4//4 50//50 51//51
f 4//4 51//51 52//52
f 4//4 53//53 5//5
f 4//4 52//52 53//53
f 3//3 8//8 45//45
f 16//16 18//18 54//54
f 16//16 54//54 55//55
f 16//16 55//55 56//56
f 16//16 56//56 17//17
f 45//45 8//8 57//57
f 45//45 58//58 59//59
f 45//45 59//59 46//46
f 45//45 60//60 58//58
f 45//45 57//57 60//60
f 17//17 61//61 30//30
f 17//17 56//56 61//61
f 33//33 35//35 62//62
f 33//33 62//62 8//8
f 35//35 30//30 62//62
f 8//8 62//62 63//63
f 8//8 63//63 57//57
f 30//30 61//61 64//64
f 30//30 64//64 65//65
f 30//30 65//65 66//66
f 30//30 66//66 62//62
f 18//18 20//20 67//67
f 18//18 67//67 68//68
f 18//18 68//68 54//54
f 25//25 23//23 69//69
f 25//25 70//70 71//71
f 25//25 71//71 68//68
f 25//25 68//68 20//20
f 25//25 69//69 70//70
f 23//23 28//28 43//43
f 23//23 43//43 72//72
f 23//23 72//72 69//69
f 73//73 54//54 68//68
f 73//73 74//74 54//54
f 73//73 75//75 74//74
f 73//73 76//76 75//75
f 73//73 77//77 78//78
f 73//73 79//79 76//76
f 73//73 78//78 79//79
f 73//73 68//68 80//80
f 73//73 80//80 77//77
f 54//54 81//81 55//55
f 54//54 74//74 81//81
f 70//70 69//69 71//71
f 5//5 53//53 82//82
f 5//5 82//82 83//83
f 5//5 83//83 6//6
f 71//71 84//84 85//85
f 71//71 85//85 86//86
f 71//71 86//86 87//87
f 71//71 87//87 88//88
f 71//71 88//88 68//68
f 71//71 69//69 84//84
f 58//58 60//60 59//59
f 59//59 60//60 46//46
f 55//55 81//81 56//56
f 46//46 60//60 47//47
f 81//81 89//89 56//56
f 81//81 74//74 89//89
f 61//61 56//56 64//64
f 47//47 60//60 48//48
f 89//89 74//74 75//75
f 89//89 90//90 91//91
f 89//89 91//91 56//56
f 89//89 75//75 90//90
f 56//56 91//91 65//65
f 56//56 65//65 64//64
f 39//39 41//41 40//40
f 49//49 48//48 92//92
f 49//49 92//92 50//50
f 48//48 60//60 92//92
f 90//90 75//75 76//76
f 90//90 93//93 94//94
f 90//90 95//95 91//91
f 90//90 76//76 93//93
f 90//90 94//94 95//95
f 91//91 95//95 66//66
f 91//91 66//66 65//65
f 41//41 96//96 40//40
f 41//41 37//37 96//96
f 50//50 92//92 97//97
f 50//50 97//97 51//51
f 92//92 60//60 98//98
f 92//92 98//98 97//97
f 93//93 76//76 99//99
f 93//93 99//99 94//94
f 95//95 94//94 66//66
f 26//26 20//20 19//19
f 96//96 100//100 40//40
f 96//96 37//37 100//100
f 84//84 101//101 85//85
f 84//84 69//69 101//101
f 85//85 101//101 86//86
f 51//51 97//97 102//102
f 51//51 102//102 52//52
f 66//66 94//94 62//62
f 97//97 98//98 102//102
f 76//76 79//79 103//103
f 76//76 103//103 104//104
f 76//76 105//105 99//99
f 76//76 104//104 105//105
f 99//99 105//105 106//106
f 99//99 106//106 94//94
f 94//94 106//106 62//62
f 77//77 107//107 78//78
f 77//77 80//80 107//107
f 20//20 68//68 67//67
f 53//53 52//52 82//82
f 42//42 44//44 43//43
f 100//100 108//108 109//109
f 100//100 109//109 40//40
f 100//100 37//37 108//108
f 101//101 110//110 86//86
f 101//101 69//69 110//110
f 86//86 110//110 87//87
f 52//52 102//102 111//111
f 52//52 112//112 82//82
f 52//52 111//111 112//112
f 62//62 106//106 63//63
f 102//102 98//98 111//111
f 113//113 114//114 115//115
f 113//113 115//115 116//116
f 113//113 117//117 114//114
f 113//113 116//116 117//117
f 118//118 115//115 119//119
f 118//118 120//120 121//121
f 118//118 116//116 115//115
f 118//118 121//121 122//122
f 118//118 119//119 120//120
f 118//118 123//123 116//116
f 118//118 122//122 123//123
f 124//124 125//125 126//126
f 124//124 127//127 128//128
f 124//124 78//78 127//127
f 124//124 128//128 125//125
f 124//124 126//126 78//78
f 79//79 78//78 126//126
f 79//79 126//126 103//103
f 125//125 128//128 129//129
f 125//125 130//130 131//131
f 125//125 129//129 130//130
f 125//125 131//131 126//126
f 103//103 126//126 104//104
f 105//105 104//104 106//106
f 106//106 104//104 63//63
f 107//107 132//132 78//78
f 107//107 80//80 132//132
f 82//82 112//112 133//133
f 82//82 133//133 83//83
f 43//43 44//44 134//134
f 43//43 135//135 136//136
f 43//43 136//136 72//72
f 43//43 134//134 135//135
f 137//137 44//44 138//138
f 137//137 134//134 44//44
f 137//137 138//138 134//134
f 44//44 40//40 139//139
f 44//44 139//139 138//138
f 108//108 37//37 38//38
f 108//108 140//140 109//109
f 108//108 38//38 141//141
f 108//108 12//12 140//140
f 108//108 141//141 12//12
f 40//40 109//109 140//140
f 40//40 140//140 139//139
f 110//110 142//142 87//87
f 110//110 69//69 142//142
f 87//87 142//142 88//88
f 112//112 111//111 143//143
f 112//112 144//144 133//133
f 112//112 143//143 144//144
f 63//63 104//104 57//57
f 111//111 98//98 143//143
f 114//114 145//145 146//146
f 114//114 146//146 115//115
f 114//114 117//117 145//145
f 115//115 146//146 119//119
f 127//127 78//78 147//147
f 127//127 148//148 149//149
f 127//127 147//147 148//148
f 127//127 149//149 128//128
f 78//78 132//132 147//147
f 128//128 149//149 129//129
f 126//126 131//131 104//104
f 130//130 60//60 57//57
f 130//130 57//57 131//131
f 130//130 129//129 60//60
f 104//104 131//131 57//57
f 132//132 150//150 147//147
f 132//132 80//80 150//150
f 133//133 144//144 151//151
f 133//133 151//151 152//152
f 133//133 152//152 83//83
f 6//6 138//138 9//9
f 6//6 83//83 153//153
f 6//6 153//153 138//138
f 135//135 134//134 154//154
f 135//135 154//154 136//136
f 136//136 155//155 69//69
f 136//136 154//154 156//156
f 136//136 156//156 155//155
f 136//136 69//69 72//72
f 134//134 138//138 157//157
f 134//134 157//157 154//154
f 138//138 139//139 11//11
f 138//138 158//158 9//9
f 138//138 11//11 158//158
f 138//138 153//153 157//157
f 139//139 140//140 12//12
f 139//139 12//12 11//11
f 142//142 159//159 88//88
f 142//142 69//69 160//160
f 142//142 160//160 159//159
f 155//155 156//156 69//69
f 88//88 159//159 161//161
f 88//88 161//161 80//80
f 88//88 80//80 68//68
f 144//144 143//143 162//162
f 144//144 163//163 151//151
f 144//144 162//162 163//163
f 9//9 158//158 10//10
f 10//10 158//158 11//11
f 60//60 129//129 98//98
f 143//143 164//164 162//162
f 143//143 98//98 164//164
f 145//145 165//165 166//166
f 145//145 117//117 165//165
f 145//145 166//166 167//167
f 145//145 167//167 146//146
f 146//146 167//167 119//119
f 148//148 147//147 168//168
f 148//148 169//169 123//123
f 148//148 168//168 169//169
f 148//148 123//123 149//149
f 147//147 150//150 168//168
f 149//149 123//123 122//122
f 149//149 122//122 129//129
f 129//129 122//122 98//98
f 38//38 34//34 141//141
f 12//12 141//141 34//34
f 150//150 170//170 168//168
f 150//150 171//171 170//170
f 150//150 80//80 171//171
f 172//172 151//151 173//173
f 172//172 174//174 175//175
f 172//172 173//173 174//174
f 172//172 175//175 176//176
f 172//172 176//176 151//151
f 151//151 163//163 173//173
f 151//151 176//176 152//152
f 152//152 176//176 83//83
f 177//177 178//178 179//179
f 177//177 180//180 181//181
f 177//177 154//154 182//182
f 177//177 182//182 178//178
f 177//177 179//179 183//183
f 177//177 183//183 180//180
f 177//177 181//181 154//154
f 178//178 83//83 176//176
f 178//178 182//182 184//184
f 178//178 175//175 179//179
f 178//178 176//176 175//175
f 178//178 184//184 83//83
f 83//83 184//184 153//153
f 185//185 174//174 166//166
f 185//185 166//166 183//183
f 185//185 183//183 186//186
f 185//185 186//186 174//174
f 174//174 173//173 167//167
f 174//174 167//167 166//166
f 174//174 186//186 175//175
f 173//173 163//163 119//119
f 173//173 119//119 167//167
f 180//180 183//183 187//187
f 180//180 187//187 188//188
f 180//180 188//188 181//181
f 154//154 157//157 182//182
f 154//154 181//181 156//156
f 182//182 157//157 153//153
f 182//182 153//153 184//184
f 189//189 159//159 190//190
f 189//189 190//190 181//181
f 189//189 191//191 159//159
f 189//189 192//192 193//193
f 189//189 193//193 194//194
f 189//189 195//195 192//192
f 189//189 196//196 195//195
f 189//189 181//181 196//196
f 189//189 194//194 191//191
f 159//159 160//160 190//190
f 159//159 191//191 161//161
f 156//156 190//190 160//160
f 156//156 160//160 69//69
f 156//156 181//181 190//190
f 191//191 194//194 197//197
f 191//191 197//197 161//161
f 161//161 197//197 198//198
f 161//161 198//198 80//80
f 163//163 162//162 119//119
f 164//164 98//98 199//199
f 164//164 199//199 200//200
f 164//164 200//200 162//162
f 98//98 122//122 199//199
f 162//162 200//200 119//119
f 165//165 117//117 201//201
f 165//165 202//202 166//166
f 165//165 201//201 202//202
f 120//120 119//119 200//200
f 120//120 199//199 122//122
f 120//120 122//122 121//121
f 120//120 200//200 199//199
f 117//117 116//116 123//123
f 117//117 169//169 203//203
f 117//117 123//123 169//169
f 117//117 204//204 201//201
f 117//117 203//203 204//204
f 166//166 202//202 183//183
f 169//169 168//168 205//205
f 169//169 205//205 203//203
f 168//168 170//170 205//205
f 170//170 171//171 198//198
f 170//170 198//198 205//205
f 171//171 80//80 198//198
f 179//179 175//175 186//186
f 179//179 186//186 183//183
f 202//202 201//201 193//193
f 202//202 192//192 195//195
f 202//202 193//193 192//192
f 202//202 195//195 183//183
f 201//201 206//206 194//194
f 201//201 194//194 193//193
f 201//201 204//204 206//206
f 183//183 195//195 187//187
f 187//187 195//195 196//196
f 187//187 196//196 188//188
f 188//188 196//196 181//181
f 206//206 207//207 197//197
f 206//206 197//197 194//194
f 206//206 204//204 203//203
f 206//206 203//203 207//207
f 207//207 203//203 205//205
f 207//207 205//205 198//198
f 207//207 198//198 197//197
# 410 faces, 0 coords texture

# End of File
