####
#
# OBJ File Generated by Meshlab
#
####
# Object matlab_mesh_slc_step14_link2.obj
#
# Vertices: 204
# Faces: 404
#
####
vn -0.132996 -0.163147 6.276126
v 0.070698 0.238811 0.910187
vn -0.132999 -0.163153 6.276126
v 0.071013 0.238555 0.910187
vn 0.000000 0.000000 6.283185
v 0.070846 0.238993 0.910187
vn 0.190762 0.301116 6.261824
v 0.070669 0.239137 0.910187
vn -0.140175 -0.144300 6.276035
v 0.070521 0.238956 0.910187
vn -0.325394 -0.279835 6.251281
v 0.050647 0.250655 0.909953
vn -0.711163 -0.954130 6.049041
v 0.165962 0.161154 0.910187
vn 0.046364 0.056875 6.282328
v 0.071367 0.238614 0.910187
vn 1.793863 -2.207983 3.102818
v 0.166482 0.160775 0.910187
vn 0.046371 0.056883 6.282328
v 0.166316 0.161213 0.910187
vn -0.649647 -0.540413 6.159392
v 0.050620 0.250667 0.909952
vn -1.005595 -0.663023 6.027969
v 0.050600 0.250676 0.909950
vn -3.342264 0.559857 3.189160
v -0.074797 0.071028 0.822775
vn 0.105249 0.144448 6.278097
v 0.071190 0.238758 0.910187
vn 2.749613 -0.908763 2.671219
v 0.166630 0.160957 0.910187
vn 0.721767 -4.536887 -0.057362
v 0.033521 -0.005481 0.822273
vn 4.117695 -4.331752 1.899683
v 0.033984 -0.004843 0.822748
vn 0.679261 -4.387705 0.799957
v 0.033521 -0.005481 0.822280
vn 2.174312 -3.918507 3.692647
v 0.033981 -0.004844 0.822751
vn -1.499082 -2.386319 5.596820
v 0.033428 -0.004503 0.822751
vn -0.478856 -2.996891 5.285848
v 0.033978 -0.004843 0.822751
vn -1.452534 -2.081435 5.745675
v -0.067833 0.066168 0.822775
vn -1.555811 -2.330860 5.602181
v 0.032596 -0.003917 0.822775
vn 0.124257 0.125955 6.280599
v 0.160814 0.178609 0.909954
vn 5.260045 -1.118216 1.131825
v 0.166711 0.161056 0.909917
vn 5.566261 1.696769 2.352994
v 0.161991 0.178474 0.908974
vn 3.938709 1.225244 4.163307
v 0.161684 0.177997 0.909928
vn 2.869728 0.999075 4.427377
v 0.161674 0.178026 0.909928
vn 0.259300 0.240436 6.270152
v 0.160811 0.178634 0.909953
vn 5.287168 -1.139117 1.078856
v 0.166824 0.161194 0.909512
vn 4.111317 -0.060603 -0.577970
v 0.197132 0.198374 0.800233
vn 5.670291 1.653466 2.142942
v 0.162002 0.178441 0.908970
vn 4.493837 -2.218048 -2.412805
v 0.197077 0.198307 0.800192
vn 4.276490 -0.298731 -4.575109
v 0.188374 0.216272 0.790654
vn 4.922328 3.258293 2.152052
v 0.188876 0.216840 0.791166
vn 4.872173 2.949321 2.551446
v 0.161954 0.178556 0.908986
vn 5.332426 2.604162 0.376752
v 0.188858 0.216881 0.791145
vn 4.643844 1.663177 -1.069499
v 0.188842 0.216916 0.791126
vn 5.496454 1.849354 2.393560
v 0.161981 0.178501 0.908977
vn 5.389176 2.083249 2.434949
v 0.161972 0.178524 0.908981
vn 5.210723 2.422456 2.486519
v 0.161963 0.178543 0.908983
vn 0.119242 0.262481 6.269838
v 0.052956 0.253899 0.909954
vn -0.105196 -0.042057 6.281336
v 0.050680 0.250640 0.909954
vn 0.376914 0.561825 6.242689
v 0.053506 0.253558 0.909954
vn 0.438671 0.496289 6.242252
v 0.160810 0.178654 0.909952
vn 3.323350 4.971764 1.714947
v 0.101041 0.276661 0.800209
vn 3.450304 4.738860 2.260740
v 0.101561 0.276283 0.800209
vn 3.167470 2.911134 -1.496002
v 0.188781 0.217019 0.791076
vn 3.035494 5.096923 2.046637
v 0.080308 0.292668 0.791244
vn 2.753720 4.902257 2.724794
v 0.053180 0.254434 0.909010
vn 3.367659 5.109870 1.335635
v 0.080800 0.292373 0.791217
vn 3.217355 4.667753 2.687863
v 0.053742 0.254085 0.909008
vn 3.251907 4.566044 2.795104
v 0.161116 0.179151 0.909013
vn 3.048732 4.691892 2.803930
v 0.053729 0.254093 0.909010
vn 3.558711 5.039529 0.569916
v 0.187949 0.217605 0.791100
vn 3.443268 4.413595 2.782079
v 0.161940 0.178570 0.908990
vn 2.899399 -5.423645 -1.103941
v 0.062491 0.033207 0.707123
vn 3.753584 -4.408202 -1.329009
v 0.062572 0.033306 0.706853
vn 2.340861 -5.677135 -1.329848
v 0.060370 0.032965 0.704408
vn 1.975683 -5.646682 -1.688114
v 0.060366 0.032966 0.704398
vn 0.038196 -5.258961 -0.732017
v 0.033521 -0.005480 0.822265
vn 1.721427 -5.815365 -1.504794
v 0.058769 0.030679 0.711410
vn -1.553979 -5.285252 -1.459820
v 0.032070 -0.004110 0.816807
vn 0.550578 -6.000573 -1.531318
v 0.033519 -0.005478 0.822255
vn -3.432425 -5.242054 -0.095789
v 0.032971 -0.005141 0.822273
vn -3.511151 -4.964897 -0.788697
v -0.074424 0.069809 0.822287
vn 0.890221 -5.709497 -2.061638
v 0.060363 0.032967 0.704391
vn -0.658648 -5.539405 -2.457822
v 0.060360 0.032970 0.704384
vn -3.072645 -4.742353 -2.708484
v 0.059807 0.033314 0.704379
vn -2.064010 -5.079437 -2.805641
v 0.060357 0.032973 0.704379
vn -3.049942 -0.947026 0.765346
v -0.075256 0.070395 0.822311
vn -3.685971 -4.518744 -2.312477
v -0.050025 0.106547 0.711450
vn -3.256652 -4.571225 -2.777667
v -0.047596 0.108267 0.704373
vn -4.285133 -3.222770 -2.593723
v -0.048420 0.108848 0.704396
vn 4.773541 -3.514955 -1.463475
v 0.062720 0.033488 0.706853
vn 4.260433 -3.685760 -2.675706
v 0.060677 0.033442 0.703453
vn 3.281514 -4.028549 -2.851497
v 0.060673 0.033441 0.703448
vn 4.997367 -3.391327 -1.205568
v 0.196946 0.198145 0.800101
vn 4.720387 -2.900097 -2.873104
v 0.062953 0.036701 0.703453
vn 4.384480 -2.492612 -3.568571
v 0.062954 0.036708 0.703448
vn 3.751868 -1.804462 -4.427749
v 0.062954 0.036714 0.703444
vn 2.668494 -0.766052 -5.224380
v 0.062953 0.036720 0.703441
vn 3.028608 5.113223 2.008923
v 0.080250 0.292714 0.791217
vn 3.377757 5.124138 1.245629
v 0.080748 0.292413 0.791192
vn 3.018728 5.134585 1.957474
v 0.080199 0.292754 0.791192
vn 3.389300 5.143113 1.121465
v 0.080703 0.292448 0.791170
vn 3.004994 5.161053 1.890501
v 0.080154 0.292788 0.791170
vn 3.402934 5.165237 0.954276
v 0.080664 0.292477 0.791151
vn 2.985498 5.194812 1.796247
v 0.080114 0.292818 0.791151
vn 4.205854 -0.199017 -4.640514
v 0.188361 0.216304 0.790639
vn 4.552515 1.755973 -1.099708
v 0.188827 0.216947 0.791111
vn 4.112775 3.783373 2.645413
v 0.161947 0.178566 0.908988
vn 0.314828 0.653725 6.193989
v 0.052928 0.253922 0.909953
vn 0.787416 1.157038 6.065191
v 0.053478 0.253581 0.909953
vn 0.719613 0.904821 6.164302
v 0.160810 0.178669 0.909950
vn 3.417323 5.188798 0.720057
v 0.080630 0.292502 0.791135
vn 2.954646 5.237574 1.661893
v 0.080081 0.292843 0.791135
vn 2.869150 1.185037 4.443475
v 0.161666 0.178051 0.909927
vn 4.075224 -0.037859 -4.755036
v 0.188349 0.216332 0.790628
vn 4.415888 1.909548 -1.139157
v 0.188813 0.216973 0.791098
vn 0.588432 1.272051 5.939287
v 0.052906 0.253941 0.909952
vn 1.508522 2.234228 5.504173
v 0.053455 0.253600 0.909952
vn 1.224367 1.636650 5.902298
v 0.160811 0.178680 0.909948
vn 3.429515 5.209482 0.369843
v 0.080603 0.292522 0.791122
vn 2.900041 5.292006 1.445312
v 0.080053 0.292862 0.791122
vn 2.249482 -3.766040 -3.527765
v 0.060668 0.033440 0.703444
vn 3.820066 -0.249381 -4.980449
v 0.186281 0.213370 0.789190
vn 2.893166 1.488168 4.449533
v 0.161658 0.178072 0.909926
vn 4.196929 2.127036 -1.204129
v 0.188801 0.216993 0.791087
vn 0.855958 2.013613 5.354895
v 0.052888 0.253955 0.909950
vn 2.255503 3.372073 4.492195
v 0.053438 0.253615 0.909950
vn 2.162741 3.008776 4.878530
v 0.160813 0.178686 0.909946
vn 3.422480 5.203216 -0.201881
v 0.080581 0.292536 0.791112
vn 2.780913 5.349648 1.070421
v 0.080031 0.292877 0.791112
vn 0.298233 5.233620 2.181541
v 0.053171 0.254437 0.909012
vn -3.385098 -5.172345 0.846713
v 0.032971 -0.005140 0.822280
vn 0.754225 -3.134496 -4.123859
v 0.060664 0.033441 0.703441
vn 3.601114 -0.017162 -5.143967
v 0.186267 0.213388 0.789179
vn 3.872794 0.197723 -4.909277
v 0.188338 0.216355 0.790620
vn 1.298286 1.879526 -5.852971
v -0.044401 0.111660 0.703444
vn 0.938456 1.418855 -6.010533
v -0.044419 0.111665 0.703441
vn 1.536608 2.288219 -5.621852
v 0.080929 0.291331 0.790612
vn 1.282538 1.665994 -5.910718
v 0.062949 0.036730 0.703441
vn 1.866078 2.109553 -5.567668
v 0.188317 0.216395 0.790613
vn 1.117712 2.047920 -5.828357
v 0.186241 0.213420 0.789169
vn 2.923711 1.971975 4.414194
v 0.161651 0.178088 0.909924
vn 3.812951 2.461379 -1.289499
v 0.188791 0.217009 0.791080
vn 0.718694 2.601276 4.617126
v 0.052876 0.253965 0.909948
vn -1.512750 -0.298339 5.883419
v 0.050585 0.250682 0.909948
vn -3.402864 0.545594 3.769641
v -0.072722 0.074002 0.824218
vn 2.657702 4.133791 3.815811
v 0.053426 0.253625 0.909948
vn 2.962541 4.139049 3.639951
v 0.160816 0.178687 0.909942
vn 3.301517 5.056057 -1.294877
v 0.080566 0.292546 0.791104
vn 2.423117 5.313343 0.292207
v 0.080016 0.292886 0.791104
vn 3.564375 5.098078 -0.810332
v 0.187950 0.217605 0.791098
vn -3.049956 -4.678220 2.553732
v 0.032971 -0.005139 0.822285
vn -3.508568 -5.029054 1.348793
v 0.032123 -0.004543 0.822304
vn -3.567177 -5.096711 0.797722
v -0.074430 0.069813 0.822288
vn -0.708240 -2.643211 -4.407343
v 0.060660 0.033442 0.703440
vn 0.154201 -4.279245 2.435315
v 0.033521 -0.005479 0.822285
vn 0.940095 1.523006 -5.996807
v -0.044969 0.112006 0.703441
vn 0.335752 0.536497 -6.218765
v -0.044433 0.111670 0.703440
vn 0.867855 1.907244 -5.898300
v -0.045817 0.112603 0.703466
vn 1.476281 2.352285 -5.613506
v 0.080096 0.291919 0.790636
vn 0.321213 0.636573 -6.196260
v -0.044983 0.112010 0.703440
vn -1.010073 2.100763 -5.142063
v -0.045823 0.112602 0.703465
vn 3.491584 0.599789 -5.132135
v 0.188330 0.216373 0.790614
vn 3.189355 0.387009 -5.384633
v 0.186256 0.213402 0.789172
vn 1.592205 0.411669 -5.741151
v 0.062951 0.036725 0.703440
vn 0.330824 0.474017 -6.229548
v 0.055993 0.041581 0.703440
vn -3.154862 -4.536029 2.707417
v 0.032130 -0.004547 0.822309
vn -2.834170 -3.609248 3.131992
v -0.075253 0.070394 0.822312
vn -1.713311 2.890913 -2.794153
v 0.079546 0.292260 0.790636
vn -1.163574 -3.702011 4.537800
v 0.033519 -0.005476 0.822287
vn 2.966267 2.840585 4.209835
v 0.161645 0.178100 0.909922
vn 3.848998 4.388930 2.307296
v 0.163551 0.180865 0.901937
vn 3.404405 4.880711 -1.869377
v 0.081406 0.291954 0.791080
vn 2.547742 3.695469 -3.937821
v 0.081388 0.291964 0.791076
vn 2.566789 4.041343 -3.506264
v 0.080556 0.292550 0.791100
vn 2.828583 3.644380 -3.017244
v 0.188774 0.217024 0.791074
vn -0.884492 3.101742 3.391413
v 0.052870 0.253971 0.909946
vn -3.147745 1.125969 4.327139
v 0.050577 0.250685 0.909946
vn -5.269076 3.359757 0.649453
v -0.074793 0.071034 0.822775
vn -5.412059 3.108736 0.066524
v -0.075254 0.070398 0.822309
vn -4.962547 2.878435 1.811240
v 0.050575 0.250685 0.909942
vn -0.132835 5.640635 1.809320
v 0.054776 0.256737 0.901960
vn 0.610971 4.187866 -1.151748
v 0.080006 0.292890 0.791100
vn -3.052075 -4.564634 -3.038295
v 0.059804 0.033318 0.704375
vn -2.280425 -3.499045 4.497931
v 0.032970 -0.005135 0.822287
vn -2.823852 -4.627870 -3.174994
v 0.060354 0.032978 0.704375
vn -2.682712 -4.423187 -3.536486
v 0.060656 0.033444 0.703441
vn -0.210684 -0.301879 -6.261542
v -0.040316 0.103871 0.703440
vn -1.281374 -2.052079 -5.145581
v 0.060110 0.033782 0.703440
vn -1.327019 -1.777999 -5.565319
v -0.047287 0.108729 0.703441
vn -0.237281 -0.255335 -6.260969
v -0.047275 0.108727 0.703440
vn -2.656843 -3.951877 -3.954698
v 0.060106 0.033784 0.703441
vn -2.009701 -2.879834 -5.176746
v -0.040323 0.103869 0.703441
vn -2.685319 -3.702977 -4.118289
v -0.047296 0.108731 0.703443
vn -0.866229 0.467001 -6.127727
v -0.048115 0.109319 0.703465
vn -2.812411 0.520664 -2.686123
v -0.048119 0.109315 0.703465
vn 2.631009 1.375648 -5.406923
v 0.188323 0.216386 0.790612
vn 2.289098 1.156906 -5.676617
v 0.186247 0.213413 0.789169
vn -2.310187 -3.408116 4.574652
v 0.032137 -0.004549 0.822311
vn -5.322145 3.316882 -0.095840
v -0.074951 0.070867 0.821370
vn -5.350996 0.177114 -1.263466
v -0.048421 0.108849 0.704399
vn -5.387855 0.046048 -1.211167
v -0.050026 0.106549 0.711450
vn -5.208857 3.486992 0.342683
v 0.050118 0.250055 0.909481
vn -3.164030 2.425837 -3.003508
v -0.045826 0.112601 0.703465
vn -5.157392 3.587546 0.067075
v 0.050418 0.250519 0.908551
vn -5.133213 3.621605 0.067966
v 0.052712 0.253806 0.908551
vn -5.125813 3.633406 0.018423
v 0.054317 0.256106 0.901497
vn 3.150729 4.037394 3.578307
v 0.161639 0.178107 0.909919
vn 1.834123 2.777985 -5.326188
v 0.081376 0.291969 0.791074
vn 1.890522 2.709166 -5.343394
v 0.181807 0.221886 0.791074
vn 1.824973 2.889792 -5.265419
v 0.080552 0.292549 0.791098
vn -2.006352 -2.255730 5.477829
v -0.074797 0.071023 0.822773
vn -3.367253 4.211642 1.716053
v 0.052868 0.253972 0.909942
vn -1.161654 3.438787 -1.808971
v 0.080003 0.292890 0.791098
vn -3.637282 4.701602 0.705529
v 0.054774 0.256736 0.901959
vn -3.366945 4.652879 1.095496
v 0.053169 0.254436 0.909013
vn -3.697457 -2.734083 -3.534630
v -0.048119 0.109311 0.703467
vn 1.813881 2.599336 -5.424928
v 0.181350 0.221256 0.790613
vn 1.626504 2.511933 -5.518600
v 0.080919 0.291339 0.790613
vn -5.146943 3.600090 0.159756
v 0.052412 0.253342 0.909481
# 204 vertices, 0 vertices normals

f 1//1 2//2 3//3
f 1//1 3//3 4//4
f 1//1 5//5 6//6
f 1//1 4//4 5//5
f 1//1 6//6 2//2
f 2//2 7//7 8//8
f 2//2 8//8 3//3
f 2//2 6//6 7//7
f 7//7 9//9 10//10
f 7//7 10//10 8//8
f 7//7 6//6 11//11
f 7//7 11//11 12//12
f 7//7 12//12 13//13
f 7//7 13//13 9//9
f 3//3 8//8 14//14
f 3//3 14//14 4//4
f 9//9 15//15 10//10
f 9//9 16//16 15//15
f 9//9 17//17 18//18
f 9//9 18//18 16//16
f 9//9 19//19 17//17
f 9//9 20//20 21//21
f 9//9 21//21 19//19
f 9//9 22//22 23//23
f 9//9 23//23 20//20
f 9//9 13//13 22//22
f 8//8 10//10 24//24
f 8//8 24//24 14//14
f 10//10 15//15 24//24
f 15//15 25//25 26//26
f 15//15 27//27 28//28
f 15//15 26//26 27//27
f 15//15 28//28 29//29
f 15//15 29//29 24//24
f 15//15 16//16 25//25
f 30//30 31//31 32//32
f 30//30 25//25 16//16
f 30//30 32//32 25//25
f 30//30 16//16 31//31
f 31//31 33//33 34//34
f 31//31 35//35 36//36
f 31//31 37//37 35//35
f 31//31 38//38 37//37
f 31//31 26//26 32//32
f 31//31 34//34 38//38
f 31//31 39//39 26//26
f 31//31 40//40 39//39
f 31//31 16//16 33//33
f 31//31 41//41 40//40
f 31//31 36//36 41//41
f 25//25 32//32 26//26
f 5//5 4//4 42//42
f 5//5 43//43 6//6
f 5//5 42//42 43//43
f 4//4 14//14 29//29
f 4//4 44//44 42//42
f 4//4 29//29 45//45
f 4//4 45//45 44//44
f 14//14 24//24 29//29
f 46//46 47//47 48//48
f 46//46 49//49 50//50
f 46//46 51//51 49//49
f 46//46 52//52 53//53
f 46//46 50//50 54//54
f 46//46 54//54 52//52
f 46//46 48//48 55//55
f 46//46 55//55 51//51
f 46//46 56//56 47//47
f 46//46 53//53 56//56
f 47//47 56//56 48//48
f 57//57 58//58 16//16
f 57//57 59//59 60//60
f 57//57 60//60 58//58
f 57//57 61//61 62//62
f 57//57 62//62 59//59
f 57//57 16//16 61//61
f 63//63 64//64 61//61
f 63//63 61//61 65//65
f 63//63 65//65 66//66
f 63//63 67//67 64//64
f 63//63 68//68 67//67
f 63//63 69//69 70//70
f 63//63 70//70 68//68
f 63//63 66//66 71//71
f 63//63 71//71 72//72
f 63//63 73//73 69//69
f 63//63 74//74 73//73
f 63//63 72//72 74//74
f 58//58 75//75 16//16
f 58//58 76//76 75//75
f 58//58 60//60 77//77
f 58//58 77//77 76//76
f 33//33 78//78 79//79
f 33//33 79//79 80//80
f 33//33 80//80 81//81
f 33//33 16//16 78//78
f 33//33 81//81 82//82
f 33//33 82//82 34//34
f 78//78 75//75 79//79
f 78//78 16//16 75//75
f 75//75 76//76 79//79
f 49//49 83//83 50//50
f 49//49 51//51 83//83
f 83//83 51//51 84//84
f 83//83 85//85 50//50
f 83//83 84//84 85//85
f 51//51 55//55 84//84
f 35//35 37//37 36//36
f 85//85 84//84 86//86
f 85//85 87//87 50//50
f 85//85 86//86 87//87
f 84//84 55//55 86//86
f 37//37 38//38 36//36
f 87//87 86//86 88//88
f 87//87 89//89 50//50
f 87//87 88//88 89//89
f 86//86 55//55 88//88
f 27//27 26//26 39//39
f 27//27 39//39 28//28
f 38//38 34//34 90//90
f 38//38 91//91 92//92
f 38//38 90//90 91//91
f 38//38 92//92 36//36
f 43//43 42//42 93//93
f 43//43 93//93 6//6
f 42//42 44//44 94//94
f 42//42 94//94 93//93
f 44//44 45//45 95//95
f 44//44 95//95 94//94
f 89//89 88//88 96//96
f 89//89 97//97 50//50
f 89//89 96//96 97//97
f 88//88 55//55 96//96
f 59//59 62//62 60//60
f 64//64 62//62 61//61
f 64//64 67//67 62//62
f 76//76 77//77 79//79
f 34//34 82//82 90//90
f 79//79 77//77 80//80
f 28//28 39//39 40//40
f 28//28 98//98 29//29
f 28//28 40//40 98//98
f 91//91 90//90 99//99
f 91//91 100//100 92//92
f 91//91 99//99 100//100
f 6//6 93//93 101//101
f 6//6 101//101 11//11
f 93//93 94//94 102//102
f 93//93 102//102 101//101
f 29//29 98//98 45//45
f 94//94 95//95 103//103
f 94//94 103//103 102//102
f 97//97 96//96 104//104
f 97//97 105//105 50//50
f 97//97 104//104 105//105
f 96//96 55//55 104//104
f 60//60 62//62 67//67
f 60//60 67//67 106//106
f 60//60 106//106 77//77
f 61//61 16//16 65//65
f 77//77 106//106 80//80
f 90//90 107//107 99//99
f 90//90 82//82 107//107
f 80//80 106//106 81//81
f 98//98 40//40 41//41
f 98//98 108//108 45//45
f 98//98 41//41 108//108
f 100//100 99//99 109//109
f 100//100 109//109 92//92
f 11//11 101//101 110//110
f 11//11 110//110 12//12
f 101//101 102//102 111//111
f 101//101 111//111 110//110
f 45//45 108//108 95//95
f 102//102 103//103 112//112
f 102//102 112//112 111//111
f 105//105 104//104 113//113
f 105//105 114//114 115//115
f 105//105 113//113 114//114
f 105//105 115//115 50//50
f 104//104 55//55 113//113
f 65//65 16//16 116//116
f 65//65 116//116 66//66
f 67//67 68//68 117//117
f 67//67 117//117 106//106
f 16//16 18//18 116//116
f 106//106 117//117 81//81
f 99//99 107//107 118//118
f 99//99 119//119 109//109
f 99//99 118//118 119//119
f 107//107 82//82 118//118
f 81//81 117//117 82//82
f 120//120 121//121 122//122
f 120//120 123//123 121//121
f 120//120 122//122 124//124
f 120//120 124//124 125//125
f 120//120 125//125 123//123
f 17//17 19//19 18//18
f 108//108 41//41 36//36
f 108//108 126//126 95//95
f 108//108 36//36 126//126
f 109//109 119//119 127//127
f 109//109 127//127 92//92
f 12//12 110//110 128//128
f 12//12 129//129 130//130
f 12//12 128//128 129//129
f 12//12 130//130 13//13
f 110//110 111//111 131//131
f 110//110 131//131 128//128
f 95//95 126//126 103//103
f 111//111 112//112 132//132
f 111//111 132//132 131//131
f 114//114 113//113 133//133
f 114//114 134//134 115//115
f 114//114 133//133 134//134
f 113//113 55//55 135//135
f 113//113 135//135 133//133
f 52//52 54//54 53//53
f 116//116 18//18 136//136
f 116//116 137//137 138//138
f 116//116 136//136 137//137
f 116//116 138//138 66//66
f 68//68 70//70 139//139
f 68//68 139//139 117//117
f 18//18 19//19 140//140
f 18//18 140//140 136//136
f 141//141 121//121 142//142
f 141//141 143//143 144//144
f 141//141 145//145 146//146
f 141//141 142//142 145//145
f 141//141 146//146 143//143
f 141//141 144//144 121//121
f 117//117 139//139 82//82
f 119//119 118//118 147//147
f 119//119 147//147 127//127
f 118//118 82//82 148//148
f 118//118 148//148 147//147
f 82//82 139//139 149//149
f 82//82 149//149 148//148
f 121//121 149//149 150//150
f 121//121 150//150 142//142
f 121//121 123//123 149//149
f 121//121 144//144 122//122
f 137//137 136//136 151//151
f 137//137 151//151 152//152
f 137//137 152//152 138//138
f 143//143 146//146 153//153
f 143//143 153//153 144//144
f 19//19 21//21 154//154
f 19//19 154//154 140//140
f 126//126 36//36 155//155
f 126//126 155//155 103//103
f 127//127 147//147 48//48
f 127//127 156//156 92//92
f 127//127 48//48 156//156
f 36//36 92//92 155//155
f 157//157 133//133 135//135
f 157//157 158//158 159//159
f 157//157 159//159 133//133
f 157//157 160//160 158//158
f 157//157 135//135 160//160
f 129//129 128//128 161//161
f 129//129 162//162 130//130
f 129//129 161//161 162//162
f 163//163 164//164 71//71
f 163//163 13//13 165//165
f 163//163 71//71 13//13
f 163//163 165//165 164//164
f 128//128 131//131 50//50
f 128//128 50//50 161//161
f 103//103 155//155 112//112
f 131//131 54//54 50//50
f 131//131 132//132 54//54
f 134//134 133//133 159//159
f 134//134 166//166 115//115
f 134//134 167//167 166//166
f 134//134 159//159 167//167
f 50//50 115//115 161//161
f 54//54 132//132 53//53
f 69//69 168//168 70//70
f 69//69 73//73 168//168
f 136//136 140//140 169//169
f 136//136 169//169 151//151
f 70//70 168//168 170//170
f 70//70 170//170 171//171
f 70//70 171//171 139//139
f 140//140 154//154 169//169
f 172//172 173//173 174//174
f 172//172 175//175 142//142
f 172//172 142//142 150//150
f 172//172 150//150 173//173
f 172//172 174//174 175//175
f 173//173 139//139 176//176
f 173//173 149//149 139//139
f 173//173 150//150 149//149
f 173//173 177//177 174//174
f 173//173 176//176 178//178
f 173//173 178//178 177//177
f 175//175 145//145 142//142
f 175//175 179//179 145//145
f 175//175 174//174 180//180
f 175//175 180//180 179//179
f 145//145 179//179 146//146
f 139//139 171//171 176//176
f 147//147 148//148 181//181
f 147//147 181//181 48//48
f 148//148 149//149 182//182
f 148//148 182//182 181//181
f 149//149 123//123 124//124
f 149//149 124//124 182//182
f 151//151 169//169 183//183
f 151//151 183//183 152//152
f 164//164 184//184 185//185
f 164//164 185//185 186//186
f 164//164 186//186 71//71
f 164//164 165//165 187//187
f 164//164 187//187 184//184
f 179//179 180//180 188//188
f 179//179 188//188 146//146
f 184//184 180//180 185//185
f 184//184 187//187 189//189
f 184//184 189//189 190//190
f 184//184 191//191 153//153
f 184//184 153//153 180//180
f 184//184 190//190 191//191
f 146//146 188//188 153//153
f 20//20 23//23 169//169
f 20//20 169//169 154//154
f 20//20 154//154 21//21
f 155//155 92//92 192//192
f 155//155 192//192 112//112
f 156//156 48//48 56//56
f 156//156 56//56 92//92
f 48//48 181//181 160//160
f 48//48 160//160 135//135
f 48//48 135//135 55//55
f 92//92 56//56 192//192
f 158//158 122//122 193//193
f 158//158 160//160 194//194
f 158//158 193//193 195//195
f 158//158 194//194 122//122
f 158//158 195//195 159//159
f 22//22 13//13 196//196
f 22//22 196//196 23//23
f 23//23 183//183 169//169
f 23//23 196//196 152//152
f 23//23 152//152 183//183
f 162//162 161//161 197//197
f 162//162 165//165 130//130
f 162//162 197//197 165//165
f 130//130 165//165 13//13
f 13//13 71//71 152//152
f 13//13 152//152 196//196
f 161//161 115//115 197//197
f 112//112 192//192 132//132
f 166//166 167//167 198//198
f 166//166 199//199 115//115
f 166//166 198//198 199//199
f 167//167 159//159 195//195
f 167//167 195//195 198//198
f 115//115 199//199 200//200
f 115//115 200//200 197//197
f 168//168 176//176 170//170
f 168//168 73//73 178//178
f 168//168 178//178 176//176
f 66//66 138//138 71//71
f 170//170 176//176 171//171
f 177//177 178//178 174//174
f 174//174 178//178 201//201
f 174//174 201//201 180//180
f 181//181 182//182 124//124
f 181//181 124//124 160//160
f 123//123 125//125 124//124
f 122//122 194//194 202//202
f 122//122 203//203 193//193
f 122//122 202//202 124//124
f 122//122 144//144 203//203
f 185//185 180//180 201//201
f 185//185 74//74 186//186
f 185//185 201//201 74//74
f 71//71 186//186 74//74
f 71//71 138//138 152//152
f 71//71 74//74 72//72
f 180//180 153//153 188//188
f 192//192 56//56 53//53
f 192//192 53//53 132//132
f 160//160 124//124 194//194
f 193//193 203//203 144//144
f 193//193 144//144 195//195
f 194//194 124//124 202//202
f 165//165 197//197 204//204
f 165//165 204//204 187//187
f 197//197 200//200 190//190
f 197//197 190//190 204//204
f 199//199 198//198 153//153
f 199//199 191//191 190//190
f 199//199 153//153 191//191
f 199//199 190//190 200//200
f 198//198 195//195 144//144
f 198//198 144//144 153//153
f 73//73 74//74 201//201
f 73//73 201//201 178//178
f 187//187 204//204 189//189
f 204//204 190//190 189//189
# 404 faces, 0 coords texture

# End of File
