####
#
# OBJ File Generated by Meshlab
#
####
# Object matlab_mesh_step11_link6.obj
#
# Vertices: 116
# Faces: 228
#
####
vn -2.621883 -5.706552 0.046359
v 0.425102 0.454395 0.881293
vn -3.235461 -5.140773 -0.724481
v 0.425102 0.454395 0.846946
vn -1.228894 -5.940468 -0.447828
v 0.519507 0.413642 0.861736
vn -3.421214 -5.115080 0.264271
v 0.425096 0.454397 0.881305
vn -3.649242 -4.979557 -0.258131
v 0.425096 0.454397 0.846960
vn -1.253602 -5.964610 0.308322
v 0.519507 0.413642 0.896067
vn -4.285555 -4.444346 -1.166136
v 0.393852 0.495775 0.803365
vn -3.194983 -5.078032 -1.311749
v 0.430747 0.460263 0.803365
vn -4.702725 -3.970386 -0.622167
v 0.388156 0.489951 0.846960
vn -4.197516 -3.683192 -2.261608
v 0.393808 0.495828 0.803327
vn -2.760410 -4.431167 -2.631109
v 0.430748 0.460274 0.803327
vn -0.605690 -4.111507 -3.057217
v 0.525163 0.419524 0.818067
vn 4.261295 4.532678 0.632541
v 0.597211 0.675491 0.974488
vn 4.290397 4.451671 1.118869
v 0.634151 0.639938 0.974488
vn 5.154836 2.325602 0.588923
v 0.634168 0.639922 0.974484
vn 4.159038 4.541836 1.223425
v 0.591559 0.669615 1.018122
vn 3.296863 5.103308 0.530141
v 0.597198 0.675505 0.974484
vn 4.303144 4.424978 1.173855
v 0.628499 0.634061 1.018122
vn 2.121006 3.407000 3.216028
v 0.591541 0.669623 1.018153
vn 3.532635 1.606230 2.704766
v 0.628511 0.634041 1.018153
vn 5.138415 -3.444599 0.049222
v 0.574966 0.419523 0.852430
vn 4.340825 -4.323993 0.195448
v 0.569314 0.413646 0.896064
vn 3.498860 -5.058442 -0.211300
v 0.569314 0.413646 0.861719
vn 5.536447 -2.917029 0.264558
v 0.575340 0.421726 0.875292
vn 3.844781 -4.203880 -0.387631
v 0.574966 0.419523 0.818085
vn 5.951848 -1.835047 0.038040
v 0.643799 0.571850 0.832788
vn 4.186684 -4.026364 0.597256
v 0.569688 0.415849 0.918926
vn 1.722324 -5.691409 0.283660
v 0.569308 0.413642 0.896067
vn 1.587165 -5.754453 -0.242895
v 0.569308 0.413642 0.861736
vn 5.985434 -1.229754 0.271094
v 0.644171 0.574055 0.855668
vn 5.918879 -1.788163 0.647064
v 0.638515 0.568174 0.899338
vn 5.479543 -2.799058 1.107009
v 0.559685 0.435697 1.037741
vn 1.613028 -2.394097 2.583618
v 0.559677 0.435691 1.037763
vn 5.309407 -1.079806 2.119086
v 0.628511 0.588017 1.018153
vn 2.009638 -5.409441 0.923019
v 0.569681 0.415848 0.918947
vn -4.679960 -4.140541 0.149944
v 0.388156 0.489951 0.881305
vn -3.986208 -4.805200 0.495483
v 0.415093 0.474245 1.000121
vn -4.554461 -4.295061 0.407505
v 0.378153 0.509799 1.000121
vn -5.471656 -2.461282 0.237813
v 0.378125 0.509832 1.000123
vn -5.316109 -3.301183 0.056406
v 0.388129 0.489989 0.881308
vn -5.577322 -2.028778 -0.553960
v 0.388129 0.489989 0.846976
vn -3.060417 -5.418334 0.608032
v 0.425470 0.456601 0.904167
vn -1.233290 -5.951728 0.744799
v 0.519879 0.415848 0.918947
vn -3.395736 -4.953147 1.143338
v 0.415467 0.476448 1.022983
vn -0.886577 -3.287234 3.141574
v 0.509875 0.435691 1.037763
vn -4.399209 -4.361442 0.885703
v 0.378527 0.512002 1.022983
vn -3.271093 -1.556001 2.672195
v 0.378498 0.512037 1.023004
vn -2.577963 -3.364760 3.498188
v 0.415467 0.476455 1.023004
vn 4.298332 4.569902 -0.241841
v 0.597211 0.675491 0.940143
vn 3.985933 4.805420 -0.495335
v 0.607202 0.655662 0.821337
vn 3.374021 5.148583 -0.211514
v 0.597198 0.675505 0.940153
vn 5.300614 2.254952 -0.241163
v 0.644171 0.620079 0.821337
vn 4.937303 3.717766 -0.107875
v 0.634168 0.639922 0.940153
vn 3.206133 -0.872569 -2.721638
v 0.643799 0.571850 0.798457
vn 1.749848 -2.751792 -2.315505
v 0.574965 0.419524 0.818067
vn -3.182452 -1.123308 -3.083154
v 0.393785 0.495870 0.803307
vn -1.384779 -2.506315 -4.819749
v 0.430755 0.460288 0.803307
vn 1.461059 5.933251 0.553556
v 0.502790 0.716269 0.959725
vn 1.198872 5.355261 2.174667
v 0.497133 0.710387 1.003394
vn 1.533536 5.956395 -0.385054
v 0.502790 0.716269 0.925393
vn 0.424479 6.229861 -0.227372
v 0.502776 0.716271 0.925407
vn 0.402210 6.216949 0.330430
v 0.502776 0.716271 0.959713
vn 0.168583 4.167059 3.342857
v 0.497117 0.710387 1.003400
vn 5.940527 1.331046 0.145626
v 0.644171 0.620079 0.855668
vn 6.211831 -0.419613 0.669678
v 0.634168 0.593898 0.974484
vn 0.564408 1.847508 5.775636
v 0.591522 0.669616 1.018159
vn 2.848986 0.412502 4.833508
v 0.628507 0.634020 1.018159
vn 0.345217 0.506249 6.248058
v 0.522707 0.517297 1.037763
vn 0.990438 0.186372 6.153316
v 0.559677 0.481715 1.037763
vn 0.078541 0.410338 6.253860
v 0.522678 0.517294 1.037765
vn 0.312581 0.070887 6.265320
v 0.559663 0.481698 1.037765
vn 3.500634 -0.365509 4.644825
v 0.628507 0.588020 1.018159
vn -2.581651 5.284849 0.320640
v 0.452988 0.716269 0.959725
vn -2.958612 3.709340 1.405208
v 0.447332 0.710387 1.003394
vn -0.749166 6.139366 0.281021
v 0.452996 0.716271 0.959713
vn -3.027865 4.783626 -0.354371
v 0.452988 0.716269 0.925393
vn -5.138468 3.444559 -0.049370
v 0.447332 0.710387 0.969063
vn -0.781456 6.149314 -0.199052
v 0.452996 0.716271 0.925407
vn -5.951986 1.833934 -0.038114
v 0.378493 0.558065 0.988699
vn -1.118225 3.254211 3.171141
v 0.447337 0.710387 1.003400
vn -3.206135 0.872573 2.721537
v 0.378493 0.558065 1.023005
vn 6.239109 -0.506847 -0.027127
v 0.644171 0.574055 0.821337
vn 0.207384 -0.480374 6.219376
v 0.559663 0.435699 1.037765
vn -5.929933 -1.689169 -0.156989
v 0.378125 0.509832 0.965792
vn -3.576865 -0.299713 3.021635
v 0.378493 0.512065 1.023005
vn -6.249766 -0.436405 0.063320
v 0.378121 0.509859 1.000115
vn -6.242068 -0.375095 -0.201573
v 0.378121 0.509859 0.965810
vn -1.151243 -1.125222 6.019599
v 0.472905 0.471273 1.037763
vn -0.704235 -0.355143 6.178080
v 0.472898 0.471295 1.037765
vn -0.139419 -0.573029 6.222485
v 0.509883 0.435699 1.037765
vn 0.971728 2.947176 -3.323028
v 0.512421 0.694220 0.783697
vn 0.903861 0.751736 -6.042334
v 0.549391 0.658638 0.783697
vn -0.163681 -0.424427 -6.246743
v 0.499590 0.612614 0.783697
vn 1.338843 5.949564 -0.765262
v 0.502417 0.714063 0.902513
vn 2.558953 3.439409 -2.876484
v 0.606829 0.653456 0.798457
vn -1.859643 2.161391 -2.763358
v 0.462620 0.694220 0.783697
vn 0.401196 5.583621 -2.204408
v 0.512408 0.694224 0.783702
vn -0.845884 -0.109629 -6.157942
v 0.462620 0.648196 0.783697
vn 3.120372 1.193608 -2.455649
v 0.643799 0.617874 0.798457
vn 0.435075 -0.404357 -6.205206
v 0.549391 0.612614 0.783697
vn 3.060417 5.418412 -0.607927
v 0.596825 0.673299 0.917273
vn 0.115624 6.224327 -0.794277
v 0.502404 0.714064 0.902518
vn -2.969166 4.287698 -0.747760
v 0.452616 0.714063 0.902513
vn -0.525519 5.553158 -2.204817
v 0.462629 0.694224 0.783702
vn -3.889724 0.660772 -3.039074
v 0.393784 0.541902 0.803307
vn -5.536866 2.916418 -0.264814
v 0.446960 0.708182 0.946182
vn -5.918818 1.788302 -0.647032
v 0.383780 0.561742 0.922123
vn -0.192119 6.219922 -0.784153
v 0.452624 0.714064 0.902518
vn -5.985392 1.229838 -0.271154
v 0.378121 0.555858 0.965810
vn 0.130168 -1.434934 -6.069065
v 0.480557 0.460288 0.803307
vn -3.862102 -0.102732 -3.424675
v 0.393784 0.495902 0.803307
vn -6.239913 -0.214882 -0.619600
v 0.388126 0.490018 0.846994
vn -0.130173 1.434725 6.069121
v 0.541743 0.669616 1.018159
vn -0.435105 0.404289 6.205213
v 0.472898 0.517294 1.037765
vn -6.239326 0.505607 0.027062
v 0.378121 0.555858 1.000115
vn -6.211831 0.419614 -0.669682
v 0.388126 0.536017 0.846994
# 116 vertices, 0 vertices normals

f 1//1 2//2 3//3
f 1//1 4//4 5//5
f 1//1 5//5 2//2
f 1//1 6//6 4//4
f 1//1 3//3 6//6
f 7//7 8//8 9//9
f 7//7 10//10 8//8
f 7//7 9//9 10//10
f 8//8 2//2 9//9
f 8//8 10//10 11//11
f 8//8 11//11 12//12
f 8//8 12//12 3//3
f 8//8 3//3 2//2
f 2//2 5//5 9//9
f 13//13 14//14 15//15
f 13//13 16//16 14//14
f 13//13 17//17 16//16
f 13//13 15//15 17//17
f 14//14 16//16 18//18
f 14//14 18//18 15//15
f 16//16 17//17 19//19
f 16//16 19//19 20//20
f 16//16 20//20 18//18
f 18//18 20//20 15//15
f 21//21 22//22 23//23
f 21//21 24//24 22//22
f 21//21 25//25 26//26
f 21//21 23//23 25//25
f 21//21 26//26 24//24
f 22//22 24//24 27//27
f 22//22 27//27 28//28
f 22//22 28//28 29//29
f 22//22 29//29 23//23
f 24//24 26//26 30//30
f 24//24 30//30 31//31
f 24//24 31//31 27//27
f 27//27 32//32 33//33
f 27//27 31//31 34//34
f 27//27 35//35 28//28
f 27//27 34//34 32//32
f 27//27 33//33 35//35
f 32//32 34//34 33//33
f 36//36 4//4 37//37
f 36//36 38//38 39//39
f 36//36 37//37 38//38
f 36//36 9//9 5//5
f 36//36 5//5 4//4
f 36//36 40//40 41//41
f 36//36 39//39 40//40
f 36//36 41//41 9//9
f 4//4 42//42 37//37
f 4//4 6//6 43//43
f 4//4 43//43 42//42
f 42//42 44//44 37//37
f 42//42 43//43 45//45
f 42//42 45//45 44//44
f 38//38 37//37 46//46
f 38//38 46//46 47//47
f 38//38 47//47 39//39
f 37//37 44//44 46//46
f 46//46 44//44 47//47
f 44//44 48//48 47//47
f 44//44 45//45 48//48
f 49//49 50//50 51//51
f 49//49 52//52 50//50
f 49//49 51//51 53//53
f 49//49 53//53 52//52
f 25//25 23//23 29//29
f 25//25 54//54 26//26
f 25//25 55//55 54//54
f 25//25 29//29 55//55
f 10//10 9//9 41//41
f 10//10 56//56 11//11
f 10//10 41//41 56//56
f 11//11 56//56 57//57
f 11//11 57//57 12//12
f 58//58 59//59 17//17
f 58//58 17//17 51//51
f 58//58 60//60 61//61
f 58//58 51//51 60//60
f 58//58 62//62 59//59
f 58//58 61//61 62//62
f 59//59 19//19 17//17
f 59//59 62//62 63//63
f 59//59 63//63 19//19
f 64//64 15//15 65//65
f 64//64 30//30 52//52
f 64//64 65//65 30//30
f 64//64 52//52 53//53
f 64//64 53//53 15//15
f 17//17 15//15 53//53
f 17//17 53//53 51//51
f 15//15 20//20 65//65
f 19//19 63//63 66//66
f 19//19 66//66 67//67
f 19//19 67//67 20//20
f 20//20 34//34 65//65
f 20//20 67//67 34//34
f 68//68 69//69 67//67
f 68//68 66//66 70//70
f 68//68 67//67 66//66
f 68//68 70//70 71//71
f 68//68 71//71 69//69
f 69//69 33//33 72//72
f 69//69 71//71 33//33
f 69//69 72//72 67//67
f 73//73 74//74 75//75
f 73//73 76//76 77//77
f 73//73 77//77 74//74
f 73//73 75//75 78//78
f 73//73 78//78 76//76
f 74//74 77//77 79//79
f 74//74 80//80 75//75
f 74//74 81//81 80//80
f 74//74 79//79 81//81
f 26//26 54//54 82//82
f 26//26 82//82 30//30
f 30//30 65//65 31//31
f 30//30 82//82 52//52
f 31//31 65//65 34//34
f 28//28 35//35 43//43
f 28//28 6//6 29//29
f 28//28 43//43 6//6
f 35//35 33//33 43//43
f 34//34 67//67 72//72
f 34//34 72//72 33//33
f 33//33 45//45 43//43
f 33//33 71//71 83//83
f 33//33 83//83 45//45
f 40//40 39//39 84//84
f 40//40 84//84 41//41
f 39//39 47//47 85//85
f 39//39 86//86 87//87
f 39//39 85//85 86//86
f 39//39 87//87 84//84
f 47//47 48//48 88//88
f 47//47 88//88 89//89
f 47//47 89//89 85//85
f 48//48 45//45 88//88
f 6//6 3//3 29//29
f 88//88 45//45 89//89
f 45//45 83//83 90//90
f 45//45 90//90 89//89
f 91//91 92//92 93//93
f 91//91 94//94 95//95
f 91//91 95//95 92//92
f 91//91 96//96 97//97
f 91//91 98//98 96//96
f 91//91 93//93 98//98
f 91//91 97//97 94//94
f 92//92 95//95 99//99
f 92//92 99//99 100//100
f 92//92 100//100 93//93
f 94//94 60//60 101//101
f 94//94 101//101 95//95
f 94//94 97//97 102//102
f 94//94 102//102 61//61
f 94//94 61//61 60//60
f 60//60 51//51 101//101
f 95//95 50//50 52//52
f 95//95 52//52 99//99
f 95//95 101//101 50//50
f 99//99 52//52 82//82
f 99//99 54//54 100//100
f 99//99 82//82 54//54
f 50//50 101//101 51//51
f 96//96 103//103 104//104
f 96//96 98//98 105//105
f 96//96 104//104 97//97
f 96//96 105//105 103//103
f 103//103 106//106 76//76
f 103//103 76//76 78//78
f 103//103 105//105 107//107
f 103//103 108//108 104//104
f 103//103 78//78 108//108
f 103//103 107//107 106//106
f 106//106 77//77 76//76
f 106//106 107//107 109//109
f 106//106 109//109 79//79
f 106//106 79//79 77//77
f 100//100 110//110 93//93
f 100//100 54//54 110//110
f 110//110 54//54 55//55
f 110//110 55//55 12//12
f 110//110 57//57 93//93
f 110//110 12//12 57//57
f 55//55 29//29 12//12
f 29//29 3//3 12//12
f 98//98 93//93 56//56
f 98//98 56//56 111//111
f 98//98 111//111 105//105
f 93//93 57//57 56//56
f 56//56 41//41 112//112
f 56//56 112//112 111//111
f 41//41 84//84 87//87
f 41//41 87//87 112//112
f 62//62 75//75 63//63
f 62//62 61//61 75//75
f 63//63 75//75 80//80
f 63//63 80//80 113//113
f 63//63 113//113 66//66
f 66//66 113//113 70//70
f 70//70 113//113 114//114
f 70//70 114//114 89//89
f 70//70 89//89 90//90
f 70//70 90//90 71//71
f 71//71 90//90 83//83
f 75//75 61//61 78//78
f 80//80 81//81 114//114
f 80//80 114//114 113//113
f 115//115 81//81 79//79
f 115//115 86//86 85//85
f 115//115 85//85 81//81
f 115//115 109//109 86//86
f 115//115 79//79 109//109
f 81//81 85//85 114//114
f 114//114 85//85 89//89
f 86//86 109//109 87//87
f 97//97 104//104 102//102
f 102//102 104//104 108//108
f 102//102 108//108 78//78
f 102//102 78//78 61//61
f 105//105 116//116 107//107
f 105//105 111//111 116//116
f 116//116 109//109 107//107
f 116//116 111//111 112//112
f 116//116 112//112 87//87
f 116//116 87//87 109//109
# 228 faces, 0 coords texture

# End of File
