####
#
# OBJ File Generated by Meshlab
#
####
# Object matlab_mesh_step23_link4.obj
#
# Vertices: 196
# Faces: 388
#
####
vn 2.538321 -0.644843 5.671574
v 0.074384 0.593624 0.966864
vn 2.629422 -0.493934 5.621716
v 0.169208 0.591614 0.924199
vn 2.943713 2.594474 3.465536
v 0.136645 0.615767 0.938750
vn 1.220793 0.581513 5.446624
v 0.074005 0.593632 0.967035
vn 2.158486 -1.677259 5.615894
v 0.144435 0.387003 0.887326
vn 2.725368 -0.627857 5.570119
v 0.169416 0.591584 0.924097
vn 2.789528 0.282223 5.621501
v 0.170443 0.591713 0.923586
vn 1.114195 3.231662 5.270182
v 0.026391 0.606541 0.969297
vn 0.862896 2.724632 5.443481
v 0.026308 0.606556 0.969305
vn 0.491831 2.310661 5.167851
v 0.026236 0.606567 0.969310
vn 0.060964 -1.183596 6.163641
v 0.009555 0.587550 0.967443
vn -0.315007 -3.720639 2.798890
v 0.015289 0.375334 0.918606
vn 0.079234 -0.065969 6.205855
v 0.007510 0.604140 0.970061
vn 2.547741 3.071230 3.495688
v 0.136605 0.615788 0.938764
vn 1.432576 -2.237665 5.637662
v 0.034014 0.377771 0.917854
vn 1.661754 -2.745236 5.251867
v 0.037797 0.377328 0.916639
vn 2.015078 1.909489 5.626232
v 0.132822 0.616231 0.939979
vn 1.450526 3.920579 3.581456
v 0.132783 0.616246 0.939987
vn 0.805921 -2.966606 5.102403
v 0.033997 0.377769 0.917857
vn 3.667225 0.926907 2.204347
v 0.170651 0.591683 0.923484
vn 3.265166 -2.294680 2.939232
v 0.144442 0.386994 0.887320
vn 5.651168 1.582647 -1.995905
v 0.123101 0.626472 0.814490
vn 4.874848 1.910856 -0.173742
v 0.170722 0.591968 0.921951
vn 2.096363 -1.187616 -3.158039
v 0.110066 0.420137 0.727255
vn 5.613266 1.565082 -2.085833
v 0.123025 0.626528 0.814317
vn 4.801213 2.917750 -1.441298
v 0.102239 0.648908 0.778780
vn 3.530145 -3.092081 1.456707
v 0.144443 0.386985 0.887307
vn 4.767616 3.844186 -0.649319
v 0.170262 0.592398 0.921093
vn 4.062957 4.758060 0.139795
v 0.137118 0.622673 0.896774
vn 6.115208 -0.327406 -1.135892
v 0.170592 0.590986 0.921529
vn 3.909117 4.862043 0.723190
v 0.137704 0.621276 0.905788
vn 3.789692 4.885940 1.066527
v 0.136960 0.617304 0.931953
vn 3.789569 4.951662 0.685818
v 0.137653 0.621324 0.905736
vn 5.902048 -1.713332 -0.441641
v 0.145407 0.392589 0.854196
vn 6.211997 -0.932888 0.025975
v 0.144713 0.388556 0.880508
vn 5.615353 1.435719 -2.303322
v 0.122564 0.626958 0.813459
vn 3.687740 3.470012 2.959739
v 0.136691 0.615738 0.938727
vn 5.497010 0.966072 -2.858122
v 0.104267 0.632326 0.776121
vn 0.550398 -6.065600 0.266323
v 0.140400 0.381471 0.869326
vn 2.675240 -4.282272 -0.135468
v 0.141635 0.381571 0.868714
vn 3.341843 -4.098209 0.889980
v 0.144439 0.386976 0.887285
vn 1.150001 -4.269135 3.447100
v 0.037785 0.377326 0.916641
vn 0.126552 -5.408467 1.474013
v 0.019077 0.374891 0.917390
vn -0.474423 -6.179787 -0.929048
v 0.018544 0.376235 0.908461
vn -0.433815 -6.151006 -1.090357
v 0.019238 0.380271 0.882117
vn 6.225271 -0.709011 -0.462053
v 0.145407 0.392604 0.854169
vn 5.819596 -1.148724 -1.485052
v 0.144875 0.393947 0.845240
vn 2.838054 -4.193720 -0.857487
v 0.141705 0.381856 0.867180
vn 5.836500 -2.313927 -0.231828
v 0.145132 0.391003 0.861016
vn 4.220835 -4.213542 -1.741284
v 0.144868 0.393920 0.845272
vn 5.067202 -2.579223 -1.348349
v 0.144874 0.393935 0.845252
vn 5.996022 -1.731191 -0.152114
v 0.145137 0.391018 0.860995
vn -0.085787 -5.297920 -2.913774
v 0.091357 0.417695 0.728013
vn 2.192580 -4.730144 -2.457750
v 0.110065 0.420130 0.727264
vn -0.504486 -6.102689 -1.315279
v -0.015557 0.406452 0.764129
vn -0.511845 -5.447312 -2.613374
v -0.015286 0.408026 0.757317
vn 3.453836 5.179698 0.720988
v 0.137608 0.621363 0.905692
vn 3.447584 5.117407 1.100823
v 0.136915 0.617336 0.931962
vn 4.057645 4.795433 -0.133255
v 0.103158 0.648217 0.781893
vn 3.740052 5.002637 0.222059
v 0.137074 0.622711 0.896736
vn -0.076161 -0.640785 6.238404
v 0.007455 0.604142 0.970061
vn -0.100972 -1.224086 6.156150
v 0.009507 0.587541 0.967441
vn 0.028434 0.570741 6.211828
v -0.026041 0.609004 0.970061
vn 0.315683 1.934940 5.807346
v 0.026175 0.606574 0.969311
vn -0.184157 0.792970 5.936258
v -0.026150 0.609011 0.970061
vn 0.247001 3.183962 4.650750
v -0.007430 0.611443 0.969311
vn 2.939363 5.476297 0.772336
v 0.137568 0.621392 0.905653
vn 2.926407 5.417434 1.141975
v 0.136875 0.617360 0.931965
vn 0.379483 3.135068 4.933733
v -0.007315 0.611431 0.969310
vn 0.949078 5.048296 3.038641
v 0.132751 0.616251 0.939988
vn 0.469481 5.454509 2.584513
v 0.099078 0.621127 0.939988
vn 3.847353 3.320306 -1.391503
v 0.102215 0.648928 0.778741
vn 3.258312 5.360494 0.228341
v 0.103135 0.648235 0.781859
vn 3.166999 5.378817 0.400042
v 0.137035 0.622738 0.896709
vn -0.274925 -1.201221 6.154458
v -0.024098 0.592410 0.967441
vn -0.584047 1.918681 4.884320
v -0.026228 0.609016 0.970057
vn -0.704010 -1.240182 6.101093
v -0.024172 0.592409 0.967436
vn -0.723454 -3.693634 2.621511
v -0.018357 0.380207 0.918606
vn 1.354742 -5.221673 3.206389
v 0.137611 0.386366 0.889186
vn 1.573593 -3.769602 4.481017
v 0.137602 0.386374 0.889200
vn -0.040119 4.018963 3.815471
v -0.007520 0.611451 0.969308
vn 2.023927 5.836571 0.846009
v 0.137535 0.621413 0.905620
vn 1.907171 5.795878 1.181921
v 0.136841 0.617376 0.931964
vn 1.870769 3.949339 3.285387
v 0.136571 0.615803 0.938771
vn 4.699561 1.107465 -3.866303
v 0.104250 0.632332 0.776094
vn 2.349920 5.762183 0.624264
v 0.137003 0.622756 0.896692
vn 2.580413 3.394116 -1.796913
v 0.102193 0.648939 0.778715
vn 2.138958 5.858490 0.669085
v 0.103115 0.648246 0.781837
vn -1.520047 2.011231 3.407137
v -0.026274 0.609016 0.970050
vn -2.314542 -1.234732 5.510029
v -0.024216 0.592414 0.967429
vn -1.992050 -2.727509 2.014383
v -0.018382 0.380211 0.918604
vn -0.924100 -6.170178 -0.719654
v -0.014569 0.379764 0.917390
vn -1.074123 -6.121288 -0.918080
v -0.018889 0.381550 0.909677
vn -1.444616 -6.043832 -0.847873
v -0.018913 0.381552 0.909693
vn -0.953805 -6.140726 -0.921980
v -0.015101 0.381107 0.908461
vn -0.858657 6.100753 1.200060
v -0.060768 0.636772 0.845274
vn -0.921942 6.024139 1.504270
v -0.061038 0.635199 0.852081
vn -0.693508 6.071082 1.457953
v -0.042388 0.637630 0.851321
vn -0.823265 6.155836 0.948903
v -0.061300 0.638115 0.836345
vn -2.026115 5.700201 1.090367
v -0.060806 0.636769 0.845256
vn -2.605322 5.116698 1.683264
v -0.061076 0.635195 0.852068
vn -0.664509 6.135041 1.150876
v -0.042117 0.639204 0.844508
vn -0.378124 5.195427 2.949889
v -0.007586 0.611451 0.969303
vn -1.544517 5.811266 1.745061
v -0.027196 0.609710 0.966926
vn -0.566512 6.069415 1.513967
v -0.008507 0.612145 0.966178
vn 0.877066 6.088387 1.268935
v 0.099408 0.622691 0.933180
vn 0.888765 6.122583 1.096579
v 0.098486 0.623384 0.930058
vn 0.406281 6.101787 1.316349
v 0.099349 0.622701 0.933176
vn 0.864407 5.992116 1.663472
v 0.099137 0.621118 0.939987
vn 0.992073 6.069278 1.260179
v 0.133022 0.617825 0.933176
vn 1.132654 6.023289 1.382068
v 0.133053 0.617819 0.933180
vn 1.146168 6.062818 1.165891
v 0.136813 0.617382 0.931960
vn 1.554073 6.018114 0.877084
v 0.103647 0.646903 0.790766
vn 1.228455 6.081869 0.987308
v 0.102953 0.642866 0.817110
vn 1.394051 6.051256 0.854873
v 0.102726 0.647596 0.787644
vn 1.154191 6.095398 0.984983
v 0.102032 0.643559 0.813988
vn 0.640854 6.174311 0.930558
v 0.065292 0.652911 0.788860
vn 0.953838 6.140720 0.921984
v 0.098938 0.648039 0.788860
vn 0.924118 6.170182 0.719575
v 0.098406 0.649382 0.779931
vn 0.615098 6.149009 1.085224
v 0.064598 0.648874 0.815204
vn 0.956125 6.123717 1.024640
v 0.098244 0.644002 0.815204
vn 0.650955 6.201762 0.442569
v 0.064760 0.654255 0.779931
vn 0.102189 6.204922 0.935564
v 0.065241 0.652919 0.788829
vn 0.051811 6.164302 1.119473
v 0.064547 0.648880 0.815194
vn 0.071433 6.133204 1.339806
v 0.098427 0.623394 0.930052
vn -0.407996 6.139920 1.213739
v -0.042059 0.639207 0.844525
vn -0.435301 6.093114 1.444693
v -0.042329 0.637634 0.851332
vn -0.427212 6.195193 0.948155
v -0.042591 0.640550 0.835597
vn -0.168008 6.121145 1.407755
v 0.098157 0.621820 0.936864
vn -0.167931 6.121155 1.407720
v 0.064276 0.647305 0.822006
vn -0.126639 6.086335 1.548022
v -0.000740 0.612072 0.967421
vn -0.812014 -1.735673 -5.058235
v 0.057705 0.422577 0.728003
vn 0.167711 -3.367484 -4.236527
v 0.091378 0.417702 0.728003
vn -1.340619 -3.940072 -3.551023
v -0.048959 0.412902 0.757317
vn -1.098874 -3.049543 -5.004990
v 0.050859 0.421956 0.729884
vn -1.154053 -6.095435 -0.984922
v -0.018218 0.385592 0.883328
vn -0.950090 -6.125222 -1.021850
v -0.014407 0.385144 0.882117
vn -1.033720 -6.111141 -1.030916
v -0.014427 0.385149 0.882111
vn 0.885088 -5.619382 -1.507944
v -0.048308 0.410634 0.767254
vn -1.007203 -6.064407 -1.268576
v -0.049230 0.411328 0.764129
vn 3.852342 1.225676 -4.805609
v 0.104232 0.632339 0.776080
vn -0.830586 6.172905 0.806303
v -0.060606 0.642152 0.810001
vn -0.658306 6.174998 0.948259
v -0.042648 0.640545 0.835597
vn -1.756887 5.499348 -0.617626
v -0.060642 0.642150 0.809979
vn -2.060272 5.729419 0.883600
v -0.061337 0.638110 0.836344
vn -0.731708 6.156526 -0.025728
v -0.041954 0.644585 0.809232
vn 0.873585 6.179017 -0.169561
v 0.068548 0.653812 0.778715
vn 0.346783 3.806762 -3.133304
v 0.068501 0.653817 0.778701
vn -0.154070 5.729642 -1.105850
v 0.064710 0.654260 0.779918
vn -0.440897 6.215189 0.757369
v -0.041897 0.644587 0.809253
vn -0.252676 6.206172 0.946159
v 0.064016 0.650220 0.806283
vn -0.590373 6.224343 -0.093762
v -0.035108 0.645206 0.807351
vn 1.348405 3.197413 -3.026749
v 0.102174 0.648942 0.778701
vn 1.864778 1.201821 -5.551396
v 0.108008 0.436739 0.729876
vn -3.293227 1.694623 2.552123
v -0.026289 0.609015 0.970039
vn -3.746958 -4.194599 0.174524
v -0.019303 0.380905 0.915480
vn -4.474075 -1.122519 4.110798
v -0.020440 0.396814 0.921225
vn -5.607123 -0.915443 2.446744
v -0.020445 0.396812 0.921216
vn -5.702620 -1.607378 1.776859
v -0.018386 0.380220 0.918597
vn -3.985089 -3.228172 0.108277
v -0.053184 0.406390 0.800622
vn -6.096508 -0.656932 1.256313
v -0.055242 0.422993 0.803243
vn -6.193011 -0.628895 0.631143
v -0.055243 0.422989 0.803231
vn -3.773322 -3.340799 -0.473204
v -0.053715 0.407731 0.791711
vn -1.553850 -6.018188 -0.877011
v -0.019834 0.382245 0.906568
vn -6.224981 -0.815903 0.249605
v -0.053185 0.406396 0.800612
vn -6.224104 -0.824467 0.242592
v -0.053715 0.407734 0.791722
vn -4.639087 3.229471 0.459633
v -0.061346 0.638104 0.836349
vn -3.517241 5.089475 0.987411
v -0.060816 0.636766 0.845240
vn -4.643301 2.219194 1.111618
v -0.061087 0.635192 0.852054
vn -4.804950 2.086455 1.880131
v -0.027211 0.609708 0.966914
vn -2.987077 -2.521121 -2.053024
v -0.052750 0.413345 0.758533
vn -3.603700 -3.383254 -0.763732
v -0.053020 0.411771 0.765346
vn -3.930366 0.319792 -3.062519
v -0.054808 0.429942 0.761151
vn -3.517172 -0.503170 -3.992615
v -0.052750 0.413350 0.758532
vn -1.678689 -0.765968 -5.801704
v -0.048957 0.412906 0.757315
vn -0.109963 0.112134 -6.196552
v 0.076394 0.425012 0.727255
vn -1.075998 1.080946 -6.033060
v 0.055647 0.439179 0.730623
vn -0.118467 1.200246 -6.148773
v 0.074335 0.441614 0.729876
vn -1.760005 0.996878 -5.940233
v -0.051016 0.429499 0.759934
vn -1.173512 -6.088858 -1.004880
v -0.019140 0.386285 0.880203
vn -2.575486 -5.431737 -0.445532
v -0.015349 0.385842 0.878987
vn -6.252553 -0.426022 -0.289094
v -0.055079 0.428368 0.767966
vn -6.244339 -0.483867 0.029896
v -0.055773 0.424327 0.794341
vn -0.993167 5.943142 -1.652138
v -0.053797 0.642771 0.808098
vn -0.853875 6.072574 -1.334010
v 0.046022 0.651825 0.780665
vn -1.286217 3.682750 -3.660510
v 0.046016 0.651824 0.780663
vn -0.686555 5.463960 -2.170072
v 0.064678 0.654257 0.779917
vn -1.498450 3.404610 -4.328887
v -0.053803 0.642766 0.808092
vn -2.871153 2.050478 -1.786105
v -0.060652 0.642145 0.809974
vn -1.738460 1.308380 -5.894431
v -0.056859 0.641701 0.808757
vn -1.738431 1.308479 -5.894418
v -0.050011 0.642323 0.806875
vn -0.946238 2.808713 -5.102789
v 0.049808 0.651380 0.779446
vn -0.331632 3.267147 -4.759054
v 0.068470 0.653813 0.778700
vn -6.278511 -0.157992 -0.180000
v -0.055773 0.424334 0.794331
vn -6.234672 0.457703 -0.117167
v -0.060922 0.640570 0.816789
vn -5.090935 2.231583 0.504230
v -0.061617 0.636529 0.843164
# 196 vertices, 0 vertices normals

f 1//1 2//2 3//3
f 1//1 4//4 5//5
f 1//1 3//3 4//4
f 1//1 5//5 2//2
f 2//2 6//6 7//7
f 2//2 7//7 3//3
f 2//2 5//5 6//6
f 4//4 8//8 9//9
f 4//4 9//9 10//10
f 4//4 11//11 12//12
f 4//4 13//13 11//11
f 4//4 10//10 13//13
f 4//4 3//3 14//14
f 4//4 15//15 16//16
f 4//4 16//16 5//5
f 4//4 17//17 18//18
f 4//4 14//14 17//17
f 4//4 12//12 19//19
f 4//4 19//19 15//15
f 4//4 18//18 8//8
f 6//6 20//20 7//7
f 6//6 21//21 20//20
f 6//6 5//5 21//21
f 22//22 23//23 24//24
f 22//22 25//25 26//26
f 22//22 26//26 23//23
f 22//22 24//24 25//25
f 23//23 20//20 27//27
f 23//23 28//28 29//29
f 23//23 30//30 24//24
f 23//23 31//31 32//32
f 23//23 33//33 31//31
f 23//23 32//32 20//20
f 23//23 29//29 33//33
f 23//23 26//26 28//28
f 23//23 34//34 30//30
f 23//23 35//35 34//34
f 23//23 27//27 35//35
f 25//25 36//36 26//26
f 25//25 24//24 36//36
f 7//7 20//20 3//3
f 20//20 32//32 37//37
f 20//20 37//37 3//3
f 20//20 21//21 27//27
f 28//28 26//26 29//29
f 36//36 38//38 26//26
f 36//36 24//24 38//38
f 39//39 40//40 41//41
f 39//39 41//41 42//42
f 39//39 43//43 44//44
f 39//39 42//42 43//43
f 39//39 45//45 40//40
f 39//39 44//44 45//45
f 30//30 34//34 46//46
f 30//30 46//46 47//47
f 30//30 47//47 24//24
f 48//48 40//40 45//45
f 48//48 49//49 41//41
f 48//48 41//41 40//40
f 48//48 50//50 51//51
f 48//48 34//34 52//52
f 48//48 52//52 49//49
f 48//48 51//51 34//34
f 48//48 53//53 54//54
f 48//48 45//45 55//55
f 48//48 54//54 50//50
f 48//48 56//56 53//53
f 48//48 55//55 56//56
f 31//31 33//33 32//32
f 8//8 18//18 9//9
f 33//33 29//29 57//57
f 33//33 57//57 58//58
f 33//33 58//58 32//32
f 32//32 58//58 3//3
f 32//32 3//3 37//37
f 9//9 18//18 10//10
f 29//29 59//59 60//60
f 29//29 60//60 57//57
f 29//29 26//26 59//59
f 11//11 13//13 61//61
f 11//11 62//62 12//12
f 11//11 61//61 62//62
f 49//49 52//52 27//27
f 49//49 27//27 41//41
f 41//41 27//27 42//42
f 63//63 13//13 64//64
f 63//63 65//65 13//13
f 63//63 66//66 65//65
f 63//63 64//64 66//66
f 13//13 10//10 64//64
f 13//13 65//65 61//61
f 57//57 60//60 67//67
f 57//57 67//67 68//68
f 57//57 68//68 58//58
f 58//58 68//68 14//14
f 58//58 14//14 3//3
f 69//69 10//10 70//70
f 69//69 66//66 64//64
f 69//69 64//64 10//10
f 69//69 71//71 66//66
f 69//69 70//70 71//71
f 10//10 18//18 70//70
f 50//50 54//54 51//51
f 59//59 26//26 72//72
f 59//59 72//72 60//60
f 60//60 73//73 74//74
f 60//60 74//74 67//67
f 60//60 72//72 73//73
f 26//26 38//38 72//72
f 75//75 62//62 65//65
f 75//75 65//65 76//76
f 75//75 77//77 78//78
f 75//75 78//78 62//62
f 75//75 76//76 77//77
f 62//62 61//61 65//65
f 62//62 78//78 12//12
f 34//34 35//35 52//52
f 34//34 51//51 47//47
f 34//34 47//47 46//46
f 35//35 27//27 52//52
f 15//15 19//19 42//42
f 15//15 42//42 16//16
f 27//27 79//79 42//42
f 27//27 21//21 80//80
f 27//27 80//80 79//79
f 16//16 21//21 5//5
f 16//16 42//42 80//80
f 16//16 80//80 21//21
f 79//79 80//80 42//42
f 65//65 66//66 81//81
f 65//65 81//81 76//76
f 67//67 74//74 82//82
f 67//67 82//82 83//83
f 67//67 83//83 68//68
f 68//68 83//83 84//84
f 68//68 84//84 14//14
f 17//17 14//14 84//84
f 17//17 84//84 18//18
f 66//66 71//71 81//81
f 51//51 54//54 24//24
f 51//51 24//24 47//47
f 38//38 85//85 72//72
f 38//38 24//24 85//85
f 73//73 72//72 86//86
f 73//73 86//86 74//74
f 74//74 86//86 82//82
f 72//72 85//85 87//87
f 72//72 88//88 86//86
f 72//72 87//87 88//88
f 77//77 76//76 89//89
f 77//77 90//90 91//91
f 77//77 91//91 78//78
f 77//77 89//89 90//90
f 78//78 92//92 12//12
f 78//78 93//93 92//92
f 78//78 91//91 94//94
f 78//78 94//94 93//93
f 12//12 92//92 43//43
f 12//12 43//43 19//19
f 92//92 93//93 95//95
f 92//92 95//95 44//44
f 92//92 44//44 43//43
f 43//43 42//42 19//19
f 96//96 97//97 98//98
f 96//96 99//99 100//100
f 96//96 100//100 101//101
f 96//96 101//101 97//97
f 96//96 102//102 99//99
f 96//96 98//98 102//102
f 76//76 81//81 103//103
f 76//76 103//103 89//89
f 97//97 89//89 103//103
f 97//97 101//101 104//104
f 97//97 104//104 89//89
f 97//97 103//103 105//105
f 97//97 105//105 98//98
f 106//106 107//107 108//108
f 106//106 109//109 70//70
f 106//106 108//108 71//71
f 106//106 110//110 107//107
f 106//106 71//71 109//109
f 106//106 70//70 110//110
f 111//111 83//83 112//112
f 111//111 18//18 84//84
f 111//111 84//84 83//83
f 111//111 110//110 70//70
f 111//111 112//112 110//110
f 111//111 70//70 18//18
f 113//113 114//114 82//82
f 113//113 82//82 86//86
f 113//113 115//115 116//116
f 113//113 116//116 114//114
f 113//113 88//88 115//115
f 113//113 86//86 88//88
f 114//114 83//83 82//82
f 114//114 116//116 112//112
f 114//114 112//112 83//83
f 117//117 118//118 119//119
f 117//117 120//120 121//121
f 117//117 121//121 118//118
f 117//117 122//122 123//123
f 117//117 119//119 122//122
f 117//117 123//123 124//124
f 117//117 124//124 120//120
f 118//118 121//121 116//116
f 118//118 115//115 119//119
f 118//118 116//116 115//115
f 120//120 107//107 110//110
f 120//120 108//108 107//107
f 120//120 110//110 121//121
f 120//120 124//124 125//125
f 120//120 125//125 108//108
f 121//121 110//110 112//112
f 121//121 112//112 116//116
f 126//126 127//127 71//71
f 126//126 128//128 102//102
f 126//126 124//124 128//128
f 126//126 102//102 98//98
f 126//126 71//71 129//129
f 126//126 130//130 124//124
f 126//126 129//129 130//130
f 126//126 98//98 127//127
f 115//115 88//88 87//87
f 115//115 87//87 119//119
f 109//109 71//71 70//70
f 81//81 131//131 103//103
f 81//81 71//71 131//131
f 127//127 131//131 71//71
f 127//127 103//103 131//131
f 127//127 98//98 105//105
f 127//127 105//105 103//103
f 53//53 132//132 133//133
f 53//53 133//133 54//54
f 53//53 134//134 135//135
f 53//53 56//56 134//134
f 53//53 135//135 132//132
f 93//93 136//136 95//95
f 93//93 94//94 136//136
f 137//137 45//45 95//95
f 137//137 95//95 136//136
f 137//137 136//136 138//138
f 137//137 139//139 140//140
f 137//137 138//138 139//139
f 137//137 140//140 45//45
f 45//45 44//44 95//95
f 45//45 140//140 55//55
f 85//85 141//141 87//87
f 85//85 24//24 141//141
f 54//54 133//133 24//24
f 142//142 99//99 143//143
f 142//142 144//144 145//145
f 142//142 145//145 99//99
f 142//142 146//146 144//144
f 142//142 143//143 146//146
f 99//99 102//102 143//143
f 99//99 145//145 100//100
f 122//122 119//119 87//87
f 122//122 147//147 148//148
f 122//122 87//87 147//147
f 122//122 149//149 123//123
f 122//122 148//148 149//149
f 150//150 128//128 151//151
f 150//150 152//152 146//146
f 150//150 149//149 152//152
f 150//150 151//151 149//149
f 150//150 146//146 143//143
f 150//150 143//143 128//128
f 128//128 124//124 151//151
f 128//128 143//143 102//102
f 147//147 87//87 153//153
f 147//147 153//153 148//148
f 87//87 141//141 24//24
f 87//87 24//24 154//154
f 87//87 154//154 153//153
f 90//90 89//89 155//155
f 90//90 155//155 91//91
f 91//91 156//156 94//94
f 91//91 157//157 158//158
f 91//91 159//159 156//156
f 91//91 155//155 157//157
f 91//91 158//158 159//159
f 160//160 156//156 159//159
f 160//160 161//161 162//162
f 160//160 163//163 164//164
f 160//160 164//164 156//156
f 160//160 159//159 158//158
f 160//160 165//165 166//166
f 160//160 158//158 161//161
f 160//160 162//162 165//165
f 160//160 166//166 163//163
f 156//156 164//164 94//94
f 100//100 145//145 167//167
f 100//100 168//168 169//169
f 100//100 169//169 101//101
f 100//100 167//167 168//168
f 89//89 104//104 155//155
f 157//157 155//155 158//158
f 101//101 155//155 104//104
f 101//101 169//169 170//170
f 101//101 170//170 155//155
f 161//161 155//155 170//170
f 161//161 158//158 155//155
f 161//161 169//169 162//162
f 161//161 170//170 169//169
f 108//108 125//125 129//129
f 108//108 129//129 71//71
f 123//123 149//149 151//151
f 123//123 151//151 124//124
f 124//124 130//130 125//125
f 125//125 130//130 129//129
f 171//171 134//134 140//140
f 171//171 172//172 173//173
f 171//171 140//140 172//172
f 171//171 174//174 134//134
f 171//171 173//173 174//174
f 132//132 135//135 175//175
f 132//132 176//176 133//133
f 132//132 177//177 178//178
f 132//132 178//178 176//176
f 132//132 175//175 179//179
f 132//132 179//179 177//177
f 133//133 176//176 24//24
f 134//134 56//56 140//140
f 134//134 174//174 175//175
f 134//134 175//175 135//135
f 56//56 55//55 140//140
f 136//136 94//94 164//164
f 136//136 180//180 181//181
f 136//136 164//164 180//180
f 136//136 181//181 138//138
f 139//139 138//138 181//181
f 139//139 181//181 140//140
f 172//172 163//163 182//182
f 172//172 180//180 163//163
f 172//172 140//140 181//181
f 172//172 181//181 180//180
f 172//172 182//182 173//173
f 163//163 180//180 164//164
f 163//163 166//166 183//183
f 163//163 183//183 182//182
f 176//176 178//178 154//154
f 176//176 154//154 24//24
f 184//184 185//185 186//186
f 184//184 144//144 187//187
f 184//184 186//186 144//144
f 184//184 187//187 185//185
f 185//185 187//187 186//186
f 144//144 146//146 187//187
f 144//144 188//188 189//189
f 144//144 186//186 188//188
f 144//144 189//189 167//167
f 144//144 167//167 145//145
f 177//177 189//189 190//190
f 177//177 173//173 189//189
f 177//177 191//191 192//192
f 177//177 192//192 193//193
f 177//177 190//190 191//191
f 177//177 179//179 173//173
f 177//177 193//193 178//178
f 194//194 195//195 182//182
f 194//194 196//196 195//195
f 194//194 182//182 183//183
f 194//194 183//183 196//196
f 152//152 149//149 187//187
f 152//152 187//187 146//146
f 149//149 148//148 187//187
f 148//148 153//153 178//178
f 148//148 178//178 193//193
f 148//148 193//193 187//187
f 153//153 154//154 178//178
f 165//165 162//162 183//183
f 165//165 183//183 166//166
f 168//168 167//167 196//196
f 168//168 196//196 169//169
f 169//169 196//196 162//162
f 162//162 196//196 183//183
f 174//174 173//173 179//179
f 174//174 179//179 175//175
f 188//188 186//186 191//191
f 188//188 191//191 190//190
f 188//188 190//190 189//189
f 186//186 192//192 191//191
f 186//186 187//187 192//192
f 189//189 173//173 195//195
f 189//189 195//195 167//167
f 167//167 195//195 196//196
f 173//173 182//182 195//195
f 192//192 187//187 193//193
# 388 faces, 0 coords texture

# End of File
