####
#
# OBJ File Generated by Meshlab
#
####
# Object matlab_mesh_step16_link2.obj
#
# Vertices: 164
# Faces: 324
#
####
vn 2.125132 -2.162623 3.346184
v 0.152929 0.184235 0.903775
vn 3.243500 -1.037853 2.780328
v 0.153059 0.184430 0.903775
vn 0.468769 -0.550911 6.232331
v 0.148777 0.194643 0.905030
vn 0.067752 -0.511691 6.220840
v 0.148771 0.194653 0.905031
vn -0.324809 -0.581218 6.223835
v 0.136220 0.200991 0.905032
vn -0.558259 -0.644585 6.138328
v 0.023235 0.264575 0.905032
vn -0.298744 -0.554673 6.228326
v 0.138806 0.199568 0.905031
vn -1.722263 -0.058001 5.670019
v 0.023222 0.264578 0.905031
vn -3.119746 -0.026408 4.508785
v -0.084290 0.073505 0.829523
vn -1.080486 -1.934458 5.877278
v 0.026883 0.006719 0.828252
vn -1.143561 -2.253345 5.728675
v 0.029455 0.005305 0.828252
vn 1.726757 -2.876675 3.732571
v 0.039440 0.000380 0.828252
vn 1.099966 -3.258758 1.821855
v 0.039038 -0.000351 0.827813
vn -3.310643 -0.074807 3.703734
v -0.086101 0.070288 0.828252
vn -1.224057 -2.175480 5.747244
v -0.079846 0.066769 0.828252
vn 5.667515 -1.217551 0.851345
v 0.153122 0.184525 0.903502
vn 6.010170 0.865325 1.613061
v 0.150977 0.198563 0.904075
vn 2.388893 -0.068355 5.493271
v 0.150735 0.198123 0.905030
vn 5.869024 1.239203 1.792587
v 0.150973 0.198576 0.904080
vn 2.976804 0.478879 4.032508
v 0.150733 0.198138 0.905031
vn 5.680612 -1.231349 0.812001
v 0.153209 0.184657 0.903088
vn 4.756291 -0.101944 -0.448606
v 0.176863 0.220302 0.791677
vn 5.531695 2.066023 0.170188
v 0.171820 0.235590 0.780667
vn 4.343938 3.620833 2.252486
v 0.150965 0.198593 0.904088
vn 4.844829 1.494878 -0.837564
v 0.171814 0.235606 0.780654
vn 4.882392 -0.860969 -3.821771
v 0.171409 0.234869 0.780212
vn 5.468897 2.181860 1.994416
v 0.150969 0.198586 0.904085
vn 1.310782 -4.226305 -1.246574
v 0.059875 0.036681 0.704369
vn 4.877053 -3.739958 -0.758383
v 0.060114 0.037117 0.703422
vn 5.325380 -2.972593 -1.396554
v 0.062078 0.040606 0.703422
vn 2.685374 -0.816847 -3.702985
v 0.062079 0.040609 0.703421
vn 2.850622 5.314977 1.632604
v 0.073571 0.288804 0.791652
vn 2.529390 5.408079 1.955513
v 0.047364 0.304880 0.781109
vn 2.435096 5.220625 2.446788
v 0.025438 0.268500 0.904086
vn 2.586693 5.424085 1.817580
v 0.047231 0.304962 0.781052
vn 2.696508 5.444481 1.601515
v 0.056382 0.300522 0.780757
vn 2.812715 5.436578 1.397418
v 0.056350 0.300546 0.780729
vn 2.844678 5.450958 1.261334
v 0.056322 0.300567 0.780705
vn 3.012094 5.412039 1.053365
v 0.058924 0.299135 0.780705
vn 2.693117 5.107332 2.435306
v 0.035416 0.263579 0.904086
vn 2.799850 5.010054 2.518786
v 0.037995 0.262161 0.904085
vn 3.197586 4.714959 2.514692
v 0.150959 0.198596 0.904090
vn 3.267931 2.608301 -1.450552
v 0.171803 0.235626 0.780638
vn 3.061870 5.091213 2.044110
v 0.152756 0.201789 0.893447
vn -2.320499 -5.496962 -1.552914
v 0.033010 0.003522 0.820495
vn -2.000526 -5.720267 -1.250132
v 0.039013 -0.000340 0.827781
vn -2.817335 -5.571446 -0.699971
v 0.029075 0.004562 0.827793
vn -2.878952 -5.547872 -0.335192
v 0.029066 0.004565 0.827802
vn -3.043244 -5.456556 -0.584232
v 0.026480 0.005988 0.827803
vn -2.822126 -1.594538 1.305073
v -0.086501 0.069560 0.827815
vn -2.625342 -5.289519 -2.145916
v 0.049897 0.041601 0.704369
vn -4.125761 -1.037318 -0.524948
v -0.086501 0.069561 0.827814
vn -4.585066 -2.366798 -1.483919
v -0.067460 0.103401 0.715004
vn -2.790387 -5.014372 -2.517199
v 0.047319 0.043021 0.704364
vn -2.656710 -5.078456 -2.520912
v 0.049890 0.041607 0.704363
vn -4.065771 -1.115824 -1.282589
v -0.065664 0.106594 0.704361
vn 2.582863 5.430192 1.802348
v 0.047107 0.305039 0.780999
vn 2.578609 5.436688 1.786081
v 0.046992 0.305110 0.780950
vn 2.573732 5.444161 1.766659
v 0.046884 0.305176 0.780904
vn 2.568386 5.452107 1.745758
v 0.046786 0.305236 0.780862
vn 2.561845 5.461973 1.718160
v 0.046695 0.305291 0.780823
vn 2.554056 5.472997 1.686985
v 0.046613 0.305340 0.780788
vn 2.544375 5.486598 1.645456
v 0.046540 0.305384 0.780757
vn 2.857508 5.476642 1.103633
v 0.056299 0.300583 0.780685
vn 2.531769 5.502555 1.595157
v 0.046475 0.305422 0.780729
vn 2.515529 5.521742 1.528836
v 0.046419 0.305455 0.780705
vn 2.873285 5.509284 0.858286
v 0.056280 0.300596 0.780668
vn 2.489455 5.548165 1.423254
v 0.046371 0.305483 0.780685
vn 1.285280 5.506597 2.305941
v 0.025426 0.268504 0.904089
vn 3.020700 5.427412 0.935340
v 0.058896 0.299154 0.780684
vn 2.450368 5.579288 1.275679
v 0.046331 0.305505 0.780668
vn 2.888306 5.542103 0.449741
v 0.056265 0.300606 0.780655
vn 3.035126 5.453713 0.694271
v 0.058872 0.299170 0.780667
vn 2.527849 3.488616 -2.433963
v 0.171796 0.235630 0.780636
vn -1.766443 -5.758311 -1.035132
v 0.039023 -0.000346 0.827793
vn 2.371100 5.613786 1.001178
v 0.046300 0.305521 0.780655
vn 3.048116 5.477396 0.287016
v 0.058851 0.299183 0.780654
vn -1.216387 -5.741724 -0.609528
v 0.039031 -0.000350 0.827802
vn -0.033477 -0.059720 6.282439
v 0.136210 0.201000 0.905032
vn -0.048957 -0.086998 6.281599
v 0.029482 0.261059 0.905032
vn -0.035071 -0.067612 6.282619
v 0.138789 0.199581 0.905031
vn -0.001916 -0.038184 6.282865
v 0.148766 0.194661 0.905031
vn 2.786441 1.006510 4.091877
v 0.150730 0.198150 0.905031
vn 2.873455 5.523376 -0.378014
v 0.056255 0.300611 0.780645
vn 2.157375 5.600740 0.427247
v 0.046278 0.305532 0.780645
vn 3.027904 5.441770 -0.540050
v 0.058834 0.299193 0.780644
vn 4.489608 -0.399699 -4.290027
v 0.171405 0.234884 0.780204
vn 4.289229 1.971939 -1.028977
v 0.171808 0.235618 0.780644
vn -3.017452 -5.416078 0.549153
v 0.026479 0.005988 0.827810
vn -2.824842 -5.428630 0.900293
v 0.029058 0.004569 0.827809
vn 1.882625 -5.401931 -1.302778
v 0.058080 0.033491 0.714999
vn 0.191484 -5.042685 0.344741
v 0.039036 -0.000352 0.827809
vn 5.014841 -2.015134 -2.041589
v 0.169596 0.231671 0.778934
vn 1.066130 2.493645 4.587657
v 0.025199 0.268064 0.905032
vn 0.002834 2.776244 4.138650
v 0.025187 0.268070 0.905031
vn 1.292995 2.373813 4.742213
v 0.035176 0.263143 0.905032
vn -0.008317 -0.017863 6.283122
v 0.146187 0.196079 0.905032
vn 0.044843 0.079687 6.281854
v 0.141904 0.203084 0.905032
vn 0.045081 0.079196 6.281855
v 0.148150 0.199568 0.905032
vn 2.407617 4.715464 3.333784
v 0.035173 0.263146 0.905031
vn 0.329657 0.585813 6.227701
v 0.144483 0.201665 0.905031
vn 1.364394 2.426425 4.759352
v 0.037755 0.261724 0.905031
vn 2.585251 4.669489 3.285447
v 0.037744 0.261731 0.905030
vn 2.663052 2.210880 4.071425
v 0.150726 0.198159 0.905030
vn 2.749985 4.145113 3.603139
v 0.150722 0.198164 0.905028
vn 2.472723 4.810234 -2.553074
v 0.056249 0.300613 0.780639
vn 0.886059 5.849381 1.904332
v 0.027221 0.271696 0.893450
vn 1.058596 4.841057 -0.997391
v 0.046264 0.305538 0.780639
vn 2.598142 4.676032 -2.706556
v 0.058821 0.299199 0.780638
vn 2.572523 5.012402 2.768535
v 0.035411 0.263580 0.904089
vn 2.716934 4.902754 2.836511
v 0.037983 0.262166 0.904088
vn 3.920806 4.447085 1.995914
v 0.152760 0.201784 0.893449
vn -2.319861 -4.167248 3.321700
v 0.026481 0.005988 0.827814
vn 0.878112 -4.719370 -1.849049
v 0.059876 0.036683 0.704363
vn -2.143089 -4.067066 3.488353
v 0.029052 0.004574 0.827813
vn 1.098921 -2.343103 -2.662698
v 0.060114 0.037117 0.703421
vn 3.342588 0.613700 -5.050086
v 0.171400 0.234895 0.780200
vn 3.078915 0.374126 -5.330553
v 0.169591 0.231679 0.778929
vn -2.301483 3.172061 2.330898
v 0.025183 0.268072 0.905029
vn -3.921763 1.453634 2.900472
v 0.023218 0.264578 0.905029
vn -5.339670 2.344555 1.569728
v -0.086099 0.070292 0.828252
vn -5.490178 3.055312 0.004336
v -0.085861 0.070726 0.827310
vn -5.476943 3.079105 0.017553
v 0.023455 0.265010 0.904091
vn -1.273084 -2.298668 5.697526
v 0.026885 0.006716 0.828252
vn -1.298484 -2.443215 5.636904
v 0.029448 0.005306 0.828251
vn -1.474917 -2.769523 5.435650
v 0.029048 0.004579 0.827814
vn -5.532270 2.977514 -0.034903
v -0.086263 0.069995 0.826871
vn -5.475894 3.081071 0.000010
v 0.025251 0.268203 0.893448
vn -5.475896 3.081069 -0.000049
v 0.044292 0.302044 0.780637
vn -5.475894 3.081071 -0.000067
v 0.042482 0.298827 0.779365
vn -5.482243 3.068607 -0.053254
v -0.065026 0.107754 0.703860
vn -2.745626 4.549999 0.901511
v 0.027217 0.271696 0.893448
vn -2.401992 4.393440 1.256449
v 0.025421 0.268504 0.904091
vn 1.743908 3.356468 -4.887164
v 0.056248 0.300611 0.780637
vn -1.124216 3.177639 -1.494918
v 0.046258 0.305538 0.780637
vn 1.817457 3.287544 -4.924008
v 0.058811 0.299202 0.780636
vn 2.020835 3.591557 -4.453196
v 0.165542 0.239149 0.780636
vn -3.165839 -0.537259 -2.178519
v -0.065426 0.107026 0.703423
vn -1.398966 -2.513445 -4.594442
v 0.047557 0.043455 0.703422
vn -1.293468 -2.482048 -4.567649
v 0.050129 0.042041 0.703421
vn -1.540937 -2.782290 5.409938
v 0.026485 0.005988 0.827815
vn -1.794917 -3.190045 5.024762
v -0.080247 0.066041 0.827815
vn -2.593099 0.621069 -3.888732
v -0.065425 0.107028 0.703422
vn -0.714649 -1.270076 -5.969519
v -0.059173 0.103511 0.703422
vn -2.035000 1.920321 -3.903186
v -0.063460 0.110520 0.703422
vn -0.045259 -0.079518 -6.281844
v -0.062853 0.105614 0.703421
vn -0.045011 -0.079993 -6.281844
v -0.056602 0.102096 0.703421
vn -5.236600 3.083566 -1.163117
v -0.063461 0.110520 0.703423
vn 0.487370 0.937907 -6.106996
v -0.053474 0.105596 0.703422
vn 0.008339 0.017912 -6.283122
v -0.060888 0.109106 0.703421
vn -2.252696 2.506540 -3.135435
v 0.044047 0.301592 0.778929
vn 0.945280 1.815575 -5.940247
v 0.054037 0.296666 0.778929
vn 0.498503 0.897051 -6.110832
v -0.050903 0.104182 0.703421
vn 0.993902 1.788436 -5.940703
v 0.056600 0.295257 0.778928
vn 0.501659 0.891545 -6.111961
v 0.055828 0.044127 0.703421
vn 1.003312 1.783160 -5.940717
v 0.163332 0.235204 0.778928
vn 1.601351 1.417100 -5.865887
v 0.169586 0.231685 0.778928
vn 1.935256 1.765959 -5.585234
v 0.171396 0.234902 0.780199
vn -5.443683 3.128361 -0.165611
v 0.044448 0.302320 0.779365
vn -5.444987 3.126000 -0.166585
v -0.063060 0.111248 0.703860
vn 1.150076 2.208281 -5.745873
v 0.055847 0.299884 0.780200
vn -2.025198 2.624564 -3.046380
v 0.045858 0.304810 0.780200
vn 1.218346 2.165335 -5.751281
v 0.165142 0.238421 0.780199
vn 1.207641 2.172447 -5.750167
v 0.058410 0.298474 0.780199
# 164 vertices, 0 vertices normals

f 1//1 2//2 3//3
f 1//1 3//3 4//4
f 1//1 5//5 6//6
f 1//1 7//7 5//5
f 1//1 4//4 7//7
f 1//1 6//6 8//8
f 1//1 8//8 9//9
f 1//1 10//10 11//11
f 1//1 11//11 12//12
f 1//1 12//12 13//13
f 1//1 13//13 2//2
f 1//1 9//9 14//14
f 1//1 14//14 15//15
f 1//1 15//15 10//10
f 2//2 16//16 17//17
f 2//2 18//18 3//3
f 2//2 17//17 19//19
f 2//2 20//20 18//18
f 2//2 19//19 20//20
f 2//2 13//13 16//16
f 21//21 22//22 17//17
f 21//21 16//16 13//13
f 21//21 17//17 16//16
f 21//21 13//13 22//22
f 22//22 23//23 24//24
f 22//22 25//25 23//23
f 22//22 19//19 17//17
f 22//22 26//26 25//25
f 22//22 27//27 19//19
f 22//22 28//28 29//29
f 22//22 29//29 30//30
f 22//22 30//30 31//31
f 22//22 24//24 27//27
f 22//22 13//13 28//28
f 22//22 31//31 26//26
f 32//32 33//33 34//34
f 32//32 35//35 33//33
f 32//32 36//36 35//35
f 32//32 37//37 36//36
f 32//32 38//38 37//37
f 32//32 39//39 38//38
f 32//32 34//34 40//40
f 32//32 40//40 41//41
f 32//32 41//41 42//42
f 32//32 43//43 39//39
f 32//32 44//44 43//43
f 32//32 42//42 44//44
f 45//45 46//46 47//47
f 45//45 47//47 48//48
f 45//45 49//49 50//50
f 45//45 48//48 49//49
f 45//45 51//51 28//28
f 45//45 28//28 46//46
f 45//45 52//52 53//53
f 45//45 54//54 55//55
f 45//45 55//55 51//51
f 45//45 56//56 54//54
f 45//45 50//50 52//52
f 45//45 53//53 56//56
f 33//33 35//35 34//34
f 35//35 57//57 34//34
f 35//35 36//36 37//37
f 35//35 37//37 57//57
f 57//57 58//58 34//34
f 57//57 37//37 58//58
f 58//58 59//59 34//34
f 58//58 37//37 59//59
f 59//59 60//60 34//34
f 59//59 37//37 38//38
f 59//59 38//38 60//60
f 60//60 61//61 34//34
f 60//60 38//38 61//61
f 61//61 62//62 34//34
f 61//61 38//38 62//62
f 62//62 63//63 34//34
f 62//62 38//38 64//64
f 62//62 64//64 63//63
f 63//63 65//65 34//34
f 63//63 64//64 65//65
f 65//65 66//66 34//34
f 65//65 64//64 67//67
f 65//65 67//67 66//66
f 66//66 68//68 69//69
f 66//66 67//67 68//68
f 66//66 69//69 34//34
f 38//38 39//39 70//70
f 38//38 70//70 64//64
f 39//39 43//43 70//70
f 68//68 71//71 69//69
f 68//68 67//67 72//72
f 68//68 72//72 71//71
f 64//64 70//70 73//73
f 64//64 73//73 67//67
f 70//70 43//43 74//74
f 70//70 74//74 73//73
f 46//46 75//75 48//48
f 46//46 48//48 47//47
f 46//46 28//28 75//75
f 3//3 18//18 4//4
f 18//18 20//20 4//4
f 71//71 76//76 69//69
f 71//71 72//72 76//76
f 67//67 73//73 77//77
f 67//67 77//77 72//72
f 73//73 74//74 77//77
f 23//23 25//25 24//24
f 75//75 78//78 48//48
f 75//75 28//28 78//78
f 5//5 7//7 79//79
f 5//5 80//80 6//6
f 5//5 79//79 80//80
f 7//7 4//4 81//81
f 7//7 81//81 79//79
f 4//4 20//20 82//82
f 4//4 82//82 81//81
f 20//20 19//19 83//83
f 20//20 83//83 82//82
f 76//76 72//72 84//84
f 76//76 85//85 69//69
f 76//76 84//84 85//85
f 72//72 77//77 86//86
f 72//72 86//86 84//84
f 77//77 74//74 86//86
f 25//25 26//26 87//87
f 25//25 88//88 24//24
f 25//25 87//87 88//88
f 19//19 27//27 83//83
f 49//49 48//48 89//89
f 49//49 89//89 50//50
f 48//48 78//78 90//90
f 48//48 90//90 89//89
f 78//78 28//28 91//91
f 78//78 92//92 90//90
f 78//78 91//91 92//92
f 26//26 93//93 87//87
f 26//26 31//31 93//93
f 6//6 80//80 94//94
f 6//6 94//94 95//95
f 6//6 95//95 8//8
f 80//80 79//79 96//96
f 80//80 96//96 94//94
f 79//79 97//97 98//98
f 79//79 98//98 96//96
f 79//79 81//81 97//97
f 97//97 99//99 98//98
f 97//97 81//81 82//82
f 97//97 82//82 99//99
f 94//94 96//96 100//100
f 94//94 34//34 95//95
f 94//94 100//100 34//34
f 96//96 98//98 101//101
f 96//96 102//102 103//103
f 96//96 101//101 102//102
f 96//96 103//103 100//100
f 98//98 99//99 101//101
f 99//99 82//82 83//83
f 99//99 83//83 101//101
f 102//102 101//101 104//104
f 102//102 104//104 105//105
f 102//102 105//105 103//103
f 101//101 83//83 104//104
f 83//83 27//27 104//104
f 85//85 84//84 106//106
f 85//85 107//107 69//69
f 85//85 108//108 107//107
f 85//85 106//106 108//108
f 84//84 86//86 109//109
f 84//84 109//109 106//106
f 34//34 100//100 110//110
f 34//34 69//69 95//95
f 34//34 110//110 40//40
f 40//40 110//110 111//111
f 40//40 111//111 41//41
f 86//86 74//74 109//109
f 41//41 103//103 105//105
f 41//41 111//111 103//103
f 41//41 105//105 42//42
f 88//88 87//87 43//43
f 88//88 112//112 24//24
f 88//88 43//43 112//112
f 27//27 24//24 104//104
f 89//89 90//90 113//113
f 89//89 113//113 50//50
f 51//51 55//55 28//28
f 28//28 55//55 114//114
f 28//28 114//114 29//29
f 28//28 13//13 91//91
f 90//90 92//92 115//115
f 90//90 115//115 113//113
f 92//92 91//91 13//13
f 92//92 13//13 115//115
f 29//29 114//114 116//116
f 29//29 116//116 30//30
f 87//87 93//93 31//31
f 87//87 117//117 43//43
f 87//87 118//118 117//117
f 87//87 31//31 118//118
f 30//30 116//116 31//31
f 8//8 95//95 119//119
f 8//8 120//120 9//9
f 8//8 119//119 120//120
f 121//121 122//122 52//52
f 121//121 52//52 50//50
f 121//121 120//120 123//123
f 121//121 9//9 120//120
f 121//121 14//14 9//9
f 121//121 123//123 122//122
f 121//121 50//50 14//14
f 10//10 15//15 124//124
f 10//10 124//124 11//11
f 95//95 69//69 119//119
f 100//100 103//103 110//110
f 11//11 124//124 125//125
f 11//11 125//125 12//12
f 12//12 125//125 126//126
f 12//12 126//126 13//13
f 103//103 111//111 110//110
f 104//104 24//24 105//105
f 122//122 127//127 52//52
f 122//122 128//128 129//129
f 122//122 129//129 130//130
f 122//122 123//123 128//128
f 122//122 130//130 131//131
f 122//122 131//131 127//127
f 107//107 108//108 132//132
f 107//107 132//132 133//133
f 107//107 133//133 69//69
f 108//108 106//106 134//134
f 108//108 135//135 132//132
f 108//108 134//134 135//135
f 106//106 109//109 136//136
f 106//106 136//136 134//134
f 69//69 133//133 119//119
f 109//109 137//137 136//136
f 109//109 74//74 137//137
f 112//112 43//43 42//42
f 112//112 42//42 24//24
f 43//43 117//117 74//74
f 43//43 44//44 42//42
f 24//24 42//42 105//105
f 52//52 127//127 138//138
f 52//52 56//56 53//53
f 52//52 138//138 56//56
f 54//54 139//139 140//140
f 54//54 140//140 55//55
f 54//54 56//56 138//138
f 54//54 138//138 139//139
f 113//113 115//115 141//141
f 113//113 142//142 50//50
f 113//113 141//141 142//142
f 55//55 140//140 114//114
f 114//114 140//140 116//116
f 115//115 13//13 126//126
f 115//115 126//126 141//141
f 143//143 144//144 138//138
f 143//143 145//145 146//146
f 143//143 146//146 147//147
f 143//143 147//147 144//144
f 143//143 138//138 148//148
f 143//143 148//148 145//145
f 127//127 131//131 138//138
f 144//144 139//139 138//138
f 144//144 147//147 139//139
f 139//139 147//147 140//140
f 145//145 149//149 150//150
f 145//145 150//150 146//146
f 145//145 151//151 152//152
f 145//145 152//152 149//149
f 145//145 148//148 151//151
f 149//149 153//153 150//150
f 149//149 152//152 154//154
f 149//149 154//154 153//153
f 146//146 150//150 147//147
f 147//147 150//150 153//153
f 147//147 153//153 140//140
f 140//140 153//153 155//155
f 140//140 155//155 116//116
f 116//116 155//155 31//31
f 153//153 154//154 156//156
f 153//153 156//156 157//157
f 153//153 157//157 155//155
f 155//155 157//157 31//31
f 117//117 118//118 158//158
f 117//117 158//158 74//74
f 118//118 31//31 157//157
f 118//118 157//157 158//158
f 120//120 119//119 123//123
f 14//14 50//50 15//15
f 15//15 50//50 142//142
f 15//15 142//142 141//141
f 15//15 141//141 124//124
f 124//124 141//141 125//125
f 119//119 133//133 123//123
f 125//125 141//141 126//126
f 128//128 123//123 133//133
f 128//128 132//132 135//135
f 128//128 135//135 129//129
f 128//128 133//133 132//132
f 129//129 135//135 159//159
f 129//129 159//159 130//130
f 130//130 159//159 131//131
f 131//131 159//159 160//160
f 131//131 160//160 148//148
f 131//131 148//148 138//138
f 135//135 134//134 161//161
f 135//135 162//162 159//159
f 135//135 161//161 162//162
f 134//134 136//136 161//161
f 159//159 162//162 151//151
f 159//159 151//151 148//148
f 159//159 148//148 160//160
f 136//136 137//137 163//163
f 136//136 164//164 161//161
f 136//136 163//163 164//164
f 137//137 74//74 163//163
f 74//74 158//158 163//163
f 162//162 161//161 152//152
f 162//162 152//152 151//151
f 161//161 164//164 154//154
f 161//161 154//154 152//152
f 164//164 163//163 156//156
f 164//164 156//156 154//154
f 163//163 158//158 156//156
f 156//156 158//158 157//157
# 324 faces, 0 coords texture

# End of File
