####
#
# OBJ File Generated by Meshlab
#
####
# Object matlab_mesh_step3_link5.obj
#
# Vertices: 217
# Faces: 430
#
####
vn -3.285893 -5.329223 0.509368
v 0.400442 0.251277 0.923609
vn -2.731122 -5.476770 -0.637510
v 0.409870 0.244873 0.915162
vn -2.099924 -5.681746 -0.527914
v 0.489904 0.202099 0.965765
vn -3.220666 -5.368569 0.532039
v 0.409518 0.247252 0.938039
vn -3.299605 -5.298017 0.696890
v 0.409519 0.247256 0.938088
vn -3.970486 -4.466780 -0.751445
v 0.374790 0.266399 0.914186
vn -3.527588 -4.737598 -1.117840
v 0.384237 0.259982 0.905723
vn -3.342711 -5.283254 0.626023
v 0.400426 0.251290 0.923629
vn -3.199764 -5.383247 0.510470
v 0.480457 0.208517 0.974227
vn -3.237357 -5.334728 0.698230
v 0.489551 0.204483 0.988687
vn -2.287337 -5.583015 -1.713247
v 0.421244 0.249511 0.882871
vn -3.267169 -4.315498 -2.542173
v 0.395633 0.264630 0.873365
vn -1.907702 -5.491530 -2.239514
v 0.421268 0.249521 0.882808
vn -0.791393 -5.811274 -1.774173
v 0.501300 0.206748 0.933407
vn -4.818420 -3.195929 -2.406130
v 0.357629 0.306932 0.884938
vn -4.674014 -3.567725 -2.212412
v 0.382510 0.273907 0.884938
vn -4.180415 -4.263827 -0.621113
v 0.371114 0.269259 0.917296
vn -4.976479 -3.404752 -1.396321
v 0.346233 0.302283 0.917296
vn -4.976183 -2.894397 -2.479034
v 0.357590 0.307022 0.884905
vn -4.674283 -3.281197 -2.590103
v 0.361305 0.304072 0.881827
vn -4.579439 -3.626268 -2.298195
v 0.386187 0.271048 0.881827
vn -4.386791 -4.119947 0.765142
v 0.322508 0.320020 1.037083
vn -5.023075 -3.446915 0.483913
v 0.297627 0.353044 1.037083
vn -5.272402 -2.949941 -1.442117
v 0.346177 0.302365 0.917317
vn -3.439032 -5.199543 0.779815
v 0.380207 0.265225 0.931755
vn -3.383324 -5.244750 0.715942
v 0.383884 0.262365 0.928645
vn -4.069158 -4.394113 1.432924
v 0.331602 0.315986 1.051542
vn -3.369777 -5.236064 0.839959
v 0.405843 0.250116 0.941199
vn -3.380953 -5.223136 0.874191
v 0.357237 0.300877 1.060985
vn -5.207438 -2.311643 0.893832
v 0.297577 0.353124 1.037107
vn -5.018937 -2.539720 2.519654
v 0.306684 0.349084 1.051590
vn -3.943286 -4.478390 1.588440
v 0.335227 0.314589 1.057114
vn -4.091583 -3.659838 2.783544
v 0.335238 0.314606 1.057171
vn -4.691190 -3.606333 2.110674
v 0.331607 0.316006 1.051590
vn -3.556466 -4.909502 1.554460
v 0.415259 0.271815 1.107712
vn -3.464271 -3.553380 3.355126
v 0.415270 0.271829 1.107765
vn -3.393485 -5.197560 0.965973
v 0.360862 0.299480 1.066557
vn -3.229974 -5.227826 1.231062
v 0.440894 0.256706 1.117156
vn -1.356503 -4.231143 3.188610
v 0.440893 0.256724 1.117217
vn -4.512494 -3.283382 -2.854671
v 0.370752 0.297655 0.873365
vn -5.156465 -1.395195 -2.730640
v 0.357577 0.307094 0.884850
vn -4.695034 -2.579301 -3.222763
v 0.361263 0.304227 0.881732
vn -4.473026 -2.734105 -3.377883
v 0.370735 0.297792 0.873248
vn -3.060571 -4.116185 -3.245693
v 0.395690 0.264675 0.873248
vn -1.666979 -5.337970 -2.802936
v 0.421280 0.249571 0.882700
vn -3.349469 -5.245334 0.863683
v 0.409468 0.248718 0.946770
vn -3.349448 -5.245345 0.863698
v 0.489500 0.205945 0.997369
vn -3.349448 -5.245350 0.863664
v 0.413144 0.245859 0.943660
vn -2.970728 -5.423372 0.998681
v 0.493176 0.203085 0.994259
vn -2.925964 -5.400622 1.194810
v 0.444570 0.253847 1.114046
vn -0.621973 -4.558020 3.078876
v 0.444575 0.253860 1.114102
vn -0.672284 -5.714597 -2.290745
v 0.501311 0.206790 0.933291
vn -0.092839 -6.028994 -1.546377
v 0.510393 0.202714 0.947866
vn 0.264066 -5.641985 -2.479014
v 0.517511 0.217288 0.906257
vn -1.929579 -5.758218 -0.272630
v 0.498997 0.198066 0.980224
vn 1.033749 -5.858438 -0.785757
v 0.514019 0.201317 0.953438
vn -0.419046 -5.568334 0.258231
v 0.502623 0.196668 0.985796
vn 1.057659 -5.753986 -2.207353
v 0.526618 0.213248 0.920741
vn -2.529039 -5.587869 1.358176
v 0.454017 0.247429 1.105583
vn 3.249660 -5.132804 0.056221
v 0.514050 0.201330 0.953426
vn 1.452313 -4.275031 1.532378
v 0.502636 0.196673 0.985838
vn 1.650568 -5.726794 -1.562475
v 0.530249 0.211848 0.926321
vn 0.496685 -4.524488 2.601336
v 0.454036 0.247432 1.105628
vn -5.596103 -1.727638 -1.877953
v 0.346150 0.302431 0.917302
vn -5.307056 -0.802929 3.175494
v 0.306676 0.349190 1.051630
vn -5.536275 -0.883924 0.025428
v 0.297554 0.353188 1.037094
vn -5.233435 0.572130 0.557102
v 0.297552 0.353238 1.037116
vn -4.526132 -2.522138 3.165725
v 0.310315 0.347684 1.057171
vn -4.590440 -1.218605 3.818998
v 0.310314 0.347787 1.057222
vn -3.666813 -2.548599 4.338935
v 0.390346 0.304906 1.107765
vn -3.085276 -2.298349 4.962409
v 0.415909 0.289920 1.117260
vn -3.522346 -1.945722 4.777636
v 0.390346 0.305004 1.107811
vn -2.929678 -3.876837 3.818880
v 0.440883 0.256739 1.117226
vn -1.124891 -3.142012 4.587650
v 0.440886 0.256776 1.117260
vn 1.476351 -3.705066 4.836967
v 0.444575 0.253907 1.114140
vn 3.448762 -4.058871 -1.399923
v 0.530267 0.211857 0.926313
vn 4.705778 -3.888093 0.751268
v 0.530267 0.211858 0.926322
vn 4.818045 -3.675225 1.348351
v 0.518831 0.207190 0.958801
vn 4.720274 -3.058078 2.641280
v 0.511550 0.221041 1.000630
vn 3.331399 -2.687061 4.088144
v 0.462954 0.271798 1.120423
vn 2.877155 -3.666385 3.909810
v 0.454054 0.247466 1.105650
vn -4.715658 -1.898863 -3.685232
v 0.373789 0.317540 0.857800
vn -4.648148 -1.823726 -3.812907
v 0.383250 0.311112 0.849326
vn -4.671714 -2.007164 -3.688953
v 0.377471 0.314676 0.854686
vn -4.416885 0.480506 -3.638318
v 0.373765 0.317629 0.857788
vn -3.861687 -2.326516 -4.186661
v 0.386932 0.308248 0.846211
vn -4.017089 -0.161938 -4.473850
v 0.383244 0.311189 0.849298
vn -2.687607 -3.581970 -3.890453
v 0.411856 0.275171 0.846211
vn -2.756423 -0.620340 -4.914941
v 0.386933 0.308319 0.846178
vn -1.269121 -5.224013 -3.177481
v 0.437479 0.260066 0.855663
vn -2.820072 -2.172457 -5.173502
v 0.411894 0.275189 0.846181
vn -0.896500 -2.591525 -4.760701
v 0.411910 0.275176 0.846178
vn 0.263416 -3.622057 -4.358987
v 0.437483 0.260085 0.855633
vn 0.757422 -3.905247 -3.973505
v 0.517505 0.217309 0.906216
vn 1.572590 -4.046620 -3.346708
v 0.517514 0.217304 0.906224
vn 2.817241 -4.394961 -2.972675
v 0.526632 0.213259 0.920725
vn -5.371016 0.387421 3.180862
v 0.306467 0.377549 1.051893
vn -5.235842 0.280761 3.435091
v 0.315584 0.373504 1.066394
vn -4.657247 1.929643 3.485462
v 0.315586 0.373537 1.066390
vn -4.827241 2.166644 1.287603
v 0.306462 0.377585 1.051877
vn -4.172203 -0.188955 4.337031
v 0.319220 0.372102 1.071982
vn -3.619310 1.610224 4.263019
v 0.319224 0.372134 1.071983
vn -2.830529 -0.527395 5.303508
v 0.399251 0.329321 1.122573
vn -1.207457 -0.652495 5.641894
v 0.424840 0.314217 1.132025
vn -1.093006 0.416117 5.885164
v 0.424819 0.314267 1.132021
vn -2.123177 1.322886 5.613726
v 0.399256 0.329351 1.122572
vn -2.996143 -2.123773 5.093050
v 0.415898 0.289978 1.117279
vn 0.788807 0.623295 6.200960
v 0.535877 0.488129 1.103428
vn 2.441723 -0.039802 5.414561
v 0.560833 0.455012 1.103428
vn 2.827867 1.359430 4.711612
v 0.560835 0.455034 1.103426
vn 0.298461 -1.507946 5.032987
v 0.449796 0.281100 1.132025
vn 1.413996 2.318135 4.653846
v 0.535858 0.488177 1.103426
vn 3.782592 -0.668323 4.893999
v 0.564519 0.452145 1.100310
vn 4.392614 0.957428 4.249728
v 0.564524 0.452164 1.100305
vn 2.487842 -2.469135 4.979606
v 0.453482 0.278233 1.128907
vn -2.754372 -2.196603 5.199975
v 0.440886 0.256822 1.117279
vn 5.192135 -2.224636 2.535997
v 0.622587 0.394953 0.972034
vn 5.301328 -2.836242 1.789359
v 0.638780 0.405448 0.944967
vn 4.302504 -1.409310 3.995244
v 0.573991 0.445710 1.091826
vn 5.546766 -1.184243 2.009064
v 0.638790 0.405466 0.944968
vn 4.714807 -0.084256 3.457146
v 0.574003 0.445724 1.091815
vn 5.179559 -3.012017 1.890683
v 0.527753 0.231554 0.973564
vn 1.356384 5.948279 0.379447
v 0.445134 0.566638 0.963778
vn 0.174151 6.134231 1.227663
v 0.433707 0.561975 0.996230
vn 1.930975 5.761078 0.306136
v 0.448769 0.565237 0.969365
vn -1.024165 4.108412 -1.124441
v 0.445121 0.566643 0.963748
vn 0.333975 6.081156 1.430066
v 0.437342 0.560573 1.001818
vn -2.137589 5.242702 0.331489
v 0.433686 0.561975 0.996227
vn -0.367266 5.999841 1.799637
v 0.437323 0.560572 1.001819
vn 1.025961 5.780858 1.843464
v 0.446460 0.556528 1.016319
vn 3.195446 5.381366 -0.552853
v 0.458241 0.558802 0.960881
vn 2.913427 5.537589 -0.460345
v 0.448759 0.565240 0.969340
vn 2.100009 5.681625 0.528120
v 0.457886 0.561192 0.983867
vn 3.200100 5.383059 -0.510351
v 0.467359 0.554757 0.975383
vn 0.371439 5.746078 2.294718
v 0.446447 0.556524 1.016333
vn 3.290699 5.304915 -0.680466
v 0.538273 0.516021 1.011472
vn 3.235774 5.333722 -0.717844
v 0.458238 0.558800 0.960850
vn 2.732227 5.476049 0.637934
v 0.537918 0.518411 1.034458
vn 1.901118 5.416679 2.319972
v 0.526491 0.513747 1.066910
vn 3.290055 5.326222 -0.511888
v 0.547390 0.511976 1.025974
vn 3.385999 5.243140 -0.715680
v 0.563834 0.500933 1.020888
vn 3.371511 5.235226 -0.838122
v 0.541959 0.513153 1.008354
vn 2.971288 5.423146 -0.998393
v 0.454601 0.560203 0.955257
vn 3.558586 4.723190 1.206602
v 0.563507 0.503307 1.043909
vn 3.163667 5.395489 0.162367
v 0.563478 0.503325 1.043891
vn 3.368316 4.198083 2.604081
v 0.552080 0.498643 1.076362
vn 0.034036 5.488185 2.739642
v 0.430285 0.546055 1.043370
vn 2.327629 5.096133 2.718565
v 0.552043 0.498657 1.076371
vn 1.236274 5.077052 3.372631
v 0.510316 0.503271 1.093958
vn 1.768984 4.139528 3.972344
v 0.535844 0.488211 1.103401
vn 3.429787 5.236114 -0.462030
v 0.572958 0.496884 1.035401
vn 3.377402 5.221663 -0.896290
v 0.586920 0.463798 0.882974
vn 3.383499 5.221357 -0.874779
v 0.590555 0.462396 0.888562
vn 3.835454 4.011381 -2.259184
v 0.612478 0.448710 0.892382
vn 1.575053 4.057329 -3.075847
v 0.506882 0.506577 0.832344
vn 3.410055 5.180836 -0.999465
v 0.586914 0.463794 0.882932
vn 3.440506 5.198775 -0.778595
v 0.567523 0.498063 1.017768
vn 0.903686 4.541033 -2.792139
v 0.503193 0.509447 0.835464
vn 4.067257 4.375570 -1.469667
v 0.616116 0.447307 0.897974
vn 4.579263 3.626648 2.297951
v 0.561553 0.492208 1.067878
vn 4.038444 4.436353 0.873836
v 0.572979 0.496871 1.035425
vn 4.491303 2.867645 3.183563
v 0.577036 0.465526 1.076362
vn 4.669245 2.818602 2.961246
v 0.586508 0.459091 1.067878
vn 4.671623 2.007717 3.688770
v 0.570314 0.448594 1.094936
vn 4.673822 3.568143 2.212145
v 0.565239 0.489340 1.064760
vn 4.260011 4.220244 0.706121
v 0.576666 0.494004 1.032307
vn 5.001746 1.142738 2.580898
v 0.590194 0.456223 1.064760
vn 4.669070 3.739172 -1.909624
v 0.616144 0.447292 0.898014
vn 4.450588 4.077476 -0.752111
v 0.625261 0.443247 0.912515
vn 5.013960 1.839065 -2.695504
v 0.641092 0.414164 0.897974
vn 4.874405 0.670382 0.203726
v 0.650217 0.410130 0.912515
vn 4.919388 0.171496 -0.799889
v 0.650216 0.410116 0.912487
vn 3.916281 4.737047 -1.098177
v 0.625239 0.443259 0.912487
vn 3.582129 5.119480 -0.627512
v 0.576647 0.494015 1.032281
vn 5.241228 2.327326 1.554971
v 0.601621 0.460887 1.032307
vn 5.272483 -3.009567 1.596177
v 0.629870 0.381100 0.930206
vn 5.376100 -2.485319 -0.324731
v 0.641306 0.385768 0.897727
vn -5.844779 0.057003 -2.214228
v 0.308981 0.357852 1.004642
vn -5.533091 0.528049 -2.807574
v 0.357580 0.307150 0.884843
vn -5.491913 1.706655 -2.050849
v 0.308988 0.357906 1.004637
vn 2.618320 -1.245701 -5.429479
v 0.548519 0.433997 0.827037
vn 2.443292 -0.077136 -5.264381
v 0.548512 0.434002 0.827032
vn 3.288138 -0.639696 -4.746205
v 0.628544 0.391219 0.877621
vn 0.141049 -3.233168 -4.840670
v 0.437473 0.260092 0.855627
vn 4.063067 -1.184003 -3.942708
v 0.628551 0.391216 0.877628
vn 4.713459 -1.534602 -3.428969
v 0.632186 0.389814 0.883215
vn 4.568745 1.898098 -3.216023
v 0.637454 0.415566 0.892382
vn 4.125563 -3.207566 -3.488505
v 0.521150 0.215902 0.911812
vn 4.915604 -1.833836 -2.531939
v 0.641303 0.385769 0.897717
vn -5.060670 3.422292 -1.380574
v 0.428937 0.556163 0.990803
vn -3.352224 3.884632 1.072361
v 0.417501 0.551495 1.023282
vn -4.794682 3.698883 -1.373159
v 0.428958 0.556178 0.990764
vn -5.261065 3.024743 -1.607733
v 0.317918 0.382269 1.019359
vn -4.125692 3.207554 3.488363
v 0.426625 0.547447 1.037795
vn -2.592835 4.492804 2.857235
v 0.421139 0.550093 1.028874
vn -0.838455 5.854515 2.091200
v 0.421157 0.550105 1.028851
vn -2.713926 4.918060 0.490506
v 0.417518 0.551508 1.023257
vn -1.747285 3.824883 3.590473
v 0.430263 0.546044 1.043388
vn -5.328340 2.987205 -1.463753
v 0.317898 0.382253 1.019398
vn -0.414427 3.387987 4.604782
v 0.510295 0.503261 1.093976
vn -0.679727 4.320819 -2.477228
v 0.493714 0.515887 0.843954
vn -2.856957 3.626814 -3.961733
v 0.493707 0.515863 0.843936
vn -1.436437 3.743049 -4.814233
v 0.503191 0.509420 0.835443
vn -4.720809 3.057479 -2.641468
v 0.436211 0.542296 0.948987
vn 3.449044 3.821356 -2.847068
v 0.532446 0.491493 0.841793
vn 1.072109 3.088190 -4.666565
v 0.506881 0.506549 0.832321
vn 3.813646 2.483327 -4.260153
v 0.557423 0.458350 0.841793
vn 3.477438 2.015249 -4.776696
v 0.557396 0.458333 0.841764
vn 3.288528 2.584471 -4.682859
v 0.532409 0.491489 0.841764
vn 4.049278 1.483872 -4.541671
v 0.637428 0.415549 0.892352
vn -5.192276 2.223971 -2.536187
v 0.325172 0.368385 0.977582
vn -5.179355 3.011750 -1.891668
v 0.420027 0.531816 0.976042
vn -3.332779 2.686029 -4.088402
v 0.484804 0.491540 0.829193
vn -2.489262 2.467714 -4.980255
v 0.494283 0.485100 0.820703
vn -0.299862 1.506960 -5.034432
v 0.497972 0.482230 0.817583
vn 1.315531 0.261371 -5.550008
v 0.522949 0.449086 0.817583
vn 3.043442 2.211982 -5.020338
v 0.531868 0.473393 0.832321
# 217 vertices, 0 vertices normals

f 1//1 2//2 3//3
f 1//1 4//4 5//5
f 1//1 6//6 7//7
f 1//1 7//7 2//2
f 1//1 8//8 6//6
f 1//1 5//5 8//8
f 1//1 9//9 10//10
f 1//1 3//3 9//9
f 1//1 10//10 4//4
f 11//11 2//2 7//7
f 11//11 12//12 13//13
f 11//11 7//7 12//12
f 11//11 13//13 14//14
f 11//11 14//14 3//3
f 11//11 3//3 2//2
f 4//4 10//10 5//5
f 15//15 16//16 17//17
f 15//15 18//18 19//19
f 15//15 17//17 18//18
f 15//15 20//20 16//16
f 15//15 19//19 20//20
f 16//16 20//20 21//21
f 16//16 21//21 6//6
f 16//16 6//6 17//17
f 18//18 17//17 22//22
f 18//18 23//23 24//24
f 18//18 22//22 23//23
f 18//18 24//24 19//19
f 17//17 25//25 22//22
f 17//17 6//6 26//26
f 17//17 26//26 25//25
f 25//25 27//27 22//22
f 25//25 26//26 5//5
f 25//25 28//28 29//29
f 25//25 29//29 27//27
f 25//25 5//5 28//28
f 23//23 22//22 30//30
f 23//23 30//30 24//24
f 22//22 27//27 31//31
f 22//22 31//31 30//30
f 27//27 32//32 33//33
f 27//27 29//29 32//32
f 27//27 34//34 31//31
f 27//27 33//33 34//34
f 32//32 35//35 36//36
f 32//32 29//29 37//37
f 32//32 37//37 35//35
f 32//32 36//36 33//33
f 35//35 37//37 38//38
f 35//35 38//38 39//39
f 35//35 39//39 36//36
f 20//20 40//40 21//21
f 20//20 19//19 41//41
f 20//20 41//41 42//42
f 20//20 42//42 40//40
f 21//21 40//40 12//12
f 21//21 12//12 6//6
f 6//6 12//12 7//7
f 6//6 8//8 5//5
f 6//6 5//5 26//26
f 40//40 42//42 43//43
f 40//40 43//43 12//12
f 12//12 43//43 44//44
f 12//12 44//44 45//45
f 12//12 45//45 13//13
f 28//28 46//46 29//29
f 28//28 5//5 46//46
f 29//29 46//46 37//37
f 46//46 47//47 37//37
f 46//46 5//5 48//48
f 46//46 48//48 47//47
f 37//37 47//47 38//38
f 47//47 48//48 49//49
f 47//47 49//49 50//50
f 47//47 50//50 38//38
f 38//38 50//50 51//51
f 38//38 51//51 39//39
f 13//13 45//45 52//52
f 13//13 52//52 14//14
f 5//5 10//10 49//49
f 5//5 49//49 48//48
f 9//9 3//3 10//10
f 14//14 53//53 3//3
f 14//14 54//54 53//53
f 14//14 52//52 54//54
f 3//3 53//53 55//55
f 3//3 55//55 10//10
f 10//10 55//55 49//49
f 53//53 56//56 57//57
f 53//53 57//57 55//55
f 53//53 54//54 58//58
f 53//53 58//58 56//56
f 55//55 57//57 49//49
f 49//49 57//57 59//59
f 49//49 59//59 50//50
f 56//56 60//60 61//61
f 56//56 61//61 57//57
f 56//56 58//58 62//62
f 56//56 62//62 60//60
f 57//57 61//61 63//63
f 57//57 63//63 59//59
f 50//50 59//59 63//63
f 50//50 63//63 51//51
f 19//19 24//24 41//41
f 24//24 30//30 64//64
f 24//24 64//64 41//41
f 30//30 31//31 65//65
f 30//30 66//66 64//64
f 30//30 67//67 66//66
f 30//30 65//65 67//67
f 31//31 34//34 68//68
f 31//31 68//68 69//69
f 31//31 69//69 65//65
f 34//34 33//33 68//68
f 68//68 33//33 70//70
f 68//68 70//70 69//69
f 33//33 36//36 70//70
f 70//70 36//36 71//71
f 70//70 72//72 69//69
f 70//70 71//71 72//72
f 36//36 39//39 73//73
f 36//36 73//73 74//74
f 36//36 74//74 71//71
f 39//39 51//51 75//75
f 39//39 74//74 73//73
f 39//39 75//75 74//74
f 60//60 62//62 76//76
f 60//60 76//76 77//77
f 60//60 77//77 78//78
f 60//60 78//78 61//61
f 61//61 79//79 80//80
f 61//61 80//80 81//81
f 61//61 81//81 63//63
f 61//61 78//78 79//79
f 51//51 63//63 81//81
f 51//51 81//81 75//75
f 82//82 83//83 84//84
f 82//82 84//84 41//41
f 82//82 41//41 85//85
f 82//82 85//85 83//83
f 83//83 86//86 84//84
f 83//83 85//85 87//87
f 83//83 87//87 86//86
f 84//84 86//86 42//42
f 84//84 42//42 41//41
f 86//86 88//88 43//43
f 86//86 43//43 42//42
f 86//86 87//87 89//89
f 86//86 89//89 88//88
f 88//88 90//90 45//45
f 88//88 44//44 43//43
f 88//88 45//45 44//44
f 88//88 91//91 92//92
f 88//88 93//93 90//90
f 88//88 89//89 91//91
f 88//88 92//92 93//93
f 90//90 52//52 45//45
f 90//90 93//93 94//94
f 90//90 94//94 52//52
f 54//54 52//52 94//94
f 54//54 95//95 58//58
f 54//54 94//94 95//95
f 58//58 95//95 96//96
f 58//58 96//96 62//62
f 62//62 96//96 76//76
f 97//97 98//98 99//99
f 97//97 100//100 67//67
f 97//97 99//99 100//100
f 97//97 67//67 65//65
f 97//97 65//65 98//98
f 98//98 101//101 102//102
f 98//98 102//102 99//99
f 98//98 65//65 69//69
f 98//98 69//69 101//101
f 101//101 103//103 102//102
f 101//101 69//69 103//103
f 103//103 104//104 105//105
f 103//103 106//106 102//102
f 103//103 105//105 106//106
f 103//103 69//69 72//72
f 103//103 72//72 107//107
f 103//103 107//107 104//104
f 108//108 109//109 110//110
f 108//108 104//104 111//111
f 108//108 111//111 109//109
f 108//108 112//112 104//104
f 108//108 110//110 112//112
f 109//109 111//111 113//113
f 109//109 113//113 114//114
f 109//109 114//114 110//110
f 104//104 112//112 105//105
f 104//104 107//107 111//111
f 111//111 115//115 113//113
f 111//111 74//74 75//75
f 111//111 75//75 115//115
f 111//111 107//107 116//116
f 111//111 116//116 74//74
f 117//117 79//79 118//118
f 117//117 119//119 79//79
f 117//117 120//120 121//121
f 117//117 121//121 119//119
f 117//117 118//118 120//120
f 79//79 119//119 80//80
f 79//79 122//122 118//118
f 79//79 78//78 122//122
f 113//113 119//119 121//121
f 113//113 115//115 80//80
f 113//113 80//80 119//119
f 113//113 121//121 114//114
f 115//115 75//75 81//81
f 115//115 81//81 80//80
f 123//123 124//124 125//125
f 123//123 125//125 126//126
f 123//123 126//126 124//124
f 124//124 127//127 125//125
f 124//124 126//126 128//128
f 124//124 128//128 129//129
f 124//124 129//129 127//127
f 125//125 127//127 130//130
f 125//125 131//131 132//132
f 125//125 133//133 134//134
f 125//125 130//130 133//133
f 125//125 134//134 131//131
f 125//125 132//132 126//126
f 127//127 129//129 135//135
f 127//127 135//135 130//130
f 131//131 134//134 136//136
f 131//131 136//136 137//137
f 131//131 137//137 132//132
f 133//133 130//130 138//138
f 133//133 138//138 134//134
f 130//130 139//139 138//138
f 130//130 135//135 139//139
f 134//134 138//138 140//140
f 134//134 140//140 136//136
f 136//136 140//140 141//141
f 136//136 142//142 143//143
f 136//136 143//143 137//137
f 136//136 141//141 142//142
f 138//138 139//139 144//144
f 138//138 144//144 145//145
f 138//138 145//145 140//140
f 139//139 146//146 144//144
f 139//139 135//135 147//147
f 139//139 148//148 146//146
f 139//139 147//147 149//149
f 139//139 149//149 150//150
f 139//139 150//150 148//148
f 140//140 145//145 151//151
f 140//140 151//151 141//141
f 152//152 153//153 154//154
f 152//152 155//155 153//153
f 152//152 156//156 155//155
f 152//152 154//154 156//156
f 153//153 142//142 157//157
f 153//153 158//158 143//143
f 153//153 143//143 142//142
f 153//153 155//155 158//158
f 153//153 159//159 154//154
f 153//153 157//157 159//159
f 142//142 141//141 157//157
f 144//144 146//146 160//160
f 144//144 161//161 145//145
f 144//144 160//160 161//161
f 146//146 162//162 160//160
f 146//146 112//112 110//110
f 146//146 110//110 162//162
f 146//146 148//148 150//150
f 146//146 150//150 112//112
f 162//162 163//163 160//160
f 162//162 110//110 164//164
f 162//162 164//164 163//163
f 161//161 160//160 165//165
f 161//161 166//166 151//151
f 161//161 165//165 166//166
f 161//161 151//151 145//145
f 160//160 163//163 165//165
f 163//163 167//167 165//165
f 163//163 164//164 121//121
f 163//163 121//121 167//167
f 168//168 169//169 170//170
f 168//168 159//159 169//169
f 168//168 170//170 159//159
f 169//169 171//171 172//172
f 169//169 166//166 171//171
f 169//169 159//159 173//173
f 169//169 173//173 174//174
f 169//169 172//172 170//170
f 169//169 174//174 166//166
f 171//171 120//120 118//118
f 171//171 166//166 175//175
f 171//171 175//175 120//120
f 171//171 118//118 176//176
f 171//171 177//177 172//172
f 171//171 176//176 177//177
f 120//120 175//175 167//167
f 120//120 167//167 121//121
f 122//122 176//176 118//118
f 122//122 78//78 176//176
f 166//166 165//165 167//167
f 166//166 167//167 175//175
f 166//166 174//174 151//151
f 41//41 64//64 178//178
f 41//41 178//178 179//179
f 41//41 179//179 85//85
f 64//64 66//66 178//178
f 178//178 66//66 180//180
f 178//178 180//180 179//179
f 66//66 67//67 180//180
f 91//91 89//89 92//92
f 181//181 93//93 182//182
f 181//181 182//182 183//183
f 181//181 183//183 93//93
f 93//93 92//92 184//184
f 93//93 184//184 182//182
f 93//93 183//183 94//94
f 185//185 95//95 183//183
f 185//185 186//186 95//95
f 185//185 187//187 186//186
f 185//185 183//183 187//187
f 95//95 186//186 188//188
f 95//95 188//188 96//96
f 95//95 94//94 183//183
f 96//96 188//188 76//76
f 186//186 189//189 188//188
f 186//186 187//187 170//170
f 186//186 170//170 189//189
f 189//189 76//76 188//188
f 189//189 170//170 172//172
f 189//189 172//172 177//177
f 189//189 177//177 76//76
f 76//76 177//177 77//77
f 190//190 191//191 192//192
f 190//190 192//192 193//193
f 190//190 193//193 191//191
f 191//191 194//194 195//195
f 191//191 100//100 194//194
f 191//191 195//195 196//196
f 191//191 197//197 192//192
f 191//191 193//193 100//100
f 191//191 196//196 197//197
f 194//194 100//100 99//99
f 194//194 99//99 198//198
f 194//194 198//198 195//195
f 199//199 100//100 193//193
f 199//199 180//180 67//67
f 199//199 67//67 100//100
f 199//199 193//193 180//180
f 99//99 102//102 198//198
f 195//195 198//198 147//147
f 195//195 147//147 196//196
f 198//198 102//102 200//200
f 198//198 200//200 147//147
f 102//102 106//106 200//200
f 200//200 106//106 105//105
f 200//200 112//112 150//150
f 200//200 105//105 112//112
f 200//200 149//149 147//147
f 200//200 150//150 149//149
f 110//110 114//114 164//164
f 164//164 114//114 121//121
f 201//201 158//158 202//202
f 201//201 126//126 158//158
f 201//201 202//202 126//126
f 158//158 126//126 143//143
f 158//158 155//155 203//203
f 158//158 203//203 202//202
f 126//126 132//132 137//137
f 126//126 137//137 143//143
f 126//126 204//204 192//192
f 126//126 192//192 128//128
f 126//126 202//202 204//204
f 128//128 192//192 197//197
f 128//128 197//197 196//196
f 128//128 196//196 129//129
f 129//129 196//196 147//147
f 129//129 147//147 135//135
f 155//155 156//156 205//205
f 155//155 205//205 206//206
f 155//155 206//206 203//203
f 156//156 154//154 205//205
f 141//141 151//151 157//157
f 151//151 174//174 157//157
f 205//205 207//207 208//208
f 205//205 154//154 207//207
f 205//205 209//209 206//206
f 205//205 208//208 209//209
f 207//207 154//154 187//187
f 207//207 187//187 210//210
f 207//207 210//210 208//208
f 154//154 159//159 187//187
f 187//187 159//159 170//170
f 187//187 183//183 210//210
f 159//159 157//157 173//173
f 173//173 157//157 174//174
f 179//179 180//180 211//211
f 179//179 211//211 85//85
f 212//212 180//180 193//193
f 212//212 204//204 180//180
f 212//212 192//192 204//204
f 212//212 193//193 192//192
f 180//180 204//204 211//211
f 72//72 71//71 107//107
f 71//71 74//74 107//107
f 74//74 116//116 107//107
f 213//213 214//214 87//87
f 213//213 85//85 211//211
f 213//213 87//87 85//85
f 213//213 204//204 202//202
f 213//213 211//211 204//204
f 213//213 202//202 214//214
f 214//214 215//215 87//87
f 214//214 202//202 203//203
f 214//214 203//203 215//215
f 87//87 215//215 89//89
f 215//215 216//216 89//89
f 215//215 203//203 206//206
f 215//215 206//206 217//217
f 215//215 217//217 216//216
f 216//216 92//92 89//89
f 216//216 182//182 92//92
f 216//216 217//217 182//182
f 92//92 182//182 184//184
f 182//182 217//217 208//208
f 182//182 208//208 210//210
f 182//182 210//210 183//183
f 177//177 176//176 77//77
f 176//176 78//78 77//77
f 206//206 209//209 217//217
f 217//217 209//209 208//208
# 430 faces, 0 coords texture

# End of File
