####
#
# OBJ File Generated by Meshlab
#
####
# Object matlab_mesh_slc_step13_link6.obj
#
# Vertices: 142
# Faces: 280
#
####
vn -0.222197 0.451743 -6.218799
v 0.498972 0.669200 0.836958
vn 0.004523 -0.056073 -6.278534
v 0.501184 0.667158 0.836958
vn -2.055507 -2.455703 -3.305540
v 0.368957 0.548749 0.843121
vn 0.284330 0.361810 -6.260246
v 0.500992 0.668244 0.836979
vn 0.356574 0.064865 -6.243801
v 0.503203 0.666203 0.836979
vn 0.041003 0.857553 -6.203431
v 0.499733 0.670811 0.837149
vn 0.511520 0.697451 -6.218396
v 0.501752 0.669855 0.837169
vn -0.359050 -0.035832 -6.269696
v 0.376228 0.570909 0.842485
vn -0.670234 0.111239 -6.233996
v 0.368908 0.594231 0.843122
vn -0.370037 1.027221 -6.170289
v 0.478836 0.721490 0.846299
vn -1.981505 0.405447 -5.690099
v 0.368877 0.594278 0.843127
vn 0.768273 0.564413 -6.201270
v 0.503963 0.667814 0.837169
vn 0.636532 -0.168895 -6.209784
v 0.503668 0.665762 0.837014
vn 0.131151 -0.572309 -6.248296
v 0.415785 0.548702 0.843124
vn 1.059139 0.414559 -6.171991
v 0.504429 0.667373 0.837205
vn 0.006040 -0.339881 -6.273965
v 0.415762 0.548749 0.843121
vn 1.021916 -0.251328 -6.166849
v 0.594808 0.617950 0.851960
vn 0.304174 -1.282170 -6.092998
v 0.493755 0.481331 0.855948
vn 1.584624 0.450325 -6.033412
v 0.595569 0.619561 0.852151
vn 0.186731 -0.856876 -6.211479
v 0.415807 0.548650 0.843130
vn 2.022084 -0.884672 -5.662576
v 0.594971 0.617790 0.851997
vn 2.798192 -0.050417 -5.373856
v 0.595731 0.619401 0.852188
vn 1.762363 -3.229007 -2.063565
v 0.515192 0.470011 0.865742
vn 1.273476 -2.371172 -5.575701
v 0.493945 0.481231 0.856010
vn 4.308428 -0.728845 -3.886674
v 0.603509 0.608990 0.859123
vn 4.385974 -0.951665 -3.066799
v 0.603514 0.608960 0.859134
vn 0.816001 -2.690163 -5.336895
v 0.493892 0.481257 0.855987
vn 0.656333 -2.333157 -5.581111
v 0.493842 0.481282 0.855969
vn 0.469817 -1.817559 -5.861928
v 0.493797 0.481307 0.855956
vn 1.224953 -5.684232 -0.549569
v 0.514865 0.469647 0.868304
vn -0.789136 -6.006286 -1.467490
v 0.447427 0.481231 0.856010
vn 4.405101 -4.273068 -0.100677
v 0.515078 0.469814 0.867859
vn 4.706601 -1.281762 -2.350932
v 0.603515 0.608936 0.859146
vn -0.567241 -4.918134 -2.537347
v 0.447275 0.481257 0.855987
vn 5.163067 -1.996534 -1.562637
v 0.603513 0.608918 0.859158
vn 5.441347 -2.932485 -0.489361
v 0.603509 0.608906 0.859171
vn 2.016893 -4.716782 0.120898
v 0.514750 0.469450 0.870421
vn 5.719584 -1.758619 0.441601
v 0.603509 0.608906 0.889190
vn 2.450517 -4.787148 0.708836
v 0.514705 0.469602 0.871758
vn -0.187787 -5.933130 1.712379
v 0.434352 0.489308 1.005883
vn -1.100658 -6.181108 0.151395
v 0.447275 0.481257 0.885929
vn -0.335492 -5.493869 2.262207
v 0.434240 0.489318 1.005903
vn 5.449507 -2.992786 0.702872
v 0.603501 0.608899 0.889226
vn -0.534492 -4.613023 2.840727
v 0.434151 0.489330 1.005917
vn 2.268334 -3.980146 2.083998
v 0.503992 0.486485 0.991094
vn -0.087052 -6.123784 1.293964
v 0.434487 0.489300 1.005857
vn 5.397930 -1.608560 1.697266
v 0.590702 0.616898 1.009154
vn 1.456737 -4.238644 3.282124
v 0.481162 0.489294 1.005824
vn 1.209278 -4.138734 3.285370
v 0.481104 0.489300 1.005857
vn 4.577267 -1.711057 2.845836
v 0.590688 0.616887 1.009179
vn 2.818353 -1.269986 4.749385
v 0.590673 0.616885 1.009194
vn 0.742225 0.871132 -6.127916
v 0.525421 0.721376 0.846279
vn 0.811851 0.984403 -6.086703
v 0.525453 0.721490 0.846299
vn 0.995281 0.676942 -6.155449
v 0.525382 0.721246 0.846258
vn 3.965210 0.410877 -3.358304
v 0.603514 0.654076 0.859134
vn 0.899399 1.166412 -6.024399
v 0.525479 0.721586 0.846319
vn 4.196341 0.021814 -4.672983
v 0.603491 0.653770 0.859102
vn 4.208319 -0.049334 -4.662305
v 0.603491 0.609066 0.859102
vn 4.302046 -0.343683 -4.418797
v 0.603501 0.609025 0.859112
vn 4.242582 0.141628 -4.478689
v 0.603501 0.653884 0.859112
vn 4.148387 0.289254 -4.046584
v 0.603509 0.653986 0.859123
vn -2.368220 -2.192636 -3.062111
v 0.368908 0.548791 0.843122
vn -0.000181 0.006344 6.283163
v 0.580652 0.642382 1.009256
vn 0.026635 -0.002498 6.283025
v 0.584691 0.638938 1.009256
vn 0.754848 0.956911 5.979709
v 0.590655 0.662333 1.009198
vn -0.189563 0.556595 6.217059
v 0.543824 0.662333 1.009198
vn -0.074022 -0.059926 6.280974
v 0.543824 0.616891 1.009198
vn 0.756051 -0.359744 6.155538
v 0.590655 0.616891 1.009198
vn 4.001405 0.513923 -2.957225
v 0.603515 0.654153 0.859146
vn 6.280996 0.058795 0.071505
v 0.603515 0.654153 0.889088
vn 6.269168 -0.258661 0.055493
v 0.603515 0.608936 0.889088
vn 4.100278 0.801179 -2.856363
v 0.603513 0.654218 0.859158
vn 6.256078 0.229295 0.269699
v 0.603513 0.654218 0.889144
vn 6.063118 -1.055669 0.225509
v 0.603513 0.608918 0.889144
vn 1.028698 -3.892829 3.736938
v 0.481050 0.489308 1.005883
vn -1.260307 -6.149635 0.141252
v 0.447145 0.481282 0.885955
vn -0.646223 -4.537138 -2.745972
v 0.447145 0.481282 0.855969
vn 1.021849 1.453790 -5.911458
v 0.525497 0.721666 0.846339
vn -0.443554 1.165392 -6.130983
v 0.478781 0.721586 0.846319
vn 0.023349 -1.141401 -6.178444
v 0.415830 0.548593 0.843140
vn -0.029470 -1.191125 -6.168834
v 0.369213 0.548593 0.843140
vn -0.972802 -3.569495 -3.007443
v 0.446950 0.481331 0.855948
vn -0.373895 -1.415640 -6.062299
v 0.369110 0.548650 0.843130
vn 4.234062 1.279528 -2.700590
v 0.603509 0.654271 0.859171
vn 6.206531 0.592656 0.324193
v 0.603509 0.654271 0.889190
vn 6.209331 0.251590 0.813796
v 0.590721 0.662244 1.009072
vn 6.202516 -0.290762 0.837781
v 0.590721 0.616944 1.009072
vn 6.046295 0.732947 1.077730
v 0.590712 0.662282 1.009118
vn 5.998758 -0.865682 1.158694
v 0.590712 0.616917 1.009118
vn 0.806797 -3.495137 4.351545
v 0.481000 0.489318 1.005903
vn -1.518974 -6.090005 0.125518
v 0.447036 0.481307 0.885975
vn -0.771650 -4.031316 -2.932124
v 0.447036 0.481307 0.855956
vn -0.852514 -3.339156 3.088191
v 0.434083 0.489344 1.005925
vn 1.221061 1.916736 -5.673303
v 0.525508 0.721729 0.846358
vn -0.558682 1.408511 -6.052133
v 0.478737 0.721666 0.846339
vn -1.107916 -1.948128 -5.477230
v 0.369025 0.548702 0.843124
vn -1.457274 -3.554574 -2.908299
v 0.446885 0.481355 0.855945
vn 4.384328 2.025375 -2.372730
v 0.603501 0.654311 0.859185
vn 6.035975 1.458106 0.296898
v 0.603501 0.654311 0.889226
vn 5.465003 1.545799 1.449495
v 0.590702 0.662310 1.009154
vn 0.534749 -2.802497 5.113942
v 0.480955 0.489330 1.005917
vn -1.910628 -5.975912 0.101080
v 0.446950 0.481331 0.885989
vn 1.566776 2.716127 -5.045686
v 0.525513 0.721774 0.846376
vn -0.754157 1.798228 -5.883472
v 0.478704 0.721729 0.846358
vn -2.779814 -4.200741 -2.310069
v 0.446842 0.481378 0.855947
vn 4.447652 3.224521 -1.587556
v 0.603490 0.654338 0.859199
vn 5.311753 3.033839 0.225092
v 0.603490 0.654338 0.889251
vn 4.262009 2.166286 2.147000
v 0.590688 0.662327 1.009179
vn 0.212350 -1.642733 5.876141
v 0.480915 0.489344 1.005925
vn -2.571294 -5.710281 0.056993
v 0.446885 0.481355 0.885997
vn -1.626939 -2.609751 2.833123
v 0.434039 0.489360 1.005926
vn 1.943021 3.899075 -3.045606
v 0.525511 0.721803 0.846395
vn -1.131521 2.482787 -5.425610
v 0.478682 0.721774 0.846376
vn -3.583624 1.451533 -2.664823
v 0.368864 0.594302 0.843136
vn 4.306336 4.522048 -0.325044
v 0.603476 0.654353 0.859214
vn 4.419367 4.437363 0.115823
v 0.603476 0.654353 0.889266
vn 3.795541 4.915549 0.546052
v 0.512707 0.729785 0.996374
vn 0.982074 3.401630 2.502879
v 0.512697 0.729792 0.996380
vn 3.728262 5.031890 0.030172
v 0.525502 0.721815 0.876453
vn 2.707121 2.051116 3.698634
v 0.590673 0.662335 1.009194
vn 0.032146 -0.398995 6.265177
v 0.480879 0.489360 1.005926
vn -4.148573 -4.706246 0.223986
v 0.356106 0.556780 0.993102
vn -4.155042 -4.711187 -0.069929
v 0.356106 0.556780 0.963050
vn -4.050098 -4.801927 -0.050393
v 0.434017 0.489378 0.975881
vn -2.908933 -1.973199 2.750518
v 0.356073 0.556809 0.993107
vn -4.901903 -3.731730 -0.157108
v 0.356073 0.556809 0.963055
vn -3.811704 -4.113031 1.908764
v 0.434017 0.489378 1.005922
vn -3.164461 -5.424948 0.012309
v 0.446842 0.481378 0.885998
vn 1.682703 5.055741 -1.334121
v 0.525502 0.721815 0.846412
vn -1.875987 3.627113 -3.648153
v 0.478671 0.721803 0.846395
vn -3.165753 -1.591860 -2.945008
v 0.368877 0.548828 0.843127
vn -0.608586 0.103507 6.235234
v 0.434039 0.534810 1.005926
vn -1.342209 2.821404 2.267940
v 0.465867 0.729792 0.996380
vn -3.082712 1.141215 2.411081
v 0.356059 0.602279 0.993105
vn -3.455597 -0.772841 2.613165
v 0.356059 0.556837 0.993105
vn -5.886637 -1.400976 -0.250369
v 0.356059 0.556837 0.963064
vn -3.672070 -5.080033 -0.032259
v 0.434039 0.489360 0.975875
vn -1.948156 4.695416 -1.606785
v 0.478671 0.721815 0.846412
vn -4.792124 -0.696273 -2.519971
v 0.368864 0.548860 0.843136
vn 1.594951 5.804332 -0.111292
v 0.512697 0.729792 0.966340
vn -2.383609 5.089852 -0.290880
v 0.465867 0.729792 0.966340
vn -5.421449 2.032473 -0.353479
v 0.356059 0.602279 0.963064
# 142 vertices, 0 vertices normals

f 1//1 2//2 3//3
f 1//1 4//4 5//5
f 1//1 5//5 2//2
f 1//1 6//6 7//7
f 1//1 7//7 4//4
f 1//1 8//8 9//9
f 1//1 10//10 6//6
f 1//1 3//3 8//8
f 1//1 9//9 11//11
f 1//1 11//11 10//10
f 2//2 5//5 3//3
f 4//4 7//7 12//12
f 4//4 12//12 5//5
f 5//5 13//13 14//14
f 5//5 12//12 15//15
f 5//5 15//15 13//13
f 5//5 14//14 16//16
f 5//5 16//16 3//3
f 13//13 17//17 18//18
f 13//13 15//15 19//19
f 13//13 19//19 17//17
f 13//13 20//20 14//14
f 13//13 18//18 20//20
f 17//17 21//21 18//18
f 17//17 19//19 22//22
f 17//17 22//22 21//21
f 21//21 23//23 24//24
f 21//21 22//22 25//25
f 21//21 25//25 26//26
f 21//21 26//26 23//23
f 21//21 24//24 27//27
f 21//21 27//27 28//28
f 21//21 28//28 29//29
f 21//21 29//29 18//18
f 23//23 30//30 31//31
f 23//23 32//32 30//30
f 23//23 26//26 33//33
f 23//23 31//31 34//34
f 23//23 33//33 35//35
f 23//23 27//27 24//24
f 23//23 34//34 27//27
f 23//23 35//35 36//36
f 23//23 36//36 32//32
f 30//30 32//32 37//37
f 30//30 37//37 34//34
f 30//30 34//34 31//31
f 32//32 38//38 37//37
f 32//32 36//36 38//38
f 37//37 39//39 40//40
f 37//37 41//41 34//34
f 37//37 40//40 42//42
f 37//37 38//38 43//43
f 37//37 42//42 44//44
f 37//37 43//43 39//39
f 37//37 44//44 41//41
f 39//39 45//45 46//46
f 39//39 46//46 40//40
f 39//39 43//43 47//47
f 39//39 47//47 45//45
f 45//45 48//48 49//49
f 45//45 49//49 46//46
f 45//45 47//47 50//50
f 45//45 50//50 51//51
f 45//45 51//51 48//48
f 6//6 52//52 7//7
f 6//6 53//53 52//52
f 6//6 10//10 53//53
f 7//7 54//54 12//12
f 7//7 52//52 54//54
f 12//12 54//54 15//15
f 15//15 54//54 19//19
f 19//19 54//54 52//52
f 19//19 52//52 53//53
f 19//19 55//55 22//22
f 19//19 53//53 56//56
f 19//19 56//56 55//55
f 22//22 57//57 58//58
f 22//22 58//58 59//59
f 22//22 60//60 57//57
f 22//22 59//59 25//25
f 22//22 61//61 60//60
f 22//22 55//55 61//61
f 8//8 3//3 62//62
f 8//8 62//62 9//9
f 63//63 64//64 65//65
f 63//63 65//65 66//66
f 63//63 66//66 67//67
f 63//63 67//67 64//64
f 64//64 68//68 65//65
f 64//64 67//67 68//68
f 57//57 60//60 59//59
f 57//57 59//59 58//58
f 60//60 61//61 25//25
f 60//60 25//25 59//59
f 61//61 55//55 26//26
f 61//61 26//26 25//25
f 48//48 51//51 49//49
f 55//55 69//69 33//33
f 55//55 33//33 26//26
f 55//55 56//56 69//69
f 70//70 71//71 69//69
f 70//70 69//69 72//72
f 70//70 73//73 74//74
f 70//70 74//74 71//71
f 70//70 72//72 73//73
f 71//71 33//33 69//69
f 71//71 74//74 35//35
f 71//71 35//35 33//33
f 49//49 75//75 46//46
f 49//49 51//51 75//75
f 41//41 76//76 77//77
f 41//41 77//77 34//34
f 41//41 44//44 76//76
f 46//46 75//75 40//40
f 53//53 10//10 56//56
f 69//69 56//56 78//78
f 69//69 78//78 72//72
f 10//10 79//79 56//56
f 10//10 11//11 79//79
f 80//80 81//81 20//20
f 80//80 20//20 18//18
f 80//80 18//18 82//82
f 80//80 82//82 81//81
f 27//27 34//34 28//28
f 81//81 83//83 20//20
f 81//81 82//82 83//83
f 34//34 77//77 28//28
f 73//73 72//72 84//84
f 73//73 85//85 38//38
f 73//73 38//38 74//74
f 73//73 84//84 85//85
f 86//86 87//87 85//85
f 86//86 85//85 88//88
f 86//86 88//88 89//89
f 86//86 89//89 87//87
f 74//74 38//38 36//36
f 74//74 36//36 35//35
f 87//87 38//38 85//85
f 87//87 89//89 38//38
f 75//75 90//90 40//40
f 75//75 51//51 90//90
f 76//76 91//91 92//92
f 76//76 92//92 77//77
f 76//76 44//44 93//93
f 76//76 93//93 91//91
f 40//40 90//90 42//42
f 56//56 79//79 78//78
f 72//72 78//78 94//94
f 72//72 94//94 84//84
f 79//79 95//95 78//78
f 79//79 11//11 95//95
f 20//20 83//83 14//14
f 28//28 77//77 29//29
f 83//83 96//96 14//14
f 83//83 82//82 97//97
f 83//83 97//97 96//96
f 77//77 92//92 29//29
f 85//85 84//84 98//98
f 85//85 99//99 88//88
f 85//85 98//98 99//99
f 88//88 99//99 100//100
f 88//88 100//100 47//47
f 88//88 47//47 89//89
f 38//38 89//89 47//47
f 38//38 47//47 43//43
f 90//90 101//101 42//42
f 90//90 51//51 101//101
f 91//91 102//102 82//82
f 91//91 82//82 92//92
f 91//91 93//93 102//102
f 42//42 101//101 44//44
f 78//78 95//95 94//94
f 84//84 94//94 103//103
f 84//84 103//103 98//98
f 95//95 104//104 94//94
f 95//95 11//11 104//104
f 14//14 96//96 16//16
f 29//29 92//92 18//18
f 96//96 3//3 16//16
f 96//96 97//97 105//105
f 96//96 105//105 3//3
f 92//92 82//82 18//18
f 99//99 98//98 106//106
f 99//99 107//107 100//100
f 99//99 106//106 107//107
f 100//100 107//107 108//108
f 100//100 108//108 50//50
f 100//100 50//50 47//47
f 101//101 109//109 44//44
f 101//101 51//51 68//68
f 101//101 68//68 109//109
f 102//102 110//110 97//97
f 102//102 93//93 111//111
f 102//102 97//97 82//82
f 102//102 111//111 110//110
f 44//44 109//109 93//93
f 94//94 104//104 103//103
f 98//98 103//103 112//112
f 98//98 112//112 106//106
f 104//104 113//113 103//103
f 104//104 11//11 114//114
f 104//104 114//114 113//113
f 3//3 105//105 62//62
f 107//107 106//106 115//115
f 107//107 116//116 108//108
f 107//107 115//115 116//116
f 108//108 117//117 118//118
f 108//108 116//116 119//119
f 108//108 120//120 51//51
f 108//108 51//51 50//50
f 108//108 119//119 117//117
f 108//108 118//118 120//120
f 109//109 121//121 93//93
f 109//109 68//68 121//121
f 122//122 123//123 124//124
f 122//122 125//125 126//126
f 122//122 126//126 123//123
f 122//122 127//127 125//125
f 122//122 124//124 127//127
f 110//110 128//128 105//105
f 110//110 111//111 128//128
f 110//110 105//105 97//97
f 93//93 121//121 111//111
f 103//103 113//113 112//112
f 106//106 112//112 129//129
f 106//106 129//129 115//115
f 113//113 130//130 112//112
f 113//113 114//114 130//130
f 9//9 62//62 131//131
f 9//9 131//131 11//11
f 62//62 123//123 126//126
f 62//62 126//126 131//131
f 62//62 105//105 124//124
f 62//62 124//124 123//123
f 117//117 119//119 118//118
f 116//116 115//115 119//119
f 120//120 118//118 65//65
f 120//120 65//65 68//68
f 120//120 68//68 51//51
f 132//132 111//111 67//67
f 132//132 133//133 134//134
f 132//132 134//134 135//135
f 132//132 66//66 133//133
f 132//132 135//135 111//111
f 132//132 67//67 66//66
f 121//121 68//68 67//67
f 121//121 67//67 111//111
f 125//125 111//111 135//135
f 125//125 135//135 136//136
f 125//125 127//127 111//111
f 125//125 136//136 126//126
f 128//128 111//111 137//137
f 128//128 137//137 105//105
f 111//111 127//127 124//124
f 111//111 124//124 137//137
f 112//112 130//130 129//129
f 115//115 129//129 119//119
f 130//130 138//138 129//129
f 130//130 114//114 138//138
f 11//11 131//131 139//139
f 11//11 139//139 114//114
f 131//131 126//126 136//136
f 131//131 136//136 139//139
f 105//105 137//137 124//124
f 119//119 129//129 140//140
f 119//119 140//140 118//118
f 118//118 133//133 66//66
f 118//118 66//66 65//65
f 118//118 140//140 133//133
f 133//133 140//140 141//141
f 133//133 141//141 134//134
f 134//134 141//141 142//142
f 134//134 142//142 135//135
f 135//135 142//142 136//136
f 129//129 138//138 140//140
f 140//140 138//138 141//141
f 138//138 114//114 142//142
f 138//138 142//142 141//141
f 114//114 139//139 136//136
f 114//114 136//136 142//142
# 280 faces, 0 coords texture

# End of File
