####
#
# OBJ File Generated by Meshlab
#
####
# Object matlab_mesh_slc_step12_link2.obj
#
# Vertices: 202
# Faces: 400
#
####
vn -0.006981 -0.007019 6.283170
v 0.089534 0.223208 0.916326
vn -0.889167 -0.979981 5.990879
v 0.176672 0.136544 0.916326
vn 0.002619 0.002633 6.283183
v 0.090177 0.222948 0.916326
vn 0.000000 0.000000 6.283185
v 0.089699 0.223374 0.916326
vn 0.013429 0.017122 6.283107
v 0.089523 0.223549 0.916326
vn -0.007263 -0.005999 6.283169
v 0.089358 0.223383 0.916326
vn -0.032470 -0.024155 6.282889
v 0.070460 0.236710 0.916314
vn 1.489277 -2.391482 3.093462
v 0.177150 0.136119 0.916326
vn 2.641320 -1.248781 2.735203
v 0.177315 0.136285 0.916326
vn -0.254832 -0.192158 6.264515
v 0.070429 0.236727 0.916313
vn -0.590309 -0.405330 6.193540
v 0.070403 0.236741 0.916313
vn -1.093674 -0.684983 5.982940
v 0.070384 0.236751 0.916311
vn -1.548955 -0.316157 5.829732
v 0.070371 0.236758 0.916309
vn -3.427950 0.558510 3.944238
v -0.066084 0.075573 0.820546
vn -3.496458 0.435547 3.609375
v -0.068381 0.072860 0.818934
vn 0.005824 0.006532 6.283173
v 0.090001 0.223123 0.916326
vn 0.290551 -4.430729 0.582560
v 0.032405 -0.013393 0.818417
vn 1.818324 -4.208804 3.417898
v 0.032895 -0.012824 0.818922
vn 0.104029 -4.188939 2.070052
v 0.032406 -0.013392 0.818421
vn -1.911154 -2.432547 5.445722
v 0.032380 -0.012436 0.818922
vn -0.919445 -3.140656 5.142412
v 0.032892 -0.012824 0.818922
vn -1.766415 -2.086705 5.656826
v -0.061877 0.067355 0.818934
vn -1.970256 -2.370748 5.453463
v 0.031596 -0.011771 0.818934
vn 0.059043 0.018018 6.282627
v 0.173430 0.154724 0.916314
vn 5.090411 -1.678874 1.259758
v 0.177417 0.136388 0.916058
vn 5.635704 0.991101 2.579805
v 0.174650 0.154516 0.915358
vn 3.840609 0.676921 4.358720
v 0.174251 0.154028 0.916301
vn 2.809381 0.566507 4.549448
v 0.174245 0.154059 0.916301
vn 5.124349 -1.706935 1.192603
v 0.177556 0.136528 0.915661
vn 4.107866 -0.438134 -0.459996
v 0.214965 0.174141 0.808757
vn 4.337578 -2.541895 -2.378306
v 0.214903 0.174079 0.808710
vn 4.395365 -0.532753 -4.437255
v 0.208011 0.193902 0.799337
vn 5.543462 2.304517 1.179765
v 0.208520 0.194439 0.799863
vn 5.058384 2.329844 2.808993
v 0.174623 0.154602 0.915370
vn 4.846979 1.251007 -0.851181
v 0.208508 0.194478 0.799845
vn 5.586171 1.129687 2.620594
v 0.174643 0.154545 0.915361
vn 5.499639 1.382955 2.670846
v 0.174636 0.154568 0.915365
vn 5.349410 1.756093 2.733557
v 0.174629 0.154588 0.915368
vn 0.040641 0.064216 6.282202
v 0.073029 0.239742 0.916314
vn 0.026567 0.031356 6.283050
v 0.166980 0.160189 0.916314
vn 0.090343 0.107996 6.280556
v 0.073542 0.239355 0.916314
vn 3.720374 4.581650 1.931901
v 0.127047 0.261533 0.808734
vn 3.267332 4.695051 2.599832
v 0.107588 0.279903 0.800010
vn 3.073328 4.537182 2.989494
v 0.073351 0.240293 0.915382
vn 3.424180 4.728803 2.297394
v 0.107524 0.279966 0.799977
vn 3.427434 4.744518 2.251632
v 0.107465 0.280022 0.799948
vn 3.697258 4.756068 1.771775
v 0.107978 0.279634 0.799948
vn 3.808338 4.748920 1.470409
v 0.107925 0.279685 0.799921
vn 3.484738 4.208159 3.062185
v 0.073876 0.239897 0.915380
vn 3.541663 4.144473 3.087145
v 0.173834 0.155277 0.915385
vn 3.364018 4.279846 3.087927
v 0.073863 0.239905 0.915382
vn 3.504709 2.643440 -1.275312
v 0.208458 0.194591 0.799795
vn 4.023960 4.733009 0.761492
v 0.207674 0.195257 0.799806
vn 3.727674 3.970012 3.062482
v 0.174609 0.154618 0.915374
vn 2.215195 -5.699746 -1.320983
v 0.067942 0.026314 0.705750
vn 3.274196 -4.807216 -1.316248
v 0.068045 0.026417 0.705483
vn -0.301800 -5.033535 -0.398876
v 0.032404 -0.013393 0.818411
vn 1.476457 -5.757184 -1.847779
v 0.066255 0.026576 0.702870
vn 1.149292 -5.908129 -1.707075
v 0.064242 0.024198 0.709743
vn -2.326031 -5.018141 -1.609638
v 0.030395 -0.011439 0.813051
vn -0.299185 -5.933963 -2.033279
v 0.032400 -0.013388 0.818392
vn -1.269739 -5.434085 -1.067106
v 0.032403 -0.013391 0.818402
vn -3.917032 -4.898265 -0.324376
v 0.031890 -0.013003 0.818402
vn -4.054724 -4.777368 -0.386280
v -0.068084 0.071630 0.818424
vn 0.391244 -5.651203 -2.227691
v 0.066253 0.026578 0.702862
vn -1.246525 -5.271655 -2.708458
v 0.066251 0.026581 0.702856
vn -3.388362 -4.289550 -3.051154
v 0.065737 0.026973 0.702850
vn -2.529045 -4.696045 -3.107375
v 0.066249 0.026585 0.702850
vn -3.372697 -0.955790 0.740475
v -0.068868 0.072295 0.818436
vn -4.157126 -3.910069 -2.569719
v -0.037048 0.109881 0.709770
vn -3.545348 -4.148251 -3.075887
v -0.034248 0.111614 0.702844
vn -4.364099 -2.947477 -2.927883
v -0.035024 0.112272 0.702856
vn 4.450097 -4.019446 -1.337013
v 0.068210 0.026583 0.705483
vn 3.201932 -4.400195 -2.566185
v 0.066653 0.027061 0.701930
vn 4.681284 -3.908735 -1.067359
v 0.214759 0.173934 0.808608
vn 4.583942 -3.533059 -2.391384
v 0.069226 0.030095 0.701936
vn 4.353784 -3.194027 -3.021400
v 0.069229 0.030102 0.701930
vn 3.810029 -2.430488 -4.024974
v 0.069230 0.030108 0.701926
vn 2.876775 -1.243992 -4.954879
v 0.069230 0.030115 0.701924
vn 3.422268 4.762785 2.212608
v 0.107412 0.280073 0.799921
vn 3.822038 4.766251 1.371263
v 0.107877 0.279730 0.799897
vn 3.414633 4.787529 2.156736
v 0.107365 0.280118 0.799897
vn 3.837487 4.786428 1.246177
v 0.107835 0.279770 0.799876
vn 3.405209 4.814996 2.092525
v 0.107323 0.280158 0.799876
vn 3.854385 4.809041 1.082309
v 0.107798 0.279804 0.799857
vn 3.390286 4.852847 1.992758
v 0.107286 0.280192 0.799857
vn 4.345966 -0.440005 -4.489733
v 0.208001 0.193937 0.799323
vn 4.763275 1.345248 -0.880442
v 0.208496 0.194511 0.799829
vn 4.366989 3.252449 2.913214
v 0.174616 0.154612 0.915372
vn 0.318222 0.502985 6.221970
v 0.073004 0.239767 0.916313
vn 0.670138 0.800008 6.129787
v 0.073516 0.239380 0.916313
vn 0.151373 0.123546 6.278005
v 0.173431 0.154749 0.916313
vn 0.347391 0.355843 6.259912
v 0.173433 0.154769 0.916313
vn 3.874364 4.835504 0.842916
v 0.107767 0.279832 0.799841
vn 3.365527 4.899989 1.859627
v 0.107255 0.280220 0.799841
vn 2.839525 0.764589 4.574727
v 0.174240 0.154085 0.916301
vn 4.237621 -0.268153 -4.600080
v 0.207992 0.193967 0.799312
vn 4.644115 1.513869 -0.919632
v 0.208485 0.194539 0.799816
vn 0.657596 1.107967 5.994081
v 0.072984 0.239788 0.916313
vn 1.572520 1.911665 5.605591
v 0.073496 0.239400 0.916313
vn 0.648937 0.713362 6.200214
v 0.173435 0.154785 0.916311
vn 1.182366 1.347234 5.993368
v 0.173438 0.154795 0.916309
vn 3.892649 4.860353 0.480584
v 0.107742 0.279855 0.799828
vn 3.321127 4.961544 1.636520
v 0.107229 0.280242 0.799828
vn -3.907542 -4.894407 0.055585
v 0.031892 -0.013005 0.818411
vn 2.123444 -4.042746 -3.384068
v 0.066650 0.027062 0.701926
vn 0.694990 -5.960851 -1.858428
v 0.064236 0.024196 0.709749
vn 2.878692 1.053785 4.589025
v 0.174235 0.154106 0.916299
vn 4.450993 1.753225 -0.980501
v 0.208475 0.194562 0.799806
vn 1.021684 1.862583 5.412763
v 0.072968 0.239803 0.916311
vn 2.462587 3.024434 4.613070
v 0.073481 0.239415 0.916311
vn 2.224407 2.589002 5.106210
v 0.173441 0.154801 0.916307
vn 3.890319 4.863604 -0.101514
v 0.107721 0.279871 0.799818
vn 3.213254 5.033795 1.259499
v 0.107209 0.280259 0.799818
vn 0.403043 5.043943 2.275727
v 0.073343 0.240297 0.915384
vn 4.045706 4.773424 -0.275985
v 0.207675 0.195256 0.799804
vn -3.826912 -4.809496 1.057439
v 0.031893 -0.013005 0.818417
vn -4.046995 -4.772279 0.272457
v -0.068089 0.071634 0.818425
vn 0.609993 -3.244785 -4.164831
v 0.066646 0.027063 0.701924
vn 4.063795 -0.009263 -4.752821
v 0.207984 0.193992 0.799304
vn 3.760502 -0.198128 -5.024784
v 0.205692 0.191285 0.797695
vn 1.558803 1.871437 -5.788667
v -0.030707 0.114739 0.701926
vn 1.579745 2.008384 -5.739632
v -0.031514 0.115424 0.701938
vn 1.883107 2.401358 -5.464674
v 0.107211 0.279322 0.799308
vn 1.148469 1.404870 -5.983673
v -0.030724 0.114745 0.701924
vn 1.248068 1.625746 -5.912925
v -0.031524 0.115424 0.701936
vn 1.551118 1.517424 -5.856223
v 0.069228 0.030125 0.701924
vn 1.942846 2.339567 -5.472498
v 0.107995 0.278657 0.799296
vn 2.255135 2.114915 -5.413139
v 0.207966 0.194035 0.799297
vn 2.347300 1.336852 -5.594734
v 0.205669 0.191321 0.797685
vn 1.545985 2.068306 -5.727935
v -0.032026 0.115812 0.701938
vn 0.952046 2.022984 -5.797653
v -0.032036 0.115812 0.701936
vn 1.673219 2.490230 -5.482356
v 0.106698 0.279710 0.799308
vn 2.955307 1.539394 4.575481
v 0.174230 0.154123 0.916298
vn 4.105537 2.122531 -1.067099
v 0.208466 0.194579 0.799799
vn 4.020915 4.750107 -0.847598
v 0.108521 0.279193 0.799806
vn 3.858359 4.561258 -1.772929
v 0.108499 0.279210 0.799799
vn 3.761086 4.725191 -1.244561
v 0.107707 0.279882 0.799811
vn 3.259587 3.467801 -2.586035
v 0.208451 0.194597 0.799793
vn 0.907746 2.453476 4.753273
v 0.072958 0.239814 0.916309
vn 2.935700 3.750141 4.019777
v 0.073470 0.239426 0.916309
vn 3.161632 3.689476 3.939163
v 0.173444 0.154802 0.916304
vn 2.852236 5.026367 0.424451
v 0.107194 0.280270 0.799811
vn -3.418822 -4.312916 2.745518
v 0.031893 -0.013004 0.818421
vn -3.958985 -4.678124 1.255407
v 0.031093 -0.012327 0.818429
vn -0.893859 -2.479603 -4.532240
v 0.066642 0.027064 0.701923
vn 3.406684 0.240941 -5.259585
v 0.205682 0.191301 0.797688
vn 3.731164 0.433261 -4.974298
v 0.207977 0.194012 0.799299
vn 1.891464 0.135549 -5.546939
v 0.069229 0.030120 0.701923
vn 0.409433 0.483629 -6.218616
v 0.062731 0.035621 0.701923
vn 0.434510 0.560801 -6.202025
v -0.030738 0.114751 0.701923
vn 0.838589 1.105179 -6.126187
v -0.031530 0.115423 0.701935
vn -3.506486 -4.154055 2.897274
v 0.031101 -0.012332 0.818433
vn -3.280774 -3.413530 2.651009
v -0.068865 0.072293 0.818436
vn -1.228348 2.386618 -4.528754
v -0.032043 0.115811 0.701935
vn -1.385582 3.258751 -2.694178
v 0.106697 0.279712 0.799309
vn -1.512859 -3.698810 4.500983
v 0.032405 -0.013389 0.818424
vn 3.050663 2.382141 4.415102
v 0.174225 0.154136 0.916295
vn 4.224688 3.857472 2.571357
v 0.176640 0.157003 0.908460
vn 2.972800 3.546680 -3.849703
v 0.108482 0.279222 0.799795
vn 2.935360 3.763627 -3.498692
v 0.107698 0.279887 0.799806
vn -0.778773 3.140454 3.326743
v 0.072952 0.239820 0.916307
vn -3.084231 1.360406 4.049345
v 0.070363 0.236761 0.916307
vn -4.985830 3.465223 1.204260
v -0.068377 0.072866 0.818934
vn -5.363358 2.592898 -0.015641
v -0.068866 0.072299 0.818433
vn -4.786671 3.444789 1.492874
v 0.070361 0.236761 0.916304
vn -4.833208 4.010026 0.154716
v 0.069877 0.236199 0.915808
vn -0.020548 5.549301 1.913520
v 0.075367 0.242687 0.908472
vn 0.940666 4.058574 -1.048044
v 0.107185 0.280275 0.799806
vn -3.330852 -4.094576 -3.401485
v 0.065735 0.026977 0.702847
vn -3.034137 -3.709431 -3.992027
v 0.066126 0.027454 0.701924
vn -2.660982 -3.323020 4.486332
v 0.031893 -0.013001 0.818424
vn -3.175135 -4.188972 -3.441704
v 0.066639 0.027067 0.701924
vn -0.209309 -0.247239 -6.266439
v -0.027339 0.106581 0.701923
vn -1.567334 -2.059115 -4.922720
v 0.066130 0.027452 0.701923
vn -1.389295 -1.588795 -5.669662
v -0.033850 0.112085 0.701924
vn -0.220231 -0.223599 -6.266283
v -0.033838 0.112083 0.701923
vn -2.379492 -2.810940 -5.090639
v -0.027346 0.106579 0.701924
vn -2.878089 -3.339927 -4.318869
v -0.033859 0.112088 0.701926
vn 0.352837 0.495965 -6.221554
v -0.031251 0.115138 0.701923
vn -1.232622 0.878350 -5.872133
v -0.034630 0.112755 0.701935
vn -2.740477 0.795686 -2.716779
v -0.034634 0.112751 0.701935
vn 2.964240 1.289655 -5.250050
v 0.207971 0.194026 0.799296
vn 2.604672 1.093463 -5.551835
v 0.205675 0.191313 0.797685
vn -2.687310 -3.220473 4.575617
v 0.031109 -0.012336 0.818436
vn -4.889261 3.942035 -0.051422
v -0.068473 0.072778 0.817506
vn -5.045350 0.652702 -1.386288
v -0.035026 0.112274 0.702858
vn -5.549269 -0.403239 -1.764361
v -0.037049 0.109883 0.709770
vn -3.319476 2.988991 -2.829443
v -0.032045 0.115809 0.701935
vn -4.798821 4.055546 0.033282
v 0.070266 0.236673 0.914889
vn -4.786429 4.070093 0.033016
v 0.072856 0.239733 0.914889
vn -4.781769 4.075838 0.009758
v 0.074880 0.242125 0.907975
vn 3.348400 3.592323 3.856067
v 0.174220 0.154144 0.916292
vn 2.183631 2.794880 -5.184942
v 0.107694 0.279887 0.799804
vn -2.356218 -2.214080 5.341796
v -0.068380 0.072855 0.818932
vn -3.304254 4.546981 1.522762
v 0.072951 0.239821 0.916304
vn -0.847031 3.603223 -1.734113
v 0.107182 0.280274 0.799804
vn -3.474075 4.914552 0.682753
v 0.075365 0.242687 0.908471
vn -3.267301 4.873622 1.031994
v 0.073340 0.240295 0.915385
vn -3.744219 -2.444179 -3.818075
v -0.034634 0.112747 0.701937
vn 2.109205 2.793315 -5.217948
v 0.107210 0.279325 0.799309
vn -4.793949 4.060902 0.073673
v 0.072466 0.239258 0.915808
# 202 vertices, 0 vertices normals

f 1//1 2//2 3//3
f 1//1 4//4 5//5
f 1//1 3//3 4//4
f 1//1 6//6 7//7
f 1//1 5//5 6//6
f 1//1 7//7 2//2
f 2//2 8//8 9//9
f 2//2 9//9 3//3
f 2//2 7//7 10//10
f 2//2 10//10 11//11
f 2//2 11//11 12//12
f 2//2 12//12 13//13
f 2//2 13//13 14//14
f 2//2 14//14 15//15
f 2//2 15//15 8//8
f 4//4 3//3 16//16
f 4//4 16//16 5//5
f 8//8 17//17 9//9
f 8//8 18//18 19//19
f 8//8 19//19 17//17
f 8//8 20//20 21//21
f 8//8 21//21 18//18
f 8//8 22//22 23//23
f 8//8 23//23 20//20
f 8//8 15//15 22//22
f 3//3 9//9 24//24
f 3//3 24//24 16//16
f 9//9 25//25 26//26
f 9//9 27//27 28//28
f 9//9 26//26 27//27
f 9//9 28//28 24//24
f 9//9 17//17 25//25
f 29//29 30//30 26//26
f 29//29 25//25 17//17
f 29//29 26//26 25//25
f 29//29 17//17 30//30
f 30//30 31//31 32//32
f 30//30 33//33 34//34
f 30//30 35//35 33//33
f 30//30 32//32 35//35
f 30//30 36//36 26//26
f 30//30 37//37 36//36
f 30//30 38//38 37//37
f 30//30 17//17 31//31
f 30//30 34//34 38//38
f 6//6 5//5 39//39
f 6//6 39//39 7//7
f 5//5 16//16 24//24
f 5//5 24//24 40//40
f 5//5 41//41 39//39
f 5//5 40//40 41//41
f 42//42 43//43 44//44
f 42//42 45//45 43//43
f 42//42 46//46 45//45
f 42//42 47//47 46//46
f 42//42 48//48 47//47
f 42//42 49//49 50//50
f 42//42 44//44 51//51
f 42//42 51//51 49//49
f 42//42 52//52 53//53
f 42//42 53//53 48//48
f 42//42 54//54 52//52
f 42//42 50//50 54//54
f 55//55 56//56 57//57
f 55//55 58//58 56//56
f 55//55 59//59 58//58
f 55//55 57//57 59//59
f 60//60 61//61 62//62
f 60//60 63//63 64//64
f 60//60 62//62 63//63
f 60//60 65//65 61//61
f 60//60 66//66 65//65
f 60//60 67//67 68//68
f 60//60 68//68 66//66
f 60//60 64//64 69//69
f 60//60 69//69 70//70
f 60//60 71//71 67//67
f 60//60 72//72 71//71
f 60//60 70//70 72//72
f 56//56 73//73 17//17
f 56//56 58//58 74//74
f 56//56 74//74 73//73
f 56//56 17//17 57//57
f 31//31 75//75 76//76
f 31//31 76//76 77//77
f 31//31 77//77 78//78
f 31//31 78//78 79//79
f 31//31 17//17 75//75
f 31//31 79//79 32//32
f 75//75 73//73 76//76
f 75//75 17//17 73//73
f 73//73 74//74 76//76
f 43//43 45//45 44//44
f 45//45 46//46 44//44
f 46//46 47//47 48//48
f 46//46 80//80 44//44
f 46//46 48//48 80//80
f 80//80 48//48 81//81
f 80//80 82//82 44//44
f 80//80 81//81 82//82
f 48//48 53//53 81//81
f 82//82 81//81 83//83
f 82//82 84//84 44//44
f 82//82 83//83 84//84
f 81//81 53//53 83//83
f 33//33 35//35 34//34
f 84//84 83//83 85//85
f 84//84 86//86 44//44
f 84//84 85//85 86//86
f 83//83 53//53 85//85
f 27//27 26//26 36//36
f 27//27 36//36 28//28
f 35//35 32//32 87//87
f 35//35 88//88 89//89
f 35//35 87//87 88//88
f 35//35 89//89 34//34
f 7//7 39//39 90//90
f 7//7 90//90 10//10
f 39//39 41//41 91//91
f 39//39 91//91 90//90
f 24//24 28//28 92//92
f 24//24 92//92 40//40
f 41//41 40//40 92//92
f 41//41 92//92 93//93
f 41//41 93//93 91//91
f 86//86 85//85 94//94
f 86//86 95//95 44//44
f 86//86 94//94 95//95
f 85//85 53//53 94//94
f 61//61 65//65 62//62
f 32//32 79//79 87//87
f 76//76 74//74 77//77
f 28//28 36//36 37//37
f 28//28 96//96 92//92
f 28//28 37//37 96//96
f 88//88 87//87 97//97
f 88//88 98//98 89//89
f 88//88 97//97 98//98
f 10//10 90//90 99//99
f 10//10 99//99 11//11
f 90//90 91//91 100//100
f 90//90 100//100 99//99
f 92//92 96//96 93//93
f 91//91 93//93 101//101
f 91//91 101//101 102//102
f 91//91 102//102 100//100
f 95//95 94//94 103//103
f 95//95 104//104 44//44
f 95//95 103//103 104//104
f 94//94 53//53 103//103
f 63//63 62//62 105//105
f 63//63 105//105 64//64
f 58//58 59//59 65//65
f 58//58 65//65 106//106
f 58//58 106//106 74//74
f 62//62 59//59 57//57
f 62//62 65//65 107//107
f 62//62 57//57 105//105
f 62//62 107//107 59//59
f 59//59 107//107 65//65
f 74//74 106//106 77//77
f 87//87 79//79 97//97
f 77//77 106//106 78//78
f 96//96 37//37 38//38
f 96//96 108//108 93//93
f 96//96 38//38 108//108
f 98//98 97//97 109//109
f 98//98 109//109 89//89
f 11//11 99//99 110//110
f 11//11 110//110 12//12
f 99//99 100//100 111//111
f 99//99 111//111 110//110
f 93//93 108//108 101//101
f 100//100 102//102 112//112
f 100//100 112//112 111//111
f 104//104 103//103 113//113
f 104//104 114//114 115//115
f 104//104 113//113 114//114
f 104//104 115//115 44//44
f 103//103 53//53 116//116
f 103//103 116//116 113//113
f 105//105 57//57 117//117
f 105//105 117//117 118//118
f 105//105 118//118 64//64
f 65//65 66//66 119//119
f 65//65 119//119 106//106
f 57//57 17//17 117//117
f 106//106 119//119 78//78
f 97//97 120//120 109//109
f 97//97 121//121 120//120
f 97//97 79//79 121//121
f 78//78 119//119 79//79
f 122//122 123//123 124//124
f 122//122 125//125 126//126
f 122//122 126//126 123//123
f 122//122 127//127 125//125
f 122//122 128//128 129//129
f 122//122 124//124 128//128
f 122//122 129//129 130//130
f 122//122 130//130 127//127
f 131//131 123//123 126//126
f 131//131 132//132 133//133
f 131//131 126//126 132//132
f 131//131 133//133 124//124
f 131//131 124//124 123//123
f 108//108 38//38 34//34
f 108//108 134//134 101//101
f 108//108 34//34 134//134
f 109//109 120//120 135//135
f 109//109 135//135 89//89
f 136//136 113//113 116//116
f 136//136 137//137 138//138
f 136//136 138//138 113//113
f 136//136 139//139 137//137
f 136//136 116//116 139//139
f 12//12 110//110 140//140
f 12//12 140//140 13//13
f 110//110 111//111 141//141
f 110//110 141//141 140//140
f 101//101 134//134 102//102
f 111//111 112//112 142//142
f 111//111 142//142 141//141
f 114//114 113//113 138//138
f 114//114 143//143 115//115
f 114//114 138//138 143//143
f 49//49 141//141 142//142
f 49//49 51//51 141//141
f 49//49 142//142 50//50
f 117//117 17//17 144//144
f 117//117 145//145 118//118
f 117//117 144//144 145//145
f 66//66 68//68 146//146
f 66//66 146//146 119//119
f 17//17 19//19 144//144
f 119//119 146//146 79//79
f 120//120 121//121 147//147
f 120//120 148//148 135//135
f 120//120 147//147 148//148
f 121//121 79//79 149//149
f 121//121 149//149 147//147
f 79//79 146//146 149//149
f 125//125 149//149 150//150
f 125//125 151//151 152//152
f 125//125 150//150 151//151
f 125//125 152//152 126//126
f 125//125 127//127 149//149
f 145//145 144//144 153//153
f 145//145 153//153 154//154
f 145//145 154//154 118//118
f 132//132 126//126 152//152
f 132//132 155//155 156//156
f 132//132 152//152 155//155
f 132//132 156//156 133//133
f 18//18 21//21 157//157
f 18//18 157//157 19//19
f 134//134 34//34 158//158
f 134//134 158//158 102//102
f 135//135 148//148 52//52
f 135//135 159//159 89//89
f 135//135 52//52 159//159
f 34//34 89//89 158//158
f 137//137 160//160 161//161
f 137//137 161//161 138//138
f 137//137 139//139 160//160
f 13//13 140//140 162//162
f 13//13 163//163 14//14
f 13//13 162//162 163//163
f 164//164 165//165 69//69
f 164//164 14//14 166//166
f 164//164 15//15 14//14
f 164//164 69//69 15//15
f 164//164 166//166 167//167
f 164//164 167//167 165//165
f 140//140 141//141 44//44
f 140//140 44//44 162//162
f 102//102 158//158 112//112
f 141//141 51//51 44//44
f 143//143 138//138 161//161
f 143//143 168//168 115//115
f 143//143 169//169 168//168
f 143//143 161//161 169//169
f 44//44 115//115 162//162
f 67//67 170//170 171//171
f 67//67 171//171 68//68
f 67//67 71//71 170//170
f 144//144 19//19 172//172
f 144//144 172//172 153//153
f 68//68 171//171 173//173
f 68//68 173//173 146//146
f 19//19 157//157 172//172
f 174//174 175//175 176//176
f 174//174 177//177 151//151
f 174//174 151//151 150//150
f 174//174 150//150 175//175
f 174//174 176//176 177//177
f 175//175 146//146 171//171
f 175//175 149//149 146//146
f 175//175 150//150 149//149
f 175//175 178//178 176//176
f 175//175 171//171 179//179
f 175//175 179//179 178//178
f 177//177 180//180 151//151
f 177//177 181//181 180//180
f 177//177 176//176 182//182
f 177//177 182//182 181//181
f 180//180 181//181 155//155
f 180//180 155//155 151//151
f 146//146 173//173 171//171
f 148//148 147//147 183//183
f 148//148 183//183 52//52
f 147//147 149//149 184//184
f 147//147 184//184 183//183
f 149//149 127//127 184//184
f 151//151 155//155 152//152
f 153//153 172//172 185//185
f 153//153 185//185 154//154
f 165//165 186//186 187//187
f 165//165 187//187 188//188
f 165//165 188//188 69//69
f 165//165 167//167 186//186
f 181//181 182//182 189//189
f 181//181 189//189 155//155
f 186//186 182//182 187//187
f 186//186 167//167 190//190
f 186//186 190//190 191//191
f 186//186 192//192 156//156
f 186//186 156//156 182//182
f 186//186 191//191 192//192
f 155//155 189//189 156//156
f 20//20 23//23 185//185
f 20//20 172//172 157//157
f 20//20 157//157 21//21
f 20//20 185//185 172//172
f 158//158 89//89 193//193
f 158//158 193//193 112//112
f 159//159 52//52 54//54
f 159//159 54//54 89//89
f 52//52 183//183 139//139
f 52//52 139//139 116//116
f 52//52 116//116 53//53
f 89//89 54//54 193//193
f 160//160 128//128 194//194
f 160//160 139//139 128//128
f 160//160 194//194 161//161
f 22//22 15//15 195//195
f 22//22 195//195 23//23
f 23//23 195//195 154//154
f 23//23 154//154 185//185
f 163//163 162//162 196//196
f 163//163 166//166 14//14
f 163//163 196//196 166//166
f 15//15 69//69 154//154
f 15//15 154//154 195//195
f 162//162 115//115 196//196
f 112//112 193//193 142//142
f 168//168 169//169 197//197
f 168//168 198//198 115//115
f 168//168 197//197 198//198
f 169//169 161//161 194//194
f 169//169 194//194 197//197
f 115//115 198//198 199//199
f 115//115 199//199 196//196
f 170//170 71//71 179//179
f 170//170 179//179 171//171
f 64//64 118//118 69//69
f 178//178 179//179 176//176
f 176//176 179//179 200//200
f 176//176 200//200 182//182
f 183//183 184//184 129//129
f 183//183 129//129 139//139
f 184//184 127//127 129//129
f 127//127 130//130 129//129
f 128//128 124//124 194//194
f 128//128 139//139 129//129
f 187//187 182//182 200//200
f 187//187 72//72 188//188
f 187//187 200//200 72//72
f 69//69 188//188 72//72
f 69//69 118//118 154//154
f 69//69 72//72 70//70
f 182//182 156//156 189//189
f 133//133 156//156 201//201
f 133//133 201//201 124//124
f 124//124 201//201 194//194
f 193//193 54//54 142//142
f 54//54 50//50 142//142
f 166//166 196//196 202//202
f 166//166 202//202 167//167
f 196//196 199//199 202//202
f 198//198 197//197 192//192
f 198//198 192//192 191//191
f 198//198 191//191 199//199
f 197//197 194//194 201//201
f 197//197 156//156 192//192
f 197//197 201//201 156//156
f 199//199 191//191 202//202
f 71//71 72//72 179//179
f 179//179 72//72 200//200
f 167//167 202//202 190//190
f 202//202 191//191 190//190
# 400 faces, 0 coords texture

# End of File
