####
#
# OBJ File Generated by Meshlab
#
####
# Object matlab_mesh_slc_step13_link2.obj
#
# Vertices: 206
# Faces: 408
#
####
vn -0.080183 -0.089163 6.280896
v 0.080171 0.231328 0.913289
vn -0.080184 -0.089165 6.280896
v 0.080470 0.231060 0.913289
vn 0.000000 0.000000 6.283185
v 0.080328 0.231502 0.913289
vn 0.095302 0.135812 6.278537
v 0.080161 0.231652 0.913289
vn -0.083412 -0.079137 6.280871
v 0.080004 0.231478 0.913289
vn -0.268665 -0.224950 6.261277
v 0.061382 0.244011 0.913169
vn -0.800943 -0.972559 6.019432
v 0.171555 0.149148 0.913289
vn 0.025813 0.028704 6.282948
v 0.080828 0.231100 0.913289
vn 1.646898 -2.302167 3.066256
v 0.172056 0.148745 0.913289
vn 0.025817 0.028709 6.282948
v 0.171913 0.149188 0.913289
vn -0.613719 -0.485243 6.176763
v 0.061356 0.244025 0.913168
vn -1.036729 -0.687795 6.007302
v 0.061336 0.244035 0.913167
vn -3.325275 0.767240 3.029439
v -0.072176 0.073004 0.820861
vn 0.062534 0.077658 6.281603
v 0.080661 0.231250 0.913289
vn 2.698941 -1.079277 2.691459
v 0.172212 0.148919 0.913289
vn 0.526755 -4.522069 -0.123375
v 0.031936 -0.009180 0.820349
vn 3.623809 -4.577356 2.196653
v 0.032416 -0.008579 0.820841
vn 0.260599 -4.537840 0.836904
v 0.031935 -0.009180 0.820355
vn 1.648528 -4.074332 3.945030
v 0.032413 -0.008579 0.820844
vn -1.718738 -2.402014 5.524297
v 0.031880 -0.008211 0.820844
vn -0.762454 -3.045588 5.239122
v 0.032410 -0.008579 0.820844
vn -1.610702 -2.063799 5.711018
v -0.065468 0.067769 0.820861
vn -1.776333 -2.343249 5.530964
v 0.031075 -0.007579 0.820861
vn 0.189751 0.159986 6.275819
v 0.167557 0.166202 0.913169
vn 5.185061 -1.416075 1.176686
v 0.172301 0.149019 0.913022
vn 5.673462 1.312870 2.355349
v 0.168763 0.165969 0.912198
vn 5.591665 1.386927 2.487903
v 0.168754 0.166001 0.912202
vn 3.640134 0.898067 4.357618
v 0.168397 0.165520 0.913151
vn 2.830506 0.802589 4.506886
v 0.168390 0.165549 0.913151
vn 5.209166 -1.435786 1.128795
v 0.172427 0.149158 0.912621
vn 4.122686 -0.258137 -0.490656
v 0.206209 0.186724 0.804500
vn 4.436637 -2.443418 -2.347982
v 0.206156 0.186665 0.804459
vn 4.225505 -0.695849 -4.596741
v 0.198842 0.204485 0.795018
vn 5.221023 2.893043 1.894792
v 0.199345 0.205052 0.795531
vn 4.961342 2.657267 2.691849
v 0.168721 0.166083 0.912215
vn 5.206194 1.828350 -0.341647
v 0.199329 0.205093 0.795509
vn 4.368153 -0.489215 -4.468648
v 0.198829 0.204522 0.795001
vn 4.739053 1.443301 -0.945022
v 0.199315 0.205129 0.795491
vn 5.530082 1.544940 2.525946
v 0.168745 0.166028 0.912206
vn 0.702386 -4.700300 -0.567816
v 0.031937 -0.009179 0.820341
vn 5.433510 1.779193 2.569822
v 0.168737 0.166050 0.912209
vn 5.273819 2.120474 2.623467
v 0.168729 0.166069 0.912212
vn 0.044655 0.092391 6.281550
v 0.063861 0.247126 0.913169
vn -0.020243 0.028904 6.283076
v 0.061414 0.243994 0.913169
vn 0.156269 0.209922 6.277601
v 0.064390 0.246758 0.913169
vn 0.379908 0.401428 6.253997
v 0.167556 0.166222 0.913168
vn 3.556796 4.745659 1.915571
v 0.114043 0.269564 0.804476
vn 3.662607 4.547085 2.313717
v 0.114543 0.269162 0.804476
vn 3.351948 2.764856 -1.391586
v 0.199262 0.205233 0.795441
vn 3.218097 4.848288 2.367814
v 0.094961 0.286573 0.795600
vn 3.046803 4.648738 2.866893
v 0.064137 0.247671 0.912232
vn 3.278554 4.871855 2.217520
v 0.094907 0.286622 0.795573
vn 3.602723 4.869692 1.596221
v 0.095436 0.286253 0.795573
vn 3.607339 4.883297 1.539052
v 0.095388 0.286297 0.795549
vn 3.272146 4.457121 2.927162
v 0.064666 0.247302 0.912232
vn 3.434090 4.338545 2.936227
v 0.167911 0.166722 0.912235
vn 3.811493 4.846390 0.641155
v 0.198457 0.205865 0.795458
vn 3.604205 4.186728 2.924651
v 0.168708 0.166097 0.912218
vn 2.548045 -5.513930 -1.167140
v 0.065227 0.029953 0.706415
vn 3.310917 -4.485621 -1.587316
v 0.065316 0.030052 0.706149
vn 1.613794 -5.842999 -1.644135
v 0.062499 0.029952 0.703620
vn 0.882446 -5.827191 -1.363363
v 0.031937 -0.009177 0.820331
vn 1.517022 -5.889233 -1.577191
v 0.060685 0.027630 0.710546
vn -1.502719 -5.173552 -1.645297
v 0.031319 -0.007753 0.814938
vn 1.314398 -5.775493 -1.933972
v 0.062494 0.029954 0.703610
vn -3.688450 -5.028844 -0.651516
v 0.031407 -0.008812 0.820349
vn -3.779677 -4.803112 -0.877088
v -0.071849 0.071776 0.820363
vn 0.424227 -5.745026 -2.240961
v 0.062490 0.029956 0.703602
vn -0.830034 -5.524529 -2.569793
v 0.062486 0.029959 0.703596
vn -3.343219 -4.602008 -2.654404
v 0.061954 0.030330 0.703590
vn -2.158023 -4.991017 -2.858009
v 0.062483 0.029962 0.703590
vn -3.306366 -4.408582 -2.970773
v 0.061951 0.030335 0.703587
vn -3.147231 -0.679945 0.590727
v -0.072654 0.072408 0.820380
vn -4.161096 -3.963757 -2.417076
v -0.043932 0.109207 0.710587
vn -3.439290 -4.344350 -2.918167
v -0.041307 0.110923 0.703584
vn -4.506938 -2.585494 -2.613412
v -0.042104 0.111548 0.703601
vn 4.496970 -3.561536 -1.759143
v 0.065473 0.030226 0.706149
vn 3.455265 -3.984829 -3.141520
v 0.062856 0.030433 0.702670
vn 2.637587 -4.093688 -3.269609
v 0.062850 0.030432 0.702665
vn 4.816090 -3.426865 -1.438684
v 0.206018 0.186511 0.804363
vn 4.529489 -2.957336 -3.138392
v 0.065302 0.033558 0.702678
vn 4.363337 -2.742488 -3.467563
v 0.065302 0.033566 0.702670
vn 4.033444 -2.309996 -4.049399
v 0.065302 0.033573 0.702665
vn 3.463382 -1.644068 -4.714309
v 0.065301 0.033580 0.702661
vn 2.606715 -0.736125 -5.331740
v 0.065299 0.033586 0.702658
vn 3.271568 4.893889 2.171836
v 0.094859 0.286665 0.795549
vn 3.622337 4.904960 1.422167
v 0.095345 0.286335 0.795528
vn 3.262004 4.922297 2.108807
v 0.094816 0.286703 0.795528
vn 3.641522 4.932051 1.263200
v 0.095308 0.286367 0.795509
vn 3.248038 4.958964 2.021404
v 0.094779 0.286736 0.795509
vn 4.297655 -0.375259 -4.543494
v 0.198818 0.204555 0.794986
vn 4.653482 1.550184 -0.974803
v 0.199303 0.205160 0.795475
vn 4.239576 3.529763 2.786100
v 0.168714 0.166092 0.912217
vn 0.246900 0.444881 6.238426
v 0.063834 0.247151 0.913169
vn 0.533801 0.694475 6.183949
v 0.064364 0.246783 0.913169
vn 3.662773 4.962099 1.045903
v 0.095276 0.286394 0.795493
vn 3.225307 5.007278 1.893210
v 0.094747 0.286763 0.795493
vn 1.257149 -5.925643 -1.657432
v 0.060676 0.027626 0.710554
vn 2.838255 0.986132 4.525638
v 0.168383 0.165573 0.913151
vn 4.182945 -0.210806 -4.655212
v 0.198808 0.204583 0.794975
vn 4.525287 1.709397 -1.016434
v 0.199291 0.205186 0.795462
vn 0.520105 0.994158 6.065421
v 0.063813 0.247172 0.913168
vn 1.268448 1.674240 5.812466
v 0.064342 0.246803 0.913168
vn 0.688424 0.798595 6.183180
v 0.167557 0.166237 0.913167
vn 1.230244 1.498632 5.941685
v 0.167558 0.166247 0.913165
vn 3.685605 4.995080 0.712116
v 0.095251 0.286416 0.795480
vn 3.181714 5.072617 1.687529
v 0.094721 0.286784 0.795480
vn 0.910086 5.170008 2.393333
v 0.064129 0.247675 0.912234
vn 1.772366 -3.757918 -3.787072
v 0.062844 0.030433 0.702661
vn 3.912601 -0.411028 -4.897001
v 0.196605 0.201763 0.793452
vn 2.884638 1.288895 4.533916
v 0.168376 0.165594 0.913150
vn 3.994076 0.041354 -4.812633
v 0.198799 0.204606 0.794967
vn 4.324845 1.936289 -1.077366
v 0.199280 0.205207 0.795452
vn 0.840643 1.732779 5.588202
v 0.063797 0.247187 0.913167
vn 2.114766 2.815342 4.964064
v 0.064326 0.246819 0.913167
vn 2.241713 2.813035 4.965340
v 0.167560 0.166253 0.913163
vn 3.696199 5.012778 0.134188
v 0.095230 0.286432 0.795470
vn 3.089573 5.150858 1.330759
v 0.094701 0.286800 0.795470
vn -3.689258 -5.026587 0.228723
v 0.031406 -0.008811 0.820355
vn 0.604849 -3.204917 -4.253309
v 0.062839 0.030433 0.702658
vn 3.711521 -0.164671 -5.062542
v 0.196593 0.201781 0.793442
vn 1.498587 1.927654 -5.789315
v -0.037913 0.114161 0.702661
vn 1.173041 1.551749 -5.947632
v -0.037931 0.114168 0.702658
vn 1.758790 2.298998 -5.552326
v 0.095533 0.285220 0.794959
vn 1.399598 1.618535 -5.889176
v 0.065295 0.033596 0.702658
vn 2.093281 2.086557 -5.488453
v 0.198780 0.204646 0.794960
vn 0.735916 2.473863 -5.648750
v 0.196569 0.201813 0.793431
vn 2.938760 1.761164 4.506487
v 0.168370 0.165610 0.913148
vn 3.963383 2.279989 -1.173552
v 0.199271 0.205223 0.795445
vn 0.894374 2.474305 4.722757
v 0.063786 0.247198 0.913165
vn -1.494360 -0.332850 5.875011
v 0.061322 0.244042 0.913165
vn -3.325542 0.446121 3.982732
v -0.069966 0.075835 0.822389
vn 2.701676 3.742148 4.111621
v 0.064315 0.246830 0.913165
vn 3.108530 3.913900 3.768005
v 0.167563 0.166254 0.913159
vn 3.609749 4.920737 -0.952216
v 0.095215 0.286443 0.795462
vn 2.778412 5.172937 0.549348
v 0.094686 0.286811 0.795462
vn 3.841580 4.917171 -0.671681
v 0.198458 0.205864 0.795456
vn -3.414123 -4.659043 2.029104
v 0.031404 -0.008810 0.820360
vn -3.847599 -4.919235 0.557631
v -0.071854 0.071781 0.820363
vn -0.671449 -2.621278 -4.473934
v 0.062834 0.030435 0.702657
vn -0.390853 -4.398248 2.371394
v 0.031933 -0.009178 0.820360
vn 0.987731 1.419686 -6.040380
v -0.038460 0.114536 0.702658
vn 0.492706 0.701739 -6.163894
v -0.037946 0.114174 0.702657
vn 0.456782 0.704692 -6.164504
v -0.038475 0.114542 0.702657
vn -0.362242 1.944367 -5.516089
v -0.039287 0.115179 0.702674
vn 1.012429 1.454708 -6.028025
v -0.038758 0.114811 0.702674
vn 3.643355 0.467600 -5.039389
v 0.198791 0.204624 0.794961
vn 3.335089 0.259214 -5.303555
v 0.196583 0.201795 0.793435
vn 1.609827 0.368081 -5.732360
v 0.065297 0.033591 0.702657
vn 1.225253 1.740414 -5.900198
v -0.038751 0.114811 0.702675
vn 1.458266 2.036310 -5.762054
v 0.094728 0.285852 0.794976
vn 0.458050 0.586855 -6.193706
v 0.058595 0.038822 0.702657
vn 1.098430 1.898387 -5.865969
v -0.039280 0.115179 0.702675
vn -1.516835 3.030815 -2.764817
v 0.094198 0.286222 0.794977
vn 1.692543 2.381188 -5.538232
v 0.094727 0.285854 0.794977
vn -1.549796 -3.762891 4.338740
v 0.031932 -0.009175 0.820363
vn 3.023192 2.617431 4.315499
v 0.168365 0.165621 0.913146
vn 4.030400 4.143571 2.443203
v 0.170541 0.168433 0.905233
vn 3.714193 4.760364 -1.596190
v 0.096028 0.285805 0.795445
vn 2.831865 3.649159 -3.748943
v 0.096011 0.285816 0.795441
vn 2.866694 3.999051 -3.244346
v 0.095206 0.286448 0.795458
vn 3.067415 3.537519 -2.972306
v 0.199255 0.205239 0.795439
vn -0.618107 3.071207 3.540438
v 0.063779 0.247204 0.913163
vn -3.010723 1.152214 4.438030
v 0.061314 0.244045 0.913163
vn 0.507172 5.621977 2.017094
v 0.065956 0.250015 0.905250
vn 0.995520 4.219345 -1.032328
v 0.094677 0.286816 0.795458
vn -2.609226 -3.532327 4.221219
v 0.031403 -0.008807 0.820363
vn -3.544538 -4.546244 2.141730
v 0.030592 -0.008172 0.820377
vn -2.956726 -4.532845 -3.168922
v 0.062480 0.029967 0.703587
vn -2.447661 -3.775790 -4.175634
v 0.062829 0.030437 0.702658
vn -0.190491 -0.244059 -6.267893
v -0.034236 0.106154 0.702657
vn -1.016497 -1.449273 -5.736888
v 0.062305 0.030803 0.702657
vn -1.334272 -1.627642 -5.638871
v -0.040951 0.111388 0.702658
vn -0.207412 -0.210038 -6.267601
v -0.040938 0.111386 0.702657
vn -2.481234 -3.309581 -4.420450
v 0.062300 0.030805 0.702658
vn -1.909417 -2.446542 -5.402144
v -0.034243 0.106153 0.702658
vn -0.480585 0.245941 -6.235853
v -0.041751 0.112023 0.702674
vn -2.734915 0.751229 -2.749794
v -0.041756 0.112020 0.702675
vn 2.844302 1.284199 -5.320319
v 0.198785 0.204637 0.794959
vn 2.489933 1.082208 -5.606384
v 0.196575 0.201806 0.793431
vn -2.644893 -3.449648 4.300041
v 0.030598 -0.008175 0.820380
vn -3.137419 -3.382172 2.892050
v -0.072652 0.072406 0.820380
vn -2.646595 2.412272 -3.073302
v -0.039291 0.115178 0.702675
vn 3.286616 3.820132 3.697405
v 0.168360 0.165629 0.913143
vn 2.154395 2.760534 -5.213762
v 0.192545 0.210476 0.795439
vn 2.090368 2.767298 -5.236657
v 0.096000 0.285822 0.795439
vn 2.080489 2.912500 -5.154557
v 0.095202 0.286447 0.795456
vn -2.300798 -2.126678 5.387473
v -0.072176 0.073000 0.820859
vn -2.884784 4.319007 1.844345
v 0.063778 0.247205 0.913159
vn -4.748727 3.024423 1.917428
v 0.061312 0.244045 0.913159
vn -3.113396 4.918728 0.834254
v 0.065953 0.250015 0.905249
vn -2.793272 4.811845 1.247848
v 0.064126 0.247673 0.912235
vn -0.898037 3.523650 -1.678604
v 0.094673 0.286815 0.795456
vn -2.796057 -3.487648 -4.236050
v -0.040959 0.111391 0.702660
vn -3.899140 -2.113485 -3.474549
v -0.041757 0.112016 0.702676
vn 1.903197 2.438662 -5.460936
v 0.192069 0.209883 0.794960
vn 1.816517 2.436267 -5.486452
v 0.095524 0.285229 0.794960
vn -5.413318 0.877979 -1.209689
v -0.042106 0.111549 0.703604
vn -5.412807 0.795504 -1.149320
v -0.043932 0.109208 0.710587
vn -5.086178 3.679391 -0.097249
v -0.043583 0.109679 0.709658
vn -5.084174 3.681727 -0.071765
v -0.072304 0.072878 0.819451
vn -5.001991 3.790739 0.236083
v 0.060836 0.243452 0.912680
vn -4.957309 3.859877 0.048484
v 0.061184 0.243920 0.911756
vn -4.939386 3.882599 0.048639
v 0.063650 0.247080 0.911756
vn -4.933259 3.891010 0.013734
v 0.065478 0.249422 0.904770
vn -4.949959 3.868275 0.111191
v 0.063303 0.246612 0.912680
# 206 vertices, 0 vertices normals

f 1//1 2//2 3//3
f 1//1 3//3 4//4
f 1//1 5//5 6//6
f 1//1 4//4 5//5
f 1//1 6//6 2//2
f 2//2 7//7 8//8
f 2//2 8//8 3//3
f 2//2 6//6 7//7
f 7//7 9//9 10//10
f 7//7 10//10 8//8
f 7//7 6//6 11//11
f 7//7 11//11 12//12
f 7//7 12//12 13//13
f 7//7 13//13 9//9
f 3//3 8//8 14//14
f 3//3 14//14 4//4
f 9//9 15//15 10//10
f 9//9 16//16 15//15
f 9//9 17//17 18//18
f 9//9 18//18 16//16
f 9//9 19//19 17//17
f 9//9 20//20 21//21
f 9//9 21//21 19//19
f 9//9 22//22 23//23
f 9//9 23//23 20//20
f 9//9 13//13 22//22
f 8//8 10//10 24//24
f 8//8 24//24 14//14
f 10//10 15//15 24//24
f 15//15 25//25 26//26
f 15//15 26//26 27//27
f 15//15 28//28 29//29
f 15//15 27//27 28//28
f 15//15 29//29 24//24
f 15//15 16//16 25//25
f 30//30 31//31 26//26
f 30//30 25//25 16//16
f 30//30 26//26 25//25
f 30//30 16//16 31//31
f 31//31 32//32 33//33
f 31//31 34//34 35//35
f 31//31 36//36 34//34
f 31//31 33//33 37//37
f 31//31 38//38 36//36
f 31//31 27//27 26//26
f 31//31 37//37 38//38
f 31//31 39//39 27//27
f 31//31 40//40 32//32
f 31//31 41//41 39//39
f 31//31 16//16 40//40
f 31//31 42//42 41//41
f 31//31 35//35 42//42
f 5//5 4//4 43//43
f 5//5 44//44 6//6
f 5//5 43//43 44//44
f 4//4 14//14 24//24
f 4//4 45//45 43//43
f 4//4 24//24 46//46
f 4//4 46//46 45//45
f 47//47 48//48 49//49
f 47//47 50//50 51//51
f 47//47 52//52 50//50
f 47//47 53//53 52//52
f 47//47 54//54 53//53
f 47//47 51//51 55//55
f 47//47 55//55 56//56
f 47//47 49//49 57//57
f 47//47 57//57 54//54
f 47//47 58//58 48//48
f 47//47 56//56 58//58
f 48//48 58//58 49//49
f 59//59 60//60 40//40
f 59//59 61//61 60//60
f 59//59 62//62 63//63
f 59//59 63//63 61//61
f 59//59 40//40 62//62
f 64//64 62//62 40//40
f 64//64 65//65 62//62
f 64//64 40//40 16//16
f 64//64 66//66 67//67
f 64//64 68//68 65//65
f 64//64 16//16 66//66
f 64//64 69//69 68//68
f 64//64 70//70 71//71
f 64//64 71//71 69//69
f 64//64 72//72 70//70
f 64//64 67//67 73//73
f 64//64 73//73 74//74
f 64//64 75//75 72//72
f 64//64 76//76 75//75
f 64//64 74//74 76//76
f 60//60 77//77 40//40
f 60//60 61//61 65//65
f 60//60 78//78 77//77
f 60//60 65//65 79//79
f 60//60 79//79 78//78
f 32//32 80//80 81//81
f 32//32 81//81 82//82
f 32//32 82//82 83//83
f 32//32 40//40 80//80
f 32//32 83//83 84//84
f 32//32 84//84 85//85
f 32//32 85//85 33//33
f 80//80 77//77 81//81
f 80//80 40//40 77//77
f 77//77 78//78 81//81
f 50//50 52//52 51//51
f 52//52 53//53 54//54
f 52//52 86//86 51//51
f 52//52 54//54 86//86
f 34//34 36//36 35//35
f 86//86 54//54 87//87
f 86//86 88//88 51//51
f 86//86 87//87 88//88
f 54//54 57//57 87//87
f 36//36 38//38 35//35
f 88//88 87//87 89//89
f 88//88 90//90 51//51
f 88//88 89//89 90//90
f 87//87 57//57 89//89
f 33//33 85//85 37//37
f 81//81 78//78 82//82
f 28//28 27//27 39//39
f 28//28 39//39 29//29
f 38//38 37//37 91//91
f 38//38 92//92 93//93
f 38//38 91//91 92//92
f 38//38 93//93 35//35
f 44//44 43//43 94//94
f 44//44 94//94 6//6
f 43//43 45//45 95//95
f 43//43 95//95 94//94
f 45//45 46//46 95//95
f 90//90 89//89 96//96
f 90//90 97//97 51//51
f 90//90 96//96 97//97
f 89//89 57//57 96//96
f 61//61 63//63 65//65
f 62//62 65//65 98//98
f 62//62 98//98 63//63
f 63//63 98//98 65//65
f 78//78 79//79 82//82
f 37//37 85//85 91//91
f 82//82 79//79 83//83
f 29//29 39//39 41//41
f 29//29 99//99 24//24
f 29//29 41//41 99//99
f 92//92 91//91 100//100
f 92//92 101//101 93//93
f 92//92 100//100 101//101
f 6//6 94//94 102//102
f 6//6 102//102 11//11
f 94//94 95//95 103//103
f 94//94 103//103 102//102
f 24//24 99//99 46//46
f 95//95 46//46 104//104
f 95//95 104//104 105//105
f 95//95 105//105 103//103
f 97//97 96//96 106//106
f 97//97 107//107 108//108
f 97//97 106//106 107//107
f 97//97 108//108 51//51
f 96//96 57//57 106//106
f 65//65 68//68 109//109
f 65//65 109//109 79//79
f 79//79 109//109 83//83
f 91//91 110//110 100//100
f 91//91 85//85 110//110
f 83//83 109//109 84//84
f 99//99 41//41 42//42
f 99//99 111//111 46//46
f 99//99 42//42 111//111
f 101//101 100//100 112//112
f 101//101 113//113 93//93
f 101//101 112//112 113//113
f 11//11 102//102 114//114
f 11//11 114//114 12//12
f 102//102 103//103 115//115
f 102//102 115//115 114//114
f 46//46 111//111 104//104
f 103//103 105//105 116//116
f 103//103 116//116 115//115
f 107//107 106//106 117//117
f 107//107 118//118 108//108
f 107//107 117//117 118//118
f 106//106 57//57 117//117
f 66//66 16//16 119//119
f 66//66 119//119 67//67
f 68//68 69//69 120//120
f 68//68 120//120 109//109
f 16//16 18//18 119//119
f 109//109 120//120 84//84
f 100//100 110//110 121//121
f 100//100 121//121 112//112
f 110//110 85//85 121//121
f 84//84 120//120 85//85
f 122//122 123//123 124//124
f 122//122 125//125 123//123
f 122//122 124//124 126//126
f 122//122 126//126 127//127
f 122//122 127//127 125//125
f 17//17 19//19 18//18
f 111//111 42//42 35//35
f 111//111 128//128 104//104
f 111//111 35//35 128//128
f 113//113 112//112 129//129
f 113//113 129//129 93//93
f 12//12 114//114 130//130
f 12//12 131//131 132//132
f 12//12 130//130 131//131
f 12//12 132//132 13//13
f 114//114 115//115 133//133
f 114//114 133//133 130//130
f 104//104 128//128 105//105
f 115//115 116//116 134//134
f 115//115 134//134 133//133
f 118//118 117//117 135//135
f 118//118 136//136 108//108
f 118//118 135//135 136//136
f 117//117 57//57 137//137
f 117//117 137//137 135//135
f 119//119 18//18 138//138
f 119//119 138//138 139//139
f 119//119 139//139 67//67
f 69//69 71//71 140//140
f 69//69 140//140 120//120
f 18//18 19//19 141//141
f 18//18 141//141 138//138
f 142//142 123//123 143//143
f 142//142 144//144 145//145
f 142//142 143//143 144//144
f 142//142 145//145 146//146
f 142//142 146//146 123//123
f 120//120 140//140 85//85
f 112//112 121//121 147//147
f 112//112 147//147 129//129
f 121//121 85//85 148//148
f 121//121 148//148 147//147
f 85//85 140//140 149//149
f 85//85 149//149 148//148
f 123//123 150//150 151//151
f 123//123 149//149 152//152
f 123//123 152//152 143//143
f 123//123 146//146 150//150
f 123//123 125//125 149//149
f 123//123 151//151 124//124
f 153//153 150//150 146//146
f 153//153 145//145 154//154
f 153//153 146//146 145//145
f 153//153 154//154 155//155
f 153//153 155//155 150//150
f 150//150 155//155 151//151
f 19//19 21//21 156//156
f 19//19 156//156 141//141
f 128//128 35//35 157//157
f 128//128 157//157 105//105
f 129//129 147//147 49//49
f 129//129 158//158 93//93
f 129//129 49//49 158//158
f 35//35 93//93 157//157
f 159//159 135//135 137//137
f 159//159 160//160 161//161
f 159//159 161//161 135//135
f 159//159 162//162 160//160
f 159//159 137//137 162//162
f 131//131 130//130 163//163
f 131//131 164//164 132//132
f 131//131 163//163 164//164
f 130//130 133//133 51//51
f 130//130 51//51 163//163
f 105//105 157//157 116//116
f 133//133 55//55 51//51
f 133//133 134//134 55//55
f 136//136 135//135 161//161
f 136//136 165//165 108//108
f 136//136 166//166 165//165
f 136//136 161//161 166//166
f 51//51 108//108 163//163
f 55//55 134//134 56//56
f 70//70 72//72 71//71
f 138//138 141//141 167//167
f 138//138 168//168 139//139
f 138//138 167//167 168//168
f 71//71 72//72 169//169
f 71//71 169//169 170//170
f 71//71 170//170 140//140
f 141//141 156//156 167//167
f 171//171 172//172 173//173
f 171//171 174//174 143//143
f 171//171 143//143 152//152
f 171//171 152//152 172//172
f 171//171 173//173 174//174
f 172//172 140//140 175//175
f 172//172 149//149 140//140
f 172//172 152//152 149//149
f 172//172 176//176 173//173
f 172//172 175//175 176//176
f 174//174 144//144 143//143
f 174//174 177//177 144//144
f 174//174 173//173 178//178
f 174//174 178//178 177//177
f 144//144 177//177 145//145
f 140//140 170//170 175//175
f 147//147 148//148 179//179
f 147//147 179//179 49//49
f 148//148 149//149 180//180
f 148//148 180//180 179//179
f 149//149 125//125 126//126
f 149//149 126//126 180//180
f 168//168 167//167 181//181
f 168//168 181//181 182//182
f 168//168 182//182 139//139
f 177//177 178//178 183//183
f 177//177 183//183 145//145
f 145//145 183//183 154//154
f 20//20 23//23 181//181
f 20//20 167//167 156//156
f 20//20 156//156 21//21
f 20//20 181//181 167//167
f 157//157 93//93 184//184
f 157//157 184//184 116//116
f 158//158 49//49 58//58
f 158//158 58//58 93//93
f 49//49 179//179 162//162
f 49//49 162//162 137//137
f 49//49 137//137 57//57
f 93//93 58//58 184//184
f 160//160 162//162 185//185
f 160//160 186//186 187//187
f 160//160 185//185 186//186
f 160//160 187//187 161//161
f 22//22 13//13 188//188
f 22//22 188//188 23//23
f 23//23 188//188 182//182
f 23//23 182//182 181//181
f 164//164 163//163 189//189
f 164//164 190//190 132//132
f 164//164 189//189 190//190
f 132//132 190//190 13//13
f 13//13 73//73 182//182
f 13//13 190//190 73//73
f 13//13 182//182 188//188
f 163//163 108//108 189//189
f 116//116 184//184 134//134
f 165//165 166//166 191//191
f 165//165 191//191 192//192
f 165//165 192//192 108//108
f 166//166 161//161 187//187
f 166//166 193//193 191//191
f 166//166 187//187 193//193
f 108//108 192//192 189//189
f 72//72 175//175 169//169
f 72//72 75//75 194//194
f 72//72 194//194 175//175
f 67//67 139//139 73//73
f 169//169 175//175 170//170
f 176//176 175//175 194//194
f 176//176 194//194 173//173
f 173//173 194//194 195//195
f 173//173 195//195 178//178
f 179//179 180//180 126//126
f 179//179 126//126 162//162
f 125//125 127//127 126//126
f 124//124 151//151 155//155
f 124//124 186//186 185//185
f 124//124 185//185 196//196
f 124//124 197//197 186//186
f 124//124 196//196 126//126
f 124//124 155//155 197//197
f 198//198 199//199 200//200
f 198//198 178//178 195//195
f 198//198 200//200 178//178
f 198//198 76//76 199//199
f 198//198 195//195 76//76
f 73//73 199//199 76//76
f 73//73 201//201 199//199
f 73//73 190//190 202//202
f 73//73 139//139 182//182
f 73//73 202//202 201//201
f 73//73 76//76 74//74
f 199//199 201//201 200//200
f 178//178 200//200 154//154
f 178//178 154//154 183//183
f 201//201 202//202 203//203
f 201//201 203//203 204//204
f 201//201 205//205 154//154
f 201//201 154//154 200//200
f 201//201 204//204 205//205
f 184//184 58//58 134//134
f 162//162 126//126 185//185
f 58//58 56//56 134//134
f 186//186 197//197 187//187
f 185//185 126//126 196//196
f 190//190 189//189 206//206
f 190//190 206//206 202//202
f 189//189 192//192 204//204
f 189//189 204//204 206//206
f 191//191 193//193 205//205
f 191//191 205//205 204//204
f 191//191 204//204 192//192
f 193//193 187//187 155//155
f 193//193 154//154 205//205
f 193//193 155//155 154//154
f 187//187 197//197 155//155
f 75//75 76//76 195//195
f 75//75 195//195 194//194
f 202//202 206//206 203//203
f 206//206 204//204 203//203
# 408 faces, 0 coords texture

# End of File
