####
#
# OBJ File Generated by Meshlab
#
####
# Object matlab_mesh_step20_link2.obj
#
# Vertices: 164
# Faces: 324
#
####
vn -0.472122 -1.350823 6.117851
v 0.116878 0.226693 0.890189
vn 2.596851 -1.543248 3.480889
v 0.117496 0.226477 0.890189
vn -0.388139 -0.579697 6.184986
v -0.025851 0.280392 0.891009
vn -3.015995 -0.138252 4.423661
v -0.096131 0.066266 0.836413
vn -3.161766 -0.257522 3.691291
v -0.097314 0.062661 0.835493
vn 3.209581 -0.218739 2.683750
v 0.117585 0.226693 0.890189
vn 0.114580 -0.310544 6.256531
v 0.110743 0.236234 0.891008
vn -0.121674 -0.372897 6.258601
v 0.097521 0.239898 0.891009
vn -0.117107 -0.390721 6.261345
v 0.099921 0.239150 0.891008
vn 1.748831 -2.833433 2.013469
v 0.039021 0.017683 0.835159
vn 2.279710 -2.132827 4.221778
v 0.039281 0.018517 0.835492
vn -0.583415 -1.777956 5.985390
v -0.090306 0.060361 0.835493
vn -0.569574 -1.784555 5.984139
v 0.026056 0.022178 0.835493
vn -0.522941 -1.803792 5.981894
v 0.028431 0.021439 0.835492
vn 5.786911 0.052444 0.656830
v 0.117617 0.226771 0.889911
vn 5.703130 2.313872 1.262261
v 0.112102 0.240358 0.890078
vn 5.509520 2.641996 1.382167
v 0.112095 0.240371 0.890083
vn 2.793882 1.231903 3.816710
v 0.111990 0.240033 0.891008
vn 5.797931 0.042242 0.627237
v 0.117662 0.226881 0.889485
vn 4.661185 0.758039 -0.711762
v 0.129879 0.256602 0.774550
vn 5.052001 3.174833 -0.165789
v 0.121687 0.269550 0.763226
vn 4.953494 3.457511 1.507419
v 0.112089 0.240380 0.890087
vn 4.769585 -0.228900 -4.053276
v 0.121416 0.268723 0.762876
vn 4.433950 2.278359 -1.237831
v 0.121678 0.269564 0.763212
vn 1.434814 -2.078788 -2.270699
v 0.048705 0.047211 0.707348
vn 2.833167 -0.527766 -3.640326
v 0.049954 0.051018 0.707348
vn 2.124757 -3.954086 -1.104239
v 0.048601 0.046876 0.708265
vn 5.433513 -3.010953 -0.282494
v 0.047775 0.044360 0.719201
vn 1.797547 5.888659 1.056601
v 0.015232 0.303688 0.774524
vn 1.483122 5.955880 1.335002
v -0.013871 0.313390 0.763622
vn 1.447252 5.813821 1.834047
v -0.024498 0.284532 0.890088
vn 1.516020 5.966335 1.228190
v -0.014007 0.313436 0.763567
vn 1.678446 5.986838 0.896755
v -0.003978 0.310768 0.763290
vn 1.739719 5.988211 0.726532
v -0.004009 0.310780 0.763265
vn 1.909134 5.965278 0.488385
v -0.001588 0.310026 0.763264
vn 1.700308 5.757683 1.815238
v -0.013664 0.281613 0.890088
vn 1.827145 5.691176 1.899445
v -0.011272 0.280867 0.890087
vn 2.319193 5.467667 1.892898
v 0.112076 0.240389 0.890093
vn 2.622494 3.016568 -1.823534
v 0.121662 0.269580 0.763197
vn 2.239184 5.676792 1.475035
v 0.112902 0.242906 0.879152
vn -1.186086 -5.956352 -0.981861
v 0.032431 0.019537 0.827632
vn -0.844315 -6.090601 -0.696920
v 0.038995 0.017686 0.835127
vn -1.732041 -6.017641 0.218942
v 0.028193 0.020598 0.835148
vn -1.921780 -5.974812 -0.007821
v 0.025792 0.021346 0.835149
vn -2.353749 -1.858287 1.431052
v -0.097573 0.061831 0.835161
vn 1.750193 -4.642718 -1.092675
v 0.048600 0.046875 0.708270
vn -1.821984 -5.692758 -1.896611
v 0.035374 0.050541 0.708266
vn -1.667418 -5.735947 -1.897598
v 0.037757 0.049798 0.708265
vn -3.845707 -2.034826 -0.973424
v -0.087994 0.091024 0.708263
vn -4.116306 -2.854061 -0.967335
v -0.088820 0.088507 0.719203
vn 1.510397 5.970028 1.213772
v -0.014135 0.313479 0.763516
vn 1.503851 5.974615 1.193584
v -0.014253 0.313518 0.763469
vn 1.496461 5.979310 1.173485
v -0.014361 0.313554 0.763426
vn 1.487794 5.984837 1.147545
v -0.014461 0.313586 0.763386
vn 1.477150 5.991290 1.115813
v -0.014551 0.313616 0.763350
vn 1.745095 6.002169 0.574202
v -0.004035 0.310790 0.763244
vn 1.464629 5.998411 1.078292
v -0.014631 0.313641 0.763318
vn 1.447595 6.007186 1.025897
v -0.014702 0.313664 0.763290
vn 0.356316 5.879791 1.741277
v -0.024512 0.284534 0.890092
vn 1.426092 6.016825 0.961990
v -0.014764 0.313683 0.763265
vn 1.747890 6.016608 0.338729
v -0.004056 0.310798 0.763227
vn 1.395423 6.027594 0.866495
v -0.014816 0.313698 0.763244
vn 1.910954 5.970707 0.384091
v -0.001620 0.310038 0.763243
vn 1.695830 3.609287 -2.771343
v 0.121656 0.269582 0.763194
vn -0.594294 -6.059029 -0.511906
v 0.039006 0.017683 0.835139
vn 1.346900 6.037634 0.723423
v -0.014859 0.313711 0.763227
vn 1.747486 6.020766 -0.049861
v -0.004072 0.310803 0.763214
vn 1.913225 5.978348 0.153808
v -0.001648 0.310047 0.763226
vn -0.033110 -5.896108 -0.127795
v 0.039014 0.017682 0.835148
vn 1.257990 6.034976 0.465348
v -0.014893 0.313720 0.763214
vn 1.910561 5.970639 -0.242451
v -0.001671 0.310055 0.763212
vn 3.637664 4.615446 1.689484
v 0.112082 0.240386 0.890090
vn 4.283594 0.088867 -4.520048
v 0.121409 0.268736 0.762867
vn 4.113085 -0.147229 -4.716293
v 0.120227 0.265135 0.761949
vn -1.874669 -5.842880 1.054952
v 0.025792 0.021347 0.835156
vn -1.686245 -5.815219 1.328704
v 0.028184 0.020601 0.835155
vn 2.824609 -4.936577 -0.922533
v 0.047775 0.044361 0.719197
vn 1.278966 -4.816248 0.674855
v 0.039019 0.017682 0.835155
vn 1.720275 5.942387 -0.838840
v -0.004083 0.310806 0.763204
vn 1.041379 5.942743 -0.071340
v -0.014917 0.313725 0.763204
vn 1.877161 5.868019 -1.042144
v -0.001690 0.310060 0.763203
vn 3.787095 2.614798 -1.441702
v 0.121670 0.269574 0.763203
vn 2.540864 1.725072 3.837593
v 0.111984 0.240044 0.891008
vn -0.015325 -0.031632 6.282956
v -0.025828 0.280389 0.891009
vn -0.011837 -0.036061 6.282956
v -0.018836 0.278094 0.891009
vn 0.041873 0.170971 6.278113
v -0.024581 0.284189 0.891009
vn 0.598664 2.806956 4.244465
v -0.024603 0.284196 0.891009
vn 0.046428 0.144767 6.279504
v -0.013759 0.281272 0.891009
vn -0.009628 -0.038692 6.282926
v 0.108343 0.236981 0.891009
vn 0.006657 0.020279 6.283113
v 0.102598 0.243076 0.891009
vn 0.007962 0.019653 6.283110
v 0.109590 0.240781 0.891009
vn 0.866931 2.825122 4.472490
v -0.013768 0.281276 0.891009
vn 0.041019 0.123057 6.281230
v 0.109592 0.240790 0.891009
vn 0.132924 0.405223 6.264862
v -0.011359 0.280524 0.891008
vn 0.059087 0.180031 6.280294
v 0.102592 0.243087 0.891009
vn 0.992651 3.061793 4.245856
v -0.011376 0.280531 0.891008
vn 0.261424 0.796537 6.210437
v 0.104984 0.242342 0.891008
vn 2.755525 0.498731 -5.502381
v 0.120220 0.265142 0.761944
vn 2.970482 0.760371 -5.283782
v 0.121402 0.268746 0.762863
vn -1.375784 -4.297327 3.669090
v 0.025794 0.021347 0.835160
vn -1.239203 -4.199438 3.780408
v 0.028177 0.020605 0.835159
vn 1.435348 5.037847 -2.919243
v -0.004089 0.310806 0.763198
vn -0.117831 6.076777 1.389143
v -0.023686 0.287050 0.879156
vn 0.109240 4.934474 -1.372127
v -0.014932 0.313727 0.763198
vn 1.583917 4.967748 -3.017676
v -0.001705 0.310063 0.763197
vn 1.523259 5.396878 2.757418
v -0.013772 0.281278 0.891008
vn -0.406210 2.850663 3.850517
v -0.024616 0.284200 0.891008
vn 1.619191 5.696645 2.082940
v -0.013668 0.281613 0.890092
vn 1.765077 5.622986 2.176620
v -0.011285 0.280870 0.890090
vn 1.969254 4.825464 3.149772
v 0.111973 0.240056 0.891005
vn 1.726902 5.489902 2.503279
v -0.011389 0.280535 0.891007
vn 3.151219 5.200459 1.434341
v 0.112908 0.242902 0.879154
vn 2.202846 2.867590 3.755679
v 0.111979 0.240052 0.891007
vn -1.565235 -0.177026 5.822605
v -0.025865 0.280392 0.891008
vn 1.373423 4.185194 4.479598
v 0.104973 0.242351 0.891007
vn -2.711380 0.124440 -3.670543
v -0.087890 0.091359 0.707350
vn -0.468926 -1.428972 -5.954818
v -0.080884 0.089060 0.707350
vn -2.928900 -1.278223 -2.006501
v -0.087891 0.091357 0.707351
vn -2.532814 1.331638 -3.883665
v -0.086640 0.095166 0.707350
vn -0.034751 -0.103224 -6.281278
v -0.085506 0.090616 0.707348
vn -5.803351 1.988998 -1.063142
v -0.086641 0.095166 0.707351
vn -6.023190 1.785292 -0.037434
v -0.097470 0.062166 0.834243
vn -4.498625 -1.599575 -0.325981
v -0.097573 0.061831 0.835160
vn -5.983815 1.915509 0.005819
v -0.097210 0.063000 0.834577
vn -5.974793 1.936238 -0.113538
v -0.087632 0.092187 0.707683
vn -0.929863 -2.903602 -4.248491
v 0.035478 0.050875 0.707350
vn -0.034142 -0.104043 -6.281276
v -0.078500 0.088317 0.707348
vn -0.821860 -2.830165 -4.228950
v 0.037861 0.050133 0.707348
vn -1.744571 -5.316524 -2.791644
v -0.080882 0.089057 0.707351
vn 0.218725 0.760161 -6.192405
v -0.075797 0.092245 0.707350
vn 0.010140 0.040773 -6.282898
v -0.084257 0.094424 0.707348
vn -2.749646 1.765175 -3.384410
v -0.016379 0.309291 0.761944
vn 0.411189 1.421999 -6.106269
v -0.005531 0.306368 0.761944
vn 0.225716 0.708559 -6.193899
v -0.073413 0.091502 0.707348
vn 0.449122 1.409610 -6.106517
v -0.003157 0.305629 0.761943
vn 0.230630 0.702798 -6.194868
v 0.042948 0.053317 0.707348
vn 0.461246 1.405638 -6.106542
v 0.113205 0.267446 0.761943
vn 1.117324 1.170980 -6.030549
v 0.120214 0.265146 0.761943
vn 1.364128 1.531143 -5.831452
v 0.121397 0.268752 0.762862
vn -5.735015 1.477304 1.435517
v -0.097313 0.062665 0.835494
vn -1.841861 -5.613014 -2.137151
v -0.080985 0.088724 0.708263
vn -0.799532 -2.528830 5.677061
v 0.025798 0.021348 0.835161
vn -1.038248 -3.164034 5.168984
v -0.090564 0.059531 0.835161
vn -0.749757 -2.508520 5.694625
v 0.028172 0.020609 0.835160
vn -0.392903 -2.342565 5.804855
v 0.039020 0.017686 0.835160
vn -5.970554 1.957053 0.020449
v -0.025767 0.280724 0.890094
vn -5.969992 1.958982 0.000006
v -0.024941 0.283241 0.879154
vn -5.969989 1.958993 -0.000097
v -0.016187 0.309917 0.763196
vn -5.969991 1.958987 -0.000121
v -0.017370 0.306312 0.762276
vn -3.432531 4.017102 0.665046
v -0.023691 0.287050 0.879154
vn -3.126105 3.962624 0.954729
v -0.024517 0.284533 0.890094
vn 0.919130 3.181150 -5.179653
v -0.004090 0.310804 0.763196
vn -1.718930 2.706481 -1.697781
v -0.014937 0.313726 0.763196
vn 1.006516 3.197393 -5.143445
v -0.001715 0.310064 0.763194
vn -2.661738 2.678710 2.212598
v -0.024620 0.284200 0.891006
vn 1.163004 3.544228 -4.685378
v 0.114647 0.271882 0.763194
vn -4.093045 0.842648 2.942871
v -0.025870 0.280391 0.891006
vn -0.459521 -2.060999 5.912405
v 0.039279 0.018516 0.835492
vn -2.580128 1.905970 -3.328581
v -0.015196 0.312896 0.762863
vn 0.518813 1.792398 -5.984818
v -0.004348 0.309974 0.762863
vn -5.927320 2.029487 -0.331540
v -0.016120 0.310121 0.762276
vn 0.566015 1.774802 -5.986653
v -0.001974 0.309234 0.762862
vn -5.928306 2.026386 -0.332318
v -0.086382 0.095996 0.707683
vn 0.580352 1.768623 -5.987784
v 0.114388 0.271052 0.762862
# 164 vertices, 0 vertices normals

f 1//1 2//2 3//3
f 1//1 3//3 4//4
f 1//1 4//4 5//5
f 1//1 5//5 2//2
f 2//2 6//6 7//7
f 2//2 8//8 3//3
f 2//2 9//9 8//8
f 2//2 7//7 9//9
f 2//2 10//10 6//6
f 2//2 11//11 10//10
f 2//2 5//5 12//12
f 2//2 12//12 13//13
f 2//2 13//13 14//14
f 2//2 14//14 11//11
f 6//6 15//15 16//16
f 6//6 16//16 17//17
f 6//6 17//17 18//18
f 6//6 18//18 7//7
f 6//6 10//10 15//15
f 19//19 20//20 16//16
f 19//19 15//15 10//10
f 19//19 16//16 15//15
f 19//19 10//10 20//20
f 20//20 21//21 22//22
f 20//20 23//23 24//24
f 20//20 24//24 21//21
f 20//20 17//17 16//16
f 20//20 22//22 17//17
f 20//20 25//25 26//26
f 20//20 26//26 23//23
f 20//20 27//27 25//25
f 20//20 10//10 28//28
f 20//20 28//28 27//27
f 29//29 30//30 31//31
f 29//29 32//32 30//30
f 29//29 33//33 32//32
f 29//29 34//34 33//33
f 29//29 35//35 34//34
f 29//29 31//31 36//36
f 29//29 36//36 37//37
f 29//29 37//37 38//38
f 29//29 39//39 35//35
f 29//29 40//40 39//39
f 29//29 38//38 40//40
f 41//41 42//42 43//43
f 41//41 44//44 45//45
f 41//41 43//43 44//44
f 41//41 46//46 42//42
f 41//41 47//47 48//48
f 41//41 48//48 46//46
f 41//41 49//49 47//47
f 41//41 45//45 50//50
f 41//41 50//50 49//49
f 30//30 32//32 31//31
f 32//32 51//51 31//31
f 32//32 33//33 51//51
f 51//51 52//52 31//31
f 51//51 33//33 52//52
f 52//52 53//53 31//31
f 52//52 33//33 34//34
f 52//52 34//34 53//53
f 53//53 54//54 31//31
f 53//53 34//34 54//54
f 54//54 55//55 31//31
f 54//54 34//34 56//56
f 54//54 56//56 55//55
f 55//55 57//57 31//31
f 55//55 56//56 57//57
f 57//57 58//58 59//59
f 57//57 56//56 58//58
f 57//57 59//59 31//31
f 58//58 60//60 59//59
f 58//58 56//56 61//61
f 58//58 61//61 60//60
f 60//60 62//62 59//59
f 60//60 61//61 62//62
f 34//34 35//35 63//63
f 34//34 63//63 56//56
f 35//35 39//39 64//64
f 35//35 64//64 63//63
f 42//42 65//65 43//43
f 42//42 46//46 65//65
f 62//62 66//66 59//59
f 62//62 61//61 67//67
f 62//62 67//67 66//66
f 56//56 63//63 68//68
f 56//56 68//68 61//61
f 63//63 64//64 68//68
f 65//65 69//69 43//43
f 65//65 46//46 69//69
f 66//66 70//70 59//59
f 66//66 67//67 70//70
f 61//61 68//68 71//71
f 61//61 71//71 67//67
f 68//68 64//64 71//71
f 21//21 24//24 72//72
f 21//21 72//72 22//22
f 23//23 73//73 24//24
f 23//23 74//74 73//73
f 23//23 26//26 74//74
f 44//44 43//43 75//75
f 44//44 75//75 45//45
f 43//43 69//69 76//76
f 43//43 76//76 75//75
f 69//69 46//46 77//77
f 69//69 78//78 76//76
f 69//69 77//77 78//78
f 70//70 67//67 79//79
f 70//70 80//80 59//59
f 70//70 79//79 80//80
f 67//67 71//71 81//81
f 67//67 81//81 79//79
f 71//71 64//64 81//81
f 24//24 73//73 82//82
f 24//24 82//82 72//72
f 17//17 22//22 83//83
f 17//17 83//83 18//18
f 84//84 85//85 86//86
f 84//84 86//86 87//87
f 84//84 3//3 85//85
f 84//84 87//87 3//3
f 85//85 8//8 88//88
f 85//85 88//88 86//86
f 85//85 3//3 8//8
f 8//8 89//89 90//90
f 8//8 90//90 88//88
f 8//8 9//9 89//89
f 89//89 91//91 90//90
f 89//89 9//9 7//7
f 89//89 7//7 91//91
f 86//86 88//88 92//92
f 86//86 92//92 87//87
f 88//88 90//90 93//93
f 88//88 94//94 92//92
f 88//88 95//95 94//94
f 88//88 93//93 95//95
f 90//90 91//91 93//93
f 91//91 7//7 18//18
f 91//91 18//18 93//93
f 94//94 95//95 93//93
f 94//94 93//93 83//83
f 94//94 96//96 92//92
f 94//94 97//97 96//96
f 94//94 83//83 97//97
f 18//18 83//83 93//93
f 73//73 74//74 98//98
f 73//73 99//99 39//39
f 73//73 98//98 99//99
f 73//73 39//39 82//82
f 74//74 26//26 98//98
f 75//75 76//76 100//100
f 75//75 100//100 45//45
f 46//46 48//48 27//27
f 46//46 27//27 28//28
f 46//46 28//28 77//77
f 76//76 78//78 101//101
f 76//76 101//101 100//100
f 78//78 77//77 10//10
f 78//78 10//10 101//101
f 77//77 28//28 10//10
f 80//80 79//79 102//102
f 80//80 103//103 59//59
f 80//80 104//104 103//103
f 80//80 102//102 104//104
f 79//79 81//81 105//105
f 79//79 105//105 102//102
f 31//31 87//87 106//106
f 31//31 59//59 107//107
f 31//31 108//108 36//36
f 31//31 107//107 87//87
f 31//31 106//106 108//108
f 36//36 108//108 109//109
f 36//36 109//109 37//37
f 81//81 64//64 105//105
f 37//37 96//96 110//110
f 37//37 109//109 111//111
f 37//37 111//111 96//96
f 37//37 110//110 38//38
f 82//82 112//112 72//72
f 82//82 39//39 112//112
f 22//22 72//72 113//113
f 22//22 113//113 83//83
f 3//3 87//87 107//107
f 3//3 114//114 4//4
f 3//3 107//107 114//114
f 87//87 92//92 106//106
f 92//92 96//96 111//111
f 92//92 111//111 106//106
f 96//96 97//97 113//113
f 96//96 115//115 110//110
f 96//96 113//113 115//115
f 97//97 83//83 113//113
f 116//116 117//117 118//118
f 116//116 119//119 120//120
f 116//116 120//120 117//117
f 116//116 118//118 121//121
f 116//116 121//121 119//119
f 122//122 123//123 124//124
f 122//122 124//124 125//125
f 122//122 118//118 123//123
f 122//122 125//125 118//118
f 117//117 126//126 118//118
f 117//117 120//120 127//127
f 117//117 127//127 126//126
f 126//126 127//127 128//128
f 126//126 128//128 47//47
f 126//126 47//47 129//129
f 126//126 129//129 118//118
f 119//119 130//130 131//131
f 119//119 131//131 120//120
f 119//119 132//132 133//133
f 119//119 133//133 130//130
f 119//119 121//121 132//132
f 130//130 134//134 131//131
f 130//130 133//133 135//135
f 130//130 135//135 134//134
f 120//120 131//131 127//127
f 127//127 131//131 134//134
f 127//127 134//134 128//128
f 128//128 25//25 27//27
f 128//128 134//134 136//136
f 128//128 136//136 25//25
f 128//128 48//48 47//47
f 128//128 27//27 48//48
f 25//25 136//136 26//26
f 134//134 135//135 137//137
f 134//134 137//137 138//138
f 134//134 138//138 136//136
f 136//136 138//138 26//26
f 99//99 98//98 139//139
f 99//99 139//139 64//64
f 99//99 64//64 39//39
f 98//98 26//26 138//138
f 98//98 138//138 139//139
f 123//123 140//140 124//124
f 123//123 118//118 49//49
f 123//123 49//49 50//50
f 123//123 45//45 140//140
f 123//123 50//50 45//45
f 47//47 49//49 141//141
f 47//47 141//141 129//129
f 100//100 101//101 142//142
f 100//100 143//143 45//45
f 100//100 142//142 143//143
f 101//101 10//10 144//144
f 101//101 144//144 142//142
f 10//10 11//11 145//145
f 10//10 145//145 144//144
f 124//124 140//140 146//146
f 124//124 147//147 148//148
f 124//124 148//148 149//149
f 124//124 146//146 147//147
f 124//124 149//149 125//125
f 103//103 104//104 150//150
f 103//103 150//150 151//151
f 103//103 151//151 59//59
f 104//104 102//102 152//152
f 104//104 153//153 150//150
f 104//104 152//152 153//153
f 102//102 105//105 154//154
f 102//102 154//154 152//152
f 59//59 151//151 155//155
f 59//59 155//155 107//107
f 108//108 106//106 109//109
f 105//105 156//156 154//154
f 105//105 64//64 156//156
f 109//109 106//106 111//111
f 112//112 39//39 38//38
f 112//112 38//38 72//72
f 39//39 40//40 38//38
f 72//72 38//38 110//110
f 72//72 110//110 113//113
f 114//114 107//107 155//155
f 114//114 157//157 4//4
f 114//114 155//155 157//157
f 140//140 45//45 5//5
f 140//140 157//157 146//146
f 140//140 4//4 157//157
f 140//140 5//5 4//4
f 11//11 14//14 158//158
f 11//11 158//158 145//145
f 115//115 113//113 110//110
f 118//118 129//129 49//49
f 118//118 125//125 121//121
f 129//129 141//141 49//49
f 159//159 160//160 133//133
f 159//159 132//132 161//161
f 159//159 133//133 132//132
f 159//159 153//153 160//160
f 159//159 161//161 153//153
f 160//160 162//162 135//135
f 160//160 135//135 133//133
f 160//160 153//153 152//152
f 160//160 152//152 154//154
f 160//160 154//154 162//162
f 132//132 121//121 163//163
f 132//132 163//163 161//161
f 121//121 125//125 163//163
f 162//162 164//164 137//137
f 162//162 137//137 135//135
f 162//162 154//154 164//164
f 164//164 139//139 137//137
f 164//164 154//154 156//156
f 164//164 156//156 64//64
f 164//164 64//64 139//139
f 137//137 139//139 138//138
f 45//45 143//143 5//5
f 143//143 142//142 12//12
f 143//143 12//12 5//5
f 142//142 144//144 13//13
f 142//142 13//13 12//12
f 144//144 145//145 14//14
f 144//144 14//14 13//13
f 145//145 158//158 14//14
f 147//147 146//146 151//151
f 147//147 150//150 148//148
f 147//147 151//151 150//150
f 148//148 150//150 153//153
f 148//148 153//153 161//161
f 148//148 161//161 149//149
f 146//146 157//157 155//155
f 146//146 155//155 151//151
f 149//149 161//161 163//163
f 149//149 163//163 125//125
# 324 faces, 0 coords texture

# End of File
