####
#
# OBJ File Generated by Meshlab
#
####
# Object step_4_link_7.obj
#
# Vertices: 86
# Faces: 168
#
####
vn 0.297104 0.089140 6.262571
v 0.483697 -0.180311 0.529887
vn 0.917717 0.268550 6.111450
v 0.494221 -0.155067 0.528741
vn -2.873231 0.797387 4.082618
v 0.381374 -0.155067 0.528741
vn 0.547999 -1.964005 5.376957
v 0.483697 -0.286722 0.529887
vn 3.020942 -0.934937 4.448823
v 0.494221 -0.266906 0.528741
vn -1.637069 0.311705 5.778242
v 0.377474 -0.180311 0.529887
vn 3.550748 0.065184 4.624076
v 0.495301 -0.152994 0.528385
vn 1.124670 0.448108 6.046625
v 0.495289 -0.151659 0.528355
vn -1.248933 1.049321 5.915573
v 0.382346 -0.151659 0.528355
vn 3.829361 -0.373078 4.227044
v 0.495301 -0.263465 0.528385
vn 1.844679 0.535522 5.606165
v 0.495318 -0.151545 0.528340
vn 2.692724 0.674835 4.547239
v 0.495337 -0.151456 0.528324
vn 5.493320 -0.009712 3.044751
v 0.495337 -0.262255 0.528324
vn -2.175683 1.540034 5.037905
v 0.382376 -0.151545 0.528340
vn -2.788045 1.930045 3.132649
v 0.382406 -0.151456 0.528324
vn 2.735972 1.112091 4.283123
v 0.495346 -0.151391 0.528308
vn -2.687158 2.318031 2.886279
v 0.382436 -0.151391 0.528308
vn 5.576977 -0.006609 2.892909
v 0.495346 -0.262176 0.528308
vn 2.611871 2.058437 4.035605
v 0.495347 -0.151347 0.528291
vn -2.398081 3.067934 2.710251
v 0.382465 -0.151347 0.528291
vn 4.760915 2.021230 1.270594
v 0.617138 -0.128137 0.286460
vn 2.204608 3.457706 3.477558
v 0.495342 -0.151320 0.528274
vn -1.907950 4.066711 2.381275
v 0.382492 -0.151320 0.528274
vn 1.230375 5.130132 2.348850
v 0.495334 -0.151308 0.528259
vn -1.162369 5.262914 1.752099
v 0.382515 -0.151308 0.528259
vn 3.855354 4.608043 1.346725
v 0.616326 -0.127258 0.286021
vn 0.183876 6.187708 0.963886
v 0.495324 -0.151305 0.528246
vn -0.223582 6.195526 0.856477
v 0.382535 -0.151305 0.528246
vn 2.276083 5.152466 0.540380
v 0.616307 -0.127236 0.285996
vn -1.145802 6.030600 0.207483
v 0.440114 -0.127236 0.285996
vn 0.411802 -5.041915 2.735017
v 0.480342 -0.288695 0.528303
vn 2.190086 -2.851140 3.376717
v 0.484820 -0.287022 0.529523
vn -1.080098 -1.650643 5.197963
v 0.377474 -0.286722 0.529887
vn -1.400617 -4.616724 2.006341
v 0.378909 -0.288695 0.528303
vn -0.769921 -6.133555 0.318394
v 0.445096 -0.321692 0.279812
vn 2.832063 -4.922680 0.839141
v 0.599661 -0.321401 0.279673
vn 0.686255 -6.119603 0.605768
v 0.598112 -0.321692 0.279812
vn 4.535696 -3.921418 1.291375
v 0.615520 -0.303703 0.284955
vn 4.644288 -3.572568 2.038791
v 0.616802 -0.301619 0.286266
vn 5.318834 -1.402352 1.509949
v 0.617138 -0.300986 0.286460
vn -4.566296 0.372616 2.622501
v 0.376805 -0.180639 0.529523
vn -6.191956 1.056555 0.091088
v 0.376976 -0.179584 0.529129
vn -6.163163 0.457935 -0.575139
v 0.376805 -0.180639 0.424598
vn -5.974156 1.245683 0.977629
v 0.381343 -0.154422 0.528269
vn -2.994762 -1.814911 2.067846
v 0.376805 -0.287022 0.529523
vn -6.183797 1.020978 -0.301838
v 0.376976 -0.179584 0.424592
vn -4.195638 1.656901 2.616652
v 0.381690 -0.152994 0.528385
vn -6.115736 1.172278 -0.506689
v 0.381343 -0.154422 0.421675
vn -5.863624 1.919906 -0.517551
v 0.381690 -0.152994 0.421258
vn -5.424258 3.051676 -0.393288
v 0.382436 -0.151391 0.421177
vn -4.805013 3.941950 -0.292256
v 0.382465 -0.151347 0.421188
vn -3.717048 4.964877 -0.140056
v 0.382492 -0.151320 0.421201
vn -2.717210 5.655596 -0.025908
v 0.382515 -0.151308 0.421213
vn -2.257559 1.585159 -2.418824
v 0.438559 -0.128137 0.121352
vn -4.952198 -2.340707 -0.420292
v 0.376805 -0.287022 0.424598
vn -2.869842 -0.623577 -3.537444
v 0.438559 -0.300986 0.121352
vn -5.663605 2.644883 -0.503285
v 0.382406 -0.151456 0.421168
vn -1.499720 5.823696 -0.443290
v 0.440114 -0.127236 0.122106
vn -3.370466 -5.261235 -0.040581
v 0.378909 -0.288695 0.427352
vn -2.203832 -5.844724 0.094723
v 0.444040 -0.321401 0.279673
vn -2.929918 -3.412915 -1.921788
v 0.444040 -0.321401 0.129627
vn -5.488719 -1.846731 -1.963549
v 0.438550 -0.301673 0.121926
vn 2.520243 1.206876 -2.360121
v 0.617138 -0.128137 0.121352
vn 2.214061 5.144678 -0.618465
v 0.616307 -0.127236 0.122106
vn 0.115106 6.276868 0.106363
v 0.616280 -0.127235 0.285967
vn -0.075026 6.278522 0.114325
v 0.440152 -0.127235 0.285967
vn 0.118349 6.277559 -0.090240
v 0.616280 -0.127235 0.122139
vn 0.520810 3.862379 -3.259945
v 0.615882 -0.127298 0.121585
vn 3.323224 4.790198 -1.564096
v 0.616326 -0.127258 0.122074
vn 2.847392 -0.759781 -2.773918
v 0.617138 -0.300986 0.121352
vn -0.657607 3.860246 -3.073448
v 0.440219 -0.127298 0.121585
vn -0.077264 6.279253 -0.097244
v 0.440152 -0.127235 0.122139
vn 2.308274 -4.277113 -1.848442
v 0.599661 -0.321401 0.129627
vn 4.805988 -3.968462 0.336571
v 0.615265 -0.304096 0.284328
vn 0.453486 -4.210818 -2.743857
v 0.598112 -0.321692 0.129333
vn 5.316746 -2.974636 0.609812
v 0.616910 -0.301673 0.285760
vn 4.705522 -4.018280 -0.547490
v 0.615265 -0.304096 0.123000
vn 5.305993 -2.947367 -0.698859
v 0.616910 -0.301673 0.121926
vn 1.857265 -3.344629 -4.397835
v 0.613728 -0.305415 0.122907
vn 3.876419 -3.716890 -2.202421
v 0.615520 -0.303703 0.122519
vn 0.176187 -2.392040 -5.799216
v 0.612639 -0.305909 0.123062
vn -0.760239 -4.021747 -2.684765
v 0.445096 -0.321692 0.129333
vn -0.376542 -2.349046 -5.797658
v 0.440856 -0.305909 0.123062
vn 2.433960 -2.426493 -3.761361
v 0.616802 -0.301619 0.121485
vn -2.325707 -2.034735 -4.538180
v 0.438795 -0.301619 0.121485
vn -2.725645 5.576902 -0.843413
v 0.440078 -0.127258 0.122074
# 86 vertices, 0 vertices normals

f 1//1 2//2 3//3
f 1//1 4//4 5//5
f 1//1 5//5 2//2
f 1//1 6//6 4//4
f 1//1 3//3 6//6
f 2//2 7//7 8//8
f 2//2 8//8 9//9
f 2//2 5//5 10//10
f 2//2 10//10 7//7
f 2//2 9//9 3//3
f 7//7 11//11 8//8
f 7//7 12//12 11//11
f 7//7 10//10 13//13
f 7//7 13//13 12//12
f 8//8 11//11 14//14
f 8//8 14//14 9//9
f 11//11 12//12 15//15
f 11//11 15//15 14//14
f 12//12 16//16 17//17
f 12//12 13//13 18//18
f 12//12 18//18 16//16
f 12//12 17//17 15//15
f 16//16 19//19 20//20
f 16//16 18//18 21//21
f 16//16 20//20 17//17
f 16//16 21//21 19//19
f 19//19 22//22 23//23
f 19//19 23//23 20//20
f 19//19 21//21 22//22
f 22//22 24//24 25//25
f 22//22 25//25 23//23
f 22//22 21//21 26//26
f 22//22 26//26 24//24
f 24//24 27//27 28//28
f 24//24 28//28 25//25
f 24//24 26//26 29//29
f 24//24 29//29 27//27
f 27//27 29//29 30//30
f 27//27 30//30 28//28
f 31//31 32//32 4//4
f 31//31 4//4 33//33
f 31//31 34//34 35//35
f 31//31 33//33 34//34
f 31//31 36//36 32//32
f 31//31 37//37 36//36
f 31//31 35//35 37//37
f 32//32 5//5 4//4
f 32//32 36//36 38//38
f 32//32 38//38 39//39
f 32//32 39//39 40//40
f 32//32 40//40 5//5
f 4//4 6//6 33//33
f 5//5 40//40 10//10
f 10//10 18//18 13//13
f 10//10 40//40 18//18
f 18//18 40//40 21//21
f 41//41 6//6 3//3
f 41//41 42//42 43//43
f 41//41 3//3 44//44
f 41//41 44//44 42//42
f 41//41 43//43 45//45
f 41//41 45//45 33//33
f 41//41 33//33 6//6
f 42//42 44//44 46//46
f 42//42 46//46 43//43
f 3//3 47//47 44//44
f 3//3 9//9 47//47
f 44//44 47//47 48//48
f 44//44 48//48 46//46
f 47//47 9//9 14//14
f 47//47 14//14 15//15
f 47//47 15//15 17//17
f 47//47 17//17 49//49
f 47//47 49//49 48//48
f 17//17 20//20 50//50
f 17//17 50//50 49//49
f 20//20 23//23 51//51
f 20//20 51//51 50//50
f 23//23 25//25 52//52
f 23//23 52//52 51//51
f 25//25 28//28 30//30
f 25//25 53//53 52//52
f 25//25 30//30 53//53
f 43//43 46//46 48//48
f 43//43 48//48 54//54
f 43//43 55//55 45//45
f 43//43 54//54 56//56
f 43//43 56//56 55//55
f 48//48 49//49 54//54
f 49//49 57//57 54//54
f 49//49 50//50 57//57
f 57//57 50//50 54//54
f 50//50 51//51 54//54
f 51//51 52//52 54//54
f 52//52 53//53 58//58
f 52//52 58//58 54//54
f 53//53 30//30 58//58
f 34//34 45//45 59//59
f 34//34 33//33 45//45
f 34//34 59//59 60//60
f 34//34 60//60 35//35
f 45//45 55//55 59//59
f 59//59 55//55 61//61
f 59//59 61//61 60//60
f 55//55 62//62 61//61
f 55//55 56//56 62//62
f 21//21 29//29 26//26
f 21//21 63//63 64//64
f 21//21 64//64 29//29
f 21//21 40//40 63//63
f 29//29 65//65 66//66
f 29//29 64//64 67//67
f 29//29 67//67 65//65
f 29//29 66//66 30//30
f 65//65 67//67 66//66
f 63//63 68//68 69//69
f 63//63 69//69 64//64
f 63//63 40//40 70//70
f 63//63 70//70 54//54
f 63//63 54//54 71//71
f 63//63 71//71 68//68
f 68//68 64//64 69//69
f 68//68 71//71 58//58
f 68//68 58//58 64//64
f 64//64 58//58 72//72
f 64//64 72//72 67//67
f 67//67 72//72 66//66
f 36//36 37//37 73//73
f 36//36 74//74 38//38
f 36//36 73//73 74//74
f 37//37 75//75 73//73
f 37//37 35//35 75//75
f 74//74 76//76 38//38
f 74//74 73//73 77//77
f 74//74 77//77 78//78
f 74//74 78//78 76//76
f 38//38 76//76 39//39
f 76//76 40//40 39//39
f 76//76 78//78 70//70
f 76//76 70//70 40//40
f 73//73 75//75 79//79
f 73//73 79//79 80//80
f 73//73 80//80 77//77
f 75//75 81//81 79//79
f 75//75 35//35 82//82
f 75//75 82//82 83//83
f 75//75 83//83 81//81
f 81//81 84//84 79//79
f 81//81 83//83 85//85
f 81//81 85//85 84//84
f 79//79 84//84 80//80
f 77//77 80//80 78//78
f 80//80 84//84 78//78
f 78//78 84//84 70//70
f 84//84 85//85 56//56
f 84//84 56//56 70//70
f 70//70 56//56 54//54
f 30//30 66//66 72//72
f 30//30 72//72 58//58
f 54//54 86//86 71//71
f 54//54 58//58 86//86
f 71//71 86//86 58//58
f 60//60 61//61 35//35
f 35//35 61//61 82//82
f 61//61 62//62 85//85
f 61//61 85//85 82//82
f 82//82 85//85 83//83
f 62//62 56//56 85//85
# 168 faces, 0 coords texture

# End of File
