####
#
# OBJ File Generated by Meshlab
#
####
# Object step_47_link_5.obj
#
# Vertices: 100
# Faces: 196
#
####
vn 0.891435 0.165558 6.118783
v 0.085833 0.138608 0.744869
vn 2.162175 0.707772 5.120884
v 0.089328 0.151292 0.743722
vn -0.282856 1.230873 6.098190
v -0.013202 0.151292 0.743722
vn 1.416854 -2.215577 2.082112
v 0.085833 0.037529 0.744869
vn 3.709573 -0.553248 4.423720
v 0.089328 0.049289 0.743722
vn -2.792105 0.146608 4.384754
v -0.014698 0.138608 0.744869
vn 2.041670 1.915681 5.464943
v 0.089902 0.164237 0.739503
vn 0.909526 2.171119 5.775656
v 0.087619 0.166145 0.739242
vn 0.760099 2.375708 5.669778
v 0.087604 0.166168 0.739236
vn 5.165311 -1.073804 1.604443
v 0.179015 0.193425 0.643192
vn 5.087508 0.494115 2.330437
v 0.179015 0.295470 0.643192
vn 3.942572 1.074796 4.749014
v 0.177466 0.303840 0.642882
vn 2.869903 2.231439 2.226931
v 0.177858 0.306851 0.641857
vn 0.398329 2.807609 5.533225
v 0.087590 0.166183 0.739231
vn -3.069119 1.248146 2.904596
v -0.014324 0.166168 0.739236
vn 0.079393 3.360683 5.299267
v 0.087578 0.166191 0.739226
vn -2.902684 1.885814 2.671566
v -0.014322 0.166183 0.739231
vn -2.829566 2.823836 2.666299
v -0.014318 0.166191 0.739226
vn -0.219764 3.912354 4.875454
v 0.072489 0.306851 0.641857
vn 1.878869 -3.954141 -1.555374
v 0.085833 0.037529 0.644630
vn -1.569215 -1.639648 1.617702
v -0.014698 0.037529 0.744869
vn -2.244562 -2.573727 -1.316189
v -0.014698 0.037529 0.644630
vn -2.636978 -1.916161 -3.966967
v 0.050497 0.207629 0.505158
vn 4.639830 -1.975841 -1.641913
v 0.179015 0.193425 0.541875
vn 3.887850 -2.074328 -3.855478
v 0.158767 0.207606 0.505265
vn 3.374312 -2.116783 -4.127759
v 0.158713 0.207609 0.505211
vn 2.497487 -2.108546 -4.613709
v 0.158669 0.207617 0.505177
vn 1.455778 -1.956136 -5.095858
v 0.158635 0.207629 0.505158
vn -3.228251 0.601204 3.030875
v -0.015228 0.150706 0.743645
vn -6.021936 -0.079031 1.203003
v -0.015228 0.048791 0.743645
vn -6.195232 0.105850 -0.667384
v -0.015228 0.150706 0.641717
vn -5.937029 0.368217 -1.304116
v -0.014324 0.166168 0.637901
vn -5.863328 1.226408 -0.973772
v -0.014322 0.166183 0.637899
vn -5.811002 2.386092 -0.067068
v -0.014318 0.166191 0.637898
vn -1.325612 4.342031 4.062156
v 0.067767 0.310277 0.638526
vn -1.351840 5.027731 3.034448
v 0.058398 0.319237 0.622071
vn -1.545459 5.050622 2.016507
v 0.057793 0.319526 0.621316
vn -2.343521 4.875425 1.458369
v 0.053465 0.319762 0.615921
vn -3.965405 4.292095 0.707779
v 0.051127 0.319006 0.611915
vn -5.063948 3.547935 0.265605
v 0.050533 0.318639 0.609068
vn -5.523872 2.934883 0.079263
v 0.050510 0.318604 0.608976
vn -5.823643 -0.091674 -2.209462
v -0.014324 0.061293 0.637901
vn -5.583054 -0.599568 -1.850277
v -0.015228 0.048791 0.641717
vn -2.754307 1.730489 -3.441383
v 0.050497 0.318545 0.505158
vn -2.511412 0.568774 -4.415731
v 0.050500 0.318523 0.505150
vn -2.323201 -0.911760 -4.269078
v 0.050500 0.207642 0.505150
vn -2.752099 3.616245 -1.939011
v 0.050510 0.318604 0.505211
vn -2.800201 2.833295 -2.571465
v 0.050499 0.318572 0.505177
vn -5.379160 -0.582791 -3.192365
v -0.014323 0.061204 0.637912
vn -5.692985 -0.306391 -2.491434
v -0.014324 0.061252 0.637906
vn 6.074332 0.185571 -1.001411
v 0.179015 0.295470 0.541875
vn 3.975823 4.488418 1.142556
v 0.175575 0.309662 0.638915
vn 1.727249 4.684197 2.585740
v 0.174291 0.310844 0.638122
vn 3.989891 4.659155 0.504371
v 0.174165 0.311417 0.635630
vn 5.330651 1.691419 -1.047280
v 0.177858 0.306851 0.538781
vn 1.472044 5.437802 2.014531
v 0.167821 0.316564 0.628349
vn 0.161968 5.469426 3.081619
v 0.168168 0.316117 0.629130
vn -0.222348 4.815235 3.890891
v 0.069851 0.310844 0.638122
vn 1.600348 5.562174 1.670589
v 0.165635 0.318932 0.622837
vn 1.652652 5.552632 1.587448
v 0.165364 0.319237 0.622071
vn 1.795050 5.340160 0.764315
v 0.165104 0.319526 0.621316
vn 4.824868 3.739806 -0.651859
v 0.174165 0.311417 0.533859
vn -0.225797 5.358873 3.259781
v 0.064069 0.316117 0.629130
vn 0.546394 5.797463 2.283991
v 0.166210 0.318278 0.624397
vn -1.022211 5.117909 3.184581
v 0.063437 0.316564 0.628349
vn 1.462143 5.606515 1.804021
v 0.165917 0.318613 0.623613
vn -1.147422 5.126521 3.116494
v 0.060263 0.318278 0.624397
vn -1.238918 5.074594 3.097909
v 0.059635 0.318613 0.623613
vn -1.325228 5.026402 3.074212
v 0.059013 0.318932 0.622837
vn 0.459292 6.250071 0.100010
v 0.163442 0.319762 0.615921
vn 0.084269 6.278103 0.115302
v 0.161220 0.319844 0.614438
vn 3.075833 4.730393 -0.525629
v 0.165104 0.319526 0.516681
vn 2.596843 2.830222 -1.778302
v 0.163442 0.319762 0.510170
vn 0.321625 6.084382 -1.018180
v 0.161220 0.319844 0.509586
vn -2.003396 5.424972 0.696969
v 0.053011 0.319844 0.614438
vn 5.704675 -0.137663 -2.588982
v 0.177858 0.200268 0.538781
vn 5.308007 3.136081 -1.065885
v 0.175575 0.309662 0.535674
vn 4.811062 -1.042308 -3.491589
v 0.163442 0.209028 0.510170
vn 0.805871 5.721603 -2.223914
v 0.158994 0.318758 0.505576
vn 1.475724 4.984797 -2.854907
v 0.158907 0.318717 0.505445
vn 2.034644 3.784367 -3.351277
v 0.158832 0.318677 0.505342
vn 2.197347 2.774874 -3.608686
v 0.158767 0.318639 0.505265
vn -1.039986 5.932284 -0.551809
v 0.053011 0.319844 0.509586
vn -1.481237 5.760705 -0.912518
v 0.050698 0.318758 0.505576
vn -1.797125 5.480104 -1.059239
v 0.050625 0.318717 0.505445
vn -2.150898 5.058495 -1.284566
v 0.050571 0.318677 0.505342
vn 2.071879 2.503544 -4.039208
v 0.158713 0.318604 0.505211
vn -2.507560 4.422060 -1.562956
v 0.050533 0.318639 0.505265
vn 1.764577 2.154673 -4.674637
v 0.158669 0.318572 0.505177
vn 1.310323 1.596011 -5.390543
v 0.158635 0.318545 0.505158
vn 0.656882 0.773560 -6.013275
v 0.158611 0.318523 0.505150
vn 0.017705 0.018575 -6.283016
v 0.158595 0.318508 0.505150
vn 0.589815 -1.298855 -5.776270
v 0.158611 0.207642 0.505150
vn 0.016601 -0.026547 -6.282943
v 0.158595 0.207653 0.505150
vn -0.056185 0.015181 -6.282477
v 0.050506 0.318508 0.505150
vn 4.470082 -2.503985 -3.616657
v 0.158832 0.207610 0.505342
vn -0.053935 -0.021610 -6.282418
v 0.050506 0.207653 0.505150
vn -3.668924 5.052734 0.137289
v 0.050625 0.318717 0.609324
vn -4.568720 4.086960 0.347856
v 0.050571 0.318677 0.609183
vn -2.767592 5.625423 -0.069059
v 0.051127 0.319006 0.507852
# 100 vertices, 0 vertices normals

f 1//1 2//2 3//3
f 1//1 4//4 5//5
f 1//1 5//5 2//2
f 1//1 6//6 4//4
f 1//1 3//3 6//6
f 2//2 7//7 8//8
f 2//2 8//8 9//9
f 2//2 9//9 3//3
f 2//2 5//5 10//10
f 2//2 11//11 12//12
f 2//2 12//12 13//13
f 2//2 13//13 7//7
f 2//2 10//10 11//11
f 7//7 9//9 8//8
f 7//7 13//13 9//9
f 9//9 14//14 15//15
f 9//9 15//15 3//3
f 9//9 13//13 14//14
f 14//14 16//16 17//17
f 14//14 17//17 15//15
f 14//14 13//13 16//16
f 16//16 18//18 17//17
f 16//16 13//13 19//19
f 16//16 19//19 18//18
f 4//4 20//20 10//10
f 4//4 6//6 21//21
f 4//4 21//21 20//20
f 4//4 10//10 5//5
f 20//20 21//21 22//22
f 20//20 22//22 23//23
f 20//20 24//24 10//10
f 20//20 25//25 24//24
f 20//20 26//26 25//25
f 20//20 27//27 26//26
f 20//20 28//28 27//27
f 20//20 23//23 28//28
f 6//6 29//29 30//30
f 6//6 3//3 29//29
f 6//6 30//30 21//21
f 29//29 3//3 15//15
f 29//29 15//15 31//31
f 29//29 31//31 30//30
f 15//15 17//17 32//32
f 15//15 32//32 31//31
f 17//17 18//18 33//33
f 17//17 33//33 32//32
f 18//18 34//34 33//33
f 18//18 19//19 35//35
f 18//18 35//35 36//36
f 18//18 36//36 37//37
f 18//18 37//37 38//38
f 18//18 38//38 39//39
f 18//18 39//39 40//40
f 18//18 40//40 41//41
f 18//18 41//41 34//34
f 31//31 32//32 42//42
f 31//31 43//43 30//30
f 31//31 42//42 43//43
f 32//32 33//33 44//44
f 32//32 44//44 45//45
f 32//32 45//45 46//46
f 32//32 46//46 42//42
f 33//33 34//34 47//47
f 33//33 47//47 48//48
f 33//33 48//48 44//44
f 34//34 41//41 47//47
f 21//21 30//30 22//22
f 30//30 43//43 22//22
f 22//22 43//43 23//23
f 43//43 49//49 23//23
f 43//43 50//50 49//49
f 43//43 42//42 50//50
f 49//49 50//50 23//23
f 50//50 42//42 23//23
f 42//42 46//46 23//23
f 11//11 13//13 12//12
f 11//11 51//51 13//13
f 11//11 10//10 51//51
f 13//13 52//52 53//53
f 13//13 53//53 19//19
f 13//13 54//54 52//52
f 13//13 51//51 55//55
f 13//13 55//55 54//54
f 52//52 54//54 53//53
f 53//53 54//54 56//56
f 53//53 57//57 58//58
f 53//53 56//56 57//57
f 53//53 58//58 19//19
f 54//54 59//59 56//56
f 54//54 60//60 59//59
f 54//54 61//61 60//60
f 54//54 55//55 62//62
f 54//54 62//62 61//61
f 57//57 56//56 63//63
f 57//57 63//63 58//58
f 56//56 64//64 65//65
f 56//56 66//66 64//64
f 56//56 59//59 66//66
f 56//56 65//65 63//63
f 64//64 66//66 67//67
f 64//64 67//67 65//65
f 66//66 59//59 68//68
f 66//66 68//68 67//67
f 59//59 60//60 69//69
f 59//59 69//69 68//68
f 60//60 61//61 36//36
f 60//60 36//36 69//69
f 61//61 70//70 71//71
f 61//61 71//71 37//37
f 61//61 62//62 72//72
f 61//61 72//72 70//70
f 61//61 37//37 36//36
f 70//70 72//72 73//73
f 70//70 73//73 71//71
f 71//71 73//73 74//74
f 71//71 74//74 75//75
f 71//71 75//75 37//37
f 51//51 10//10 24//24
f 51//51 24//24 76//76
f 51//51 76//76 55//55
f 55//55 77//77 62//62
f 55//55 73//73 77//77
f 55//55 76//76 78//78
f 55//55 78//78 73//73
f 77//77 73//73 62//62
f 62//62 73//73 72//72
f 73//73 79//79 74//74
f 73//73 80//80 79//79
f 73//73 81//81 80//80
f 73//73 82//82 81//81
f 73//73 78//78 82//82
f 74//74 79//79 83//83
f 74//74 83//83 75//75
f 79//79 80//80 84//84
f 79//79 84//84 83//83
f 80//80 81//81 85//85
f 80//80 85//85 84//84
f 81//81 82//82 86//86
f 81//81 86//86 85//85
f 82//82 87//87 88//88
f 82//82 78//78 25//25
f 82//82 25//25 87//87
f 82//82 88//88 86//86
f 87//87 89//89 47//47
f 87//87 25//25 26//26
f 87//87 26//26 89//89
f 87//87 47//47 88//88
f 89//89 90//90 48//48
f 89//89 26//26 27//27
f 89//89 27//27 90//90
f 89//89 48//48 47//47
f 90//90 91//91 44//44
f 90//90 27//27 28//28
f 90//90 28//28 91//91
f 90//90 44//44 48//48
f 91//91 92//92 45//45
f 91//91 28//28 93//93
f 91//91 93//93 92//92
f 91//91 45//45 44//44
f 92//92 93//93 94//94
f 92//92 94//94 95//95
f 92//92 95//95 45//45
f 24//24 78//78 76//76
f 24//24 96//96 78//78
f 24//24 25//25 96//96
f 78//78 96//96 25//25
f 28//28 23//23 93//93
f 93//93 23//23 46//46
f 93//93 46//46 94//94
f 94//94 46//46 97//97
f 94//94 97//97 95//95
f 19//19 58//58 35//35
f 35//35 58//58 65//65
f 35//35 65//65 67//67
f 35//35 67//67 68//68
f 35//35 68//68 69//69
f 35//35 69//69 36//36
f 58//58 63//63 65//65
f 37//37 75//75 38//38
f 38//38 75//75 39//39
f 75//75 83//83 39//39
f 39//39 98//98 99//99
f 39//39 99//99 40//40
f 39//39 83//83 100//100
f 39//39 100//100 98//98
f 98//98 100//100 85//85
f 98//98 85//85 99//99
f 99//99 85//85 86//86
f 99//99 86//86 40//40
f 40//40 86//86 88//88
f 40//40 88//88 41//41
f 41//41 88//88 47//47
f 83//83 84//84 100//100
f 100//100 84//84 85//85
f 45//45 95//95 46//46
f 95//95 97//97 46//46
# 196 faces, 0 coords texture

# End of File
