####
#
# OBJ File Generated by Meshlab
#
####
# Object step_5_link_6.obj
#
# Vertices: 80
# Faces: 156
#
####
vn 1.729441 0.700503 5.449043
v 0.426812 -0.079568 0.580332
vn 3.799756 0.736740 4.939838
v 0.427110 -0.078268 0.579919
vn 2.425270 1.430115 5.184660
v 0.427113 -0.078211 0.579908
vn 2.229309 2.104072 4.751430
v 0.427111 -0.078169 0.579896
vn -2.904681 1.900727 2.802118
v 0.317080 -0.078169 0.579896
vn 1.896972 -0.224957 5.620940
v 0.426812 -0.188627 0.580332
vn 4.850683 0.673067 2.249189
v 0.500228 -0.132204 0.526183
vn -2.513327 0.719534 4.439322
v 0.317141 -0.079568 0.580332
vn 4.331733 2.726183 1.633811
v 0.499971 -0.131426 0.526181
vn 2.213916 3.092513 3.897397
v 0.427105 -0.078140 0.579883
vn -2.615791 2.815585 2.572838
v 0.317092 -0.078140 0.579883
vn 1.959277 4.198693 2.524518
v 0.427096 -0.078123 0.579870
vn -2.080592 4.077932 2.153957
v 0.317106 -0.078123 0.579870
vn 1.457455 5.270340 1.301634
v 0.427085 -0.078115 0.579858
vn -1.141589 5.468995 1.361082
v 0.317121 -0.078115 0.579858
vn 0.251285 6.250301 0.253134
v 0.427074 -0.078113 0.579846
vn -0.189916 6.256219 0.265511
v 0.317136 -0.078113 0.579846
vn 1.388396 5.101427 -1.542733
v 0.427085 -0.078115 0.474957
vn 0.242580 6.243882 -0.307660
v 0.427074 -0.078113 0.474967
vn 1.578895 4.948089 -2.573504
v 0.427096 -0.078123 0.474947
vn 2.132151 1.991935 -2.449951
v 0.499971 -0.131426 0.419081
vn -2.294659 4.110344 -2.125434
v 0.317106 -0.078123 0.474947
vn -1.097504 5.281842 -1.617818
v 0.317121 -0.078115 0.474957
vn -0.986583 2.069243 -5.036175
v 0.387266 -0.131426 0.419081
vn -0.183318 6.249598 -0.321762
v 0.317136 -0.078113 0.474967
vn 0.380127 -2.959709 5.320433
v 0.418015 -0.207965 0.579133
vn 0.584574 -1.355983 5.977478
v 0.420776 -0.204495 0.580196
vn -0.727197 -1.169634 6.001297
v 0.316435 -0.204495 0.580196
vn 1.730009 -1.535769 5.564757
v 0.421877 -0.204520 0.580017
vn -2.447611 -2.502827 2.464258
v 0.316855 -0.207965 0.579133
vn -1.394797 -4.631950 1.711670
v 0.385206 -0.268843 0.525956
vn 1.372642 -4.392865 2.026386
v 0.486697 -0.268843 0.525956
vn 3.187734 -2.663538 2.355585
v 0.491987 -0.264845 0.527223
vn 0.298718 -0.344587 6.244041
v 0.420580 -0.203976 0.580250
vn -0.413807 -0.008612 6.255075
v 0.317141 -0.188627 0.580332
vn -0.737318 -0.239579 6.159525
v 0.316531 -0.203976 0.580250
vn 4.426009 -1.232579 3.531580
v 0.499615 -0.245760 0.526517
vn 4.925144 -0.333218 2.409063
v 0.500228 -0.243143 0.526183
vn -3.951720 0.064721 2.997924
v 0.315663 -0.099619 0.580017
vn -1.238766 0.007525 6.146286
v 0.316531 -0.099364 0.580250
vn -5.516300 0.377582 1.966292
v 0.316147 -0.086569 0.579664
vn -5.611730 0.060026 -1.902634
v 0.315663 -0.099619 0.476688
vn -3.485407 -0.881794 2.737020
v 0.315663 -0.204520 0.580017
vn -4.910171 0.994896 2.501097
v 0.317064 -0.078268 0.579919
vn -3.324339 1.371733 2.890643
v 0.317070 -0.078211 0.579908
vn -5.605351 0.245004 -1.862228
v 0.316147 -0.086569 0.476074
vn -4.597011 1.116420 -2.571035
v 0.317070 -0.078211 0.474923
vn -4.134579 1.939390 -2.561411
v 0.317080 -0.078169 0.474929
vn -3.373658 2.967637 -2.423192
v 0.317092 -0.078140 0.474938
vn -4.405142 0.083392 -4.396931
v 0.317141 -0.079568 0.474806
vn -4.422445 -0.036094 -4.401330
v 0.317141 -0.188627 0.474806
vn -4.891740 -0.960111 -2.121874
v 0.315663 -0.204520 0.476688
vn -4.722489 0.200632 -3.913324
v 0.317062 -0.078342 0.474917
vn -4.863175 0.612504 -2.601999
v 0.317064 -0.078268 0.474919
vn -2.719038 0.305718 -5.449747
v 0.386812 -0.132204 0.419179
vn -4.871207 -3.213765 -0.879593
v 0.316855 -0.207965 0.478419
vn -3.002601 -2.255764 -4.046984
v 0.384022 -0.264845 0.422259
vn -1.657924 -4.034911 -1.958398
v 0.385206 -0.268843 0.425008
vn -2.560220 -0.150385 -5.505759
v 0.386812 -0.243143 0.419179
vn 4.556626 0.546608 -2.441334
v 0.500228 -0.132204 0.419179
vn 1.770724 0.228208 -5.709858
v 0.500028 -0.131693 0.419070
vn 3.162963 0.820982 -4.724605
v 0.500030 -0.131636 0.419075
vn 5.160410 1.599216 -2.432297
v 0.500026 -0.131596 0.419083
vn 3.838424 -0.456098 -2.889663
v 0.500228 -0.243143 0.419179
vn 1.837474 -0.009530 -5.880914
v 0.500028 -0.241978 0.419070
vn -0.419945 0.191550 -6.247528
v 0.387283 -0.131693 0.419070
vn 0.317924 0.022895 -6.265505
v 0.500018 -0.131771 0.419069
vn 1.041404 -0.127244 -6.096327
v 0.500018 -0.242056 0.419069
vn -0.811926 0.093650 -6.171600
v 0.387272 -0.131771 0.419069
vn 1.198257 -4.558097 -1.934046
v 0.486697 -0.268843 0.425008
vn 5.802025 -1.559589 0.996159
v 0.499832 -0.245584 0.526051
vn 2.858321 -2.809603 -2.363575
v 0.491987 -0.264845 0.422259
vn 5.705483 -1.681029 -1.126571
v 0.499832 -0.245584 0.419615
vn 0.620768 -2.288530 -5.466501
v 0.490889 -0.264365 0.421750
vn -1.350089 -1.721799 -5.242156
v 0.384769 -0.264365 0.421750
vn 2.731532 -1.284272 -4.054321
v 0.499615 -0.245760 0.419239
vn -1.545886 -0.463265 -5.805872
v 0.386983 -0.245760 0.419239
vn 0.876535 -0.261455 -6.143086
v 0.499971 -0.242668 0.419081
vn -0.579528 -0.183037 -6.220134
v 0.387266 -0.242668 0.419081
vn -0.714976 -0.039700 -6.195482
v 0.387272 -0.242056 0.419069
# 80 vertices, 0 vertices normals

f 1//1 2//2 3//3
f 1//1 3//3 4//4
f 1//1 4//4 5//5
f 1//1 6//6 7//7
f 1//1 8//8 6//6
f 1//1 5//5 8//8
f 1//1 7//7 2//2
f 2//2 7//7 3//3
f 3//3 7//7 9//9
f 3//3 9//9 4//4
f 4//4 10//10 11//11
f 4//4 11//11 5//5
f 4//4 9//9 10//10
f 10//10 12//12 13//13
f 10//10 13//13 11//11
f 10//10 9//9 12//12
f 12//12 14//14 15//15
f 12//12 15//15 13//13
f 12//12 9//9 14//14
f 14//14 16//16 17//17
f 14//14 18//18 16//16
f 14//14 17//17 15//15
f 14//14 9//9 18//18
f 16//16 18//18 19//19
f 16//16 19//19 17//17
f 20//20 18//18 21//21
f 20//20 22//22 23//23
f 20//20 23//23 18//18
f 20//20 21//21 24//24
f 20//20 24//24 22//22
f 18//18 23//23 25//25
f 18//18 25//25 19//19
f 18//18 9//9 21//21
f 19//19 25//25 17//17
f 26//26 27//27 28//28
f 26//26 29//29 27//27
f 26//26 30//30 31//31
f 26//26 28//28 30//30
f 26//26 32//32 33//33
f 26//26 33//33 29//29
f 26//26 31//31 32//32
f 27//27 29//29 6//6
f 27//27 34//34 28//28
f 27//27 6//6 34//34
f 29//29 33//33 6//6
f 34//34 6//6 35//35
f 34//34 36//36 28//28
f 34//34 35//35 36//36
f 6//6 8//8 35//35
f 6//6 33//33 37//37
f 6//6 37//37 38//38
f 6//6 38//38 7//7
f 39//39 40//40 8//8
f 39//39 41//41 42//42
f 39//39 8//8 41//41
f 39//39 42//42 43//43
f 39//39 43//43 36//36
f 39//39 36//36 40//40
f 40//40 36//36 35//35
f 40//40 35//35 8//8
f 41//41 8//8 44//44
f 41//41 44//44 45//45
f 41//41 45//45 46//46
f 41//41 46//46 42//42
f 8//8 45//45 44//44
f 8//8 5//5 45//45
f 45//45 5//5 47//47
f 45//45 47//47 46//46
f 5//5 11//11 48//48
f 5//5 48//48 47//47
f 11//11 13//13 49//49
f 11//11 49//49 48//48
f 13//13 15//15 22//22
f 13//13 22//22 49//49
f 15//15 17//17 23//23
f 15//15 23//23 22//22
f 17//17 25//25 23//23
f 42//42 46//46 50//50
f 42//42 50//50 51//51
f 42//42 52//52 43//43
f 42//42 51//51 52//52
f 46//46 53//53 50//50
f 46//46 54//54 53//53
f 46//46 47//47 54//54
f 50//50 53//53 54//54
f 50//50 54//54 55//55
f 50//50 55//55 51//51
f 54//54 47//47 55//55
f 47//47 48//48 24//24
f 47//47 24//24 55//55
f 48//48 49//49 24//24
f 49//49 22//22 24//24
f 30//30 28//28 43//43
f 30//30 43//43 56//56
f 30//30 56//56 31//31
f 28//28 36//36 43//43
f 43//43 52//52 56//56
f 56//56 52//52 57//57
f 56//56 58//58 31//31
f 56//56 57//57 58//58
f 52//52 51//51 57//57
f 51//51 55//55 59//59
f 51//51 59//59 57//57
f 7//7 60//60 9//9
f 7//7 38//38 60//60
f 9//9 60//60 21//21
f 60//60 61//61 62//62
f 60//60 62//62 63//63
f 60//60 63//63 21//21
f 60//60 38//38 64//64
f 60//60 64//64 65//65
f 60//60 65//65 61//61
f 21//21 61//61 66//66
f 21//21 62//62 61//61
f 21//21 63//63 62//62
f 21//21 66//66 24//24
f 67//67 61//61 65//65
f 67//67 68//68 69//69
f 67//67 65//65 68//68
f 67//67 69//69 66//66
f 67//67 66//66 61//61
f 32//32 70//70 33//33
f 32//32 31//31 70//70
f 33//33 71//71 37//37
f 33//33 70//70 72//72
f 33//33 72//72 71//71
f 37//37 71//71 38//38
f 71//71 72//72 73//73
f 71//71 73//73 38//38
f 38//38 73//73 64//64
f 70//70 74//74 72//72
f 70//70 31//31 58//58
f 70//70 58//58 75//75
f 70//70 75//75 74//74
f 72//72 74//74 76//76
f 72//72 76//76 73//73
f 74//74 75//75 77//77
f 74//74 77//77 76//76
f 76//76 64//64 73//73
f 76//76 78//78 64//64
f 76//76 77//77 79//79
f 76//76 79//79 78//78
f 64//64 78//78 68//68
f 64//64 68//68 65//65
f 78//78 79//79 80//80
f 78//78 80//80 68//68
f 68//68 80//80 69//69
f 55//55 24//24 69//69
f 55//55 69//69 80//80
f 55//55 80//80 59//59
f 24//24 66//66 69//69
f 58//58 57//57 75//75
f 57//57 59//59 75//75
f 75//75 59//59 77//77
f 77//77 59//59 79//79
f 59//59 80//80 79//79
# 156 faces, 0 coords texture

# End of File
