####
#
# OBJ File Generated by Meshlab
#
####
# Object step_38_link_4.obj
#
# Vertices: 49
# Faces: 94
#
####
vn 4.148445 2.778118 -2.201903
v 0.087460 0.076136 0.440558
vn 5.331277 0.449458 -2.449908
v 0.087557 0.075649 0.440530
vn 2.215955 1.354931 -4.519449
v 0.087230 0.075941 0.440186
vn 1.605740 4.021306 -3.208046
v 0.085823 0.077200 0.440502
vn 2.487147 5.428703 -0.670861
v 0.110530 0.117715 0.645358
vn 4.776787 3.058635 -0.547666
v 0.113368 0.115638 0.645711
vn 5.328319 -0.570097 -2.285893
v 0.087557 -0.024960 0.440530
vn 6.161982 0.624702 -0.458681
v 0.113554 0.114654 0.645654
vn 6.169513 -0.644663 -0.337281
v 0.113554 0.013455 0.645654
vn 0.335690 3.694747 -3.528120
v 0.085234 0.077311 0.440463
vn 1.717388 -2.106205 -3.466207
v 0.087230 -0.025345 0.440186
vn -0.274230 0.508010 -6.201877
v -0.014105 0.075941 0.440186
vn 0.674335 6.098644 -0.654847
v 0.109417 0.117944 0.645255
vn -0.725610 3.175827 -3.385200
v -0.016143 0.077311 0.440463
vn -0.867566 6.050292 -0.564004
v 0.006086 0.117944 0.645255
vn 4.547838 -4.226244 0.135665
v 0.087460 -0.025380 0.540891
vn 2.690527 -5.430138 0.315873
v 0.087329 -0.025492 0.540829
vn 2.538552 -5.367892 -0.712233
v 0.087329 -0.025492 0.440711
vn 4.093494 -3.079650 -1.529048
v 0.087460 -0.025380 0.440558
vn 5.672268 -2.380975 -0.139395
v 0.113368 0.012619 0.645711
vn 4.575381 -2.769703 1.401211
v 0.113368 0.012619 0.746408
vn 2.677792 -5.179215 1.340109
v 0.113105 0.012392 0.746333
vn 0.730383 -6.108144 0.512664
v 0.086320 -0.025747 0.540845
vn 0.504053 -5.548990 -1.699255
v 0.086320 -0.025747 0.440705
vn -0.826714 -6.065762 0.586232
v -0.014498 -0.025747 0.540845
vn 0.516753 -5.339713 2.450828
v 0.111115 0.011900 0.746382
vn -0.784837 -5.025202 2.731538
v 0.009304 0.011900 0.746382
vn -0.315954 -2.377983 -5.014543
v -0.014105 -0.025345 0.440186
vn -0.676789 -5.369789 -1.867932
v -0.014498 -0.025747 0.440705
vn -5.897055 1.385828 0.186118
v -0.016523 0.077200 0.540918
vn -2.432556 1.563954 -2.073547
v -0.016523 0.077200 0.440502
vn -3.747962 -2.950887 0.460960
v -0.016523 -0.025193 0.540918
vn -2.436523 -1.605525 2.392245
v 0.005307 0.013268 0.746682
vn -2.170720 1.711416 1.995861
v 0.005307 0.117715 0.746682
vn -3.528795 4.521093 -0.247410
v 0.005307 0.117715 0.645358
vn -0.815465 0.025830 -6.229773
v -0.016172 0.076758 0.440453
vn -0.828544 -0.011100 -6.228217
v -0.016172 -0.024759 0.440453
vn -2.229415 -1.647977 -1.821720
v -0.016523 -0.025193 0.440502
vn -0.977969 -3.636035 -4.597311
v -0.016143 -0.025248 0.440463
vn 4.192708 2.682492 1.565192
v 0.113368 0.115638 0.746408
vn 5.378433 0.469449 1.974738
v 0.113554 0.114654 0.746474
vn 2.292714 1.201397 4.592943
v 0.112895 0.115184 0.747200
vn 1.518970 3.585949 2.600322
v 0.110530 0.117715 0.746682
vn 5.377382 -0.511866 1.931451
v 0.113554 0.013455 0.746474
vn 0.347704 3.660671 2.888697
v 0.109417 0.117944 0.746699
vn -0.225984 0.464472 6.219560
v 0.010114 0.115184 0.747200
vn 1.801272 -2.030074 3.557466
v 0.112895 0.012679 0.747200
vn -0.556058 3.400861 2.835493
v 0.006086 0.117944 0.746699
vn -0.308794 -2.195711 5.257515
v 0.010114 0.012679 0.747200
# 49 vertices, 0 vertices normals

f 1//1 2//2 3//3
f 1//1 3//3 4//4
f 1//1 4//4 5//5
f 1//1 6//6 2//2
f 1//1 5//5 6//6
f 2//2 7//7 3//3
f 2//2 6//6 8//8
f 2//2 8//8 9//9
f 2//2 9//9 7//7
f 3//3 10//10 4//4
f 3//3 7//7 11//11
f 3//3 11//11 12//12
f 3//3 12//12 10//10
f 4//4 10//10 13//13
f 4//4 13//13 5//5
f 10//10 12//12 14//14
f 10//10 14//14 15//15
f 10//10 15//15 13//13
f 16//16 17//17 18//18
f 16//16 19//19 20//20
f 16//16 18//18 19//19
f 16//16 21//21 22//22
f 16//16 22//22 17//17
f 16//16 20//20 21//21
f 17//17 23//23 24//24
f 17//17 24//24 18//18
f 17//17 22//22 23//23
f 23//23 25//25 24//24
f 23//23 22//22 26//26
f 23//23 26//26 27//27
f 23//23 27//27 25//25
f 19//19 7//7 20//20
f 19//19 11//11 7//7
f 19//19 18//18 11//11
f 7//7 9//9 20//20
f 11//11 18//18 24//24
f 11//11 24//24 28//28
f 11//11 28//28 12//12
f 24//24 25//25 29//29
f 24//24 29//29 28//28
f 30//30 31//31 32//32
f 30//30 32//32 33//33
f 30//30 34//34 35//35
f 30//30 35//35 31//31
f 30//30 33//33 34//34
f 12//12 31//31 14//14
f 12//12 36//36 31//31
f 12//12 28//28 37//37
f 12//12 37//37 36//36
f 31//31 36//36 38//38
f 31//31 38//38 32//32
f 31//31 35//35 15//15
f 31//31 15//15 14//14
f 36//36 37//37 38//38
f 25//25 32//32 29//29
f 25//25 27//27 32//32
f 32//32 38//38 29//29
f 32//32 27//27 33//33
f 28//28 29//29 39//39
f 28//28 38//38 37//37
f 28//28 39//39 38//38
f 29//29 38//38 39//39
f 40//40 41//41 8//8
f 40//40 42//42 41//41
f 40//40 43//43 42//42
f 40//40 6//6 43//43
f 40//40 8//8 6//6
f 41//41 42//42 44//44
f 41//41 44//44 8//8
f 42//42 43//43 45//45
f 42//42 45//45 46//46
f 42//42 47//47 44//44
f 42//42 46//46 47//47
f 43//43 6//6 5//5
f 43//43 5//5 45//45
f 45//45 5//5 13//13
f 45//45 13//13 48//48
f 45//45 48//48 46//46
f 8//8 44//44 9//9
f 13//13 15//15 48//48
f 21//21 44//44 47//47
f 21//21 47//47 22//22
f 21//21 20//20 9//9
f 21//21 9//9 44//44
f 47//47 26//26 22//22
f 47//47 46//46 49//49
f 47//47 49//49 26//26
f 26//26 49//49 27//27
f 46//46 34//34 33//33
f 46//46 48//48 34//34
f 46//46 33//33 49//49
f 34//34 48//48 35//35
f 48//48 15//15 35//35
f 49//49 33//33 27//27
# 94 faces, 0 coords texture

# End of File
