####
#
# OBJ File Generated by Meshlab
#
####
# Object step_30_link_7.obj
#
# Vertices: 80
# Faces: 156
#
####
vn 3.754577 0.291934 4.970520
v 0.433171 0.045162 0.600506
vn 1.878592 0.929091 5.312372
v 0.432753 0.045812 0.600757
vn 1.611066 -0.028798 5.833510
v 0.432753 -0.065476 0.600757
vn 3.057024 -0.257538 5.320056
v 0.433171 -0.067670 0.600506
vn 4.806212 1.059101 2.034239
v 0.649553 0.039282 0.412407
vn 0.886176 2.433439 5.486873
v 0.432455 0.046380 0.600619
vn 3.002382 2.612533 4.533616
v 0.433008 0.046589 0.600291
vn 2.516346 3.754888 4.147707
v 0.432602 0.047319 0.599958
vn 1.452890 3.908671 4.195436
v 0.432222 0.047623 0.599888
vn -1.806722 3.865071 3.848514
v 0.317412 0.047623 0.599888
vn -2.373119 2.206395 4.035242
v 0.316771 0.046380 0.600619
vn -0.224728 0.723987 6.175655
v 0.317184 0.045812 0.600757
vn 4.356230 2.798071 2.100896
v 0.649069 0.040227 0.412479
vn 3.662575 3.430898 3.766865
v 0.648705 0.040618 0.412484
vn 3.235806 4.346284 1.669486
v 0.648678 0.040668 0.412463
vn 1.045106 4.681117 3.284046
v 0.432197 0.047649 0.599869
vn 0.401848 5.730493 1.714502
v 0.432171 0.047660 0.599850
vn -1.872138 4.286908 2.260597
v 0.317432 0.047649 0.599869
vn 1.592185 5.803682 0.521258
v 0.648641 0.040687 0.412436
vn 0.079249 6.274269 0.184808
v 0.432146 0.047661 0.599834
vn -1.067158 5.508018 1.326879
v 0.317454 0.047660 0.599850
vn 0.077691 6.280524 -0.066016
v 0.432146 0.047661 0.493654
vn -0.107840 6.273039 0.171058
v 0.317477 0.047661 0.599834
vn -0.140700 6.276883 -0.098301
v 0.317477 0.047661 0.493654
vn 1.089809 5.554156 -1.205814
v 0.648641 0.040687 0.250899
vn -0.447441 5.781301 -1.619275
v 0.471171 0.040687 0.250899
vn 0.814911 -3.798000 3.992196
v 0.428653 -0.095287 0.598355
vn 1.887315 -1.490491 5.081639
v 0.430843 -0.091100 0.599998
vn -1.852991 -3.414558 2.378654
v 0.326362 -0.095287 0.598355
vn -1.120065 -5.742468 0.841770
v 0.482334 -0.177010 0.400890
vn 1.818529 -4.974147 1.259207
v 0.626829 -0.177010 0.400890
vn 3.639133 -3.314381 2.033465
v 0.633221 -0.171162 0.404948
vn 0.693382 -0.311902 6.173323
v 0.429669 -0.084698 0.600612
vn -2.624596 -1.714725 2.733943
v 0.323297 -0.091100 0.599998
vn 4.638122 -1.399136 2.187060
v 0.649399 -0.135824 0.412164
vn 4.029096 -0.574347 4.786836
v 0.649303 -0.133559 0.412519
vn 5.101658 -0.235500 2.396207
v 0.649553 -0.132728 0.412407
vn -2.830074 -0.937552 3.982406
v 0.321672 -0.084698 0.600612
vn -0.158952 -0.037617 6.278528
v 0.317184 -0.065476 0.600757
vn -3.157547 0.589064 2.822158
v 0.316351 0.045403 0.600716
vn -5.215134 2.700187 1.308446
v 0.316731 0.046589 0.600291
vn -3.966060 3.545768 1.787755
v 0.317086 0.047319 0.599958
vn -5.478804 0.940475 -1.612164
v 0.316351 0.045403 0.492784
vn -3.214778 -0.441360 2.871744
v 0.316351 -0.065706 0.600716
vn -4.554833 3.729453 -1.009149
v 0.317086 0.047319 0.493583
vn -4.908486 2.719430 -1.619989
v 0.316731 0.046589 0.492942
vn -3.291275 4.870326 -1.123756
v 0.317432 0.047649 0.493626
vn -1.571179 5.844662 -0.436499
v 0.317454 0.047660 0.493640
vn -4.453932 1.826427 -3.844561
v 0.469213 0.037938 0.250603
vn -5.608454 -0.749270 -1.547781
v 0.316351 -0.065706 0.492784
vn -3.484046 0.547818 -4.498945
v 0.468985 0.036746 0.250410
vn -3.450337 4.282688 -2.763464
v 0.470474 0.040227 0.250781
vn -3.028207 1.915059 -4.368711
v 0.470315 0.039602 0.250250
vn -1.257982 4.715988 -3.007516
v 0.471126 0.040668 0.250865
vn -4.015000 -4.503273 -0.463823
v 0.326362 -0.095287 0.497336
vn -5.182441 -2.557726 -1.192914
v 0.323297 -0.091100 0.495563
vn -1.433455 -4.125927 -2.134750
v 0.482334 -0.177010 0.258541
vn -3.666083 -0.786579 -4.262476
v 0.468985 -0.135676 0.250410
vn -2.300812 -2.233569 -3.797796
v 0.479044 -0.171162 0.254841
vn 3.120949 1.161835 -2.599078
v 0.649553 0.039282 0.250165
vn 4.559697 3.596761 -1.317320
v 0.649069 0.040227 0.250781
vn 2.066203 4.151290 -2.173299
v 0.648678 0.040668 0.250865
vn 1.622280 0.210534 -5.750128
v 0.649303 0.038215 0.250000
vn 4.868960 -0.090452 -2.572722
v 0.649553 -0.132728 0.250165
vn 0.932567 2.500448 -5.121739
v 0.648803 0.039806 0.250176
vn 1.927314 -0.251255 -5.542811
v 0.649303 -0.133559 0.250000
vn -0.717309 0.348314 -6.156871
v 0.470884 0.038215 0.250000
vn 2.894799 3.916731 -3.788210
v 0.648705 0.040618 0.250834
vn -1.033046 2.251798 -5.171149
v 0.470672 0.039806 0.250176
vn 1.332851 -4.265899 -1.957636
v 0.626829 -0.177010 0.258541
vn 2.348433 -2.310323 -2.670794
v 0.633221 -0.171162 0.254841
vn 2.978739 -0.969445 -2.749882
v 0.649399 -0.135824 0.250199
vn 0.090767 -0.898991 -6.215908
v 0.632522 -0.168128 0.254364
vn 0.000544 -0.803092 -6.231650
v 0.647963 -0.136750 0.250318
vn -0.636422 -1.006930 -6.128074
v 0.478591 -0.168128 0.254364
vn -0.000466 -0.802951 -6.231668
v 0.470903 -0.136750 0.250318
vn -1.232099 -0.690128 -5.953213
v 0.469605 -0.135824 0.250199
vn -0.403768 -0.182617 -6.237093
v 0.470884 -0.133559 0.250000
vn -1.493435 0.039406 -6.077914
v 0.469605 0.035491 0.250199
vn -2.762467 3.735728 -3.775918
v 0.470534 0.039942 0.250342
# 80 vertices, 0 vertices normals

f 1//1 2//2 3//3
f 1//1 4//4 5//5
f 1//1 3//3 4//4
f 1//1 5//5 2//2
f 6//6 2//2 7//7
f 6//6 7//7 8//8
f 6//6 8//8 9//9
f 6//6 9//9 10//10
f 6//6 11//11 12//12
f 6//6 12//12 2//2
f 6//6 10//10 11//11
f 2//2 12//12 3//3
f 2//2 5//5 7//7
f 7//7 5//5 13//13
f 7//7 13//13 14//14
f 7//7 14//14 15//15
f 7//7 15//15 8//8
f 8//8 15//15 9//9
f 9//9 16//16 10//10
f 9//9 15//15 16//16
f 16//16 17//17 18//18
f 16//16 18//18 10//10
f 16//16 15//15 19//19
f 16//16 19//19 17//17
f 17//17 20//20 21//21
f 17//17 21//21 18//18
f 17//17 19//19 20//20
f 20//20 22//22 23//23
f 20//20 23//23 21//21
f 20//20 19//19 22//22
f 22//22 24//24 23//23
f 22//22 19//19 25//25
f 22//22 25//25 26//26
f 22//22 26//26 24//24
f 27//27 28//28 29//29
f 27//27 29//29 30//30
f 27//27 31//31 32//32
f 27//27 32//32 28//28
f 27//27 30//30 31//31
f 28//28 33//33 34//34
f 28//28 4//4 3//3
f 28//28 3//3 33//33
f 28//28 34//34 29//29
f 28//28 32//32 35//35
f 28//28 35//35 36//36
f 28//28 36//36 37//37
f 28//28 37//37 4//4
f 33//33 3//3 38//38
f 33//33 38//38 34//34
f 4//4 37//37 5//5
f 3//3 12//12 39//39
f 3//3 39//39 38//38
f 11//11 40//40 12//12
f 11//11 41//41 40//40
f 11//11 42//42 41//41
f 11//11 10//10 42//42
f 40//40 41//41 43//43
f 40//40 43//43 44//44
f 40//40 44//44 39//39
f 40//40 39//39 12//12
f 41//41 42//42 45//45
f 41//41 46//46 43//43
f 41//41 45//45 46//46
f 42//42 10//10 18//18
f 42//42 18//18 45//45
f 18//18 21//21 47//47
f 18//18 47//47 45//45
f 21//21 23//23 48//48
f 21//21 48//48 47//47
f 23//23 24//24 48//48
f 43//43 46//46 49//49
f 43//43 50//50 44//44
f 43//43 51//51 50//50
f 43//43 49//49 51//51
f 46//46 45//45 52//52
f 46//46 53//53 49//49
f 46//46 52//52 53//53
f 45//45 47//47 52//52
f 47//47 48//48 54//54
f 47//47 54//54 52//52
f 48//48 24//24 26//26
f 48//48 26//26 54//54
f 29//29 34//34 55//55
f 29//29 55//55 30//30
f 34//34 38//38 44//44
f 34//34 44//44 56//56
f 34//34 56//56 55//55
f 38//38 39//39 44//44
f 44//44 50//50 56//56
f 55//55 56//56 57//57
f 55//55 57//57 30//30
f 56//56 50//50 58//58
f 56//56 59//59 57//57
f 56//56 58//58 59//59
f 50//50 51//51 58//58
f 5//5 60//60 61//61
f 5//5 61//61 13//13
f 5//5 37//37 60//60
f 13//13 15//15 14//14
f 13//13 61//61 62//62
f 13//13 62//62 15//15
f 15//15 62//62 25//25
f 15//15 25//25 19//19
f 63//63 60//60 64//64
f 63//63 65//65 60//60
f 63//63 66//66 67//67
f 63//63 64//64 66//66
f 63//63 67//67 65//65
f 60//60 65//65 68//68
f 60//60 68//68 61//61
f 60//60 37//37 64//64
f 65//65 62//62 68//68
f 65//65 67//67 69//69
f 65//65 69//69 54//54
f 65//65 54//54 62//62
f 61//61 68//68 62//62
f 62//62 54//54 26//26
f 62//62 26//26 25//25
f 31//31 70//70 71//71
f 31//31 71//71 32//32
f 31//31 30//30 70//70
f 32//32 71//71 72//72
f 32//32 72//72 35//35
f 35//35 37//37 36//36
f 35//35 72//72 64//64
f 35//35 64//64 37//37
f 70//70 30//30 57//57
f 70//70 57//57 59//59
f 70//70 59//59 71//71
f 71//71 73//73 72//72
f 71//71 59//59 73//73
f 73//73 74//74 72//72
f 73//73 59//59 75//75
f 73//73 75//75 76//76
f 73//73 76//76 74//74
f 74//74 76//76 77//77
f 74//74 77//77 72//72
f 72//72 66//66 64//64
f 72//72 77//77 78//78
f 72//72 78//78 66//66
f 66//66 78//78 67//67
f 79//79 51//51 67//67
f 79//79 67//67 78//78
f 79//79 77//77 58//58
f 79//79 58//58 51//51
f 79//79 78//78 77//77
f 51//51 49//49 53//53
f 51//51 53//53 67//67
f 67//67 53//53 69//69
f 80//80 53//53 52//52
f 80//80 69//69 53//53
f 80//80 52//52 54//54
f 80//80 54//54 69//69
f 59//59 77//77 75//75
f 59//59 58//58 77//77
f 75//75 77//77 76//76
# 156 faces, 0 coords texture

# End of File
