####
#
# OBJ File Generated by Meshlab
#
####
# Object step_42_link_7.obj
#
# Vertices: 78
# Faces: 152
#
####
vn 4.352766 0.090456 4.449901
v 0.303305 0.301912 0.593116
vn 2.738189 0.634286 5.074932
v 0.301047 0.310073 0.594802
vn 1.387328 -1.700054 4.955539
v 0.301047 0.202052 0.594802
vn 1.963999 -2.761256 2.104993
v 0.303305 0.200272 0.593116
vn 5.147776 -0.380332 3.512736
v 0.453708 0.319818 0.403233
vn 4.886346 1.500953 2.009586
v 0.453708 0.476020 0.403233
vn 0.945832 0.519183 6.078386
v 0.286412 0.327605 0.596754
vn 0.304947 -0.345920 6.228202
v 0.286412 0.215427 0.596754
vn 1.967221 1.828214 5.359964
v 0.285821 0.330562 0.596452
vn 4.353013 1.971333 3.980214
v 0.432547 0.512394 0.409138
vn 3.721059 3.265443 1.863701
v 0.431730 0.514061 0.409184
vn 2.837443 3.851559 2.473030
v 0.430246 0.514850 0.409992
vn 0.651669 1.248693 6.021602
v 0.284763 0.330972 0.596533
vn -0.198309 0.147589 6.267680
v 0.173855 0.327605 0.596754
vn 1.380906 2.812340 5.287477
v 0.283726 0.332300 0.596270
vn 1.261128 4.539000 2.222352
v 0.427895 0.515873 0.410469
vn 0.308977 2.587041 5.252040
v 0.282357 0.332666 0.596359
vn -0.249498 0.309186 6.256139
v 0.171122 0.330972 0.596533
vn -2.262910 1.988850 2.889373
v 0.169275 0.332666 0.596359
vn -1.581570 4.612390 1.707556
v 0.252826 0.515873 0.410469
vn -0.374000 -5.260997 2.070108
v 0.201533 0.200272 0.593116
vn 1.500736 -5.389649 -0.936921
v 0.303305 0.200272 0.492432
vn 4.725373 -1.992586 1.062931
v 0.456134 0.318240 0.399137
vn -1.145849 -3.322005 2.774162
v 0.193306 0.202052 0.594802
vn -0.462691 -0.960968 6.078295
v 0.173855 0.215427 0.596754
vn -0.517822 -5.838449 -1.319686
v 0.201533 0.200272 0.492432
vn -0.452414 -3.430536 -4.311923
v 0.297547 0.319818 0.253231
vn 3.313238 -2.486520 -1.449459
v 0.456134 0.318240 0.257556
vn 1.881300 -1.993161 -3.347387
v 0.453708 0.319818 0.253231
vn -0.639239 -0.555014 6.198132
v 0.171122 0.215951 0.596533
vn -0.875420 0.092275 6.206100
v 0.169052 0.331981 0.596355
vn -0.534897 0.006942 6.260363
v 0.169105 0.331935 0.596360
vn -0.758109 -0.257570 6.222539
v 0.169105 0.217481 0.596360
vn -1.826484 0.240609 5.938211
v 0.169016 0.332012 0.596348
vn -3.535553 0.609000 4.755315
v 0.168995 0.332029 0.596339
vn -5.082871 1.132714 1.854216
v 0.168987 0.332035 0.596328
vn -4.681927 3.715886 0.641997
v 0.252060 0.515246 0.410098
vn -2.692630 -1.981054 3.114586
v 0.169052 0.217528 0.596355
vn -3.221303 -1.725610 2.864425
v 0.169016 0.217570 0.596348
vn -4.197900 -1.127655 2.607112
v 0.168995 0.217609 0.596339
vn -5.569350 -0.430200 1.700736
v 0.168987 0.217644 0.596328
vn -5.870146 1.008181 -0.722429
v 0.168987 0.332035 0.489959
vn -5.994336 -0.576449 -0.954494
v 0.168987 0.217644 0.489959
vn -4.875562 2.508706 -1.101105
v 0.252060 0.515246 0.251292
vn -3.130131 0.782482 -3.773145
v 0.252260 0.515043 0.250675
vn -3.168348 -0.586815 -3.943520
v 0.252260 0.340523 0.250675
vn -2.266728 -2.634717 2.840950
v 0.170520 0.215895 0.596452
vn -3.591520 -4.252517 -1.641128
v 0.170520 0.215895 0.489592
vn -1.926314 -5.220321 -1.561825
v 0.193306 0.202052 0.490638
vn -4.647606 -4.204617 0.289549
v 0.169913 0.216547 0.596299
vn -4.662785 -4.200394 -0.187876
v 0.169913 0.216547 0.489899
vn -4.305524 -3.697413 1.838035
v 0.169275 0.217266 0.596359
vn -4.667000 -3.924303 -1.041364
v 0.169275 0.217266 0.489894
vn -4.610923 -3.549811 -1.617514
v 0.169052 0.217528 0.489921
vn -4.958070 -2.925555 -1.459480
v 0.169016 0.217570 0.489933
vn -5.571646 -1.737702 -1.257234
v 0.168995 0.217609 0.489946
vn -2.337592 -3.862661 -4.009389
v 0.254360 0.337890 0.251104
vn -2.510894 -1.892081 -4.436386
v 0.252652 0.339788 0.250674
vn 5.818911 0.300546 1.440609
v 0.456134 0.461371 0.399137
vn 5.855652 0.302882 -1.376859
v 0.456134 0.461371 0.257556
vn 3.374971 1.035114 -2.742444
v 0.453708 0.476020 0.253231
vn 3.273448 3.286991 -2.126013
v 0.431730 0.514061 0.251104
vn 1.839567 3.367080 -2.977624
v 0.430246 0.514850 0.250787
vn 0.679476 3.280515 -2.718012
v 0.427895 0.515873 0.250660
vn 1.397853 0.760349 -5.819390
v 0.432561 0.508976 0.250000
vn 3.712510 2.128603 -3.958268
v 0.432547 0.512394 0.250863
vn 0.336036 -0.477699 -6.196266
v 0.432561 0.336225 0.250000
vn 2.039211 1.733695 -5.574877
v 0.431665 0.513253 0.250725
vn 0.927809 1.447206 -6.027712
v 0.428455 0.515578 0.250674
vn -0.156424 0.238128 -6.262898
v 0.261734 0.508976 0.250000
vn -1.165489 2.829425 -2.424171
v 0.252826 0.515873 0.250660
vn -0.636252 -1.622265 -5.724752
v 0.261734 0.336225 0.250000
vn -2.520175 1.781274 -4.229036
v 0.252631 0.515609 0.250655
vn -0.463902 0.036381 -6.265446
v 0.252421 0.514907 0.250661
vn -0.540820 -0.153933 -6.254995
v 0.252421 0.340477 0.250661
vn -1.547253 -3.802395 -4.549254
v 0.260949 0.335960 0.250335
vn -1.429609 -2.695822 -5.411974
v 0.255257 0.338018 0.250725
vn -2.358875 -3.119239 -4.725475
v 0.253658 0.338752 0.250848
# 78 vertices, 0 vertices normals

f 1//1 2//2 3//3
f 1//1 4//4 5//5
f 1//1 3//3 4//4
f 1//1 6//6 2//2
f 1//1 5//5 6//6
f 2//2 7//7 8//8
f 2//2 9//9 7//7
f 2//2 8//8 3//3
f 2//2 6//6 10//10
f 2//2 10//10 11//11
f 2//2 11//11 12//12
f 2//2 12//12 9//9
f 7//7 9//9 13//13
f 7//7 13//13 14//14
f 7//7 14//14 8//8
f 9//9 15//15 13//13
f 9//9 12//12 16//16
f 9//9 16//16 15//15
f 13//13 15//15 17//17
f 13//13 17//17 18//18
f 13//13 18//18 14//14
f 15//15 16//16 17//17
f 17//17 19//19 18//18
f 17//17 16//16 20//20
f 17//17 20//20 19//19
f 4//4 3//3 21//21
f 4//4 22//22 23//23
f 4//4 21//21 22//22
f 4//4 23//23 5//5
f 3//3 8//8 24//24
f 3//3 24//24 21//21
f 8//8 14//14 25//25
f 8//8 25//25 24//24
f 22//22 21//21 26//26
f 22//22 26//26 27//27
f 22//22 28//28 23//23
f 22//22 29//29 28//28
f 22//22 27//27 29//29
f 14//14 18//18 30//30
f 14//14 30//30 25//25
f 18//18 19//19 31//31
f 18//18 32//32 33//33
f 18//18 31//31 32//32
f 18//18 33//33 30//30
f 19//19 34//34 31//31
f 19//19 35//35 34//34
f 19//19 36//36 35//35
f 19//19 20//20 37//37
f 19//19 37//37 36//36
f 32//32 31//31 38//38
f 32//32 38//38 33//33
f 31//31 34//34 39//39
f 31//31 39//39 38//38
f 34//34 35//35 40//40
f 34//34 40//40 39//39
f 35//35 36//36 41//41
f 35//35 41//41 40//40
f 36//36 42//42 41//41
f 36//36 37//37 42//42
f 42//42 43//43 41//41
f 42//42 37//37 44//44
f 42//42 45//45 46//46
f 42//42 44//44 45//45
f 42//42 46//46 43//43
f 21//21 24//24 26//26
f 24//24 25//25 47//47
f 24//24 47//47 48//48
f 24//24 49//49 26//26
f 24//24 48//48 49//49
f 25//25 30//30 47//47
f 47//47 30//30 33//33
f 47//47 50//50 51//51
f 47//47 52//52 50//50
f 47//47 33//33 38//38
f 47//47 38//38 52//52
f 47//47 51//51 48//48
f 50//50 52//52 53//53
f 50//50 53//53 51//51
f 52//52 38//38 54//54
f 52//52 54//54 53//53
f 38//38 39//39 55//55
f 38//38 55//55 54//54
f 39//39 40//40 56//56
f 39//39 56//56 55//55
f 40//40 41//41 43//43
f 40//40 43//43 56//56
f 26//26 49//49 27//27
f 49//49 48//48 57//57
f 49//49 57//57 27//27
f 48//48 51//51 53//53
f 48//48 53//53 54//54
f 48//48 54//54 58//58
f 48//48 58//58 57//57
f 54//54 55//55 58//58
f 55//55 56//56 46//46
f 55//55 46//46 58//58
f 56//56 43//43 46//46
f 59//59 6//6 5//5
f 59//59 60//60 6//6
f 59//59 23//23 60//60
f 59//59 5//5 23//23
f 6//6 11//11 10//10
f 6//6 60//60 61//61
f 6//6 61//61 62//62
f 6//6 62//62 11//11
f 11//11 62//62 63//63
f 11//11 63//63 12//12
f 12//12 63//63 64//64
f 12//12 64//64 16//16
f 16//16 64//64 20//20
f 60//60 23//23 28//28
f 60//60 28//28 29//29
f 60//60 29//29 61//61
f 61//61 65//65 66//66
f 61//61 66//66 62//62
f 61//61 29//29 67//67
f 61//61 67//67 65//65
f 65//65 68//68 66//66
f 65//65 63//63 68//68
f 65//65 69//69 63//63
f 65//65 64//64 69//69
f 65//65 67//67 70//70
f 65//65 70//70 64//64
f 66//66 68//68 62//62
f 68//68 63//63 62//62
f 63//63 69//69 64//64
f 64//64 70//70 71//71
f 64//64 71//71 20//20
f 29//29 27//27 67//67
f 67//67 27//27 72//72
f 67//67 72//72 70//70
f 20//20 71//71 44//44
f 20//20 44//44 37//37
f 70//70 73//73 71//71
f 70//70 74//74 73//73
f 70//70 72//72 75//75
f 70//70 75//75 74//74
f 71//71 73//73 44//44
f 73//73 74//74 45//45
f 73//73 45//45 44//44
f 74//74 75//75 46//46
f 74//74 46//46 45//45
f 27//27 76//76 72//72
f 27//27 57//57 76//76
f 72//72 76//76 77//77
f 72//72 77//77 58//58
f 72//72 58//58 75//75
f 76//76 57//57 77//77
f 77//77 57//57 78//78
f 77//77 78//78 58//58
f 57//57 58//58 78//78
f 58//58 46//46 75//75
# 152 faces, 0 coords texture

# End of File
