####
#
# OBJ File Generated by Meshlab
#
####
# Object step_45_link_4.obj
#
# Vertices: 68
# Faces: 132
#
####
vn 4.588275 1.457449 -2.050837
v 0.077289 0.082894 0.441022
vn 2.278562 1.918769 -3.483197
v 0.077027 0.083096 0.440794
vn 5.255813 2.226965 -0.460758
v 0.088678 0.124164 0.646913
vn 4.453241 -1.613425 -1.830096
v 0.077289 -0.017829 0.441022
vn 2.047030 -1.984041 -3.713261
v 0.077027 -0.017988 0.440794
vn 6.163374 -0.794889 -0.097478
v 0.088678 0.022721 0.646913
vn 2.205962 4.240895 -2.932078
v 0.075747 0.084120 0.440987
vn 3.042356 5.208476 -0.590606
v 0.085843 0.126741 0.646705
vn 1.086633 4.325407 -3.344557
v 0.074983 0.084323 0.440872
vn 0.581812 4.000262 -3.529273
v 0.074974 0.084323 0.440870
vn 0.285448 3.510202 -4.284112
v 0.074966 0.084322 0.440869
vn 0.136090 2.016173 -5.786333
v 0.074960 0.084321 0.440868
vn 0.028715 0.842890 -6.208036
v 0.074954 0.084319 0.440868
vn -0.097827 0.151724 -6.275074
v -0.024234 0.083096 0.440794
vn 4.253861 4.492935 -1.082642
v 0.088164 0.124553 0.646441
vn 1.595716 4.989430 -2.847001
v 0.074993 0.084321 0.440875
vn 1.539706 5.973886 -0.653957
v 0.084407 0.127218 0.646438
vn 1.987143 5.884041 -0.619978
v 0.084425 0.127213 0.646444
vn 0.712830 6.121669 -0.656560
v 0.084391 0.127221 0.646433
vn -0.350453 5.971018 -1.714502
v -0.025899 0.084323 0.440870
vn -2.245115 5.068809 -0.403484
v -0.017818 0.127221 0.646430
vn 0.144694 6.198299 -0.692225
v 0.084378 0.127221 0.646430
vn -1.896235 3.915260 -2.495285
v -0.025901 0.084322 0.440869
vn -2.357720 2.292187 -3.736028
v -0.025902 0.084321 0.440868
vn -1.825793 0.637388 -5.520041
v -0.025902 0.084319 0.440868
vn 3.542165 -4.975748 0.378487
v 0.076913 -0.018234 0.541436
vn 5.215289 -3.089344 0.197077
v 0.077289 -0.017829 0.541587
vn 4.495749 -1.524103 1.840086
v 0.088678 0.022721 0.748080
vn 1.291076 -5.869454 0.514530
v 0.075867 -0.018738 0.541357
vn 3.331573 -4.854468 -1.006591
v 0.076913 -0.018234 0.441176
vn 3.361324 -4.939635 1.331555
v 0.087932 0.021944 0.747768
vn 0.883278 -4.521769 2.813904
v 0.085945 0.020942 0.747695
vn 0.794930 -4.293305 -2.398721
v 0.075867 -0.018738 0.441150
vn -1.870409 -5.462501 0.550374
v -0.025154 -0.018738 0.541357
vn -1.416235 -3.710472 2.889202
v -0.016317 0.020942 0.747695
vn -0.078345 -1.304703 -5.977129
v -0.024234 -0.017988 0.440794
vn -1.151080 -4.050285 -2.204716
v -0.025154 -0.018738 0.441150
vn -6.229275 0.534572 0.067830
v -0.026085 0.084120 0.541348
vn -4.412144 1.184600 -2.129064
v -0.026085 0.084120 0.440987
vn -4.922402 -2.524111 0.341891
v -0.026085 -0.018010 0.541348
vn -3.150294 -1.299760 2.539554
v -0.018189 0.022497 0.747741
vn -3.225702 1.161785 2.502228
v -0.018189 0.126741 0.747741
vn -5.546285 2.522736 -0.117120
v -0.018189 0.126741 0.646705
vn -0.350328 0.045548 -6.270889
v -0.025901 0.084317 0.440868
vn -0.384509 -0.020876 -6.269970
v -0.025901 -0.018111 0.440868
vn -1.830143 -0.437535 -5.657287
v -0.025902 -0.018113 0.440868
vn -3.940073 -1.650135 -1.826360
v -0.026085 -0.018010 0.440987
vn -4.725562 4.052511 -0.469925
v -0.017820 0.127219 0.646428
vn -2.135930 -3.168182 -3.747688
v -0.025901 -0.018118 0.440869
vn -2.115891 -1.637782 -5.022865
v -0.025902 -0.018116 0.440868
vn -3.311499 -4.833193 -2.049999
v -0.025899 -0.018120 0.440870
vn 4.528756 1.502356 1.769394
v 0.088678 0.124164 0.748080
vn 2.229257 1.928422 3.467305
v 0.088164 0.124553 0.748532
vn 2.018763 -2.028475 3.581820
v 0.088164 0.022391 0.748532
vn 4.369692 4.423297 0.386939
v 0.088288 0.124635 0.747627
vn 2.103985 4.136619 2.327000
v 0.085843 0.126741 0.747741
vn 1.031639 3.341316 5.147749
v 0.084445 0.127205 0.747742
vn 0.976607 3.906744 2.967871
v 0.084425 0.127213 0.747740
vn 0.694669 3.952073 2.886164
v 0.084407 0.127218 0.747739
vn -0.450196 0.715073 6.101822
v -0.014439 0.124553 0.748532
vn 4.398110 4.401014 -0.371648
v 0.088288 0.124635 0.647338
vn 0.285403 4.672202 2.591907
v 0.084391 0.127221 0.747737
vn -0.442753 1.895096 5.819400
v -0.017809 0.127218 0.747739
vn 0.029029 6.243472 0.479113
v 0.084378 0.127221 0.747736
vn -0.690097 3.475695 3.520373
v -0.017815 0.127221 0.747737
vn -1.998093 3.574447 1.947738
v -0.017818 0.127221 0.747736
vn -0.456283 -1.391987 5.801617
v -0.014439 0.022391 0.748532
vn -4.935720 3.884090 0.088928
v -0.017820 0.127219 0.747735
# 68 vertices, 0 vertices normals

f 1//1 2//2 3//3
f 1//1 4//4 5//5
f 1//1 5//5 2//2
f 1//1 3//3 6//6
f 1//1 6//6 4//4
f 2//2 7//7 8//8
f 2//2 9//9 7//7
f 2//2 10//10 9//9
f 2//2 11//11 10//10
f 2//2 12//12 11//11
f 2//2 13//13 12//12
f 2//2 5//5 14//14
f 2//2 14//14 13//13
f 2//2 15//15 3//3
f 2//2 8//8 15//15
f 7//7 16//16 17//17
f 7//7 9//9 16//16
f 7//7 18//18 8//8
f 7//7 17//17 18//18
f 16//16 9//9 19//19
f 16//16 19//19 17//17
f 9//9 10//10 19//19
f 10//10 11//11 20//20
f 10//10 20//20 21//21
f 10//10 22//22 19//19
f 10//10 21//21 22//22
f 11//11 12//12 23//23
f 11//11 23//23 20//20
f 12//12 13//13 24//24
f 12//12 24//24 23//23
f 13//13 14//14 25//25
f 13//13 25//25 24//24
f 26//26 27//27 28//28
f 26//26 29//29 30//30
f 26//26 30//30 27//27
f 26//26 31//31 32//32
f 26//26 28//28 31//31
f 26//26 32//32 29//29
f 27//27 30//30 4//4
f 27//27 4//4 6//6
f 27//27 6//6 28//28
f 29//29 33//33 30//30
f 29//29 34//34 33//33
f 29//29 32//32 35//35
f 29//29 35//35 34//34
f 30//30 5//5 4//4
f 30//30 33//33 5//5
f 5//5 33//33 36//36
f 5//5 36//36 14//14
f 33//33 34//34 37//37
f 33//33 37//37 36//36
f 38//38 39//39 40//40
f 38//38 40//40 41//41
f 38//38 42//42 43//43
f 38//38 43//43 39//39
f 38//38 41//41 42//42
f 14//14 44//44 25//25
f 14//14 36//36 45//45
f 14//14 45//45 44//44
f 39//39 23//23 24//24
f 39//39 24//24 25//25
f 39//39 25//25 46//46
f 39//39 47//47 40//40
f 39//39 46//46 47//47
f 39//39 43//43 48//48
f 39//39 48//48 23//23
f 20//20 23//23 21//21
f 23//23 48//48 21//21
f 25//25 44//44 45//45
f 25//25 45//45 46//46
f 34//34 40//40 37//37
f 34//34 35//35 40//40
f 40//40 47//47 37//37
f 40//40 35//35 41//41
f 36//36 37//37 49//49
f 36//36 49//49 50//50
f 36//36 50//50 46//46
f 36//36 46//46 45//45
f 37//37 47//47 51//51
f 37//37 51//51 49//49
f 47//47 49//49 51//51
f 47//47 50//50 49//49
f 47//47 46//46 50//50
f 52//52 53//53 54//54
f 52//52 55//55 53//53
f 52//52 3//3 55//55
f 52//52 28//28 3//3
f 52//52 54//54 28//28
f 53//53 55//55 56//56
f 53//53 56//56 57//57
f 53//53 57//57 58//58
f 53//53 58//58 59//59
f 53//53 59//59 60//60
f 53//53 60//60 54//54
f 55//55 3//3 61//61
f 55//55 61//61 56//56
f 56//56 58//58 57//57
f 56//56 61//61 8//8
f 56//56 8//8 58//58
f 58//58 8//8 18//18
f 58//58 18//18 59//59
f 59//59 62//62 63//63
f 59//59 18//18 17//17
f 59//59 17//17 62//62
f 59//59 63//63 60//60
f 62//62 64//64 65//65
f 62//62 17//17 19//19
f 62//62 19//19 64//64
f 62//62 65//65 63//63
f 64//64 19//19 22//22
f 64//64 22//22 66//66
f 64//64 66//66 65//65
f 3//3 15//15 61//61
f 3//3 28//28 6//6
f 15//15 8//8 61//61
f 22//22 21//21 66//66
f 31//31 28//28 54//54
f 31//31 54//54 32//32
f 54//54 60//60 67//67
f 54//54 67//67 32//32
f 32//32 67//67 35//35
f 60//60 42//42 41//41
f 60//60 63//63 42//42
f 60//60 41//41 67//67
f 42//42 63//63 65//65
f 42//42 65//65 66//66
f 42//42 66//66 68//68
f 42//42 68//68 43//43
f 66//66 21//21 68//68
f 68//68 21//21 48//48
f 68//68 48//48 43//43
f 67//67 41//41 35//35
# 132 faces, 0 coords texture

# End of File
