####
#
# OBJ File Generated by Meshlab
#
####
# Object step_23_link_6.obj
#
# Vertices: 70
# Faces: 136
#
####
vn 3.307857 4.007118 1.727170
v 0.341723 -0.026140 0.628333
vn 1.454291 3.164924 2.552596
v 0.331801 -0.022907 0.637410
vn 4.472151 2.235117 3.275007
v 0.405517 -0.080963 0.589132
vn 1.726446 4.720011 -1.977270
v 0.341723 -0.026140 0.525446
vn 0.666404 5.855216 -1.089340
v 0.331801 -0.022907 0.531606
vn 4.649396 1.855911 1.262090
v 0.414013 -0.085063 0.578345
vn 2.656145 0.511281 5.497780
v 0.331588 -0.024586 0.637813
vn 4.246024 0.457093 4.394114
v 0.405425 -0.082523 0.589645
vn 0.666046 1.216329 5.816201
v 0.330377 -0.024368 0.638161
vn -1.048320 4.232153 2.230336
v 0.220846 -0.022907 0.637410
vn 0.634334 -1.700744 5.495347
v 0.330377 -0.132660 0.638161
vn 2.365247 -0.795887 5.556861
v 0.331588 -0.132503 0.637813
vn -1.665621 1.636019 4.834158
v 0.219403 -0.024368 0.638161
vn 0.156644 4.962930 -3.572219
v 0.337545 -0.025802 0.525612
vn 2.502589 1.581562 -2.170303
v 0.414013 -0.085063 0.473732
vn -0.754549 4.155921 -4.098421
v 0.234178 -0.025802 0.525612
vn 0.150000 2.286207 -5.471910
v 0.411443 -0.085351 0.473439
vn -0.526887 1.923168 -5.423931
v 0.305009 -0.085351 0.473439
vn -1.881557 3.338385 -2.240051
v 0.220846 -0.022907 0.531606
vn 1.147087 -3.480660 4.110313
v 0.403925 -0.193828 0.590275
vn 3.612517 -1.338565 4.369905
v 0.405425 -0.193588 0.589645
vn -1.548363 -1.922637 4.514107
v 0.219403 -0.132660 0.638161
vn -0.319221 -4.786692 3.684176
v 0.290011 -0.193828 0.590275
vn -3.090045 4.487048 2.016115
v 0.218797 -0.024273 0.637705
vn -4.452817 2.417783 -1.521889
v 0.218797 -0.024273 0.533308
vn -3.786056 1.963154 2.028961
v 0.218787 -0.024281 0.637707
vn -3.945229 -1.852314 2.068329
v 0.218787 -0.132714 0.637707
vn -5.031047 2.136517 -0.687126
v 0.218787 -0.024281 0.533336
vn -5.823348 0.229683 1.483615
v 0.218786 -0.024291 0.637705
vn -5.825666 -0.211151 1.492680
v 0.218786 -0.132703 0.637705
vn -6.253703 0.351708 -0.110872
v 0.218786 -0.024291 0.533359
vn -1.788209 2.648243 -5.404804
v 0.234263 -0.026739 0.525100
vn -1.838494 2.457626 -5.398283
v 0.303900 -0.084959 0.473931
vn -3.882220 0.708539 -4.738966
v 0.220149 -0.024586 0.531737
vn -4.576681 0.696303 -4.128869
v 0.219546 -0.024636 0.532334
vn -4.499735 1.616711 -4.075032
v 0.218851 -0.024265 0.533240
vn -4.680405 1.877341 -3.022140
v 0.218817 -0.024267 0.533276
vn -2.039363 0.937134 -5.618152
v 0.304262 -0.085489 0.473596
vn -2.890220 1.154151 -5.453712
v 0.291107 -0.080963 0.481426
vn -3.236650 0.431118 -5.322694
v 0.290314 -0.082523 0.481574
vn -4.121086 -0.634406 -4.582337
v 0.220149 -0.132503 0.531737
vn -4.574868 -0.780916 -4.095089
v 0.219546 -0.132433 0.532334
vn -4.789457 -1.733711 -3.048862
v 0.218817 -0.132730 0.533276
vn -4.739198 -2.203815 -1.573745
v 0.218797 -0.132723 0.533308
vn -5.196164 -1.988993 -0.698957
v 0.218787 -0.132714 0.533336
vn -6.257333 -0.322691 -0.112479
v 0.218786 -0.132703 0.533359
vn -3.227123 -4.295253 2.098909
v 0.218797 -0.132723 0.637705
vn -2.218835 -4.903035 1.704127
v 0.289395 -0.193955 0.589928
vn -3.465364 -1.602352 -4.568684
v 0.290314 -0.193588 0.481574
vn -4.115097 -2.617040 -3.485292
v 0.289624 -0.193480 0.482187
vn -4.522876 -1.758355 -3.986282
v 0.218851 -0.132734 0.533240
vn -3.060320 -4.704260 -1.197100
v 0.289411 -0.193961 0.483225
vn -3.484063 -4.985800 -0.458253
v 0.289395 -0.193955 0.483264
vn 3.747377 -2.343709 1.069925
v 0.414013 -0.191545 0.578345
vn 0.766511 0.209281 -6.158018
v 0.412353 -0.087462 0.473277
vn 0.786542 -0.141939 -6.164394
v 0.412353 -0.188834 0.473277
vn -0.058880 0.212323 -6.272969
v 0.310375 -0.087462 0.473277
vn 2.381721 -1.705105 -1.859420
v 0.414013 -0.191545 0.473732
vn 2.092326 -3.813877 2.035438
v 0.405517 -0.194337 0.589132
vn 0.799519 -6.079386 -0.426211
v 0.405517 -0.194337 0.481426
vn -0.442040 -5.958265 1.078599
v 0.291107 -0.194337 0.589132
vn 0.599686 -2.211948 -5.395698
v 0.411443 -0.191923 0.473439
vn -0.063344 -0.137587 -6.277814
v 0.310375 -0.188834 0.473277
vn 0.751024 -4.560009 -2.644994
v 0.410169 -0.192800 0.473931
vn -0.635642 -1.380953 -5.778467
v 0.305009 -0.191923 0.473439
vn -1.165058 -3.156246 -3.504017
v 0.303900 -0.192800 0.473931
vn -1.672376 -4.042436 -2.386125
v 0.291107 -0.194337 0.481426
vn -2.223811 -0.228950 -5.768473
v 0.304262 -0.191247 0.473596
vn -1.212980 -5.723850 1.324994
v 0.289411 -0.193961 0.589918
vn -3.673338 -4.447090 -2.379282
v 0.289441 -0.193963 0.483181
# 70 vertices, 0 vertices normals

f 1//1 2//2 3//3
f 1//1 4//4 5//5
f 1//1 5//5 2//2
f 1//1 6//6 4//4
f 1//1 3//3 6//6
f 2//2 7//7 8//8
f 2//2 9//9 7//7
f 2//2 5//5 10//10
f 2//2 10//10 9//9
f 2//2 8//8 3//3
f 7//7 9//9 11//11
f 7//7 12//12 8//8
f 7//7 11//11 12//12
f 9//9 10//10 13//13
f 9//9 13//13 11//11
f 4//4 14//14 5//5
f 4//4 6//6 15//15
f 4//4 15//15 14//14
f 14//14 16//16 5//5
f 14//14 15//15 17//17
f 14//14 17//17 18//18
f 14//14 18//18 16//16
f 5//5 16//16 19//19
f 5//5 19//19 10//10
f 12//12 11//11 20//20
f 12//12 21//21 8//8
f 12//12 20//20 21//21
f 11//11 13//13 22//22
f 11//11 22//22 23//23
f 11//11 23//23 20//20
f 10//10 24//24 13//13
f 10//10 19//19 25//25
f 10//10 25//25 24//24
f 13//13 24//24 26//26
f 13//13 26//26 27//27
f 13//13 27//27 22//22
f 24//24 25//25 28//28
f 24//24 28//28 26//26
f 26//26 29//29 30//30
f 26//26 28//28 31//31
f 26//26 31//31 29//29
f 26//26 30//30 27//27
f 29//29 31//31 30//30
f 32//32 16//16 33//33
f 32//32 19//19 16//16
f 32//32 33//33 19//19
f 16//16 18//18 33//33
f 19//19 34//34 35//35
f 19//19 35//35 36//36
f 19//19 36//36 37//37
f 19//19 37//37 25//25
f 19//19 38//38 39//39
f 19//19 33//33 38//38
f 19//19 39//39 40//40
f 19//19 40//40 34//34
f 34//34 41//41 42//42
f 34//34 42//42 35//35
f 34//34 40//40 41//41
f 35//35 37//37 36//36
f 35//35 42//42 43//43
f 35//35 43//43 37//37
f 37//37 43//43 44//44
f 37//37 44//44 25//25
f 25//25 44//44 45//45
f 25//25 45//45 28//28
f 28//28 45//45 46//46
f 28//28 46//46 31//31
f 31//31 46//46 30//30
f 22//22 47//47 48//48
f 22//22 27//27 47//47
f 22//22 48//48 23//23
f 47//47 27//27 45//45
f 47//47 44//44 48//48
f 47//47 45//45 44//44
f 27//27 30//30 46//46
f 27//27 46//46 45//45
f 41//41 40//40 49//49
f 41//41 49//49 50//50
f 41//41 50//50 42//42
f 42//42 51//51 43//43
f 42//42 50//50 51//51
f 51//51 50//50 43//43
f 43//43 50//50 52//52
f 43//43 52//52 44//44
f 44//44 52//52 53//53
f 44//44 53//53 48//48
f 6//6 3//3 8//8
f 6//6 8//8 21//21
f 6//6 54//54 15//15
f 6//6 21//21 54//54
f 55//55 15//15 56//56
f 55//55 17//17 15//15
f 55//55 56//56 57//57
f 55//55 57//57 17//17
f 15//15 54//54 58//58
f 15//15 58//58 56//56
f 17//17 57//57 18//18
f 54//54 59//59 60//60
f 54//54 21//21 59//59
f 54//54 60//60 58//58
f 59//59 21//21 20//20
f 59//59 20//20 61//61
f 59//59 61//61 60//60
f 20//20 23//23 61//61
f 56//56 58//58 62//62
f 56//56 62//62 63//63
f 56//56 63//63 57//57
f 58//58 64//64 62//62
f 58//58 60//60 64//64
f 62//62 64//64 65//65
f 62//62 65//65 63//63
f 64//64 60//60 66//66
f 64//64 66//66 65//65
f 60//60 61//61 67//67
f 60//60 67//67 66//66
f 57//57 63//63 18//18
f 18//18 38//38 33//33
f 18//18 63//63 65//65
f 18//18 65//65 68//68
f 18//18 68//68 38//38
f 38//38 40//40 39//39
f 38//38 68//68 49//49
f 38//38 49//49 40//40
f 61//61 23//23 69//69
f 61//61 69//69 52//52
f 61//61 52//52 67//67
f 23//23 48//48 69//69
f 69//69 48//48 53//53
f 69//69 53//53 52//52
f 65//65 66//66 68//68
f 68//68 66//66 49//49
f 66//66 67//67 49//49
f 67//67 50//50 49//49
f 67//67 70//70 50//50
f 67//67 52//52 70//70
f 50//50 70//70 52//52
# 136 faces, 0 coords texture

# End of File
