####
#
# OBJ File Generated by Meshlab
#
####
# Object step_33_link_5.obj
#
# Vertices: 75
# Faces: 146
#
####
vn 1.990054 2.509450 4.491639
v 0.139662 0.110471 0.742478
vn 1.646660 0.799944 5.837987
v 0.137996 0.109688 0.743209
vn 2.740047 -0.634437 5.562189
v 0.139662 0.007766 0.742478
vn 0.362688 3.156311 3.463285
v 0.133223 0.111336 0.743869
vn 3.699966 0.415284 4.930896
v 0.324344 0.103368 0.645411
vn 3.099287 0.398829 5.446896
v 0.323087 0.108476 0.645759
vn 3.787098 1.937583 2.216355
v 0.320759 0.121531 0.646106
vn 1.958863 3.889056 2.000052
v 0.319623 0.122552 0.646289
vn 0.859593 0.167386 6.218695
v 0.132771 0.109951 0.743994
vn 0.839711 -0.322991 6.208749
v 0.132771 0.008002 0.743994
vn 1.316387 -2.347894 4.662862
v 0.137996 0.007301 0.743209
vn 0.692489 0.191326 6.235177
v 0.132744 0.109939 0.743998
vn 0.466195 0.238724 6.251432
v 0.132720 0.109927 0.744000
vn 0.242104 0.279407 6.259490
v 0.132699 0.109916 0.744002
vn -1.419517 2.711763 2.223820
v 0.027960 0.111336 0.743869
vn -0.128559 6.258338 0.301667
v 0.207919 0.122552 0.646289
vn 0.662337 -0.408328 6.214942
v 0.132744 0.008008 0.743998
vn 0.402703 -0.528110 6.215494
v 0.132720 0.008015 0.744000
vn 0.106939 0.223585 6.269941
v 0.132682 0.109906 0.744003
vn 0.219674 -0.562786 6.218624
v 0.132699 0.008022 0.744002
vn -0.064267 0.602897 6.252905
v 0.026978 0.109916 0.744002
vn 0.017371 0.034312 6.282833
v 0.132667 0.109897 0.744003
vn 0.101599 -0.324835 6.259901
v 0.132682 0.008029 0.744003
vn -2.451722 1.872877 3.769724
v 0.026967 0.109906 0.744003
vn 0.016488 -0.046256 6.282651
v 0.132667 0.008036 0.744003
vn -2.787306 1.342772 2.825598
v 0.026960 0.109897 0.744003
vn 4.297217 -0.556301 2.817903
v 0.324622 -0.003285 0.645242
vn 3.082702 -0.016603 5.471120
v 0.324344 -0.001143 0.645411
vn 0.579583 -5.522881 2.316229
v 0.137969 0.006899 0.742656
vn 2.482807 -2.530785 1.263478
v 0.324535 -0.005554 0.644527
vn 0.311397 -3.204907 4.159849
v 0.133223 0.007328 0.743869
vn -0.161363 -6.098631 1.098314
v 0.035095 0.006899 0.742656
vn -0.135153 -6.253404 0.334661
v 0.222924 -0.005554 0.644527
vn -1.058638 -3.414153 2.538644
v 0.027960 0.007328 0.743869
vn -0.831339 -2.058927 5.627644
v 0.026978 0.008022 0.744002
vn -2.026759 -2.416976 2.930425
v 0.026967 0.008029 0.744003
vn -2.624671 -1.589535 2.741929
v 0.026960 0.008036 0.744003
vn -2.455075 3.732477 -1.716227
v 0.027960 0.111336 0.642411
vn -4.164843 1.564822 -2.488086
v 0.026960 0.109897 0.642385
vn -3.554931 0.464608 2.812833
v 0.026958 0.109890 0.744003
vn -4.771865 0.504699 -2.348973
v 0.026958 0.109890 0.642387
vn -3.525695 -0.552930 2.757190
v 0.026958 0.008042 0.744003
vn -4.024709 2.527812 -2.959884
v 0.026967 0.109906 0.642384
vn -0.357789 3.105039 -3.055230
v 0.207919 0.122552 0.540588
vn -1.344965 5.786949 -1.929390
v 0.206432 0.122330 0.540855
vn -1.978329 3.392711 -3.943588
v 0.206431 0.122327 0.540847
vn -3.931592 -1.857012 -2.426200
v 0.026960 0.008036 0.642385
vn -2.043000 1.108901 -5.569547
v 0.206439 0.122315 0.540839
vn -2.566892 -0.109692 -5.691174
v 0.206439 0.016246 0.540839
vn -4.737391 -0.608814 -2.295416
v 0.026958 0.008042 0.642387
vn -3.347905 -3.253772 -2.496239
v 0.026967 0.008029 0.642384
vn -2.015513 -4.773169 -1.693711
v 0.027960 0.007328 0.642411
vn -2.839120 -3.973629 -3.808328
v 0.026978 0.008022 0.642382
vn -1.194439 -2.756538 -4.744827
v 0.219370 -0.003285 0.542685
vn -0.357898 -4.531900 -2.704674
v 0.222924 -0.005554 0.543871
vn -1.536892 -1.237656 -5.611636
v 0.207919 0.013537 0.540588
vn -2.553466 -0.842199 -5.644281
v 0.206487 0.016115 0.540830
vn -2.334692 -0.411661 -5.726060
v 0.206457 0.016186 0.540834
vn 4.733597 0.349911 2.486543
v 0.324622 0.102623 0.645242
vn 5.179197 0.360937 -2.159749
v 0.324622 0.102623 0.542685
vn 3.321148 1.631020 -2.407101
v 0.320759 0.121531 0.540864
vn 1.160240 2.685653 -2.399922
v 0.319623 0.122552 0.540588
vn 3.796340 0.310571 -4.708041
v 0.324344 0.103368 0.542440
vn 2.791959 -0.939323 -2.921066
v 0.324622 -0.003285 0.542685
vn 2.321419 -0.307830 -5.473375
v 0.324344 -0.001143 0.542440
vn 1.764037 -0.203756 -5.970339
v 0.320759 0.012316 0.540864
vn 0.835585 0.087082 -6.158734
v 0.319587 0.120942 0.540531
vn 0.816713 -0.086469 -6.161136
v 0.319587 0.014821 0.540531
vn -0.720317 0.102719 -6.188867
v 0.207697 0.120942 0.540531
vn 2.050443 -2.392732 -1.422395
v 0.324535 -0.005554 0.543871
vn 0.273152 -0.708467 -6.229024
v 0.322746 0.001521 0.542036
vn 0.551871 -0.414856 -6.202342
v 0.319623 0.013537 0.540588
vn -0.057963 -0.820694 -6.228323
v 0.218354 0.001521 0.542036
vn -1.036489 -0.315538 -6.077670
v 0.207697 0.014821 0.540531
vn -1.493644 0.281039 -6.070652
v 0.206457 0.122293 0.540834
# 75 vertices, 0 vertices normals

f 1//1 2//2 3//3
f 1//1 4//4 2//2
f 1//1 3//3 5//5
f 1//1 5//5 6//6
f 1//1 6//6 7//7
f 1//1 7//7 8//8
f 1//1 8//8 4//4
f 2//2 4//4 9//9
f 2//2 9//9 10//10
f 2//2 11//11 3//3
f 2//2 10//10 11//11
f 4//4 12//12 9//9
f 4//4 13//13 12//12
f 4//4 14//14 13//13
f 4//4 15//15 14//14
f 4//4 8//8 16//16
f 4//4 16//16 15//15
f 9//9 12//12 10//10
f 12//12 13//13 17//17
f 12//12 17//17 10//10
f 13//13 14//14 18//18
f 13//13 18//18 17//17
f 14//14 19//19 20//20
f 14//14 20//20 18//18
f 14//14 15//15 21//21
f 14//14 21//21 19//19
f 19//19 22//22 23//23
f 19//19 23//23 20//20
f 19//19 21//21 24//24
f 19//19 24//24 22//22
f 22//22 25//25 23//23
f 22//22 24//24 26//26
f 22//22 26//26 25//25
f 3//3 11//11 27//27
f 3//3 27//27 28//28
f 3//3 28//28 5//5
f 11//11 29//29 30//30
f 11//11 31//31 29//29
f 11//11 10//10 31//31
f 11//11 30//30 27//27
f 29//29 31//31 32//32
f 29//29 32//32 33//33
f 29//29 33//33 30//30
f 31//31 10//10 17//17
f 31//31 17//17 18//18
f 31//31 18//18 20//20
f 31//31 20//20 34//34
f 31//31 34//34 32//32
f 20//20 23//23 35//35
f 20//20 35//35 34//34
f 23//23 25//25 36//36
f 23//23 36//36 35//35
f 25//25 26//26 37//37
f 25//25 37//37 36//36
f 15//15 24//24 21//21
f 15//15 26//26 24//24
f 15//15 38//38 39//39
f 15//15 39//39 26//26
f 15//15 16//16 38//38
f 26//26 40//40 37//37
f 26//26 39//39 41//41
f 26//26 41//41 40//40
f 40//40 41//41 42//42
f 40//40 42//42 37//37
f 38//38 43//43 39//39
f 38//38 16//16 44//44
f 38//38 44//44 45//45
f 38//38 46//46 43//43
f 38//38 45//45 46//46
f 43//43 46//46 39//39
f 39//39 47//47 41//41
f 39//39 48//48 49//49
f 39//39 46//46 48//48
f 39//39 49//49 47//47
f 41//41 47//47 50//50
f 41//41 50//50 42//42
f 32//32 34//34 33//33
f 34//34 35//35 36//36
f 34//34 36//36 51//51
f 34//34 52//52 33//33
f 34//34 51//51 52//52
f 36//36 37//37 47//47
f 36//36 47//47 51//51
f 37//37 42//42 50//50
f 37//37 50//50 47//47
f 52//52 53//53 54//54
f 52//52 51//51 53//53
f 52//52 55//55 33//33
f 52//52 54//54 55//55
f 53//53 51//51 54//54
f 51//51 47//47 56//56
f 51//51 56//56 54//54
f 47//47 57//57 56//56
f 47//47 58//58 57//57
f 47//47 49//49 58//58
f 59//59 5//5 28//28
f 59//59 7//7 5//5
f 59//59 60//60 7//7
f 59//59 27//27 60//60
f 59//59 28//28 27//27
f 5//5 7//7 6//6
f 7//7 60//60 61//61
f 7//7 61//61 8//8
f 8//8 61//61 62//62
f 8//8 62//62 16//16
f 60//60 63//63 61//61
f 60//60 27//27 64//64
f 60//60 64//64 65//65
f 60//60 65//65 63//63
f 63//63 65//65 66//66
f 63//63 66//66 61//61
f 61//61 67//67 62//62
f 61//61 66//66 68//68
f 61//61 68//68 67//67
f 62//62 67//67 44//44
f 62//62 44//44 16//16
f 67//67 68//68 69//69
f 67//67 69//69 44//44
f 30//30 70//70 27//27
f 30//30 33//33 70//70
f 27//27 70//70 64//64
f 70//70 33//33 55//55
f 70//70 55//55 64//64
f 64//64 71//71 65//65
f 64//64 55//55 54//54
f 64//64 54//54 71//71
f 65//65 71//71 72//72
f 65//65 72//72 66//66
f 71//71 54//54 73//73
f 71//71 73//73 72//72
f 66//66 72//72 68//68
f 72//72 73//73 56//56
f 72//72 56//56 68//68
f 68//68 56//56 74//74
f 68//68 74//74 69//69
f 44//44 69//69 75//75
f 44//44 75//75 48//48
f 44//44 48//48 46//46
f 44//44 46//46 45//45
f 69//69 74//74 58//58
f 69//69 58//58 75//75
f 75//75 58//58 49//49
f 75//75 49//49 48//48
f 54//54 56//56 73//73
f 56//56 57//57 74//74
f 74//74 57//57 58//58
# 146 faces, 0 coords texture

# End of File
