####
#
# OBJ File Generated by Meshlab
#
####
# Object step_44_link_7.obj
#
# Vertices: 57
# Faces: 110
#
####
vn 3.168955 0.490846 4.757950
v 0.268674 0.336356 0.594900
vn 1.713135 1.682046 5.252816
v 0.259147 0.347894 0.596839
vn 0.801830 -0.483489 6.166675
v 0.259147 0.233805 0.596839
vn 1.634600 -2.304687 2.150339
v 0.268674 0.228636 0.594900
vn 4.964948 -1.668555 1.191045
v 0.401571 0.362128 0.403192
vn 5.170479 1.160186 1.700206
v 0.401571 0.517916 0.403192
vn 4.796749 2.319544 2.074050
v 0.390484 0.539367 0.408892
vn 3.022549 3.428381 1.970554
v 0.389027 0.541448 0.409616
vn 0.563675 2.009219 5.423200
v 0.258098 0.348198 0.596930
vn 0.179871 -1.082462 6.050321
v 0.258098 0.233734 0.596930
vn 1.089138 4.628698 2.314217
v 0.387546 0.541916 0.409978
vn 0.172087 3.867195 4.891782
v 0.256243 0.349217 0.596294
vn -0.387540 1.530352 5.759745
v 0.145806 0.348198 0.596930
vn -1.285466 2.450255 5.046543
v 0.144000 0.349217 0.596294
vn -1.942573 4.089381 1.545317
v 0.212980 0.541916 0.409978
vn -0.502982 -4.225246 2.617922
v 0.161486 0.228636 0.594900
vn 1.751222 -5.079153 -0.991983
v 0.268674 0.228636 0.490761
vn -0.714302 -2.327738 4.991209
v 0.145806 0.233734 0.596930
vn -0.831613 -5.620054 -1.477771
v 0.161486 0.228636 0.490761
vn -0.042016 -5.055048 -3.654579
v 0.245440 0.362128 0.253249
vn 2.407032 -1.717288 -2.071006
v 0.401571 0.362128 0.253249
vn -1.613345 0.369329 5.980814
v 0.145194 0.347894 0.596839
vn -4.074173 0.693393 2.617671
v 0.143776 0.348689 0.596259
vn -3.679892 -1.369933 2.176858
v 0.143776 0.234482 0.596259
vn -1.639423 -2.729377 3.527956
v 0.145194 0.233805 0.596839
vn -2.743744 2.672661 3.831384
v 0.143983 0.349224 0.596284
vn -5.050693 2.610461 1.732072
v 0.143976 0.349224 0.596273
vn -5.453713 2.896156 0.380333
v 0.212402 0.541105 0.409519
vn -6.006209 0.817553 -0.616140
v 0.143776 0.348689 0.490160
vn -4.774835 -2.158219 -1.197327
v 0.143776 0.234482 0.490160
vn -5.391162 1.694653 -1.266079
v 0.212402 0.541105 0.251460
vn -5.826144 -0.242742 -2.231696
v 0.212402 0.366402 0.251460
vn -1.819539 -5.942746 0.821380
v 0.145445 0.233666 0.596522
vn -3.038148 -4.556853 1.460839
v 0.144233 0.234016 0.596204
vn -3.144887 -4.678738 -1.227093
v 0.144233 0.234016 0.490181
vn -2.333522 -4.993592 -2.305646
v 0.145194 0.233805 0.489402
vn -2.637356 -2.108617 -3.325642
v 0.212772 0.365170 0.250894
vn -1.861269 -5.953389 -0.687527
v 0.145445 0.233666 0.489782
vn -0.516378 -4.394054 -4.158150
v 0.217882 0.364648 0.250521
vn 3.803066 0.781426 -2.548324
v 0.401571 0.517916 0.253249
vn 3.773218 2.477516 -2.674858
v 0.390484 0.539367 0.250656
vn 2.263045 3.228980 -2.330250
v 0.389027 0.541448 0.250894
vn 0.559461 3.664397 -2.775225
v 0.387546 0.541916 0.250818
vn 1.513963 0.893199 -5.652800
v 0.390107 0.537984 0.250000
vn 2.999996 1.650210 -5.160470
v 0.390338 0.538392 0.250239
vn 0.499684 -2.019165 -5.220625
v 0.390107 0.365138 0.250000
vn -0.254208 0.529902 -6.200719
v 0.219540 0.537984 0.250000
vn -1.496734 2.463648 -2.151817
v 0.212980 0.541916 0.250818
vn 0.005516 -4.593661 -4.286669
v 0.390060 0.364648 0.250521
vn -0.226954 -2.169432 -5.278164
v 0.219540 0.365138 0.250000
vn -3.047550 0.139886 -4.719480
v 0.212787 0.541019 0.250824
vn -3.060684 -0.073070 -4.733659
v 0.212787 0.366232 0.250824
vn -4.582419 1.145027 -3.667078
v 0.212772 0.541448 0.250894
vn -5.462504 0.710262 -2.875730
v 0.212418 0.541106 0.251428
vn -5.603935 -0.347619 -2.726315
v 0.212418 0.366372 0.251428
vn -0.725640 -3.299924 -5.294529
v 0.217022 0.364862 0.250500
vn -1.098562 -1.553592 -5.693469
v 0.212980 0.365247 0.250818
# 57 vertices, 0 vertices normals

f 1//1 2//2 3//3
f 1//1 4//4 5//5
f 1//1 3//3 4//4
f 1//1 6//6 7//7
f 1//1 7//7 8//8
f 1//1 8//8 2//2
f 1//1 5//5 6//6
f 2//2 9//9 10//10
f 2//2 10//10 3//3
f 2//2 8//8 11//11
f 2//2 11//11 9//9
f 9//9 12//12 13//13
f 9//9 13//13 10//10
f 9//9 11//11 12//12
f 12//12 14//14 13//13
f 12//12 11//11 15//15
f 12//12 15//15 14//14
f 4//4 3//3 10//10
f 4//4 10//10 16//16
f 4//4 17//17 5//5
f 4//4 16//16 17//17
f 10//10 13//13 18//18
f 10//10 18//18 16//16
f 17//17 16//16 19//19
f 17//17 19//19 20//20
f 17//17 21//21 5//5
f 17//17 20//20 21//21
f 22//22 13//13 14//14
f 22//22 23//23 24//24
f 22//22 14//14 23//23
f 22//22 25//25 18//18
f 22//22 18//18 13//13
f 22//22 24//24 25//25
f 23//23 14//14 26//26
f 23//23 26//26 27//27
f 23//23 27//27 28//28
f 23//23 29//29 24//24
f 23//23 28//28 29//29
f 14//14 15//15 26//26
f 26//26 15//15 27//27
f 27//27 15//15 28//28
f 29//29 30//30 24//24
f 29//29 28//28 31//31
f 29//29 31//31 32//32
f 29//29 32//32 30//30
f 16//16 25//25 33//33
f 16//16 18//18 25//25
f 16//16 33//33 34//34
f 16//16 34//34 35//35
f 16//16 35//35 19//19
f 25//25 34//34 33//33
f 25//25 24//24 34//34
f 34//34 24//24 30//30
f 34//34 30//30 35//35
f 19//19 36//36 37//37
f 19//19 38//38 36//36
f 19//19 35//35 38//38
f 19//19 39//39 20//20
f 19//19 37//37 39//39
f 36//36 38//38 35//35
f 36//36 35//35 37//37
f 35//35 30//30 37//37
f 30//30 32//32 37//37
f 6//6 40//40 41//41
f 6//6 41//41 7//7
f 6//6 5//5 40//40
f 7//7 41//41 42//42
f 7//7 42//42 8//8
f 8//8 42//42 43//43
f 8//8 43//43 11//11
f 11//11 43//43 15//15
f 40//40 44//44 45//45
f 40//40 45//45 41//41
f 40//40 5//5 21//21
f 40//40 21//21 46//46
f 40//40 46//46 44//44
f 44//44 41//41 45//45
f 44//44 42//42 41//41
f 44//44 43//43 42//42
f 44//44 46//46 47//47
f 44//44 47//47 43//43
f 43//43 47//47 48//48
f 43//43 48//48 15//15
f 21//21 49//49 46//46
f 21//21 20//20 49//49
f 46//46 49//49 50//50
f 46//46 50//50 47//47
f 49//49 20//20 39//39
f 49//49 39//39 50//50
f 15//15 48//48 31//31
f 15//15 31//31 28//28
f 47//47 51//51 48//48
f 47//47 50//50 52//52
f 47//47 52//52 51//51
f 53//53 48//48 51//51
f 53//53 51//51 54//54
f 53//53 54//54 31//31
f 53//53 31//31 48//48
f 51//51 52//52 55//55
f 51//51 55//55 54//54
f 54//54 55//55 32//32
f 54//54 32//32 31//31
f 50//50 39//39 56//56
f 50//50 56//56 57//57
f 50//50 57//57 52//52
f 39//39 37//37 56//56
f 56//56 37//37 57//57
f 37//37 52//52 57//57
f 37//37 55//55 52//52
f 37//37 32//32 55//55
# 110 faces, 0 coords texture

# End of File
