####
#
# OBJ File Generated by Meshlab
#
####
# Object step_8_link_5.obj
#
# Vertices: 86
# Faces: 168
#
####
vn 3.175128 3.189174 2.366133
v 0.274336 0.051964 0.692450
vn 3.192323 0.309468 5.324874
v 0.274049 0.051916 0.692684
vn 3.765939 2.087905 1.794750
v 0.427559 -0.033605 0.581189
vn 2.993512 0.418689 5.383732
v 0.274028 0.051971 0.692693
vn 2.786541 0.570625 5.414529
v 0.274009 0.052016 0.692700
vn 2.554107 0.785472 5.395277
v 0.273992 0.052052 0.692704
vn 2.302189 1.092383 5.287817
v 0.273976 0.052080 0.692707
vn 2.033204 1.523171 5.024482
v 0.273962 0.052100 0.692709
vn 1.825827 2.162743 4.465469
v 0.273950 0.052114 0.692709
vn 1.451233 3.025341 3.492310
v 0.273940 0.052123 0.692708
vn 0.923409 3.937782 2.776466
v 0.273932 0.052127 0.692707
vn 1.856827 5.510556 -1.401284
v 0.274336 0.051964 0.590835
vn 0.955840 5.488579 -1.682225
v 0.273932 0.052127 0.591025
vn 3.673163 0.009234 5.097507
v 0.274147 0.051594 0.692624
vn 3.576711 0.059167 5.160138
v 0.274120 0.051691 0.692643
vn 3.133152 -0.172383 5.409138
v 0.274120 -0.050918 0.692643
vn 3.467399 -0.094805 5.231146
v 0.274147 -0.050999 0.692624
vn 3.469482 0.128952 5.218797
v 0.274095 0.051777 0.692659
vn 2.746476 -0.225534 5.596364
v 0.274095 -0.050844 0.692659
vn 3.348730 0.214097 5.270493
v 0.274071 0.051852 0.692673
vn 2.319443 -0.283215 5.760668
v 0.274071 -0.050777 0.692673
vn 1.830944 -0.346553 5.900070
v 0.274049 -0.050718 0.692684
vn 1.304394 -0.408701 6.003338
v 0.274028 -0.050665 0.692693
vn 1.011867 -0.401999 6.082710
v 0.274009 -0.050619 0.692700
vn 0.791603 -0.329582 6.155587
v 0.273992 -0.050579 0.692704
vn 0.540068 -0.226350 6.220971
v 0.273976 -0.050545 0.692707
vn 0.270580 -0.107404 6.265380
v 0.273962 -0.050517 0.692709
vn 0.039410 -0.016213 6.282770
v 0.273950 -0.050494 0.692709
vn -0.436985 0.185763 6.230897
v 0.168602 0.052114 0.692709
vn -1.953913 0.675972 5.309769
v 0.168598 0.052123 0.692708
vn 0.325391 5.710630 1.588957
v 0.273926 0.052128 0.692705
vn -2.446051 1.765165 2.208992
v 0.168596 0.052127 0.692707
vn 0.372169 6.105078 -0.771699
v 0.273926 0.052128 0.591029
vn -2.099184 4.445329 1.069668
v 0.168597 0.052128 0.692705
vn 2.175969 2.060577 -2.188211
v 0.427559 -0.033605 0.475492
vn -2.757893 2.545581 -1.525271
v 0.168596 0.052127 0.591025
vn -1.368943 2.075549 -4.551527
v 0.317390 -0.033605 0.475492
vn -2.373362 4.711911 -0.521216
v 0.168597 0.052128 0.591029
vn 0.585936 -4.231000 4.470286
v 0.276473 -0.063068 0.689509
vn 1.046283 -2.108849 5.249184
v 0.275890 -0.061331 0.691005
vn -2.215307 -4.169371 2.093409
v 0.176042 -0.063068 0.689509
vn -1.109278 -5.260839 1.480603
v 0.325717 -0.153485 0.576305
vn 1.780964 -4.247021 1.776515
v 0.426735 -0.153485 0.576305
vn 2.933336 -1.090018 5.258434
v 0.277080 -0.061215 0.690491
vn 3.763400 -1.942662 2.017217
v 0.429454 -0.150578 0.577223
vn 1.515197 -0.605389 5.841112
v 0.274336 -0.052432 0.692450
vn 4.062222 -0.826341 4.097674
v 0.427559 -0.143158 0.581189
vn -1.812257 -2.730390 4.034106
v 0.174977 -0.061331 0.691005
vn -2.751434 -1.923758 3.067221
v 0.169588 -0.052432 0.692450
vn -0.412056 -1.014823 6.165480
v 0.168670 -0.050619 0.692700
vn -1.765830 -1.515065 5.400648
v 0.168644 -0.050579 0.692704
vn -2.780537 -1.583037 3.118140
v 0.168625 -0.050545 0.692707
vn -2.844744 -1.307144 3.054159
v 0.168611 -0.050517 0.692709
vn -2.980581 -0.957729 3.029049
v 0.168602 -0.050494 0.692709
vn -3.600070 -0.566619 2.951296
v 0.168598 -0.050476 0.692708
vn -5.305205 -0.181525 2.159951
v 0.168596 -0.050463 0.692707
vn -3.860167 0.777811 -4.657732
v 0.168602 0.052114 0.591015
vn -3.274570 1.962978 -3.272477
v 0.168598 0.052123 0.591020
vn -4.897811 -0.988482 -2.372965
v 0.168602 -0.050494 0.591015
vn -5.505381 -0.606286 -1.842707
v 0.168598 -0.050476 0.591020
vn -6.132359 -0.207030 -0.819462
v 0.168596 -0.050463 0.591025
vn -4.678192 -3.519614 1.363786
v 0.174562 -0.061215 0.690491
vn -4.684067 -2.806271 -1.914736
v 0.174562 -0.061215 0.588998
vn -4.043612 -4.324945 -0.979697
v 0.176042 -0.063068 0.589268
vn -5.385661 -2.732497 -1.163659
v 0.169588 -0.052432 0.590835
vn -4.843194 -1.843416 -2.334639
v 0.168625 -0.050545 0.591001
vn -4.777538 -1.372694 -2.405234
v 0.168611 -0.050517 0.591008
vn -2.966625 -2.847044 -3.899534
v 0.323650 -0.150578 0.473851
vn -1.301081 -4.393982 -2.094086
v 0.325717 -0.153485 0.475582
vn -4.375840 -2.050293 -3.973513
v 0.174977 -0.061331 0.588584
vn -3.240816 -1.249021 -4.624851
v 0.317390 -0.143158 0.475492
vn -4.785541 -1.971508 -3.314845
v 0.168644 -0.050579 0.590993
vn 5.957830 0.254115 1.220452
v 0.429454 -0.046346 0.577223
vn 6.153413 0.801252 0.612293
v 0.428017 -0.035969 0.579960
vn 3.851018 0.379783 -2.909397
v 0.429454 -0.046346 0.473851
vn 5.881620 1.090396 -1.283679
v 0.428017 -0.035969 0.475408
vn 0.999827 0.639900 -6.040980
v 0.428384 -0.045886 0.473565
vn 2.958817 -1.459427 -2.306168
v 0.429454 -0.150578 0.473851
vn 1.247965 -0.040161 -6.145000
v 0.428384 -0.149507 0.473565
vn 0.372052 0.131785 -6.248531
v 0.427991 -0.046719 0.473511
vn 0.608214 -1.818584 -5.502676
v 0.427991 -0.150531 0.473511
vn -0.204044 0.146804 -6.267211
v 0.324438 -0.046719 0.473511
vn -0.818874 0.376095 -6.121353
v 0.323777 -0.045886 0.473565
vn 1.502534 -4.231038 -1.830091
v 0.426735 -0.153485 0.475582
vn -0.904783 -1.937750 -5.308785
v 0.324438 -0.150531 0.473511
vn -1.675037 -0.531286 -5.878861
v 0.323777 -0.149507 0.473565
# 86 vertices, 0 vertices normals

f 1//1 2//2 3//3
f 1//1 4//4 2//2
f 1//1 5//5 4//4
f 1//1 6//6 5//5
f 1//1 7//7 6//6
f 1//1 8//8 7//7
f 1//1 9//9 8//8
f 1//1 10//10 9//9
f 1//1 11//11 10//10
f 1//1 12//12 13//13
f 1//1 13//13 11//11
f 1//1 3//3 12//12
f 14//14 15//15 16//16
f 14//14 17//17 3//3
f 14//14 16//16 17//17
f 14//14 3//3 15//15
f 15//15 18//18 19//19
f 15//15 19//19 16//16
f 15//15 3//3 18//18
f 18//18 20//20 21//21
f 18//18 21//21 19//19
f 18//18 3//3 20//20
f 20//20 2//2 22//22
f 20//20 22//22 21//21
f 20//20 3//3 2//2
f 2//2 4//4 23//23
f 2//2 23//23 22//22
f 4//4 5//5 24//24
f 4//4 24//24 23//23
f 5//5 6//6 25//25
f 5//5 25//25 24//24
f 6//6 7//7 26//26
f 6//6 26//26 25//25
f 7//7 8//8 27//27
f 7//7 27//27 26//26
f 8//8 9//9 28//28
f 8//8 28//28 27//27
f 9//9 10//10 29//29
f 9//9 29//29 28//28
f 10//10 11//11 30//30
f 10//10 30//30 29//29
f 11//11 31//31 32//32
f 11//11 13//13 33//33
f 11//11 33//33 31//31
f 11//11 32//32 30//30
f 31//31 33//33 34//34
f 31//31 34//34 32//32
f 12//12 3//3 35//35
f 12//12 35//35 13//13
f 13//13 36//36 33//33
f 13//13 35//35 37//37
f 13//13 37//37 36//36
f 33//33 36//36 38//38
f 33//33 38//38 34//34
f 39//39 40//40 41//41
f 39//39 41//41 42//42
f 39//39 43//43 40//40
f 39//39 42//42 43//43
f 44//44 40//40 45//45
f 44//44 46//46 40//40
f 44//44 17//17 16//16
f 44//44 16//16 46//46
f 44//44 45//45 47//47
f 44//44 47//47 17//17
f 40//40 46//46 48//48
f 40//40 48//48 41//41
f 40//40 43//43 45//45
f 46//46 16//16 19//19
f 46//46 19//19 21//21
f 46//46 21//21 22//22
f 46//46 22//22 23//23
f 46//46 23//23 24//24
f 46//46 24//24 49//49
f 46//46 49//49 48//48
f 17//17 47//47 3//3
f 24//24 25//25 50//50
f 24//24 50//50 49//49
f 25//25 26//26 51//51
f 25//25 51//51 50//50
f 26//26 27//27 52//52
f 26//26 52//52 51//51
f 27//27 28//28 53//53
f 27//27 53//53 52//52
f 28//28 29//29 54//54
f 28//28 54//54 53//53
f 29//29 30//30 55//55
f 29//29 55//55 54//54
f 30//30 32//32 56//56
f 30//30 56//56 55//55
f 32//32 34//34 38//38
f 32//32 36//36 56//56
f 32//32 38//38 36//36
f 57//57 58//58 37//37
f 57//57 59//59 60//60
f 57//57 60//60 58//58
f 57//57 37//37 59//59
f 58//58 36//36 37//37
f 58//58 60//60 61//61
f 58//58 61//61 36//36
f 36//36 61//61 56//56
f 41//41 62//62 63//63
f 41//41 48//48 62//62
f 41//41 64//64 42//42
f 41//41 63//63 64//64
f 62//62 48//48 49//49
f 62//62 49//49 65//65
f 62//62 65//65 63//63
f 49//49 50//50 51//51
f 49//49 51//51 52//52
f 49//49 52//52 66//66
f 49//49 66//66 65//65
f 52//52 53//53 67//67
f 52//52 67//67 66//66
f 53//53 54//54 59//59
f 53//53 59//59 67//67
f 54//54 55//55 60//60
f 54//54 60//60 59//59
f 55//55 56//56 61//61
f 55//55 61//61 60//60
f 64//64 63//63 68//68
f 64//64 69//69 42//42
f 64//64 68//68 69//69
f 63//63 70//70 71//71
f 63//63 65//65 72//72
f 63//63 72//72 70//70
f 63//63 71//71 68//68
f 70//70 72//72 71//71
f 65//65 66//66 72//72
f 72//72 66//66 71//71
f 66//66 67//67 71//71
f 67//67 59//59 71//71
f 59//59 37//37 71//71
f 73//73 74//74 3//3
f 73//73 3//3 47//47
f 73//73 75//75 76//76
f 73//73 76//76 74//74
f 73//73 45//45 75//75
f 73//73 47//47 45//45
f 74//74 76//76 35//35
f 74//74 35//35 3//3
f 75//75 77//77 35//35
f 75//75 35//35 76//76
f 75//75 45//45 78//78
f 75//75 78//78 79//79
f 75//75 79//79 77//77
f 80//80 77//77 79//79
f 80//80 81//81 82//82
f 80//80 79//79 81//81
f 80//80 82//82 77//77
f 77//77 82//82 83//83
f 77//77 83//83 35//35
f 35//35 83//83 37//37
f 43//43 84//84 45//45
f 43//43 42//42 84//84
f 45//45 84//84 78//78
f 84//84 81//81 78//78
f 84//84 42//42 69//69
f 84//84 69//69 81//81
f 78//78 81//81 79//79
f 81//81 69//69 85//85
f 81//81 85//85 82//82
f 82//82 85//85 86//86
f 82//82 86//86 83//83
f 83//83 86//86 71//71
f 83//83 71//71 37//37
f 69//69 68//68 85//85
f 68//68 86//86 85//85
f 68//68 71//71 86//86
# 168 faces, 0 coords texture

# End of File
