####
#
# OBJ File Generated by Meshlab
#
####
# Object step_49_link_7.obj
#
# Vertices: 78
# Faces: 152
#
####
vn 2.107057 1.443570 3.239446
v 0.188441 0.388192 0.526223
vn 1.300537 4.817280 3.460270
v 0.189421 0.391817 0.521337
vn -1.721427 1.680366 4.043915
v 0.086529 0.388192 0.526223
vn 4.272362 2.307186 2.580133
v 0.189899 0.391712 0.521108
vn 1.801252 -1.746123 2.650243
v 0.188441 0.285899 0.526223
vn 2.815210 -3.075857 1.177298
v 0.189899 0.284241 0.521108
vn 1.697276 4.864645 2.403762
v 0.244276 0.526890 0.287172
vn -1.341628 4.656180 3.570488
v 0.083439 0.391817 0.521337
vn -0.564271 5.638472 2.294684
v 0.100479 0.526890 0.287172
vn 5.970716 0.501819 1.783593
v 0.190727 0.392715 0.518188
vn 3.756448 3.148199 1.052471
v 0.248073 0.527586 0.281469
vn 5.926244 -1.147497 1.129465
v 0.190727 0.285514 0.518188
vn 6.184647 -0.108998 0.750224
v 0.248965 0.372702 0.278557
vn 6.081025 0.370035 1.496386
v 0.248384 0.525781 0.280871
vn 6.047778 0.801304 0.534010
v 0.248965 0.524932 0.278557
vn -1.488486 -2.061666 3.301553
v 0.086529 0.285899 0.526223
vn 1.064415 -6.183448 0.070172
v 0.184373 0.283001 0.499797
vn 3.042741 -5.142301 -0.032061
v 0.189899 0.284241 0.416458
vn 0.468899 -6.240086 0.210716
v 0.181160 0.282512 0.496160
vn 4.994152 -3.782836 0.042690
v 0.238766 0.339643 0.251401
vn -2.514027 -2.974629 1.962852
v 0.082878 0.284241 0.521108
vn 5.649846 -2.450108 0.194310
v 0.243209 0.346464 0.256645
vn 6.064655 -0.924451 0.597578
v 0.248940 0.371572 0.278374
vn 2.023863 -5.820150 -0.279954
v 0.184373 0.283001 0.393330
vn 0.303392 -6.257523 0.134486
v 0.181099 0.282505 0.496051
vn 1.313972 -6.088056 -0.392514
v 0.181160 0.282512 0.389075
vn -0.086901 -6.264944 0.458537
v 0.070787 0.282512 0.496160
vn 0.721086 -6.108280 -0.607052
v 0.181099 0.282505 0.388997
vn -0.171544 -6.268132 0.193271
v 0.070740 0.282505 0.496051
vn 2.183846 -2.137534 -2.470926
v 0.238766 0.339643 0.092424
vn 2.140271 -5.856324 -0.642376
v 0.184363 0.283048 0.392855
vn 0.018625 -6.223934 -0.680601
v 0.180363 0.282506 0.388939
vn 0.580506 -3.123076 -3.432046
v 0.237942 0.339475 0.092321
vn -0.374848 -6.188679 -0.620716
v 0.070740 0.282505 0.388997
vn -0.058275 -6.218694 -0.703180
v 0.071029 0.282506 0.388939
vn -1.306211 -2.763284 -2.947687
v 0.070733 0.339475 0.092321
vn -3.648238 2.438786 3.102270
v 0.082878 0.391712 0.521108
vn -1.132851 5.689790 1.292607
v 0.093997 0.527949 0.281674
vn -2.578150 5.162897 1.565467
v 0.092787 0.527586 0.281469
vn -2.856265 4.900086 2.702565
v 0.070052 0.397779 0.496583
vn -4.448030 2.047099 1.740478
v 0.069937 0.397798 0.496426
vn -3.021859 -2.655290 0.825853
v 0.069937 0.282556 0.496426
vn -3.637247 4.150313 0.703905
v 0.071172 0.521740 0.254564
vn -5.665924 1.836802 0.198670
v 0.069917 0.519991 0.251860
vn -6.283185 -0.001033 0.000151
v 0.069917 0.340232 0.251860
vn -3.237908 -3.124690 -0.230648
v 0.069937 0.282556 0.389296
vn -4.375678 -1.233805 -2.137017
v 0.069917 0.340232 0.092811
vn -3.627983 -2.277912 -3.065106
v 0.070511 0.339643 0.092424
vn 1.166886 5.837911 0.924231
v 0.246964 0.527949 0.281674
vn 0.863645 6.076987 -0.424156
v 0.246964 0.527949 0.132217
vn 3.591611 4.015717 -0.473820
v 0.248073 0.527586 0.131479
vn 6.053139 1.155051 -0.174230
v 0.248965 0.524932 0.129353
vn 1.731831 5.817412 -1.275124
v 0.247623 0.527482 0.130236
vn 1.590954 4.859247 -2.457152
v 0.239619 0.521740 0.095095
vn -0.675677 6.141754 -0.349050
v 0.093997 0.527949 0.132217
vn 5.652250 1.565052 -0.893908
v 0.248940 0.524620 0.127293
vn 3.763480 2.438629 -1.926049
v 0.243209 0.521303 0.098159
vn 2.003371 5.748764 -1.533552
v 0.242018 0.521532 0.097419
vn 6.282263 -0.058047 -0.025025
v 0.248965 0.372702 0.129353
vn 6.157784 -0.549113 -0.451598
v 0.248940 0.371572 0.127293
vn 3.597450 2.753824 -3.875465
v 0.238834 0.519927 0.092518
vn 1.886805 1.852833 -4.085535
v 0.238766 0.519880 0.092424
vn 5.227210 -1.353307 -1.591758
v 0.243209 0.346464 0.098159
vn 0.314297 5.289531 -3.334078
v 0.239140 0.521411 0.094499
vn -0.063108 5.351507 -3.277665
v 0.072028 0.521411 0.094499
vn 1.511345 4.555267 -3.668732
v 0.239135 0.521041 0.093950
vn -2.215867 4.644482 -1.197306
v 0.071172 0.521740 0.095095
vn -0.389765 5.152659 -3.531623
v 0.071459 0.521041 0.093950
vn 0.092916 3.979605 -4.741790
v 0.238016 0.519825 0.092359
vn -1.717762 2.530565 -4.370014
v 0.070511 0.519880 0.092424
vn 0.241389 1.621305 -5.771368
v 0.237942 0.519766 0.092321
vn 0.395138 0.038763 -6.255334
v 0.237871 0.518947 0.092305
vn -0.120167 4.058744 -4.690655
v 0.070767 0.519825 0.092359
vn -0.939221 1.494159 -5.517781
v 0.070733 0.519766 0.092321
vn 0.367529 -0.182570 -6.245827
v 0.237871 0.339686 0.092305
vn -1.519311 0.036732 -5.880029
v 0.070723 0.518947 0.092305
vn -1.519732 -0.243871 -5.837936
v 0.070723 0.339686 0.092305
vn -3.283210 1.862092 -2.095599
v 0.069917 0.519991 0.092811
# 78 vertices, 0 vertices normals

f 1//1 2//2 3//3
f 1//1 4//4 2//2
f 1//1 5//5 6//6
f 1//1 6//6 4//4
f 1//1 3//3 5//5
f 2//2 4//4 7//7
f 2//2 8//8 3//3
f 2//2 7//7 9//9
f 2//2 9//9 8//8
f 4//4 10//10 11//11
f 4//4 6//6 12//12
f 4//4 12//12 10//10
f 4//4 11//11 7//7
f 10//10 12//12 13//13
f 10//10 14//14 11//11
f 10//10 15//15 14//14
f 10//10 13//13 15//15
f 5//5 3//3 16//16
f 5//5 16//16 6//6
f 6//6 17//17 18//18
f 6//6 19//19 17//17
f 6//6 18//18 20//20
f 6//6 16//16 21//21
f 6//6 21//21 19//19
f 6//6 22//22 12//12
f 6//6 20//20 22//22
f 12//12 23//23 13//13
f 12//12 22//22 23//23
f 17//17 19//19 24//24
f 17//17 24//24 18//18
f 19//19 25//25 26//26
f 19//19 26//26 24//24
f 19//19 21//21 27//27
f 19//19 27//27 25//25
f 25//25 28//28 26//26
f 25//25 27//27 29//29
f 25//25 29//29 28//28
f 18//18 24//24 30//30
f 18//18 30//30 20//20
f 24//24 31//31 30//30
f 24//24 26//26 31//31
f 31//31 26//26 30//30
f 26//26 28//28 30//30
f 28//28 32//32 33//33
f 28//28 29//29 34//34
f 28//28 34//34 32//32
f 28//28 33//33 30//30
f 32//32 34//34 35//35
f 32//32 35//35 36//36
f 32//32 36//36 33//33
f 3//3 8//8 37//37
f 3//3 37//37 21//21
f 3//3 21//21 16//16
f 8//8 9//9 38//38
f 8//8 38//38 39//39
f 8//8 39//39 37//37
f 37//37 40//40 41//41
f 37//37 41//41 42//42
f 37//37 42//42 21//21
f 37//37 39//39 40//40
f 40//40 39//39 41//41
f 41//41 39//39 43//43
f 41//41 43//43 44//44
f 41//41 44//44 45//45
f 41//41 45//45 42//42
f 21//21 42//42 27//27
f 42//42 29//29 27//27
f 42//42 46//46 29//29
f 42//42 45//45 46//46
f 29//29 46//46 34//34
f 46//46 45//45 47//47
f 46//46 47//47 48//48
f 46//46 48//48 36//36
f 46//46 36//36 34//34
f 34//34 36//36 35//35
f 7//7 49//49 9//9
f 7//7 11//11 49//49
f 49//49 11//11 50//50
f 49//49 50//50 38//38
f 49//49 38//38 9//9
f 11//11 14//14 15//15
f 11//11 15//15 51//51
f 11//11 51//51 50//50
f 15//15 52//52 51//51
f 15//15 13//13 52//52
f 50//50 51//51 53//53
f 50//50 53//53 54//54
f 50//50 54//54 55//55
f 50//50 55//55 38//38
f 51//51 52//52 56//56
f 51//51 56//56 57//57
f 51//51 57//57 53//53
f 53//53 57//57 58//58
f 53//53 58//58 54//54
f 52//52 13//13 59//59
f 52//52 59//59 56//56
f 56//56 59//59 60//60
f 56//56 60//60 57//57
f 57//57 54//54 58//58
f 57//57 61//61 54//54
f 57//57 62//62 61//61
f 57//57 60//60 63//63
f 57//57 63//63 62//62
f 54//54 64//64 65//65
f 54//54 66//66 64//64
f 54//54 61//61 66//66
f 54//54 67//67 55//55
f 54//54 65//65 67//67
f 64//64 66//66 65//65
f 66//66 61//61 62//62
f 66//66 62//62 68//68
f 66//66 68//68 65//65
f 62//62 69//69 70//70
f 62//62 71//71 69//69
f 62//62 72//72 71//71
f 62//62 63//63 30//30
f 62//62 30//30 72//72
f 62//62 70//70 68//68
f 69//69 71//71 73//73
f 69//69 73//73 70//70
f 71//71 72//72 74//74
f 71//71 74//74 73//73
f 72//72 30//30 75//75
f 72//72 75//75 76//76
f 72//72 76//76 74//74
f 13//13 23//23 59//59
f 23//23 22//22 60//60
f 23//23 60//60 59//59
f 22//22 20//20 63//63
f 22//22 63//63 60//60
f 20//20 30//30 63//63
f 30//30 33//33 75//75
f 33//33 36//36 75//75
f 75//75 36//36 77//77
f 75//75 77//77 76//76
f 38//38 43//43 39//39
f 38//38 55//55 43//43
f 43//43 55//55 67//67
f 43//43 67//67 44//44
f 44//44 67//67 78//78
f 44//44 78//78 45//45
f 67//67 65//65 68//68
f 67//67 68//68 70//70
f 67//67 70//70 78//78
f 78//78 70//70 47//47
f 78//78 47//47 45//45
f 70//70 73//73 74//74
f 70//70 74//74 76//76
f 70//70 76//76 48//48
f 70//70 48//48 47//47
f 76//76 77//77 48//48
f 48//48 77//77 36//36
# 152 faces, 0 coords texture

# End of File
