####
#
# OBJ File Generated by Meshlab
#
####
# Object step_16_link_4.obj
#
# Vertices: 86
# Faces: 168
#
####
vn 2.855629 0.594209 -4.345637
v 0.148045 0.052292 0.421313
vn 2.813404 2.871852 -3.532783
v 0.147881 0.052905 0.421431
vn 5.596232 0.925110 -1.494696
v 0.247196 0.071656 0.605975
vn 0.882590 2.742757 -4.251211
v 0.147075 0.053196 0.421290
vn 1.957341 -1.994537 -2.701349
v 0.148045 -0.047870 0.421313
vn 0.479568 -3.065964 -3.283438
v 0.147075 -0.048140 0.421290
vn 3.980313 -2.468566 -0.920933
v 0.247196 -0.028679 0.605975
vn 1.173750 5.367724 -2.458131
v 0.146483 0.053949 0.422343
vn 2.604376 5.392629 -0.805551
v 0.244051 0.075038 0.607926
vn 4.291091 3.231865 -1.240061
v 0.246842 0.072886 0.606195
vn -0.715093 2.168562 -4.817063
v 0.046466 0.053196 0.421290
vn 0.266638 5.671447 -2.103817
v 0.144751 0.054412 0.422998
vn 0.966046 6.043042 -0.514921
v 0.240649 0.076137 0.609031
vn -0.008797 5.114653 -3.649338
v 0.044987 0.053949 0.422343
vn -1.680246 3.448326 -2.503991
v 0.042631 0.054412 0.422998
vn -0.602052 6.187224 -0.235992
v 0.136296 0.076137 0.609031
vn 0.497925 -6.215902 0.207062
v 0.147020 -0.048232 0.522095
vn 0.820691 -6.103484 -0.451554
v 0.147020 -0.048232 0.421915
vn 1.676605 -6.029954 -0.103918
v 0.245116 -0.029449 0.607146
vn -0.878183 -6.090150 0.447897
v 0.046358 -0.048232 0.522095
vn 1.033619 -5.802266 1.160103
v 0.245116 -0.029449 0.707579
vn -0.365051 -5.960113 1.564400
v 0.143785 -0.029449 0.707579
vn 2.171852 -5.879291 -0.232111
v 0.246842 -0.028827 0.606195
vn -0.865393 -2.707437 -3.257451
v 0.046466 -0.048140 0.421290
vn -1.005229 -6.016230 -0.583391
v 0.046358 -0.048232 0.421915
vn -2.545035 5.582356 0.292195
v 0.042631 0.054412 0.523483
vn -4.428075 3.631163 0.997948
v 0.041951 0.053950 0.523675
vn -1.979448 2.276349 3.328975
v 0.134928 0.075270 0.711097
vn -4.412821 2.265476 -1.527874
v 0.041951 0.053950 0.423194
vn -0.796221 4.395703 2.439840
v 0.136296 0.076137 0.710644
vn -5.561963 1.210620 1.163029
v 0.041950 0.053948 0.523674
vn -3.355397 0.853190 3.941574
v 0.134926 0.075266 0.711097
vn -5.822478 1.172654 -0.633837
v 0.041950 0.053948 0.423197
vn -5.794672 -0.662222 1.320679
v 0.041950 -0.046514 0.523674
vn -3.370547 -0.338976 4.320797
v 0.134926 -0.026311 0.711097
vn -2.464775 0.680295 -5.692182
v 0.041994 0.053955 0.423168
vn -2.866763 -1.064323 -5.343817
v 0.041994 -0.046549 0.423168
vn -2.739312 0.955894 -5.462981
v 0.041979 0.053955 0.423175
vn -3.137379 1.399005 -4.995366
v 0.041967 0.053954 0.423181
vn -3.583196 1.978217 -4.070584
v 0.041959 0.053953 0.423186
vn -3.873716 2.426863 -2.505723
v 0.041954 0.053952 0.423191
vn -3.255867 -1.529532 -4.754704
v 0.041979 -0.046541 0.423175
vn -3.640493 -2.060697 -3.627381
v 0.041967 -0.046534 0.423181
vn -3.871134 -2.220339 -2.573148
v 0.041959 -0.046528 0.423186
vn -4.407020 -1.974545 -2.193713
v 0.041954 -0.046522 0.423191
vn -5.254588 -1.363166 -1.645715
v 0.041951 -0.046518 0.423194
vn -6.063415 -0.541908 -0.740118
v 0.041950 -0.046514 0.423197
vn -2.788592 -5.135592 0.900099
v 0.042631 -0.047141 0.523483
vn -2.662228 -3.519169 -2.305552
v 0.042631 -0.047141 0.422998
vn -1.111956 -3.965427 3.318536
v 0.136296 -0.027508 0.710644
vn -4.063502 -4.427339 1.206114
v 0.041959 -0.046528 0.523674
vn -1.762659 -3.080911 4.113013
v 0.134944 -0.026336 0.711094
vn -4.609638 -3.635467 1.283149
v 0.041954 -0.046522 0.523674
vn -2.098857 -2.352601 4.148872
v 0.134933 -0.026326 0.711096
vn -5.306527 -2.159310 1.376233
v 0.041951 -0.046518 0.523675
vn -2.581444 -1.280656 4.205358
v 0.134928 -0.026318 0.711097
vn -2.798272 -1.445017 -5.436900
v 0.042013 -0.046558 0.423161
vn 6.069565 0.651810 0.616448
v 0.247196 0.071656 0.706235
vn 3.928244 1.838190 2.041531
v 0.246842 0.072886 0.707518
vn 3.056846 -2.275216 2.049026
v 0.246842 -0.028827 0.707518
vn 4.287947 -2.631752 0.447283
v 0.247196 -0.028679 0.706235
vn 3.142354 4.633992 1.428240
v 0.244051 0.075038 0.708689
vn 2.872274 2.181283 4.154337
v 0.243237 0.074936 0.709801
vn 2.366211 -1.337028 5.348049
v 0.243237 -0.027417 0.709801
vn 1.161810 3.406920 2.694717
v 0.240649 0.076137 0.710644
vn 2.199707 0.391841 5.857784
v 0.239907 0.075265 0.711047
vn 1.974634 -0.502094 5.916964
v 0.239907 -0.026408 0.711047
vn 2.042810 0.487034 5.894636
v 0.239866 0.075271 0.711062
vn 1.795841 0.624166 5.945901
v 0.239829 0.075274 0.711074
vn 1.494925 0.796641 5.982518
v 0.239797 0.075276 0.711083
vn 1.137567 1.003042 5.991841
v 0.239769 0.075276 0.711089
vn 0.715022 1.245828 5.952729
v 0.239745 0.075275 0.711094
vn 0.313979 1.400124 5.904375
v 0.239725 0.075273 0.711096
vn 1.753509 -0.614015 5.954356
v 0.239866 -0.026391 0.711062
vn 1.438752 -0.763863 5.995150
v 0.239829 -0.026375 0.711074
vn 1.066367 -0.937923 6.009227
v 0.239797 -0.026361 0.711083
vn 0.680292 -1.095096 5.997684
v 0.239769 -0.026348 0.711089
vn 0.483764 -1.026313 6.051938
v 0.239745 -0.026336 0.711094
vn 0.299059 -0.660729 6.181900
v 0.239725 -0.026326 0.711096
vn 0.091017 0.809599 6.160441
v 0.239709 0.075270 0.711097
vn 0.107011 -0.258240 6.265255
v 0.239709 -0.026318 0.711097
vn -1.050882 3.411209 4.510527
v 0.134933 0.075273 0.711096
vn 1.448875 -4.242277 3.426759
v 0.245227 -0.029265 0.708022
vn 0.805619 -2.954866 4.742764
v 0.240649 -0.027508 0.710644
vn -0.103812 -5.519991 2.923268
v 0.144001 -0.029265 0.708022
vn -0.191324 -2.402556 5.793096
v 0.134960 -0.026348 0.711089
# 86 vertices, 0 vertices normals

f 1//1 2//2 3//3
f 1//1 4//4 2//2
f 1//1 5//5 6//6
f 1//1 6//6 4//4
f 1//1 3//3 7//7
f 1//1 7//7 5//5
f 2//2 4//4 8//8
f 2//2 8//8 9//9
f 2//2 10//10 3//3
f 2//2 9//9 10//10
f 4//4 6//6 11//11
f 4//4 11//11 8//8
f 8//8 12//12 13//13
f 8//8 11//11 14//14
f 8//8 14//14 12//12
f 8//8 13//13 9//9
f 12//12 14//14 15//15
f 12//12 15//15 16//16
f 12//12 16//16 13//13
f 17//17 18//18 19//19
f 17//17 20//20 18//18
f 17//17 21//21 22//22
f 17//17 19//19 21//21
f 17//17 22//22 20//20
f 5//5 18//18 6//6
f 5//5 7//7 23//23
f 5//5 23//23 19//19
f 5//5 19//19 18//18
f 6//6 18//18 24//24
f 6//6 24//24 11//11
f 18//18 20//20 25//25
f 18//18 25//25 24//24
f 26//26 27//27 28//28
f 26//26 15//15 29//29
f 26//26 29//29 27//27
f 26//26 30//30 16//16
f 26//26 28//28 30//30
f 26//26 16//16 15//15
f 27//27 31//31 32//32
f 27//27 29//29 33//33
f 27//27 33//33 31//31
f 27//27 32//32 28//28
f 31//31 33//33 34//34
f 31//31 34//34 35//35
f 31//31 35//35 32//32
f 11//11 15//15 14//14
f 11//11 36//36 15//15
f 11//11 24//24 37//37
f 11//11 37//37 36//36
f 15//15 36//36 38//38
f 15//15 38//38 39//39
f 15//15 39//39 40//40
f 15//15 40//40 41//41
f 15//15 41//41 29//29
f 36//36 37//37 42//42
f 36//36 42//42 38//38
f 38//38 42//42 43//43
f 38//38 43//43 39//39
f 39//39 43//43 44//44
f 39//39 44//44 40//40
f 40//40 44//44 45//45
f 40//40 45//45 41//41
f 41//41 45//45 46//46
f 41//41 46//46 29//29
f 29//29 46//46 47//47
f 29//29 47//47 33//33
f 33//33 47//47 34//34
f 20//20 48//48 49//49
f 20//20 49//49 25//25
f 20//20 22//22 50//50
f 20//20 50//50 48//48
f 48//48 51//51 44//44
f 48//48 44//44 49//49
f 48//48 50//50 52//52
f 48//48 52//52 51//51
f 51//51 53//53 45//45
f 51//51 45//45 44//44
f 51//51 52//52 54//54
f 51//51 54//54 53//53
f 53//53 55//55 46//46
f 53//53 46//46 45//45
f 53//53 54//54 56//56
f 53//53 56//56 55//55
f 55//55 34//34 47//47
f 55//55 47//47 46//46
f 55//55 56//56 35//35
f 55//55 35//35 34//34
f 24//24 25//25 49//49
f 24//24 49//49 57//57
f 24//24 57//57 37//37
f 49//49 37//37 57//57
f 49//49 42//42 37//37
f 49//49 43//43 42//42
f 49//49 44//44 43//43
f 58//58 59//59 60//60
f 58//58 3//3 10//10
f 58//58 10//10 59//59
f 58//58 61//61 3//3
f 58//58 60//60 61//61
f 59//59 62//62 63//63
f 59//59 63//63 64//64
f 59//59 10//10 9//9
f 59//59 9//9 62//62
f 59//59 64//64 60//60
f 62//62 65//65 63//63
f 62//62 9//9 13//13
f 62//62 13//13 65//65
f 63//63 65//65 66//66
f 63//63 66//66 67//67
f 63//63 67//67 64//64
f 65//65 68//68 66//66
f 65//65 69//69 68//68
f 65//65 70//70 69//69
f 65//65 71//71 70//70
f 65//65 72//72 71//71
f 65//65 73//73 72//72
f 65//65 13//13 30//30
f 65//65 30//30 73//73
f 66//66 68//68 74//74
f 66//66 74//74 67//67
f 68//68 69//69 75//75
f 68//68 75//75 74//74
f 69//69 70//70 76//76
f 69//69 76//76 75//75
f 70//70 71//71 77//77
f 70//70 77//77 76//76
f 71//71 72//72 78//78
f 71//71 78//78 77//77
f 72//72 73//73 79//79
f 72//72 79//79 78//78
f 73//73 80//80 81//81
f 73//73 81//81 79//79
f 73//73 30//30 82//82
f 73//73 82//82 80//80
f 80//80 82//82 28//28
f 80//80 28//28 81//81
f 3//3 61//61 7//7
f 13//13 16//16 30//30
f 61//61 60//60 23//23
f 61//61 23//23 7//7
f 60//60 83//83 21//21
f 60//60 21//21 19//19
f 60//60 64//64 83//83
f 60//60 19//19 23//23
f 83//83 64//64 84//84
f 83//83 84//84 85//85
f 83//83 85//85 21//21
f 21//21 85//85 22//22
f 64//64 67//67 84//84
f 84//84 67//67 74//74
f 84//84 74//74 75//75
f 84//84 75//75 76//76
f 84//84 76//76 77//77
f 84//84 77//77 50//50
f 84//84 50//50 85//85
f 77//77 78//78 86//86
f 77//77 86//86 50//50
f 78//78 79//79 52//52
f 78//78 52//52 86//86
f 79//79 81//81 54//54
f 79//79 54//54 52//52
f 81//81 28//28 56//56
f 81//81 56//56 54//54
f 30//30 28//28 82//82
f 28//28 32//32 35//35
f 28//28 35//35 56//56
f 85//85 50//50 22//22
f 50//50 86//86 52//52
# 168 faces, 0 coords texture

# End of File
