####
#
# OBJ File Generated by Meshlab
#
####
# Object step_33_link_6.obj
#
# Vertices: 82
# Faces: 160
#
####
vn 2.372200 0.099615 5.779100
v 0.324344 0.103368 0.645411
vn 1.359468 0.022180 6.114343
v 0.322746 0.106130 0.645881
vn 0.798794 -0.301657 6.137302
v 0.322746 0.001521 0.645881
vn 2.185279 0.218409 5.836384
v 0.323087 0.108476 0.645759
vn 2.079048 -0.152597 5.862324
v 0.324344 -0.001143 0.645411
vn 4.536604 0.220437 2.710036
v 0.418639 0.095362 0.596814
vn 4.336970 1.094333 2.487481
v 0.415834 0.123397 0.596833
vn 2.097903 0.873269 5.673126
v 0.320759 0.121531 0.646106
vn 0.549112 0.073515 6.229956
v 0.319587 0.120942 0.646326
vn 0.410376 -0.052123 6.251591
v 0.319587 0.014821 0.646326
vn 0.500045 2.969470 3.273346
v 0.319623 0.122552 0.646289
vn 3.553349 2.244160 3.890521
v 0.414883 0.125122 0.597051
vn -0.628917 2.949829 2.982579
v 0.207919 0.122552 0.646289
vn 3.155869 3.685438 1.618230
v 0.414746 0.125751 0.596633
vn 1.722456 5.524644 1.918533
v 0.414133 0.125974 0.596579
vn 1.145983 5.867826 0.969720
v 0.414101 0.125987 0.596564
vn 0.178346 6.261274 0.257327
v 0.414073 0.125989 0.596550
vn -0.079179 6.274086 0.181716
v 0.297942 0.125989 0.596550
vn -1.148970 0.091038 6.054431
v 0.207697 0.120942 0.646326
vn 0.738131 -3.586502 3.621874
v 0.324535 -0.005554 0.644527
vn 1.475005 -1.064608 5.692560
v 0.324622 -0.003285 0.645242
vn -1.058615 -3.798134 2.537852
v 0.222924 -0.005554 0.644527
vn -0.231755 -6.198186 0.559432
v 0.315979 -0.016130 0.595595
vn 2.454156 -2.799599 1.340225
v 0.418105 -0.016130 0.595595
vn 4.180269 -0.733470 2.742725
v 0.418639 -0.012367 0.596814
vn 0.075350 -0.922151 6.210379
v 0.324009 -0.002967 0.645301
vn -0.015694 -0.963559 6.206454
v 0.220659 -0.002967 0.645301
vn -2.171640 -2.585635 2.708059
v 0.219370 -0.003285 0.645242
vn 0.063016 -0.189346 6.279577
v 0.319623 0.013537 0.646289
vn -0.388401 -0.675821 6.200275
v 0.218354 0.001521 0.645881
vn -2.691350 -1.684572 3.048371
v 0.207919 0.013537 0.646289
vn -1.451227 -0.305440 5.897430
v 0.207697 0.014821 0.646326
vn -2.461110 0.422518 5.698885
v 0.206457 0.122293 0.645833
vn -3.256193 1.210071 4.575216
v 0.206439 0.122315 0.645823
vn -3.346050 2.207768 1.871050
v 0.206431 0.122327 0.645812
vn -3.396872 3.391993 0.411252
v 0.206432 0.122330 0.645802
vn -0.810460 6.096441 -0.750743
v 0.207919 0.122552 0.540588
vn -4.102649 -1.074352 2.808190
v 0.206457 0.016186 0.645833
vn -4.621134 -0.688080 2.588399
v 0.206439 0.016246 0.645823
vn -5.676707 -0.263016 1.680729
v 0.206431 0.016297 0.645812
vn -3.418770 1.993525 -2.049388
v 0.206431 0.122327 0.540847
vn -3.323481 3.363892 -0.536869
v 0.206432 0.122330 0.540855
vn -0.160181 6.227774 -0.517758
v 0.297942 0.125989 0.489597
vn -0.721562 4.931689 -2.729791
v 0.297932 0.125987 0.489586
vn -3.541906 0.461014 -5.045955
v 0.206439 0.122315 0.540839
vn -1.765079 1.906625 -4.830872
v 0.297505 0.125751 0.489557
vn -4.547806 -0.755333 -2.628355
v 0.206439 0.016246 0.540839
vn -5.289693 -0.253531 -2.126365
v 0.206431 0.016297 0.540847
vn -2.084987 -0.406018 -5.726586
v 0.297505 0.016152 0.489557
vn -2.014119 -5.409846 -1.103592
v 0.222924 -0.005554 0.543871
vn -3.372709 -3.618045 -2.091360
v 0.219370 -0.003285 0.542685
vn -4.159914 -1.578435 2.741679
v 0.206487 0.016115 0.645842
vn -5.486150 -2.913719 0.647927
v 0.206530 0.016034 0.645850
vn -4.022394 -2.379186 -2.640938
v 0.207919 0.013537 0.540588
vn -5.471886 -2.959894 -0.605746
v 0.206530 0.016034 0.540829
vn -4.325604 -1.887521 -2.616269
v 0.206487 0.016115 0.540830
vn -4.406243 -1.347245 -2.653812
v 0.206457 0.016186 0.540834
vn -0.534616 -4.574413 -2.608003
v 0.315979 -0.016130 0.494678
vn -1.304231 -2.540183 -4.870297
v 0.312154 -0.012367 0.492514
vn -2.154320 -1.455315 -5.581142
v 0.298843 0.012542 0.489628
vn 5.301907 0.165831 -2.173480
v 0.418639 0.095362 0.492514
vn 4.340553 0.920486 -2.496505
v 0.415834 0.123397 0.489837
vn 2.220218 2.554895 -2.308389
v 0.414746 0.125751 0.489557
vn 0.724315 5.055159 -2.118428
v 0.414101 0.125987 0.489586
vn 0.133863 6.231650 -0.473788
v 0.414073 0.125989 0.489597
vn 2.733042 -1.043014 -2.816304
v 0.418639 -0.012367 0.492514
vn 2.996147 -0.222346 -5.294994
v 0.415834 0.011440 0.489837
vn 2.260550 1.049127 -5.055436
v 0.414883 0.125122 0.489446
vn 1.408562 0.175458 -5.917075
v 0.414886 0.123661 0.489366
vn 1.342970 -0.110030 -5.950155
v 0.414886 0.014428 0.489366
vn -0.077216 0.597058 -6.245629
v 0.299227 0.125122 0.489446
vn 0.147701 1.048137 -6.189778
v 0.414203 0.125903 0.489559
vn -0.363802 0.125406 -6.251881
v 0.298952 0.123661 0.489366
vn 0.445597 2.024504 -5.798366
v 0.414167 0.125947 0.489566
vn 1.020429 3.968591 -3.284229
v 0.414133 0.125974 0.489575
vn -0.124473 0.806859 -6.226427
v 0.297950 0.125903 0.489559
vn -0.273319 1.507219 -6.045107
v 0.297933 0.125947 0.489566
vn -0.857462 3.172435 -4.999197
v 0.297928 0.125974 0.489575
vn 2.067602 -2.708284 -1.467876
v 0.418105 -0.016130 0.494678
vn 0.869846 -0.474655 -6.121430
v 0.414883 0.013060 0.489446
vn -0.835510 -0.741041 -6.098986
v 0.299227 0.013060 0.489446
vn -0.760425 -0.362613 -6.157630
v 0.298952 0.014428 0.489366
# 82 vertices, 0 vertices normals

f 1//1 2//2 3//3
f 1//1 4//4 2//2
f 1//1 5//5 6//6
f 1//1 3//3 5//5
f 1//1 6//6 7//7
f 1//1 7//7 4//4
f 2//2 4//4 8//8
f 2//2 8//8 9//9
f 2//2 9//9 10//10
f 2//2 10//10 3//3
f 4//4 7//7 8//8
f 8//8 11//11 9//9
f 8//8 7//7 12//12
f 8//8 12//12 11//11
f 11//11 13//13 9//9
f 11//11 12//12 14//14
f 11//11 14//14 15//15
f 11//11 15//15 16//16
f 11//11 16//16 17//17
f 11//11 17//17 18//18
f 11//11 18//18 13//13
f 9//9 13//13 19//19
f 9//9 19//19 10//10
f 20//20 21//21 22//22
f 20//20 22//22 23//23
f 20//20 24//24 25//25
f 20//20 25//25 21//21
f 20//20 23//23 24//24
f 26//26 21//21 3//3
f 26//26 3//3 27//27
f 26//26 27//27 21//21
f 21//21 5//5 3//3
f 21//21 27//27 28//28
f 21//21 28//28 22//22
f 21//21 25//25 5//5
f 5//5 25//25 6//6
f 3//3 29//29 30//30
f 3//3 10//10 29//29
f 3//3 30//30 27//27
f 29//29 10//10 31//31
f 29//29 31//31 30//30
f 10//10 19//19 32//32
f 10//10 32//32 31//31
f 13//13 33//33 19//19
f 13//13 34//34 33//33
f 13//13 35//35 34//34
f 13//13 36//36 35//35
f 13//13 37//37 36//36
f 13//13 18//18 37//37
f 19//19 33//33 38//38
f 19//19 38//38 32//32
f 33//33 34//34 39//39
f 33//33 39//39 38//38
f 34//34 35//35 40//40
f 34//34 40//40 39//39
f 35//35 36//36 41//41
f 35//35 41//41 40//40
f 36//36 37//37 42//42
f 36//36 42//42 41//41
f 37//37 18//18 43//43
f 37//37 44//44 42//42
f 37//37 43//43 44//44
f 45//45 41//41 46//46
f 45//45 47//47 48//48
f 45//45 48//48 41//41
f 45//45 46//46 49//49
f 45//45 49//49 47//47
f 41//41 42//42 44//44
f 41//41 48//48 40//40
f 41//41 44//44 46//46
f 22//22 28//28 50//50
f 22//22 50//50 23//23
f 27//27 30//30 28//28
f 28//28 30//30 31//31
f 28//28 31//31 51//51
f 28//28 51//51 50//50
f 31//31 32//32 52//52
f 31//31 53//53 54//54
f 31//31 52//52 53//53
f 31//31 54//54 51//51
f 32//32 38//38 52//52
f 53//53 52//52 55//55
f 53//53 55//55 54//54
f 52//52 38//38 56//56
f 52//52 56//56 55//55
f 38//38 39//39 57//57
f 38//38 57//57 56//56
f 39//39 40//40 47//47
f 39//39 47//47 57//57
f 40//40 48//48 47//47
f 50//50 51//51 58//58
f 50//50 58//58 23//23
f 51//51 54//54 59//59
f 51//51 59//59 58//58
f 54//54 55//55 56//56
f 54//54 56//56 49//49
f 54//54 60//60 59//59
f 54//54 49//49 60//60
f 56//56 57//57 49//49
f 57//57 47//47 49//49
f 6//6 61//61 7//7
f 6//6 25//25 61//61
f 7//7 14//14 12//12
f 7//7 61//61 62//62
f 7//7 62//62 14//14
f 14//14 16//16 15//15
f 14//14 62//62 63//63
f 14//14 63//63 16//16
f 16//16 63//63 64//64
f 16//16 64//64 17//17
f 17//17 64//64 65//65
f 17//17 65//65 18//18
f 61//61 25//25 66//66
f 61//61 66//66 67//67
f 61//61 67//67 62//62
f 62//62 68//68 63//63
f 62//62 69//69 68//68
f 62//62 67//67 70//70
f 62//62 70//70 69//69
f 68//68 69//69 71//71
f 68//68 72//72 63//63
f 68//68 71//71 72//72
f 69//69 70//70 73//73
f 69//69 73//73 71//71
f 63//63 72//72 74//74
f 63//63 74//74 75//75
f 63//63 75//75 64//64
f 72//72 71//71 76//76
f 72//72 76//76 74//74
f 74//74 76//76 77//77
f 74//74 77//77 75//75
f 75//75 77//77 78//78
f 75//75 78//78 64//64
f 64//64 78//78 44//44
f 64//64 44//44 65//65
f 65//65 44//44 43//43
f 65//65 43//43 18//18
f 24//24 79//79 25//25
f 24//24 23//23 79//79
f 25//25 79//79 66//66
f 79//79 23//23 58//58
f 79//79 58//58 66//66
f 66//66 80//80 67//67
f 66//66 58//58 59//59
f 66//66 59//59 80//80
f 67//67 80//80 70//70
f 80//80 59//59 81//81
f 80//80 81//81 70//70
f 70//70 81//81 82//82
f 70//70 82//82 73//73
f 71//71 73//73 46//46
f 71//71 46//46 76//76
f 73//73 82//82 49//49
f 73//73 49//49 46//46
f 46//46 77//77 76//76
f 46//46 78//78 77//77
f 46//46 44//44 78//78
f 59//59 60//60 81//81
f 60//60 49//49 81//81
f 81//81 49//49 82//82
# 160 faces, 0 coords texture

# End of File
