####
#
# OBJ File Generated by Meshlab
#
####
# Object step_11_link_5.obj
#
# Vertices: 77
# Faces: 150
#
####
vn 3.915155 0.548564 4.835744
v 0.271372 0.059040 0.694133
vn 1.990737 3.388090 2.162663
v 0.266792 0.063347 0.697224
vn 1.700121 2.702396 4.157679
v 0.265917 0.062894 0.698005
vn 3.684044 0.095653 5.088742
v 0.265497 0.061948 0.698336
vn 3.625076 0.088013 5.129591
v 0.265427 0.061973 0.698386
vn 3.567395 -0.117717 5.168159
v 0.265427 -0.039469 0.698386
vn 3.592187 -0.326624 5.128518
v 0.271372 -0.042608 0.694133
vn 3.775084 2.410722 2.490041
v 0.413754 -0.030640 0.587092
vn 1.159676 5.205411 -1.488335
v 0.266792 0.063347 0.595828
vn -0.469827 5.798529 1.346807
v 0.162064 0.063347 0.697224
vn 3.903782 4.838568 0.397475
v 0.414631 -0.031149 0.585243
vn 3.534523 0.125639 5.190371
v 0.265362 0.061995 0.698430
vn 3.428766 0.175645 5.257248
v 0.265302 0.062013 0.698470
vn 3.304614 0.239929 5.330148
v 0.265248 0.062028 0.698504
vn 3.159668 0.320664 5.407619
v 0.265198 0.062040 0.698534
vn 2.987247 0.422584 5.488944
v 0.265154 0.062049 0.698558
vn 2.772165 0.555234 5.573996
v 0.265115 0.062056 0.698579
vn 2.507776 0.721472 5.656004
v 0.265080 0.062060 0.698595
vn 2.174009 0.932240 5.723769
v 0.265051 0.062062 0.698607
vn 1.743111 1.199616 5.756953
v 0.265026 0.062063 0.698616
vn 1.183762 1.523480 5.715872
v 0.265005 0.062062 0.698621
vn 0.554888 1.801186 5.603032
v 0.264989 0.062060 0.698625
vn -1.188111 4.742446 2.276373
v 0.160228 0.062894 0.698005
vn 3.454797 -0.167407 5.240453
v 0.265362 -0.039440 0.698430
vn 3.316962 -0.231066 5.322535
v 0.265302 -0.039413 0.698470
vn 3.151456 -0.311057 5.411937
v 0.265248 -0.039387 0.698504
vn 2.954881 -0.408701 5.505667
v 0.265198 -0.039364 0.698534
vn 2.718129 -0.528223 5.601046
v 0.265154 -0.039342 0.698558
vn 2.422281 -0.677190 5.694531
v 0.265115 -0.039323 0.698579
vn 2.064744 -0.850599 5.774785
v 0.265080 -0.039306 0.698595
vn 1.627890 -1.052684 5.824555
v 0.265051 -0.039290 0.698607
vn 1.106442 -1.272381 5.824159
v 0.265026 -0.039277 0.698616
vn 0.781123 -1.290484 5.871491
v 0.265005 -0.039266 0.698621
vn 0.521730 -0.956405 6.056123
v 0.264989 -0.039256 0.698625
vn 0.186135 1.434880 5.869728
v 0.264977 0.062058 0.698626
vn 0.223268 -0.454963 6.221755
v 0.264977 -0.039249 0.698626
vn -0.704742 4.130040 4.365341
v 0.158681 0.062060 0.698625
vn -1.951694 2.254574 2.606453
v 0.158676 0.062058 0.698626
vn -1.133414 4.540747 -2.407735
v 0.162064 0.063347 0.595828
vn 3.124883 5.155271 -1.060775
v 0.414631 -0.031149 0.480507
vn 1.364426 4.856038 -2.795994
v 0.414142 -0.030889 0.480573
vn -0.291435 4.121864 -4.618602
v 0.304680 -0.030889 0.480573
vn 1.560521 -2.289918 4.778311
v 0.265917 -0.040554 0.698005
vn 1.920609 -2.843293 2.250893
v 0.413754 -0.141167 0.587092
vn -1.781340 -3.884529 2.704458
v 0.160228 -0.040554 0.698005
vn -1.237682 -5.039846 1.564725
v 0.302011 -0.141167 0.587092
vn -2.019030 -3.430451 2.923129
v 0.158692 -0.039266 0.698621
vn -2.289415 -2.629884 2.866047
v 0.158681 -0.039256 0.698625
vn -2.672997 -1.423574 2.788781
v 0.158676 -0.039249 0.698626
vn -2.312584 3.989798 -2.420719
v 0.160228 0.062894 0.596368
vn -4.188106 2.441523 -1.453361
v 0.158676 0.062058 0.596912
vn -2.906090 0.827280 2.586923
v 0.158674 0.062056 0.698626
vn -3.082630 -0.426335 2.866732
v 0.158674 -0.039244 0.698626
vn -5.719875 1.379646 -0.582321
v 0.158674 0.062056 0.596917
vn -1.869952 2.067426 -4.672483
v 0.302011 -0.030640 0.481037
vn -2.955019 2.028970 -5.156869
v 0.158733 0.062062 0.596869
vn -3.322845 1.973151 -4.789398
v 0.158708 0.062063 0.596883
vn -3.634952 2.159296 -3.917606
v 0.158692 0.062062 0.596895
vn -3.736930 2.559827 -2.473828
v 0.158681 0.062060 0.596905
vn -4.016364 -2.366151 -2.409158
v 0.158692 -0.039266 0.596895
vn -4.338290 -2.136114 -2.113560
v 0.158681 -0.039256 0.596905
vn -5.199327 -1.532050 -1.555794
v 0.158676 -0.039249 0.596912
vn -6.054028 -0.624619 -0.687150
v 0.158674 -0.039244 0.596917
vn -3.967886 -4.776592 -0.551381
v 0.160228 -0.040554 0.596368
vn -1.757175 -2.746232 -2.306770
v 0.302011 -0.141167 0.481037
vn 4.580927 1.815978 1.315502
v 0.419254 -0.034831 0.580543
vn 2.486087 1.562157 -2.159933
v 0.419254 -0.034831 0.477102
vn 3.779795 -2.264861 1.159000
v 0.419254 -0.139153 0.580543
vn 0.348212 1.643234 -5.659937
v 0.417568 -0.035287 0.476775
vn -0.220083 3.740618 -5.011726
v 0.312990 -0.034831 0.477102
vn 2.343913 -1.696112 -1.865100
v 0.419254 -0.139153 0.477102
vn 0.589426 -2.813243 -3.965606
v 0.417568 -0.139316 0.476775
vn -0.309359 1.691321 -5.662403
v 0.313443 -0.035287 0.476775
vn 0.774195 -5.872905 -0.958880
v 0.413754 -0.141167 0.481037
vn -0.277473 -2.728651 -4.367494
v 0.313443 -0.139316 0.476775
vn -1.166036 1.520635 -5.599284
v 0.312549 -0.035185 0.476915
vn -1.321175 -1.934946 -5.244127
v 0.312549 -0.139259 0.476915
# 77 vertices, 0 vertices normals

f 1//1 2//2 3//3
f 1//1 3//3 4//4
f 1//1 4//4 5//5
f 1//1 5//5 6//6
f 1//1 7//7 8//8
f 1//1 6//6 7//7
f 1//1 8//8 2//2
f 2//2 9//9 10//10
f 2//2 10//10 3//3
f 2//2 11//11 9//9
f 2//2 8//8 11//11
f 3//3 5//5 4//4
f 3//3 12//12 5//5
f 3//3 13//13 12//12
f 3//3 14//14 13//13
f 3//3 15//15 14//14
f 3//3 16//16 15//15
f 3//3 17//17 16//16
f 3//3 18//18 17//17
f 3//3 19//19 18//18
f 3//3 20//20 19//19
f 3//3 21//21 20//20
f 3//3 22//22 21//21
f 3//3 10//10 23//23
f 3//3 23//23 22//22
f 5//5 12//12 24//24
f 5//5 24//24 6//6
f 12//12 13//13 25//25
f 12//12 25//25 24//24
f 13//13 14//14 26//26
f 13//13 26//26 25//25
f 14//14 15//15 27//27
f 14//14 27//27 26//26
f 15//15 16//16 28//28
f 15//15 28//28 27//27
f 16//16 17//17 29//29
f 16//16 29//29 28//28
f 17//17 18//18 30//30
f 17//17 30//30 29//29
f 18//18 19//19 31//31
f 18//18 31//31 30//30
f 19//19 20//20 32//32
f 19//19 32//32 31//31
f 20//20 21//21 33//33
f 20//20 33//33 32//32
f 21//21 22//22 34//34
f 21//21 34//34 33//33
f 22//22 35//35 36//36
f 22//22 36//36 34//34
f 22//22 23//23 37//37
f 22//22 37//37 35//35
f 35//35 37//37 38//38
f 35//35 38//38 36//36
f 9//9 39//39 10//10
f 9//9 11//11 40//40
f 9//9 40//40 41//41
f 9//9 41//41 42//42
f 9//9 42//42 39//39
f 7//7 43//43 44//44
f 7//7 6//6 43//43
f 7//7 44//44 8//8
f 43//43 6//6 24//24
f 43//43 24//24 25//25
f 43//43 25//25 26//26
f 43//43 26//26 27//27
f 43//43 27//27 28//28
f 43//43 28//28 29//29
f 43//43 29//29 30//30
f 43//43 30//30 31//31
f 43//43 31//31 32//32
f 43//43 32//32 33//33
f 43//43 33//33 45//45
f 43//43 45//45 46//46
f 43//43 46//46 44//44
f 33//33 34//34 47//47
f 33//33 47//47 45//45
f 34//34 36//36 48//48
f 34//34 48//48 47//47
f 36//36 38//38 49//49
f 36//36 49//49 48//48
f 10//10 39//39 50//50
f 10//10 50//50 23//23
f 23//23 38//38 37//37
f 23//23 50//50 51//51
f 23//23 51//51 38//38
f 38//38 52//52 53//53
f 38//38 51//51 54//54
f 38//38 54//54 52//52
f 38//38 53//53 49//49
f 52//52 54//54 53//53
f 39//39 42//42 55//55
f 39//39 55//55 50//50
f 50//50 56//56 57//57
f 50//50 57//57 58//58
f 50//50 58//58 59//59
f 50//50 59//59 51//51
f 50//50 55//55 56//56
f 56//56 55//55 57//57
f 57//57 55//55 58//58
f 58//58 60//60 61//61
f 58//58 61//61 59//59
f 58//58 55//55 60//60
f 59//59 61//61 62//62
f 59//59 62//62 51//51
f 51//51 62//62 63//63
f 51//51 63//63 54//54
f 54//54 63//63 53//53
f 45//45 47//47 60//60
f 45//45 64//64 46//46
f 45//45 60//60 64//64
f 47//47 48//48 61//61
f 47//47 61//61 60//60
f 48//48 49//49 62//62
f 48//48 62//62 61//61
f 49//49 53//53 63//63
f 49//49 63//63 62//62
f 64//64 60//60 65//65
f 64//64 65//65 46//46
f 60//60 55//55 65//65
f 66//66 11//11 8//8
f 66//66 8//8 44//44
f 66//66 67//67 40//40
f 66//66 40//40 11//11
f 66//66 68//68 67//67
f 66//66 44//44 68//68
f 67//67 69//69 70//70
f 67//67 41//41 40//40
f 67//67 68//68 71//71
f 67//67 71//71 69//69
f 67//67 70//70 41//41
f 69//69 71//71 72//72
f 69//69 72//72 73//73
f 69//69 73//73 70//70
f 41//41 70//70 42//42
f 68//68 44//44 74//74
f 68//68 74//74 71//71
f 44//44 46//46 74//74
f 71//71 74//74 72//72
f 72//72 74//74 75//75
f 72//72 75//75 73//73
f 74//74 46//46 65//65
f 74//74 65//65 75//75
f 70//70 73//73 76//76
f 70//70 76//76 42//42
f 73//73 75//75 77//77
f 73//73 77//77 76//76
f 76//76 55//55 42//42
f 76//76 77//77 65//65
f 76//76 65//65 55//55
f 75//75 65//65 77//77
# 150 faces, 0 coords texture

# End of File
