####
#
# OBJ File Generated by Meshlab
#
####
# Object step_20_link_7.obj
#
# Vertices: 65
# Faces: 126
#
####
vn 5.102061 1.158849 3.131937
v 0.435070 -0.084921 0.557693
vn 2.111030 3.759496 1.984297
v 0.429929 -0.080661 0.563662
vn 3.633564 1.386836 4.289038
v 0.429819 -0.081639 0.564358
vn 3.473326 -1.329898 4.464842
v 0.429819 -0.192947 0.564358
vn 5.089702 -0.524875 3.551458
v 0.435070 -0.191242 0.557693
vn 5.725267 0.468304 1.920999
v 0.566159 -0.125335 0.337570
vn 3.989016 3.225158 1.085862
v 0.565929 -0.124166 0.337523
vn 2.505824 1.405115 5.260949
v 0.429249 -0.081693 0.564690
vn 2.010152 1.756899 5.337439
v 0.428791 -0.081580 0.564847
vn 0.599424 2.442082 4.606546
v 0.428143 -0.081465 0.565038
vn 0.813886 6.110255 -0.301801
v 0.429929 -0.080661 0.456046
vn -0.817847 5.678797 1.240038
v 0.316196 -0.080661 0.563662
vn 2.162657 5.892544 0.030761
v 0.565005 -0.123746 0.334638
vn 2.401131 -1.306116 5.371983
v 0.429249 -0.192799 0.564690
vn 1.849450 -1.662470 5.471638
v 0.428791 -0.192863 0.564847
vn 0.598759 -2.153940 5.037473
v 0.428143 -0.192902 0.565038
vn -1.506691 2.407167 2.921325
v 0.314259 -0.081465 0.565038
vn -1.385156 5.809396 -0.692131
v 0.316196 -0.080661 0.456046
vn 1.008780 4.420371 -2.560798
v 0.565005 -0.123746 0.172259
vn -0.369635 4.555849 -3.147382
v 0.387949 -0.123746 0.172259
vn 2.588278 -3.240389 1.337629
v 0.565929 -0.298378 0.337523
vn 5.104664 -1.103039 3.488187
v 0.565958 -0.297411 0.337812
vn 5.642716 -0.545770 2.016514
v 0.566159 -0.297215 0.337570
vn 2.091621 -3.583538 3.423184
v 0.429929 -0.194049 0.563662
vn -0.770228 -5.306082 2.896502
v 0.316196 -0.194049 0.563662
vn -2.202205 -4.724657 0.796372
v 0.385284 -0.298378 0.337523
vn -1.527836 -2.285716 3.754909
v 0.314259 -0.192902 0.565038
vn -2.529499 5.748203 0.042481
v 0.314242 -0.081465 0.564445
vn -2.528109 5.749803 -0.021356
v 0.314242 -0.081465 0.457658
vn -2.861991 5.588488 0.026421
v 0.313872 -0.081639 0.564358
vn -3.661078 1.924986 1.603637
v 0.313776 -0.081693 0.564690
vn -3.466347 4.837771 -1.003287
v 0.313872 -0.081639 0.456819
vn -4.587645 2.508769 -0.506910
v 0.313776 -0.081693 0.456955
vn -3.716621 -1.849538 1.923690
v 0.313776 -0.192799 0.564690
vn -2.472547 5.775274 -0.103889
v 0.314259 -0.081465 0.457230
vn -2.133061 2.236218 -2.770748
v 0.385284 -0.124166 0.172318
vn -5.717059 -1.474522 -0.470734
v 0.313776 -0.192799 0.456955
vn -5.528978 0.670313 -2.387147
v 0.384595 -0.125335 0.173270
vn -4.439055 -4.211149 0.591209
v 0.313872 -0.192947 0.564358
vn -5.259223 -3.435797 -0.038262
v 0.313872 -0.192947 0.456819
vn -1.765102 -2.259099 -2.061641
v 0.385284 -0.298378 0.172318
vn -5.368580 -1.262153 -1.778395
v 0.384595 -0.297215 0.173270
vn 2.573434 5.723438 0.046350
v 0.565556 -0.123976 0.335283
vn 2.626566 5.691412 -0.199877
v 0.565556 -0.123976 0.172511
vn 3.168325 2.568432 -2.200333
v 0.565929 -0.124166 0.172318
vn 5.983706 1.192869 0.320263
v 0.566241 -0.124877 0.336674
vn 6.033230 -1.088198 0.301720
v 0.566241 -0.297586 0.336674
vn 4.432080 0.819157 -2.377876
v 0.566241 -0.124877 0.172419
vn 1.199498 1.052215 -5.554338
v 0.560480 -0.129594 0.168988
vn 0.451244 2.854792 -5.526247
v 0.563400 -0.125272 0.171281
vn 2.015191 2.880307 -4.509706
v 0.565519 -0.124074 0.172143
vn 1.405432 -0.404806 -5.794968
v 0.560480 -0.285995 0.168988
vn -0.353858 1.292656 -5.881900
v 0.402609 -0.129594 0.168988
vn -0.605327 1.686808 -5.726251
v 0.390468 -0.125272 0.171281
vn 4.366530 -0.739497 -2.462093
v 0.566241 -0.297586 0.172419
vn 0.240225 -6.271113 0.051301
v 0.565005 -0.298456 0.334638
vn -0.070713 -6.280877 0.063189
v 0.387949 -0.298456 0.334638
vn 0.331541 -4.411816 -2.777015
v 0.565005 -0.298456 0.172259
vn 2.097746 -2.570485 -1.938548
v 0.565929 -0.298378 0.172318
vn 0.766493 -1.742546 -5.770084
v 0.563400 -0.296672 0.171281
vn -0.423651 -0.505705 -6.170001
v 0.402609 -0.285995 0.168988
vn 1.300003 -1.643645 -5.800942
v 0.565519 -0.298087 0.172143
vn -0.538975 -1.475930 -5.844757
v 0.390468 -0.296672 0.171281
vn -0.126425 -4.531763 -2.786065
v 0.387949 -0.298456 0.172259
vn -0.622476 2.895693 -5.505627
v 0.387150 -0.124074 0.172143
# 65 vertices, 0 vertices normals

f 1//1 2//2 3//3
f 1//1 3//3 4//4
f 1//1 5//5 6//6
f 1//1 4//4 5//5
f 1//1 7//7 2//2
f 1//1 6//6 7//7
f 2//2 8//8 3//3
f 2//2 9//9 8//8
f 2//2 10//10 9//9
f 2//2 11//11 12//12
f 2//2 12//12 10//10
f 2//2 13//13 11//11
f 2//2 7//7 13//13
f 3//3 8//8 14//14
f 3//3 14//14 4//4
f 8//8 9//9 15//15
f 8//8 15//15 14//14
f 9//9 10//10 16//16
f 9//9 16//16 15//15
f 10//10 12//12 17//17
f 10//10 17//17 16//16
f 11//11 18//18 12//12
f 11//11 13//13 19//19
f 11//11 19//19 20//20
f 11//11 20//20 18//18
f 5//5 4//4 21//21
f 5//5 21//21 22//22
f 5//5 23//23 6//6
f 5//5 22//22 23//23
f 24//24 4//4 14//14
f 24//24 14//14 15//15
f 24//24 15//15 16//16
f 24//24 16//16 25//25
f 24//24 25//25 26//26
f 24//24 21//21 4//4
f 24//24 26//26 21//21
f 16//16 17//17 27//27
f 16//16 27//27 25//25
f 12//12 28//28 17//17
f 12//12 18//18 29//29
f 12//12 29//29 28//28
f 30//30 31//31 17//17
f 30//30 17//17 28//28
f 30//30 28//28 29//29
f 30//30 32//32 33//33
f 30//30 33//33 31//31
f 30//30 29//29 32//32
f 31//31 33//33 34//34
f 31//31 34//34 27//27
f 31//31 27//27 17//17
f 18//18 32//32 35//35
f 18//18 35//35 29//29
f 18//18 20//20 36//36
f 18//18 36//36 32//32
f 32//32 29//29 35//35
f 32//32 36//36 33//33
f 33//33 37//37 34//34
f 33//33 36//36 38//38
f 33//33 38//38 37//37
f 25//25 27//27 26//26
f 39//39 34//34 37//37
f 39//39 40//40 26//26
f 39//39 37//37 40//40
f 39//39 26//26 34//34
f 34//34 26//26 27//27
f 40//40 37//37 41//41
f 40//40 41//41 26//26
f 37//37 38//38 42//42
f 37//37 42//42 41//41
f 13//13 43//43 44//44
f 13//13 7//7 43//43
f 13//13 44//44 19//19
f 43//43 7//7 45//45
f 43//43 45//45 44//44
f 46//46 7//7 6//6
f 46//46 6//6 47//47
f 46//46 48//48 45//45
f 46//46 45//45 7//7
f 46//46 47//47 48//48
f 6//6 23//23 47//47
f 49//49 50//50 51//51
f 49//49 51//51 45//45
f 49//49 48//48 52//52
f 49//49 45//45 48//48
f 49//49 52//52 53//53
f 49//49 53//53 50//50
f 50//50 19//19 51//51
f 50//50 53//53 54//54
f 50//50 54//54 19//19
f 19//19 44//44 45//45
f 19//19 45//45 51//51
f 19//19 54//54 20//20
f 48//48 47//47 55//55
f 48//48 55//55 52//52
f 56//56 21//21 57//57
f 56//56 58//58 59//59
f 56//56 59//59 21//21
f 56//56 57//57 58//58
f 47//47 21//21 59//59
f 47//47 23//23 21//21
f 47//47 59//59 55//55
f 21//21 23//23 22//22
f 21//21 26//26 57//57
f 52//52 60//60 61//61
f 52//52 62//62 60//60
f 52//52 55//55 59//59
f 52//52 59//59 62//62
f 52//52 61//61 53//53
f 60//60 58//58 63//63
f 60//60 62//62 58//58
f 60//60 63//63 61//61
f 58//58 62//62 59//59
f 58//58 57//57 64//64
f 58//58 64//64 63//63
f 53//53 61//61 54//54
f 54//54 65//65 20//20
f 54//54 36//36 65//65
f 54//54 61//61 63//63
f 54//54 63//63 36//36
f 20//20 65//65 36//36
f 36//36 63//63 41//41
f 36//36 41//41 38//38
f 38//38 41//41 42//42
f 57//57 26//26 41//41
f 57//57 41//41 64//64
f 63//63 64//64 41//41
# 126 faces, 0 coords texture

# End of File
