####
#
# OBJ File Generated by Meshlab
#
####
# Object step_46_link_4.obj
#
# Vertices: 90
# Faces: 176
#
####
vn 5.352349 0.323650 -2.250589
v 0.077883 0.094613 0.439011
vn 4.893788 0.813444 -2.798827
v 0.077284 0.097110 0.438402
vn 6.048154 1.549979 -0.358337
v 0.088663 0.152120 0.641495
vn 3.494162 -0.938193 -2.954706
v 0.077883 -0.007497 0.439011
vn 2.193105 -0.409566 -5.315348
v 0.077284 -0.005276 0.438402
vn 6.186850 0.675442 -0.241186
v 0.089765 0.147044 0.642755
vn 6.213824 -0.584065 -0.115904
v 0.089765 0.042828 0.642755
vn 2.641653 1.972355 -2.884510
v 0.077284 0.097112 0.438401
vn 4.051314 3.702884 -0.599712
v 0.088662 0.152124 0.641494
vn 1.816392 -0.223492 -5.651010
v 0.077284 -0.005270 0.438401
vn 0.734786 2.874077 -3.588788
v 0.077283 0.097113 0.438401
vn 1.236910 5.799234 -0.816619
v 0.088661 0.152125 0.641494
vn 0.463868 -0.072034 -6.241181
v 0.077283 -0.005268 0.438401
vn -0.472155 2.965676 -3.717887
v -0.023486 0.097113 0.438401
vn -0.707939 6.035391 -0.792864
v -0.013344 0.152125 0.641494
vn 2.726846 -4.265703 0.362268
v 0.075470 -0.017122 0.541434
vn 5.951672 -1.945773 0.050501
v 0.076540 -0.014521 0.540854
vn 5.987813 -1.688415 0.363352
v 0.086849 0.028629 0.746635
vn 1.656116 -2.691386 -1.900868
v 0.075470 -0.017122 0.441175
vn -2.816633 -3.993339 0.426633
v -0.025294 -0.017122 0.541434
vn 1.772343 -2.526826 2.284026
v 0.084699 0.023476 0.747765
vn -1.782657 -2.467932 2.370195
v -0.016848 0.023476 0.747765
vn 4.112737 -1.742260 -2.621737
v 0.076540 -0.014521 0.440748
vn 6.133789 -1.357838 -0.010086
v 0.086849 0.028629 0.646347
vn 1.151111 -1.619372 -5.836312
v 0.076770 -0.011312 0.439795
vn -1.715662 -2.495932 -1.835097
v -0.025294 -0.017122 0.441175
vn -0.634351 -1.327821 -6.073024
v -0.024328 -0.011312 0.439795
vn 0.474540 -1.399502 -6.086950
v 0.077282 -0.005356 0.438418
vn -2.232871 -0.693030 -5.264745
v -0.023511 -0.005356 0.438418
vn 0.670584 -1.300687 -6.069236
v 0.077284 -0.005325 0.438411
vn 0.984147 -1.139950 -6.010535
v 0.077285 -0.005302 0.438407
vn 1.537775 -0.849988 -5.799045
v 0.077285 -0.005286 0.438404
vn -2.096002 -0.656968 -5.396756
v -0.023503 -0.005325 0.438411
vn -1.914848 -0.600262 -5.556851
v -0.023497 -0.005302 0.438407
vn -1.665042 -0.521248 -5.740754
v -0.023492 -0.005286 0.438404
vn -1.296433 -0.401748 -5.953023
v -0.023489 -0.005276 0.438402
vn -0.775437 -0.238409 -6.159430
v -0.023487 -0.005270 0.438401
vn -0.251205 -0.078648 -6.268219
v -0.023486 -0.005268 0.438401
vn -6.229584 0.532827 0.067962
v -0.025797 0.085149 0.541584
vn -5.469224 0.333065 -1.889543
v -0.025797 0.085149 0.441020
vn -6.085994 -1.031945 0.236950
v -0.025797 -0.015559 0.541584
vn -3.420667 -0.696012 2.986232
v -0.017886 0.026568 0.748076
vn -3.811264 0.451912 2.920231
v -0.017886 0.127983 0.748076
vn -6.177533 1.147370 -0.000607
v -0.017886 0.127983 0.646909
vn -6.165054 1.113430 -0.339381
v -0.023557 0.096833 0.438472
vn -5.872598 0.846278 -1.422236
v -0.023543 0.096905 0.438454
vn -5.408276 0.662180 -2.108989
v -0.023530 0.096964 0.438439
vn -2.859080 -0.633154 -5.109672
v -0.023530 -0.005444 0.438439
vn -3.924673 -0.922205 -2.671398
v -0.025797 -0.015559 0.441020
vn -6.173120 1.170727 -0.003963
v -0.013486 0.151556 0.641639
vn -6.162157 1.226311 -0.011649
v -0.013458 0.151701 0.641602
vn -6.144127 1.312639 -0.023253
v -0.013433 0.151822 0.641572
vn -5.300515 0.713995 -2.220770
v -0.023520 0.097011 0.438427
vn -2.468360 -0.686224 -5.161671
v -0.023520 -0.005395 0.438427
vn -6.118716 1.424464 -0.038330
v -0.013411 0.151918 0.641547
vn -5.153161 0.786231 -2.357618
v -0.023511 0.097048 0.438418
vn -6.080808 1.574815 -0.058667
v -0.013393 0.151992 0.641528
vn -4.947736 0.888602 -2.521967
v -0.023503 0.097075 0.438411
vn -6.019641 1.787221 -0.087631
v -0.013378 0.152047 0.641514
vn -4.655885 1.044660 -2.711462
v -0.023497 0.097093 0.438407
vn -5.908438 2.110151 -0.131946
v -0.013366 0.152085 0.641504
vn -4.193619 1.303440 -2.927985
v -0.023492 0.097104 0.438404
vn -5.667871 2.649489 -0.207817
v -0.013357 0.152108 0.641498
vn -3.379321 1.785979 -3.118669
v -0.023489 0.097110 0.438402
vn -4.991951 3.642424 -0.352335
v -0.013350 0.152120 0.641495
vn -1.876523 2.552170 -3.151430
v -0.023487 0.097112 0.438401
vn -2.883537 5.083350 -0.615339
v -0.013346 0.152124 0.641494
vn 2.345344 0.444278 4.845913
v 0.086552 0.130344 0.748527
vn 3.761184 0.923492 2.791004
v 0.089765 0.147044 0.743791
vn 0.737300 1.536943 6.001138
v 0.088661 0.152047 0.742821
vn -3.014223 1.677635 2.998551
v -0.013378 0.152047 0.742821
vn 2.865425 -0.992090 3.207140
v 0.086552 0.028241 0.748527
vn 5.701108 -0.375202 1.567283
v 0.089765 0.042828 0.743791
vn -1.495704 1.046673 5.597978
v -0.016027 0.130344 0.748527
vn 1.186102 1.648607 5.808088
v 0.088664 0.152085 0.742811
vn 2.221124 1.840140 4.966646
v 0.088664 0.152108 0.742804
vn 2.915379 1.938177 2.813201
v 0.088663 0.152120 0.742799
vn -2.938806 1.862229 2.965948
v -0.013366 0.152085 0.742811
vn -2.818207 2.213255 2.885005
v -0.013357 0.152108 0.742804
vn -2.513880 2.840922 2.690076
v -0.013350 0.152120 0.742799
vn 2.309378 3.010846 1.971583
v 0.088662 0.152124 0.742797
vn -1.666169 3.963170 2.218947
v -0.013346 0.152124 0.742797
vn 0.879532 5.735303 1.096223
v 0.088661 0.152125 0.742796
vn -0.457296 5.875799 1.223917
v -0.013344 0.152125 0.742796
vn -0.615592 -0.364979 6.160544
v -0.016027 0.028241 0.748527
vn -4.539420 1.478969 2.631213
v -0.013458 0.151701 0.742899
vn -5.480427 1.433189 1.843581
v -0.013486 0.151556 0.742930
vn -4.182611 1.522243 2.791672
v -0.013433 0.151822 0.742873
vn -3.779491 1.562985 2.915439
v -0.013411 0.151918 0.742851
vn -3.396800 1.610341 2.981075
v -0.013393 0.151992 0.742834
# 90 vertices, 0 vertices normals

f 1//1 2//2 3//3
f 1//1 4//4 5//5
f 1//1 5//5 2//2
f 1//1 6//6 7//7
f 1//1 3//3 6//6
f 1//1 7//7 4//4
f 2//2 8//8 9//9
f 2//2 5//5 10//10
f 2//2 10//10 8//8
f 2//2 9//9 3//3
f 8//8 11//11 12//12
f 8//8 10//10 13//13
f 8//8 13//13 11//11
f 8//8 12//12 9//9
f 11//11 13//13 14//14
f 11//11 14//14 15//15
f 11//11 15//15 12//12
f 16//16 17//17 18//18
f 16//16 19//19 17//17
f 16//16 20//20 19//19
f 16//16 21//21 22//22
f 16//16 18//18 21//21
f 16//16 22//22 20//20
f 17//17 19//19 23//23
f 17//17 23//23 24//24
f 17//17 24//24 18//18
f 19//19 25//25 23//23
f 19//19 20//20 26//26
f 19//19 26//26 27//27
f 19//19 27//27 25//25
f 23//23 25//25 4//4
f 23//23 4//4 7//7
f 23//23 7//7 24//24
f 25//25 28//28 4//4
f 25//25 27//27 29//29
f 25//25 29//29 28//28
f 4//4 28//28 30//30
f 4//4 30//30 31//31
f 4//4 31//31 32//32
f 4//4 32//32 5//5
f 28//28 29//29 33//33
f 28//28 33//33 30//30
f 30//30 33//33 34//34
f 30//30 34//34 31//31
f 31//31 34//34 35//35
f 31//31 35//35 32//32
f 32//32 35//35 36//36
f 32//32 36//36 5//5
f 5//5 36//36 37//37
f 5//5 37//37 10//10
f 10//10 37//37 38//38
f 10//10 38//38 13//13
f 13//13 38//38 14//14
f 39//39 40//40 41//41
f 39//39 41//41 42//42
f 39//39 43//43 44//44
f 39//39 44//44 40//40
f 39//39 42//42 43//43
f 40//40 45//45 46//46
f 40//40 46//46 47//47
f 40//40 47//47 48//48
f 40//40 49//49 41//41
f 40//40 48//48 49//49
f 40//40 44//44 50//50
f 40//40 50//50 45//45
f 45//45 50//50 51//51
f 45//45 51//51 46//46
f 46//46 51//51 52//52
f 46//46 52//52 47//47
f 47//47 53//53 54//54
f 47//47 54//54 48//48
f 47//47 52//52 55//55
f 47//47 55//55 53//53
f 53//53 56//56 29//29
f 53//53 29//29 54//54
f 53//53 55//55 57//57
f 53//53 57//57 56//56
f 56//56 58//58 33//33
f 56//56 33//33 29//29
f 56//56 57//57 59//59
f 56//56 59//59 58//58
f 58//58 60//60 34//34
f 58//58 34//34 33//33
f 58//58 59//59 61//61
f 58//58 61//61 60//60
f 60//60 62//62 35//35
f 60//60 35//35 34//34
f 60//60 61//61 63//63
f 60//60 63//63 62//62
f 62//62 64//64 36//36
f 62//62 36//36 35//35
f 62//62 63//63 65//65
f 62//62 65//65 64//64
f 64//64 66//66 37//37
f 64//64 37//37 36//36
f 64//64 65//65 67//67
f 64//64 67//67 66//66
f 66//66 14//14 38//38
f 66//66 38//38 37//37
f 66//66 67//67 15//15
f 66//66 15//15 14//14
f 20//20 41//41 26//26
f 20//20 22//22 42//42
f 20//20 42//42 41//41
f 41//41 49//49 26//26
f 26//26 49//49 48//48
f 26//26 48//48 27//27
f 27//27 48//48 54//54
f 27//27 54//54 29//29
f 68//68 69//69 70//70
f 68//68 70//70 71//71
f 68//68 72//72 73//73
f 68//68 73//73 69//69
f 68//68 74//74 72//72
f 68//68 71//71 74//74
f 69//69 75//75 70//70
f 69//69 76//76 75//75
f 69//69 77//77 76//76
f 69//69 6//6 77//77
f 69//69 73//73 6//6
f 70//70 75//75 78//78
f 70//70 78//78 71//71
f 75//75 76//76 79//79
f 75//75 79//79 78//78
f 76//76 77//77 80//80
f 76//76 80//80 79//79
f 77//77 81//81 82//82
f 77//77 6//6 3//3
f 77//77 3//3 81//81
f 77//77 82//82 80//80
f 81//81 83//83 84//84
f 81//81 3//3 9//9
f 81//81 9//9 83//83
f 81//81 84//84 82//82
f 83//83 9//9 12//12
f 83//83 12//12 84//84
f 6//6 73//73 7//7
f 12//12 15//15 84//84
f 21//21 72//72 85//85
f 21//21 18//18 72//72
f 21//21 85//85 22//22
f 72//72 18//18 73//73
f 72//72 74//74 85//85
f 18//18 24//24 73//73
f 73//73 24//24 7//7
f 43//43 74//74 86//86
f 43//43 87//87 44//44
f 43//43 86//86 87//87
f 43//43 42//42 85//85
f 43//43 85//85 74//74
f 74//74 88//88 86//86
f 74//74 89//89 88//88
f 74//74 90//90 89//89
f 74//74 71//71 90//90
f 87//87 86//86 50//50
f 87//87 50//50 44//44
f 86//86 88//88 51//51
f 86//86 51//51 50//50
f 88//88 89//89 52//52
f 88//88 52//52 51//51
f 89//89 90//90 55//55
f 89//89 55//55 52//52
f 90//90 71//71 57//57
f 90//90 57//57 55//55
f 71//71 78//78 59//59
f 71//71 59//59 57//57
f 78//78 79//79 61//61
f 78//78 61//61 59//59
f 79//79 80//80 63//63
f 79//79 63//63 61//61
f 80//80 82//82 65//65
f 80//80 65//65 63//63
f 82//82 84//84 67//67
f 82//82 67//67 65//65
f 84//84 15//15 67//67
f 22//22 85//85 42//42
# 176 faces, 0 coords texture

# End of File
