####
#
# OBJ File Generated by Meshlab
#
####
# Object step_36_link_6.obj
#
# Vertices: 78
# Faces: 152
#
####
vn 2.290711 0.134779 5.778702
v 0.299978 0.157441 0.645644
vn 1.304518 0.055320 6.138402
v 0.299208 0.158046 0.645830
vn 0.713748 -0.419800 6.159125
v 0.299208 0.054027 0.645830
vn 2.148825 0.527578 5.793464
v 0.295948 0.173409 0.646323
vn 2.153936 -0.319696 5.786718
v 0.299978 0.053714 0.645644
vn 4.335883 -0.046180 4.105126
v 0.392146 0.072095 0.594837
vn 4.573727 0.497147 2.669073
v 0.392146 0.177907 0.594837
vn 4.249202 1.042646 3.572844
v 0.387216 0.198034 0.596569
vn 0.799622 2.194293 4.958495
v 0.294840 0.174918 0.646543
vn 0.444683 -0.125415 6.237860
v 0.294840 0.065070 0.646543
vn 0.268713 5.032035 3.692872
v 0.294734 0.175277 0.646128
vn 0.037555 4.951962 3.822684
v 0.293321 0.175280 0.646155
vn -1.039909 1.856638 4.969268
v 0.183505 0.174918 0.646543
vn 3.486083 1.991274 4.369127
v 0.385821 0.202480 0.596246
vn 3.213372 3.129609 1.916320
v 0.385753 0.203241 0.595878
vn 1.939281 3.830549 4.509478
v 0.384396 0.203865 0.595960
vn 1.854422 4.760230 2.390306
v 0.384358 0.203894 0.595949
vn 0.010543 5.326768 3.322702
v 0.293292 0.175286 0.646146
vn 1.096601 5.387124 1.716618
v 0.384324 0.203909 0.595937
vn -0.194885 4.870369 3.908095
v 0.183293 0.175280 0.646155
vn -0.158046 5.404606 3.163789
v 0.183298 0.175286 0.646146
vn -0.875335 5.734483 1.501319
v 0.270114 0.203909 0.595937
vn 0.959398 -3.919970 2.721295
v 0.300169 0.045504 0.643878
vn 1.543351 -1.548626 5.414000
v 0.300319 0.047893 0.644971
vn -0.980726 -4.146901 2.297178
v 0.198726 0.045504 0.643878
vn 0.329102 -6.133451 -0.719874
v 0.300169 0.045504 0.543363
vn 3.096878 -2.909223 1.222427
v 0.391884 0.060228 0.592695
vn 4.258753 -1.075299 3.370930
v 0.392121 0.064053 0.594566
vn -2.122130 -2.603692 2.701738
v 0.195011 0.047893 0.644971
vn -0.263341 -0.748830 6.215141
v 0.193774 0.054027 0.645830
vn -2.626047 -1.527211 3.688282
v 0.183505 0.065070 0.646543
vn -1.549662 -5.002096 -1.625092
v 0.198726 0.045504 0.543363
vn -0.332330 -4.147675 -3.742585
v 0.289953 0.060228 0.491967
vn 2.115473 -2.405609 -1.698773
v 0.391884 0.060228 0.491967
vn -2.619586 2.530644 1.830126
v 0.182918 0.175277 0.646128
vn -4.552687 0.384800 2.605982
v 0.182758 0.174419 0.646146
vn -4.596108 -0.265415 2.624655
v 0.182758 0.067060 0.646146
vn -3.287722 2.508479 -1.660325
v 0.182918 0.175277 0.541559
vn -4.663767 0.418765 -2.543812
v 0.182758 0.174419 0.541541
vn -1.345226 4.614050 -2.468297
v 0.270114 0.203909 0.489355
vn -1.693813 1.410318 -5.491664
v 0.270113 0.203865 0.489332
vn -1.788465 2.787155 -4.588074
v 0.270109 0.203894 0.489344
vn -4.709465 -0.294286 -2.560934
v 0.182758 0.067060 0.541541
vn -2.766968 0.302080 -5.567725
v 0.269784 0.202495 0.489365
vn -2.728660 -0.136704 -5.617375
v 0.269784 0.091535 0.489365
vn -3.182434 -3.418058 -2.280523
v 0.195011 0.047893 0.542537
vn -5.342811 -3.014260 0.756151
v 0.183291 0.065214 0.646083
vn -5.343988 -3.014009 -0.753679
v 0.183291 0.065214 0.541606
vn -5.099851 -1.366545 1.967173
v 0.182918 0.066005 0.646128
vn -5.097504 -1.367862 -1.969140
v 0.182918 0.066005 0.541559
vn -3.877118 -1.940080 -3.399925
v 0.183505 0.065070 0.541146
vn -1.140106 -2.065113 -5.293254
v 0.285416 0.064053 0.490397
vn -1.587717 -0.687838 -5.723643
v 0.270764 0.089286 0.489008
vn 5.975217 0.145811 1.260513
v 0.392545 0.173142 0.593992
vn 5.765790 0.194868 -1.633679
v 0.392545 0.173142 0.491096
vn 4.438301 0.572819 -2.734123
v 0.392146 0.177907 0.490691
vn 5.756566 -0.284305 1.605531
v 0.392545 0.066053 0.593992
vn 6.053436 1.327302 0.681507
v 0.391661 0.180427 0.594511
vn 6.020478 1.455186 0.709682
v 0.387270 0.198782 0.595668
vn 6.114116 1.345113 -0.325829
v 0.391661 0.180427 0.491406
vn 5.398885 1.809651 1.729068
v 0.386862 0.200283 0.595940
vn 5.967467 1.414590 -0.925565
v 0.387270 0.198782 0.489548
vn 3.918752 1.040068 -2.904427
v 0.386862 0.200283 0.489292
vn 3.082976 3.091677 -1.980270
v 0.385753 0.203241 0.489391
vn 1.263058 3.977652 -2.896094
v 0.384358 0.203894 0.489344
vn 0.866647 4.950423 -2.162449
v 0.384324 0.203909 0.489355
vn 0.215757 6.149100 0.758380
v 0.384294 0.203912 0.595926
vn 0.215757 6.149100 -0.758380
v 0.384294 0.203912 0.489367
vn -0.719213 6.040394 0.629236
v 0.270125 0.203912 0.595926
vn 3.362362 0.023944 -4.696305
v 0.392121 0.172070 0.490397
vn 5.810371 -0.228204 -1.523401
v 0.392545 0.066053 0.491096
vn 2.296147 1.305489 -4.623338
v 0.385821 0.202480 0.489008
vn 2.725859 -0.982707 -3.634054
v 0.392121 0.064053 0.490397
vn 0.622597 -0.099776 -6.206619
v 0.385821 0.089286 0.489008
vn 1.061431 2.893109 -5.047931
v 0.384396 0.203865 0.489332
vn -0.908965 0.518803 -6.017622
v 0.270764 0.202480 0.489008
vn -0.719213 6.040394 -0.629236
v 0.270125 0.203912 0.489367
vn -1.744255 0.676397 -5.947317
v 0.270127 0.203817 0.489323
# 78 vertices, 0 vertices normals

f 1//1 2//2 3//3
f 1//1 4//4 2//2
f 1//1 5//5 6//6
f 1//1 3//3 5//5
f 1//1 7//7 8//8
f 1//1 8//8 4//4
f 1//1 6//6 7//7
f 2//2 4//4 9//9
f 2//2 9//9 10//10
f 2//2 10//10 3//3
f 4//4 8//8 9//9
f 9//9 11//11 12//12
f 9//9 12//12 13//13
f 9//9 13//13 10//10
f 9//9 8//8 14//14
f 9//9 14//14 15//15
f 9//9 15//15 16//16
f 9//9 16//16 17//17
f 9//9 17//17 11//11
f 11//11 18//18 12//12
f 11//11 17//17 19//19
f 11//11 19//19 18//18
f 12//12 18//18 20//20
f 12//12 20//20 13//13
f 18//18 21//21 20//20
f 18//18 19//19 22//22
f 18//18 22//22 21//21
f 23//23 24//24 25//25
f 23//23 26//26 27//27
f 23//23 25//25 26//26
f 23//23 27//27 28//28
f 23//23 28//28 24//24
f 24//24 5//5 3//3
f 24//24 3//3 29//29
f 24//24 29//29 25//25
f 24//24 28//28 5//5
f 5//5 28//28 6//6
f 3//3 10//10 30//30
f 3//3 30//30 29//29
f 10//10 13//13 31//31
f 10//10 31//31 30//30
f 26//26 25//25 32//32
f 26//26 32//32 33//33
f 26//26 34//34 27//27
f 26//26 33//33 34//34
f 13//13 35//35 36//36
f 13//13 36//36 37//37
f 13//13 20//20 35//35
f 13//13 37//37 31//31
f 35//35 20//20 21//21
f 35//35 21//21 22//22
f 35//35 38//38 36//36
f 35//35 22//22 38//38
f 36//36 38//38 39//39
f 36//36 39//39 37//37
f 38//38 22//22 40//40
f 38//38 41//41 39//39
f 38//38 42//42 41//41
f 38//38 40//40 42//42
f 39//39 43//43 37//37
f 39//39 44//44 45//45
f 39//39 41//41 44//44
f 39//39 45//45 43//43
f 25//25 29//29 46//46
f 25//25 46//46 32//32
f 29//29 30//30 31//31
f 29//29 31//31 47//47
f 29//29 47//47 48//48
f 29//29 48//48 46//46
f 31//31 49//49 47//47
f 31//31 37//37 49//49
f 47//47 49//49 48//48
f 49//49 37//37 50//50
f 49//49 50//50 48//48
f 37//37 43//43 50//50
f 32//32 46//46 33//33
f 46//46 51//51 52//52
f 46//46 48//48 51//51
f 46//46 52//52 33//33
f 51//51 48//48 50//50
f 51//51 50//50 43//43
f 51//51 43//43 45//45
f 51//51 53//53 52//52
f 51//51 45//45 53//53
f 54//54 7//7 6//6
f 54//54 55//55 56//56
f 54//54 56//56 7//7
f 54//54 57//57 55//55
f 54//54 6//6 57//57
f 7//7 58//58 59//59
f 7//7 59//59 8//8
f 7//7 56//56 60//60
f 7//7 60//60 58//58
f 58//58 60//60 59//59
f 8//8 59//59 61//61
f 8//8 61//61 14//14
f 59//59 60//60 62//62
f 59//59 62//62 63//63
f 59//59 63//63 61//61
f 61//61 15//15 14//14
f 61//61 63//63 64//64
f 61//61 64//64 15//15
f 15//15 17//17 16//16
f 15//15 64//64 65//65
f 15//15 65//65 17//17
f 17//17 65//65 66//66
f 17//17 66//66 19//19
f 19//19 67//67 22//22
f 19//19 66//66 68//68
f 19//19 68//68 67//67
f 67//67 68//68 69//69
f 67//67 69//69 22//22
f 70//70 55//55 71//71
f 70//70 56//56 55//55
f 70//70 63//63 56//56
f 70//70 72//72 63//63
f 70//70 73//73 74//74
f 70//70 71//71 73//73
f 70//70 74//74 72//72
f 55//55 57//57 71//71
f 56//56 62//62 60//60
f 56//56 63//63 62//62
f 63//63 72//72 64//64
f 72//72 75//75 64//64
f 72//72 74//74 76//76
f 72//72 76//76 75//75
f 64//64 75//75 65//65
f 75//75 76//76 41//41
f 75//75 41//41 65//65
f 65//65 41//41 42//42
f 65//65 42//42 66//66
f 66//66 42//42 40//40
f 66//66 40//40 68//68
f 68//68 40//40 77//77
f 68//68 77//77 69//69
f 27//27 57//57 28//28
f 27//27 34//34 71//71
f 27//27 71//71 57//57
f 28//28 57//57 6//6
f 34//34 73//73 71//71
f 34//34 33//33 73//73
f 73//73 33//33 52//52
f 73//73 52//52 74//74
f 74//74 52//52 53//53
f 74//74 53//53 76//76
f 22//22 69//69 77//77
f 22//22 77//77 40//40
f 76//76 44//44 78//78
f 76//76 78//78 41//41
f 76//76 53//53 45//45
f 76//76 45//45 44//44
f 44//44 41//41 78//78
# 152 faces, 0 coords texture

# End of File
