####
#
# OBJ File Generated by Meshlab
#
####
# Object step_7_link_4.obj
#
# Vertices: 70
# Faces: 136
#
####
vn 3.817845 0.388165 -4.510450
v 0.162574 0.031709 0.411976
vn 1.398911 0.634229 -5.804477
v 0.162066 0.032147 0.411772
vn 1.396999 2.715797 -2.605506
v 0.161953 0.037181 0.412675
vn 3.375487 2.889642 -1.008149
v 0.277529 0.041895 0.588705
vn 3.645402 -1.053321 -4.253445
v 0.162574 -0.069171 0.411976
vn 1.126450 -0.973944 -5.774090
v 0.162066 -0.069220 0.411772
vn 5.670031 0.357232 -1.738646
v 0.278619 0.030713 0.587603
vn -0.793739 0.367029 -6.099119
v 0.061558 0.032147 0.411772
vn -0.607043 3.433867 -2.876335
v 0.059037 0.037181 0.412675
vn -0.051021 6.281399 -0.071329
v 0.172838 0.041919 0.588754
vn 0.675270 6.189864 -0.245301
v 0.277418 0.041919 0.588754
vn 1.282632 -3.426687 -2.666788
v 0.162092 -0.070187 0.412110
vn 2.869362 -3.725024 -0.868135
v 0.277861 -0.073148 0.587876
vn -1.652392 -3.142060 -1.973081
v 0.061864 -0.070187 0.412110
vn -0.065578 -6.281824 -0.036253
v 0.177410 -0.073148 0.587876
vn 5.395150 -1.027540 -1.634778
v 0.278619 -0.071081 0.587603
vn -1.770584 -1.341634 -5.183067
v 0.061558 -0.069220 0.411772
vn -1.049809 6.125057 0.270383
v 0.059037 0.037181 0.513177
vn -3.581827 2.494481 0.999272
v 0.058636 0.037072 0.513213
vn -1.785327 2.059390 2.886981
v 0.170908 0.041702 0.690443
vn -2.309114 1.744423 -1.806565
v 0.058636 0.037072 0.412705
vn -0.550304 5.383290 2.068500
v 0.171658 0.041895 0.690329
vn -0.180819 6.279834 -0.031192
v 0.171658 0.041895 0.588705
vn -5.404795 -1.095636 1.542651
v 0.058636 -0.063358 0.513213
vn -2.692464 -0.683529 4.464406
v 0.170908 -0.059852 0.690443
vn -3.958004 -0.664826 -2.594186
v 0.058636 -0.063358 0.412705
vn -2.798261 -4.426248 0.658019
v 0.061864 -0.070187 0.512229
vn -4.973326 -2.946009 1.570000
v 0.061286 -0.069171 0.512712
vn -4.540949 -2.189306 -2.399965
v 0.061286 -0.069171 0.411976
vn -1.221298 -4.492270 2.306375
v 0.177410 -0.073148 0.688120
vn -4.254244 -3.207432 3.155488
v 0.176042 -0.071081 0.689111
vn -5.296281 -2.439633 1.588376
v 0.059037 -0.064304 0.513177
vn -5.640266 -2.421578 -0.908901
v 0.059037 -0.064304 0.412675
vn -2.454542 -1.441353 4.638680
v 0.171658 -0.061682 0.690329
vn 5.531434 0.163517 1.932859
v 0.278619 0.030713 0.689111
vn 3.567021 2.842344 0.899286
v 0.277529 0.041895 0.690329
vn 4.778720 0.157103 3.739214
v 0.277496 0.041640 0.690437
vn 5.119786 0.119265 3.525851
v 0.277502 0.041568 0.690430
vn 3.517662 -0.161177 4.960449
v 0.277502 -0.060013 0.690430
vn 4.036191 -1.208169 2.495043
v 0.278619 -0.071081 0.689111
vn 4.256599 0.225710 4.150569
v 0.277489 0.041702 0.690443
vn 3.709828 0.320931 4.460247
v 0.277481 0.041756 0.690447
vn 3.155002 0.451884 4.662869
v 0.277473 0.041800 0.690449
vn 2.680778 0.633430 4.760161
v 0.277465 0.041836 0.690451
vn 2.497487 0.925304 4.772181
v 0.277456 0.041864 0.690451
vn 2.362113 1.413784 4.699108
v 0.277448 0.041886 0.690450
vn 2.156915 2.103173 4.480886
v 0.277439 0.041901 0.690449
vn 1.770018 3.015574 3.976185
v 0.277431 0.041911 0.690446
vn 1.133601 4.139967 3.051887
v 0.277424 0.041917 0.690444
vn 0.482207 5.481271 1.804950
v 0.277418 0.041919 0.690442
vn 2.678972 -0.184773 5.247159
v 0.277496 -0.059929 0.690437
vn 1.888313 -0.187195 5.642973
v 0.277489 -0.059852 0.690443
vn 1.415735 -0.157320 5.934311
v 0.277481 -0.059784 0.690447
vn 0.931658 -0.105293 6.134084
v 0.277473 -0.059723 0.690449
vn 0.444871 -0.046170 6.248166
v 0.277465 -0.059670 0.690451
vn 0.062258 -0.006860 6.282475
v 0.277456 -0.059625 0.690451
vn -0.015774 0.113734 6.280936
v 0.172842 0.041864 0.690451
vn -0.031467 0.429944 6.264298
v 0.172837 0.041886 0.690450
vn -0.059784 0.951258 6.200115
v 0.172834 0.041901 0.690449
vn -0.122913 1.918865 5.934296
v 0.172833 0.041911 0.690446
vn -0.227927 3.758351 4.740280
v 0.172835 0.041917 0.690444
vn -0.097912 5.534646 2.012111
v 0.172838 0.041919 0.690442
vn 2.074143 -3.391356 1.513835
v 0.277861 -0.073148 0.688120
vn 1.213859 -1.887638 5.200159
v 0.277574 -0.071183 0.689629
vn 1.768300 -0.344151 5.719988
v 0.277529 -0.061682 0.690329
vn -1.716289 -2.316909 4.438310
v 0.176554 -0.071183 0.689629
vn -0.000694 -0.312664 6.275217
v 0.172882 -0.059784 0.690447
vn -0.003352 -0.206421 6.279500
v 0.172865 -0.059723 0.690449
vn -0.008189 -0.086328 6.282227
v 0.172852 -0.059670 0.690451
vn -0.012786 -0.013005 6.283116
v 0.172842 -0.059625 0.690451
# 70 vertices, 0 vertices normals

f 1//1 2//2 3//3
f 1//1 3//3 4//4
f 1//1 5//5 6//6
f 1//1 6//6 2//2
f 1//1 7//7 5//5
f 1//1 4//4 7//7
f 2//2 6//6 8//8
f 2//2 8//8 3//3
f 3//3 8//8 9//9
f 3//3 9//9 10//10
f 3//3 11//11 4//4
f 3//3 10//10 11//11
f 12//12 5//5 13//13
f 12//12 6//6 5//5
f 12//12 14//14 6//6
f 12//12 13//13 15//15
f 12//12 15//15 14//14
f 5//5 7//7 16//16
f 5//5 16//16 13//13
f 6//6 14//14 17//17
f 6//6 17//17 8//8
f 18//18 19//19 20//20
f 18//18 9//9 21//21
f 18//18 21//21 19//19
f 18//18 22//22 23//23
f 18//18 20//20 22//22
f 18//18 23//23 9//9
f 19//19 21//21 24//24
f 19//19 24//24 25//25
f 19//19 25//25 20//20
f 8//8 21//21 9//9
f 8//8 17//17 26//26
f 8//8 26//26 21//21
f 9//9 23//23 10//10
f 21//21 26//26 24//24
f 27//27 28//28 29//29
f 27//27 14//14 15//15
f 27//27 29//29 14//14
f 27//27 30//30 31//31
f 27//27 31//31 28//28
f 27//27 15//15 30//30
f 28//28 32//32 33//33
f 28//28 33//33 29//29
f 28//28 31//31 34//34
f 28//28 34//34 32//32
f 32//32 24//24 26//26
f 32//32 26//26 33//33
f 32//32 34//34 25//25
f 32//32 25//25 24//24
f 14//14 29//29 17//17
f 29//29 33//33 26//26
f 29//29 26//26 17//17
f 35//35 36//36 37//37
f 35//35 38//38 39//39
f 35//35 37//37 38//38
f 35//35 7//7 4//4
f 35//35 4//4 36//36
f 35//35 40//40 7//7
f 35//35 39//39 40//40
f 36//36 41//41 37//37
f 36//36 42//42 41//41
f 36//36 43//43 42//42
f 36//36 44//44 43//43
f 36//36 45//45 44//44
f 36//36 46//46 45//45
f 36//36 47//47 46//46
f 36//36 48//48 47//47
f 36//36 49//49 48//48
f 36//36 50//50 49//49
f 36//36 4//4 11//11
f 36//36 11//11 50//50
f 38//38 37//37 51//51
f 38//38 51//51 39//39
f 37//37 41//41 52//52
f 37//37 52//52 51//51
f 41//41 42//42 53//53
f 41//41 53//53 52//52
f 42//42 43//43 54//54
f 42//42 54//54 53//53
f 43//43 44//44 55//55
f 43//43 55//55 54//54
f 44//44 45//45 56//56
f 44//44 56//56 55//55
f 45//45 46//46 57//57
f 45//45 57//57 56//56
f 46//46 47//47 58//58
f 46//46 58//58 57//57
f 47//47 48//48 59//59
f 47//47 59//59 58//58
f 48//48 49//49 60//60
f 48//48 60//60 59//59
f 49//49 50//50 61//61
f 49//49 61//61 60//60
f 50//50 11//11 62//62
f 50//50 62//62 61//61
f 7//7 40//40 16//16
f 11//11 10//10 62//62
f 63//63 40//40 64//64
f 63//63 64//64 30//30
f 63//63 13//13 16//16
f 63//63 16//16 40//40
f 63//63 30//30 13//13
f 40//40 65//65 64//64
f 40//40 39//39 65//65
f 64//64 65//65 66//66
f 64//64 66//66 30//30
f 65//65 39//39 51//51
f 65//65 51//51 52//52
f 65//65 52//52 34//34
f 65//65 34//34 66//66
f 52//52 53//53 67//67
f 52//52 25//25 34//34
f 52//52 67//67 25//25
f 53//53 54//54 67//67
f 54//54 55//55 68//68
f 54//54 68//68 67//67
f 55//55 56//56 69//69
f 55//55 69//69 68//68
f 56//56 57//57 70//70
f 56//56 70//70 69//69
f 13//13 30//30 15//15
f 22//22 20//20 61//61
f 22//22 61//61 62//62
f 22//22 62//62 10//10
f 22//22 10//10 23//23
f 20//20 57//57 58//58
f 20//20 58//58 59//59
f 20//20 59//59 60//60
f 20//20 60//60 61//61
f 20//20 25//25 70//70
f 20//20 70//70 57//57
f 30//30 66//66 31//31
f 31//31 66//66 34//34
f 25//25 67//67 68//68
f 25//25 68//68 69//69
f 25//25 69//69 70//70
# 136 faces, 0 coords texture

# End of File
