####
#
# OBJ File Generated by Meshlab
#
####
# Object step_11_link_4.obj
#
# Vertices: 90
# Faces: 176
#
####
vn 2.918737 1.857798 -3.586564
v 0.159802 0.045859 0.414629
vn 1.226624 2.475392 -4.271816
v 0.159070 0.046153 0.414435
vn 0.865922 5.184709 -2.298531
v 0.157494 0.047911 0.416319
vn 2.121879 5.246778 -0.630450
v 0.266792 0.063347 0.595828
vn 2.435231 -2.257626 -2.842236
v 0.159802 -0.054944 0.414629
vn 0.619852 -2.858561 -2.929550
v 0.159070 -0.055143 0.414435
vn 4.413622 2.104286 -1.402652
v 0.271372 0.059040 0.592677
vn 3.674806 -2.479898 -0.958171
v 0.271372 -0.042608 0.592677
vn -0.863505 1.870287 -5.071109
v 0.058559 0.046153 0.414435
vn -1.306256 3.880384 -2.708887
v 0.055165 0.047911 0.416319
vn -0.371570 6.242588 -0.180452
v 0.162064 0.063347 0.595828
vn 0.281021 -6.259323 0.143483
v 0.159070 -0.055143 0.515584
vn 1.349246 -6.080530 -0.290868
v 0.269907 -0.043020 0.592276
vn -0.910966 -6.092665 0.412999
v 0.058559 -0.055143 0.515584
vn 1.349741 -4.503388 2.412129
v 0.269907 -0.043020 0.694634
vn -0.261586 -5.694413 1.941870
v 0.168879 -0.043020 0.694634
vn -0.896256 -2.658103 -2.749602
v 0.058559 -0.055143 0.414435
vn -1.323193 6.123308 0.110050
v 0.055165 0.047911 0.516762
vn -2.384818 5.697008 0.412411
v 0.054251 0.047655 0.517116
vn -0.959805 4.840286 2.592612
v 0.160228 0.062894 0.698005
vn -2.307614 3.359505 -2.628704
v 0.054251 0.047655 0.416619
vn -0.390972 5.815770 1.413961
v 0.162064 0.063347 0.697224
vn -4.092661 3.895957 1.091846
v 0.053479 0.047211 0.517393
vn -1.712573 2.487770 3.406508
v 0.158676 0.062058 0.698626
vn -4.297596 2.407526 -1.407124
v 0.053479 0.047211 0.416917
vn -5.357597 1.332605 1.329645
v 0.053479 0.047209 0.517393
vn -2.770503 0.912688 4.120279
v 0.158674 0.062056 0.698626
vn -5.770156 1.317056 -0.564297
v 0.053479 0.047209 0.416919
vn -5.656620 -0.732545 1.492617
v 0.053479 -0.053099 0.517393
vn -2.784139 -0.385918 4.512272
v 0.158674 -0.039244 0.698626
vn -2.730366 0.547276 -5.602859
v 0.053545 0.047212 0.416874
vn -3.012523 -0.769637 -5.391029
v 0.053545 -0.053141 0.416874
vn -2.895980 0.742268 -5.463032
v 0.053524 0.047213 0.416885
vn -3.142962 1.056487 -5.201059
v 0.053508 0.047214 0.416894
vn -3.440358 1.504206 -4.729446
v 0.053496 0.047214 0.416902
vn -3.731008 2.079880 -3.838325
v 0.053487 0.047213 0.416908
vn -3.854318 2.530467 -2.365833
v 0.053482 0.047212 0.416913
vn -3.255280 -1.078567 -5.100315
v 0.053524 -0.053132 0.416885
vn -3.591329 -1.529733 -4.528376
v 0.053508 -0.053124 0.416894
vn -3.869821 -2.031393 -3.553015
v 0.053496 -0.053116 0.416902
vn -3.998808 -2.277320 -2.461191
v 0.053487 -0.053110 0.416908
vn -4.445123 -2.086030 -2.069726
v 0.053482 -0.053106 0.416913
vn -5.266590 -1.493238 -1.512098
v 0.053479 -0.053102 0.416917
vn -6.068119 -0.610928 -0.661346
v 0.053479 -0.053099 0.416919
vn -1.834319 -5.902128 0.667515
v 0.055165 -0.054143 0.516762
vn -2.354950 -5.554668 -1.078154
v 0.055165 -0.054143 0.416319
vn -0.688425 -5.404560 2.581794
v 0.162064 -0.041219 0.697224
vn -2.959690 -5.133941 0.950593
v 0.054251 -0.053781 0.517116
vn -2.961073 -3.411278 -2.355681
v 0.054251 -0.053781 0.416619
vn -1.182814 -4.164528 3.382884
v 0.160228 -0.040554 0.698005
vn -3.852493 -4.617414 1.218128
v 0.053487 -0.053110 0.517391
vn -1.636751 -3.477028 4.054141
v 0.158692 -0.039266 0.698621
vn -4.361766 -3.894469 1.325207
v 0.053482 -0.053106 0.517392
vn -1.937933 -2.733250 4.151327
v 0.158681 -0.039256 0.698625
vn -5.105631 -2.359281 1.490306
v 0.053479 -0.053102 0.517393
vn -2.408200 -1.481630 4.287033
v 0.158676 -0.039249 0.698626
vn 4.267260 1.496243 1.810445
v 0.271372 0.059040 0.694133
vn 2.083025 3.315619 2.021482
v 0.266792 0.063347 0.697224
vn 1.700121 2.702396 4.157679
v 0.265917 0.062894 0.698005
vn 3.684044 0.095653 5.088742
v 0.265497 0.061948 0.698336
vn 3.625076 0.088013 5.129591
v 0.265427 0.061973 0.698386
vn 3.567395 -0.117717 5.168159
v 0.265427 -0.039469 0.698386
vn 3.074095 -2.101796 1.535924
v 0.271372 -0.042608 0.694133
vn 3.534523 0.125639 5.190371
v 0.265362 0.061995 0.698430
vn 3.428766 0.175645 5.257248
v 0.265302 0.062013 0.698470
vn 3.304614 0.239929 5.330148
v 0.265248 0.062028 0.698504
vn 3.159668 0.320664 5.407619
v 0.265198 0.062040 0.698534
vn 2.987247 0.422584 5.488944
v 0.265154 0.062049 0.698558
vn 2.772165 0.555234 5.573996
v 0.265115 0.062056 0.698579
vn 2.507776 0.721472 5.656004
v 0.265080 0.062060 0.698595
vn 2.174009 0.932240 5.723769
v 0.265051 0.062062 0.698607
vn 1.743111 1.199616 5.756953
v 0.265026 0.062063 0.698616
vn 1.183762 1.523480 5.715872
v 0.265005 0.062062 0.698621
vn 0.554888 1.801186 5.603032
v 0.264989 0.062060 0.698625
vn 3.454797 -0.167407 5.240453
v 0.265362 -0.039440 0.698430
vn 3.316962 -0.231066 5.322535
v 0.265302 -0.039413 0.698470
vn 3.151456 -0.311057 5.411937
v 0.265248 -0.039387 0.698504
vn 2.954881 -0.408701 5.505667
v 0.265198 -0.039364 0.698534
vn 2.718129 -0.528223 5.601046
v 0.265154 -0.039342 0.698558
vn 2.422281 -0.677190 5.694531
v 0.265115 -0.039323 0.698579
vn 2.064744 -0.850599 5.774785
v 0.265080 -0.039306 0.698595
vn 1.627890 -1.052684 5.824555
v 0.265051 -0.039290 0.698607
vn 1.106442 -1.272381 5.824159
v 0.265026 -0.039277 0.698616
vn 0.781123 -1.290484 5.871491
v 0.265005 -0.039266 0.698621
vn 0.521730 -0.956405 6.056123
v 0.264989 -0.039256 0.698625
vn 0.186135 1.434880 5.869728
v 0.264977 0.062058 0.698626
vn 0.223268 -0.454963 6.221755
v 0.264977 -0.039249 0.698626
vn -0.704742 4.130040 4.365341
v 0.158681 0.062060 0.698625
vn 1.309189 -3.775624 4.375099
v 0.266792 -0.041219 0.697224
vn 1.554003 -2.353423 4.705038
v 0.265917 -0.040554 0.698005
# 90 vertices, 0 vertices normals

f 1//1 2//2 3//3
f 1//1 3//3 4//4
f 1//1 5//5 6//6
f 1//1 6//6 2//2
f 1//1 7//7 8//8
f 1//1 4//4 7//7
f 1//1 8//8 5//5
f 2//2 6//6 9//9
f 2//2 9//9 3//3
f 3//3 9//9 10//10
f 3//3 10//10 11//11
f 3//3 11//11 4//4
f 12//12 6//6 13//13
f 12//12 14//14 6//6
f 12//12 15//15 16//16
f 12//12 13//13 15//15
f 12//12 16//16 14//14
f 5//5 8//8 13//13
f 5//5 13//13 6//6
f 6//6 14//14 17//17
f 6//6 17//17 9//9
f 18//18 19//19 20//20
f 18//18 10//10 21//21
f 18//18 21//21 19//19
f 18//18 22//22 11//11
f 18//18 20//20 22//22
f 18//18 11//11 10//10
f 19//19 23//23 24//24
f 19//19 21//21 25//25
f 19//19 25//25 23//23
f 19//19 24//24 20//20
f 23//23 26//26 27//27
f 23//23 25//25 28//28
f 23//23 28//28 26//26
f 23//23 27//27 24//24
f 26//26 28//28 29//29
f 26//26 29//29 30//30
f 26//26 30//30 27//27
f 9//9 21//21 10//10
f 9//9 31//31 21//21
f 9//9 17//17 32//32
f 9//9 32//32 31//31
f 21//21 31//31 33//33
f 21//21 33//33 34//34
f 21//21 34//34 35//35
f 21//21 35//35 36//36
f 21//21 36//36 37//37
f 21//21 37//37 25//25
f 31//31 32//32 38//38
f 31//31 38//38 33//33
f 33//33 38//38 39//39
f 33//33 39//39 34//34
f 34//34 39//39 40//40
f 34//34 40//40 35//35
f 35//35 40//40 41//41
f 35//35 41//41 36//36
f 36//36 41//41 42//42
f 36//36 42//42 37//37
f 37//37 42//42 43//43
f 37//37 43//43 25//25
f 25//25 43//43 44//44
f 25//25 44//44 28//28
f 28//28 44//44 29//29
f 14//14 45//45 46//46
f 14//14 46//46 17//17
f 14//14 16//16 47//47
f 14//14 47//47 45//45
f 45//45 48//48 49//49
f 45//45 49//49 46//46
f 45//45 47//47 50//50
f 45//45 50//50 48//48
f 48//48 51//51 41//41
f 48//48 41//41 49//49
f 48//48 50//50 52//52
f 48//48 52//52 51//51
f 51//51 53//53 42//42
f 51//51 42//42 41//41
f 51//51 52//52 54//54
f 51//51 54//54 53//53
f 53//53 55//55 43//43
f 53//53 43//43 42//42
f 53//53 54//54 56//56
f 53//53 56//56 55//55
f 55//55 29//29 44//44
f 55//55 44//44 43//43
f 55//55 56//56 30//30
f 55//55 30//30 29//29
f 17//17 46//46 49//49
f 17//17 49//49 32//32
f 49//49 38//38 32//32
f 49//49 39//39 38//38
f 49//49 40//40 39//39
f 49//49 41//41 40//40
f 57//57 58//58 59//59
f 57//57 59//59 60//60
f 57//57 60//60 61//61
f 57//57 61//61 62//62
f 57//57 7//7 4//4
f 57//57 4//4 58//58
f 57//57 63//63 7//7
f 57//57 62//62 63//63
f 58//58 4//4 22//22
f 58//58 22//22 59//59
f 59//59 61//61 60//60
f 59//59 64//64 61//61
f 59//59 65//65 64//64
f 59//59 66//66 65//65
f 59//59 67//67 66//66
f 59//59 68//68 67//67
f 59//59 69//69 68//68
f 59//59 70//70 69//69
f 59//59 71//71 70//70
f 59//59 72//72 71//71
f 59//59 73//73 72//72
f 59//59 74//74 73//73
f 59//59 22//22 20//20
f 59//59 20//20 74//74
f 61//61 64//64 75//75
f 61//61 75//75 62//62
f 64//64 65//65 76//76
f 64//64 76//76 75//75
f 65//65 66//66 77//77
f 65//65 77//77 76//76
f 66//66 67//67 78//78
f 66//66 78//78 77//77
f 67//67 68//68 79//79
f 67//67 79//79 78//78
f 68//68 69//69 80//80
f 68//68 80//80 79//79
f 69//69 70//70 81//81
f 69//69 81//81 80//80
f 70//70 71//71 82//82
f 70//70 82//82 81//81
f 71//71 72//72 83//83
f 71//71 83//83 82//82
f 72//72 73//73 84//84
f 72//72 84//84 83//83
f 73//73 74//74 85//85
f 73//73 85//85 84//84
f 74//74 86//86 87//87
f 74//74 87//87 85//85
f 74//74 20//20 88//88
f 74//74 88//88 86//86
f 86//86 88//88 24//24
f 86//86 24//24 87//87
f 7//7 63//63 8//8
f 4//4 11//11 22//22
f 63//63 15//15 13//13
f 63//63 89//89 15//15
f 63//63 90//90 89//89
f 63//63 62//62 90//90
f 63//63 13//13 8//8
f 15//15 89//89 16//16
f 89//89 90//90 47//47
f 89//89 47//47 16//16
f 90//90 62//62 75//75
f 90//90 75//75 76//76
f 90//90 76//76 77//77
f 90//90 77//77 78//78
f 90//90 78//78 79//79
f 90//90 79//79 80//80
f 90//90 80//80 81//81
f 90//90 81//81 82//82
f 90//90 82//82 83//83
f 90//90 83//83 84//84
f 90//90 84//84 50//50
f 90//90 50//50 47//47
f 84//84 85//85 52//52
f 84//84 52//52 50//50
f 85//85 87//87 54//54
f 85//85 54//54 52//52
f 87//87 24//24 56//56
f 87//87 56//56 54//54
f 20//20 24//24 88//88
f 24//24 27//27 30//30
f 24//24 30//30 56//56
# 176 faces, 0 coords texture

# End of File
