####
#
# OBJ File Generated by Meshlab
#
####
# Object step_11_link_6.obj
#
# Vertices: 51
# Faces: 98
#
####
vn 3.466066 5.221114 0.163823
v 0.414631 -0.031149 0.585243
vn 1.426380 2.658650 2.431876
v 0.413754 -0.030640 0.587092
vn 3.828550 2.348860 2.333214
v 0.487555 -0.081291 0.531447
vn 3.100455 5.370269 -0.590483
v 0.414631 -0.031149 0.480507
vn 1.172010 5.563725 -1.069712
v 0.413754 -0.030640 0.481037
vn 1.679275 0.198048 6.030140
v 0.412663 -0.032137 0.587478
vn 1.620979 -0.214583 6.041097
v 0.412663 -0.139275 0.587478
vn 0.780647 0.595410 6.127318
v 0.412631 -0.032137 0.587486
vn 0.171558 0.737061 6.169509
v 0.412602 -0.032141 0.587488
vn -1.317211 3.328465 2.207008
v 0.302011 -0.030640 0.587092
vn 1.449056 -1.887069 4.851604
v 0.413754 -0.141167 0.587092
vn 0.654596 -0.558628 6.141724
v 0.412631 -0.139263 0.587486
vn 0.154936 -0.506145 6.222526
v 0.412602 -0.139251 0.587488
vn -2.443364 1.774842 2.896349
v 0.300672 -0.032141 0.587488
vn 1.335894 5.164831 -2.305534
v 0.414142 -0.030889 0.480573
vn 1.899849 4.835788 -2.058103
v 0.487555 -0.081291 0.423415
vn -0.135102 5.010610 -3.680095
v 0.304680 -0.030889 0.480573
vn -1.792339 2.115400 -4.624568
v 0.372539 -0.081291 0.423415
vn -2.077149 2.856694 -1.997730
v 0.302011 -0.030640 0.481037
vn -2.039329 -2.837041 2.705638
v 0.302011 -0.141167 0.587092
vn -1.294543 -4.920736 1.607391
v 0.372539 -0.195121 0.531447
vn 1.996624 -2.753620 2.089488
v 0.487555 -0.195121 0.531447
vn -0.247247 -1.394615 6.111288
v 0.300683 -0.139263 0.587486
vn -2.679415 -1.381951 2.796616
v 0.300672 -0.139251 0.587488
vn -5.270467 1.898799 -1.026853
v 0.300672 -0.032141 0.482395
vn -4.375500 0.883619 2.279727
v 0.300669 -0.032147 0.587486
vn -4.548180 -0.467182 2.500648
v 0.300669 -0.139239 0.587486
vn -5.867862 1.376712 -0.273553
v 0.300669 -0.032147 0.482418
vn -4.531798 0.104140 -4.346086
v 0.300736 -0.032140 0.482304
vn -4.913716 0.603266 -3.741657
v 0.300704 -0.032137 0.482339
vn -5.254865 1.379337 -2.502541
v 0.300683 -0.032137 0.482369
vn -4.048021 -2.308290 -2.182608
v 0.302011 -0.141167 0.481037
vn -4.551951 -0.123398 -4.322916
v 0.300736 -0.139286 0.482304
vn -4.996174 -0.698365 -3.564835
v 0.300704 -0.139275 0.482339
vn -5.312936 -1.467753 -2.079508
v 0.300683 -0.139263 0.482369
vn -5.521089 -1.592829 -0.983438
v 0.300672 -0.139251 0.482395
vn -6.139602 -0.718270 -0.306656
v 0.300669 -0.139239 0.482418
vn -1.761216 -2.746629 -2.279718
v 0.372539 -0.195121 0.423415
vn 4.644629 1.883608 1.196534
v 0.492989 -0.085516 0.524139
vn 2.780631 1.684000 -2.100637
v 0.492989 -0.085516 0.418956
vn 4.568403 -1.940888 1.181234
v 0.492989 -0.191177 0.524139
vn 0.635009 1.517351 -5.604408
v 0.491452 -0.085874 0.418459
vn 0.789797 3.632068 -4.722210
v 0.491910 -0.085526 0.418702
vn 3.182595 -1.557657 -2.072128
v 0.492989 -0.191177 0.418956
vn 0.656630 -1.850630 -5.319862
v 0.491452 -0.191481 0.418459
vn -0.328285 1.622593 -5.685377
v 0.385164 -0.085874 0.418459
vn -0.970476 2.133655 -5.066012
v 0.383836 -0.085526 0.418702
vn 1.327705 -5.222644 -1.310695
v 0.487555 -0.195121 0.423415
vn 1.822400 -3.634338 -3.355124
v 0.491910 -0.191743 0.418702
vn -0.317430 -1.956857 -5.415735
v 0.385164 -0.191481 0.418459
vn -0.956760 -2.346722 -4.801624
v 0.383836 -0.191743 0.418702
# 51 vertices, 0 vertices normals

f 1//1 2//2 3//3
f 1//1 4//4 5//5
f 1//1 5//5 2//2
f 1//1 3//3 4//4
f 2//2 6//6 7//7
f 2//2 8//8 6//6
f 2//2 9//9 8//8
f 2//2 5//5 10//10
f 2//2 11//11 3//3
f 2//2 7//7 11//11
f 2//2 10//10 9//9
f 6//6 8//8 12//12
f 6//6 12//12 7//7
f 8//8 9//9 13//13
f 8//8 13//13 12//12
f 9//9 10//10 14//14
f 9//9 14//14 13//13
f 4//4 15//15 5//5
f 4//4 3//3 16//16
f 4//4 16//16 15//15
f 15//15 17//17 5//5
f 15//15 16//16 18//18
f 15//15 18//18 17//17
f 5//5 17//17 19//19
f 5//5 19//19 10//10
f 11//11 7//7 12//12
f 11//11 12//12 20//20
f 11//11 20//20 21//21
f 11//11 22//22 3//3
f 11//11 21//21 22//22
f 12//12 13//13 23//23
f 12//12 23//23 20//20
f 13//13 14//14 24//24
f 13//13 24//24 23//23
f 10//10 19//19 25//25
f 10//10 25//25 14//14
f 14//14 26//26 27//27
f 14//14 25//25 28//28
f 14//14 28//28 26//26
f 14//14 27//27 24//24
f 26//26 28//28 27//27
f 17//17 18//18 19//19
f 19//19 29//29 30//30
f 19//19 30//30 31//31
f 19//19 31//31 25//25
f 19//19 32//32 33//33
f 19//19 33//33 29//29
f 19//19 18//18 32//32
f 29//29 33//33 34//34
f 29//29 34//34 30//30
f 30//30 34//34 35//35
f 30//30 35//35 31//31
f 31//31 35//35 36//36
f 31//31 36//36 25//25
f 25//25 36//36 37//37
f 25//25 37//37 28//28
f 28//28 37//37 27//27
f 20//20 23//23 24//24
f 20//20 24//24 36//36
f 20//20 32//32 21//21
f 20//20 36//36 32//32
f 24//24 27//27 37//37
f 24//24 37//37 36//36
f 32//32 34//34 33//33
f 32//32 35//35 34//34
f 32//32 36//36 35//35
f 32//32 18//18 38//38
f 32//32 38//38 21//21
f 39//39 3//3 22//22
f 39//39 40//40 16//16
f 39//39 16//16 3//3
f 39//39 41//41 40//40
f 39//39 22//22 41//41
f 40//40 42//42 43//43
f 40//40 43//43 16//16
f 40//40 41//41 44//44
f 40//40 44//44 42//42
f 42//42 44//44 45//45
f 42//42 45//45 46//46
f 42//42 46//46 43//43
f 43//43 46//46 47//47
f 43//43 47//47 16//16
f 16//16 47//47 18//18
f 41//41 22//22 48//48
f 41//41 48//48 44//44
f 22//22 21//21 48//48
f 44//44 49//49 45//45
f 44//44 48//48 49//49
f 45//45 49//49 50//50
f 45//45 50//50 46//46
f 49//49 48//48 51//51
f 49//49 51//51 50//50
f 48//48 21//21 38//38
f 48//48 38//38 51//51
f 46//46 50//50 51//51
f 46//46 51//51 47//47
f 47//47 51//51 38//38
f 47//47 38//38 18//18
# 98 faces, 0 coords texture

# End of File
