####
#
# OBJ File Generated by Meshlab
#
####
# Object step_28_link_7.obj
#
# Vertices: 68
# Faces: 132
#
####
vn 0.221364 0.203429 6.259900
v 0.396120 -0.055390 0.608405
vn 0.436542 0.218507 6.250826
v 0.416221 -0.034728 0.606531
vn 1.775836 1.627783 4.662162
v 0.435988 -0.006043 0.604072
vn -2.060496 2.421473 3.454634
v 0.320807 -0.006043 0.604072
vn 0.550536 -2.714356 4.353687
v 0.396120 -0.157713 0.608405
vn 1.029646 -0.315187 6.164858
v 0.416221 -0.140185 0.606531
vn -2.872362 0.827027 2.625462
v 0.292816 -0.055390 0.608405
vn 2.541430 -0.234793 5.367351
v 0.435988 -0.118717 0.604072
vn 4.134983 2.379291 4.086066
v 0.436488 -0.004338 0.602593
vn 2.586565 3.517109 3.906159
v 0.436477 -0.004296 0.602579
vn 1.386224 4.692410 2.793683
v 0.436459 -0.004273 0.602562
vn -1.004811 4.983022 2.185854
v 0.322292 -0.004273 0.602562
vn 3.186991 2.269724 1.251582
v 0.640228 -0.044314 0.413119
vn 0.566143 5.824285 1.303281
v 0.436436 -0.004263 0.602545
vn -0.357324 5.878357 1.296459
v 0.322341 -0.004263 0.602545
vn 0.470157 6.191982 -0.364609
v 0.436436 -0.004263 0.496391
vn -0.493403 6.175374 -0.467253
v 0.322341 -0.004263 0.496391
vn 2.313547 2.083362 -1.572318
v 0.640228 -0.044314 0.251560
vn -0.517812 5.848238 -1.858706
v 0.461693 -0.044314 0.251560
vn 2.146617 -2.379661 5.197059
v 0.409561 -0.149715 0.606803
vn 1.355615 -0.867872 5.977154
v 0.411701 -0.146775 0.606913
vn -1.970684 -1.487227 2.013880
v 0.292816 -0.157713 0.608405
vn -1.426272 -5.474594 0.911179
v 0.430295 -0.255924 0.402833
vn 0.650834 -5.745428 1.429238
v 0.576698 -0.255924 0.402833
vn 1.958096 -5.095177 1.740070
v 0.595778 -0.251414 0.405469
vn 3.521320 -3.010998 1.989726
v 0.638166 -0.225451 0.413326
vn 2.500980 -2.019669 5.234710
v 0.414139 -0.146174 0.606235
vn 2.890920 -1.371977 5.191747
v 0.435892 -0.122477 0.603503
vn 3.788498 -0.798037 4.928578
v 0.436261 -0.120269 0.603630
vn 4.217056 -1.296936 4.394838
v 0.639371 -0.221168 0.413706
vn 5.062753 -0.660418 2.174231
v 0.640228 -0.220121 0.413119
vn -5.197704 3.136257 1.254192
v 0.320388 -0.006582 0.603865
vn -4.860598 3.747498 0.629644
v 0.320860 -0.005688 0.603157
vn -5.395457 1.289932 -1.330627
v 0.292816 -0.055390 0.506616
vn -3.086430 4.613169 1.466352
v 0.321914 -0.004454 0.602607
vn -1.650413 4.947087 2.264949
v 0.322237 -0.004296 0.602579
vn -4.582815 3.391370 -1.562364
v 0.320860 -0.005688 0.495674
vn -2.093890 5.737712 -0.910841
v 0.322237 -0.004296 0.496326
vn -3.215164 4.706626 -1.188093
v 0.321914 -0.004454 0.496125
vn -1.466100 5.902088 -0.737843
v 0.322292 -0.004273 0.496360
vn -5.189590 2.304644 -2.582516
v 0.300844 -0.042235 0.501990
vn -4.157092 2.271305 -3.857159
v 0.457434 -0.049631 0.250646
vn -5.158812 2.633283 -2.024820
v 0.320388 -0.006582 0.495640
vn -4.714593 -2.069546 -0.923538
v 0.292816 -0.157713 0.506616
vn -4.508749 0.434714 -3.981975
v 0.430295 -0.111177 0.258707
vn -3.154371 0.819905 -4.623534
v 0.438152 -0.094904 0.253517
vn -1.444493 3.818881 -3.499504
v 0.461651 -0.044347 0.251493
vn -2.956211 2.774960 -4.257751
v 0.457903 -0.049003 0.250603
vn -2.049349 -2.600186 -2.009569
v 0.430295 -0.255924 0.258707
vn 0.102660 0.098668 -6.277968
v 0.635084 -0.053556 0.250000
vn 1.453059 0.387618 -5.813932
v 0.638166 -0.050386 0.250134
vn 2.383649 -1.892506 -2.499804
v 0.638166 -0.225451 0.250134
vn 0.471571 -1.099719 -6.035329
v 0.635084 -0.226365 0.250000
vn -0.610946 0.114091 -6.212717
v 0.458075 -0.053556 0.250000
vn -1.958938 1.112600 -5.293451
v 0.457700 -0.050386 0.250134
vn 3.415474 0.095369 -5.248451
v 0.639039 -0.049631 0.250646
vn 3.985715 -0.367790 -4.706352
v 0.639039 -0.222721 0.250646
vn 3.102308 0.235731 -5.456190
v 0.639469 -0.046288 0.251029
vn 1.350426 1.285919 -5.615724
v 0.639488 -0.045187 0.251093
vn -0.790635 2.098589 -5.681906
v 0.461609 -0.045187 0.251093
vn 4.997191 -0.445029 -2.249106
v 0.640228 -0.220121 0.251560
vn 0.648517 3.565478 -4.343498
v 0.640033 -0.044347 0.251493
vn 0.420858 -5.461615 -1.833754
v 0.576698 -0.255924 0.258707
vn 1.160578 -3.299627 -2.789399
v 0.595778 -0.251414 0.253517
vn 5.344477 -1.812804 1.746524
v 0.640033 -0.220897 0.413018
vn 5.451702 -1.493617 -1.719001
v 0.640033 -0.220897 0.251493
vn -1.230024 -1.954422 -4.836388
v 0.438152 -0.251414 0.253517
vn -0.428107 -0.311203 -6.211698
v 0.458075 -0.226365 0.250000
# 68 vertices, 0 vertices normals

f 1//1 2//2 3//3
f 1//1 3//3 4//4
f 1//1 5//5 6//6
f 1//1 6//6 2//2
f 1//1 7//7 5//5
f 1//1 4//4 7//7
f 2//2 6//6 8//8
f 2//2 8//8 3//3
f 3//3 9//9 10//10
f 3//3 10//10 11//11
f 3//3 11//11 12//12
f 3//3 8//8 13//13
f 3//3 12//12 4//4
f 3//3 13//13 9//9
f 9//9 13//13 10//10
f 10//10 13//13 11//11
f 11//11 14//14 15//15
f 11//11 15//15 12//12
f 11//11 13//13 14//14
f 14//14 16//16 15//15
f 14//14 13//13 16//16
f 16//16 17//17 15//15
f 16//16 13//13 18//18
f 16//16 18//18 19//19
f 16//16 19//19 17//17
f 5//5 20//20 21//21
f 5//5 21//21 6//6
f 5//5 7//7 22//22
f 5//5 22//22 23//23
f 5//5 24//24 25//25
f 5//5 25//25 26//26
f 5//5 26//26 20//20
f 5//5 23//23 24//24
f 20//20 27//27 21//21
f 20//20 26//26 27//27
f 21//21 27//27 28//28
f 21//21 28//28 8//8
f 21//21 8//8 6//6
f 27//27 26//26 28//28
f 28//28 29//29 8//8
f 28//28 26//26 30//30
f 28//28 30//30 29//29
f 29//29 30//30 31//31
f 29//29 31//31 8//8
f 8//8 31//31 13//13
f 7//7 32//32 33//33
f 7//7 4//4 32//32
f 7//7 33//33 34//34
f 7//7 34//34 22//22
f 32//32 4//4 33//33
f 4//4 35//35 33//33
f 4//4 36//36 35//35
f 4//4 12//12 36//36
f 33//33 35//35 37//37
f 33//33 37//37 34//34
f 35//35 36//36 38//38
f 35//35 39//39 37//37
f 35//35 38//38 39//39
f 36//36 12//12 40//40
f 36//36 40//40 38//38
f 12//12 15//15 17//17
f 12//12 17//17 40//40
f 34//34 41//41 42//42
f 34//34 43//43 41//41
f 34//34 37//37 43//43
f 34//34 44//44 22//22
f 34//34 45//45 44//44
f 34//34 46//46 45//45
f 34//34 42//42 46//46
f 41//41 43//43 42//42
f 43//43 37//37 42//42
f 37//37 39//39 47//47
f 37//37 48//48 42//42
f 37//37 47//47 48//48
f 39//39 38//38 47//47
f 38//38 40//40 19//19
f 38//38 19//19 47//47
f 40//40 17//17 19//19
f 22//22 44//44 23//23
f 44//44 45//45 49//49
f 44//44 49//49 23//23
f 13//13 31//31 18//18
f 50//50 51//51 52//52
f 50//50 53//53 54//54
f 50//50 52//52 53//53
f 50//50 54//54 55//55
f 50//50 55//55 51//51
f 51//51 56//56 57//57
f 51//51 58//58 56//56
f 51//51 59//59 58//58
f 51//51 57//57 52//52
f 51//51 55//55 60//60
f 51//51 60//60 59//59
f 56//56 58//58 18//18
f 56//56 18//18 61//61
f 56//56 61//61 57//57
f 58//58 59//59 18//18
f 59//59 62//62 18//18
f 59//59 60//60 47//47
f 59//59 47//47 62//62
f 62//62 47//47 19//19
f 62//62 19//19 18//18
f 18//18 31//31 61//61
f 24//24 63//63 25//25
f 24//24 23//23 63//63
f 25//25 63//63 64//64
f 25//25 64//64 52//52
f 25//25 52//52 26//26
f 26//26 65//65 31//31
f 26//26 31//31 30//30
f 26//26 52//52 66//66
f 26//26 66//66 65//65
f 65//65 66//66 61//61
f 65//65 61//61 31//31
f 63//63 23//23 49//49
f 63//63 49//49 67//67
f 63//63 67//67 64//64
f 64//64 53//53 52//52
f 64//64 67//67 68//68
f 64//64 68//68 53//53
f 53//53 68//68 54//54
f 52//52 57//57 61//61
f 52//52 61//61 66//66
f 45//45 46//46 67//67
f 45//45 67//67 49//49
f 46//46 54//54 68//68
f 46//46 55//55 54//54
f 46//46 42//42 55//55
f 46//46 68//68 67//67
f 55//55 42//42 48//48
f 55//55 48//48 60//60
f 48//48 47//47 60//60
# 132 faces, 0 coords texture

# End of File
