####
#
# OBJ File Generated by Meshlab
#
####
# Object step_32_link_5.obj
#
# Vertices: 74
# Faces: 144
#
####
vn 2.442752 2.382380 4.727309
v 0.146547 0.109354 0.740970
vn 1.888889 1.092460 5.581989
v 0.144916 0.108884 0.741840
vn 3.590552 1.882422 2.074932
v 0.328544 0.104443 0.646445
vn 0.444705 3.192175 3.064915
v 0.140191 0.111035 0.742480
vn 2.247923 4.266578 2.174070
v 0.327532 0.105181 0.646582
vn 0.920147 0.205108 6.210314
v 0.139714 0.109760 0.742615
vn 0.796292 0.201095 6.223702
v 0.139684 0.109752 0.742619
vn 0.702649 -0.407571 6.211476
v 0.139684 0.007728 0.742619
vn 1.189144 -2.311014 4.616320
v 0.144916 0.006375 0.741840
vn 4.556709 0.232540 2.669833
v 0.331053 0.084966 0.645576
vn 0.596038 0.247879 6.240728
v 0.139658 0.109744 0.742623
vn 0.351888 0.310334 6.251465
v 0.139634 0.109736 0.742625
vn 0.163533 0.324764 6.258609
v 0.139613 0.109728 0.742626
vn 0.062968 6.276948 -0.152616
v 0.140191 0.111035 0.641016
vn -1.267949 2.887607 2.252518
v 0.035024 0.111035 0.742480
vn 0.911149 6.168807 0.567589
v 0.327241 0.105273 0.646156
vn 0.581403 6.233039 0.183460
v 0.327160 0.105313 0.645770
vn 0.465360 -0.516510 6.212222
v 0.139658 0.007738 0.742623
vn 0.268774 -0.562794 6.214754
v 0.139634 0.007747 0.742625
vn 0.150484 -0.384639 6.251224
v 0.139613 0.007757 0.742626
vn 0.054113 0.160284 6.276912
v 0.139596 0.109720 0.742627
vn 0.055161 -0.143131 6.277879
v 0.139596 0.007765 0.742627
vn -0.298956 0.811656 6.199188
v 0.033930 0.109728 0.742626
vn -2.421403 1.974663 3.085436
v 0.033919 0.109720 0.742627
vn -2.150530 3.933800 -1.754208
v 0.035024 0.111035 0.641016
vn 0.483789 6.237571 -0.171568
v 0.327160 0.105313 0.541735
vn -0.001469 6.272505 -0.366152
v 0.215078 0.105313 0.541735
vn 0.331408 -5.449968 2.845950
v 0.144873 0.005961 0.741266
vn 2.411649 -2.903641 1.389197
v 0.330586 -0.023395 0.644788
vn 0.279816 -2.551972 5.290404
v 0.140191 0.006990 0.742480
vn -0.016859 -4.817763 4.007832
v 0.042479 0.006375 0.741840
vn 0.773789 -0.569226 6.208611
v 0.139714 0.007719 0.742615
vn 4.129453 -0.815724 2.706443
v 0.331053 -0.020932 0.645576
vn -0.432535 -5.640161 1.941055
v 0.041987 0.005961 0.741266
vn -0.316028 -6.120734 0.770783
v 0.228936 -0.023395 0.644788
vn -1.178344 -3.404489 2.630509
v 0.035024 0.006990 0.742480
vn -0.414448 -1.586499 5.998971
v 0.033947 0.007747 0.742625
vn -1.877608 -2.674909 3.055552
v 0.033930 0.007757 0.742626
vn -2.275267 -2.106413 2.865942
v 0.033919 0.007765 0.742627
vn -3.784634 2.619202 -2.705674
v 0.033919 0.109720 0.640978
vn -2.844013 1.321138 2.748782
v 0.033913 0.109712 0.742627
vn -2.886343 -1.248265 2.772727
v 0.033913 0.007774 0.742627
vn -4.115553 1.543658 -2.426698
v 0.033913 0.109712 0.640980
vn -4.114326 0.413605 2.717621
v 0.033912 0.109706 0.742626
vn -4.120971 -0.386961 2.733319
v 0.033912 0.007781 0.742626
vn -5.225418 0.449249 -2.049163
v 0.033912 0.109706 0.640982
vn -1.052817 2.869504 -3.097180
v 0.215076 0.105273 0.541057
vn -4.181912 -1.455289 -2.442225
v 0.033913 0.007774 0.640980
vn -5.233098 -0.418458 -2.064203
v 0.033912 0.007781 0.640982
vn -3.260594 -3.919805 -2.364597
v 0.033930 0.007757 0.640977
vn -2.285369 -4.903533 -1.594600
v 0.035024 0.006990 0.641016
vn -3.635214 -2.775866 -2.471703
v 0.033919 0.007765 0.640978
vn -1.400542 -2.748140 -4.696628
v 0.225539 -0.020932 0.542985
vn -0.497339 -4.350186 -2.690217
v 0.228936 -0.023395 0.544113
vn -1.486963 -0.594463 -5.809145
v 0.215987 -0.002576 0.540775
vn -1.590608 -1.243371 -5.641975
v 0.216351 -0.004039 0.540900
vn -2.503451 -0.139912 -5.713945
v 0.215076 -0.001227 0.541057
vn -2.648937 -0.521472 -5.635321
v 0.215092 -0.001297 0.541054
vn 4.999896 0.212723 -2.395082
v 0.331053 0.084966 0.542985
vn 3.241103 1.695952 -2.217943
v 0.328544 0.104443 0.541124
vn 1.427031 6.063682 0.184763
v 0.327185 0.105309 0.645782
vn 1.435260 2.884992 -2.797619
v 0.327532 0.105181 0.540900
vn 1.503135 6.059385 -0.093997
v 0.327185 0.105309 0.541724
vn 2.861163 -1.013862 -2.827174
v 0.331053 -0.020932 0.542985
vn 2.271867 -0.254914 -5.627774
v 0.328544 -0.005061 0.541124
vn 0.941586 0.244015 -6.096537
v 0.327508 0.103886 0.540775
vn 0.921440 -0.165927 -6.110990
v 0.327508 -0.002576 0.540775
vn -0.155339 2.939983 -4.713841
v 0.216351 0.105181 0.540900
vn 0.623373 5.763048 -1.449709
v 0.327241 0.105273 0.541057
vn -0.845818 0.231877 -6.127092
v 0.215987 0.103886 0.540775
vn 1.958799 -2.667047 -1.583227
v 0.330586 -0.023395 0.544113
vn 0.587539 -0.717666 -6.170792
v 0.329405 -0.016849 0.542296
vn 0.404181 -0.569228 -6.227619
v 0.327532 -0.004039 0.540900
vn -0.472386 -1.043039 -6.144247
v 0.224394 -0.016849 0.542296
# 74 vertices, 0 vertices normals

f 1//1 2//2 3//3
f 1//1 4//4 2//2
f 1//1 3//3 5//5
f 1//1 5//5 4//4
f 2//2 4//4 6//6
f 2//2 6//6 7//7
f 2//2 7//7 8//8
f 2//2 9//9 10//10
f 2//2 8//8 9//9
f 2//2 10//10 3//3
f 4//4 7//7 6//6
f 4//4 11//11 7//7
f 4//4 12//12 11//11
f 4//4 13//13 12//12
f 4//4 14//14 15//15
f 4//4 15//15 13//13
f 4//4 5//5 16//16
f 4//4 16//16 17//17
f 4//4 17//17 14//14
f 7//7 11//11 18//18
f 7//7 18//18 8//8
f 11//11 12//12 19//19
f 11//11 19//19 18//18
f 12//12 13//13 20//20
f 12//12 20//20 19//19
f 13//13 21//21 22//22
f 13//13 22//22 20//20
f 13//13 15//15 23//23
f 13//13 23//23 21//21
f 21//21 23//23 24//24
f 21//21 24//24 22//22
f 14//14 25//25 15//15
f 14//14 17//17 26//26
f 14//14 26//26 27//27
f 14//14 27//27 25//25
f 9//9 28//28 29//29
f 9//9 30//30 31//31
f 9//9 32//32 30//30
f 9//9 8//8 32//32
f 9//9 31//31 28//28
f 9//9 29//29 33//33
f 9//9 33//33 10//10
f 28//28 31//31 34//34
f 28//28 34//34 35//35
f 28//28 35//35 29//29
f 30//30 32//32 8//8
f 30//30 8//8 18//18
f 30//30 18//18 19//19
f 30//30 19//19 36//36
f 30//30 36//36 31//31
f 19//19 20//20 37//37
f 19//19 37//37 36//36
f 20//20 22//22 38//38
f 20//20 38//38 37//37
f 22//22 24//24 39//39
f 22//22 39//39 38//38
f 15//15 24//24 23//23
f 15//15 25//25 40//40
f 15//15 40//40 24//24
f 24//24 41//41 42//42
f 24//24 40//40 43//43
f 24//24 43//43 41//41
f 24//24 42//42 39//39
f 41//41 44//44 45//45
f 41//41 43//43 46//46
f 41//41 46//46 44//44
f 41//41 45//45 42//42
f 44//44 46//46 45//45
f 25//25 47//47 40//40
f 25//25 27//27 47//47
f 40//40 47//47 43//43
f 43//43 48//48 49//49
f 43//43 49//49 46//46
f 43//43 47//47 48//48
f 46//46 49//49 45//45
f 31//31 36//36 34//34
f 34//34 36//36 35//35
f 36//36 37//37 38//38
f 36//36 38//38 50//50
f 36//36 51//51 35//35
f 36//36 50//50 51//51
f 38//38 39//39 52//52
f 38//38 52//52 50//50
f 39//39 42//42 48//48
f 39//39 48//48 52//52
f 42//42 45//45 49//49
f 42//42 49//49 48//48
f 51//51 50//50 53//53
f 51//51 54//54 35//35
f 51//51 53//53 54//54
f 50//50 52//52 53//53
f 52//52 48//48 55//55
f 52//52 56//56 53//53
f 52//52 55//55 56//56
f 48//48 47//47 57//57
f 48//48 58//58 55//55
f 48//48 57//57 58//58
f 10//10 59//59 3//3
f 10//10 33//33 59//59
f 3//3 59//59 60//60
f 3//3 60//60 5//5
f 5//5 61//61 16//16
f 5//5 60//60 62//62
f 5//5 62//62 63//63
f 5//5 63//63 61//61
f 16//16 61//61 17//17
f 61//61 63//63 17//17
f 17//17 63//63 26//26
f 59//59 33//33 64//64
f 59//59 64//64 65//65
f 59//59 65//65 60//60
f 60//60 66//66 62//62
f 60//60 65//65 67//67
f 60//60 67//67 66//66
f 62//62 66//66 68//68
f 62//62 69//69 63//63
f 62//62 68//68 69//69
f 66//66 67//67 70//70
f 66//66 70//70 68//68
f 69//69 26//26 63//63
f 69//69 68//68 47//47
f 69//69 47//47 26//26
f 26//26 47//47 27//27
f 29//29 71//71 33//33
f 29//29 35//35 71//71
f 33//33 71//71 64//64
f 71//71 35//35 54//54
f 71//71 54//54 64//64
f 64//64 72//72 65//65
f 64//64 54//54 53//53
f 64//64 53//53 72//72
f 72//72 73//73 65//65
f 72//72 53//53 74//74
f 72//72 74//74 73//73
f 65//65 73//73 67//67
f 73//73 74//74 56//56
f 73//73 56//56 67//67
f 67//67 56//56 55//55
f 67//67 55//55 70//70
f 68//68 70//70 47//47
f 70//70 55//55 57//57
f 70//70 57//57 47//47
f 53//53 56//56 74//74
f 55//55 58//58 57//57
# 144 faces, 0 coords texture

# End of File
