####
#
# OBJ File Generated by Meshlab
#
####
# Object step_49_link_4.obj
#
# Vertices: 87
# Faces: 170
#
####
vn 6.078129 0.140731 -1.210951
v 0.077575 0.115302 0.433386
vn 3.715278 1.148091 -2.918973
v 0.076678 0.122776 0.430976
vn 5.177044 2.517772 -0.576415
v 0.086285 0.200906 0.626579
vn 4.501140 -1.036900 -2.622168
v 0.077575 0.014441 0.433386
vn 3.105404 -0.666567 -4.145448
v 0.076678 0.020575 0.430976
vn 6.253952 0.329684 -0.191991
v 0.087906 0.185830 0.631522
vn 6.246440 -0.410900 -0.099375
v 0.087906 0.084086 0.631522
vn 2.917197 2.088567 -3.917883
v 0.075316 0.124086 0.430555
vn 4.366916 4.291370 -0.926377
v 0.083618 0.203593 0.625713
vn 0.893458 -0.439655 -6.110491
v 0.075316 0.021729 0.430555
vn 2.155078 2.397365 -3.900947
v 0.075309 0.124091 0.430553
vn 3.485164 4.835470 -1.020289
v 0.083605 0.203604 0.625710
vn 0.700770 -0.279208 -6.177437
v 0.075309 0.021743 0.430553
vn 0.879414 2.797992 -3.921192
v 0.075304 0.124093 0.430552
vn 1.616878 5.554852 -1.135327
v 0.083595 0.203609 0.625708
vn 0.317179 -0.108834 -6.258380
v 0.075304 0.021754 0.430552
vn 0.065725 3.439540 -4.247026
v 0.075300 0.124094 0.430552
vn 0.240246 6.013209 -1.173550
v 0.083588 0.203610 0.625708
vn -1.931035 2.086454 -2.932880
v -0.025295 0.124093 0.430552
vn -0.184394 3.459994 -4.172466
v -0.025294 0.124094 0.430552
vn -0.586426 5.930937 -1.131759
v -0.017974 0.203610 0.625708
vn 2.792144 -3.525255 0.501736
v 0.076880 0.009796 0.535074
vn 6.214599 -0.925830 0.000687
v 0.077575 0.014441 0.534488
vn 5.187296 -0.251648 2.220261
v 0.087906 0.084086 0.733778
vn 1.972269 -2.566584 -1.555170
v 0.076880 0.009796 0.434933
vn -2.767232 -3.635808 0.648915
v -0.023358 0.009796 0.535074
vn 1.870198 -1.711022 2.192811
v 0.086539 0.074977 0.734971
vn -1.820567 -1.891628 2.492623
v -0.013943 0.074977 0.734971
vn 2.634988 -2.018136 -4.274113
v 0.077077 0.012029 0.433917
vn -1.931900 -2.775099 -1.630582
v -0.023358 0.009796 0.434933
vn 1.411317 -1.841457 -5.620840
v 0.076521 0.017736 0.431774
vn -2.365085 -2.319757 -4.541338
v -0.023732 0.012029 0.433917
vn 0.280469 -1.718771 -6.028518
v 0.075388 0.021547 0.430599
vn -1.657304 -2.099801 -5.366991
v -0.024465 0.017736 0.431774
vn 0.350274 -1.588989 -6.053965
v 0.075372 0.021590 0.430586
vn 0.442516 -1.412883 -6.082881
v 0.075357 0.021627 0.430576
vn 0.552566 -1.204195 -6.105824
v 0.075344 0.021659 0.430568
vn 0.680744 -0.959785 -6.117488
v 0.075333 0.021687 0.430562
vn 0.831516 -0.669284 -6.109661
v 0.075324 0.021710 0.430557
vn -2.208794 -1.905063 -4.996709
v -0.025276 0.021547 0.430599
vn -2.685634 -1.667161 -4.399981
v -0.025283 0.021590 0.430586
vn -3.003249 -1.345205 -3.678951
v -0.025289 0.021627 0.430576
vn -3.100360 -1.021773 -3.053020
v -0.025293 0.021659 0.430568
vn -3.102840 -0.850513 -3.040096
v -0.025296 0.021687 0.430562
vn -3.103345 -0.617975 -3.052055
v -0.025297 0.021710 0.430557
vn -3.098696 -0.418124 -3.104479
v -0.025297 0.021729 0.430555
vn -2.866931 -0.256032 -4.283055
v -0.025297 0.021743 0.430553
vn -1.372145 -0.091149 -5.938209
v -0.025295 0.021754 0.430552
vn -6.279356 0.004740 0.218389
v -0.025297 0.124076 0.531037
vn -6.268682 0.256265 0.068364
v -0.025297 0.124086 0.531031
vn -6.281489 -0.018947 0.090333
v -0.025297 0.021729 0.531031
vn -6.273797 -0.179558 0.139981
v -0.025297 0.021710 0.531037
vn -6.278387 -0.001412 0.245201
v -0.017980 0.098801 0.727102
vn -3.008862 1.791515 2.601805
v -0.017980 0.203593 0.727102
vn -6.052112 0.202318 -1.053336
v -0.025297 0.124086 0.430555
vn -6.251946 0.623707 -0.008846
v -0.017980 0.203593 0.625713
vn -4.430430 0.786240 -2.665228
v -0.025297 0.124091 0.430553
vn -5.932202 1.707609 -0.221287
v -0.017979 0.203604 0.625710
vn -3.151724 4.190130 -0.798590
v -0.017976 0.203609 0.625708
vn -6.161792 -0.999410 0.278122
v -0.024652 0.015114 0.533277
vn -6.071173 -0.587796 1.146550
v -0.016600 0.085421 0.731364
vn -6.253040 -0.533255 0.206599
v -0.025293 0.021659 0.531053
vn -4.760461 -1.559606 -2.295569
v -0.024652 0.015114 0.433117
vn -6.117384 -0.248680 1.163893
v -0.017971 0.098660 0.727144
vn -6.123310 -0.179984 1.111584
v -0.017977 0.098716 0.727127
vn -6.259737 -0.422002 0.185868
v -0.025296 0.021687 0.531044
vn -6.223591 -0.062688 0.693532
v -0.017979 0.098763 0.727113
vn 1.945660 0.204371 5.496634
v 0.086539 0.175938 0.734971
vn 2.896369 0.820096 2.936752
v 0.087906 0.185830 0.733778
vn -1.553727 0.210563 5.788008
v -0.013943 0.175938 0.734971
vn 3.238789 2.110177 2.265385
v 0.086285 0.200906 0.727835
vn 0.646243 2.388734 5.760514
v 0.083697 0.203449 0.727163
vn 0.756777 2.593138 5.598349
v 0.083673 0.203503 0.727144
vn -2.751984 0.757117 3.983274
v -0.015840 0.185830 0.733778
vn 1.171943 3.008419 5.172778
v 0.083652 0.203544 0.727127
vn 1.803592 3.535167 4.137138
v 0.083633 0.203573 0.727113
vn 2.141747 3.812983 2.673450
v 0.083618 0.203593 0.727102
vn -2.954647 1.161859 3.913594
v -0.017971 0.203503 0.727144
vn -3.032314 1.246790 3.474739
v -0.017977 0.203544 0.727127
vn -3.060192 1.415570 2.924669
v -0.017979 0.203573 0.727113
vn 1.851831 4.357928 2.258489
v 0.083605 0.203604 0.727093
vn 1.040576 5.359840 1.583396
v 0.083595 0.203609 0.727087
vn -2.847788 2.545637 2.121836
v -0.017979 0.203604 0.727093
vn 0.171895 6.249459 0.332622
v 0.083588 0.203610 0.727082
vn -2.322021 4.033504 1.271691
v -0.017976 0.203609 0.727087
vn -0.524057 6.198203 0.274027
v -0.017974 0.203610 0.727082
vn -4.727690 -0.389267 3.245478
v -0.015840 0.084086 0.733778
# 87 vertices, 0 vertices normals

f 1//1 2//2 3//3
f 1//1 4//4 5//5
f 1//1 5//5 2//2
f 1//1 6//6 7//7
f 1//1 3//3 6//6
f 1//1 7//7 4//4
f 2//2 8//8 9//9
f 2//2 5//5 10//10
f 2//2 10//10 8//8
f 2//2 9//9 3//3
f 8//8 11//11 12//12
f 8//8 10//10 13//13
f 8//8 13//13 11//11
f 8//8 12//12 9//9
f 11//11 14//14 15//15
f 11//11 13//13 16//16
f 11//11 16//16 14//14
f 11//11 15//15 12//12
f 14//14 17//17 18//18
f 14//14 16//16 19//19
f 14//14 19//19 17//17
f 14//14 18//18 15//15
f 17//17 19//19 20//20
f 17//17 20//20 21//21
f 17//17 21//21 18//18
f 22//22 23//23 24//24
f 22//22 25//25 23//23
f 22//22 26//26 25//25
f 22//22 27//27 28//28
f 22//22 24//24 27//27
f 22//22 28//28 26//26
f 23//23 25//25 4//4
f 23//23 4//4 7//7
f 23//23 7//7 24//24
f 25//25 29//29 4//4
f 25//25 26//26 30//30
f 25//25 30//30 29//29
f 29//29 31//31 4//4
f 29//29 30//30 32//32
f 29//29 32//32 31//31
f 4//4 31//31 5//5
f 31//31 33//33 5//5
f 31//31 32//32 34//34
f 31//31 34//34 33//33
f 5//5 33//33 35//35
f 5//5 35//35 36//36
f 5//5 36//36 37//37
f 5//5 37//37 38//38
f 5//5 38//38 39//39
f 5//5 39//39 10//10
f 33//33 34//34 40//40
f 33//33 40//40 35//35
f 35//35 40//40 41//41
f 35//35 41//41 36//36
f 36//36 41//41 42//42
f 36//36 42//42 37//37
f 37//37 42//42 43//43
f 37//37 43//43 38//38
f 38//38 43//43 44//44
f 38//38 44//44 39//39
f 39//39 44//44 45//45
f 39//39 45//45 10//10
f 10//10 45//45 46//46
f 10//10 46//46 13//13
f 13//13 46//46 47//47
f 13//13 47//47 16//16
f 16//16 47//47 48//48
f 16//16 48//48 19//19
f 49//49 50//50 51//51
f 49//49 52//52 53//53
f 49//49 51//51 52//52
f 49//49 54//54 50//50
f 49//49 53//53 54//54
f 50//50 55//55 51//51
f 50//50 54//54 56//56
f 50//50 56//56 55//55
f 55//55 57//57 47//47
f 55//55 46//46 51//51
f 55//55 47//47 46//46
f 55//55 56//56 58//58
f 55//55 58//58 57//57
f 57//57 19//19 48//48
f 57//57 48//48 47//47
f 57//57 58//58 59//59
f 57//57 59//59 19//19
f 19//19 59//59 21//21
f 19//19 21//21 20//20
f 26//26 60//60 30//30
f 26//26 28//28 61//61
f 26//26 61//61 60//60
f 60//60 62//62 63//63
f 60//60 63//63 30//30
f 60//60 61//61 64//64
f 60//60 64//64 65//65
f 60//60 65//65 62//62
f 62//62 66//66 43//43
f 62//62 43//43 63//63
f 62//62 65//65 66//66
f 66//66 52//52 44//44
f 66//66 44//44 43//43
f 66//66 65//65 67//67
f 66//66 67//67 52//52
f 52//52 51//51 45//45
f 52//52 45//45 44//44
f 52//52 67//67 53//53
f 51//51 46//46 45//45
f 30//30 63//63 32//32
f 32//32 63//63 34//34
f 63//63 40//40 34//34
f 63//63 41//41 40//40
f 63//63 42//42 41//41
f 63//63 43//43 42//42
f 68//68 69//69 70//70
f 68//68 27//27 24//24
f 68//68 24//24 69//69
f 68//68 70//70 27//27
f 69//69 71//71 72//72
f 69//69 72//72 73//73
f 69//69 73//73 74//74
f 69//69 6//6 71//71
f 69//69 24//24 6//6
f 69//69 74//74 70//70
f 71//71 73//73 72//72
f 71//71 75//75 73//73
f 71//71 76//76 75//75
f 71//71 77//77 76//76
f 71//71 6//6 3//3
f 71//71 3//3 77//77
f 73//73 75//75 78//78
f 73//73 78//78 74//74
f 75//75 76//76 79//79
f 75//75 79//79 78//78
f 76//76 77//77 80//80
f 76//76 80//80 79//79
f 77//77 81//81 54//54
f 77//77 3//3 9//9
f 77//77 9//9 81//81
f 77//77 54//54 80//80
f 81//81 82//82 83//83
f 81//81 9//9 12//12
f 81//81 12//12 82//82
f 81//81 83//83 54//54
f 82//82 84//84 85//85
f 82//82 12//12 15//15
f 82//82 15//15 84//84
f 82//82 85//85 83//83
f 84//84 15//15 18//18
f 84//84 18//18 86//86
f 84//84 86//86 85//85
f 6//6 24//24 7//7
f 18//18 21//21 86//86
f 27//27 70//70 28//28
f 70//70 74//74 87//87
f 70//70 87//87 28//28
f 74//74 78//78 79//79
f 74//74 79//79 65//65
f 74//74 65//65 87//87
f 79//79 80//80 67//67
f 79//79 67//67 65//65
f 80//80 54//54 53//53
f 80//80 53//53 67//67
f 54//54 83//83 56//56
f 83//83 85//85 58//58
f 83//83 58//58 56//56
f 85//85 86//86 59//59
f 85//85 59//59 58//58
f 86//86 21//21 59//59
f 28//28 87//87 61//61
f 87//87 64//64 61//61
f 87//87 65//65 64//64
# 170 faces, 0 coords texture

# End of File
