####
#
# OBJ File Generated by Meshlab
#
####
# Object step_34_link_5.obj
#
# Vertices: 67
# Faces: 130
#
####
vn 1.896760 2.508813 4.561699
v 0.132715 0.110846 0.743836
vn 0.963117 5.069291 3.533839
v 0.131372 0.111078 0.743920
vn 0.295939 3.058035 3.963536
v 0.126281 0.111129 0.745214
vn 1.621442 0.944355 5.738134
v 0.131046 0.109887 0.744654
vn 2.905601 -0.295696 5.550185
v 0.132715 0.008074 0.743836
vn 4.505173 -0.222926 2.868804
v 0.317205 0.015909 0.645065
vn 4.428548 0.664638 2.502921
v 0.317205 0.120541 0.645065
vn 3.891485 1.620395 4.156478
v 0.311512 0.137532 0.645777
vn 2.009495 3.610543 1.975949
v 0.310293 0.138951 0.645955
vn 0.777759 0.201299 6.231454
v 0.125904 0.109700 0.745313
vn 0.373453 0.174449 6.248849
v 0.125878 0.109686 0.745317
vn 0.339686 -0.402705 6.220699
v 0.125878 0.007696 0.745317
vn 1.490482 -2.254469 4.635179
v 0.131046 0.007374 0.744654
vn 0.012176 0.410687 6.269543
v 0.125135 0.109660 0.745321
vn -1.595461 2.500993 2.211328
v 0.020930 0.111129 0.745214
vn -0.320694 6.139776 0.706127
v 0.198765 0.138951 0.645955
vn 0.019288 0.202327 6.276618
v 0.125114 0.109649 0.745322
vn -0.004345 0.430693 6.268338
v 0.021408 0.109660 0.745321
vn 0.015092 0.031933 6.282892
v 0.125098 0.109639 0.745322
vn 0.019784 -0.329606 6.265839
v 0.125114 0.007715 0.745322
vn -0.008623 0.241599 6.276231
v 0.021403 0.109649 0.745322
vn 0.014034 -0.049086 6.282634
v 0.125098 0.007722 0.745322
vn -0.012196 0.039155 6.282870
v 0.021401 0.109639 0.745322
vn 0.819084 -5.468264 1.915644
v 0.131035 0.006941 0.744068
vn 2.562727 -2.380428 1.264909
v 0.317220 0.011679 0.644188
vn 0.271100 -3.338215 3.381605
v 0.126281 0.007037 0.745214
vn 3.473930 -1.040864 5.063785
v 0.316907 0.013793 0.644900
vn -0.023732 -6.272042 0.248801
v 0.027943 0.006941 0.744068
vn 0.052517 -6.278958 -0.125114
v 0.131035 0.006941 0.643688
vn 0.012706 -0.787120 6.230285
v 0.125135 0.007708 0.745321
vn -1.085022 -3.242161 2.428763
v 0.020930 0.007037 0.745214
vn -0.003522 -0.823984 6.226634
v 0.021408 0.007708 0.745321
vn -0.009410 -0.388703 6.264804
v 0.021403 0.007715 0.745322
vn -0.012640 -0.057405 6.282566
v 0.021401 0.007722 0.745322
vn -0.059769 -6.274025 -0.220638
v 0.027943 0.006941 0.643688
vn -0.231786 -4.619748 -2.880727
v 0.215610 0.011679 0.543529
vn 2.101861 -2.307164 -1.408857
v 0.317220 0.011679 0.543529
vn -2.898625 0.809308 2.634707
v 0.020132 0.109686 0.745317
vn -2.808900 3.481632 -1.697863
v 0.020930 0.111129 0.643762
vn -4.314108 1.059018 -2.292339
v 0.020132 0.109686 0.643730
vn -2.514952 -1.245940 2.258588
v 0.020132 0.007696 0.745317
vn -0.426515 3.615246 -2.927207
v 0.198765 0.138951 0.540329
vn -1.845161 2.689088 -3.517321
v 0.197213 0.138578 0.540577
vn -3.661199 -1.668425 -1.998818
v 0.020132 0.007696 0.643730
vn -2.386713 -0.381119 -5.674908
v 0.197213 0.032316 0.540577
vn -1.938684 -4.451307 -1.787902
v 0.020930 0.007037 0.643762
vn -1.048753 -2.857182 -4.779172
v 0.211635 0.013793 0.542362
vn -1.446735 -1.556826 -5.614425
v 0.198765 0.029835 0.540329
vn -1.461014 -0.824997 -5.759326
v 0.198526 0.030386 0.540273
vn 6.282732 0.003400 0.051178
v 0.317220 0.113168 0.644188
vn 6.283008 0.003543 -0.031038
v 0.317220 0.113168 0.543529
vn 5.821425 1.943259 0.918797
v 0.312032 0.136170 0.645557
vn 4.705639 2.794123 1.627408
v 0.311523 0.137585 0.645725
vn 3.864068 0.522570 -2.719116
v 0.317205 0.120541 0.542117
vn 5.870180 1.931804 -0.769382
v 0.312032 0.136170 0.540937
vn 4.990316 2.913624 -1.180080
v 0.311523 0.137585 0.540682
vn 1.379851 2.877481 -2.275237
v 0.310293 0.138951 0.540329
vn 3.363382 -0.345334 -3.143021
v 0.317205 0.015909 0.542117
vn 3.491109 1.277308 -3.905898
v 0.311512 0.137532 0.540603
vn 1.581490 -0.013212 -6.080764
v 0.311512 0.029170 0.540603
vn 0.914686 0.541554 -6.045846
v 0.310238 0.138642 0.540273
vn 0.692480 -0.202084 -6.171488
v 0.310238 0.030386 0.540273
vn -0.845927 0.922038 -5.971784
v 0.198526 0.138642 0.540273
vn 2.229244 -1.543687 -4.626113
v 0.316907 0.013793 0.542362
vn 0.647969 -0.519529 -6.175326
v 0.315125 0.018763 0.541598
vn 0.101687 -0.653631 -6.246892
v 0.310293 0.029835 0.540329
vn -0.152752 -0.914005 -6.208714
v 0.209954 0.018763 0.541598
# 67 vertices, 0 vertices normals

f 1//1 2//2 3//3
f 1//1 4//4 5//5
f 1//1 3//3 4//4
f 1//1 5//5 6//6
f 1//1 7//7 8//8
f 1//1 8//8 9//9
f 1//1 9//9 2//2
f 1//1 6//6 7//7
f 2//2 9//9 3//3
f 4//4 3//3 10//10
f 4//4 10//10 11//11
f 4//4 11//11 12//12
f 4//4 13//13 5//5
f 4//4 12//12 13//13
f 3//3 11//11 10//10
f 3//3 14//14 11//11
f 3//3 15//15 14//14
f 3//3 9//9 16//16
f 3//3 16//16 15//15
f 11//11 14//14 17//17
f 11//11 17//17 12//12
f 14//14 15//15 18//18
f 14//14 18//18 17//17
f 17//17 19//19 20//20
f 17//17 20//20 12//12
f 17//17 18//18 21//21
f 17//17 21//21 19//19
f 19//19 22//22 20//20
f 19//19 21//21 23//23
f 19//19 23//23 22//22
f 5//5 13//13 6//6
f 13//13 24//24 25//25
f 13//13 26//26 24//24
f 13//13 12//12 26//26
f 13//13 25//25 27//27
f 13//13 27//27 6//6
f 24//24 26//26 28//28
f 24//24 29//29 25//25
f 24//24 28//28 29//29
f 26//26 12//12 30//30
f 26//26 30//30 31//31
f 26//26 31//31 28//28
f 12//12 20//20 30//30
f 30//30 20//20 32//32
f 30//30 32//32 31//31
f 20//20 22//22 33//33
f 20//20 33//33 32//32
f 22//22 23//23 34//34
f 22//22 34//34 33//33
f 29//29 28//28 35//35
f 29//29 35//35 36//36
f 29//29 37//37 25//25
f 29//29 36//36 37//37
f 15//15 38//38 18//18
f 15//15 39//39 40//40
f 15//15 40//40 38//38
f 15//15 16//16 39//39
f 38//38 21//21 18//18
f 38//38 23//23 21//21
f 38//38 40//40 41//41
f 38//38 41//41 23//23
f 23//23 41//41 34//34
f 39//39 16//16 42//42
f 39//39 42//42 43//43
f 39//39 43//43 40//40
f 40//40 44//44 41//41
f 40//40 43//43 45//45
f 40//40 45//45 44//44
f 28//28 31//31 46//46
f 28//28 46//46 35//35
f 31//31 41//41 44//44
f 31//31 32//32 41//41
f 31//31 44//44 46//46
f 41//41 32//32 33//33
f 41//41 33//33 34//34
f 35//35 46//46 36//36
f 46//46 44//44 47//47
f 46//46 47//47 36//36
f 44//44 48//48 47//47
f 44//44 49//49 48//48
f 44//44 45//45 49//49
f 50//50 7//7 6//6
f 50//50 51//51 7//7
f 50//50 25//25 51//51
f 50//50 6//6 25//25
f 7//7 52//52 53//53
f 7//7 53//53 8//8
f 7//7 51//51 54//54
f 7//7 54//54 52//52
f 52//52 54//54 55//55
f 52//52 55//55 53//53
f 53//53 9//9 8//8
f 53//53 55//55 56//56
f 53//53 56//56 9//9
f 9//9 56//56 57//57
f 9//9 57//57 16//16
f 51//51 25//25 37//37
f 51//51 37//37 58//58
f 51//51 58//58 54//54
f 54//54 56//56 55//55
f 54//54 59//59 56//56
f 54//54 58//58 60//60
f 54//54 60//60 59//59
f 56//56 59//59 57//57
f 59//59 61//61 57//57
f 59//59 60//60 62//62
f 59//59 62//62 61//61
f 57//57 61//61 42//42
f 57//57 42//42 16//16
f 61//61 62//62 63//63
f 61//61 63//63 42//42
f 25//25 6//6 27//27
f 37//37 64//64 58//58
f 37//37 36//36 64//64
f 64//64 65//65 58//58
f 64//64 36//36 47//47
f 64//64 47//47 65//65
f 58//58 65//65 62//62
f 58//58 62//62 60//60
f 65//65 66//66 62//62
f 65//65 47//47 67//67
f 65//65 67//67 66//66
f 66//66 67//67 48//48
f 66//66 48//48 62//62
f 62//62 48//48 49//49
f 62//62 49//49 63//63
f 42//42 63//63 43//43
f 63//63 49//49 45//45
f 63//63 45//45 43//43
f 47//47 48//48 67//67
# 130 faces, 0 coords texture

# End of File
