####
#
# OBJ File Generated by Meshlab
#
####
# Object step_19_link_4.obj
#
# Vertices: 71
# Faces: 138
#
####
vn 2.616820 1.246444 -3.726509
v 0.138143 0.055316 0.426133
vn 3.317236 4.182698 -3.098704
v 0.137708 0.055862 0.426359
vn 4.927964 1.929083 -1.246918
v 0.227001 0.077516 0.615653
vn 1.209098 2.539897 -4.803506
v 0.136925 0.056254 0.426199
vn 1.984487 -1.904089 -2.629382
v 0.138143 -0.044858 0.426133
vn -0.085027 0.183201 -6.273613
v 0.037835 0.055316 0.426133
vn 4.020996 -2.526122 -0.772846
v 0.227001 -0.022843 0.615653
vn 1.039149 4.500399 -2.757878
v 0.135983 0.057524 0.427021
vn 2.263779 5.027933 -0.733892
v 0.222721 0.082164 0.617116
vn 4.327722 4.205065 -1.130002
v 0.226097 0.078613 0.616097
vn -0.608616 1.475664 -5.689516
v 0.036214 0.056254 0.426199
vn -1.787123 3.214450 -2.234219
v 0.033819 0.057524 0.427021
vn -0.758512 6.139870 -0.255273
v 0.118274 0.082164 0.617116
vn 0.644454 -6.178884 0.224298
v 0.136925 -0.045294 0.527263
vn 0.500035 -3.530961 -2.819167
v 0.136925 -0.045294 0.426199
vn 1.883416 -5.978011 -0.104059
v 0.224526 -0.023760 0.615762
vn -1.454872 -5.786948 0.636170
v 0.036214 -0.045294 0.527263
vn 1.257911 -3.229757 2.802297
v 0.224526 -0.023760 0.717963
vn -0.480976 -4.111461 3.132600
v 0.123094 -0.023760 0.717963
vn -0.074390 -0.430268 -6.246259
v 0.037835 -0.044858 0.426133
vn -0.955068 -2.785636 -2.654005
v 0.036214 -0.045294 0.426199
vn -3.511190 4.609228 0.525930
v 0.033819 0.057524 0.527494
vn -5.379121 1.722340 1.612782
v 0.033530 0.057131 0.527481
vn -5.028821 3.048188 1.961693
v 0.117691 0.081433 0.718745
vn -5.534471 1.737355 0.571250
v 0.033530 0.057131 0.527479
vn -1.075474 2.902867 2.556294
v 0.118274 0.082164 0.718711
vn -6.195559 -0.137271 0.643478
v 0.033530 -0.043436 0.527479
vn -5.903350 -0.668046 1.213430
v 0.033530 -0.043443 0.527481
vn -4.871203 -0.262234 3.597076
v 0.117692 -0.020343 0.718748
vn -4.101930 1.623883 3.317839
v 0.117692 0.081432 0.718748
vn -5.250889 1.619458 -1.142492
v 0.033530 0.057131 0.426993
vn -1.758593 0.770140 -5.905825
v 0.033532 0.057130 0.426991
vn -3.848356 -1.005320 -2.874931
v 0.033532 -0.043451 0.426991
vn -3.501243 1.432613 -3.614304
v 0.033530 0.057131 0.426992
vn -4.183316 -0.495037 -2.780989
v 0.033530 -0.043443 0.426992
vn -5.938738 -0.125523 -1.348163
v 0.033530 -0.043436 0.426993
vn -3.997520 -3.691397 1.049237
v 0.033819 -0.044122 0.527494
vn -3.272470 -2.822826 -2.092433
v 0.033819 -0.044122 0.427021
vn -1.897505 -2.407131 3.492072
v 0.118274 -0.021648 0.718711
vn -5.562307 -2.101249 1.378881
v 0.033536 -0.043460 0.527486
vn -3.332756 -1.099969 4.289657
v 0.117704 -0.020375 0.718754
vn -5.721736 -1.494420 1.282834
v 0.033532 -0.043451 0.527484
vn -3.930473 -1.525011 -2.927159
v 0.033536 -0.043460 0.426991
vn -3.937661 -0.751912 4.085770
v 0.117696 -0.020358 0.718752
vn 5.184263 1.492131 1.177239
v 0.227001 0.077516 0.715912
vn 4.021924 1.856569 2.531287
v 0.226097 0.078613 0.717300
vn 3.109645 -2.427038 2.684023
v 0.226097 -0.023120 0.717300
vn 3.928019 -2.378340 0.974529
v 0.227001 -0.022843 0.715912
vn 3.216296 1.734580 3.917116
v 0.224358 0.080301 0.718318
vn 2.219244 -0.359919 5.755650
v 0.224358 -0.021677 0.718318
vn 1.260283 2.661931 2.320696
v 0.222721 0.082164 0.718711
vn 1.397820 0.091833 6.114187
v 0.222666 0.081337 0.718758
vn 0.957676 -0.132616 6.174008
v 0.222666 -0.020516 0.718758
vn 0.976541 0.126700 6.167702
v 0.222656 0.081360 0.718760
vn 0.445844 0.184185 6.243508
v 0.222647 0.081379 0.718760
vn 0.143139 0.296331 6.269844
v 0.222637 0.081395 0.718760
vn 0.506486 -0.101295 6.236227
v 0.222656 -0.020488 0.718760
vn 0.140738 -0.035287 6.278848
v 0.222647 -0.020462 0.718760
vn -0.029162 0.057498 6.282194
v 0.117778 0.081379 0.718760
vn -0.164169 0.192758 6.270149
v 0.117752 0.081395 0.718760
vn 0.569845 -0.982937 6.027920
v 0.222721 -0.021648 0.718711
vn 1.380638 -0.162289 6.125807
v 0.222674 -0.020545 0.718756
vn -0.077162 -0.237291 6.276412
v 0.117810 -0.020488 0.718760
vn -0.258306 -0.248525 6.261955
v 0.117778 -0.020462 0.718760
vn -0.422451 0.277850 6.246154
v 0.117731 0.081408 0.718759
vn -0.844096 0.400056 6.176082
v 0.117715 0.081418 0.718757
vn -1.513290 0.602149 5.976861
v 0.117704 0.081425 0.718754
vn -2.672041 0.971772 5.292594
v 0.117696 0.081430 0.718752
vn -0.642638 -0.371158 6.201717
v 0.117752 -0.020438 0.718760
vn -1.325372 -0.600773 6.000268
v 0.117731 -0.020416 0.718759
vn -2.507377 -1.014335 5.181853
v 0.117715 -0.020395 0.718757
# 71 vertices, 0 vertices normals

f 1//1 2//2 3//3
f 1//1 4//4 2//2
f 1//1 5//5 6//6
f 1//1 6//6 4//4
f 1//1 3//3 7//7
f 1//1 7//7 5//5
f 2//2 4//4 8//8
f 2//2 8//8 9//9
f 2//2 10//10 3//3
f 2//2 9//9 10//10
f 4//4 6//6 11//11
f 4//4 11//11 8//8
f 8//8 11//11 12//12
f 8//8 12//12 13//13
f 8//8 13//13 9//9
f 14//14 15//15 16//16
f 14//14 17//17 15//15
f 14//14 18//18 19//19
f 14//14 16//16 18//18
f 14//14 19//19 17//17
f 5//5 15//15 20//20
f 5//5 20//20 6//6
f 5//5 7//7 16//16
f 5//5 16//16 15//15
f 15//15 17//17 21//21
f 15//15 21//21 20//20
f 22//22 23//23 24//24
f 22//22 25//25 23//23
f 22//22 12//12 25//25
f 22//22 26//26 13//13
f 22//22 24//24 26//26
f 22//22 13//13 12//12
f 23//23 25//25 27//27
f 23//23 28//28 29//29
f 23//23 27//27 28//28
f 23//23 30//30 24//24
f 23//23 29//29 30//30
f 25//25 12//12 31//31
f 25//25 31//31 27//27
f 6//6 20//20 21//21
f 6//6 21//21 11//11
f 11//11 32//32 12//12
f 11//11 21//21 33//33
f 11//11 33//33 32//32
f 12//12 32//32 34//34
f 12//12 34//34 31//31
f 32//32 33//33 35//35
f 32//32 35//35 34//34
f 34//34 35//35 36//36
f 34//34 36//36 31//31
f 31//31 36//36 27//27
f 17//17 37//37 38//38
f 17//17 38//38 21//21
f 17//17 19//19 39//39
f 17//17 39//39 37//37
f 37//37 40//40 38//38
f 37//37 39//39 41//41
f 37//37 41//41 40//40
f 40//40 42//42 43//43
f 40//40 43//43 38//38
f 40//40 41//41 44//44
f 40//40 44//44 42//42
f 42//42 28//28 33//33
f 42//42 33//33 43//43
f 42//42 44//44 29//29
f 42//42 29//29 28//28
f 28//28 27//27 35//35
f 28//28 35//35 33//33
f 27//27 36//36 35//35
f 21//21 38//38 43//43
f 21//21 43//43 33//33
f 45//45 46//46 47//47
f 45//45 3//3 10//10
f 45//45 10//10 46//46
f 45//45 48//48 3//3
f 45//45 47//47 48//48
f 46//46 49//49 50//50
f 46//46 51//51 49//49
f 46//46 10//10 9//9
f 46//46 9//9 51//51
f 46//46 50//50 47//47
f 49//49 51//51 52//52
f 49//49 52//52 53//53
f 49//49 53//53 50//50
f 51//51 54//54 52//52
f 51//51 55//55 54//54
f 51//51 56//56 55//55
f 51//51 9//9 26//26
f 51//51 26//26 56//56
f 52//52 54//54 57//57
f 52//52 57//57 53//53
f 54//54 55//55 58//58
f 54//54 58//58 57//57
f 55//55 56//56 59//59
f 55//55 59//59 58//58
f 56//56 26//26 60//60
f 56//56 60//60 59//59
f 3//3 48//48 7//7
f 9//9 13//13 26//26
f 48//48 47//47 18//18
f 48//48 18//18 16//16
f 48//48 16//16 7//7
f 47//47 50//50 18//18
f 18//18 50//50 61//61
f 18//18 61//61 19//19
f 50//50 62//62 61//61
f 50//50 53//53 62//62
f 61//61 62//62 53//53
f 61//61 53//53 57//57
f 61//61 57//57 39//39
f 61//61 39//39 19//19
f 57//57 58//58 63//63
f 57//57 63//63 39//39
f 58//58 59//59 64//64
f 58//58 64//64 63//63
f 26//26 65//65 60//60
f 26//26 66//66 65//65
f 26//26 67//67 66//66
f 26//26 68//68 67//67
f 26//26 30//30 68//68
f 26//26 24//24 30//30
f 59//59 60//60 69//69
f 59//59 69//69 64//64
f 60//60 65//65 70//70
f 60//60 70//70 69//69
f 65//65 66//66 71//71
f 65//65 71//71 70//70
f 66//66 67//67 41//41
f 66//66 41//41 71//71
f 67//67 68//68 44//44
f 67//67 44//44 41//41
f 68//68 30//30 29//29
f 68//68 29//29 44//44
f 39//39 63//63 64//64
f 39//39 64//64 69//69
f 39//39 69//69 70//70
f 39//39 70//70 71//71
f 39//39 71//71 41//41
# 138 faces, 0 coords texture

# End of File
