####
#
# OBJ File Generated by Meshlab
#
####
# Object step_35_link_5.obj
#
# Vertices: 57
# Faces: 110
#
####
vn 1.565121 0.793062 5.654998
v 0.124684 0.109988 0.745927
vn 0.476778 3.081259 4.328937
v 0.122428 0.113041 0.745595
vn -0.127191 0.283763 6.260655
v 0.022112 0.109988 0.745927
vn 1.124895 -2.184425 4.485557
v 0.124684 0.007570 0.745927
vn 4.371505 -0.248640 3.814739
v 0.308004 0.032092 0.644902
vn 4.602866 0.405538 2.632565
v 0.308004 0.136879 0.644902
vn 3.148933 0.253128 5.427096
v 0.306798 0.139644 0.645488
vn 4.258782 1.392408 2.492496
v 0.304292 0.155559 0.646097
vn 2.633679 3.038140 2.658802
v 0.303318 0.157160 0.646336
vn -1.849946 2.042507 2.064783
v 0.017008 0.113041 0.745595
vn 0.927909 5.668620 2.162411
v 0.302155 0.157519 0.645969
vn 0.542446 5.806214 1.374450
v 0.302129 0.157526 0.645960
vn -0.510827 5.941509 1.053626
v 0.192126 0.157526 0.645960
vn 0.988998 -5.210729 2.026612
v 0.124885 0.007072 0.745207
vn 2.815188 -2.355767 1.316665
v 0.308353 0.028223 0.643887
vn -0.321088 -2.551886 4.848115
v 0.022112 0.007570 0.745927
vn 3.332767 -1.073540 5.199504
v 0.307715 0.030031 0.644710
vn 0.237492 -6.202561 -0.535423
v 0.124885 0.007072 0.644819
vn -0.972779 -5.278875 1.791835
v 0.021573 0.007072 0.745207
vn -1.113875 -5.639949 -1.297838
v 0.021573 0.007072 0.644819
vn -0.178398 -4.610880 -3.353651
v 0.206761 0.028223 0.543229
vn 2.201025 -2.243641 -1.508812
v 0.308353 0.028223 0.543229
vn -3.246730 0.446205 2.868016
v 0.016721 0.112000 0.745598
vn -3.257520 -0.463952 2.849980
v 0.016721 0.009758 0.745598
vn -3.160616 2.883450 -1.610567
v 0.017008 0.113041 0.644154
vn -4.547211 0.645115 -2.493192
v 0.016721 0.112000 0.644073
vn -0.710706 5.523073 -1.656613
v 0.192126 0.157526 0.541227
vn -2.489246 2.701161 -3.642629
v 0.191093 0.157076 0.541180
vn -1.262594 5.110977 -2.887931
v 0.192116 0.157519 0.541217
vn -4.421241 -0.744167 -2.527675
v 0.016721 0.009758 0.644073
vn -2.877359 -0.073996 -5.568877
v 0.191093 0.050154 0.541180
vn -2.220127 -2.026446 2.208360
v 0.017008 0.008783 0.745595
vn -3.044403 -2.794326 -1.886187
v 0.017008 0.008783 0.644154
vn -1.305258 -5.141635 -3.340166
v 0.022112 0.007570 0.643765
vn -1.141969 -2.806810 -4.751396
v 0.202378 0.030031 0.542200
vn -1.623763 -0.718605 -5.675578
v 0.191970 0.047627 0.540797
vn 6.110594 0.083292 0.972549
v 0.308353 0.129719 0.643887
vn 6.163554 0.084777 -0.802949
v 0.308353 0.129719 0.543229
vn 5.984699 1.104989 1.075102
v 0.307172 0.141419 0.645007
vn 3.950133 0.363316 -2.894995
v 0.308004 0.136879 0.541989
vn 6.157534 1.193251 -0.242260
v 0.307172 0.141419 0.542573
vn 3.195567 4.548854 0.531372
v 0.303309 0.157272 0.645909
vn 3.532873 1.141638 -2.755401
v 0.304292 0.155559 0.541004
vn 3.184612 4.554993 -0.528145
v 0.303309 0.157272 0.541234
vn 0.404972 5.627715 -1.654486
v 0.302129 0.157526 0.541227
vn 3.196881 -0.256469 -3.973341
v 0.308004 0.032092 0.541989
vn 1.654772 0.011246 -6.060871
v 0.306798 0.139644 0.541655
vn 0.834122 -0.236697 -6.160498
v 0.306798 0.035817 0.541655
vn 1.405760 -0.032931 -6.121037
v 0.304292 0.046820 0.541004
vn 1.796405 2.286704 -2.868657
v 0.303318 0.157160 0.540797
vn 0.584047 -0.142491 -6.209069
v 0.303318 0.047627 0.540797
vn 0.653842 5.420848 -2.526710
v 0.302155 0.157519 0.541217
vn -1.086129 2.207444 -4.647025
v 0.191970 0.157160 0.540797
vn 1.913445 -1.732813 -5.106379
v 0.307715 0.030031 0.542200
vn 0.419320 -1.173871 -6.059600
v 0.307324 0.030402 0.542071
vn -0.110032 -1.252416 -6.095055
v 0.203394 0.030402 0.542071
vn -0.035436 -0.486978 -6.263989
v 0.201004 0.035817 0.541655
# 57 vertices, 0 vertices normals

f 1//1 2//2 3//3
f 1//1 4//4 5//5
f 1//1 3//3 4//4
f 1//1 6//6 7//7
f 1//1 7//7 8//8
f 1//1 8//8 9//9
f 1//1 9//9 2//2
f 1//1 5//5 6//6
f 2//2 10//10 3//3
f 2//2 9//9 11//11
f 2//2 11//11 12//12
f 2//2 12//12 13//13
f 2//2 13//13 10//10
f 4//4 14//14 15//15
f 4//4 3//3 16//16
f 4//4 16//16 14//14
f 4//4 15//15 17//17
f 4//4 17//17 5//5
f 14//14 18//18 15//15
f 14//14 16//16 19//19
f 14//14 19//19 18//18
f 18//18 19//19 20//20
f 18//18 20//20 21//21
f 18//18 22//22 15//15
f 18//18 21//21 22//22
f 3//3 10//10 23//23
f 3//3 23//23 24//24
f 3//3 24//24 16//16
f 10//10 25//25 23//23
f 10//10 13//13 25//25
f 23//23 25//25 26//26
f 23//23 26//26 24//24
f 25//25 13//13 27//27
f 25//25 28//28 26//26
f 25//25 29//29 28//28
f 25//25 27//27 29//29
f 26//26 30//30 24//24
f 26//26 28//28 31//31
f 26//26 31//31 30//30
f 16//16 32//32 19//19
f 16//16 24//24 32//32
f 19//19 32//32 20//20
f 32//32 24//24 33//33
f 32//32 33//33 20//20
f 24//24 30//30 33//33
f 34//34 20//20 33//33
f 34//34 33//33 35//35
f 34//34 21//21 20//20
f 34//34 35//35 21//21
f 33//33 30//30 36//36
f 33//33 36//36 35//35
f 30//30 31//31 36//36
f 37//37 6//6 5//5
f 37//37 38//38 6//6
f 37//37 15//15 38//38
f 37//37 5//5 15//15
f 6//6 39//39 8//8
f 6//6 8//8 7//7
f 6//6 38//38 40//40
f 6//6 40//40 41//41
f 6//6 41//41 39//39
f 39//39 41//41 8//8
f 8//8 42//42 9//9
f 8//8 41//41 43//43
f 8//8 43//43 44//44
f 8//8 44//44 42//42
f 9//9 42//42 11//11
f 42//42 12//12 11//11
f 42//42 44//44 45//45
f 42//42 45//45 12//12
f 12//12 45//45 13//13
f 38//38 15//15 22//22
f 38//38 22//22 46//46
f 38//38 46//46 40//40
f 40//40 47//47 43//43
f 40//40 43//43 41//41
f 40//40 46//46 48//48
f 40//40 48//48 47//47
f 47//47 48//48 49//49
f 47//47 49//49 43//43
f 43//43 50//50 44//44
f 43//43 49//49 51//51
f 43//43 51//51 50//50
f 50//50 52//52 44//44
f 50//50 51//51 53//53
f 50//50 53//53 52//52
f 44//44 52//52 45//45
f 52//52 53//53 29//29
f 52//52 29//29 45//45
f 45//45 29//29 27//27
f 45//45 27//27 13//13
f 15//15 5//5 17//17
f 22//22 54//54 46//46
f 22//22 21//21 54//54
f 55//55 54//54 56//56
f 55//55 46//46 54//54
f 55//55 48//48 46//46
f 55//55 56//56 48//48
f 54//54 21//21 35//35
f 54//54 35//35 56//56
f 48//48 51//51 49//49
f 48//48 56//56 57//57
f 48//48 57//57 51//51
f 51//51 57//57 36//36
f 51//51 36//36 53//53
f 53//53 28//28 29//29
f 53//53 36//36 31//31
f 53//53 31//31 28//28
f 56//56 35//35 36//36
f 56//56 36//36 57//57
# 110 faces, 0 coords texture

# End of File
