####
#
# OBJ File Generated by Meshlab
#
####
# Object step_2_link_4.obj
#
# Vertices: 109
# Faces: 214
#
####
vn 0.417206 6.224978 0.247261
v 0.162135 0.013747 0.509781
vn 0.708898 5.667785 -1.477056
v 0.162135 0.013747 0.409312
vn -1.501302 5.731799 0.673554
v 0.059627 0.013747 0.509781
vn -0.505342 4.919590 2.759230
v 0.176502 -0.006172 0.683430
vn 1.041258 4.753039 2.139059
v 0.281430 -0.006172 0.683430
vn 2.072289 5.805863 -0.233473
v 0.281430 -0.006172 0.581732
vn 3.547958 0.184209 -4.752482
v 0.161524 0.006237 0.408062
vn 1.026660 0.517452 -6.002782
v 0.161070 0.006452 0.407908
vn 2.065626 0.977547 -5.283983
v 0.162053 0.013261 0.409156
vn 4.754197 0.286634 -4.043667
v 0.162137 0.013478 0.409255
vn 5.528518 0.088432 -2.871649
v 0.281443 -0.006597 0.581648
vn 3.197074 -1.674815 -3.940786
v 0.161524 -0.094831 0.408062
vn 0.788689 -2.747509 -3.417409
v 0.161070 -0.095045 0.407908
vn 5.307473 0.021903 -3.350254
v 0.280274 -0.021521 0.579590
vn 5.392762 0.052660 -3.192615
v 0.281435 -0.006716 0.581633
vn -1.635381 0.438575 -5.672056
v 0.060406 0.006452 0.407908
vn -1.489333 1.134815 -5.710725
v 0.059752 0.013261 0.409156
vn 4.645405 0.393148 -4.129710
v 0.162141 0.013537 0.409264
vn 4.469994 0.547225 -4.251001
v 0.162143 0.013587 0.409273
vn 4.229720 0.728757 -4.385722
v 0.162145 0.013629 0.409280
vn 3.881369 0.951221 -4.526659
v 0.162146 0.013663 0.409287
vn 3.413386 1.215032 -4.633920
v 0.162145 0.013691 0.409293
vn 2.884770 1.502988 -4.651603
v 0.162144 0.013712 0.409298
vn 2.543528 1.840158 -4.552707
v 0.162143 0.013727 0.409302
vn 5.639789 0.153555 -2.481307
v 0.281448 -0.006494 0.581662
vn 5.709239 0.224689 -2.016371
v 0.281451 -0.006414 0.581674
vn 5.709839 0.331771 -1.766778
v 0.281452 -0.006344 0.581686
vn 5.694728 0.532216 -1.736863
v 0.281451 -0.006288 0.581696
vn 5.663046 0.835515 -1.707471
v 0.281449 -0.006245 0.581706
vn 5.587876 1.269015 -1.655038
v 0.281445 -0.006213 0.581713
vn 2.432761 2.355623 -4.343808
v 0.162141 0.013737 0.409306
vn 5.408802 1.929779 -1.549567
v 0.281441 -0.006192 0.581720
vn -3.091094 1.245979 -2.907945
v 0.059620 0.013727 0.409302
vn 2.191724 3.185846 -3.886453
v 0.162139 0.013743 0.409309
vn 4.960886 2.950001 -1.323244
v 0.281437 -0.006180 0.581725
vn -2.995133 1.718420 -2.797586
v 0.059621 0.013737 0.409306
vn 1.615584 4.376434 -2.926788
v 0.162137 0.013746 0.409311
vn 3.802100 4.410093 -0.819514
v 0.281433 -0.006174 0.581729
vn -2.777840 2.511416 -2.560305
v 0.059623 0.013743 0.409309
vn -2.235593 3.785931 -2.080875
v 0.059625 0.013746 0.409311
vn -1.067258 5.515471 -1.231718
v 0.059627 0.013747 0.409312
vn 3.981867 -2.404789 -1.292329
v 0.280274 -0.123691 0.579590
vn 1.723716 -5.328870 -1.254403
v 0.279367 -0.124127 0.579276
vn -1.395923 -2.399761 -2.514442
v 0.060406 -0.095045 0.407908
vn -0.606350 -6.158287 -0.362346
v 0.178024 -0.124127 0.579276
vn -6.277946 0.015151 0.171441
v 0.059566 0.007672 0.508858
vn -6.270146 0.005427 0.390989
v 0.059619 0.013691 0.509781
vn -5.720885 0.165054 1.737462
v 0.059619 0.013712 0.509782
vn -3.387242 0.939977 -2.964438
v 0.059619 0.013712 0.409298
vn -4.769060 0.285067 -2.662785
v 0.059566 0.007672 0.408576
vn -5.575598 -0.916366 1.532784
v 0.059566 -0.092867 0.508858
vn -5.728623 -0.116782 1.950618
v 0.059619 -0.087118 0.509781
vn -5.728501 -0.029888 2.015163
v 0.059619 -0.087090 0.509782
vn -5.653845 0.569161 1.756086
v 0.059620 0.013727 0.509783
vn -4.688354 0.030658 4.100568
v 0.176487 -0.006245 0.683432
vn -2.948982 0.201733 4.816585
v 0.176489 -0.006213 0.683433
vn -5.486077 1.278490 1.750733
v 0.059621 0.013737 0.509782
vn -2.558425 0.649256 4.778260
v 0.176492 -0.006192 0.683434
vn -4.997373 2.449343 1.657340
v 0.059623 0.013743 0.509782
vn -2.336880 1.542696 4.578563
v 0.176495 -0.006180 0.683433
vn -3.659698 4.141471 1.302181
v 0.059625 0.013746 0.509781
vn -1.618292 3.033572 3.909650
v 0.176499 -0.006174 0.683432
vn -3.724773 0.077719 -5.037081
v 0.060166 0.006237 0.408062
vn -4.051058 -1.891175 -2.157921
v 0.060166 -0.094831 0.408062
vn -5.103674 -0.531047 -2.094215
v 0.059566 -0.092867 0.408576
vn -3.283789 0.670801 -5.313257
v 0.059625 0.013587 0.409273
vn -3.648233 0.720226 -4.942142
v 0.059622 0.013629 0.409280
vn -3.947071 0.750032 -4.170093
v 0.059620 0.013663 0.409287
vn -3.828264 0.758855 -3.092915
v 0.059619 0.013691 0.409293
vn -4.839789 -2.780712 1.213186
v 0.060166 -0.094831 0.508826
vn -3.214528 -4.636938 1.039839
v 0.060406 -0.095045 0.508978
vn -1.181726 -2.896353 2.614083
v 0.178024 -0.124127 0.681467
vn -4.569475 -2.203301 3.443608
v 0.177546 -0.123691 0.681154
vn -4.288451 -1.105165 4.161491
v 0.176365 -0.119830 0.681287
vn -5.564837 -0.348404 2.775487
v 0.059620 -0.087153 0.509779
vn -2.605280 -0.602766 4.847884
v 0.176493 -0.108780 0.683415
vn -2.613133 -0.521663 4.832589
v 0.176489 -0.108699 0.683423
vn -2.613660 -0.371341 4.843016
v 0.176487 -0.108631 0.683428
vn -2.602511 -0.203519 4.860954
v 0.176487 -0.108577 0.683432
vn 6.244837 0.024715 0.473379
v 0.281452 -0.006344 0.683423
vn 5.738711 0.108556 1.726324
v 0.281451 -0.006288 0.683428
vn 3.085859 -0.217151 3.622082
v 0.281451 -0.108631 0.683428
vn 3.126807 -0.283000 3.119430
v 0.281452 -0.108699 0.683423
vn 4.515027 0.247796 2.768121
v 0.281449 -0.006245 0.683432
vn 2.576109 -0.154089 4.901557
v 0.281449 -0.108577 0.683432
vn 3.343585 0.450107 3.052100
v 0.281445 -0.006213 0.683433
vn 1.356241 -0.075086 5.960465
v 0.281445 -0.108534 0.683433
vn 2.988175 0.830801 3.004793
v 0.281441 -0.006192 0.683434
vn 0.228110 -0.015662 6.274135
v 0.281441 -0.108501 0.683434
vn 2.724345 1.559612 2.881461
v 0.281437 -0.006180 0.683433
vn 2.060859 2.771277 2.579858
v 0.281433 -0.006174 0.683432
vn 5.865750 -0.204115 -1.544510
v 0.281435 -0.109116 0.581633
vn 5.946872 -0.168745 -1.391110
v 0.281443 -0.108991 0.581648
vn 6.089955 -0.119362 -1.060088
v 0.281448 -0.108881 0.581662
vn 6.206253 -0.062999 -0.670140
v 0.281451 -0.108780 0.581674
vn 6.274436 -0.018272 -0.222369
v 0.281452 -0.108699 0.581686
vn 3.334500 -2.187603 1.814065
v 0.280274 -0.123691 0.681154
vn 0.967558 -3.127558 2.653166
v 0.279367 -0.124127 0.681467
vn 3.105699 -0.599403 3.107337
v 0.281273 -0.111471 0.683135
vn 6.235993 -0.423167 -0.438646
v 0.281273 -0.111471 0.581473
vn -1.931885 -0.810340 5.535355
v 0.176753 -0.111471 0.683135
vn 6.063838 -0.514997 1.083980
v 0.281435 -0.109116 0.683377
vn 4.702160 -0.551550 2.682680
v 0.281443 -0.108991 0.683393
vn 3.134361 -0.431310 3.107453
v 0.281448 -0.108881 0.683405
vn 3.135203 -0.358615 3.109784
v 0.281451 -0.108780 0.683415
vn -2.355981 -0.685813 5.164961
v 0.176500 -0.108881 0.683405
vn -2.044621 -0.074098 5.501108
v 0.176489 -0.108534 0.683433
vn -0.301832 -0.015395 6.267675
v 0.176492 -0.108501 0.683434
vn 6.141135 -0.317995 -1.102552
v 0.281425 -0.109257 0.581616
# 109 vertices, 0 vertices normals

f 1//1 2//2 3//3
f 1//1 3//3 4//4
f 1//1 5//5 6//6
f 1//1 6//6 2//2
f 1//1 4//4 5//5
f 7//7 8//8 9//9
f 7//7 9//9 10//10
f 7//7 10//10 11//11
f 7//7 12//12 13//13
f 7//7 13//13 8//8
f 7//7 14//14 12//12
f 7//7 15//15 14//14
f 7//7 11//11 15//15
f 8//8 13//13 16//16
f 8//8 16//16 17//17
f 8//8 17//17 9//9
f 9//9 18//18 10//10
f 9//9 19//19 18//18
f 9//9 20//20 19//19
f 9//9 21//21 20//20
f 9//9 22//22 21//21
f 9//9 23//23 22//22
f 9//9 24//24 23//23
f 9//9 17//17 24//24
f 10//10 18//18 11//11
f 18//18 19//19 25//25
f 18//18 25//25 11//11
f 19//19 20//20 26//26
f 19//19 26//26 25//25
f 20//20 21//21 27//27
f 20//20 27//27 26//26
f 21//21 22//22 28//28
f 21//21 28//28 27//27
f 22//22 23//23 29//29
f 22//22 29//29 28//28
f 23//23 24//24 30//30
f 23//23 30//30 29//29
f 24//24 31//31 32//32
f 24//24 17//17 33//33
f 24//24 33//33 31//31
f 24//24 32//32 30//30
f 31//31 34//34 35//35
f 31//31 33//33 36//36
f 31//31 36//36 34//34
f 31//31 35//35 32//32
f 34//34 37//37 38//38
f 34//34 36//36 39//39
f 34//34 39//39 37//37
f 34//34 38//38 35//35
f 37//37 2//2 6//6
f 37//37 39//39 40//40
f 37//37 40//40 41//41
f 37//37 41//41 2//2
f 37//37 6//6 38//38
f 2//2 41//41 3//3
f 12//12 14//14 42//42
f 12//12 42//42 43//43
f 12//12 43//43 13//13
f 13//13 44//44 16//16
f 13//13 43//43 45//45
f 13//13 45//45 44//44
f 46//46 47//47 48//48
f 46//46 48//48 49//49
f 46//46 50//50 51//51
f 46//46 49//49 50//50
f 46//46 51//51 52//52
f 46//46 52//52 47//47
f 47//47 52//52 53//53
f 47//47 53//53 48//48
f 48//48 54//54 33//33
f 48//48 33//33 49//49
f 48//48 53//53 55//55
f 48//48 55//55 56//56
f 48//48 56//56 54//54
f 54//54 57//57 36//36
f 54//54 36//36 33//33
f 54//54 56//56 58//58
f 54//54 58//58 57//57
f 57//57 59//59 39//39
f 57//57 39//39 36//36
f 57//57 58//58 60//60
f 57//57 60//60 59//59
f 59//59 61//61 40//40
f 59//59 40//40 39//39
f 59//59 60//60 62//62
f 59//59 62//62 61//61
f 61//61 3//3 41//41
f 61//61 41//41 40//40
f 61//61 62//62 4//4
f 61//61 4//4 3//3
f 63//63 16//16 44//44
f 63//63 50//50 16//16
f 63//63 64//64 65//65
f 63//63 44//44 64//64
f 63//63 65//65 50//50
f 16//16 50//50 66//66
f 16//16 66//66 17//17
f 50//50 67//67 66//66
f 50//50 68//68 67//67
f 50//50 69//69 68//68
f 50//50 49//49 69//69
f 50//50 65//65 51//51
f 17//17 66//66 67//67
f 17//17 67//67 68//68
f 17//17 68//68 69//69
f 17//17 69//69 49//49
f 17//17 49//49 33//33
f 70//70 71//71 72//72
f 70//70 51//51 65//65
f 70//70 64//64 71//71
f 70//70 65//65 64//64
f 70//70 73//73 74//74
f 70//70 72//72 73//73
f 70//70 74//74 51//51
f 71//71 64//64 44//44
f 71//71 44//44 45//45
f 71//71 45//45 72//72
f 51//51 75//75 52//52
f 51//51 74//74 76//76
f 51//51 76//76 77//77
f 51//51 77//77 75//75
f 75//75 77//77 78//78
f 75//75 78//78 52//52
f 52//52 78//78 79//79
f 52//52 79//79 53//53
f 53//53 79//79 55//55
f 80//80 81//81 82//82
f 80//80 27//27 28//28
f 80//80 28//28 81//81
f 80//80 83//83 27//27
f 80//80 82//82 83//83
f 81//81 84//84 85//85
f 81//81 28//28 29//29
f 81//81 29//29 84//84
f 81//81 85//85 82//82
f 84//84 86//86 87//87
f 84//84 29//29 30//30
f 84//84 30//30 86//86
f 84//84 87//87 85//85
f 86//86 88//88 89//89
f 86//86 30//30 32//32
f 86//86 32//32 88//88
f 86//86 89//89 87//87
f 88//88 90//90 58//58
f 88//88 32//32 35//35
f 88//88 35//35 90//90
f 88//88 58//58 89//89
f 90//90 91//91 60//60
f 90//90 35//35 38//38
f 90//90 38//38 91//91
f 90//90 60//60 58//58
f 91//91 5//5 4//4
f 91//91 38//38 6//6
f 91//91 6//6 5//5
f 91//91 62//62 60//60
f 91//91 4//4 62//62
f 14//14 15//15 92//92
f 14//14 92//92 42//42
f 15//15 11//11 93//93
f 15//15 93//93 92//92
f 11//11 25//25 94//94
f 11//11 94//94 93//93
f 25//25 26//26 95//95
f 25//25 95//95 94//94
f 26//26 27//27 96//96
f 26//26 96//96 95//95
f 27//27 83//83 96//96
f 97//97 98//98 42//42
f 97//97 99//99 98//98
f 97//97 42//42 100//100
f 97//97 100//100 99//99
f 98//98 99//99 101//101
f 98//98 43//43 42//42
f 98//98 72//72 43//43
f 98//98 101//101 72//72
f 99//99 102//102 103//103
f 99//99 103//103 104//104
f 99//99 104//104 101//101
f 99//99 100//100 92//92
f 99//99 92//92 102//102
f 102//102 92//92 93//93
f 102//102 93//93 103//103
f 103//103 93//93 94//94
f 103//103 94//94 104//104
f 104//104 105//105 106//106
f 104//104 94//94 95//95
f 104//104 95//95 105//105
f 104//104 106//106 101//101
f 105//105 83//83 76//76
f 105//105 95//95 96//96
f 105//105 96//96 83//83
f 105//105 76//76 106//106
f 83//83 82//82 77//77
f 83//83 77//77 76//76
f 82//82 85//85 78//78
f 82//82 78//78 77//77
f 85//85 87//87 79//79
f 85//85 79//79 78//78
f 87//87 89//89 107//107
f 87//87 107//107 79//79
f 89//89 58//58 108//108
f 89//89 108//108 107//107
f 42//42 109//109 100//100
f 42//42 92//92 109//109
f 43//43 72//72 45//45
f 100//100 109//109 92//92
f 55//55 79//79 107//107
f 55//55 107//107 56//56
f 56//56 107//107 108//108
f 56//56 108//108 58//58
f 73//73 72//72 74//74
f 72//72 101//101 74//74
f 74//74 101//101 106//106
f 74//74 106//106 76//76
# 214 faces, 0 coords texture

# End of File
