####
#
# OBJ File Generated by Meshlab
#
####
# Object step_50_link_4.obj
#
# Vertices: 84
# Faces: 164
#
####
vn 5.149796 0.458104 -2.350223
v 0.076206 0.123792 0.430434
vn 3.266989 1.671645 -3.230740
v 0.074153 0.129222 0.428633
vn 4.558403 3.464043 -0.765914
v 0.081109 0.213203 0.621754
vn 4.010127 -0.877511 -2.933028
v 0.076206 0.023028 0.430434
vn 2.351593 -0.616494 -5.413615
v 0.074153 0.027069 0.428633
vn 6.052692 1.086696 -0.305636
v 0.085026 0.202200 0.625506
vn 6.274077 -0.162838 -0.120339
v 0.085026 0.100654 0.625506
vn 2.356367 2.427400 -4.097585
v 0.072796 0.130095 0.428292
vn 3.473471 4.967145 -1.079830
v 0.078461 0.215031 0.621037
vn 0.734155 -0.634058 -6.121540
v 0.072796 0.027759 0.428292
vn 1.790348 2.602161 -4.119387
v 0.072786 0.130100 0.428289
vn 2.784150 5.276567 -1.148627
v 0.078443 0.215042 0.621033
vn 0.618104 -0.450979 -6.175981
v 0.072786 0.027771 0.428289
vn 0.922692 2.789802 -4.155265
v 0.072779 0.130103 0.428288
vn 1.567588 5.671453 -1.226769
v 0.078428 0.215048 0.621030
vn 0.375565 -0.255876 -6.240067
v 0.072779 0.027782 0.428288
vn 0.220323 2.859924 -4.317444
v 0.072773 0.130103 0.428288
vn 0.436020 5.925364 -1.265219
v 0.078417 0.215049 0.621030
vn 0.116976 -0.072629 -6.278496
v 0.072773 0.027790 0.428288
vn -1.872533 1.931414 -2.771081
v -0.027761 0.130103 0.428288
vn -2.647474 3.690580 -0.762491
v -0.023067 0.215049 0.621030
vn 2.758703 -3.398848 0.571000
v 0.076018 0.019687 0.531962
vn 2.075206 -2.501824 -1.450750
v 0.076018 0.019687 0.431817
vn 6.257806 -0.522913 -0.030754
v 0.084676 0.094181 0.628326
vn -2.548147 -4.171634 0.835423
v -0.024211 0.019687 0.531962
vn 1.930663 -1.549750 2.166226
v 0.084676 0.094181 0.728622
vn -1.715020 -2.179840 2.908583
v -0.015786 0.094181 0.728622
vn 2.138851 -2.313028 -4.822602
v 0.075891 0.021376 0.430871
vn -1.820295 -3.449403 -1.734816
v -0.024211 0.019687 0.431817
vn 1.091613 -1.858823 -5.731225
v 0.074321 0.025192 0.429141
vn -2.152910 -3.068601 -4.242475
v -0.024905 0.021376 0.430871
vn 0.635289 -1.606563 -6.038000
v 0.072857 0.027679 0.428315
vn 0.479394 -1.561003 -6.032213
v 0.072838 0.027703 0.428306
vn -2.674093 -2.422569 -3.584351
v -0.026733 0.025192 0.429141
vn 0.571446 -1.286839 -6.067216
v 0.072822 0.027725 0.428300
vn 0.687932 -0.922221 -6.095774
v 0.072808 0.027743 0.428295
vn -2.911191 -2.077886 -3.102205
v -0.027741 0.027703 0.428306
vn -2.946908 -1.828899 -2.977158
v -0.027748 0.027725 0.428300
vn -2.990779 -1.515729 -2.996710
v -0.027754 0.027743 0.428295
vn -3.034818 -1.153239 -3.015904
v -0.027758 0.027759 0.428292
vn -3.061670 -0.738842 -3.028980
v -0.027760 0.027771 0.428289
vn -3.069092 -0.309567 -3.061386
v -0.027761 0.027782 0.428288
vn -2.388537 -0.052986 -5.141966
v -0.027761 0.027790 0.428288
vn -6.277781 0.150470 0.048050
v -0.027761 0.130103 0.528765
vn -5.461978 0.577408 -1.825296
v -0.027761 0.130103 0.428288
vn -6.271465 -0.224822 0.102897
v -0.027761 0.027782 0.528765
vn -6.218413 -0.084373 0.672529
v -0.023068 0.110329 0.722474
vn -2.748915 2.684370 1.420460
v -0.023068 0.215048 0.722474
vn -6.156520 1.023770 -0.122014
v -0.023068 0.215048 0.621030
vn -5.751755 -2.333761 0.517935
v -0.026377 0.023990 0.530279
vn -5.428018 -1.465782 2.248785
v -0.020209 0.102565 0.725274
vn -5.957969 -1.859513 0.432351
v -0.027748 0.027725 0.528789
vn -5.246724 -2.837902 -1.179137
v -0.026377 0.023990 0.430084
vn -5.385100 -1.045825 2.460894
v -0.023027 0.110166 0.722535
vn -5.311849 -0.846137 2.506205
v -0.023043 0.110210 0.722518
vn -6.057034 -1.537003 0.363403
v -0.027754 0.027743 0.528781
vn -5.495112 -0.685644 2.275355
v -0.023054 0.110248 0.722503
vn -6.152255 -1.142286 0.286470
v -0.027758 0.027759 0.528774
vn -5.742419 -0.501802 1.903015
v -0.023062 0.110280 0.722491
vn -6.228299 -0.679114 0.196502
v -0.027760 0.027771 0.528769
vn -6.006754 -0.286917 1.364898
v -0.023066 0.110307 0.722481
vn 2.803580 0.202168 4.265692
v 0.084676 0.195048 0.728622
vn 2.830424 1.067326 2.718447
v 0.085026 0.202200 0.727722
vn -0.954806 0.237344 6.077680
v -0.015786 0.195048 0.728622
vn 6.067706 -0.092098 1.083315
v 0.085026 0.100654 0.727722
vn 2.877257 2.851429 2.265842
v 0.081109 0.213203 0.723068
vn 0.457767 2.602503 5.690438
v 0.078618 0.214853 0.722576
vn 0.516081 2.768097 5.571811
v 0.078578 0.214908 0.722554
vn -2.061406 0.872377 5.110817
v -0.018256 0.202200 0.727722
vn 0.748445 3.119750 5.291633
v 0.078542 0.214952 0.722535
vn 1.111641 3.612041 4.718048
v 0.078511 0.214987 0.722518
vn 1.564507 4.110211 3.588751
v 0.078484 0.215013 0.722503
vn 1.699017 4.373076 2.547420
v 0.078461 0.215031 0.722491
vn -0.813506 2.103417 5.789888
v -0.023006 0.214908 0.722554
vn -2.006914 1.541059 5.220811
v -0.023027 0.214952 0.722535
vn -2.390988 1.464766 4.743927
v -0.023043 0.214987 0.722518
vn -2.569603 1.645164 4.349029
v -0.023054 0.215013 0.722503
vn 1.434230 4.843047 2.192702
v 0.078443 0.215042 0.722481
vn -2.747136 1.905809 3.716542
v -0.023062 0.215031 0.722491
vn 0.876941 5.520853 1.638587
v 0.078428 0.215048 0.722474
vn -2.851469 2.250670 2.732500
v -0.023066 0.215042 0.722481
vn 0.275893 6.165797 0.652357
v 0.078417 0.215049 0.722468
vn -2.783977 3.907924 0.404569
v -0.023067 0.215049 0.722468
vn -3.776903 -0.658770 4.392269
v -0.018256 0.100654 0.727722
# 84 vertices, 0 vertices normals

f 1//1 2//2 3//3
f 1//1 4//4 5//5
f 1//1 5//5 2//2
f 1//1 6//6 7//7
f 1//1 3//3 6//6
f 1//1 7//7 4//4
f 2//2 8//8 9//9
f 2//2 5//5 10//10
f 2//2 10//10 8//8
f 2//2 9//9 3//3
f 8//8 11//11 12//12
f 8//8 10//10 13//13
f 8//8 13//13 11//11
f 8//8 12//12 9//9
f 11//11 14//14 15//15
f 11//11 13//13 16//16
f 11//11 16//16 14//14
f 11//11 15//15 12//12
f 14//14 17//17 18//18
f 14//14 16//16 19//19
f 14//14 19//19 17//17
f 14//14 18//18 15//15
f 17//17 19//19 20//20
f 17//17 20//20 21//21
f 17//17 21//21 18//18
f 22//22 23//23 24//24
f 22//22 25//25 23//23
f 22//22 26//26 27//27
f 22//22 24//24 26//26
f 22//22 27//27 25//25
f 23//23 28//28 4//4
f 23//23 4//4 24//24
f 23//23 25//25 29//29
f 23//23 29//29 28//28
f 28//28 30//30 4//4
f 28//28 29//29 31//31
f 28//28 31//31 30//30
f 4//4 30//30 5//5
f 4//4 7//7 24//24
f 30//30 32//32 5//5
f 30//30 33//33 32//32
f 30//30 31//31 34//34
f 30//30 34//34 33//33
f 5//5 32//32 33//33
f 5//5 33//33 35//35
f 5//5 35//35 36//36
f 5//5 36//36 10//10
f 33//33 34//34 37//37
f 33//33 37//37 35//35
f 35//35 37//37 38//38
f 35//35 38//38 36//36
f 36//36 38//38 39//39
f 36//36 39//39 10//10
f 10//10 39//39 40//40
f 10//10 40//40 13//13
f 13//13 40//40 41//41
f 13//13 41//41 16//16
f 16//16 41//41 42//42
f 16//16 42//42 19//19
f 19//19 42//42 43//43
f 19//19 43//43 20//20
f 44//44 45//45 46//46
f 44//44 46//46 47//47
f 44//44 48//48 49//49
f 44//44 49//49 45//45
f 44//44 47//47 48//48
f 45//45 20//20 43//43
f 45//45 42//42 46//46
f 45//45 43//43 42//42
f 45//45 49//49 21//21
f 45//45 21//21 20//20
f 25//25 50//50 29//29
f 25//25 27//27 51//51
f 25//25 51//51 50//50
f 50//50 52//52 53//53
f 50//50 53//53 29//29
f 50//50 51//51 54//54
f 50//50 54//54 55//55
f 50//50 55//55 52//52
f 52//52 56//56 38//38
f 52//52 38//38 53//53
f 52//52 55//55 57//57
f 52//52 57//57 56//56
f 56//56 58//58 39//39
f 56//56 39//39 38//38
f 56//56 57//57 59//59
f 56//56 59//59 58//58
f 58//58 60//60 40//40
f 58//58 40//40 39//39
f 58//58 59//59 61//61
f 58//58 61//61 60//60
f 60//60 46//46 41//41
f 60//60 41//41 40//40
f 60//60 61//61 47//47
f 60//60 47//47 46//46
f 46//46 42//42 41//41
f 29//29 53//53 34//34
f 29//29 34//34 31//31
f 53//53 37//37 34//34
f 53//53 38//38 37//37
f 62//62 63//63 64//64
f 62//62 26//26 65//65
f 62//62 65//65 63//63
f 62//62 64//64 26//26
f 63//63 66//66 67//67
f 63//63 67//67 68//68
f 63//63 68//68 69//69
f 63//63 6//6 66//66
f 63//63 65//65 6//6
f 63//63 69//69 64//64
f 66//66 68//68 67//67
f 66//66 70//70 68//68
f 66//66 71//71 70//70
f 66//66 72//72 71//71
f 66//66 73//73 72//72
f 66//66 6//6 3//3
f 66//66 3//3 73//73
f 68//68 70//70 74//74
f 68//68 74//74 69//69
f 70//70 71//71 75//75
f 70//70 75//75 74//74
f 71//71 72//72 76//76
f 71//71 76//76 75//75
f 72//72 73//73 77//77
f 72//72 77//77 76//76
f 73//73 78//78 79//79
f 73//73 3//3 9//9
f 73//73 9//9 78//78
f 73//73 79//79 77//77
f 78//78 80//80 81//81
f 78//78 9//9 12//12
f 78//78 12//12 80//80
f 78//78 81//81 79//79
f 80//80 82//82 48//48
f 80//80 12//12 15//15
f 80//80 15//15 82//82
f 80//80 48//48 81//81
f 82//82 15//15 18//18
f 82//82 18//18 83//83
f 82//82 83//83 48//48
f 6//6 65//65 7//7
f 18//18 21//21 83//83
f 26//26 24//24 65//65
f 26//26 64//64 27//27
f 65//65 24//24 7//7
f 64//64 69//69 84//84
f 64//64 84//84 27//27
f 69//69 74//74 75//75
f 69//69 75//75 76//76
f 69//69 76//76 55//55
f 69//69 55//55 84//84
f 76//76 77//77 57//57
f 76//76 57//57 55//55
f 77//77 79//79 59//59
f 77//77 59//59 57//57
f 79//79 81//81 61//61
f 79//79 61//61 59//59
f 81//81 48//48 47//47
f 81//81 47//47 61//61
f 48//48 83//83 49//49
f 83//83 21//21 49//49
f 27//27 84//84 51//51
f 84//84 54//54 51//51
f 84//84 55//55 54//54
# 164 faces, 0 coords texture

# End of File
