####
#
# OBJ File Generated by Meshlab
#
####
# Object step_15_link_6.obj
#
# Vertices: 85
# Faces: 166
#
####
vn 3.801262 4.990496 0.185302
v 0.396504 -0.029833 0.592504
vn 2.827261 2.762662 2.470782
v 0.393482 -0.027696 0.596386
vn 4.526352 1.957795 1.353873
v 0.468489 -0.083791 0.536901
vn 3.114610 5.251013 -0.918651
v 0.396504 -0.029833 0.489106
vn 2.567349 5.474621 -0.797530
v 0.393482 -0.027696 0.491729
vn 1.443465 3.872190 2.481260
v 0.391363 -0.026947 0.597439
vn 2.679101 1.107978 5.416982
v 0.391322 -0.027317 0.597596
vn 2.501099 -1.168188 5.472700
v 0.391322 -0.135165 0.597596
vn 0.707727 5.419236 -1.700519
v 0.391363 -0.026947 0.491790
vn 3.273865 -0.583369 5.246001
v 0.393482 -0.135253 0.596386
vn 4.057028 0.359308 4.755258
v 0.463161 -0.081409 0.542743
vn 4.309543 2.047174 2.959448
v 0.465137 -0.081734 0.541005
vn 1.745909 1.339250 5.651096
v 0.390288 -0.027578 0.598087
vn 0.845683 1.987820 5.389711
v 0.390250 -0.027576 0.598096
vn 0.227392 2.161040 5.289235
v 0.390215 -0.027577 0.598101
vn -0.221632 5.399852 2.064640
v 0.281544 -0.026947 0.597439
vn 2.437574 0.528612 5.723089
v 0.390328 -0.027586 0.598072
vn 2.337812 -0.817657 5.686206
v 0.390328 -0.134875 0.598072
vn 1.494498 -1.675603 5.504257
v 0.390288 -0.134875 0.598087
vn 0.661576 -2.050016 5.345546
v 0.390250 -0.134872 0.598096
vn 0.207714 -1.722763 5.673857
v 0.390215 -0.134866 0.598101
vn -0.928987 2.975973 3.315244
v 0.279307 -0.027577 0.598101
vn 1.240500 5.061787 -2.942988
v 0.395368 -0.029401 0.488825
vn 3.550332 1.681711 -2.041964
v 0.468489 -0.083791 0.431717
vn 1.627835 2.431859 -3.378030
v 0.467530 -0.083238 0.431270
vn -0.105128 4.632154 -4.231058
v 0.290921 -0.029401 0.488825
vn -0.606386 1.989168 -5.178863
v 0.360727 -0.083238 0.431270
vn -1.232232 4.136252 -2.624437
v 0.281544 -0.026947 0.491790
vn 2.540615 -3.322332 3.681144
v 0.461931 -0.193090 0.543424
vn 3.778895 -1.503893 4.457784
v 0.463161 -0.192512 0.542743
vn 3.377116 -2.290948 4.490046
v 0.461974 -0.193073 0.543402
vn 1.657156 -2.864492 5.274653
v 0.391363 -0.135494 0.597439
vn 0.555937 -4.800110 2.547523
v 0.461849 -0.193105 0.543445
vn 1.421072 -4.185691 2.881637
v 0.461889 -0.193101 0.543438
vn -0.137103 -4.100244 4.723893
v 0.279331 -0.134872 0.598096
vn -0.192369 -5.274584 2.201005
v 0.347941 -0.193105 0.543445
vn -1.324487 -2.702108 3.890397
v 0.279307 -0.134866 0.598101
vn -1.315006 5.893744 0.859835
v 0.280681 -0.027039 0.597298
vn -1.938487 5.099844 -1.723286
v 0.280681 -0.027039 0.492319
vn -1.961652 2.169686 2.527042
v 0.279294 -0.027582 0.598100
vn -3.983522 2.633316 -1.218664
v 0.279294 -0.027582 0.492783
vn -2.415265 -1.852045 2.731498
v 0.279294 -0.134858 0.598100
vn -4.540687 1.129535 2.000209
v 0.279288 -0.027590 0.598097
vn -4.690576 -0.887490 2.112667
v 0.279288 -0.134849 0.598097
vn -5.642824 1.582780 -0.461513
v 0.279288 -0.027590 0.492804
vn -2.797361 2.083540 -5.224678
v 0.281244 -0.027317 0.491798
vn -3.183713 2.160086 -4.684077
v 0.279366 -0.027578 0.492710
vn -3.408653 2.458843 -3.552682
v 0.279331 -0.027576 0.492736
vn -1.259732 3.013430 -5.160225
v 0.350361 -0.080699 0.434851
vn -2.847330 1.633584 -5.171812
v 0.348008 -0.080838 0.435732
vn -3.511614 2.718794 -2.115261
v 0.279307 -0.027577 0.492761
vn -3.724098 0.552058 -5.022136
v 0.347967 -0.080828 0.435762
vn -4.361492 -0.609571 -4.389244
v 0.279331 -0.134872 0.492736
vn -4.625624 -1.898216 -2.668697
v 0.279307 -0.134866 0.492761
vn -2.912088 0.499869 -5.358624
v 0.348343 -0.081409 0.435432
vn -4.826026 -2.131769 -1.318437
v 0.279294 -0.134858 0.492783
vn -5.849206 -1.249173 -0.485198
v 0.279288 -0.134849 0.492804
vn -1.630841 -4.835400 1.661655
v 0.347926 -0.193103 0.543445
vn -2.872566 -0.569764 -5.348472
v 0.348343 -0.192512 0.435432
vn -2.007864 -3.125257 -2.815194
v 0.347967 -0.193101 0.435762
vn -2.292621 -3.672274 -2.007877
v 0.347941 -0.193105 0.435792
vn -2.804827 -4.744156 -0.921453
v 0.347926 -0.193103 0.435820
vn 6.257901 0.192818 0.248855
v 0.468531 -0.084280 0.536492
vn 4.822140 -1.701850 1.476545
v 0.468489 -0.189815 0.536901
vn 6.256249 0.190668 -0.264573
v 0.468531 -0.084280 0.432105
vn 6.256958 -0.203610 0.246585
v 0.468531 -0.189347 0.536492
vn 3.469629 -2.713274 2.185633
v 0.465137 -0.192157 0.541005
vn 6.255316 -0.201343 -0.262206
v 0.468531 -0.189347 0.432105
vn 3.830915 -1.451022 -2.204636
v 0.468489 -0.189815 0.431717
vn 1.290232 -2.434727 -3.961874
v 0.467530 -0.190347 0.431270
vn 4.041781 -4.634322 0.506450
v 0.467888 -0.190439 0.537012
vn 3.151538 -4.580940 -1.575863
v 0.467888 -0.190439 0.431766
vn 2.703600 -5.580160 -0.488756
v 0.465137 -0.192157 0.434850
vn 2.291597 -4.571688 1.769605
v 0.463186 -0.193014 0.542332
vn 1.260145 -5.923451 -0.586363
v 0.463186 -0.193014 0.435356
vn 0.140837 -6.249764 -0.358932
v 0.461849 -0.193105 0.435792
vn 0.823237 -5.532741 -2.093960
v 0.463204 -0.192913 0.434851
vn -0.567239 -2.237458 -4.875566
v 0.360727 -0.190347 0.431270
vn 0.120053 -6.207292 -0.870488
v 0.461889 -0.193101 0.435762
vn -0.728118 -4.157698 -3.486106
v 0.350361 -0.192913 0.434851
vn -2.012461 1.264093 -5.657371
v 0.349983 -0.081022 0.434850
vn -2.364710 1.967949 -5.433419
v 0.348065 -0.080855 0.435701
vn -1.869638 -1.356759 -5.662461
v 0.349983 -0.192663 0.434850
vn -2.049342 -2.475078 -5.231801
v 0.348065 -0.193073 0.435701
vn -2.020068 -3.027293 -3.964834
v 0.348008 -0.193090 0.435732
# 85 vertices, 0 vertices normals

f 1//1 2//2 3//3
f 1//1 4//4 5//5
f 1//1 5//5 2//2
f 1//1 3//3 4//4
f 2//2 6//6 7//7
f 2//2 7//7 8//8
f 2//2 5//5 9//9
f 2//2 9//9 6//6
f 2//2 10//10 11//11
f 2//2 8//8 10//10
f 2//2 12//12 3//3
f 2//2 11//11 12//12
f 6//6 13//13 7//7
f 6//6 14//14 13//13
f 6//6 15//15 14//14
f 6//6 9//9 16//16
f 6//6 16//16 15//15
f 7//7 17//17 18//18
f 7//7 13//13 17//17
f 7//7 18//18 8//8
f 17//17 13//13 19//19
f 17//17 19//19 18//18
f 13//13 14//14 20//20
f 13//13 20//20 19//19
f 14//14 15//15 21//21
f 14//14 21//21 20//20
f 15//15 16//16 22//22
f 15//15 22//22 21//21
f 4//4 23//23 5//5
f 4//4 3//3 24//24
f 4//4 24//24 25//25
f 4//4 25//25 23//23
f 23//23 9//9 5//5
f 23//23 26//26 9//9
f 23//23 25//25 27//27
f 23//23 27//27 26//26
f 9//9 26//26 28//28
f 9//9 28//28 16//16
f 10//10 8//8 29//29
f 10//10 30//30 11//11
f 10//10 31//31 30//30
f 10//10 29//29 31//31
f 32//32 8//8 19//19
f 32//32 19//19 33//33
f 32//32 34//34 8//8
f 32//32 33//33 34//34
f 8//8 18//18 19//19
f 8//8 34//34 29//29
f 19//19 20//20 33//33
f 20//20 21//21 35//35
f 20//20 35//35 36//36
f 20//20 36//36 33//33
f 21//21 22//22 37//37
f 21//21 37//37 35//35
f 16//16 38//38 22//22
f 16//16 28//28 39//39
f 16//16 39//39 38//38
f 38//38 40//40 22//22
f 38//38 39//39 41//41
f 38//38 41//41 40//40
f 22//22 40//40 42//42
f 22//22 42//42 37//37
f 40//40 43//43 44//44
f 40//40 41//41 45//45
f 40//40 45//45 43//43
f 40//40 44//44 42//42
f 43//43 45//45 44//44
f 26//26 27//27 28//28
f 28//28 46//46 47//47
f 28//28 47//47 48//48
f 28//28 48//48 39//39
f 28//28 27//27 49//49
f 28//28 49//49 50//50
f 28//28 50//50 46//46
f 46//46 50//50 47//47
f 39//39 48//48 51//51
f 39//39 51//51 41//41
f 47//47 50//50 52//52
f 47//47 52//52 48//48
f 48//48 53//53 54//54
f 48//48 54//54 51//51
f 48//48 55//55 53//53
f 48//48 52//52 55//55
f 51//51 54//54 56//56
f 51//51 56//56 41//41
f 41//41 56//56 57//57
f 41//41 57//57 45//45
f 45//45 57//57 44//44
f 35//35 37//37 58//58
f 35//35 58//58 36//36
f 37//37 42//42 58//58
f 42//42 44//44 57//57
f 42//42 56//56 58//58
f 42//42 57//57 56//56
f 53//53 55//55 59//59
f 53//53 59//59 60//60
f 53//53 60//60 61//61
f 53//53 61//61 54//54
f 54//54 61//61 62//62
f 54//54 62//62 56//56
f 56//56 62//62 58//58
f 63//63 3//3 64//64
f 63//63 65//65 24//24
f 63//63 24//24 3//3
f 63//63 66//66 65//65
f 63//63 64//64 66//66
f 3//3 12//12 64//64
f 12//12 11//11 67//67
f 12//12 67//67 64//64
f 11//11 30//30 67//67
f 65//65 66//66 68//68
f 65//65 68//68 69//69
f 65//65 69//69 24//24
f 24//24 69//69 70//70
f 24//24 70//70 25//25
f 25//25 70//70 27//27
f 66//66 64//64 69//69
f 66//66 69//69 68//68
f 64//64 71//71 72//72
f 64//64 67//67 71//71
f 64//64 72//72 69//69
f 71//71 67//67 73//73
f 71//71 73//73 72//72
f 67//67 74//74 75//75
f 67//67 30//30 74//74
f 67//67 75//75 73//73
f 74//74 30//30 31//31
f 74//74 31//31 29//29
f 74//74 29//29 34//34
f 74//74 34//34 33//33
f 74//74 33//33 76//76
f 74//74 76//76 75//75
f 33//33 36//36 76//76
f 69//69 72//72 70//70
f 70//70 72//72 77//77
f 70//70 77//77 78//78
f 70//70 78//78 27//27
f 72//72 73//73 77//77
f 73//73 75//75 77//77
f 77//77 75//75 79//79
f 77//77 79//79 80//80
f 77//77 80//80 78//78
f 75//75 76//76 79//79
f 79//79 76//76 60//60
f 79//79 60//60 80//80
f 76//76 36//36 61//61
f 76//76 61//61 60//60
f 27//27 81//81 49//49
f 27//27 78//78 81//81
f 49//49 81//81 82//82
f 49//49 82//82 50//50
f 81//81 55//55 82//82
f 81//81 78//78 83//83
f 81//81 83//83 55//55
f 55//55 50//50 82//82
f 55//55 52//52 50//50
f 55//55 83//83 59//59
f 36//36 58//58 62//62
f 36//36 62//62 61//61
f 78//78 80//80 83//83
f 80//80 84//84 83//83
f 80//80 85//85 84//84
f 80//80 60//60 85//85
f 83//83 84//84 59//59
f 59//59 84//84 85//85
f 59//59 85//85 60//60
# 166 faces, 0 coords texture

# End of File
