####
#
# OBJ File Generated by Meshlab
#
####
# Object step_27_link_5.obj
#
# Vertices: 161
# Faces: 318
#
####
vn 0.630589 1.205596 5.804740
v 0.142215 0.081469 0.746796
vn 0.091848 2.862228 5.589597
v 0.166350 0.095796 0.739111
vn -1.480531 4.255605 2.759601
v 0.061231 0.095796 0.739111
vn 0.240824 2.680449 5.657240
v 0.166627 0.095939 0.739033
vn 0.425399 2.440757 5.711036
v 0.166865 0.096062 0.738964
vn 0.615551 2.177265 5.728837
v 0.167066 0.096165 0.738905
vn 0.845445 1.832021 5.692043
v 0.167233 0.096250 0.738854
vn 0.960620 1.705925 5.623294
v 0.167367 0.096318 0.738813
vn 1.070495 -1.061391 5.801913
v 0.142215 -0.021265 0.746796
vn 2.174358 -0.479849 5.847186
v 0.167367 -0.005782 0.738813
vn -1.801811 2.393306 3.413940
v 0.039933 0.081469 0.746796
vn -1.453013 4.287116 2.748923
v 0.061503 0.095939 0.739033
vn -1.421847 4.330470 2.732068
v 0.061742 0.096062 0.738964
vn -1.385559 4.382919 2.710565
v 0.061950 0.096165 0.738905
vn -1.341340 4.441556 2.685750
v 0.062126 0.096250 0.738854
vn -1.287571 4.516476 2.651432
v 0.062273 0.096318 0.738813
vn 1.000598 1.780433 5.554199
v 0.167470 0.096370 0.738779
vn -1.219578 4.607764 2.606567
v 0.062392 0.096370 0.738779
vn 2.227326 -0.432789 5.833666
v 0.167470 -0.005713 0.738779
vn 1.061729 1.889155 5.447157
v 0.167547 0.096407 0.738753
vn -1.130820 4.725669 2.542722
v 0.062485 0.096407 0.738753
vn 2.316006 -0.369430 5.808116
v 0.167547 -0.005659 0.738753
vn 1.156128 2.050523 5.264062
v 0.167599 0.096432 0.738733
vn -1.009956 4.885109 2.444755
v 0.062554 0.096432 0.738733
vn 2.444635 -0.279139 5.765790
v 0.167599 -0.005618 0.738733
vn 1.320152 2.304265 4.894968
v 0.167631 0.096447 0.738720
vn -0.836632 5.113471 2.277671
v 0.062603 0.096447 0.738720
vn 2.648298 -0.138838 5.686286
v 0.167631 -0.005589 0.738720
vn 1.452339 2.826301 4.080474
v 0.167648 0.096455 0.738712
vn -0.573043 5.460600 1.947706
v 0.062634 0.096455 0.738712
vn 2.866060 -0.016358 5.591180
v 0.167648 -0.005571 0.738712
vn 1.805531 3.767317 2.281414
v 0.167654 0.096457 0.738707
vn -0.220155 5.979962 1.198610
v 0.062651 0.096457 0.738707
vn 2.931881 0.006802 5.557051
v 0.333089 0.008250 0.652605
vn 2.941363 0.031262 5.551901
v 0.333552 0.009411 0.652357
vn 3.788898 0.801875 4.595187
v 0.336961 0.011819 0.650529
vn 2.741293 5.653263 0.015958
v 0.167654 0.096456 0.738705
vn 0.865946 5.297185 -1.658589
v 0.167654 0.096457 0.637018
vn 4.362622 1.587136 3.668229
v 0.337887 0.012714 0.649349
vn 4.102660 2.321763 1.253372
v 0.337898 0.012722 0.649330
vn 4.514680 2.812032 0.055594
v 0.337898 0.012723 0.649319
vn 1.369257 5.145942 -2.103614
v 0.167654 0.096456 0.637018
vn -0.003450 4.680282 -4.191433
v 0.062658 0.096456 0.637018
vn -0.591843 4.878081 -2.451994
v 0.062651 0.096457 0.637018
vn 4.291387 2.855049 -0.332379
v 0.337898 0.012723 0.545321
vn 2.151557 1.529015 -2.226128
v 0.337898 0.012722 0.545318
vn -0.086992 2.499744 -5.241154
v 0.227044 0.012722 0.545318
vn 0.344386 -2.790551 5.392222
v 0.140369 -0.023498 0.746216
vn -0.849077 -0.579365 6.018299
v 0.039933 -0.021265 0.746796
vn -1.748855 -2.943832 3.420380
v 0.038723 -0.023498 0.746216
vn -1.116169 -4.823165 1.838999
v 0.193337 -0.126659 0.657819
vn 1.295249 -4.116370 2.439720
v 0.299895 -0.126659 0.657819
vn 2.474989 -3.028874 4.682243
v 0.301847 -0.124500 0.658235
vn 2.331091 -2.238361 5.281060
v 0.304021 -0.120803 0.659135
vn 3.186742 -2.941693 2.711812
v 0.330472 -0.104087 0.653013
vn 3.525288 -1.730863 4.247054
v 0.333089 -0.100743 0.652605
vn -3.426942 1.502873 2.049784
v 0.036808 0.079377 0.745642
vn -2.265843 0.214297 5.848575
v 0.039600 0.081166 0.746680
vn -3.699106 5.056090 0.334763
v 0.043205 0.084173 0.744016
vn -3.648367 1.649881 -1.954779
v 0.036808 0.079377 0.644975
vn -3.245554 -1.602823 2.015024
v 0.036808 -0.022451 0.745642
vn -2.072933 -0.220042 5.921160
v 0.039600 -0.021334 0.746680
vn -3.647002 5.081610 0.405324
v 0.043800 0.084618 0.743863
vn -3.581114 5.113830 0.485486
v 0.044420 0.085072 0.743704
vn -3.518676 5.139962 0.566074
v 0.045063 0.085536 0.743538
vn -3.458576 5.160782 0.647466
v 0.045725 0.086006 0.743366
vn -3.400299 5.176822 0.729166
v 0.046405 0.086482 0.743189
vn -3.343388 5.188488 0.810941
v 0.047100 0.086962 0.743007
vn -3.287211 5.196115 0.893024
v 0.047806 0.087444 0.742822
vn -3.231262 5.199923 0.975601
v 0.048520 0.087926 0.742633
vn -3.175165 5.200050 1.058634
v 0.049240 0.088408 0.742442
vn -3.118101 5.196488 1.142979
v 0.049962 0.088887 0.742249
vn -3.060134 5.189326 1.227865
v 0.050685 0.089362 0.742055
vn -3.000452 5.178376 1.314177
v 0.051405 0.089831 0.741861
vn -2.938898 5.163546 1.401610
v 0.052119 0.090293 0.741667
vn -2.875119 5.144677 1.490172
v 0.052824 0.090746 0.741474
vn -2.807597 5.120939 1.581638
v 0.053519 0.091188 0.741284
vn -2.691378 5.069893 1.731367
v 0.054201 0.091619 0.741096
vn -2.532699 5.089862 2.272460
v 0.054872 0.092036 0.740912
vn -2.585004 5.021825 1.860992
v 0.055520 0.092439 0.740731
vn -2.504219 4.977400 1.955129
v 0.056147 0.092826 0.740556
vn -2.418780 4.927266 2.049653
v 0.056752 0.093195 0.740386
vn -2.331654 4.873020 2.140631
v 0.057332 0.093547 0.740223
vn -2.238398 4.811059 2.232763
v 0.057887 0.093880 0.740066
vn -2.142666 4.744305 2.321191
v 0.058413 0.094194 0.739917
vn -2.046492 4.674845 2.403597
v 0.058911 0.094487 0.739775
vn -1.944090 4.597370 2.485282
v 0.059378 0.094759 0.739642
vn -1.844933 4.521385 2.557231
v 0.059814 0.095009 0.739517
vn -1.742297 4.440687 2.625362
v 0.060218 0.095238 0.739402
vn -1.636740 4.356222 2.688704
v 0.060589 0.095446 0.739295
vn -1.533961 4.275023 2.743093
v 0.060927 0.095631 0.739198
vn -3.775746 5.021526 -0.054803
v 0.043205 0.084173 0.643415
vn -3.807856 4.938909 -0.523256
v 0.043800 0.084618 0.643221
vn -3.791520 4.825794 -0.923679
v 0.044420 0.085072 0.643020
vn -3.751485 4.700653 -1.243320
v 0.045063 0.085536 0.642811
vn -3.700688 4.579424 -1.492201
v 0.045725 0.086006 0.642596
vn -3.647092 4.469005 -1.685651
v 0.046405 0.086482 0.642375
vn -3.596129 4.374828 -1.832581
v 0.047100 0.086962 0.642148
vn -3.548198 4.292189 -1.950008
v 0.047806 0.087444 0.641917
vn -3.505261 4.223309 -2.041330
v 0.048520 0.087926 0.641683
vn -3.467221 4.166313 -2.113038
v 0.049240 0.088408 0.641446
vn -3.432009 4.115486 -2.173896
v 0.049962 0.088887 0.641207
vn -3.400184 4.072028 -2.224102
v 0.050685 0.089362 0.640968
vn -3.370637 4.033250 -2.267439
v 0.051405 0.089831 0.640729
vn -3.343411 3.999320 -2.304447
v 0.052119 0.090293 0.640490
vn -3.315336 3.963309 -2.341811
v 0.052824 0.090746 0.640254
vn -3.289688 3.932862 -2.373030
v 0.053519 0.091188 0.640021
vn -3.211933 3.810957 -2.475149
v 0.054201 0.091619 0.639791
vn -3.223624 3.883586 -2.432549
v 0.055520 0.092439 0.639348
vn -3.168231 3.779469 -2.512226
v 0.056147 0.092826 0.639135
vn -3.134557 3.736625 -2.546982
v 0.056752 0.093195 0.638931
vn -3.095631 3.684932 -2.586265
v 0.057332 0.093547 0.638734
vn -3.054551 3.631368 -2.624963
v 0.057887 0.093880 0.638546
vn -3.008106 3.569910 -2.666479
v 0.058413 0.094194 0.638368
vn -2.956434 3.501747 -2.709380
v 0.058911 0.094487 0.638201
vn -2.901780 3.431878 -2.750446
v 0.059378 0.094759 0.638044
vn -2.837883 3.349125 -2.794723
v 0.059814 0.095009 0.637898
vn -2.806717 3.337116 -2.805283
v 0.060218 0.095238 0.637763
vn -2.782235 3.356298 -2.805278
v 0.060589 0.095446 0.637641
vn -2.753655 3.381684 -2.804742
v 0.060927 0.095631 0.637530
vn -2.720691 3.410315 -2.804155
v 0.061231 0.095796 0.637432
vn -2.682277 3.444348 -2.803241
v 0.061503 0.095939 0.637345
vn -2.637032 3.483976 -2.801797
v 0.061742 0.096062 0.637270
vn -2.582920 3.530835 -2.799772
v 0.061950 0.096165 0.637207
vn -2.517143 3.587018 -2.796601
v 0.062126 0.096250 0.637154
vn -2.434865 3.654907 -2.792073
v 0.062273 0.096318 0.637111
vn -2.328536 3.741600 -2.784486
v 0.062392 0.096370 0.637078
vn -2.188132 3.852795 -2.771295
v 0.062485 0.096407 0.637054
vn -1.993589 3.994071 -2.749799
v 0.062554 0.096432 0.637037
vn -1.705258 4.192319 -2.707340
v 0.062603 0.096447 0.637026
vn -1.253191 4.470968 -2.618448
v 0.062634 0.096455 0.637020
vn -1.294326 1.081032 -5.736802
v 0.225442 0.011819 0.545330
vn -3.727242 -1.677305 -1.818567
v 0.036808 -0.022451 0.644975
vn -2.592463 0.284932 -5.668616
v 0.193337 -0.021566 0.555477
vn -2.657284 0.844354 -5.630638
v 0.224778 0.011254 0.545552
vn -2.437470 0.640141 -5.742499
v 0.225128 0.011557 0.545433
vn -1.132322 2.207699 -5.672290
v 0.226930 0.012692 0.545322
vn -0.476406 1.957088 -5.541850
v 0.226998 0.012714 0.545318
vn -1.629718 -2.852488 -2.400113
v 0.193337 -0.126659 0.555477
vn 2.969391 -0.002009 5.537247
v 0.333552 -0.099915 0.652357
vn 4.010630 -1.671100 3.298916
v 0.336961 -0.097019 0.650529
vn 5.341703 -1.240995 1.829191
v 0.337887 -0.096031 0.649349
vn 5.752301 -0.644269 1.292598
v 0.337898 -0.095998 0.649330
vn 6.282850 -0.016050 0.034197
v 0.337898 -0.095979 0.649319
vn 0.099911 0.135077 -6.276036
v 0.337887 0.012714 0.545318
vn 3.203395 -0.500147 -2.832222
v 0.337898 -0.095998 0.545318
vn 2.885489 -1.196050 -3.007183
v 0.337887 -0.096031 0.545318
vn 6.278699 -0.013100 -0.159277
v 0.337898 -0.095979 0.545321
vn 2.195330 -5.474958 0.383838
v 0.300825 -0.126615 0.655203
vn 0.114505 -6.277715 -0.091324
v 0.299895 -0.126659 0.555477
vn 1.094459 -3.689420 -2.396722
v 0.300825 -0.126615 0.554386
vn 4.938576 -2.404149 1.548689
v 0.337675 -0.096475 0.649575
vn 2.320158 -3.401981 -2.774812
v 0.330472 -0.104087 0.547624
vn 3.870408 -2.980297 -2.260328
v 0.337675 -0.096475 0.545423
vn -0.348458 -3.625192 -3.205653
v 0.198877 -0.126615 0.554386
vn 1.679798 -2.235332 -4.564159
v 0.336961 -0.097019 0.545330
vn -0.709363 -0.686592 -6.028281
v 0.225442 -0.097019 0.545330
vn 2.963170 -2.093969 -4.430380
v 0.337859 -0.096080 0.545322
vn -0.016203 -0.030765 -6.282895
v 0.226998 -0.096031 0.545318
vn -2.019201 0.041427 -5.947420
v 0.194973 -0.022899 0.554880
vn -1.487147 -1.225935 -5.797927
v 0.194973 -0.126049 0.554880
# 161 vertices, 0 vertices normals

f 1//1 2//2 3//3
f 1//1 4//4 2//2
f 1//1 5//5 4//4
f 1//1 6//6 5//5
f 1//1 7//7 6//6
f 1//1 8//8 7//7
f 1//1 9//9 10//10
f 1//1 10//10 8//8
f 1//1 11//11 9//9
f 1//1 3//3 11//11
f 2//2 4//4 12//12
f 2//2 12//12 3//3
f 4//4 5//5 13//13
f 4//4 13//13 12//12
f 5//5 6//6 14//14
f 5//5 14//14 13//13
f 6//6 7//7 15//15
f 6//6 15//15 14//14
f 7//7 8//8 16//16
f 7//7 16//16 15//15
f 8//8 17//17 18//18
f 8//8 10//10 19//19
f 8//8 19//19 17//17
f 8//8 18//18 16//16
f 17//17 20//20 21//21
f 17//17 19//19 22//22
f 17//17 22//22 20//20
f 17//17 21//21 18//18
f 20//20 23//23 24//24
f 20//20 22//22 25//25
f 20//20 25//25 23//23
f 20//20 24//24 21//21
f 23//23 26//26 27//27
f 23//23 25//25 28//28
f 23//23 28//28 26//26
f 23//23 27//27 24//24
f 26//26 29//29 30//30
f 26//26 28//28 31//31
f 26//26 31//31 29//29
f 26//26 30//30 27//27
f 29//29 32//32 33//33
f 29//29 31//31 34//34
f 29//29 33//33 30//30
f 29//29 34//34 35//35
f 29//29 35//35 36//36
f 29//29 36//36 32//32
f 32//32 37//37 38//38
f 32//32 38//38 33//33
f 32//32 36//36 39//39
f 32//32 39//39 40//40
f 32//32 40//40 41//41
f 32//32 41//41 37//37
f 37//37 42//42 38//38
f 37//37 41//41 42//42
f 38//38 42//42 43//43
f 38//38 44//44 33//33
f 38//38 43//43 44//44
f 42//42 41//41 45//45
f 42//42 46//46 47//47
f 42//42 45//45 46//46
f 42//42 47//47 43//43
f 48//48 9//9 49//49
f 48//48 50//50 51//51
f 48//48 49//49 50//50
f 48//48 52//52 9//9
f 48//48 51//51 52//52
f 9//9 11//11 49//49
f 9//9 52//52 53//53
f 9//9 53//53 54//54
f 9//9 54//54 55//55
f 9//9 55//55 56//56
f 9//9 56//56 10//10
f 10//10 56//56 19//19
f 19//19 56//56 22//22
f 22//22 56//56 25//25
f 25//25 56//56 28//28
f 28//28 56//56 31//31
f 31//31 56//56 34//34
f 57//57 58//58 11//11
f 57//57 11//11 59//59
f 57//57 59//59 60//60
f 57//57 60//60 61//61
f 57//57 61//61 62//62
f 57//57 62//62 58//58
f 58//58 62//62 49//49
f 58//58 49//49 11//11
f 11//11 63//63 59//59
f 11//11 64//64 63//63
f 11//11 65//65 64//64
f 11//11 66//66 65//65
f 11//11 67//67 66//66
f 11//11 68//68 67//67
f 11//11 69//69 68//68
f 11//11 70//70 69//69
f 11//11 71//71 70//70
f 11//11 72//72 71//71
f 11//11 73//73 72//72
f 11//11 74//74 73//73
f 11//11 75//75 74//74
f 11//11 76//76 75//75
f 11//11 77//77 76//76
f 11//11 78//78 77//77
f 11//11 79//79 78//78
f 11//11 80//80 79//79
f 11//11 81//81 80//80
f 11//11 82//82 81//81
f 11//11 83//83 82//82
f 11//11 84//84 83//83
f 11//11 85//85 84//84
f 11//11 86//86 85//85
f 11//11 87//87 86//86
f 11//11 88//88 87//87
f 11//11 89//89 88//88
f 11//11 90//90 89//89
f 11//11 91//91 90//90
f 11//11 3//3 91//91
f 59//59 63//63 92//92
f 59//59 92//92 60//60
f 63//63 64//64 93//93
f 63//63 93//93 92//92
f 64//64 65//65 94//94
f 64//64 94//94 93//93
f 65//65 66//66 95//95
f 65//65 95//95 94//94
f 66//66 67//67 96//96
f 66//66 96//96 95//95
f 67//67 68//68 97//97
f 67//67 97//97 96//96
f 68//68 69//69 98//98
f 68//68 98//98 97//97
f 69//69 70//70 99//99
f 69//69 99//99 98//98
f 70//70 71//71 100//100
f 70//70 100//100 99//99
f 71//71 72//72 101//101
f 71//71 101//101 100//100
f 72//72 73//73 102//102
f 72//72 102//102 101//101
f 73//73 74//74 103//103
f 73//73 103//103 102//102
f 74//74 75//75 104//104
f 74//74 104//104 103//103
f 75//75 76//76 105//105
f 75//75 105//105 104//104
f 76//76 77//77 106//106
f 76//76 106//106 105//105
f 77//77 78//78 107//107
f 77//77 107//107 106//106
f 78//78 79//79 80//80
f 78//78 80//80 108//108
f 78//78 108//108 107//107
f 80//80 81//81 109//109
f 80//80 109//109 108//108
f 81//81 82//82 110//110
f 81//81 110//110 109//109
f 82//82 83//83 111//111
f 82//82 111//111 110//110
f 83//83 84//84 112//112
f 83//83 112//112 111//111
f 84//84 85//85 113//113
f 84//84 113//113 112//112
f 85//85 86//86 114//114
f 85//85 114//114 113//113
f 86//86 87//87 115//115
f 86//86 115//115 114//114
f 87//87 88//88 116//116
f 87//87 116//116 115//115
f 88//88 89//89 117//117
f 88//88 117//117 116//116
f 89//89 90//90 118//118
f 89//89 118//118 117//117
f 90//90 91//91 119//119
f 90//90 119//119 118//118
f 91//91 3//3 120//120
f 91//91 120//120 119//119
f 3//3 12//12 121//121
f 3//3 121//121 120//120
f 12//12 13//13 122//122
f 12//12 122//122 121//121
f 13//13 14//14 123//123
f 13//13 123//123 122//122
f 14//14 15//15 124//124
f 14//14 124//124 123//123
f 15//15 16//16 125//125
f 15//15 125//125 124//124
f 16//16 18//18 126//126
f 16//16 126//126 125//125
f 18//18 21//21 127//127
f 18//18 127//127 126//126
f 21//21 24//24 128//128
f 21//21 128//128 127//127
f 24//24 27//27 129//129
f 24//24 129//129 128//128
f 27//27 30//30 130//130
f 27//27 130//130 129//129
f 30//30 33//33 131//131
f 30//30 131//131 130//130
f 33//33 44//44 131//131
f 60//60 92//92 93//93
f 60//60 93//93 94//94
f 60//60 94//94 95//95
f 60//60 95//95 96//96
f 60//60 96//96 97//97
f 60//60 97//97 98//98
f 60//60 98//98 99//99
f 60//60 99//99 100//100
f 60//60 100//100 101//101
f 60//60 101//101 102//102
f 60//60 102//102 103//103
f 60//60 103//103 104//104
f 60//60 104//104 105//105
f 60//60 105//105 106//106
f 60//60 106//106 107//107
f 60//60 107//107 108//108
f 60//60 108//108 110//110
f 60//60 110//110 111//111
f 60//60 111//111 112//112
f 60//60 112//112 113//113
f 60//60 113//113 114//114
f 60//60 114//114 115//115
f 60//60 115//115 116//116
f 60//60 116//116 117//117
f 60//60 117//117 118//118
f 60//60 118//118 132//132
f 60//60 133//133 61//61
f 60//60 134//134 133//133
f 60//60 135//135 134//134
f 60//60 136//136 135//135
f 60//60 132//132 136//136
f 108//108 109//109 110//110
f 118//118 119//119 132//132
f 119//119 120//120 132//132
f 120//120 121//121 132//132
f 121//121 122//122 132//132
f 122//122 123//123 132//132
f 123//123 124//124 132//132
f 124//124 125//125 132//132
f 125//125 126//126 132//132
f 126//126 127//127 132//132
f 127//127 128//128 132//132
f 128//128 129//129 132//132
f 129//129 130//130 132//132
f 130//130 131//131 137//137
f 130//130 137//137 132//132
f 131//131 44//44 138//138
f 131//131 138//138 137//137
f 44//44 43//43 47//47
f 44//44 47//47 138//138
f 61//61 50//50 62//62
f 61//61 133//133 51//51
f 61//61 51//51 50//50
f 50//50 49//49 62//62
f 133//133 134//134 139//139
f 133//133 139//139 51//51
f 34//34 56//56 140//140
f 34//34 140//140 35//35
f 35//35 140//140 141//141
f 35//35 141//141 36//36
f 36//36 141//141 142//142
f 36//36 142//142 39//39
f 39//39 142//142 143//143
f 39//39 143//143 40//40
f 40//40 143//143 144//144
f 40//40 144//144 41//41
f 41//41 144//144 45//45
f 145//145 46//46 146//146
f 145//145 147//147 138//138
f 145//145 146//146 147//147
f 145//145 138//138 47//47
f 145//145 47//47 46//46
f 46//46 45//45 148//148
f 46//46 148//148 146//146
f 45//45 144//144 148//148
f 149//149 52//52 150//150
f 149//149 55//55 52//52
f 149//149 151//151 55//55
f 149//149 150//150 151//151
f 52//52 55//55 53//53
f 52//52 51//51 150//150
f 53//53 55//55 54//54
f 55//55 141//141 56//56
f 55//55 152//152 141//141
f 55//55 151//151 153//153
f 55//55 153//153 152//152
f 56//56 141//141 140//140
f 141//141 152//152 142//142
f 152//152 153//153 154//154
f 152//152 154//154 142//142
f 142//142 154//154 147//147
f 142//142 147//147 143//143
f 143//143 147//147 146//146
f 143//143 146//146 144//144
f 144//144 146//146 148//148
f 151//151 150//150 155//155
f 151//151 156//156 153//153
f 151//151 155//155 157//157
f 151//151 157//157 156//156
f 150//150 51//51 139//139
f 150//150 139//139 155//155
f 153//153 156//156 154//154
f 156//156 158//158 154//154
f 156//156 147//147 158//158
f 156//156 157//157 159//159
f 156//156 159//159 147//147
f 154//154 158//158 147//147
f 147//147 159//159 138//138
f 160//160 134//134 132//132
f 160//160 132//132 157//157
f 160//160 161//161 139//139
f 160//160 139//139 134//134
f 160//160 157//157 161//161
f 134//134 135//135 136//136
f 134//134 136//136 132//132
f 132//132 137//137 138//138
f 132//132 138//138 159//159
f 132//132 159//159 157//157
f 155//155 161//161 157//157
f 155//155 139//139 161//161
# 318 faces, 0 coords texture

# End of File
