####
#
# OBJ File Generated by Meshlab
#
####
# Object step_51_link_5.obj
#
# Vertices: 85
# Faces: 166
#
####
vn 2.901809 0.174313 4.179963
v 0.080371 0.208766 0.723615
vn 2.343659 1.545553 3.889077
v 0.080052 0.212974 0.723365
vn -0.203732 0.130747 6.268595
v -0.020059 0.208766 0.723615
vn 1.525300 -1.871750 1.894212
v 0.080371 0.108057 0.723615
vn 5.836043 -1.049044 0.746466
v 0.138013 0.229180 0.564474
vn 4.788850 1.708239 1.912857
v 0.138013 0.330676 0.564474
vn 0.605963 3.983094 4.596838
v 0.073783 0.216010 0.722063
vn 0.153817 3.908923 4.707590
v 0.071834 0.216075 0.722132
vn 0.064725 3.775130 4.781641
v 0.071760 0.216072 0.722136
vn 0.009949 2.953011 5.499389
v 0.071693 0.216066 0.722140
vn 0.000293 2.332396 5.834206
v 0.071632 0.216059 0.722143
vn -0.399169 1.047290 6.028292
v -0.023134 0.212974 0.723365
vn 3.646179 3.339043 1.450082
v 0.137294 0.333468 0.562516
vn 1.699124 5.135341 1.692914
v 0.127379 0.339070 0.561096
vn 0.265284 4.249691 4.515541
v 0.071913 0.216077 0.722126
vn 1.092517 5.196596 3.213686
v 0.123509 0.339498 0.561773
vn 0.668306 5.476827 2.008952
v 0.123432 0.339509 0.561779
vn 0.234882 5.561975 1.920058
v 0.123364 0.339514 0.561780
vn -0.066869 4.311083 4.456114
v -0.029743 0.216072 0.722136
vn -0.172156 5.591921 1.920325
v 0.018349 0.339514 0.561780
vn -0.194613 3.712313 4.755339
v -0.029800 0.216066 0.722140
vn -0.405092 3.579935 4.764274
v -0.029850 0.216059 0.722143
vn 2.234841 -4.133673 -1.066117
v 0.080371 0.108057 0.623356
vn -0.506426 -2.999966 2.891782
v -0.020059 0.108057 0.723615
vn -0.478467 -5.626644 -1.611103
v -0.020059 0.108057 0.623356
vn -1.129759 -2.516326 -4.433135
v 0.020680 0.226674 0.456431
vn 5.900004 -1.277431 -0.378249
v 0.138013 0.229180 0.463495
vn 3.746896 -2.324525 -2.198655
v 0.137294 0.228041 0.459407
vn 0.730944 -2.705620 -4.555039
v 0.128270 0.226674 0.456431
vn -0.865477 -0.183607 6.205346
v -0.023134 0.111541 0.723365
vn -0.674472 3.437217 4.744372
v -0.029892 0.216051 0.722145
vn -0.989418 3.278090 4.689879
v -0.029927 0.216042 0.722146
vn -1.378753 3.059681 4.578157
v -0.029956 0.216032 0.722146
vn -1.838892 2.790224 4.388974
v -0.029978 0.216021 0.722145
vn -2.367236 2.395155 4.078375
v -0.029995 0.216010 0.722144
vn -2.929765 1.919920 3.627754
v -0.030007 0.215999 0.722143
vn -1.787167 -1.796634 5.319188
v -0.030007 0.111326 0.722143
vn -1.238964 5.344702 1.690743
v 0.018323 0.339513 0.561778
vn -3.357342 4.562602 1.069999
v 0.018307 0.339507 0.561772
vn -3.576305 1.375842 3.037930
v -0.030015 0.215989 0.722141
vn -4.460043 0.860103 2.549522
v -0.030018 0.215980 0.722139
vn -2.810969 -2.299717 2.902837
v -0.030015 0.111328 0.722141
vn -5.285974 3.175136 0.294879
v 0.018299 0.339498 0.561765
vn -5.826630 0.266246 1.452425
v -0.030020 0.215971 0.722137
vn -3.977646 -1.653008 2.274224
v -0.030018 0.111332 0.722139
vn -5.993188 1.233858 -0.613572
v -0.030018 0.215980 0.620659
vn -6.127551 0.314668 -0.763737
v -0.030020 0.215971 0.620662
vn -5.778401 -0.500674 1.354935
v -0.030020 0.111337 0.722137
vn -5.429892 2.182123 -0.800305
v 0.018299 0.339498 0.457179
vn -3.205899 0.924957 -3.717715
v 0.018342 0.339083 0.456889
vn -6.039910 -0.618920 -0.780710
v -0.030020 0.111337 0.620662
vn -3.563974 -0.913589 -3.664998
v 0.018342 0.228626 0.456889
vn -2.162651 -4.234704 2.231296
v -0.028466 0.110128 0.721991
vn -1.964191 -4.832503 -1.800472
v -0.028466 0.110128 0.620832
vn -5.029302 -2.340495 -1.193707
v -0.030018 0.111332 0.620659
vn -3.868130 -3.775231 -1.938161
v -0.030015 0.111328 0.620656
vn -2.896955 -4.189640 -3.673551
v -0.030007 0.111326 0.620653
vn 6.148474 0.630491 -0.374620
v 0.138013 0.330676 0.463495
vn 4.125816 2.492280 -1.392502
v 0.137294 0.333468 0.459407
vn 1.302652 4.797296 -2.073178
v 0.127379 0.339070 0.456852
vn 0.294805 5.966715 -1.304146
v 0.123432 0.339509 0.457087
vn 0.138627 6.215851 -0.551603
v 0.123364 0.339514 0.457112
vn 5.004057 0.265418 -3.492756
v 0.137072 0.332583 0.458863
vn 2.976271 1.586281 -4.395750
v 0.136479 0.333226 0.458311
vn 1.518758 2.568848 -3.873013
v 0.128161 0.338423 0.456376
vn 4.995147 -0.228611 -3.513137
v 0.137072 0.229302 0.458863
vn 2.659208 -1.513454 -4.726183
v 0.136479 0.228851 0.458311
vn 1.261021 0.426923 -6.049683
v 0.129455 0.336370 0.456451
vn 1.134556 -0.493139 -6.072207
v 0.129455 0.228170 0.456451
vn 0.169964 -0.082681 -6.275739
v 0.128161 0.228505 0.456376
vn 0.202785 4.241730 -4.453708
v 0.125726 0.339194 0.456855
vn 0.018394 3.412572 -5.274027
v 0.123792 0.339413 0.456989
vn -0.524441 1.403554 -5.737965
v 0.020223 0.338423 0.456376
vn 0.228082 4.899216 -3.728915
v 0.123595 0.339478 0.457037
vn 0.307412 5.567197 -2.418188
v 0.123509 0.339498 0.457062
vn 0.119369 4.037447 -4.747100
v 0.123689 0.339450 0.457013
vn -0.096813 3.251646 -5.369910
v 0.018673 0.339413 0.456989
vn -0.385660 3.277616 -5.227842
v 0.018579 0.339450 0.457013
vn -0.569415 3.692128 -4.766259
v 0.018501 0.339478 0.457037
vn -0.856703 4.073957 -4.093248
v 0.018437 0.339498 0.457062
vn -1.243417 4.265482 -3.233817
v 0.018387 0.339509 0.457087
vn -1.756243 4.172671 -2.346835
v 0.018349 0.339514 0.457112
vn -0.893897 -0.217516 -6.136104
v 0.020223 0.228505 0.456376
vn -2.547216 3.856290 -1.789097
v 0.018323 0.339513 0.457136
vn -3.909491 3.232804 -1.207642
v 0.018307 0.339507 0.457158
# 85 vertices, 0 vertices normals

f 1//1 2//2 3//3
f 1//1 4//4 5//5
f 1//1 3//3 4//4
f 1//1 6//6 2//2
f 1//1 5//5 6//6
f 2//2 7//7 8//8
f 2//2 8//8 9//9
f 2//2 9//9 10//10
f 2//2 10//10 11//11
f 2//2 11//11 12//12
f 2//2 12//12 3//3
f 2//2 6//6 13//13
f 2//2 13//13 14//14
f 2//2 14//14 7//7
f 7//7 15//15 8//8
f 7//7 14//14 16//16
f 7//7 16//16 17//17
f 7//7 17//17 18//18
f 7//7 18//18 15//15
f 15//15 18//18 8//8
f 8//8 18//18 9//9
f 9//9 19//19 10//10
f 9//9 18//18 20//20
f 9//9 20//20 19//19
f 10//10 19//19 21//21
f 10//10 21//21 11//11
f 11//11 21//21 22//22
f 11//11 22//22 12//12
f 4//4 23//23 5//5
f 4//4 3//3 24//24
f 4//4 24//24 23//23
f 23//23 24//24 25//25
f 23//23 25//25 26//26
f 23//23 27//27 5//5
f 23//23 28//28 27//27
f 23//23 29//29 28//28
f 23//23 26//26 29//29
f 3//3 12//12 30//30
f 3//3 30//30 24//24
f 12//12 22//22 31//31
f 12//12 31//31 32//32
f 12//12 32//32 33//33
f 12//12 33//33 34//34
f 12//12 34//34 35//35
f 12//12 35//35 36//36
f 12//12 36//36 37//37
f 12//12 37//37 30//30
f 19//19 20//20 21//21
f 21//21 20//20 22//22
f 22//22 20//20 38//38
f 22//22 38//38 31//31
f 31//31 38//38 32//32
f 32//32 38//38 33//33
f 33//33 38//38 34//34
f 34//34 38//38 39//39
f 34//34 39//39 35//35
f 35//35 39//39 36//36
f 36//36 40//40 37//37
f 36//36 39//39 40//40
f 40//40 41//41 42//42
f 40//40 42//42 37//37
f 40//40 39//39 43//43
f 40//40 43//43 41//41
f 41//41 44//44 45//45
f 41//41 46//46 47//47
f 41//41 47//47 44//44
f 41//41 45//45 42//42
f 41//41 43//43 46//46
f 44//44 47//47 48//48
f 44//44 48//48 45//45
f 46//46 43//43 49//49
f 46//46 50//50 47//47
f 46//46 49//49 50//50
f 47//47 51//51 48//48
f 47//47 50//50 52//52
f 47//47 52//52 51//51
f 24//24 30//30 37//37
f 24//24 53//53 25//25
f 24//24 37//37 53//53
f 53//53 37//37 42//42
f 53//53 42//42 54//54
f 53//53 54//54 25//25
f 42//42 45//45 55//55
f 42//42 56//56 54//54
f 42//42 55//55 56//56
f 45//45 48//48 51//51
f 45//45 51//51 55//55
f 25//25 54//54 26//26
f 54//54 57//57 26//26
f 54//54 56//56 57//57
f 57//57 56//56 26//26
f 56//56 55//55 52//52
f 56//56 52//52 26//26
f 55//55 51//51 52//52
f 6//6 58//58 13//13
f 6//6 5//5 58//58
f 13//13 58//58 59//59
f 13//13 59//59 14//14
f 14//14 17//17 16//16
f 14//14 59//59 60//60
f 14//14 60//60 61//61
f 14//14 61//61 17//17
f 17//17 61//61 62//62
f 17//17 62//62 18//18
f 18//18 62//62 20//20
f 58//58 5//5 27//27
f 58//58 27//27 28//28
f 58//58 28//28 59//59
f 59//59 63//63 64//64
f 59//59 64//64 65//65
f 59//59 65//65 60//60
f 59//59 28//28 66//66
f 59//59 66//66 63//63
f 63//63 66//66 67//67
f 63//63 67//67 64//64
f 64//64 68//68 65//65
f 64//64 67//67 69//69
f 64//64 69//69 68//68
f 68//68 69//69 70//70
f 68//68 70//70 65//65
f 65//65 71//71 60//60
f 65//65 72//72 71//71
f 65//65 70//70 73//73
f 65//65 73//73 72//72
f 60//60 71//71 74//74
f 60//60 74//74 75//75
f 60//60 75//75 61//61
f 71//71 72//72 76//76
f 71//71 76//76 74//74
f 72//72 73//73 77//77
f 72//72 77//77 76//76
f 76//76 77//77 78//78
f 76//76 78//78 74//74
f 74//74 78//78 79//79
f 74//74 79//79 75//75
f 75//75 79//79 80//80
f 75//75 80//80 61//61
f 61//61 80//80 81//81
f 61//61 81//81 62//62
f 62//62 81//81 82//82
f 62//62 82//82 20//20
f 28//28 67//67 66//66
f 28//28 29//29 67//67
f 67//67 29//29 69//69
f 69//69 29//29 70//70
f 29//29 26//26 70//70
f 70//70 26//26 83//83
f 70//70 83//83 73//73
f 20//20 82//82 84//84
f 20//20 84//84 38//38
f 38//38 84//84 85//85
f 38//38 85//85 39//39
f 39//39 85//85 49//49
f 39//39 49//49 43//43
f 73//73 50//50 78//78
f 73//73 78//78 77//77
f 73//73 83//83 52//52
f 73//73 52//52 50//50
f 50//50 79//79 78//78
f 50//50 80//80 79//79
f 50//50 81//81 80//80
f 50//50 82//82 81//81
f 50//50 84//84 82//82
f 50//50 85//85 84//84
f 50//50 49//49 85//85
f 26//26 52//52 83//83
# 166 faces, 0 coords texture

# End of File
