####
#
# OBJ File Generated by Meshlab
#
####
# Object step_10_link_4.obj
#
# Vertices: 83
# Faces: 162
#
####
vn 3.939978 0.653709 -4.321698
v 0.160574 0.044295 0.414107
vn 1.488610 1.074507 -5.521211
v 0.160093 0.044618 0.413887
vn 1.510031 3.178753 -2.732075
v 0.160114 0.046730 0.414646
vn 2.895762 3.174750 -0.858943
v 0.272171 0.061110 0.592507
vn 3.146690 -2.194502 -3.122780
v 0.160574 -0.056508 0.414107
vn 1.069413 -2.595323 -3.592008
v 0.160093 -0.056666 0.413887
vn 5.615100 0.592104 -1.698346
v 0.273013 0.055977 0.591706
vn 4.192863 -2.264437 -1.199617
v 0.273013 -0.045670 0.591706
vn -0.720135 0.801884 -5.971574
v 0.059608 0.044618 0.413887
vn -1.546054 3.019195 -2.334567
v 0.057530 0.046730 0.414646
vn -0.337141 6.248937 -0.170904
v 0.166909 0.061110 0.592507
vn 0.241931 -6.265283 0.126195
v 0.160080 -0.056824 0.514463
vn 1.106744 -5.776052 -1.115597
v 0.160080 -0.056824 0.414358
vn 2.032183 -5.698198 -0.356428
v 0.272076 -0.046267 0.592252
vn -1.419415 -5.891761 0.254904
v 0.059884 -0.056824 0.514463
vn 1.573693 -5.691170 0.612705
v 0.272076 -0.046267 0.692469
vn -0.306112 -6.167086 0.904571
v 0.171682 -0.046267 0.692469
vn -1.192916 -5.792058 -0.683619
v 0.059884 -0.056824 0.414358
vn -1.231752 -2.666552 -3.004987
v 0.059608 -0.056666 0.413887
vn -2.845768 4.910911 0.675806
v 0.057530 0.046730 0.515137
vn -4.939424 2.072177 1.315782
v 0.057207 0.046371 0.515184
vn -2.433327 1.583563 3.834528
v 0.166265 0.060437 0.694275
vn -3.437837 1.410636 -2.408895
v 0.057207 0.046371 0.414683
vn -0.906436 3.519409 2.703370
v 0.166909 0.061110 0.694124
vn -5.779202 0.255309 1.598835
v 0.057157 0.045822 0.515182
vn -4.568856 0.187594 4.095293
v 0.166165 0.059347 0.694283
vn -5.964834 0.215915 -1.268757
v 0.057157 0.045822 0.414704
vn -5.770355 -0.277227 1.601817
v 0.057157 -0.054465 0.515182
vn -4.575056 -0.156961 4.096179
v 0.166165 -0.041907 0.694283
vn -2.029986 0.013229 -5.945731
v 0.057181 0.045824 0.414690
vn -2.048063 -0.016382 -5.939399
v 0.057181 -0.054500 0.414690
vn -2.355218 0.023883 -5.817626
v 0.057172 0.045825 0.414693
vn -3.005592 0.053637 -5.496714
v 0.057165 0.045825 0.414696
vn -3.931525 0.108296 -4.841114
v 0.057160 0.045824 0.414699
vn -5.095432 0.197228 -3.442398
v 0.057158 0.045823 0.414701
vn -2.392508 -0.036073 -5.800476
v 0.057172 -0.054491 0.414693
vn -3.088477 -0.078571 -5.442072
v 0.057165 -0.054483 0.414696
vn -4.077742 -0.151604 -4.682676
v 0.057160 -0.054476 0.414699
vn -5.224459 -0.254133 -3.082229
v 0.057158 -0.054470 0.414701
vn -5.973630 -0.195095 -1.241283
v 0.057157 -0.054465 0.414704
vn -2.231353 -5.624504 1.048713
v 0.059608 -0.056666 0.515039
vn -3.947686 -3.846573 1.206233
v 0.057530 -0.055579 0.515137
vn -3.252803 -2.783768 -2.241740
v 0.057530 -0.055579 0.414646
vn -0.599808 -3.839908 3.353610
v 0.171071 -0.046000 0.693616
vn -1.804738 -2.766804 3.739256
v 0.166909 -0.044082 0.694124
vn -5.303446 -1.616626 1.521898
v 0.057207 -0.054969 0.515184
vn -3.897948 -1.005508 -2.603414
v 0.057207 -0.054969 0.414683
vn -2.585565 -1.078794 4.370485
v 0.166265 -0.042906 0.694275
vn -5.381181 -0.511856 3.201083
v 0.057158 -0.054470 0.515183
vn -2.953052 -5.543930 -0.148341
v 0.059300 -0.056508 0.414107
vn 5.511526 0.285102 1.873562
v 0.273013 0.055977 0.693156
vn 1.770916 2.108630 1.699208
v 0.272171 0.061110 0.694124
vn 4.842097 0.046139 3.999870
v 0.272119 0.060274 0.694208
vn 4.725046 -0.044538 4.139933
v 0.272119 -0.043026 0.694208
vn 3.641229 -2.065952 1.704629
v 0.273013 -0.045670 0.693156
vn 4.632147 0.057499 4.231761
v 0.272106 0.060312 0.694224
vn 4.327717 0.088324 4.537683
v 0.272091 0.060345 0.694238
vn 3.982685 0.127034 4.835999
v 0.272077 0.060374 0.694250
vn 3.587815 0.176263 5.126579
v 0.272063 0.060399 0.694260
vn 3.152194 0.236630 5.395610
v 0.272049 0.060420 0.694268
vn 1.416741 0.588066 5.778852
v 0.272035 0.060437 0.694275
vn 4.506593 -0.076932 4.364394
v 0.272106 -0.043004 0.694224
vn 4.132379 -0.110647 4.715218
v 0.272091 -0.042982 0.694238
vn 3.700504 -0.150483 5.053432
v 0.272077 -0.042961 0.694250
vn 3.202594 -0.196040 5.373076
v 0.272063 -0.042942 0.694260
vn 2.657525 -0.244209 5.652747
v 0.272049 -0.042923 0.694268
vn 1.239800 -0.276737 5.960817
v 0.272035 -0.042906 0.694275
vn 1.878817 0.001443 5.988678
v 0.272022 0.059342 0.694280
vn 1.315302 0.007069 6.136706
v 0.272009 0.059347 0.694283
vn 0.741760 0.016590 6.232066
v 0.271997 0.059350 0.694285
vn 0.226254 0.027781 6.274153
v 0.271986 0.059351 0.694286
vn 1.296680 -0.011868 6.139902
v 0.272009 -0.041973 0.694283
vn 1.872873 -0.003737 5.990237
v 0.272022 -0.041992 0.694280
vn 0.707373 -0.023650 6.234748
v 0.271997 -0.041956 0.694285
vn 0.218121 -0.023696 6.274657
v 0.271986 -0.041940 0.694286
vn -0.065643 0.035318 6.282093
v 0.166181 0.059351 0.694286
vn 1.137755 -3.384884 3.321806
v 0.272046 -0.046000 0.693616
vn 2.209466 -0.762394 5.156413
v 0.272171 -0.044082 0.694124
vn -0.125011 -0.057383 6.279831
v 0.166181 -0.041940 0.694286
vn -0.662964 0.067719 6.222156
v 0.166172 0.059351 0.694286
vn -2.565313 0.183868 5.500506
v 0.166167 0.059349 0.694285
vn -0.865661 -0.105558 6.176194
v 0.166172 -0.041927 0.694286
vn -3.104553 -0.263240 4.926828
v 0.166167 -0.041916 0.694285
# 83 vertices, 0 vertices normals

f 1//1 2//2 3//3
f 1//1 3//3 4//4
f 1//1 5//5 6//6
f 1//1 6//6 2//2
f 1//1 7//7 8//8
f 1//1 4//4 7//7
f 1//1 8//8 5//5
f 2//2 6//6 9//9
f 2//2 9//9 3//3
f 3//3 9//9 10//10
f 3//3 10//10 11//11
f 3//3 11//11 4//4
f 12//12 13//13 14//14
f 12//12 15//15 13//13
f 12//12 16//16 17//17
f 12//12 14//14 16//16
f 12//12 17//17 15//15
f 13//13 5//5 8//8
f 13//13 6//6 5//5
f 13//13 15//15 18//18
f 13//13 18//18 6//6
f 13//13 8//8 14//14
f 6//6 18//18 19//19
f 6//6 19//19 9//9
f 20//20 21//21 22//22
f 20//20 10//10 23//23
f 20//20 23//23 21//21
f 20//20 24//24 11//11
f 20//20 22//22 24//24
f 20//20 11//11 10//10
f 21//21 25//25 26//26
f 21//21 23//23 27//27
f 21//21 27//27 25//25
f 21//21 26//26 22//22
f 25//25 27//27 28//28
f 25//25 28//28 29//29
f 25//25 29//29 26//26
f 9//9 23//23 10//10
f 9//9 30//30 23//23
f 9//9 19//19 31//31
f 9//9 31//31 30//30
f 23//23 30//30 32//32
f 23//23 32//32 33//33
f 23//23 33//33 34//34
f 23//23 34//34 35//35
f 23//23 35//35 27//27
f 30//30 31//31 36//36
f 30//30 36//36 32//32
f 32//32 36//36 37//37
f 32//32 37//37 33//33
f 33//33 37//37 38//38
f 33//33 38//38 34//34
f 34//34 38//38 39//39
f 34//34 39//39 35//35
f 35//35 39//39 40//40
f 35//35 40//40 27//27
f 27//27 40//40 28//28
f 15//15 41//41 42//42
f 15//15 42//42 43//43
f 15//15 43//43 18//18
f 15//15 17//17 44//44
f 15//15 44//44 41//41
f 41//41 44//44 45//45
f 41//41 45//45 42//42
f 42//42 46//46 47//47
f 42//42 47//47 43//43
f 42//42 45//45 48//48
f 42//42 48//48 46//46
f 46//46 49//49 28//28
f 46//46 28//28 40//40
f 46//46 40//40 47//47
f 46//46 48//48 29//29
f 46//46 29//29 49//49
f 49//49 29//29 28//28
f 18//18 50//50 19//19
f 18//18 43//43 50//50
f 50//50 43//43 19//19
f 19//19 43//43 47//47
f 19//19 47//47 31//31
f 47//47 36//36 31//31
f 47//47 37//37 36//36
f 47//47 38//38 37//37
f 47//47 39//39 38//38
f 47//47 40//40 39//39
f 51//51 52//52 53//53
f 51//51 53//53 54//54
f 51//51 7//7 4//4
f 51//51 4//4 52//52
f 51//51 55//55 7//7
f 51//51 54//54 55//55
f 52//52 56//56 53//53
f 52//52 57//57 56//56
f 52//52 58//58 57//57
f 52//52 59//59 58//58
f 52//52 60//60 59//59
f 52//52 61//61 60//60
f 52//52 4//4 24//24
f 52//52 24//24 61//61
f 53//53 56//56 62//62
f 53//53 62//62 54//54
f 56//56 57//57 63//63
f 56//56 63//63 62//62
f 57//57 58//58 64//64
f 57//57 64//64 63//63
f 58//58 59//59 65//65
f 58//58 65//65 64//64
f 59//59 60//60 66//66
f 59//59 66//66 65//65
f 60//60 61//61 67//67
f 60//60 67//67 66//66
f 61//61 68//68 67//67
f 61//61 69//69 68//68
f 61//61 70//70 69//69
f 61//61 71//71 70//70
f 61//61 24//24 22//22
f 61//61 22//22 71//71
f 68//68 69//69 72//72
f 68//68 73//73 67//67
f 68//68 72//72 73//73
f 69//69 70//70 74//74
f 69//69 74//74 72//72
f 70//70 71//71 75//75
f 70//70 75//75 74//74
f 71//71 22//22 76//76
f 71//71 76//76 75//75
f 7//7 55//55 8//8
f 4//4 11//11 24//24
f 16//16 55//55 77//77
f 16//16 77//77 17//17
f 16//16 14//14 8//8
f 16//16 8//8 55//55
f 55//55 78//78 77//77
f 55//55 54//54 62//62
f 55//55 62//62 78//78
f 77//77 78//78 44//44
f 77//77 44//44 17//17
f 78//78 62//62 63//63
f 78//78 63//63 64//64
f 78//78 64//64 65//65
f 78//78 65//65 66//66
f 78//78 66//66 67//67
f 78//78 67//67 45//45
f 78//78 45//45 44//44
f 67//67 73//73 72//72
f 67//67 72//72 74//74
f 67//67 74//74 75//75
f 67//67 75//75 48//48
f 67//67 48//48 45//45
f 75//75 76//76 79//79
f 75//75 79//79 48//48
f 22//22 80//80 76//76
f 22//22 81//81 80//80
f 22//22 26//26 81//81
f 76//76 80//80 82//82
f 76//76 82//82 79//79
f 80//80 81//81 83//83
f 80//80 83//83 82//82
f 81//81 26//26 29//29
f 81//81 29//29 83//83
f 48//48 79//79 82//82
f 48//48 82//82 83//83
f 48//48 83//83 29//29
# 162 faces, 0 coords texture

# End of File
