####
#
# OBJ File Generated by Meshlab
#
####
# Object step_4_link_5.obj
#
# Vertices: 94
# Faces: 184
#
####
vn 3.448140 0.004146 5.241620
v 0.281091 0.012881 0.686264
vn 1.935987 0.133607 5.600626
v 0.281090 0.012926 0.686264
vn 1.576035 -0.010956 5.855196
v 0.281090 -0.089121 0.686264
vn 1.853407 -0.073716 5.665698
v 0.281091 -0.089182 0.686264
vn 4.290019 0.065504 4.513815
v 0.424354 -0.094509 0.580873
vn 2.018032 0.416388 5.493637
v 0.281088 0.012962 0.686264
vn -2.268909 0.023887 5.298504
v 0.176233 0.012926 0.686264
vn 2.135836 0.862965 5.291653
v 0.281084 0.012988 0.686262
vn -3.094696 0.265798 3.331579
v 0.176232 0.012962 0.686264
vn 4.925820 0.278000 3.341278
v 0.424364 -0.094440 0.580861
vn 2.252296 1.547485 4.874965
v 0.281080 0.013007 0.686260
vn -3.067692 0.561178 3.040133
v 0.176233 0.012988 0.686262
vn 5.132483 0.673922 2.297025
v 0.424368 -0.094390 0.580848
vn 2.223796 2.569178 3.940817
v 0.281075 0.013018 0.686258
vn -2.969130 1.121938 2.948118
v 0.176236 0.013007 0.686260
vn 5.167724 1.481377 1.869064
v 0.424366 -0.094356 0.580835
vn 1.738641 3.679324 2.718732
v 0.281071 0.013025 0.686255
vn -2.698702 2.007482 2.772271
v 0.176240 0.013018 0.686258
vn 4.936608 2.884850 1.159531
v 0.424361 -0.094335 0.580822
vn 0.890007 5.195993 1.735080
v 0.281066 0.013027 0.686253
vn -2.054957 3.335222 2.436256
v 0.176244 0.013025 0.686255
vn 1.705842 4.834978 -2.037478
v 0.281071 0.013025 0.584553
vn 0.956038 5.510582 -1.342082
v 0.281066 0.013027 0.584556
vn 4.323054 4.430585 0.325186
v 0.424353 -0.094325 0.580811
vn -0.916923 5.182467 1.724813
v 0.176249 0.013027 0.686253
vn -2.314565 4.024979 -2.012011
v 0.176244 0.013025 0.584553
vn 2.383737 4.237675 -2.041741
v 0.424353 -0.094325 0.475868
vn -0.005171 4.454260 -4.431401
v 0.314264 -0.094325 0.475868
vn -0.985495 5.495780 -1.333425
v 0.176249 0.013027 0.584556
vn 2.649702 -1.228784 5.492729
v 0.280398 -0.101780 0.684937
vn 0.784527 -2.062729 5.357343
v 0.279456 -0.101990 0.685274
vn 2.724413 -2.845225 2.140527
v 0.417221 -0.222832 0.581071
vn 1.701836 -0.503066 5.736046
v 0.280948 -0.091406 0.686155
vn 4.422505 -1.282478 3.255805
v 0.423547 -0.206290 0.581317
vn -1.596261 -2.633762 4.016047
v 0.178253 -0.101990 0.685274
vn -1.313324 -4.679649 1.762568
v 0.312804 -0.224334 0.580215
vn 0.871222 -4.864741 2.084215
v 0.413923 -0.224334 0.580215
vn 1.736046 -0.387165 5.744545
v 0.281081 -0.089424 0.686255
vn -1.308261 -0.504914 5.959334
v 0.176478 -0.091406 0.686155
vn 1.767490 -0.313192 5.721271
v 0.281087 -0.089333 0.686259
vn -0.358735 -0.349793 6.252503
v 0.176261 -0.089424 0.686255
vn 1.809706 -0.201451 5.696256
v 0.281090 -0.089252 0.686262
vn -1.547312 -0.392030 5.853545
v 0.176249 -0.089333 0.686259
vn -1.893278 -0.299273 5.628413
v 0.176241 -0.089252 0.686262
vn -2.319799 -0.173074 5.238145
v 0.176235 -0.089182 0.686264
vn 4.850612 -0.548619 3.206844
v 0.424336 -0.202279 0.580885
vn 4.951792 -0.462610 2.512218
v 0.424354 -0.202186 0.580873
vn -2.762224 -0.028478 4.625020
v 0.176233 -0.089121 0.686264
vn -5.944671 0.106848 1.348996
v 0.175770 0.005647 0.685345
vn -4.503650 1.099146 -2.617198
v 0.176233 0.012988 0.584540
vn -4.987943 0.206977 -2.473410
v 0.175770 0.005647 0.584393
vn -3.923898 -0.829401 2.677806
v 0.175770 -0.096038 0.685345
vn -5.090522 -0.000612 3.568799
v 0.176232 -0.089071 0.686264
vn -4.092483 1.819465 -2.570921
v 0.176236 0.013007 0.584545
vn -3.364265 2.811958 -2.391409
v 0.176240 0.013018 0.584549
vn -4.390048 0.481149 -4.291346
v 0.176233 0.012926 0.584530
vn -1.915744 0.259729 -5.567828
v 0.313727 -0.096910 0.475674
vn -4.733477 0.698543 -2.856526
v 0.176232 0.012962 0.584535
vn -4.973929 -0.605102 -2.162167
v 0.175770 -0.096038 0.584393
vn -3.841470 0.003317 -4.971651
v 0.310966 -0.117890 0.477762
vn -1.622179 0.861757 -5.721394
v 0.314165 -0.094509 0.475822
vn -1.960227 0.732461 -5.720632
v 0.314145 -0.094598 0.475817
vn -1.455948 1.271348 -5.719858
v 0.314186 -0.094440 0.475829
vn -1.214760 1.832105 -5.662325
v 0.314207 -0.094390 0.475838
vn -0.316415 3.604392 -4.999260
v 0.314247 -0.094335 0.475858
vn -0.849496 2.593863 -5.473803
v 0.314228 -0.094356 0.475848
vn -3.666859 -4.859514 0.994836
v 0.178921 -0.102922 0.683927
vn -3.984473 -2.691782 2.023668
v 0.177687 -0.101780 0.684937
vn -4.462687 -2.230121 -1.879599
v 0.177687 -0.101780 0.583390
vn -4.249487 -4.627794 -0.030569
v 0.178921 -0.102922 0.583675
vn -3.801771 -4.875643 0.692359
v 0.310966 -0.222832 0.581071
vn -2.352938 -2.602961 -2.813575
v 0.310966 -0.222832 0.477762
vn 5.570162 -0.293069 1.903475
v 0.424364 -0.202106 0.580861
vn 6.159732 -0.098238 0.807110
v 0.424368 -0.202039 0.580848
vn 3.034105 0.743424 -3.016749
v 0.424368 -0.094390 0.475838
vn 2.936674 1.407658 -2.752858
v 0.424366 -0.094356 0.475848
vn 2.670960 2.611388 -2.364375
v 0.424361 -0.094335 0.475858
vn 0.500407 0.116880 -6.229107
v 0.423547 -0.096910 0.475674
vn 0.969265 0.158219 -6.150255
v 0.424336 -0.094598 0.475817
vn 3.581480 -0.525553 -3.770587
v 0.424336 -0.202279 0.475817
vn 1.800126 0.265782 -5.671851
v 0.424354 -0.094509 0.475822
vn 2.827823 -1.072898 -3.696182
v 0.423547 -0.206290 0.475674
vn 3.996115 -0.442540 -2.981745
v 0.424354 -0.202186 0.475822
vn 2.830099 0.438727 -4.316418
v 0.424364 -0.094440 0.475829
vn 4.971193 -0.288456 -2.472683
v 0.424364 -0.202106 0.475829
vn 6.038810 -0.094904 -1.152900
v 0.424368 -0.202039 0.475838
vn 0.835945 -5.323561 -1.657145
v 0.413923 -0.224334 0.479498
vn 5.899570 -1.490965 0.809629
v 0.423741 -0.206041 0.580838
vn 2.347983 -2.655442 -2.240718
v 0.417221 -0.222832 0.477762
vn 5.860787 -1.533895 -0.886219
v 0.423741 -0.206041 0.476092
vn -1.393359 -4.975367 -1.469026
v 0.312804 -0.224334 0.479498
vn 0.277255 -2.308090 -5.482132
v 0.415913 -0.222441 0.477422
vn -0.774020 -1.963171 -5.380348
v 0.311778 -0.222441 0.477422
vn -1.788154 -0.184673 -5.636866
v 0.313727 -0.206290 0.475674
# 94 vertices, 0 vertices normals

f 1//1 2//2 3//3
f 1//1 4//4 5//5
f 1//1 3//3 4//4
f 1//1 5//5 2//2
f 2//2 6//6 7//7
f 2//2 7//7 3//3
f 2//2 5//5 6//6
f 6//6 8//8 9//9
f 6//6 9//9 7//7
f 6//6 5//5 10//10
f 6//6 10//10 8//8
f 8//8 11//11 12//12
f 8//8 12//12 9//9
f 8//8 10//10 13//13
f 8//8 13//13 11//11
f 11//11 14//14 15//15
f 11//11 15//15 12//12
f 11//11 13//13 16//16
f 11//11 16//16 14//14
f 14//14 17//17 18//18
f 14//14 18//18 15//15
f 14//14 16//16 19//19
f 14//14 19//19 17//17
f 17//17 20//20 21//21
f 17//17 22//22 23//23
f 17//17 23//23 20//20
f 17//17 21//21 18//18
f 17//17 19//19 24//24
f 17//17 24//24 22//22
f 20//20 23//23 25//25
f 20//20 25//25 21//21
f 22//22 26//26 23//23
f 22//22 24//24 27//27
f 22//22 27//27 28//28
f 22//22 28//28 26//26
f 23//23 26//26 29//29
f 23//23 29//29 25//25
f 30//30 31//31 32//32
f 30//30 33//33 31//31
f 30//30 32//32 34//34
f 30//30 34//34 33//33
f 31//31 33//33 35//35
f 31//31 35//35 36//36
f 31//31 37//37 32//32
f 31//31 36//36 37//37
f 33//33 38//38 39//39
f 33//33 39//39 35//35
f 33//33 34//34 38//38
f 38//38 40//40 41//41
f 38//38 41//41 39//39
f 38//38 34//34 40//40
f 40//40 42//42 43//43
f 40//40 43//43 41//41
f 40//40 34//34 42//42
f 42//42 4//4 44//44
f 42//42 44//44 43//43
f 42//42 34//34 4//4
f 4//4 3//3 45//45
f 4//4 45//45 44//44
f 4//4 34//34 46//46
f 4//4 46//46 47//47
f 4//4 47//47 5//5
f 3//3 7//7 48//48
f 3//3 48//48 45//45
f 49//49 9//9 12//12
f 49//49 12//12 50//50
f 49//49 51//51 52//52
f 49//49 50//50 51//51
f 49//49 52//52 53//53
f 49//49 53//53 9//9
f 7//7 9//9 53//53
f 7//7 53//53 48//48
f 12//12 15//15 54//54
f 12//12 54//54 50//50
f 15//15 18//18 55//55
f 15//15 55//55 54//54
f 18//18 21//21 26//26
f 18//18 26//26 55//55
f 21//21 25//25 29//29
f 21//21 29//29 26//26
f 51//51 56//56 57//57
f 51//51 58//58 56//56
f 51//51 50//50 58//58
f 51//51 59//59 52//52
f 51//51 60//60 59//59
f 51//51 57//57 60//60
f 56//56 58//58 57//57
f 58//58 50//50 61//61
f 58//58 62//62 57//57
f 58//58 61//61 62//62
f 50//50 54//54 63//63
f 50//50 63//63 61//61
f 54//54 55//55 64//64
f 54//54 64//64 63//63
f 55//55 26//26 65//65
f 55//55 66//66 64//64
f 55//55 65//65 66//66
f 26//26 28//28 65//65
f 67//67 68//68 69//69
f 67//67 35//35 68//68
f 67//67 70//70 71//71
f 67//67 69//69 70//70
f 67//67 36//36 35//35
f 67//67 71//71 36//36
f 68//68 35//35 52//52
f 68//68 52//52 59//59
f 68//68 59//59 69//69
f 35//35 39//39 52//52
f 52//52 39//39 43//43
f 52//52 43//43 44//44
f 52//52 44//44 45//45
f 52//52 45//45 48//48
f 52//52 48//48 53//53
f 39//39 41//41 43//43
f 70//70 69//69 72//72
f 70//70 72//72 71//71
f 69//69 59//59 72//72
f 59//59 60//60 72//72
f 5//5 47//47 73//73
f 5//5 73//73 10//10
f 10//10 73//73 74//74
f 10//10 74//74 13//13
f 13//13 75//75 16//16
f 13//13 74//74 75//75
f 16//16 75//75 76//76
f 16//16 76//76 19//19
f 19//19 76//76 77//77
f 19//19 77//77 24//24
f 24//24 77//77 27//27
f 78//78 79//79 80//80
f 78//78 81//81 79//79
f 78//78 82//82 57//57
f 78//78 80//80 82//82
f 78//78 57//57 61//61
f 78//78 61//61 81//81
f 79//79 81//81 83//83
f 79//79 83//83 80//80
f 81//81 84//84 85//85
f 81//81 85//85 83//83
f 81//81 61//61 63//63
f 81//81 63//63 84//84
f 84//84 75//75 86//86
f 84//84 86//86 85//85
f 84//84 63//63 64//64
f 84//84 64//64 75//75
f 75//75 74//74 86//86
f 75//75 64//64 66//66
f 75//75 66//66 76//76
f 76//76 66//66 65//65
f 76//76 65//65 77//77
f 77//77 65//65 28//28
f 77//77 28//28 27//27
f 37//37 87//87 32//32
f 37//37 36//36 87//87
f 32//32 88//88 34//34
f 32//32 87//87 89//89
f 32//32 89//89 88//88
f 34//34 88//88 46//46
f 88//88 47//47 46//46
f 88//88 89//89 90//90
f 88//88 90//90 47//47
f 47//47 90//90 83//83
f 47//47 83//83 73//73
f 73//73 83//83 85//85
f 73//73 85//85 74//74
f 74//74 85//85 86//86
f 87//87 36//36 91//91
f 87//87 91//91 72//72
f 87//87 72//72 89//89
f 89//89 92//92 82//82
f 89//89 82//82 90//90
f 89//89 72//72 92//92
f 92//92 72//72 93//93
f 92//92 93//93 94//94
f 92//92 94//94 82//82
f 82//82 80//80 90//90
f 82//82 94//94 57//57
f 90//90 80//80 83//83
f 60//60 57//57 94//94
f 60//60 94//94 72//72
f 57//57 62//62 61//61
f 36//36 71//71 91//91
f 71//71 72//72 91//91
f 72//72 94//94 93//93
# 184 faces, 0 coords texture

# End of File
