####
#
# OBJ File Generated by Meshlab
#
####
# Object step_22_link_6.obj
#
# Vertices: 60
# Faces: 116
#
####
vn 3.487274 4.413731 1.315614
v 0.350461 -0.025967 0.621098
vn 1.622045 3.143500 2.457989
v 0.342304 -0.022949 0.630212
vn 4.524097 2.301792 2.782580
v 0.415028 -0.081048 0.580559
vn 1.659334 4.693705 -2.009384
v 0.350461 -0.025967 0.518110
vn 0.760766 5.821475 -1.061905
v 0.342304 -0.022949 0.524345
vn 4.811233 1.940456 1.044401
v 0.421813 -0.084594 0.569490
vn 3.405733 0.275404 5.246847
v 0.342226 -0.024623 0.630426
vn 3.965820 0.530080 4.763257
v 0.414539 -0.082392 0.581368
vn 1.123656 1.400419 5.356205
v 0.340925 -0.024279 0.631166
vn -1.161839 4.566234 1.971165
v 0.231381 -0.022949 0.630212
vn 1.090974 -1.520032 5.266463
v 0.340925 -0.132535 0.631166
vn 3.282598 -0.199558 5.339273
v 0.342226 -0.132225 0.630426
vn -2.135300 1.709190 3.590411
v 0.229877 -0.024279 0.631166
vn -0.868043 4.140834 -4.068749
v 0.243152 -0.025967 0.518110
vn 2.467838 1.515143 -2.178508
v 0.421813 -0.084594 0.464762
vn 0.290625 2.014055 -5.403628
v 0.419729 -0.084859 0.464454
vn -0.922375 1.773461 -5.218337
v 0.312714 -0.084859 0.464454
vn -1.971449 3.159720 -2.183467
v 0.231381 -0.022949 0.524345
vn 1.491507 -3.085216 3.704761
v 0.413483 -0.193808 0.582009
vn 3.710869 -1.190664 4.680961
v 0.414539 -0.193525 0.581368
vn -2.098001 -1.745061 3.538330
v 0.229877 -0.132535 0.631166
vn -0.861140 -4.860033 3.030759
v 0.299452 -0.193808 0.582009
vn -3.889745 4.480058 1.124473
v 0.229569 -0.024251 0.630642
vn -4.694444 2.351606 -1.217802
v 0.229569 -0.024251 0.526198
vn -4.821876 1.842795 1.392493
v 0.229562 -0.024259 0.630645
vn -4.865533 -1.807182 1.393372
v 0.229562 -0.132547 0.630645
vn -5.469340 1.794914 -0.462220
v 0.229562 -0.024259 0.526226
vn -2.034383 2.535026 -5.352764
v 0.243261 -0.026585 0.517742
vn -3.795277 0.299330 -4.976104
v 0.231053 -0.024623 0.524418
vn -4.585923 0.501726 -4.060525
v 0.230178 -0.024583 0.525144
vn -5.039905 1.357070 -3.106885
v 0.229877 -0.024279 0.525619
vn -5.016048 2.016987 -2.313753
v 0.229586 -0.024245 0.526164
vn -2.960210 0.513172 -5.427343
v 0.312306 -0.085044 0.464626
vn -3.583069 0.213965 -5.146967
v 0.300275 -0.082668 0.472852
vn -3.913390 -0.175538 -4.902996
v 0.231053 -0.132225 0.524418
vn -4.566088 -0.621184 -4.034490
v 0.230178 -0.132252 0.525144
vn -4.964931 -1.498006 -3.077624
v 0.229877 -0.132535 0.525619
vn -5.050094 -1.965374 -2.341819
v 0.229586 -0.132563 0.526164
vn -4.908464 -2.182456 -1.272196
v 0.229569 -0.132556 0.526198
vn -5.502479 -1.755442 -0.464511
v 0.229562 -0.132547 0.526226
vn -3.981786 -4.391378 1.200809
v 0.229569 -0.132556 0.630642
vn -2.557681 -5.225599 1.016601
v 0.299145 -0.193872 0.581558
vn -3.618307 -0.480090 -5.081020
v 0.300275 -0.193296 0.472852
vn -4.050779 -2.062417 -3.538759
v 0.299266 -0.193347 0.473618
vn -3.228998 -4.787590 -1.007261
v 0.299158 -0.193877 0.474768
vn -3.402657 -5.062430 -0.340161
v 0.299145 -0.193872 0.474810
vn 4.754844 0.393144 3.896262
v 0.414959 -0.082588 0.580997
vn 4.228490 -2.308507 0.927245
v 0.421813 -0.191052 0.569490
vn 4.720491 -0.628648 3.839202
v 0.414959 -0.193347 0.580997
vn 2.353547 -1.626286 -1.940500
v 0.421813 -0.191052 0.464762
vn 0.692571 -2.884402 -3.769701
v 0.419729 -0.191429 0.464454
vn 2.386859 -3.470321 1.792404
v 0.415028 -0.194293 0.580559
vn 1.081019 -5.860826 -0.668206
v 0.415028 -0.194293 0.472765
vn -0.608673 -6.029220 0.773876
v 0.300652 -0.194293 0.580559
vn 0.365480 -5.757263 -2.277586
v 0.418324 -0.191823 0.465141
vn -0.995432 -2.319011 -4.367059
v 0.312714 -0.191429 0.464454
vn -0.334107 -5.608916 -2.657846
v 0.312622 -0.191823 0.465141
vn -1.866377 -3.465760 -2.370198
v 0.300652 -0.194293 0.472765
vn -3.049000 -0.242065 -5.431512
v 0.312306 -0.190783 0.464626
vn -1.484110 -5.973143 0.682301
v 0.299158 -0.193877 0.581545
# 60 vertices, 0 vertices normals

f 1//1 2//2 3//3
f 1//1 4//4 5//5
f 1//1 5//5 2//2
f 1//1 6//6 4//4
f 1//1 3//3 6//6
f 2//2 7//7 8//8
f 2//2 9//9 7//7
f 2//2 5//5 10//10
f 2//2 10//10 9//9
f 2//2 8//8 3//3
f 7//7 9//9 11//11
f 7//7 12//12 8//8
f 7//7 11//11 12//12
f 9//9 10//10 13//13
f 9//9 13//13 11//11
f 4//4 14//14 5//5
f 4//4 6//6 15//15
f 4//4 15//15 16//16
f 4//4 16//16 17//17
f 4//4 17//17 14//14
f 5//5 14//14 18//18
f 5//5 18//18 10//10
f 12//12 11//11 19//19
f 12//12 20//20 8//8
f 12//12 19//19 20//20
f 11//11 13//13 21//21
f 11//11 21//21 22//22
f 11//11 22//22 19//19
f 10//10 23//23 13//13
f 10//10 18//18 24//24
f 10//10 24//24 23//23
f 13//13 23//23 25//25
f 13//13 25//25 26//26
f 13//13 26//26 21//21
f 23//23 24//24 27//27
f 23//23 27//27 25//25
f 25//25 27//27 26//26
f 14//14 28//28 18//18
f 14//14 17//17 28//28
f 28//28 17//17 18//18
f 18//18 29//29 30//30
f 18//18 30//30 31//31
f 18//18 31//31 32//32
f 18//18 32//32 24//24
f 18//18 17//17 33//33
f 18//18 33//33 34//34
f 18//18 34//34 29//29
f 29//29 35//35 36//36
f 29//29 36//36 30//30
f 29//29 34//34 35//35
f 30//30 36//36 37//37
f 30//30 37//37 31//31
f 31//31 37//37 38//38
f 31//31 38//38 32//32
f 32//32 38//38 39//39
f 32//32 39//39 24//24
f 24//24 39//39 40//40
f 24//24 40//40 27//27
f 27//27 40//40 26//26
f 21//21 41//41 42//42
f 21//21 26//26 41//41
f 21//21 42//42 22//22
f 41//41 26//26 40//40
f 41//41 39//39 42//42
f 41//41 40//40 39//39
f 35//35 34//34 43//43
f 35//35 43//43 44//44
f 35//35 44//44 36//36
f 36//36 44//44 37//37
f 37//37 44//44 38//38
f 38//38 44//44 45//45
f 38//38 45//45 39//39
f 39//39 45//45 46//46
f 39//39 46//46 42//42
f 6//6 3//3 47//47
f 6//6 47//47 48//48
f 6//6 48//48 15//15
f 3//3 8//8 47//47
f 47//47 8//8 20//20
f 47//47 49//49 48//48
f 47//47 20//20 49//49
f 15//15 48//48 50//50
f 15//15 50//50 16//16
f 16//16 50//50 51//51
f 16//16 51//51 17//17
f 48//48 52//52 53//53
f 48//48 49//49 52//52
f 48//48 53//53 50//50
f 52//52 49//49 20//20
f 52//52 20//20 19//19
f 52//52 19//19 54//54
f 52//52 54//54 53//53
f 19//19 22//22 54//54
f 50//50 53//53 51//51
f 51//51 55//55 56//56
f 51//51 53//53 55//55
f 51//51 56//56 17//17
f 55//55 53//53 57//57
f 55//55 57//57 56//56
f 53//53 54//54 58//58
f 53//53 58//58 57//57
f 17//17 56//56 59//59
f 17//17 59//59 33//33
f 33//33 59//59 34//34
f 34//34 59//59 43//43
f 54//54 22//22 60//60
f 54//54 60//60 45//45
f 54//54 45//45 58//58
f 22//22 42//42 60//60
f 60//60 42//42 46//46
f 60//60 46//46 45//45
f 56//56 57//57 58//58
f 56//56 58//58 43//43
f 56//56 43//43 59//59
f 58//58 44//44 43//43
f 58//58 45//45 44//44
# 116 faces, 0 coords texture

# End of File
