####
#
# OBJ File Generated by Meshlab
#
####
# Object step_20_link_4.obj
#
# Vertices: 81
# Faces: 158
#
####
vn 3.314820 1.617677 -3.409382
v 0.135992 0.057090 0.427096
vn 1.218620 2.600965 -3.741997
v 0.135252 0.057518 0.426866
vn 3.137415 5.070966 -1.891478
v 0.221024 0.081845 0.617077
vn 2.794308 -2.103433 -2.601479
v 0.135992 -0.043751 0.427096
vn 0.802984 -2.780199 -2.778102
v 0.135252 -0.044047 0.426866
vn 4.582825 2.222699 -1.119801
v 0.222509 0.080990 0.617557
vn 4.128326 -2.501483 -0.751710
v 0.222509 -0.020748 0.617557
vn 1.403637 5.692778 -1.895766
v 0.135064 0.057859 0.427620
vn 2.605537 5.354113 -0.714115
v 0.220647 0.082552 0.618547
vn 0.255877 5.832510 -1.899810
v 0.132592 0.058434 0.428475
vn -0.608751 2.383854 -4.584217
v 0.034557 0.057518 0.426866
vn 0.829733 6.089142 -0.506565
v 0.215788 0.083905 0.620015
vn -1.617868 3.484830 -2.591596
v 0.030451 0.058434 0.428475
vn -0.817921 6.120007 -0.259351
v 0.111386 0.083905 0.620015
vn 0.692677 -6.163835 0.234432
v 0.135252 -0.044047 0.527898
vn 2.070066 -5.906806 -0.154191
v 0.221024 -0.021347 0.617077
vn -0.606839 -6.166542 0.444731
v 0.034557 -0.044047 0.527898
vn 1.545121 -3.635460 2.672686
v 0.221024 -0.021347 0.719215
vn -0.172394 -5.814279 1.924461
v 0.119625 -0.021347 0.719215
vn -0.716700 -2.773199 -2.872140
v 0.034557 -0.044047 0.426866
vn -2.619088 5.645410 0.164087
v 0.030451 0.058434 0.528928
vn -3.545824 5.120384 0.397547
v 0.029538 0.057880 0.529184
vn -1.613478 3.677201 3.177319
v 0.109562 0.082852 0.722158
vn -3.495873 2.511143 -2.460909
v 0.029538 0.057880 0.428706
vn -0.810717 4.465513 2.357571
v 0.111386 0.083905 0.721572
vn -4.730058 3.474158 0.770285
v 0.029535 0.057878 0.529184
vn -2.184035 2.254106 3.273020
v 0.109557 0.082848 0.722159
vn -4.384508 2.063174 -1.801674
v 0.029535 0.057878 0.428709
vn -5.715576 1.112870 1.056879
v 0.029534 0.057876 0.529184
vn -2.894195 0.757515 3.840793
v 0.109555 0.082844 0.722160
vn -5.838117 0.924011 -0.874084
v 0.029534 0.057876 0.428711
vn -5.737199 -1.003870 1.172804
v 0.029534 -0.042699 0.529184
vn -2.895164 -0.547353 4.062839
v 0.109555 -0.018928 0.722160
vn -2.078154 0.979332 -5.847553
v 0.029605 0.057892 0.428678
vn -2.233502 0.756739 -5.770147
v 0.029583 0.057890 0.428686
vn -2.382910 -1.107845 -5.582772
v 0.029583 -0.042721 0.428686
vn -2.479532 1.094070 -5.531874
v 0.029565 0.057887 0.428693
vn -2.854169 1.655876 -4.980040
v 0.029552 0.057885 0.428698
vn -3.213273 2.353824 -3.737741
v 0.029543 0.057882 0.428703
vn -2.645380 -1.631245 -5.120563
v 0.029565 -0.042716 0.428693
vn -2.948564 -2.316738 -4.080721
v 0.029552 -0.042712 0.428698
vn -3.076233 -2.629785 -2.733978
v 0.029543 -0.042708 0.428703
vn -3.595381 -2.438242 -2.371404
v 0.029538 -0.042704 0.428706
vn -4.653077 -1.805033 -1.850881
v 0.029535 -0.042701 0.428709
vn -5.904184 -0.755928 -0.910302
v 0.029534 -0.042699 0.428711
vn -2.057530 -5.678731 0.714772
v 0.030451 -0.043231 0.528928
vn -2.175040 -3.992476 -2.389854
v 0.030451 -0.043231 0.428475
vn -0.808807 -4.566951 3.089700
v 0.111386 -0.019940 0.721572
vn -2.996724 -5.349152 0.915514
v 0.029543 -0.042708 0.529182
vn -1.284095 -4.082934 3.668064
v 0.109573 -0.018945 0.722155
vn -3.689377 -4.709893 1.005107
v 0.029538 -0.042704 0.529184
vn -1.659448 -3.301890 3.782623
v 0.109562 -0.018938 0.722158
vn -4.862975 -3.045114 1.160490
v 0.029535 -0.042701 0.529184
vn -2.353341 -1.902253 3.866367
v 0.109557 -0.018933 0.722159
vn 3.817521 1.522968 1.971544
v 0.222509 0.080990 0.718695
vn 2.946920 4.601988 1.530170
v 0.220647 0.082552 0.719082
vn 2.758409 2.125978 4.478439
v 0.219792 0.082350 0.720123
vn 2.455157 -0.578983 5.690134
v 0.219792 -0.019531 0.720123
vn 3.125921 -1.888107 1.737252
v 0.222509 -0.020748 0.718695
vn 1.155600 3.284860 2.736382
v 0.215788 0.083905 0.721572
vn 2.171619 0.316545 5.875950
v 0.214774 0.082873 0.722054
vn 2.106176 -0.424495 5.884728
v 0.214774 -0.019005 0.722054
vn 2.050832 0.391602 5.911075
v 0.214646 0.082873 0.722100
vn 1.901421 0.502027 5.941103
v 0.214595 0.082872 0.722117
vn 1.700447 0.648739 5.970672
v 0.214551 0.082869 0.722131
vn 1.455494 0.831246 5.985283
v 0.214513 0.082865 0.722142
vn 1.135807 1.070621 5.967323
v 0.214482 0.082861 0.722150
vn 0.721880 1.368917 5.887810
v 0.214456 0.082857 0.722155
vn 0.413424 1.474120 5.857000
v 0.214436 0.082852 0.722158
vn 1.969430 -0.526440 5.916153
v 0.214646 -0.018987 0.722100
vn 1.793681 -0.673910 5.936784
v 0.214595 -0.018977 0.722117
vn 1.558382 -0.863936 5.948165
v 0.214551 -0.018969 0.722131
vn 1.270710 -1.094379 5.930233
v 0.214513 -0.018960 0.722142
vn 0.898932 -1.382645 5.854273
v 0.214482 -0.018952 0.722150
vn 0.582094 -1.544189 5.796207
v 0.214456 -0.018945 0.722155
vn 0.402239 -1.286056 5.953526
v 0.214436 -0.018938 0.722158
vn 0.196412 0.931417 6.108301
v 0.214421 0.082848 0.722159
vn 0.203098 -0.701871 6.176273
v 0.214421 -0.018933 0.722159
vn 0.032869 0.136826 6.279140
v 0.214411 0.082844 0.722160
vn 0.034059 -0.108845 6.280381
v 0.214411 -0.018928 0.722160
vn 0.963114 -2.979221 4.570393
v 0.215788 -0.019940 0.721572
# 81 vertices, 0 vertices normals

f 1//1 2//2 3//3
f 1//1 4//4 5//5
f 1//1 5//5 2//2
f 1//1 6//6 7//7
f 1//1 3//3 6//6
f 1//1 7//7 4//4
f 2//2 8//8 9//9
f 2//2 10//10 8//8
f 2//2 5//5 11//11
f 2//2 11//11 10//10
f 2//2 9//9 3//3
f 8//8 10//10 12//12
f 8//8 12//12 9//9
f 10//10 11//11 13//13
f 10//10 13//13 14//14
f 10//10 14//14 12//12
f 15//15 5//5 16//16
f 15//15 17//17 5//5
f 15//15 18//18 19//19
f 15//15 16//16 18//18
f 15//15 19//19 17//17
f 4//4 7//7 16//16
f 4//4 16//16 5//5
f 5//5 17//17 20//20
f 5//5 20//20 11//11
f 21//21 22//22 23//23
f 21//21 13//13 24//24
f 21//21 24//24 22//22
f 21//21 25//25 14//14
f 21//21 23//23 25//25
f 21//21 14//14 13//13
f 22//22 26//26 27//27
f 22//22 24//24 28//28
f 22//22 28//28 26//26
f 22//22 27//27 23//23
f 26//26 29//29 30//30
f 26//26 28//28 31//31
f 26//26 31//31 29//29
f 26//26 30//30 27//27
f 29//29 31//31 32//32
f 29//29 32//32 33//33
f 29//29 33//33 30//30
f 11//11 34//34 13//13
f 11//11 35//35 34//34
f 11//11 20//20 36//36
f 11//11 36//36 35//35
f 13//13 34//34 35//35
f 13//13 35//35 37//37
f 13//13 37//37 38//38
f 13//13 38//38 39//39
f 13//13 39//39 24//24
f 35//35 36//36 40//40
f 35//35 40//40 37//37
f 37//37 40//40 41//41
f 37//37 41//41 38//38
f 38//38 41//41 42//42
f 38//38 42//42 39//39
f 39//39 42//42 43//43
f 39//39 43//43 24//24
f 24//24 43//43 44//44
f 24//24 44//44 28//28
f 28//28 44//44 45//45
f 28//28 45//45 31//31
f 31//31 45//45 32//32
f 17//17 46//46 47//47
f 17//17 47//47 20//20
f 17//17 19//19 48//48
f 17//17 48//48 46//46
f 46//46 49//49 42//42
f 46//46 42//42 47//47
f 46//46 48//48 50//50
f 46//46 50//50 49//49
f 49//49 51//51 43//43
f 49//49 43//43 42//42
f 49//49 50//50 52//52
f 49//49 52//52 51//51
f 51//51 53//53 44//44
f 51//51 44//44 43//43
f 51//51 52//52 54//54
f 51//51 54//54 53//53
f 53//53 32//32 45//45
f 53//53 45//45 44//44
f 53//53 54//54 33//33
f 53//53 33//33 32//32
f 20//20 47//47 36//36
f 47//47 40//40 36//36
f 47//47 41//41 40//40
f 47//47 42//42 41//41
f 55//55 56//56 57//57
f 55//55 57//57 58//58
f 55//55 6//6 9//9
f 55//55 9//9 56//56
f 55//55 59//59 6//6
f 55//55 58//58 59//59
f 56//56 60//60 57//57
f 56//56 9//9 12//12
f 56//56 12//12 60//60
f 57//57 60//60 61//61
f 57//57 61//61 62//62
f 57//57 62//62 58//58
f 60//60 63//63 61//61
f 60//60 64//64 63//63
f 60//60 65//65 64//64
f 60//60 66//66 65//65
f 60//60 67//67 66//66
f 60//60 68//68 67//67
f 60//60 69//69 68//68
f 60//60 12//12 25//25
f 60//60 25//25 69//69
f 61//61 63//63 70//70
f 61//61 70//70 62//62
f 63//63 64//64 71//71
f 63//63 71//71 70//70
f 64//64 65//65 72//72
f 64//64 72//72 71//71
f 65//65 66//66 73//73
f 65//65 73//73 72//72
f 66//66 67//67 74//74
f 66//66 74//74 73//73
f 67//67 68//68 75//75
f 67//67 75//75 74//74
f 68//68 69//69 76//76
f 68//68 76//76 75//75
f 69//69 77//77 78//78
f 69//69 78//78 76//76
f 69//69 25//25 23//23
f 69//69 23//23 77//77
f 77//77 79//79 80//80
f 77//77 80//80 78//78
f 77//77 23//23 27//27
f 77//77 27//27 79//79
f 79//79 27//27 30//30
f 79//79 30//30 80//80
f 6//6 3//3 9//9
f 6//6 59//59 7//7
f 12//12 14//14 25//25
f 59//59 18//18 16//16
f 59//59 58//58 18//18
f 59//59 16//16 7//7
f 18//18 58//58 81//81
f 18//18 81//81 19//19
f 58//58 62//62 81//81
f 81//81 62//62 70//70
f 81//81 70//70 71//71
f 81//81 71//71 72//72
f 81//81 72//72 73//73
f 81//81 73//73 74//74
f 81//81 74//74 75//75
f 81//81 75//75 48//48
f 81//81 48//48 19//19
f 75//75 76//76 50//50
f 75//75 50//50 48//48
f 76//76 78//78 52//52
f 76//76 52//52 50//50
f 78//78 80//80 54//54
f 78//78 54//54 52//52
f 80//80 30//30 33//33
f 80//80 33//33 54//54
# 158 faces, 0 coords texture

# End of File
