####
#
# OBJ File Generated by Meshlab
#
####
# Object step_32_link_4.obj
#
# Vertices: 79
# Faces: 154
#
####
vn 3.615867 0.840321 -3.385267
v 0.101649 0.071164 0.438006
vn 2.732284 3.083562 -3.076107
v 0.101361 0.071739 0.438058
vn 5.377070 1.875494 -0.772627
v 0.147356 0.108269 0.640101
vn 0.660777 1.493131 -5.684331
v 0.100566 0.071528 0.437746
vn 3.328738 -1.427139 -2.693625
v 0.101649 -0.029086 0.438006
vn 5.081234 -2.215640 -0.387241
v 0.147356 0.007756 0.640101
vn 1.132197 4.273260 -3.408810
v 0.100732 0.071963 0.438010
vn 3.418977 4.655570 -0.740163
v 0.146547 0.109354 0.640221
vn -0.022272 3.658444 -5.083277
v 0.000055 0.071963 0.438010
vn 0.321831 5.114763 -2.837564
v 0.097994 0.072671 0.438610
vn 1.714005 5.907653 -0.783593
v 0.145269 0.109790 0.640120
vn 1.017162 -2.743995 -3.501357
v 0.100566 -0.029764 0.437746
vn -0.420331 1.527486 -5.730285
v -0.000613 0.071528 0.437746
vn -1.713856 3.091642 -2.486960
v -0.004373 0.072671 0.438610
vn -2.006670 5.360461 -0.327706
v 0.035024 0.111035 0.641016
vn 0.718134 6.094134 -0.600241
v 0.140191 0.111035 0.641016
vn 3.778654 -5.015235 0.030150
v 0.101361 -0.029395 0.538415
vn 1.660171 -5.664397 0.335896
v 0.100543 -0.029975 0.538534
vn 1.608068 -5.525307 -0.750296
v 0.100543 -0.029975 0.438406
vn 3.575448 -4.272912 -1.815173
v 0.101361 -0.029395 0.438058
vn 3.959959 -4.878204 -0.002276
v 0.146547 0.007096 0.640221
vn 3.388360 -2.397781 2.673127
v 0.146547 0.007096 0.740970
vn -0.343336 -6.194765 0.548576
v -0.000852 -0.029975 0.538534
vn 1.683097 -4.977136 1.831417
v 0.144873 0.005961 0.741266
vn -0.201361 -5.625157 2.337016
v 0.041987 0.005961 0.741266
vn -0.439108 -2.808683 -3.997716
v -0.000613 -0.029764 0.437746
vn -0.426708 -6.037430 -1.039188
v -0.000852 -0.029975 0.438406
vn -4.552515 4.323072 0.034295
v -0.004373 0.072671 0.539035
vn -4.699189 4.169867 0.061949
v -0.004949 0.072021 0.539088
vn -1.248547 2.909939 2.289350
v 0.035024 0.111035 0.742480
vn -5.334275 2.999303 0.258574
v -0.004953 0.072018 0.539087
vn -3.622247 1.619684 -2.587242
v -0.004953 0.072018 0.438622
vn -6.033321 0.945530 0.476129
v -0.004954 0.072015 0.539087
vn -2.826935 1.400564 3.002518
v 0.033913 0.109712 0.742627
vn -5.091797 0.614278 -2.042453
v -0.004954 0.072015 0.438623
vn -2.410611 1.988335 3.185807
v 0.033919 0.109720 0.742627
vn -5.995343 -0.986265 0.620524
v -0.004954 -0.029183 0.539087
vn -4.110089 -0.321360 3.396130
v 0.033912 0.007781 0.742626
vn -4.110677 0.441992 3.241372
v 0.033912 0.109706 0.742626
vn -1.160471 0.901698 -6.108466
v -0.004934 0.072029 0.438619
vn -1.749110 1.074582 -5.807501
v -0.004943 0.072025 0.438620
vn -2.976129 2.048190 -3.073822
v -0.004949 0.072021 0.438621
vn -2.678383 -2.305842 -2.813440
v -0.004949 -0.029190 0.438621
vn -3.655197 -1.574226 -2.596184
v -0.004953 -0.029186 0.438622
vn -5.100551 -0.588875 -2.054251
v -0.004954 -0.029183 0.438623
vn -1.981756 -5.605927 0.680390
v -0.004373 -0.029559 0.539035
vn -1.645039 -3.962252 -2.429061
v -0.004373 -0.029559 0.438610
vn -3.389771 -5.155286 0.798251
v -0.004943 -0.029194 0.539088
vn -2.308914 -2.669161 -3.052706
v -0.004943 -0.029194 0.438620
vn -1.038507 -3.480958 3.333064
v 0.035024 0.006990 0.742480
vn -4.080819 -4.478407 0.784681
v -0.004949 -0.029190 0.539088
vn -1.784050 -2.648300 3.830333
v 0.033930 0.007757 0.742626
vn -5.225170 -2.911786 0.753203
v -0.004953 -0.029186 0.539087
vn -2.245612 -2.089452 3.664979
v 0.033919 0.007765 0.742627
vn -2.909198 -1.186414 3.517862
v 0.033913 0.007774 0.742627
vn -1.708721 -2.235927 -5.520390
v -0.004934 -0.029198 0.438619
vn 4.792346 1.232292 1.757568
v 0.147356 0.108269 0.740247
vn 2.779136 2.595158 2.289551
v 0.146547 0.109354 0.740970
vn 4.356158 -1.686539 1.579290
v 0.147356 0.007756 0.740247
vn 1.900863 5.304596 1.799100
v 0.145269 0.109790 0.741154
vn 0.626066 3.165993 2.882536
v 0.140191 0.111035 0.742480
vn 1.909002 1.079679 5.571411
v 0.144916 0.108884 0.741840
vn 0.920147 0.205108 6.210314
v 0.139714 0.109760 0.742615
vn 0.796292 0.201095 6.223702
v 0.139684 0.109752 0.742619
vn 0.702649 -0.407571 6.211476
v 0.139684 0.007728 0.742619
vn 1.589991 -2.399760 4.173516
v 0.144916 0.006375 0.741840
vn 0.596038 0.247879 6.240728
v 0.139658 0.109744 0.742623
vn 0.351888 0.310334 6.251465
v 0.139634 0.109736 0.742625
vn 0.163533 0.324764 6.258609
v 0.139613 0.109728 0.742626
vn 0.465360 -0.516510 6.212222
v 0.139658 0.007738 0.742623
vn 0.268774 -0.562794 6.214754
v 0.139634 0.007747 0.742625
vn 0.150484 -0.384639 6.251224
v 0.139613 0.007757 0.742626
vn 0.054113 0.160284 6.276912
v 0.139596 0.109720 0.742627
vn 0.055161 -0.143131 6.277879
v 0.139596 0.007765 0.742627
vn -0.298956 0.811656 6.199188
v 0.033930 0.109728 0.742626
vn 0.279816 -2.551972 5.290404
v 0.140191 0.006990 0.742480
vn -0.016859 -4.817763 4.007832
v 0.042479 0.006375 0.741840
vn 0.773789 -0.569226 6.208611
v 0.139714 0.007719 0.742615
vn -0.414448 -1.586499 5.998971
v 0.033947 0.007747 0.742625
# 79 vertices, 0 vertices normals

f 1//1 2//2 3//3
f 1//1 4//4 2//2
f 1//1 5//5 4//4
f 1//1 3//3 6//6
f 1//1 6//6 5//5
f 2//2 7//7 8//8
f 2//2 4//4 7//7
f 2//2 8//8 3//3
f 7//7 4//4 9//9
f 7//7 10//10 11//11
f 7//7 9//9 10//10
f 7//7 11//11 8//8
f 4//4 5//5 12//12
f 4//4 12//12 13//13
f 4//4 13//13 9//9
f 10//10 9//9 14//14
f 10//10 14//14 15//15
f 10//10 16//16 11//11
f 10//10 15//15 16//16
f 17//17 18//18 19//19
f 17//17 20//20 21//21
f 17//17 19//19 20//20
f 17//17 22//22 18//18
f 17//17 21//21 22//22
f 18//18 23//23 19//19
f 18//18 22//22 24//24
f 18//18 24//24 25//25
f 18//18 25//25 23//23
f 5//5 20//20 12//12
f 5//5 6//6 20//20
f 20//20 19//19 12//12
f 20//20 6//6 21//21
f 12//12 19//19 26//26
f 12//12 26//26 13//13
f 19//19 23//23 27//27
f 19//19 27//27 26//26
f 28//28 29//29 30//30
f 28//28 31//31 29//29
f 28//28 14//14 32//32
f 28//28 32//32 31//31
f 28//28 30//30 15//15
f 28//28 15//15 14//14
f 29//29 31//31 30//30
f 31//31 33//33 34//34
f 31//31 32//32 35//35
f 31//31 35//35 33//33
f 31//31 36//36 30//30
f 31//31 34//34 36//36
f 33//33 35//35 37//37
f 33//33 37//37 38//38
f 33//33 39//39 34//34
f 33//33 38//38 39//39
f 9//9 13//13 14//14
f 13//13 40//40 14//14
f 13//13 41//41 40//40
f 13//13 42//42 41//41
f 13//13 26//26 43//43
f 13//13 43//43 42//42
f 14//14 40//40 41//41
f 14//14 41//41 42//42
f 14//14 42//42 32//32
f 42//42 43//43 44//44
f 42//42 44//44 32//32
f 32//32 44//44 45//45
f 32//32 45//45 35//35
f 35//35 45//45 37//37
f 23//23 46//46 47//47
f 23//23 47//47 27//27
f 23//23 25//25 46//46
f 46//46 48//48 49//49
f 46//46 49//49 47//47
f 46//46 25//25 50//50
f 46//46 50//50 48//48
f 48//48 51//51 43//43
f 48//48 43//43 49//49
f 48//48 50//50 52//52
f 48//48 52//52 51//51
f 51//51 53//53 44//44
f 51//51 44//44 43//43
f 51//51 52//52 54//54
f 51//51 54//54 53//53
f 53//53 37//37 45//45
f 53//53 45//45 44//44
f 53//53 54//54 55//55
f 53//53 55//55 37//37
f 37//37 55//55 38//38
f 26//26 27//27 47//47
f 26//26 47//47 56//56
f 26//26 56//56 49//49
f 26//26 49//49 43//43
f 47//47 49//49 56//56
f 57//57 58//58 22//22
f 57//57 3//3 8//8
f 57//57 8//8 58//58
f 57//57 59//59 3//3
f 57//57 22//22 59//59
f 58//58 60//60 61//61
f 58//58 62//62 22//22
f 58//58 61//61 62//62
f 58//58 8//8 11//11
f 58//58 11//11 60//60
f 60//60 11//11 16//16
f 60//60 16//16 61//61
f 62//62 61//61 63//63
f 62//62 63//63 64//64
f 62//62 64//64 65//65
f 62//62 66//66 22//22
f 62//62 65//65 66//66
f 61//61 64//64 63//63
f 61//61 67//67 64//64
f 61//61 68//68 67//67
f 61//61 69//69 68//68
f 61//61 16//16 30//30
f 61//61 30//30 69//69
f 64//64 67//67 70//70
f 64//64 70//70 65//65
f 67//67 68//68 71//71
f 67//67 71//71 70//70
f 68//68 69//69 72//72
f 68//68 72//72 71//71
f 69//69 73//73 74//74
f 69//69 74//74 72//72
f 69//69 30//30 75//75
f 69//69 75//75 73//73
f 73//73 75//75 36//36
f 73//73 36//36 74//74
f 3//3 59//59 6//6
f 16//16 15//15 30//30
f 59//59 22//22 21//21
f 59//59 21//21 6//6
f 22//22 66//66 24//24
f 66//66 76//76 77//77
f 66//66 78//78 76//76
f 66//66 65//65 78//78
f 66//66 77//77 24//24
f 24//24 77//77 25//25
f 76//76 78//78 65//65
f 76//76 65//65 70//70
f 76//76 70//70 71//71
f 76//76 71//71 50//50
f 76//76 50//50 77//77
f 71//71 72//72 79//79
f 71//71 79//79 50//50
f 72//72 74//74 52//52
f 72//72 52//52 79//79
f 74//74 36//36 54//54
f 74//74 54//54 52//52
f 30//30 36//36 75//75
f 36//36 34//34 55//55
f 36//36 55//55 54//54
f 34//34 39//39 38//38
f 34//34 38//38 55//55
f 77//77 50//50 25//25
f 50//50 79//79 52//52
# 154 faces, 0 coords texture

# End of File
