####
#
# OBJ File Generated by Meshlab
#
####
# Object step_25_link_4.obj
#
# Vertices: 93
# Faces: 182
#
####
vn 1.959750 1.768608 -2.589849
v 0.111071 0.058213 0.436316
vn 0.281161 4.346726 -3.152556
v 0.107990 0.058901 0.436612
vn 3.550960 2.797095 -0.670673
v 0.171701 0.082824 0.636378
vn 2.020073 -1.775467 -2.341096
v 0.111071 -0.042012 0.436316
vn -0.116441 1.174292 -6.024310
v 0.010659 0.058213 0.436316
vn 4.239128 -2.621984 -0.489238
v 0.171701 -0.017640 0.636378
vn -0.805007 3.186304 -3.176028
v 0.007100 0.058901 0.436612
vn -0.506805 6.201286 -0.341923
v 0.063661 0.084192 0.636974
vn 0.691037 6.141947 -0.467941
v 0.165454 0.084192 0.636974
vn 2.243036 -5.868133 0.012980
v 0.111071 -0.042012 0.536430
vn 2.147574 -5.904488 0.034390
v 0.109728 -0.042501 0.537149
vn 2.134605 -5.909254 -0.031169
v 0.109728 -0.042501 0.436741
vn 3.194003 -1.906430 1.672629
v 0.171701 -0.017640 0.736616
vn 2.202369 -2.785584 2.941470
v 0.168943 -0.018667 0.738107
vn 2.100576 -5.921124 0.044284
v 0.107990 -0.043126 0.537546
vn 1.201961 -5.009358 -2.279945
v 0.107990 -0.043126 0.436612
vn 1.854296 -5.752320 1.139126
v 0.164886 -0.020135 0.738930
vn 1.569129 -6.056938 0.105334
v 0.107707 -0.043225 0.537535
vn 1.494452 -6.068916 -0.145225
v 0.107707 -0.043225 0.437403
vn 0.531608 -6.204252 0.290309
v 0.103831 -0.043915 0.538815
vn 0.342411 -5.980982 -1.106877
v 0.103831 -0.043915 0.438390
vn 1.225579 -3.532897 2.998386
v 0.157247 -0.021674 0.741717
vn -0.405772 -6.221353 0.354452
v 0.001615 -0.043915 0.538815
vn -0.128553 -6.004284 1.543679
v 0.052691 -0.021674 0.741717
vn 0.093921 -3.561495 -4.332979
v 0.107847 -0.043105 0.436565
vn -0.122041 -0.633199 -6.200582
v 0.010659 -0.042012 0.436316
vn -0.000097 -5.741761 -2.551584
v 0.007100 -0.043126 0.436612
vn -0.605533 -2.627628 -4.331034
v 0.006890 -0.043105 0.436565
vn -0.819863 -4.603469 -2.561642
v 0.001615 -0.043915 0.438390
vn -3.421444 5.196998 0.110994
v 0.001615 0.057882 0.538815
vn -4.080361 4.765091 0.220808
v 0.000568 0.056996 0.539063
vn -1.988509 3.347726 3.191074
v 0.050617 0.080617 0.742271
vn -2.244273 3.420494 -2.514498
v 0.001615 0.057882 0.438390
vn -3.274062 2.334792 -2.868855
v 0.000568 0.056996 0.438588
vn -1.284328 3.715114 2.569313
v 0.052691 0.082336 0.741717
vn -1.837967 5.934626 -0.109821
v 0.052691 0.082336 0.640231
vn -4.582866 4.193310 0.317261
v 0.000561 0.056989 0.539065
vn -2.212810 2.797925 3.158102
v 0.050603 0.080605 0.742275
vn -3.726211 2.133673 -2.561975
v 0.000561 0.056989 0.438592
vn -5.431453 2.804979 0.502319
v 0.000557 0.056984 0.539065
vn -2.656616 1.817353 3.280162
v 0.050595 0.080595 0.742277
vn -4.627146 1.539832 -2.157996
v 0.000557 0.056984 0.438595
vn -5.979403 0.945642 0.679702
v 0.000556 0.056980 0.539066
vn -5.738583 0.654424 -1.291786
v 0.000556 0.056980 0.438598
vn -5.340105 -1.902993 0.760085
v 0.000556 -0.043767 0.539066
vn -2.725771 -1.100021 3.251217
v 0.050592 -0.021424 0.742278
vn -2.967960 0.640286 3.492690
v 0.050592 0.080587 0.742278
vn -1.257466 0.380534 -6.050844
v 0.006890 0.058119 0.436565
vn -2.171571 1.036253 -5.772487
v 0.000616 0.057021 0.438572
vn -2.467672 1.233960 -5.449315
v 0.000595 0.057012 0.438578
vn -2.972931 1.897060 -4.513544
v 0.000580 0.057003 0.438584
vn -1.679857 -2.159814 -5.133377
v 0.000595 -0.043772 0.438578
vn -1.697937 -2.816895 -4.047648
v 0.000580 -0.043772 0.438584
vn -1.751828 -3.015169 -2.828422
v 0.000568 -0.043772 0.438588
vn -2.287537 -2.894194 -2.498485
v 0.000561 -0.043771 0.438592
vn -3.469182 -2.509444 -1.974438
v 0.000557 -0.043769 0.438595
vn -5.297828 -1.467082 -1.083064
v 0.000556 -0.043767 0.438598
vn -0.843982 -6.190627 0.431622
v 0.000568 -0.043772 0.539063
vn -0.291089 -5.875089 1.867424
v 0.050617 -0.021433 0.742271
vn -1.629448 -5.943905 0.511566
v 0.000561 -0.043771 0.539065
vn -0.675146 -4.796284 2.875493
v 0.050603 -0.021431 0.742275
vn -3.521109 -4.715546 0.669285
v 0.000557 -0.043769 0.539065
vn -1.718914 -3.133435 3.228042
v 0.050595 -0.021428 0.742277
vn -1.429209 -2.871882 -5.400989
v 0.000616 -0.043771 0.438572
vn 2.837257 2.011198 1.554657
v 0.171701 0.082824 0.736616
vn 2.275283 2.295109 4.487922
v 0.168943 0.083129 0.738107
vn 1.049168 3.672611 2.773503
v 0.165454 0.084192 0.738938
vn 0.714494 2.733068 4.787153
v 0.157247 0.082336 0.741717
vn 1.834962 0.404048 5.979526
v 0.162195 0.081987 0.740286
vn -0.302828 5.727736 1.580321
v 0.063661 0.084192 0.738938
vn 1.767137 0.355720 6.019047
v 0.156030 0.080752 0.742171
vn 1.724849 0.242491 6.030425
v 0.155953 0.080728 0.742195
vn 1.981699 -0.570098 5.902908
v 0.162195 -0.019924 0.740286
vn 1.605613 0.307594 6.055735
v 0.155883 0.080705 0.742215
vn 1.449588 0.397007 6.082485
v 0.155821 0.080684 0.742232
vn 1.267989 0.501667 6.104923
v 0.155766 0.080665 0.742246
vn 1.045705 0.633557 6.117222
v 0.155718 0.080647 0.742257
vn 0.785054 0.786108 6.113834
v 0.155677 0.080632 0.742265
vn 0.501570 0.939343 6.090371
v 0.155642 0.080617 0.742271
vn 1.866691 -0.565412 5.942872
v 0.155953 -0.021402 0.742195
vn 1.772223 -0.764545 5.924159
v 0.155883 -0.021414 0.742215
vn 1.638741 -1.051562 5.868967
v 0.155821 -0.021423 0.742232
vn 1.461879 -1.425209 5.745717
v 0.155766 -0.021429 0.742246
vn 1.206353 -1.920201 5.474381
v 0.155718 -0.021432 0.742257
vn 0.856679 -2.464512 4.976531
v 0.155677 -0.021434 0.742265
vn 0.358840 0.884826 6.122035
v 0.155614 0.080605 0.742275
vn 0.477234 -2.845491 4.357371
v 0.155642 -0.021433 0.742271
vn 0.223383 0.563805 6.214395
v 0.155591 0.080595 0.742277
vn 0.341604 -2.729420 4.601143
v 0.155614 -0.021431 0.742275
vn 0.083323 0.231672 6.269701
v 0.155574 0.080587 0.742278
vn 0.207661 -1.709162 5.738075
v 0.155591 -0.021428 0.742277
vn 0.073168 -0.585065 6.218651
v 0.155574 -0.021424 0.742278
vn 2.213664 -4.597055 2.463422
v 0.165454 -0.019928 0.738938
# 93 vertices, 0 vertices normals

f 1//1 2//2 3//3
f 1//1 4//4 5//5
f 1//1 5//5 2//2
f 1//1 3//3 6//6
f 1//1 6//6 4//4
f 2//2 5//5 7//7
f 2//2 7//7 8//8
f 2//2 9//9 3//3
f 2//2 8//8 9//9
f 10//10 11//11 12//12
f 10//10 4//4 6//6
f 10//10 12//12 4//4
f 10//10 13//13 14//14
f 10//10 14//14 11//11
f 10//10 6//6 13//13
f 11//11 15//15 16//16
f 11//11 16//16 12//12
f 11//11 14//14 17//17
f 11//11 17//17 15//15
f 15//15 18//18 19//19
f 15//15 19//19 16//16
f 15//15 17//17 18//18
f 18//18 20//20 21//21
f 18//18 21//21 19//19
f 18//18 17//17 22//22
f 18//18 22//22 20//20
f 20//20 23//23 21//21
f 20//20 22//22 24//24
f 20//20 24//24 23//23
f 4//4 12//12 16//16
f 4//4 16//16 25//25
f 4//4 25//25 26//26
f 4//4 26//26 5//5
f 16//16 19//19 21//21
f 16//16 21//21 27//27
f 16//16 27//27 25//25
f 25//25 27//27 28//28
f 25//25 28//28 26//26
f 21//21 23//23 29//29
f 21//21 29//29 27//27
f 30//30 31//31 32//32
f 30//30 33//33 34//34
f 30//30 34//34 31//31
f 30//30 35//35 36//36
f 30//30 32//32 35//35
f 30//30 36//36 33//33
f 31//31 37//37 38//38
f 31//31 34//34 39//39
f 31//31 39//39 37//37
f 31//31 38//38 32//32
f 37//37 40//40 41//41
f 37//37 39//39 42//42
f 37//37 42//42 40//40
f 37//37 41//41 38//38
f 40//40 43//43 41//41
f 40//40 42//42 44//44
f 40//40 44//44 43//43
f 43//43 44//44 45//45
f 43//43 45//45 46//46
f 43//43 47//47 41//41
f 43//43 46//46 47//47
f 5//5 48//48 7//7
f 5//5 26//26 48//48
f 7//7 48//48 49//49
f 7//7 33//33 36//36
f 7//7 49//49 33//33
f 7//7 36//36 8//8
f 48//48 50//50 49//49
f 48//48 26//26 28//28
f 48//48 28//28 50//50
f 33//33 49//49 50//50
f 33//33 50//50 51//51
f 33//33 51//51 34//34
f 50//50 28//28 52//52
f 50//50 52//52 51//51
f 51//51 52//52 53//53
f 51//51 53//53 34//34
f 34//34 53//53 54//54
f 34//34 54//54 39//39
f 39//39 54//54 55//55
f 39//39 55//55 42//42
f 42//42 55//55 56//56
f 42//42 56//56 44//44
f 44//44 56//56 57//57
f 44//44 57//57 45//45
f 23//23 58//58 54//54
f 23//23 54//54 29//29
f 23//23 24//24 59//59
f 23//23 59//59 58//58
f 58//58 60//60 55//55
f 58//58 55//55 54//54
f 58//58 59//59 61//61
f 58//58 61//61 60//60
f 60//60 62//62 56//56
f 60//60 56//56 55//55
f 60//60 61//61 63//63
f 60//60 63//63 62//62
f 62//62 45//45 57//57
f 62//62 57//57 56//56
f 62//62 63//63 46//46
f 62//62 46//46 45//45
f 27//27 29//29 28//28
f 28//28 29//29 64//64
f 28//28 64//64 52//52
f 29//29 52//52 64//64
f 29//29 53//53 52//52
f 29//29 54//54 53//53
f 65//65 66//66 13//13
f 65//65 67//67 66//66
f 65//65 3//3 9//9
f 65//65 9//9 67//67
f 65//65 13//13 3//3
f 66//66 67//67 68//68
f 66//66 69//69 14//14
f 66//66 68//68 69//69
f 66//66 14//14 13//13
f 67//67 9//9 70//70
f 67//67 70//70 68//68
f 69//69 68//68 71//71
f 69//69 71//71 72//72
f 69//69 72//72 73//73
f 69//69 73//73 14//14
f 68//68 72//72 71//71
f 68//68 74//74 72//72
f 68//68 75//75 74//74
f 68//68 76//76 75//75
f 68//68 77//77 76//76
f 68//68 78//78 77//77
f 68//68 79//79 78//78
f 68//68 70//70 35//35
f 68//68 35//35 79//79
f 72//72 74//74 80//80
f 72//72 80//80 73//73
f 74//74 75//75 81//81
f 74//74 81//81 80//80
f 75//75 76//76 82//82
f 75//75 82//82 81//81
f 76//76 77//77 83//83
f 76//76 83//83 82//82
f 77//77 78//78 84//84
f 77//77 84//84 83//83
f 78//78 79//79 85//85
f 78//78 85//85 84//84
f 79//79 86//86 87//87
f 79//79 87//87 85//85
f 79//79 35//35 32//32
f 79//79 32//32 86//86
f 86//86 88//88 89//89
f 86//86 89//89 87//87
f 86//86 32//32 38//38
f 86//86 38//38 88//88
f 88//88 90//90 91//91
f 88//88 91//91 89//89
f 88//88 38//38 41//41
f 88//88 41//41 90//90
f 90//90 92//92 91//91
f 90//90 41//41 47//47
f 90//90 47//47 92//92
f 3//3 13//13 6//6
f 9//9 8//8 70//70
f 14//14 93//93 17//17
f 14//14 73//73 22//22
f 14//14 22//22 93//93
f 93//93 22//22 17//17
f 73//73 80//80 22//22
f 22//22 80//80 81//81
f 22//22 81//81 82//82
f 22//22 82//82 83//83
f 22//22 83//83 84//84
f 22//22 84//84 85//85
f 22//22 85//85 87//87
f 22//22 87//87 24//24
f 87//87 89//89 59//59
f 87//87 59//59 24//24
f 89//89 91//91 61//61
f 89//89 61//61 59//59
f 91//91 92//92 63//63
f 91//91 63//63 61//61
f 92//92 47//47 46//46
f 92//92 46//46 63//63
f 70//70 8//8 36//36
f 70//70 36//36 35//35
# 182 faces, 0 coords texture

# End of File
