####
#
# OBJ File Generated by Meshlab
#
####
# Object step_19_link_5.obj
#
# Vertices: 74
# Faces: 144
#
####
vn 3.895891 1.181013 4.461609
v 0.226097 0.078613 0.717300
vn 3.144583 1.561152 4.341484
v 0.224358 0.080301 0.718318
vn 2.219244 -0.359919 5.755650
v 0.224358 -0.021677 0.718318
vn 3.183586 -0.628902 5.292159
v 0.226097 -0.023120 0.717300
vn 4.201089 0.618256 4.532576
v 0.365643 -0.024763 0.612769
vn 4.111456 3.034447 2.101623
v 0.365622 -0.024405 0.612686
vn 1.154786 2.757410 2.465182
v 0.222721 0.082164 0.718711
vn 1.397820 0.091833 6.114187
v 0.222666 0.081337 0.718758
vn 0.957676 -0.132616 6.174008
v 0.222666 -0.020516 0.718758
vn 0.976541 0.126700 6.167702
v 0.222656 0.081360 0.718760
vn 0.445844 0.184185 6.243508
v 0.222647 0.081379 0.718760
vn 0.143139 0.296331 6.269844
v 0.222637 0.081395 0.718760
vn 1.270115 4.942561 -1.613344
v 0.222721 0.082164 0.617116
vn -1.267443 2.723552 2.238316
v 0.118274 0.082164 0.718711
vn 0.506486 -0.101295 6.236227
v 0.222656 -0.020488 0.718760
vn 0.140738 -0.035287 6.278848
v 0.222647 -0.020462 0.718760
vn -0.029162 0.057498 6.282194
v 0.117778 0.081379 0.718760
vn -0.164169 0.192758 6.270149
v 0.117752 0.081395 0.718760
vn -1.857067 3.872978 -1.849976
v 0.118274 0.082164 0.617116
vn 1.828144 3.285851 -2.852317
v 0.365622 -0.024405 0.506893
vn -0.544493 2.815400 -5.179066
v 0.255167 -0.024405 0.506893
vn 1.152138 -2.371320 5.138183
v 0.224526 -0.023760 0.717963
vn 3.658877 -0.876468 4.874269
v 0.365643 -0.133588 0.612769
vn 0.569845 -0.982937 6.027920
v 0.222721 -0.021648 0.718711
vn -0.742946 -3.665713 4.509626
v 0.123094 -0.023760 0.717963
vn -0.987198 -5.029341 1.848863
v 0.255167 -0.133929 0.612686
vn 1.704928 -3.490956 2.383142
v 0.365622 -0.133929 0.612686
vn 1.380638 -0.162289 6.125807
v 0.222674 -0.020545 0.718756
vn -2.256062 -2.070477 2.640336
v 0.118274 -0.021648 0.718711
vn -0.077162 -0.237291 6.276412
v 0.117810 -0.020488 0.718760
vn -0.258306 -0.248525 6.261955
v 0.117778 -0.020462 0.718760
vn -0.422451 0.277850 6.246154
v 0.117731 0.081408 0.718759
vn -0.844096 0.400056 6.176082
v 0.117715 0.081418 0.718757
vn -1.513290 0.602149 5.976861
v 0.117704 0.081425 0.718754
vn -2.672041 0.971772 5.292594
v 0.117696 0.081430 0.718752
vn -4.158122 1.525794 3.169650
v 0.117692 0.081432 0.718748
vn -5.237178 1.870624 0.952207
v 0.117691 0.081433 0.718745
vn -0.642638 -0.371158 6.201717
v 0.117752 -0.020438 0.718760
vn -1.325372 -0.600773 6.000268
v 0.117731 -0.020416 0.718759
vn -2.507377 -1.014335 5.181853
v 0.117715 -0.020395 0.718757
vn -3.533010 -1.261953 3.062821
v 0.117704 -0.020375 0.718754
vn -4.072322 -1.043463 2.777517
v 0.117696 -0.020358 0.718752
vn -5.041094 -0.560944 2.276518
v 0.117692 -0.020343 0.718748
vn -6.121517 -0.147795 0.895870
v 0.117691 -0.020329 0.718745
vn -4.056597 1.577295 -2.100405
v 0.117691 0.081433 0.616991
vn -3.097747 1.484160 -4.994557
v 0.117692 0.081432 0.616990
vn -2.330930 1.016188 -5.287234
v 0.253513 -0.025120 0.507094
vn -5.112103 -0.133468 -2.360925
v 0.117691 -0.020329 0.616991
vn -4.644963 -3.241525 -1.252177
v 0.118274 -0.021648 0.617116
vn -3.243488 -5.181127 0.735497
v 0.253513 -0.133073 0.612546
vn -5.213373 -2.421949 -1.744338
v 0.117704 -0.020375 0.616991
vn -5.122187 -1.719144 -2.009255
v 0.117696 -0.020358 0.616990
vn -5.004599 -0.675395 -2.298651
v 0.117692 -0.020343 0.616990
vn -2.439190 -2.325495 -2.786022
v 0.253513 -0.133073 0.507094
vn 5.689951 0.823246 1.218248
v 0.369344 -0.028185 0.609315
vn 4.452127 1.929390 1.973504
v 0.369186 -0.027803 0.609590
vn 3.610782 -2.474694 1.746097
v 0.369186 -0.132565 0.609590
vn 5.388888 0.762421 -1.649728
v 0.369344 -0.028185 0.506572
vn 3.335416 1.869872 -2.578042
v 0.369186 -0.027803 0.506384
vn 5.681982 -0.842340 1.212816
v 0.369344 -0.132192 0.609315
vn 5.381658 -0.779745 -1.643223
v 0.369344 -0.132192 0.506572
vn 2.822936 -2.206032 -2.214174
v 0.369186 -0.132565 0.506384
vn 1.637870 2.282588 -5.417111
v 0.368158 -0.027372 0.506155
vn 0.937701 0.735926 -5.949659
v 0.367816 -0.028116 0.505886
vn 0.836538 -1.078126 -5.810060
v 0.367816 -0.132408 0.505886
vn -0.208317 0.721055 -6.161566
v 0.263705 -0.028116 0.505886
vn 2.342420 -5.824637 0.121112
v 0.368158 -0.132989 0.609883
vn 1.517263 -3.650933 -2.958733
v 0.368158 -0.132989 0.506155
vn 0.638287 -4.961931 -2.124504
v 0.365622 -0.133929 0.506893
vn -0.084229 -3.181317 -5.355334
v 0.263303 -0.132989 0.506155
vn -0.215172 -1.225932 -5.976121
v 0.263705 -0.132408 0.505886
vn -0.983742 -3.646166 -2.574130
v 0.255167 -0.133929 0.506893
vn -1.005877 1.029934 -5.977366
v 0.254930 -0.024763 0.506830
vn -1.194152 -1.168352 -5.879026
v 0.254930 -0.133588 0.506830
# 74 vertices, 0 vertices normals

f 1//1 2//2 3//3
f 1//1 4//4 5//5
f 1//1 3//3 4//4
f 1//1 6//6 2//2
f 1//1 5//5 6//6
f 2//2 7//7 8//8
f 2//2 8//8 9//9
f 2//2 9//9 3//3
f 2//2 6//6 7//7
f 7//7 10//10 8//8
f 7//7 11//11 10//10
f 7//7 12//12 11//11
f 7//7 13//13 14//14
f 7//7 14//14 12//12
f 7//7 6//6 13//13
f 8//8 10//10 15//15
f 8//8 15//15 9//9
f 10//10 11//11 16//16
f 10//10 16//16 15//15
f 11//11 12//12 17//17
f 11//11 17//17 16//16
f 12//12 14//14 18//18
f 12//12 18//18 17//17
f 13//13 19//19 14//14
f 13//13 6//6 20//20
f 13//13 20//20 21//21
f 13//13 21//21 19//19
f 4//4 22//22 23//23
f 4//4 3//3 22//22
f 4//4 23//23 5//5
f 22//22 3//3 24//24
f 22//22 24//24 25//25
f 22//22 25//25 26//26
f 22//22 27//27 23//23
f 22//22 26//26 27//27
f 3//3 28//28 24//24
f 3//3 9//9 28//28
f 24//24 28//28 9//9
f 24//24 9//9 15//15
f 24//24 15//15 29//29
f 24//24 29//29 25//25
f 15//15 16//16 30//30
f 15//15 30//30 29//29
f 16//16 17//17 31//31
f 16//16 31//31 30//30
f 14//14 32//32 18//18
f 14//14 33//33 32//32
f 14//14 34//34 33//33
f 14//14 35//35 34//34
f 14//14 36//36 35//35
f 14//14 37//37 36//36
f 14//14 19//19 37//37
f 17//17 18//18 38//38
f 17//17 38//38 31//31
f 18//18 32//32 39//39
f 18//18 39//39 38//38
f 32//32 33//33 40//40
f 32//32 40//40 39//39
f 33//33 34//34 41//41
f 33//33 41//41 40//40
f 34//34 35//35 42//42
f 34//34 42//42 41//41
f 35//35 36//36 43//43
f 35//35 43//43 42//42
f 36//36 37//37 44//44
f 36//36 44//44 43//43
f 37//37 19//19 45//45
f 37//37 45//45 44//44
f 19//19 46//46 45//45
f 19//19 21//21 47//47
f 19//19 47//47 46//46
f 46//46 47//47 45//45
f 45//45 48//48 44//44
f 45//45 47//47 48//48
f 25//25 29//29 26//26
f 29//29 30//30 31//31
f 29//29 31//31 38//38
f 29//29 38//38 39//39
f 29//29 39//39 40//40
f 29//29 40//40 41//41
f 29//29 41//41 49//49
f 29//29 49//49 50//50
f 29//29 50//50 26//26
f 41//41 42//42 51//51
f 41//41 51//51 49//49
f 42//42 43//43 52//52
f 42//42 52//52 51//51
f 43//43 44//44 53//53
f 43//43 53//53 52//52
f 44//44 48//48 53//53
f 49//49 51//51 54//54
f 49//49 54//54 50//50
f 51//51 52//52 54//54
f 52//52 53//53 54//54
f 53//53 48//48 54//54
f 48//48 47//47 54//54
f 55//55 56//56 57//57
f 55//55 58//58 59//59
f 55//55 59//59 56//56
f 55//55 60//60 58//58
f 55//55 57//57 60//60
f 56//56 6//6 5//5
f 56//56 5//5 23//23
f 56//56 59//59 20//20
f 56//56 20//20 6//6
f 56//56 23//23 57//57
f 58//58 60//60 61//61
f 58//58 61//61 62//62
f 58//58 62//62 59//59
f 59//59 63//63 20//20
f 59//59 64//64 63//63
f 59//59 62//62 64//64
f 63//63 64//64 20//20
f 64//64 62//62 65//65
f 64//64 65//65 66//66
f 64//64 66//66 20//20
f 20//20 66//66 21//21
f 60//60 57//57 62//62
f 60//60 62//62 61//61
f 57//57 67//67 68//68
f 57//57 27//27 67//67
f 57//57 23//23 27//27
f 57//57 68//68 62//62
f 67//67 27//27 69//69
f 67//67 69//69 68//68
f 27//27 26//26 69//69
f 62//62 68//68 65//65
f 68//68 69//69 70//70
f 68//68 70//70 71//71
f 68//68 71//71 65//65
f 65//65 71//71 66//66
f 69//69 26//26 72//72
f 69//69 72//72 70//70
f 66//66 73//73 21//21
f 66//66 71//71 74//74
f 66//66 74//74 73//73
f 21//21 73//73 47//47
f 73//73 74//74 54//54
f 73//73 54//54 47//47
f 26//26 50//50 54//54
f 26//26 54//54 72//72
f 70//70 72//72 71//71
f 71//71 72//72 74//74
f 72//72 54//54 74//74
# 144 faces, 0 coords texture

# End of File
