####
#
# OBJ File Generated by Meshlab
#
####
# Object step_44_link_5.obj
#
# Vertices: 66
# Faces: 128
#
####
vn 1.803569 0.866166 5.274858
v 0.091328 0.122994 0.748511
vn 0.925995 2.842867 5.523141
v 0.089049 0.125273 0.747748
vn 0.472721 2.525166 5.677481
v 0.087659 0.125701 0.747749
vn 0.180505 2.576890 5.640428
v 0.087641 0.125707 0.747747
vn -0.417401 0.682392 6.121894
v -0.011297 0.122994 0.748511
vn 2.083076 -2.007210 3.288375
v 0.091328 0.020775 0.748511
vn 4.691608 -1.478604 1.875057
v 0.207129 0.159903 0.646055
vn 4.221026 1.539299 2.079320
v 0.207129 0.265995 0.646055
vn 2.591307 3.277436 2.503462
v 0.200247 0.274244 0.647651
vn 0.825892 4.132176 4.295046
v 0.199211 0.274457 0.647713
vn 0.030269 3.136561 5.425806
v 0.087625 0.125710 0.747746
vn -0.383186 1.773075 5.914068
v -0.014717 0.125707 0.747747
vn -0.966625 2.585039 5.326654
v -0.014723 0.125710 0.747746
vn -0.215444 3.878495 4.898442
v 0.090002 0.274457 0.647713
vn 3.314382 -4.979537 0.873339
v 0.091154 0.020407 0.747744
vn 0.807459 -4.644729 2.216098
v 0.089202 0.019483 0.747680
vn 4.642275 -4.109090 0.515301
v 0.091450 0.020684 0.747613
vn 3.339795 -5.001192 -0.808627
v 0.091154 0.020407 0.647206
vn 5.111049 -3.345672 1.335731
v 0.091750 0.021190 0.747984
vn -0.431491 -1.535437 5.726251
v -0.011297 0.020775 0.748511
vn 4.518470 -4.306212 -0.333958
v 0.091450 0.020684 0.647325
vn 0.856105 -4.782882 -2.119030
v 0.089202 0.019483 0.647141
vn -1.201238 -4.000625 2.356813
v -0.012886 0.019483 0.747680
vn 2.564187 -4.408901 -2.732060
v 0.091328 0.020775 0.646417
vn 2.601366 -1.609090 -2.491497
v 0.207129 0.159903 0.543668
vn -1.090605 -4.569117 -2.083422
v -0.012886 0.019483 0.647141
vn -0.092592 -3.028354 -5.437429
v 0.101756 0.159903 0.543668
vn -3.138664 1.146388 2.490120
v -0.015200 0.125273 0.747748
vn -2.802623 -1.510347 2.090381
v -0.015200 0.020921 0.747748
vn -2.627889 3.458942 3.904863
v -0.014726 0.125711 0.747744
vn -4.084046 4.180677 1.228178
v 0.088530 0.274976 0.646894
vn -4.959894 1.189295 -1.674095
v -0.015200 0.125273 0.646681
vn -0.666087 4.684317 3.703681
v 0.089001 0.275345 0.646883
vn -1.693463 4.888517 1.626440
v 0.088991 0.275349 0.646874
vn -3.691867 -2.008356 -1.711008
v -0.015200 0.020921 0.646681
vn -3.621024 2.600145 -2.402070
v 0.088530 0.274976 0.543107
vn -2.199198 1.151215 -4.948398
v 0.089286 0.274244 0.542282
vn -1.983883 -1.128389 -5.037478
v 0.089286 0.163617 0.542282
vn -1.868913 -4.317107 -3.756726
v -0.014723 0.020787 0.646442
vn -2.040819 -3.309594 -4.529895
v -0.014726 0.020792 0.646439
vn -0.344394 -1.672827 -5.736025
v 0.090002 0.163571 0.542228
vn -2.759347 -2.093368 -5.186771
v -0.014727 0.020797 0.646437
vn 6.230941 0.077605 0.518781
v 0.207309 0.261827 0.645066
vn 6.225785 0.077133 -0.546480
v 0.207309 0.261827 0.544609
vn 3.434770 1.167279 -2.413557
v 0.207129 0.265995 0.543668
vn 6.183257 -0.462761 0.411823
v 0.207309 0.160812 0.645066
vn 1.976940 2.413333 -2.730505
v 0.200247 0.274244 0.542282
vn 1.979819 5.611371 1.115774
v 0.198875 0.274976 0.646894
vn 1.110522 5.401777 2.452340
v 0.197539 0.275335 0.646891
vn 1.977021 5.638019 -1.060558
v 0.198875 0.274976 0.543107
vn 0.643632 5.207529 2.159264
v 0.197504 0.275345 0.646883
vn 0.642972 5.315883 -2.053064
v 0.197504 0.275345 0.543142
vn 0.221985 6.006634 1.139114
v 0.197474 0.275349 0.646874
vn 0.226087 6.058907 -1.011814
v 0.197474 0.275349 0.543151
vn 6.178622 -0.457924 -0.436722
v 0.207309 0.160812 0.544609
vn 1.332885 0.082259 -6.135644
v 0.204800 0.266650 0.543123
vn 1.232991 -0.113489 -6.155074
v 0.204800 0.162770 0.543123
vn 0.616384 -0.652995 -6.143904
v 0.200247 0.163617 0.542282
vn 0.592705 2.684442 -4.579441
v 0.199211 0.274457 0.542228
vn 1.038571 5.436250 -2.382919
v 0.197539 0.275335 0.543133
vn 0.110515 -1.099652 -6.061419
v 0.199211 0.163571 0.542228
vn -0.342664 2.208084 -5.262931
v 0.090002 0.274457 0.542228
vn -1.036002 4.466335 -3.621491
v 0.089001 0.275345 0.543142
vn -1.776061 4.781383 -1.682201
v 0.088991 0.275349 0.543151
vn -3.472333 5.181138 0.153200
v 0.088988 0.275347 0.646866
vn -3.465037 5.188856 -0.134383
v 0.088988 0.275347 0.543161
# 66 vertices, 0 vertices normals

f 1//1 2//2 3//3
f 1//1 3//3 4//4
f 1//1 4//4 5//5
f 1//1 6//6 7//7
f 1//1 5//5 6//6
f 1//1 8//8 9//9
f 1//1 9//9 2//2
f 1//1 7//7 8//8
f 2//2 9//9 10//10
f 2//2 10//10 3//3
f 3//3 10//10 4//4
f 4//4 11//11 12//12
f 4//4 12//12 5//5
f 4//4 10//10 11//11
f 11//11 13//13 12//12
f 11//11 10//10 14//14
f 11//11 14//14 13//13
f 15//15 6//6 16//16
f 15//15 17//17 6//6
f 15//15 16//16 18//18
f 15//15 18//18 17//17
f 19//19 6//6 17//17
f 19//19 17//17 7//7
f 19//19 7//7 6//6
f 6//6 5//5 20//20
f 6//6 20//20 16//16
f 17//17 18//18 21//21
f 17//17 21//21 7//7
f 16//16 22//22 18//18
f 16//16 20//20 23//23
f 16//16 23//23 22//22
f 18//18 24//24 25//25
f 18//18 22//22 24//24
f 18//18 25//25 21//21
f 24//24 22//22 25//25
f 21//21 25//25 7//7
f 22//22 23//23 26//26
f 22//22 26//26 27//27
f 22//22 27//27 25//25
f 5//5 28//28 29//29
f 5//5 12//12 28//28
f 5//5 29//29 20//20
f 28//28 12//12 13//13
f 28//28 13//13 30//30
f 28//28 30//30 31//31
f 28//28 32//32 29//29
f 28//28 31//31 32//32
f 13//13 14//14 33//33
f 13//13 33//33 30//30
f 30//30 33//33 34//34
f 30//30 34//34 31//31
f 32//32 35//35 29//29
f 32//32 31//31 36//36
f 32//32 37//37 38//38
f 32//32 36//36 37//37
f 32//32 38//38 35//35
f 20//20 29//29 23//23
f 23//23 29//29 26//26
f 29//29 35//35 26//26
f 26//26 35//35 39//39
f 26//26 39//39 40//40
f 26//26 40//40 41//41
f 26//26 41//41 27//27
f 35//35 40//40 39//39
f 35//35 42//42 40//40
f 35//35 38//38 42//42
f 40//40 42//42 38//38
f 40//40 38//38 41//41
f 43//43 8//8 7//7
f 43//43 44//44 45//45
f 43//43 45//45 8//8
f 43//43 46//46 44//44
f 43//43 7//7 46//46
f 8//8 45//45 47//47
f 8//8 47//47 9//9
f 9//9 48//48 49//49
f 9//9 49//49 10//10
f 9//9 47//47 50//50
f 9//9 50//50 48//48
f 10//10 49//49 51//51
f 10//10 51//51 14//14
f 48//48 51//51 49//49
f 48//48 50//50 52//52
f 48//48 52//52 51//51
f 51//51 53//53 33//33
f 51//51 52//52 54//54
f 51//51 54//54 53//53
f 51//51 33//33 14//14
f 53//53 54//54 34//34
f 53//53 34//34 33//33
f 44//44 46//46 55//55
f 44//44 55//55 25//25
f 44//44 25//25 45//45
f 45//45 56//56 47//47
f 45//45 25//25 57//57
f 45//45 57//57 56//56
f 56//56 57//57 58//58
f 56//56 58//58 47//47
f 47//47 59//59 60//60
f 47//47 60//60 50//50
f 47//47 58//58 61//61
f 47//47 61//61 59//59
f 59//59 52//52 60//60
f 59//59 61//61 62//62
f 59//59 62//62 52//52
f 50//50 60//60 52//52
f 52//52 62//62 63//63
f 52//52 63//63 54//54
f 54//54 63//63 64//64
f 54//54 64//64 34//34
f 46//46 7//7 25//25
f 46//46 25//25 55//55
f 25//25 58//58 57//57
f 25//25 61//61 58//58
f 25//25 27//27 61//61
f 61//61 27//27 41//41
f 61//61 41//41 62//62
f 31//31 34//34 65//65
f 31//31 65//65 66//66
f 31//31 66//66 36//36
f 34//34 64//64 66//66
f 34//34 66//66 65//65
f 37//37 62//62 41//41
f 37//37 36//36 63//63
f 37//37 63//63 62//62
f 37//37 41//41 38//38
f 36//36 64//64 63//63
f 36//36 66//66 64//64
# 128 faces, 0 coords texture

# End of File
