####
#
# OBJ File Generated by Meshlab
#
####
# Object step_33_link_4.obj
#
# Vertices: 74
# Faces: 144
#
####
vn 3.924141 0.348567 -3.507554
v 0.098536 0.071721 0.438713
vn 2.435487 2.407075 -2.649681
v 0.098391 0.072433 0.438717
vn 5.885550 1.183658 -0.699309
v 0.140192 0.109145 0.641622
vn 0.659772 1.258508 -5.794093
v 0.097572 0.072069 0.438433
vn 3.884644 -0.696049 -3.195394
v 0.098536 -0.028529 0.438713
vn 5.741239 -1.502510 -0.456505
v 0.140192 0.008634 0.641622
vn 0.608751 4.371564 -3.432047
v 0.097709 0.072555 0.438690
vn 3.296807 4.019256 -0.661587
v 0.139662 0.110471 0.641640
vn -0.048278 3.955388 -4.688963
v -0.002957 0.072555 0.438690
vn 0.177879 5.588004 -2.411037
v 0.094964 0.072986 0.439253
vn 0.879974 6.128535 -0.694427
v 0.138290 0.110708 0.641584
vn 0.886438 -2.731906 -3.687940
v 0.097572 -0.029176 0.438433
vn -0.457038 1.468518 -5.775687
v -0.003598 0.072069 0.438433
vn -1.805253 2.910117 -2.406854
v -0.007433 0.072986 0.439253
vn -2.123893 5.241057 -0.322823
v 0.027960 0.111336 0.642411
vn 0.351684 6.186884 -0.573119
v 0.133223 0.111336 0.642411
vn 3.527450 -5.136590 0.108304
v 0.098391 -0.028933 0.539116
vn 1.383356 -5.847061 0.385794
v 0.097555 -0.029383 0.539180
vn 1.294128 -5.720565 -0.806335
v 0.097555 -0.029383 0.439058
vn 3.045649 -2.646318 -2.367913
v 0.098391 -0.028933 0.438717
vn 4.802938 -3.917895 -0.142304
v 0.139662 0.007766 0.641640
vn 3.171405 -2.208567 2.422752
v 0.139662 0.007766 0.742478
vn 0.010762 -6.202912 0.993611
v 0.094964 -0.029313 0.539680
vn -0.033264 -6.252300 0.417730
v -0.003830 -0.029383 0.539180
vn 1.480604 -5.224776 1.931406
v 0.137969 0.006899 0.742656
vn -1.681457 -5.631857 0.630209
v -0.007433 -0.029313 0.539680
vn -0.043638 -6.057605 1.579204
v 0.035095 0.006899 0.742656
vn -0.338989 -2.799132 -4.082229
v -0.003598 -0.029176 0.438433
vn -0.100104 -6.102702 -1.025976
v -0.003830 -0.029383 0.439058
vn -4.855926 3.968369 0.049797
v -0.007433 0.072986 0.539680
vn -5.479706 2.897722 0.217930
v -0.007953 0.072276 0.539729
vn -1.330193 2.744414 2.215075
v 0.027960 0.111336 0.743869
vn -3.582434 1.512119 -2.747792
v -0.007953 0.072276 0.439265
vn -6.017492 1.025818 0.415969
v -0.007955 0.072273 0.539728
vn -2.767112 1.413162 3.030812
v 0.026960 0.109897 0.744003
vn -4.779095 0.642669 -2.245025
v -0.007955 0.072273 0.439266
vn -5.822172 -1.374092 0.587611
v -0.007955 -0.028981 0.539728
vn -3.545992 -0.486916 3.378288
v 0.026958 0.008042 0.744003
vn -3.558118 0.515939 3.251265
v 0.026958 0.109890 0.744003
vn -1.596809 0.821792 -5.955165
v -0.007944 0.072285 0.439263
vn -2.981678 1.728302 -4.120666
v -0.007950 0.072281 0.439264
vn -2.424187 -2.506021 -2.940514
v -0.007950 -0.028987 0.439264
vn -3.238841 -1.927045 -2.608212
v -0.007953 -0.028984 0.439265
vn -4.702453 -0.818963 -2.159059
v -0.007955 -0.028981 0.439266
vn -1.348139 -3.791271 -2.425997
v -0.007433 -0.029313 0.439253
vn -3.619530 -4.950934 0.769760
v -0.007950 -0.028987 0.539729
vn -0.927065 -3.504273 3.207916
v 0.027960 0.007328 0.743869
vn -4.729023 -3.638347 0.722669
v -0.007953 -0.028984 0.539729
vn -1.964762 -2.416684 3.673707
v 0.026967 0.008029 0.744003
vn -2.650165 -1.558120 3.465479
v 0.026960 0.008036 0.744003
vn -1.865240 -2.146502 -5.087856
v -0.007944 -0.028990 0.439263
vn 5.518154 0.756255 1.507362
v 0.140192 0.109145 0.741756
vn 2.413271 2.355937 1.974796
v 0.139662 0.110471 0.742478
vn 5.325256 -1.140454 1.384673
v 0.140192 0.008634 0.741756
vn 1.010466 6.106584 0.705223
v 0.138290 0.110708 0.742566
vn 0.459738 3.168748 2.999844
v 0.133223 0.111336 0.743869
vn 1.646660 0.799944 5.837987
v 0.137996 0.109688 0.743209
vn 0.859593 0.167386 6.218695
v 0.132771 0.109951 0.743994
vn 0.839711 -0.322991 6.208749
v 0.132771 0.008002 0.743994
vn 1.508711 -2.402815 4.461724
v 0.137996 0.007301 0.743209
vn 0.692489 0.191326 6.235177
v 0.132744 0.109939 0.743998
vn 0.466195 0.238724 6.251432
v 0.132720 0.109927 0.744000
vn 0.242104 0.279407 6.259490
v 0.132699 0.109916 0.744002
vn 0.662337 -0.408328 6.214942
v 0.132744 0.008008 0.743998
vn 0.402703 -0.528110 6.215494
v 0.132720 0.008015 0.744000
vn 0.106939 0.223585 6.269941
v 0.132682 0.109906 0.744003
vn 0.219674 -0.562786 6.218624
v 0.132699 0.008022 0.744002
vn -0.064267 0.602897 6.252905
v 0.026978 0.109916 0.744002
vn 0.017371 0.034312 6.282833
v 0.132667 0.109897 0.744003
vn 0.101599 -0.324835 6.259901
v 0.132682 0.008029 0.744003
vn -2.451722 1.872877 3.769724
v 0.026967 0.109906 0.744003
vn 0.016488 -0.046256 6.282651
v 0.132667 0.008036 0.744003
vn 0.311397 -3.204907 4.159849
v 0.133223 0.007328 0.743869
vn -0.831339 -2.058927 5.627644
v 0.026978 0.008022 0.744002
# 74 vertices, 0 vertices normals

f 1//1 2//2 3//3
f 1//1 4//4 2//2
f 1//1 5//5 4//4
f 1//1 3//3 6//6
f 1//1 6//6 5//5
f 2//2 7//7 8//8
f 2//2 4//4 7//7
f 2//2 8//8 3//3
f 7//7 4//4 9//9
f 7//7 10//10 11//11
f 7//7 9//9 10//10
f 7//7 11//11 8//8
f 4//4 5//5 12//12
f 4//4 12//12 13//13
f 4//4 13//13 9//9
f 10//10 9//9 14//14
f 10//10 14//14 15//15
f 10//10 16//16 11//11
f 10//10 15//15 16//16
f 17//17 18//18 19//19
f 17//17 20//20 21//21
f 17//17 19//19 20//20
f 17//17 22//22 18//18
f 17//17 21//21 22//22
f 18//18 23//23 24//24
f 18//18 24//24 19//19
f 18//18 22//22 25//25
f 18//18 25//25 23//23
f 23//23 26//26 24//24
f 23//23 25//25 27//27
f 23//23 27//27 26//26
f 5//5 20//20 12//12
f 5//5 6//6 20//20
f 20//20 19//19 12//12
f 20//20 6//6 21//21
f 12//12 19//19 28//28
f 12//12 28//28 13//13
f 19//19 24//24 29//29
f 19//19 29//29 28//28
f 30//30 31//31 32//32
f 30//30 14//14 33//33
f 30//30 33//33 31//31
f 30//30 32//32 15//15
f 30//30 15//15 14//14
f 31//31 34//34 35//35
f 31//31 33//33 36//36
f 31//31 36//36 34//34
f 31//31 35//35 32//32
f 34//34 36//36 37//37
f 34//34 37//37 38//38
f 34//34 39//39 35//35
f 34//34 38//38 39//39
f 9//9 13//13 14//14
f 13//13 40//40 14//14
f 13//13 41//41 40//40
f 13//13 28//28 42//42
f 13//13 42//42 41//41
f 14//14 40//40 41//41
f 14//14 41//41 33//33
f 41//41 42//42 33//33
f 33//33 42//42 43//43
f 33//33 43//43 36//36
f 36//36 43//43 44//44
f 36//36 44//44 37//37
f 24//24 26//26 45//45
f 24//24 45//45 29//29
f 26//26 46//46 42//42
f 26//26 42//42 45//45
f 26//26 27//27 47//47
f 26//26 47//47 46//46
f 46//46 48//48 43//43
f 46//46 43//43 42//42
f 46//46 47//47 49//49
f 46//46 49//49 48//48
f 48//48 37//37 44//44
f 48//48 44//44 43//43
f 48//48 49//49 50//50
f 48//48 50//50 37//37
f 37//37 50//50 38//38
f 28//28 29//29 45//45
f 28//28 45//45 51//51
f 28//28 51//51 42//42
f 45//45 42//42 51//51
f 52//52 53//53 22//22
f 52//52 3//3 8//8
f 52//52 8//8 53//53
f 52//52 54//54 3//3
f 52//52 22//22 54//54
f 53//53 55//55 56//56
f 53//53 57//57 22//22
f 53//53 56//56 57//57
f 53//53 8//8 11//11
f 53//53 11//11 55//55
f 55//55 11//11 16//16
f 55//55 16//16 56//56
f 57//57 56//56 58//58
f 57//57 58//58 59//59
f 57//57 60//60 22//22
f 57//57 59//59 60//60
f 56//56 61//61 58//58
f 56//56 62//62 61//61
f 56//56 63//63 62//62
f 56//56 16//16 32//32
f 56//56 32//32 63//63
f 58//58 61//61 59//59
f 61//61 62//62 64//64
f 61//61 64//64 59//59
f 62//62 63//63 65//65
f 62//62 65//65 64//64
f 63//63 66//66 67//67
f 63//63 67//67 65//65
f 63//63 32//32 68//68
f 63//63 68//68 66//66
f 66//66 69//69 70//70
f 66//66 70//70 67//67
f 66//66 68//68 71//71
f 66//66 71//71 69//69
f 69//69 72//72 70//70
f 69//69 71//71 35//35
f 69//69 35//35 72//72
f 3//3 54//54 6//6
f 16//16 15//15 32//32
f 54//54 22//22 21//21
f 54//54 21//21 6//6
f 22//22 60//60 25//25
f 60//60 73//73 25//25
f 60//60 59//59 73//73
f 25//25 73//73 27//27
f 73//73 59//59 64//64
f 73//73 64//64 65//65
f 73//73 65//65 67//67
f 73//73 67//67 47//47
f 73//73 47//47 27//27
f 67//67 70//70 74//74
f 67//67 74//74 47//47
f 70//70 72//72 49//49
f 70//70 49//49 74//74
f 72//72 35//35 50//50
f 72//72 50//50 49//49
f 32//32 71//71 68//68
f 32//32 35//35 71//71
f 35//35 39//39 50//50
f 39//39 38//38 50//50
f 47//47 74//74 49//49
# 144 faces, 0 coords texture

# End of File
