####
#
# OBJ File Generated by Meshlab
#
####
# Object step_9_link_5.obj
#
# Vertices: 65
# Faces: 126
#
####
vn 1.183022 2.469722 2.482535
v 0.273432 0.057518 0.693132
vn 1.879382 0.047335 5.651599
v 0.273445 0.056674 0.693139
vn 3.739136 2.369349 2.066609
v 0.424268 -0.031517 0.581994
vn 1.094425 5.303543 -1.450683
v 0.273432 0.057518 0.591501
vn -1.403747 2.313055 2.049142
v 0.168927 0.057518 0.693132
vn 1.861889 -0.021780 5.667595
v 0.273445 -0.045275 0.693139
vn -0.048674 0.022218 6.282549
v 0.168751 0.056674 0.693139
vn -2.143966 3.506829 -1.659101
v 0.168927 0.057518 0.591501
vn 1.963265 2.342066 -2.506143
v 0.424268 -0.031517 0.476197
vn -1.303494 1.913716 -4.592228
v 0.314222 -0.031517 0.476197
vn 0.490164 -4.384685 4.382522
v 0.274069 -0.053524 0.691273
vn 0.969168 -1.926778 5.143576
v 0.273163 -0.051757 0.692964
vn -2.052986 -4.499556 2.087774
v 0.173601 -0.053524 0.691273
vn -0.581868 -5.517961 1.746989
v 0.315092 -0.141047 0.581713
vn 1.024161 -5.074011 2.643772
v 0.424241 -0.141047 0.581713
vn 2.352092 -2.417514 4.159120
v 0.424268 -0.140802 0.581994
vn 3.076014 -0.899634 5.284810
v 0.274269 -0.051647 0.692430
vn 1.825495 -0.106968 5.679142
v 0.273432 -0.046462 0.693132
vn -1.603786 -2.480314 4.048635
v 0.172209 -0.051757 0.692964
vn 0.614585 -0.046828 6.222117
v 0.273444 -0.045336 0.693139
vn -2.899883 -1.109589 2.860132
v 0.168927 -0.046462 0.693132
vn -0.005143 -0.041243 6.283043
v 0.168789 -0.045336 0.693139
vn -0.120189 -0.043672 6.280416
v 0.168751 -0.045275 0.693139
vn -0.178515 0.039243 6.278625
v 0.168718 0.056715 0.693139
vn -0.383765 0.062697 6.267770
v 0.168689 0.056750 0.693137
vn -0.645186 0.095950 6.242312
v 0.168665 0.056780 0.693135
vn -0.961734 0.142617 6.195429
v 0.168644 0.056806 0.693132
vn -1.380856 0.206856 6.100310
v 0.168627 0.056826 0.693129
vn -1.960843 0.304670 5.906584
v 0.168614 0.056843 0.693124
vn -2.754550 0.452549 5.502698
v 0.168604 0.056855 0.693120
vn -3.770342 0.680704 4.674396
v 0.168598 0.056864 0.693115
vn -4.820200 1.022964 3.101690
v 0.168594 0.056870 0.693110
vn -5.509718 1.493302 1.131636
v 0.168593 0.056873 0.693105
vn -0.341232 -0.063872 6.269047
v 0.168718 -0.045217 0.693139
vn -0.657232 -0.101972 6.237947
v 0.168689 -0.045164 0.693137
vn -1.102399 -0.163336 6.157760
v 0.168665 -0.045114 0.693135
vn -1.703872 -0.251024 5.980378
v 0.168644 -0.045068 0.693132
vn -2.570305 -0.390832 5.530338
v 0.168627 -0.045026 0.693129
vn -3.639608 -0.561729 4.497450
v 0.168614 -0.044988 0.693124
vn -4.398150 -0.651687 2.864907
v 0.168604 -0.044953 0.693120
vn -4.946707 -0.553756 2.461970
v 0.168598 -0.044923 0.693115
vn -5.620836 -0.318953 1.821933
v 0.168594 -0.044896 0.693110
vn -6.177765 -0.099988 0.740645
v 0.168593 -0.044873 0.693105
vn -4.268059 1.277652 -2.294685
v 0.168593 0.056873 0.591391
vn -5.083502 -0.103397 -2.411328
v 0.168593 -0.044873 0.591391
vn -4.367663 -3.499066 1.555930
v 0.171705 -0.051647 0.692430
vn -4.553243 -3.002410 -1.751370
v 0.171705 -0.051647 0.590941
vn -3.920785 -4.678141 -0.733485
v 0.173601 -0.053524 0.591008
vn -1.567372 -5.264144 1.653390
v 0.314222 -0.140802 0.581994
vn -5.026177 -1.764991 -1.941530
v 0.168927 -0.046462 0.591501
vn -5.126320 -0.933373 -2.288773
v 0.168598 -0.044923 0.591390
vn -5.057334 -0.431921 -2.388284
v 0.168594 -0.044896 0.591390
vn -1.691782 -2.410418 -2.714412
v 0.314222 -0.140802 0.476197
vn -5.201077 -1.251573 -2.350466
v 0.168604 -0.044953 0.591392
vn 5.068205 0.898428 1.838772
v 0.426926 -0.036725 0.579484
vn 3.382123 0.860179 -2.637194
v 0.426926 -0.036725 0.476041
vn 3.104984 -2.285318 1.300469
v 0.426926 -0.141097 0.579484
vn 0.571403 0.234114 -6.207280
v 0.425515 -0.037403 0.475768
vn 2.243505 -1.726431 -1.728008
v 0.426926 -0.141097 0.476041
vn 0.528303 -2.927677 -2.926809
v 0.425515 -0.141373 0.475768
vn -0.127944 0.180150 -6.270868
v 0.321717 -0.037403 0.475768
vn 0.828866 -5.996847 0.896370
v 0.425515 -0.141373 0.579784
vn -0.091151 -6.236875 0.475822
v 0.321717 -0.141373 0.579784
vn -0.162708 -3.082502 -3.089903
v 0.321717 -0.141373 0.475768
vn -0.835951 -5.763736 -1.371807
v 0.315092 -0.141047 0.476449
# 65 vertices, 0 vertices normals

f 1//1 2//2 3//3
f 1//1 4//4 5//5
f 1//1 5//5 2//2
f 1//1 3//3 4//4
f 2//2 6//6 3//3
f 2//2 5//5 7//7
f 2//2 7//7 6//6
f 4//4 8//8 5//5
f 4//4 3//3 9//9
f 4//4 9//9 10//10
f 4//4 10//10 8//8
f 11//11 12//12 13//13
f 11//11 13//13 14//14
f 11//11 15//15 16//16
f 11//11 16//16 12//12
f 11//11 14//14 15//15
f 17//17 12//12 16//16
f 17//17 18//18 12//12
f 17//17 16//16 18//18
f 12//12 18//18 19//19
f 12//12 19//19 13//13
f 18//18 20//20 21//21
f 18//18 6//6 20//20
f 18//18 21//21 19//19
f 18//18 16//16 6//6
f 20//20 6//6 22//22
f 20//20 22//22 21//21
f 6//6 7//7 23//23
f 6//6 23//23 22//22
f 6//6 16//16 3//3
f 5//5 24//24 7//7
f 5//5 25//25 24//24
f 5//5 26//26 25//25
f 5//5 27//27 26//26
f 5//5 28//28 27//27
f 5//5 29//29 28//28
f 5//5 30//30 29//29
f 5//5 31//31 30//30
f 5//5 32//32 31//31
f 5//5 33//33 32//32
f 5//5 8//8 33//33
f 7//7 24//24 34//34
f 7//7 34//34 23//23
f 24//24 25//25 35//35
f 24//24 35//35 34//34
f 25//25 26//26 36//36
f 25//25 36//36 35//35
f 26//26 27//27 37//37
f 26//26 37//37 36//36
f 27//27 28//28 38//38
f 27//27 38//38 37//37
f 28//28 29//29 39//39
f 28//28 39//39 38//38
f 29//29 30//30 40//40
f 29//29 40//40 39//39
f 30//30 31//31 41//41
f 30//30 41//41 40//40
f 31//31 32//32 42//42
f 31//31 42//42 41//41
f 32//32 33//33 43//43
f 32//32 43//43 42//42
f 33//33 8//8 44//44
f 33//33 44//44 43//43
f 8//8 10//10 44//44
f 44//44 45//45 43//43
f 44//44 10//10 45//45
f 13//13 46//46 47//47
f 13//13 19//19 46//46
f 13//13 48//48 49//49
f 13//13 47//47 48//48
f 13//13 49//49 14//14
f 46//46 19//19 21//21
f 46//46 21//21 50//50
f 46//46 50//50 47//47
f 21//21 22//22 23//23
f 21//21 23//23 34//34
f 21//21 34//34 35//35
f 21//21 35//35 36//36
f 21//21 36//36 37//37
f 21//21 37//37 38//38
f 21//21 38//38 39//39
f 21//21 39//39 40//40
f 21//21 40//40 41//41
f 21//21 41//41 50//50
f 41//41 42//42 51//51
f 41//41 51//51 50//50
f 42//42 43//43 52//52
f 42//42 52//52 51//51
f 43//43 45//45 52//52
f 48//48 47//47 53//53
f 48//48 53//53 49//49
f 47//47 50//50 53//53
f 50//50 54//54 53//53
f 50//50 51//51 54//54
f 54//54 51//51 53//53
f 51//51 52//52 53//53
f 52//52 45//45 53//53
f 45//45 10//10 53//53
f 55//55 3//3 16//16
f 55//55 56//56 9//9
f 55//55 9//9 3//3
f 55//55 57//57 56//56
f 55//55 16//16 57//57
f 56//56 58//58 9//9
f 56//56 57//57 59//59
f 56//56 59//59 58//58
f 58//58 59//59 60//60
f 58//58 60//60 61//61
f 58//58 61//61 9//9
f 9//9 61//61 10//10
f 57//57 62//62 60//60
f 57//57 15//15 62//62
f 57//57 16//16 15//15
f 57//57 60//60 59//59
f 62//62 15//15 63//63
f 62//62 63//63 60//60
f 15//15 14//14 63//63
f 60//60 63//63 64//64
f 60//60 64//64 61//61
f 61//61 64//64 53//53
f 61//61 53//53 10//10
f 63//63 14//14 65//65
f 63//63 65//65 64//64
f 14//14 49//49 53//53
f 14//14 53//53 65//65
f 64//64 65//65 53//53
# 126 faces, 0 coords texture

# End of File
