####
#
# OBJ File Generated by Meshlab
#
####
# Object step_5_link_7.obj
#
# Vertices: 54
# Faces: 104
#
####
vn 0.343103 0.083995 6.257514
v 0.490889 -0.158070 0.527595
vn 1.392619 0.352812 5.874719
v 0.499615 -0.133543 0.526517
vn -1.972583 0.633228 5.447216
v 0.386983 -0.133543 0.526517
vn 0.699782 -1.196009 5.880106
v 0.490889 -0.264365 0.527595
vn 3.143636 -0.744355 4.399997
v 0.499615 -0.245760 0.526517
vn -1.504344 0.238373 5.866681
v 0.384769 -0.158070 0.527595
vn 3.790118 0.692004 4.147060
v 0.500228 -0.132204 0.526183
vn 1.444671 2.718783 2.791886
v 0.499971 -0.131426 0.526181
vn -1.605961 2.701534 2.222991
v 0.387266 -0.131426 0.526181
vn 4.349609 -0.243802 4.047419
v 0.500228 -0.243143 0.526183
vn 4.822407 2.005617 1.152068
v 0.621144 -0.105050 0.283560
vn 2.254928 5.001724 0.867688
v 0.620015 -0.103985 0.283656
vn -1.251609 5.960561 0.202406
v 0.444288 -0.103985 0.283656
vn 0.779022 -4.020239 3.031241
v 0.486697 -0.268843 0.525956
vn 2.662598 -2.436668 3.742268
v 0.491987 -0.264845 0.527223
vn -1.160253 -0.867825 5.755072
v 0.384769 -0.264365 0.527595
vn -1.942075 -2.731206 1.880063
v 0.385206 -0.268843 0.525956
vn -1.067758 -6.041331 0.210163
v 0.454885 -0.297588 0.273880
vn 0.676283 -6.153171 0.413688
v 0.598096 -0.297588 0.273880
vn 2.841153 -4.916803 0.864469
v 0.606025 -0.295767 0.277034
vn 4.729293 -3.604382 0.984765
v 0.620067 -0.280022 0.281600
vn 4.343234 -3.939971 2.227576
v 0.620805 -0.278262 0.283338
vn 5.133207 -1.650917 1.443238
v 0.621144 -0.277748 0.283560
vn -4.464038 0.132543 3.345155
v 0.384022 -0.158511 0.527223
vn -5.999033 0.489720 1.118427
v 0.383849 -0.156382 0.526212
vn -6.236186 -0.091730 0.479393
v 0.383849 -0.261370 0.526212
vn -3.943223 1.481170 2.517829
v 0.386812 -0.132204 0.526183
vn -3.694370 -1.112577 2.746374
v 0.384022 -0.264845 0.527223
vn -6.194040 0.323564 -0.548513
v 0.383849 -0.156382 0.423017
vn -5.771771 1.818268 -0.475134
v 0.386812 -0.132204 0.419179
vn -4.134614 4.284816 -0.218237
v 0.387266 -0.131426 0.419081
vn -2.993986 1.466886 -2.673043
v 0.443129 -0.105050 0.119252
vn -6.221517 -0.097362 -0.559131
v 0.383849 -0.261370 0.423017
vn -2.932723 -1.116998 -3.201350
v 0.443129 -0.277748 0.119252
vn -1.129947 3.301898 -2.434256
v 0.444288 -0.103985 0.119333
vn -4.215275 -3.738911 -0.184178
v 0.385206 -0.268843 0.425008
vn -2.371577 -5.818339 0.006276
v 0.450380 -0.295767 0.277034
vn -5.966919 -1.140988 -0.681155
v 0.384022 -0.264845 0.422259
vn -2.386851 -3.630055 -2.112358
v 0.450380 -0.295767 0.126855
vn 3.098462 1.337385 -2.282185
v 0.621144 -0.105050 0.119252
vn 1.191458 3.252337 -2.333939
v 0.620015 -0.103985 0.119333
vn 0.706297 0.742526 -6.065928
v 0.620511 -0.105084 0.119114
vn 2.933564 -1.112317 -2.634487
v 0.621144 -0.277748 0.119252
vn 0.465089 -0.730990 -6.091491
v 0.620511 -0.277295 0.119114
vn -0.549096 0.679835 -6.124637
v 0.443937 -0.105084 0.119114
vn 0.471332 -6.022000 -0.908585
v 0.598096 -0.297588 0.131666
vn 2.003350 -4.125872 -2.015490
v 0.606025 -0.295767 0.126855
vn 4.253748 -3.581746 -1.574757
v 0.620067 -0.280022 0.120794
vn -0.881489 -5.892176 -0.810841
v 0.454885 -0.297588 0.131666
vn 0.216671 -3.966655 -4.285490
v 0.605087 -0.295619 0.126552
vn 2.183281 -2.856063 -4.104148
v 0.620805 -0.278262 0.119410
vn -0.401909 -3.878092 -4.286801
v 0.451092 -0.295619 0.126552
vn -1.090155 -2.504135 -5.472178
v 0.443462 -0.278262 0.119410
vn -0.350597 -0.763535 -6.113817
v 0.443937 -0.277295 0.119114
# 54 vertices, 0 vertices normals

f 1//1 2//2 3//3
f 1//1 4//4 5//5
f 1//1 5//5 2//2
f 1//1 6//6 4//4
f 1//1 3//3 6//6
f 2//2 7//7 8//8
f 2//2 8//8 9//9
f 2//2 5//5 10//10
f 2//2 10//10 7//7
f 2//2 9//9 3//3
f 7//7 10//10 11//11
f 7//7 11//11 8//8
f 8//8 11//11 12//12
f 8//8 12//12 13//13
f 8//8 13//13 9//9
f 14//14 15//15 4//4
f 14//14 4//4 16//16
f 14//14 17//17 18//18
f 14//14 16//16 17//17
f 14//14 19//19 20//20
f 14//14 20//20 15//15
f 14//14 18//18 19//19
f 15//15 5//5 4//4
f 15//15 20//20 21//21
f 15//15 21//21 22//22
f 15//15 22//22 23//23
f 15//15 23//23 5//5
f 4//4 6//6 16//16
f 5//5 23//23 10//10
f 10//10 23//23 11//11
f 24//24 6//6 3//3
f 24//24 25//25 26//26
f 24//24 3//3 27//27
f 24//24 27//27 25//25
f 24//24 28//28 16//16
f 24//24 16//16 6//6
f 24//24 26//26 28//28
f 25//25 27//27 29//29
f 25//25 29//29 26//26
f 3//3 9//9 27//27
f 27//27 9//9 30//30
f 27//27 30//30 29//29
f 9//9 31//31 30//30
f 9//9 13//13 31//31
f 29//29 30//30 32//32
f 29//29 33//33 26//26
f 29//29 32//32 34//34
f 29//29 34//34 33//33
f 30//30 31//31 32//32
f 31//31 13//13 35//35
f 31//31 35//35 32//32
f 17//17 28//28 36//36
f 17//17 16//16 28//28
f 17//17 36//36 37//37
f 17//17 37//37 18//18
f 28//28 26//26 38//38
f 28//28 38//38 36//36
f 26//26 33//33 38//38
f 36//36 38//38 34//34
f 36//36 39//39 37//37
f 36//36 34//34 39//39
f 38//38 33//33 34//34
f 11//11 40//40 41//41
f 11//11 41//41 12//12
f 11//11 23//23 40//40
f 12//12 41//41 13//13
f 40//40 42//42 41//41
f 40//40 23//23 43//43
f 40//40 43//43 44//44
f 40//40 44//44 42//42
f 42//42 44//44 45//45
f 42//42 45//45 41//41
f 41//41 45//45 35//35
f 41//41 35//35 13//13
f 19//19 46//46 20//20
f 19//19 18//18 46//46
f 20//20 46//46 47//47
f 20//20 47//47 21//21
f 21//21 23//23 22//22
f 21//21 47//47 48//48
f 21//21 48//48 43//43
f 21//21 43//43 23//23
f 46//46 18//18 49//49
f 46//46 49//49 39//39
f 46//46 39//39 47//47
f 47//47 50//50 51//51
f 47//47 51//51 48//48
f 47//47 39//39 50//50
f 50//50 39//39 52//52
f 50//50 52//52 53//53
f 50//50 53//53 51//51
f 48//48 51//51 43//43
f 51//51 53//53 34//34
f 51//51 34//34 43//43
f 43//43 34//34 54//54
f 43//43 54//54 44//44
f 44//44 54//54 45//45
f 32//32 45//45 54//54
f 32//32 35//35 45//45
f 32//32 54//54 34//34
f 18//18 37//37 49//49
f 37//37 39//39 49//49
f 39//39 53//53 52//52
f 39//39 34//34 53//53
# 104 faces, 0 coords texture

# End of File
