####
#
# OBJ File Generated by Meshlab
#
####
# Object step_44_link_6.obj
#
# Vertices: 59
# Faces: 114
#
####
vn 2.754768 0.342239 5.415948
v 0.207129 0.265995 0.646055
vn 1.470599 0.045243 6.107299
v 0.204800 0.266650 0.646637
vn 1.416358 -0.062067 6.119686
v 0.204800 0.162770 0.646637
vn 1.339870 1.331491 5.642073
v 0.200247 0.274244 0.647651
vn 1.599877 -2.501925 2.206763
v 0.207129 0.159903 0.646055
vn 4.570149 -1.486878 1.873609
v 0.268674 0.228636 0.594900
vn 4.173907 1.505870 2.107001
v 0.268674 0.336356 0.594900
vn 0.721261 -0.739735 6.094974
v 0.200247 0.163617 0.647651
vn 0.251124 1.758651 5.689155
v 0.199211 0.274457 0.647713
vn 0.124857 -1.239246 5.998584
v 0.199211 0.163571 0.647713
vn 2.873893 3.177699 2.620340
v 0.259147 0.347894 0.596839
vn 1.112650 3.782813 4.641539
v 0.258098 0.348198 0.596930
vn -0.477428 1.890854 5.539483
v 0.090002 0.274457 0.647713
vn 0.683133 4.809625 2.588466
v 0.256243 0.349217 0.596294
vn -0.267149 4.272597 4.439913
v 0.144000 0.349217 0.596294
vn -0.485043 -4.363356 2.574774
v 0.101756 0.159903 0.646055
vn 1.558126 -4.300528 -1.733742
v 0.207129 0.159903 0.543668
vn -0.427792 -2.026806 5.440629
v 0.090002 0.163571 0.647713
vn -0.621692 -4.831775 -2.307657
v 0.101756 0.159903 0.543668
vn -0.126903 -2.781706 -5.492465
v 0.161486 0.228636 0.490761
vn 2.502734 -1.517585 -2.439414
v 0.268674 0.228636 0.490761
vn -2.211742 1.033242 5.058221
v 0.089286 0.274244 0.647651
vn -1.657551 3.627435 4.705440
v 0.089001 0.275345 0.646883
vn -3.934215 1.719529 2.115845
v 0.088530 0.274976 0.646894
vn -3.825400 -2.118165 1.321895
v 0.088530 0.163949 0.646894
vn -1.818253 -2.352688 2.750226
v 0.089286 0.163617 0.647651
vn -2.765711 4.061181 3.683027
v 0.088991 0.275349 0.646874
vn -1.319361 4.787138 2.117319
v 0.143983 0.349224 0.596284
vn -4.946794 1.305166 -1.606753
v 0.088530 0.274976 0.543107
vn -2.707141 4.846759 0.523242
v 0.143976 0.349224 0.596273
vn -4.489613 0.071073 -4.388247
v 0.089286 0.274244 0.542282
vn -3.812253 1.293036 -4.072071
v 0.143776 0.348689 0.490160
vn -2.380710 -2.861629 -2.535188
v 0.089286 0.163617 0.542282
vn -3.888018 -2.156872 -1.256436
v 0.088530 0.163949 0.543107
vn -3.580850 -0.383560 -5.032093
v 0.143776 0.234482 0.490160
vn -2.959367 4.144248 -0.950305
v 0.143976 0.349224 0.490227
vn -0.592620 -3.674381 -5.053709
v 0.090002 0.163571 0.542228
vn -1.677565 -1.310539 -5.442911
v 0.145194 0.233805 0.489402
vn -0.503468 -1.621039 -5.730316
v 0.145806 0.233734 0.489335
vn 6.263028 0.066840 0.309789
v 0.268870 0.330850 0.593125
vn 6.261707 0.066490 -0.321566
v 0.268870 0.330850 0.492476
vn 3.196463 1.102809 -2.456384
v 0.268674 0.336356 0.490761
vn 6.201462 -0.551167 0.224250
v 0.268870 0.229557 0.593125
vn 2.184085 2.339242 -2.862192
v 0.259147 0.347894 0.489402
vn 2.041372 5.092412 1.578937
v 0.257791 0.348878 0.596204
vn 1.998782 5.192336 -1.465611
v 0.257791 0.348878 0.490181
vn 1.080141 4.680884 3.995697
v 0.256286 0.349200 0.596302
vn 0.638443 5.104408 -2.368114
v 0.256243 0.349217 0.490201
vn 0.340603 5.650397 1.661564
v 0.256205 0.349224 0.596284
vn 0.355349 5.865854 -1.320276
v 0.256205 0.349224 0.490214
vn 6.200419 -0.548191 -0.233550
v 0.268870 0.229557 0.492476
vn 0.581881 -0.327682 -6.226536
v 0.259147 0.233805 0.489402
vn 0.718949 2.514957 -4.798425
v 0.258098 0.348198 0.489335
vn 0.133600 -0.786831 -6.161674
v 0.258098 0.233734 0.489335
vn 0.840874 4.936064 -3.733615
v 0.256286 0.349200 0.490188
vn -0.375743 1.934307 -5.482794
v 0.145806 0.348198 0.489335
vn -1.302756 3.340075 -4.263500
v 0.144000 0.349217 0.490201
vn -2.007341 3.623348 -2.173349
v 0.143983 0.349224 0.490214
vn -1.765089 0.656846 -5.773354
v 0.145194 0.347894 0.489402
# 59 vertices, 0 vertices normals

f 1//1 2//2 3//3
f 1//1 4//4 2//2
f 1//1 5//5 6//6
f 1//1 3//3 5//5
f 1//1 7//7 4//4
f 1//1 6//6 7//7
f 2//2 4//4 8//8
f 2//2 8//8 3//3
f 4//4 9//9 10//10
f 4//4 10//10 8//8
f 4//4 7//7 11//11
f 4//4 11//11 12//12
f 4//4 12//12 9//9
f 9//9 13//13 10//10
f 9//9 12//12 14//14
f 9//9 14//14 15//15
f 9//9 15//15 13//13
f 5//5 3//3 8//8
f 5//5 8//8 10//10
f 5//5 10//10 16//16
f 5//5 17//17 6//6
f 5//5 16//16 17//17
f 10//10 13//13 18//18
f 10//10 18//18 16//16
f 17//17 16//16 19//19
f 17//17 19//19 20//20
f 17//17 21//21 6//6
f 17//17 20//20 21//21
f 22//22 13//13 23//23
f 22//22 24//24 25//25
f 22//22 23//23 24//24
f 22//22 26//26 18//18
f 22//22 18//18 13//13
f 22//22 25//25 26//26
f 13//13 15//15 23//23
f 24//24 23//23 27//27
f 24//24 27//27 28//28
f 24//24 29//29 25//25
f 24//24 28//28 30//30
f 24//24 30//30 29//29
f 23//23 15//15 28//28
f 23//23 28//28 27//27
f 31//31 29//29 32//32
f 31//31 33//33 34//34
f 31//31 34//34 29//29
f 31//31 32//32 35//35
f 31//31 35//35 33//33
f 29//29 34//34 25//25
f 29//29 30//30 36//36
f 29//29 36//36 32//32
f 16//16 26//26 33//33
f 16//16 18//18 26//26
f 16//16 33//33 19//19
f 26//26 25//25 34//34
f 26//26 34//34 33//33
f 19//19 33//33 37//37
f 19//19 37//37 20//20
f 33//33 20//20 37//37
f 33//33 38//38 39//39
f 33//33 39//39 20//20
f 33//33 35//35 38//38
f 40//40 7//7 6//6
f 40//40 41//41 42//42
f 40//40 42//42 7//7
f 40//40 43//43 41//41
f 40//40 6//6 43//43
f 7//7 42//42 44//44
f 7//7 44//44 11//11
f 11//11 45//45 12//12
f 11//11 44//44 46//46
f 11//11 46//46 45//45
f 12//12 45//45 47//47
f 12//12 47//47 14//14
f 45//45 14//14 47//47
f 45//45 46//46 48//48
f 45//45 48//48 14//14
f 14//14 49//49 15//15
f 14//14 48//48 50//50
f 14//14 50//50 49//49
f 49//49 50//50 28//28
f 49//49 28//28 15//15
f 41//41 43//43 51//51
f 41//41 51//51 21//21
f 41//41 21//21 42//42
f 42//42 21//21 52//52
f 42//42 52//52 44//44
f 44//44 53//53 46//46
f 44//44 52//52 54//54
f 44//44 54//54 53//53
f 53//53 55//55 46//46
f 53//53 48//48 55//55
f 53//53 54//54 56//56
f 53//53 56//56 48//48
f 46//46 55//55 48//48
f 48//48 56//56 57//57
f 48//48 57//57 50//50
f 50//50 57//57 58//58
f 50//50 58//58 28//28
f 43//43 6//6 21//21
f 43//43 21//21 51//51
f 21//21 54//54 52//52
f 21//21 20//20 54//54
f 54//54 20//20 39//39
f 54//54 39//39 56//56
f 28//28 58//58 36//36
f 28//28 36//36 30//30
f 59//59 56//56 39//39
f 59//59 32//32 57//57
f 59//59 57//57 56//56
f 59//59 38//38 35//35
f 59//59 39//39 38//38
f 59//59 35//35 32//32
f 32//32 58//58 57//57
f 32//32 36//36 58//58
# 114 faces, 0 coords texture

# End of File
