####
#
# OBJ File Generated by Meshlab
#
####
# Object step_13_link_4.obj
#
# Vertices: 70
# Faces: 136
#
####
vn 3.210515 0.185872 -4.613503
v 0.154096 0.048017 0.418006
vn 3.484552 1.391911 -4.213392
v 0.154055 0.048742 0.418067
vn 5.781820 0.304594 -1.596136
v 0.259733 0.063266 0.599427
vn 1.036504 1.643987 -5.484106
v 0.153429 0.049046 0.417904
vn 1.941561 -2.216940 -2.513693
v 0.154096 -0.052144 0.418006
vn 0.437839 -2.974890 -2.974330
v 0.153429 -0.052258 0.417904
vn 3.501806 -2.559677 -0.856997
v 0.259733 -0.037067 0.599427
vn 1.700437 3.819553 -2.835423
v 0.153427 0.050584 0.418784
vn 3.057440 3.679468 -0.833224
v 0.258421 0.068645 0.600677
vn 5.499571 1.333877 -1.597775
v 0.259611 0.064722 0.599529
vn 0.112215 4.634815 -3.039013
v 0.152738 0.050632 0.418785
vn -0.705352 1.218592 -5.757787
v 0.052873 0.049046 0.417904
vn 0.273824 6.237695 -0.398650
v 0.257048 0.068748 0.600672
vn -0.542046 4.376658 -2.791086
v 0.050667 0.050632 0.418785
vn -0.458144 6.223884 -0.206181
v 0.152803 0.068748 0.600672
vn 0.368157 -6.244411 0.170442
v 0.153429 -0.052258 0.518996
vn 1.092563 -6.182516 -0.078930
v 0.258354 -0.037340 0.599192
vn -1.671570 -5.639235 0.691787
v 0.052873 -0.052258 0.518996
vn 1.000269 -3.613664 2.858878
v 0.258354 -0.037340 0.701436
vn -0.523245 -4.021440 3.066337
v 0.157235 -0.037340 0.701436
vn -0.994107 -2.673754 -2.582306
v 0.052873 -0.052258 0.417904
vn -3.532207 3.475908 0.769247
v 0.050406 0.050584 0.519268
vn -1.126565 6.181271 0.009789
v 0.050667 0.050632 0.519275
vn -5.472518 0.849567 2.773593
v 0.050322 0.050270 0.519297
vn -5.146653 1.037749 3.163572
v 0.152110 0.068079 0.702397
vn -5.734762 0.703763 1.373197
v 0.050321 0.050269 0.519295
vn -2.216796 2.272785 -1.959604
v 0.050406 0.050584 0.418784
vn -5.901101 0.677191 -1.082355
v 0.050321 0.050269 0.418812
vn -1.887863 3.150846 2.645019
v 0.152281 0.068645 0.702266
vn -0.342487 3.630851 2.913788
v 0.152803 0.068748 0.702287
vn -5.875057 -0.211493 1.410303
v 0.050321 -0.050112 0.519295
vn -5.265151 -0.060268 3.394800
v 0.152110 -0.033356 0.702397
vn -2.074325 0.054343 -5.930394
v 0.050335 0.050268 0.418803
vn -2.133208 -0.032288 -5.909672
v 0.050335 -0.050144 0.418803
vn -2.550157 0.117800 -5.712962
v 0.050328 0.050269 0.418805
vn -3.649033 0.303161 -5.002996
v 0.050324 0.050270 0.418807
vn -5.013432 0.606240 -3.264228
v 0.050322 0.050270 0.418810
vn -2.694018 -0.092218 -5.634762
v 0.050328 -0.050134 0.418805
vn -3.959772 -0.209670 -4.695941
v 0.050324 -0.050125 0.418807
vn -5.243839 -0.342204 -2.594602
v 0.050322 -0.050118 0.418810
vn -6.018643 -0.220309 -1.116894
v 0.050321 -0.050112 0.418812
vn -4.210581 -2.709157 1.152856
v 0.050406 -0.050837 0.519268
vn -3.206243 -1.819130 -2.058532
v 0.050406 -0.050837 0.418784
vn -2.267651 -2.217953 3.531793
v 0.152281 -0.034738 0.702266
vn -5.776007 -0.532258 1.931793
v 0.050322 -0.050118 0.519297
vn -3.996048 -0.322690 4.326453
v 0.152112 -0.033368 0.702400
vn 6.259082 0.190423 0.240975
v 0.259733 0.063266 0.699692
vn 5.404067 0.620477 1.869713
v 0.259611 0.064722 0.700925
vn 3.390317 -2.218972 1.921309
v 0.259611 -0.036948 0.700925
vn 3.724396 -2.983957 0.221167
v 0.259733 -0.037067 0.699692
vn 1.758939 2.015222 1.925769
v 0.258421 0.068645 0.702266
vn 2.172988 -0.677165 5.113073
v 0.258421 -0.034738 0.702266
vn 0.166515 3.628673 3.027150
v 0.257048 0.068748 0.702287
vn 0.107504 0.515258 6.235524
v 0.256834 0.068071 0.702404
vn 0.335789 0.184922 6.261467
v 0.256848 0.068064 0.702404
vn 0.232789 -0.138702 6.267079
v 0.256848 -0.033436 0.702404
vn 0.017187 0.970585 6.206671
v 0.256821 0.068076 0.702403
vn 0.042702 -0.025795 6.282573
v 0.256834 -0.033416 0.702404
vn -0.101383 0.379785 6.250809
v 0.152138 0.068071 0.702404
vn -0.576545 0.708700 6.132263
v 0.152125 0.068076 0.702403
vn 0.042172 -1.245313 6.114427
v 0.257048 -0.034736 0.702287
vn 0.255083 -0.281903 6.259237
v 0.256863 -0.033458 0.702402
vn -0.138105 -1.416330 6.050747
v 0.152803 -0.034736 0.702287
vn -0.142140 -0.548171 6.252979
v 0.152177 -0.033458 0.702402
vn -0.348872 -0.443046 6.235188
v 0.152155 -0.033436 0.702404
vn -0.717825 -0.410936 6.169941
v 0.152138 -0.033416 0.702404
vn -1.567849 0.915164 5.821687
v 0.152117 0.068079 0.702402
vn -3.546065 1.108538 4.364752
v 0.152112 0.068079 0.702400
vn -1.508301 -0.449713 5.939011
v 0.152125 -0.033398 0.702403
vn -2.843878 -0.495123 5.179262
v 0.152117 -0.033382 0.702402
# 70 vertices, 0 vertices normals

f 1//1 2//2 3//3
f 1//1 4//4 2//2
f 1//1 5//5 6//6
f 1//1 6//6 4//4
f 1//1 3//3 7//7
f 1//1 7//7 5//5
f 2//2 4//4 8//8
f 2//2 8//8 9//9
f 2//2 10//10 3//3
f 2//2 9//9 10//10
f 4//4 11//11 8//8
f 4//4 6//6 12//12
f 4//4 12//12 11//11
f 8//8 11//11 13//13
f 8//8 13//13 9//9
f 11//11 12//12 14//14
f 11//11 14//14 15//15
f 11//11 15//15 13//13
f 16//16 6//6 17//17
f 16//16 18//18 6//6
f 16//16 19//19 20//20
f 16//16 17//17 19//19
f 16//16 20//20 18//18
f 5//5 7//7 17//17
f 5//5 17//17 6//6
f 6//6 18//18 21//21
f 6//6 21//21 12//12
f 22//22 23//23 14//14
f 22//22 24//24 25//25
f 22//22 26//26 24//24
f 22//22 27//27 28//28
f 22//22 14//14 27//27
f 22//22 28//28 26//26
f 22//22 29//29 30//30
f 22//22 30//30 23//23
f 22//22 25//25 29//29
f 23//23 30//30 15//15
f 23//23 15//15 14//14
f 24//24 26//26 25//25
f 26//26 28//28 31//31
f 26//26 31//31 32//32
f 26//26 32//32 25//25
f 12//12 27//27 14//14
f 12//12 33//33 27//27
f 12//12 21//21 34//34
f 12//12 34//34 33//33
f 27//27 33//33 35//35
f 27//27 35//35 36//36
f 27//27 36//36 37//37
f 27//27 37//37 28//28
f 33//33 34//34 38//38
f 33//33 38//38 35//35
f 35//35 38//38 39//39
f 35//35 39//39 36//36
f 36//36 39//39 40//40
f 36//36 40//40 37//37
f 37//37 40//40 41//41
f 37//37 41//41 28//28
f 28//28 41//41 31//31
f 18//18 42//42 43//43
f 18//18 43//43 21//21
f 18//18 20//20 44//44
f 18//18 44//44 42//42
f 42//42 45//45 31//31
f 42//42 31//31 41//41
f 42//42 41//41 43//43
f 42//42 44//44 46//46
f 42//42 46//46 45//45
f 45//45 46//46 32//32
f 45//45 32//32 31//31
f 21//21 43//43 34//34
f 43//43 38//38 34//34
f 43//43 39//39 38//38
f 43//43 40//40 39//39
f 43//43 41//41 40//40
f 47//47 48//48 49//49
f 47//47 3//3 10//10
f 47//47 10//10 48//48
f 47//47 50//50 3//3
f 47//47 49//49 50//50
f 48//48 51//51 52//52
f 48//48 10//10 9//9
f 48//48 9//9 51//51
f 48//48 52//52 49//49
f 51//51 53//53 54//54
f 51//51 55//55 56//56
f 51//51 54//54 55//55
f 51//51 9//9 13//13
f 51//51 13//13 53//53
f 51//51 56//56 52//52
f 53//53 57//57 54//54
f 53//53 13//13 30//30
f 53//53 30//30 57//57
f 55//55 54//54 58//58
f 55//55 58//58 56//56
f 54//54 57//57 59//59
f 54//54 59//59 58//58
f 57//57 30//30 60//60
f 57//57 60//60 59//59
f 3//3 50//50 7//7
f 13//13 15//15 30//30
f 50//50 49//49 19//19
f 50//50 19//19 17//17
f 50//50 17//17 7//7
f 49//49 52//52 19//19
f 19//19 52//52 61//61
f 19//19 61//61 20//20
f 52//52 62//62 61//61
f 52//52 56//56 62//62
f 61//61 62//62 63//63
f 61//61 63//63 20//20
f 62//62 56//56 64//64
f 62//62 64//64 63//63
f 56//56 58//58 65//65
f 56//56 65//65 64//64
f 58//58 59//59 66//66
f 58//58 66//66 65//65
f 29//29 67//67 30//30
f 29//29 68//68 67//67
f 29//29 25//25 68//68
f 30//30 67//67 60//60
f 59//59 60//60 69//69
f 59//59 69//69 66//66
f 60//60 67//67 70//70
f 60//60 70//70 69//69
f 67//67 68//68 46//46
f 67//67 46//46 70//70
f 68//68 25//25 32//32
f 68//68 32//32 46//46
f 20//20 63//63 44//44
f 44//44 63//63 64//64
f 44//44 64//64 65//65
f 44//44 65//65 66//66
f 44//44 66//66 69//69
f 44//44 69//69 70//70
f 44//44 70//70 46//46
# 136 faces, 0 coords texture

# End of File
