####
#
# OBJ File Generated by Meshlab
#
####
# Object step_18_link_4.obj
#
# Vertices: 86
# Faces: 168
#
####
vn 2.726904 1.000012 -3.980989
v 0.141812 0.054409 0.424423
vn 2.869136 3.762689 -3.292054
v 0.141494 0.054986 0.424604
vn 5.236593 1.568647 -1.351352
v 0.234477 0.075767 0.612208
vn 0.810104 2.943572 -3.747128
v 0.140517 0.055384 0.424426
vn 1.923001 -1.944336 -2.603156
v 0.141812 -0.045760 0.424423
vn -0.004852 0.010576 -6.283154
v 0.041518 0.054409 0.424423
vn 3.896918 -2.542746 -0.791646
v 0.234477 -0.024582 0.612208
vn 2.309471 5.603473 -1.570029
v 0.231849 0.077724 0.612190
vn 3.872957 4.148872 -1.046093
v 0.233808 0.076926 0.612561
vn 0.941354 5.892766 -1.732110
v 0.139966 0.055827 0.425474
vn 2.038461 5.746203 -0.636554
v 0.230750 0.078650 0.614234
vn 0.206437 5.950195 -1.678270
v 0.137566 0.056314 0.426392
vn -0.684522 2.448016 -4.342504
v 0.039822 0.055384 0.424426
vn 0.732914 6.127202 -0.468131
v 0.226026 0.079813 0.615831
vn -1.736596 3.506240 -2.498654
v 0.035417 0.056314 0.426392
vn -0.710439 6.156358 -0.245583
v 0.121611 0.079813 0.615831
vn 0.593519 -6.192374 0.220164
v 0.140517 -0.046163 0.525535
vn 0.432978 -3.111119 -2.883022
v 0.140517 -0.046163 0.424426
vn 1.701173 -6.037860 -0.092307
v 0.231849 -0.025433 0.612190
vn -0.592940 -6.175275 0.415344
v 0.039822 -0.046163 0.525535
vn 1.499329 -4.025318 2.615426
v 0.231849 -0.025433 0.714480
vn -0.163137 -5.924480 1.709037
v 0.130451 -0.025433 0.714480
vn -0.004184 -0.028363 -6.283031
v 0.041518 -0.045760 0.424423
vn -0.771257 -2.729775 -2.853299
v 0.039822 -0.046163 0.424426
vn -2.625233 5.589306 0.230073
v 0.035417 0.056314 0.526869
vn -4.210233 4.298657 0.705471
v 0.034617 0.055782 0.527104
vn -1.859907 2.785748 3.310286
v 0.120005 0.078804 0.717972
vn -4.184522 2.327932 -1.843449
v 0.034617 0.055782 0.426625
vn -0.827702 4.405051 2.397022
v 0.121611 0.079813 0.717434
vn -5.329921 1.629260 1.035303
v 0.034616 0.055780 0.527105
vn -2.707586 1.205994 3.561960
v 0.120002 0.078800 0.717972
vn -5.446216 1.438255 -0.935262
v 0.034616 0.055780 0.426628
vn -5.586344 -1.201561 1.226265
v 0.034616 -0.044739 0.527105
vn -2.831091 -0.713624 4.049642
v 0.120002 -0.022878 0.717972
vn -2.439064 0.664170 -5.712569
v 0.034670 0.055790 0.426596
vn -2.692976 -1.110824 -5.437000
v 0.034670 -0.044770 0.426596
vn -2.652835 0.919338 -5.522274
v 0.034651 0.055789 0.426604
vn -3.013617 1.351286 -5.108064
v 0.034637 0.055788 0.426610
vn -3.428431 1.940081 -4.266524
v 0.034627 0.055786 0.426616
vn -3.704895 2.441249 -2.771068
v 0.034621 0.055784 0.426621
vn -2.965305 -1.590587 -4.949909
v 0.034651 -0.044763 0.426604
vn -3.282997 -2.191737 -3.951528
v 0.034637 -0.044757 0.426610
vn -3.413946 -2.501496 -2.675200
v 0.034627 -0.044752 0.426616
vn -3.857879 -2.345945 -2.329178
v 0.034621 -0.044747 0.426621
vn -4.738672 -1.829488 -1.877108
v 0.034617 -0.044743 0.426625
vn -5.747150 -0.918521 -1.039743
v 0.034616 -0.044739 0.426628
vn -2.261671 -5.507057 0.753884
v 0.035417 -0.045300 0.526869
vn -2.331579 -3.831167 -2.307369
v 0.035417 -0.045300 0.426392
vn -0.881138 -4.377510 3.118944
v 0.121611 -0.023943 0.717434
vn -3.371280 -5.091152 1.004954
v 0.034627 -0.044752 0.527102
vn -1.436068 -3.814435 3.829102
v 0.120026 -0.022902 0.717967
vn -1.733392 -3.132467 3.903052
v 0.120013 -0.022893 0.717970
vn -3.912318 -4.518976 1.086030
v 0.034621 -0.044747 0.527104
vn -4.852239 -3.204357 1.218115
v 0.034617 -0.044743 0.527104
vn -2.296365 -2.048740 4.021265
v 0.120005 -0.022885 0.717972
vn 5.607096 1.178406 0.994948
v 0.234477 0.075767 0.712466
vn 3.434183 2.156651 2.200678
v 0.233808 0.076926 0.713807
vn 2.865446 -2.418607 2.293252
v 0.233808 -0.024801 0.713807
vn 3.932491 -2.526605 0.765835
v 0.234477 -0.024582 0.712466
vn 2.605593 4.735547 1.774821
v 0.230750 0.078650 0.714856
vn 2.809344 1.879896 4.748260
v 0.229518 0.078369 0.716143
vn 2.450848 -1.029527 5.538777
v 0.229518 -0.023695 0.716143
vn 1.140849 3.306681 2.755088
v 0.226026 0.079813 0.717434
vn 2.314656 0.279476 5.827255
v 0.225136 0.078810 0.717886
vn 2.206201 -0.407873 5.852996
v 0.225136 -0.022975 0.717886
vn 2.195466 0.353446 5.862016
v 0.225080 0.078814 0.717908
vn 2.021472 0.456373 5.908976
v 0.225030 0.078816 0.717926
vn 1.817204 0.584147 5.950093
v 0.224985 0.078817 0.717941
vn 1.556248 0.751941 5.981169
v 0.224946 0.078816 0.717952
vn 1.248774 0.949893 5.991340
v 0.224912 0.078814 0.717961
vn 0.868724 1.194600 5.956698
v 0.224884 0.078811 0.717967
vn 0.437101 1.430267 5.878616
v 0.224860 0.078808 0.717970
vn 2.049180 -0.519244 5.886285
v 0.225080 -0.022961 0.717908
vn 1.831107 -0.662618 5.925712
v 0.225030 -0.022947 0.717926
vn 1.572995 -0.836014 5.948918
v 0.224985 -0.022934 0.717941
vn 1.244594 -1.054133 5.943670
v 0.224946 -0.022923 0.717952
vn 0.869080 -1.290048 5.899363
v 0.224912 -0.022912 0.717961
vn 0.588470 -1.386374 5.880712
v 0.224884 -0.022902 0.717967
vn 0.404682 -1.122529 6.023581
v 0.224860 -0.022893 0.717970
vn 0.201694 1.221816 6.000403
v 0.224841 0.078804 0.717972
vn 0.214385 -0.623462 6.198646
v 0.224841 -0.022885 0.717972
vn -0.548724 3.399209 5.122570
v 0.120013 0.078808 0.717970
vn 0.053843 0.309656 6.264089
v 0.224827 0.078800 0.717972
vn 0.058569 -0.175355 6.275709
v 0.224827 -0.022878 0.717972
vn 1.939626 -5.976244 -0.014530
v 0.233808 -0.024801 0.612561
vn 0.935833 -3.094708 4.377638
v 0.226026 -0.023943 0.717434
# 86 vertices, 0 vertices normals

f 1//1 2//2 3//3
f 1//1 4//4 2//2
f 1//1 5//5 6//6
f 1//1 6//6 4//4
f 1//1 3//3 7//7
f 1//1 7//7 5//5
f 2//2 4//4 8//8
f 2//2 9//9 3//3
f 2//2 8//8 9//9
f 4//4 10//10 11//11
f 4//4 12//12 10//10
f 4//4 6//6 13//13
f 4//4 13//13 12//12
f 4//4 11//11 8//8
f 10//10 12//12 14//14
f 10//10 14//14 11//11
f 12//12 13//13 15//15
f 12//12 15//15 16//16
f 12//12 16//16 14//14
f 17//17 18//18 19//19
f 17//17 20//20 18//18
f 17//17 21//21 22//22
f 17//17 19//19 21//21
f 17//17 22//22 20//20
f 5//5 18//18 23//23
f 5//5 23//23 6//6
f 5//5 7//7 19//19
f 5//5 19//19 18//18
f 18//18 20//20 24//24
f 18//18 24//24 23//23
f 25//25 26//26 27//27
f 25//25 15//15 28//28
f 25//25 28//28 26//26
f 25//25 29//29 16//16
f 25//25 27//27 29//29
f 25//25 16//16 15//15
f 26//26 30//30 31//31
f 26//26 28//28 32//32
f 26//26 32//32 30//30
f 26//26 31//31 27//27
f 30//30 32//32 33//33
f 30//30 33//33 34//34
f 30//30 34//34 31//31
f 6//6 23//23 24//24
f 6//6 24//24 13//13
f 13//13 35//35 15//15
f 13//13 24//24 36//36
f 13//13 36//36 35//35
f 15//15 35//35 37//37
f 15//15 37//37 38//38
f 15//15 38//38 39//39
f 15//15 39//39 40//40
f 15//15 40//40 28//28
f 35//35 36//36 41//41
f 35//35 41//41 37//37
f 37//37 41//41 42//42
f 37//37 42//42 38//38
f 38//38 42//42 43//43
f 38//38 43//43 39//39
f 39//39 43//43 44//44
f 39//39 44//44 40//40
f 40//40 44//44 45//45
f 40//40 45//45 28//28
f 28//28 45//45 46//46
f 28//28 46//46 32//32
f 32//32 46//46 33//33
f 20//20 47//47 48//48
f 20//20 48//48 24//24
f 20//20 22//22 49//49
f 20//20 49//49 47//47
f 47//47 50//50 43//43
f 47//47 43//43 48//48
f 47//47 49//49 51//51
f 47//47 51//51 52//52
f 47//47 52//52 50//50
f 50//50 53//53 44//44
f 50//50 44//44 43//43
f 50//50 52//52 53//53
f 53//53 54//54 45//45
f 53//53 45//45 44//44
f 53//53 52//52 55//55
f 53//53 55//55 54//54
f 54//54 33//33 46//46
f 54//54 46//46 45//45
f 54//54 55//55 34//34
f 54//54 34//34 33//33
f 24//24 48//48 36//36
f 48//48 41//41 36//36
f 48//48 42//42 41//41
f 48//48 43//43 42//42
f 56//56 57//57 58//58
f 56//56 3//3 9//9
f 56//56 9//9 57//57
f 56//56 59//59 3//3
f 56//56 58//58 59//59
f 57//57 60//60 61//61
f 57//57 61//61 62//62
f 57//57 9//9 11//11
f 57//57 11//11 60//60
f 57//57 62//62 58//58
f 60//60 63//63 61//61
f 60//60 11//11 14//14
f 60//60 14//14 63//63
f 61//61 63//63 64//64
f 61//61 64//64 65//65
f 61//61 65//65 62//62
f 63//63 66//66 64//64
f 63//63 67//67 66//66
f 63//63 68//68 67//67
f 63//63 69//69 68//68
f 63//63 70//70 69//69
f 63//63 71//71 70//70
f 63//63 72//72 71//71
f 63//63 14//14 29//29
f 63//63 29//29 72//72
f 64//64 66//66 73//73
f 64//64 73//73 65//65
f 66//66 67//67 74//74
f 66//66 74//74 73//73
f 67//67 68//68 75//75
f 67//67 75//75 74//74
f 68//68 69//69 76//76
f 68//68 76//76 75//75
f 69//69 70//70 77//77
f 69//69 77//77 76//76
f 70//70 71//71 78//78
f 70//70 78//78 77//77
f 71//71 72//72 79//79
f 71//71 79//79 78//78
f 72//72 80//80 81//81
f 72//72 81//81 79//79
f 72//72 29//29 82//82
f 72//72 82//82 80//80
f 80//80 83//83 84//84
f 80//80 84//84 81//81
f 80//80 82//82 27//27
f 80//80 27//27 83//83
f 83//83 27//27 31//31
f 83//83 31//31 84//84
f 3//3 59//59 7//7
f 9//9 8//8 11//11
f 14//14 16//16 29//29
f 59//59 58//58 85//85
f 59//59 85//85 7//7
f 58//58 21//21 19//19
f 58//58 62//62 21//21
f 58//58 19//19 85//85
f 21//21 62//62 86//86
f 21//21 86//86 22//22
f 62//62 65//65 86//86
f 86//86 65//65 73//73
f 86//86 73//73 74//74
f 86//86 74//74 75//75
f 86//86 75//75 76//76
f 86//86 76//76 77//77
f 86//86 77//77 78//78
f 86//86 78//78 49//49
f 86//86 49//49 22//22
f 78//78 79//79 51//51
f 78//78 51//51 49//49
f 79//79 81//81 52//52
f 79//79 52//52 51//51
f 81//81 84//84 55//55
f 81//81 55//55 52//52
f 84//84 31//31 34//34
f 84//84 34//34 55//55
f 7//7 85//85 19//19
f 29//29 27//27 82//82
# 168 faces, 0 coords texture

# End of File
