####
#
# OBJ File Generated by Meshlab
#
####
# Object step_38_link_7.obj
#
# Vertices: 69
# Faces: 134
#
####
vn 2.876446 0.078554 5.303333
v 0.369314 0.222716 0.594844
vn 2.774883 0.446694 5.590825
v 0.369090 0.225474 0.594761
vn 2.420917 0.971329 5.388047
v 0.359496 0.249958 0.596994
vn 3.676213 0.614803 4.984535
v 0.369443 0.225873 0.594514
vn 1.162812 -0.058624 6.171205
v 0.359496 0.136913 0.596994
vn 1.926420 -1.224602 4.974696
v 0.369314 0.114555 0.594844
vn 5.284655 -0.168936 2.273971
v 0.566117 0.178863 0.403562
vn 5.201284 0.539341 2.054095
v 0.566117 0.333411 0.403562
vn 4.687085 1.196950 3.456217
v 0.553936 0.377243 0.411774
vn 1.239239 1.698242 5.346486
v 0.358390 0.251036 0.597184
vn 0.448415 -0.223953 6.224376
v 0.358390 0.137361 0.597184
vn 3.938136 2.574252 3.599039
v 0.552250 0.381489 0.411604
vn 0.612107 3.799806 4.578796
v 0.356784 0.253599 0.595956
vn -1.732458 0.872815 5.220863
v 0.243688 0.251036 0.597184
vn 1.840490 4.227059 1.835263
v 0.549711 0.385390 0.410629
vn -2.350127 2.901624 2.556691
v 0.242658 0.253599 0.595956
vn -1.673115 4.933952 1.212466
v 0.373272 0.385390 0.410629
vn 1.595582 -3.317769 2.436202
v 0.370271 0.111418 0.593071
vn -0.855673 -4.464668 2.259431
v 0.268381 0.111418 0.593071
vn 0.699604 -6.075212 -0.550173
v 0.370271 0.111418 0.492360
vn 3.803499 -2.804847 0.787521
v 0.566029 0.170430 0.399774
vn 4.710969 -1.495375 3.600801
v 0.565216 0.174857 0.403993
vn -1.877630 -2.719701 2.729983
v 0.262454 0.114555 0.594844
vn -2.587039 -1.535928 3.545673
v 0.243688 0.137361 0.597184
vn -1.415349 -5.622762 -0.977590
v 0.268381 0.111418 0.492360
vn -0.341447 -5.191259 -2.964779
v 0.422297 0.170430 0.258142
vn 2.537696 -2.632930 -1.383505
v 0.566029 0.170430 0.258142
vn -4.558631 0.769820 3.002733
v 0.242344 0.253027 0.595926
vn -5.258511 -0.348067 2.138943
v 0.242344 0.140794 0.595926
vn -5.306685 1.644378 1.308681
v 0.242342 0.253042 0.595915
vn -5.018499 3.550351 -0.479387
v 0.242658 0.253599 0.489575
vn -5.672075 1.521951 -0.763478
v 0.242342 0.253042 0.489625
vn -6.262087 -0.045446 0.333281
v 0.242342 0.140847 0.595915
vn -1.313976 2.936026 -2.318744
v 0.373272 0.385390 0.250765
vn -3.205343 1.746678 -2.944003
v 0.372556 0.384607 0.250800
vn -5.804256 0.395258 -1.891635
v 0.242344 0.253027 0.489613
vn -5.816057 -0.460870 -1.438084
v 0.242344 0.140794 0.489613
vn -6.263367 -0.045623 -0.321949
v 0.242342 0.140847 0.489625
vn -3.888740 -0.416740 -4.284722
v 0.372556 0.214993 0.250800
vn -3.399447 -4.386074 -1.495545
v 0.262454 0.114555 0.490673
vn -5.269569 -2.462490 0.918080
v 0.242990 0.137755 0.595800
vn -5.815975 -1.250784 1.408829
v 0.242658 0.139308 0.595956
vn -5.220526 -0.649258 2.269563
v 0.242356 0.140730 0.595937
vn -5.664212 -1.271246 -1.663662
v 0.242658 0.139308 0.489575
vn -5.100371 -2.355928 -1.266337
v 0.242990 0.137755 0.489705
vn -5.711947 -0.982633 -1.642877
v 0.242356 0.140730 0.489602
vn -1.175767 -3.043916 -4.099187
v 0.412046 0.174857 0.253923
vn -4.655298 -2.768755 -2.707414
v 0.243326 0.137564 0.489248
vn -2.092754 -1.769671 -4.590610
v 0.376192 0.209207 0.250000
vn -3.662991 -1.565422 -4.346704
v 0.373272 0.212758 0.250765
vn 5.170904 2.080933 1.722504
v 0.553742 0.379353 0.410938
vn 4.432800 0.506163 -2.573507
v 0.566117 0.333411 0.254442
vn 4.373060 1.690907 -2.489304
v 0.553742 0.379353 0.250384
vn 4.221997 3.425521 1.776633
v 0.551314 0.383861 0.410513
vn 2.750802 2.532701 -2.739222
v 0.551314 0.383861 0.250509
vn 1.179840 3.257521 -2.326853
v 0.549711 0.385390 0.250765
vn 2.585674 0.017735 -5.693776
v 0.565216 0.330624 0.253923
vn 4.707121 -0.071287 -2.706737
v 0.566117 0.178863 0.254442
vn 2.610207 0.515748 -4.988222
v 0.553936 0.377243 0.250068
vn 2.118903 -1.801790 -4.049988
v 0.565216 0.174857 0.253923
vn 0.922755 -0.256181 -6.099341
v 0.553936 0.206590 0.250068
vn 2.128019 1.391335 -4.879550
v 0.552250 0.381489 0.250000
vn 0.103036 -0.055413 -6.279883
v 0.552250 0.209207 0.250000
vn -0.511035 0.444056 -6.164308
v 0.376192 0.381489 0.250000
vn 5.581986 -0.880624 2.416580
v 0.565856 0.175818 0.403278
vn 5.563188 -0.826527 -2.431794
v 0.565856 0.175818 0.254639
vn -0.994393 -1.483355 -5.763841
v 0.379510 0.206590 0.250068
vn -1.523554 0.302954 -6.037099
v 0.372616 0.384519 0.250777
vn -2.739609 -0.610446 -5.347538
v 0.372616 0.214876 0.250777
# 69 vertices, 0 vertices normals

f 1//1 2//2 3//3
f 1//1 4//4 2//2
f 1//1 3//3 5//5
f 1//1 6//6 7//7
f 1//1 5//5 6//6
f 1//1 8//8 4//4
f 1//1 7//7 8//8
f 2//2 4//4 3//3
f 4//4 8//8 9//9
f 4//4 9//9 3//3
f 3//3 10//10 11//11
f 3//3 11//11 5//5
f 3//3 9//9 12//12
f 3//3 12//12 10//10
f 10//10 13//13 14//14
f 10//10 14//14 11//11
f 10//10 12//12 15//15
f 10//10 15//15 13//13
f 13//13 16//16 14//14
f 13//13 15//15 17//17
f 13//13 17//17 16//16
f 18//18 6//6 19//19
f 18//18 20//20 21//21
f 18//18 19//19 20//20
f 18//18 21//21 22//22
f 18//18 22//22 6//6
f 6//6 5//5 11//11
f 6//6 11//11 23//23
f 6//6 23//23 19//19
f 6//6 22//22 7//7
f 11//11 14//14 24//24
f 11//11 24//24 23//23
f 20//20 19//19 25//25
f 20//20 25//25 26//26
f 20//20 27//27 21//21
f 20//20 26//26 27//27
f 14//14 16//16 28//28
f 14//14 28//28 29//29
f 14//14 29//29 24//24
f 16//16 30//30 28//28
f 16//16 31//31 32//32
f 16//16 32//32 30//30
f 16//16 17//17 31//31
f 28//28 30//30 33//33
f 28//28 33//33 29//29
f 30//30 32//32 33//33
f 31//31 17//17 34//34
f 31//31 34//34 35//35
f 31//31 35//35 32//32
f 36//36 32//32 35//35
f 36//36 37//37 38//38
f 36//36 38//38 32//32
f 36//36 35//35 39//39
f 36//36 39//39 37//37
f 32//32 38//38 33//33
f 19//19 23//23 40//40
f 19//19 40//40 25//25
f 23//23 24//24 41//41
f 23//23 41//41 40//40
f 24//24 42//42 41//41
f 24//24 43//43 42//42
f 24//24 29//29 43//43
f 41//41 42//42 44//44
f 41//41 45//45 40//40
f 41//41 44//44 45//45
f 42//42 43//43 46//46
f 42//42 46//46 44//44
f 43//43 29//29 37//37
f 43//43 37//37 46//46
f 29//29 33//33 38//38
f 29//29 38//38 37//37
f 25//25 40//40 47//47
f 25//25 47//47 26//26
f 40//40 48//48 49//49
f 40//40 45//45 48//48
f 40//40 49//49 47//47
f 48//48 45//45 44//44
f 48//48 44//44 39//39
f 48//48 50//50 49//49
f 48//48 39//39 50//50
f 44//44 46//46 39//39
f 46//46 37//37 39//39
f 8//8 51//51 9//9
f 8//8 52//52 53//53
f 8//8 53//53 51//51
f 8//8 7//7 52//52
f 9//9 51//51 12//12
f 51//51 54//54 12//12
f 51//51 53//53 54//54
f 12//12 54//54 15//15
f 54//54 53//53 55//55
f 54//54 55//55 56//56
f 54//54 56//56 15//15
f 15//15 56//56 17//17
f 57//57 52//52 58//58
f 57//57 59//59 52//52
f 57//57 60//60 61//61
f 57//57 58//58 60//60
f 57//57 61//61 59//59
f 52//52 59//59 53//53
f 52//52 7//7 58//58
f 59//59 62//62 53//53
f 59//59 61//61 63//63
f 59//59 63//63 62//62
f 53//53 62//62 55//55
f 62//62 56//56 55//55
f 62//62 63//63 64//64
f 62//62 64//64 56//56
f 56//56 64//64 34//34
f 56//56 34//34 17//17
f 21//21 65//65 22//22
f 21//21 7//7 65//65
f 21//21 27//27 58//58
f 21//21 58//58 7//7
f 65//65 7//7 22//22
f 27//27 66//66 58//58
f 27//27 60//60 66//66
f 27//27 26//26 60//60
f 66//66 60//60 58//58
f 60//60 26//26 47//47
f 60//60 47//47 61//61
f 61//61 47//47 67//67
f 61//61 67//67 63//63
f 63//63 67//67 49//49
f 63//63 49//49 64//64
f 64//64 68//68 34//34
f 64//64 49//49 69//69
f 64//64 69//69 68//68
f 34//34 68//68 35//35
f 68//68 69//69 39//39
f 68//68 39//39 35//35
f 47//47 49//49 67//67
f 49//49 50//50 69//69
f 50//50 39//39 69//69
# 134 faces, 0 coords texture

# End of File
