####
#
# OBJ File Generated by Meshlab
#
####
# Object step_36_link_5.obj
#
# Vertices: 57
# Faces: 110
#
####
vn 1.547017 0.847075 5.630584
v 0.120817 0.111995 0.746337
vn 0.444286 2.986772 4.676291
v 0.118446 0.114797 0.745983
vn -0.133928 0.333048 6.253779
v 0.018252 0.111995 0.746337
vn 1.147831 -2.083794 4.612250
v 0.120817 0.009619 0.746337
vn 4.020977 -0.109234 4.627075
v 0.299978 0.053714 0.645644
vn 4.498586 0.774714 3.021702
v 0.299978 0.157441 0.645644
vn 4.059913 1.931757 2.732708
v 0.295948 0.173409 0.646323
vn 2.682001 3.025134 3.581260
v 0.294840 0.174918 0.646543
vn -2.000264 1.707006 1.954083
v 0.013001 0.114797 0.745983
vn 1.657321 4.862085 1.651195
v 0.294734 0.175277 0.646128
vn 0.039548 5.798545 1.669926
v 0.293292 0.175286 0.646146
vn -0.061761 5.825050 1.609098
v 0.183298 0.175286 0.646146
vn 1.305943 -4.744083 2.201316
v 0.121225 0.009036 0.745569
vn 3.212662 -2.870033 1.251406
v 0.300169 0.045504 0.643878
vn -0.254034 -2.462750 4.988337
v 0.018252 0.009619 0.746337
vn 4.380944 -1.089203 3.288963
v 0.300319 0.047893 0.644971
vn 0.415223 -6.054080 -0.876137
v 0.121225 0.009036 0.645166
vn -0.764814 -5.319853 1.879424
v 0.017627 0.009036 0.745569
vn -0.866934 -5.590113 -1.540139
v 0.017627 0.009036 0.645166
vn -0.264808 -3.947835 -3.999003
v 0.198726 0.045504 0.543363
vn 2.103403 -2.300084 -1.769090
v 0.300169 0.045504 0.543363
vn -3.327407 0.132300 3.061968
v 0.012923 0.113751 0.745988
vn -3.334351 -0.145857 3.050433
v 0.012923 0.011322 0.745988
vn -3.302358 2.184556 -1.624929
v 0.013001 0.114797 0.644561
vn -0.839504 5.794319 1.164986
v 0.182918 0.175277 0.646128
vn -4.739032 0.177407 -2.627466
v 0.012923 0.113751 0.644546
vn -1.711230 3.414170 -2.496808
v 0.182918 0.175277 0.541559
vn -3.207019 0.341061 -5.368390
v 0.182758 0.174419 0.541541
vn -4.690056 -0.232915 -2.642770
v 0.012923 0.011322 0.644546
vn -3.109405 -0.037604 -5.455875
v 0.182758 0.067060 0.541541
vn -2.149863 -1.726190 1.939111
v 0.013001 0.010412 0.745983
vn -2.852076 -2.258388 -1.715407
v 0.013001 0.010412 0.644561
vn -1.646095 -0.716165 -5.645935
v 0.183505 0.065070 0.541146
vn -1.073183 -2.192110 -5.301140
v 0.195011 0.047893 0.542537
vn 5.611847 0.442906 1.640383
v 0.300661 0.154836 0.644720
vn 4.642027 1.473851 2.352592
v 0.296408 0.172526 0.646126
vn 5.316515 0.439394 -1.983984
v 0.300661 0.154836 0.542889
vn 4.593440 1.433850 -2.389290
v 0.296408 0.172526 0.541571
vn 5.408880 -0.294259 2.049317
v 0.300661 0.049940 0.644720
vn 4.198393 4.116834 0.872840
v 0.294805 0.175233 0.646083
vn 3.342059 1.563238 -2.997660
v 0.295948 0.173409 0.541370
vn 4.207511 4.115234 -0.860251
v 0.294805 0.175233 0.541606
vn 1.574538 4.786606 -1.733582
v 0.294734 0.175277 0.541559
vn 0.014600 5.708824 -1.804606
v 0.293292 0.175286 0.541533
vn 4.350319 0.005408 -4.527931
v 0.300319 0.154039 0.542537
vn 5.385426 -0.197479 -2.077195
v 0.300661 0.049940 0.542889
vn 3.702718 0.661840 -3.439942
v 0.299978 0.157441 0.542232
vn 2.806694 -0.947806 -3.672969
v 0.300319 0.047893 0.542537
vn 2.600406 -0.095450 -5.440766
v 0.299978 0.053714 0.542232
vn 1.270186 -0.012839 -6.153269
v 0.295948 0.064396 0.541370
vn 1.814260 2.195732 -3.783782
v 0.294840 0.174918 0.541146
vn 0.549355 -0.159648 -6.213371
v 0.294840 0.065070 0.541146
vn 0.047607 4.913232 -3.869257
v 0.293321 0.175280 0.541524
vn -1.042277 1.835635 -4.997354
v 0.183505 0.174918 0.541146
vn -0.250699 4.804218 -3.978023
v 0.183293 0.175280 0.541524
vn -0.103566 5.691112 -1.809448
v 0.183298 0.175286 0.541533
vn 0.749356 -0.258182 -6.219225
v 0.299208 0.054027 0.542089
# 57 vertices, 0 vertices normals

f 1//1 2//2 3//3
f 1//1 4//4 5//5
f 1//1 3//3 4//4
f 1//1 6//6 7//7
f 1//1 7//7 8//8
f 1//1 8//8 2//2
f 1//1 5//5 6//6
f 2//2 9//9 3//3
f 2//2 8//8 10//10
f 2//2 10//10 11//11
f 2//2 11//11 12//12
f 2//2 12//12 9//9
f 4//4 13//13 14//14
f 4//4 3//3 15//15
f 4//4 15//15 13//13
f 4//4 14//14 16//16
f 4//4 16//16 5//5
f 13//13 17//17 14//14
f 13//13 15//15 18//18
f 13//13 18//18 17//17
f 17//17 18//18 19//19
f 17//17 19//19 20//20
f 17//17 21//21 14//14
f 17//17 20//20 21//21
f 3//3 9//9 22//22
f 3//3 22//22 23//23
f 3//3 23//23 15//15
f 9//9 24//24 22//22
f 9//9 25//25 24//24
f 9//9 12//12 25//25
f 22//22 24//24 26//26
f 22//22 26//26 23//23
f 24//24 25//25 27//27
f 24//24 27//27 28//28
f 24//24 28//28 26//26
f 26//26 29//29 23//23
f 26//26 28//28 30//30
f 26//26 30//30 29//29
f 15//15 31//31 18//18
f 15//15 23//23 31//31
f 18//18 31//31 19//19
f 31//31 23//23 32//32
f 31//31 32//32 19//19
f 23//23 29//29 32//32
f 19//19 32//32 20//20
f 32//32 29//29 33//33
f 32//32 34//34 20//20
f 32//32 33//33 34//34
f 29//29 30//30 33//33
f 35//35 6//6 5//5
f 35//35 36//36 6//6
f 35//35 37//37 38//38
f 35//35 38//38 36//36
f 35//35 39//39 37//37
f 35//35 5//5 39//39
f 6//6 36//36 7//7
f 36//36 38//38 7//7
f 7//7 40//40 8//8
f 7//7 38//38 41//41
f 7//7 41//41 40//40
f 8//8 40//40 10//10
f 40//40 41//41 42//42
f 40//40 42//42 10//10
f 10//10 42//42 43//43
f 10//10 43//43 11//11
f 11//11 43//43 44//44
f 11//11 44//44 12//12
f 45//45 37//37 46//46
f 45//45 47//47 37//37
f 45//45 48//48 49//49
f 45//45 46//46 48//48
f 45//45 49//49 47//47
f 37//37 47//47 38//38
f 37//37 39//39 46//46
f 47//47 41//41 38//38
f 47//47 49//49 50//50
f 47//47 50//50 41//41
f 41//41 51//51 42//42
f 41//41 50//50 52//52
f 41//41 52//52 51//51
f 51//51 43//43 42//42
f 51//51 53//53 43//43
f 51//51 52//52 54//54
f 51//51 54//54 53//53
f 43//43 53//53 44//44
f 53//53 54//54 55//55
f 53//53 55//55 44//44
f 44//44 55//55 56//56
f 44//44 56//56 12//12
f 14//14 39//39 16//16
f 14//14 21//21 46//46
f 14//14 46//46 39//39
f 16//16 39//39 5//5
f 21//21 48//48 46//46
f 21//21 20//20 48//48
f 48//48 57//57 49//49
f 48//48 52//52 57//57
f 48//48 20//20 34//34
f 48//48 34//34 52//52
f 49//49 57//57 52//52
f 49//49 52//52 50//50
f 52//52 34//34 33//33
f 52//52 33//33 54//54
f 25//25 12//12 27//27
f 12//12 56//56 27//27
f 54//54 27//27 55//55
f 54//54 28//28 27//27
f 54//54 33//33 30//30
f 54//54 30//30 28//28
f 27//27 56//56 55//55
# 110 faces, 0 coords texture

# End of File
