####
#
# OBJ File Generated by Meshlab
#
####
# Object step_18_link_5.obj
#
# Vertices: 81
# Faces: 158
#
####
vn 3.170614 2.591859 2.624293
v 0.233808 0.076926 0.713807
vn 2.605593 4.735547 1.774821
v 0.230750 0.078650 0.714856
vn 2.809344 1.879896 4.748260
v 0.229518 0.078369 0.716143
vn 2.450848 -1.029527 5.538777
v 0.229518 -0.023695 0.716143
vn 3.034343 5.312108 -0.816954
v 0.233808 0.076926 0.612561
vn 1.756747 5.682151 -0.975951
v 0.230750 0.078650 0.614234
vn 3.028798 -0.858969 5.289079
v 0.233808 -0.024801 0.713807
vn 4.006655 0.075496 4.826041
v 0.369966 -0.026043 0.611625
vn 4.351060 2.196082 1.715008
v 0.376727 -0.028219 0.604659
vn 4.321400 1.592418 3.806364
v 0.370417 -0.025090 0.611208
vn 1.140849 3.306681 2.755088
v 0.226026 0.079813 0.717434
vn 0.476274 5.803841 -1.337864
v 0.226026 0.079813 0.615831
vn 2.314656 0.279476 5.827255
v 0.225136 0.078810 0.717886
vn 2.206201 -0.407873 5.852996
v 0.225136 -0.022975 0.717886
vn 2.195466 0.353446 5.862016
v 0.225080 0.078814 0.717908
vn 2.021472 0.456373 5.908976
v 0.225030 0.078816 0.717926
vn 1.817204 0.584147 5.950093
v 0.224985 0.078817 0.717941
vn 1.556248 0.751941 5.981169
v 0.224946 0.078816 0.717952
vn 1.248774 0.949893 5.991340
v 0.224912 0.078814 0.717961
vn 0.868724 1.194600 5.956698
v 0.224884 0.078811 0.717967
vn 0.437101 1.430267 5.878616
v 0.224860 0.078808 0.717970
vn -0.983267 4.321696 2.225806
v 0.121611 0.079813 0.717434
vn 2.049180 -0.519244 5.886285
v 0.225080 -0.022961 0.717908
vn 1.831107 -0.662618 5.925712
v 0.225030 -0.022947 0.717926
vn 1.572995 -0.836014 5.948918
v 0.224985 -0.022934 0.717941
vn 1.244594 -1.054133 5.943670
v 0.224946 -0.022923 0.717952
vn 0.869080 -1.290048 5.899363
v 0.224912 -0.022912 0.717961
vn 0.588470 -1.386374 5.880712
v 0.224884 -0.022902 0.717967
vn 0.404682 -1.122529 6.023581
v 0.224860 -0.022893 0.717970
vn 0.201694 1.221816 6.000403
v 0.224841 0.078804 0.717972
vn 0.214385 -0.623462 6.198646
v 0.224841 -0.022885 0.717972
vn -0.548724 3.399209 5.122570
v 0.120013 0.078808 0.717970
vn 0.053843 0.309656 6.264089
v 0.224827 0.078800 0.717972
vn 0.058569 -0.175355 6.275709
v 0.224827 -0.022878 0.717972
vn -2.022454 2.628218 2.759631
v 0.120005 0.078804 0.717972
vn -2.748681 1.003427 2.484211
v 0.120002 0.078800 0.717972
vn 1.158538 5.123543 -2.694819
v 0.231849 0.077724 0.612190
vn 2.733586 1.896294 -2.481091
v 0.376727 -0.028219 0.501407
vn -0.510753 4.538229 -4.072016
v 0.130451 0.077724 0.612190
vn 1.075380 2.625994 -4.193002
v 0.375461 -0.027786 0.501173
vn -0.726712 1.923978 -5.151798
v 0.270719 -0.027786 0.501173
vn -1.630998 4.027579 -2.218591
v 0.121611 0.079813 0.615831
vn 2.306429 -2.155572 5.422665
v 0.231849 -0.025433 0.714480
vn 1.843565 -3.008168 2.390985
v 0.370417 -0.134446 0.611208
vn 3.669838 -0.492056 4.997946
v 0.369966 -0.133704 0.611625
vn 1.058071 -2.500874 5.184582
v 0.226026 -0.023943 0.717434
vn -1.306475 -4.129939 3.657659
v 0.121611 -0.023943 0.717434
vn -1.665025 -4.767214 1.926140
v 0.257848 -0.133823 0.611962
vn 1.004640 -3.613431 4.722046
v 0.369209 -0.133823 0.611962
vn -1.559928 -3.820927 3.569931
v 0.120026 -0.022902 0.717967
vn -2.059537 -3.015219 2.922854
v 0.120013 -0.022893 0.717970
vn -2.499408 -1.963934 2.794494
v 0.120005 -0.022885 0.717972
vn -2.945081 -0.704278 2.709831
v 0.120002 -0.022878 0.717972
vn -4.040872 2.356696 -1.924345
v 0.120005 0.078804 0.616229
vn -5.373436 1.481591 -0.978507
v 0.120002 0.078800 0.616234
vn -1.794800 1.961816 -5.279482
v 0.260057 -0.025090 0.505413
vn -2.882215 2.198429 -5.091255
v 0.120046 0.078814 0.616202
vn -3.345371 2.354735 -4.362227
v 0.120026 0.078811 0.616213
vn -3.616244 2.544238 -2.884233
v 0.120013 0.078808 0.616221
vn -3.033819 0.606795 -5.302884
v 0.257979 -0.026043 0.506230
vn -4.015629 -2.335142 -2.334136
v 0.120013 -0.022893 0.616221
vn -4.607330 -1.870891 -1.951011
v 0.120005 -0.022885 0.616229
vn -5.703274 -0.936023 -1.093027
v 0.120002 -0.022878 0.616234
vn -3.088955 -1.874338 -4.298280
v 0.257979 -0.133704 0.506230
vn -3.166415 -4.147300 -1.656754
v 0.257848 -0.133823 0.506488
vn 5.783043 0.771446 1.118174
v 0.376873 -0.028603 0.604375
vn 4.016428 -2.403921 1.707806
v 0.376727 -0.132930 0.604659
vn 5.506500 0.712396 -1.557719
v 0.376873 -0.028603 0.501599
vn 5.767769 -0.810770 1.107567
v 0.376873 -0.132563 0.604375
vn 4.549877 0.270793 4.305839
v 0.373018 -0.027452 0.608671
vn 4.522743 -0.271039 4.335465
v 0.373018 -0.132743 0.608671
vn 5.492664 -0.748019 -1.544791
v 0.376873 -0.132563 0.501599
vn 2.678523 -1.942882 -2.403744
v 0.376727 -0.132930 0.501407
vn 0.700268 -2.668821 -4.292296
v 0.375461 -0.133347 0.501173
vn 2.394380 -5.430342 0.856252
v 0.375585 -0.133583 0.605010
vn 1.516350 -5.377754 -1.447618
v 0.375585 -0.133583 0.501638
vn 0.361584 -6.171651 -0.556810
v 0.370417 -0.134446 0.505413
vn -0.512785 -5.487019 1.737218
v 0.260057 -0.134446 0.611208
vn -0.671827 -2.431587 -4.426391
v 0.270719 -0.133347 0.501173
vn -0.415968 -5.549802 -2.568943
v 0.270158 -0.133583 0.501638
vn -1.364797 -3.135459 -2.687695
v 0.260057 -0.134446 0.505413
# 81 vertices, 0 vertices normals

f 1//1 2//2 3//3
f 1//1 3//3 4//4
f 1//1 5//5 6//6
f 1//1 6//6 2//2
f 1//1 7//7 8//8
f 1//1 4//4 7//7
f 1//1 9//9 5//5
f 1//1 10//10 9//9
f 1//1 8//8 10//10
f 2//2 11//11 3//3
f 2//2 6//6 12//12
f 2//2 12//12 11//11
f 3//3 11//11 13//13
f 3//3 13//13 14//14
f 3//3 14//14 4//4
f 11//11 15//15 13//13
f 11//11 16//16 15//15
f 11//11 17//17 16//16
f 11//11 18//18 17//17
f 11//11 19//19 18//18
f 11//11 20//20 19//19
f 11//11 21//21 20//20
f 11//11 12//12 22//22
f 11//11 22//22 21//21
f 13//13 15//15 23//23
f 13//13 23//23 14//14
f 15//15 16//16 24//24
f 15//15 24//24 23//23
f 16//16 17//17 25//25
f 16//16 25//25 24//24
f 17//17 18//18 26//26
f 17//17 26//26 25//25
f 18//18 19//19 27//27
f 18//18 27//27 26//26
f 19//19 20//20 28//28
f 19//19 28//28 27//27
f 20//20 21//21 29//29
f 20//20 29//29 28//28
f 21//21 30//30 31//31
f 21//21 31//31 29//29
f 21//21 22//22 32//32
f 21//21 32//32 30//30
f 30//30 33//33 34//34
f 30//30 34//34 31//31
f 30//30 32//32 35//35
f 30//30 35//35 33//33
f 33//33 35//35 36//36
f 33//33 36//36 34//34
f 5//5 37//37 6//6
f 5//5 9//9 38//38
f 5//5 38//38 37//37
f 37//37 12//12 6//6
f 37//37 39//39 12//12
f 37//37 38//38 40//40
f 37//37 40//40 41//41
f 37//37 41//41 39//39
f 12//12 39//39 42//42
f 12//12 42//42 22//22
f 7//7 43//43 44//44
f 7//7 4//4 43//43
f 7//7 44//44 45//45
f 7//7 45//45 8//8
f 43//43 4//4 46//46
f 43//43 46//46 44//44
f 4//4 14//14 46//46
f 46//46 14//14 23//23
f 46//46 23//23 24//24
f 46//46 24//24 25//25
f 46//46 25//25 26//26
f 46//46 26//26 27//27
f 46//46 27//27 28//28
f 46//46 28//28 47//47
f 46//46 47//47 48//48
f 46//46 49//49 44//44
f 46//46 48//48 49//49
f 28//28 29//29 50//50
f 28//28 50//50 47//47
f 29//29 31//31 51//51
f 29//29 51//51 50//50
f 31//31 34//34 52//52
f 31//31 52//52 51//51
f 34//34 36//36 53//53
f 34//34 53//53 52//52
f 22//22 35//35 32//32
f 22//22 42//42 54//54
f 22//22 54//54 35//35
f 35//35 54//54 55//55
f 35//35 55//55 36//36
f 36//36 55//55 53//53
f 39//39 41//41 56//56
f 39//39 56//56 42//42
f 42//42 57//57 58//58
f 42//42 58//58 59//59
f 42//42 59//59 54//54
f 42//42 56//56 57//57
f 57//57 56//56 60//60
f 57//57 60//60 58//58
f 58//58 60//60 59//59
f 59//59 61//61 62//62
f 59//59 62//62 54//54
f 59//59 60//60 61//61
f 54//54 62//62 63//63
f 54//54 63//63 55//55
f 55//55 63//63 53//53
f 47//47 50//50 48//48
f 50//50 51//51 48//48
f 51//51 52//52 62//62
f 51//51 61//61 48//48
f 51//51 62//62 61//61
f 52//52 53//53 63//63
f 52//52 63//63 62//62
f 61//61 60//60 64//64
f 61//61 64//64 65//65
f 61//61 65//65 48//48
f 66//66 9//9 67//67
f 66//66 68//68 38//38
f 66//66 38//38 9//9
f 66//66 69//69 68//68
f 66//66 67//67 69//69
f 9//9 70//70 71//71
f 9//9 10//10 70//70
f 9//9 71//71 67//67
f 70//70 10//10 44//44
f 70//70 44//44 71//71
f 10//10 8//8 44//44
f 8//8 45//45 44//44
f 68//68 69//69 72//72
f 68//68 72//72 73//73
f 68//68 73//73 38//38
f 38//38 73//73 74//74
f 38//38 74//74 40//40
f 40//40 74//74 41//41
f 69//69 67//67 73//73
f 69//69 73//73 72//72
f 67//67 75//75 76//76
f 67//67 71//71 44//44
f 67//67 44//44 75//75
f 67//67 76//76 73//73
f 75//75 44//44 77//77
f 75//75 77//77 76//76
f 44//44 49//49 78//78
f 44//44 78//78 77//77
f 49//49 48//48 78//78
f 73//73 76//76 74//74
f 74//74 76//76 79//79
f 74//74 79//79 41//41
f 76//76 77//77 80//80
f 76//76 80//80 79//79
f 77//77 78//78 81//81
f 77//77 81//81 80//80
f 41//41 60//60 56//56
f 41//41 79//79 64//64
f 41//41 64//64 60//60
f 78//78 48//48 65//65
f 78//78 65//65 81//81
f 79//79 80//80 81//81
f 79//79 81//81 64//64
f 81//81 65//65 64//64
# 158 faces, 0 coords texture

# End of File
