####
#
# OBJ File Generated by Meshlab
#
####
# Object step_38_link_6.obj
#
# Vertices: 75
# Faces: 146
#
####
vn 2.815073 0.046331 5.601434
v 0.282126 0.188622 0.645450
vn 2.377957 0.288859 5.736470
v 0.281703 0.190339 0.645629
vn 1.992235 -0.038562 5.939336
v 0.281703 0.086454 0.645629
vn 1.506475 -1.414142 5.369276
v 0.282126 0.082334 0.645450
vn 4.135445 -0.525587 4.307998
v 0.369314 0.114555 0.594844
vn 4.012705 0.144333 4.627634
v 0.369314 0.222716 0.594844
vn 1.282465 0.181784 6.099406
v 0.279035 0.192677 0.646341
vn 0.727539 -0.358409 6.151509
v 0.279035 0.088411 0.646341
vn 1.868812 0.814443 5.803214
v 0.274750 0.207273 0.646674
vn 3.092090 0.528270 5.439269
v 0.369090 0.225474 0.594761
vn 3.949583 2.004415 2.674013
v 0.359496 0.249958 0.596994
vn 0.959597 1.518591 5.654237
v 0.273591 0.208350 0.646824
vn 0.233779 -0.098266 6.268393
v 0.273591 0.097903 0.646824
vn 2.850519 2.952065 4.127836
v 0.358390 0.251036 0.597184
vn 0.291122 3.275379 5.031207
v 0.272093 0.209595 0.646436
vn -2.021509 0.591577 5.174418
v 0.162287 0.208350 0.646824
vn -2.324066 2.374127 2.227358
v 0.162112 0.209595 0.646436
vn 1.768630 4.158150 1.807307
v 0.356784 0.253599 0.595956
vn -0.994173 5.235877 1.608574
v 0.242658 0.253599 0.595956
vn 1.359587 -3.621639 2.541010
v 0.282829 0.080508 0.644421
vn -0.648032 -4.556174 2.368398
v 0.181419 0.080508 0.644421
vn 0.692610 -5.708061 -1.305717
v 0.282829 0.080508 0.543918
vn 3.530879 -2.339235 1.346072
v 0.370271 0.111418 0.593071
vn -1.732668 -2.951501 2.665057
v 0.176767 0.082334 0.645450
vn 0.192033 -0.211523 6.272341
v 0.275951 0.093387 0.646608
vn -0.269326 -0.782621 6.204126
v 0.174463 0.088411 0.646341
vn -0.028472 -0.349595 6.273111
v 0.169550 0.093387 0.646608
vn -2.604827 -1.489633 3.437515
v 0.162287 0.097903 0.646824
vn -0.963405 -5.269206 -1.789529
v 0.181419 0.080508 0.543918
vn -0.183541 -4.171298 -4.364927
v 0.268381 0.111418 0.492360
vn 2.407059 -2.139740 -1.734934
v 0.370271 0.111418 0.492360
vn -5.105614 0.635156 2.265900
v 0.161899 0.208822 0.646405
vn -4.483847 0.369184 4.329031
v 0.161906 0.208806 0.646414
vn -5.164648 -0.179034 3.416453
v 0.161906 0.100555 0.646414
vn -6.113770 1.142059 0.281329
v 0.161899 0.208828 0.646396
vn -3.830677 2.581517 -1.758985
v 0.162112 0.209595 0.541985
vn -5.591322 -0.095657 1.909821
v 0.161899 0.100604 0.646405
vn -5.037556 0.625010 -2.325491
v 0.161899 0.208822 0.542010
vn -6.109749 1.147004 -0.300032
v 0.161899 0.208828 0.542019
vn -3.910975 0.296872 -4.831832
v 0.162287 0.208350 0.541613
vn -3.417613 1.258102 -5.014145
v 0.242344 0.253027 0.489613
vn -4.388179 0.324403 -4.440010
v 0.161906 0.208806 0.542002
vn -3.714292 -1.975309 -3.181147
v 0.162287 0.097903 0.541613
vn -5.097925 -0.188403 -3.496823
v 0.161906 0.100555 0.542002
vn -2.611257 0.471455 -5.558373
v 0.242356 0.252998 0.489602
vn -2.933565 -0.083163 -5.521435
v 0.242356 0.140730 0.489602
vn -1.156683 2.970936 -2.564377
v 0.242658 0.253599 0.489575
vn -5.527882 -0.095702 -1.986498
v 0.161899 0.100604 0.542010
vn -2.523339 -3.892532 -2.251825
v 0.176767 0.082334 0.543023
vn -5.101684 -1.986333 1.040323
v 0.162037 0.098031 0.646353
vn -5.100235 -1.990685 -1.041532
v 0.162037 0.098031 0.542081
vn -0.824440 -2.282253 -5.266463
v 0.262454 0.114555 0.490673
vn -1.620636 -0.796959 -5.647130
v 0.243326 0.137564 0.489248
vn -2.718602 -0.185994 -5.622320
v 0.242381 0.140653 0.489591
vn 5.970472 0.093060 1.305960
v 0.370271 0.213250 0.593071
vn 6.036924 0.410138 1.116487
v 0.369690 0.223769 0.594225
vn 5.355822 0.179674 3.086251
v 0.369615 0.223612 0.594437
vn 5.359893 -0.008242 3.225364
v 0.369615 0.117403 0.594437
vn 5.882014 0.092189 -1.476443
v 0.370271 0.213250 0.492360
vn 5.960389 0.462842 -1.282764
v 0.369690 0.223769 0.491376
vn 4.519087 1.077851 2.462855
v 0.369443 0.225873 0.594514
vn 4.849170 1.259979 -2.224870
v 0.369443 0.225873 0.491262
vn 3.406933 1.546065 -2.916900
v 0.359496 0.249958 0.489445
vn 4.805383 3.774538 0.786906
v 0.358255 0.251977 0.595800
vn 4.657985 3.596335 -1.315624
v 0.358255 0.251977 0.489705
vn 1.260929 3.049570 -2.274211
v 0.356784 0.253599 0.489575
vn 5.398210 0.314797 -3.074715
v 0.369615 0.223612 0.491185
vn 5.452123 -0.001002 -3.122194
v 0.369615 0.117403 0.491185
vn 3.111794 0.084212 -4.696371
v 0.369314 0.222716 0.490673
vn 3.318429 0.794240 -5.208984
v 0.369090 0.225474 0.490907
vn 2.257544 1.714002 -4.374896
v 0.358321 0.251524 0.489248
vn 2.302747 -0.943621 -4.470453
v 0.369314 0.114555 0.490673
vn 0.346211 -0.124624 -6.252984
v 0.358321 0.137564 0.489248
vn -0.928480 0.313764 -6.067278
v 0.243326 0.251524 0.489248
vn -1.941766 0.237768 -5.946097
v 0.242381 0.252950 0.489591
# 75 vertices, 0 vertices normals

f 1//1 2//2 3//3
f 1//1 4//4 5//5
f 1//1 3//3 4//4
f 1//1 6//6 2//2
f 1//1 5//5 6//6
f 2//2 7//7 8//8
f 2//2 9//9 7//7
f 2//2 8//8 3//3
f 2//2 6//6 10//10
f 2//2 10//10 11//11
f 2//2 11//11 9//9
f 7//7 9//9 12//12
f 7//7 12//12 13//13
f 7//7 13//13 8//8
f 9//9 11//11 14//14
f 9//9 14//14 12//12
f 12//12 15//15 16//16
f 12//12 16//16 13//13
f 12//12 14//14 15//15
f 15//15 17//17 16//16
f 15//15 14//14 18//18
f 15//15 18//18 19//19
f 15//15 19//19 17//17
f 20//20 4//4 21//21
f 20//20 22//22 23//23
f 20//20 21//21 22//22
f 20//20 23//23 5//5
f 20//20 5//5 4//4
f 4//4 3//3 8//8
f 4//4 8//8 24//24
f 4//4 24//24 21//21
f 8//8 25//25 26//26
f 8//8 13//13 25//25
f 8//8 26//26 24//24
f 25//25 13//13 27//27
f 25//25 27//27 26//26
f 13//13 16//16 28//28
f 13//13 28//28 27//27
f 22//22 21//21 29//29
f 22//22 29//29 30//30
f 22//22 31//31 23//23
f 22//22 30//30 31//31
f 16//16 17//17 32//32
f 16//16 33//33 34//34
f 16//16 32//32 33//33
f 16//16 34//34 28//28
f 17//17 35//35 32//32
f 17//17 36//36 35//35
f 17//17 19//19 36//36
f 33//33 32//32 37//37
f 33//33 37//37 34//34
f 32//32 35//35 38//38
f 32//32 38//38 37//37
f 35//35 36//36 39//39
f 35//35 39//39 38//38
f 40//40 36//36 41//41
f 40//40 42//42 38//38
f 40//40 38//38 36//36
f 40//40 43//43 44//44
f 40//40 44//44 42//42
f 40//40 45//45 46//46
f 40//40 41//41 45//45
f 40//40 46//46 43//43
f 36//36 38//38 39//39
f 36//36 19//19 47//47
f 36//36 47//47 41//41
f 42//42 44//44 48//48
f 42//42 48//48 38//38
f 38//38 48//48 37//37
f 21//21 24//24 49//49
f 21//21 49//49 29//29
f 24//24 26//26 28//28
f 24//24 28//28 50//50
f 24//24 50//50 49//49
f 26//26 27//27 28//28
f 28//28 34//34 50//50
f 50//50 34//34 37//37
f 50//50 37//37 51//51
f 50//50 51//51 49//49
f 37//37 48//48 51//51
f 29//29 49//49 30//30
f 49//49 43//43 52//52
f 49//49 51//51 43//43
f 49//49 52//52 30//30
f 43//43 51//51 44//44
f 43//43 53//53 52//52
f 43//43 54//54 53//53
f 43//43 46//46 54//54
f 51//51 48//48 44//44
f 55//55 56//56 57//57
f 55//55 57//57 58//58
f 55//55 59//59 60//60
f 55//55 60//60 56//56
f 55//55 23//23 59//59
f 55//55 58//58 23//23
f 6//6 57//57 61//61
f 6//6 61//61 10//10
f 6//6 5//5 58//58
f 6//6 58//58 57//57
f 56//56 61//61 57//57
f 56//56 60//60 62//62
f 56//56 62//62 61//61
f 10//10 61//61 11//11
f 61//61 62//62 63//63
f 61//61 63//63 11//11
f 11//11 64//64 18//18
f 11//11 18//18 14//14
f 11//11 63//63 64//64
f 64//64 63//63 65//65
f 64//64 65//65 66//66
f 64//64 66//66 18//18
f 18//18 66//66 19//19
f 59//59 67//67 60//60
f 59//59 23//23 31//31
f 59//59 31//31 68//68
f 59//59 68//68 67//67
f 69//69 67//67 68//68
f 69//69 70//70 62//62
f 69//69 62//62 67//67
f 69//69 63//63 70//70
f 69//69 71//71 63//63
f 69//69 72//72 73//73
f 69//69 68//68 72//72
f 69//69 73//73 71//71
f 60//60 67//67 62//62
f 70//70 63//63 62//62
f 63//63 71//71 65//65
f 71//71 66//66 65//65
f 71//71 73//73 74//74
f 71//71 74//74 66//66
f 66//66 74//74 47//47
f 66//66 47//47 19//19
f 23//23 58//58 5//5
f 31//31 72//72 68//68
f 31//31 30//30 72//72
f 72//72 30//30 52//52
f 72//72 52//52 73//73
f 73//73 52//52 53//53
f 73//73 53//53 74//74
f 74//74 75//75 47//47
f 74//74 53//53 54//54
f 74//74 54//54 75//75
f 47//47 75//75 45//45
f 47//47 45//45 41//41
f 75//75 54//54 46//46
f 75//75 46//46 45//45
# 146 faces, 0 coords texture

# End of File
