####
#
# OBJ File Generated by Meshlab
#
####
# Object step_2_link_5.obj
#
# Vertices: 91
# Faces: 178
#
####
vn 3.313496 0.054379 5.298941
v 0.281449 -0.006245 0.683432
vn 2.329071 0.284062 5.457200
v 0.281445 -0.006213 0.683433
vn 1.356241 -0.075086 5.960465
v 0.281445 -0.108534 0.683433
vn 1.863514 -0.175735 5.649057
v 0.281449 -0.108577 0.683432
vn 4.908762 0.029544 3.339162
v 0.416008 -0.128007 0.582840
vn 4.312339 1.706505 1.808717
v 0.415983 -0.127642 0.582850
vn 2.266061 0.808333 5.119808
v 0.281441 -0.006192 0.683434
vn 0.228110 -0.015662 6.274135
v 0.281441 -0.108501 0.683434
vn 2.373721 1.831723 4.198792
v 0.281437 -0.006180 0.683433
vn -3.015673 0.710875 2.999057
v 0.176492 -0.006192 0.683434
vn 1.856086 3.025505 2.830321
v 0.281433 -0.006174 0.683432
vn -2.755885 1.478802 2.862614
v 0.176495 -0.006180 0.683433
vn 0.941063 4.758198 2.028299
v 0.281430 -0.006172 0.683430
vn -0.941063 4.758198 2.028299
v 0.176502 -0.006172 0.683430
vn 1.851266 4.506744 -2.160283
v 0.281433 -0.006174 0.581729
vn 1.089028 5.475415 -1.261136
v 0.281430 -0.006172 0.581732
vn -2.080343 2.740030 2.560974
v 0.176499 -0.006174 0.683432
vn -2.337485 3.821020 -2.042854
v 0.176499 -0.006174 0.581729
vn -1.089028 5.475415 -1.261136
v 0.176502 -0.006172 0.581732
vn 2.410246 1.650665 -2.299270
v 0.415983 -0.127642 0.477840
vn -0.956215 2.223075 -5.282424
v 0.305491 -0.127642 0.477840
vn 2.712268 -1.266875 5.511747
v 0.280274 -0.123691 0.681154
vn 0.902747 -2.040055 5.439819
v 0.279367 -0.124127 0.681467
vn 4.020450 -1.957101 3.335456
v 0.414442 -0.241305 0.582835
vn 1.605852 -0.804289 5.766942
v 0.281273 -0.111471 0.683135
vn -1.931885 -0.810340 5.535355
v 0.176753 -0.111471 0.683135
vn -2.099029 -2.515212 3.294873
v 0.178024 -0.124127 0.681467
vn -0.242592 -4.898248 3.196084
v 0.301001 -0.258088 0.580707
vn 2.107677 -3.233898 1.738791
v 0.406652 -0.258147 0.580440
vn 0.377239 -4.585430 3.388629
v 0.405394 -0.258088 0.580707
vn 3.188972 -0.773422 5.357796
v 0.281443 -0.108991 0.683393
vn 1.678564 -0.648345 5.757016
v 0.281448 -0.108881 0.683405
vn 4.582744 -1.249332 2.690886
v 0.415958 -0.236392 0.582852
vn 4.690500 -0.714643 2.469450
v 0.415983 -0.236294 0.582850
vn 1.707794 -0.576504 5.745761
v 0.281451 -0.108780 0.683415
vn -2.355981 -0.685813 5.164961
v 0.176500 -0.108881 0.683405
vn 1.756235 -0.472480 5.716710
v 0.281452 -0.108699 0.683423
vn -2.613504 -0.601204 4.835614
v 0.176493 -0.108780 0.683415
vn 1.821333 -0.325415 5.678555
v 0.281451 -0.108631 0.683428
vn -2.954201 -0.433047 4.143924
v 0.176489 -0.108699 0.683423
vn -3.118968 -0.222360 3.311826
v 0.176487 -0.108631 0.683428
vn -3.113626 -0.153030 3.305669
v 0.176487 -0.108577 0.683432
vn 3.908464 -0.063374 4.913042
v 0.415999 -0.235700 0.582846
vn 5.016399 -0.116473 2.549149
v 0.416008 -0.235633 0.582840
vn -2.044621 -0.074098 5.501108
v 0.176489 -0.108534 0.683433
vn -0.301832 -0.015395 6.267675
v 0.176492 -0.108501 0.683434
vn -6.278028 0.017223 0.168608
v 0.176365 -0.018587 0.681287
vn -6.273134 -0.001406 0.354755
v 0.176487 -0.006288 0.683428
vn -5.211539 0.108795 2.311945
v 0.176487 -0.006245 0.683432
vn -4.569691 0.804503 -2.656256
v 0.176487 -0.006245 0.581706
vn -4.966050 0.200952 -2.539317
v 0.176365 -0.018587 0.580552
vn -4.689124 -0.911361 2.355621
v 0.176365 -0.119830 0.681287
vn -3.434181 0.312546 3.043191
v 0.176489 -0.006213 0.683433
vn -4.323628 1.230640 -2.663040
v 0.176489 -0.006213 0.581713
vn -3.920702 1.845599 -2.616865
v 0.176492 -0.006192 0.581720
vn -3.242223 2.698148 -2.435731
v 0.176495 -0.006180 0.581725
vn -4.019547 0.526447 -4.765835
v 0.176493 -0.006414 0.581674
vn -3.208468 0.243208 -5.296974
v 0.300276 -0.152948 0.477152
vn -4.540325 0.550919 -3.946723
v 0.176489 -0.006344 0.581686
vn -4.726417 0.578962 -2.806500
v 0.176487 -0.006288 0.581696
vn -5.070892 -0.531339 -2.121698
v 0.176365 -0.119830 0.580552
vn -1.643911 0.715594 -5.677248
v 0.304619 -0.131363 0.477302
vn -1.969807 1.299185 -5.726519
v 0.305465 -0.127740 0.477826
vn -4.625355 -2.423445 1.802716
v 0.177546 -0.123691 0.681154
vn -4.524572 -1.814323 -2.021052
v 0.177546 -0.123691 0.579590
vn -1.913379 -4.661083 1.391333
v 0.300276 -0.258147 0.580440
vn -1.941410 -2.696863 -2.115947
v 0.300276 -0.258147 0.477152
vn 5.933175 0.262100 1.345198
v 0.416009 -0.127975 0.582833
vn 6.160905 0.251238 -0.760854
v 0.416009 -0.127975 0.477880
vn 6.172991 -0.063457 0.783430
v 0.416009 -0.235582 0.582833
vn 0.141887 0.042614 -6.278493
v 0.405394 -0.152980 0.476834
vn 0.910007 0.306346 -6.089336
v 0.414442 -0.131363 0.477302
vn 3.020465 -1.161307 -3.681234
v 0.414442 -0.241305 0.477302
vn 0.296331 -2.958036 -3.678221
v 0.405394 -0.258088 0.476834
vn -1.311428 0.174706 -5.980309
v 0.301001 -0.152980 0.476834
vn 1.972368 0.064324 -5.960849
v 0.415922 -0.127866 0.477813
vn 3.830381 -0.732108 -4.180081
v 0.415922 -0.236507 0.477813
vn 1.591391 0.392629 -5.877970
v 0.415958 -0.127740 0.477826
vn 4.127883 -0.797397 -2.938663
v 0.415958 -0.236392 0.477826
vn 4.578645 -0.487721 -2.546684
v 0.415983 -0.236294 0.477840
vn 4.715429 0.004756 -4.036504
v 0.415999 -0.128058 0.477854
vn 4.800830 -0.037744 -3.888673
v 0.415999 -0.235700 0.477854
vn 5.703697 0.057444 -2.246562
v 0.416008 -0.128007 0.477867
vn 5.813816 -0.110481 -1.666696
v 0.416008 -0.235633 0.477867
vn 6.244152 -0.067108 -0.449037
v 0.416009 -0.235582 0.477880
vn 5.725633 -2.199882 0.790281
v 0.414694 -0.240972 0.582395
vn 1.881595 -2.679778 -1.930357
v 0.406652 -0.258147 0.477152
vn 5.749150 -2.142830 -0.783561
v 0.414694 -0.240972 0.477775
vn 5.814619 -1.750667 1.086961
v 0.414932 -0.240212 0.582460
vn 5.809269 -1.627454 -1.184430
v 0.414932 -0.240212 0.477767
vn -0.660450 -2.677502 -3.567664
v 0.301001 -0.258088 0.476834
# 91 vertices, 0 vertices normals

f 1//1 2//2 3//3
f 1//1 4//4 5//5
f 1//1 3//3 4//4
f 1//1 6//6 2//2
f 1//1 5//5 6//6
f 2//2 7//7 8//8
f 2//2 8//8 3//3
f 2//2 6//6 7//7
f 7//7 9//9 10//10
f 7//7 10//10 8//8
f 7//7 6//6 9//9
f 9//9 11//11 12//12
f 9//9 12//12 10//10
f 9//9 6//6 11//11
f 11//11 13//13 14//14
f 11//11 15//15 16//16
f 11//11 16//16 13//13
f 11//11 17//17 12//12
f 11//11 14//14 17//17
f 11//11 6//6 15//15
f 13//13 16//16 14//14
f 15//15 18//18 19//19
f 15//15 19//19 16//16
f 15//15 6//6 20//20
f 15//15 20//20 21//21
f 15//15 21//21 18//18
f 16//16 19//19 14//14
f 22//22 23//23 24//24
f 22//22 25//25 23//23
f 22//22 24//24 25//25
f 23//23 25//25 26//26
f 23//23 27//27 28//28
f 23//23 26//26 27//27
f 23//23 29//29 24//24
f 23//23 30//30 29//29
f 23//23 28//28 30//30
f 25//25 31//31 32//32
f 25//25 32//32 26//26
f 25//25 24//24 33//33
f 25//25 33//33 31//31
f 31//31 33//33 34//34
f 31//31 34//34 32//32
f 32//32 35//35 36//36
f 32//32 36//36 26//26
f 32//32 34//34 35//35
f 35//35 37//37 38//38
f 35//35 38//38 36//36
f 35//35 34//34 37//37
f 37//37 39//39 40//40
f 37//37 40//40 38//38
f 37//37 34//34 39//39
f 39//39 4//4 41//41
f 39//39 41//41 40//40
f 39//39 34//34 4//4
f 4//4 3//3 42//42
f 4//4 42//42 41//41
f 4//4 34//34 43//43
f 4//4 43//43 44//44
f 4//4 44//44 5//5
f 3//3 8//8 45//45
f 3//3 45//45 42//42
f 8//8 10//10 46//46
f 8//8 46//46 45//45
f 47//47 48//48 49//49
f 47//47 49//49 50//50
f 47//47 51//51 52//52
f 47//47 50//50 51//51
f 47//47 52//52 41//41
f 47//47 41//41 48//48
f 48//48 41//41 42//42
f 48//48 42//42 49//49
f 49//49 53//53 54//54
f 49//49 54//54 50//50
f 49//49 42//42 45//45
f 49//49 45//45 53//53
f 53//53 10//10 55//55
f 53//53 55//55 54//54
f 53//53 45//45 46//46
f 53//53 46//46 10//10
f 10//10 12//12 56//56
f 10//10 56//56 55//55
f 12//12 17//17 18//18
f 12//12 18//18 56//56
f 17//17 14//14 19//19
f 17//17 19//19 18//18
f 51//51 57//57 58//58
f 51//51 59//59 57//57
f 51//51 60//60 59//59
f 51//51 50//50 60//60
f 51//51 61//61 52//52
f 51//51 58//58 61//61
f 57//57 59//59 58//58
f 59//59 60//60 62//62
f 59//59 62//62 58//58
f 60//60 50//50 62//62
f 50//50 54//54 21//21
f 50//50 63//63 62//62
f 50//50 21//21 63//63
f 54//54 55//55 21//21
f 55//55 56//56 21//21
f 56//56 18//18 21//21
f 64//64 27//27 52//52
f 64//64 52//52 61//61
f 64//64 65//65 66//66
f 64//64 61//61 65//65
f 64//64 66//66 27//27
f 27//27 26//26 52//52
f 27//27 66//66 28//28
f 52//52 26//26 36//36
f 52//52 36//36 38//38
f 52//52 38//38 40//40
f 52//52 40//40 41//41
f 65//65 61//61 67//67
f 65//65 67//67 66//66
f 61//61 58//58 67//67
f 6//6 5//5 68//68
f 6//6 68//68 69//69
f 6//6 69//69 20//20
f 5//5 44//44 70//70
f 5//5 70//70 68//68
f 68//68 70//70 69//69
f 71//71 72//72 73//73
f 71//71 74//74 75//75
f 71//71 73//73 74//74
f 71//71 75//75 62//62
f 71//71 62//62 72//72
f 72//72 76//76 77//77
f 72//72 78//78 76//76
f 72//72 20//20 78//78
f 72//72 77//77 73//73
f 72//72 62//62 21//21
f 72//72 21//21 20//20
f 76//76 78//78 79//79
f 76//76 79//79 77//77
f 78//78 20//20 80//80
f 78//78 80//80 79//79
f 20//20 81//81 82//82
f 20//20 83//83 81//81
f 20//20 69//69 83//83
f 20//20 82//82 80//80
f 81//81 83//83 84//84
f 81//81 84//84 82//82
f 83//83 69//69 85//85
f 83//83 85//85 84//84
f 69//69 70//70 85//85
f 29//29 30//30 66//66
f 29//29 86//86 24//24
f 29//29 87//87 88//88
f 29//29 88//88 86//86
f 29//29 66//66 87//87
f 30//30 28//28 66//66
f 24//24 86//86 89//89
f 24//24 89//89 33//33
f 86//86 88//88 90//90
f 86//86 90//90 89//89
f 89//89 90//90 79//79
f 89//89 79//79 33//33
f 33//33 79//79 80//80
f 33//33 80//80 34//34
f 34//34 44//44 43//43
f 34//34 70//70 44//44
f 34//34 80//80 85//85
f 34//34 85//85 70//70
f 87//87 74//74 73//73
f 87//87 73//73 88//88
f 87//87 66//66 67//67
f 87//87 67//67 74//74
f 74//74 67//67 91//91
f 74//74 91//91 75//75
f 73//73 90//90 88//88
f 73//73 77//77 90//90
f 90//90 77//77 79//79
f 80//80 82//82 84//84
f 80//80 84//84 85//85
f 58//58 75//75 91//91
f 58//58 62//62 75//75
f 58//58 91//91 67//67
f 62//62 63//63 21//21
# 178 faces, 0 coords texture

# End of File
