####
#
# OBJ File Generated by Meshlab
#
####
# Object step_46_link_5.obj
#
# Vertices: 90
# Faces: 176
#
####
vn 1.980918 0.488018 5.288279
v 0.086552 0.130344 0.748527
vn 2.643222 1.104136 5.379302
v 0.089765 0.147044 0.743791
vn 0.737300 1.536943 6.001138
v 0.088661 0.152047 0.742821
vn -3.014223 1.677635 2.998551
v -0.013378 0.152047 0.742821
vn 2.659888 -1.131090 4.083627
v 0.086552 0.028241 0.748527
vn 4.923366 -1.461295 1.965285
v 0.188214 0.172246 0.646619
vn -1.495704 1.046673 5.597978
v -0.016027 0.130344 0.748527
vn 4.918099 0.786837 2.442896
v 0.188214 0.278259 0.646619
vn 1.186102 1.648607 5.808088
v 0.088664 0.152085 0.742811
vn 1.363622 1.841424 5.648566
v 0.088664 0.152108 0.742804
vn 3.816855 1.068284 4.864666
v 0.186270 0.284164 0.646905
vn 3.825075 1.982696 2.517433
v 0.181737 0.310020 0.644687
vn -2.938806 1.862229 2.965948
v -0.013366 0.152085 0.742811
vn -2.831811 2.187378 2.915619
v -0.013357 0.152108 0.742804
vn 0.940784 2.411913 5.577802
v 0.088663 0.152120 0.742799
vn -2.517631 2.801874 3.397337
v -0.013350 0.152120 0.742799
vn 0.177795 3.111501 5.447159
v 0.088662 0.152124 0.742797
vn -0.368298 3.284492 5.314966
v -0.013346 0.152124 0.742797
vn 1.666837 2.848753 5.276286
v 0.179648 0.311613 0.644676
vn 2.963543 3.118748 2.672561
v 0.177882 0.316655 0.642332
vn 2.363468 3.580924 2.494307
v 0.177861 0.316684 0.642318
vn -1.276642 3.681601 4.649844
v 0.069130 0.316684 0.642318
vn 1.473804 -2.752370 2.133274
v 0.084699 0.023476 0.747765
vn -0.615592 -0.364979 6.160544
v -0.016027 0.028241 0.748527
vn 1.713554 -3.952952 -1.718774
v 0.084699 0.023476 0.647228
vn -1.636031 -2.389986 1.870876
v -0.016848 0.023476 0.747765
vn -2.052827 -2.961083 -1.672552
v -0.016848 0.023476 0.647228
vn -0.977709 -2.418960 -5.453097
v 0.083153 0.172246 0.544238
vn 2.692946 -2.096829 -2.774350
v 0.188214 0.172246 0.544238
vn -3.812216 0.414153 2.867919
v -0.017886 0.127983 0.748076
vn -4.539420 1.478969 2.631213
v -0.013458 0.151701 0.742899
vn -5.480427 1.433189 1.843581
v -0.013486 0.151556 0.742930
vn -5.558257 0.331114 -1.787029
v -0.017886 0.127983 0.646909
vn -3.400052 -0.742887 2.785288
v -0.017886 0.026568 0.748076
vn -4.182611 1.522243 2.791672
v -0.013433 0.151822 0.742873
vn -3.779491 1.562985 2.915439
v -0.013411 0.151918 0.742851
vn -3.396800 1.610341 2.981075
v -0.013393 0.151992 0.742834
vn -6.143346 1.030278 -0.566805
v -0.013486 0.151556 0.641639
vn -5.763701 0.755525 -1.615526
v -0.013458 0.151701 0.641602
vn -5.542032 0.695061 -1.923868
v -0.013433 0.151822 0.641572
vn -5.562414 0.803666 -1.873513
v -0.013411 0.151918 0.641547
vn -5.609626 0.982640 -1.766173
v -0.013393 0.151992 0.641528
vn -5.663647 1.240942 -1.600023
v -0.013378 0.152047 0.641514
vn -5.716821 1.652148 -1.301558
v -0.013366 0.152085 0.641504
vn -2.320083 3.679779 1.928756
v 0.069133 0.316697 0.642307
vn -5.723775 2.276981 -0.743241
v -0.013357 0.152108 0.641498
vn -2.431275 0.246499 -5.011202
v 0.069131 0.316655 0.538625
vn -4.644122 -1.055203 -2.316166
v -0.017886 0.026568 0.646909
vn -2.743551 -0.055288 -5.086568
v 0.069131 0.205588 0.538625
vn -2.746327 1.241731 -3.909293
v 0.069130 0.316684 0.538628
vn -2.215054 2.690735 -2.417837
v 0.069133 0.316697 0.538632
vn -1.674368 -1.037353 -5.665985
v 0.069221 0.205188 0.538645
vn -2.288721 -1.951862 -5.507439
v 0.081356 0.175042 0.543967
vn -1.325468 -1.400916 -5.771957
v 0.071098 0.200862 0.539193
vn -2.665008 -1.855989 -5.377580
v 0.069932 0.203140 0.538978
vn -2.303677 -1.703771 -5.563025
v 0.069426 0.204631 0.538716
vn -1.472645 -1.288979 -5.742763
v 0.069342 0.204843 0.538686
vn -1.557698 -1.182838 -5.710775
v 0.069274 0.205028 0.538663
vn -1.817895 -0.852600 -5.597180
v 0.069182 0.205322 0.538634
vn -1.993093 -0.618581 -5.490985
v 0.069155 0.205432 0.538627
vn -2.216203 -0.327568 -5.318193
v 0.069139 0.205520 0.538625
vn 6.128884 0.215040 0.824357
v 0.188671 0.274211 0.645149
vn 5.366092 0.188871 -2.095513
v 0.188671 0.274211 0.544701
vn 4.965959 0.506738 -2.437380
v 0.188214 0.278259 0.544238
vn 5.891872 -1.044250 0.636300
v 0.188671 0.173241 0.645149
vn 3.543300 1.127818 -2.746636
v 0.181737 0.310020 0.539444
vn 2.576000 1.791903 -3.036476
v 0.177882 0.316655 0.538625
vn 1.569850 4.562284 2.060761
v 0.177845 0.316697 0.642307
vn 2.216599 2.461756 -2.868820
v 0.177861 0.316684 0.538628
vn 0.569532 5.955015 0.975191
v 0.177834 0.316700 0.642300
vn 1.450416 3.591754 -2.582427
v 0.177845 0.316697 0.538632
vn 0.510950 5.594935 -1.607981
v 0.177834 0.316700 0.538636
vn -1.322012 5.619258 0.820222
v 0.069137 0.316700 0.642300
vn 5.184996 -0.822615 -1.800597
v 0.188671 0.173241 0.544701
vn 1.958330 -0.400748 -5.636578
v 0.181737 0.199786 0.539444
vn 1.362632 0.076574 -6.128159
v 0.177975 0.316426 0.538634
vn 1.742937 0.500382 -5.852562
v 0.177939 0.316530 0.538627
vn 2.616407 1.377649 -4.177728
v 0.177908 0.316605 0.538625
vn 0.639519 -0.246600 -6.202564
v 0.177975 0.205322 0.538634
vn 0.536983 -0.148779 -6.227564
v 0.177939 0.205432 0.538627
vn 0.229822 -0.055587 -6.271735
v 0.177908 0.205520 0.538625
vn -0.274760 0.024838 -6.269676
v 0.069139 0.316605 0.538625
vn -1.172994 5.298622 -1.382000
v 0.069137 0.316700 0.538636
vn 1.568384 -1.027863 -5.569205
v 0.187632 0.173261 0.543831
vn -0.194960 -1.653107 -6.007905
v 0.084689 0.173261 0.543831
vn 0.194045 -0.827642 -6.217549
v 0.179648 0.200862 0.539193
vn 0.295924 -0.625661 -6.234959
v 0.178062 0.205028 0.538663
vn 0.481404 -0.437137 -6.224498
v 0.178016 0.205188 0.538645
vn 0.037415 -0.778469 -6.234519
v 0.178112 0.204843 0.538686
vn -1.872939 -1.793777 -5.711969
v 0.075669 0.189838 0.541156
# 90 vertices, 0 vertices normals

f 1//1 2//2 3//3
f 1//1 3//3 4//4
f 1//1 5//5 6//6
f 1//1 7//7 5//5
f 1//1 4//4 7//7
f 1//1 8//8 2//2
f 1//1 6//6 8//8
f 2//2 9//9 3//3
f 2//2 10//10 9//9
f 2//2 8//8 11//11
f 2//2 11//11 12//12
f 2//2 12//12 10//10
f 3//3 9//9 13//13
f 3//3 13//13 4//4
f 9//9 10//10 14//14
f 9//9 14//14 13//13
f 10//10 15//15 16//16
f 10//10 16//16 14//14
f 10//10 12//12 15//15
f 15//15 17//17 18//18
f 15//15 18//18 16//16
f 15//15 12//12 19//19
f 15//15 19//19 20//20
f 15//15 20//20 21//21
f 15//15 21//21 17//17
f 17//17 21//21 22//22
f 17//17 22//22 18//18
f 23//23 5//5 24//24
f 23//23 25//25 6//6
f 23//23 26//26 25//25
f 23//23 24//24 26//26
f 23//23 6//6 5//5
f 5//5 7//7 24//24
f 25//25 26//26 27//27
f 25//25 27//27 28//28
f 25//25 29//29 6//6
f 25//25 28//28 29//29
f 30//30 7//7 31//31
f 30//30 32//32 33//33
f 30//30 31//31 32//32
f 30//30 33//33 34//34
f 30//30 34//34 24//24
f 30//30 24//24 7//7
f 7//7 35//35 31//31
f 7//7 36//36 35//35
f 7//7 37//37 36//36
f 7//7 4//4 37//37
f 32//32 31//31 38//38
f 32//32 38//38 33//33
f 31//31 35//35 39//39
f 31//31 39//39 38//38
f 35//35 36//36 40//40
f 35//35 40//40 39//39
f 36//36 37//37 41//41
f 36//36 41//41 40//40
f 37//37 4//4 42//42
f 37//37 42//42 41//41
f 4//4 13//13 43//43
f 4//4 43//43 42//42
f 13//13 14//14 44//44
f 13//13 44//44 43//43
f 14//14 16//16 45//45
f 14//14 46//46 44//44
f 14//14 45//45 46//46
f 16//16 18//18 22//22
f 16//16 22//22 45//45
f 33//33 38//38 39//39
f 33//33 39//39 40//40
f 33//33 40//40 47//47
f 33//33 48//48 34//34
f 33//33 47//47 49//49
f 33//33 49//49 48//48
f 40//40 41//41 47//47
f 41//41 42//42 50//50
f 41//41 50//50 47//47
f 42//42 43//43 50//50
f 43//43 44//44 50//50
f 44//44 46//46 51//51
f 44//44 51//51 50//50
f 46//46 45//45 51//51
f 26//26 34//34 27//27
f 26//26 24//24 34//34
f 34//34 48//48 27//27
f 27//27 48//48 52//52
f 27//27 53//53 28//28
f 27//27 54//54 53//53
f 27//27 55//55 54//54
f 27//27 56//56 55//55
f 27//27 57//57 56//56
f 27//27 58//58 57//57
f 27//27 52//52 58//58
f 48//48 59//59 52//52
f 48//48 60//60 59//59
f 48//48 61//61 60//60
f 48//48 49//49 61//61
f 62//62 8//8 6//6
f 62//62 63//63 64//64
f 62//62 64//64 8//8
f 62//62 65//65 63//63
f 62//62 6//6 65//65
f 8//8 12//12 11//11
f 8//8 64//64 12//12
f 12//12 20//20 19//19
f 12//12 64//64 66//66
f 12//12 66//66 20//20
f 20//20 66//66 67//67
f 20//20 67//67 21//21
f 21//21 68//68 22//22
f 21//21 67//67 69//69
f 21//21 69//69 68//68
f 68//68 70//70 45//45
f 68//68 69//69 71//71
f 68//68 71//71 70//70
f 68//68 45//45 22//22
f 70//70 71//71 72//72
f 70//70 72//72 73//73
f 70//70 73//73 45//45
f 63//63 65//65 74//74
f 63//63 74//74 29//29
f 63//63 29//29 64//64
f 64//64 29//29 75//75
f 64//64 75//75 66//66
f 66//66 76//76 77//77
f 66//66 77//77 78//78
f 66//66 78//78 67//67
f 66//66 75//75 79//79
f 66//66 79//79 76//76
f 76//76 79//79 80//80
f 76//76 80//80 77//77
f 77//77 80//80 81//81
f 77//77 81//81 78//78
f 78//78 81//81 82//82
f 78//78 82//82 67//67
f 67//67 82//82 47//47
f 67//67 47//47 69//69
f 69//69 47//47 50//50
f 69//69 50//50 71//71
f 71//71 50//50 51//51
f 71//71 51//51 72//72
f 72//72 51//51 83//83
f 72//72 83//83 73//73
f 65//65 6//6 29//29
f 65//65 29//29 74//74
f 84//84 29//29 85//85
f 84//84 75//75 29//29
f 84//84 86//86 75//75
f 84//84 85//85 86//86
f 29//29 28//28 85//85
f 75//75 86//86 87//87
f 75//75 87//87 88//88
f 75//75 88//88 79//79
f 86//86 89//89 87//87
f 86//86 85//85 54//54
f 86//86 54//54 89//89
f 89//89 54//54 57//57
f 89//89 57//57 87//87
f 87//87 57//57 58//58
f 87//87 58//58 88//88
f 88//88 58//58 52//52
f 88//88 52//52 79//79
f 79//79 52//52 59//59
f 79//79 59//59 80//80
f 80//80 59//59 60//60
f 80//80 60//60 81//81
f 81//81 60//60 61//61
f 81//81 61//61 82//82
f 45//45 73//73 51//51
f 73//73 83//83 51//51
f 82//82 61//61 49//49
f 82//82 49//49 47//47
f 85//85 28//28 54//54
f 28//28 53//53 90//90
f 28//28 90//90 54//54
f 53//53 54//54 90//90
f 54//54 55//55 56//56
f 54//54 56//56 57//57
# 176 faces, 0 coords texture

# End of File
