####
#
# OBJ File Generated by Meshlab
#
####
# Object step_22_link_5.obj
#
# Vertices: 93
# Faces: 182
#
####
vn 3.837629 4.972300 0.094158
v 0.207913 0.082888 0.723798
vn 2.640227 2.670612 2.606333
v 0.206650 0.083833 0.725168
vn 4.467439 1.849477 1.378837
v 0.350461 -0.025967 0.621098
vn 3.750321 5.037964 -0.110860
v 0.207913 0.082888 0.623551
vn 2.795873 5.335052 -0.885015
v 0.206650 0.083833 0.624084
vn 2.046839 4.087423 2.589246
v 0.204053 0.084834 0.725950
vn 0.963051 3.281259 2.924475
v 0.195972 0.085498 0.729355
vn 2.374741 0.872781 5.669349
v 0.201357 0.084181 0.727402
vn 2.304071 -0.696513 5.751142
v 0.201357 -0.017542 0.727402
vn 0.905677 5.116929 -2.077380
v 0.204053 0.084834 0.623696
vn 2.773429 -0.738804 5.442257
v 0.206650 -0.017948 0.725168
vn 4.169292 0.156126 4.622249
v 0.342226 -0.024623 0.630426
vn 4.325259 1.558712 3.898962
v 0.342304 -0.022949 0.630212
vn 1.118621 5.947441 0.962175
v 0.203426 0.084990 0.725952
vn 0.861774 6.184174 -0.154391
v 0.203426 0.084990 0.625496
vn 0.135312 6.238109 -0.436467
v 0.195972 0.085498 0.627812
vn 2.190574 0.221814 5.880199
v 0.194596 0.084246 0.729956
vn 2.114491 0.280729 5.901701
v 0.194509 0.084240 0.729989
vn 1.998894 0.369893 5.930910
v 0.194430 0.084234 0.730017
vn 1.858668 0.480730 5.959106
v 0.194360 0.084227 0.730041
vn 1.695872 0.613052 5.981277
v 0.194298 0.084219 0.730060
vn 1.488576 0.786685 5.991060
v 0.194245 0.084212 0.730075
vn 1.232062 0.998842 5.978844
v 0.194199 0.084204 0.730087
vn 0.901187 1.268492 5.919088
v 0.194162 0.084196 0.730096
vn 0.541880 1.520596 5.821642
v 0.194131 0.084189 0.730101
vn -0.900010 4.451035 2.231821
v 0.091518 0.085498 0.729355
vn 2.185200 -0.443265 5.856690
v 0.194596 -0.017753 0.729956
vn 2.098122 -0.577324 5.862599
v 0.194509 -0.017751 0.729989
vn 1.964670 -0.773365 5.860806
v 0.194430 -0.017748 0.730017
vn 1.794869 -1.020177 5.835003
v 0.194360 -0.017744 0.730041
vn 1.584732 -1.318567 5.766579
v 0.194298 -0.017739 0.730060
vn 1.322771 -1.632800 5.650100
v 0.194245 -0.017734 0.730075
vn 1.063406 -1.796037 5.586707
v 0.194199 -0.017728 0.730087
vn 0.737517 -1.974501 5.484001
v 0.194162 -0.017722 0.730096
vn 0.361258 1.402943 5.900564
v 0.194107 0.084183 0.730105
vn 0.520833 -2.009580 5.475556
v 0.194131 -0.017716 0.730101
vn -1.526124 4.203624 2.779088
v 0.089180 0.084189 0.730101
vn 0.173046 0.732912 6.172832
v 0.194089 0.084177 0.730106
vn 0.359095 -1.554164 5.815918
v 0.194107 -0.017711 0.730105
vn -1.900886 3.234710 2.752213
v 0.089168 0.084183 0.730105
vn 0.027796 0.107714 6.280622
v 0.194076 0.084173 0.730106
vn 0.171213 -0.804158 6.153195
v 0.194089 -0.017706 0.730106
vn -2.541166 1.669614 2.621350
v 0.089163 0.084177 0.730106
vn 0.027519 -0.115182 6.280324
v 0.194076 -0.017701 0.730106
vn -3.050284 0.453753 2.874690
v 0.089161 0.084173 0.730106
vn 2.542152 1.744265 -2.107036
v 0.350461 -0.025967 0.518110
vn -0.757138 4.433279 -3.227285
v 0.102418 0.084834 0.623696
vn -0.696181 3.469235 -5.025581
v 0.243152 -0.025967 0.518110
vn -1.608030 4.041577 -2.275757
v 0.091518 0.085498 0.627812
vn 2.253588 -1.806997 5.577615
v 0.204053 -0.018848 0.725950
vn 1.517859 -2.779144 4.629362
v 0.340925 -0.132535 0.631166
vn 1.679560 -1.997542 5.535036
v 0.195972 -0.018359 0.729355
vn 3.965875 -0.405648 4.718535
v 0.342226 -0.132225 0.630426
vn -0.563725 -4.049978 4.588308
v 0.089180 -0.017716 0.730101
vn -1.243047 -4.838264 3.012987
v 0.229877 -0.132535 0.631166
vn -1.945106 -3.291816 2.920960
v 0.089168 -0.017711 0.730105
vn -2.484998 -1.744664 2.590517
v 0.089163 -0.017706 0.730106
vn -3.041719 -0.478803 2.858927
v 0.089161 -0.017701 0.730106
vn -3.200933 2.856388 -2.650878
v 0.089180 0.084189 0.628351
vn -3.571436 2.512747 -2.280623
v 0.089168 0.084183 0.628359
vn -4.736410 1.772439 -1.689622
v 0.089163 0.084177 0.628365
vn -6.070727 0.607087 -0.657696
v 0.089161 0.084173 0.628369
vn -1.220279 1.321787 -5.465885
v 0.243261 -0.026585 0.517742
vn -2.703347 2.371573 -5.082443
v 0.089227 0.084204 0.628329
vn -3.075355 2.772729 -4.223197
v 0.089199 0.084196 0.628341
vn -2.843690 1.179220 -5.370534
v 0.231381 -0.022949 0.524345
vn -3.323638 0.168951 -5.302997
v 0.231053 -0.024623 0.524418
vn -3.948540 -2.273177 -2.420442
v 0.089168 -0.017711 0.628359
vn -4.645400 -1.864721 -1.669249
v 0.089163 -0.017706 0.628365
vn -6.058752 -0.649695 -0.649324
v 0.089161 -0.017701 0.628369
vn -2.900042 -5.301929 0.741659
v 0.229569 -0.132556 0.630642
vn -3.464804 -0.436367 -5.154621
v 0.231053 -0.132225 0.524418
vn -4.191356 -1.306330 -4.406119
v 0.230178 -0.132252 0.525144
vn -4.289677 -3.031625 -3.142741
v 0.229877 -0.132535 0.525619
vn -3.515938 -4.554765 -1.332022
v 0.229586 -0.132563 0.526164
vn -3.453232 -4.957109 -0.604110
v 0.229569 -0.132556 0.526198
vn 3.567887 -2.300595 1.167125
v 0.350461 -0.130872 0.621098
vn 1.510932 0.381721 -5.769376
v 0.349571 -0.027948 0.517559
vn 2.316243 -1.897777 -1.773889
v 0.350461 -0.130872 0.518110
vn 0.094346 2.009704 -5.810621
v 0.348105 -0.026585 0.517742
vn 1.518003 -0.382136 -5.768693
v 0.349571 -0.128979 0.517559
vn -0.070119 0.380921 -6.253865
v 0.248078 -0.027948 0.517559
vn 1.906379 -3.115888 2.304385
v 0.342304 -0.133269 0.630212
vn 0.643532 -6.020911 -0.758454
v 0.342304 -0.133269 0.524345
vn -0.750986 -5.475868 1.572545
v 0.231381 -0.133269 0.630212
vn 0.216292 -1.326909 -6.104402
v 0.348105 -0.130414 0.517742
vn -0.070639 -0.360518 -6.256535
v 0.248078 -0.128979 0.517559
vn 0.455692 -3.804711 -3.703314
v 0.348277 -0.131104 0.517945
vn 0.064794 -5.895048 -2.149609
v 0.346768 -0.131265 0.518328
vn -0.566471 -3.613658 -4.153836
v 0.243601 -0.131104 0.517945
vn -1.490921 -1.055283 -5.573820
v 0.243261 -0.130414 0.517742
vn -0.072713 -5.863162 -2.238672
v 0.243651 -0.131265 0.518328
vn -1.793568 -3.241786 -2.407346
v 0.231381 -0.133269 0.524345
# 93 vertices, 0 vertices normals

f 1//1 2//2 3//3
f 1//1 4//4 5//5
f 1//1 5//5 2//2
f 1//1 3//3 4//4
f 2//2 6//6 7//7
f 2//2 8//8 9//9
f 2//2 7//7 8//8
f 2//2 5//5 10//10
f 2//2 10//10 6//6
f 2//2 11//11 12//12
f 2//2 9//9 11//11
f 2//2 13//13 3//3
f 2//2 12//12 13//13
f 6//6 14//14 7//7
f 6//6 10//10 15//15
f 6//6 15//15 14//14
f 14//14 15//15 16//16
f 14//14 16//16 7//7
f 8//8 7//7 17//17
f 8//8 17//17 9//9
f 7//7 18//18 17//17
f 7//7 19//19 18//18
f 7//7 20//20 19//19
f 7//7 21//21 20//20
f 7//7 22//22 21//21
f 7//7 23//23 22//22
f 7//7 24//24 23//23
f 7//7 25//25 24//24
f 7//7 16//16 26//26
f 7//7 26//26 25//25
f 17//17 18//18 27//27
f 17//17 27//27 9//9
f 18//18 19//19 28//28
f 18//18 28//28 27//27
f 19//19 20//20 29//29
f 19//19 29//29 28//28
f 20//20 21//21 30//30
f 20//20 30//30 29//29
f 21//21 22//22 31//31
f 21//21 31//31 30//30
f 22//22 23//23 32//32
f 22//22 32//32 31//31
f 23//23 24//24 33//33
f 23//23 33//33 32//32
f 24//24 25//25 34//34
f 24//24 34//34 33//33
f 25//25 35//35 36//36
f 25//25 36//36 34//34
f 25//25 26//26 37//37
f 25//25 37//37 35//35
f 35//35 38//38 39//39
f 35//35 39//39 36//36
f 35//35 37//37 40//40
f 35//35 40//40 38//38
f 38//38 41//41 42//42
f 38//38 42//42 39//39
f 38//38 40//40 43//43
f 38//38 43//43 41//41
f 41//41 44//44 42//42
f 41//41 43//43 45//45
f 41//41 45//45 44//44
f 4//4 3//3 46//46
f 4//4 46//46 5//5
f 5//5 46//46 10//10
f 10//10 16//16 15//15
f 10//10 47//47 16//16
f 10//10 46//46 48//48
f 10//10 48//48 47//47
f 16//16 47//47 49//49
f 16//16 49//49 26//26
f 11//11 50//50 51//51
f 11//11 9//9 52//52
f 11//11 52//52 50//50
f 11//11 53//53 12//12
f 11//11 51//51 53//53
f 50//50 52//52 51//51
f 9//9 27//27 52//52
f 52//52 27//27 28//28
f 52//52 28//28 29//29
f 52//52 29//29 30//30
f 52//52 30//30 31//31
f 52//52 31//31 32//32
f 52//52 32//32 51//51
f 32//32 33//33 51//51
f 33//33 34//34 51//51
f 34//34 36//36 51//51
f 36//36 39//39 54//54
f 36//36 54//54 55//55
f 36//36 55//55 51//51
f 39//39 42//42 56//56
f 39//39 56//56 54//54
f 42//42 44//44 57//57
f 42//42 57//57 56//56
f 44//44 45//45 58//58
f 44//44 58//58 57//57
f 26//26 49//49 59//59
f 26//26 59//59 37//37
f 37//37 59//59 60//60
f 37//37 60//60 40//40
f 40//40 60//60 61//61
f 40//40 61//61 43//43
f 43//43 61//61 62//62
f 43//43 62//62 45//45
f 45//45 62//62 58//58
f 47//47 48//48 63//63
f 47//47 63//63 49//49
f 49//49 64//64 65//65
f 49//49 65//65 59//59
f 49//49 63//63 66//66
f 49//49 66//66 64//64
f 64//64 66//66 65//65
f 65//65 66//66 59//59
f 59//59 66//66 67//67
f 59//59 67//67 60//60
f 60//60 68//68 61//61
f 60//60 67//67 68//68
f 61//61 68//68 69//69
f 61//61 69//69 62//62
f 62//62 69//69 70//70
f 62//62 70//70 58//58
f 54//54 56//56 55//55
f 56//56 57//57 69//69
f 56//56 68//68 71//71
f 56//56 69//69 68//68
f 56//56 71//71 55//55
f 57//57 58//58 70//70
f 57//57 70//70 69//69
f 68//68 67//67 72//72
f 68//68 72//72 73//73
f 68//68 73//73 74//74
f 68//68 74//74 75//75
f 68//68 75//75 76//76
f 68//68 76//76 71//71
f 3//3 13//13 12//12
f 3//3 12//12 77//77
f 3//3 77//77 46//46
f 12//12 53//53 77//77
f 78//78 46//46 79//79
f 78//78 80//80 46//46
f 78//78 81//81 82//82
f 78//78 79//79 81//81
f 78//78 82//82 80//80
f 46//46 80//80 48//48
f 46//46 77//77 79//79
f 80//80 82//82 63//63
f 80//80 63//63 48//48
f 77//77 83//83 84//84
f 77//77 53//53 83//83
f 77//77 84//84 79//79
f 83//83 53//53 51//51
f 83//83 51//51 85//85
f 83//83 85//85 84//84
f 51//51 55//55 85//85
f 81//81 79//79 86//86
f 81//81 86//86 87//87
f 81//81 87//87 82//82
f 79//79 88//88 86//86
f 79//79 84//84 88//88
f 88//88 89//89 90//90
f 88//88 84//84 89//89
f 88//88 90//90 86//86
f 86//86 90//90 91//91
f 86//86 91//91 87//87
f 89//89 84//84 92//92
f 89//89 92//92 90//90
f 84//84 85//85 93//93
f 84//84 93//93 92//92
f 82//82 87//87 63//63
f 63//63 67//67 66//66
f 63//63 87//87 91//91
f 63//63 91//91 72//72
f 63//63 72//72 67//67
f 85//85 55//55 71//71
f 85//85 71//71 76//76
f 85//85 76//76 93//93
f 90//90 92//92 93//93
f 90//90 93//93 91//91
f 91//91 93//93 72//72
f 93//93 73//73 72//72
f 93//93 74//74 73//73
f 93//93 75//75 74//74
f 93//93 76//76 75//75
# 182 faces, 0 coords texture

# End of File
