####
#
# OBJ File Generated by Meshlab
#
####
# Object step_10_link_6.obj
#
# Vertices: 51
# Faces: 98
#
####
vn 3.754291 0.484300 4.951032
v 0.423571 -0.034533 0.580313
vn 1.179080 2.469019 2.455514
v 0.420378 -0.030715 0.582289
vn 1.158152 -1.778821 4.909703
v 0.420378 -0.142546 0.582289
vn 3.539339 -0.106580 5.179589
v 0.423571 -0.138852 0.580313
vn 4.037992 1.731699 1.673754
v 0.498705 -0.083538 0.524249
vn 1.198637 5.129398 -1.522949
v 0.420378 -0.030715 0.476341
vn -1.384741 2.289596 2.093355
v 0.309219 -0.030715 0.582289
vn 3.651671 5.096398 0.250517
v 0.494434 -0.080520 0.526133
vn -2.107217 2.936377 -1.859969
v 0.309219 -0.030715 0.476341
vn 1.526175 2.629878 -3.043735
v 0.494434 -0.080520 0.418248
vn -1.119001 1.946657 -4.815248
v 0.380079 -0.080520 0.418248
vn 4.495101 -1.194958 2.055821
v 0.498705 -0.189196 0.524249
vn -1.941358 -2.197798 2.727637
v 0.309219 -0.142546 0.582289
vn -1.278118 -4.967162 1.586456
v 0.380079 -0.195443 0.526133
vn 2.008783 -3.109605 1.948798
v 0.494434 -0.195443 0.526133
vn -4.474536 1.519905 2.350197
v 0.308574 -0.031824 0.582062
vn -4.298399 0.700842 2.845443
v 0.308504 -0.032180 0.582071
vn -2.515909 0.254664 5.691886
v 0.308368 -0.033277 0.582074
vn -2.330786 0.130231 5.767036
v 0.308345 -0.033397 0.582069
vn -5.001913 1.578385 -1.941703
v 0.308574 -0.031824 0.476766
vn -4.995860 0.731812 -2.441642
v 0.308504 -0.032180 0.476773
vn -4.215942 0.343148 4.228544
v 0.308332 -0.033405 0.582062
vn -5.703506 0.315980 1.645630
v 0.308326 -0.033415 0.582053
vn -5.964548 0.333872 -1.191122
v 0.308326 -0.033415 0.476841
vn -4.230140 -0.385054 4.186410
v 0.308332 -0.139982 0.582062
vn -2.355499 -0.162123 5.750588
v 0.308345 -0.139991 0.582069
vn -5.699593 -0.337125 1.638448
v 0.308326 -0.139972 0.582053
vn -3.477306 0.501992 -5.194677
v 0.379376 -0.081850 0.418567
vn -3.057310 0.220241 -5.408533
v 0.379198 -0.082938 0.418594
vn -4.188336 0.367911 -4.643036
v 0.308368 -0.033277 0.476803
vn -5.090992 0.327444 -3.330765
v 0.308332 -0.033405 0.476828
vn -3.316630 0.082775 -5.267672
v 0.379168 -0.083058 0.418607
vn -4.172890 0.204030 -4.672706
v 0.308345 -0.033397 0.476815
vn -4.235184 -0.213862 -4.616511
v 0.308345 -0.139991 0.476815
vn -5.094961 -0.367868 -3.300212
v 0.308332 -0.139982 0.476828
vn -5.960339 -0.356781 -1.185084
v 0.308326 -0.139972 0.476841
vn -4.115605 -1.398279 2.415507
v 0.308574 -0.141594 0.582062
vn -4.855835 -1.534101 -1.922271
v 0.308574 -0.141594 0.476766
vn -2.561204 -0.308907 5.675074
v 0.308368 -0.140091 0.582074
vn -4.216744 -2.840942 -1.943694
v 0.309219 -0.142546 0.476341
vn -3.967553 -2.014725 -3.730672
v 0.379468 -0.194878 0.418564
vn -1.154976 -2.539813 -2.445216
v 0.380079 -0.195443 0.418248
vn -4.336719 -0.449884 -4.514647
v 0.308368 -0.140091 0.476803
vn -4.157485 -0.479665 -4.676752
v 0.379150 -0.193347 0.418622
vn -3.408588 -0.218144 -5.177373
v 0.379168 -0.193350 0.418607
vn 3.767583 1.790644 -1.827754
v 0.498705 -0.083538 0.419138
vn 2.264984 0.848986 -5.400580
v 0.498085 -0.083710 0.418699
vn 4.565035 -1.139503 -2.010383
v 0.498705 -0.189196 0.419138
vn 2.868243 -1.204392 -4.552160
v 0.498085 -0.189779 0.418699
vn 1.313920 -2.416992 -2.169339
v 0.494434 -0.195443 0.418248
vn -3.231421 -0.344441 -5.249112
v 0.379198 -0.193443 0.418594
# 51 vertices, 0 vertices normals

f 1//1 2//2 3//3
f 1//1 4//4 5//5
f 1//1 3//3 4//4
f 1//1 5//5 2//2
f 2//2 6//6 7//7
f 2//2 7//7 3//3
f 2//2 5//5 8//8
f 2//2 8//8 6//6
f 6//6 9//9 7//7
f 6//6 8//8 10//10
f 6//6 10//10 11//11
f 6//6 11//11 9//9
f 4//4 3//3 12//12
f 4//4 12//12 5//5
f 3//3 7//7 13//13
f 3//3 13//13 14//14
f 3//3 15//15 12//12
f 3//3 14//14 15//15
f 7//7 16//16 17//17
f 7//7 17//17 18//18
f 7//7 18//18 19//19
f 7//7 19//19 13//13
f 7//7 9//9 20//20
f 7//7 20//20 16//16
f 16//16 20//20 21//21
f 16//16 21//21 17//17
f 17//17 22//22 18//18
f 17//17 23//23 22//22
f 17//17 21//21 24//24
f 17//17 24//24 23//23
f 18//18 22//22 19//19
f 19//19 22//22 25//25
f 19//19 26//26 13//13
f 19//19 25//25 26//26
f 22//22 23//23 27//27
f 22//22 27//27 25//25
f 23//23 24//24 27//27
f 9//9 21//21 20//20
f 9//9 11//11 28//28
f 9//9 28//28 29//29
f 9//9 29//29 21//21
f 21//21 30//30 31//31
f 21//21 31//31 24//24
f 21//21 29//29 32//32
f 21//21 32//32 30//30
f 30//30 33//33 31//31
f 30//30 32//32 33//33
f 33//33 34//34 35//35
f 33//33 35//35 31//31
f 33//33 32//32 34//34
f 31//31 35//35 36//36
f 31//31 36//36 24//24
f 24//24 36//36 27//27
f 13//13 37//37 38//38
f 13//13 39//39 37//37
f 13//13 26//26 39//39
f 13//13 40//40 14//14
f 13//13 38//38 40//40
f 37//37 39//39 25//25
f 37//37 25//25 27//27
f 37//37 27//27 36//36
f 37//37 36//36 38//38
f 39//39 26//26 25//25
f 40//40 38//38 41//41
f 40//40 42//42 14//14
f 40//40 41//41 42//42
f 38//38 43//43 44//44
f 38//38 35//35 43//43
f 38//38 36//36 35//35
f 38//38 44//44 41//41
f 43//43 34//34 44//44
f 43//43 35//35 34//34
f 34//34 32//32 45//45
f 34//34 45//45 44//44
f 5//5 46//46 10//10
f 5//5 10//10 8//8
f 5//5 12//12 46//46
f 46//46 47//47 10//10
f 46//46 12//12 48//48
f 46//46 48//48 47//47
f 47//47 48//48 49//49
f 47//47 49//49 10//10
f 10//10 49//49 50//50
f 10//10 50//50 11//11
f 12//12 15//15 50//50
f 12//12 50//50 48//48
f 15//15 14//14 50//50
f 48//48 50//50 49//49
f 50//50 14//14 42//42
f 50//50 42//42 11//11
f 11//11 29//29 28//28
f 11//11 42//42 29//29
f 29//29 42//42 51//51
f 29//29 51//51 32//32
f 32//32 51//51 45//45
f 42//42 41//41 51//51
f 41//41 44//44 51//51
f 51//51 44//44 45//45
# 98 faces, 0 coords texture

# End of File
