####
#
# OBJ File Generated by Meshlab
#
####
# Object step_21_link_7.obj
#
# Vertices: 54
# Faces: 104
#
####
vn 2.181792 4.344785 1.669023
v 0.422835 -0.080924 0.571365
vn 3.994638 2.979849 3.436757
v 0.422852 -0.081743 0.572172
vn 5.025878 1.602116 1.567088
v 0.565348 -0.129222 0.348678
vn 0.898112 2.494806 3.976644
v 0.421389 -0.081563 0.573061
vn 0.836776 6.092856 -0.336035
v 0.422835 -0.080924 0.463675
vn -0.801080 5.925527 0.825759
v 0.308885 -0.080924 0.571365
vn 3.278137 5.087064 0.294810
v 0.564354 -0.127961 0.347079
vn 4.862336 3.169949 0.622213
v 0.565286 -0.128946 0.348168
vn 3.770682 1.268720 4.067873
v 0.422847 -0.081956 0.572336
vn 0.940998 -2.396793 4.220850
v 0.421389 -0.193214 0.573061
vn 3.673721 -1.153126 4.283819
v 0.422847 -0.192908 0.572336
vn -1.579605 2.225094 2.888122
v 0.307343 -0.081563 0.573061
vn -1.471638 5.718708 -0.832378
v 0.308885 -0.080924 0.463675
vn 2.291927 2.922510 -2.139953
v 0.564354 -0.127961 0.183105
vn -1.789977 3.011338 -2.935754
v 0.385585 -0.127961 0.183105
vn 3.197995 -3.465126 3.965903
v 0.422852 -0.193139 0.572172
vn 1.917302 -4.340463 1.990374
v 0.564251 -0.302564 0.349563
vn 4.214590 -2.203506 1.361002
v 0.565348 -0.302112 0.348678
vn -1.676509 -2.150128 3.225086
v 0.307343 -0.193214 0.573061
vn -1.351503 -5.484885 1.193109
v 0.384694 -0.302564 0.349563
vn -2.932947 5.324090 0.566067
v 0.307228 -0.081533 0.572500
vn -2.931946 5.486359 -0.042543
v 0.307228 -0.081533 0.465693
vn -3.893028 4.922228 0.099526
v 0.306941 -0.081743 0.572172
vn -4.520727 1.788832 1.435806
v 0.306690 -0.081956 0.572336
vn -3.497711 4.905109 -0.943656
v 0.306941 -0.081743 0.464636
vn -4.937258 2.226057 -0.748008
v 0.306690 -0.081956 0.464713
vn -4.513117 -1.771708 1.613055
v 0.306690 -0.192908 0.572336
vn -2.618586 5.696399 -0.282543
v 0.307237 -0.081531 0.465652
vn -3.940185 1.874325 -3.240105
v 0.384014 -0.128946 0.184063
vn -5.635598 -1.554297 -0.511596
v 0.306690 -0.192908 0.464713
vn -5.395524 1.058850 -2.378021
v 0.383716 -0.129222 0.184489
vn -3.699957 -4.939735 1.169358
v 0.306941 -0.193139 0.572172
vn -3.895373 -4.624387 0.310753
v 0.383716 -0.302112 0.348678
vn -4.127107 -2.485061 -1.431273
v 0.383716 -0.302112 0.184489
vn 4.732876 1.630188 -1.681790
v 0.565286 -0.128946 0.184063
vn 6.182645 0.559965 -0.308597
v 0.565348 -0.129222 0.184489
vn 3.575256 0.645632 -4.959743
v 0.557278 -0.133879 0.176264
vn 1.023182 2.103227 -4.635076
v 0.555776 -0.133375 0.175439
vn 3.643690 -0.251316 -5.019299
v 0.557278 -0.289124 0.176264
vn 1.230829 -1.280015 -5.422525
v 0.555776 -0.289927 0.175439
vn -0.945446 2.067941 -4.688198
v 0.399018 -0.133375 0.175439
vn 1.720999 -2.894536 -2.514232
v 0.564354 -0.302456 0.183105
vn 3.679651 -2.329721 -1.566033
v 0.565286 -0.302214 0.184063
vn 5.805208 -1.491956 -0.259875
v 0.565348 -0.302112 0.184489
vn 4.006026 -4.473501 0.180516
v 0.565286 -0.302214 0.348168
vn 2.376523 -5.749715 0.282691
v 0.565002 -0.302355 0.348245
vn 2.082620 -5.871815 -0.165250
v 0.565002 -0.302355 0.184470
vn 0.807610 -6.165382 -0.078015
v 0.564251 -0.302564 0.185845
vn -1.115992 -1.206453 -5.498212
v 0.399018 -0.289927 0.175439
vn -1.334749 -3.022779 -2.879224
v 0.385585 -0.302456 0.183105
vn -1.167081 -6.038280 -0.110890
v 0.384694 -0.302564 0.185845
vn -2.982151 -2.553726 -2.712220
v 0.384014 -0.302214 0.184063
vn -2.645834 -5.692528 0.032257
v 0.384189 -0.302355 0.348245
vn -2.010952 -5.805510 -0.560373
v 0.384189 -0.302355 0.184470
# 54 vertices, 0 vertices normals

f 1//1 2//2 3//3
f 1//1 4//4 2//2
f 1//1 5//5 6//6
f 1//1 6//6 4//4
f 1//1 7//7 5//5
f 1//1 8//8 7//7
f 1//1 3//3 8//8
f 2//2 9//9 3//3
f 2//2 4//4 9//9
f 9//9 4//4 10//10
f 9//9 11//11 3//3
f 9//9 10//10 11//11
f 4//4 6//6 12//12
f 4//4 12//12 10//10
f 5//5 13//13 6//6
f 5//5 7//7 14//14
f 5//5 14//14 15//15
f 5//5 15//15 13//13
f 16//16 11//11 10//10
f 16//16 10//10 17//17
f 16//16 17//17 11//11
f 11//11 18//18 3//3
f 11//11 17//17 18//18
f 10//10 12//12 19//19
f 10//10 19//19 20//20
f 10//10 20//20 17//17
f 6//6 21//21 12//12
f 6//6 13//13 22//22
f 6//6 22//22 21//21
f 23//23 24//24 21//21
f 23//23 21//21 22//22
f 23//23 25//25 26//26
f 23//23 26//26 24//24
f 23//23 22//22 25//25
f 24//24 12//12 21//21
f 24//24 26//26 27//27
f 24//24 27//27 19//19
f 24//24 19//19 12//12
f 13//13 25//25 28//28
f 13//13 28//28 22//22
f 13//13 15//15 25//25
f 25//25 22//22 28//28
f 25//25 15//15 29//29
f 25//25 29//29 26//26
f 26//26 30//30 27//27
f 26//26 29//29 31//31
f 26//26 31//31 30//30
f 32//32 27//27 33//33
f 32//32 19//19 27//27
f 32//32 33//33 19//19
f 27//27 30//30 33//33
f 19//19 33//33 20//20
f 30//30 31//31 34//34
f 30//30 34//34 33//33
f 7//7 8//8 35//35
f 7//7 35//35 14//14
f 8//8 3//3 36//36
f 8//8 36//36 35//35
f 3//3 18//18 36//36
f 37//37 38//38 14//14
f 37//37 14//14 39//39
f 37//37 39//39 38//38
f 38//38 39//39 40//40
f 38//38 40//40 41//41
f 38//38 41//41 14//14
f 14//14 35//35 42//42
f 14//14 42//42 39//39
f 14//14 41//41 15//15
f 35//35 36//36 43//43
f 35//35 43//43 42//42
f 36//36 18//18 44//44
f 36//36 44//44 43//43
f 45//45 46//46 47//47
f 45//45 18//18 46//46
f 45//45 43//43 44//44
f 45//45 47//47 43//43
f 45//45 44//44 18//18
f 46//46 18//18 17//17
f 46//46 17//17 48//48
f 46//46 48//48 47//47
f 17//17 20//20 48//48
f 39//39 42//42 40//40
f 40//40 42//42 49//49
f 40//40 49//49 41//41
f 42//42 43//43 47//47
f 42//42 47//47 48//48
f 42//42 48//48 50//50
f 42//42 50//50 49//49
f 48//48 20//20 51//51
f 48//48 51//51 50//50
f 41//41 49//49 15//15
f 15//15 49//49 50//50
f 15//15 50//50 29//29
f 29//29 50//50 52//52
f 29//29 52//52 31//31
f 31//31 52//52 34//34
f 53//53 33//33 34//34
f 53//53 20//20 33//33
f 53//53 54//54 51//51
f 53//53 34//34 54//54
f 53//53 51//51 20//20
f 50//50 54//54 52//52
f 50//50 51//51 54//54
f 52//52 54//54 34//34
# 104 faces, 0 coords texture

# End of File
