####
#
# OBJ File Generated by Meshlab
#
####
# Object step_7_link_5.obj
#
# Vertices: 79
# Faces: 154
#
####
vn 2.825576 4.882002 1.303204
v 0.277529 0.041895 0.690329
vn 2.087306 2.155401 4.527875
v 0.277439 0.041901 0.690449
vn 4.617413 3.411291 1.281866
v 0.431188 -0.041813 0.578065
vn 1.770018 3.015574 3.976185
v 0.277431 0.041911 0.690446
vn 1.133601 4.139967 3.051887
v 0.277424 0.041917 0.690444
vn 0.482207 5.481271 1.804950
v 0.277418 0.041919 0.690442
vn 1.272796 5.378883 -1.600909
v 0.277529 0.041895 0.588705
vn 0.411339 5.924880 -1.167584
v 0.277418 0.041919 0.588754
vn 3.823496 4.759087 0.481804
v 0.431177 -0.041800 0.578052
vn 3.320413 0.058571 5.305772
v 0.277489 0.041702 0.690443
vn 2.884086 0.169356 5.464035
v 0.277481 0.041756 0.690447
vn 1.415735 -0.157320 5.934311
v 0.277481 -0.059784 0.690447
vn 1.844599 -0.189400 5.675392
v 0.277489 -0.059852 0.690443
vn 4.857923 0.387388 2.563299
v 0.431232 -0.043115 0.578541
vn 2.454199 0.323940 5.515537
v 0.277473 0.041800 0.690449
vn 0.931658 -0.105293 6.134084
v 0.277473 -0.059723 0.690449
vn 2.118347 0.529436 5.458089
v 0.277465 0.041836 0.690451
vn 0.444871 -0.046170 6.248166
v 0.277465 -0.059670 0.690451
vn 2.091347 0.860742 5.300768
v 0.277456 0.041864 0.690451
vn 0.062258 -0.006860 6.282475
v 0.277456 -0.059625 0.690451
vn 2.130642 1.410032 5.012956
v 0.277448 0.041886 0.690450
vn -0.015774 0.113734 6.280936
v 0.172842 0.041864 0.690451
vn 5.122302 1.356509 2.098338
v 0.431206 -0.041873 0.578090
vn -0.031467 0.429944 6.264298
v 0.172837 0.041886 0.690450
vn 4.978004 2.187441 1.852072
v 0.431198 -0.041836 0.578077
vn -0.059784 0.951258 6.200115
v 0.172834 0.041901 0.690449
vn -0.122913 1.918865 5.934296
v 0.172833 0.041911 0.690446
vn -0.227927 3.758351 4.740280
v 0.172835 0.041917 0.690444
vn -0.097912 5.534646 2.012111
v 0.172838 0.041919 0.690442
vn -0.824412 5.182124 -2.070934
v 0.171658 0.041895 0.588705
vn -0.032399 5.970657 -1.345253
v 0.172838 0.041919 0.588754
vn 2.061856 4.176798 -2.153880
v 0.431177 -0.041800 0.473082
vn -0.258684 4.440508 -4.317885
v 0.321437 -0.041800 0.473082
vn 0.514536 -4.059393 4.657023
v 0.277861 -0.073148 0.688120
vn 1.095305 -1.806290 5.310478
v 0.277574 -0.071183 0.689629
vn -2.361385 -3.842021 2.169093
v 0.177410 -0.073148 0.688120
vn -1.192023 -5.093678 1.560918
v 0.323637 -0.171755 0.577239
vn 1.719966 -4.211477 1.844380
v 0.424705 -0.171755 0.577239
vn 3.081480 -0.904500 5.318464
v 0.278619 -0.071081 0.689111
vn 3.631501 -2.215735 2.278859
v 0.427810 -0.168566 0.578144
vn 1.768300 -0.344151 5.719988
v 0.277529 -0.061682 0.690329
vn 2.944234 -0.250338 5.486700
v 0.277502 -0.060013 0.690430
vn 4.739651 -0.564700 2.460849
v 0.431232 -0.152388 0.578541
vn -1.716289 -2.316909 4.438310
v 0.176554 -0.071183 0.689629
vn 2.226467 -0.213275 5.650011
v 0.277496 -0.059929 0.690437
vn -2.868915 -1.461078 3.087798
v 0.171658 -0.061682 0.690329
vn -0.000694 -0.312664 6.275217
v 0.172882 -0.059784 0.690447
vn -2.976808 -0.652019 2.750655
v 0.170908 -0.059852 0.690443
vn -0.003352 -0.206421 6.279500
v 0.172865 -0.059723 0.690449
vn -0.008189 -0.086328 6.282227
v 0.172852 -0.059670 0.690451
vn -0.012786 -0.013005 6.283116
v 0.172842 -0.059625 0.690451
vn -0.686261 5.357014 1.928813
v 0.171658 0.041895 0.690329
vn -1.948121 1.529795 1.820735
v 0.170908 0.041702 0.690443
vn -2.840603 2.152254 -1.571519
v 0.170908 0.041702 0.588718
vn -1.843705 1.782464 -4.918849
v 0.319430 -0.042307 0.473048
vn -0.465381 3.364024 -5.107383
v 0.321425 -0.041813 0.473072
vn -4.859595 -0.808180 -2.140226
v 0.170908 -0.059852 0.588718
vn -4.675835 -3.000197 1.805480
v 0.176042 -0.071081 0.689111
vn -4.798936 -2.451538 -2.018846
v 0.176042 -0.071081 0.587603
vn -4.281262 -3.958318 -1.090070
v 0.177410 -0.073148 0.587876
vn -5.507642 -2.336249 -1.290779
v 0.171658 -0.061682 0.588705
vn -2.488932 -2.424764 -4.144808
v 0.321858 -0.168566 0.474785
vn -1.340313 -4.049694 -2.198691
v 0.323637 -0.171755 0.476519
vn -3.154482 -0.125532 -5.333543
v 0.319430 -0.149540 0.473048
vn -2.043195 -0.543586 -5.391399
v 0.319918 -0.152388 0.472858
vn 5.906073 0.682756 1.313538
v 0.431210 -0.041924 0.578102
vn 2.985283 0.266937 -3.104911
v 0.431232 -0.043115 0.472858
vn 4.271194 0.622370 -2.823566
v 0.431210 -0.041924 0.473047
vn 3.037843 0.991250 -2.969666
v 0.431206 -0.041873 0.473054
vn 2.873351 1.693216 -2.836226
v 0.431198 -0.041836 0.473062
vn 2.566567 2.757923 -2.566028
v 0.431188 -0.041813 0.473072
vn 3.010339 -0.443755 -2.927074
v 0.431232 -0.152388 0.472858
vn -0.989658 0.395531 -6.027234
v 0.319918 -0.043115 0.472858
vn -0.120112 1.262485 -6.145022
v 0.321405 -0.041873 0.473054
vn -0.256291 2.019645 -5.898868
v 0.321413 -0.041836 0.473062
vn 1.396692 -4.030435 -1.992772
v 0.424705 -0.171755 0.476519
vn 2.774645 -2.037333 -2.472928
v 0.427810 -0.168566 0.474785
vn 0.324323 -1.759145 -5.844807
v 0.426443 -0.168004 0.474445
vn -0.582772 -1.677517 -5.795199
v 0.322719 -0.168004 0.474445
# 79 vertices, 0 vertices normals

f 1//1 2//2 3//3
f 1//1 4//4 2//2
f 1//1 5//5 4//4
f 1//1 6//6 5//5
f 1//1 7//7 8//8
f 1//1 8//8 6//6
f 1//1 3//3 9//9
f 1//1 9//9 7//7
f 10//10 11//11 12//12
f 10//10 13//13 14//14
f 10//10 12//12 13//13
f 10//10 14//14 11//11
f 11//11 15//15 16//16
f 11//11 16//16 12//12
f 11//11 14//14 15//15
f 15//15 17//17 18//18
f 15//15 18//18 16//16
f 15//15 14//14 17//17
f 17//17 19//19 20//20
f 17//17 20//20 18//18
f 17//17 14//14 19//19
f 19//19 21//21 22//22
f 19//19 22//22 20//20
f 19//19 14//14 23//23
f 19//19 23//23 21//21
f 21//21 2//2 24//24
f 21//21 24//24 22//22
f 21//21 23//23 25//25
f 21//21 25//25 2//2
f 2//2 4//4 26//26
f 2//2 26//26 24//24
f 2//2 25//25 3//3
f 4//4 5//5 27//27
f 4//4 27//27 26//26
f 5//5 6//6 28//28
f 5//5 28//28 27//27
f 6//6 8//8 29//29
f 6//6 29//29 28//28
f 7//7 30//30 31//31
f 7//7 31//31 8//8
f 7//7 9//9 32//32
f 7//7 32//32 33//33
f 7//7 33//33 30//30
f 8//8 31//31 29//29
f 34//34 35//35 36//36
f 34//34 36//36 37//37
f 34//34 38//38 35//35
f 34//34 37//37 38//38
f 39//39 35//35 40//40
f 39//39 41//41 35//35
f 39//39 42//42 41//41
f 39//39 40//40 43//43
f 39//39 43//43 42//42
f 35//35 41//41 44//44
f 35//35 44//44 36//36
f 35//35 38//38 40//40
f 41//41 42//42 45//45
f 41//41 45//45 13//13
f 41//41 13//13 46//46
f 41//41 46//46 44//44
f 42//42 43//43 45//45
f 45//45 43//43 13//13
f 13//13 12//12 47//47
f 13//13 48//48 46//46
f 13//13 47//47 48//48
f 13//13 43//43 14//14
f 12//12 16//16 47//47
f 16//16 18//18 49//49
f 16//16 49//49 47//47
f 18//18 20//20 50//50
f 18//18 50//50 49//49
f 20//20 22//22 51//51
f 20//20 51//51 50//50
f 52//52 53//53 28//28
f 52//52 28//28 29//29
f 52//52 29//29 31//31
f 52//52 30//30 54//54
f 52//52 54//54 53//53
f 52//52 31//31 30//30
f 53//53 22//22 24//24
f 53//53 24//24 26//26
f 53//53 26//26 27//27
f 53//53 27//27 28//28
f 53//53 54//54 48//48
f 53//53 48//48 51//51
f 53//53 51//51 22//22
f 30//30 55//55 54//54
f 30//30 56//56 55//55
f 30//30 33//33 56//56
f 54//54 57//57 48//48
f 54//54 55//55 57//57
f 36//36 58//58 59//59
f 36//36 44//44 58//58
f 36//36 60//60 37//37
f 36//36 59//59 60//60
f 58//58 44//44 46//46
f 58//58 46//46 61//61
f 58//58 61//61 59//59
f 46//46 48//48 57//57
f 46//46 57//57 61//61
f 48//48 47//47 49//49
f 48//48 49//49 50//50
f 48//48 50//50 51//51
f 60//60 59//59 62//62
f 60//60 63//63 37//37
f 60//60 62//62 63//63
f 59//59 61//61 57//57
f 59//59 57//57 62//62
f 57//57 55//55 64//64
f 57//57 65//65 62//62
f 57//57 64//64 65//65
f 14//14 66//66 23//23
f 14//14 67//67 66//66
f 14//14 43//43 67//67
f 66//66 67//67 68//68
f 66//66 68//68 23//23
f 23//23 68//68 69//69
f 23//23 69//69 25//25
f 25//25 69//69 70//70
f 25//25 70//70 3//3
f 3//3 70//70 71//71
f 3//3 71//71 9//9
f 9//9 71//71 32//32
f 67//67 69//69 68//68
f 67//67 43//43 72//72
f 67//67 72//72 73//73
f 67//67 73//73 74//74
f 67//67 74//74 69//69
f 69//69 74//74 75//75
f 69//69 75//75 70//70
f 70//70 75//75 56//56
f 70//70 56//56 71//71
f 71//71 56//56 33//33
f 71//71 33//33 32//32
f 38//38 76//76 40//40
f 38//38 37//37 76//76
f 40//40 76//76 77//77
f 40//40 77//77 43//43
f 43//43 77//77 72//72
f 76//76 78//78 77//77
f 76//76 37//37 63//63
f 76//76 63//63 79//79
f 76//76 79//79 78//78
f 77//77 78//78 72//72
f 78//78 79//79 65//65
f 78//78 65//65 72//72
f 72//72 65//65 73//73
f 73//73 55//55 74//74
f 73//73 65//65 64//64
f 73//73 64//64 55//55
f 55//55 75//75 74//74
f 55//55 56//56 75//75
f 63//63 62//62 79//79
f 62//62 65//65 79//79
# 154 faces, 0 coords texture

# End of File
