####
#
# OBJ File Generated by Meshlab
#
####
# Object step_30_link_4.obj
#
# Vertices: 89
# Faces: 174
#
####
vn 2.575340 1.436961 -3.073858
v 0.108947 0.069896 0.436141
vn 2.350532 4.884165 -2.755630
v 0.108322 0.070351 0.436322
vn 4.339891 2.564817 -0.822888
v 0.163826 0.106017 0.636124
vn 0.896531 3.791962 -3.594879
v 0.107489 0.070662 0.436255
vn 0.138201 0.932824 -6.126968
v 0.107252 0.070105 0.436081
vn 2.400939 -1.649468 -2.480877
v 0.108947 -0.030363 0.436141
vn 4.795455 -2.365037 -0.460983
v 0.163826 0.005483 0.636124
vn 2.599907 5.541310 -0.749565
v 0.162342 0.106907 0.636512
vn -0.113367 3.280486 -5.064276
v 0.006716 0.070662 0.436255
vn 0.291891 5.452677 -2.525630
v 0.104246 0.071481 0.437195
vn 0.742745 6.087773 -0.589850
v 0.154515 0.109111 0.637933
vn 1.783956 5.865493 -0.834388
v 0.160648 0.107524 0.636374
vn 0.697018 -2.999006 -3.181562
v 0.107252 -0.031166 0.436081
vn -0.639991 1.042896 -5.954537
v 0.006153 0.070105 0.436081
vn -1.661664 3.256442 -2.551380
v 0.001899 0.071481 0.437195
vn -1.766934 5.573445 -0.331578
v 0.049471 0.109111 0.637933
vn 3.338669 -5.321450 0.012297
v 0.108947 -0.030363 0.536229
vn 2.973619 -5.522066 0.089109
v 0.108322 -0.030741 0.536727
vn 2.782161 -5.417265 -0.970892
v 0.108322 -0.030741 0.436322
vn 3.744323 -1.866030 1.656256
v 0.163826 0.005483 0.736308
vn 1.235134 -5.923043 0.370292
v 0.107204 -0.031277 0.536902
vn 1.256800 -5.917862 -0.394257
v 0.107204 -0.031277 0.436769
vn 2.742117 -2.628777 2.887743
v 0.162342 0.004718 0.737361
vn -0.450013 -6.175061 0.548520
v 0.006009 -0.031277 0.536902
vn 1.356338 -5.622065 1.402161
v 0.160059 0.003653 0.737763
vn -0.277329 -5.924266 1.831011
v 0.057606 0.003653 0.737763
vn -0.526890 -2.878214 -3.486641
v 0.006153 -0.031166 0.436081
vn -0.534231 -6.158892 -0.573083
v 0.006009 -0.031277 0.436769
vn -4.109599 4.743959 0.043205
v 0.001899 0.071481 0.537629
vn -4.405851 4.472002 0.111257
v 0.001238 0.070863 0.537702
vn -1.148912 3.146630 2.375974
v 0.049471 0.109111 0.739443
vn -3.144700 2.177899 -2.936257
v 0.001238 0.070863 0.437230
vn -5.290534 2.749800 0.418976
v 0.001235 0.070860 0.537701
vn -2.296348 2.103914 3.156958
v 0.048207 0.107869 0.739631
vn -4.064646 1.640282 -2.238266
v 0.001235 0.070860 0.437232
vn -6.087534 0.684760 0.605678
v 0.001234 0.070857 0.537701
vn -3.127784 1.323255 2.973451
v 0.048203 0.107864 0.739631
vn -5.864058 0.509465 -1.203274
v 0.001234 0.070857 0.437233
vn -6.127510 -0.478007 0.702102
v 0.001234 -0.030223 0.537701
vn -5.393753 -0.103913 2.773260
v 0.048202 0.005795 0.739630
vn -5.404666 0.213061 2.681304
v 0.048202 0.107858 0.739630
vn -1.480624 0.879888 -6.010304
v 0.001252 0.070868 0.437227
vn -2.173622 1.393680 -5.442811
v 0.001243 0.070865 0.437228
vn -2.755890 -2.350271 -2.879029
v 0.001243 -0.030238 0.437228
vn -3.428695 -1.847152 -2.740546
v 0.001238 -0.030232 0.437230
vn -4.437384 -1.084983 -2.408587
v 0.001235 -0.030227 0.437232
vn -5.906790 -0.309681 -1.279608
v 0.001234 -0.030223 0.437233
vn -2.039005 -5.614275 0.720575
v 0.001899 -0.030646 0.537629
vn -1.826699 -4.117002 -2.378539
v 0.001899 -0.030646 0.437195
vn -0.974643 -3.634823 3.375058
v 0.049471 0.004950 0.739443
vn -3.406556 -5.105671 0.851033
v 0.001252 -0.030244 0.537702
vn -2.446358 -2.739110 -2.981297
v 0.001252 -0.030244 0.437227
vn -4.041829 -4.546839 0.862291
v 0.001243 -0.030238 0.537702
vn -1.712326 -2.788650 3.855162
v 0.048232 0.005752 0.739630
vn -4.908201 -3.506846 0.868868
v 0.001238 -0.030232 0.537702
vn -2.094397 -2.264021 3.819269
v 0.048217 0.005765 0.739631
vn -5.685989 -1.899845 0.815066
v 0.001235 -0.030227 0.537701
vn -2.602842 -1.596235 3.748126
v 0.048207 0.005776 0.739631
vn -3.360063 -0.709856 3.599345
v 0.048203 0.005786 0.739631
vn -2.307829 -2.984026 -4.437368
v 0.001264 -0.030251 0.437225
vn 3.832684 1.815865 1.651945
v 0.163826 0.106017 0.736308
vn 2.485121 2.715290 2.687831
v 0.162342 0.106907 0.737361
vn 1.996525 4.621185 2.368181
v 0.160648 0.107524 0.737721
vn 0.750824 3.111513 2.854257
v 0.154515 0.109111 0.739443
vn 1.888629 0.654392 5.858853
v 0.160156 0.106401 0.738266
vn 1.371154 0.187245 6.128858
v 0.154017 0.107881 0.739596
vn 1.276690 0.128898 6.148258
v 0.153973 0.107885 0.739606
vn 1.136177 -0.325409 6.158310
v 0.153973 0.005677 0.739606
vn 1.443379 -2.786403 3.676629
v 0.160156 0.003874 0.738266
vn 1.122981 0.166713 6.175532
v 0.153932 0.107888 0.739614
vn 0.945673 0.216739 6.201462
v 0.153896 0.107888 0.739620
vn 0.753347 0.275084 6.222341
v 0.153862 0.107887 0.739625
vn 0.525468 0.349207 6.236275
v 0.153833 0.107884 0.739628
vn 0.286685 0.429282 6.241137
v 0.153806 0.107880 0.739630
vn 0.109460 0.440789 6.244387
v 0.153784 0.107875 0.739631
vn 0.932722 -0.430816 6.175532
v 0.153932 0.005693 0.739614
vn 0.690648 -0.559675 6.182001
v 0.153896 0.005709 0.739620
vn 0.429034 -0.700648 6.170168
v 0.153862 0.005724 0.739625
vn 0.310073 -0.674061 6.186247
v 0.153833 0.005739 0.739628
vn 0.208489 -0.434099 6.241409
v 0.153806 0.005752 0.739630
vn 0.107640 -0.231572 6.269352
v 0.153784 0.005765 0.739631
vn 0.017142 0.093078 6.281442
v 0.153764 0.107869 0.739631
vn 0.019522 -0.040848 6.282702
v 0.153764 0.005776 0.739631
vn -0.450093 1.070464 6.092042
v 0.048217 0.107875 0.739631
vn 0.463684 -2.512616 5.214335
v 0.154515 0.004950 0.739443
vn -0.069366 -5.202521 3.361896
v 0.057901 0.003874 0.738266
vn 1.206698 -0.415428 6.151563
v 0.154017 0.005661 0.739596
vn -0.017351 -1.450857 6.113213
v 0.048286 0.005724 0.739625
vn -1.197518 -2.767140 4.868852
v 0.048255 0.005739 0.739628
# 89 vertices, 0 vertices normals

f 1//1 2//2 3//3
f 1//1 4//4 2//2
f 1//1 5//5 4//4
f 1//1 6//6 5//5
f 1//1 3//3 7//7
f 1//1 7//7 6//6
f 2//2 4//4 8//8
f 2//2 8//8 3//3
f 4//4 5//5 9//9
f 4//4 10//10 11//11
f 4//4 9//9 10//10
f 4//4 12//12 8//8
f 4//4 11//11 12//12
f 5//5 6//6 13//13
f 5//5 13//13 14//14
f 5//5 14//14 9//9
f 10//10 9//9 15//15
f 10//10 15//15 16//16
f 10//10 16//16 11//11
f 17//17 18//18 19//19
f 17//17 6//6 7//7
f 17//17 19//19 6//6
f 17//17 20//20 18//18
f 17//17 7//7 20//20
f 18//18 21//21 22//22
f 18//18 22//22 19//19
f 18//18 20//20 23//23
f 18//18 23//23 21//21
f 21//21 24//24 22//22
f 21//21 23//23 25//25
f 21//21 25//25 26//26
f 21//21 26//26 24//24
f 6//6 19//19 13//13
f 19//19 22//22 13//13
f 13//13 22//22 27//27
f 13//13 27//27 14//14
f 22//22 24//24 28//28
f 22//22 28//28 27//27
f 29//29 30//30 31//31
f 29//29 15//15 32//32
f 29//29 32//32 30//30
f 29//29 31//31 16//16
f 29//29 16//16 15//15
f 30//30 33//33 34//34
f 30//30 32//32 35//35
f 30//30 35//35 33//33
f 30//30 34//34 31//31
f 33//33 36//36 37//37
f 33//33 35//35 38//38
f 33//33 38//38 36//36
f 33//33 37//37 34//34
f 36//36 38//38 39//39
f 36//36 39//39 40//40
f 36//36 41//41 37//37
f 36//36 40//40 41//41
f 9//9 14//14 15//15
f 14//14 42//42 15//15
f 14//14 43//43 42//42
f 14//14 27//27 44//44
f 14//14 44//44 43//43
f 15//15 42//42 43//43
f 15//15 43//43 32//32
f 43//43 44//44 45//45
f 43//43 45//45 32//32
f 32//32 45//45 46//46
f 32//32 46//46 35//35
f 35//35 46//46 47//47
f 35//35 47//47 38//38
f 38//38 47//47 39//39
f 24//24 48//48 49//49
f 24//24 49//49 28//28
f 24//24 26//26 50//50
f 24//24 50//50 48//48
f 48//48 51//51 52//52
f 48//48 52//52 49//49
f 48//48 50//50 51//51
f 51//51 53//53 44//44
f 51//51 44//44 52//52
f 51//51 50//50 54//54
f 51//51 54//54 53//53
f 53//53 55//55 45//45
f 53//53 45//45 44//44
f 53//53 54//54 56//56
f 53//53 56//56 55//55
f 55//55 57//57 46//46
f 55//55 46//46 45//45
f 55//55 56//56 58//58
f 55//55 58//58 57//57
f 57//57 39//39 47//47
f 57//57 47//47 46//46
f 57//57 58//58 59//59
f 57//57 59//59 39//39
f 39//39 59//59 40//40
f 27//27 28//28 49//49
f 27//27 49//49 60//60
f 27//27 60//60 52//52
f 27//27 52//52 44//44
f 49//49 52//52 60//60
f 61//61 62//62 23//23
f 61//61 3//3 8//8
f 61//61 8//8 62//62
f 61//61 20//20 3//3
f 61//61 23//23 20//20
f 62//62 63//63 64//64
f 62//62 65//65 23//23
f 62//62 64//64 65//65
f 62//62 8//8 12//12
f 62//62 12//12 63//63
f 63//63 12//12 11//11
f 63//63 11//11 64//64
f 65//65 64//64 66//66
f 65//65 66//66 67//67
f 65//65 67//67 68//68
f 65//65 69//69 23//23
f 65//65 68//68 69//69
f 64//64 67//67 66//66
f 64//64 70//70 67//67
f 64//64 71//71 70//70
f 64//64 72//72 71//71
f 64//64 73//73 72//72
f 64//64 74//74 73//73
f 64//64 75//75 74//74
f 64//64 11//11 31//31
f 64//64 31//31 75//75
f 67//67 70//70 76//76
f 67//67 76//76 68//68
f 70//70 71//71 77//77
f 70//70 77//77 76//76
f 71//71 72//72 78//78
f 71//71 78//78 77//77
f 72//72 73//73 79//79
f 72//72 79//79 78//78
f 73//73 74//74 80//80
f 73//73 80//80 79//79
f 74//74 75//75 81//81
f 74//74 81//81 80//80
f 75//75 82//82 83//83
f 75//75 83//83 81//81
f 75//75 31//31 84//84
f 75//75 84//84 82//82
f 82//82 84//84 34//34
f 82//82 34//34 83//83
f 3//3 20//20 7//7
f 11//11 16//16 31//31
f 23//23 69//69 25//25
f 69//69 85//85 86//86
f 69//69 87//87 85//85
f 69//69 68//68 87//87
f 69//69 86//86 25//25
f 25//25 86//86 26//26
f 85//85 87//87 68//68
f 85//85 68//68 76//76
f 85//85 76//76 77//77
f 85//85 77//77 78//78
f 85//85 78//78 50//50
f 85//85 50//50 86//86
f 78//78 79//79 88//88
f 78//78 88//88 50//50
f 79//79 80//80 89//89
f 79//79 89//89 88//88
f 80//80 81//81 54//54
f 80//80 54//54 89//89
f 81//81 83//83 56//56
f 81//81 56//56 54//54
f 83//83 34//34 58//58
f 83//83 58//58 56//56
f 31//31 34//34 84//84
f 34//34 37//37 59//59
f 34//34 59//59 58//58
f 37//37 41//41 40//40
f 37//37 40//40 59//59
f 86//86 50//50 26//26
f 50//50 88//88 89//89
f 50//50 89//89 54//54
# 174 faces, 0 coords texture

# End of File
