####
#
# OBJ File Generated by Meshlab
#
####
# Object step_28_link_6.obj
#
# Vertices: 85
# Faces: 166
#
####
vn 0.314753 0.289022 6.236023
v 0.314139 -0.005324 0.653138
vn 0.763665 0.121596 6.231707
v 0.327836 0.006943 0.651314
vn 1.323561 2.283851 4.480698
v 0.347688 0.033097 0.648325
vn -1.672522 2.740881 3.789671
v 0.236388 0.033097 0.648325
vn 0.484854 -1.952907 5.413395
v 0.314139 -0.107120 0.653138
vn 1.503901 -0.784541 5.952467
v 0.327836 -0.097476 0.651314
vn -2.807046 0.912250 2.570500
v 0.211516 -0.005324 0.653138
vn 1.881949 -0.146207 5.900523
v 0.347688 -0.075511 0.648325
vn 1.741511 4.444527 3.522629
v 0.347981 0.033748 0.647448
vn -2.497543 4.269061 2.392456
v 0.236519 0.033748 0.647448
vn 4.036980 0.896802 3.927427
v 0.435988 -0.006043 0.604072
vn 4.390182 2.722085 1.841759
v 0.436477 -0.004296 0.602579
vn 1.519433 5.029232 1.761580
v 0.348128 0.034171 0.646767
vn -2.170243 4.444623 1.083724
v 0.236652 0.034171 0.646767
vn 0.202413 6.272934 0.072221
v 0.348097 0.034173 0.646703
vn -0.013951 6.281110 0.104902
v 0.236946 0.034173 0.646703
vn 0.816252 5.373833 -1.647019
v 0.348128 0.034171 0.542404
vn 0.224453 6.274201 -0.019817
v 0.348097 0.034173 0.542604
vn 3.566370 4.589087 0.930184
v 0.436459 -0.004273 0.602562
vn -2.060323 4.033364 -1.499230
v 0.236652 0.034171 0.542404
vn -0.016937 6.282906 -0.029280
v 0.236946 0.034173 0.542604
vn 2.607681 4.666303 -1.370418
v 0.436459 -0.004273 0.496360
vn 2.223491 2.575657 -4.022912
v 0.436406 -0.004454 0.496125
vn -0.334983 3.997387 -4.690777
v 0.321914 -0.004454 0.496125
vn 3.040406 3.289334 -1.798728
v 0.436477 -0.004296 0.496326
vn 1.924776 -1.608300 5.756654
v 0.326056 -0.100383 0.651138
vn -2.169828 -1.421741 2.090087
v 0.211516 -0.107120 0.653138
vn -1.060828 -4.897279 1.834291
v 0.292816 -0.157713 0.608405
vn 1.357702 -3.938946 2.362750
v 0.396120 -0.157713 0.608405
vn 2.706013 -3.468808 2.742641
v 0.409561 -0.149715 0.606803
vn 3.130866 -3.036390 2.710723
v 0.414139 -0.146174 0.606235
vn 2.099630 -0.824678 5.823879
v 0.347933 -0.079087 0.647905
vn 3.797814 -1.854487 2.316577
v 0.435892 -0.122477 0.603503
vn 2.489502 -0.466959 5.744921
v 0.348199 -0.076922 0.647997
vn 3.827620 -0.328686 4.546759
v 0.435988 -0.118717 0.604072
vn -4.784108 3.429780 2.086699
v 0.236091 0.032812 0.648171
vn -4.329735 1.023191 -2.212598
v 0.211516 -0.005324 0.551836
vn -3.132692 0.398627 -5.423373
v 0.218025 0.002558 0.548561
vn -2.530671 0.143652 -5.708407
v 0.300844 -0.042235 0.501990
vn -3.747458 1.205606 -4.655440
v 0.219110 0.005317 0.548169
vn -3.687220 1.627128 -4.339200
v 0.236091 0.032812 0.541975
vn -2.861887 2.842432 -3.483085
v 0.236519 0.033748 0.542029
vn -3.642377 -1.709351 -1.806423
v 0.211516 -0.107120 0.551836
vn -1.421127 0.553857 -5.868703
v 0.320388 -0.006582 0.495640
vn -1.129862 1.397598 -5.768258
v 0.320860 -0.005688 0.495674
vn -0.529506 2.143611 -5.582727
v 0.321704 -0.005089 0.495723
vn -1.319534 -1.377066 -5.520063
v 0.300844 -0.149715 0.501990
vn -1.545412 -2.979019 -2.422660
v 0.292816 -0.157713 0.506616
vn 5.739826 0.035455 2.329046
v 0.436261 -0.007576 0.603630
vn 6.019423 0.217969 1.235506
v 0.436488 -0.004401 0.602604
vn 4.840032 -0.713705 2.495000
v 0.436261 -0.120269 0.603630
vn 6.204538 -0.119573 0.617718
v 0.436488 -0.116748 0.602604
vn 5.123544 1.347111 1.919580
v 0.436488 -0.004338 0.602593
vn 5.233360 1.068773 -2.059142
v 0.436488 -0.004401 0.496248
vn 4.215033 2.141363 -1.986615
v 0.436488 -0.004338 0.496288
vn 3.007143 0.014657 -4.273148
v 0.436261 -0.007576 0.495650
vn 0.167168 0.095321 -6.275771
v 0.435855 -0.006582 0.495640
vn 0.182656 0.184605 -6.273563
v 0.435988 -0.006043 0.495657
vn 2.547305 0.322504 -4.934301
v 0.436171 -0.005688 0.495674
vn 5.410519 0.423582 -2.871750
v 0.436476 -0.004488 0.496207
vn 5.985803 -0.068307 -1.859429
v 0.436476 -0.116846 0.496207
vn 3.160200 -0.370285 -3.039480
v 0.436261 -0.120269 0.495650
vn 0.072014 -0.020687 -6.282093
v 0.435855 -0.119830 0.495640
vn -0.070712 0.274124 -6.275741
v 0.320807 -0.006043 0.495657
vn 0.064327 0.511186 -6.260817
v 0.436032 -0.005370 0.495696
vn 2.044855 1.324367 -4.723320
v 0.436158 -0.005089 0.495723
vn -0.024959 0.527353 -6.260195
v 0.321633 -0.005370 0.495696
vn 6.149919 -0.117613 -0.828764
v 0.436488 -0.116748 0.496248
vn 0.950288 -4.439185 -2.198184
v 0.396120 -0.157713 0.506616
vn 1.706759 -3.331099 -2.924330
v 0.409561 -0.149715 0.501990
vn 2.267483 -3.091839 -2.864374
v 0.414139 -0.146174 0.501196
vn 2.654856 -1.382221 -2.561462
v 0.435892 -0.122477 0.495667
vn 0.172986 -1.482384 -6.092094
v 0.433109 -0.124299 0.495949
vn -0.255551 -1.198600 -6.150302
v 0.319775 -0.124299 0.495949
vn 0.932284 -1.810907 -5.704288
v 0.435068 -0.123113 0.495724
vn -0.712765 -0.631229 -6.133639
v 0.320121 -0.123113 0.495724
vn -0.898906 -0.189525 -6.119530
v 0.320240 -0.122477 0.495667
vn 0.005373 -0.054700 -6.282927
v 0.435583 -0.120041 0.495642
vn -0.544030 -0.026097 -6.234954
v 0.320341 -0.120041 0.495642
vn -0.088142 -0.011850 -6.281718
v 0.320388 -0.119830 0.495640
vn -1.917145 0.004059 -5.983364
v 0.320240 -0.008129 0.495667
vn -1.602925 0.043813 -6.052199
v 0.320293 -0.007576 0.495650
vn -1.232902 0.094665 -6.066736
v 0.320341 -0.007060 0.495642
vn -1.432991 -0.010462 -6.100963
v 0.320293 -0.120269 0.495650
vn -1.162230 -0.593278 -6.096791
v 0.318871 -0.124842 0.496122
# 85 vertices, 0 vertices normals

f 1//1 2//2 3//3
f 1//1 3//3 4//4
f 1//1 5//5 6//6
f 1//1 6//6 2//2
f 1//1 7//7 5//5
f 1//1 4//4 7//7
f 2//2 6//6 8//8
f 2//2 8//8 3//3
f 3//3 9//9 10//10
f 3//3 8//8 11//11
f 3//3 10//10 4//4
f 3//3 11//11 12//12
f 3//3 12//12 9//9
f 9//9 13//13 14//14
f 9//9 14//14 10//10
f 9//9 12//12 13//13
f 13//13 15//15 16//16
f 13//13 17//17 18//18
f 13//13 18//18 15//15
f 13//13 16//16 14//14
f 13//13 12//12 19//19
f 13//13 19//19 17//17
f 15//15 18//18 16//16
f 17//17 20//20 21//21
f 17//17 21//21 18//18
f 17//17 19//19 22//22
f 17//17 23//23 24//24
f 17//17 25//25 23//23
f 17//17 22//22 25//25
f 17//17 24//24 20//20
f 18//18 21//21 16//16
f 5//5 26//26 6//6
f 5//5 7//7 27//27
f 5//5 27//27 28//28
f 5//5 29//29 30//30
f 5//5 30//30 26//26
f 5//5 28//28 29//29
f 26//26 30//30 31//31
f 26//26 31//31 6//6
f 6//6 32//32 8//8
f 6//6 31//31 33//33
f 6//6 33//33 32//32
f 32//32 34//34 8//8
f 32//32 33//33 35//35
f 32//32 35//35 34//34
f 34//34 35//35 8//8
f 8//8 35//35 11//11
f 7//7 36//36 10//10
f 7//7 4//4 36//36
f 7//7 10//10 14//14
f 7//7 14//14 37//37
f 7//7 37//37 27//27
f 36//36 4//4 10//10
f 14//14 16//16 21//21
f 14//14 20//20 37//37
f 14//14 21//21 20//20
f 37//37 38//38 39//39
f 37//37 40//40 38//38
f 37//37 41//41 40//40
f 37//37 42//42 41//41
f 37//37 20//20 42//42
f 37//37 43//43 27//27
f 37//37 39//39 43//43
f 38//38 40//40 39//39
f 40//40 41//41 39//39
f 41//41 42//42 44//44
f 41//41 44//44 39//39
f 42//42 20//20 24//24
f 42//42 45//45 44//44
f 42//42 46//46 45//45
f 42//42 24//24 46//46
f 27//27 43//43 28//28
f 43//43 39//39 47//47
f 43//43 48//48 28//28
f 43//43 47//47 48//48
f 49//49 11//11 35//35
f 49//49 50//50 11//11
f 49//49 51//51 52//52
f 49//49 35//35 51//51
f 49//49 52//52 50//50
f 11//11 50//50 53//53
f 11//11 53//53 12//12
f 50//50 54//54 55//55
f 50//50 55//55 53//53
f 50//50 52//52 54//54
f 53//53 55//55 25//25
f 53//53 25//25 12//12
f 12//12 25//25 22//22
f 12//12 22//22 19//19
f 56//56 57//57 58//58
f 56//56 58//58 59//59
f 56//56 59//59 60//60
f 56//56 60//60 61//61
f 56//56 62//62 63//63
f 56//56 63//63 57//57
f 56//56 61//61 62//62
f 57//57 63//63 44//44
f 57//57 44//44 64//64
f 57//57 64//64 58//58
f 58//58 64//64 45//45
f 58//58 45//45 59//59
f 59//59 65//65 66//66
f 59//59 66//66 60//60
f 59//59 45//45 67//67
f 59//59 67//67 65//65
f 65//65 67//67 46//46
f 65//65 46//46 66//66
f 66//66 23//23 60//60
f 66//66 46//46 24//24
f 66//66 24//24 23//23
f 23//23 54//54 60//60
f 23//23 55//55 54//54
f 23//23 25//25 55//55
f 60//60 54//54 68//68
f 60//60 68//68 61//61
f 54//54 52//52 68//68
f 29//29 69//69 30//30
f 29//29 28//28 69//69
f 30//30 69//69 70//70
f 30//30 70//70 31//31
f 31//31 70//70 71//71
f 31//31 71//71 33//33
f 33//33 51//51 35//35
f 33//33 71//71 72//72
f 33//33 72//72 62//62
f 33//33 62//62 51//51
f 51//51 62//62 52//52
f 52//52 62//62 68//68
f 69//69 28//28 48//48
f 69//69 48//48 47//47
f 69//69 47//47 70//70
f 70//70 73//73 71//71
f 70//70 47//47 74//74
f 70//70 74//74 73//73
f 71//71 73//73 75//75
f 71//71 75//75 72//72
f 73//73 74//74 76//76
f 73//73 76//76 75//75
f 75//75 76//76 77//77
f 75//75 77//77 72//72
f 72//72 78//78 63//63
f 72//72 63//63 62//62
f 72//72 77//77 78//78
f 62//62 61//61 68//68
f 78//78 77//77 79//79
f 78//78 79//79 80//80
f 78//78 80//80 63//63
f 63//63 80//80 44//44
f 39//39 81//81 77//77
f 39//39 82//82 81//81
f 39//39 83//83 82//82
f 39//39 44//44 83//83
f 39//39 77//77 47//47
f 81//81 82//82 84//84
f 81//81 84//84 77//77
f 82//82 83//83 79//79
f 82//82 79//79 84//84
f 83//83 44//44 80//80
f 83//83 80//80 79//79
f 44//44 45//45 64//64
f 45//45 46//46 67//67
f 47//47 85//85 74//74
f 47//47 77//77 85//85
f 85//85 76//76 74//74
f 85//85 77//77 76//76
f 77//77 84//84 79//79
# 166 faces, 0 coords texture

# End of File
