####
#
# OBJ File Generated by Meshlab
#
####
# Object step_43_link_5.obj
#
# Vertices: 60
# Faces: 116
#
####
vn 1.756265 0.867164 5.333483
v 0.094542 0.121511 0.748439
vn 1.004878 2.816462 5.522484
v 0.092290 0.123793 0.747714
vn 0.572115 2.515415 5.675603
v 0.090950 0.124241 0.747718
vn 0.253117 2.520568 5.652095
v 0.090932 0.124247 0.747717
vn -0.392116 0.643266 6.140613
v -0.008106 0.121511 0.748439
vn 1.980317 -2.036090 3.592243
v 0.094542 0.019237 0.748439
vn 4.550158 -1.418962 1.737270
v 0.218581 0.152510 0.644963
vn 5.083493 0.435457 2.188651
v 0.218581 0.253667 0.644963
vn 4.185713 1.773332 2.312590
v 0.217318 0.258800 0.645948
vn 2.437256 3.150465 3.441347
v 0.209775 0.268019 0.647637
vn 0.055849 2.960044 5.491094
v 0.090916 0.124251 0.747715
vn -0.391038 1.506206 6.016864
v -0.011584 0.124247 0.747717
vn -0.883188 2.482499 5.380730
v -0.011589 0.124251 0.747715
vn 1.266614 4.602985 3.136719
v 0.208769 0.268670 0.647203
vn 0.231137 4.382135 4.343290
v 0.206668 0.269225 0.646820
vn -0.156290 3.903005 4.895187
v 0.098825 0.269225 0.646820
vn 3.658770 -4.363368 1.163957
v 0.094792 0.019025 0.747562
vn 0.788232 -4.645143 2.235903
v 0.092469 0.017966 0.747626
vn -0.414401 -1.540584 5.734306
v -0.008106 0.019237 0.748439
vn 3.376279 -4.921460 -0.789891
v 0.094792 0.019025 0.647251
vn 0.836776 -4.845940 -2.094144
v 0.092469 0.017966 0.647114
vn -1.154431 -4.066679 2.365901
v -0.009574 0.017966 0.747626
vn 2.136103 -4.690062 -3.091980
v 0.094542 0.019237 0.646335
vn 1.736930 -1.998919 -4.574051
v 0.217318 0.152622 0.543550
vn 3.743676 -1.798017 -2.003780
v 0.218581 0.152510 0.544490
vn -1.058122 -4.629963 -2.082875
v -0.009574 0.017966 0.647114
vn -0.160804 -2.695637 -5.510084
v 0.111725 0.152622 0.543550
vn -3.114316 1.156348 2.456158
v -0.012061 0.123793 0.747714
vn -2.739852 -1.521622 2.070345
v -0.012061 0.019428 0.747714
vn -2.647488 3.439073 3.586395
v -0.011592 0.124252 0.747714
vn -2.126847 4.170224 1.802342
v 0.098067 0.269100 0.646835
vn -4.835789 1.261029 -1.701242
v -0.012061 0.123793 0.646639
vn -3.638464 -2.010452 -1.699894
v -0.012061 0.019428 0.646639
vn -2.334624 2.797410 -2.157775
v 0.098067 0.269100 0.542990
vn -4.289194 -0.013352 -4.591315
v 0.098067 0.157742 0.542990
vn -1.773918 -4.212960 -3.778400
v -0.011589 0.019296 0.646400
vn -2.090023 -3.162466 -4.640909
v -0.011592 0.019301 0.646397
vn -2.826154 -1.939287 -5.227232
v -0.011593 0.019307 0.646395
vn -1.794177 -1.046953 -5.125449
v 0.098794 0.157583 0.542315
vn 4.965508 0.417400 -2.281043
v 0.218581 0.253667 0.544490
vn 3.236947 1.376524 -2.668254
v 0.217318 0.258800 0.543550
vn 3.522925 4.596951 0.989809
v 0.209780 0.268249 0.647103
vn 3.366879 4.413012 -1.387167
v 0.209780 0.268249 0.542660
vn 1.132934 5.192475 1.873421
v 0.207944 0.269100 0.646835
vn 1.145838 5.306109 -1.749425
v 0.207944 0.269100 0.542990
vn 0.258126 5.251270 2.275543
v 0.206633 0.269234 0.646812
vn 0.258775 5.438003 -2.089359
v 0.206633 0.269234 0.543025
vn 0.111549 6.202775 0.631213
v 0.206601 0.269235 0.646803
vn -0.388740 4.983456 3.086662
v 0.098814 0.269234 0.646812
vn 0.113576 6.219276 -0.553387
v 0.206601 0.269235 0.543034
vn -0.588941 6.085270 0.780176
v 0.098811 0.269235 0.646803
vn 1.924196 2.126586 -4.119527
v 0.209775 0.268019 0.542315
vn 0.346685 -0.614811 -6.159730
v 0.209775 0.157583 0.542315
vn 1.173503 4.020944 -3.409167
v 0.208769 0.268670 0.542574
vn -1.800080 0.805649 -5.256671
v 0.098794 0.268019 0.542315
vn 0.228424 4.655893 -4.047761
v 0.206668 0.269225 0.543016
vn -0.486638 3.008701 -5.350670
v 0.098944 0.268670 0.542574
vn -0.207058 4.200235 -4.625371
v 0.098825 0.269225 0.543016
vn -0.396851 5.207140 -2.826495
v 0.098814 0.269234 0.543025
vn -0.581660 6.114541 -0.687058
v 0.098811 0.269235 0.543034
# 60 vertices, 0 vertices normals

f 1//1 2//2 3//3
f 1//1 3//3 4//4
f 1//1 4//4 5//5
f 1//1 6//6 7//7
f 1//1 5//5 6//6
f 1//1 8//8 9//9
f 1//1 9//9 10//10
f 1//1 10//10 2//2
f 1//1 7//7 8//8
f 2//2 10//10 3//3
f 3//3 10//10 4//4
f 4//4 11//11 12//12
f 4//4 12//12 5//5
f 4//4 10//10 11//11
f 11//11 13//13 12//12
f 11//11 10//10 14//14
f 11//11 14//14 15//15
f 11//11 15//15 16//16
f 11//11 16//16 13//13
f 6//6 17//17 7//7
f 6//6 18//18 17//17
f 6//6 5//5 19//19
f 6//6 19//19 18//18
f 17//17 18//18 20//20
f 17//17 20//20 7//7
f 18//18 21//21 20//20
f 18//18 19//19 22//22
f 18//18 22//22 21//21
f 23//23 20//20 21//21
f 23//23 21//21 24//24
f 23//23 25//25 20//20
f 23//23 24//24 25//25
f 20//20 25//25 7//7
f 21//21 22//22 26//26
f 21//21 26//26 27//27
f 21//21 27//27 24//24
f 5//5 28//28 29//29
f 5//5 12//12 28//28
f 5//5 29//29 19//19
f 28//28 12//12 13//13
f 28//28 13//13 30//30
f 28//28 30//30 31//31
f 28//28 32//32 29//29
f 28//28 31//31 32//32
f 13//13 31//31 30//30
f 13//13 16//16 31//31
f 32//32 33//33 29//29
f 32//32 31//31 34//34
f 32//32 34//34 35//35
f 32//32 35//35 33//33
f 19//19 29//29 22//22
f 22//22 29//29 26//26
f 29//29 33//33 26//26
f 26//26 33//33 36//36
f 26//26 36//36 27//27
f 33//33 37//37 36//36
f 33//33 38//38 37//37
f 33//33 39//39 38//38
f 33//33 35//35 39//39
f 36//36 37//37 27//27
f 37//37 38//38 39//39
f 37//37 39//39 27//27
f 8//8 40//40 41//41
f 8//8 41//41 9//9
f 8//8 7//7 40//40
f 9//9 42//42 10//10
f 9//9 41//41 43//43
f 9//9 43//43 42//42
f 10//10 42//42 14//14
f 42//42 44//44 14//14
f 42//42 43//43 45//45
f 42//42 45//45 44//44
f 14//14 44//44 15//15
f 44//44 46//46 15//15
f 44//44 45//45 47//47
f 44//44 47//47 46//46
f 15//15 46//46 16//16
f 46//46 48//48 49//49
f 46//46 47//47 50//50
f 46//46 50//50 48//48
f 46//46 49//49 16//16
f 48//48 50//50 51//51
f 48//48 51//51 49//49
f 40//40 7//7 25//25
f 40//40 25//25 24//24
f 40//40 24//24 41//41
f 41//41 52//52 43//43
f 41//41 24//24 53//53
f 41//41 53//53 52//52
f 52//52 54//54 43//43
f 52//52 53//53 55//55
f 52//52 55//55 54//54
f 43//43 54//54 45//45
f 54//54 56//56 45//45
f 54//54 55//55 57//57
f 54//54 57//57 56//56
f 45//45 56//56 47//47
f 56//56 57//57 58//58
f 56//56 58//58 47//47
f 47//47 58//58 59//59
f 47//47 59//59 50//50
f 50//50 59//59 60//60
f 50//50 60//60 51//51
f 24//24 27//27 53//53
f 53//53 27//27 39//39
f 53//53 39//39 55//55
f 31//31 16//16 49//49
f 31//31 49//49 51//51
f 31//31 51//51 60//60
f 31//31 60//60 34//34
f 55//55 34//34 57//57
f 55//55 39//39 35//35
f 55//55 35//35 34//34
f 57//57 34//34 58//58
f 34//34 59//59 58//58
f 34//34 60//60 59//59
# 116 faces, 0 coords texture

# End of File
