####
#
# OBJ File Generated by Meshlab
#
####
# Object step_14_link_7.obj
#
# Vertices: 75
# Faces: 146
#
####
vn 4.960538 1.019087 3.217390
v 0.474641 -0.084347 0.534750
vn 3.062959 2.605710 2.871867
v 0.471458 -0.080983 0.537911
vn 2.606688 -2.601063 3.492317
v 0.471458 -0.192411 0.537911
vn 4.882288 -0.911113 3.453420
v 0.474641 -0.190255 0.534750
vn 5.636116 0.944273 1.523114
v 0.591896 -0.096080 0.299798
vn 5.139441 2.664270 2.339516
v 0.591664 -0.095851 0.300099
vn 1.677216 5.134683 1.818756
v 0.470044 -0.080475 0.538406
vn 2.346450 1.984599 4.847196
v 0.468675 -0.080442 0.539362
vn 2.919779 0.526194 5.479902
v 0.470018 -0.081140 0.538766
vn 2.839335 -0.433998 5.543104
v 0.470018 -0.191748 0.538766
vn 3.103768 4.415949 0.637757
v 0.591365 -0.094200 0.298348
vn 1.385044 2.732474 4.033144
v 0.468634 -0.080425 0.539373
vn 0.448606 3.003120 3.221108
v 0.468594 -0.080416 0.539378
vn 0.078524 4.113361 2.943603
v 0.468558 -0.080414 0.539378
vn 0.438408 6.261072 -0.069863
v 0.470044 -0.080475 0.431537
vn 0.105184 6.277086 -0.122645
v 0.468558 -0.080414 0.431840
vn 2.597446 0.125780 5.717930
v 0.468717 -0.080466 0.539343
vn 2.622602 -0.780095 5.598834
v 0.468717 -0.192132 0.539343
vn 1.665461 -2.455759 4.599671
v 0.468675 -0.192140 0.539362
vn 0.690686 -2.804789 4.138472
v 0.468634 -0.192142 0.539373
vn 0.199710 -2.673567 4.561690
v 0.468594 -0.192140 0.539378
vn -0.077610 0.928642 6.126648
v 0.354954 -0.080416 0.539378
vn -1.203632 2.488264 2.552318
v 0.354937 -0.080414 0.539378
vn 2.013712 3.333712 -1.887117
v 0.591365 -0.094200 0.135085
vn -2.673494 4.603138 -0.630763
v 0.354937 -0.080414 0.431840
vn -1.369834 3.729273 -2.573588
v 0.414161 -0.094200 0.135085
vn 4.075764 -3.152414 2.329169
v 0.591664 -0.266220 0.300099
vn 5.582336 -1.106604 1.378282
v 0.591896 -0.265914 0.299798
vn 0.673465 -5.598742 2.551935
v 0.470075 -0.192615 0.538104
vn 1.466386 -5.508563 1.916549
v 0.590992 -0.266733 0.299787
vn -0.060779 -5.953599 1.994788
v 0.357994 -0.192615 0.538104
vn -2.019471 -5.329469 0.753735
v 0.412589 -0.266733 0.299787
vn -0.090105 -5.802606 2.338678
v 0.354984 -0.192142 0.539373
vn -0.741580 -2.965073 3.573200
v 0.354954 -0.192140 0.539378
vn -2.224237 -2.079776 2.766033
v 0.354937 -0.192134 0.539378
vn -3.596075 2.017919 1.493878
v 0.354930 -0.080417 0.539372
vn -4.675864 -1.159609 1.896852
v 0.354930 -0.192124 0.539372
vn -4.339597 2.699678 -0.325865
v 0.354930 -0.080417 0.431863
vn -4.494141 3.119189 -1.965527
v 0.412593 -0.095553 0.135221
vn -5.663429 -1.638122 -0.350218
v 0.354930 -0.192124 0.431863
vn -3.133480 1.145815 -3.567696
v 0.412567 -0.095851 0.134947
vn -5.490631 0.386885 -2.423837
v 0.412502 -0.096080 0.135025
vn -5.160379 -3.566328 -0.099771
v 0.354937 -0.192134 0.431840
vn -4.507820 -4.316319 0.182209
v 0.412381 -0.266542 0.299904
vn -5.080042 -3.030891 -0.605112
v 0.412381 -0.266542 0.136768
vn -5.507128 -0.353676 -2.366638
v 0.412502 -0.265914 0.135025
vn -2.721043 -1.616776 -3.007179
v 0.412567 -0.266220 0.134947
vn 5.554264 2.381792 0.647026
v 0.591755 -0.094837 0.298310
vn 5.599838 2.133432 -0.824697
v 0.591755 -0.094837 0.135466
vn 5.638929 1.618038 0.990703
v 0.591895 -0.095553 0.299108
vn 5.857088 0.918180 -1.183520
v 0.591895 -0.095553 0.135221
vn 5.575827 0.144802 -1.965545
v 0.591896 -0.096080 0.135025
vn 2.662612 1.022896 -4.131779
v 0.591561 -0.095292 0.134606
vn 0.449856 1.807026 -5.804595
v 0.590965 -0.094935 0.134634
vn 2.410099 -0.265660 -5.067356
v 0.591561 -0.265119 0.134606
vn -0.017460 0.229184 -6.273961
v 0.417852 -0.095292 0.134606
vn 0.110783 3.445721 -5.149780
v 0.590511 -0.094435 0.134865
vn -0.032549 3.462447 -5.146653
v 0.416017 -0.094435 0.134865
vn -0.442899 1.415574 -5.856775
v 0.415190 -0.094935 0.134634
vn 4.770885 -0.837700 -2.488647
v 0.591896 -0.265914 0.135025
vn 1.989303 -5.295286 0.704152
v 0.591365 -0.267040 0.298348
vn 4.912769 -3.152580 0.437667
v 0.591755 -0.266710 0.298310
vn 3.053439 -5.148396 1.909668
v 0.591372 -0.266495 0.299825
vn -0.441205 -6.167544 0.498490
v 0.414161 -0.267040 0.298348
vn 1.585511 -3.370282 -2.232959
v 0.591365 -0.267040 0.135085
vn 4.893576 -2.869171 -0.885831
v 0.591755 -0.266710 0.135466
vn 6.141343 -0.942749 0.170529
v 0.591895 -0.266071 0.299108
vn 6.050509 -1.028489 -0.583796
v 0.591895 -0.266071 0.135221
vn 0.750590 -1.433483 -5.806851
v 0.590965 -0.266074 0.134634
vn -0.019624 -0.079850 -6.281798
v 0.417852 -0.265119 0.134606
vn 3.247989 -1.842760 -4.845463
v 0.591664 -0.266220 0.134947
vn -0.271366 -1.239557 -5.965167
v 0.415190 -0.266074 0.134634
vn -0.662552 -4.112929 -2.718557
v 0.414161 -0.267040 0.135085
vn -2.849111 -5.204080 -0.436929
v 0.412589 -0.266733 0.136699
vn -3.400559 -4.644017 -1.605457
v 0.412675 -0.266495 0.135363
# 75 vertices, 0 vertices normals

f 1//1 2//2 3//3
f 1//1 4//4 5//5
f 1//1 3//3 4//4
f 1//1 5//5 6//6
f 1//1 6//6 2//2
f 2//2 7//7 8//8
f 2//2 9//9 10//10
f 2//2 8//8 9//9
f 2//2 10//10 3//3
f 2//2 11//11 7//7
f 2//2 6//6 11//11
f 7//7 12//12 8//8
f 7//7 13//13 12//12
f 7//7 14//14 13//13
f 7//7 15//15 16//16
f 7//7 16//16 14//14
f 7//7 11//11 15//15
f 9//9 17//17 18//18
f 9//9 8//8 17//17
f 9//9 18//18 10//10
f 17//17 8//8 19//19
f 17//17 19//19 18//18
f 8//8 12//12 20//20
f 8//8 20//20 19//19
f 12//12 13//13 21//21
f 12//12 21//21 20//20
f 13//13 14//14 22//22
f 13//13 22//22 21//21
f 14//14 16//16 23//23
f 14//14 23//23 22//22
f 15//15 11//11 24//24
f 15//15 24//24 16//16
f 16//16 25//25 23//23
f 16//16 24//24 26//26
f 16//16 26//26 25//25
f 4//4 3//3 27//27
f 4//4 28//28 5//5
f 4//4 27//27 28//28
f 3//3 29//29 30//30
f 3//3 10//10 18//18
f 3//3 18//18 19//19
f 3//3 19//19 29//29
f 3//3 30//30 27//27
f 29//29 19//19 20//20
f 29//29 20//20 31//31
f 29//29 31//31 32//32
f 29//29 32//32 30//30
f 20//20 21//21 33//33
f 20//20 33//33 31//31
f 21//21 22//22 34//34
f 21//21 34//34 33//33
f 22//22 23//23 35//35
f 22//22 35//35 34//34
f 23//23 36//36 37//37
f 23//23 25//25 38//38
f 23//23 38//38 36//36
f 23//23 37//37 35//35
f 36//36 38//38 37//37
f 25//25 26//26 39//39
f 25//25 39//39 38//38
f 38//38 40//40 37//37
f 38//38 39//39 41//41
f 38//38 42//42 40//40
f 38//38 41//41 42//42
f 31//31 33//33 32//32
f 33//33 34//34 32//32
f 34//34 35//35 32//32
f 35//35 37//37 40//40
f 35//35 43//43 44//44
f 35//35 40//40 43//43
f 35//35 44//44 32//32
f 43//43 40//40 45//45
f 43//43 45//45 44//44
f 40//40 42//42 46//46
f 40//40 46//46 47//47
f 40//40 47//47 45//45
f 11//11 48//48 49//49
f 11//11 50//50 48//48
f 11//11 6//6 50//50
f 11//11 49//49 24//24
f 48//48 50//50 51//51
f 48//48 51//51 49//49
f 50//50 5//5 52//52
f 50//50 6//6 5//5
f 50//50 52//52 51//51
f 5//5 28//28 52//52
f 53//53 54//54 24//24
f 53//53 24//24 49//49
f 53//53 49//49 51//51
f 53//53 51//51 52//52
f 53//53 52//52 55//55
f 53//53 55//55 56//56
f 53//53 56//56 54//54
f 57//57 54//54 58//58
f 57//57 24//24 54//54
f 57//57 58//58 24//24
f 54//54 56//56 59//59
f 54//54 59//59 58//58
f 24//24 58//58 26//26
f 52//52 28//28 60//60
f 52//52 60//60 55//55
f 61//61 62//62 27//27
f 61//61 27//27 63//63
f 61//61 63//63 30//30
f 61//61 30//30 64//64
f 61//61 65//65 66//66
f 61//61 66//66 62//62
f 61//61 64//64 65//65
f 62//62 67//67 28//28
f 62//62 28//28 27//27
f 62//62 66//66 68//68
f 62//62 68//68 67//67
f 67//67 68//68 60//60
f 67//67 60//60 28//28
f 27//27 30//30 63//63
f 30//30 32//32 64//64
f 55//55 69//69 70//70
f 55//55 60//60 71//71
f 55//55 71//71 69//69
f 55//55 70//70 56//56
f 69//69 65//65 72//72
f 69//69 71//71 65//65
f 69//69 72//72 70//70
f 65//65 60//60 66//66
f 65//65 71//71 60//60
f 65//65 64//64 73//73
f 65//65 73//73 72//72
f 66//66 60//60 68//68
f 56//56 70//70 59//59
f 58//58 59//59 26//26
f 59//59 41//41 26//26
f 59//59 70//70 72//72
f 59//59 72//72 41//41
f 26//26 41//41 39//39
f 42//42 41//41 46//46
f 41//41 72//72 47//47
f 41//41 47//47 46//46
f 64//64 32//32 74//74
f 64//64 74//74 73//73
f 32//32 44//44 45//45
f 32//32 45//45 74//74
f 72//72 73//73 47//47
f 73//73 75//75 47//47
f 73//73 74//74 75//75
f 47//47 75//75 45//45
f 75//75 74//74 45//45
# 146 faces, 0 coords texture

# End of File
