####
#
# OBJ File Generated by Meshlab
#
####
# Object step_47_link_4.obj
#
# Vertices: 75
# Faces: 146
#
####
vn 3.188173 1.177681 -2.696967
v 0.078181 0.103649 0.436815
vn 2.087393 1.729613 -5.120098
v 0.076977 0.104555 0.436610
vn 1.854296 2.525579 -3.783333
v 0.076969 0.104562 0.436609
vn 3.721967 4.864566 -0.834205
v 0.087590 0.166183 0.637899
vn 3.179151 -0.502809 -3.247632
v 0.078181 0.001391 0.436815
vn 0.504392 -0.274472 -6.225588
v 0.076977 0.002137 0.436610
vn 4.977344 2.439046 -0.471614
v 0.089902 0.164237 0.638350
vn 6.274564 -0.104243 -0.179195
v 0.089902 0.059690 0.638350
vn 0.373925 -0.155666 -6.251885
v 0.076969 0.002153 0.436609
vn 0.943704 2.875642 -3.763061
v 0.076962 0.104565 0.436609
vn 2.460533 5.448256 -0.886390
v 0.087578 0.166191 0.637898
vn 0.139386 -0.052368 -6.278213
v 0.076962 0.002167 0.436609
vn 0.209901 3.569478 -3.893162
v 0.076956 0.104566 0.436609
vn 0.792412 5.964896 -0.901185
v 0.087567 0.166194 0.637898
vn -2.226546 1.963596 -2.894960
v -0.023773 0.104565 0.436609
vn -0.694861 3.527905 -3.570772
v -0.023771 0.104566 0.436609
vn -1.674754 5.485699 -0.769756
v -0.014314 0.166194 0.637898
vn 2.782007 -4.002875 0.398940
v 0.076208 -0.009756 0.539994
vn 6.066262 -1.608202 0.035829
v 0.078166 -0.003466 0.538415
vn 1.728967 -1.979852 2.246951
v 0.085833 0.037529 0.744869
vn 1.778703 -2.681806 -1.773829
v 0.076208 -0.009756 0.439878
vn -2.913334 -3.139188 0.416699
v -0.024054 -0.009756 0.539994
vn -1.791225 -1.643114 2.073800
v -0.014698 0.037529 0.744869
vn 4.148539 -1.308241 -2.621259
v 0.078166 -0.003466 0.438288
vn 6.210924 -0.725232 -0.068832
v 0.089615 0.049760 0.641421
vn 6.116000 -0.840544 0.397622
v 0.089615 0.049760 0.741740
vn 2.862318 -1.926268 -3.655206
v 0.077077 -0.006838 0.438959
vn -1.874560 -2.100311 -1.528041
v -0.024054 -0.009756 0.439878
vn -1.335159 -1.620763 -5.745030
v -0.023758 -0.006838 0.438959
vn 1.212811 -1.608859 -5.798513
v 0.077688 -0.001136 0.437360
vn -0.610925 -1.559198 -6.014153
v -0.023317 -0.001136 0.437360
vn 0.157339 -1.339563 -6.133878
v 0.077044 0.001974 0.436638
vn 0.196266 -1.221615 -6.154571
v 0.077031 0.002009 0.436630
vn 0.249368 -1.065642 -6.178658
v 0.077018 0.002041 0.436624
vn 0.315248 -0.882164 -6.199465
v 0.077007 0.002070 0.436619
vn 0.388019 -0.678857 -6.214812
v 0.076996 0.002095 0.436615
vn 0.470731 -0.454501 -6.220501
v 0.076986 0.002117 0.436612
vn -0.698446 -1.475479 -6.023694
v -0.023758 0.001974 0.436638
vn -1.190532 -1.390652 -5.876107
v -0.023764 0.002009 0.436630
vn -1.641525 -1.242672 -5.669426
v -0.023769 0.002041 0.436624
vn -2.116625 -1.031230 -5.337407
v -0.023772 0.002070 0.436619
vn -2.577259 -0.763113 -4.837438
v -0.023774 0.002095 0.436615
vn -2.930771 -0.447154 -4.167486
v -0.023775 0.002117 0.436612
vn -3.015977 -0.251421 -3.891138
v -0.023775 0.002137 0.436610
vn -2.403134 -0.139888 -5.116306
v -0.023774 0.002153 0.436609
vn -0.724297 -0.043203 -6.191780
v -0.023773 0.002167 0.436609
vn -6.272601 0.185386 0.122176
v -0.024230 0.096993 0.539371
vn -6.248973 0.598775 0.049933
v -0.023775 0.104555 0.537080
vn -6.186362 0.108438 -0.701523
v -0.024230 0.096993 0.438433
vn -6.277123 -0.093278 0.144477
v -0.024230 -0.003949 0.539371
vn -6.020876 -0.058181 1.361761
v -0.015228 0.048791 0.743645
vn -3.227487 0.628045 3.130035
v -0.015228 0.150706 0.743645
vn -3.066284 1.286802 2.948923
v -0.014324 0.166168 0.739236
vn -6.219573 0.889392 0.007525
v -0.023774 0.104562 0.537077
vn -5.564015 0.309134 -1.905939
v -0.023775 0.104555 0.436610
vn -3.764704 0.782283 -2.873540
v -0.023774 0.104562 0.436609
vn -2.902190 1.889172 2.674863
v -0.014322 0.166183 0.739231
vn -5.993150 1.703975 -0.118875
v -0.014322 0.166183 0.637899
vn -4.503481 -0.736038 -2.712057
v -0.024230 -0.003949 0.438433
vn -4.550286 3.756514 -0.483244
v -0.014318 0.166191 0.637898
vn 0.891435 0.165558 6.118783
v 0.085833 0.138608 0.744869
vn 2.904804 0.588247 3.513893
v 0.089328 0.151292 0.743722
vn -0.282856 1.230873 6.098190
v -0.013202 0.151292 0.743722
vn 4.055827 -0.534775 3.027819
v 0.089328 0.049289 0.743722
vn -2.792105 0.146608 4.384754
v -0.014698 0.138608 0.744869
vn 6.224597 0.006126 0.854308
v 0.089615 0.151885 0.741740
vn 3.159872 1.802731 2.135382
v 0.089902 0.164237 0.739503
vn 0.909526 2.171119 5.775656
v 0.087619 0.166145 0.739242
vn 1.583031 3.027375 4.681075
v 0.087604 0.166168 0.739236
vn 6.256752 -0.051898 0.372153
v 0.089902 0.059690 0.739503
vn 1.867589 3.581597 2.828470
v 0.087590 0.166183 0.739231
vn 1.350780 4.339937 2.415199
v 0.087578 0.166191 0.739226
vn 0.497769 5.608332 1.600786
v 0.087567 0.166194 0.739222
vn -2.429552 3.166090 2.171986
v -0.014318 0.166191 0.739226
vn -1.292264 5.229462 1.337266
v -0.014314 0.166194 0.739222
# 75 vertices, 0 vertices normals

f 1//1 2//2 3//3
f 1//1 3//3 4//4
f 1//1 5//5 6//6
f 1//1 6//6 2//2
f 1//1 7//7 8//8
f 1//1 4//4 7//7
f 1//1 8//8 5//5
f 2//2 6//6 9//9
f 2//2 9//9 3//3
f 3//3 10//10 11//11
f 3//3 9//9 12//12
f 3//3 12//12 10//10
f 3//3 11//11 4//4
f 10//10 13//13 14//14
f 10//10 12//12 15//15
f 10//10 15//15 13//13
f 10//10 14//14 11//11
f 13//13 15//15 16//16
f 13//13 16//16 17//17
f 13//13 17//17 14//14
f 18//18 19//19 20//20
f 18//18 21//21 19//19
f 18//18 22//22 21//21
f 18//18 20//20 23//23
f 18//18 23//23 22//22
f 19//19 21//21 24//24
f 19//19 24//24 25//25
f 19//19 26//26 20//20
f 19//19 25//25 26//26
f 21//21 27//27 24//24
f 21//21 22//22 28//28
f 21//21 28//28 29//29
f 21//21 29//29 27//27
f 27//27 30//30 24//24
f 27//27 29//29 31//31
f 27//27 31//31 30//30
f 24//24 30//30 5//5
f 24//24 5//5 8//8
f 24//24 8//8 25//25
f 30//30 32//32 5//5
f 30//30 31//31 32//32
f 5//5 32//32 33//33
f 5//5 33//33 34//34
f 5//5 34//34 35//35
f 5//5 35//35 36//36
f 5//5 36//36 37//37
f 5//5 37//37 6//6
f 32//32 31//31 38//38
f 32//32 38//38 33//33
f 33//33 38//38 39//39
f 33//33 39//39 34//34
f 34//34 39//39 40//40
f 34//34 40//40 35//35
f 35//35 40//40 41//41
f 35//35 41//41 36//36
f 36//36 41//41 42//42
f 36//36 42//42 37//37
f 37//37 42//42 43//43
f 37//37 43//43 6//6
f 6//6 43//43 44//44
f 6//6 44//44 9//9
f 9//9 44//44 45//45
f 9//9 45//45 12//12
f 12//12 45//45 46//46
f 12//12 46//46 15//15
f 47//47 48//48 49//49
f 47//47 49//49 50//50
f 47//47 50//50 51//51
f 47//47 52//52 53//53
f 47//47 53//53 48//48
f 47//47 51//51 52//52
f 48//48 54//54 55//55
f 48//48 55//55 49//49
f 48//48 53//53 54//54
f 54//54 56//56 55//55
f 54//54 53//53 57//57
f 54//54 57//57 58//58
f 54//54 58//58 56//56
f 49//49 55//55 44//44
f 49//49 59//59 50//50
f 49//49 44//44 59//59
f 55//55 56//56 45//45
f 55//55 45//45 44//44
f 56//56 15//15 46//46
f 56//56 46//46 45//45
f 56//56 58//58 60//60
f 56//56 60//60 15//15
f 15//15 60//60 17//17
f 15//15 17//17 16//16
f 22//22 50//50 28//28
f 22//22 23//23 51//51
f 22//22 51//51 50//50
f 50//50 59//59 28//28
f 28//28 59//59 29//29
f 29//29 59//59 40//40
f 29//29 38//38 31//31
f 29//29 39//39 38//38
f 29//29 40//40 39//39
f 59//59 41//41 40//40
f 59//59 42//42 41//41
f 59//59 43//43 42//42
f 59//59 44//44 43//43
f 61//61 62//62 63//63
f 61//61 20//20 64//64
f 61//61 64//64 62//62
f 61//61 65//65 20//20
f 61//61 63//63 65//65
f 62//62 66//66 67//67
f 62//62 67//67 68//68
f 62//62 68//68 69//69
f 62//62 69//69 63//63
f 62//62 64//64 26//26
f 62//62 26//26 66//66
f 66//66 26//26 70//70
f 66//66 70//70 67//67
f 67//67 69//69 68//68
f 67//67 71//71 69//69
f 67//67 7//7 71//71
f 67//67 70//70 7//7
f 69//69 71//71 53//53
f 69//69 53//53 63//63
f 71//71 72//72 57//57
f 71//71 7//7 4//4
f 71//71 4//4 72//72
f 71//71 57//57 53//53
f 72//72 73//73 74//74
f 72//72 4//4 11//11
f 72//72 11//11 73//73
f 72//72 74//74 57//57
f 73//73 11//11 14//14
f 73//73 14//14 75//75
f 73//73 75//75 74//74
f 7//7 70//70 8//8
f 14//14 17//17 75//75
f 20//20 26//26 64//64
f 20//20 65//65 23//23
f 26//26 25//25 70//70
f 70//70 25//25 8//8
f 65//65 52//52 51//51
f 65//65 63//63 52//52
f 65//65 51//51 23//23
f 52//52 63//63 53//53
f 57//57 74//74 58//58
f 74//74 75//75 60//60
f 74//74 60//60 58//58
f 75//75 17//17 60//60
# 146 faces, 0 coords texture

# End of File
