####
#
# OBJ File Generated by Meshlab
#
####
# Object step_12_link_4.obj
#
# Vertices: 63
# Faces: 122
#
####
vn 2.508052 1.233385 -4.070301
v 0.157175 0.046550 0.416198
vn 2.799611 3.937722 -3.533309
v 0.156750 0.047227 0.416488
vn 4.970615 1.669629 -1.508772
v 0.266036 0.060371 0.595818
vn 0.864298 3.012559 -4.756852
v 0.155911 0.047522 0.416364
vn 1.547263 -2.102490 -2.489392
v 0.157175 -0.053610 0.416198
vn -0.227752 0.431029 -6.225560
v 0.056891 0.046550 0.416198
vn 3.344225 -2.566107 -0.861306
v 0.266036 -0.039957 0.595818
vn 1.033257 4.980628 -2.554611
v 0.154860 0.049101 0.417859
vn 2.913387 5.033180 -0.908764
v 0.261400 0.065637 0.598939
vn 4.276715 3.989156 -1.296859
v 0.265156 0.061732 0.596383
vn -0.908971 1.866853 -5.236401
v 0.055353 0.047522 0.416364
vn 0.110707 6.204928 -0.897456
v 0.154586 0.049149 0.418097
vn 1.052824 6.032585 -0.398950
v 0.260890 0.065827 0.599307
vn -0.405721 4.736404 -3.256903
v 0.052759 0.049101 0.417859
vn -1.748667 3.457232 -2.386260
v 0.051654 0.049149 0.418097
vn -0.417382 6.233549 -0.191268
v 0.154927 0.065827 0.599307
vn 0.322680 -6.252693 0.156023
v 0.155911 -0.053777 0.517495
vn 0.218043 -5.338901 -2.105106
v 0.155911 -0.053777 0.416364
vn 0.853839 -6.224308 -0.023609
v 0.263473 -0.040333 0.596123
vn -1.191727 -5.963689 0.503284
v 0.055353 -0.053777 0.517495
vn 1.158460 -4.286966 2.666948
v 0.263473 -0.040333 0.698448
vn -0.368048 -5.215913 2.449243
v 0.162351 -0.040333 0.698448
vn -0.179285 -2.105096 -5.362901
v 0.056891 -0.053610 0.416198
vn -1.084994 -2.776323 -2.683065
v 0.055353 -0.053777 0.416364
vn -2.558275 5.402851 0.459896
v 0.051654 0.049149 0.518604
vn -4.612896 2.105752 1.133628
v 0.051165 0.048759 0.518719
vn -2.378151 1.738720 3.350211
v 0.153947 0.065094 0.701239
vn -3.518626 1.533583 -2.062649
v 0.051165 0.048759 0.418208
vn -0.824420 4.170126 2.561710
v 0.154927 0.065827 0.700952
vn -5.003369 -1.729909 1.364631
v 0.051165 -0.051641 0.518719
vn -2.589995 -1.278524 3.966213
v 0.153947 -0.036369 0.701239
vn -3.978981 -1.143880 -2.254513
v 0.051165 -0.051641 0.418208
vn -2.157393 -5.785065 0.772804
v 0.052759 -0.052757 0.518266
vn -2.458147 -5.767042 -0.253904
v 0.052759 -0.052757 0.417859
vn -1.027590 -5.308167 2.764037
v 0.157144 -0.038448 0.700168
vn -1.447882 -3.355359 3.545059
v 0.154927 -0.037601 0.700952
vn -3.460149 -4.507920 1.081243
v 0.051654 -0.052284 0.518604
vn -3.170254 -3.261424 -2.179947
v 0.051654 -0.052284 0.418097
vn 5.516926 1.295321 0.998111
v 0.266036 0.060371 0.696130
vn 4.317027 1.834240 2.252656
v 0.265156 0.061732 0.697845
vn 3.038856 -2.512550 2.610359
v 0.265156 -0.039930 0.697845
vn 3.397539 -2.636407 0.772167
v 0.266036 -0.039957 0.696130
vn 3.639469 4.471122 0.935862
v 0.261400 0.065637 0.700168
vn 1.543152 2.985746 2.443696
v 0.260890 0.065827 0.700952
vn 3.653828 0.246628 5.084516
v 0.260649 0.065062 0.701215
vn 3.819112 0.163261 4.981867
v 0.260671 0.065041 0.701199
vn 3.484099 -0.286161 5.202279
v 0.260671 -0.036454 0.701199
vn 3.317929 0.334875 5.294004
v 0.260628 0.065080 0.701229
vn 1.421382 0.880236 5.632625
v 0.260608 0.065094 0.701239
vn 0.030465 1.247139 6.018652
v 0.259113 0.065124 0.701261
vn 3.164384 -0.351356 5.367626
v 0.260649 -0.036423 0.701215
vn 2.660897 -0.448435 5.602001
v 0.260628 -0.036395 0.701229
vn 1.306467 -0.478792 5.848894
v 0.260608 -0.036369 0.701239
vn 0.030647 -0.141117 6.279152
v 0.259113 -0.036273 0.701261
vn -0.197167 1.347345 5.954132
v 0.154456 0.065124 0.701261
vn 1.390626 -2.046314 5.037628
v 0.260890 -0.037601 0.700952
vn 0.009997 -1.347373 6.136236
v 0.259174 -0.036324 0.701254
vn 0.019846 -1.018445 6.194400
v 0.259151 -0.036304 0.701258
vn 0.034450 -0.513463 6.254708
v 0.259131 -0.036287 0.701260
vn -0.017815 -1.367732 6.131725
v 0.154499 -0.036324 0.701254
vn -0.034263 -1.066657 6.186037
v 0.154480 -0.036304 0.701258
vn -0.068639 -0.595946 6.246445
v 0.154465 -0.036287 0.701260
vn -0.128956 -0.178944 6.273232
v 0.154456 -0.036273 0.701261
# 63 vertices, 0 vertices normals

f 1//1 2//2 3//3
f 1//1 4//4 2//2
f 1//1 5//5 6//6
f 1//1 6//6 4//4
f 1//1 3//3 7//7
f 1//1 7//7 5//5
f 2//2 4//4 8//8
f 2//2 8//8 9//9
f 2//2 10//10 3//3
f 2//2 9//9 10//10
f 4//4 6//6 11//11
f 4//4 11//11 8//8
f 8//8 12//12 13//13
f 8//8 11//11 14//14
f 8//8 14//14 12//12
f 8//8 13//13 9//9
f 12//12 14//14 15//15
f 12//12 15//15 16//16
f 12//12 16//16 13//13
f 17//17 18//18 19//19
f 17//17 20//20 18//18
f 17//17 21//21 22//22
f 17//17 19//19 21//21
f 17//17 22//22 20//20
f 5//5 18//18 23//23
f 5//5 23//23 6//6
f 5//5 7//7 19//19
f 5//5 19//19 18//18
f 18//18 20//20 24//24
f 18//18 24//24 23//23
f 25//25 26//26 27//27
f 25//25 15//15 28//28
f 25//25 28//28 26//26
f 25//25 29//29 16//16
f 25//25 27//27 29//29
f 25//25 16//16 15//15
f 26//26 28//28 30//30
f 26//26 30//30 31//31
f 26//26 31//31 27//27
f 6//6 23//23 24//24
f 6//6 24//24 11//11
f 11//11 15//15 14//14
f 11//11 28//28 15//15
f 11//11 24//24 32//32
f 11//11 32//32 28//28
f 28//28 32//32 30//30
f 20//20 33//33 34//34
f 20//20 34//34 24//24
f 20//20 22//22 35//35
f 20//20 35//35 36//36
f 20//20 36//36 33//33
f 33//33 37//37 38//38
f 33//33 38//38 34//34
f 33//33 36//36 37//37
f 37//37 30//30 32//32
f 37//37 32//32 38//38
f 37//37 36//36 31//31
f 37//37 31//31 30//30
f 24//24 34//34 38//38
f 24//24 38//38 32//32
f 39//39 40//40 41//41
f 39//39 3//3 10//10
f 39//39 10//10 40//40
f 39//39 42//42 3//3
f 39//39 41//41 42//42
f 40//40 43//43 44//44
f 40//40 44//44 45//45
f 40//40 46//46 47//47
f 40//40 45//45 46//46
f 40//40 10//10 9//9
f 40//40 9//9 43//43
f 40//40 47//47 41//41
f 43//43 9//9 13//13
f 43//43 13//13 44//44
f 44//44 48//48 45//45
f 44//44 49//49 48//48
f 44//44 50//50 49//49
f 44//44 13//13 29//29
f 44//44 29//29 50//50
f 46//46 45//45 51//51
f 46//46 51//51 47//47
f 45//45 48//48 52//52
f 45//45 52//52 51//51
f 48//48 49//49 53//53
f 48//48 53//53 52//52
f 49//49 50//50 54//54
f 49//49 54//54 53//53
f 50//50 29//29 55//55
f 50//50 55//55 54//54
f 3//3 42//42 7//7
f 13//13 16//16 29//29
f 42//42 41//41 21//21
f 42//42 21//21 19//19
f 42//42 19//19 7//7
f 41//41 56//56 21//21
f 41//41 47//47 56//56
f 21//21 56//56 22//22
f 56//56 47//47 51//51
f 56//56 51//51 52//52
f 56//56 52//52 53//53
f 56//56 53//53 57//57
f 56//56 57//57 36//36
f 56//56 36//36 22//22
f 53//53 58//58 57//57
f 53//53 59//59 58//58
f 53//53 54//54 59//59
f 57//57 58//58 60//60
f 57//57 60//60 36//36
f 58//58 59//59 61//61
f 58//58 61//61 60//60
f 59//59 54//54 62//62
f 59//59 62//62 61//61
f 54//54 55//55 63//63
f 54//54 63//63 62//62
f 29//29 27//27 55//55
f 27//27 31//31 63//63
f 27//27 63//63 55//55
f 22//22 36//36 35//35
f 36//36 60//60 31//31
f 31//31 60//60 61//61
f 31//31 61//61 62//62
f 31//31 62//62 63//63
# 122 faces, 0 coords texture

# End of File
