####
#
# OBJ File Generated by Meshlab
#
####
# Object step_23_link_7.obj
#
# Vertices: 61
# Faces: 118
#
####
vn 4.998183 1.197212 3.371538
v 0.414013 -0.085063 0.578345
vn 1.908626 3.226232 2.232144
v 0.405517 -0.080963 0.589132
vn 3.659522 0.587548 4.658069
v 0.405425 -0.082523 0.589645
vn 3.373347 -1.119494 4.575232
v 0.405425 -0.193588 0.589645
vn 5.037459 -0.099351 3.750829
v 0.414013 -0.191545 0.578345
vn 5.282132 1.131189 1.721388
v 0.561512 -0.136003 0.374428
vn 4.982018 2.263657 3.005851
v 0.560679 -0.135504 0.375475
vn 2.580576 0.834884 5.598543
v 0.404900 -0.082363 0.589868
vn 0.855036 1.860267 5.161928
v 0.403925 -0.082118 0.590275
vn 0.841572 6.071540 -0.401623
v 0.405517 -0.080963 0.481426
vn -0.982177 5.075875 1.772242
v 0.291107 -0.080963 0.589132
vn 4.036516 3.537747 0.358460
v 0.561167 -0.134287 0.372264
vn 4.689990 3.367200 2.296116
v 0.560825 -0.135305 0.375014
vn 2.465173 -0.265284 5.766464
v 0.404900 -0.193645 0.589868
vn 0.771837 -2.395520 4.432126
v 0.403925 -0.193828 0.590275
vn -1.076401 1.886050 4.936958
v 0.290011 -0.082118 0.590275
vn -2.142707 5.000378 -1.115484
v 0.291107 -0.080963 0.481426
vn 2.517475 2.856792 -1.601886
v 0.561167 -0.134287 0.210004
vn -1.980724 3.267666 -2.792471
v 0.381546 -0.134287 0.210004
vn 4.578314 -1.880743 1.592055
v 0.561512 -0.308675 0.374428
vn 2.287178 -3.742811 3.874196
v 0.405517 -0.194337 0.589132
vn 2.495603 -3.151654 3.134019
v 0.560679 -0.308788 0.375475
vn -0.943668 -2.316847 4.296695
v 0.290011 -0.193828 0.590275
vn -0.007796 -5.569356 2.907852
v 0.380735 -0.308788 0.375475
vn -2.669238 3.930996 2.132238
v 0.289395 -0.081904 0.589928
vn -4.534330 2.684558 -0.740472
v 0.289395 -0.081904 0.483264
vn -3.603749 1.511802 2.295768
v 0.289390 -0.081911 0.589930
vn -4.032569 -1.158212 2.445341
v 0.289390 -0.193944 0.589930
vn -5.647528 1.730031 -0.248817
v 0.289390 -0.081911 0.483298
vn -4.798790 3.243993 -1.940756
v 0.289411 -0.081903 0.483225
vn -5.876498 0.706951 -1.849305
v 0.289624 -0.082577 0.482187
vn -5.146126 1.126173 -2.778484
v 0.380185 -0.136003 0.210939
vn -6.027954 -0.314657 -1.643842
v 0.289624 -0.193480 0.482187
vn -5.536960 -1.884154 -0.631698
v 0.289395 -0.193955 0.483264
vn -5.958679 -1.212115 -0.262993
v 0.289390 -0.193944 0.483298
vn -0.566077 -5.585753 2.815369
v 0.289411 -0.193961 0.589918
vn -0.526069 -5.643850 2.613471
v 0.380484 -0.308819 0.375414
vn -2.901037 -3.355616 2.183417
v 0.289395 -0.193955 0.589928
vn -2.428279 -4.938388 0.866010
v 0.380159 -0.309044 0.374751
vn -4.571874 -2.066452 -2.099246
v 0.380185 -0.308675 0.210939
vn -3.928501 -4.320819 -0.371110
v 0.380159 -0.309044 0.212675
vn 6.217719 0.610213 -0.073114
v 0.561512 -0.136003 0.210939
vn 2.198884 1.787135 -4.094416
v 0.555499 -0.142360 0.200942
vn 0.500236 1.961590 -5.280377
v 0.552860 -0.143101 0.200195
vn -0.559961 4.121789 -4.617536
v 0.395890 -0.142360 0.200942
vn 5.524928 0.570675 -1.900531
v 0.561490 -0.136057 0.209979
vn 3.012446 -1.008163 -4.596251
v 0.555499 -0.297651 0.200942
vn 0.677515 -1.814634 -5.396568
v 0.552860 -0.297883 0.200195
vn -1.079353 1.726508 -5.022354
v 0.396845 -0.143101 0.200195
vn 6.075506 -1.097336 -0.069682
v 0.561512 -0.308675 0.210939
vn 5.114466 -0.990929 -2.093054
v 0.561490 -0.308621 0.209979
vn 2.725032 -4.205420 0.387525
v 0.561167 -0.309587 0.372264
vn 2.000874 -4.874312 2.123188
v 0.560825 -0.308988 0.375014
vn -0.950052 -6.015331 0.440952
v 0.381546 -0.309587 0.372264
vn 2.140406 -3.084273 -1.632076
v 0.561167 -0.309587 0.210004
vn 0.018641 -5.697321 2.639176
v 0.560443 -0.308819 0.375414
vn -0.411609 -5.867073 2.016441
v 0.380459 -0.308988 0.375014
vn -1.117281 -1.527297 -5.206069
v 0.396845 -0.297883 0.200195
vn -1.560956 -3.643771 -2.397496
v 0.381546 -0.309587 0.210004
vn -3.942453 0.717705 -4.542323
v 0.380957 -0.136057 0.209979
vn -3.693143 -1.214727 -4.417154
v 0.380957 -0.308621 0.209979
# 61 vertices, 0 vertices normals

f 1//1 2//2 3//3
f 1//1 3//3 4//4
f 1//1 5//5 6//6
f 1//1 4//4 5//5
f 1//1 6//6 7//7
f 1//1 7//7 2//2
f 2//2 8//8 3//3
f 2//2 9//9 8//8
f 2//2 10//10 11//11
f 2//2 11//11 9//9
f 2//2 12//12 10//10
f 2//2 7//7 13//13
f 2//2 13//13 12//12
f 3//3 8//8 14//14
f 3//3 14//14 4//4
f 8//8 9//9 15//15
f 8//8 15//15 14//14
f 9//9 11//11 16//16
f 9//9 16//16 15//15
f 10//10 17//17 11//11
f 10//10 12//12 18//18
f 10//10 18//18 19//19
f 10//10 19//19 17//17
f 5//5 4//4 20//20
f 5//5 20//20 6//6
f 21//21 4//4 15//15
f 21//21 15//15 22//22
f 21//21 22//22 4//4
f 4//4 14//14 15//15
f 4//4 22//22 20//20
f 15//15 16//16 23//23
f 15//15 23//23 24//24
f 15//15 24//24 22//22
f 11//11 25//25 16//16
f 11//11 17//17 26//26
f 11//11 26//26 25//25
f 16//16 25//25 27//27
f 16//16 27//27 28//28
f 16//16 28//28 23//23
f 25//25 26//26 29//29
f 25//25 29//29 27//27
f 27//27 29//29 28//28
f 17//17 30//30 26//26
f 17//17 19//19 30//30
f 31//31 26//26 32//32
f 31//31 33//33 34//34
f 31//31 34//34 26//26
f 31//31 32//32 33//33
f 30//30 19//19 32//32
f 30//30 32//32 26//26
f 26//26 34//34 35//35
f 26//26 35//35 29//29
f 29//29 35//35 28//28
f 23//23 36//36 37//37
f 23//23 38//38 36//36
f 23//23 28//28 38//38
f 23//23 37//37 24//24
f 36//36 38//38 37//37
f 38//38 28//28 35//35
f 38//38 34//34 39//39
f 38//38 35//35 34//34
f 38//38 39//39 37//37
f 33//33 32//32 40//40
f 33//33 40//40 34//34
f 34//34 40//40 41//41
f 34//34 41//41 39//39
f 12//12 6//6 42//42
f 12//12 13//13 6//6
f 12//12 42//42 18//18
f 6//6 13//13 7//7
f 6//6 20//20 42//42
f 43//43 44//44 45//45
f 43//43 18//18 46//46
f 43//43 46//46 47//47
f 43//43 47//47 44//44
f 43//43 45//45 18//18
f 44//44 47//47 48//48
f 44//44 48//48 49//49
f 44//44 49//49 45//45
f 18//18 42//42 46//46
f 18//18 45//45 19//19
f 46//46 42//42 50//50
f 46//46 51//51 47//47
f 46//46 50//50 51//51
f 42//42 20//20 50//50
f 52//52 20//20 53//53
f 52//52 53//53 54//54
f 52//52 55//55 50//50
f 52//52 50//50 20//20
f 52//52 54//54 55//55
f 20//20 22//22 53//53
f 22//22 56//56 53//53
f 22//22 24//24 56//56
f 53//53 56//56 57//57
f 53//53 57//57 54//54
f 56//56 24//24 37//37
f 56//56 37//37 57//57
f 47//47 55//55 48//48
f 47//47 51//51 55//55
f 48//48 55//55 58//58
f 48//48 58//58 49//49
f 55//55 51//51 50//50
f 55//55 54//54 59//59
f 55//55 59//59 58//58
f 45//45 49//49 19//19
f 49//49 60//60 19//19
f 49//49 58//58 60//60
f 19//19 60//60 32//32
f 60//60 58//58 61//61
f 60//60 61//61 40//40
f 60//60 40//40 32//32
f 54//54 57//57 39//39
f 54//54 39//39 41//41
f 54//54 41//41 59//59
f 57//57 37//37 39//39
f 58//58 59//59 61//61
f 59//59 40//40 61//61
f 59//59 41//41 40//40
# 118 faces, 0 coords texture

# End of File
