####
#
# OBJ File Generated by Meshlab
#
####
# Object step_50_link_5.obj
#
# Vertices: 105
# Faces: 206
#
####
vn 2.774968 0.205002 4.336805
v 0.084676 0.195048 0.728622
vn 2.648012 1.054791 4.092081
v 0.085026 0.202200 0.727722
vn -0.954806 0.237344 6.077680
v -0.015786 0.195048 0.728622
vn 1.517325 -1.902727 1.915446
v 0.084676 0.094181 0.728622
vn 5.847520 -0.884762 0.961428
v 0.147095 0.224523 0.578912
vn 4.391424 1.750838 2.210793
v 0.147095 0.326268 0.578912
vn 2.050175 3.098410 4.700297
v 0.081109 0.213203 0.723068
vn 0.457767 2.602503 5.690438
v 0.078618 0.214853 0.722576
vn 0.516081 2.768097 5.571811
v 0.078578 0.214908 0.722554
vn -2.061406 0.872377 5.110817
v -0.018256 0.202200 0.727722
vn 0.748445 3.119750 5.291633
v 0.078542 0.214952 0.722535
vn 0.961665 3.504754 4.914810
v 0.078511 0.214987 0.722518
vn 2.751348 3.522434 1.923651
v 0.146690 0.329683 0.576009
vn -0.813506 2.103417 5.789888
v -0.023006 0.214908 0.722554
vn -2.006914 1.541059 5.220811
v -0.023027 0.214952 0.722535
vn 0.848187 3.760902 4.776696
v 0.078484 0.215013 0.722503
vn -2.390988 1.464766 4.743927
v -0.023043 0.214987 0.722518
vn 0.566450 4.114699 4.585195
v 0.078461 0.215031 0.722491
vn -2.569603 1.645164 4.349029
v -0.023054 0.215013 0.722503
vn 0.215088 4.566720 4.251204
v 0.078443 0.215042 0.722481
vn -2.747136 1.905809 3.716542
v -0.023062 0.215031 0.722491
vn -2.882227 2.224135 2.767667
v -0.023066 0.215042 0.722481
vn -0.349989 5.213054 3.390782
v 0.042352 0.329683 0.576009
vn 2.195318 -4.096152 -1.132111
v 0.084676 0.094181 0.628326
vn 5.912628 -1.959585 0.042503
v 0.146946 0.223745 0.575185
vn -1.424184 -2.206967 2.047126
v -0.015786 0.094181 0.728622
vn -2.185796 -4.043323 -1.294542
v -0.015786 0.094181 0.628326
vn -0.017834 -4.966701 -3.848171
v 0.030261 0.225596 0.457408
vn 4.915452 -2.377619 -1.270457
v 0.146946 0.223745 0.472047
vn 3.075842 -3.965626 -3.103198
v 0.140143 0.223695 0.461428
vn 2.819361 -2.157302 -3.793727
v 0.139385 0.225138 0.459047
vn 1.102545 -5.017989 -3.614413
v 0.137504 0.224991 0.458645
vn 1.513414 -2.322821 -4.675063
v 0.136629 0.225554 0.457611
vn 0.591854 -4.337956 -4.357046
v 0.135726 0.225596 0.457408
vn -3.776903 -0.658770 4.392269
v -0.018256 0.100654 0.727722
vn -5.280475 -1.021178 2.075509
v -0.023043 0.110210 0.722518
vn -5.470114 -0.841718 1.909344
v -0.023054 0.110248 0.722503
vn -5.724323 -0.634717 1.614319
v -0.023062 0.110280 0.722491
vn -5.995915 -0.392289 1.166858
v -0.023066 0.110307 0.722481
vn -3.312671 2.445255 1.838009
v -0.023068 0.215048 0.722474
vn -6.215551 -0.139862 0.552124
v -0.023068 0.110329 0.722474
vn -5.816473 2.266253 0.151445
v -0.023067 0.215049 0.722468
vn -6.040482 0.605856 -0.760275
v -0.023068 0.215048 0.621030
vn -0.517847 5.426977 3.002928
v 0.031723 0.335923 0.563875
vn -3.049104 4.033289 1.321050
v 0.029601 0.336412 0.562486
vn -5.939648 1.774477 -0.458662
v -0.023067 0.215049 0.621030
vn -3.889237 2.236981 -1.756167
v 0.029601 0.336412 0.457893
vn -6.024624 -0.347733 -1.136832
v -0.023068 0.110329 0.621030
vn -4.159703 -1.563695 -3.269355
v 0.029601 0.225571 0.457893
vn -5.359682 -1.688511 1.711789
v -0.020209 0.102565 0.725274
vn -5.364283 -1.211392 1.999136
v -0.023027 0.110166 0.722535
vn -5.204226 -2.897888 -1.172696
v -0.020209 0.102565 0.624774
vn -5.128160 -2.519672 -1.744503
v -0.023027 0.110166 0.621069
vn -5.260680 -2.285077 -1.671711
v -0.023043 0.110210 0.621055
vn -5.466743 -1.912429 -1.586591
v -0.023054 0.110248 0.621044
vn -5.674980 -1.462297 -1.471012
v -0.023062 0.110280 0.621037
vn -5.868412 -0.924667 -1.317282
v -0.023066 0.110307 0.621033
vn -4.059049 -3.573558 -3.003652
v -0.017220 0.097392 0.626397
vn -1.472072 -3.133048 -4.707196
v 0.030217 0.225637 0.457368
vn -0.710422 -4.346704 -4.268614
v 0.030234 0.225615 0.457384
vn -4.635078 -3.017267 -2.441727
v -0.020971 0.105024 0.622815
vn 5.563046 2.203966 0.266589
v 0.146946 0.329364 0.575185
vn 6.241610 0.587216 0.025176
v 0.147020 0.328902 0.573975
vn 6.281779 0.078027 -0.022910
v 0.147095 0.326268 0.477776
vn 4.518249 4.325164 -0.069851
v 0.146690 0.329683 0.472335
vn 4.069887 4.785986 0.041697
v 0.139796 0.335678 0.564057
vn 1.846645 5.265742 1.161790
v 0.139507 0.335923 0.563875
vn 5.476640 2.533455 -0.190333
v 0.146946 0.329364 0.472047
vn 5.974322 0.773815 -0.909770
v 0.147020 0.328902 0.471377
vn 4.645644 3.852730 -0.947951
v 0.139796 0.335678 0.460019
vn 0.751096 6.028943 0.965352
v 0.136629 0.336612 0.562210
vn 0.097333 5.864319 2.239948
v 0.135861 0.336692 0.562058
vn 3.068097 5.000125 -0.676561
v 0.139507 0.335923 0.459756
vn 0.212698 6.012612 1.708424
v 0.135790 0.336717 0.561992
vn 0.378746 6.146226 0.874471
v 0.135726 0.336734 0.561933
vn 0.330058 6.222232 0.400623
v 0.135669 0.336742 0.561880
vn 1.530348 2.857953 -2.858321
v 0.136629 0.336612 0.457611
vn -0.147802 5.790903 2.419500
v 0.030347 0.336692 0.562058
vn -0.307241 5.904643 2.045877
v 0.030298 0.336717 0.561992
vn -0.634651 5.991986 1.508452
v 0.030261 0.336734 0.561933
vn 0.064381 6.280760 0.072859
v 0.135617 0.336743 0.561832
vn -0.960785 6.005995 0.855947
v 0.030234 0.336742 0.561880
vn 1.020769 4.865238 -2.388384
v 0.135669 0.336742 0.457384
vn 0.681636 3.094041 -3.044403
v 0.135617 0.336743 0.457368
vn -1.463235 5.891635 0.221007
v 0.030217 0.336743 0.561832
vn 6.226794 -0.580135 -0.021818
v 0.147095 0.224523 0.477776
vn 6.071294 -0.323059 -1.073937
v 0.147020 0.225374 0.471377
vn 4.927054 2.013380 -1.604141
v 0.146542 0.329689 0.469931
vn 5.109946 -1.430093 -2.634735
v 0.146542 0.225024 0.469931
vn 5.216593 0.205006 -3.474046
v 0.139837 0.334901 0.459658
vn 3.144644 2.362925 -2.896364
v 0.139385 0.335809 0.459047
vn 5.162421 -0.386706 -3.521935
v 0.139837 0.225430 0.459658
vn 0.659312 -1.834525 -5.580779
v 0.135617 0.225637 0.457368
vn 0.405194 2.682198 -4.524881
v 0.135572 0.336739 0.457359
vn -1.014671 5.686784 -1.041865
v 0.030217 0.336743 0.457368
vn 0.452523 -1.003480 -6.036641
v 0.135572 0.225659 0.457359
vn 0.122223 0.828303 -6.148588
v 0.135534 0.336730 0.457357
vn -1.694477 3.243737 -2.834762
v 0.030209 0.336739 0.457359
vn 0.143501 -0.294847 -6.257648
v 0.135534 0.225682 0.457357
vn -2.155261 1.041791 -4.910254
v 0.030207 0.336730 0.457357
vn 0.644549 -3.107662 -4.941351
v 0.135669 0.225615 0.457384
vn -1.899825 -1.581918 -5.110371
v 0.030209 0.225659 0.457359
vn -2.047287 -0.372114 -5.397155
v 0.030207 0.225682 0.457357
vn -0.878076 5.730107 2.273459
v 0.030092 0.336612 0.562210
vn -2.883499 5.581293 0.006980
v 0.030209 0.336739 0.561792
# 105 vertices, 0 vertices normals

f 1//1 2//2 3//3
f 1//1 4//4 5//5
f 1//1 3//3 4//4
f 1//1 6//6 2//2
f 1//1 5//5 6//6
f 2//2 7//7 8//8
f 2//2 8//8 9//9
f 2//2 9//9 10//10
f 2//2 10//10 3//3
f 2//2 6//6 7//7
f 7//7 9//9 8//8
f 7//7 11//11 9//9
f 7//7 12//12 11//11
f 7//7 6//6 13//13
f 7//7 13//13 12//12
f 9//9 11//11 14//14
f 9//9 14//14 10//10
f 11//11 12//12 15//15
f 11//11 15//15 14//14
f 12//12 16//16 17//17
f 12//12 17//17 15//15
f 12//12 13//13 16//16
f 16//16 18//18 19//19
f 16//16 19//19 17//17
f 16//16 13//13 18//18
f 18//18 20//20 21//21
f 18//18 21//21 19//19
f 18//18 13//13 20//20
f 20//20 22//22 21//21
f 20//20 13//13 23//23
f 20//20 23//23 22//22
f 4//4 24//24 25//25
f 4//4 3//3 26//26
f 4//4 26//26 24//24
f 4//4 25//25 5//5
f 24//24 26//26 27//27
f 24//24 27//27 28//28
f 24//24 29//29 25//25
f 24//24 30//30 29//29
f 24//24 31//31 30//30
f 24//24 32//32 31//31
f 24//24 33//33 32//32
f 24//24 34//34 33//33
f 24//24 28//28 34//34
f 3//3 10//10 35//35
f 3//3 35//35 26//26
f 10//10 14//14 15//15
f 10//10 15//15 17//17
f 10//10 17//17 36//36
f 10//10 36//36 35//35
f 17//17 19//19 37//37
f 17//17 37//37 36//36
f 19//19 21//21 38//38
f 19//19 38//38 37//37
f 21//21 22//22 39//39
f 21//21 39//39 38//38
f 22//22 40//40 41//41
f 22//22 41//41 39//39
f 22//22 23//23 40//40
f 40//40 42//42 43//43
f 40//40 43//43 41//41
f 40//40 23//23 44//44
f 40//40 44//44 45//45
f 40//40 45//45 42//42
f 42//42 46//46 43//43
f 42//42 45//45 46//46
f 43//43 46//46 47//47
f 43//43 48//48 41//41
f 43//43 47//47 49//49
f 43//43 49//49 48//48
f 46//46 45//45 47//47
f 26//26 35//35 50//50
f 26//26 50//50 27//27
f 35//35 51//51 50//50
f 35//35 36//36 51//51
f 50//50 51//51 52//52
f 50//50 52//52 27//27
f 51//51 36//36 53//53
f 51//51 53//53 52//52
f 36//36 37//37 54//54
f 36//36 54//54 53//53
f 37//37 38//38 55//55
f 37//37 55//55 54//54
f 38//38 39//39 56//56
f 38//38 56//56 55//55
f 39//39 41//41 57//57
f 39//39 57//57 56//56
f 41//41 48//48 57//57
f 27//27 58//58 49//49
f 27//27 52//52 58//58
f 27//27 49//49 59//59
f 27//27 60//60 28//28
f 27//27 59//59 60//60
f 58//58 52//52 61//61
f 58//58 61//61 49//49
f 52//52 53//53 61//61
f 61//61 53//53 49//49
f 53//53 54//54 49//49
f 54//54 55//55 49//49
f 55//55 56//56 49//49
f 56//56 57//57 49//49
f 57//57 48//48 49//49
f 6//6 62//62 13//13
f 6//6 63//63 62//62
f 6//6 64//64 63//63
f 6//6 5//5 64//64
f 13//13 62//62 65//65
f 13//13 66//66 67//67
f 13//13 67//67 23//23
f 13//13 65//65 66//66
f 62//62 63//63 68//68
f 62//62 68//68 65//65
f 63//63 64//64 69//69
f 63//63 69//69 68//68
f 66//66 65//65 70//70
f 66//66 70//70 67//67
f 67//67 71//71 72//72
f 67//67 72//72 44//44
f 67//67 70//70 73//73
f 67//67 73//73 71//71
f 67//67 44//44 23//23
f 71//71 74//74 72//72
f 71//71 75//75 74//74
f 71//71 76//76 75//75
f 71//71 73//73 77//77
f 71//71 77//77 76//76
f 72//72 74//74 78//78
f 72//72 78//78 44//44
f 74//74 75//75 79//79
f 74//74 79//79 78//78
f 75//75 76//76 80//80
f 75//75 80//80 79//79
f 76//76 81//81 82//82
f 76//76 77//77 83//83
f 76//76 83//83 81//81
f 76//76 82//82 80//80
f 81//81 83//83 84//84
f 81//81 84//84 85//85
f 81//81 85//85 82//82
f 64//64 5//5 86//86
f 64//64 86//86 87//87
f 64//64 87//87 69//69
f 65//65 68//68 88//88
f 65//65 88//88 70//70
f 68//68 69//69 88//88
f 69//69 87//87 89//89
f 69//69 89//89 88//88
f 88//88 90//90 91//91
f 88//88 91//91 70//70
f 88//88 89//89 92//92
f 88//88 92//92 90//90
f 90//90 92//92 31//31
f 90//90 31//31 91//91
f 70//70 91//91 73//73
f 73//73 91//91 77//77
f 91//91 31//31 33//33
f 91//91 33//33 77//77
f 77//77 84//84 83//83
f 77//77 33//33 93//93
f 77//77 93//93 84//84
f 84//84 94//94 95//95
f 84//84 93//93 96//96
f 84//84 96//96 94//94
f 84//84 95//95 85//85
f 94//94 97//97 98//98
f 94//94 96//96 99//99
f 94//94 99//99 97//97
f 94//94 98//98 95//95
f 97//97 99//99 100//100
f 97//97 100//100 98//98
f 5//5 25//25 86//86
f 25//25 29//29 86//86
f 86//86 29//29 87//87
f 29//29 89//89 87//87
f 29//29 30//30 89//89
f 89//89 30//30 31//31
f 89//89 31//31 92//92
f 31//31 32//32 33//33
f 33//33 34//34 101//101
f 33//33 101//101 93//93
f 34//34 28//28 101//101
f 101//101 28//28 60//60
f 101//101 60//60 93//93
f 93//93 60//60 59//59
f 93//93 59//59 96//96
f 96//96 59//59 102//102
f 96//96 102//102 99//99
f 99//99 102//102 103//103
f 99//99 103//103 100//100
f 44//44 104//104 45//45
f 44//44 78//78 104//104
f 45//45 104//104 80//80
f 45//45 80//80 82//82
f 45//45 82//82 85//85
f 45//45 85//85 105//105
f 45//45 105//105 47//47
f 104//104 78//78 79//79
f 104//104 79//79 80//80
f 85//85 95//95 105//105
f 105//105 95//95 98//98
f 105//105 98//98 47//47
f 47//47 98//98 100//100
f 47//47 100//100 103//103
f 47//47 103//103 49//49
f 49//49 102//102 59//59
f 49//49 103//103 102//102
# 206 faces, 0 coords texture

# End of File
