####
#
# OBJ File Generated by Meshlab
#
####
# Object step_48_link_5.obj
#
# Vertices: 83
# Faces: 162
#
####
vn 0.358922 0.037418 6.259686
v 0.087425 0.158889 0.739783
vn 2.360939 0.660086 4.707974
v 0.088822 0.166828 0.739613
vn -0.206297 0.039851 6.274514
v -0.013021 0.158889 0.739783
vn 1.467067 -2.109679 1.994982
v 0.087425 0.058073 0.739783
vn 3.278321 -0.437834 4.235172
v 0.088822 0.065019 0.739613
vn 2.491535 1.978932 5.153393
v 0.088887 0.182960 0.733880
vn 0.654445 2.115947 5.839524
v 0.086757 0.186691 0.732927
vn -2.814961 0.591486 3.426078
v -0.015370 0.166828 0.739613
vn 5.545672 -0.959635 1.294260
v 0.163371 0.212526 0.623063
vn 2.617031 2.246891 1.815523
v 0.163371 0.314372 0.623063
vn 0.972029 2.312514 5.658236
v 0.086748 0.186743 0.732909
vn 1.257307 2.562750 5.411764
v 0.086739 0.186780 0.732894
vn -3.125391 1.218685 2.945838
v -0.014983 0.186691 0.732927
vn -3.093602 1.382332 2.913867
v -0.014979 0.186743 0.732909
vn 1.099025 2.869574 5.315613
v 0.086732 0.186804 0.732884
vn -3.059097 1.646944 2.850986
v -0.014974 0.186780 0.732894
vn 0.598699 3.452054 5.111667
v 0.086726 0.186818 0.732876
vn -2.977223 2.056764 2.736339
v -0.014969 0.186804 0.732884
vn 0.067831 4.019727 4.826254
v 0.086721 0.186825 0.732871
vn -2.792993 2.696114 2.589964
v -0.014964 0.186818 0.732876
vn -1.483862 4.245104 4.010040
v -0.014960 0.186825 0.732871
vn -0.941923 4.740691 3.409217
v 0.061928 0.314372 0.623063
vn 2.055357 -3.911164 -1.369660
v 0.087425 0.058073 0.639573
vn -1.473419 -2.111953 1.932880
v -0.013021 0.058073 0.739783
vn -2.175859 -3.551809 -1.411544
v -0.013021 0.058073 0.639573
vn -2.038259 -2.715057 -4.384312
v 0.046395 0.214035 0.487626
vn 5.755364 -1.435506 -0.622512
v 0.163371 0.212526 0.521549
vn 5.397841 -2.669472 -1.319303
v 0.160221 0.209820 0.511223
vn 2.725209 -1.878875 -2.979613
v 0.155844 0.214035 0.487626
vn -3.295640 -0.557100 3.118523
v -0.015370 0.065019 0.739613
vn -6.237062 0.185313 0.473466
v -0.015632 0.167345 0.737611
vn -6.081507 -0.932189 0.298600
v -0.015632 0.065402 0.737611
vn -5.944669 0.604398 1.324027
v -0.014990 0.186536 0.732975
vn -4.137028 1.094301 2.797116
v -0.014987 0.186622 0.732949
vn -6.262078 0.062166 -0.321511
v -0.015632 0.167345 0.637293
vn -6.279777 0.205495 -0.016713
v -0.014990 0.186536 0.631629
vn -6.229915 0.147689 -0.534023
v -0.014987 0.186622 0.631602
vn -6.159670 0.232693 -0.810139
v -0.014983 0.186691 0.631581
vn -6.015183 0.353120 -1.177946
v -0.014979 0.186743 0.631565
vn -5.976359 0.582724 -1.176687
v -0.014974 0.186780 0.631553
vn -5.968964 1.219305 -0.886499
v -0.014969 0.186804 0.631545
vn -3.132531 4.546694 2.945804
v 0.046569 0.327509 0.590440
vn -5.887671 2.068684 -0.367457
v -0.014964 0.186818 0.631541
vn -3.328617 4.389479 2.181301
v 0.046577 0.327568 0.590356
vn -3.151739 4.074236 1.351777
v 0.046588 0.327612 0.590283
vn -2.679868 4.706114 3.155685
v 0.055011 0.316428 0.614552
vn -5.867222 -0.326917 -1.844842
v -0.014987 0.081768 0.631602
vn -5.190572 -1.366011 -1.773082
v -0.015632 0.065402 0.637293
vn -5.882898 -0.228337 -1.979291
v -0.014983 0.081846 0.631581
vn -5.865121 -0.111538 -2.182089
v -0.014979 0.081910 0.631565
vn -5.786478 -0.001477 -2.448475
v -0.014974 0.081961 0.631553
vn -5.368340 1.230052 -1.826214
v 0.046588 0.327612 0.486331
vn -2.780136 -1.105368 -4.155387
v 0.046588 0.216684 0.486331
vn -5.891479 -2.053951 0.486501
v -0.013940 0.060494 0.739152
vn -4.355730 -2.601984 -2.310766
v -0.013940 0.060494 0.638333
vn -5.460585 -0.825521 -2.994119
v -0.014992 0.081566 0.631662
vn -2.829998 -1.437511 -4.114171
v 0.046577 0.216617 0.486360
vn -5.814292 -0.444641 -1.984614
v -0.014990 0.081675 0.631629
vn -4.954517 -1.390666 -3.536903
v 0.046097 0.214223 0.487897
vn 2.530685 4.706916 1.094771
v 0.154356 0.327641 0.590221
vn 5.693255 1.554556 -0.406655
v 0.163371 0.314372 0.521549
vn 2.335724 4.947872 0.751751
v 0.154343 0.327657 0.590170
vn -2.138039 5.179657 0.758615
v 0.046618 0.327657 0.590170
vn 4.394322 1.796428 -2.456676
v 0.154356 0.327641 0.486313
vn -2.756777 4.299288 1.082891
v 0.046602 0.327641 0.590221
vn 1.202605 5.952422 0.293345
v 0.154329 0.327664 0.590129
vn -1.028661 6.029035 0.301475
v 0.046634 0.327664 0.590129
vn 2.378056 2.238074 -2.606600
v 0.154343 0.327657 0.486304
vn 0.781366 2.872489 -2.688698
v 0.154329 0.327664 0.486302
vn 5.674857 1.597686 -1.138980
v 0.155990 0.324895 0.488232
vn 6.110732 -0.277214 -1.400005
v 0.155990 0.214129 0.488232
vn 5.097936 0.413919 -2.990369
v 0.155844 0.324540 0.487626
vn 1.968792 -0.817203 -5.380706
v 0.154356 0.216742 0.486313
vn 1.704426 -0.379497 -5.660031
v 0.154343 0.216793 0.486304
vn 0.400626 -0.085665 -6.249485
v 0.154329 0.216836 0.486302
vn -0.689932 2.923365 -2.751213
v 0.046634 0.327664 0.486302
vn 0.290112 -2.567204 -5.713888
v 0.154375 0.216617 0.486360
vn 1.230166 -1.782462 -5.690182
v 0.154366 0.216684 0.486331
vn -2.375830 -0.759924 -4.942253
v 0.046602 0.216742 0.486313
vn -1.467071 -0.386103 -5.814779
v 0.046618 0.216793 0.486304
vn -0.334160 -0.088007 -6.258262
v 0.046634 0.216836 0.486302
vn -4.086850 1.791342 -2.399743
v 0.046602 0.327641 0.486313
vn -2.153023 2.371162 -2.650340
v 0.046618 0.327657 0.486304
# 83 vertices, 0 vertices normals

f 1//1 2//2 3//3
f 1//1 4//4 5//5
f 1//1 5//5 2//2
f 1//1 3//3 4//4
f 2//2 6//6 7//7
f 2//2 7//7 8//8
f 2//2 5//5 9//9
f 2//2 8//8 3//3
f 2//2 10//10 6//6
f 2//2 9//9 10//10
f 6//6 11//11 7//7
f 6//6 12//12 11//11
f 6//6 10//10 12//12
f 7//7 11//11 13//13
f 7//7 13//13 8//8
f 11//11 12//12 14//14
f 11//11 14//14 13//13
f 12//12 15//15 16//16
f 12//12 16//16 14//14
f 12//12 10//10 15//15
f 15//15 17//17 18//18
f 15//15 18//18 16//16
f 15//15 10//10 17//17
f 17//17 19//19 20//20
f 17//17 20//20 18//18
f 17//17 10//10 19//19
f 19//19 21//21 20//20
f 19//19 10//10 22//22
f 19//19 22//22 21//21
f 4//4 23//23 9//9
f 4//4 3//3 24//24
f 4//4 24//24 23//23
f 4//4 9//9 5//5
f 23//23 24//24 25//25
f 23//23 25//25 26//26
f 23//23 27//27 9//9
f 23//23 28//28 27//27
f 23//23 29//29 28//28
f 23//23 26//26 29//29
f 3//3 8//8 30//30
f 3//3 30//30 24//24
f 8//8 31//31 32//32
f 8//8 33//33 31//31
f 8//8 34//34 33//33
f 8//8 13//13 34//34
f 8//8 32//32 30//30
f 31//31 33//33 35//35
f 31//31 35//35 32//32
f 33//33 34//34 36//36
f 33//33 36//36 35//35
f 34//34 13//13 37//37
f 34//34 37//37 36//36
f 13//13 14//14 38//38
f 13//13 38//38 37//37
f 14//14 16//16 39//39
f 14//14 39//39 38//38
f 16//16 18//18 40//40
f 16//16 40//40 39//39
f 18//18 20//20 41//41
f 18//18 41//41 40//40
f 20//20 21//21 42//42
f 20//20 43//43 41//41
f 20//20 42//42 44//44
f 20//20 44//44 45//45
f 20//20 45//45 43//43
f 21//21 22//22 46//46
f 21//21 46//46 42//42
f 35//35 36//36 37//37
f 35//35 37//37 47//47
f 35//35 48//48 32//32
f 35//35 47//47 48//48
f 37//37 38//38 49//49
f 37//37 49//49 47//47
f 38//38 39//39 50//50
f 38//38 50//50 49//49
f 39//39 40//40 51//51
f 39//39 51//51 50//50
f 40//40 41//41 52//52
f 40//40 52//52 53//53
f 40//40 53//53 51//51
f 41//41 43//43 52//52
f 43//43 45//45 52//52
f 24//24 54//54 25//25
f 24//24 30//30 54//54
f 54//54 30//30 32//32
f 54//54 32//32 55//55
f 54//54 55//55 25//25
f 32//32 48//48 55//55
f 25//25 55//55 26//26
f 55//55 48//48 26//26
f 48//48 56//56 57//57
f 48//48 58//58 56//56
f 48//48 47//47 58//58
f 48//48 59//59 26//26
f 48//48 57//57 59//59
f 56//56 58//58 57//57
f 58//58 47//47 57//57
f 47//47 49//49 57//57
f 49//49 50//50 57//57
f 50//50 51//51 53//53
f 50//50 53//53 57//57
f 10//10 60//60 22//22
f 10//10 61//61 60//60
f 10//10 9//9 61//61
f 60//60 62//62 63//63
f 60//60 61//61 64//64
f 60//60 64//64 62//62
f 60//60 65//65 22//22
f 60//60 63//63 65//65
f 62//62 66//66 67//67
f 62//62 64//64 68//68
f 62//62 68//68 66//66
f 62//62 67//67 63//63
f 66//66 68//68 69//69
f 66//66 69//69 67//67
f 61//61 70//70 64//64
f 61//61 9//9 27//27
f 61//61 27//27 71//71
f 61//61 71//71 70//70
f 72//72 70//70 71//71
f 72//72 64//64 70//70
f 72//72 29//29 73//73
f 72//72 71//71 29//29
f 72//72 73//73 64//64
f 64//64 73//73 74//74
f 64//64 74//74 68//68
f 68//68 74//74 75//75
f 68//68 75//75 69//69
f 69//69 75//75 76//76
f 69//69 76//76 67//67
f 27//27 28//28 29//29
f 27//27 29//29 71//71
f 29//29 77//77 78//78
f 29//29 78//78 73//73
f 29//29 26//26 77//77
f 77//77 26//26 57//57
f 77//77 57//57 53//53
f 77//77 53//53 78//78
f 78//78 53//53 79//79
f 78//78 79//79 73//73
f 73//73 79//79 80//80
f 73//73 80//80 74//74
f 74//74 80//80 81//81
f 74//74 81//81 75//75
f 75//75 81//81 76//76
f 22//22 44//44 46//46
f 22//22 45//45 44//44
f 22//22 65//65 45//45
f 46//46 44//44 42//42
f 45//45 65//65 52//52
f 65//65 63//63 82//82
f 65//65 82//82 52//52
f 63//63 67//67 83//83
f 63//63 83//83 82//82
f 67//67 76//76 83//83
f 52//52 82//82 79//79
f 52//52 79//79 53//53
f 82//82 83//83 80//80
f 82//82 80//80 79//79
f 83//83 76//76 81//81
f 83//83 81//81 80//80
f 26//26 59//59 57//57
# 162 faces, 0 coords texture

# End of File
