####
#
# OBJ File Generated by Meshlab
#
####
# Object step_47_link_7.obj
#
# Vertices: 89
# Faces: 174
#
####
vn 2.872962 0.165939 4.622390
v 0.229275 0.373408 0.591640
vn 1.179408 0.605247 5.932034
v 0.226411 0.383116 0.591746
vn 0.102548 -0.029714 6.280768
v 0.226411 0.277912 0.591746
vn 1.864505 2.014180 4.504191
v 0.226746 0.386691 0.591119
vn 1.487562 -2.030162 2.039762
v 0.229275 0.270884 0.591640
vn 5.414534 -1.365772 1.055048
v 0.335936 0.422555 0.399392
vn 5.717063 0.478392 1.574305
v 0.335936 0.567134 0.399392
vn 2.817352 2.606098 1.988917
v 0.332713 0.585388 0.401319
vn -0.658477 0.370385 6.141408
v 0.121868 0.383116 0.591746
vn -1.640276 1.761041 4.741919
v 0.119526 0.386691 0.591119
vn -0.634121 4.620028 4.065077
v 0.176810 0.585388 0.401319
vn -0.818968 -2.923591 2.760422
v 0.127097 0.270884 0.591640
vn 2.389681 -4.882417 -0.441710
v 0.229275 0.270884 0.489778
vn -1.077252 -0.590181 6.015572
v 0.121868 0.277912 0.591746
vn 0.559088 -5.981964 -1.630457
v 0.197496 0.280427 0.437187
vn 1.310374 -3.311006 -3.706103
v 0.265436 0.384217 0.157344
vn -0.556642 -6.163125 -0.397653
v 0.127097 0.270884 0.489778
vn 4.910424 -1.827735 -1.315474
v 0.335936 0.422555 0.255529
vn 3.641439 -4.742770 -1.701110
v 0.266356 0.384616 0.157852
vn 2.768236 -4.485879 -2.817353
v 0.265545 0.384245 0.157393
vn 0.106585 -5.967416 -1.929653
v 0.197448 0.280435 0.437157
vn 0.343602 -2.843176 -4.125204
v 0.265358 0.384217 0.157329
vn -2.263832 -5.132843 -0.624427
v 0.085931 0.280427 0.437187
vn -3.042016 -2.972992 -0.921539
v 0.085924 0.280435 0.437157
vn -1.669447 -2.171685 -3.017792
v 0.095307 0.384217 0.157329
vn -3.096079 -1.620186 4.223576
v 0.119526 0.278466 0.591119
vn -1.887220 3.487666 4.580865
v 0.116947 0.389120 0.588356
vn -3.360067 2.114242 3.834001
v 0.112935 0.390500 0.585216
vn -4.678873 -0.804967 3.871835
v 0.112935 0.284237 0.585216
vn -1.809709 4.987117 2.013204
v 0.173607 0.587089 0.398227
vn -3.999644 3.135348 3.418146
v 0.097174 0.397814 0.561141
vn -4.612445 1.991436 3.037546
v 0.090852 0.397577 0.553178
vn -5.167312 -0.535917 3.476170
v 0.090852 0.283458 0.553178
vn -2.739338 4.992763 1.737482
v 0.126079 0.580483 0.350791
vn -5.239819 1.823528 2.400742
v 0.087908 0.396598 0.548368
vn -5.632260 0.638718 2.396953
v 0.087435 0.395544 0.547715
vn -3.045847 4.905386 1.412219
v 0.115964 0.577555 0.341071
vn -3.530090 4.518305 1.271176
v 0.109525 0.574970 0.335392
vn -5.838468 1.413140 1.637144
v 0.086053 0.394732 0.543694
vn -4.572730 3.883139 1.010735
v 0.099649 0.567792 0.324369
vn -5.161393 3.119406 0.854668
v 0.098360 0.566337 0.323252
vn -5.884937 1.008581 1.565320
v 0.085992 0.394670 0.543524
vn -4.886547 -1.737940 2.645028
v 0.087435 0.281799 0.547715
vn -6.023007 0.789640 1.234810
v 0.085952 0.394615 0.543389
vn -4.340377 -2.714860 1.595321
v 0.085992 0.280437 0.543524
vn -5.811948 1.750917 0.286733
v 0.094681 0.559993 0.316649
vn -6.159225 0.529756 0.772443
v 0.085931 0.394567 0.543287
vn -3.931266 -2.924320 0.975327
v 0.085952 0.280427 0.543389
vn -6.253822 0.247287 0.275541
v 0.085924 0.394528 0.543213
vn -3.803095 -2.954524 0.486287
v 0.085931 0.280427 0.543287
vn -6.277678 0.137704 -0.066058
v 0.085924 0.394528 0.437157
vn -5.500700 -1.970289 0.160649
v 0.085924 0.280435 0.543213
vn -5.362142 1.478989 -1.210109
v 0.094681 0.559993 0.158143
vn -5.462841 -1.207194 -1.580884
v 0.094681 0.384868 0.158143
vn -4.437560 -3.500585 2.560571
v 0.086140 0.280502 0.543901
vn -4.617837 -2.721433 2.098730
v 0.086053 0.280462 0.543694
vn 5.863386 0.326304 -1.346205
v 0.335936 0.567134 0.255529
vn 1.498801 5.105601 1.247048
v 0.330483 0.587284 0.398627
vn 4.600211 2.126445 -1.503143
v 0.332713 0.585388 0.249676
vn 2.321226 4.553709 -1.347698
v 0.330483 0.587284 0.248611
vn -0.691672 5.335956 2.037191
v 0.175214 0.587284 0.398627
vn 5.295105 -0.160150 -3.348466
v 0.332713 0.429703 0.249676
vn 4.061971 3.156877 -3.464731
v 0.281161 0.575356 0.176709
vn 2.512032 2.822136 -3.140576
v 0.280340 0.574970 0.175399
vn 0.230365 6.198257 -0.951589
v 0.289727 0.580994 0.196443
vn -0.285087 6.241709 -0.282637
v 0.175214 0.587284 0.248611
vn 1.171064 5.651040 -1.820839
v 0.285938 0.579921 0.188925
vn 1.912393 4.724712 -2.655596
v 0.282938 0.577555 0.181155
vn -0.555765 6.200623 -0.414439
v 0.128555 0.580994 0.196443
vn -0.899540 5.997246 -0.792644
v 0.122833 0.579921 0.188925
vn -1.087936 5.801004 -1.222501
v 0.115964 0.577555 0.181155
vn 0.873262 4.778406 -3.688486
v 0.275247 0.572778 0.171113
vn -1.482443 5.556071 -1.340286
v 0.109525 0.574970 0.175399
vn 1.358338 3.968376 -4.290242
v 0.272841 0.570131 0.167604
vn 1.896567 1.584091 -4.347412
v 0.266880 0.560273 0.157517
vn 5.125383 -0.215747 -3.614789
v 0.280340 0.401264 0.175399
vn -1.847005 5.000102 -1.732754
v 0.105666 0.572778 0.171113
vn -1.819005 4.775736 -2.361263
v 0.102531 0.570131 0.167604
vn 0.277935 0.362487 -6.229787
v 0.265358 0.559014 0.157329
vn -2.316396 1.913091 -3.170833
v 0.095017 0.560273 0.157517
vn 2.807413 -1.726013 -3.481772
v 0.266880 0.385196 0.157517
vn -1.568801 0.266051 -5.753054
v 0.095307 0.559014 0.157329
vn -1.756158 5.801194 0.916709
v 0.128555 0.580994 0.352786
vn -0.741020 6.237438 -0.078140
v 0.173607 0.587089 0.247604
vn -2.296528 5.537185 0.928616
v 0.122833 0.579921 0.346745
vn -3.918447 4.655029 0.718022
v 0.105666 0.572778 0.329602
vn -2.930915 4.562825 -1.787256
v 0.099649 0.567792 0.165582
vn -3.653976 4.082360 -1.594441
v 0.098360 0.566337 0.164246
vn -4.500448 -0.210381 -4.055184
v 0.095017 0.385196 0.157517
# 89 vertices, 0 vertices normals

f 1//1 2//2 3//3
f 1//1 4//4 2//2
f 1//1 5//5 6//6
f 1//1 3//3 5//5
f 1//1 7//7 8//8
f 1//1 8//8 4//4
f 1//1 6//6 7//7
f 2//2 4//4 9//9
f 2//2 9//9 3//3
f 4//4 10//10 9//9
f 4//4 8//8 11//11
f 4//4 11//11 10//10
f 5//5 3//3 12//12
f 5//5 13//13 6//6
f 5//5 12//12 13//13
f 3//3 9//9 14//14
f 3//3 14//14 12//12
f 13//13 15//15 16//16
f 13//13 12//12 17//17
f 13//13 17//17 15//15
f 13//13 18//18 6//6
f 13//13 19//19 18//18
f 13//13 20//20 19//19
f 13//13 16//16 20//20
f 15//15 21//21 22//22
f 15//15 17//17 23//23
f 15//15 23//23 21//21
f 15//15 22//22 16//16
f 21//21 23//23 24//24
f 21//21 24//24 25//25
f 21//21 25//25 22//22
f 9//9 10//10 26//26
f 9//9 26//26 14//14
f 10//10 27//27 28//28
f 10//10 28//28 29//29
f 10//10 29//29 26//26
f 10//10 11//11 27//27
f 27//27 11//11 30//30
f 27//27 30//30 28//28
f 28//28 31//31 32//32
f 28//28 32//32 33//33
f 28//28 33//33 29//29
f 28//28 30//30 31//31
f 31//31 30//30 34//34
f 31//31 34//34 32//32
f 32//32 35//35 36//36
f 32//32 36//36 33//33
f 32//32 34//34 37//37
f 32//32 37//37 38//38
f 32//32 38//38 35//35
f 35//35 39//39 36//36
f 35//35 38//38 40//40
f 35//35 40//40 41//41
f 35//35 41//41 39//39
f 36//36 39//39 42//42
f 36//36 42//42 43//43
f 36//36 43//43 33//33
f 39//39 41//41 42//42
f 42//42 44//44 45//45
f 42//42 45//45 43//43
f 42//42 41//41 46//46
f 42//42 46//46 44//44
f 44//44 47//47 48//48
f 44//44 48//48 45//45
f 44//44 46//46 47//47
f 47//47 49//49 50//50
f 47//47 50//50 48//48
f 47//47 46//46 49//49
f 49//49 51//51 52//52
f 49//49 52//52 50//50
f 49//49 46//46 51//51
f 51//51 24//24 52//52
f 51//51 46//46 53//53
f 51//51 53//53 54//54
f 51//51 54//54 24//24
f 12//12 14//14 26//26
f 12//12 26//26 43//43
f 12//12 43//43 55//55
f 12//12 55//55 56//56
f 12//12 56//56 45//45
f 12//12 45//45 48//48
f 12//12 48//48 50//50
f 12//12 50//50 17//17
f 26//26 29//29 43//43
f 29//29 33//33 43//43
f 43//43 56//56 55//55
f 43//43 45//45 56//56
f 50//50 52//52 23//23
f 50//50 23//23 17//17
f 52//52 24//24 23//23
f 24//24 54//54 25//25
f 7//7 57//57 8//8
f 7//7 6//6 57//57
f 8//8 58//58 11//11
f 8//8 57//57 59//59
f 8//8 59//59 58//58
f 58//58 59//59 60//60
f 58//58 60//60 61//61
f 58//58 61//61 11//11
f 57//57 6//6 18//18
f 57//57 18//18 62//62
f 57//57 62//62 59//59
f 59//59 63//63 60//60
f 59//59 64//64 63//63
f 59//59 62//62 64//64
f 60//60 65//65 66//66
f 60//60 67//67 65//65
f 60//60 68//68 67//67
f 60//60 63//63 68//68
f 60//60 66//66 61//61
f 65//65 67//67 69//69
f 65//65 69//69 66//66
f 67//67 68//68 70//70
f 67//67 70//70 69//69
f 68//68 63//63 64//64
f 68//68 64//64 71//71
f 68//68 71//71 70//70
f 64//64 72//72 73//73
f 64//64 74//74 72//72
f 64//64 75//75 74//74
f 64//64 62//62 76//76
f 64//64 76//76 75//75
f 64//64 73//73 71//71
f 72//72 74//74 77//77
f 72//72 77//77 73//73
f 74//74 75//75 78//78
f 74//74 78//78 77//77
f 75//75 79//79 80//80
f 75//75 76//76 81//81
f 75//75 81//81 79//79
f 75//75 80//80 78//78
f 79//79 81//81 22//22
f 79//79 22//22 82//82
f 79//79 82//82 80//80
f 18//18 81//81 62//62
f 18//18 19//19 81//81
f 62//62 81//81 76//76
f 81//81 19//19 20//20
f 81//81 20//20 16//16
f 81//81 16//16 22//22
f 22//22 25//25 82//82
f 11//11 61//61 30//30
f 61//61 66//66 30//30
f 30//30 83//83 34//34
f 30//30 66//66 84//84
f 30//30 84//84 83//83
f 83//83 85//85 34//34
f 83//83 84//84 69//69
f 83//83 69//69 85//85
f 34//34 85//85 37//37
f 85//85 69//69 70//70
f 85//85 70//70 37//37
f 37//37 70//70 71//71
f 37//37 71//71 38//38
f 38//38 86//86 40//40
f 38//38 71//71 73//73
f 38//38 73//73 86//86
f 86//86 73//73 77//77
f 86//86 77//77 40//40
f 40//40 77//77 87//87
f 40//40 87//87 41//41
f 41//41 87//87 88//88
f 41//41 88//88 46//46
f 46//46 88//88 53//53
f 66//66 69//69 84//84
f 77//77 78//78 87//87
f 78//78 80//80 87//87
f 87//87 80//80 88//88
f 88//88 80//80 53//53
f 80//80 82//82 89//89
f 80//80 89//89 53//53
f 53//53 89//89 54//54
f 82//82 25//25 89//89
f 89//89 25//25 54//54
# 174 faces, 0 coords texture

# End of File
