####
#
# OBJ File Generated by Meshlab
#
####
# Object step_37_link_4.obj
#
# Vertices: 40
# Faces: 76
#
####
vn 4.055690 2.133597 -2.152581
v 0.089097 0.075121 0.440381
vn 2.228865 1.230443 -4.511362
v 0.088810 0.074934 0.440006
vn 1.141502 3.836153 -3.206533
v 0.087318 0.076244 0.440351
vn 2.018159 5.510375 -0.666023
v 0.114390 0.116327 0.644972
vn 4.810550 -1.709269 -1.956830
v 0.089097 -0.026364 0.440381
vn 4.734463 2.528392 -0.529927
v 0.117480 0.114179 0.645295
vn 5.838197 -1.445529 -0.291012
v 0.117480 0.011226 0.645295
vn 0.128984 3.842965 -3.594714
v 0.086824 0.076279 0.440340
vn 1.681708 -1.978401 -3.600066
v 0.088810 -0.026382 0.440006
vn -0.272966 0.635687 -6.171030
v -0.012533 0.074934 0.440006
vn 0.245362 6.196666 -0.623183
v 0.113420 0.116398 0.644942
vn -0.209874 3.685982 -3.601699
v -0.014621 0.076279 0.440340
vn -0.218668 6.204935 -0.594058
v 0.009965 0.116398 0.644942
vn 2.618312 -5.014500 0.285404
v 0.088952 -0.026625 0.540675
vn 0.265403 -6.208603 0.541973
v 0.087934 -0.026716 0.540682
vn 0.186579 -5.804308 -1.566116
v 0.087934 -0.026716 0.440548
vn 2.588040 -4.429871 -1.028890
v 0.088952 -0.026625 0.440549
vn 5.253085 -3.417669 -0.037642
v 0.117195 0.010716 0.645582
vn 2.751649 -4.010989 1.543379
v 0.117195 0.010716 0.745974
vn -0.681544 -6.112848 0.580526
v -0.012857 -0.026716 0.540682
vn 0.187046 -5.573670 2.394855
v 0.115170 0.010542 0.745993
vn -0.692005 -5.306573 2.533408
v 0.013424 0.010542 0.745993
vn -0.332523 -2.567620 -4.722565
v -0.012533 -0.026382 0.440006
vn -0.601371 -5.617802 -1.640081
v -0.012857 -0.026716 0.440548
vn -5.822136 1.502748 0.205002
v -0.015119 0.076244 0.540783
vn -2.035606 1.654584 -1.900228
v -0.015119 0.076244 0.440351
vn -3.599663 -2.966887 0.470093
v -0.015119 -0.026211 0.540783
vn -2.323009 -1.628771 2.368514
v 0.008963 0.011841 0.746370
vn -1.778548 1.764251 1.797976
v 0.008963 0.116327 0.746370
vn -2.738227 4.735583 -0.305900
v 0.008963 0.116327 0.644972
vn -2.145382 -1.664998 -1.774645
v -0.015119 -0.026211 0.440351
vn 4.073422 2.110877 1.528948
v 0.117480 0.114179 0.746007
vn 2.357955 1.038976 4.568223
v 0.116890 0.113738 0.746820
vn 5.145708 -1.313678 1.607602
v 0.117480 0.011226 0.746007
vn 1.147106 3.411766 2.552114
v 0.114390 0.116327 0.746370
vn 0.126240 3.650737 3.026296
v 0.113420 0.116398 0.746377
vn -0.179593 0.435932 6.232018
v 0.014094 0.113738 0.746820
vn 1.776967 -1.838255 3.784466
v 0.116890 0.011187 0.746820
vn -0.151275 3.574171 3.040201
v 0.009965 0.116398 0.746377
vn -0.279967 -2.415953 5.020603
v 0.014094 0.011187 0.746820
# 40 vertices, 0 vertices normals

f 1//1 2//2 3//3
f 1//1 3//3 4//4
f 1//1 5//5 2//2
f 1//1 6//6 7//7
f 1//1 4//4 6//6
f 1//1 7//7 5//5
f 2//2 8//8 3//3
f 2//2 5//5 9//9
f 2//2 9//9 10//10
f 2//2 10//10 8//8
f 3//3 8//8 11//11
f 3//3 11//11 4//4
f 8//8 10//10 12//12
f 8//8 12//12 13//13
f 8//8 13//13 11//11
f 14//14 15//15 16//16
f 14//14 17//17 18//18
f 14//14 16//16 17//17
f 14//14 19//19 15//15
f 14//14 18//18 19//19
f 15//15 20//20 16//16
f 15//15 19//19 21//21
f 15//15 21//21 22//22
f 15//15 22//22 20//20
f 5//5 17//17 9//9
f 5//5 7//7 18//18
f 5//5 18//18 17//17
f 9//9 17//17 16//16
f 9//9 16//16 23//23
f 9//9 23//23 10//10
f 16//16 20//20 24//24
f 16//16 24//24 23//23
f 25//25 26//26 27//27
f 25//25 27//27 28//28
f 25//25 29//29 30//30
f 25//25 30//30 26//26
f 25//25 28//28 29//29
f 10//10 26//26 12//12
f 10//10 23//23 31//31
f 10//10 31//31 26//26
f 26//26 31//31 27//27
f 26//26 30//30 13//13
f 26//26 13//13 12//12
f 20//20 27//27 24//24
f 20//20 22//22 27//27
f 27//27 31//31 24//24
f 27//27 22//22 28//28
f 23//23 24//24 31//31
f 32//32 33//33 34//34
f 32//32 35//35 33//33
f 32//32 6//6 4//4
f 32//32 4//4 35//35
f 32//32 34//34 6//6
f 33//33 35//35 36//36
f 33//33 36//36 37//37
f 33//33 38//38 34//34
f 33//33 37//37 38//38
f 35//35 4//4 36//36
f 36//36 4//4 11//11
f 36//36 11//11 39//39
f 36//36 39//39 37//37
f 6//6 34//34 7//7
f 11//11 13//13 39//39
f 34//34 38//38 19//19
f 34//34 19//19 18//18
f 34//34 18//18 7//7
f 38//38 21//21 19//19
f 38//38 37//37 40//40
f 38//38 40//40 21//21
f 21//21 40//40 22//22
f 37//37 29//29 28//28
f 37//37 39//39 29//29
f 37//37 28//28 40//40
f 29//29 39//39 30//30
f 39//39 13//13 30//30
f 40//40 28//28 22//22
# 76 faces, 0 coords texture

# End of File
