####
#
# OBJ File Generated by Meshlab
#
####
# Object step_27_link_6.obj
#
# Vertices: 89
# Faces: 174
#
####
vn 0.491636 0.647751 6.111078
v 0.304021 -0.015197 0.659135
vn 1.650839 0.480450 5.879891
v 0.333089 0.008250 0.652605
vn 1.218927 1.759442 5.352531
v 0.333552 0.009411 0.652357
vn -1.938411 3.238407 2.906723
v 0.222506 0.009411 0.652357
vn 1.014040 -0.974289 5.901144
v 0.304021 -0.120803 0.659135
vn 2.147431 -0.343965 5.807691
v 0.333089 -0.100743 0.652605
vn -2.118577 2.124675 3.810819
v 0.199758 -0.015197 0.659135
vn 3.756096 0.713487 4.674225
v 0.422061 -0.033833 0.606520
vn 1.607213 2.556933 4.536356
v 0.336961 0.011819 0.650529
vn -1.818700 4.411657 2.408998
v 0.225442 0.011819 0.650529
vn 1.787913 3.967536 3.593627
v 0.337887 0.012714 0.649349
vn -0.833131 5.521996 1.778544
v 0.226998 0.012714 0.649349
vn 4.482186 1.768807 3.100279
v 0.422976 -0.032734 0.605310
vn 1.832723 4.724356 1.822593
v 0.337898 0.012722 0.649330
vn -0.374410 5.951238 1.165580
v 0.227044 0.012722 0.649330
vn 1.503679 5.882666 0.106697
v 0.337898 0.012723 0.649319
vn -0.023428 6.281765 0.078120
v 0.227071 0.012723 0.649319
vn 4.271111 2.452127 0.961313
v 0.422984 -0.032724 0.605288
vn 1.413491 5.868686 -0.316135
v 0.337898 0.012723 0.545321
vn 0.834834 5.207779 -2.191709
v 0.337898 0.012722 0.545318
vn 2.390592 1.755926 -1.986872
v 0.422984 -0.032724 0.499264
vn -0.557092 5.011613 -2.314820
v 0.227044 0.012722 0.545318
vn -0.019931 6.262249 -0.349178
v 0.227071 0.012723 0.545321
vn -0.056475 3.308796 -5.153429
v 0.309221 -0.032724 0.499264
vn 0.454970 -2.897167 5.408228
v 0.299895 -0.126659 0.657819
vn 0.593795 -1.803846 5.881997
v 0.300316 -0.124871 0.658480
vn -0.776188 -0.961466 5.975642
v 0.195506 -0.124871 0.658480
vn -2.499173 -1.634272 2.121644
v 0.193337 -0.126659 0.657819
vn -1.263572 -4.676379 1.976282
v 0.271188 -0.182499 0.613939
vn 1.545687 -4.106424 2.348177
v 0.379455 -0.182499 0.613939
vn 1.181022 -2.708128 5.545031
v 0.380258 -0.180881 0.614568
vn 2.694018 -3.382071 3.118125
v 0.381632 -0.180680 0.614370
vn 1.474819 -2.279045 5.666216
v 0.301847 -0.124500 0.658235
vn -0.354508 -0.377065 6.213623
v 0.199758 -0.120803 0.659135
vn 2.054933 -1.013375 5.835359
v 0.330472 -0.104087 0.653013
vn 2.106080 -1.764094 5.642007
v 0.383513 -0.175277 0.615485
vn 2.321813 -1.754257 5.552683
v 0.385405 -0.174248 0.615060
vn 3.199889 -2.962824 2.740351
v 0.414918 -0.153966 0.608923
vn 3.492588 -2.132667 3.945780
v 0.417880 -0.150396 0.608551
vn 3.243984 -0.787336 5.229374
v 0.418540 -0.149440 0.608322
vn 3.945645 -1.711534 3.297864
v 0.422061 -0.146223 0.606520
vn -3.550194 1.216599 2.286378
v 0.193337 -0.021566 0.657819
vn -1.703447 0.505756 5.946901
v 0.195506 -0.020462 0.658480
vn -4.476877 4.251030 1.109096
v 0.200837 -0.013423 0.657201
vn -3.764773 4.089996 1.922569
v 0.213398 0.000586 0.654075
vn -3.990154 1.380131 -2.112871
v 0.193337 -0.021566 0.555477
vn -4.230229 3.472718 -2.008405
v 0.213398 0.000586 0.549753
vn -3.581547 3.021480 -2.591591
v 0.222506 0.009411 0.546399
vn -3.850842 4.963682 0.028770
v 0.225721 0.012043 0.649736
vn -2.924971 3.035335 -2.896838
v 0.225442 0.011819 0.545330
vn -3.687147 5.082582 0.111430
v 0.225966 0.012229 0.649650
vn -2.637085 5.461932 0.791762
v 0.226178 0.012380 0.649575
vn -1.887369 5.737889 1.619114
v 0.226837 0.012651 0.649410
vn -1.322476 5.517807 1.697501
v 0.226930 0.012692 0.649375
vn -3.857347 4.957543 -0.071176
v 0.225721 0.012043 0.545545
vn -3.736833 5.031429 -0.281589
v 0.225966 0.012229 0.545477
vn -2.562677 4.499969 -2.143372
v 0.226178 0.012380 0.545423
vn -1.821295 4.282468 -2.667594
v 0.226930 0.012692 0.545322
vn -1.316721 4.559162 -2.562328
v 0.226998 0.012714 0.545318
vn -3.176902 1.675678 -5.035030
v 0.224778 0.011254 0.545552
vn -2.197442 0.533200 -5.814529
v 0.304108 -0.036549 0.500209
vn -3.817856 -1.636922 -1.834439
v 0.193337 -0.126659 0.555477
vn -2.493400 0.237093 -5.693985
v 0.271188 -0.075774 0.509943
vn -3.424165 2.596903 -3.723824
v 0.225128 0.011557 0.545433
vn -2.132176 3.668301 -4.628028
v 0.226837 0.012651 0.545333
vn -0.753674 1.679884 -5.747044
v 0.309089 -0.032760 0.499261
vn -1.255449 1.030072 -5.786372
v 0.307371 -0.033833 0.499271
vn -1.629911 2.563786 -5.499751
v 0.308169 -0.033140 0.499355
vn -1.579493 2.508021 -5.538517
v 0.308984 -0.032809 0.499269
vn -0.332349 2.030685 -5.505197
v 0.309167 -0.032734 0.499260
vn -1.674165 -2.732386 -2.509452
v 0.271188 -0.182499 0.509943
vn 4.866870 0.572254 3.726970
v 0.422846 -0.033140 0.605558
vn 4.837194 -1.861714 1.618056
v 0.422846 -0.145596 0.605558
vn 5.841455 -0.706235 1.417646
v 0.422976 -0.145076 0.605310
vn 6.033438 -0.426627 0.918446
v 0.422984 -0.145036 0.605288
vn 0.914319 0.766508 -5.897176
v 0.422976 -0.032734 0.499260
vn 4.309376 -0.341166 -2.694765
v 0.422984 -0.145036 0.499264
vn 3.044642 -0.728243 -3.101722
v 0.422976 -0.145076 0.499260
vn 1.828713 -5.563918 0.267750
v 0.378850 -0.183017 0.610486
vn -0.213119 -6.237008 0.378345
v 0.276397 -0.183017 0.610486
vn 1.092398 -3.573768 -2.358635
v 0.378850 -0.183017 0.509365
vn 2.711220 -3.667682 -2.629541
v 0.414918 -0.153966 0.501782
vn 3.624321 -2.204763 -2.376332
v 0.422846 -0.145596 0.499355
vn 1.747390 -2.238705 -4.461837
v 0.422061 -0.146223 0.499271
vn -0.416963 -3.615458 -2.990769
v 0.276397 -0.183017 0.509365
vn -0.659367 -0.618739 -6.070393
v 0.307371 -0.146223 0.499271
vn 1.930693 -1.022918 -5.485807
v 0.422949 -0.145135 0.499261
vn -0.012143 -0.022863 -6.283024
v 0.309167 -0.145076 0.499260
vn -1.720002 -0.056535 -6.042273
v 0.304108 -0.148302 0.500209
# 89 vertices, 0 vertices normals

f 1//1 2//2 3//3
f 1//1 3//3 4//4
f 1//1 5//5 6//6
f 1//1 6//6 2//2
f 1//1 7//7 5//5
f 1//1 4//4 7//7
f 2//2 6//6 8//8
f 2//2 8//8 3//3
f 3//3 9//9 10//10
f 3//3 10//10 4//4
f 3//3 8//8 9//9
f 9//9 11//11 12//12
f 9//9 12//12 10//10
f 9//9 8//8 13//13
f 9//9 13//13 11//11
f 11//11 14//14 15//15
f 11//11 15//15 12//12
f 11//11 13//13 14//14
f 14//14 16//16 17//17
f 14//14 17//17 15//15
f 14//14 13//13 18//18
f 14//14 18//18 16//16
f 16//16 19//19 17//17
f 16//16 18//18 19//19
f 20//20 19//19 21//21
f 20//20 22//22 23//23
f 20//20 23//23 19//19
f 20//20 21//21 24//24
f 20//20 24//24 22//22
f 19//19 23//23 17//17
f 19//19 18//18 21//21
f 25//25 26//26 27//27
f 25//25 28//28 29//29
f 25//25 27//27 28//28
f 25//25 30//30 31//31
f 25//25 31//31 32//32
f 25//25 32//32 26//26
f 25//25 29//29 30//30
f 26//26 33//33 5//5
f 26//26 5//5 34//34
f 26//26 34//34 27//27
f 26//26 32//32 33//33
f 33//33 32//32 5//5
f 5//5 35//35 6//6
f 5//5 7//7 34//34
f 5//5 32//32 36//36
f 5//5 36//36 37//37
f 5//5 37//37 38//38
f 5//5 38//38 35//35
f 35//35 38//38 39//39
f 35//35 39//39 6//6
f 6//6 39//39 40//40
f 6//6 40//40 41//41
f 6//6 41//41 8//8
f 42//42 43//43 7//7
f 42//42 7//7 44//44
f 42//42 44//44 45//45
f 42//42 45//45 46//46
f 42//42 46//46 28//28
f 42//42 28//28 27//27
f 42//42 27//27 43//43
f 43//43 27//27 34//34
f 43//43 34//34 7//7
f 7//7 45//45 44//44
f 7//7 4//4 45//45
f 45//45 4//4 47//47
f 45//45 47//47 46//46
f 4//4 10//10 48//48
f 4//4 48//48 47//47
f 10//10 49//49 50//50
f 10//10 51//51 49//49
f 10//10 52//52 51//51
f 10//10 53//53 52//52
f 10//10 54//54 53//53
f 10//10 12//12 54//54
f 10//10 50//50 48//48
f 49//49 51//51 55//55
f 49//49 55//55 50//50
f 51//51 52//52 56//56
f 51//51 56//56 55//55
f 52//52 53//53 54//54
f 52//52 54//54 57//57
f 52//52 57//57 56//56
f 54//54 12//12 58//58
f 54//54 58//58 57//57
f 12//12 15//15 59//59
f 12//12 59//59 58//58
f 15//15 17//17 22//22
f 15//15 22//22 59//59
f 17//17 23//23 22//22
f 46//46 47//47 48//48
f 46//46 48//48 60//60
f 46//46 60//60 61//61
f 46//46 62//62 28//28
f 46//46 63//63 62//62
f 46//46 61//61 63//63
f 48//48 64//64 60//60
f 48//48 50//50 64//64
f 60//60 64//64 61//61
f 64//64 50//50 61//61
f 50//50 55//55 56//56
f 50//50 56//56 57//57
f 50//50 57//57 65//65
f 50//50 65//65 58//58
f 50//50 58//58 66//66
f 50//50 67//67 61//61
f 50//50 68//68 67//67
f 50//50 69//69 68//68
f 50//50 66//66 69//69
f 57//57 58//58 65//65
f 58//58 59//59 66//66
f 59//59 22//22 70//70
f 59//59 70//70 66//66
f 22//22 24//24 70//70
f 28//28 62//62 29//29
f 62//62 63//63 71//71
f 62//62 71//71 29//29
f 8//8 72//72 13//13
f 8//8 41//41 73//73
f 8//8 73//73 72//72
f 72//72 73//73 74//74
f 72//72 74//74 13//13
f 13//13 74//74 75//75
f 13//13 75//75 18//18
f 18//18 75//75 21//21
f 76//76 21//21 77//77
f 76//76 78//78 70//70
f 76//76 77//77 78//78
f 76//76 70//70 24//24
f 76//76 24//24 21//21
f 21//21 75//75 77//77
f 79//79 30//30 80//80
f 79//79 38//38 30//30
f 79//79 81//81 38//38
f 79//79 80//80 81//81
f 30//30 32//32 31//31
f 30//30 38//38 32//32
f 30//30 29//29 80//80
f 32//32 37//37 36//36
f 32//32 38//38 37//37
f 38//38 41//41 39//39
f 38//38 73//73 41//41
f 38//38 81//81 82//82
f 38//38 82//82 73//73
f 39//39 41//41 40//40
f 73//73 82//82 83//83
f 73//73 83//83 74//74
f 74//74 83//83 78//78
f 74//74 78//78 75//75
f 75//75 78//78 77//77
f 81//81 84//84 82//82
f 81//81 80//80 85//85
f 81//81 85//85 86//86
f 81//81 86//86 84//84
f 82//82 84//84 83//83
f 84//84 87//87 83//83
f 84//84 78//78 87//87
f 84//84 86//86 88//88
f 84//84 88//88 78//78
f 83//83 87//87 78//78
f 78//78 88//88 70//70
f 63//63 61//61 89//89
f 63//63 89//89 71//71
f 61//61 67//67 86//86
f 61//61 86//86 89//89
f 67//67 68//68 69//69
f 67//67 69//69 66//66
f 67//67 66//66 70//70
f 67//67 70//70 88//88
f 67//67 88//88 86//86
f 80//80 29//29 71//71
f 80//80 71//71 85//85
f 85//85 71//71 86//86
f 71//71 89//89 86//86
# 174 faces, 0 coords texture

# End of File
