####
#
# OBJ File Generated by Meshlab
#
####
# Object step_39_link_5.obj
#
# Vertices: 59
# Faces: 114
#
####
vn 1.541841 0.923362 5.544159
v 0.109045 0.116586 0.747516
vn 0.923612 2.677805 5.515280
v 0.106652 0.118944 0.746988
vn 0.555354 1.950215 5.946099
v 0.105446 0.119227 0.747009
vn 0.420270 2.517651 5.555535
v 0.105426 0.119233 0.747009
vn 0.130664 2.725401 5.383183
v 0.105409 0.119237 0.747008
vn -0.235288 0.489487 6.212945
v 0.006281 0.116586 0.747516
vn 1.526523 -2.317120 3.779572
v 0.109045 0.014125 0.747516
vn 3.836748 -0.252275 4.898839
v 0.271034 0.098483 0.645587
vn 3.746102 0.564007 4.842081
v 0.271034 0.204796 0.645587
vn 3.390826 2.671287 2.470959
v 0.262219 0.223094 0.646851
vn 2.141761 3.188531 4.840566
v 0.261091 0.223769 0.646948
vn 1.974371 4.207511 2.265511
v 0.259610 0.225216 0.646552
vn 0.648707 4.916299 2.299860
v 0.259180 0.225322 0.646540
vn 0.011750 3.933910 4.873413
v 0.105393 0.119238 0.747008
vn -0.257834 2.033750 5.710389
v 0.002251 0.119237 0.747008
vn -1.344531 3.576534 4.017872
v 0.002248 0.119238 0.747008
vn -1.212819 4.879028 1.713917
v 0.149384 0.225322 0.646540
vn 2.419355 -5.251557 1.288443
v 0.109261 0.013846 0.746657
vn 3.758300 -2.029112 1.536782
v 0.272030 0.096870 0.644601
vn 0.454711 -5.379395 1.921528
v 0.107234 0.013368 0.746703
vn -0.292310 -2.212892 5.236566
v 0.006281 0.014125 0.747516
vn 0.470335 -5.569302 -1.698494
v 0.107234 0.013368 0.646280
vn 1.939592 -5.762636 -0.782329
v 0.109261 0.013846 0.646310
vn -0.720219 -5.113916 2.089685
v 0.005482 0.013368 0.746703
vn 0.811357 -5.323719 -2.904536
v 0.109045 0.014125 0.645294
vn -0.330073 -4.668002 -4.152550
v 0.006281 0.014125 0.645294
vn -0.091569 -4.017421 -4.692033
v 0.170646 0.096870 0.544103
vn 2.537291 -2.016757 -1.874988
v 0.272030 0.096870 0.544103
vn -0.661384 -5.415087 -1.801477
v 0.005482 0.013368 0.646280
vn -2.601135 1.428411 2.168751
v 0.001586 0.118944 0.746988
vn -2.209771 -1.619733 1.841390
v 0.001586 0.014497 0.746988
vn -3.997324 1.694521 -1.722768
v 0.001586 0.118944 0.645718
vn -2.868247 -2.088275 -1.628519
v 0.001586 0.014497 0.645718
vn -1.455996 2.802438 -2.386568
v 0.149384 0.225322 0.542252
vn -1.604190 0.537202 -5.606925
v 0.149871 0.223769 0.541836
vn -1.741093 -0.799454 -5.493940
v 0.149871 0.113086 0.541836
vn -1.164215 -4.830466 -3.462485
v 0.002251 0.014393 0.645572
vn -0.605976 -2.429047 -5.309277
v 0.165677 0.098483 0.543163
vn -1.453630 -3.728539 -4.778960
v 0.002248 0.014397 0.645569
vn 5.341660 0.188764 2.119923
v 0.272030 0.198226 0.644601
vn 5.334073 0.654287 2.044379
v 0.271322 0.204497 0.645289
vn 5.287304 0.188719 -2.172482
v 0.272030 0.198226 0.544103
vn 5.604466 0.779364 -1.716028
v 0.271322 0.204497 0.543542
vn 4.704801 1.582601 2.325219
v 0.271168 0.205093 0.645412
vn 5.124250 1.792495 -1.913349
v 0.271168 0.205093 0.543435
vn 5.372718 2.613000 1.325150
v 0.262846 0.221915 0.646680
vn 5.330564 2.578439 -1.430292
v 0.262846 0.221915 0.542100
vn 2.602634 1.989568 -2.731613
v 0.262219 0.223094 0.541932
vn 1.584635 3.659784 -2.552977
v 0.259610 0.225216 0.542237
vn 0.404722 3.901274 -2.793630
v 0.259180 0.225322 0.542252
vn 5.078147 0.242178 -3.691938
v 0.271201 0.204088 0.543346
vn 3.117425 0.517152 -4.728266
v 0.271034 0.204796 0.543163
vn 1.760595 -1.137431 -5.119797
v 0.271034 0.098483 0.543163
vn 0.965773 0.059253 -6.205026
v 0.267505 0.208589 0.542592
vn 0.490105 -0.287064 -6.229302
v 0.267505 0.104366 0.542592
vn 0.617801 -0.068249 -6.249676
v 0.262219 0.112835 0.541932
vn 1.280834 1.936911 -5.202998
v 0.261091 0.223769 0.541836
vn 0.207059 -0.211185 -6.261442
v 0.261091 0.113086 0.541836
vn -0.025351 -0.592474 -6.254871
v 0.162985 0.104366 0.542592
# 59 vertices, 0 vertices normals

f 1//1 2//2 3//3
f 1//1 3//3 4//4
f 1//1 4//4 5//5
f 1//1 5//5 6//6
f 1//1 7//7 8//8
f 1//1 6//6 7//7
f 1//1 9//9 10//10
f 1//1 10//10 11//11
f 1//1 11//11 2//2
f 1//1 8//8 9//9
f 2//2 4//4 3//3
f 2//2 11//11 12//12
f 2//2 12//12 4//4
f 4//4 12//12 13//13
f 4//4 13//13 5//5
f 5//5 14//14 15//15
f 5//5 15//15 6//6
f 5//5 13//13 14//14
f 14//14 16//16 15//15
f 14//14 13//13 17//17
f 14//14 17//17 16//16
f 7//7 18//18 19//19
f 7//7 20//20 18//18
f 7//7 6//6 21//21
f 7//7 21//21 20//20
f 7//7 19//19 8//8
f 18//18 20//20 22//22
f 18//18 23//23 19//19
f 18//18 22//22 23//23
f 20//20 21//21 24//24
f 20//20 24//24 22//22
f 25//25 23//23 22//22
f 25//25 22//22 26//26
f 25//25 26//26 27//27
f 25//25 28//28 23//23
f 25//25 27//27 28//28
f 23//23 28//28 19//19
f 22//22 24//24 29//29
f 22//22 29//29 26//26
f 6//6 30//30 31//31
f 6//6 15//15 30//30
f 6//6 31//31 21//21
f 30//30 15//15 16//16
f 30//30 16//16 17//17
f 30//30 32//32 31//31
f 30//30 17//17 32//32
f 32//32 33//33 31//31
f 32//32 17//17 34//34
f 32//32 35//35 36//36
f 32//32 34//34 35//35
f 32//32 36//36 33//33
f 21//21 31//31 24//24
f 24//24 31//31 29//29
f 31//31 33//33 29//29
f 26//26 29//29 37//37
f 26//26 37//37 38//38
f 26//26 38//38 27//27
f 29//29 33//33 37//37
f 33//33 39//39 37//37
f 33//33 38//38 39//39
f 33//33 36//36 38//38
f 37//37 39//39 38//38
f 40//40 9//9 8//8
f 40//40 41//41 9//9
f 40//40 42//42 43//43
f 40//40 43//43 41//41
f 40//40 19//19 42//42
f 40//40 8//8 19//19
f 9//9 41//41 44//44
f 9//9 44//44 10//10
f 41//41 43//43 45//45
f 41//41 45//45 44//44
f 44//44 46//46 10//10
f 44//44 45//45 46//46
f 46//46 45//45 47//47
f 46//46 47//47 48//48
f 46//46 48//48 10//10
f 10//10 12//12 11//11
f 10//10 48//48 49//49
f 10//10 49//49 12//12
f 12//12 49//49 50//50
f 12//12 50//50 13//13
f 13//13 50//50 17//17
f 42//42 51//51 43//43
f 42//42 52//52 51//51
f 42//42 19//19 28//28
f 42//42 28//28 53//53
f 42//42 53//53 52//52
f 51//51 52//52 43//43
f 52//52 45//45 43//43
f 52//52 54//54 48//48
f 52//52 48//48 45//45
f 52//52 53//53 55//55
f 52//52 55//55 54//54
f 45//45 48//48 47//47
f 54//54 55//55 56//56
f 54//54 56//56 48//48
f 48//48 57//57 49//49
f 48//48 56//56 58//58
f 48//48 58//58 57//57
f 57//57 50//50 49//49
f 57//57 58//58 35//35
f 57//57 35//35 50//50
f 50//50 35//35 34//34
f 50//50 34//34 17//17
f 28//28 27//27 53//53
f 53//53 27//27 38//38
f 53//53 38//38 55//55
f 55//55 58//58 56//56
f 55//55 38//38 59//59
f 55//55 59//59 58//58
f 58//58 59//59 36//36
f 58//58 36//36 35//35
f 38//38 36//36 59//59
# 114 faces, 0 coords texture

# End of File
