####
#
# OBJ File Generated by Meshlab
#
####
# Object step_12_link_6.obj
#
# Vertices: 46
# Faces: 88
#
####
vn 1.686773 5.740443 0.120706
v 0.408578 -0.029380 0.590721
vn 1.381597 2.729824 2.535861
v 0.408607 -0.029400 0.590996
vn 3.547292 5.185387 -0.039679
v 0.408607 -0.029400 0.484974
vn 1.198194 5.078086 -1.573836
v 0.408578 -0.029380 0.484967
vn -0.079221 6.273400 0.190793
v 0.297096 -0.029380 0.590721
vn 1.924930 0.415135 5.492774
v 0.408619 -0.030367 0.591122
vn 4.719402 0.400631 3.729229
v 0.482359 -0.081605 0.536018
vn -1.394002 2.836572 2.228972
v 0.296581 -0.029400 0.590996
vn 4.168220 2.617756 1.911575
v 0.482314 -0.080678 0.535853
vn 1.759226 -0.389881 5.598253
v 0.408619 -0.138348 0.591122
vn -0.431811 0.537047 6.194955
v 0.296344 -0.030367 0.591122
vn 2.351660 4.030024 -2.109383
v 0.482314 -0.080678 0.427871
vn -0.144226 5.398499 -2.143764
v 0.297096 -0.029380 0.484967
vn -1.469182 2.571852 -4.838288
v 0.367029 -0.080678 0.427871
vn 0.393798 -3.922625 4.817576
v 0.408578 -0.139508 0.590721
vn 1.280136 -1.924024 5.306912
v 0.408607 -0.139118 0.590996
vn -1.738626 -4.394730 2.728815
v 0.297096 -0.139508 0.590721
vn -1.723869 -4.816963 1.984959
v 0.367029 -0.193828 0.535853
vn 2.681276 -2.761120 3.032056
v 0.482314 -0.193828 0.535853
vn -2.238816 -2.465067 2.644613
v 0.296581 -0.139118 0.590996
vn 4.303972 -0.738005 3.948298
v 0.482359 -0.193115 0.536018
vn -1.406392 -1.000230 5.722094
v 0.296344 -0.138348 0.591122
vn -2.140137 3.137246 -1.977177
v 0.296581 -0.029400 0.484974
vn -3.032330 1.000837 2.490483
v 0.295599 -0.030712 0.591062
vn -4.960822 1.311252 -1.587573
v 0.295599 -0.030712 0.485785
vn -3.201508 -0.753668 2.648774
v 0.295599 -0.137246 0.591062
vn -4.208804 0.630679 -4.487807
v 0.296344 -0.030367 0.484978
vn -3.015302 0.409637 -5.354047
v 0.366727 -0.081605 0.427869
vn -4.662548 -0.842083 -3.812363
v 0.296344 -0.138348 0.484978
vn -5.195969 -0.954221 -1.687453
v 0.295599 -0.137246 0.485785
vn -4.387974 -2.862110 -1.737499
v 0.296581 -0.139118 0.484974
vn -3.403320 -0.945227 -4.814733
v 0.366727 -0.193115 0.427869
vn -2.525539 -3.115324 -2.637369
v 0.367029 -0.193828 0.427871
vn 5.459125 1.410861 0.949857
v 0.485822 -0.085607 0.529060
vn 2.786421 1.458076 -2.372632
v 0.485822 -0.085607 0.423804
vn 4.835300 -2.054058 0.847924
v 0.485822 -0.191346 0.529060
vn 0.507515 1.885098 -5.410019
v 0.484187 -0.085879 0.423414
vn 2.755951 -1.604827 -2.100831
v 0.485822 -0.191346 0.423804
vn 0.684341 -2.614451 -4.358557
v 0.484187 -0.191600 0.423414
vn -0.737195 1.685406 -5.375035
v 0.377845 -0.085879 0.423414
vn 1.896177 -4.575858 1.464742
v 0.482214 -0.194097 0.535494
vn 1.459047 -5.338824 -1.053815
v 0.482214 -0.194097 0.427877
vn -0.779801 -5.487867 1.523930
v 0.367681 -0.194097 0.535494
vn 1.373230 -5.503210 -2.651122
v 0.484473 -0.191778 0.423879
vn -0.662026 -2.366037 -4.542863
v 0.377845 -0.191600 0.423414
vn -1.130536 -4.753260 -2.165870
v 0.367681 -0.194097 0.427877
# 46 vertices, 0 vertices normals

f 1//1 2//2 3//3
f 1//1 4//4 5//5
f 1//1 3//3 4//4
f 1//1 5//5 2//2
f 2//2 6//6 7//7
f 2//2 5//5 8//8
f 2//2 8//8 6//6
f 2//2 9//9 3//3
f 2//2 7//7 9//9
f 6//6 10//10 7//7
f 6//6 8//8 11//11
f 6//6 11//11 10//10
f 4//4 3//3 12//12
f 4//4 13//13 5//5
f 4//4 12//12 14//14
f 4//4 14//14 13//13
f 3//3 9//9 12//12
f 15//15 16//16 17//17
f 15//15 17//17 18//18
f 15//15 19//19 16//16
f 15//15 18//18 19//19
f 16//16 10//10 20//20
f 16//16 20//20 17//17
f 16//16 19//19 21//21
f 16//16 21//21 10//10
f 10//10 11//11 22//22
f 10//10 22//22 20//20
f 10//10 21//21 7//7
f 5//5 13//13 23//23
f 5//5 23//23 8//8
f 8//8 24//24 11//11
f 8//8 23//23 25//25
f 8//8 25//25 24//24
f 11//11 24//24 26//26
f 11//11 26//26 22//22
f 24//24 25//25 26//26
f 13//13 14//14 23//23
f 23//23 27//27 25//25
f 23//23 14//14 28//28
f 23//23 28//28 27//27
f 27//27 29//29 30//30
f 27//27 30//30 25//25
f 27//27 28//28 29//29
f 25//25 30//30 26//26
f 17//17 20//20 18//18
f 20//20 22//22 26//26
f 20//20 26//26 30//30
f 20//20 31//31 18//18
f 20//20 30//30 31//31
f 31//31 29//29 32//32
f 31//31 30//30 29//29
f 31//31 33//33 18//18
f 31//31 32//32 33//33
f 29//29 28//28 32//32
f 34//34 9//9 7//7
f 34//34 7//7 21//21
f 34//34 35//35 12//12
f 34//34 12//12 9//9
f 34//34 36//36 35//35
f 34//34 21//21 36//36
f 35//35 37//37 12//12
f 35//35 36//36 38//38
f 35//35 38//38 37//37
f 37//37 38//38 39//39
f 37//37 39//39 40//40
f 37//37 40//40 12//12
f 12//12 40//40 14//14
f 36//36 41//41 42//42
f 36//36 19//19 41//41
f 36//36 21//21 19//19
f 36//36 42//42 38//38
f 41//41 19//19 43//43
f 41//41 43//43 42//42
f 19//19 18//18 43//43
f 38//38 44//44 39//39
f 38//38 42//42 44//44
f 39//39 44//44 42//42
f 39//39 42//42 45//45
f 39//39 45//45 40//40
f 42//42 43//43 46//46
f 42//42 46//46 45//45
f 40//40 28//28 14//14
f 40//40 45//45 32//32
f 40//40 32//32 28//28
f 43//43 18//18 33//33
f 43//43 33//33 46//46
f 45//45 46//46 33//33
f 45//45 33//33 32//32
# 88 faces, 0 coords texture

# End of File
