####
#
# OBJ File Generated by Meshlab
#
####
# Object step_8_link_6.obj
#
# Vertices: 57
# Faces: 110
#
####
vn 1.743469 2.962006 2.333693
v 0.427559 -0.033605 0.581189
vn 3.061335 0.158750 5.453025
v 0.427142 -0.033995 0.581469
vn 2.909233 -0.159525 5.523658
v 0.427142 -0.141553 0.581469
vn 2.292700 0.567668 5.715428
v 0.427118 -0.033969 0.581480
vn 1.343733 1.153112 5.780631
v 0.427094 -0.033952 0.581486
vn 0.421165 1.920635 5.531963
v 0.427071 -0.033942 0.581488
vn 0.037063 3.547735 5.126158
v 0.427049 -0.033938 0.581486
vn 1.107991 5.260641 -1.481988
v 0.427559 -0.033605 0.475492
vn -0.750780 5.067819 1.957520
v 0.317390 -0.033605 0.581189
vn 1.686482 -1.233835 5.380576
v 0.427559 -0.143158 0.581189
vn 4.541440 0.173127 4.100922
v 0.503965 -0.080564 0.525489
vn 4.041602 2.163456 1.576779
v 0.504095 -0.079790 0.525257
vn 1.729564 -0.387533 5.939889
v 0.427118 -0.141533 0.581480
vn 0.692215 -0.469702 6.142508
v 0.427094 -0.141514 0.581486
vn 0.150486 -0.209484 6.266367
v 0.427071 -0.141496 0.581488
vn -0.774548 1.134559 5.771470
v 0.316617 -0.033942 0.581488
vn -2.402890 1.799687 1.907660
v 0.316611 -0.033938 0.581486
vn -1.982732 2.856712 -2.195340
v 0.317390 -0.033605 0.475492
vn 2.256000 1.931886 -2.124912
v 0.504095 -0.079790 0.417722
vn -1.419210 2.032810 -4.621386
v 0.390950 -0.079790 0.417722
vn 0.532720 -3.574772 4.872652
v 0.426735 -0.153485 0.576305
vn 1.765274 -2.652462 5.343526
v 0.429454 -0.150578 0.577223
vn -2.047921 -3.584685 2.503495
v 0.325717 -0.153485 0.576305
vn -1.171922 -5.141713 1.536604
v 0.400388 -0.202439 0.519491
vn 1.600541 -4.456334 1.814195
v 0.501695 -0.202439 0.519491
vn 1.488974 -3.534979 4.975994
v 0.504218 -0.199020 0.521206
vn 3.593308 -2.143166 1.899348
v 0.505509 -0.199008 0.520824
vn 3.786718 -1.336015 3.649982
v 0.504095 -0.192609 0.525257
vn -2.519728 -2.253850 2.818781
v 0.317390 -0.143158 0.581189
vn 4.408291 -0.232217 4.188044
v 0.503965 -0.191426 0.525489
vn -1.052350 -1.341379 5.874490
v 0.316629 -0.141514 0.581486
vn -2.854757 -1.170580 3.000853
v 0.316617 -0.141496 0.581488
vn -4.275786 2.642002 -0.535427
v 0.316611 -0.033938 0.476460
vn -4.185739 -0.497783 2.635808
v 0.316611 -0.141479 0.581486
vn -5.077819 0.623135 -3.497568
v 0.316629 -0.033952 0.476417
vn -4.953291 1.878055 -2.162997
v 0.316617 -0.033942 0.476440
vn -4.453422 -1.794246 -2.277221
v 0.317390 -0.143158 0.475492
vn -5.333568 -0.685338 -2.946729
v 0.316629 -0.141514 0.476417
vn -5.626249 -1.162590 -1.401632
v 0.316617 -0.141496 0.476440
vn -6.063353 -0.715409 -0.568543
v 0.316611 -0.141479 0.476460
vn -4.142592 -4.434701 -0.697013
v 0.325717 -0.153485 0.475582
vn -4.581391 -3.621623 -1.941227
v 0.323650 -0.150578 0.473851
vn -3.554652 -3.861620 -3.060626
v 0.398073 -0.199008 0.415766
vn -1.436018 -4.681904 -1.818041
v 0.400388 -0.202439 0.418526
vn -3.301106 -1.836058 -3.900661
v 0.390950 -0.192609 0.417722
vn 6.124186 0.193299 0.854982
v 0.505509 -0.093484 0.520824
vn 4.924911 0.244461 -2.471976
v 0.505509 -0.093484 0.415766
vn 2.360923 0.821579 -5.058113
v 0.505002 -0.092495 0.415408
vn 3.288517 -1.811711 -2.073808
v 0.505509 -0.199008 0.415766
vn 2.416748 -0.227714 -5.627546
v 0.505002 -0.198170 0.415408
vn 0.508257 0.284226 -6.199781
v 0.504218 -0.093689 0.415249
vn 0.895098 -2.243472 -4.919374
v 0.504218 -0.199020 0.415249
vn -0.393132 0.298226 -6.220850
v 0.398732 -0.093689 0.415249
vn -0.957392 0.485799 -6.074017
v 0.397752 -0.092495 0.415408
vn 1.438862 -4.710168 -1.628878
v 0.501695 -0.202439 0.418526
vn -1.210785 -2.307103 -4.647838
v 0.398732 -0.199020 0.415249
vn -2.465797 -1.501785 -5.008181
v 0.397752 -0.198170 0.415408
# 57 vertices, 0 vertices normals

f 1//1 2//2 3//3
f 1//1 4//4 2//2
f 1//1 5//5 4//4
f 1//1 6//6 5//5
f 1//1 7//7 6//6
f 1//1 8//8 9//9
f 1//1 10//10 11//11
f 1//1 3//3 10//10
f 1//1 9//9 7//7
f 1//1 12//12 8//8
f 1//1 11//11 12//12
f 2//2 4//4 13//13
f 2//2 13//13 3//3
f 4//4 5//5 14//14
f 4//4 14//14 13//13
f 5//5 6//6 15//15
f 5//5 15//15 14//14
f 6//6 7//7 16//16
f 6//6 16//16 15//15
f 7//7 9//9 17//17
f 7//7 17//17 16//16
f 8//8 18//18 9//9
f 8//8 12//12 19//19
f 8//8 19//19 20//20
f 8//8 20//20 18//18
f 21//21 22//22 10//10
f 21//21 10//10 23//23
f 21//21 23//23 24//24
f 21//21 25//25 26//26
f 21//21 27//27 22//22
f 21//21 26//26 27//27
f 21//21 24//24 25//25
f 22//22 27//27 28//28
f 22//22 28//28 10//10
f 10//10 3//3 13//13
f 10//10 13//13 14//14
f 10//10 14//14 29//29
f 10//10 29//29 23//23
f 10//10 28//28 30//30
f 10//10 30//30 11//11
f 14//14 15//15 31//31
f 14//14 31//31 29//29
f 15//15 16//16 32//32
f 15//15 32//32 31//31
f 9//9 18//18 33//33
f 9//9 33//33 17//17
f 16//16 17//17 34//34
f 16//16 34//34 32//32
f 17//17 33//33 34//34
f 18//18 35//35 36//36
f 18//18 36//36 33//33
f 18//18 37//37 38//38
f 18//18 38//38 35//35
f 18//18 20//20 37//37
f 35//35 38//38 39//39
f 35//35 39//39 36//36
f 36//36 39//39 40//40
f 36//36 40//40 33//33
f 33//33 40//40 34//34
f 23//23 29//29 37//37
f 23//23 41//41 24//24
f 23//23 37//37 41//41
f 29//29 31//31 32//32
f 29//29 32//32 39//39
f 29//29 39//39 37//37
f 32//32 34//34 40//40
f 32//32 40//40 39//39
f 41//41 42//42 43//43
f 41//41 37//37 42//42
f 41//41 44//44 24//24
f 41//41 43//43 44//44
f 42//42 37//37 45//45
f 42//42 45//45 43//43
f 37//37 39//39 38//38
f 37//37 20//20 45//45
f 46//46 12//12 28//28
f 46//46 47//47 19//19
f 46//46 19//19 12//12
f 46//46 27//27 47//47
f 46//46 28//28 27//27
f 12//12 11//11 30//30
f 12//12 30//30 28//28
f 47//47 48//48 19//19
f 47//47 27//27 49//49
f 47//47 49//49 50//50
f 47//47 50//50 48//48
f 51//51 48//48 50//50
f 51//51 52//52 53//53
f 51//51 50//50 52//52
f 51//51 53//53 48//48
f 48//48 53//53 54//54
f 48//48 54//54 19//19
f 19//19 54//54 20//20
f 25//25 27//27 26//26
f 25//25 55//55 27//27
f 25//25 24//24 55//55
f 27//27 55//55 49//49
f 55//55 52//52 49//49
f 55//55 24//24 44//44
f 55//55 44//44 56//56
f 55//55 56//56 52//52
f 49//49 52//52 50//50
f 52//52 56//56 53//53
f 53//53 56//56 57//57
f 53//53 57//57 54//54
f 54//54 57//57 45//45
f 54//54 45//45 20//20
f 44//44 43//43 56//56
f 43//43 57//57 56//56
f 43//43 45//45 57//57
# 110 faces, 0 coords texture

# End of File
