####
#
# OBJ File Generated by Meshlab
#
####
# Object step_29_link_5.obj
#
# Vertices: 78
# Faces: 152
#
####
vn 2.020382 3.525701 2.810256
v 0.169040 0.105970 0.735763
vn 2.291731 0.654210 5.673576
v 0.169036 0.105025 0.735996
vn 3.304641 1.823417 1.813568
v 0.344420 0.051352 0.646854
vn 0.840378 3.215937 2.838021
v 0.162704 0.107603 0.737463
vn 1.485118 6.029548 -0.599028
v 0.169040 0.105970 0.634156
vn 0.496958 5.780635 -1.358161
v 0.162704 0.107603 0.635953
vn 2.529803 5.583426 1.324103
v 0.343457 0.051780 0.646928
vn 2.372247 5.739697 0.428916
v 0.342979 0.052097 0.646353
vn 1.867861 5.999103 0.007715
v 0.342954 0.052105 0.646343
vn 1.525967 0.324817 6.085992
v 0.161710 0.106230 0.737796
vn 1.443807 0.259813 6.103574
v 0.161651 0.106214 0.737811
vn 1.498315 -0.004977 6.101919
v 0.161651 0.004017 0.737811
vn 1.912454 -0.997588 5.688363
v 0.169036 0.002653 0.735996
vn 1.326265 0.316748 6.121668
v 0.161598 0.106199 0.737824
vn 1.154096 0.407281 6.143721
v 0.161553 0.106185 0.737835
vn 0.936712 0.526580 6.158312
v 0.161514 0.106171 0.737842
vn 0.666848 0.675865 6.157501
v 0.161481 0.106159 0.737848
vn 0.412549 0.786369 6.148169
v 0.161454 0.106148 0.737852
vn -1.108820 3.539772 2.350886
v 0.057769 0.107603 0.737463
vn 1.392152 -0.403558 6.097305
v 0.161598 0.004017 0.737824
vn 1.213820 -0.753036 6.064948
v 0.161553 0.004019 0.737835
vn 0.982101 -1.023733 6.020126
v 0.161514 0.004021 0.737842
vn 0.661851 -1.390960 5.898104
v 0.161481 0.004025 0.737848
vn 0.273233 0.664600 6.189432
v 0.161433 0.106139 0.737854
vn 0.396285 -1.608795 5.793890
v 0.161454 0.004030 0.737852
vn -2.005806 3.119619 3.047095
v 0.056010 0.106148 0.737852
vn 0.127477 0.323168 6.256939
v 0.161417 0.106131 0.737855
vn 0.262922 -1.237882 5.997498
v 0.161433 0.004035 0.737854
vn -2.296629 2.448590 2.851616
v 0.055999 0.106139 0.737854
vn 0.011111 0.025361 6.283008
v 0.161406 0.106124 0.737855
vn 0.118307 -0.546804 6.221847
v 0.161417 0.004040 0.737855
vn -2.759251 1.296108 2.746856
v 0.055993 0.106131 0.737855
vn 0.010421 -0.037208 6.282871
v 0.161406 0.004044 0.737855
vn -3.097734 0.339247 2.931103
v 0.055992 0.106124 0.737855
vn 1.516424 6.010983 -0.675919
v 0.342954 0.052105 0.542207
vn -1.722297 3.906526 -2.120632
v 0.057769 0.107603 0.635953
vn 1.182513 3.642091 -3.233552
v 0.343457 0.051780 0.541185
vn -0.399484 3.550628 -4.558931
v 0.232562 0.051780 0.541185
vn 0.754941 -3.303419 4.962468
v 0.168125 0.001145 0.735664
vn 0.600885 -2.604022 5.467603
v 0.162704 0.003395 0.737463
vn -0.246596 -4.558266 4.203795
v 0.067417 0.001145 0.735664
vn -0.837408 -5.308015 1.671663
v 0.236782 -0.078635 0.644698
vn 1.521846 -4.132634 2.120242
v 0.338534 -0.078635 0.644698
vn 3.408396 -2.121799 2.175215
v 0.343021 -0.075161 0.644965
vn 4.349917 -0.287894 3.030033
v 0.344420 -0.059041 0.646854
vn -0.793635 -4.531348 3.612733
v 0.057769 0.003395 0.737463
vn -1.193650 -4.179295 3.032130
v 0.056010 0.004030 0.737852
vn -1.709002 -3.175849 2.779495
v 0.055999 0.004035 0.737854
vn -2.480465 -1.692555 2.588110
v 0.055993 0.004040 0.737855
vn -3.063498 -0.463198 2.851184
v 0.055992 0.004044 0.737855
vn -3.283283 2.866487 -2.821164
v 0.056010 0.106148 0.636137
vn -3.605800 2.228275 -2.567150
v 0.055999 0.106139 0.636141
vn -4.421950 1.328177 -2.290224
v 0.055993 0.106131 0.636145
vn -5.887562 0.408468 -1.240666
v 0.055992 0.106124 0.636147
vn -2.735229 2.427305 -5.007044
v 0.056028 0.106159 0.636132
vn -1.390725 1.136854 -5.531483
v 0.232139 0.051246 0.541019
vn -3.015306 -2.690528 -2.500190
v 0.055999 0.004035 0.636141
vn -4.045703 -1.796132 -2.151597
v 0.055993 0.004040 0.636145
vn -5.839841 -0.594640 -1.175770
v 0.055992 0.004044 0.636147
vn -1.679402 -0.460727 -5.722563
v 0.232139 -0.057008 0.541019
vn -1.253644 -3.718592 -2.498648
v 0.236782 -0.078635 0.543916
vn -1.706505 -1.840266 -5.382767
v 0.236925 -0.075161 0.542323
vn -2.792140 -1.123818 -5.488078
v 0.232562 -0.058897 0.541185
vn 6.279438 0.013134 0.144796
v 0.344522 0.038007 0.644763
vn 6.274155 0.012713 -0.229801
v 0.344522 0.038007 0.542575
vn 2.637002 1.587864 -2.018897
v 0.344420 0.051352 0.541236
vn 5.872613 -0.615538 1.309418
v 0.344522 -0.065826 0.644763
vn 2.006024 5.819001 -0.570648
v 0.342979 0.052097 0.542195
vn 5.581915 -0.566136 -1.766945
v 0.344522 -0.065826 0.542575
vn 3.389958 -0.167081 -3.362743
v 0.344420 -0.059041 0.541236
vn 0.472717 0.829898 -6.077404
v 0.343256 0.051246 0.541019
vn 0.527226 -0.110778 -6.226821
v 0.343256 -0.057008 0.541019
vn 1.129319 -4.045587 -2.213957
v 0.338534 -0.078635 0.543916
vn 2.592302 -1.880674 -2.340354
v 0.343021 -0.075161 0.542323
vn 0.107503 -1.827476 -5.950285
v 0.342349 -0.075033 0.542262
vn -0.364996 -1.693090 -5.944725
v 0.237169 -0.075033 0.542262
vn 0.668387 -0.673190 -6.133441
v 0.341967 -0.072687 0.541821
vn -0.597860 -0.763414 -6.141105
v 0.237618 -0.072687 0.541821
# 78 vertices, 0 vertices normals

f 1//1 2//2 3//3
f 1//1 4//4 2//2
f 1//1 5//5 6//6
f 1//1 6//6 4//4
f 1//1 3//3 7//7
f 1//1 7//7 8//8
f 1//1 8//8 9//9
f 1//1 9//9 5//5
f 2//2 4//4 10//10
f 2//2 10//10 11//11
f 2//2 11//11 12//12
f 2//2 13//13 3//3
f 2//2 12//12 13//13
f 4//4 11//11 10//10
f 4//4 14//14 11//11
f 4//4 15//15 14//14
f 4//4 16//16 15//15
f 4//4 17//17 16//16
f 4//4 18//18 17//17
f 4//4 6//6 19//19
f 4//4 19//19 18//18
f 11//11 14//14 12//12
f 14//14 15//15 20//20
f 14//14 20//20 12//12
f 15//15 16//16 21//21
f 15//15 21//21 20//20
f 16//16 17//17 22//22
f 16//16 22//22 21//21
f 17//17 18//18 23//23
f 17//17 23//23 22//22
f 18//18 24//24 25//25
f 18//18 25//25 23//23
f 18//18 19//19 26//26
f 18//18 26//26 24//24
f 24//24 27//27 28//28
f 24//24 28//28 25//25
f 24//24 26//26 29//29
f 24//24 29//29 27//27
f 27//27 30//30 31//31
f 27//27 31//31 28//28
f 27//27 29//29 32//32
f 27//27 32//32 30//30
f 30//30 33//33 31//31
f 30//30 32//32 34//34
f 30//30 34//34 33//33
f 5//5 9//9 35//35
f 5//5 35//35 6//6
f 6//6 36//36 19//19
f 6//6 37//37 38//38
f 6//6 35//35 37//37
f 6//6 38//38 36//36
f 39//39 13//13 40//40
f 39//39 40//40 41//41
f 39//39 41//41 42//42
f 39//39 43//43 44//44
f 39//39 44//44 13//13
f 39//39 42//42 43//43
f 13//13 12//12 20//20
f 13//13 20//20 21//21
f 13//13 21//21 40//40
f 13//13 44//44 45//45
f 13//13 45//45 3//3
f 40//40 21//21 22//22
f 40//40 22//22 23//23
f 40//40 23//23 25//25
f 40//40 25//25 46//46
f 40//40 46//46 41//41
f 25//25 28//28 47//47
f 25//25 47//47 46//46
f 28//28 31//31 48//48
f 28//28 48//48 47//47
f 31//31 33//33 49//49
f 31//31 49//49 48//48
f 33//33 34//34 50//50
f 33//33 50//50 49//49
f 19//19 36//36 51//51
f 19//19 51//51 26//26
f 26//26 51//51 52//52
f 26//26 52//52 29//29
f 29//29 52//52 53//53
f 29//29 53//53 32//32
f 32//32 53//53 54//54
f 32//32 54//54 34//34
f 34//34 54//54 50//50
f 36//36 55//55 51//51
f 36//36 38//38 56//56
f 36//36 56//56 55//55
f 55//55 56//56 51//51
f 51//51 56//56 52//52
f 52//52 57//57 53//53
f 52//52 56//56 57//57
f 53//53 57//57 58//58
f 53//53 58//58 54//54
f 54//54 58//58 59//59
f 54//54 59//59 50//50
f 41//41 46//46 42//42
f 46//46 47//47 42//42
f 47//47 48//48 42//42
f 48//48 49//49 58//58
f 48//48 57//57 42//42
f 48//48 58//58 57//57
f 49//49 50//50 59//59
f 49//49 59//59 58//58
f 57//57 56//56 60//60
f 57//57 61//61 42//42
f 57//57 62//62 61//61
f 57//57 63//63 62//62
f 57//57 60//60 63//63
f 64//64 3//3 45//45
f 64//64 65//65 66//66
f 64//64 66//66 3//3
f 64//64 67//67 65//65
f 64//64 45//45 67//67
f 3//3 8//8 7//7
f 3//3 66//66 68//68
f 3//3 68//68 8//8
f 8//8 68//68 35//35
f 8//8 35//35 9//9
f 65//65 67//67 69//69
f 65//65 69//69 70//70
f 65//65 70//70 66//66
f 66//66 37//37 68//68
f 66//66 71//71 37//37
f 66//66 70//70 72//72
f 66//66 72//72 71//71
f 37//37 71//71 38//38
f 37//37 35//35 68//68
f 71//71 72//72 56//56
f 71//71 56//56 38//38
f 43//43 73//73 44//44
f 43//43 42//42 73//73
f 44//44 67//67 45//45
f 44//44 73//73 74//74
f 44//44 74//74 69//69
f 44//44 69//69 67//67
f 73//73 75//75 74//74
f 73//73 42//42 61//61
f 73//73 61//61 76//76
f 73//73 76//76 75//75
f 75//75 77//77 74//74
f 75//75 76//76 78//78
f 75//75 78//78 77//77
f 74//74 77//77 70//70
f 74//74 70//70 69//69
f 77//77 72//72 70//70
f 77//77 78//78 72//72
f 72//72 78//78 60//60
f 72//72 60//60 56//56
f 61//61 62//62 76//76
f 76//76 62//62 78//78
f 62//62 63//63 60//60
f 62//62 60//60 78//78
# 152 faces, 0 coords texture

# End of File
