####
#
# OBJ File Generated by Meshlab
#
####
# Object step_19_link_6.obj
#
# Vertices: 53
# Faces: 102
#
####
vn 1.407042 2.976614 2.359935
v 0.365622 -0.024405 0.612686
vn 1.992122 0.753430 5.275534
v 0.365643 -0.024763 0.612769
vn 4.394252 1.256232 4.144895
v 0.436716 -0.081411 0.559697
vn 1.319228 4.827790 -1.653093
v 0.365622 -0.024405 0.506893
vn -0.736592 3.658259 2.665008
v 0.255167 -0.024405 0.612686
vn 4.306682 3.402456 1.829333
v 0.436669 -0.081101 0.559582
vn 1.694482 -0.571939 5.553133
v 0.365643 -0.133588 0.612769
vn 4.154549 0.314767 4.656133
v 0.436925 -0.082061 0.559584
vn -0.749572 1.072246 5.955798
v 0.254930 -0.024763 0.612769
vn -1.180367 4.437505 -2.318131
v 0.255167 -0.024405 0.506893
vn 1.873643 3.462500 -2.836685
v 0.436669 -0.081101 0.451886
vn -0.436330 3.035483 -5.208691
v 0.322938 -0.081101 0.451886
vn 0.994485 -2.437024 5.244532
v 0.365622 -0.133929 0.612686
vn -1.287247 -3.355243 4.115962
v 0.255167 -0.133929 0.612686
vn -0.897004 -5.028688 2.749103
v 0.322938 -0.194216 0.559582
vn 2.357198 -3.491636 3.136060
v 0.436669 -0.194216 0.559582
vn 3.363371 -1.719741 4.495982
v 0.436716 -0.193948 0.559697
vn -0.886826 -1.232007 5.844470
v 0.254930 -0.133588 0.612769
vn 4.048334 -0.245895 4.761638
v 0.436925 -0.193116 0.559584
vn -2.486456 5.770140 0.016884
v 0.254705 -0.024602 0.612306
vn -2.550130 1.576026 1.953499
v 0.253513 -0.025120 0.612546
vn -2.897350 -1.370128 2.247857
v 0.253513 -0.133073 0.612546
vn -2.487131 5.769832 -0.018770
v 0.254705 -0.024602 0.507264
vn -3.203993 2.054450 -1.709579
v 0.253513 -0.025120 0.507094
vn -1.868070 1.503991 -5.510928
v 0.321196 -0.081882 0.451955
vn -4.353096 -1.582896 -1.684511
v 0.253513 -0.133073 0.507094
vn -2.875529 0.397725 -5.379756
v 0.321026 -0.082061 0.452005
vn -2.422791 -5.280791 1.030832
v 0.322306 -0.194119 0.559264
vn -3.996345 -4.833011 0.186463
v 0.321026 -0.193116 0.559584
vn -3.712796 -4.987327 0.690598
v 0.321196 -0.193246 0.559664
vn -3.025032 -2.184070 -2.874073
v 0.321026 -0.193116 0.452005
vn 4.528698 1.582767 1.592455
v 0.440563 -0.084747 0.556204
vn 3.767091 1.428114 -2.079143
v 0.440563 -0.084747 0.451215
vn 4.427808 -1.672303 1.559358
v 0.440563 -0.191017 0.556204
vn 1.988430 2.070355 -4.041636
v 0.439726 -0.084189 0.450829
vn 3.697618 -1.488566 -2.029871
v 0.440563 -0.191017 0.451215
vn 1.954910 -2.210025 -3.677461
v 0.439726 -0.191585 0.450829
vn -0.182003 0.921333 -6.104552
v 0.332387 -0.084189 0.450829
vn 1.708962 -4.854491 1.392939
v 0.436570 -0.194394 0.559338
vn 1.437350 -4.740966 -1.659770
v 0.436570 -0.194394 0.452062
vn -0.392115 -5.638646 1.648805
v 0.323625 -0.194394 0.559338
vn 1.214517 -3.646667 -4.325586
v 0.436669 -0.194216 0.451886
vn -0.178125 -1.074142 -6.047766
v 0.332387 -0.191585 0.450829
vn -0.376670 -5.307784 -2.032672
v 0.323625 -0.194394 0.452062
vn -0.913055 -3.954572 -3.363587
v 0.322938 -0.194216 0.451886
vn -0.926616 1.610673 -5.753210
v 0.322615 -0.081411 0.451803
vn -0.726592 0.126962 -6.235966
v 0.321359 -0.081950 0.451918
vn -0.750607 -0.130296 -6.232898
v 0.321359 -0.193089 0.451918
vn -1.133574 0.504205 -6.109614
v 0.321315 -0.081931 0.451924
vn -2.450597 -2.508904 -3.189284
v 0.321196 -0.193246 0.451955
vn -1.145236 -0.181945 -6.155320
v 0.321315 -0.193097 0.451924
vn -2.463734 -5.009889 -1.391767
v 0.322306 -0.194119 0.452218
vn -1.373134 -2.208524 -5.067752
v 0.322615 -0.193948 0.451803
# 53 vertices, 0 vertices normals

f 1//1 2//2 3//3
f 1//1 4//4 5//5
f 1//1 5//5 2//2
f 1//1 6//6 4//4
f 1//1 3//3 6//6
f 2//2 7//7 8//8
f 2//2 5//5 9//9
f 2//2 9//9 7//7
f 2//2 8//8 3//3
f 4//4 10//10 5//5
f 4//4 6//6 11//11
f 4//4 11//11 12//12
f 4//4 12//12 10//10
f 13//13 7//7 14//14
f 13//13 14//14 15//15
f 13//13 16//16 17//17
f 13//13 17//17 7//7
f 13//13 15//15 16//16
f 7//7 9//9 18//18
f 7//7 18//18 14//14
f 7//7 17//17 19//19
f 7//7 19//19 8//8
f 5//5 20//20 21//21
f 5//5 21//21 9//9
f 5//5 10//10 20//20
f 9//9 21//21 22//22
f 9//9 22//22 18//18
f 20//20 10//10 23//23
f 20//20 23//23 24//24
f 20//20 24//24 21//21
f 21//21 24//24 22//22
f 10//10 24//24 23//23
f 10//10 12//12 25//25
f 10//10 25//25 24//24
f 24//24 26//26 22//22
f 24//24 27//27 26//26
f 24//24 25//25 27//27
f 14//14 18//18 22//22
f 14//14 22//22 28//28
f 14//14 28//28 15//15
f 22//22 26//26 29//29
f 22//22 29//29 30//30
f 22//22 30//30 28//28
f 26//26 27//27 31//31
f 26//26 31//31 29//29
f 32//32 6//6 3//3
f 32//32 3//3 8//8
f 32//32 8//8 19//19
f 32//32 33//33 11//11
f 32//32 11//11 6//6
f 32//32 34//34 33//33
f 32//32 19//19 34//34
f 33//33 35//35 11//11
f 33//33 34//34 36//36
f 33//33 36//36 35//35
f 35//35 36//36 37//37
f 35//35 37//37 38//38
f 35//35 38//38 11//11
f 11//11 38//38 12//12
f 34//34 39//39 40//40
f 34//34 16//16 39//39
f 34//34 17//17 16//16
f 34//34 19//19 17//17
f 34//34 40//40 36//36
f 39//39 16//16 41//41
f 39//39 41//41 40//40
f 16//16 15//15 41//41
f 36//36 40//40 37//37
f 37//37 40//40 42//42
f 37//37 42//42 43//43
f 37//37 43//43 38//38
f 40//40 41//41 44//44
f 40//40 44//44 42//42
f 42//42 44//44 45//45
f 42//42 45//45 43//43
f 38//38 46//46 12//12
f 38//38 47//47 46//46
f 38//38 43//43 48//48
f 38//38 48//48 47//47
f 12//12 46//46 25//25
f 46//46 47//47 49//49
f 46//46 49//49 25//25
f 27//27 25//25 50//50
f 27//27 50//50 31//31
f 25//25 49//49 51//51
f 25//25 51//51 50//50
f 47//47 48//48 51//51
f 47//47 51//51 49//49
f 41//41 15//15 28//28
f 41//41 28//28 52//52
f 41//41 52//52 44//44
f 28//28 29//29 31//31
f 28//28 30//30 29//29
f 28//28 31//31 52//52
f 43//43 45//45 53//53
f 43//43 53//53 48//48
f 44//44 52//52 45//45
f 45//45 52//52 50//50
f 45//45 50//50 53//53
f 53//53 50//50 51//51
f 53//53 51//51 48//48
f 52//52 31//31 50//50
# 102 faces, 0 coords texture

# End of File
