####
#
# OBJ File Generated by Meshlab
#
####
# Object step_42_link_6.obj
#
# Vertices: 65
# Faces: 126
#
####
vn 3.485271 0.026654 5.219739
v 0.232657 0.241995 0.644938
vn 2.303384 0.430414 5.602752
v 0.231089 0.247874 0.645885
vn 1.171388 -1.951201 4.932258
v 0.231089 0.141600 0.645885
vn 1.844316 -2.887860 2.214264
v 0.232657 0.140743 0.644938
vn 3.737538 -0.012826 5.050524
v 0.301047 0.202052 0.594802
vn 4.077777 1.736045 2.443683
v 0.301047 0.310073 0.594802
vn 1.169323 0.964065 5.840314
v 0.220764 0.259976 0.647519
vn 0.357576 -0.425563 6.203216
v 0.220764 0.150710 0.647519
vn 1.423328 2.135523 5.631433
v 0.220405 0.262030 0.646984
vn 0.549500 2.037061 5.832070
v 0.219377 0.262314 0.647032
vn -0.498362 0.477955 6.159083
v 0.110877 0.259976 0.647519
vn 3.178062 3.029461 2.622738
v 0.285821 0.330562 0.596452
vn 0.261461 2.612051 5.548158
v 0.217174 0.263841 0.646659
vn 2.075262 3.994009 2.361212
v 0.283726 0.332300 0.596270
vn 0.755514 4.515202 2.508231
v 0.282357 0.332666 0.596359
vn -0.369743 1.128861 6.146505
v 0.109109 0.262314 0.647032
vn -2.545599 1.989542 2.563722
v 0.108002 0.263841 0.646659
vn -1.546418 4.242105 1.771367
v 0.169275 0.332666 0.596359
vn -0.241009 -5.452931 1.969504
v 0.131350 0.140743 0.644938
vn 1.444450 -4.810330 -1.605827
v 0.232657 0.140743 0.544456
vn 4.205564 -1.599768 1.739551
v 0.303305 0.200272 0.593116
vn -1.007160 -3.468085 2.724138
v 0.125277 0.141600 0.645885
vn -0.931355 -1.472980 5.677497
v 0.110877 0.150710 0.647519
vn 0.096676 -4.423723 -4.436845
v 0.231089 0.141600 0.543478
vn 2.953602 -1.958753 -2.022283
v 0.303305 0.200272 0.492432
vn -0.241709 -5.486799 -1.931484
v 0.131350 0.140743 0.544456
vn -1.389885 -4.449605 -2.334655
v 0.125277 0.141600 0.543478
vn -0.319617 -2.324619 -5.434773
v 0.193306 0.202052 0.490638
vn 1.437854 -1.607983 -4.930143
v 0.301047 0.202052 0.490638
vn -1.973010 0.361474 5.766684
v 0.108389 0.262030 0.646984
vn -2.584485 -2.258562 2.604091
v 0.108389 0.151019 0.646984
vn -3.136331 0.285166 5.404721
v 0.107828 0.263110 0.646635
vn -4.348496 -1.605114 2.516365
v 0.107828 0.151851 0.646635
vn -4.458148 0.481026 3.921659
v 0.107816 0.263120 0.646626
vn -5.758918 0.749351 1.341005
v 0.107811 0.263123 0.646617
vn -4.880513 2.179121 -1.628150
v 0.108002 0.263841 0.542708
vn -5.776630 0.748445 -1.311288
v 0.107811 0.263123 0.542753
vn -4.729096 -0.983612 2.331242
v 0.107816 0.151879 0.646626
vn -5.945447 -0.325001 1.193096
v 0.107811 0.151903 0.646617
vn -4.898752 0.405530 -3.591519
v 0.107816 0.263120 0.542744
vn -1.453487 2.638021 -2.250553
v 0.169275 0.332666 0.489894
vn -4.880393 1.747979 -3.531408
v 0.168987 0.332035 0.489959
vn -3.880073 0.910695 -4.586747
v 0.168995 0.332029 0.489946
vn -4.924314 -1.047324 -2.183867
v 0.107816 0.151879 0.542744
vn -5.959031 -0.326436 -1.164363
v 0.107811 0.151903 0.542753
vn -3.746739 -0.086342 -5.018952
v 0.168995 0.217609 0.489946
vn -4.614240 -1.756334 -2.326283
v 0.107828 0.151851 0.542735
vn -3.016211 -2.770559 -2.409590
v 0.108389 0.151019 0.542360
vn -2.948359 -0.397531 -5.409102
v 0.169016 0.217570 0.489933
vn -1.487518 -1.312935 -5.645113
v 0.170520 0.215895 0.489592
vn -2.297830 -0.682742 -5.667450
v 0.169052 0.217528 0.489921
vn 4.955088 0.471375 2.250611
v 0.303305 0.301912 0.593116
vn 5.028652 0.474615 -2.193942
v 0.303305 0.301912 0.492432
vn 2.989078 1.324599 -2.761501
v 0.301047 0.310073 0.490638
vn 2.375244 2.179841 -2.898051
v 0.285821 0.330562 0.489592
vn 1.784919 3.763111 -2.507531
v 0.283726 0.332300 0.489910
vn 0.440771 3.724018 -2.814878
v 0.282357 0.332666 0.489894
vn 0.361197 -0.048448 -6.271926
v 0.285821 0.215895 0.489592
vn 0.614705 1.274196 -5.929316
v 0.284763 0.330972 0.489537
vn 0.117069 -0.204965 -6.269937
v 0.284763 0.215951 0.489537
vn -0.265593 0.575629 -6.196783
v 0.171122 0.330972 0.489537
vn -0.327091 -0.517602 -6.210929
v 0.171122 0.215951 0.489537
vn -0.958487 0.102314 -6.191955
v 0.170520 0.330562 0.489592
vn -1.648072 0.116880 -6.044322
v 0.169052 0.331981 0.489921
vn -2.595549 0.271793 -5.633692
v 0.169016 0.332012 0.489933
# 65 vertices, 0 vertices normals

f 1//1 2//2 3//3
f 1//1 4//4 5//5
f 1//1 3//3 4//4
f 1//1 6//6 2//2
f 1//1 5//5 6//6
f 2//2 7//7 8//8
f 2//2 8//8 3//3
f 2//2 6//6 7//7
f 7//7 9//9 10//10
f 7//7 10//10 11//11
f 7//7 11//11 8//8
f 7//7 6//6 12//12
f 7//7 12//12 9//9
f 9//9 13//13 10//10
f 9//9 12//12 14//14
f 9//9 14//14 15//15
f 9//9 15//15 13//13
f 10//10 13//13 16//16
f 10//10 16//16 11//11
f 13//13 17//17 16//16
f 13//13 15//15 18//18
f 13//13 18//18 17//17
f 4//4 3//3 19//19
f 4//4 20//20 21//21
f 4//4 19//19 20//20
f 4//4 21//21 5//5
f 3//3 8//8 22//22
f 3//3 22//22 19//19
f 8//8 11//11 23//23
f 8//8 23//23 22//22
f 20//20 24//24 25//25
f 20//20 19//19 26//26
f 20//20 26//26 24//24
f 20//20 25//25 21//21
f 24//24 26//26 27//27
f 24//24 27//27 28//28
f 24//24 29//29 25//25
f 24//24 28//28 29//29
f 11//11 30//30 31//31
f 11//11 16//16 30//30
f 11//11 31//31 23//23
f 30//30 16//16 17//17
f 30//30 17//17 32//32
f 30//30 32//32 33//33
f 30//30 33//33 31//31
f 17//17 34//34 32//32
f 17//17 35//35 34//34
f 17//17 36//36 37//37
f 17//17 37//37 35//35
f 17//17 18//18 36//36
f 32//32 34//34 38//38
f 32//32 38//38 33//33
f 34//34 35//35 39//39
f 34//34 39//39 38//38
f 35//35 37//37 39//39
f 36//36 40//40 37//37
f 36//36 18//18 41//41
f 36//36 41//41 42//42
f 36//36 43//43 40//40
f 36//36 42//42 43//43
f 40//40 44//44 45//45
f 40//40 45//45 37//37
f 40//40 43//43 46//46
f 40//40 46//46 44//44
f 37//37 45//45 39//39
f 19//19 22//22 26//26
f 22//22 23//23 31//31
f 22//22 31//31 27//27
f 22//22 27//27 26//26
f 31//31 33//33 47//47
f 31//31 48//48 27//27
f 31//31 47//47 48//48
f 33//33 38//38 44//44
f 33//33 44//44 47//47
f 38//38 39//39 45//45
f 38//38 45//45 44//44
f 27//27 48//48 28//28
f 48//48 47//47 49//49
f 48//48 50//50 28//28
f 48//48 51//51 50//50
f 48//48 49//49 51//51
f 47//47 44//44 46//46
f 47//47 46//46 49//49
f 52//52 6//6 5//5
f 52//52 53//53 6//6
f 52//52 21//21 53//53
f 52//52 5//5 21//21
f 6//6 53//53 54//54
f 6//6 54//54 55//55
f 6//6 55//55 12//12
f 12//12 55//55 56//56
f 12//12 56//56 14//14
f 14//14 56//56 57//57
f 14//14 57//57 15//15
f 15//15 57//57 18//18
f 53//53 21//21 25//25
f 53//53 25//25 29//29
f 53//53 29//29 54//54
f 54//54 29//29 58//58
f 54//54 58//58 55//55
f 55//55 59//59 56//56
f 55//55 58//58 60//60
f 55//55 60//60 59//59
f 59//59 57//57 56//56
f 59//59 60//60 61//61
f 59//59 61//61 57//57
f 57//57 61//61 41//41
f 57//57 41//41 18//18
f 29//29 60//60 58//58
f 29//29 28//28 60//60
f 60//60 28//28 62//62
f 60//60 62//62 61//61
f 63//63 61//61 62//62
f 63//63 41//41 61//61
f 63//63 64//64 41//41
f 63//63 50//50 51//51
f 63//63 62//62 50//50
f 63//63 51//51 64//64
f 41//41 64//64 65//65
f 41//41 65//65 43//43
f 41//41 43//43 42//42
f 64//64 51//51 49//49
f 64//64 49//49 65//65
f 65//65 49//49 46//46
f 65//65 46//46 43//43
f 28//28 50//50 62//62
# 126 faces, 0 coords texture

# End of File
