####
#
# OBJ File Generated by Meshlab
#
####
# Object step_8_link_7.obj
#
# Vertices: 56
# Faces: 108
#
####
vn 2.192655 2.736701 2.270644
v 0.504095 -0.079790 0.525257
vn 4.272138 0.260491 4.260926
v 0.503965 -0.080564 0.525489
vn 4.085881 -0.299174 4.358655
v 0.503965 -0.191426 0.525489
vn 2.744512 0.725771 5.468244
v 0.503291 -0.080408 0.525901
vn 1.620358 1.487794 5.507515
v 0.503262 -0.080393 0.525911
vn 0.396717 2.220207 5.182599
v 0.503234 -0.080385 0.525915
vn 2.674433 -1.438182 4.115603
v 0.504095 -0.192609 0.525257
vn 5.897892 0.147535 1.833675
v 0.622446 -0.057902 0.282570
vn -1.406633 4.983742 1.675597
v 0.390950 -0.079790 0.525257
vn 2.807642 4.269028 0.285266
v 0.622240 -0.054981 0.280119
vn -1.166793 6.007327 0.180801
v 0.447297 -0.054981 0.280119
vn 4.231969 3.178316 1.303077
v 0.622449 -0.055508 0.281545
vn 5.625322 1.082635 1.856060
v 0.622491 -0.056330 0.282199
vn 3.274889 0.008169 5.362210
v 0.503321 -0.080432 0.525883
vn 3.269464 -0.008608 5.365518
v 0.503321 -0.190874 0.525883
vn 2.352520 -0.600854 5.668791
v 0.503291 -0.190867 0.525901
vn 0.976956 -0.993643 5.907894
v 0.503262 -0.190857 0.525911
vn 0.261015 -0.807817 6.122891
v 0.503234 -0.190845 0.525915
vn -0.578863 2.211793 5.020761
v 0.390174 -0.080385 0.525915
vn 0.953888 -4.411309 2.800707
v 0.501695 -0.202439 0.519491
vn 3.435866 -2.611339 3.326908
v 0.505509 -0.199008 0.520824
vn 1.273046 -3.373010 5.128711
v 0.504218 -0.199020 0.521206
vn -1.526395 -4.073310 2.097223
v 0.400388 -0.202439 0.519491
vn -1.401495 -5.888458 0.186107
v 0.446661 -0.227715 0.281545
vn 2.943718 -3.385548 0.695115
v 0.622449 -0.227715 0.281545
vn 5.663727 -1.082471 1.806204
v 0.622491 -0.226821 0.282199
vn 5.848780 -0.293803 1.894969
v 0.622446 -0.225931 0.282570
vn -2.583306 -2.706698 2.596367
v 0.390950 -0.192609 0.525257
vn -0.178839 -2.132659 5.896972
v 0.390189 -0.190857 0.525911
vn -2.609620 -1.500771 3.181876
v 0.390174 -0.190845 0.525915
vn -2.620833 1.652358 2.103736
v 0.390168 -0.080385 0.525913
vn -3.329374 5.238300 -0.155896
v 0.390950 -0.079790 0.417722
vn -5.005452 2.322747 -0.337205
v 0.390168 -0.080385 0.418761
vn -3.794605 -0.680085 2.624757
v 0.390168 -0.190831 0.525913
vn -1.165585 4.165381 -2.216729
v 0.447297 -0.054981 0.118345
vn -2.503626 2.489900 -2.849321
v 0.446661 -0.055508 0.118090
vn -5.978305 -1.096519 -0.374695
v 0.390168 -0.190831 0.418761
vn -3.050982 0.801931 -3.262745
v 0.446350 -0.056330 0.117947
vn -5.185299 -3.213292 -0.373826
v 0.390950 -0.192609 0.417722
vn -3.803211 -4.897261 -0.087645
v 0.400388 -0.202439 0.418526
vn -1.556572 -2.586942 -2.085153
v 0.446661 -0.227715 0.118090
vn -5.937420 -1.657006 -0.617872
v 0.390174 -0.190845 0.418735
vn -2.968198 -0.792722 -3.272589
v 0.446350 -0.226821 0.117947
vn 3.004466 1.798640 -2.955004
v 0.622449 -0.055508 0.118090
vn 1.906490 3.199357 -1.692482
v 0.622240 -0.054981 0.118345
vn 6.051210 1.031372 0.256671
v 0.622693 -0.056137 0.280485
vn 6.172842 -0.654417 0.265989
v 0.622693 -0.226724 0.280485
vn 5.917289 0.914607 -0.784010
v 0.622693 -0.056137 0.118572
vn 0.260177 1.443658 -5.847004
v 0.620669 -0.056080 0.117716
vn 3.255034 0.369094 -4.019035
v 0.622491 -0.056330 0.117947
vn 0.310689 -0.223293 -6.246066
v 0.620669 -0.224516 0.117716
vn -0.097575 1.508429 -5.864775
v 0.450658 -0.056080 0.117716
vn 6.045266 -0.565894 -0.803398
v 0.622693 -0.226724 0.118572
vn 2.943460 -0.474749 -3.976794
v 0.622491 -0.226821 0.117947
vn 1.695004 -2.152983 -1.781314
v 0.622449 -0.227715 0.118090
vn -0.110471 -0.264296 -6.264319
v 0.450658 -0.224516 0.117716
# 56 vertices, 0 vertices normals

f 1//1 2//2 3//3
f 1//1 4//4 2//2
f 1//1 5//5 4//4
f 1//1 6//6 5//5
f 1//1 7//7 8//8
f 1//1 3//3 7//7
f 1//1 9//9 6//6
f 1//1 10//10 11//11
f 1//1 12//12 10//10
f 1//1 13//13 12//12
f 1//1 8//8 13//13
f 1//1 11//11 9//9
f 2//2 14//14 15//15
f 2//2 4//4 14//14
f 2//2 15//15 3//3
f 14//14 4//4 16//16
f 14//14 16//16 15//15
f 4//4 5//5 17//17
f 4//4 17//17 16//16
f 5//5 6//6 18//18
f 5//5 18//18 17//17
f 6//6 9//9 19//19
f 6//6 19//19 18//18
f 20//20 21//21 22//22
f 20//20 22//22 7//7
f 20//20 7//7 23//23
f 20//20 23//23 24//24
f 20//20 25//25 21//21
f 20//20 24//24 25//25
f 21//21 7//7 22//22
f 21//21 25//25 26//26
f 21//21 26//26 27//27
f 21//21 27//27 7//7
f 7//7 3//3 16//16
f 7//7 16//16 17//17
f 7//7 17//17 28//28
f 7//7 28//28 23//23
f 7//7 27//27 8//8
f 3//3 15//15 16//16
f 17//17 18//18 29//29
f 17//17 29//29 28//28
f 18//18 19//19 30//30
f 18//18 30//30 29//29
f 9//9 31//31 19//19
f 9//9 32//32 33//33
f 9//9 33//33 31//31
f 9//9 11//11 32//32
f 19//19 31//31 34//34
f 19//19 34//34 30//30
f 31//31 33//33 34//34
f 32//32 11//11 35//35
f 32//32 35//35 36//36
f 32//32 36//36 33//33
f 33//33 37//37 34//34
f 33//33 36//36 38//38
f 33//33 38//38 37//37
f 23//23 28//28 39//39
f 23//23 40//40 24//24
f 23//23 39//39 40//40
f 28//28 29//29 30//30
f 28//28 30//30 34//34
f 28//28 34//34 37//37
f 28//28 37//37 39//39
f 40//40 39//39 41//41
f 40//40 41//41 24//24
f 39//39 42//42 43//43
f 39//39 37//37 42//42
f 39//39 43//43 41//41
f 42//42 37//37 43//43
f 37//37 38//38 43//43
f 10//10 12//12 44//44
f 10//10 45//45 11//11
f 10//10 44//44 45//45
f 46//46 12//12 13//13
f 46//46 13//13 47//47
f 46//46 48//48 44//44
f 46//46 44//44 12//12
f 46//46 47//47 48//48
f 13//13 8//8 26//26
f 13//13 26//26 47//47
f 8//8 27//27 26//26
f 49//49 45//45 44//44
f 49//49 44//44 50//50
f 49//49 50//50 51//51
f 49//49 51//51 52//52
f 49//49 52//52 45//45
f 45//45 52//52 35//35
f 45//45 35//35 11//11
f 48//48 50//50 44//44
f 48//48 47//47 53//53
f 48//48 53//53 50//50
f 50//50 53//53 54//54
f 50//50 54//54 51//51
f 47//47 25//25 55//55
f 47//47 26//26 25//25
f 47//47 55//55 53//53
f 25//25 24//24 55//55
f 51//51 54//54 56//56
f 51//51 56//56 52//52
f 53//53 55//55 54//54
f 55//55 24//24 41//41
f 55//55 41//41 54//54
f 54//54 41//41 43//43
f 54//54 43//43 56//56
f 52//52 36//36 35//35
f 52//52 38//38 36//36
f 52//52 56//56 38//38
f 38//38 56//56 43//43
# 108 faces, 0 coords texture

# End of File
