####
#
# OBJ File Generated by Meshlab
#
####
# Object step_32_link_6.obj
#
# Vertices: 79
# Faces: 154
#
####
vn 2.715616 0.033581 5.663215
v 0.331053 0.084966 0.645576
vn 1.952436 0.047550 5.907065
v 0.329405 0.089044 0.646313
vn 1.136117 -0.380691 5.976365
v 0.329405 -0.016849 0.646313
vn 2.135782 1.174077 5.498527
v 0.328544 0.104443 0.646445
vn 1.491195 -1.134339 5.666645
v 0.331053 -0.020932 0.645576
vn 4.560023 -0.017288 2.795383
v 0.424665 -0.014506 0.598089
vn 4.290474 0.796244 2.502606
v 0.424665 0.097783 0.598089
vn 0.587200 0.152668 6.212564
v 0.327508 0.103886 0.646657
vn 0.536281 -0.040991 6.232326
v 0.327508 -0.002576 0.646657
vn 0.646870 3.066859 3.461361
v 0.327532 0.105181 0.646582
vn 3.097273 1.681872 5.154475
v 0.423807 0.099053 0.598250
vn 3.606233 2.900331 2.074124
v 0.423865 0.099905 0.597883
vn 0.290576 6.185486 0.895143
v 0.327241 0.105273 0.646156
vn -0.426280 3.049750 3.750776
v 0.216351 0.105181 0.646582
vn 2.207793 4.877985 2.038916
v 0.423264 0.100309 0.597840
vn 1.303335 6.021452 0.336086
v 0.423165 0.100392 0.597441
vn -1.466088 0.196688 5.878885
v 0.215987 0.103886 0.646657
vn 0.225450 6.251191 0.334472
v 0.327160 0.105313 0.645770
vn -2.255739 2.042888 1.643261
v 0.215076 0.105273 0.646156
vn 0.126063 6.273734 -0.153728
v 0.327160 0.105313 0.541735
vn -1.487759 5.840512 0.211197
v 0.215078 0.105313 0.645770
vn 0.349450 6.273302 0.018536
v 0.423137 0.100394 0.597426
vn 0.047034 6.263568 -0.467428
v 0.327241 0.105273 0.541057
vn 0.181142 6.254507 -0.374918
v 0.423137 0.100394 0.491369
vn -2.363282 2.079702 -1.492969
v 0.215076 0.105273 0.541057
vn -0.020663 6.243975 -0.695128
v 0.307173 0.100394 0.491369
vn -1.529922 5.848473 -0.124505
v 0.215078 0.105313 0.541735
vn 0.640720 -3.575323 4.124647
v 0.330586 -0.023395 0.644788
vn -1.254839 -3.732026 2.561915
v 0.228936 -0.023395 0.644788
vn -0.415615 -6.013135 0.976018
v 0.321133 -0.042561 0.596812
vn 2.339473 -3.128798 1.473062
v 0.423306 -0.042561 0.596812
vn 4.023148 -0.979532 2.638498
v 0.424480 -0.038520 0.598091
vn -2.338865 -2.493534 2.654276
v 0.225539 -0.020932 0.645576
vn -1.133721 -1.045894 5.876127
v 0.224394 -0.016849 0.646313
vn -2.122640 -0.580707 5.359946
v 0.215987 -0.002576 0.646657
vn -2.784868 0.320936 5.571572
v 0.215092 0.105237 0.646166
vn -4.522290 -0.866841 2.661567
v 0.215092 -0.001297 0.646166
vn -4.801332 -0.385996 2.449505
v 0.215076 -0.001227 0.646156
vn -6.258009 0.372058 0.087641
v 0.215070 0.105297 0.645795
vn -6.265857 -0.309632 0.030277
v 0.215070 -0.001167 0.645795
vn -4.280014 3.209168 0.261623
v 0.215071 0.105309 0.645782
vn -6.264365 0.331490 -0.045215
v 0.215070 0.105297 0.541714
vn -4.513683 3.115422 -0.140621
v 0.215071 0.105309 0.541724
vn -4.562566 -0.446126 -2.576428
v 0.215076 -0.001227 0.541057
vn -6.266052 -0.317371 -0.015906
v 0.215070 -0.001167 0.541714
vn -1.998598 0.962896 -5.564759
v 0.306730 0.099905 0.490692
vn -0.504950 3.132805 -3.426967
v 0.307136 0.100309 0.490674
vn -0.067990 6.237577 -0.752497
v 0.307157 0.100392 0.491356
vn -2.433352 -5.280792 -1.085354
v 0.228936 -0.023395 0.544113
vn -3.089401 -1.549895 3.100416
v 0.216351 -0.004039 0.646582
vn -4.681664 -2.603863 2.181132
v 0.216774 -0.004896 0.646494
vn -3.629308 -3.299216 -2.075114
v 0.225539 -0.020932 0.542985
vn -4.696189 -2.737484 -2.093041
v 0.216774 -0.004896 0.541045
vn -4.778754 -1.466137 2.434998
v 0.215118 -0.001377 0.646174
vn -5.500824 -2.288061 1.352592
v 0.215156 -0.001467 0.646181
vn -4.249548 -2.083641 -2.679214
v 0.216351 -0.004039 0.540900
vn -5.541765 -2.444789 -1.134161
v 0.215156 -0.001467 0.541057
vn -4.482928 -1.610291 -2.604272
v 0.215118 -0.001377 0.541054
vn -4.485609 -1.136481 -2.664677
v 0.215092 -0.001297 0.541054
vn -0.689279 -4.403475 -2.583304
v 0.321133 -0.042561 0.495872
vn -1.466516 -2.411319 -4.876415
v 0.317636 -0.038520 0.493760
vn -3.208573 -1.154802 -5.269206
v 0.215987 -0.002576 0.540775
vn -2.296268 -0.447185 -5.686466
v 0.306730 -0.010152 0.490692
vn -2.806074 -1.662773 -5.359385
v 0.308148 -0.014791 0.491118
vn -1.533817 -1.112567 -5.747947
v 0.308074 -0.013193 0.490682
vn -1.456189 -0.731148 -5.789466
v 0.307645 -0.011566 0.490507
vn 4.631328 0.677959 -2.341500
v 0.424665 0.097783 0.490999
vn 2.762784 5.534056 0.317018
v 0.423197 0.100380 0.597458
vn 2.696324 2.067727 -2.516118
v 0.423865 0.099905 0.490692
vn 2.877231 5.512603 -0.155905
v 0.423197 0.100380 0.491344
vn 1.148152 6.034667 -0.322907
v 0.423165 0.100392 0.491356
vn 1.675482 0.273001 -5.739547
v 0.423863 0.098058 0.490507
vn 3.724846 -0.336465 -3.061010
v 0.424665 -0.014506 0.490999
vn 1.539747 -0.198872 -5.806381
v 0.423863 -0.011566 0.490507
vn 1.028690 3.065760 -2.770827
v 0.423264 0.100309 0.490674
vn -0.553684 0.144829 -6.214869
v 0.307645 0.098058 0.490507
vn 1.955050 -2.982724 -1.615529
v 0.423306 -0.042561 0.495872
vn 2.753544 -1.122453 -2.735881
v 0.424480 -0.038520 0.493760
vn 0.580783 -0.710698 -6.185728
v 0.423807 -0.013193 0.490682
# 79 vertices, 0 vertices normals

f 1//1 2//2 3//3
f 1//1 4//4 2//2
f 1//1 5//5 6//6
f 1//1 3//3 5//5
f 1//1 7//7 4//4
f 1//1 6//6 7//7
f 2//2 4//4 8//8
f 2//2 8//8 9//9
f 2//2 9//9 3//3
f 4//4 10//10 8//8
f 4//4 7//7 11//11
f 4//4 11//11 12//12
f 4//4 12//12 10//10
f 10//10 13//13 14//14
f 10//10 14//14 8//8
f 10//10 12//12 15//15
f 10//10 15//15 16//16
f 10//10 16//16 13//13
f 8//8 14//14 17//17
f 8//8 17//17 9//9
f 13//13 18//18 19//19
f 13//13 19//19 14//14
f 13//13 16//16 18//18
f 18//18 20//20 21//21
f 18//18 21//21 19//19
f 18//18 16//16 22//22
f 18//18 22//22 20//20
f 23//23 20//20 24//24
f 23//23 25//25 20//20
f 23//23 24//24 26//26
f 23//23 26//26 25//25
f 20//20 25//25 27//27
f 20//20 27//27 21//21
f 20//20 22//22 24//24
f 28//28 5//5 29//29
f 28//28 29//29 30//30
f 28//28 31//31 32//32
f 28//28 32//32 5//5
f 28//28 30//30 31//31
f 5//5 3//3 33//33
f 5//5 33//33 29//29
f 5//5 32//32 6//6
f 3//3 9//9 34//34
f 3//3 34//34 33//33
f 9//9 17//17 35//35
f 9//9 35//35 34//34
f 14//14 19//19 17//17
f 17//17 36//36 37//37
f 17//17 19//19 36//36
f 17//17 37//37 35//35
f 36//36 19//19 38//38
f 36//36 38//38 37//37
f 19//19 39//39 40//40
f 19//19 41//41 39//39
f 19//19 21//21 41//41
f 19//19 40//40 38//38
f 39//39 41//41 42//42
f 39//39 42//42 40//40
f 41//41 21//21 43//43
f 41//41 43//43 42//42
f 21//21 27//27 43//43
f 25//25 42//42 43//43
f 25//25 43//43 27//27
f 25//25 44//44 45//45
f 25//25 45//45 42//42
f 25//25 46//46 44//44
f 25//25 47//47 46//46
f 25//25 48//48 47//47
f 25//25 26//26 48//48
f 42//42 45//45 40//40
f 29//29 33//33 49//49
f 29//29 49//49 30//30
f 33//33 34//34 50//50
f 33//33 51//51 52//52
f 33//33 50//50 51//51
f 33//33 52//52 49//49
f 34//34 35//35 50//50
f 51//51 50//50 53//53
f 51//51 53//53 52//52
f 50//50 35//35 54//54
f 50//50 55//55 56//56
f 50//50 54//54 55//55
f 50//50 56//56 53//53
f 35//35 37//37 54//54
f 55//55 54//54 57//57
f 55//55 57//57 56//56
f 54//54 37//37 58//58
f 54//54 58//58 57//57
f 37//37 38//38 59//59
f 37//37 59//59 58//58
f 38//38 40//40 45//45
f 38//38 44//44 59//59
f 38//38 45//45 44//44
f 49//49 52//52 60//60
f 49//49 60//60 30//30
f 52//52 53//53 56//56
f 52//52 56//56 61//61
f 52//52 61//61 60//60
f 56//56 62//62 63//63
f 56//56 57//57 58//58
f 56//56 58//58 62//62
f 56//56 64//64 61//61
f 56//56 65//65 64//64
f 56//56 66//66 65//65
f 56//56 63//63 66//66
f 62//62 58//58 59//59
f 62//62 59//59 63//63
f 59//59 44//44 63//63
f 44//44 46//46 63//63
f 7//7 12//12 11//11
f 7//7 67//67 12//12
f 7//7 6//6 67//67
f 12//12 68//68 15//15
f 12//12 67//67 69//69
f 12//12 69//69 70//70
f 12//12 70//70 68//68
f 15//15 68//68 16//16
f 68//68 70//70 16//16
f 16//16 70//70 71//71
f 16//16 71//71 22//22
f 22//22 71//71 24//24
f 67//67 72//72 69//69
f 67//67 6//6 73//73
f 67//67 73//73 74//74
f 67//67 74//74 72//72
f 72//72 75//75 69//69
f 72//72 74//74 76//76
f 72//72 76//76 75//75
f 69//69 75//75 70//70
f 75//75 71//71 70//70
f 75//75 24//24 71//71
f 75//75 76//76 47//47
f 75//75 47//47 24//24
f 24//24 47//47 26//26
f 31//31 77//77 32//32
f 31//31 30//30 77//77
f 32//32 77//77 78//78
f 32//32 78//78 6//6
f 6//6 78//78 73//73
f 77//77 30//30 60//60
f 77//77 60//60 78//78
f 78//78 79//79 73//73
f 78//78 60//60 61//61
f 78//78 61//61 79//79
f 73//73 79//79 74//74
f 79//79 61//61 65//65
f 79//79 65//65 74//74
f 74//74 65//65 66//66
f 74//74 66//66 76//76
f 76//76 46//46 47//47
f 76//76 66//66 63//63
f 76//76 63//63 46//46
f 47//47 48//48 26//26
f 61//61 64//64 65//65
# 154 faces, 0 coords texture

# End of File
