####
#
# OBJ File Generated by Meshlab
#
####
# Object step_28_link_5.obj
#
# Vertices: 90
# Faces: 176
#
####
vn 0.361222 0.686438 6.135398
v 0.149841 0.087284 0.742304
vn 1.108778 0.930766 5.869040
v 0.163731 0.095936 0.739904
vn -0.231166 2.076348 5.904580
v 0.061494 0.095936 0.739904
vn 0.483199 -2.009882 5.338082
v 0.149841 -0.013446 0.742304
vn 1.877076 -0.691466 5.813104
v 0.163731 -0.006610 0.739904
vn -2.542691 1.189947 2.347491
v 0.048581 0.087284 0.742304
vn 2.899136 1.088901 5.293090
v 0.172016 0.105469 0.736378
vn 2.135465 3.003528 2.925282
v 0.172001 0.105479 0.736383
vn 1.414233 3.379675 2.822521
v 0.171985 0.105485 0.736387
vn 0.641505 3.714395 2.919458
v 0.171968 0.105487 0.736390
vn 0.158027 3.698050 4.433964
v 0.171952 0.105487 0.736392
vn -0.126457 3.839902 4.387119
v 0.066677 0.105487 0.736392
vn 2.641594 -0.044496 5.696595
v 0.172016 0.003274 0.736378
vn 3.644566 1.578568 4.188946
v 0.347688 0.033097 0.648325
vn 1.148836 5.408744 -1.888210
v 0.172001 0.105479 0.634658
vn 0.825105 5.509966 -1.697546
v 0.171985 0.105485 0.634666
vn 4.435265 2.729272 2.931235
v 0.347981 0.033748 0.647448
vn 3.753351 3.812953 1.331225
v 0.348128 0.034171 0.646767
vn 0.258179 6.133362 -0.777250
v 0.171968 0.105487 0.634673
vn -0.878928 4.274890 2.580383
v 0.066668 0.105487 0.736390
vn -2.381962 4.191601 -2.306702
v 0.066654 0.105479 0.634658
vn 2.642470 2.862552 -1.972447
v 0.348128 0.034171 0.542404
vn -0.212061 4.514382 -4.304891
v 0.236652 0.034171 0.542404
vn -1.806722 4.931518 -1.515534
v 0.066660 0.105485 0.634666
vn -0.619201 6.058872 -0.679133
v 0.066668 0.105487 0.634673
vn 1.894304 -1.801288 5.708314
v 0.161738 -0.009035 0.739848
vn -2.132914 -1.440310 2.056747
v 0.048581 -0.013446 0.742304
vn -1.003701 -5.020078 1.789558
v 0.211516 -0.107120 0.653138
vn 1.377837 -3.904937 2.387705
v 0.314139 -0.107120 0.653138
vn 2.852975 -3.363511 2.598443
v 0.326056 -0.100383 0.651138
vn 2.712368 -0.175434 5.663841
v 0.172029 0.003236 0.736370
vn 2.438496 -1.733678 5.508201
v 0.327836 -0.097476 0.651314
vn 3.739521 -1.778226 2.229830
v 0.347933 -0.079087 0.647905
vn 4.419852 -0.393657 2.733998
v 0.348199 -0.076922 0.647997
vn 3.019143 -0.126780 5.490399
v 0.347688 -0.075511 0.648325
vn -4.388807 4.490773 0.113987
v 0.066654 0.105479 0.736383
vn -3.968385 1.404691 -2.052498
v 0.048581 0.087284 0.641979
vn -2.730200 4.613568 1.625811
v 0.066660 0.105485 0.736387
vn -2.830162 0.616372 -5.575041
v 0.066655 0.105371 0.634621
vn -1.436738 0.536099 -5.863272
v 0.236091 0.032812 0.541975
vn -2.867638 0.990621 -5.480341
v 0.066651 0.105405 0.634628
vn -2.909200 1.622669 -5.236964
v 0.066648 0.105433 0.634635
vn -2.913892 2.444051 -4.723354
v 0.066648 0.105454 0.634643
vn -2.798526 3.383432 -3.740175
v 0.066650 0.105469 0.634651
vn -3.562659 -1.749495 -1.782305
v 0.048581 -0.013446 0.641979
vn -2.938101 0.046002 -5.551708
v 0.211516 -0.005324 0.551836
vn -2.590805 0.118182 -5.703272
v 0.218025 0.002558 0.548561
vn -2.577592 0.250672 -5.709755
v 0.219110 0.005317 0.548169
vn -0.778928 2.272906 -5.268466
v 0.236519 0.033748 0.542029
vn -1.490743 -2.932651 -2.465446
v 0.211516 -0.107120 0.551836
vn 4.794751 0.270858 2.606889
v 0.348199 0.032110 0.647997
vn 5.896513 1.087021 1.027833
v 0.348160 0.034098 0.646752
vn 3.204594 0.070078 -3.119140
v 0.348199 0.032110 0.541988
vn 5.559504 2.176396 0.901181
v 0.348152 0.034135 0.646742
vn 5.147684 3.576182 0.068676
v 0.348138 0.034159 0.646730
vn 5.140023 3.591507 -0.010299
v 0.348138 0.034159 0.542556
vn 6.093517 0.885990 -0.572752
v 0.348160 0.034098 0.542498
vn 5.735759 2.287877 -0.151120
v 0.348152 0.034135 0.542527
vn 0.108749 0.096684 -6.278877
v 0.347605 0.032812 0.541975
vn 0.146002 0.196628 -6.275593
v 0.347688 0.033097 0.541983
vn 0.240626 0.289285 -6.264288
v 0.347803 0.033340 0.541995
vn 0.384878 0.402551 -6.240995
v 0.347901 0.033557 0.542010
vn 2.103709 1.646884 -4.196136
v 0.347981 0.033748 0.542029
vn 6.113916 0.461703 -1.160713
v 0.348160 0.034044 0.542467
vn 3.177208 -0.208880 -3.019081
v 0.348199 -0.076922 0.541988
vn 0.060528 -0.027545 -6.282227
v 0.347605 -0.076559 0.541975
vn -0.045565 0.263141 -6.276882
v 0.236388 0.033097 0.541983
vn -0.210878 0.434156 -6.258530
v 0.236432 0.033340 0.541995
vn -0.519681 0.672840 -6.196281
v 0.236475 0.033557 0.542010
vn 0.901955 -4.395442 -2.256524
v 0.314139 -0.107120 0.551836
vn 4.380249 -4.421483 0.597944
v 0.329872 -0.096715 0.650409
vn 1.889617 -3.446907 -2.733049
v 0.326056 -0.100383 0.548169
vn 2.168641 -3.137913 -3.007327
v 0.329872 -0.096715 0.546954
vn 2.616694 -1.364898 -2.464199
v 0.347933 -0.079087 0.542003
vn 0.003744 -3.002691 -5.519240
v 0.323186 -0.101107 0.548561
vn -1.361952 -1.428569 -5.586475
v 0.218025 -0.101107 0.548561
vn -0.954000 -1.499542 -5.745948
v 0.219110 -0.100383 0.548169
vn -0.212622 -1.691358 -6.036055
v 0.223751 -0.096715 0.546954
vn 0.188331 -1.786842 -6.006515
v 0.345882 -0.080455 0.542251
vn 1.885205 -2.610066 -4.067775
v 0.347334 -0.079624 0.542055
vn -0.202519 -1.488707 -6.090734
v 0.235540 -0.080455 0.542251
vn -0.629426 -0.774032 -6.122716
v 0.235850 -0.079624 0.542055
vn -0.839939 -0.209125 -6.135571
v 0.235958 -0.079087 0.542003
vn -0.259319 -0.019988 -6.271396
v 0.236091 -0.076559 0.541975
vn -2.171443 0.108805 -5.883594
v 0.234663 0.028212 0.542400
vn -1.245406 -0.723877 -5.996648
v 0.234663 -0.080855 0.542400
vn -1.521019 0.117932 -6.009443
v 0.236049 0.032475 0.541978
vn -1.713918 0.047549 -6.030023
v 0.236005 0.032110 0.541988
vn -1.542009 -0.008494 -6.082963
v 0.236005 -0.076922 0.541988
vn -0.810973 -0.026315 -6.210016
v 0.236049 -0.076734 0.541978
# 90 vertices, 0 vertices normals

f 1//1 2//2 3//3
f 1//1 4//4 5//5
f 1//1 5//5 2//2
f 1//1 6//6 4//4
f 1//1 3//3 6//6
f 2//2 7//7 8//8
f 2//2 8//8 9//9
f 2//2 9//9 10//10
f 2//2 10//10 11//11
f 2//2 11//11 12//12
f 2//2 5//5 13//13
f 2//2 13//13 7//7
f 2//2 12//12 3//3
f 7//7 13//13 14//14
f 7//7 14//14 8//8
f 8//8 15//15 16//16
f 8//8 16//16 9//9
f 8//8 14//14 17//17
f 8//8 17//17 18//18
f 8//8 18//18 15//15
f 9//9 16//16 19//19
f 9//9 19//19 10//10
f 10//10 19//19 20//20
f 10//10 20//20 11//11
f 11//11 20//20 12//12
f 15//15 21//21 16//16
f 15//15 18//18 22//22
f 15//15 22//22 23//23
f 15//15 23//23 21//21
f 16//16 21//21 24//24
f 16//16 24//24 19//19
f 19//19 24//24 25//25
f 19//19 25//25 20//20
f 4//4 26//26 5//5
f 4//4 6//6 27//27
f 4//4 27//27 28//28
f 4//4 29//29 26//26
f 4//4 28//28 29//29
f 26//26 29//29 30//30
f 26//26 30//30 5//5
f 5//5 31//31 13//13
f 5//5 30//30 32//32
f 5//5 32//32 33//33
f 5//5 33//33 34//34
f 5//5 34//34 35//35
f 5//5 35//35 31//31
f 31//31 35//35 13//13
f 13//13 35//35 14//14
f 6//6 3//3 12//12
f 6//6 36//36 37//37
f 6//6 38//38 36//36
f 6//6 20//20 38//38
f 6//6 12//12 20//20
f 6//6 37//37 27//27
f 36//36 38//38 24//24
f 36//36 21//21 37//37
f 36//36 24//24 21//21
f 38//38 20//20 25//25
f 38//38 25//25 24//24
f 37//37 39//39 40//40
f 37//37 41//41 39//39
f 37//37 42//42 41//41
f 37//37 43//43 42//42
f 37//37 44//44 43//43
f 37//37 21//21 44//44
f 37//37 45//45 27//27
f 37//37 46//46 45//45
f 37//37 47//47 46//46
f 37//37 48//48 47//47
f 37//37 40//40 48//48
f 39//39 41//41 40//40
f 41//41 42//42 40//40
f 42//42 43//43 49//49
f 42//42 49//49 40//40
f 43//43 44//44 49//49
f 44//44 21//21 49//49
f 21//21 23//23 49//49
f 27//27 45//45 28//28
f 45//45 46//46 50//50
f 45//45 50//50 28//28
f 51//51 14//14 35//35
f 51//51 17//17 14//14
f 51//51 52//52 17//17
f 51//51 53//53 52//52
f 51//51 34//34 53//53
f 51//51 35//35 34//34
f 17//17 52//52 54//54
f 17//17 54//54 18//18
f 18//18 54//54 55//55
f 18//18 55//55 56//56
f 18//18 56//56 22//22
f 52//52 53//53 57//57
f 52//52 57//57 58//58
f 52//52 58//58 54//54
f 54//54 58//58 56//56
f 54//54 56//56 55//55
f 53//53 59//59 60//60
f 53//53 60//60 61//61
f 53//53 61//61 62//62
f 53//53 62//62 63//63
f 53//53 63//63 22//22
f 53//53 22//22 64//64
f 53//53 64//64 57//57
f 53//53 34//34 65//65
f 53//53 65//65 66//66
f 53//53 66//66 59//59
f 59//59 66//66 40//40
f 59//59 40//40 67//67
f 59//59 67//67 60//60
f 60//60 67//67 68//68
f 60//60 68//68 61//61
f 61//61 68//68 69//69
f 61//61 69//69 62//62
f 62//62 69//69 49//49
f 62//62 49//49 63//63
f 63//63 49//49 23//23
f 63//63 23//23 22//22
f 22//22 57//57 64//64
f 22//22 58//58 57//57
f 22//22 56//56 58//58
f 29//29 70//70 30//30
f 29//29 28//28 70//70
f 30//30 71//71 33//33
f 30//30 33//33 32//32
f 30//30 70//70 72//72
f 30//30 72//72 71//71
f 71//71 72//72 73//73
f 71//71 73//73 33//33
f 33//33 73//73 74//74
f 33//33 74//74 65//65
f 33//33 65//65 34//34
f 70//70 75//75 72//72
f 70//70 28//28 50//50
f 70//70 50//50 76//76
f 70//70 76//76 75//75
f 75//75 76//76 77//77
f 75//75 77//77 72//72
f 72//72 77//77 78//78
f 72//72 78//78 73//73
f 73//73 79//79 80//80
f 73//73 80//80 74//74
f 73//73 78//78 81//81
f 73//73 81//81 79//79
f 79//79 81//81 82//82
f 79//79 82//82 80//80
f 80//80 82//82 83//83
f 80//80 83//83 74//74
f 74//74 66//66 65//65
f 74//74 83//83 66//66
f 66//66 83//83 84//84
f 66//66 84//84 40//40
f 46//46 47//47 76//76
f 46//46 76//76 50//50
f 47//47 48//48 85//85
f 47//47 85//85 86//86
f 47//47 86//86 76//76
f 48//48 87//87 85//85
f 48//48 40//40 87//87
f 85//85 88//88 89//89
f 85//85 87//87 88//88
f 85//85 89//89 86//86
f 88//88 87//87 90//90
f 88//88 90//90 89//89
f 87//87 40//40 84//84
f 87//87 84//84 90//90
f 40//40 68//68 67//67
f 40//40 69//69 68//68
f 40//40 49//49 69//69
f 76//76 86//86 77//77
f 77//77 86//86 78//78
f 78//78 86//86 81//81
f 86//86 82//82 81//81
f 86//86 83//83 82//82
f 86//86 89//89 83//83
f 83//83 89//89 90//90
f 83//83 90//90 84//84
# 176 faces, 0 coords texture

# End of File
