####
#
# OBJ File Generated by Meshlab
#
####
# Object step_48_link_6.obj
#
# Vertices: 74
# Faces: 144
#
####
vn 1.955056 1.198574 4.514998
v 0.163371 0.314372 0.623063
vn 1.771475 -1.982574 2.378115
v 0.163371 0.212526 0.623063
vn 5.427820 -1.030347 1.373344
v 0.205011 0.289501 0.563867
vn -1.930045 1.580995 4.337009
v 0.061928 0.314372 0.623063
vn 2.308183 2.269878 1.521547
v 0.205011 0.391860 0.563867
vn -0.995741 4.659747 2.771292
v 0.103067 0.391860 0.563867
vn 1.751359 -5.429647 0.578595
v 0.160221 0.209820 0.614552
vn 4.818045 -3.847101 -0.145332
v 0.163371 0.212526 0.521549
vn -1.374094 -2.149310 3.428639
v 0.061928 0.212526 0.623063
vn 2.542774 -4.808518 -0.535458
v 0.160221 0.209820 0.511223
vn -2.454514 -3.072750 1.786620
v 0.055011 0.209820 0.614552
vn 5.465581 -2.877340 -0.891086
v 0.200158 0.284256 0.446753
vn 5.729470 -1.437740 -0.612450
v 0.205011 0.289501 0.461693
vn 1.354813 -5.533303 -1.478739
v 0.154403 0.211086 0.494189
vn 1.929255 -4.599893 -2.557948
v 0.155844 0.214035 0.487626
vn 5.136726 -2.076926 -1.653276
v 0.193005 0.281799 0.414465
vn -0.568211 -6.211865 -0.141698
v 0.055011 0.209820 0.511223
vn 5.467019 -2.826872 -0.992552
v 0.198979 0.283764 0.441497
vn -2.000978 -5.062030 -0.880384
v 0.048925 0.211086 0.494189
vn -2.305727 -3.760347 -2.695216
v 0.046395 0.214035 0.487626
vn -0.905012 -4.124190 -4.483959
v 0.080433 0.282831 0.412062
vn 3.792297 -2.464319 -2.679820
v 0.192836 0.281829 0.413998
vn 1.532957 -4.004670 -4.164921
v 0.191558 0.282831 0.412062
vn -4.324726 1.647695 3.741903
v 0.056361 0.315656 0.616558
vn -4.200147 2.163526 3.305223
v 0.055011 0.316428 0.614552
vn -4.510719 -1.249329 3.879227
v 0.056361 0.210867 0.616558
vn -5.483528 0.664190 2.737992
v 0.051876 0.315205 0.609580
vn -5.251959 -1.549207 2.206849
v 0.051876 0.211906 0.609580
vn -4.791171 1.917496 1.694797
v 0.046097 0.325235 0.593014
vn -4.399987 3.546523 2.283830
v 0.046569 0.327509 0.590440
vn -2.540866 5.012243 2.030427
v 0.093132 0.392629 0.552142
vn -5.350100 -1.791902 0.661077
v 0.046097 0.214223 0.593014
vn -4.952643 2.794326 1.285844
v 0.046577 0.327568 0.590356
vn -6.092836 0.431618 -0.756632
v 0.046097 0.325235 0.487897
vn -5.370836 2.765338 0.713028
v 0.046588 0.327612 0.590283
vn -5.978668 0.744220 -1.088582
v 0.046577 0.327568 0.486360
vn -4.339828 4.097234 1.648297
v 0.080274 0.396356 0.521537
vn -5.657658 2.732960 0.006005
v 0.046602 0.327641 0.590221
vn -5.726146 1.262453 -1.164641
v 0.046588 0.327612 0.486331
vn -4.862588 3.767566 0.737758
v 0.080372 0.397538 0.518107
vn -4.072971 4.214330 0.416961
v 0.080382 0.397569 0.518009
vn -5.665056 2.717489 -0.015550
v 0.046602 0.327641 0.486313
vn -5.598976 -0.511541 -2.620469
v 0.046577 0.216617 0.486360
vn -4.703006 -2.104390 -1.252193
v 0.046097 0.214223 0.487897
vn -5.741027 -0.112314 -2.531449
v 0.046588 0.216684 0.486331
vn -5.154180 1.911305 -1.428574
v 0.080382 0.397569 0.411513
vn -2.697187 -1.642094 -3.946558
v 0.080382 0.283507 0.411513
vn -4.841529 -3.666953 1.567915
v 0.053020 0.210744 0.610609
vn -3.465030 -4.235564 0.695217
v 0.048925 0.211086 0.598191
vn -2.280291 -2.872149 -4.336614
v 0.080372 0.283450 0.411554
vn 0.422274 6.218977 0.558072
v 0.191408 0.397470 0.519722
vn 1.479944 6.013083 0.231765
v 0.191577 0.397586 0.517925
vn 4.320705 2.641979 -0.413033
v 0.205011 0.391860 0.461693
vn 1.104568 6.053497 0.118660
v 0.191562 0.397592 0.517856
vn -2.450928 4.885290 0.940499
v 0.080673 0.397470 0.519722
vn 3.434485 2.491569 -2.040350
v 0.191577 0.397586 0.411488
vn 1.315684 2.568695 -2.553020
v 0.191562 0.397592 0.411476
vn -0.965849 6.105257 0.122093
v 0.080415 0.397592 0.517856
vn 5.704678 1.320487 -1.607699
v 0.193005 0.396019 0.414465
vn 5.755563 0.165546 -2.469896
v 0.192836 0.395671 0.413998
vn 5.694503 0.450094 -2.561699
v 0.191590 0.397569 0.411513
vn 2.656389 -1.693215 -4.031066
v 0.191590 0.283507 0.411513
vn 2.609585 -1.074650 -4.344329
v 0.191577 0.283560 0.411488
vn 1.755855 -0.521470 -5.544821
v 0.191562 0.283609 0.411476
vn 0.219502 1.921907 -5.508474
v 0.191545 0.397590 0.411474
vn -0.191294 1.937002 -5.511888
v 0.080435 0.397590 0.411474
vn 0.352333 -0.100483 -6.254693
v 0.191545 0.283651 0.411474
vn -1.218108 2.625001 -2.628352
v 0.080415 0.397592 0.411476
vn 2.326916 -2.900307 -4.259507
v 0.191599 0.283450 0.411554
vn -2.510251 -1.078831 -4.523196
v 0.080397 0.283560 0.411488
vn -1.583369 -0.529742 -5.671296
v 0.080415 0.283609 0.411476
vn -0.304999 -0.102884 -6.260420
v 0.080435 0.283651 0.411474
vn -2.578564 5.166075 0.243129
v 0.080397 0.397586 0.517925
vn -3.197975 2.505538 -2.052841
v 0.080397 0.397586 0.411488
# 74 vertices, 0 vertices normals

f 1//1 2//2 3//3
f 1//1 4//4 2//2
f 1//1 5//5 6//6
f 1//1 3//3 5//5
f 1//1 6//6 4//4
f 2//2 7//7 8//8
f 2//2 8//8 3//3
f 2//2 4//4 9//9
f 2//2 9//9 7//7
f 7//7 10//10 8//8
f 7//7 9//9 11//11
f 7//7 11//11 10//10
f 8//8 10//10 12//12
f 8//8 13//13 3//3
f 8//8 12//12 13//13
f 10//10 14//14 15//15
f 10//10 15//15 16//16
f 10//10 11//11 17//17
f 10//10 17//17 14//14
f 10//10 18//18 12//12
f 10//10 16//16 18//18
f 14//14 17//17 19//19
f 14//14 19//19 15//15
f 15//15 19//19 20//20
f 15//15 20//20 21//21
f 15//15 22//22 16//16
f 15//15 23//23 22//22
f 15//15 21//21 23//23
f 4//4 24//24 9//9
f 4//4 25//25 24//24
f 4//4 6//6 25//25
f 24//24 25//25 26//26
f 24//24 26//26 9//9
f 25//25 27//27 28//28
f 25//25 29//29 27//27
f 25//25 30//30 29//29
f 25//25 11//11 26//26
f 25//25 28//28 11//11
f 25//25 6//6 31//31
f 25//25 31//31 30//30
f 27//27 29//29 32//32
f 27//27 32//32 28//28
f 29//29 30//30 33//33
f 29//29 33//33 34//34
f 29//29 34//34 32//32
f 30//30 31//31 33//33
f 33//33 35//35 36//36
f 33//33 36//36 34//34
f 33//33 31//31 37//37
f 33//33 37//37 35//35
f 35//35 38//38 39//39
f 35//35 39//39 36//36
f 35//35 37//37 40//40
f 35//35 40//40 41//41
f 35//35 41//41 38//38
f 38//38 42//42 39//39
f 38//38 41//41 42//42
f 34//34 36//36 43//43
f 34//34 44//44 32//32
f 34//34 43//43 44//44
f 36//36 39//39 45//45
f 36//36 45//45 43//43
f 39//39 42//42 46//46
f 39//39 46//46 47//47
f 39//39 47//47 45//45
f 42//42 41//41 46//46
f 9//9 26//26 11//11
f 11//11 48//48 49//49
f 11//11 28//28 48//48
f 11//11 49//49 17//17
f 48//48 28//28 49//49
f 28//28 32//32 49//49
f 49//49 32//32 19//19
f 49//49 19//19 17//17
f 32//32 44//44 19//19
f 19//19 44//44 20//20
f 20//20 44//44 50//50
f 20//20 50//50 21//21
f 44//44 43//43 47//47
f 44//44 47//47 50//50
f 43//43 45//45 47//47
f 5//5 51//51 6//6
f 5//5 52//52 51//51
f 5//5 53//53 52//52
f 5//5 3//3 53//53
f 51//51 52//52 54//54
f 51//51 54//54 55//55
f 51//51 55//55 6//6
f 52//52 53//53 56//56
f 52//52 56//56 54//54
f 54//54 56//56 57//57
f 54//54 57//57 58//58
f 54//54 58//58 55//55
f 53//53 59//59 56//56
f 53//53 3//3 13//13
f 53//53 13//13 59//59
f 60//60 59//59 16//16
f 60//60 61//61 59//59
f 60//60 22//22 62//62
f 60//60 16//16 22//22
f 60//60 62//62 61//61
f 59//59 61//61 56//56
f 59//59 13//13 16//16
f 61//61 62//62 63//63
f 61//61 63//63 56//56
f 56//56 63//63 64//64
f 56//56 64//64 57//57
f 57//57 65//65 66//66
f 57//57 64//64 67//67
f 57//57 67//67 65//65
f 57//57 68//68 58//58
f 57//57 66//66 68//68
f 65//65 67//67 66//66
f 13//13 12//12 18//18
f 13//13 18//18 16//16
f 22//22 23//23 69//69
f 22//22 69//69 62//62
f 23//23 21//21 69//69
f 69//69 21//21 50//50
f 69//69 50//50 47//47
f 69//69 47//47 62//62
f 62//62 47//47 70//70
f 62//62 70//70 63//63
f 63//63 70//70 71//71
f 63//63 71//71 64//64
f 64//64 71//71 72//72
f 64//64 72//72 67//67
f 67//67 72//72 66//66
f 6//6 55//55 31//31
f 31//31 55//55 37//37
f 37//37 55//55 40//40
f 55//55 41//41 40//40
f 55//55 73//73 41//41
f 55//55 58//58 73//73
f 41//41 73//73 46//46
f 73//73 58//58 74//74
f 73//73 74//74 46//46
f 58//58 68//68 74//74
f 46//46 74//74 70//70
f 46//46 70//70 47//47
f 74//74 68//68 71//71
f 74//74 71//71 70//70
f 68//68 66//66 72//72
f 68//68 72//72 71//71
# 144 faces, 0 coords texture

# End of File
