####
#
# OBJ File Generated by Meshlab
#
####
# Object step_10_link_7.obj
#
# Vertices: 45
# Faces: 86
#
####
vn 3.746008 1.550615 3.369073
v 0.498705 -0.083538 0.524249
vn 0.978047 2.643715 2.848543
v 0.494434 -0.080520 0.526133
vn 4.085618 -0.737084 3.892425
v 0.498705 -0.189196 0.524249
vn 5.801189 0.519650 2.005860
v 0.610744 -0.073218 0.282524
vn 3.027738 2.900997 0.517415
v 0.610911 -0.072050 0.281535
vn 1.266168 -2.472254 3.172812
v 0.494434 -0.195443 0.526133
vn -1.378815 2.372768 2.174795
v 0.380079 -0.080520 0.526133
vn -0.466482 6.241938 0.061672
v 0.432557 -0.072050 0.281535
vn 4.232353 -2.467429 1.762527
v 0.610744 -0.247950 0.282524
vn -1.307806 -2.641640 2.708622
v 0.380079 -0.195443 0.526133
vn -1.054202 -5.971065 0.489138
v 0.431733 -0.248147 0.282272
vn 1.732560 -5.472013 0.918303
v 0.610557 -0.248147 0.282272
vn -3.962617 1.654513 2.607608
v 0.379468 -0.081500 0.526036
vn -3.653886 0.829429 3.012715
v 0.379376 -0.081850 0.526050
vn -1.843522 0.279880 5.828448
v 0.379198 -0.082938 0.526060
vn -3.254483 4.581487 -0.261521
v 0.380079 -0.080520 0.418248
vn -5.670880 2.371606 -0.419573
v 0.379468 -0.081500 0.418564
vn -6.077013 1.355143 -0.508251
v 0.379376 -0.081850 0.418567
vn -4.174071 0.461983 4.180839
v 0.379150 -0.083067 0.526045
vn -5.672754 0.421063 1.622688
v 0.379142 -0.083078 0.526034
vn -6.158393 0.559169 -0.508441
v 0.379142 -0.083078 0.418638
vn -2.126109 0.174339 5.820002
v 0.379168 -0.083058 0.526054
vn -1.751727 -0.321743 5.875545
v 0.379198 -0.193443 0.526060
vn -2.098238 -0.190454 5.833284
v 0.379168 -0.193350 0.526054
vn -4.090436 -0.505252 4.288400
v 0.379150 -0.193347 0.526045
vn -5.640318 -0.507775 1.630385
v 0.379142 -0.193340 0.526034
vn -1.080258 3.605139 -2.447923
v 0.432557 -0.072050 0.117582
vn -2.644206 1.504074 -2.691415
v 0.431261 -0.073218 0.117251
vn -6.153128 -0.598132 -0.471107
v 0.379142 -0.193340 0.418638
vn -3.221536 -1.694026 2.477459
v 0.379468 -0.194878 0.526036
vn -3.203244 -5.167055 0.309108
v 0.431261 -0.247950 0.282524
vn -1.358193 -0.354883 6.123639
v 0.379376 -0.194290 0.526050
vn -5.334220 -2.704973 -0.239977
v 0.379468 -0.194878 0.418564
vn -2.213083 -1.818608 -2.184580
v 0.431261 -0.247950 0.117251
vn 4.219468 -2.773176 0.307030
v 0.610911 -0.248013 0.281535
vn 1.845239 1.961762 -1.518209
v 0.610911 -0.072050 0.117582
vn 2.642489 0.589129 -4.486747
v 0.610744 -0.073218 0.117251
vn 3.938756 -2.496926 -0.939023
v 0.610911 -0.248013 0.117582
vn 0.442476 0.288751 -6.212933
v 0.610123 -0.074062 0.117139
vn 2.386971 -1.655236 -3.651229
v 0.610744 -0.247950 0.117251
vn 0.421476 -0.384773 -6.198483
v 0.610123 -0.247287 0.117139
vn -0.748789 0.261976 -6.141231
v 0.431647 -0.074062 0.117139
vn 0.913375 -4.589611 -2.290527
v 0.610557 -0.248147 0.117380
vn -0.702046 -4.718285 -2.238298
v 0.431733 -0.248147 0.117380
vn -0.720874 -0.347558 -6.128348
v 0.431647 -0.247287 0.117139
# 45 vertices, 0 vertices normals

f 1//1 2//2 3//3
f 1//1 3//3 4//4
f 1//1 5//5 2//2
f 1//1 4//4 5//5
f 2//2 6//6 3//3
f 2//2 7//7 6//6
f 2//2 5//5 8//8
f 2//2 8//8 7//7
f 3//3 6//6 9//9
f 3//3 9//9 4//4
f 6//6 7//7 10//10
f 6//6 10//10 11//11
f 6//6 12//12 9//9
f 6//6 11//11 12//12
f 7//7 13//13 14//14
f 7//7 14//14 15//15
f 7//7 15//15 10//10
f 7//7 16//16 17//17
f 7//7 17//17 13//13
f 7//7 8//8 16//16
f 13//13 17//17 18//18
f 13//13 18//18 14//14
f 14//14 19//19 15//15
f 14//14 20//20 19//19
f 14//14 18//18 21//21
f 14//14 21//21 20//20
f 15//15 22//22 23//23
f 15//15 19//19 22//22
f 15//15 23//23 10//10
f 22//22 19//19 24//24
f 22//22 24//24 23//23
f 19//19 20//20 25//25
f 19//19 25//25 24//24
f 20//20 21//21 26//26
f 20//20 26//26 25//25
f 16//16 8//8 27//27
f 16//16 27//27 28//28
f 16//16 28//28 17//17
f 17//17 28//28 18//18
f 18//18 28//28 21//21
f 21//21 29//29 26//26
f 21//21 28//28 29//29
f 10//10 30//30 31//31
f 10//10 32//32 30//30
f 10//10 23//23 32//32
f 10//10 31//31 11//11
f 30//30 32//32 23//23
f 30//30 23//23 25//25
f 30//30 25//25 26//26
f 30//30 26//26 29//29
f 30//30 33//33 31//31
f 30//30 29//29 33//33
f 23//23 24//24 25//25
f 33//33 29//29 34//34
f 33//33 34//34 31//31
f 29//29 28//28 34//34
f 5//5 4//4 35//35
f 5//5 36//36 8//8
f 5//5 35//35 36//36
f 4//4 9//9 35//35
f 36//36 37//37 27//27
f 36//36 35//35 38//38
f 36//36 38//38 37//37
f 36//36 27//27 8//8
f 37//37 39//39 28//28
f 37//37 38//38 40//40
f 37//37 40//40 39//39
f 37//37 28//28 27//27
f 39//39 40//40 41//41
f 39//39 41//41 42//42
f 39//39 42//42 28//28
f 35//35 12//12 43//43
f 35//35 9//9 12//12
f 35//35 43//43 38//38
f 12//12 11//11 43//43
f 38//38 43//43 40//40
f 43//43 11//11 44//44
f 43//43 44//44 40//40
f 40//40 44//44 34//34
f 40//40 34//34 41//41
f 41//41 34//34 45//45
f 41//41 45//45 42//42
f 28//28 42//42 34//34
f 42//42 45//45 34//34
f 11//11 31//31 34//34
f 11//11 34//34 44//44
# 86 faces, 0 coords texture

# End of File
