####
#
# OBJ File Generated by Meshlab
#
####
# Object step_12_link_5.obj
#
# Vertices: 61
# Faces: 118
#
####
vn 3.187681 5.175820 0.671217
v 0.261400 0.065637 0.700168
vn 1.497721 3.022795 2.486100
v 0.260890 0.065827 0.700952
vn 3.975308 2.585574 2.061586
v 0.408607 -0.029400 0.590996
vn 1.504988 5.131950 -1.818308
v 0.261400 0.065637 0.598939
vn 0.753596 5.786812 -1.128011
v 0.260890 0.065827 0.599307
vn 3.461743 5.243121 0.002834
v 0.408578 -0.029380 0.590721
vn 3.643242 0.245787 5.093143
v 0.260649 0.065062 0.701215
vn 4.568794 0.270804 4.081779
v 0.408619 -0.030367 0.591122
vn 3.317929 0.334875 5.294004
v 0.260628 0.065080 0.701229
vn 1.421382 0.880236 5.632625
v 0.260608 0.065094 0.701239
vn 0.030465 1.247139 6.018652
v 0.259113 0.065124 0.701261
vn -1.099767 4.014614 2.253155
v 0.154927 0.065827 0.700952
vn 3.771993 0.084977 5.022930
v 0.260671 0.065041 0.701199
vn 3.164384 -0.351356 5.367626
v 0.260649 -0.036423 0.701215
vn 3.479179 -0.287960 5.205949
v 0.260671 -0.036454 0.701199
vn 2.660897 -0.448435 5.602001
v 0.260628 -0.036395 0.701229
vn 1.306467 -0.478792 5.848894
v 0.260608 -0.036369 0.701239
vn 0.030647 -0.141117 6.279152
v 0.259113 -0.036273 0.701261
vn -0.197167 1.347345 5.954132
v 0.154456 0.065124 0.701261
vn -0.122100 5.100699 -3.566738
v 0.157144 0.065637 0.598939
vn 1.748234 4.423492 -2.509709
v 0.408578 -0.029380 0.484967
vn -0.112670 4.146964 -4.626507
v 0.297096 -0.029380 0.484967
vn -1.695708 4.067633 -2.104598
v 0.154927 0.065827 0.599307
vn 3.561167 -0.400492 5.156992
v 0.265156 -0.039930 0.697845
vn 1.385364 -2.042417 5.041851
v 0.260890 -0.037601 0.700952
vn 4.310664 -0.456261 4.262558
v 0.408619 -0.138348 0.591122
vn 0.794790 -3.860356 4.736151
v 0.263473 -0.040333 0.698448
vn -0.212823 -4.581022 4.259401
v 0.162351 -0.040333 0.698448
vn -1.243849 -5.018669 1.576681
v 0.297096 -0.139508 0.590721
vn 1.839567 -3.965697 2.093304
v 0.408578 -0.139508 0.590721
vn 3.268067 -2.075891 4.044105
v 0.408607 -0.139118 0.590996
vn 0.009997 -1.347373 6.136236
v 0.259174 -0.036324 0.701254
vn -1.987537 -3.009921 2.730853
v 0.154927 -0.037601 0.700952
vn 0.019846 -1.018445 6.194400
v 0.259151 -0.036304 0.701258
vn 0.034450 -0.513463 6.254708
v 0.259131 -0.036287 0.701260
vn -0.017815 -1.367732 6.131725
v 0.154499 -0.036324 0.701254
vn -0.034263 -1.066657 6.186037
v 0.154480 -0.036304 0.701258
vn -0.068639 -0.595946 6.246445
v 0.154465 -0.036287 0.701260
vn -0.128956 -0.178944 6.273232
v 0.154456 -0.036273 0.701261
vn -2.480843 1.352427 2.201970
v 0.153947 0.065094 0.701239
vn -3.783145 1.817590 -1.855984
v 0.153947 0.065094 0.599472
vn -2.724408 -1.111902 2.457888
v 0.153947 -0.036369 0.701239
vn -1.576672 2.394440 -4.830883
v 0.296581 -0.029400 0.484974
vn -4.579460 -1.323818 -1.860014
v 0.153947 -0.036369 0.599472
vn -2.947736 0.297555 -5.397955
v 0.296344 -0.030367 0.484978
vn -0.425940 -4.820958 4.003825
v 0.157144 -0.038448 0.700168
vn -4.299493 -4.017722 -1.148032
v 0.154927 -0.037601 0.599307
vn -2.975147 -2.697714 -3.035325
v 0.296581 -0.139118 0.484974
vn -1.613026 -4.074669 -2.162368
v 0.297096 -0.139508 0.484967
vn -3.242227 -0.617310 -5.081561
v 0.296344 -0.138348 0.484978
vn 5.199852 1.512675 1.139917
v 0.412429 -0.033994 0.585064
vn 2.558705 1.383656 -2.349883
v 0.412429 -0.033994 0.481576
vn 3.969275 4.553501 -0.829085
v 0.408607 -0.029400 0.484974
vn 3.753227 -2.457571 0.921965
v 0.412429 -0.138375 0.585064
vn 0.229547 1.506710 -5.809257
v 0.410621 -0.034380 0.481341
vn -0.559419 2.816020 -5.469312
v 0.305955 -0.033994 0.481576
vn 2.107907 -1.664252 -1.810287
v 0.412429 -0.138375 0.481576
vn 0.378311 -2.937462 -3.777091
v 0.410621 -0.138497 0.481341
vn -0.704805 1.322883 -5.691954
v 0.306492 -0.034380 0.481341
vn 0.672310 -6.060950 -0.626736
v 0.408578 -0.139508 0.484967
vn -0.563082 -2.683242 -3.885249
v 0.306492 -0.138497 0.481341
# 61 vertices, 0 vertices normals

f 1//1 2//2 3//3
f 1//1 4//4 5//5
f 1//1 5//5 2//2
f 1//1 6//6 4//4
f 1//1 3//3 6//6
f 2//2 7//7 8//8
f 2//2 9//9 7//7
f 2//2 10//10 9//9
f 2//2 11//11 10//10
f 2//2 5//5 12//12
f 2//2 12//12 11//11
f 2//2 8//8 3//3
f 13//13 7//7 14//14
f 13//13 15//15 8//8
f 13//13 14//14 15//15
f 13//13 8//8 7//7
f 7//7 9//9 16//16
f 7//7 16//16 14//14
f 9//9 10//10 17//17
f 9//9 17//17 16//16
f 10//10 11//11 18//18
f 10//10 18//18 17//17
f 11//11 12//12 19//19
f 11//11 19//19 18//18
f 4//4 20//20 5//5
f 4//4 6//6 21//21
f 4//4 21//21 22//22
f 4//4 22//22 20//20
f 5//5 20//20 23//23
f 5//5 23//23 12//12
f 24//24 25//25 26//26
f 24//24 15//15 25//25
f 24//24 26//26 15//15
f 27//27 25//25 28//28
f 27//27 28//28 29//29
f 27//27 30//30 31//31
f 27//27 31//31 25//25
f 27//27 29//29 30//30
f 25//25 15//15 14//14
f 25//25 14//14 16//16
f 25//25 16//16 17//17
f 25//25 17//17 32//32
f 25//25 32//32 33//33
f 25//25 33//33 28//28
f 25//25 31//31 26//26
f 15//15 26//26 8//8
f 17//17 34//34 32//32
f 17//17 35//35 34//34
f 17//17 18//18 35//35
f 32//32 34//34 36//36
f 32//32 36//36 33//33
f 34//34 35//35 37//37
f 34//34 37//37 36//36
f 35//35 18//18 38//38
f 35//35 38//38 37//37
f 18//18 19//19 39//39
f 18//18 39//39 38//38
f 12//12 40//40 19//19
f 12//12 23//23 41//41
f 12//12 41//41 40//40
f 40//40 41//41 42//42
f 40//40 42//42 39//39
f 40//40 39//39 19//19
f 20//20 22//22 43//43
f 20//20 43//43 23//23
f 23//23 43//43 41//41
f 41//41 44//44 42//42
f 41//41 43//43 45//45
f 41//41 45//45 44//44
f 28//28 46//46 29//29
f 28//28 33//33 46//46
f 46//46 33//33 29//29
f 33//33 42//42 44//44
f 33//33 36//36 42//42
f 33//33 47//47 29//29
f 33//33 44//44 47//47
f 42//42 36//36 37//37
f 42//42 37//37 38//38
f 42//42 38//38 39//39
f 47//47 44//44 48//48
f 47//47 49//49 29//29
f 47//47 48//48 49//49
f 44//44 45//45 50//50
f 44//44 50//50 48//48
f 51//51 3//3 8//8
f 51//51 8//8 26//26
f 51//51 52//52 53//53
f 51//51 53//53 3//3
f 51//51 54//54 52//52
f 51//51 26//26 54//54
f 6//6 3//3 53//53
f 6//6 53//53 21//21
f 52//52 55//55 56//56
f 52//52 21//21 53//53
f 52//52 54//54 57//57
f 52//52 57//57 55//55
f 52//52 56//56 21//21
f 55//55 57//57 58//58
f 55//55 58//58 59//59
f 55//55 59//59 56//56
f 21//21 56//56 22//22
f 54//54 30//30 60//60
f 54//54 31//31 30//30
f 54//54 26//26 31//31
f 54//54 60//60 57//57
f 30//30 29//29 60//60
f 57//57 60//60 58//58
f 58//58 60//60 61//61
f 58//58 61//61 59//59
f 60//60 29//29 49//49
f 60//60 49//49 61//61
f 56//56 59//59 43//43
f 56//56 43//43 22//22
f 59//59 45//45 43//43
f 59//59 61//61 50//50
f 59//59 50//50 45//45
f 61//61 49//49 48//48
f 61//61 48//48 50//50
# 118 faces, 0 coords texture

# End of File
