####
#
# OBJ File Generated by Meshlab
#
####
# Object step_24_link_4.obj
#
# Vertices: 97
# Faces: 190
#
####
vn 2.076045 1.743992 -2.786634
v 0.117936 0.058522 0.434094
vn 0.381106 3.830922 -3.315453
v 0.115052 0.059392 0.434306
vn 3.761249 2.710613 -0.779484
v 0.185695 0.083538 0.631805
vn 1.992562 -1.815536 -2.383407
v 0.117936 -0.041688 0.434094
vn -0.113356 0.681392 -6.190525
v 0.017553 0.058522 0.434094
vn 4.127689 -2.621690 -0.547547
v 0.185695 -0.016896 0.631805
vn 0.065185 6.223421 -0.857109
v 0.114894 0.059520 0.435201
vn 0.888572 6.094959 -0.323817
v 0.179537 0.085538 0.634007
vn -0.697304 2.847123 -3.425004
v 0.014158 0.059392 0.434306
vn 1.060248 6.056116 -0.905850
v 0.179854 0.085278 0.632222
vn -0.431508 6.190168 -0.860710
v 0.013931 0.059520 0.435201
vn -0.232641 6.240532 -0.390578
v 0.077598 0.085538 0.634007
vn 2.135465 -5.909106 0.003584
v 0.117936 -0.041688 0.534212
vn 1.024085 -6.091118 0.163419
v 0.114894 -0.042775 0.535344
vn 0.964933 -6.062752 -0.343719
v 0.114894 -0.042775 0.435201
vn 3.342272 -2.008364 1.546182
v 0.185695 -0.016896 0.732050
vn 1.594909 -4.440918 2.488334
v 0.179537 -0.019132 0.734401
vn 0.075720 -6.257834 0.381971
v 0.109459 -0.042808 0.537244
vn 0.011258 -6.282489 -0.058508
v 0.109459 -0.042808 0.436807
vn 1.093158 -3.790542 3.174401
v 0.168772 -0.019377 0.738442
vn -0.151543 -6.253521 0.342674
v 0.007260 -0.042808 0.537244
vn -0.013450 -6.228994 0.816828
v 0.064250 -0.019377 0.738442
vn 0.569991 -3.744242 -3.104190
v 0.115052 -0.042645 0.434306
vn -0.114823 -0.618192 -6.205202
v 0.017553 -0.041688 0.434094
vn -0.626839 -2.842635 -3.486671
v 0.014158 -0.042645 0.434306
vn -0.065089 -6.241844 -0.562569
v 0.013931 -0.042775 0.435201
vn -0.647328 -5.654470 -1.733656
v 0.007260 -0.042808 0.436807
vn -2.972311 5.516194 0.063516
v 0.007260 0.058950 0.537244
vn -3.730930 5.009171 0.198570
v 0.005739 0.058001 0.537662
vn -1.790206 3.574712 2.987214
v 0.061223 0.082743 0.739343
vn -1.938612 3.555817 -2.597353
v 0.007260 0.058950 0.436807
vn -3.384085 2.492451 -2.548725
v 0.005739 0.058001 0.437189
vn -0.992621 4.266891 2.410635
v 0.064250 0.084585 0.738442
vn -1.444270 5.995592 -0.163889
v 0.064250 0.084585 0.636931
vn -4.822257 3.725038 0.426364
v 0.005734 0.057998 0.537663
vn -2.323257 2.489991 3.115361
v 0.061214 0.082736 0.739346
vn -4.251786 2.016142 -2.093789
v 0.005734 0.057998 0.437192
vn -5.751697 1.351225 0.712088
v 0.005733 0.057995 0.537664
vn -5.551085 1.011299 -1.238857
v 0.005733 0.057995 0.437195
vn -5.252319 -1.943924 0.837806
v 0.005733 -0.042710 0.537664
vn -2.678038 -1.152776 3.303164
v 0.061211 -0.019231 0.739347
vn -2.839167 0.945891 3.349248
v 0.061211 0.082730 0.739347
vn -2.170699 1.138041 -5.784575
v 0.005838 0.058034 0.437151
vn -2.254271 0.880407 -5.719568
v 0.005805 0.058026 0.437161
vn -2.506510 1.274211 -5.426945
v 0.005779 0.058018 0.437170
vn -2.859334 1.907220 -4.718787
v 0.005760 0.058012 0.437178
vn -3.082085 2.531790 -3.250769
v 0.005747 0.058006 0.437184
vn -1.429483 -2.975390 -3.848288
v 0.005805 -0.042720 0.437161
vn -1.298022 -3.100391 -2.934727
v 0.005779 -0.042719 0.437170
vn -1.493641 -3.074510 -2.836751
v 0.005760 -0.042718 0.437178
vn -1.894256 -3.016594 -2.717790
v 0.005747 -0.042716 0.437184
vn -2.525942 -2.877563 -2.489912
v 0.005739 -0.042714 0.437189
vn -3.575291 -2.490111 -2.010131
v 0.005734 -0.042712 0.437192
vn -5.237840 -1.490371 -1.123458
v 0.005733 -0.042710 0.437195
vn -0.295769 -6.250170 0.388539
v 0.005779 -0.042719 0.537651
vn -0.037476 -6.215861 0.900030
v 0.061304 -0.019247 0.739319
vn -0.139436 -6.054867 1.458864
v 0.061266 -0.019245 0.739330
vn -0.517130 -6.221972 0.414246
v 0.005760 -0.042718 0.537656
vn -1.015750 -6.138287 0.473722
v 0.005747 -0.042716 0.537660
vn -0.382316 -5.608123 2.245644
v 0.061239 -0.019242 0.739338
vn -1.907663 -5.855652 0.577414
v 0.005739 -0.042714 0.537662
vn -0.830894 -4.716625 3.000163
v 0.061223 -0.019239 0.739343
vn -3.562458 -4.722611 0.733441
v 0.005734 -0.042712 0.537663
vn -1.734764 -3.246240 3.341522
v 0.061214 -0.019235 0.739346
vn 3.250839 2.039509 1.524045
v 0.185695 0.083538 0.732050
vn 2.391530 2.648471 3.387066
v 0.183506 0.084129 0.733529
vn 1.236731 4.359649 2.428422
v 0.179537 0.085538 0.734401
vn 2.028275 2.407785 5.394863
v 0.179854 0.085278 0.734418
vn 0.798144 3.196566 3.741823
v 0.168772 0.084585 0.738442
vn 1.997496 0.639271 5.881897
v 0.175981 0.083702 0.736189
vn 2.355556 -2.710244 2.991498
v 0.183506 -0.017662 0.733529
vn -0.132782 6.194328 0.651873
v 0.077598 0.085538 0.734401
vn 1.893857 0.217251 5.982621
v 0.166736 0.082855 0.739197
vn 2.050937 -0.878437 5.797468
v 0.175981 -0.018066 0.736189
vn 1.820812 0.278633 5.999049
v 0.166629 0.082837 0.739231
vn 1.719415 0.361546 6.019212
v 0.166534 0.082820 0.739260
vn 1.595889 0.466019 6.037339
v 0.166451 0.082804 0.739285
vn 1.436539 0.604299 6.049903
v 0.166380 0.082789 0.739304
vn 1.239027 0.775230 6.050157
v 0.166320 0.082775 0.739319
vn 0.990489 0.990563 6.024425
v 0.166271 0.082763 0.739330
vn 0.650917 1.277946 5.941450
v 0.166231 0.082753 0.739338
vn 0.441018 1.338692 5.930848
v 0.166200 0.082743 0.739343
vn 1.944071 -0.963766 5.813465
v 0.166736 -0.019230 0.739197
vn 1.845201 -1.331082 5.689362
v 0.166629 -0.019238 0.739231
vn 1.683108 -1.812408 5.443077
v 0.166534 -0.019243 0.739260
vn 1.433493 -2.372325 4.979599
v 0.166451 -0.019247 0.739285
vn 1.079565 -2.868836 4.239102
v 0.166380 -0.019248 0.739304
vn 0.735054 -3.084573 3.512461
v 0.166320 -0.019247 0.739319
vn 0.647447 -3.067748 3.606604
v 0.166271 -0.019245 0.739330
vn 0.548175 -2.898128 4.209873
v 0.166231 -0.019242 0.739338
vn 0.285228 0.960193 6.100386
v 0.166178 0.082736 0.739346
vn 0.424217 -2.469867 4.994547
v 0.166200 -0.019239 0.739343
vn 0.113267 0.424654 6.242667
v 0.166162 0.082730 0.739347
vn 0.275540 -1.670324 5.753329
v 0.166178 -0.019235 0.739346
vn 0.105942 -0.683680 6.191252
v 0.166162 -0.019231 0.739347
vn 2.135518 -2.640743 5.271848
v 0.179854 -0.018867 0.734418
vn 2.041536 -1.242496 5.809341
v 0.166856 -0.019219 0.739157
# 97 vertices, 0 vertices normals

f 1//1 2//2 3//3
f 1//1 4//4 5//5
f 1//1 5//5 2//2
f 1//1 3//3 6//6
f 1//1 6//6 4//4
f 2//2 7//7 8//8
f 2//2 5//5 9//9
f 2//2 9//9 7//7
f 2//2 10//10 3//3
f 2//2 8//8 10//10
f 7//7 9//9 11//11
f 7//7 11//11 12//12
f 7//7 12//12 8//8
f 13//13 14//14 15//15
f 13//13 4//4 6//6
f 13//13 15//15 4//4
f 13//13 16//16 17//17
f 13//13 17//17 14//14
f 13//13 6//6 16//16
f 14//14 18//18 19//19
f 14//14 19//19 15//15
f 14//14 17//17 20//20
f 14//14 20//20 18//18
f 18//18 21//21 19//19
f 18//18 20//20 22//22
f 18//18 22//22 21//21
f 4//4 23//23 24//24
f 4//4 15//15 23//23
f 4//4 24//24 5//5
f 23//23 15//15 25//25
f 23//23 25//25 24//24
f 15//15 19//19 26//26
f 15//15 26//26 25//25
f 19//19 21//21 27//27
f 19//19 27//27 26//26
f 28//28 29//29 30//30
f 28//28 31//31 32//32
f 28//28 32//32 29//29
f 28//28 33//33 34//34
f 28//28 30//30 33//33
f 28//28 34//34 31//31
f 29//29 35//35 36//36
f 29//29 32//32 37//37
f 29//29 37//37 35//35
f 29//29 36//36 30//30
f 35//35 38//38 36//36
f 35//35 37//37 39//39
f 35//35 39//39 38//38
f 38//38 39//39 40//40
f 38//38 40//40 41//41
f 38//38 42//42 36//36
f 38//38 41//41 42//42
f 5//5 24//24 9//9
f 9//9 31//31 11//11
f 9//9 43//43 31//31
f 9//9 44//44 43//43
f 9//9 24//24 25//25
f 9//9 25//25 44//44
f 11//11 31//31 34//34
f 11//11 34//34 12//12
f 31//31 43//43 44//44
f 31//31 44//44 45//45
f 31//31 45//45 46//46
f 31//31 46//46 47//47
f 31//31 47//47 32//32
f 44//44 25//25 48//48
f 44//44 48//48 45//45
f 45//45 48//48 49//49
f 45//45 49//49 46//46
f 46//46 49//49 50//50
f 46//46 50//50 47//47
f 47//47 50//50 51//51
f 47//47 51//51 32//32
f 32//32 51//51 52//52
f 32//32 52//52 37//37
f 37//37 52//52 53//53
f 37//37 53//53 39//39
f 39//39 53//53 54//54
f 39//39 54//54 40//40
f 21//21 55//55 49//49
f 21//21 49//49 27//27
f 21//21 22//22 56//56
f 21//21 56//56 57//57
f 21//21 57//57 55//55
f 55//55 58//58 50//50
f 55//55 50//50 49//49
f 55//55 57//57 58//58
f 58//58 59//59 51//51
f 58//58 51//51 50//50
f 58//58 57//57 60//60
f 58//58 60//60 59//59
f 59//59 61//61 52//52
f 59//59 52//52 51//51
f 59//59 60//60 62//62
f 59//59 62//62 61//61
f 61//61 63//63 53//53
f 61//61 53//53 52//52
f 61//61 62//62 64//64
f 61//61 64//64 63//63
f 63//63 40//40 54//54
f 63//63 54//54 53//53
f 63//63 64//64 41//41
f 63//63 41//41 40//40
f 25//25 26//26 27//27
f 25//25 27//27 48//48
f 27//27 49//49 48//48
f 65//65 66//66 16//16
f 65//65 67//67 66//66
f 65//65 3//3 8//8
f 65//65 8//8 67//67
f 65//65 16//16 3//3
f 66//66 68//68 69//69
f 66//66 67//67 68//68
f 66//66 70//70 71//71
f 66//66 69//69 70//70
f 66//66 71//71 16//16
f 68//68 67//67 69//69
f 67//67 8//8 72//72
f 67//67 72//72 69//69
f 70//70 69//69 73//73
f 70//70 73//73 74//74
f 70//70 74//74 71//71
f 69//69 75//75 73//73
f 69//69 76//76 75//75
f 69//69 77//77 76//76
f 69//69 78//78 77//77
f 69//69 79//79 78//78
f 69//69 80//80 79//79
f 69//69 81//81 80//80
f 69//69 82//82 81//81
f 69//69 72//72 33//33
f 69//69 33//33 82//82
f 73//73 75//75 83//83
f 73//73 83//83 74//74
f 75//75 76//76 84//84
f 75//75 84//84 83//83
f 76//76 77//77 85//85
f 76//76 85//85 84//84
f 77//77 78//78 86//86
f 77//77 86//86 85//85
f 78//78 79//79 87//87
f 78//78 87//87 86//86
f 79//79 80//80 88//88
f 79//79 88//88 87//87
f 80//80 81//81 89//89
f 80//80 89//89 88//88
f 81//81 82//82 90//90
f 81//81 90//90 89//89
f 82//82 91//91 92//92
f 82//82 92//92 90//90
f 82//82 33//33 30//30
f 82//82 30//30 91//91
f 91//91 93//93 94//94
f 91//91 94//94 92//92
f 91//91 30//30 36//36
f 91//91 36//36 93//93
f 93//93 95//95 94//94
f 93//93 36//36 42//42
f 93//93 42//42 95//95
f 3//3 10//10 8//8
f 3//3 16//16 6//6
f 8//8 12//12 72//72
f 16//16 71//71 17//17
f 71//71 96//96 17//17
f 71//71 74//74 20//20
f 71//71 20//20 96//96
f 96//96 20//20 17//17
f 74//74 97//97 20//20
f 74//74 83//83 97//97
f 20//20 97//97 83//83
f 20//20 83//83 84//84
f 20//20 84//84 85//85
f 20//20 85//85 86//86
f 20//20 86//86 87//87
f 20//20 87//87 88//88
f 20//20 88//88 22//22
f 88//88 89//89 56//56
f 88//88 56//56 22//22
f 89//89 90//90 57//57
f 89//89 57//57 56//56
f 90//90 92//92 60//60
f 90//90 60//60 57//57
f 92//92 94//94 62//62
f 92//92 62//62 60//60
f 94//94 95//95 64//64
f 94//94 64//64 62//62
f 95//95 42//42 41//41
f 95//95 41//41 64//64
f 72//72 12//12 34//34
f 72//72 34//34 33//33
# 190 faces, 0 coords texture

# End of File
