####
#
# OBJ File Generated by Meshlab
#
####
# Object step_21_link_5.obj
#
# Vertices: 99
# Faces: 194
#
####
vn 2.802814 2.649675 2.590555
v 0.215931 0.082750 0.721456
vn 2.532157 4.036376 2.603967
v 0.213549 0.083767 0.722278
vn 2.539530 1.164910 5.463982
v 0.211174 0.083513 0.723646
vn 2.350666 -0.698671 5.722741
v 0.211174 -0.018296 0.723646
vn 2.972017 5.314581 -0.743543
v 0.215931 0.082750 0.620313
vn 1.096340 5.107211 -2.121721
v 0.213549 0.083767 0.619896
vn 2.937379 -0.689937 5.380967
v 0.215931 -0.019025 0.721456
vn 4.255081 0.178619 4.533810
v 0.350783 -0.024294 0.623284
vn 4.513149 2.112927 1.532767
v 0.357789 -0.026318 0.614767
vn 4.611447 2.516735 3.138644
v 0.351129 -0.023055 0.622698
vn 4.526800 0.931411 4.108041
v 0.351075 -0.023397 0.622908
vn 1.831369 5.613104 1.186290
v 0.212833 0.084067 0.722282
vn 1.057601 3.303592 2.839795
v 0.206673 0.085025 0.725284
vn 1.523250 6.010910 -0.251985
v 0.212833 0.084067 0.621782
vn 0.311555 6.100455 -0.836950
v 0.206673 0.085025 0.623727
vn 2.243048 0.246145 5.858548
v 0.205556 0.083949 0.725802
vn 2.182801 -0.429364 5.859669
v 0.205556 -0.018002 0.725802
vn 2.157210 0.308958 5.882774
v 0.205485 0.083951 0.725829
vn 2.018997 0.406484 5.918457
v 0.205420 0.083951 0.725852
vn 1.861360 0.520903 5.950857
v 0.205362 0.083949 0.725872
vn 1.667970 0.668582 5.975384
v 0.205311 0.083947 0.725887
vn 1.426421 0.854853 5.985435
v 0.205267 0.083943 0.725900
vn 1.138292 1.076485 5.967864
v 0.205229 0.083939 0.725909
vn 0.762531 1.360484 5.891135
v 0.205197 0.083934 0.725915
vn 0.434265 1.534800 5.826710
v 0.205171 0.083929 0.725919
vn -0.884272 4.479823 2.229942
v 0.102245 0.085025 0.725284
vn 2.070058 -0.550885 5.876143
v 0.205485 -0.017993 0.725829
vn 1.895208 -0.727184 5.893114
v 0.205420 -0.017983 0.725852
vn 1.690796 -0.931828 5.893052
v 0.205362 -0.017974 0.725872
vn 1.431907 -1.191448 5.856597
v 0.205311 -0.017964 0.725887
vn 1.107066 -1.499920 5.763135
v 0.205267 -0.017955 0.725900
vn 0.726243 -1.831357 5.590110
v 0.205229 -0.017946 0.725909
vn 0.560661 -1.832997 5.606585
v 0.205197 -0.017937 0.725915
vn 0.415389 -1.386242 5.907857
v 0.205171 -0.017929 0.725919
vn 0.243846 1.211087 6.001594
v 0.205150 0.083925 0.725922
vn 0.250294 -0.871968 6.128983
v 0.205150 -0.017922 0.725922
vn -1.523018 4.015263 2.841865
v 0.100243 0.083929 0.725919
vn 0.077409 0.398862 6.250611
v 0.205134 0.083920 0.725922
vn 0.080798 -0.297576 6.263233
v 0.205134 -0.017916 0.725922
vn -2.011503 2.735755 2.718201
v 0.100235 0.083925 0.725922
vn -2.726020 1.068874 2.514276
v 0.100231 0.083920 0.725922
vn 2.902008 1.935477 -2.372442
v 0.357789 -0.026318 0.511661
vn -0.701595 4.473543 -3.643415
v 0.111930 0.083767 0.619896
vn 1.122814 3.131736 -4.341653
v 0.356429 -0.025871 0.511459
vn -0.786145 2.619820 -5.191040
v 0.251395 -0.025871 0.511459
vn -1.565041 4.123976 -2.263938
v 0.102245 0.085025 0.623727
vn 2.245327 -1.807842 5.547448
v 0.213549 -0.019918 0.722278
vn 1.434982 -3.143067 4.405390
v 0.349799 -0.132202 0.623810
vn 3.815616 -0.801751 4.669506
v 0.350783 -0.132044 0.623284
vn 1.127034 -2.466118 5.242648
v 0.206673 -0.018782 0.725284
vn -0.247071 -4.156890 4.665871
v 0.102245 -0.018782 0.725284
vn -1.554622 -4.774951 2.321739
v 0.238751 -0.132202 0.623810
vn -0.840511 -4.000124 4.388733
v 0.100258 -0.017937 0.725915
vn -1.895275 -3.413733 2.968941
v 0.100243 -0.017929 0.725919
vn -2.310068 -2.341320 2.770587
v 0.100235 -0.017922 0.725922
vn -2.843677 -0.903258 2.633210
v 0.100231 -0.017916 0.725922
vn -3.301984 2.747931 -2.553382
v 0.100243 0.083929 0.624166
vn -3.821607 2.392338 -2.052017
v 0.100235 0.083925 0.624173
vn -5.250140 1.447218 -1.210179
v 0.100231 0.083920 0.624178
vn -6.082209 0.055608 1.069669
v 0.100231 0.083916 0.725922
vn -6.082524 -0.045286 1.075589
v 0.100231 -0.017911 0.725922
vn -6.280020 0.079142 -0.077696
v 0.100231 0.083916 0.624182
vn -2.709940 2.478784 -5.020922
v 0.100281 0.083939 0.624147
vn -3.127118 2.793404 -4.073763
v 0.100258 0.083934 0.624157
vn -2.324797 2.028069 -5.408299
v 0.240508 -0.023055 0.516911
vn -2.930475 0.803399 -5.416928
v 0.240191 -0.023397 0.516972
vn -3.930206 -2.395694 -2.477914
v 0.100243 -0.017929 0.624166
vn -4.203057 -2.106693 -2.094208
v 0.100235 -0.017922 0.624173
vn -3.471426 0.242935 -5.200691
v 0.238646 -0.024294 0.517867
vn -5.443292 -1.159855 -1.277813
v 0.100231 -0.017916 0.624178
vn -6.280532 -0.062388 -0.080920
v 0.100231 -0.017911 0.624182
vn -3.580824 -5.118365 0.267067
v 0.238631 -0.132189 0.623216
vn -3.621974 -2.301623 -3.065304
v 0.238646 -0.132044 0.517867
vn -3.282339 -5.169603 -0.407364
v 0.238644 -0.132197 0.518705
vn -3.804498 -4.956885 -0.206845
v 0.238631 -0.132189 0.518737
vn 6.012145 0.551444 0.862326
v 0.357892 -0.026714 0.614485
vn 3.620279 -2.575120 1.370722
v 0.357789 -0.131190 0.614767
vn 5.733165 0.495833 -1.428488
v 0.357892 -0.026714 0.511826
vn 6.003025 -0.585299 0.853512
v 0.357892 -0.130814 0.614485
vn 1.955437 0.163462 -5.910031
v 0.357521 -0.027061 0.511532
vn 2.542397 -2.131407 -2.057834
v 0.357789 -0.131190 0.511661
vn 0.580434 0.596826 -6.121122
v 0.356079 -0.026920 0.511219
vn 1.961112 -0.164769 -5.908606
v 0.357521 -0.130489 0.511532
vn 5.725212 -0.525355 -1.417217
v 0.357892 -0.130814 0.511826
vn 0.575159 -0.701833 -6.091028
v 0.356079 -0.130724 0.511219
vn -1.353509 0.656805 -5.784573
v 0.251251 -0.026920 0.511219
vn 1.750197 -6.024315 0.133856
v 0.356429 -0.131618 0.615069
vn 0.948906 -3.533363 -2.963776
v 0.356429 -0.131618 0.511459
vn 1.984353 -3.722498 2.162728
v 0.351129 -0.132906 0.622698
vn 3.869587 -1.489797 4.359606
v 0.351075 -0.132571 0.622908
vn 0.556502 -6.126183 -0.535490
v 0.351129 -0.132906 0.516911
vn -0.744462 -5.646706 1.352663
v 0.240508 -0.132906 0.622698
vn -0.658002 -3.532369 -3.709351
v 0.251395 -0.131618 0.511459
vn -1.371752 -0.795949 -5.719546
v 0.251251 -0.130724 0.511219
vn -1.619233 -3.783058 -2.437910
v 0.240508 -0.132906 0.516911
vn -3.136472 -1.231582 -5.108827
v 0.240191 -0.132571 0.516972
vn -2.757170 -5.590054 0.202141
v 0.238644 -0.132197 0.623210
vn -3.285255 -4.196570 -2.314901
v 0.238858 -0.132205 0.517801
vn -3.342448 -5.208059 -0.730439
v 0.238751 -0.132202 0.518245
# 99 vertices, 0 vertices normals

f 1//1 2//2 3//3
f 1//1 3//3 4//4
f 1//1 5//5 6//6
f 1//1 6//6 2//2
f 1//1 7//7 8//8
f 1//1 4//4 7//7
f 1//1 9//9 5//5
f 1//1 10//10 9//9
f 1//1 11//11 10//10
f 1//1 8//8 11//11
f 2//2 12//12 13//13
f 2//2 13//13 3//3
f 2//2 6//6 14//14
f 2//2 14//14 12//12
f 12//12 14//14 15//15
f 12//12 15//15 13//13
f 3//3 13//13 16//16
f 3//3 16//16 17//17
f 3//3 17//17 4//4
f 13//13 18//18 16//16
f 13//13 19//19 18//18
f 13//13 20//20 19//19
f 13//13 21//21 20//20
f 13//13 22//22 21//21
f 13//13 23//23 22//22
f 13//13 24//24 23//23
f 13//13 25//25 24//24
f 13//13 15//15 26//26
f 13//13 26//26 25//25
f 16//16 18//18 27//27
f 16//16 27//27 17//17
f 18//18 19//19 28//28
f 18//18 28//28 27//27
f 19//19 20//20 29//29
f 19//19 29//29 28//28
f 20//20 21//21 30//30
f 20//20 30//30 29//29
f 21//21 22//22 31//31
f 21//21 31//31 30//30
f 22//22 23//23 32//32
f 22//22 32//32 31//31
f 23//23 24//24 33//33
f 23//23 33//33 32//32
f 24//24 25//25 34//34
f 24//24 34//34 33//33
f 25//25 35//35 36//36
f 25//25 36//36 34//34
f 25//25 26//26 37//37
f 25//25 37//37 35//35
f 35//35 38//38 39//39
f 35//35 39//39 36//36
f 35//35 37//37 40//40
f 35//35 40//40 38//38
f 38//38 40//40 41//41
f 38//38 41//41 39//39
f 5//5 9//9 42//42
f 5//5 42//42 6//6
f 6//6 15//15 14//14
f 6//6 43//43 15//15
f 6//6 42//42 44//44
f 6//6 44//44 45//45
f 6//6 45//45 43//43
f 15//15 43//43 46//46
f 15//15 46//46 26//26
f 7//7 47//47 48//48
f 7//7 4//4 47//47
f 7//7 49//49 8//8
f 7//7 48//48 49//49
f 47//47 4//4 50//50
f 47//47 50//50 48//48
f 4//4 17//17 50//50
f 50//50 17//17 27//27
f 50//50 27//27 28//28
f 50//50 28//28 29//29
f 50//50 29//29 30//30
f 50//50 30//30 31//31
f 50//50 31//31 32//32
f 50//50 32//32 33//33
f 50//50 33//33 51//51
f 50//50 51//51 52//52
f 50//50 52//52 48//48
f 33//33 34//34 53//53
f 33//33 53//53 51//51
f 34//34 36//36 54//54
f 34//34 54//54 53//53
f 36//36 39//39 55//55
f 36//36 55//55 54//54
f 39//39 41//41 56//56
f 39//39 56//56 55//55
f 26//26 46//46 57//57
f 26//26 57//57 37//37
f 37//37 57//57 58//58
f 37//37 58//58 40//40
f 40//40 58//58 59//59
f 40//40 59//59 41//41
f 41//41 60//60 61//61
f 41//41 59//59 62//62
f 41//41 62//62 60//60
f 41//41 61//61 56//56
f 60//60 62//62 61//61
f 43//43 45//45 46//46
f 46//46 63//63 64//64
f 46//46 64//64 57//57
f 46//46 45//45 65//65
f 46//46 65//65 63//63
f 63//63 65//65 64//64
f 64//64 65//65 66//66
f 64//64 66//66 57//57
f 57//57 67//67 68//68
f 57//57 68//68 58//58
f 57//57 66//66 69//69
f 57//57 69//69 67//67
f 58//58 68//68 70//70
f 58//58 70//70 59//59
f 59//59 70//70 71//71
f 59//59 71//71 62//62
f 62//62 71//71 61//61
f 51//51 53//53 52//52
f 53//53 54//54 52//52
f 54//54 55//55 68//68
f 54//54 67//67 72//72
f 54//54 68//68 67//67
f 54//54 72//72 52//52
f 55//55 56//56 70//70
f 55//55 70//70 68//68
f 56//56 61//61 71//71
f 56//56 71//71 70//70
f 67//67 69//69 73//73
f 67//67 73//73 74//74
f 67//67 74//74 75//75
f 67//67 75//75 72//72
f 76//76 9//9 77//77
f 76//76 78//78 42//42
f 76//76 42//42 9//9
f 76//76 79//79 78//78
f 76//76 77//77 79//79
f 9//9 10//10 11//11
f 9//9 11//11 8//8
f 9//9 8//8 49//49
f 9//9 49//49 77//77
f 80//80 42//42 81//81
f 80//80 82//82 42//42
f 80//80 83//83 82//82
f 80//80 81//81 83//83
f 78//78 79//79 84//84
f 78//78 84//84 81//81
f 78//78 81//81 42//42
f 42//42 82//82 44//44
f 44//44 82//82 45//45
f 82//82 83//83 85//85
f 82//82 85//85 86//86
f 82//82 86//86 45//45
f 79//79 77//77 81//81
f 79//79 81//81 84//84
f 77//77 87//87 88//88
f 77//77 89//89 87//87
f 77//77 90//90 89//89
f 77//77 49//49 90//90
f 77//77 88//88 81//81
f 87//87 89//89 91//91
f 87//87 91//91 88//88
f 89//89 90//90 48//48
f 89//89 48//48 92//92
f 89//89 92//92 91//91
f 90//90 49//49 48//48
f 48//48 52//52 92//92
f 83//83 81//81 85//85
f 81//81 88//88 85//85
f 88//88 91//91 93//93
f 88//88 93//93 85//85
f 85//85 93//93 94//94
f 85//85 94//94 86//86
f 91//91 92//92 95//95
f 91//91 95//95 93//93
f 45//45 86//86 65//65
f 86//86 66//66 65//65
f 86//86 94//94 96//96
f 86//86 96//96 66//66
f 66//66 96//96 69//69
f 69//69 96//96 73//73
f 92//92 52//52 97//97
f 92//92 97//97 74//74
f 92//92 74//74 95//95
f 52//52 72//72 97//97
f 97//97 72//72 75//75
f 97//97 75//75 74//74
f 93//93 95//95 94//94
f 94//94 95//95 96//96
f 95//95 98//98 73//73
f 95//95 73//73 96//96
f 95//95 99//99 98//98
f 95//95 74//74 99//99
f 98//98 99//99 73//73
f 73//73 99//99 74//74
# 194 faces, 0 coords texture

# End of File
