####
#
# OBJ File Generated by Meshlab
#
####
# Object step_46_link_7.obj
#
# Vertices: 84
# Faces: 164
#
####
vn 2.660756 0.282795 4.730011
v 0.243603 0.353502 0.595480
vn 0.162670 0.209217 6.274378
v 0.239883 0.360334 0.595364
vn -0.080562 0.035419 6.281390
v 0.136778 0.353502 0.595480
vn 2.286902 1.332394 5.175389
v 0.231071 0.390766 0.594381
vn 1.055744 1.601720 5.642427
v 0.228798 0.392658 0.594456
vn 1.446343 -2.064280 2.102547
v 0.243603 0.245923 0.595480
vn 5.203420 -1.521411 1.125993
v 0.362477 0.388128 0.404119
vn 5.287072 1.008020 1.775848
v 0.362477 0.543741 0.404119
vn 4.861718 1.860193 3.058317
v 0.343051 0.595248 0.408510
vn -0.171320 0.074898 6.276928
v 0.132975 0.360334 0.595364
vn 1.661709 2.618500 5.324578
v 0.226278 0.398600 0.592431
vn 4.480524 2.505310 2.157111
v 0.342594 0.596708 0.408295
vn 3.994094 3.255617 2.228074
v 0.338613 0.602485 0.408125
vn 2.188005 3.737389 3.696456
v 0.335378 0.605338 0.408706
vn 1.050163 2.764997 5.336111
v 0.226239 0.398657 0.592413
vn -1.347387 0.695741 5.713332
v 0.117317 0.392658 0.594456
vn 0.463793 3.425845 5.114462
v 0.226208 0.398690 0.592398
vn -2.770777 1.147877 4.140396
v 0.113942 0.398657 0.592413
vn 0.017743 4.141433 4.724755
v 0.226185 0.398705 0.592385
vn -2.863932 1.646211 2.589913
v 0.113936 0.398690 0.592398
vn -3.109280 2.361086 2.278684
v 0.113937 0.398705 0.592385
vn -0.630295 4.271046 4.507648
v 0.162651 0.605338 0.408706
vn 1.901382 -4.855595 -1.016588
v 0.243603 0.245923 0.491349
vn -1.114637 -2.668626 2.368661
v 0.136778 0.245923 0.595480
vn -1.952142 -4.630959 -1.442094
v 0.136778 0.245923 0.491349
vn -0.961235 -3.031874 -4.290432
v 0.207045 0.388128 0.254193
vn 2.195531 -1.556864 -2.162650
v 0.362477 0.388128 0.254193
vn -0.371165 -0.058985 6.269059
v 0.132975 0.255928 0.595364
vn -2.917830 -1.341527 3.805377
v 0.117317 0.278364 0.594456
vn -3.222366 0.032022 5.393190
v 0.113993 0.398512 0.592452
vn -4.564908 -1.092965 2.627639
v 0.113993 0.284157 0.592452
vn -2.537185 0.789162 5.236082
v 0.113960 0.398600 0.592431
vn -4.666767 -0.839611 2.590561
v 0.113960 0.284258 0.592431
vn -5.313370 -0.550024 2.106393
v 0.113942 0.284337 0.592413
vn -6.018985 -0.209837 1.119781
v 0.113936 0.284394 0.592398
vn -6.202016 0.247441 -0.578314
v 0.113936 0.398690 0.486373
vn -6.185565 0.927433 -0.168532
v 0.113937 0.398705 0.486380
vn -2.911765 3.355959 1.380897
v 0.162171 0.606035 0.407893
vn -2.235065 2.001120 -1.958164
v 0.162171 0.606035 0.249725
vn -6.161456 -0.352444 -0.690512
v 0.113936 0.284394 0.486373
vn -4.223712 -0.825513 -3.245880
v 0.162171 0.430474 0.249725
vn -3.148279 -2.325585 2.762627
v 0.134325 0.248313 0.595224
vn -4.519258 -3.599091 -1.381368
v 0.134325 0.248313 0.491689
vn -1.486841 -0.689347 5.954425
v 0.133378 0.250466 0.595287
vn -5.459348 -2.691712 0.985163
v 0.115747 0.280356 0.592700
vn -5.434511 -2.297300 1.494047
v 0.114113 0.283878 0.592496
vn -5.063800 -1.756645 2.148666
v 0.114043 0.284031 0.592473
vn -5.135140 -2.897216 -1.400821
v 0.115747 0.280356 0.486732
vn -5.387549 -2.601331 -1.336230
v 0.114113 0.283878 0.486364
vn -5.484543 -2.409509 -1.265645
v 0.114043 0.284031 0.486358
vn -5.660038 -2.056783 -1.179421
v 0.113993 0.284157 0.486357
vn -5.845394 -1.601094 -1.062760
v 0.113960 0.284258 0.486360
vn -6.023484 -1.007910 -0.902646
v 0.113942 0.284337 0.486365
vn -2.274574 -1.546844 -4.542566
v 0.162651 0.430010 0.249496
vn -2.771678 -3.254437 -4.355209
v 0.171187 0.420987 0.250301
vn -2.797258 -2.925836 -4.411984
v 0.165458 0.426577 0.249908
vn 3.696671 0.578679 -2.712699
v 0.362477 0.543741 0.254193
vn 4.597645 2.394943 -2.121167
v 0.342594 0.596708 0.250541
vn 4.072437 4.366839 1.487688
v 0.335004 0.606152 0.407874
vn 2.591332 4.530278 1.959894
v 0.334935 0.606223 0.407851
vn 2.830448 2.147317 -2.935271
v 0.338613 0.602485 0.249809
vn 1.288984 4.959050 1.966498
v 0.334878 0.606257 0.407825
vn 1.924045 3.525259 -2.679754
v 0.334935 0.606223 0.249776
vn 1.219026 4.751633 -2.144496
v 0.334878 0.606257 0.249803
vn 0.396754 6.042724 0.920160
v 0.334832 0.606266 0.407801
vn -0.550894 5.110882 3.116872
v 0.163043 0.606257 0.407825
vn 0.398653 6.050925 -0.897958
v 0.334832 0.606266 0.249828
vn -0.677192 5.955032 0.974645
v 0.163049 0.606266 0.407801
vn 1.868299 0.451801 -5.760022
v 0.343019 0.593535 0.250000
vn 3.984883 1.502928 -3.659578
v 0.343051 0.595248 0.250301
vn 0.591257 -0.317321 -6.193019
v 0.343019 0.420625 0.250000
vn 0.413055 0.000739 -6.269593
v 0.335486 0.604969 0.249503
vn 1.270538 1.499945 -5.531200
v 0.335378 0.605338 0.249496
vn 0.194574 -0.160426 -6.272205
v 0.335486 0.429815 0.249503
vn 2.771430 3.049738 -4.489197
v 0.335094 0.606035 0.249725
vn 2.236704 3.114771 -3.096236
v 0.335004 0.606152 0.249749
vn 0.171980 -0.075400 -6.275009
v 0.335378 0.430010 0.249496
vn -1.084337 0.644827 -5.870256
v 0.162651 0.605338 0.249496
vn -0.036555 2.050180 -5.935411
v 0.163089 0.606152 0.249749
vn -0.156697 3.047400 -5.394131
v 0.163054 0.606223 0.249776
vn -0.537047 4.837161 -3.328727
v 0.163043 0.606257 0.249803
vn -0.675948 5.964985 -0.951832
v 0.163049 0.606266 0.249828
vn -1.043125 -1.634517 -5.707214
v 0.172418 0.420625 0.250000
vn -0.161765 -0.461052 -6.257546
v 0.162915 0.429815 0.249503
# 84 vertices, 0 vertices normals

f 1//1 2//2 3//3
f 1//1 4//4 5//5
f 1//1 5//5 2//2
f 1//1 6//6 7//7
f 1//1 3//3 6//6
f 1//1 8//8 9//9
f 1//1 9//9 4//4
f 1//1 7//7 8//8
f 2//2 5//5 10//10
f 2//2 10//10 3//3
f 4//4 11//11 5//5
f 4//4 9//9 12//12
f 4//4 12//12 13//13
f 4//4 13//13 14//14
f 4//4 14//14 11//11
f 5//5 11//11 15//15
f 5//5 15//15 16//16
f 5//5 16//16 10//10
f 11//11 14//14 15//15
f 15//15 17//17 18//18
f 15//15 18//18 16//16
f 15//15 14//14 17//17
f 17//17 19//19 20//20
f 17//17 20//20 18//18
f 17//17 14//14 19//19
f 19//19 21//21 20//20
f 19//19 14//14 22//22
f 19//19 22//22 21//21
f 6//6 23//23 7//7
f 6//6 3//3 24//24
f 6//6 24//24 23//23
f 23//23 24//24 25//25
f 23//23 25//25 26//26
f 23//23 27//27 7//7
f 23//23 26//26 27//27
f 3//3 10//10 28//28
f 3//3 28//28 24//24
f 10//10 16//16 29//29
f 10//10 29//29 28//28
f 16//16 30//30 31//31
f 16//16 32//32 30//30
f 16//16 18//18 32//32
f 16//16 31//31 29//29
f 30//30 32//32 33//33
f 30//30 33//33 31//31
f 32//32 18//18 34//34
f 32//32 34//34 33//33
f 18//18 20//20 35//35
f 18//18 35//35 34//34
f 20//20 21//21 36//36
f 20//20 36//36 35//35
f 21//21 37//37 36//36
f 21//21 22//22 38//38
f 21//21 38//38 37//37
f 36//36 37//37 39//39
f 36//36 40//40 35//35
f 36//36 39//39 41//41
f 36//36 41//41 40//40
f 37//37 38//38 39//39
f 24//24 42//42 43//43
f 24//24 44//44 42//42
f 24//24 28//28 44//44
f 24//24 43//43 25//25
f 42//42 44//44 29//29
f 42//42 29//29 45//45
f 42//42 45//45 43//43
f 44//44 28//28 29//29
f 29//29 46//46 45//45
f 29//29 47//47 46//46
f 29//29 31//31 47//47
f 45//45 46//46 48//48
f 45//45 48//48 43//43
f 46//46 47//47 49//49
f 46//46 49//49 48//48
f 47//47 31//31 50//50
f 47//47 50//50 49//49
f 31//31 33//33 51//51
f 31//31 51//51 50//50
f 33//33 34//34 52//52
f 33//33 52//52 51//51
f 34//34 35//35 53//53
f 34//34 53//53 52//52
f 35//35 40//40 53//53
f 25//25 43//43 54//54
f 25//25 55//55 26//26
f 25//25 56//56 55//55
f 25//25 54//54 56//56
f 43//43 48//48 41//41
f 43//43 41//41 54//54
f 48//48 49//49 41//41
f 49//49 50//50 41//41
f 50//50 51//51 41//41
f 51//51 52//52 41//41
f 52//52 53//53 41//41
f 53//53 40//40 41//41
f 8//8 12//12 9//9
f 8//8 57//57 58//58
f 8//8 58//58 12//12
f 8//8 7//7 57//57
f 12//12 58//58 13//13
f 13//13 59//59 14//14
f 13//13 60//60 59//59
f 13//13 58//58 61//61
f 13//13 61//61 60//60
f 14//14 59//59 60//60
f 14//14 60//60 62//62
f 14//14 62//62 22//22
f 60//60 61//61 63//63
f 60//60 63//63 64//64
f 60//60 64//64 62//62
f 62//62 65//65 66//66
f 62//62 64//64 67//67
f 62//62 67//67 65//65
f 62//62 66//66 22//22
f 65//65 67//67 68//68
f 65//65 68//68 66//66
f 57//57 69//69 70//70
f 57//57 70//70 58//58
f 57//57 7//7 27//27
f 57//57 27//27 71//71
f 57//57 71//71 69//69
f 69//69 61//61 70//70
f 69//69 72//72 73//73
f 69//69 73//73 61//61
f 69//69 71//71 74//74
f 69//69 74//74 72//72
f 70//70 61//61 58//58
f 61//61 73//73 75//75
f 61//61 75//75 76//76
f 61//61 76//76 63//63
f 72//72 74//74 77//77
f 72//72 77//77 73//73
f 73//73 76//76 75//75
f 73//73 77//77 78//78
f 73//73 78//78 79//79
f 73//73 79//79 76//76
f 76//76 79//79 63//63
f 63//63 79//79 80//80
f 63//63 80//80 64//64
f 64//64 80//80 81//81
f 64//64 81//81 67//67
f 67//67 81//81 82//82
f 67//67 82//82 68//68
f 27//27 26//26 71//71
f 71//71 26//26 83//83
f 71//71 83//83 74//74
f 74//74 83//83 84//84
f 74//74 84//84 77//77
f 77//77 84//84 54//54
f 77//77 54//54 78//78
f 22//22 66//66 38//38
f 38//38 66//66 68//68
f 38//38 68//68 82//82
f 38//38 82//82 39//39
f 78//78 39//39 79//79
f 78//78 54//54 41//41
f 78//78 41//41 39//39
f 39//39 80//80 79//79
f 39//39 81//81 80//80
f 39//39 82//82 81//81
f 26//26 55//55 83//83
f 83//83 55//55 56//56
f 83//83 56//56 54//54
f 83//83 54//54 84//84
# 164 faces, 0 coords texture

# End of File
