####
#
# OBJ File Generated by Meshlab
#
####
# Object step_12_link_7.obj
#
# Vertices: 65
# Faces: 126
#
####
vn 1.676697 2.692798 2.311257
v 0.482314 -0.080678 0.535853
vn 3.318798 0.475281 4.389200
v 0.482359 -0.081605 0.536018
vn 5.758578 0.580261 1.573168
v 0.604700 -0.085544 0.294843
vn 0.676201 0.786060 6.074358
v 0.481520 -0.081680 0.536204
vn 0.075420 1.222047 6.019210
v 0.480006 -0.081605 0.536257
vn 0.059250 6.282378 -0.017197
v 0.482314 -0.080678 0.427871
vn -1.421130 3.708746 2.070126
v 0.367029 -0.080678 0.535853
vn 2.486839 5.027013 0.510457
v 0.603757 -0.083291 0.293765
vn 5.013838 2.308152 0.980558
v 0.604651 -0.084300 0.294158
vn 0.633211 -0.501948 6.154879
v 0.481520 -0.192385 0.536204
vn 2.870039 -0.693451 4.406272
v 0.482359 -0.193115 0.536018
vn 0.074067 -0.818833 6.163611
v 0.480006 -0.192392 0.536257
vn -0.530504 1.419735 5.840364
v 0.366599 -0.081605 0.536257
vn -2.545023 4.928790 -0.361026
v 0.367029 -0.080678 0.427871
vn 1.804065 4.091376 -1.819244
v 0.603757 -0.083291 0.130306
vn -1.398965 4.357397 -2.221627
v 0.424265 -0.083291 0.130306
vn 1.123218 -5.197395 2.634436
v 0.482214 -0.194097 0.535494
vn 2.095060 -2.392184 3.682319
v 0.482314 -0.193828 0.535853
vn -0.676064 -5.532161 2.289160
v 0.367681 -0.194097 0.535494
vn -0.761410 -6.041642 0.637149
v 0.424265 -0.257797 0.293765
vn 1.120456 -5.869109 0.705318
v 0.603757 -0.257797 0.293765
vn 1.928802 -5.573073 1.732352
v 0.604216 -0.257557 0.294243
vn 3.962601 -2.986056 0.866533
v 0.604651 -0.257393 0.294158
vn -1.795845 -3.275259 2.755571
v 0.367029 -0.193828 0.535853
vn 4.673195 -2.832649 3.010712
v 0.604419 -0.256861 0.295078
vn 5.532284 -0.959089 1.696015
v 0.604700 -0.256559 0.294843
vn -0.393303 -0.900858 6.092423
v 0.366599 -0.192392 0.536257
vn -2.893973 1.228330 2.392208
v 0.366142 -0.081680 0.536204
vn -5.420193 1.934622 -0.436408
v 0.366142 -0.081680 0.428669
vn -3.182170 -0.626455 2.986168
v 0.366142 -0.192385 0.536204
vn -3.785789 1.851479 -2.588985
v 0.422949 -0.084300 0.130496
vn -6.218157 -0.173451 -0.530124
v 0.366142 -0.192385 0.428669
vn -5.566905 0.251620 -2.389156
v 0.422715 -0.085544 0.130795
vn -3.052210 -5.108713 0.367796
v 0.422949 -0.257393 0.294158
vn -1.487026 -6.001876 1.045037
v 0.423590 -0.257557 0.294243
vn -4.061698 -2.220192 1.945503
v 0.366185 -0.192926 0.535933
vn -5.469618 -2.052983 -0.368701
v 0.366185 -0.192926 0.428528
vn -5.552782 -0.478264 -2.219643
v 0.422715 -0.256559 0.130795
vn -2.943370 -2.360636 -2.028057
v 0.422949 -0.257393 0.130496
vn 4.466921 1.437795 -1.882543
v 0.604651 -0.084300 0.130496
vn 6.240241 0.071206 -0.470134
v 0.604700 -0.085544 0.130795
vn 0.493197 0.879485 -6.026275
v 0.595403 -0.089057 0.127544
vn 1.236935 0.631182 -6.048528
v 0.601845 -0.084993 0.129077
vn 0.609653 -0.263270 -6.179769
v 0.595403 -0.243393 0.127544
vn 1.181614 2.006332 -5.136967
v 0.602463 -0.084360 0.129278
vn -0.219253 0.974557 -6.075278
v 0.440591 -0.089057 0.127544
vn 0.884359 -0.658821 -6.052956
v 0.601845 -0.255304 0.129077
vn 2.185487 2.111323 -5.035406
v 0.603735 -0.083799 0.129929
vn 3.626461 1.858458 -3.870989
v 0.604216 -0.083948 0.130163
vn 1.198620 -1.469993 -5.537659
v 0.602463 -0.256130 0.129278
vn -0.738176 2.107037 -5.307989
v 0.426676 -0.084360 0.129278
vn 2.176009 -2.688773 -3.246531
v 0.604216 -0.257557 0.130163
vn 3.615613 -2.066386 -1.586616
v 0.604651 -0.257393 0.130496
vn 6.238205 -0.112510 -0.452367
v 0.604700 -0.256559 0.130795
vn 0.778713 -4.598975 -2.267889
v 0.603757 -0.257797 0.130306
vn -0.269503 -0.305881 -6.240292
v 0.440591 -0.243393 0.127544
vn -0.612115 -0.657676 -6.126096
v 0.427558 -0.255304 0.129077
vn -0.733749 -1.567873 -5.718114
v 0.426676 -0.256130 0.129278
vn -0.533674 -4.693010 -2.388071
v 0.424265 -0.257797 0.130306
vn -0.722967 0.740138 -6.104766
v 0.427558 -0.084993 0.129077
vn -1.346678 1.998197 -5.470565
v 0.424440 -0.083799 0.129929
vn -2.702696 2.119024 -4.259545
v 0.423590 -0.083948 0.130163
vn -2.926871 0.002079 -5.559329
v 0.423147 -0.085252 0.130389
vn -1.702117 -2.797690 -3.381821
v 0.423590 -0.257557 0.130163
vn -2.926505 -0.006477 -5.559496
v 0.423147 -0.256861 0.130389
# 65 vertices, 0 vertices normals

f 1//1 2//2 3//3
f 1//1 4//4 2//2
f 1//1 5//5 4//4
f 1//1 6//6 7//7
f 1//1 7//7 5//5
f 1//1 8//8 6//6
f 1//1 9//9 8//8
f 1//1 3//3 9//9
f 2//2 4//4 10//10
f 2//2 11//11 3//3
f 2//2 10//10 11//11
f 4//4 5//5 12//12
f 4//4 12//12 10//10
f 5//5 7//7 13//13
f 5//5 13//13 12//12
f 6//6 14//14 7//7
f 6//6 8//8 15//15
f 6//6 15//15 16//16
f 6//6 16//16 14//14
f 17//17 18//18 19//19
f 17//17 19//19 20//20
f 17//17 21//21 22//22
f 17//17 22//22 23//23
f 17//17 23//23 18//18
f 17//17 20//20 21//21
f 18//18 11//11 12//12
f 18//18 12//12 24//24
f 18//18 24//24 19//19
f 18//18 23//23 25//25
f 18//18 25//25 26//26
f 18//18 26//26 11//11
f 11//11 10//10 12//12
f 11//11 26//26 3//3
f 12//12 13//13 27//27
f 12//12 27//27 24//24
f 7//7 28//28 13//13
f 7//7 14//14 29//29
f 7//7 29//29 28//28
f 28//28 29//29 30//30
f 28//28 30//30 27//27
f 28//28 27//27 13//13
f 14//14 16//16 31//31
f 14//14 31//31 29//29
f 29//29 32//32 30//30
f 29//29 31//31 33//33
f 29//29 33//33 32//32
f 19//19 24//24 34//34
f 19//19 35//35 20//20
f 19//19 34//34 35//35
f 24//24 36//36 34//34
f 24//24 30//30 36//36
f 24//24 27//27 30//30
f 36//36 30//30 32//32
f 36//36 37//37 34//34
f 36//36 32//32 37//37
f 37//37 32//32 38//38
f 37//37 39//39 34//34
f 37//37 38//38 39//39
f 32//32 33//33 38//38
f 8//8 9//9 40//40
f 8//8 40//40 15//15
f 9//9 3//3 41//41
f 9//9 41//41 40//40
f 3//3 26//26 41//41
f 42//42 43//43 44//44
f 42//42 45//45 43//43
f 42//42 44//44 46//46
f 42//42 46//46 45//45
f 43//43 45//45 47//47
f 43//43 47//47 44//44
f 45//45 48//48 49//49
f 45//45 15//15 48//48
f 45//45 49//49 50//50
f 45//45 50//50 47//47
f 45//45 46//46 51//51
f 45//45 51//51 15//15
f 48//48 15//15 49//49
f 15//15 40//40 49//49
f 15//15 51//51 16//16
f 49//49 40//40 52//52
f 49//49 52//52 50//50
f 40//40 41//41 53//53
f 40//40 53//53 52//52
f 41//41 26//26 54//54
f 41//41 54//54 53//53
f 21//21 23//23 22//22
f 21//21 55//55 53//53
f 21//21 53//53 23//23
f 21//21 20//20 55//55
f 23//23 26//26 25//25
f 23//23 53//53 54//54
f 23//23 54//54 26//26
f 44//44 47//47 56//56
f 44//44 56//56 46//46
f 47//47 50//50 57//57
f 47//47 57//57 56//56
f 50//50 55//55 58//58
f 50//50 52//52 55//55
f 50//50 58//58 57//57
f 55//55 52//52 53//53
f 55//55 20//20 59//59
f 55//55 59//59 58//58
f 46//46 60//60 51//51
f 46//46 56//56 60//60
f 60//60 56//56 57//57
f 60//60 57//57 51//51
f 51//51 61//61 16//16
f 51//51 62//62 61//61
f 51//51 57//57 58//58
f 51//51 58//58 62//62
f 61//61 62//62 16//16
f 16//16 62//62 31//31
f 62//62 63//63 31//31
f 62//62 58//58 64//64
f 62//62 64//64 63//63
f 31//31 63//63 39//39
f 31//31 39//39 33//33
f 63//63 64//64 65//65
f 63//63 65//65 39//39
f 33//33 39//39 38//38
f 20//20 35//35 34//34
f 20//20 34//34 39//39
f 20//20 39//39 59//59
f 58//58 59//59 64//64
f 59//59 39//39 64//64
f 64//64 39//39 65//65
# 126 faces, 0 coords texture

# End of File
