####
#
# OBJ File Generated by Meshlab
#
####
# Object step_36_link_4.obj
#
# Vertices: 37
# Faces: 70
#
####
vn 4.228671 1.957143 -2.266713
v 0.090636 0.073933 0.440225
vn 2.205965 1.188445 -4.677473
v 0.090342 0.073804 0.439888
vn 1.022863 3.471407 -3.122319
v 0.088910 0.075249 0.440181
vn 1.998606 5.319141 -0.656632
v 0.118446 0.114797 0.644561
vn 4.448836 -1.756515 -2.292376
v 0.090636 -0.027511 0.440225
vn 4.956101 2.366739 -0.553199
v 0.121426 0.112315 0.644921
vn 5.896733 -1.320614 -0.351664
v 0.121426 0.009447 0.644921
vn 1.552645 -1.903232 -4.005321
v 0.090342 -0.027426 0.439888
vn -0.219071 0.527047 -6.207800
v -0.010890 0.073804 0.439888
vn -1.881786 1.788548 -1.915609
v -0.013538 0.075249 0.440181
vn -2.418566 4.860446 -0.322512
v 0.013001 0.114797 0.644561
vn 2.235548 -5.127196 0.303007
v 0.090533 -0.027729 0.540502
vn 2.265030 -4.150552 -1.234306
v 0.090533 -0.027729 0.440373
vn 5.243348 -3.370693 -0.065049
v 0.121225 0.009036 0.645166
vn -0.697187 -6.109252 0.578471
v -0.011191 -0.027729 0.540502
vn 2.429472 -3.708707 1.687805
v 0.121225 0.009036 0.745569
vn -0.703985 -5.325903 2.505579
v 0.017627 0.009036 0.745569
vn -0.299630 -2.584016 -4.741979
v -0.010890 -0.027426 0.439888
vn -0.618222 -5.595234 -1.661838
v -0.011191 -0.027729 0.440373
vn -5.737805 1.879981 0.200175
v -0.013538 0.075249 0.540614
vn -6.241844 0.226246 0.380780
v -0.013579 0.074726 0.540614
vn -1.626139 1.871898 1.799028
v 0.013001 0.114797 0.745983
vn -3.442087 0.152750 -3.049465
v -0.013579 0.074726 0.440176
vn -6.228486 -0.293548 0.427833
v -0.013579 -0.026742 0.540614
vn -3.317735 -0.131282 3.474153
v 0.012923 0.011322 0.745988
vn -3.312966 0.146784 3.439655
v 0.012923 0.113751 0.745988
vn -3.455500 -0.165654 -3.035894
v -0.013579 -0.026742 0.440176
vn -3.607373 -3.217000 0.509306
v -0.013538 -0.027194 0.540614
vn -2.134349 -1.819716 -1.869763
v -0.013538 -0.027194 0.440181
vn -2.283799 -1.784587 2.509915
v 0.013001 0.010412 0.745983
vn 4.192088 1.913858 1.662852
v 0.121426 0.112315 0.745642
vn 2.275793 0.966937 4.827729
v 0.120817 0.111995 0.746337
vn 4.866895 -1.281291 1.942018
v 0.121426 0.009447 0.745642
vn 1.078230 3.125462 2.424859
v 0.118446 0.114797 0.745983
vn -0.133928 0.333048 6.253779
v 0.018252 0.111995 0.746337
vn 1.606377 -1.764013 4.220286
v 0.120817 0.009619 0.746337
vn -0.254034 -2.462750 4.988337
v 0.018252 0.009619 0.746337
# 37 vertices, 0 vertices normals

f 1//1 2//2 3//3
f 1//1 3//3 4//4
f 1//1 5//5 2//2
f 1//1 6//6 7//7
f 1//1 4//4 6//6
f 1//1 7//7 5//5
f 2//2 5//5 8//8
f 2//2 8//8 9//9
f 2//2 9//9 3//3
f 3//3 9//9 10//10
f 3//3 10//10 11//11
f 3//3 11//11 4//4
f 12//12 13//13 14//14
f 12//12 15//15 13//13
f 12//12 16//16 17//17
f 12//12 14//14 16//16
f 12//12 17//17 15//15
f 5//5 13//13 8//8
f 5//5 7//7 13//13
f 8//8 13//13 18//18
f 8//8 18//18 9//9
f 13//13 15//15 19//19
f 13//13 19//19 18//18
f 13//13 7//7 14//14
f 20//20 21//21 22//22
f 20//20 10//10 21//21
f 20//20 22//22 11//11
f 20//20 11//11 10//10
f 21//21 10//10 23//23
f 21//21 23//23 24//24
f 21//21 24//24 25//25
f 21//21 26//26 22//22
f 21//21 25//25 26//26
f 9//9 23//23 10//10
f 9//9 18//18 27//27
f 9//9 27//27 23//23
f 23//23 27//27 24//24
f 15//15 28//28 19//19
f 15//15 17//17 28//28
f 28//28 24//24 29//29
f 28//28 29//29 19//19
f 28//28 17//17 30//30
f 28//28 30//30 24//24
f 24//24 27//27 29//29
f 24//24 30//30 25//25
f 18//18 19//19 29//29
f 18//18 29//29 27//27
f 31//31 32//32 33//33
f 31//31 34//34 32//32
f 31//31 6//6 34//34
f 31//31 33//33 6//6
f 32//32 34//34 35//35
f 32//32 36//36 33//33
f 32//32 35//35 36//36
f 34//34 6//6 4//4
f 34//34 4//4 22//22
f 34//34 22//22 35//35
f 6//6 33//33 7//7
f 4//4 11//11 22//22
f 33//33 36//36 16//16
f 33//33 16//16 14//14
f 33//33 14//14 7//7
f 36//36 35//35 37//37
f 36//36 37//37 16//16
f 16//16 37//37 17//17
f 35//35 22//22 26//26
f 35//35 26//26 25//25
f 35//35 25//25 37//37
f 37//37 30//30 17//17
f 37//37 25//25 30//30
# 70 faces, 0 coords texture

# End of File
