####
#
# OBJ File Generated by Meshlab
#
####
# Object step_39_link_6.obj
#
# Vertices: 71
# Faces: 138
#
####
vn 2.374982 0.267974 5.699764
v 0.271034 0.204796 0.645587
vn 1.357920 0.236131 6.091029
v 0.267505 0.208589 0.646410
vn 0.662804 -0.373075 6.176524
v 0.267505 0.104366 0.646410
vn 1.637861 1.085227 5.756186
v 0.262219 0.223094 0.646851
vn 1.447911 -1.403880 5.352977
v 0.271034 0.098483 0.645587
vn 3.882504 -0.410525 4.790517
v 0.354840 0.138330 0.594851
vn 3.961160 0.304938 4.692146
v 0.354840 0.246500 0.594851
vn 4.333480 1.514000 2.659784
v 0.354686 0.248621 0.594732
vn 3.760330 2.326872 2.576049
v 0.342838 0.273255 0.596996
vn 0.740106 0.126684 6.214532
v 0.263693 0.216098 0.646858
vn 0.313407 -0.216773 6.252275
v 0.263693 0.109477 0.646858
vn 0.813832 1.435958 5.785414
v 0.261091 0.223769 0.646948
vn 0.087440 -0.055012 6.280541
v 0.261091 0.113086 0.646948
vn 2.716972 2.558846 4.904546
v 0.341680 0.274240 0.597172
vn 2.211796 3.697741 2.915143
v 0.340222 0.276096 0.596915
vn 0.735295 2.788639 5.473197
v 0.259610 0.225216 0.646552
vn 0.135924 2.998136 5.267768
v 0.259180 0.225322 0.646540
vn -1.769545 0.474413 5.483814
v 0.149871 0.223769 0.646948
vn -2.418730 1.758753 2.083777
v 0.149384 0.225322 0.646540
vn -0.194589 4.804417 3.974528
v 0.226498 0.276096 0.596915
vn 1.511421 -3.389157 2.466834
v 0.272030 0.096870 0.644601
vn -0.542585 -4.691734 2.369955
v 0.170646 0.096870 0.644601
vn 0.866912 -5.453869 -1.489399
v 0.272030 0.096870 0.544103
vn 3.708680 -2.152503 1.460757
v 0.356247 0.135494 0.593129
vn -1.564896 -3.051561 2.679180
v 0.165677 0.098483 0.645587
vn -0.176614 -0.822296 6.217237
v 0.162985 0.104366 0.646410
vn -0.241082 -0.656951 6.218540
v 0.156678 0.109477 0.646858
vn -2.559182 -1.562535 2.612797
v 0.149871 0.113086 0.646948
vn -0.754347 -5.289114 -1.883272
v 0.170646 0.096870 0.544103
vn -0.126658 -4.162961 -4.543363
v 0.254386 0.135494 0.492426
vn 2.536183 -2.109057 -1.806309
v 0.356247 0.135494 0.492426
vn -5.074364 -0.559918 2.122041
v 0.149384 0.114644 0.646540
vn -5.085635 0.007625 3.091323
v 0.149374 0.224266 0.646532
vn -6.202993 0.033864 0.693216
v 0.149372 0.224272 0.646523
vn -3.975457 1.809654 -1.679860
v 0.149384 0.225322 0.542252
vn -6.203006 0.033811 -0.693159
v 0.149372 0.224272 0.542269
vn -1.323132 5.205235 1.421305
v 0.225695 0.276738 0.595956
vn -6.206860 -0.020654 0.675895
v 0.149372 0.115652 0.646523
vn -5.108094 -0.025027 2.981183
v 0.149374 0.115614 0.646532
vn -3.809600 0.050486 -4.983724
v 0.149871 0.223769 0.541836
vn -1.326599 2.636537 -2.440182
v 0.225695 0.276738 0.489753
vn -5.107087 0.007656 -3.073161
v 0.149374 0.224266 0.542260
vn -3.614464 -2.081977 -2.357918
v 0.149871 0.113086 0.541836
vn -5.129541 -0.024966 -2.963281
v 0.149374 0.115614 0.542260
vn -2.893697 0.041105 -5.515112
v 0.225664 0.276292 0.489764
vn -2.864462 -0.015837 -5.535841
v 0.225664 0.162508 0.489764
vn -6.206860 -0.020649 -0.675895
v 0.149372 0.115652 0.542269
vn -2.249539 -4.047946 -2.269818
v 0.165677 0.098483 0.543163
vn -5.096322 -0.561316 -2.103444
v 0.149384 0.114644 0.542252
vn -0.681352 -2.310791 -5.290067
v 0.247937 0.138330 0.490679
vn -1.545476 -0.910483 -5.658875
v 0.226805 0.159979 0.489373
vn -2.798401 -0.223552 -5.544972
v 0.225695 0.161942 0.489753
vn 5.599962 0.188408 1.832981
v 0.356247 0.237289 0.593129
vn 5.041285 0.123031 3.659419
v 0.355154 0.245537 0.594519
vn 4.747539 -0.059428 4.103763
v 0.355154 0.138594 0.594519
vn 5.329409 0.980370 1.905790
v 0.355134 0.247336 0.594420
vn 5.614551 0.188806 -1.814291
v 0.356247 0.237289 0.492426
vn 5.419105 1.062418 -1.792550
v 0.355134 0.247336 0.491192
vn 4.090181 1.554223 -2.769029
v 0.354686 0.248621 0.490911
vn 2.890139 1.755968 -2.857535
v 0.342838 0.273255 0.489490
vn 4.320918 4.480802 0.378379
v 0.340128 0.276362 0.595942
vn 1.566508 5.091120 1.246298
v 0.339682 0.276738 0.595956
vn 3.060596 3.324332 -2.663325
v 0.340128 0.276362 0.489739
vn 1.086498 3.201950 -2.408535
v 0.339682 0.276738 0.489753
vn 5.153335 0.176810 -3.437465
v 0.355154 0.245537 0.491014
vn 4.771429 -0.062244 -4.075062
v 0.355154 0.138594 0.491014
vn 2.871848 0.256067 -4.918053
v 0.354840 0.246500 0.490679
vn 1.884035 -1.151509 -4.909914
v 0.354840 0.138330 0.490679
vn 1.458944 1.504677 -5.442098
v 0.341680 0.274240 0.489373
vn 0.256037 -0.127412 -6.263693
v 0.341680 0.159979 0.489373
vn -0.874941 0.298315 -6.089943
v 0.226805 0.274240 0.489373
# 71 vertices, 0 vertices normals

f 1//1 2//2 3//3
f 1//1 4//4 2//2
f 1//1 5//5 6//6
f 1//1 3//3 5//5
f 1//1 7//7 8//8
f 1//1 8//8 9//9
f 1//1 9//9 4//4
f 1//1 6//6 7//7
f 2//2 10//10 11//11
f 2//2 4//4 10//10
f 2//2 11//11 3//3
f 10//10 4//4 12//12
f 10//10 12//12 13//13
f 10//10 13//13 11//11
f 4//4 9//9 14//14
f 4//4 14//14 15//15
f 4//4 15//15 12//12
f 12//12 16//16 17//17
f 12//12 17//17 18//18
f 12//12 18//18 13//13
f 12//12 15//15 16//16
f 16//16 15//15 17//17
f 17//17 19//19 18//18
f 17//17 15//15 20//20
f 17//17 20//20 19//19
f 21//21 5//5 22//22
f 21//21 23//23 24//24
f 21//21 22//22 23//23
f 21//21 24//24 6//6
f 21//21 6//6 5//5
f 5//5 3//3 25//25
f 5//5 25//25 22//22
f 3//3 11//11 26//26
f 3//3 26//26 25//25
f 11//11 13//13 27//27
f 11//11 27//27 26//26
f 13//13 18//18 28//28
f 13//13 28//28 27//27
f 23//23 22//22 29//29
f 23//23 29//29 30//30
f 23//23 31//31 24//24
f 23//23 30//30 31//31
f 18//18 19//19 32//32
f 18//18 32//32 28//28
f 19//19 33//33 32//32
f 19//19 34//34 33//33
f 19//19 35//35 36//36
f 19//19 36//36 34//34
f 19//19 20//20 37//37
f 19//19 37//37 35//35
f 33//33 34//34 38//38
f 33//33 39//39 32//32
f 33//33 38//38 39//39
f 34//34 36//36 38//38
f 40//40 35//35 41//41
f 40//40 42//42 35//35
f 40//40 43//43 44//44
f 40//40 44//44 42//42
f 40//40 41//41 45//45
f 40//40 45//45 46//46
f 40//40 46//46 43//43
f 35//35 42//42 36//36
f 35//35 37//37 41//41
f 42//42 44//44 47//47
f 42//42 47//47 36//36
f 36//36 47//47 38//38
f 22//22 25//25 48//48
f 22//22 48//48 29//29
f 25//25 26//26 27//27
f 25//25 27//27 28//28
f 25//25 28//28 43//43
f 25//25 43//43 48//48
f 28//28 32//32 49//49
f 28//28 49//49 43//43
f 32//32 39//39 38//38
f 32//32 38//38 47//47
f 32//32 47//47 49//49
f 29//29 48//48 30//30
f 48//48 43//43 50//50
f 48//48 50//50 30//30
f 43//43 49//49 44//44
f 43//43 51//51 50//50
f 43//43 52//52 51//51
f 43//43 46//46 52//52
f 49//49 47//47 44//44
f 53//53 54//54 55//55
f 53//53 56//56 54//54
f 53//53 57//57 58//58
f 53//53 58//58 56//56
f 53//53 24//24 57//57
f 53//53 55//55 24//24
f 54//54 7//7 6//6
f 54//54 56//56 7//7
f 54//54 6//6 55//55
f 7//7 56//56 8//8
f 56//56 58//58 59//59
f 56//56 59//59 8//8
f 8//8 59//59 60//60
f 8//8 60//60 9//9
f 9//9 15//15 14//14
f 9//9 61//61 15//15
f 9//9 60//60 61//61
f 15//15 61//61 62//62
f 15//15 62//62 20//20
f 61//61 60//60 63//63
f 61//61 63//63 64//64
f 61//61 64//64 62//62
f 62//62 64//64 37//37
f 62//62 37//37 20//20
f 57//57 65//65 58//58
f 57//57 24//24 31//31
f 57//57 31//31 66//66
f 57//57 66//66 65//65
f 65//65 67//67 58//58
f 65//65 66//66 68//68
f 65//65 68//68 67//67
f 67//67 59//59 58//58
f 67//67 60//60 59//59
f 67//67 69//69 60//60
f 67//67 68//68 70//70
f 67//67 70//70 69//69
f 60//60 69//69 63//63
f 69//69 64//64 63//63
f 69//69 70//70 71//71
f 69//69 71//71 64//64
f 64//64 71//71 41//41
f 64//64 41//41 37//37
f 24//24 55//55 6//6
f 31//31 68//68 66//66
f 31//31 30//30 68//68
f 68//68 30//30 50//50
f 68//68 50//50 70//70
f 70//70 50//50 51//51
f 70//70 51//51 71//71
f 71//71 51//51 52//52
f 71//71 52//52 41//41
f 41//41 52//52 46//46
f 41//41 46//46 45//45
# 138 faces, 0 coords texture

# End of File
