####
#
# OBJ File Generated by Meshlab
#
####
# Object step_4_link_4.obj
#
# Vertices: 97
# Faces: 190
#
####
vn 0.214945 6.268117 0.123953
v 0.162599 0.023068 0.511167
vn 0.547270 5.730939 -1.513624
v 0.162599 0.023068 0.410696
vn -1.450185 5.837050 0.474490
v 0.060173 0.023068 0.511167
vn -0.484178 5.336155 2.247738
v 0.176249 0.013027 0.686253
vn 0.940387 5.194683 1.791002
v 0.281066 0.013027 0.686253
vn 1.685225 5.905557 -0.267418
v 0.281066 0.013027 0.584556
vn 3.435660 0.151787 -4.770716
v 0.162320 0.016836 0.409930
vn 0.915268 0.427209 -6.074051
v 0.161854 0.017108 0.409797
vn 1.414071 1.145442 -5.673499
v 0.162559 0.022916 0.410635
vn 4.212515 0.374079 -4.436324
v 0.162613 0.022936 0.410670
vn 5.651363 0.059892 -2.459185
v 0.281090 0.012824 0.584521
vn 3.092865 -1.600617 -3.992376
v 0.162320 -0.084178 0.409930
vn 0.979080 -1.688415 -5.432839
v 0.161854 -0.084283 0.409797
vn 5.274206 0.008126 -3.411202
v 0.280398 0.000284 0.583390
vn -1.248704 0.323956 -5.938820
v 0.061258 0.017108 0.409797
vn 4.142070 0.532998 -4.454572
v 0.162614 0.022969 0.410674
vn 3.997118 0.782392 -4.492481
v 0.162614 0.022996 0.410677
vn 3.772231 1.082408 -4.536917
v 0.162612 0.023019 0.410680
vn 3.406094 1.464911 -4.561851
v 0.162611 0.023036 0.410684
vn 2.894412 1.938714 -4.511413
v 0.162609 0.023049 0.410687
vn 2.412769 2.505425 -4.311066
v 0.162606 0.023058 0.410690
vn -0.574119 1.300972 -6.005470
v 0.060306 0.022916 0.410635
vn 5.714866 0.189067 -1.777865
v 0.281091 0.012881 0.584525
vn 5.697377 0.434192 -1.746558
v 0.281090 0.012926 0.584530
vn 5.653888 0.814318 -1.722313
v 0.281088 0.012962 0.584535
vn 5.552911 1.350134 -1.669827
v 0.281084 0.012988 0.584540
vn 5.317876 2.123551 -1.565359
v 0.281080 0.013007 0.584545
vn 2.041659 3.323836 -3.870070
v 0.162604 0.023064 0.410692
vn 4.751405 3.246527 -1.329081
v 0.281075 0.013018 0.584549
vn -3.035589 1.631212 -2.789145
v 0.060167 0.023058 0.410690
vn 1.409033 4.504353 -2.963308
v 0.162601 0.023067 0.410694
vn 3.508639 4.684792 -0.849645
v 0.281071 0.013025 0.584553
vn -2.752245 2.481662 -2.560457
v 0.060169 0.023064 0.410692
vn -2.177591 3.842208 -2.097089
v 0.060171 0.023067 0.410694
vn -1.018742 5.552532 -1.229891
v 0.060173 0.023068 0.410696
vn 0.999975 -4.369068 -2.849287
v 0.161758 -0.084730 0.410070
vn 2.360103 -4.793733 -0.916716
v 0.279407 -0.102922 0.583675
vn -1.531033 -4.103520 -2.061320
v 0.061514 -0.084730 0.410070
vn -0.389153 -6.233387 -0.225418
v 0.178921 -0.102922 0.583675
vn 4.701827 -1.901844 -1.568464
v 0.280398 -0.101780 0.583390
vn -1.526688 -1.874775 -4.844596
v 0.061258 -0.084283 0.409797
vn -6.004758 0.072219 1.246267
v 0.060010 0.019458 0.510828
vn -5.689075 0.208333 2.190077
v 0.060166 0.023036 0.511174
vn -5.648736 0.644739 1.752654
v 0.060166 0.023049 0.511173
vn -3.306387 1.095799 -2.938225
v 0.060166 0.023049 0.410687
vn -4.347457 0.240943 -2.851163
v 0.060010 0.019458 0.410489
vn -5.505178 -0.897054 1.592742
v 0.060010 -0.081252 0.510828
vn -5.480190 -0.010303 3.029860
v 0.060166 -0.077609 0.511174
vn -2.615707 0.210573 4.817426
v 0.176232 0.012962 0.686264
vn -5.455293 1.445473 1.685308
v 0.060167 0.023058 0.511171
vn -2.592757 0.634145 4.771110
v 0.176233 0.012988 0.686262
vn -4.902194 2.726974 1.522382
v 0.060169 0.023064 0.511170
vn -2.502864 1.284090 4.656439
v 0.176236 0.013007 0.686260
vn -3.562387 4.396282 1.097657
v 0.060171 0.023067 0.511169
vn -2.229071 2.295048 4.339544
v 0.176240 0.013018 0.686258
vn -1.517216 3.715970 3.583368
v 0.176244 0.013025 0.686255
vn -2.884620 0.038981 -5.572129
v 0.060968 0.016836 0.409930
vn -3.642339 -1.879829 -2.454802
v 0.060968 -0.084178 0.409930
vn -4.635520 -0.544538 -2.400276
v 0.060010 -0.081252 0.410489
vn -2.364405 0.436844 -5.803595
v 0.060172 0.022969 0.410674
vn -2.515235 0.591656 -5.580690
v 0.060169 0.022996 0.410677
vn -3.147579 0.703796 -4.837223
v 0.060166 0.023019 0.410680
vn -3.519040 0.819004 -3.464067
v 0.060166 0.023036 0.410684
vn -2.727711 -5.209881 0.428799
v 0.061514 -0.084730 0.510193
vn -4.582900 -3.020691 1.377702
v 0.060968 -0.084178 0.510685
vn -1.105469 -5.351157 1.659098
v 0.178921 -0.102922 0.683927
vn -3.645037 -3.079181 3.137904
v 0.177687 -0.101780 0.684937
vn -3.583144 -0.917628 4.413512
v 0.175770 -0.096038 0.685345
vn -5.349544 -0.065497 3.286528
v 0.060166 -0.077635 0.511175
vn -2.620655 -0.046777 4.863028
v 0.176233 -0.089121 0.686264
vn -4.903980 -0.004077 3.890635
v 0.176232 -0.089071 0.686264
vn 4.724356 0.024765 2.697967
v 0.281091 0.012881 0.686264
vn 3.123301 0.144716 3.094385
v 0.281090 0.012926 0.686264
vn 1.576035 -0.010956 5.855196
v 0.281090 -0.089121 0.686264
vn 3.125458 -0.069370 3.126314
v 0.281091 -0.089182 0.686264
vn 3.089715 0.393396 3.073763
v 0.281088 0.012962 0.686264
vn -2.268909 0.023887 5.298504
v 0.176233 0.012926 0.686264
vn 3.038132 0.769916 3.033300
v 0.281084 0.012988 0.686262
vn 2.917781 1.321908 2.958340
v 0.281080 0.013007 0.686260
vn 2.628842 2.160898 2.791627
v 0.281075 0.013018 0.686258
vn 1.986261 3.421464 2.468621
v 0.281071 0.013025 0.686255
vn 5.819994 -0.083872 -1.616888
v 0.281090 -0.089252 0.584521
vn 6.210432 -0.024310 -0.656534
v 0.281091 -0.089182 0.584525
vn 1.844137 -4.760059 1.219277
v 0.279407 -0.102922 0.683927
vn 3.465461 -1.819987 2.231596
v 0.280398 -0.101780 0.684937
vn 0.972122 -2.687487 4.501185
v 0.279456 -0.101990 0.685274
vn 3.029065 -0.447230 3.794139
v 0.280948 -0.091406 0.686155
vn 3.132129 -0.340461 3.253016
v 0.281081 -0.089424 0.686255
vn 3.126088 -0.276105 3.121207
v 0.281087 -0.089333 0.686259
vn 5.931592 -0.173091 -1.419373
v 0.281087 -0.089333 0.584516
vn -1.411799 -2.730627 3.904857
v 0.178253 -0.101990 0.685274
vn -1.308261 -0.504914 5.959334
v 0.176478 -0.091406 0.686155
vn -0.358735 -0.349793 6.252503
v 0.176261 -0.089424 0.686255
vn 3.127044 -0.173219 3.117358
v 0.281090 -0.089252 0.686262
vn -1.547312 -0.392030 5.853545
v 0.176249 -0.089333 0.686259
vn -1.893278 -0.299273 5.628413
v 0.176241 -0.089252 0.686262
vn -2.319799 -0.173074 5.238145
v 0.176235 -0.089182 0.686264
# 97 vertices, 0 vertices normals

f 1//1 2//2 3//3
f 1//1 3//3 4//4
f 1//1 5//5 6//6
f 1//1 6//6 2//2
f 1//1 4//4 5//5
f 7//7 8//8 9//9
f 7//7 9//9 10//10
f 7//7 10//10 11//11
f 7//7 12//12 13//13
f 7//7 13//13 8//8
f 7//7 14//14 12//12
f 7//7 11//11 14//14
f 8//8 13//13 15//15
f 8//8 15//15 9//9
f 9//9 16//16 10//10
f 9//9 17//17 16//16
f 9//9 18//18 17//17
f 9//9 19//19 18//18
f 9//9 20//20 19//19
f 9//9 21//21 20//20
f 9//9 15//15 22//22
f 9//9 22//22 21//21
f 10//10 16//16 23//23
f 10//10 23//23 11//11
f 16//16 17//17 24//24
f 16//16 24//24 23//23
f 17//17 18//18 24//24
f 18//18 19//19 25//25
f 18//18 25//25 24//24
f 19//19 20//20 26//26
f 19//19 26//26 25//25
f 20//20 21//21 27//27
f 20//20 27//27 26//26
f 21//21 28//28 29//29
f 21//21 22//22 30//30
f 21//21 30//30 28//28
f 21//21 29//29 27//27
f 28//28 31//31 32//32
f 28//28 30//30 33//33
f 28//28 33//33 31//31
f 28//28 32//32 29//29
f 31//31 2//2 6//6
f 31//31 33//33 34//34
f 31//31 34//34 2//2
f 31//31 6//6 32//32
f 2//2 34//34 35//35
f 2//2 35//35 3//3
f 36//36 12//12 37//37
f 36//36 13//13 12//12
f 36//36 38//38 13//13
f 36//36 37//37 39//39
f 36//36 39//39 38//38
f 12//12 14//14 40//40
f 12//12 40//40 37//37
f 13//13 38//38 41//41
f 13//13 41//41 15//15
f 42//42 43//43 44//44
f 42//42 44//44 45//45
f 42//42 46//46 47//47
f 42//42 45//45 46//46
f 42//42 47//47 48//48
f 42//42 48//48 43//43
f 43//43 48//48 49//49
f 43//43 49//49 44//44
f 44//44 50//50 30//30
f 44//44 30//30 45//45
f 44//44 49//49 51//51
f 44//44 51//51 50//50
f 50//50 52//52 33//33
f 50//50 33//33 30//30
f 50//50 51//51 53//53
f 50//50 53//53 52//52
f 52//52 54//54 34//34
f 52//52 34//34 33//33
f 52//52 53//53 55//55
f 52//52 55//55 56//56
f 52//52 56//56 54//54
f 54//54 3//3 35//35
f 54//54 35//35 34//34
f 54//54 56//56 4//4
f 54//54 4//4 3//3
f 57//57 15//15 41//41
f 57//57 46//46 15//15
f 57//57 58//58 59//59
f 57//57 41//41 58//58
f 57//57 59//59 46//46
f 15//15 46//46 60//60
f 15//15 60//60 61//61
f 15//15 61//61 22//22
f 46//46 61//61 60//60
f 46//46 62//62 61//61
f 46//46 63//63 62//62
f 46//46 45//45 63//63
f 46//46 59//59 47//47
f 22//22 61//61 62//62
f 22//22 62//62 63//63
f 22//22 63//63 45//45
f 22//22 45//45 30//30
f 64//64 65//65 58//58
f 64//64 38//38 39//39
f 64//64 58//58 38//38
f 64//64 66//66 67//67
f 64//64 67//67 65//65
f 64//64 39//39 66//66
f 65//65 47//47 59//59
f 65//65 59//59 58//58
f 65//65 67//67 68//68
f 65//65 68//68 47//47
f 47//47 69//69 48//48
f 47//47 68//68 70//70
f 47//47 70//70 69//69
f 69//69 70//70 48//48
f 48//48 70//70 71//71
f 48//48 71//71 49//49
f 38//38 58//58 41//41
f 72//72 73//73 74//74
f 72//72 23//23 24//24
f 72//72 24//24 73//73
f 72//72 75//75 23//23
f 72//72 74//74 75//75
f 73//73 76//76 77//77
f 73//73 24//24 25//25
f 73//73 25//25 76//76
f 73//73 77//77 74//74
f 76//76 78//78 49//49
f 76//76 25//25 26//26
f 76//76 26//26 78//78
f 76//76 49//49 77//77
f 78//78 79//79 51//51
f 78//78 26//26 27//27
f 78//78 27//27 79//79
f 78//78 51//51 49//49
f 79//79 80//80 53//53
f 79//79 27//27 29//29
f 79//79 29//29 80//80
f 79//79 53//53 51//51
f 80//80 81//81 55//55
f 80//80 29//29 32//32
f 80//80 32//32 81//81
f 80//80 55//55 53//53
f 81//81 5//5 56//56
f 81//81 32//32 6//6
f 81//81 6//6 5//5
f 81//81 56//56 55//55
f 5//5 4//4 56//56
f 14//14 11//11 82//82
f 14//14 82//82 40//40
f 11//11 23//23 83//83
f 11//11 83//83 82//82
f 23//23 75//75 83//83
f 84//84 85//85 86//86
f 84//84 86//86 66//66
f 84//84 37//37 40//40
f 84//84 40//40 85//85
f 84//84 66//66 37//37
f 85//85 87//87 86//86
f 85//85 88//88 87//87
f 85//85 89//89 88//88
f 85//85 40//40 90//90
f 85//85 90//90 89//89
f 86//86 87//87 91//91
f 86//86 91//91 66//66
f 87//87 88//88 92//92
f 87//87 92//92 91//91
f 88//88 89//89 93//93
f 88//88 93//93 92//92
f 89//89 94//94 95//95
f 89//89 90//90 82//82
f 89//89 82//82 94//94
f 89//89 95//95 93//93
f 94//94 75//75 96//96
f 94//94 82//82 83//83
f 94//94 83//83 75//75
f 94//94 96//96 95//95
f 75//75 74//74 97//97
f 75//75 97//97 96//96
f 74//74 77//77 70//70
f 74//74 70//70 97//97
f 37//37 66//66 39//39
f 40//40 82//82 90//90
f 77//77 49//49 71//71
f 77//77 71//71 70//70
f 66//66 91//91 67//67
f 67//67 91//91 68//68
f 91//91 92//92 68//68
f 68//68 92//92 95//95
f 68//68 95//95 96//96
f 68//68 96//96 97//97
f 68//68 97//97 70//70
f 92//92 93//93 95//95
# 190 faces, 0 coords texture

# End of File
