####
#
# OBJ File Generated by Meshlab
#
####
# Object step_31_link_7.obj
#
# Vertices: 87
# Faces: 170
#
####
vn 3.660981 0.325393 5.029412
v 0.430374 0.071662 0.599346
vn 1.927426 0.620798 5.461676
v 0.429833 0.072411 0.599655
vn 1.546969 -0.023680 5.869946
v 0.429833 -0.037638 0.599655
vn 3.130837 -0.180590 5.318356
v 0.430374 -0.040867 0.599346
vn 4.927064 0.712739 2.246302
v 0.650430 0.082364 0.412599
vn 1.671506 2.116191 4.810495
v 0.429652 0.073505 0.599519
vn 1.483430 3.797934 4.460064
v 0.429479 0.073985 0.599182
vn -0.492690 2.097195 5.621691
v 0.313796 0.073505 0.599519
vn 4.327275 1.711946 4.115638
v 0.649633 0.084650 0.412616
vn 3.846808 3.076753 2.750825
v 0.649490 0.085435 0.412396
vn -2.051623 0.357395 5.366378
v 0.313247 0.072411 0.599655
vn 2.481505 4.086364 3.999242
v 0.429378 0.074472 0.598777
vn 1.265841 4.520568 3.672751
v 0.429351 0.074503 0.598760
vn -1.490272 2.980290 4.940504
v 0.313146 0.073985 0.599182
vn 0.493880 5.313592 2.596411
v 0.429324 0.074518 0.598744
vn -2.777572 3.186457 2.139171
v 0.313067 0.074503 0.598760
vn 3.900837 3.869363 1.313549
v 0.649447 0.085755 0.411907
vn 2.163472 5.271452 1.010075
v 0.649409 0.085786 0.411883
vn 0.087410 6.170882 0.983054
v 0.429299 0.074522 0.598729
vn -1.773262 4.664279 1.679637
v 0.313083 0.074518 0.598744
vn -0.538153 6.120537 0.669811
v 0.313100 0.074522 0.598729
vn 0.431878 6.226831 0.285696
v 0.649367 0.085793 0.411855
vn -0.176004 6.270558 0.136411
v 0.469221 0.085793 0.411855
vn 0.850540 -3.715517 3.793615
v 0.426496 -0.068768 0.597945
vn 1.885006 -1.294011 5.110421
v 0.428295 -0.065009 0.599248
vn -1.667013 -3.448361 2.399406
v 0.324332 -0.068768 0.597945
vn -0.886461 -5.943861 0.693750
v 0.486722 -0.132848 0.401517
vn 1.905989 -5.003030 1.145185
v 0.630991 -0.132848 0.401517
vn 3.733777 -3.122817 2.008372
v 0.636083 -0.127993 0.405192
vn 0.194117 -0.130385 6.274225
v 0.427119 -0.059372 0.599434
vn -2.539853 -1.655895 2.708981
v 0.321170 -0.065009 0.599248
vn 4.876637 -1.225245 2.733749
v 0.650255 -0.090669 0.411829
vn 4.939270 -0.472876 2.475805
v 0.650430 -0.087602 0.412599
vn 0.007055 -0.067791 6.282806
v 0.426941 -0.058992 0.599439
vn -0.004382 -0.068400 6.282806
v 0.320392 -0.058992 0.599439
vn -0.469845 -0.247045 6.238326
v 0.320186 -0.059372 0.599434
vn -2.679456 -0.587097 4.646353
v 0.313247 -0.037638 0.599655
vn -3.868303 1.191889 2.590279
v 0.312751 0.073593 0.599180
vn -5.218897 -0.563963 1.997685
v 0.312751 -0.036769 0.599180
vn -4.146401 2.884350 2.807133
v 0.313057 0.074472 0.598777
vn -4.572405 3.439064 -1.065138
v 0.313067 0.074503 0.492593
vn -5.168074 1.360398 -1.682227
v 0.312751 0.073593 0.491941
vn -2.791247 5.164473 -0.566386
v 0.313083 0.074518 0.492606
vn -0.917934 6.194458 -0.099037
v 0.313100 0.074522 0.492619
vn -2.193132 3.908866 -3.164731
v 0.469170 0.085435 0.250907
vn -5.578653 -0.768452 -1.560005
v 0.312751 -0.036769 0.491941
vn -4.253082 0.694669 -4.105799
v 0.468975 0.084379 0.250358
vn -2.432507 1.534184 -4.504025
v 0.469144 0.084650 0.250262
vn -3.157496 4.776417 -2.397930
v 0.469155 0.085755 0.251518
vn -1.339119 5.436755 -1.746828
v 0.469184 0.085786 0.251552
vn -0.271178 6.208737 -0.516746
v 0.469221 0.085793 0.251585
vn -3.578643 -4.822296 -0.454363
v 0.324332 -0.068768 0.496998
vn -4.640048 -1.399746 3.153484
v 0.313796 -0.040069 0.599519
vn -4.966463 -2.787082 -1.238827
v 0.321170 -0.065009 0.494916
vn -2.056440 -2.463060 -3.633515
v 0.482779 -0.127993 0.255222
vn -1.247715 -4.677105 -2.011518
v 0.486722 -0.132848 0.259307
vn -5.559034 -1.789661 -1.998216
v 0.313796 -0.040069 0.491882
vn -4.473994 -1.798191 -3.801762
v 0.470120 -0.091285 0.250745
vn -4.188994 -0.502716 -4.220400
v 0.468975 -0.086158 0.250358
vn 5.325093 1.737322 2.631612
v 0.649863 0.084379 0.412431
vn 5.439127 1.871947 1.686721
v 0.649709 0.084971 0.412337
vn 2.977517 0.542085 -2.864350
v 0.650430 0.082364 0.250000
vn 5.797155 2.181917 -0.612643
v 0.649709 0.084971 0.250903
vn 5.675401 2.454171 0.617431
v 0.649476 0.085691 0.411926
vn 5.659990 2.519311 -0.537588
v 0.649476 0.085691 0.251487
vn 3.833088 3.992335 -1.168769
v 0.649447 0.085755 0.251518
vn 1.720631 5.239207 -1.191454
v 0.649409 0.085786 0.251552
vn 0.331279 6.201162 -0.459875
v 0.649367 0.085793 0.251585
vn 4.987521 2.000035 -2.236328
v 0.649863 0.084379 0.250358
vn 2.342483 1.901674 -4.460975
v 0.649633 0.084650 0.250262
vn 3.009896 -0.283262 -3.074638
v 0.650430 -0.087602 0.250000
vn -1.250190 0.205005 -5.960360
v 0.469688 0.082364 0.250000
vn 2.544091 3.736229 -2.455188
v 0.649490 0.085435 0.250907
vn 1.814863 2.713837 -4.147543
v 0.649528 0.084843 0.250302
vn -1.102648 2.881205 -4.809827
v 0.469302 0.084843 0.250302
vn 1.446844 -4.535263 -1.719424
v 0.630991 -0.132848 0.259307
vn 5.921760 -2.021184 0.212574
v 0.650117 -0.091731 0.410897
vn 5.011519 -1.535554 2.001810
v 0.650234 -0.091285 0.411534
vn 2.297876 -2.190843 -2.605679
v 0.636083 -0.127993 0.255222
vn 5.905270 -2.034694 -0.306811
v 0.650117 -0.091731 0.251205
vn 4.668426 -1.362136 -2.337814
v 0.650234 -0.091285 0.250745
vn 0.466151 -0.962262 -6.171500
v 0.648444 -0.093129 0.250711
vn 3.558729 -0.859972 -3.489768
v 0.650255 -0.090669 0.250536
vn -0.007190 -0.806581 -6.231188
v 0.473069 -0.093129 0.250711
vn -2.219051 -0.746742 -5.132975
v 0.469688 -0.087602 0.250000
vn -2.912059 -0.004397 -5.563544
v 0.469144 -0.085369 0.250262
vn -3.282276 -1.334758 -4.636952
v 0.470086 -0.090669 0.250536
# 87 vertices, 0 vertices normals

f 1//1 2//2 3//3
f 1//1 4//4 5//5
f 1//1 3//3 4//4
f 1//1 5//5 2//2
f 6//6 2//2 5//5
f 6//6 7//7 8//8
f 6//6 8//8 2//2
f 6//6 5//5 9//9
f 6//6 9//9 10//10
f 6//6 10//10 7//7
f 2//2 8//8 11//11
f 2//2 11//11 3//3
f 7//7 12//12 13//13
f 7//7 13//13 14//14
f 7//7 14//14 8//8
f 7//7 10//10 12//12
f 12//12 10//10 13//13
f 13//13 15//15 16//16
f 13//13 16//16 14//14
f 13//13 10//10 17//17
f 13//13 17//17 18//18
f 13//13 18//18 15//15
f 15//15 19//19 20//20
f 15//15 20//20 16//16
f 15//15 18//18 19//19
f 19//19 21//21 20//20
f 19//19 18//18 22//22
f 19//19 22//22 23//23
f 19//19 23//23 21//21
f 24//24 25//25 26//26
f 24//24 26//26 27//27
f 24//24 28//28 29//29
f 24//24 29//29 25//25
f 24//24 27//27 28//28
f 25//25 30//30 31//31
f 25//25 4//4 3//3
f 25//25 3//3 30//30
f 25//25 31//31 26//26
f 25//25 29//29 32//32
f 25//25 32//32 33//33
f 25//25 33//33 4//4
f 30//30 34//34 35//35
f 30//30 3//3 34//34
f 30//30 36//36 31//31
f 30//30 35//35 36//36
f 34//34 3//3 35//35
f 4//4 33//33 5//5
f 3//3 11//11 37//37
f 3//3 37//37 35//35
f 8//8 38//38 11//11
f 8//8 14//14 38//38
f 11//11 38//38 39//39
f 11//11 39//39 37//37
f 38//38 14//14 40//40
f 38//38 40//40 16//16
f 38//38 16//16 41//41
f 38//38 42//42 39//39
f 38//38 41//41 42//42
f 14//14 16//16 40//40
f 16//16 20//20 41//41
f 20//20 21//21 43//43
f 20//20 43//43 41//41
f 21//21 44//44 43//43
f 21//21 23//23 44//44
f 42//42 41//41 45//45
f 42//42 46//46 39//39
f 42//42 47//47 46//46
f 42//42 48//48 47//47
f 42//42 45//45 48//48
f 41//41 43//43 49//49
f 41//41 49//49 45//45
f 43//43 44//44 50//50
f 43//43 50//50 49//49
f 44//44 23//23 51//51
f 44//44 51//51 50//50
f 26//26 31//31 52//52
f 26//26 52//52 27//27
f 31//31 36//36 37//37
f 31//31 53//53 39//39
f 31//31 37//37 53//53
f 31//31 39//39 54//54
f 31//31 54//54 52//52
f 36//36 35//35 37//37
f 53//53 37//37 39//39
f 39//39 46//46 54//54
f 52//52 54//54 55//55
f 52//52 56//56 27//27
f 52//52 55//55 56//56
f 54//54 57//57 58//58
f 54//54 46//46 57//57
f 54//54 58//58 55//55
f 57//57 46//46 58//58
f 46//46 47//47 59//59
f 46//46 59//59 58//58
f 5//5 60//60 9//9
f 5//5 61//61 60//60
f 5//5 62//62 63//63
f 5//5 63//63 61//61
f 5//5 33//33 62//62
f 60//60 61//61 9//9
f 9//9 61//61 10//10
f 61//61 64//64 10//10
f 61//61 63//63 65//65
f 61//61 65//65 64//64
f 10//10 64//64 17//17
f 64//64 65//65 66//66
f 64//64 66//66 17//17
f 17//17 66//66 67//67
f 17//17 67//67 18//18
f 18//18 67//67 68//68
f 18//18 68//68 22//22
f 22//22 68//68 23//23
f 62//62 69//69 63//63
f 62//62 70//70 69//69
f 62//62 33//33 71//71
f 62//62 71//71 72//72
f 62//62 72//72 70//70
f 69//69 70//70 73//73
f 69//69 73//73 63//63
f 74//74 70//70 75//75
f 74//74 73//73 70//70
f 74//74 75//75 73//73
f 70//70 72//72 48//48
f 70//70 48//48 75//75
f 63//63 73//73 65//65
f 73//73 66//66 65//65
f 73//73 67//67 66//66
f 73//73 75//75 45//45
f 73//73 45//45 67//67
f 67//67 45//45 50//50
f 67//67 50//50 68//68
f 68//68 50//50 51//51
f 68//68 51//51 23//23
f 28//28 76//76 29//29
f 28//28 27//27 76//76
f 29//29 77//77 78//78
f 29//29 78//78 32//32
f 29//29 76//76 79//79
f 29//29 79//79 80//80
f 29//29 80//80 77//77
f 77//77 80//80 81//81
f 77//77 81//81 78//78
f 78//78 33//33 32//32
f 78//78 81//81 71//71
f 78//78 71//71 33//33
f 76//76 27//27 56//56
f 76//76 56//56 55//55
f 76//76 55//55 79//79
f 79//79 82//82 83//83
f 79//79 81//81 80//80
f 79//79 83//83 81//81
f 79//79 55//55 84//84
f 79//79 84//84 82//82
f 82//82 71//71 83//83
f 82//82 84//84 71//71
f 81//81 83//83 71//71
f 71//71 84//84 85//85
f 71//71 85//85 72//72
f 72//72 85//85 86//86
f 72//72 86//86 48//48
f 47//47 48//48 86//86
f 47//47 86//86 59//59
f 75//75 48//48 45//45
f 45//45 49//49 50//50
f 55//55 58//58 87//87
f 55//55 87//87 85//85
f 55//55 85//85 84//84
f 58//58 59//59 87//87
f 87//87 59//59 85//85
f 85//85 59//59 86//86
# 170 faces, 0 coords texture

# End of File
