####
#
# OBJ File Generated by Meshlab
#
####
# Object step_34_link_7.obj
#
# Vertices: 65
# Faces: 126
#
####
vn 2.141256 0.045419 5.641947
v 0.410815 0.121065 0.595560
vn 3.513841 0.343081 5.136099
v 0.411192 0.122087 0.595278
vn 2.955938 0.708988 5.357398
v 0.406336 0.147870 0.595615
vn 0.777359 0.123217 6.181818
v 0.406401 0.140943 0.595921
vn 0.237441 -0.033227 6.272445
v 0.406401 0.032680 0.595921
vn 1.288430 0.842438 5.790339
v 0.405249 0.149817 0.595871
vn 1.888078 -0.884387 5.264366
v 0.410815 0.013227 0.595560
vn 3.922097 -0.025369 4.904487
v 0.411192 0.015305 0.595278
vn 5.009947 -0.430047 2.404526
v 0.629087 0.038753 0.411207
vn 5.009568 0.462141 2.330494
v 0.629087 0.206348 0.411207
vn -0.021416 0.012097 6.283038
v 0.294839 0.140943 0.595921
vn 1.649366 2.375900 4.879037
v 0.405271 0.149981 0.595828
vn 4.700303 1.611490 2.386607
v 0.628092 0.210138 0.411473
vn 0.968938 4.562637 3.843985
v 0.404911 0.150595 0.595380
vn 0.286552 4.596676 3.890760
v 0.404094 0.150718 0.595336
vn -0.086174 2.541962 5.645915
v 0.289214 0.149981 0.595828
vn 2.393820 3.335110 1.557087
v 0.627220 0.212021 0.411509
vn -0.754765 0.982678 5.928970
v 0.288913 0.149817 0.595871
vn 0.102757 5.583858 2.739000
v 0.404058 0.150728 0.595321
vn -0.166466 4.348233 4.322837
v 0.288510 0.150718 0.595336
vn -0.292303 5.622788 2.532069
v 0.288514 0.150728 0.595321
vn -0.860466 5.946859 0.714385
v 0.446721 0.212021 0.411509
vn 1.171672 -3.340835 2.971048
v 0.410855 0.009579 0.594335
vn -1.178659 -3.720820 2.356731
v 0.308728 0.009579 0.594335
vn -0.172068 -6.270276 0.144142
v 0.479411 -0.002602 0.400951
vn 2.738391 -3.814237 0.905589
v 0.623619 -0.002602 0.400951
vn 4.387896 -2.382634 2.938541
v 0.625351 0.002898 0.404682
vn -2.212921 -2.151450 2.797454
v 0.304267 0.013227 0.595560
vn -0.143556 -0.138585 6.276479
v 0.294839 0.032680 0.595921
vn -2.367025 -1.151975 4.872403
v 0.288913 0.038385 0.595871
vn -2.264626 1.800474 1.828829
v 0.287261 0.150595 0.595380
vn -0.130960 3.406056 5.278168
v 0.288515 0.150694 0.595351
vn -3.816909 -0.828075 2.513450
v 0.287261 0.040838 0.595380
vn -3.956908 2.350698 -0.991596
v 0.287261 0.150595 0.488429
vn -5.226771 -1.301002 -1.540215
v 0.287261 0.040838 0.488429
vn -1.454362 2.384572 -2.388347
v 0.446721 0.212021 0.250405
vn -5.078852 0.781087 -3.455349
v 0.446479 0.211807 0.250697
vn -5.052522 -0.103679 -3.712902
v 0.446479 0.047052 0.250697
vn -2.271828 -5.394186 -0.562556
v 0.308728 0.009579 0.493410
vn -3.822902 -2.365702 3.198191
v 0.289214 0.037753 0.595828
vn -4.553885 -2.350126 2.376486
v 0.287322 0.040728 0.595391
vn -4.205914 -3.859232 -1.348911
v 0.304267 0.013227 0.491271
vn -5.040973 -2.917861 -1.581880
v 0.287322 0.040728 0.488430
vn -1.737918 -2.699300 -3.933043
v 0.473283 0.002898 0.254502
vn -0.808045 -4.841467 -2.298560
v 0.479411 -0.002602 0.258790
vn -4.905181 -3.125625 -1.975430
v 0.289214 0.037753 0.488309
vn -3.696981 -2.527838 -4.170449
v 0.449610 0.041363 0.250355
vn -4.162442 -2.872281 -3.646986
v 0.450266 0.039836 0.250768
vn -4.175406 -2.242794 -3.962203
v 0.447133 0.045385 0.250454
vn -3.191812 -0.767609 -4.513081
v 0.446721 0.046311 0.250405
vn 5.964475 1.378955 0.863079
v 0.628955 0.207133 0.411040
vn 5.031412 0.315909 -2.321609
v 0.629087 0.206348 0.250769
vn 6.069165 1.368315 -0.476217
v 0.628955 0.207133 0.250993
vn 2.771986 1.193305 -2.966162
v 0.628092 0.210138 0.250000
vn 1.600139 2.730600 -1.951319
v 0.627220 0.212021 0.250405
vn 4.413705 -0.392219 -2.769372
v 0.629087 0.038753 0.250769
vn 1.810179 -0.199037 -5.615596
v 0.628092 0.042861 0.250000
vn -0.383004 0.514749 -6.177321
v 0.449055 0.210138 0.250000
vn 5.621395 -2.306432 1.469187
v 0.625594 0.003394 0.404555
vn 5.182590 -1.278169 1.962510
v 0.626116 0.004590 0.404419
vn 2.084441 -3.421647 -1.451481
v 0.623619 -0.002602 0.258790
vn 4.720232 -1.129663 -2.359494
v 0.626116 0.004590 0.254707
vn 2.380836 -1.999073 -3.361466
v 0.625351 0.002898 0.254502
vn 1.737264 -0.723880 -5.873979
v 0.628616 0.038464 0.250575
vn -2.034013 -1.279340 -5.104553
v 0.449055 0.042861 0.250000
# 65 vertices, 0 vertices normals

f 1//1 2//2 3//3
f 1//1 4//4 5//5
f 1//1 3//3 6//6
f 1//1 6//6 4//4
f 1//1 7//7 8//8
f 1//1 8//8 2//2
f 1//1 5//5 7//7
f 2//2 8//8 9//9
f 2//2 10//10 3//3
f 2//2 9//9 10//10
f 4//4 6//6 11//11
f 4//4 11//11 5//5
f 3//3 12//12 6//6
f 3//3 10//10 13//13
f 3//3 13//13 12//12
f 12//12 14//14 15//15
f 12//12 15//15 16//16
f 12//12 16//16 6//6
f 12//12 13//13 17//17
f 12//12 17//17 14//14
f 6//6 16//16 18//18
f 6//6 18//18 11//11
f 14//14 17//17 15//15
f 15//15 19//19 20//20
f 15//15 20//20 16//16
f 15//15 17//17 19//19
f 19//19 21//21 20//20
f 19//19 17//17 22//22
f 19//19 22//22 21//21
f 23//23 7//7 24//24
f 23//23 24//24 25//25
f 23//23 26//26 27//27
f 23//23 27//27 7//7
f 23//23 25//25 26//26
f 7//7 5//5 28//28
f 7//7 28//28 24//24
f 7//7 27//27 9//9
f 7//7 9//9 8//8
f 5//5 11//11 29//29
f 5//5 29//29 28//28
f 11//11 18//18 30//30
f 11//11 30//30 29//29
f 16//16 31//31 18//18
f 16//16 32//32 31//31
f 16//16 20//20 32//32
f 18//18 31//31 33//33
f 18//18 33//33 30//30
f 31//31 32//32 20//20
f 31//31 20//20 21//21
f 31//31 21//21 22//22
f 31//31 34//34 33//33
f 31//31 22//22 34//34
f 34//34 35//35 33//33
f 34//34 22//22 36//36
f 34//34 36//36 37//37
f 34//34 37//37 38//38
f 34//34 38//38 35//35
f 24//24 28//28 39//39
f 24//24 39//39 25//25
f 28//28 29//29 30//30
f 28//28 40//40 41//41
f 28//28 30//30 40//40
f 28//28 41//41 42//42
f 28//28 42//42 39//39
f 40//40 30//30 41//41
f 30//30 33//33 41//41
f 41//41 33//33 43//43
f 41//41 43//43 42//42
f 33//33 35//35 43//43
f 39//39 42//42 44//44
f 39//39 45//45 25//25
f 39//39 44//44 45//45
f 42//42 46//46 44//44
f 42//42 43//43 46//46
f 46//46 43//43 47//47
f 46//46 48//48 44//44
f 46//46 47//47 48//48
f 43//43 35//35 49//49
f 43//43 49//49 47//47
f 35//35 50//50 49//49
f 35//35 38//38 50//50
f 10//10 51//51 13//13
f 10//10 52//52 53//53
f 10//10 53//53 51//51
f 10//10 9//9 52//52
f 51//51 53//53 13//13
f 13//13 53//53 54//54
f 13//13 54//54 55//55
f 13//13 55//55 17//17
f 17//17 55//55 22//22
f 52//52 54//54 53//53
f 52//52 9//9 56//56
f 52//52 56//56 57//57
f 52//52 57//57 54//54
f 54//54 57//57 58//58
f 54//54 58//58 55//55
f 55//55 58//58 36//36
f 55//55 36//36 22//22
f 26//26 59//59 27//27
f 26//26 60//60 59//59
f 26//26 61//61 60//60
f 26//26 25//25 61//61
f 59//59 60//60 27//27
f 27//27 60//60 9//9
f 60//60 61//61 62//62
f 60//60 62//62 56//56
f 60//60 56//56 9//9
f 61//61 63//63 62//62
f 61//61 25//25 45//45
f 61//61 45//45 63//63
f 63//63 64//64 56//56
f 63//63 56//56 62//62
f 63//63 57//57 64//64
f 63//63 45//45 44//44
f 63//63 44//44 57//57
f 64//64 57//57 56//56
f 57//57 44//44 65//65
f 57//57 65//65 58//58
f 58//58 65//65 50//50
f 58//58 50//50 36//36
f 36//36 50//50 38//38
f 36//36 38//38 37//37
f 44//44 48//48 47//47
f 44//44 47//47 65//65
f 47//47 49//49 65//65
f 65//65 49//49 50//50
# 126 faces, 0 coords texture

# End of File
