####
#
# OBJ File Generated by Meshlab
#
####
# Object step_5_link_4.obj
#
# Vertices: 87
# Faces: 170
#
####
vn 0.116154 6.278839 0.065906
v 0.162540 0.027528 0.511825
vn 1.412672 2.572612 -2.485071
v 0.162540 0.027528 0.411321
vn -0.453437 6.234655 0.244642
v 0.060354 0.027528 0.511825
vn -0.092387 6.122078 1.053875
v 0.175840 0.022165 0.687550
vn 2.563217 4.370534 0.569466
v 0.280201 0.022165 0.687550
vn 2.972968 3.416110 -1.152383
v 0.280201 0.022165 0.585912
vn 3.443525 0.271435 -4.706384
v 0.162693 0.021947 0.410598
vn 0.974970 0.529076 -6.033363
v 0.162223 0.022279 0.410468
vn 5.703054 0.530448 -1.737194
v 0.280249 0.021988 0.585932
vn 3.278942 -1.102127 -4.330729
v 0.162693 -0.079054 0.410598
vn 0.858413 -0.784007 -5.994890
v 0.162223 -0.079072 0.410468
vn 5.707212 0.123314 -1.796799
v 0.280375 0.010775 0.584767
vn 5.734345 0.321665 -1.724860
v 0.280251 0.021939 0.585928
vn -1.114118 0.343509 -5.989004
v 0.061661 0.022279 0.410468
vn -0.531877 3.333728 -2.977105
v 0.060354 0.027528 0.411321
vn 5.678695 0.819657 -1.707531
v 0.280246 0.022028 0.585936
vn 1.120120 -3.345321 -2.938851
v 0.162035 -0.080184 0.410736
vn 2.748112 -3.953009 -0.953804
v 0.279280 -0.093584 0.585048
vn -1.746512 -2.638820 -1.956252
v 0.061787 -0.080184 0.410736
vn -1.212234 -0.760418 -5.840953
v 0.061661 -0.079072 0.410468
vn -0.289842 -6.255907 -0.165595
v 0.178789 -0.093584 0.585048
vn 5.238617 -1.235091 -1.628100
v 0.280375 -0.091265 0.584767
vn -6.282532 0.004281 0.061289
v 0.060107 0.025411 0.511598
vn -5.617169 0.393460 1.926487
v 0.060112 0.027491 0.511859
vn -4.905269 1.978158 1.467530
v 0.060112 0.027495 0.511857
vn -3.508259 2.351575 -1.915397
v 0.060112 0.027495 0.411375
vn -4.142179 0.187348 -2.969225
v 0.060107 0.025411 0.411220
vn -5.500976 -1.018425 1.549711
v 0.060107 -0.075450 0.511598
vn -5.756881 -0.037157 1.802696
v 0.060112 -0.073067 0.511859
vn -3.060886 4.424252 0.665923
v 0.060113 0.027496 0.511856
vn -1.134085 4.540969 2.730579
v 0.175440 0.022127 0.687667
vn -0.887103 6.215323 0.116560
v 0.060115 0.027497 0.511854
vn -0.919542 6.213577 -0.046334
v 0.060115 0.027497 0.411380
vn -0.421071 6.216742 0.750564
v 0.175443 0.022127 0.687665
vn -2.557824 0.287997 4.836965
v 0.175436 0.022103 0.687673
vn -2.572136 1.001989 4.554543
v 0.175436 0.022115 0.687672
vn -2.840146 4.385628 -0.912695
v 0.060113 0.027496 0.411377
vn -2.213739 2.568490 3.996345
v 0.175437 0.022123 0.687670
vn -2.611872 0.023092 -5.710169
v 0.061351 0.021947 0.410598
vn -3.954124 -1.299767 -2.917992
v 0.061351 -0.079054 0.410598
vn -4.449042 -0.565289 -2.480364
v 0.060107 -0.075450 0.411220
vn -1.659147 0.577216 -6.017596
v 0.060127 0.027448 0.411360
vn -2.074110 0.671878 -5.821295
v 0.060121 0.027464 0.411363
vn -2.715389 0.854971 -5.344839
v 0.060116 0.027476 0.411366
vn -3.426767 1.111571 -4.319036
v 0.060114 0.027485 0.411369
vn -3.715671 1.469380 -2.736423
v 0.060112 0.027491 0.411372
vn -3.228720 -3.964757 0.689811
v 0.061787 -0.080184 0.510857
vn -5.281827 -2.309599 1.652339
v 0.061351 -0.079054 0.511347
vn -1.330424 -4.038184 2.405052
v 0.178789 -0.093584 0.685295
vn -3.741662 -2.466777 3.940719
v 0.177689 -0.091265 0.686303
vn -3.550913 -1.073922 4.396225
v 0.175189 -0.084207 0.686961
vn -5.502800 -0.246460 2.959188
v 0.060114 -0.073084 0.511860
vn -3.417701 -0.072423 4.732077
v 0.175436 -0.079769 0.687673
vn 6.270251 0.018758 0.272587
v 0.280375 0.010775 0.686303
vn 6.250346 0.039467 0.448340
v 0.280252 0.021882 0.687661
vn 3.994716 -0.227348 3.294907
v 0.280252 -0.080089 0.687661
vn 6.275679 0.095197 -0.203004
v 0.280252 0.021882 0.585925
vn 3.686899 -1.330011 2.507735
v 0.280375 -0.091265 0.686303
vn 2.837145 1.386244 3.001160
v 0.280230 0.022103 0.687673
vn 5.820314 2.265285 -0.331393
v 0.280230 0.022103 0.585950
vn 2.555510 2.113275 3.067053
v 0.280223 0.022115 0.687672
vn 1.919559 3.250651 3.233893
v 0.280217 0.022123 0.687670
vn 0.821856 4.707211 3.120544
v 0.280210 0.022127 0.687667
vn 5.880060 0.095907 1.504807
v 0.280251 0.021939 0.687666
vn 3.104184 -0.200698 3.586435
v 0.280251 -0.080018 0.687666
vn 5.004916 0.208720 2.482942
v 0.280249 0.021988 0.687670
vn 2.723818 -0.167717 4.673224
v 0.280249 -0.079955 0.687670
vn 3.956850 0.354879 2.974117
v 0.280246 0.022028 0.687673
vn 1.850850 -0.111324 5.663110
v 0.280246 -0.079898 0.687673
vn 3.192864 0.552531 3.063983
v 0.280241 0.022060 0.687674
vn 0.815699 -0.047920 6.169162
v 0.280241 -0.079849 0.687674
vn 5.745768 1.161465 -1.486961
v 0.280241 0.022060 0.585941
vn 2.984069 0.874013 3.035879
v 0.280236 0.022085 0.687674
vn 0.098812 -0.007056 6.281483
v 0.280236 -0.079806 0.687674
vn 5.873887 1.671114 -0.915087
v 0.280236 0.022085 0.585945
vn -0.723310 0.079715 6.185886
v 0.175440 0.022085 0.687674
vn 1.873196 -3.411376 1.704085
v 0.279280 -0.093584 0.685295
vn 0.945250 -1.836567 5.554268
v 0.279414 -0.091299 0.686641
vn 2.469711 -0.457892 5.024965
v 0.280201 -0.081756 0.687550
vn 4.990640 -0.391162 3.778351
v 0.280252 -0.080167 0.687654
vn -1.303037 -2.003182 5.268782
v 0.178284 -0.091299 0.686641
vn -1.048991 -0.678512 6.050805
v 0.175840 -0.081756 0.687550
vn -0.214878 -0.452817 6.258910
v 0.175486 -0.080018 0.687666
vn -1.145765 -0.569976 6.027583
v 0.175469 -0.079955 0.687670
vn -1.476690 -0.472983 5.877252
v 0.175456 -0.079898 0.687673
vn -1.898594 -0.341751 5.609837
v 0.175446 -0.079849 0.687674
vn -2.449071 -0.193323 5.094696
v 0.175440 -0.079806 0.687674
# 87 vertices, 0 vertices normals

f 1//1 2//2 3//3
f 1//1 3//3 4//4
f 1//1 5//5 6//6
f 1//1 6//6 2//2
f 1//1 4//4 5//5
f 7//7 8//8 2//2
f 7//7 2//2 9//9
f 7//7 10//10 11//11
f 7//7 11//11 8//8
f 7//7 12//12 10//10
f 7//7 13//13 12//12
f 7//7 9//9 13//13
f 8//8 11//11 14//14
f 8//8 14//14 2//2
f 2//2 14//14 15//15
f 2//2 15//15 3//3
f 2//2 6//6 16//16
f 2//2 16//16 9//9
f 17//17 10//10 18//18
f 17//17 11//11 10//10
f 17//17 19//19 20//20
f 17//17 20//20 11//11
f 17//17 18//18 21//21
f 17//17 21//21 19//19
f 10//10 12//12 22//22
f 10//10 22//22 18//18
f 11//11 20//20 14//14
f 23//23 24//24 25//25
f 23//23 25//25 26//26
f 23//23 27//27 28//28
f 23//23 26//26 27//27
f 23//23 28//28 29//29
f 23//23 29//29 24//24
f 3//3 30//30 31//31
f 3//3 32//32 30//30
f 3//3 15//15 33//33
f 3//3 33//33 32//32
f 3//3 31//31 34//34
f 3//3 34//34 4//4
f 24//24 29//29 35//35
f 24//24 35//35 36//36
f 24//24 36//36 25//25
f 25//25 30//30 37//37
f 25//25 37//37 26//26
f 25//25 36//36 38//38
f 25//25 38//38 30//30
f 30//30 32//32 33//33
f 30//30 33//33 37//37
f 30//30 38//38 31//31
f 39//39 14//14 20//20
f 39//39 27//27 14//14
f 39//39 40//40 41//41
f 39//39 20//20 40//40
f 39//39 41//41 27//27
f 14//14 27//27 42//42
f 14//14 42//42 15//15
f 27//27 43//43 42//42
f 27//27 44//44 43//43
f 27//27 45//45 44//44
f 27//27 46//46 45//45
f 27//27 26//26 46//46
f 27//27 41//41 28//28
f 15//15 42//42 43//43
f 15//15 43//43 44//44
f 15//15 44//44 45//45
f 15//15 45//45 46//46
f 15//15 46//46 26//26
f 15//15 26//26 37//37
f 15//15 37//37 33//33
f 47//47 48//48 40//40
f 47//47 19//19 21//21
f 47//47 40//40 19//19
f 47//47 49//49 50//50
f 47//47 50//50 48//48
f 47//47 21//21 49//49
f 48//48 28//28 41//41
f 48//48 41//41 40//40
f 48//48 50//50 51//51
f 48//48 51//51 28//28
f 28//28 52//52 29//29
f 28//28 51//51 52//52
f 52//52 51//51 53//53
f 52//52 53//53 29//29
f 29//29 53//53 35//35
f 19//19 40//40 20//20
f 54//54 55//55 56//56
f 54//54 12//12 57//57
f 54//54 57//57 55//55
f 54//54 58//58 12//12
f 54//54 56//56 58//58
f 5//5 59//59 60//60
f 5//5 61//61 59//59
f 5//5 62//62 61//61
f 5//5 63//63 62//62
f 5//5 60//60 6//6
f 5//5 4//4 63//63
f 55//55 64//64 65//65
f 55//55 57//57 13//13
f 55//55 13//13 64//64
f 55//55 65//65 56//56
f 64//64 66//66 67//67
f 64//64 13//13 9//9
f 64//64 9//9 66//66
f 64//64 67//67 65//65
f 66//66 68//68 69//69
f 66//66 9//9 16//16
f 66//66 16//16 68//68
f 66//66 69//69 67//67
f 68//68 70//70 71//71
f 68//68 16//16 72//72
f 68//68 72//72 70//70
f 68//68 71//71 69//69
f 70//70 73//73 74//74
f 70//70 72//72 75//75
f 70//70 75//75 73//73
f 70//70 74//74 71//71
f 73//73 59//59 76//76
f 73//73 75//75 60//60
f 73//73 60//60 59//59
f 73//73 76//76 74//74
f 59//59 61//61 35//35
f 59//59 35//35 76//76
f 61//61 62//62 36//36
f 61//61 36//36 35//35
f 62//62 63//63 38//38
f 62//62 38//38 36//36
f 63//63 4//4 31//31
f 63//63 31//31 38//38
f 12//12 13//13 57//57
f 12//12 58//58 22//22
f 6//6 72//72 16//16
f 6//6 75//75 72//72
f 6//6 60//60 75//75
f 77//77 58//58 78//78
f 77//77 78//78 49//49
f 77//77 18//18 22//22
f 77//77 22//22 58//58
f 77//77 49//49 18//18
f 58//58 79//79 78//78
f 58//58 80//80 79//79
f 58//58 56//56 80//80
f 78//78 79//79 81//81
f 78//78 81//81 49//49
f 79//79 80//80 56//56
f 79//79 56//56 65//65
f 79//79 65//65 82//82
f 79//79 82//82 81//81
f 65//65 67//67 83//83
f 65//65 83//83 82//82
f 67//67 69//69 84//84
f 67//67 84//84 83//83
f 69//69 71//71 85//85
f 69//69 85//85 84//84
f 71//71 74//74 86//86
f 71//71 86//86 85//85
f 74//74 76//76 87//87
f 74//74 87//87 86//86
f 18//18 49//49 21//21
f 4//4 34//34 31//31
f 76//76 35//35 53//53
f 76//76 53//53 87//87
f 49//49 81//81 50//50
f 50//50 81//81 51//51
f 81//81 82//82 51//51
f 51//51 82//82 84//84
f 51//51 84//84 85//85
f 51//51 85//85 86//86
f 51//51 86//86 87//87
f 51//51 87//87 53//53
f 82//82 83//83 84//84
# 170 faces, 0 coords texture

# End of File
