####
#
# OBJ File Generated by Meshlab
#
####
# Object step_52_link_4.obj
#
# Vertices: 82
# Faces: 160
#
####
vn 5.012683 1.167250 -1.986121
v 0.070843 0.130465 0.428448
vn 2.238134 4.109270 -2.888333
v 0.070205 0.131207 0.428248
vn 5.167388 2.306225 -0.487708
v 0.074032 0.214353 0.621467
vn 2.224968 1.698159 -3.861624
v 0.070383 0.130813 0.427955
vn 4.214192 -1.973923 -1.466999
v 0.070843 0.030250 0.428448
vn 2.153525 -1.622796 -4.233801
v 0.070383 0.030178 0.427955
vn 6.280618 -0.104069 -0.032711
v 0.074032 0.113928 0.621467
vn 0.281916 4.469054 -3.934983
v 0.065887 0.131635 0.428149
vn 0.624434 5.714265 -2.536820
v 0.065933 0.131633 0.428154
vn 0.603709 5.968401 -1.250819
v 0.064362 0.216736 0.620607
vn 0.511555 5.037741 -3.496431
v 0.065908 0.131634 0.428151
vn 2.459204 4.937221 -1.054200
v 0.072728 0.215647 0.621056
vn 0.094589 3.962128 -4.208006
v 0.065868 0.131635 0.428147
vn 0.006127 2.532325 -5.620580
v 0.065852 0.131633 0.428147
vn -0.098591 0.659133 -6.198413
v -0.031076 0.130813 0.427955
vn 0.285269 5.980648 -1.269800
v 0.064327 0.216738 0.620603
vn 0.055902 5.998721 -1.403144
v 0.064296 0.216737 0.620600
vn -0.149029 4.721247 -3.750784
v -0.034542 0.131635 0.428147
vn -0.568313 3.519256 -4.180524
v -0.034550 0.131633 0.428147
vn 4.713210 -2.767088 0.457317
v 0.070843 0.030250 0.528522
vn 2.768967 -5.208154 1.148935
v 0.070205 0.029819 0.528780
vn 2.415280 -4.739098 -1.967713
v 0.070205 0.029819 0.428248
vn 4.885596 -1.511786 1.776725
v 0.074032 0.113928 0.721618
vn 2.804648 -4.642709 2.625557
v 0.072728 0.112867 0.722145
vn 1.726480 -5.756437 1.167584
v 0.066961 0.028643 0.528684
vn 1.144249 -4.082809 3.941194
v 0.066444 0.110589 0.722157
vn 0.709431 -5.868551 1.166135
v 0.066197 0.028450 0.528667
vn 1.547250 -4.864730 -2.348550
v 0.066961 0.028643 0.428244
vn 0.406479 -3.519008 -2.864617
v 0.066197 0.028450 0.428195
vn -1.835930 -5.166514 0.992621
v -0.034281 0.028450 0.528667
vn 0.364369 -3.552398 4.096832
v 0.064950 0.110236 0.722148
vn -0.109131 -0.379562 -6.250262
v -0.031076 0.030178 0.427955
vn -1.180739 -2.870992 -2.413275
v -0.034281 0.028450 0.428195
vn -1.302522 2.845530 -4.086073
v -0.034556 0.131632 0.428146
vn -2.271825 2.157509 -3.751366
v -0.034559 0.131629 0.428146
vn -1.396650 -0.481374 -5.973819
v -0.034559 0.029399 0.428146
vn -1.398428 5.714470 -1.232891
v -0.036965 0.216736 0.620599
vn -0.371785 5.957689 -1.206769
v -0.036954 0.216737 0.620600
vn -3.059523 4.954835 -1.101828
v -0.036973 0.216733 0.620598
vn -3.521002 1.232471 -3.228781
v -0.034561 0.131627 0.428147
vn -4.908771 3.241126 -0.742073
v -0.036977 0.216729 0.620599
vn -3.462197 -0.438333 -4.460875
v -0.034561 0.029402 0.428147
vn -5.185343 0.339422 -2.276959
v -0.034562 0.131625 0.428147
vn -6.071619 1.077596 -0.256032
v -0.036978 0.216725 0.620600
vn -5.212678 -0.172663 -2.292177
v -0.034562 0.029404 0.428147
vn -6.281682 -0.079810 -0.024822
v -0.036978 0.112188 0.620600
vn -4.888239 -2.734935 0.596747
v -0.034502 0.028643 0.528684
vn -2.906631 -1.226822 2.781828
v -0.036838 0.110589 0.722157
vn -6.270569 -0.353392 0.038296
v -0.034562 0.029404 0.528622
vn -3.610263 -1.779664 -2.154632
v -0.034502 0.028643 0.428244
vn -5.951308 -0.145720 1.337436
v -0.036978 0.112188 0.722086
vn -1.209935 -3.078100 3.613023
v -0.036406 0.110236 0.722148
vn -0.347798 -0.349388 -6.261809
v -0.034556 0.029397 0.428146
vn 4.793364 1.684455 1.376567
v 0.074032 0.214353 0.721618
vn 1.988836 4.342984 1.858168
v 0.072728 0.215647 0.722145
vn 2.198889 1.650992 3.886101
v 0.073089 0.214820 0.722807
vn 2.247579 -1.707328 3.785123
v 0.073089 0.113538 0.722807
vn 0.280086 3.266088 5.180053
v 0.064562 0.216703 0.722128
vn 0.352085 3.868883 4.412092
v 0.064503 0.216716 0.722123
vn 0.400296 4.511475 3.157109
v 0.064450 0.216725 0.722119
vn 0.361286 4.951607 2.522844
v 0.064403 0.216732 0.722114
vn -0.169531 0.974726 6.088626
v -0.029873 0.214820 0.722807
vn -0.207314 1.477757 6.049828
v -0.036763 0.216703 0.722128
vn -0.240840 1.762858 5.917307
v -0.036812 0.216716 0.722123
vn -0.320214 2.170809 5.658809
v -0.036853 0.216725 0.722119
vn 0.243699 5.480386 2.038721
v 0.064362 0.216736 0.722109
vn -0.417011 2.671289 5.182110
v -0.036887 0.216732 0.722114
vn 0.791081 6.061552 -0.986957
v 0.064403 0.216732 0.620613
vn 0.089455 6.046868 1.137116
v 0.064327 0.216738 0.722105
vn -0.546847 3.182899 4.269397
v -0.036915 0.216736 0.722109
vn -0.722248 3.346234 3.044252
v -0.036937 0.216738 0.722105
vn -0.009388 6.281490 -0.097027
v -0.036937 0.216738 0.620603
vn -0.186661 -0.528110 6.213083
v -0.029873 0.113538 0.722807
vn -1.487286 0.247893 5.959343
v -0.036838 0.216414 0.722157
vn -1.109812 3.227535 2.862049
v -0.036954 0.216737 0.722100
vn -1.860675 2.999426 2.693101
v -0.036965 0.216736 0.722096
vn -2.763226 -0.003692 5.642662
v -0.036965 0.112170 0.722096
vn -2.896879 2.617073 2.440519
v -0.036973 0.216733 0.722092
vn -3.469148 -0.064473 5.176640
v -0.036973 0.112176 0.722092
vn -4.363294 1.861555 1.987062
v -0.036977 0.216729 0.722089
vn -4.954035 -0.200379 3.454595
v -0.036977 0.112182 0.722089
vn -5.835260 0.690828 1.100609
v -0.036978 0.216725 0.722086
# 82 vertices, 0 vertices normals

f 1//1 2//2 3//3
f 1//1 4//4 2//2
f 1//1 5//5 6//6
f 1//1 6//6 4//4
f 1//1 3//3 7//7
f 1//1 7//7 5//5
f 2//2 4//4 8//8
f 2//2 9//9 10//10
f 2//2 11//11 9//9
f 2//2 8//8 11//11
f 2//2 12//12 3//3
f 2//2 10//10 12//12
f 4//4 13//13 8//8
f 4//4 14//14 13//13
f 4//4 6//6 15//15
f 4//4 15//15 14//14
f 9//9 11//11 10//10
f 11//11 8//8 16//16
f 11//11 16//16 10//10
f 8//8 13//13 17//17
f 8//8 17//17 16//16
f 13//13 14//14 18//18
f 13//13 18//18 17//17
f 14//14 15//15 19//19
f 14//14 19//19 18//18
f 20//20 21//21 22//22
f 20//20 5//5 7//7
f 20//20 22//22 5//5
f 20//20 23//23 24//24
f 20//20 24//24 21//21
f 20//20 7//7 23//23
f 21//21 25//25 22//22
f 21//21 24//24 26//26
f 21//21 26//26 25//25
f 25//25 27//27 28//28
f 25//25 28//28 22//22
f 25//25 26//26 27//27
f 27//27 29//29 28//28
f 27//27 30//30 29//29
f 27//27 26//26 31//31
f 27//27 31//31 30//30
f 5//5 22//22 6//6
f 22//22 28//28 6//6
f 6//6 28//28 29//29
f 6//6 29//29 32//32
f 6//6 32//32 15//15
f 29//29 30//30 33//33
f 29//29 33//33 32//32
f 15//15 34//34 19//19
f 15//15 35//35 34//34
f 15//15 32//32 36//36
f 15//15 36//36 35//35
f 18//18 19//19 37//37
f 18//18 38//38 17//17
f 18//18 37//37 38//38
f 19//19 34//34 37//37
f 34//34 35//35 39//39
f 34//34 39//39 37//37
f 35//35 40//40 41//41
f 35//35 36//36 42//42
f 35//35 42//42 40//40
f 35//35 41//41 39//39
f 40//40 43//43 44//44
f 40//40 42//42 45//45
f 40//40 45//45 43//43
f 40//40 44//44 41//41
f 43//43 45//45 46//46
f 43//43 46//46 44//44
f 47//47 30//30 48//48
f 47//47 49//49 50//50
f 47//47 50//50 30//30
f 47//47 48//48 51//51
f 47//47 51//51 49//49
f 30//30 50//50 33//33
f 30//30 31//31 52//52
f 30//30 52//52 48//48
f 49//49 45//45 50//50
f 49//49 51//51 46//46
f 49//49 46//46 45//45
f 32//32 33//33 53//53
f 32//32 53//53 36//36
f 50//50 36//36 33//33
f 50//50 42//42 36//36
f 50//50 45//45 42//42
f 33//33 36//36 53//53
f 54//54 55//55 56//56
f 54//54 56//56 57//57
f 54//54 3//3 12//12
f 54//54 12//12 55//55
f 54//54 23//23 3//3
f 54//54 57//57 23//23
f 55//55 58//58 56//56
f 55//55 59//59 58//58
f 55//55 60//60 59//59
f 55//55 61//61 60//60
f 55//55 12//12 61//61
f 56//56 58//58 62//62
f 56//56 62//62 57//57
f 58//58 59//59 63//63
f 58//58 63//63 62//62
f 59//59 60//60 64//64
f 59//59 64//64 63//63
f 60//60 61//61 65//65
f 60//60 65//65 64//64
f 61//61 66//66 67//67
f 61//61 12//12 68//68
f 61//61 68//68 66//66
f 61//61 67//67 65//65
f 66//66 69//69 70//70
f 66//66 68//68 10//10
f 66//66 10//10 69//69
f 66//66 70//70 67//67
f 69//69 10//10 16//16
f 69//69 16//16 71//71
f 69//69 71//71 70//70
f 3//3 23//23 7//7
f 12//12 10//10 68//68
f 16//16 17//17 72//72
f 16//16 72//72 71//71
f 17//17 38//38 72//72
f 23//23 57//57 24//24
f 24//24 57//57 26//26
f 57//57 31//31 26//26
f 57//57 62//62 73//73
f 57//57 73//73 31//31
f 31//31 73//73 52//52
f 62//62 74//74 73//73
f 62//62 63//63 64//64
f 62//62 64//64 74//74
f 74//74 64//64 65//65
f 74//74 65//65 67//67
f 74//74 67//67 70//70
f 74//74 70//70 71//71
f 74//74 71//71 75//75
f 74//74 75//75 76//76
f 74//74 76//76 77//77
f 74//74 48//48 73//73
f 74//74 77//77 48//48
f 71//71 72//72 75//75
f 75//75 72//72 38//38
f 75//75 38//38 76//76
f 76//76 78//78 79//79
f 76//76 38//38 37//37
f 76//76 37//37 78//78
f 76//76 79//79 77//77
f 78//78 80//80 81//81
f 78//78 37//37 39//39
f 78//78 39//39 80//80
f 78//78 81//81 79//79
f 80//80 82//82 51//51
f 80//80 39//39 41//41
f 80//80 41//41 82//82
f 80//80 51//51 81//81
f 82//82 41//41 44//44
f 82//82 44//44 51//51
f 44//44 46//46 51//51
f 73//73 48//48 52//52
f 48//48 77//77 79//79
f 48//48 79//79 81//81
f 48//48 81//81 51//51
# 160 faces, 0 coords texture

# End of File
