####
#
# OBJ File Generated by Meshlab
#
####
# Object step_34_link_4.obj
#
# Vertices: 61
# Faces: 118
#
####
vn 3.930193 0.503770 -3.384068
v 0.095555 0.072151 0.439353
vn 2.427349 2.601080 -2.677307
v 0.095379 0.072781 0.439366
vn 5.751352 1.457829 -0.658702
v 0.133305 0.109698 0.643000
vn 0.697751 1.236294 -5.787982
v 0.094557 0.072334 0.439044
vn 3.948106 -0.671305 -3.137312
v 0.095555 -0.028103 0.439353
vn 5.843010 -1.364513 -0.422309
v 0.133305 0.009180 0.643000
vn 0.461928 4.398816 -3.306234
v 0.094712 0.072901 0.439341
vn 3.196146 4.310444 -0.647385
v 0.132715 0.110846 0.643039
vn -0.063794 4.477075 -3.608479
v -0.005944 0.072901 0.439341
vn 0.024112 6.122199 -1.388334
v 0.091943 0.073046 0.439876
vn 0.579644 6.135315 -0.637040
v 0.131372 0.111078 0.642987
vn 1.071576 -2.679427 -3.577801
v 0.094557 -0.028978 0.439044
vn -0.518241 1.530397 -5.724846
v -0.006702 0.072334 0.439044
vn -1.921518 2.758995 -2.300808
v -0.010481 0.073046 0.439876
vn -0.014607 6.221298 -0.792174
v 0.030019 0.111078 0.642987
vn 3.975068 -4.832558 0.071535
v 0.095379 -0.028618 0.539745
vn 1.856395 -5.669391 0.312689
v 0.094547 -0.029201 0.539834
vn 1.692120 -5.521778 -0.815463
v 0.094547 -0.029201 0.439711
vn 3.456851 -2.604844 -2.352363
v 0.095379 -0.028618 0.439366
vn 5.002856 -3.653733 -0.135602
v 0.132715 0.008074 0.643039
vn 3.494337 -2.112303 2.424598
v 0.132715 0.008074 0.743836
vn 0.173024 -6.220523 0.557455
v 0.091943 -0.029315 0.540306
vn 0.076542 -6.051732 -1.136104
v 0.091943 -0.029315 0.439876
vn 1.865651 -5.019110 1.826137
v 0.131035 0.006941 0.744068
vn -1.822684 -5.504907 0.592961
v -0.010481 -0.029315 0.540306
vn 0.303099 -3.305256 3.641262
v 0.126281 0.007037 0.745214
vn -1.003380 -3.349636 3.095007
v 0.020930 0.007037 0.745214
vn -0.323582 -2.715939 -4.287919
v -0.006702 -0.028978 0.439044
vn -1.372864 -3.638565 -2.367263
v -0.010481 -0.029315 0.439876
vn -5.153805 3.550857 0.067396
v -0.010481 0.073046 0.540306
vn -5.813720 1.468593 0.315024
v -0.010896 0.072335 0.540344
vn -1.406532 2.552633 2.130564
v 0.020930 0.111129 0.745214
vn -3.442404 0.907827 -2.567260
v -0.010896 0.072335 0.439879
vn -2.256644 5.112703 -0.303635
v 0.020930 0.111129 0.643762
vn -4.747657 -2.502604 0.578537
v -0.010896 -0.029011 0.540344
vn -2.622967 -1.241021 2.856883
v 0.020132 0.007696 0.745317
vn -2.900888 0.923254 2.918816
v 0.020132 0.109686 0.745317
vn -2.931551 -1.435969 -2.163377
v -0.010896 -0.029011 0.439879
vn 5.306511 0.946792 1.580041
v 0.133305 0.109698 0.743129
vn 2.382070 2.471437 2.049525
v 0.132715 0.110846 0.743836
vn 5.288716 -0.980781 1.568327
v 0.133305 0.009180 0.743129
vn 0.766504 5.480878 1.849156
v 0.131372 0.111078 0.743920
vn 0.271648 3.172932 3.115273
v 0.126281 0.111129 0.745214
vn 1.621442 0.944355 5.738134
v 0.131046 0.109887 0.744654
vn 0.017285 6.276280 -0.196876
v 0.126281 0.111129 0.643762
vn 0.777759 0.201299 6.231454
v 0.125904 0.109700 0.745313
vn 0.373453 0.174449 6.248849
v 0.125878 0.109686 0.745317
vn 0.339686 -0.402705 6.220699
v 0.125878 0.007696 0.745317
vn 1.719810 -2.297019 4.388035
v 0.131046 0.007374 0.744654
vn 0.012176 0.410687 6.269543
v 0.125135 0.109660 0.745321
vn 0.019288 0.202327 6.276618
v 0.125114 0.109649 0.745322
vn -0.004345 0.430693 6.268338
v 0.021408 0.109660 0.745321
vn 0.015092 0.031933 6.282892
v 0.125098 0.109639 0.745322
vn 0.019784 -0.329606 6.265839
v 0.125114 0.007715 0.745322
vn -0.008623 0.241599 6.276231
v 0.021403 0.109649 0.745322
vn 0.014034 -0.049086 6.282634
v 0.125098 0.007722 0.745322
vn -0.012196 0.039155 6.282870
v 0.021401 0.109639 0.745322
vn 0.012706 -0.787120 6.230285
v 0.125135 0.007708 0.745321
vn -0.003522 -0.823984 6.226634
v 0.021408 0.007708 0.745321
vn -0.009410 -0.388703 6.264804
v 0.021403 0.007715 0.745322
vn -0.012640 -0.057405 6.282566
v 0.021401 0.007722 0.745322
# 61 vertices, 0 vertices normals

f 1//1 2//2 3//3
f 1//1 4//4 2//2
f 1//1 5//5 4//4
f 1//1 3//3 6//6
f 1//1 6//6 5//5
f 2//2 7//7 8//8
f 2//2 4//4 7//7
f 2//2 8//8 3//3
f 7//7 4//4 9//9
f 7//7 10//10 11//11
f 7//7 9//9 10//10
f 7//7 11//11 8//8
f 4//4 5//5 12//12
f 4//4 12//12 13//13
f 4//4 13//13 9//9
f 10//10 9//9 14//14
f 10//10 14//14 15//15
f 10//10 15//15 11//11
f 16//16 17//17 18//18
f 16//16 19//19 20//20
f 16//16 18//18 19//19
f 16//16 21//21 17//17
f 16//16 20//20 21//21
f 17//17 22//22 23//23
f 17//17 23//23 18//18
f 17//17 21//21 24//24
f 17//17 24//24 22//22
f 22//22 25//25 23//23
f 22//22 24//24 26//26
f 22//22 26//26 27//27
f 22//22 27//27 25//25
f 5//5 19//19 12//12
f 5//5 6//6 19//19
f 19//19 18//18 12//12
f 19//19 6//6 20//20
f 12//12 18//18 23//23
f 12//12 23//23 28//28
f 12//12 28//28 13//13
f 23//23 25//25 29//29
f 23//23 29//29 28//28
f 30//30 31//31 32//32
f 30//30 14//14 33//33
f 30//30 33//33 31//31
f 30//30 32//32 34//34
f 30//30 34//34 14//14
f 31//31 33//33 35//35
f 31//31 35//35 36//36
f 31//31 37//37 32//32
f 31//31 36//36 37//37
f 9//9 13//13 14//14
f 13//13 33//33 14//14
f 13//13 28//28 33//33
f 14//14 34//34 15//15
f 33//33 28//28 38//38
f 33//33 38//38 35//35
f 25//25 35//35 38//38
f 25//25 38//38 29//29
f 25//25 27//27 35//35
f 35//35 27//27 36//36
f 28//28 29//29 38//38
f 39//39 40//40 21//21
f 39//39 3//3 8//8
f 39//39 8//8 40//40
f 39//39 41//41 3//3
f 39//39 21//21 41//41
f 40//40 42//42 43//43
f 40//40 44//44 21//21
f 40//40 43//43 44//44
f 40//40 8//8 11//11
f 40//40 11//11 42//42
f 42//42 11//11 45//45
f 42//42 45//45 43//43
f 44//44 43//43 46//46
f 44//44 46//46 47//47
f 44//44 47//47 48//48
f 44//44 49//49 21//21
f 44//44 48//48 49//49
f 43//43 47//47 46//46
f 43//43 50//50 47//47
f 43//43 45//45 32//32
f 43//43 32//32 50//50
f 47//47 50//50 51//51
f 47//47 51//51 48//48
f 50//50 32//32 52//52
f 50//50 52//52 51//51
f 51//51 53//53 54//54
f 51//51 54//54 48//48
f 51//51 52//52 55//55
f 51//51 55//55 53//53
f 53//53 56//56 54//54
f 53//53 55//55 57//57
f 53//53 57//57 56//56
f 3//3 41//41 6//6
f 11//11 15//15 45//45
f 45//45 15//15 34//34
f 45//45 34//34 32//32
f 41//41 21//21 20//20
f 41//41 20//20 6//6
f 21//21 49//49 24//24
f 49//49 26//26 24//24
f 49//49 48//48 26//26
f 26//26 48//48 58//58
f 26//26 58//58 27//27
f 48//48 54//54 58//58
f 58//58 54//54 59//59
f 58//58 59//59 27//27
f 54//54 56//56 60//60
f 54//54 60//60 59//59
f 56//56 57//57 61//61
f 56//56 61//61 60//60
f 32//32 37//37 52//52
f 37//37 55//55 52//52
f 37//37 57//57 55//55
f 37//37 36//36 57//57
f 57//57 36//36 61//61
f 27//27 59//59 36//36
f 36//36 59//59 60//60
f 36//36 60//60 61//61
# 118 faces, 0 coords texture

# End of File
