####
#
# OBJ File Generated by Meshlab
#
####
# Object step_40_link_4.obj
#
# Vertices: 60
# Faces: 116
#
####
vn 4.517803 3.681523 -1.513272
v 0.084254 0.078013 0.440860
vn 5.475631 0.900023 -1.931701
v 0.084417 0.077629 0.440809
vn 2.425391 1.618072 -3.549648
v 0.084176 0.077907 0.440474
vn 1.918512 4.216324 -3.047926
v 0.082816 0.079023 0.440761
vn 2.812466 5.290286 -0.647031
v 0.102894 0.120130 0.646030
vn 4.786934 3.540913 -0.532732
v 0.105396 0.118093 0.646436
vn 5.550390 -0.758344 -1.833676
v 0.084417 -0.022966 0.440809
vn 5.955588 1.229563 -0.449471
v 0.105707 0.117304 0.646331
vn 6.148425 -0.770201 -0.261033
v 0.105707 0.016124 0.646331
vn 1.190750 4.432797 -3.333955
v 0.082138 0.079179 0.440695
vn 0.664067 4.119844 -3.471861
v 0.082128 0.079180 0.440693
vn 0.230170 3.822803 -3.630584
v 0.082119 0.079181 0.440692
vn 0.029146 2.328846 -5.669255
v 0.082112 0.079180 0.440692
vn 1.973366 -1.926851 -3.158430
v 0.084176 -0.023321 0.440474
vn -0.237083 0.431638 -6.223945
v -0.017142 0.077907 0.440474
vn 1.075312 6.068741 -0.666316
v 0.101621 0.120479 0.645855
vn 1.610188 5.988990 -0.652099
v 0.101638 0.120475 0.645859
vn 0.331791 6.176161 -0.668779
v 0.101606 0.120480 0.645853
vn -1.146692 4.617433 -2.614203
v -0.019098 0.079181 0.440692
vn -1.526028 5.722775 -0.530958
v -0.001388 0.120480 0.645853
vn -1.598635 2.578165 -4.331148
v -0.019099 0.079180 0.440692
vn 3.509359 -4.543929 0.252624
v 0.084282 -0.023457 0.541089
vn 0.855695 -6.065182 0.518313
v 0.083215 -0.023775 0.541106
vn 0.574055 -5.345162 -1.869341
v 0.083215 -0.023775 0.440962
vn 3.607933 -3.766237 -0.821578
v 0.084282 -0.023457 0.440974
vn 5.798191 -2.282821 -0.072742
v 0.105444 0.015127 0.646627
vn 3.729191 -3.512535 1.094817
v 0.105444 0.015127 0.746964
vn -0.788829 -6.077682 0.585903
v -0.017600 -0.023775 0.541106
vn 0.592873 -5.161073 2.573941
v 0.103345 0.014509 0.747019
vn -0.760245 -4.860068 2.861173
v 0.001541 0.014509 0.747019
vn -0.226495 -2.201036 -5.257594
v -0.017142 -0.023321 0.440474
vn -0.547532 -5.283008 -1.985976
v -0.017600 -0.023775 0.440962
vn -6.028332 1.141147 0.148611
v -0.019387 0.079023 0.541158
vn -3.052598 1.463434 -2.209601
v -0.019387 0.079023 0.440761
vn -3.873772 -2.944622 0.432346
v -0.019387 -0.023292 0.541158
vn -2.466391 -1.610378 2.337024
v -0.001992 0.015698 0.747244
vn -2.586701 1.554760 2.199713
v -0.001992 0.120130 0.747244
vn -4.392727 3.973875 -0.185669
v -0.001992 0.120130 0.646030
vn -0.947713 0.310932 -6.158319
v -0.019099 0.079179 0.440692
vn -1.075751 -0.144004 -6.167834
v -0.019099 -0.023379 0.440692
vn -2.549456 -1.712982 -1.816938
v -0.019387 -0.023292 0.440761
vn -1.707865 -5.967824 0.628382
v -0.019097 -0.023384 0.541151
vn -1.170960 -5.022235 -2.336835
v -0.019097 -0.023384 0.440693
vn -1.449643 -3.513039 -4.224191
v -0.019098 -0.023383 0.440692
vn -1.302607 -1.256536 -5.850683
v -0.019099 -0.023381 0.440692
vn 4.616406 3.462573 0.967547
v 0.105396 0.118093 0.747002
vn 5.482880 0.910755 1.520623
v 0.105707 0.117304 0.747122
vn 2.483602 1.479249 3.738022
v 0.105220 0.117808 0.747821
vn 1.804395 3.755763 2.525440
v 0.102894 0.120130 0.747244
vn 5.605372 -0.616143 1.589158
v 0.105707 0.016124 0.747122
vn 0.710069 2.514461 5.664060
v 0.101657 0.120469 0.747263
vn 0.780616 3.683586 3.027953
v 0.101638 0.120475 0.747262
vn -0.271638 0.529657 6.197550
v 0.002481 0.117808 0.747821
vn 2.016365 -1.872331 3.286867
v 0.105220 0.015392 0.747821
vn 0.478906 3.816471 2.921011
v 0.101621 0.120479 0.747261
vn -0.255036 1.006210 6.175904
v -0.001379 0.120475 0.747262
vn 0.135845 5.119683 2.353110
v 0.101606 0.120480 0.747260
vn -0.354701 2.287830 5.534412
v -0.001385 0.120479 0.747261
vn -1.201266 3.854739 2.440909
v -0.001388 0.120480 0.747260
vn -0.317524 -2.010796 5.421954
v 0.002481 0.015392 0.747821
# 60 vertices, 0 vertices normals

f 1//1 2//2 3//3
f 1//1 3//3 4//4
f 1//1 4//4 5//5
f 1//1 6//6 2//2
f 1//1 5//5 6//6
f 2//2 7//7 3//3
f 2//2 6//6 8//8
f 2//2 8//8 9//9
f 2//2 9//9 7//7
f 3//3 10//10 4//4
f 3//3 11//11 10//10
f 3//3 12//12 11//11
f 3//3 13//13 12//12
f 3//3 7//7 14//14
f 3//3 14//14 15//15
f 3//3 15//15 13//13
f 4//4 10//10 16//16
f 4//4 17//17 5//5
f 4//4 16//16 17//17
f 10//10 11//11 16//16
f 11//11 12//12 18//18
f 11//11 18//18 16//16
f 12//12 13//13 19//19
f 12//12 19//19 20//20
f 12//12 20//20 18//18
f 13//13 15//15 21//21
f 13//13 21//21 19//19
f 22//22 23//23 24//24
f 22//22 25//25 26//26
f 22//22 24//24 25//25
f 22//22 27//27 23//23
f 22//22 26//26 27//27
f 23//23 28//28 24//24
f 23//23 27//27 29//29
f 23//23 29//29 30//30
f 23//23 30//30 28//28
f 7//7 25//25 14//14
f 7//7 9//9 26//26
f 7//7 26//26 25//25
f 14//14 25//25 24//24
f 14//14 24//24 31//31
f 14//14 31//31 15//15
f 24//24 28//28 32//32
f 24//24 32//32 31//31
f 33//33 34//34 35//35
f 33//33 35//35 36//36
f 33//33 37//37 38//38
f 33//33 38//38 34//34
f 33//33 36//36 37//37
f 15//15 39//39 21//21
f 15//15 31//31 40//40
f 15//15 40//40 39//39
f 34//34 19//19 21//21
f 34//34 21//21 39//39
f 34//34 39//39 40//40
f 34//34 41//41 35//35
f 34//34 40//40 41//41
f 34//34 38//38 20//20
f 34//34 20//20 19//19
f 28//28 42//42 32//32
f 28//28 30//30 42//42
f 35//35 42//42 30//30
f 35//35 41//41 42//42
f 35//35 30//30 36//36
f 42//42 41//41 43//43
f 42//42 43//43 32//32
f 31//31 32//32 43//43
f 31//31 43//43 44//44
f 31//31 44//44 45//45
f 31//31 45//45 40//40
f 41//41 44//44 43//43
f 41//41 45//45 44//44
f 41//41 40//40 45//45
f 46//46 47//47 8//8
f 46//46 48//48 47//47
f 46//46 49//49 48//48
f 46//46 6//6 49//49
f 46//46 8//8 6//6
f 47//47 48//48 50//50
f 47//47 50//50 8//8
f 48//48 49//49 51//51
f 48//48 51//51 52//52
f 48//48 52//52 53//53
f 48//48 54//54 50//50
f 48//48 53//53 54//54
f 49//49 52//52 51//51
f 49//49 6//6 5//5
f 49//49 5//5 52//52
f 52//52 55//55 56//56
f 52//52 5//5 17//17
f 52//52 17//17 55//55
f 52//52 56//56 53//53
f 55//55 57//57 58//58
f 55//55 17//17 16//16
f 55//55 16//16 57//57
f 55//55 58//58 56//56
f 57//57 16//16 18//18
f 57//57 18//18 59//59
f 57//57 59//59 58//58
f 8//8 50//50 9//9
f 18//18 20//20 59//59
f 50//50 54//54 27//27
f 50//50 27//27 26//26
f 50//50 26//26 9//9
f 54//54 29//29 27//27
f 54//54 53//53 60//60
f 54//54 60//60 29//29
f 29//29 60//60 30//30
f 53//53 37//37 36//36
f 53//53 56//56 37//37
f 53//53 36//36 60//60
f 37//37 56//56 58//58
f 37//37 58//58 59//59
f 37//37 59//59 38//38
f 59//59 20//20 38//38
f 60//60 36//36 30//30
# 116 faces, 0 coords texture

# End of File
