####
#
# OBJ File Generated by Meshlab
#
####
# Object step_41_link_5.obj
#
# Vertices: 66
# Faces: 128
#
####
vn 1.624099 0.872330 5.478717
v 0.101536 0.119028 0.748079
vn 0.920189 2.654243 5.580098
v 0.099284 0.121410 0.747442
vn 0.644377 2.505137 5.676974
v 0.098013 0.121751 0.747452
vn 0.345738 2.452722 5.645436
v 0.097994 0.121758 0.747452
vn -0.311618 0.574079 6.178697
v -0.001174 0.119028 0.748079
vn 1.753808 -2.196800 3.682462
v 0.101536 0.016658 0.748079
vn 3.782935 -0.089263 5.010085
v 0.245599 0.128121 0.645891
vn 3.421034 0.835405 5.068748
v 0.245599 0.234453 0.645891
vn 2.965688 3.082500 2.479295
v 0.234470 0.251386 0.646904
vn 1.911022 3.762577 4.379961
v 0.230748 0.253762 0.646539
vn 1.962113 4.227449 2.620944
v 0.230700 0.253796 0.646531
vn 0.084450 2.771130 5.506182
v 0.097978 0.121762 0.747450
vn -0.259818 1.225297 6.132227
v -0.004859 0.121758 0.747452
vn 1.326133 4.598805 2.455255
v 0.230658 0.253816 0.646521
vn -0.465863 2.431974 5.499057
v -0.004865 0.121762 0.747450
vn -0.149936 4.028419 4.805629
v 0.121289 0.253816 0.646521
vn 3.068377 -4.840065 1.227284
v 0.101772 0.016413 0.747213
vn 4.138593 -1.710512 1.680501
v 0.246837 0.127021 0.644896
vn 0.619800 -5.035194 2.106336
v 0.099613 0.015685 0.747270
vn -0.350443 -1.889847 5.509281
v -0.001174 0.016658 0.748079
vn 2.685514 -5.388092 -0.791878
v 0.101772 0.016413 0.646887
vn 0.631985 -5.150959 -2.005500
v 0.099613 0.015685 0.646819
vn -0.881179 -4.663260 2.299214
v -0.002234 0.015685 0.747270
vn 1.266136 -4.874544 -3.198084
v 0.101536 0.016658 0.645928
vn 2.787481 -1.944323 -2.010318
v 0.246837 0.127021 0.544408
vn -0.752224 -5.012268 -2.066364
v -0.002234 0.015685 0.646819
vn -0.008506 -4.156901 -4.709639
v 0.145501 0.127021 0.544408
vn -2.833114 1.315032 2.338144
v -0.005506 0.121410 0.747442
vn -2.406588 -1.609750 1.915399
v -0.005506 0.016933 0.747442
vn -1.631225 3.695389 4.297546
v -0.004868 0.121763 0.747449
vn -1.648199 4.580329 2.248606
v 0.121283 0.253827 0.646512
vn -4.502520 1.442490 -1.741797
v -0.005506 0.121410 0.646257
vn -2.057403 5.234657 0.480796
v 0.121284 0.253829 0.646503
vn -3.056704 -2.093687 -1.679723
v -0.005506 0.016933 0.646257
vn -2.132983 5.126209 -0.567886
v 0.121284 0.253829 0.542525
vn -1.957920 1.862137 -4.737402
v 0.121289 0.253816 0.542508
vn -3.510664 -0.090662 -5.173564
v 0.121289 0.141669 0.542508
vn -2.180159 3.269508 -2.487118
v 0.121283 0.253827 0.542516
vn -0.248539 -4.077429 -4.770425
v -0.001174 0.016658 0.645928
vn -1.234513 -4.479491 -3.888606
v -0.004865 0.016830 0.646076
vn -0.361318 -2.437919 -5.390581
v 0.139607 0.128121 0.543478
vn -1.564154 -3.329025 -4.981259
v -0.004868 0.016835 0.646073
vn -1.731668 -1.270893 -5.544641
v 0.122141 0.140398 0.542180
vn -2.981129 -0.341097 -5.438525
v 0.121305 0.141634 0.542499
vn 5.088473 0.263633 2.293515
v 0.246837 0.228316 0.644896
vn 4.401210 1.600470 2.229939
v 0.245842 0.234635 0.645677
vn 5.008344 0.262905 -2.355801
v 0.246837 0.228316 0.544408
vn 4.693598 1.734247 -2.005295
v 0.245842 0.234635 0.543758
vn 2.345556 2.254273 -2.726409
v 0.234470 0.251386 0.542180
vn 1.537797 3.409657 -2.961322
v 0.230700 0.253796 0.542499
vn 0.615386 5.173456 2.116683
v 0.230623 0.253827 0.646512
vn 1.165308 4.060791 -2.740093
v 0.230658 0.253816 0.542508
vn 0.144357 6.188387 0.667699
v 0.230596 0.253829 0.646503
vn 0.610838 5.072452 -2.204849
v 0.230623 0.253827 0.542516
vn 0.143140 6.178334 -0.707881
v 0.230596 0.253829 0.542525
vn 2.695991 0.608519 -5.084970
v 0.245599 0.234453 0.543478
vn 1.401612 -1.561290 -5.057691
v 0.245599 0.128121 0.543478
vn 0.551114 -0.134747 -6.253239
v 0.234470 0.140398 0.542180
vn 0.572443 1.131876 -5.992453
v 0.233902 0.251514 0.542129
vn 1.260201 2.746808 -4.895073
v 0.230748 0.253762 0.542492
vn 0.203667 -0.262952 -6.255288
v 0.233902 0.140700 0.542129
vn -0.893633 0.332073 -6.077421
v 0.122289 0.251514 0.542129
vn -0.483325 0.921663 -6.157902
v 0.121331 0.253762 0.542492
vn -1.373750 1.024438 -5.708654
v 0.121305 0.253796 0.542499
vn -0.908712 -0.275182 -6.092397
v 0.122289 0.140700 0.542129
vn -2.137982 0.012206 -5.907147
v 0.122141 0.251386 0.542180
# 66 vertices, 0 vertices normals

f 1//1 2//2 3//3
f 1//1 3//3 4//4
f 1//1 4//4 5//5
f 1//1 6//6 7//7
f 1//1 5//5 6//6
f 1//1 8//8 9//9
f 1//1 9//9 2//2
f 1//1 7//7 8//8
f 2//2 4//4 3//3
f 2//2 9//9 10//10
f 2//2 10//10 11//11
f 2//2 11//11 4//4
f 4//4 12//12 13//13
f 4//4 13//13 5//5
f 4//4 11//11 14//14
f 4//4 14//14 12//12
f 12//12 15//15 13//13
f 12//12 14//14 16//16
f 12//12 16//16 15//15
f 6//6 17//17 18//18
f 6//6 19//19 17//17
f 6//6 5//5 20//20
f 6//6 20//20 19//19
f 6//6 18//18 7//7
f 17//17 19//19 21//21
f 17//17 21//21 18//18
f 19//19 22//22 21//21
f 19//19 20//20 23//23
f 19//19 23//23 22//22
f 24//24 21//21 22//22
f 24//24 22//22 25//25
f 24//24 25//25 21//21
f 21//21 25//25 18//18
f 22//22 23//23 26//26
f 22//22 26//26 27//27
f 22//22 27//27 25//25
f 5//5 28//28 29//29
f 5//5 13//13 28//28
f 5//5 29//29 20//20
f 28//28 13//13 15//15
f 28//28 15//15 30//30
f 28//28 30//30 31//31
f 28//28 32//32 29//29
f 28//28 31//31 33//33
f 28//28 33//33 32//32
f 15//15 16//16 30//30
f 30//30 16//16 31//31
f 32//32 34//34 29//29
f 32//32 33//33 35//35
f 32//32 36//36 37//37
f 32//32 38//38 36//36
f 32//32 35//35 38//38
f 32//32 37//37 34//34
f 20//20 29//29 23//23
f 23//23 29//29 26//26
f 29//29 34//34 26//26
f 39//39 26//26 40//40
f 39//39 40//40 41//41
f 39//39 41//41 26//26
f 26//26 34//34 40//40
f 26//26 41//41 27//27
f 34//34 42//42 40//40
f 34//34 43//43 42//42
f 34//34 44//44 43//43
f 34//34 37//37 44//44
f 40//40 42//42 41//41
f 42//42 43//43 41//41
f 45//45 8//8 7//7
f 45//45 46//46 8//8
f 45//45 47//47 48//48
f 45//45 48//48 46//46
f 45//45 18//18 47//47
f 45//45 7//7 18//18
f 8//8 46//46 9//9
f 46//46 48//48 9//9
f 9//9 11//11 10//10
f 9//9 48//48 49//49
f 9//9 49//49 11//11
f 11//11 49//49 50//50
f 11//11 50//50 14//14
f 14//14 51//51 16//16
f 14//14 50//50 52//52
f 14//14 52//52 51//51
f 51//51 53//53 31//31
f 51//51 52//52 54//54
f 51//51 54//54 53//53
f 51//51 31//31 16//16
f 53//53 54//54 55//55
f 53//53 55//55 33//33
f 53//53 33//33 31//31
f 47//47 56//56 48//48
f 47//47 18//18 25//25
f 47//47 25//25 57//57
f 47//47 57//57 56//56
f 56//56 49//49 48//48
f 56//56 57//57 58//58
f 56//56 58//58 49//49
f 49//49 59//59 60//60
f 49//49 60//60 50//50
f 49//49 58//58 61//61
f 49//49 61//61 59//59
f 59//59 61//61 62//62
f 59//59 62//62 60//60
f 60//60 62//62 63//63
f 60//60 63//63 50//50
f 50//50 63//63 64//64
f 50//50 64//64 52//52
f 52//52 64//64 36//36
f 52//52 36//36 54//54
f 54//54 36//36 38//38
f 54//54 38//38 55//55
f 55//55 38//38 35//35
f 55//55 35//35 33//33
f 25//25 27//27 57//57
f 57//57 61//61 58//58
f 57//57 27//27 41//41
f 57//57 41//41 61//61
f 61//61 41//41 65//65
f 61//61 65//65 62//62
f 66//66 62//62 65//65
f 66//66 64//64 62//62
f 66//66 43//43 44//44
f 66//66 65//65 43//43
f 66//66 44//44 64//64
f 62//62 64//64 63//63
f 64//64 44//44 37//37
f 64//64 37//37 36//36
f 41//41 43//43 65//65
# 128 faces, 0 coords texture

# End of File
