####
#
# OBJ File Generated by Meshlab
#
####
# Object step_36_link_7.obj
#
# Vertices: 93
# Faces: 182
#
####
vn 3.167320 0.124472 5.270444
v 0.392146 0.177907 0.594837
vn 1.966449 0.577831 5.470360
v 0.387216 0.198034 0.596569
vn 0.954524 -0.161911 6.098016
v 0.387216 0.086535 0.596569
vn 3.064786 -0.120964 5.309978
v 0.392146 0.072095 0.594837
vn 4.298019 -0.028473 4.579969
v 0.596647 0.129563 0.411376
vn 4.367216 0.240556 4.474201
v 0.596647 0.299409 0.411376
vn 3.831977 2.370962 1.945224
v 0.596818 0.300314 0.411143
vn 1.677866 1.456365 5.415260
v 0.385821 0.202480 0.596246
vn -0.335795 0.151093 6.251464
v 0.273270 0.198034 0.596569
vn 2.232873 3.088562 4.871181
v 0.385753 0.203241 0.595878
vn 0.975664 2.674429 5.246540
v 0.384396 0.203865 0.595960
vn -0.933639 0.526132 6.052511
v 0.270764 0.202480 0.596246
vn 2.857208 3.859700 3.625538
v 0.594120 0.302033 0.411881
vn 2.114053 4.798059 2.259642
v 0.593882 0.302178 0.411874
vn 0.677987 3.538806 4.745264
v 0.384358 0.203894 0.595949
vn -2.182481 1.264139 5.073132
v 0.270113 0.203865 0.595960
vn 0.175943 4.726865 3.912535
v 0.384324 0.203909 0.595937
vn -2.751402 2.039833 2.731299
v 0.270109 0.203894 0.595949
vn 1.077880 5.455679 1.561543
v 0.593824 0.302203 0.411857
vn -2.526100 3.328652 1.879614
v 0.270114 0.203909 0.595937
vn -1.402230 5.474105 1.116352
v 0.418015 0.302203 0.411857
vn 1.233202 -3.753735 2.626319
v 0.391884 0.060228 0.592695
vn 1.972118 -1.350463 4.970592
v 0.392121 0.064053 0.594566
vn -1.209368 -4.054401 2.145045
v 0.289953 0.060228 0.592695
vn 0.272654 -6.250091 -0.232983
v 0.391884 0.060228 0.491967
vn 3.215705 -3.361893 0.857274
v 0.600698 0.084019 0.400240
vn 4.527778 -1.651744 3.483785
v 0.601284 0.089802 0.404326
vn 1.671720 -0.161314 6.042426
v 0.391487 0.072542 0.595061
vn -2.236988 -2.317888 2.768534
v 0.285416 0.064053 0.594566
vn 4.409647 -0.242877 4.457070
v 0.597488 0.124133 0.410483
vn 4.748439 -0.066761 4.026171
v 0.597690 0.125590 0.410346
vn -1.406829 -1.013988 5.735386
v 0.273270 0.086535 0.596569
vn -2.035094 -5.242371 -0.833384
v 0.289953 0.060228 0.491967
vn -0.607660 -4.882812 -2.712619
v 0.456862 0.084019 0.258522
vn 2.254163 -2.981380 -1.464905
v 0.600698 0.084019 0.258522
vn -3.015568 -1.489097 3.974384
v 0.270764 0.089286 0.596246
vn -4.084041 0.418622 2.754568
v 0.269784 0.202495 0.595908
vn -4.131411 -0.321174 2.785921
v 0.269784 0.091535 0.595908
vn -1.493299 0.669703 5.974728
v 0.270127 0.203817 0.595969
vn -5.513750 1.897056 -1.420933
v 0.270109 0.203894 0.489344
vn -5.698653 0.573343 -1.511837
v 0.269784 0.202495 0.489365
vn -4.672777 3.535879 -0.425748
v 0.270114 0.203909 0.489355
vn -2.803568 1.473531 -3.753193
v 0.417923 0.302033 0.250394
vn -5.652620 -0.560155 -1.635347
v 0.269784 0.091535 0.489365
vn -3.454766 -0.129913 -4.652705
v 0.417923 0.134994 0.250394
vn -1.818867 4.622726 -1.672374
v 0.418015 0.302203 0.250474
vn -2.159032 3.385582 -3.323439
v 0.418004 0.302178 0.250444
vn -4.188319 -3.695383 -1.518633
v 0.285416 0.064053 0.490397
vn -5.339383 -3.023756 0.905446
v 0.270483 0.089502 0.595803
vn -5.345257 -3.017547 -0.899078
v 0.270483 0.089502 0.489457
vn -4.707041 -1.505845 2.238361
v 0.269993 0.090422 0.595878
vn -5.331667 -1.817065 -1.545437
v 0.269993 0.090422 0.489391
vn -1.565508 -2.779162 -4.092255
v 0.448857 0.089802 0.254195
vn -4.915644 -2.707095 -2.627263
v 0.270764 0.089286 0.489008
vn -3.911256 -2.000085 -4.084144
v 0.419078 0.129796 0.250352
vn -4.059166 -0.822437 -4.328228
v 0.418041 0.132395 0.250567
vn 5.783342 0.130302 1.615899
v 0.602042 0.247240 0.403539
vn 6.260263 0.494091 0.139420
v 0.601467 0.254714 0.403519
vn 5.901193 0.475258 1.359738
v 0.598021 0.295673 0.409754
vn 4.908226 0.027170 3.840249
v 0.597690 0.294783 0.410346
vn 5.443172 0.806337 1.919645
v 0.597818 0.296867 0.410107
vn 5.478844 0.130891 -2.017128
v 0.602042 0.247240 0.255033
vn 6.260602 0.501663 -0.117966
v 0.601467 0.254714 0.255553
vn 5.457090 -0.504457 1.884645
v 0.602042 0.091397 0.403539
vn 5.869708 0.584468 -1.410869
v 0.598021 0.295673 0.250971
vn 5.305570 1.065900 -2.046074
v 0.597818 0.296867 0.250754
vn 3.130605 2.423055 -2.247038
v 0.596818 0.300314 0.250352
vn 3.201171 4.793711 1.553476
v 0.594250 0.302000 0.411786
vn 1.537278 3.165902 -2.980108
v 0.594250 0.302000 0.250372
vn 1.235568 4.272579 -2.743993
v 0.593882 0.302178 0.250444
vn 0.837477 5.375442 -1.685242
v 0.593824 0.302203 0.250474
vn 0.091082 6.259901 0.318475
v 0.593770 0.302206 0.411835
vn 0.096462 6.269204 -0.226521
v 0.593770 0.302206 0.250503
vn -0.244626 6.247999 0.276814
v 0.418039 0.302206 0.411835
vn 4.678759 0.000287 -4.193467
v 0.601628 0.243355 0.254564
vn 5.440269 -0.429317 -1.906054
v 0.602042 0.091397 0.255033
vn 3.507291 0.164990 -4.464225
v 0.597690 0.294783 0.250239
vn 5.202702 -0.992333 -2.803757
v 0.601628 0.090314 0.254564
vn 2.271968 -0.262568 -5.244251
v 0.597690 0.125590 0.250239
vn 2.087418 0.750060 -5.232237
v 0.596647 0.299409 0.250000
vn 0.644133 -0.109862 -6.200066
v 0.596647 0.129563 0.250000
vn -0.549645 0.305310 -6.185927
v 0.419702 0.299409 0.250000
vn 0.237171 2.698630 -5.625111
v 0.593941 0.302124 0.250417
vn -0.147410 1.377911 -6.079260
v 0.418224 0.302000 0.250372
vn -0.506046 2.362768 -5.732588
v 0.418012 0.302124 0.250417
vn -0.260495 6.256515 -0.192724
v 0.418039 0.302206 0.250503
vn 5.352588 -1.188591 2.669362
v 0.601628 0.090314 0.403946
vn 2.321942 -1.698985 -3.922070
v 0.601284 0.089802 0.254195
vn -1.063287 -1.280881 -5.877307
v 0.422976 0.125590 0.250239
vn -1.884197 -1.302505 -5.233963
v 0.419702 0.129563 0.250000
vn -1.229328 0.139434 -6.151275
v 0.417987 0.301900 0.250378
vn -1.643414 -0.096105 -6.055367
v 0.417987 0.134852 0.250378
vn -2.980077 -2.677671 -4.622793
v 0.423443 0.124373 0.250527
# 93 vertices, 0 vertices normals

f 1//1 2//2 3//3
f 1//1 4//4 5//5
f 1//1 3//3 4//4
f 1//1 6//6 7//7
f 1//1 7//7 2//2
f 1//1 5//5 6//6
f 2//2 8//8 9//9
f 2//2 9//9 3//3
f 2//2 7//7 8//8
f 8//8 10//10 11//11
f 8//8 11//11 12//12
f 8//8 12//12 9//9
f 8//8 7//7 10//10
f 10//10 7//7 13//13
f 10//10 13//13 14//14
f 10//10 14//14 11//11
f 11//11 15//15 16//16
f 11//11 16//16 12//12
f 11//11 14//14 15//15
f 15//15 17//17 18//18
f 15//15 18//18 16//16
f 15//15 14//14 19//19
f 15//15 19//19 17//17
f 17//17 20//20 18//18
f 17//17 19//19 21//21
f 17//17 21//21 20//20
f 22//22 23//23 24//24
f 22//22 25//25 26//26
f 22//22 24//24 25//25
f 22//22 26//26 27//27
f 22//22 27//27 23//23
f 23//23 4//4 28//28
f 23//23 28//28 3//3
f 23//23 3//3 29//29
f 23//23 29//29 24//24
f 23//23 27//27 30//30
f 23//23 30//30 4//4
f 4//4 3//3 28//28
f 4//4 30//30 31//31
f 4//4 31//31 5//5
f 3//3 9//9 32//32
f 3//3 32//32 29//29
f 25//25 24//24 33//33
f 25//25 33//33 34//34
f 25//25 35//35 26//26
f 25//25 34//34 35//35
f 9//9 12//12 36//36
f 9//9 36//36 32//32
f 12//12 37//37 38//38
f 12//12 39//39 37//37
f 12//12 16//16 39//39
f 12//12 38//38 36//36
f 37//37 39//39 16//16
f 37//37 16//16 18//18
f 37//37 18//18 40//40
f 37//37 41//41 38//38
f 37//37 40//40 41//41
f 18//18 20//20 42//42
f 18//18 42//42 40//40
f 20//20 21//21 42//42
f 41//41 40//40 43//43
f 41//41 44//44 38//38
f 41//41 43//43 45//45
f 41//41 45//45 44//44
f 40//40 42//42 43//43
f 42//42 21//21 46//46
f 42//42 47//47 43//43
f 42//42 46//46 47//47
f 24//24 29//29 48//48
f 24//24 48//48 33//33
f 29//29 32//32 36//36
f 29//29 36//36 49//49
f 29//29 49//49 50//50
f 29//29 50//50 48//48
f 36//36 51//51 49//49
f 36//36 38//38 51//51
f 49//49 51//51 52//52
f 49//49 52//52 50//50
f 51//51 38//38 44//44
f 51//51 44//44 52//52
f 33//33 48//48 53//53
f 33//33 53//53 34//34
f 48//48 54//54 55//55
f 48//48 50//50 54//54
f 48//48 55//55 53//53
f 54//54 50//50 52//52
f 54//54 52//52 55//55
f 52//52 44//44 56//56
f 52//52 56//56 55//55
f 44//44 45//45 56//56
f 57//57 58//58 59//59
f 57//57 60//60 31//31
f 57//57 59//59 61//61
f 57//57 61//61 60//60
f 57//57 62//62 63//63
f 57//57 63//63 58//58
f 57//57 64//64 62//62
f 57//57 31//31 64//64
f 58//58 63//63 65//65
f 58//58 65//65 59//59
f 60//60 61//61 7//7
f 60//60 6//6 5//5
f 60//60 7//7 6//6
f 60//60 5//5 31//31
f 59//59 65//65 66//66
f 59//59 66//66 61//61
f 61//61 66//66 67//67
f 61//61 67//67 7//7
f 7//7 68//68 13//13
f 7//7 67//67 69//69
f 7//7 69//69 68//68
f 68//68 14//14 13//13
f 68//68 69//69 70//70
f 68//68 70//70 14//14
f 14//14 70//70 71//71
f 14//14 71//71 19//19
f 19//19 72//72 21//21
f 19//19 71//71 73//73
f 19//19 73//73 72//72
f 72//72 73//73 74//74
f 72//72 74//74 21//21
f 75//75 62//62 76//76
f 75//75 77//77 62//62
f 75//75 78//78 79//79
f 75//75 76//76 78//78
f 75//75 79//79 77//77
f 62//62 77//77 65//65
f 62//62 65//65 63//63
f 62//62 64//64 76//76
f 77//77 66//66 65//65
f 77//77 80//80 66//66
f 77//77 79//79 81//81
f 77//77 81//81 80//80
f 66//66 80//80 67//67
f 80//80 69//69 67//67
f 80//80 81//81 82//82
f 80//80 82//82 69//69
f 69//69 83//83 70//70
f 69//69 82//82 84//84
f 69//69 84//84 83//83
f 83//83 84//84 85//85
f 83//83 85//85 70//70
f 70//70 85//85 47//47
f 70//70 47//47 71//71
f 71//71 47//47 46//46
f 71//71 46//46 73//73
f 73//73 46//46 86//86
f 73//73 86//86 74//74
f 26//26 87//87 27//27
f 26//26 64//64 87//87
f 26//26 35//35 64//64
f 87//87 64//64 27//27
f 27//27 64//64 31//31
f 27//27 31//31 30//30
f 64//64 35//35 76//76
f 35//35 78//78 76//76
f 35//35 88//88 78//78
f 35//35 34//34 88//88
f 78//78 88//88 79//79
f 88//88 34//34 53//53
f 88//88 53//53 79//79
f 79//79 53//53 89//89
f 79//79 89//89 81//81
f 81//81 89//89 90//90
f 81//81 90//90 82//82
f 21//21 74//74 86//86
f 21//21 86//86 46//46
f 82//82 91//91 43//43
f 82//82 43//43 84//84
f 82//82 90//90 92//92
f 82//82 92//92 91//91
f 84//84 43//43 85//85
f 91//91 92//92 45//45
f 91//91 45//45 43//43
f 43//43 47//47 85//85
f 53//53 93//93 89//89
f 53//53 55//55 93//93
f 93//93 90//90 89//89
f 93//93 55//55 90//90
f 90//90 55//55 56//56
f 90//90 56//56 45//45
f 90//90 45//45 92//92
# 182 faces, 0 coords texture

# End of File
