####
#
# OBJ File Generated by Meshlab
#
####
# Object step_45_link_6.obj
#
# Vertices: 58
# Faces: 112
#
####
vn 2.735488 0.396145 5.372982
v 0.197870 0.272210 0.646118
vn 1.324624 0.084442 6.137857
v 0.195400 0.272858 0.646687
vn 1.234299 -0.102930 6.155964
v 0.195400 0.169060 0.646687
vn 1.580383 1.163360 5.740206
v 0.190588 0.280061 0.647581
vn 1.607483 -2.450693 2.172731
v 0.197870 0.166155 0.646118
vn 4.673491 -1.522440 1.980540
v 0.256436 0.237396 0.594983
vn 4.058365 1.662774 2.105343
v 0.256436 0.345048 0.594983
vn 0.883838 -0.385565 6.184774
v 0.190588 0.169761 0.647581
vn 0.467750 1.690880 5.663111
v 0.189501 0.280484 0.647706
vn 0.229851 -1.189248 5.987519
v 0.189501 0.169659 0.647706
vn 3.207501 3.193055 2.670903
v 0.246316 0.356023 0.596738
vn 1.722008 3.630432 4.127998
v 0.245196 0.356625 0.596922
vn -0.948627 1.627800 5.427646
v 0.080615 0.280484 0.647706
vn -0.028620 3.605630 5.142910
v 0.133302 0.356625 0.596922
vn -0.439970 -4.378691 2.599708
v 0.092652 0.166155 0.646118
vn 1.615618 -4.183023 -1.729701
v 0.197870 0.166155 0.543737
vn -1.169932 -2.715011 3.419484
v 0.080615 0.169659 0.647706
vn -0.549616 -4.837784 -2.340138
v 0.092652 0.166155 0.543737
vn -0.107300 -2.832733 -5.500600
v 0.149429 0.237396 0.490850
vn 2.515679 -1.590256 -2.595741
v 0.256436 0.237396 0.490850
vn -2.664532 0.213373 5.607889
v 0.080225 0.280061 0.647581
vn -3.252383 1.672987 2.310802
v 0.079123 0.281270 0.646865
vn -3.332023 -1.983276 1.596636
v 0.079123 0.170039 0.646865
vn -2.126165 -2.745954 3.114289
v 0.080225 0.169761 0.647581
vn -1.818133 3.927877 1.758085
v 0.131024 0.357499 0.596273
vn -4.992588 1.177366 -1.659050
v 0.079123 0.281270 0.543105
vn -3.531245 -2.165816 -1.446422
v 0.079123 0.170039 0.543105
vn -1.907280 2.494056 -2.089554
v 0.131024 0.357499 0.490157
vn -3.139496 -0.638147 -5.096947
v 0.131024 0.242974 0.490157
vn -1.589527 -5.910380 0.959101
v 0.085547 0.168069 0.646604
vn -1.583878 -5.893551 -1.010704
v 0.085547 0.168069 0.543270
vn -2.210223 -5.746135 0.781656
v 0.079157 0.170026 0.646872
vn -2.229017 -5.743561 -0.762399
v 0.079157 0.170026 0.543097
vn -1.570129 -4.115660 -3.174270
v 0.080615 0.169659 0.542223
vn -2.479468 -3.445481 -2.897268
v 0.080225 0.169761 0.542338
vn -1.059988 -1.445009 -5.541149
v 0.133302 0.242237 0.489330
vn 6.201595 0.136772 0.618104
v 0.256832 0.339602 0.593217
vn 6.198368 0.136317 -0.632318
v 0.256832 0.339602 0.492578
vn 3.112874 1.219024 -2.440648
v 0.256436 0.345048 0.490850
vn 5.985816 -1.009977 0.449841
v 0.256832 0.238343 0.593217
vn 2.471464 2.335652 -2.983691
v 0.246316 0.356023 0.489473
vn 2.444977 5.088293 1.330905
v 0.244867 0.357236 0.596180
vn 2.375262 5.139133 -1.290436
v 0.244867 0.357236 0.490159
vn 0.601144 4.933332 2.304024
v 0.243884 0.357499 0.596273
vn 0.051774 4.664584 3.955458
v 0.243342 0.357514 0.596265
vn 0.594908 5.216849 -2.072202
v 0.243884 0.357499 0.490157
vn 0.061348 5.853349 1.548879
v 0.243305 0.357520 0.596255
vn 0.062592 6.003634 -1.257656
v 0.243305 0.357520 0.490182
vn -0.021741 4.563570 4.121581
v 0.131494 0.357514 0.596265
vn -0.116848 5.809141 1.610620
v 0.131476 0.357520 0.596255
vn 5.983261 -1.006327 -0.461094
v 0.256832 0.238343 0.492578
vn 0.816927 -0.033847 -6.229530
v 0.246316 0.242396 0.489473
vn 1.220621 2.558095 -4.261306
v 0.245196 0.356625 0.489330
vn 0.250926 -0.821645 -6.121612
v 0.245196 0.242237 0.489330
vn 0.049160 5.074719 -3.446703
v 0.243342 0.357514 0.490169
vn -0.654381 1.822677 -5.304085
v 0.133302 0.356625 0.489330
vn -0.018892 5.012075 -3.582829
v 0.131494 0.357514 0.490169
vn -0.115086 5.973896 -1.309549
v 0.131476 0.357520 0.490182
# 58 vertices, 0 vertices normals

f 1//1 2//2 3//3
f 1//1 4//4 2//2
f 1//1 5//5 6//6
f 1//1 3//3 5//5
f 1//1 7//7 4//4
f 1//1 6//6 7//7
f 2//2 4//4 8//8
f 2//2 8//8 3//3
f 4//4 9//9 10//10
f 4//4 10//10 8//8
f 4//4 7//7 11//11
f 4//4 11//11 12//12
f 4//4 12//12 9//9
f 9//9 13//13 10//10
f 9//9 12//12 14//14
f 9//9 14//14 13//13
f 5//5 3//3 8//8
f 5//5 8//8 10//10
f 5//5 10//10 15//15
f 5//5 16//16 6//6
f 5//5 15//15 16//16
f 10//10 13//13 17//17
f 10//10 17//17 15//15
f 16//16 15//15 18//18
f 16//16 18//18 19//19
f 16//16 20//20 6//6
f 16//16 19//19 20//20
f 21//21 13//13 22//22
f 21//21 22//22 23//23
f 21//21 24//24 17//17
f 21//21 17//17 13//13
f 21//21 23//23 24//24
f 13//13 14//14 25//25
f 13//13 25//25 22//22
f 22//22 26//26 23//23
f 22//22 25//25 26//26
f 26//26 27//27 23//23
f 26//26 25//25 28//28
f 26//26 28//28 29//29
f 26//26 29//29 27//27
f 15//15 30//30 31//31
f 15//15 17//17 30//30
f 15//15 31//31 18//18
f 30//30 24//24 32//32
f 30//30 17//17 24//24
f 30//30 32//32 33//33
f 30//30 33//33 31//31
f 24//24 23//23 32//32
f 32//32 23//23 27//27
f 32//32 27//27 33//33
f 18//18 31//31 34//34
f 18//18 34//34 19//19
f 31//31 35//35 34//34
f 31//31 33//33 35//35
f 35//35 33//33 27//27
f 35//35 27//27 29//29
f 35//35 36//36 34//34
f 35//35 29//29 36//36
f 34//34 36//36 19//19
f 37//37 7//7 6//6
f 37//37 38//38 39//39
f 37//37 39//39 7//7
f 37//37 40//40 38//38
f 37//37 6//6 40//40
f 7//7 39//39 41//41
f 7//7 41//41 11//11
f 11//11 42//42 12//12
f 11//11 41//41 43//43
f 11//11 43//43 42//42
f 12//12 42//42 44//44
f 12//12 44//44 45//45
f 12//12 45//45 14//14
f 42//42 43//43 46//46
f 42//42 46//46 44//44
f 44//44 47//47 45//45
f 44//44 46//46 48//48
f 44//44 48//48 47//47
f 45//45 47//47 49//49
f 45//45 49//49 14//14
f 47//47 48//48 50//50
f 47//47 50//50 49//49
f 38//38 40//40 51//51
f 38//38 51//51 20//20
f 38//38 20//20 39//39
f 39//39 20//20 52//52
f 39//39 52//52 41//41
f 41//41 53//53 43//43
f 41//41 52//52 54//54
f 41//41 54//54 53//53
f 53//53 46//46 43//43
f 53//53 55//55 46//46
f 53//53 54//54 56//56
f 53//53 56//56 55//55
f 46//46 55//55 48//48
f 55//55 56//56 57//57
f 55//55 57//57 48//48
f 48//48 57//57 58//58
f 48//48 58//58 50//50
f 40//40 6//6 20//20
f 40//40 20//20 51//51
f 20//20 54//54 52//52
f 20//20 19//19 54//54
f 54//54 19//19 36//36
f 54//54 36//36 56//56
f 14//14 49//49 25//25
f 25//25 49//49 50//50
f 25//25 50//50 58//58
f 25//25 58//58 28//28
f 56//56 28//28 57//57
f 56//56 36//36 29//29
f 56//56 29//29 28//28
f 28//28 58//58 57//57
# 112 faces, 0 coords texture

# End of File
