####
#
# OBJ File Generated by Meshlab
#
####
# Object step_51_link_7.obj
#
# Vertices: 74
# Faces: 144
#
####
vn 2.631575 1.056367 3.273103
v 0.170449 0.391339 0.483873
vn 3.213396 4.001150 2.976624
v 0.169787 0.393914 0.481570
vn 0.902668 3.535185 4.337492
v 0.154420 0.400981 0.481185
vn -0.227811 0.733455 6.153711
v 0.068818 0.391339 0.483873
vn 2.428789 -1.230512 3.036071
v 0.170449 0.289453 0.483873
vn 5.433798 -1.932671 0.324540
v 0.218175 0.339770 0.228028
vn 5.009374 2.225221 0.774361
v 0.218175 0.494418 0.228028
vn 2.294181 5.138242 2.790802
v 0.157603 0.400069 0.480416
vn 2.066863 4.923614 3.229020
v 0.155739 0.400598 0.480954
vn 4.067247 4.413672 1.196558
v 0.204670 0.506902 0.232719
vn 3.474167 4.720257 1.652507
v 0.204054 0.507358 0.232985
vn 2.809525 5.197433 1.177584
v 0.203526 0.507774 0.232725
vn 1.544409 5.632270 1.256818
v 0.202255 0.508321 0.232680
vn 0.648391 4.945723 3.370986
v 0.153966 0.401286 0.480914
vn -0.976660 1.793551 5.286726
v 0.045793 0.400981 0.481185
vn -2.238020 2.256928 3.054560
v 0.045204 0.401286 0.480914
vn 0.456390 5.936953 1.290538
v 0.201684 0.508396 0.232683
vn -0.394906 5.918476 1.763925
v 0.037742 0.508396 0.232683
vn 2.325825 -3.458858 1.758366
v 0.169787 0.286607 0.481570
vn -0.200442 -1.861440 5.571368
v 0.068818 0.289453 0.483873
vn 0.478798 -5.983922 1.093392
v 0.159454 0.284818 0.479919
vn 2.800668 -5.213093 -0.147251
v 0.169787 0.286607 0.376909
vn 0.115221 -5.011723 3.408391
v 0.159345 0.284878 0.480084
vn -0.016265 -4.000360 4.843570
v 0.063172 0.286607 0.481570
vn -0.179172 -6.090080 0.963780
v 0.049096 0.284818 0.479919
vn 0.576171 -6.173348 -0.436398
v 0.159454 0.284818 0.372920
vn -0.855199 -4.895595 2.219628
v 0.048492 0.284878 0.480084
vn 0.624624 -4.889256 -2.599331
v 0.204719 0.328340 0.070958
vn 5.287256 -2.075907 -0.609957
v 0.218175 0.339770 0.078696
vn 1.837205 -2.201682 -2.701339
v 0.208895 0.329838 0.069877
vn -0.272404 -6.228691 -0.421582
v 0.049096 0.284818 0.372920
vn -0.767587 -4.584816 -2.828275
v 0.039348 0.328340 0.070958
vn -1.259059 -2.117282 4.918291
v 0.045793 0.286375 0.481185
vn -2.770983 -2.283649 2.772805
v 0.045204 0.286290 0.480914
vn -4.366446 2.210142 1.665166
v 0.044978 0.401377 0.480454
vn -4.002130 -2.535749 0.929179
v 0.044978 0.286304 0.480454
vn -3.212268 3.005826 0.675832
v 0.037257 0.508321 0.232680
vn -6.232563 -0.526028 0.054261
v 0.037257 0.329174 0.232680
vn -1.499163 -5.940200 -0.465017
v 0.048492 0.284878 0.372830
vn -4.214369 -3.483807 -0.147234
v 0.044978 0.286304 0.374383
vn -2.318986 -2.696917 -2.925320
v 0.038233 0.328743 0.070855
vn -4.892254 -2.323934 -0.698320
v 0.037257 0.329174 0.072948
vn 4.276687 4.546742 0.449175
v 0.206660 0.505184 0.231477
vn 4.905667 2.070594 -1.077680
v 0.218175 0.494418 0.078696
vn 3.894533 4.072851 -1.851893
v 0.206660 0.505184 0.071203
vn 3.701749 4.594517 -1.438370
v 0.204670 0.506902 0.071212
vn 1.645905 4.953283 -1.849977
v 0.203526 0.507774 0.071634
vn 1.236426 5.880101 -0.856009
v 0.202255 0.508321 0.072948
vn 0.290699 6.029709 -1.100302
v 0.201684 0.508396 0.073067
vn 0.067971 6.247533 0.426463
v 0.201615 0.508398 0.232666
vn 0.084882 6.278336 -0.108856
v 0.201615 0.508398 0.073124
vn -0.545029 6.155546 0.579006
v 0.037734 0.508398 0.232666
vn 5.525108 0.813749 -2.154328
v 0.218065 0.492437 0.077574
vn 2.412273 1.601980 -4.000654
v 0.208895 0.501670 0.069877
vn 4.878197 0.418625 -3.390154
v 0.217910 0.491865 0.077095
vn 6.007817 -0.552360 -1.375885
v 0.218065 0.340636 0.077574
vn 4.829547 -0.920576 -3.054030
v 0.217910 0.340580 0.077095
vn 2.605654 3.416445 -4.104677
v 0.205040 0.506364 0.070855
vn 0.736000 2.212863 -5.650641
v 0.204655 0.506410 0.070764
vn -0.654669 0.399181 -6.135011
v 0.041508 0.501670 0.069877
vn 1.707054 3.796013 -2.967314
v 0.204054 0.507358 0.071166
vn -1.810337 1.055527 -5.348454
v 0.038213 0.506410 0.070764
vn -1.447925 3.293273 -4.454950
v 0.038168 0.507358 0.071166
vn 0.178676 5.855929 -2.245757
v 0.201756 0.508371 0.073007
vn -0.910216 4.940971 -3.369343
v 0.038231 0.507774 0.071634
vn -0.129284 5.768034 -2.481048
v 0.037771 0.508371 0.073007
vn -0.305332 6.002524 -1.295305
v 0.037742 0.508396 0.073067
vn -0.490501 6.233768 -0.148372
v 0.037734 0.508398 0.073124
vn -0.517195 -1.591907 -5.613871
v 0.041508 0.329838 0.069877
vn -2.957490 2.769838 -1.017170
v 0.037257 0.508321 0.072948
vn -2.741635 -0.209792 -5.465909
v 0.038213 0.329865 0.070764
vn -4.104922 1.256946 -3.289951
v 0.037661 0.506902 0.071212
vn -4.785787 -0.977701 -2.869987
v 0.037661 0.329534 0.071212
vn -2.786412 4.209141 -3.674792
v 0.037622 0.507978 0.072277
# 74 vertices, 0 vertices normals

f 1//1 2//2 3//3
f 1//1 3//3 4//4
f 1//1 5//5 6//6
f 1//1 4//4 5//5
f 1//1 7//7 2//2
f 1//1 6//6 7//7
f 2//2 8//8 9//9
f 2//2 9//9 3//3
f 2//2 7//7 10//10
f 2//2 10//10 11//11
f 2//2 11//11 12//12
f 2//2 12//12 8//8
f 8//8 12//12 9//9
f 9//9 12//12 13//13
f 9//9 13//13 3//3
f 3//3 14//14 15//15
f 3//3 15//15 4//4
f 3//3 13//13 14//14
f 14//14 16//16 15//15
f 14//14 13//13 17//17
f 14//14 17//17 18//18
f 14//14 18//18 16//16
f 5//5 19//19 6//6
f 5//5 4//4 20//20
f 5//5 20//20 19//19
f 19//19 21//21 22//22
f 19//19 23//23 21//21
f 19//19 22//22 6//6
f 19//19 20//20 24//24
f 19//19 24//24 23//23
f 21//21 23//23 25//25
f 21//21 26//26 22//22
f 21//21 25//25 26//26
f 23//23 24//24 27//27
f 23//23 27//27 25//25
f 22//22 26//26 28//28
f 22//22 29//29 6//6
f 22//22 30//30 29//29
f 22//22 28//28 30//30
f 26//26 25//25 31//31
f 26//26 31//31 32//32
f 26//26 32//32 28//28
f 4//4 15//15 33//33
f 4//4 33//33 20//20
f 15//15 16//16 34//34
f 15//15 34//34 33//33
f 16//16 35//35 36//36
f 16//16 36//36 34//34
f 16//16 37//37 35//35
f 16//16 18//18 37//37
f 35//35 37//37 38//38
f 35//35 38//38 36//36
f 20//20 27//27 24//24
f 20//20 33//33 27//27
f 25//25 27//27 39//39
f 25//25 39//39 31//31
f 27//27 33//33 34//34
f 27//27 34//34 36//36
f 27//27 36//36 40//40
f 27//27 40//40 39//39
f 36//36 38//38 40//40
f 31//31 39//39 32//32
f 39//39 40//40 41//41
f 39//39 41//41 32//32
f 40//40 38//38 42//42
f 40//40 42//42 41//41
f 7//7 43//43 10//10
f 7//7 44//44 43//43
f 7//7 6//6 44//44
f 43//43 44//44 45//45
f 43//43 45//45 46//46
f 43//43 46//46 10//10
f 10//10 12//12 11//11
f 10//10 46//46 47//47
f 10//10 47//47 12//12
f 12//12 47//47 48//48
f 12//12 48//48 13//13
f 13//13 48//48 49//49
f 13//13 49//49 17//17
f 17//17 50//50 18//18
f 17//17 49//49 51//51
f 17//17 51//51 50//50
f 50//50 51//51 52//52
f 50//50 52//52 18//18
f 44//44 53//53 54//54
f 44//44 54//54 45//45
f 44//44 6//6 29//29
f 44//44 29//29 53//53
f 53//53 55//55 54//54
f 53//53 29//29 56//56
f 53//53 56//56 55//55
f 55//55 56//56 57//57
f 55//55 57//57 54//54
f 54//54 58//58 45//45
f 54//54 59//59 58//58
f 54//54 57//57 30//30
f 54//54 30//30 60//60
f 54//54 60//60 59//59
f 45//45 58//58 46//46
f 58//58 59//59 61//61
f 58//58 61//61 46//46
f 59//59 60//60 62//62
f 59//59 62//62 61//61
f 46//46 61//61 47//47
f 61//61 62//62 63//63
f 61//61 63//63 47//47
f 47//47 64//64 48//48
f 47//47 63//63 65//65
f 47//47 65//65 64//64
f 48//48 64//64 49//49
f 64//64 65//65 66//66
f 64//64 66//66 49//49
f 49//49 66//66 67//67
f 49//49 67//67 51//51
f 51//51 67//67 68//68
f 51//51 68//68 52//52
f 29//29 57//57 56//56
f 29//29 30//30 57//57
f 30//30 28//28 69//69
f 30//30 69//69 60//60
f 28//28 32//32 69//69
f 37//37 18//18 52//52
f 37//37 52//52 68//68
f 37//37 70//70 38//38
f 37//37 68//68 70//70
f 60//60 69//69 71//71
f 60//60 71//71 62//62
f 62//62 72//72 63//63
f 62//62 71//71 73//73
f 62//62 73//73 72//72
f 72//72 70//70 63//63
f 72//72 73//73 42//42
f 72//72 42//42 70//70
f 63//63 74//74 65//65
f 63//63 70//70 74//74
f 65//65 74//74 70//70
f 65//65 70//70 66//66
f 70//70 67//67 66//66
f 70//70 68//68 67//67
f 70//70 42//42 38//38
f 69//69 32//32 41//41
f 69//69 41//41 71//71
f 41//41 73//73 71//71
f 41//41 42//42 73//73
# 144 faces, 0 coords texture

# End of File
